<svg width="24" height="24" viewBox="0 0 24 24" fill="none" xmlns="http://www.w3.org/2000/svg">
<path d="M5.43832 13.0078L6.0742 8.11585L0.558594 4.19541L5.59814 5.94326L6.7883 4.07352L11.1341 1.3125L20.7133 6.71618L21.2098 14.961L16.9422 21.0333L13.5689 21.5625L15.3133 18.2931V15.1456L14.0449 12.6874L12.7562 11.8135L10.7737 13.906V16.1204L9.22647 17.6037L7.26097 17.8474L6.39045 18.3523L4.96226 17.8857L4.36715 15.6922L5.43832 14.1498V13.0078Z" fill="white"/>
<path d="M14.5115 4.28251C13.4381 4.07698 12.2639 4.13157 12.2639 4.13157C12.2639 4.13157 11.8783 5.77908 9.48828 6.21267C9.50561 6.21267 12.646 7.20504 14.5115 4.28251Z" fill="#94A6C3"/>
<path d="M15.3482 20.315C16.5829 19.3207 17.5097 17.9519 17.9367 16.4026C17.9565 16.3448 18.1287 16.2426 18.2445 16.1643C18.4365 16.0451 18.6318 15.9464 18.6682 15.7864C18.7443 15.3301 18.784 14.8534 18.784 14.3767C18.784 14.1996 18.6086 14.0192 18.4365 13.8421C18.3008 13.7229 18.1651 13.5833 18.1651 13.4846C17.9731 11.6766 17.1621 9.98766 15.8679 8.7585L15.7322 8.89809C16.9867 10.1103 17.7977 11.7583 17.9731 13.505C17.9929 13.665 18.1452 13.8217 18.3008 13.9817C18.4365 14.1009 18.5921 14.2814 18.5921 14.3596C18.5921 14.8159 18.5523 15.2722 18.4762 15.7284C18.4563 15.8067 18.2842 15.8885 18.1485 15.9668C17.9565 16.0655 17.7811 16.1643 17.7447 16.3243C17.2813 18.0132 16.2188 19.4841 14.8087 20.4375C15.0603 19.8825 15.8514 18.0745 16.275 17.1585L16.1989 14.22L13.7461 11.7787L12.3559 11.9762L10.83 14.5197C10.83 14.5197 11.5449 15.4527 10.5387 16.5456C9.55565 17.6182 8.78111 17.8565 8.78111 17.8565L8.06614 17.4582C8.27797 17.179 8.70498 16.7636 9.03263 16.4843C9.59204 16.0077 10.1514 15.9668 10.1514 15.4526C10.1746 14.3767 9.0525 14.6729 9.0525 14.6729L8.64536 15.0713L8.47322 16.5422L7.62586 17.6352L7.52991 17.6148L6.13965 17.2981C6.13965 17.2981 6.99037 16.8419 7.12607 16.3243C7.26176 15.8272 6.85462 14.1792 6.83475 14.0805C6.85462 14.1009 7.24189 14.4379 7.41403 14.993C7.72186 14.1179 8.129 13.2837 8.24488 13.2054C8.3607 13.1271 9.92304 12.2724 9.92304 12.2724L9.40338 13.6821L9.79065 13.4641L10.7175 11.1216C10.7175 11.1216 11.6244 10.6653 12.2997 10.6653C13.5144 10.6448 15.3118 9.11599 14.5008 6.375C14.7325 6.47376 18.7476 8.5406 19.4427 12.5925C19.9624 15.708 18.2445 18.626 15.3482 20.315Z" fill="#94A6C3"/>
<path d="M10.7789 4.70402C11.3383 4.24272 11.1213 3.5625 11.1213 3.5625L9.48903 5.24994C9.46397 5.24994 10.0693 5.26742 10.7789 4.70402Z" fill="#1B314F"/>
<path d="M6.29971 15.5611L6.50066 14.8125C6.50066 14.8125 5.67548 15.8984 5.60281 16.0494C5.5258 16.2196 5.65407 16.5184 5.97476 16.4991C6.29971 16.4799 6.69733 16.1232 6.69733 15.863C6.69733 15.5257 6.29971 15.5611 6.29971 15.5611Z" fill="#1B314F"/>
<path fill-rule="evenodd" clip-rule="evenodd" d="M18.0534 3.10445C18.0534 3.10445 19.0449 3.14507 20.0737 3.26342C17.7546 1.4471 15.5578 0.916077 13.7752 0.916077C11.3961 0.916077 9.76 1.86276 9.56856 1.97354L9.55468 1.98149L10.3288 0.757109C10.3288 0.757109 7.23901 0.459424 6.14906 3.7167C5.87066 3.02666 5.61599 2.01873 5.61599 2.01873C5.61599 2.01873 4.00996 3.42239 4.76376 5.74948C2.92001 5.0798 0.288568 4.14962 0.186698 4.13274C0.0475025 4.11243 0.00673301 4.1733 0.00673301 4.1733C0.00673301 4.1733 -0.0339816 4.23079 0.0848294 4.33227C0.305564 4.50479 4.46493 7.56586 5.37831 8.15774C5.18135 8.86809 5.18135 9.20291 5.37831 9.53778C5.65676 9.99105 5.6737 10.2278 5.63638 10.5626C5.59561 10.8975 5.23912 13.7996 5.16102 14.1548C5.12932 14.2989 4.97341 14.5924 4.80186 14.9154C4.55079 15.3881 4.26617 15.924 4.28836 16.147C4.32913 16.5224 4.84181 18.1189 5.30022 18.2982C5.63637 18.4166 6.46822 18.6736 7.02172 18.6736C7.21863 18.6736 7.39859 18.6331 7.47669 18.5553C7.81285 18.261 7.91127 18.2001 8.14895 18.2001H8.20672C8.25169 18.2001 8.30093 18.2043 8.35438 18.209C8.418 18.2144 8.48762 18.2204 8.5632 18.2204C8.87898 18.2204 9.29662 18.1595 9.59201 17.8855C9.79602 17.6824 10.0703 17.4441 10.3285 17.2199V17.2198L10.3286 17.2198C10.6206 16.9662 10.892 16.7305 11.0181 16.5833C11.3169 16.2079 11.4731 15.6972 11.395 15.183C11.3339 14.7095 11.592 14.2934 11.8907 13.8808C12.2676 13.3869 12.9603 12.5007 12.9603 12.5007C14.3287 13.5223 15.1809 15.0815 15.1809 16.8167C15.1809 19.8947 12.4883 22.3807 9.16081 22.3807C8.64469 22.3807 8.15239 22.3232 7.65665 22.2048C9.1812 22.7359 10.4681 22.9152 11.5206 22.9152C13.7582 22.9152 14.9466 22.1068 14.9466 22.1068C14.9466 22.1068 14.5323 22.6412 13.8567 23.25H13.8771C17.5815 22.7359 19.3844 19.6985 19.3844 19.6985C19.3844 19.6985 19.2452 20.6861 19.0686 21.3559C23.8793 17.7527 23.1995 13.2659 23.1459 12.9115V12.9114L23.1456 12.9102C23.145 12.9057 23.1444 12.9019 23.144 12.8989C23.1436 12.8965 23.1434 12.8946 23.1431 12.8931C23.1628 12.9208 23.2879 13.0724 23.4408 13.2576L23.4412 13.2582L23.4413 13.2583C23.6059 13.4577 23.8024 13.6958 23.9343 13.8605C24.7288 5.72923 18.0534 3.10445 18.0534 3.10445ZM10.4681 16.0895C10.4047 16.169 10.1716 16.3798 9.95899 16.5722L9.95893 16.5722C9.90942 16.617 9.861 16.6608 9.81613 16.7017C9.73853 16.7724 9.65874 16.843 9.57966 16.9131C9.41647 17.0577 9.25607 17.1998 9.12343 17.3342C9.04533 17.412 8.88575 17.4526 8.64808 17.4526H8.43078H8.31192H8.23382H8.05391C8.35269 17.0568 9.22191 16.1504 9.52069 15.9542C9.87723 15.7174 10.0572 15.4806 9.83646 15.068C9.61917 14.6519 9.04533 14.7534 9.04533 14.7534C9.04533 14.7534 9.38149 14.6147 9.68032 14.6147C9.3034 14.5166 8.82804 14.6147 8.61075 14.8312C8.45237 14.9755 8.41761 15.3659 8.38291 15.7555C8.36553 15.9507 8.34821 16.1456 8.31536 16.3093C8.22683 16.7714 7.94636 17.0258 7.51576 17.4164C7.46729 17.4604 7.41685 17.5061 7.3646 17.554C7.08621 17.8111 6.88925 17.8889 6.72967 17.8889C6.39351 17.8314 5.99625 17.7299 5.71786 17.6318C5.5209 17.3748 5.22212 16.5258 5.14403 16.1706C5.18594 16.0281 5.3229 15.7696 5.44023 15.548V15.5479C5.48439 15.4646 5.52576 15.3864 5.55828 15.3217L5.59233 15.2567C5.80929 14.8434 5.93712 14.5998 5.97587 14.3746C6.05396 14.0397 6.31202 11.9663 6.41051 11.1005C6.66857 11.4353 7.02505 11.99 6.94357 12.3451C7.5174 11.5367 7.10315 10.7453 6.90285 10.4307C6.72628 10.1162 6.4886 9.48366 6.68551 8.81392C6.88247 8.14424 7.5955 6.28731 7.5955 6.28731C7.5955 6.28731 7.83318 6.70335 8.16933 6.62212C8.50549 6.54438 11.2184 2.4787 11.2184 2.4787C11.2184 2.4787 11.9518 4.07519 11.1777 5.24214C10.3865 6.40566 9.61239 6.62212 9.61239 6.62212C9.61239 6.62212 10.7023 6.81833 11.7108 6.08772C12.125 7.05509 12.5223 8.05964 12.5427 8.19836C12.5285 8.23053 12.4748 8.35743 12.4 8.5348V8.53486C12.1525 9.12108 11.6722 10.2587 11.6123 10.3495C11.5716 10.3902 11.2965 10.468 11.0962 10.5085C10.7601 10.6066 10.5631 10.6675 10.4816 10.725C10.3424 10.8434 9.70748 12.5785 9.41204 13.4275C9.05555 13.5256 8.69901 13.7252 8.44095 14.1175C8.5802 14.0194 9.01478 13.9586 9.33394 13.9213C9.61239 13.9011 10.4612 14.3543 10.682 15.2033V15.2439C10.7261 15.5551 10.6276 15.8527 10.4681 16.0895ZM8.77733 15.6232C8.76634 15.8144 8.74852 16.1245 8.60725 16.3263C8.64463 16.2857 8.92303 15.988 9.06566 15.8527C9.1278 15.7961 9.19814 15.7516 9.26519 15.7092C9.41062 15.6172 9.54102 15.5348 9.54102 15.3589C9.54102 15.0849 9.16409 15.024 9.00451 15.0646C8.84537 15.1017 8.80782 15.3575 8.78738 15.4964L8.78722 15.4976C8.78285 15.5274 8.78033 15.5708 8.77733 15.6232V15.6232ZM16.5085 12.5549C16.7054 11.5503 16.7258 10.681 16.6681 9.97075C17.4388 10.9956 17.9142 12.2403 18.0534 13.5223C18.0738 13.6812 18.23 13.8368 18.3895 13.9958C18.5287 14.1142 18.6884 14.2731 18.6884 14.3712C18.6884 14.8245 18.6476 15.2777 18.5695 15.7343C18.5491 15.7918 18.3725 15.8933 18.2333 15.9711C18.0364 16.0692 17.8565 16.1673 17.8191 16.3263C17.3845 17.845 16.4507 19.1878 15.2047 20.1348C17.045 18.2204 17.9346 15.0612 16.5085 12.5549ZM17.9753 16.3837C17.5408 17.943 16.5493 19.323 15.2624 20.3107C17.9957 19.0085 19.8768 16.2247 19.8768 13.0284C19.8768 8.86804 16.7055 5.43492 12.6445 4.99857C12.5087 5.21509 12.3695 5.41124 12.2303 5.57021L12.2324 5.57532C12.5293 6.30973 13.2999 8.21545 13.2999 8.31334C13.2999 8.43169 12.923 9.39568 12.8823 9.4363C12.8449 9.4566 12.3899 9.49716 12.2099 9.49716C12.013 9.97069 11.8161 10.424 11.7753 10.4848C11.7142 10.5626 11.5376 10.6235 11.1608 10.7216C11.1291 10.7307 11.095 10.7403 11.0599 10.7502C10.8733 10.8028 10.6586 10.8633 10.6243 10.8975C10.5258 11.0159 9.98932 12.4162 9.63283 13.4039C10.1082 13.3226 10.5258 13.4207 10.6243 13.4614C11.3984 12.0002 12.0096 11.2121 12.1692 11.2121C12.1855 11.2103 12.2196 11.2116 12.2686 11.2135C12.7004 11.2299 14.2846 11.2901 14.9433 9.71367C15.6455 8.00466 14.6581 6.54498 14.5892 6.44322C14.5882 6.44165 14.5874 6.44039 14.5867 6.43947C14.5874 6.4398 14.5884 6.44034 14.5899 6.44099C14.6777 6.48351 16.2161 7.22816 16.607 9.55808C17.4966 10.6844 18.0704 12.0441 18.23 13.485C18.23 13.5578 18.3179 13.653 18.4036 13.7456C18.4333 13.7778 18.4627 13.8097 18.4881 13.8402C18.6647 14.0161 18.8446 14.1953 18.8446 14.3712C18.8446 14.8448 18.8039 15.3183 18.7258 15.7715C18.6884 15.9305 18.4881 16.0489 18.2911 16.1469C18.2685 16.1618 18.2439 16.1774 18.2186 16.1934C18.1108 16.2618 17.9918 16.3372 17.9753 16.3837Z" fill="#1B314F"/>
<path d="M9.8657 9.52792C10.2275 9.10006 10.0385 8.30122 9.37022 8.1642C9.54299 7.75641 9.78748 6.9375 9.78748 6.9375C9.78748 6.9375 7.84797 10.056 7.67846 10.1161C7.50569 10.1763 7.33617 9.49112 7.33617 9.49112C6.97436 10.915 7.94572 11.1089 8.05983 10.661C8.59115 10.5206 9.50385 9.93565 9.8657 9.52792Z" fill="#1B314F"/>
<path d="M8.37207 10.3125L9.18757 8.625C9.18757 8.625 9.65859 8.91116 9.42176 9.36636C9.12567 9.89634 8.37207 10.3125 8.37207 10.3125Z" fill="#FFD923"/>
<path d="M21.1512 18.6691C20.8438 19.0654 20.498 19.4787 20.0928 19.875C22.7196 14.9735 20.215 10.4887 20.1137 10.3125C20.2988 10.492 20.4805 10.6885 20.6447 10.8646C22.6602 13.0359 22.9047 16.298 21.1512 18.6691Z" fill="#D82122"/>
<path d="M23.4416 12C22.5595 9.62113 21.3086 7.59603 18.5518 5.76975C15.8922 4.00074 13.0348 4.13893 12.8772 4.15916C12.857 4.15916 12.8369 4.15916 12.8369 4.15916C12.9342 4.1187 13.0315 4.09847 13.1287 4.08166C13.7357 3.8862 14.5172 3.72784 15.3019 3.63011C17.3779 3.33025 19.4707 4.03784 20.8994 5.55412C20.9195 5.57435 20.9195 5.57435 20.9397 5.59458C22.5629 7.32312 23.4047 9.483 23.4416 12Z" fill="#D82122"/>
<path d="M17.8609 2.26062C14.8366 1.74026 12.8877 1.99887 11.4851 2.48408C11.4434 2.33405 11.3007 2.03715 11.1789 1.79452C10.7578 2.26062 10.3089 2.81931 10.0269 3.17364C9.25432 3.65891 8.93066 4.125 8.93066 4.125C9.37616 2.72671 10.6777 1.686 12.2612 1.42421C12.7067 1.35078 13.194 1.3125 13.7229 1.3125C15.122 1.33167 16.521 1.64767 17.8609 2.26062Z" fill="#D82122"/>
<path d="M6.69786 6.375C4.36124 6.28505 5.13895 3.1799 5.18009 3C5.18009 3.02348 5.33769 5.44031 6.69786 6.375Z" fill="#D82122"/>
<path d="M8.93028 1.3125C7.3993 2.30883 7.70547 4.6875 7.70547 4.6875C6.24157 2.27406 8.81068 1.36942 8.93028 1.3125Z" fill="#D82122"/>
<path d="M5.98054 6.92204C6.09789 7.01113 6.2153 7.17403 6.07781 7.40763C6.00067 7.53362 5.88326 7.51522 5.7055 7.44453C5.47073 7.33693 4.06213 6.58392 2.79102 5.8125C4.23989 6.27968 5.7055 6.78066 5.94027 6.8882C5.94027 6.8882 5.9604 6.90665 5.98054 6.92204Z" fill="white"/>
</svg>
