<svg width="24" height="24" viewBox="0 0 24 24" fill="none" xmlns="http://www.w3.org/2000/svg">
<circle cx="12" cy="12" r="12" fill="#FAFBFB"/>
<path d="M12.5096 2.08008C12.5759 2.18685 12.6356 2.26025 12.682 2.347C13.4645 3.7283 14.2537 5.10293 15.0362 6.4909C15.0958 6.60435 15.1555 6.7378 15.1555 6.86459C15.1622 8.57954 15.1622 10.2878 15.1622 12.0028C15.1622 12.0428 15.1489 12.0895 15.1356 12.1629C13.2656 11.569 11.5414 11.8893 9.90348 12.997C9.89022 12.8636 9.87695 12.7702 9.87695 12.6767C9.87695 10.7883 9.87695 8.89317 9.87695 7.00472C9.87695 6.85792 9.89685 6.68442 9.96316 6.55763C10.7589 5.12295 11.568 3.68826 12.377 2.26025C12.4101 2.20686 12.4499 2.15348 12.5096 2.08008Z" fill="#070F62"/>
<path d="M12.5901 18.1877C11.8477 18.1877 11.1119 18.181 10.3695 18.1944C10.1441 18.2011 10.038 18.1342 9.97836 17.8998C9.64028 16.6142 10.164 15.1813 11.3041 14.3243C12.3382 13.5475 13.8894 13.4739 14.9567 14.1569C15.0561 14.2171 15.1489 14.3778 15.1489 14.4983C15.1622 15.6366 15.1555 16.7749 15.1622 17.9132C15.1622 18.1409 15.0826 18.1944 14.8705 18.1944C14.1082 18.181 13.3458 18.1877 12.5901 18.1877Z" fill="#070F62"/>
<path d="M7.88404 18.1957C6.36226 18.1957 4.85382 18.1957 3.29199 18.1957C4.82045 15.5097 6.32889 12.8705 7.83065 10.2246C7.85067 10.2313 7.86402 10.238 7.88404 10.2447C7.88404 12.8906 7.88404 15.5365 7.88404 18.1957Z" fill="#070F62"/>
<path d="M17.2087 10.2246C18.7171 12.8705 20.2189 15.5097 21.7473 18.1957C20.1855 18.1957 18.6837 18.1957 17.1553 18.1957C17.1553 15.5365 17.1553 12.8906 17.1553 10.2447C17.1753 10.238 17.1953 10.2313 17.2087 10.2246Z" fill="#070F62"/>
</svg>
