<svg width="24" height="24" viewBox="0 0 24 24" fill="none" xmlns="http://www.w3.org/2000/svg">
<g clip-path="url(#clip0_2572_3323)">
<path d="M12.6719 0C12.795 0.0639715 12.9222 0.121376 13.0404 0.193617C13.2411 0.315966 13.3727 0.503015 13.4732 0.70928C13.7692 1.31689 14.0633 1.92571 14.3607 2.53235C14.7144 3.25403 15.0744 3.97304 15.4298 4.694C15.771 5.38625 16.1035 6.08264 16.4424 6.77587C16.5856 7.06921 16.727 7.36401 16.8855 7.64909C16.9585 7.77995 16.9439 7.87943 16.8785 8.00446C15.4791 10.6759 14.0832 13.3491 12.6868 16.0223C12.2701 16.8199 11.851 17.6162 11.4397 18.4167C11.3614 18.569 11.2522 18.7089 11.1972 18.8665C11.1108 19.1134 10.9231 19.2899 10.7937 19.505C10.6633 19.7215 10.4918 19.9214 10.3242 20.1184C10.0537 20.4366 9.75455 20.7243 9.4561 21.015C9.36391 21.1047 9.24862 21.1641 9.16835 21.2575C9.00733 21.4448 8.79012 21.5601 8.59455 21.6912C8.16719 21.9777 7.70649 22.2117 7.23875 22.4331C6.91767 22.5848 6.57276 22.6568 6.24999 22.7989C6.08969 22.8694 5.90337 22.8908 5.72557 22.9251C5.43052 22.982 5.13474 23.0412 4.83726 23.0718C4.4566 23.111 4.07204 23.1034 3.68845 23.0973C2.80429 23.0832 1.95612 22.886 1.13349 22.5822C0.740172 22.4365 0.358046 22.2562 0 22.0329C0 22.0249 0 22.0166 0 22.0086C0.0058377 22.0033 0.0138645 21.9991 0.0172699 21.9926C0.302831 21.4497 0.587419 20.9065 0.873466 20.3638C1.17119 19.799 1.47037 19.2347 1.76834 18.6702C1.9819 18.2657 2.19473 17.8607 2.40781 17.4559C2.51216 17.2575 2.61651 17.0592 2.72012 16.8605C2.82861 16.652 2.93515 16.4424 3.0446 16.2344C3.17887 15.9792 3.31606 15.7255 3.45081 15.4706C3.56051 15.2629 3.66826 15.0542 3.77772 14.8462C3.9115 14.5923 4.04699 14.3391 4.18052 14.0849C4.28779 13.8806 4.39165 13.6743 4.49965 13.4702C4.6344 13.2158 4.78108 12.9675 4.90513 12.7082C5.01191 12.4851 5.13231 12.2689 5.24834 12.0517C5.36655 11.8301 5.47284 11.6017 5.60152 11.3847C5.75135 11.132 5.87443 10.8635 6.01186 10.6032C6.19453 10.2576 6.38523 9.91606 6.56206 9.5675C6.7153 9.2654 6.87535 8.96719 7.03565 8.66874C7.2694 8.2331 7.49488 7.79284 7.72498 7.35526C7.96797 6.89262 8.21218 6.43071 8.45591 5.96856C8.69939 5.50665 8.94384 5.04548 9.18586 4.58259C9.4021 4.16909 9.60521 3.74829 9.83312 3.3416C10.0525 2.94974 10.2522 2.54791 10.4677 2.15435C10.683 1.76128 10.881 1.35848 11.0926 0.96322C11.168 0.822143 11.2145 0.659903 11.3084 0.537555C11.5066 0.27948 11.7617 0.0827007 12.0884 0.000243237C12.283 0.000243237 12.4776 0.000243237 12.6722 0.000243237L12.6719 0Z" fill="url(#paint0_linear_2572_3323)"/>
<path d="M17.254 8.37891C17.4288 8.73355 17.593 9.06605 17.7565 9.3988C18.1457 10.1915 18.5341 10.9847 18.9235 11.7774C19.2809 12.5052 19.6384 13.2332 19.9965 13.9607C20.4606 14.9038 20.9305 15.8441 21.3883 16.7903C21.7813 17.603 22.1815 18.412 22.5794 19.2222C22.757 19.5836 22.934 19.9458 23.1092 20.3087C23.3938 20.8983 23.683 21.486 23.9753 22.072C24.0213 22.1641 24.0036 22.2062 23.9136 22.2449C23.6494 22.3587 23.3935 22.4894 23.1225 22.5898C22.7414 22.7311 22.3488 22.8219 21.9533 22.9089C21.3824 23.0347 20.8062 23.0279 20.227 23.0264C19.8744 23.0254 19.5338 22.9559 19.1911 22.8973C18.8321 22.8357 18.4857 22.7231 18.142 22.6C17.5724 22.3962 17.0474 22.1101 16.5386 21.7876C16.0241 21.4614 15.587 21.047 15.1757 20.6052C14.5589 19.9431 14.1111 19.1704 13.7294 18.3548C13.521 17.9097 13.2938 17.4738 13.0771 17.0326C13.0243 16.9251 12.9822 16.8124 12.9307 16.7044C12.9066 16.6543 12.9141 16.6125 12.9394 16.5682C13.1082 16.2734 13.2598 15.9696 13.4162 15.668C13.6217 15.2713 13.8481 14.885 14.0459 14.4847C14.1575 14.2587 14.2872 14.0427 14.3952 13.815C14.5078 13.5779 14.6413 13.3504 14.7634 13.1177C14.8989 12.8591 15.03 12.5981 15.1662 12.3398C15.2888 12.107 15.417 11.8774 15.5399 11.6449C15.6654 11.407 15.7863 11.1667 15.9118 10.9288C16.0446 10.6773 16.182 10.4282 16.3143 10.1764C16.4415 9.93441 16.5629 9.68947 16.6901 9.44745C16.8225 9.1957 16.9591 8.94614 17.0927 8.69511C17.1433 8.59977 17.191 8.50296 17.2542 8.37891H17.254Z" fill="url(#paint1_linear_2572_3323)"/>
</g>
<defs>
<linearGradient id="paint0_linear_2572_3323" x1="10.5113" y1="21.3137" x2="8.69817" y2="15.627" gradientUnits="userSpaceOnUse">
<stop stop-color="#4689F3"/>
<stop offset="1" stop-color="#4273E8"/>
</linearGradient>
<linearGradient id="paint1_linear_2572_3323" x1="18.6117" y1="23.4905" x2="18.0347" y2="8.16145" gradientUnits="userSpaceOnUse">
<stop stop-color="#4689F3"/>
<stop offset="1" stop-color="#4273E8"/>
</linearGradient>
<clipPath id="clip0_2572_3323">
<rect width="24" height="24" fill="white"/>
</clipPath>
</defs>
</svg>
