<svg width="24" height="24" viewBox="0 0 24 24" fill="none" xmlns="http://www.w3.org/2000/svg">
<g clip-path="url(#clip0_720_11719)">
<path fill-rule="evenodd" clip-rule="evenodd" d="M12 24C5.4 24 0 18.6001 0 11.9402C0.06 5.34039 5.4 -0.0595034 12.06 0.000495202C18.66 0.0604941 24 5.40039 24 12.1202C23.94 18.6601 18.6 24 12 24Z" fill="#10131E"/>
<path d="M18.75 16.419L14.4386 12.1076L18.75 7.79616L16.1865 5.23242L11.8751 9.54383L7.56345 5.23242L5 7.79616L9.3114 12.1076L5 16.419L7.56345 18.9824L11.8751 14.671L16.1865 18.9824L18.75 16.419Z" fill="url(#paint0_linear_720_11719)"/>
<path d="M10.3984 21.5293L7.81152 19.0561L9.99073 16.9727L11.9365 18.8551L13.882 16.9727L16.0615 19.0561L13.4746 21.5293L11.9365 22.9998L10.3984 21.5293Z" fill="url(#paint1_linear_720_11719)"/>
<path d="M7.81152 4.94373L10.3984 2.47053L11.9365 1L13.4746 2.47053L16.0615 4.94373L13.882 7.02718L11.9365 5.1445L9.99073 7.02718L7.81152 4.94373Z" fill="url(#paint2_linear_720_11719)"/>
</g>
<defs>
<linearGradient id="paint0_linear_720_11719" x1="4" y1="8.5" x2="19" y2="19" gradientUnits="userSpaceOnUse">
<stop stop-color="#5601E3"/>
<stop offset="1" stop-color="#AF50FF"/>
</linearGradient>
<linearGradient id="paint1_linear_720_11719" x1="8" y1="20" x2="16" y2="20" gradientUnits="userSpaceOnUse">
<stop stop-color="#380197"/>
<stop offset="1" stop-color="#5800EA"/>
</linearGradient>
<linearGradient id="paint2_linear_720_11719" x1="8" y1="3" x2="16" y2="3" gradientUnits="userSpaceOnUse">
<stop stop-color="#35008F"/>
<stop offset="0.998817" stop-color="#5800EA"/>
</linearGradient>
<clipPath id="clip0_720_11719">
<rect width="24" height="24" fill="white"/>
</clipPath>
</defs>
</svg>
