<svg width="24" height="24" viewBox="0 0 24 24" fill="none" xmlns="http://www.w3.org/2000/svg">
<g clip-path="url(#clip0_720_11706)">
<path d="M12 24C18.6274 24 24 18.6274 24 12C24 5.37258 18.6274 0 12 0C5.37258 0 0 5.37258 0 12C0 18.6274 5.37258 24 12 24Z" fill="#1D0D4B"/>
<path d="M12.8101 4.33746C12.76 4.30435 12.725 4.25555 12.7115 4.20031C12.6981 4.14507 12.7072 4.08723 12.7372 4.03775C12.7791 4.01309 12.8278 4 12.8776 4C12.9273 4 12.9761 4.01309 13.018 4.03775C13.6523 4.27929 14.2265 4.6366 14.7057 5.08795C14.9784 5.31997 15.207 5.59077 15.3807 5.8888C15.5643 6.19263 15.7147 6.51051 15.8308 6.83992C15.9415 7.1809 15.9991 7.53509 16 7.89012C15.9433 8.24103 15.8875 9.9418 14.8182 10.7427C14.6821 10.8178 14.5205 10.8439 14.3646 10.8162C14.2087 10.7884 14.0695 10.7087 13.9739 10.5924C13.8975 10.5102 13.851 10.4082 13.841 10.3005C13.831 10.1929 13.8579 10.0851 13.9181 9.99216C14.3727 9.34659 14.6238 8.5983 14.6437 7.82996C14.6635 7.06165 14.4514 6.30323 14.0306 5.63865C13.6705 5.17133 13.2619 4.73624 12.8101 4.33746ZM11.1503 19.6793C11.2628 19.7792 11.2628 19.8791 11.207 19.9294C11.1512 19.9798 11.0378 20.0293 10.982 19.979C10.3477 19.7374 9.77347 19.3802 9.29434 18.9288C9.02242 18.698 8.79431 18.4274 8.61926 18.1279C8.43597 17.8253 8.28528 17.507 8.16919 17.1776C8.058 16.8366 8.001 16.4826 8 16.1266C8.05669 15.7765 8.11251 14.0749 9.18183 13.2741C9.31782 13.1992 9.4792 13.1732 9.63491 13.2009C9.79058 13.2287 9.92962 13.3082 10.0252 13.4243C10.1071 13.5064 10.1525 13.6136 10.1525 13.7248C10.1525 13.8361 10.1071 13.9433 10.0252 14.0254C9.57076 14.6708 9.31974 15.419 9.29988 16.1872C9.28003 16.9553 9.49212 17.7136 9.91269 18.3781C10.2772 18.8462 10.6922 19.2822 11.1503 19.6793Z" fill="white" fill-opacity="0.5"/>
<path d="M15.9866 15.5489C15.907 14.5894 15.5026 13.6788 14.8324 12.9501C14.154 12.3103 13.376 11.7708 12.525 11.3501C11.7828 10.9651 11.0834 10.5115 10.4374 9.99585C9.90613 9.52731 9.54178 8.91645 9.39403 8.24653C9.26285 7.55485 9.35656 6.84214 9.66299 6.20113C10.0301 5.48799 10.5566 4.85737 11.2065 4.35204C11.2431 4.32145 11.2682 4.28066 11.2782 4.23568C11.2882 4.19065 11.2824 4.14386 11.2619 4.10212C11.2462 4.07584 11.2244 4.05321 11.1981 4.03594C11.1718 4.0187 11.1416 4.00726 11.1099 4.00251C11.0782 3.99775 11.0457 3.99979 11.0149 4.00846C10.9842 4.01714 10.9559 4.03226 10.9323 4.05265C10.0568 4.41098 9.31194 5.00153 8.78927 5.75163C8.20472 6.53971 7.9309 7.49419 8.01485 8.45107C8.05871 8.93456 8.18886 9.40766 8.39987 9.85069C8.62822 10.2892 8.92441 10.6936 9.27887 11.0507C9.97743 11.677 10.7739 12.1993 11.6408 12.5996C12.3862 12.9625 13.0867 13.3988 13.7284 13.8994C14.2929 14.3642 14.663 15.002 14.7726 15.699C14.9273 16.424 14.8307 17.1753 14.4975 17.8483C14.1236 18.5569 13.5778 19.1733 12.9039 19.648C12.8816 19.6599 12.8623 19.6763 12.8472 19.6958C12.8321 19.7153 12.8216 19.7376 12.8164 19.7612C12.8112 19.7848 12.8113 19.8092 12.8168 19.8328C12.8224 19.8563 12.8332 19.8785 12.8485 19.8978C12.8793 19.9506 12.9364 19.9886 13.0006 19.9976C13.0647 20.0067 13.1316 19.9894 13.179 19.9482C13.9957 19.5057 14.7064 18.9099 15.2667 18.198C15.8116 17.4079 16.063 16.4792 15.9866 15.5489Z" fill="white"/>
</g>
<defs>
<clipPath id="clip0_720_11706">
<rect width="24" height="24" fill="white"/>
</clipPath>
</defs>
</svg>
