<svg width="24" height="24" viewBox="0 0 24 24" fill="none" xmlns="http://www.w3.org/2000/svg">
<g clip-path="url(#clip0_3124_2446)">
<circle cx="12" cy="12" r="12" fill="#010E27"/>
<path fill-rule="evenodd" clip-rule="evenodd" d="M5.9123 22.342L7.32816 20.9869L7.70761 18.7576L7.51788 17.3347L6.66413 14.9157L5.83409 14.394L5.66808 13.8248L5.3835 12.8287L5.0752 11.9038V10.5995L5.26492 10.2675L6.14239 10.8367V9.76946L5.83409 7.65879L6.0001 6.06986L6.66413 4.52835L7.32816 3.50859L9.3914 2.58369L14.3242 2.27539L17.4072 5.05009L18.1187 8.77341L17.8578 9.76946V10.5995L18.925 10.4572V12.0461L18.3558 13.4454L18.1187 14.6074H17.6681L17.2175 16.5521L16.4112 18.1884V19.3979L17.2175 21.6983L17.9569 22.4182C16.2016 23.4238 14.168 23.9987 12.0001 23.9987C9.77803 23.9987 7.69703 23.3948 5.9123 22.342Z" fill="url(#paint0_linear_3124_2446)"/>
<path fill-rule="evenodd" clip-rule="evenodd" d="M6.21476 22.5158C6.10084 22.453 5.98804 22.3884 5.87641 22.3221L6.66332 21.462L7.2562 20.3948L7.49336 19.0193L7.58822 17.9521L8.0151 18.5687V19.7545L7.58822 21.3908L6.75818 22.458L6.21476 22.5158ZM8.60798 2.44222L7.37478 3.4857L7.30363 4.31574H8.10996L8.67913 5.09835L9.69889 6.52128L10.1732 7.18531L9.31944 7.87305V9.05883L8.89257 9.58056L8.37083 9.55685L7.8728 10.0786L7.2562 10.126L6.16529 8.82167L6.23644 9.9363L6.52103 11.6912L6.92419 11.9521L7.8728 12.3316L8.56055 13.5173L9.41431 13.5885L10.6238 12.5924L11.359 11.6912L12.1179 11.881V11.0509L11.525 10.6478L11.027 10.5055L9.31944 9.05883L12.0467 9.65171L14.1337 9.05883L13.8254 6.63985L11.9281 3.22483L9.50917 2.03906L8.60798 2.44222ZM18.023 6.73471L17.7621 5.69124L16.9084 4.76634L14.7266 4.31574L14.8926 8.01535L16.9084 9.1774L17.691 9.41456L18.1179 8.75052V7.75448L18.023 6.73471ZM6.16529 14.8691H6.59217V14.2288L5.64355 13.5885V14.3711L6.16529 14.8691ZM8.94 19.7545L9.20087 20.3948L8.94 20.9165L9.20087 21.462L9.81747 22.0786L10.7187 22.5766L11.7621 22.7901L12.023 22.7426V21.6043L10.1732 20.3948L8.94 19.7545ZM15.0111 18.2841L14.276 18.7821L12.7819 19.375L11.525 18.9007L11.1218 19.0193L11.193 19.9205L12.2839 20.3474L13.1376 20.6082L13.6119 19.9205L14.2285 20.2051L14.6791 19.5648L15.3194 18.9007L15.0111 18.2841ZM15.2483 13.9442L16.1732 14.2288L16.6949 13.2802L15.3194 12.5213L15.2483 13.9442ZM18.1179 14.3711L17.691 14.0153L17.7621 13.5885L18.355 13.0904V13.5885L18.1179 14.3711ZM6.59217 12.1418L6.99533 13.1616L7.2562 14.5371L8.1811 14.3711L8.94 14.6794L8.65541 16.2446L8.37083 17.6912L10.3866 20.3948L8.86885 19.5648L7.2562 17.3355L6.75818 14.7505L6.40245 12.5213L6.59217 12.1418ZM16.0546 20.3948L16.4104 19.0193L16.6238 19.8256L16.9558 20.8217L17.525 21.9126L17.0507 22.1497L16.5289 21.7229V21.2011L16.0546 20.3948ZM9.05857 18.4027C9.4064 18.4422 10.0831 18.4976 10.0072 18.4027C9.9313 18.3078 9.39059 17.8256 9.12972 17.5964H8.89257L9.05857 18.4027ZM14.8926 10.3869L13.5171 10.8375L14.9874 10.5529L16.4578 10.4817L14.8926 10.3869ZM14.1337 11.3355H15.3194L16.3155 11.1221L16.6949 11.1932L15.2483 11.4778L14.1337 11.3355Z" fill="url(#paint1_linear_3124_2446)"/>
<path d="M16.6245 9.48706L16.909 9.15505L16.3162 8.53844L16.743 7.80327L15.913 7.06809V6.66493L15.3201 4.95742H16.8379L17.4782 5.76374L17.7628 5.66888L17.4071 4.64912L16.909 3.77165L15.6047 2.44358L13.826 1.66097L11.9762 1.25781L10.0079 1.70841L8.60865 2.44358L9.22525 2.34872L9.6047 2.68074L10.0079 3.03647V4.12738L11.9762 4.83884V7.06809L13.4703 8.23014L14.0395 9.06018L15.3201 9.36848L16.6245 9.48706Z" fill="url(#paint2_linear_3124_2446)"/>
<path d="M12.0711 18.9258H11.5494L12.0711 19.827L13.0909 19.6847L13.66 19.7321L13.9683 19.163L14.4426 18.7361L13.9683 18.4752L13.2806 18.8072L12.0711 18.9258Z" fill="url(#paint3_linear_3124_2446)"/>
<path d="M18.498 10.3645L17.7865 10.8626H18.498L18.9486 10.4594L18.498 10.3645Z" fill="url(#paint4_linear_3124_2446)"/>
<path d="M18.1897 12.4278L17.7865 13.0444V13.5898L18.1897 13.4238L18.3083 13.7796L18.7826 12.7124L18.9011 12.0246L18.5928 12.4278H18.1897Z" fill="url(#paint5_linear_3124_2446)"/>
<path d="M12.0711 22.0325L10.7668 21.6056L10.5533 21.155L9.67584 20.3724L8.70351 19.5661L7.77861 18.4752L7.23316 17.7163L6.82999 16.744L6.61655 15.2499L6.3794 13.6847L6.11853 12.5226L6.0711 12.4752L5.97624 11.9772L5.73908 11.5977H5.43078L5.05134 11.906L5.00391 10.9811L5.07505 10.5068L5.43078 10.6491L5.97624 11.2657L6.0711 10.2934L5.85766 8.72817L5.86715 7.6088L6.23711 7.42382L6.78256 8.18271L6.23711 8.23014C6.26873 8.60169 6.33197 9.3258 6.33197 9.24991C6.33197 9.17402 6.52169 10.1669 6.61655 10.6728L6.66399 12.072L6.49798 12.8784L6.75885 13.6847L6.94857 14.657L7.47031 15.7242V16.9811L8.13434 18.1432L8.94067 18.9258L9.48612 19.8981L10.2924 20.3724H10.8616L12.0711 20.9653V22.0325Z" fill="url(#paint6_linear_3124_2446)"/>
<path d="M13.5415 18.072L12.166 18.2143V18.7361H11.3596L10.6245 18.4752L10.1027 18.3329L9.84185 18.0246L10.1027 17.9298L10.5533 18.072L11.4308 18.2143H12.166V17.6452L14.1581 17.7163L14.0395 17.8586L13.5415 18.072Z" fill="url(#paint7_linear_3124_2446)"/>
<path d="M12.166 17.574V17.1234L11.4071 17.076L10.6956 16.9811H10.0316L9.24897 17.242L9.913 17.7163L10.2924 17.574L11.1699 17.5029L12.166 17.574Z" fill="url(#paint8_linear_3124_2446)"/>
<path d="M11.0039 14.657L10.5533 14.9179L10.6245 15.2499L11.0039 15.4871L11.4308 15.2499L11.7628 15.3922L12.0711 15.0365V14.7519L11.4071 14.4199L11.0039 14.657Z" fill="url(#paint9_linear_3124_2446)"/>
<path d="M11.1699 10.2934L11.5494 10.6491L11.1699 11.1234L10.5533 11.0286L9.55727 10.6728L8.70351 10.7677L8.13434 11.0286L8.46636 11.3369L9.32011 11.5029L9.6047 11.8112L8.46636 11.74L7.77861 11.2657L7.42288 10.6017L7.66003 10.5305H8.70351L9.32011 10.0799L10.0316 9.72422L11.1699 10.2934Z" fill="url(#paint10_linear_3124_2446)"/>
<path d="M13.1857 16.8863L12.1897 16.9337L11.6205 16.2934H12.166L12.5691 15.7242L13.2806 15.4871L13.66 15.0365V14.5859L12.7351 14.2776L12.0711 14.5859L11.5019 14.1827V13.7796V12.9969L11.5494 11.74L11.9762 11.408V10.9337L12.6403 10.6017L12.7351 11.3369L13.2806 11.6214L14.0395 12.2855L14.7747 12.8784L15.0592 12.0246L15.6284 11.9297L16.3162 11.6214H16.909L17.4782 11.74L17.5731 12.5226L17.0751 12.7835L17.2173 13.6847L16.5059 13.4238L15.4624 12.7835L15.3201 13.7796L15.3913 14.9179L15.6758 16.2222L15.4624 16.9811L15.0592 17.1234L14.3478 16.8863H13.1857Z" fill="url(#paint11_linear_3124_2446)"/>
</g>
<defs>
<linearGradient id="paint0_linear_3124_2446" x1="12.0001" y1="2.27539" x2="12.0001" y2="24.2359" gradientUnits="userSpaceOnUse">
<stop stop-color="#212122"/>
<stop offset="1"/>
</linearGradient>
<linearGradient id="paint1_linear_3124_2446" x1="11.9993" y1="2.03906" x2="11.9993" y2="22.7901" gradientUnits="userSpaceOnUse">
<stop stop-color="#595959"/>
<stop offset="1" stop-color="#2F2F2F"/>
</linearGradient>
<linearGradient id="paint2_linear_3124_2446" x1="11.9762" y1="1.25781" x2="11.9762" y2="22.0325" gradientUnits="userSpaceOnUse">
<stop offset="0.0001" stop-color="#F1F1F1"/>
<stop offset="1" stop-color="#A5A5A5"/>
</linearGradient>
<linearGradient id="paint3_linear_3124_2446" x1="11.9762" y1="1.25781" x2="11.9762" y2="22.0325" gradientUnits="userSpaceOnUse">
<stop offset="0.0001" stop-color="#F1F1F1"/>
<stop offset="1" stop-color="#A5A5A5"/>
</linearGradient>
<linearGradient id="paint4_linear_3124_2446" x1="11.9762" y1="1.25781" x2="11.9762" y2="22.0325" gradientUnits="userSpaceOnUse">
<stop offset="0.0001" stop-color="#F1F1F1"/>
<stop offset="1" stop-color="#A5A5A5"/>
</linearGradient>
<linearGradient id="paint5_linear_3124_2446" x1="11.9762" y1="1.25781" x2="11.9762" y2="22.0325" gradientUnits="userSpaceOnUse">
<stop offset="0.0001" stop-color="#F1F1F1"/>
<stop offset="1" stop-color="#A5A5A5"/>
</linearGradient>
<linearGradient id="paint6_linear_3124_2446" x1="11.9762" y1="1.25781" x2="11.9762" y2="22.0325" gradientUnits="userSpaceOnUse">
<stop offset="0.0001" stop-color="#F1F1F1"/>
<stop offset="1" stop-color="#A5A5A5"/>
</linearGradient>
<linearGradient id="paint7_linear_3124_2446" x1="11.9762" y1="1.25781" x2="11.9762" y2="22.0325" gradientUnits="userSpaceOnUse">
<stop offset="0.0001" stop-color="#F1F1F1"/>
<stop offset="1" stop-color="#A5A5A5"/>
</linearGradient>
<linearGradient id="paint8_linear_3124_2446" x1="11.9762" y1="1.25781" x2="11.9762" y2="22.0325" gradientUnits="userSpaceOnUse">
<stop offset="0.0001" stop-color="#F1F1F1"/>
<stop offset="1" stop-color="#A5A5A5"/>
</linearGradient>
<linearGradient id="paint9_linear_3124_2446" x1="11.9762" y1="1.25781" x2="11.9762" y2="22.0325" gradientUnits="userSpaceOnUse">
<stop offset="0.0001" stop-color="#F1F1F1"/>
<stop offset="1" stop-color="#A5A5A5"/>
</linearGradient>
<linearGradient id="paint10_linear_3124_2446" x1="11.9762" y1="1.25781" x2="11.9762" y2="22.0325" gradientUnits="userSpaceOnUse">
<stop offset="0.0001" stop-color="#F1F1F1"/>
<stop offset="1" stop-color="#A5A5A5"/>
</linearGradient>
<linearGradient id="paint11_linear_3124_2446" x1="11.9762" y1="1.25781" x2="11.9762" y2="22.0325" gradientUnits="userSpaceOnUse">
<stop offset="0.0001" stop-color="#F1F1F1"/>
<stop offset="1" stop-color="#A5A5A5"/>
</linearGradient>
<clipPath id="clip0_3124_2446">
<rect width="24" height="24" rx="12" fill="white"/>
</clipPath>
</defs>
</svg>
