<svg width="24" height="24" viewBox="0 0 24 24" fill="none" xmlns="http://www.w3.org/2000/svg">
<path fill-rule="evenodd" clip-rule="evenodd" d="M11.8431 2.31056C13.2532 2.30867 14.6501 2.58294 15.9548 3.1179C15.9748 3.16254 18.5839 9.01624 18.0169 11.1809C17.4498 13.3455 14.8464 19.4794 13.7779 20.263C13.0123 20.8243 8.61277 21.8606 6.17935 22.4029C4.16447 21.1684 2.6079 19.3097 1.74642 17.1093C0.884938 14.909 0.765678 12.4875 1.40678 10.2132C2.04789 7.93881 3.41427 5.93609 5.2981 4.50961C7.18193 3.08314 9.48011 2.31097 11.8431 2.31056Z" fill="url(#paint0_radial_2281_1915)"/>
<path fill-rule="evenodd" clip-rule="evenodd" d="M14.5641 3.47727C12.8488 2.82095 12.6341 0.569888 11.6406 0C11.6406 0 11.6558 3.04795 11.085 4.22097L12.579 4.42138L14.2478 4.02911L14.5641 3.47727Z" fill="url(#paint1_radial_2281_1915)"/>
<path fill-rule="evenodd" clip-rule="evenodd" d="M9.2084 23.6774C7.6151 23.2768 6.13334 22.5202 4.87451 21.4646C3.61567 20.4089 2.61251 19.0816 1.94043 17.5825C4.91619 20.8831 10.4489 20.7463 11.1346 17.4704C11.8204 14.1945 9.30053 12.8619 6.81962 12.8011C4.14115 12.7346 3.07831 11.2738 2.92539 8.86129L7.37241 7.31309C8.46185 6.93317 8.82752 5.60343 10.0385 4.63462C10.3168 4.41236 10.6493 4.32403 11.0368 4.15971C11.4243 3.9954 11.9733 3.96975 12.4957 3.88522C13.3505 3.7513 14.023 3.48155 14.7268 3.4844C15.2225 3.48581 15.7177 3.51339 16.2104 3.56703C17.2305 5.36693 20.931 12.0859 20.439 13.9627C19.8691 16.135 16.4137 22.2613 15.3451 23.0448C14.9434 23.3402 11.1213 23.8997 9.20935 23.6812L9.2084 23.6774Z" fill="#EDE7F6"/>
<mask id="mask0_2281_1915" style="mask-type:alpha" maskUnits="userSpaceOnUse" x="1" y="11" width="14" height="12">
<path d="M14.0581 11.1055V22.3313H1.94043V11.1055H14.0581Z" fill="url(#paint2_linear_2281_1915)"/>
</mask>
<g mask="url(#mask0_2281_1915)">
<path fill-rule="evenodd" clip-rule="evenodd" d="M4.07086 20.7176C3.18274 19.8056 2.46165 18.7447 1.94043 17.5832C4.91619 20.8848 10.4489 20.7471 11.1346 17.4712C11.8204 14.1953 9.30053 12.8636 6.81962 12.8019C5.19449 12.761 4.16014 12.2073 3.57031 11.2394L3.63965 11.1074C3.97116 11.5711 4.43945 11.9195 4.97888 12.1038C5.86411 12.3954 8.35357 11.1188 9.42116 11.4389C9.42116 11.4389 13.1131 11.4987 13.891 14.9475C15.2682 21.0472 7.83687 24.5862 4.07086 20.7176Z" fill="#ACBAC9"/>
</g>
<path fill-rule="evenodd" clip-rule="evenodd" d="M3.87364 11.6515C3.28856 10.9799 2.99886 10.0368 2.92383 8.86092L4.45778 8.32617C4.45778 8.32617 4.93268 9.60177 3.60294 10.1546C3.848 11.3969 4.60785 11.9317 5.47598 11.9098C6.76582 11.8775 8.04047 10.846 9.4215 11.4349C8.18674 11.3684 7.07071 12.0114 6.09715 12.2309C5.25657 12.4208 4.51666 12.3914 3.86984 11.6477L3.87364 11.6515Z" fill="#330099"/>
<path fill-rule="evenodd" clip-rule="evenodd" d="M18.3998 4.51755C20.4212 6.05471 21.8393 8.25237 22.407 10.7276C22.9746 13.2029 22.6558 15.7989 21.5062 18.0633C20.3565 20.3277 18.4489 22.1169 16.1155 23.1194C13.7822 24.1218 11.1712 24.2738 8.7373 23.549C14.7344 24.3154 18.016 18.6375 16.5913 12.3412C15.7498 14.1116 13.891 14.9531 13.891 14.9531C15.8856 12.6071 15.4848 10.1091 13.5814 8.42318C11.6779 6.73726 9.11723 7.89223 9.11723 7.89223C9.16187 7.40498 9.83719 6.94242 10.4565 6.66412C11.0757 6.38583 11.7862 5.59084 11.2534 4.89367C10.7357 4.21361 9.88753 4.7721 9.84479 4.79869C10.4147 4.28674 11.1907 3.84888 12.3703 3.65892C13.0949 3.54374 13.827 3.48215 14.5606 3.47465C14.9795 2.53339 15.6348 1.52469 16.6426 0.910156C16.6426 0.910156 18.2193 2.03758 18.396 4.51185L18.3998 4.51755Z" fill="url(#paint3_radial_2281_1915)"/>
<path fill-rule="evenodd" clip-rule="evenodd" d="M14.3262 6.41151H14.3309H14.3262ZM14.4705 6.49699C14.6928 6.59862 15.1459 6.68696 15.6398 6.11707C15.6398 6.11707 15.4498 7.4962 16.1422 8.30164C16.0273 7.97205 15.9845 7.62632 16.1042 7.31478C16.4917 6.30798 17.6097 5.99739 17.7531 4.63631C17.8965 3.27523 17.4207 2.27982 16.657 1.29297C16.657 1.29297 15.2741 2.20004 15.0309 3.6941C14.7878 5.18815 15.086 5.92901 14.746 6.39441C14.7197 6.44067 14.6781 6.47631 14.6283 6.4952C14.5786 6.5141 14.5238 6.51507 14.4734 6.49794L14.4705 6.49699Z" fill="#E6E6E6"/>
<mask id="mask1_2281_1915" style="mask-type:alpha" maskUnits="userSpaceOnUse" x="17" y="4" width="5" height="6">
<path d="M21.8637 4.51758V9.68266H17.0225V4.51758H21.8637Z" fill="url(#paint4_linear_2281_1915)"/>
</mask>
<g mask="url(#mask1_2281_1915)">
<path fill-rule="evenodd" clip-rule="evenodd" d="M17.0225 9.68076C17.0225 9.68076 19.9099 9.7596 21.8665 9.0007C21.1276 7.22714 19.9329 5.6805 18.4035 4.51758C18.4985 5.84162 18.1907 7.55128 17.0253 9.68076H17.0225Z" fill="#CCFF90"/>
</g>
<mask id="mask2_2281_1915" style="mask-type:alpha" maskUnits="userSpaceOnUse" x="9" y="3" width="6" height="3">
<path d="M14.5908 3.45117V5.8504H9.59668V3.45117H14.5908Z" fill="url(#paint5_linear_2281_1915)"/>
</mask>
<g mask="url(#mask2_2281_1915)">
<path fill-rule="evenodd" clip-rule="evenodd" d="M11.3831 5.73717C12.1287 5.78751 12.8629 5.87299 13.8792 5.78656C14.0079 4.99112 14.2381 4.21545 14.564 3.47852C13.8304 3.48566 13.0983 3.54693 12.3737 3.66183C11.9677 3.72318 11.5696 3.82859 11.1865 3.97622C10.5974 4.20483 10.0645 4.55761 9.62402 5.01056C9.69526 4.93838 9.76934 4.86714 9.84818 4.79781C9.89092 4.76931 10.7391 4.20987 11.2568 4.89279C11.3511 5.01009 11.4125 5.15039 11.4347 5.29929C11.4569 5.44818 11.4391 5.6003 11.3831 5.74002V5.73717Z" fill="#CCFF90"/>
</g>
<path fill-rule="evenodd" clip-rule="evenodd" d="M9.0791 7.99088C9.0791 7.99088 9.09905 7.31746 9.8494 6.96128C10.7261 6.54431 11.257 7.53117 10.3908 7.69264C10.0669 7.75438 9.5844 7.78762 9.0791 7.99088Z" fill="#330099"/>
<mask id="mask3_2281_1915" style="mask-type:alpha" maskUnits="userSpaceOnUse" x="14" y="3" width="4" height="6">
<path d="M17.2518 3.10938V8.30105H14.4727V3.10938H17.2518Z" fill="url(#paint6_linear_2281_1915)"/>
</mask>
<g mask="url(#mask3_2281_1915)">
<path fill-rule="evenodd" clip-rule="evenodd" d="M16.4978 6.67123C17.554 5.30445 17.2947 4.2606 16.9471 3.66602C16.9233 3.62423 16.8977 3.58434 16.873 3.54729C16.7674 3.38492 16.6395 3.23817 16.4931 3.11133C16.5118 3.19649 16.5214 3.28342 16.5216 3.37063C16.5223 3.44683 16.5178 3.52298 16.5083 3.59858C16.4228 4.28245 15.9773 4.99481 15.9773 4.99481C15.9653 4.72921 15.9002 4.46871 15.7861 4.22861C15.6719 3.98851 15.5109 3.77365 15.3125 3.59668C15.4492 4.59494 15.189 6.69687 14.4975 6.50311H14.4785C14.7017 6.60474 15.1538 6.69307 15.6458 6.12318C15.6458 6.12318 15.4559 7.50231 16.1492 8.30775C16.0334 7.97817 15.9906 7.63244 16.1112 7.3209C16.2051 7.08591 16.3381 6.8685 16.5045 6.67788L16.4978 6.67123Z" fill="#330099"/>
</g>
<defs>
<radialGradient id="paint0_radial_2281_1915" cx="0" cy="0" r="1" gradientUnits="userSpaceOnUse" gradientTransform="translate(-0.709304 4.2682) rotate(57.9946) scale(21.7898)">
<stop stop-color="#A7FFEB"/>
<stop offset="0.52" stop-color="#0091EA"/>
<stop offset="1" stop-color="#6200EA"/>
</radialGradient>
<radialGradient id="paint1_radial_2281_1915" cx="0" cy="0" r="1" gradientUnits="userSpaceOnUse" gradientTransform="translate(13.0071 -0.0751966) rotate(76.6755) scale(5.06372)">
<stop stop-color="#69F0AE"/>
<stop offset="0.45" stop-color="#00B0FF"/>
<stop offset="0.77" stop-color="#2962FF"/>
<stop offset="1" stop-color="#6200EA"/>
</radialGradient>
<linearGradient id="paint2_linear_2281_1915" x1="21.7187" y1="9.42672" x2="3.77922" y2="18.7047" gradientUnits="userSpaceOnUse">
<stop stop-color="white"/>
<stop offset="1" stop-color="white" stop-opacity="0"/>
</linearGradient>
<radialGradient id="paint3_radial_2281_1915" cx="0" cy="0" r="1" gradientUnits="userSpaceOnUse" gradientTransform="translate(16.1812 -5.94256) rotate(105.945) scale(24.6407 24.6407)">
<stop stop-color="#69F0AE"/>
<stop offset="0.45" stop-color="#00B0FF"/>
<stop offset="0.77" stop-color="#2962FF"/>
<stop offset="1" stop-color="#6200EA"/>
</radialGradient>
<linearGradient id="paint4_linear_2281_1915" x1="19.5359" y1="2.15933" x2="19.1098" y2="9.0487" gradientUnits="userSpaceOnUse">
<stop stop-color="white"/>
<stop offset="1" stop-color="white" stop-opacity="0"/>
</linearGradient>
<linearGradient id="paint5_linear_2281_1915" x1="12.1948" y1="0.302503" x2="11.8356" y2="5.66083" gradientUnits="userSpaceOnUse">
<stop stop-color="white"/>
<stop offset="1" stop-color="white" stop-opacity="0"/>
</linearGradient>
<linearGradient id="paint6_linear_2281_1915" x1="12.6504" y1="12.0275" x2="17.2926" y2="2.17583" gradientUnits="userSpaceOnUse">
<stop stop-color="white"/>
<stop offset="1" stop-color="white" stop-opacity="0"/>
</linearGradient>
</defs>
</svg>
