<svg width="24" height="24" viewBox="0 0 24 24" fill="none" xmlns="http://www.w3.org/2000/svg">
<mask id="mask0_1614_1156" style="mask-type:alpha" maskUnits="userSpaceOnUse" x="1" y="0" width="22" height="24">
<path fill-rule="evenodd" clip-rule="evenodd" d="M12.003 0.000258411C12.5824 0.000258411 13.1257 0.166068 13.6326 0.430135L21.3704 4.84558C21.8619 5.11681 22.2726 5.51767 22.5593 6.00608C22.8461 6.49449 22.9983 7.05244 23 7.62136V16.4093C23 17.5638 22.3783 18.6201 21.3704 19.185L13.6326 23.5636C13.1357 23.8556 12.5708 24.0062 11.997 23.9997C11.4238 24.0081 10.8588 23.8596 10.3613 23.5698L2.63567 19.1789C2.14302 18.9085 1.73112 18.508 1.44328 18.0195C1.15544 17.531 1.00231 16.9727 1 16.4031V7.62136C1 6.46683 1.62167 5.41056 2.62963 4.84558L10.3734 0.430135C10.8691 0.141368 11.4318 -0.0070644 12.003 0.000258411ZM12.003 1.03196C11.6212 1.0334 11.2465 1.13719 10.9166 1.33288L3.13663 5.71148C2.80353 5.90276 2.52496 6.17876 2.32817 6.51247C2.13138 6.84618 2.02312 7.22616 2.01399 7.61522V16.3786C2.01399 17.1769 2.46063 17.8831 3.13663 18.2823L10.8683 22.6609C11.2119 22.8578 11.5996 22.9613 11.994 22.9613C12.3883 22.9613 12.776 22.8578 13.1196 22.6609L20.8513 18.3191C21.1844 18.1279 21.463 17.8519 21.6598 17.5182C21.8565 17.1844 21.9648 16.8045 21.9739 16.4154V7.61522C21.9684 7.22535 21.8617 6.84391 21.6645 6.50957C21.4674 6.17523 21.1868 5.89989 20.8513 5.71148L13.1257 1.32674C12.7824 1.13228 12.3959 1.03077 12.003 1.03196ZM12.0573 3.88757C12.3591 3.88757 12.6669 3.94898 12.9446 4.15164L18.4914 7.2836C18.7572 7.428 18.9795 7.64304 19.1347 7.90583C19.2898 8.16862 19.3721 8.46931 19.3726 8.77588V15.0337C19.3726 15.6293 19.0346 16.2312 18.4853 16.5259L12.9385 19.6579C12.6669 19.8237 12.3652 19.8913 12.0573 19.8913C11.7495 19.8913 11.4417 19.8237 11.1701 19.6579L5.62332 16.5259C5.35753 16.3815 5.1352 16.1665 4.98002 15.9037C4.82484 15.6409 4.74262 15.3402 4.74211 15.0337V8.74518C4.74211 8.14335 5.08011 7.54767 5.62332 7.24675L11.1761 4.11479C11.4417 3.95512 11.7495 3.88757 12.0573 3.88757ZM12.0573 4.74733C11.9185 4.74733 11.7556 4.78417 11.6167 4.88243L6.10014 8.01439C5.96985 8.09357 5.86122 8.20481 5.78423 8.33787C5.70724 8.47093 5.66436 8.62155 5.65953 8.77588V15.0644C5.65953 15.396 5.82853 15.6662 6.10014 15.832L11.6529 18.9578C11.7857 19.0561 11.9185 19.0929 12.0936 19.0929C12.2626 19.0929 12.3953 19.0254 12.5342 18.9578L18.0809 15.8259C18.2116 15.7471 18.3205 15.636 18.3976 15.5028C18.4746 15.3697 18.5173 15.2188 18.5215 15.0644V8.78203C18.5215 8.45041 18.3525 8.18634 18.0809 8.01439L12.4979 4.88857C12.37 4.79474 12.2149 4.74718 12.0573 4.75347V4.74733ZM12.1177 7.77489C12.2807 7.77489 12.4195 7.80559 12.5523 7.90999L15.4132 9.50667C15.6787 9.67248 15.8477 9.96112 15.8538 10.2743V13.5045C15.8538 13.8361 15.6848 14.1002 15.4132 14.266L12.5523 15.8627C12.4195 15.9671 12.2807 15.9978 12.1117 15.9978C11.9728 15.9978 11.8099 15.9364 11.6711 15.8688L8.81619 14.2722C8.68394 14.1932 8.57357 14.0813 8.49545 13.947C8.41733 13.8128 8.374 13.6605 8.36955 13.5045V10.2743C8.36955 9.93655 8.53855 9.67248 8.81619 9.50667L11.6711 7.90999C11.8038 7.80559 11.9427 7.77489 12.1117 7.77489H12.1177ZM12.1479 8.57323H12.0754L9.22058 10.1699L9.1904 13.4677L12.0754 15.1319L15.0027 13.5352L15.039 10.2375L12.1418 8.57937L12.1479 8.57323Z" fill="white"/>
</mask>
<g mask="url(#mask0_1614_1156)">
<g filter="url(#filter0_f_1614_1156)">
<path fill-rule="evenodd" clip-rule="evenodd" d="M11.8834 -1.84375C12.3663 -1.84375 12.8793 -1.72093 13.3139 -1.45686L23.152 4.13154C23.5812 4.37278 23.9397 4.72558 24.191 5.1539C24.4423 5.58222 24.5774 6.07073 24.5825 6.56955V17.7955C24.5825 18.778 24.0151 19.7176 23.152 20.2273L13.3139 25.7789C12.8799 26.0363 12.3858 26.17 11.8834 26.1658C11.3818 26.1642 10.8891 26.0309 10.453 25.7789L0.614847 20.1905C0.186364 19.9475 -0.171179 19.5932 -0.421387 19.1639C-0.671595 18.7346 -0.805534 18.2455 -0.80957 17.7463V6.56955C-0.80957 5.58698 -0.248254 4.64739 0.620882 4.13154L10.5013 -1.45686C10.9221 -1.70883 11.4012 -1.84236 11.8895 -1.84375L11.8834 -1.84375Z" fill="url(#paint0_linear_1614_1156)"/>
</g>
<g filter="url(#filter1_f_1614_1156)">
<path fill-rule="evenodd" clip-rule="evenodd" d="M11.8834 -1.84375C12.3663 -1.84375 12.8793 -1.72093 13.3139 -1.45686L23.152 4.13154C23.5812 4.37278 23.9397 4.72558 24.191 5.1539C24.4423 5.58222 24.5774 6.07073 24.5825 6.56955V17.7955C24.5825 18.778 24.0151 19.7176 23.152 20.2273L13.3139 25.7789C12.8799 26.0363 12.3858 26.17 11.8834 26.1658C11.3818 26.1642 10.8891 26.0309 10.453 25.7789L0.614847 20.1905C0.186364 19.9475 -0.171179 19.5932 -0.421387 19.1639C-0.671595 18.7346 -0.805534 18.2455 -0.80957 17.7463V6.56955C-0.80957 5.58698 -0.248254 4.64739 0.620882 4.13154L10.5013 -1.45686C10.9221 -1.70883 11.4012 -1.84236 11.8895 -1.84375L11.8834 -1.84375Z" fill="url(#paint1_linear_1614_1156)"/>
</g>
</g>
<defs>
<filter id="filter0_f_1614_1156" x="-28.8096" y="-29.8438" width="81.3916" height="84.0098" filterUnits="userSpaceOnUse" color-interpolation-filters="sRGB">
<feFlood flood-opacity="0" result="BackgroundImageFix"/>
<feBlend mode="normal" in="SourceGraphic" in2="BackgroundImageFix" result="shape"/>
<feGaussianBlur stdDeviation="14" result="effect1_foregroundBlur_1614_1156"/>
</filter>
<filter id="filter1_f_1614_1156" x="-8.80957" y="-9.84375" width="41.3916" height="44.0098" filterUnits="userSpaceOnUse" color-interpolation-filters="sRGB">
<feFlood flood-opacity="0" result="BackgroundImageFix"/>
<feBlend mode="normal" in="SourceGraphic" in2="BackgroundImageFix" result="shape"/>
<feGaussianBlur stdDeviation="4" result="effect1_foregroundBlur_1614_1156"/>
</filter>
<linearGradient id="paint0_linear_1614_1156" x1="24.5825" y1="12.1611" x2="-0.80957" y2="12.1611" gradientUnits="userSpaceOnUse">
<stop stop-color="#5346E6"/>
<stop offset="1" stop-color="#EF359C"/>
</linearGradient>
<linearGradient id="paint1_linear_1614_1156" x1="24.5825" y1="12.1611" x2="-0.80957" y2="12.1611" gradientUnits="userSpaceOnUse">
<stop stop-color="#5346E6"/>
<stop offset="1" stop-color="#EF359C"/>
</linearGradient>
</defs>
</svg>
