<svg width="24" height="24" viewBox="0 0 24 24" fill="none" xmlns="http://www.w3.org/2000/svg">
<g clip-path="url(#clip0_720_11688)">
<path d="M16.8946 20.597C15.6398 19.9961 14.6485 19.0531 14.3096 18.6567C14.1967 18.9779 13.9081 19.7307 13.6571 20.1714C13.3434 20.7222 12.7787 21.4607 12.2642 21.9114C11.7497 22.362 10.0934 23.9143 8.28635 23.6139C6.4794 23.3134 5.19944 22.3996 4.59708 21.273C3.99479 20.1463 3.91948 19.0197 4.20808 17.8555C4.43901 16.9241 5.00702 15.8734 5.26217 15.4645C4.97357 15.5313 4.13283 15.5696 3.07873 15.1891C1.76115 14.7134 0.97061 13.9999 0.518873 13.086C0.0670769 12.1721 -0.0960038 10.5573 0.0545552 9.08012C0.205114 7.60301 1.10865 5.83788 3.19167 5.98814C4.85813 6.1083 6.6132 7.05635 7.28246 7.51533C7.08587 6.251 6.81063 3.38179 7.28246 2.01985C7.87224 0.317361 9.31534 -0.0456691 11.0847 0.00435683C12.854 0.0544423 13.8579 0.955743 14.5104 2.0073C15.0324 2.84852 15.1044 4.63613 15.0751 5.42483C15.5519 4.95746 16.8921 3.99769 18.4381 3.89758C20.3705 3.77237 21.2991 4.11035 22.0771 4.69877C22.8552 5.28712 23.7335 6.40126 23.9343 7.55293C24.1351 8.70459 23.859 9.43066 23.332 10.3445C22.9104 11.0756 21.8513 11.8425 21.3744 12.1346C21.663 12.3599 22.3582 12.9458 22.83 13.4866C23.4198 14.1626 23.972 15.3768 23.9845 16.8665C23.9971 18.3562 23.5453 19.0322 23.1563 19.6831C22.7673 20.3341 21.9642 21.3356 20.609 21.4483C19.2537 21.5609 18.4632 21.3481 16.8946 20.597Z" fill="#DC8898"/>
<path d="M8.31073 19.5769C7.59783 20.3946 6.87881 20.546 6.6084 20.5194C6.71924 20.4442 7.00469 20.2513 7.26006 20.0813C7.57925 19.869 8.70967 18.4086 9.09535 17.8245C9.40386 17.3572 10.4031 15.7182 10.8642 14.957L11.1301 15.1031C10.4873 16.2536 9.02356 18.7591 8.31073 19.5769Z" fill="#C57180"/>
<path d="M5.76041 10.9055C6.74138 11.0193 8.35792 11.4135 9.04361 11.5964L8.81943 11.8267C8.55572 11.7589 7.9439 11.5991 7.60639 11.5016C7.18441 11.3796 5.58899 11.0816 4.46824 11.041C3.34748 11.0003 3.00464 11.0884 2.54313 11.1765C2.08168 11.2645 1.65971 11.4812 1.75206 11.3255C1.84435 11.1697 2.09484 11.0071 2.87282 10.8717C3.65073 10.7362 4.53415 10.7633 5.76041 10.9055Z" fill="#C57180"/>
<path d="M11.5982 5.90664C11.6893 6.66529 11.7879 8.5465 11.8259 9.39224H11.5223C11.5181 9.20859 11.5122 8.74641 11.5223 8.36705C11.535 7.89295 11.2946 6.06045 11.1429 5.04805C11.0215 4.23818 10.62 2.73713 10.4346 2.08789C10.62 2.3655 11.0215 3.03105 11.1429 3.47185C11.2946 4.02287 11.4844 4.95836 11.5982 5.90664Z" fill="#C57180"/>
<path d="M16.563 8.94935C15.7665 9.48127 14.8456 10.6252 14.4847 11.1308L14.2607 10.8041C14.4806 10.5241 15.0273 9.85459 15.4554 9.41597C15.9906 8.8677 16.8741 8.22609 18.2554 7.61951C19.3605 7.13421 20.6904 7.31619 21.2173 7.46785C21.0306 7.45615 20.5975 7.43986 20.3586 7.46785C20.0599 7.50283 19.699 7.52616 18.9648 7.68946C18.2305 7.85282 17.5586 8.2844 16.563 8.94935Z" fill="#C57180"/>
<path d="M17.3132 15.225C16.4683 14.6658 14.2309 13.865 13.2178 13.5345L13.4367 13.2168C13.7458 13.3184 14.4722 13.5625 14.9049 13.7252C15.4458 13.9286 16.476 14.4878 16.8624 14.6912C17.2488 14.8945 18.5624 15.708 18.9488 15.9495C19.3351 16.191 20.7003 17.1824 20.9707 17.4112C21.2411 17.64 21.254 17.9832 21.1767 18.0721C21.0994 18.1611 20.8419 17.8179 20.5071 17.4747C20.1722 17.1316 18.3692 15.9241 17.3132 15.225Z" fill="#C57180"/>
<path d="M11.6518 14.956C13.2847 14.956 14.6084 13.6323 14.6084 11.9995C14.6084 10.3666 13.2847 9.04297 11.6518 9.04297C10.019 9.04297 8.69531 10.3666 8.69531 11.9995C8.69531 13.6323 10.019 14.956 11.6518 14.956Z" fill="#FBECB3"/>
</g>
<defs>
<clipPath id="clip0_720_11688">
<rect width="24" height="24" fill="white"/>
</clipPath>
</defs>
</svg>
