<svg width="24" height="24" viewBox="0 0 24 24" fill="none" xmlns="http://www.w3.org/2000/svg">
<g clip-path="url(#clip0_2214_3386)">
<path d="M12.084 0.04883C5.45657 0.04883 0.0839825 5.42141 0.0839825 12.0488C0.0839825 18.6762 5.45657 24.0488 12.084 24.0488C18.7114 24.0488 24.084 18.6762 24.084 12.0488C24.084 5.42141 18.7114 0.04883 12.084 0.04883Z" fill="url(#paint0_linear_2214_3386)"/>
<path d="M14.172 0.248314C7.64902 -0.923719 1.42078 3.41581 0.260811 9.94093C-0.899157 16.466 3.44841 22.7058 9.97136 23.8778C16.4943 25.0499 22.7226 20.7103 23.8825 14.1852C25.0425 7.66012 20.6949 1.42035 14.172 0.248314Z" fill="url(#paint1_radial_2214_3386)" fill-opacity="0.8"/>
<path d="M16.6914 15.5218L15.3428 14.166L11.5469 17.9823L12.8955 19.3381L16.6914 15.5218Z" fill="white"/>
<path d="M10.9766 19.3381L12.3252 17.9823L8.52928 14.166L7.18066 15.5219L10.9766 19.3381Z" fill="white"/>
<path d="M8.46093 16.8073L9.80948 15.4515L8.46093 14.0957L7.1123 15.4515L8.46093 16.8073Z" fill="white"/>
<path d="M11.9375 20.3015L13.286 18.9457L11.9375 17.5898L10.5889 18.9457L11.9375 20.3015Z" fill="white"/>
<path d="M15.3867 16.8347L16.7353 15.4788L15.3867 14.123L14.0381 15.4788L15.3867 16.8347Z" fill="white"/>
<path d="M14.0968 15.5403L15.4454 14.1845L12.5751 11.2988L11.2266 12.6546L14.0968 15.5403Z" fill="white"/>
<path d="M7.15723 8.48618L8.50578 9.84202L12.3017 6.02576L10.9532 4.66992L7.15723 8.48618Z" fill="white"/>
<path d="M12.8681 4.66992L11.5195 6.02576L15.3155 9.84202L16.664 8.48618L12.8681 4.66992Z" fill="white"/>
<path d="M15.3857 7.20117L14.0371 8.55701L15.3857 9.91279L16.7344 8.55701L15.3857 7.20117Z" fill="white"/>
<path d="M11.9101 3.70703L10.5615 5.06283L11.9101 6.41867L13.2587 5.06283L11.9101 3.70703Z" fill="white"/>
<path d="M8.45989 7.17383L7.11133 8.52967L8.45989 9.88544L9.80851 8.52967L8.45989 7.17383Z" fill="white"/>
<path d="M9.74797 8.46875L8.39941 9.82453L11.2697 12.7102L12.6183 11.3543L9.74797 8.46875Z" fill="white"/>
<path d="M9.27246 11.9488C10.5921 12.4346 11.5926 13.4232 11.9374 14.6281C12.2801 13.4254 13.2805 12.4367 14.6024 11.9488C13.2826 11.463 12.2823 10.4744 11.9374 9.26953C11.5947 10.4722 10.5943 11.4609 9.27246 11.9488Z" fill="white"/>
<path opacity="0.4" d="M7.1582 8.48612L8.50682 9.84196L12.3028 6.0257L10.9541 4.66992L7.1582 8.48612Z" fill="url(#paint2_linear_2214_3386)"/>
<path opacity="0.4" d="M12.8711 4.66992L11.5225 6.02576L15.3184 9.84196L16.667 8.48618L12.8711 4.66992Z" fill="url(#paint3_linear_2214_3386)"/>
<path d="M15.3896 7.20117L14.041 8.55701L15.3896 9.91279L16.7382 8.55701L15.3896 7.20117Z" fill="white"/>
<path d="M11.913 3.70508L10.5645 5.06087L11.913 6.41671L13.2616 5.06087L11.913 3.70508Z" fill="white"/>
<path opacity="0.4" d="M9.75389 8.46875L8.40527 9.82459L11.2756 12.7102L12.6241 11.3544L9.75389 8.46875Z" fill="url(#paint4_linear_2214_3386)"/>
<path d="M8.46386 7.17383L7.11523 8.52967L8.46386 9.88544L9.81241 8.52967L8.46386 7.17383Z" fill="white"/>
<path opacity="0.4" d="M16.6934 15.5218L15.3448 14.166L11.5488 17.9823L12.8974 19.3381L16.6934 15.5218Z" fill="url(#paint5_linear_2214_3386)"/>
<path opacity="0.4" d="M10.9815 19.3381L12.3301 17.9823L8.53417 14.166L7.18555 15.5219L10.9815 19.3381Z" fill="url(#paint6_linear_2214_3386)"/>
<path d="M8.46385 16.8073L9.81248 15.4515L8.46385 14.0957L7.11523 15.4515L8.46385 16.8073Z" fill="white"/>
<path d="M11.9394 20.3034L13.288 18.9476L11.9394 17.5918L10.5908 18.9476L11.9394 20.3034Z" fill="white"/>
<path opacity="0.4" d="M14.0988 15.5403L15.4474 14.1844L12.5771 11.2988L11.2285 12.6546L14.0988 15.5403Z" fill="url(#paint7_linear_2214_3386)"/>
<path d="M9.27441 11.9488C10.5941 12.4346 11.5946 13.4232 11.9394 14.6281C12.2821 13.4254 13.2825 12.4367 14.6043 11.9488C13.2846 11.463 12.2842 10.4744 11.9394 9.26953C11.5967 10.4722 10.5962 11.4609 9.27441 11.9488Z" fill="white"/>
<path d="M15.3887 16.8366L16.7372 15.4808L15.3887 14.125L14.04 15.4808L15.3887 16.8366Z" fill="white"/>
<path d="M11.9198 3.70508L10.5713 5.06086L11.9198 6.4167L13.2685 5.06086L11.9198 3.70508Z" fill="white"/>
</g>
<defs>
<linearGradient id="paint0_linear_2214_3386" x1="-9.62591" y1="14.6335" x2="29.4121" y2="8.35867" gradientUnits="userSpaceOnUse">
<stop offset="0.322917" stop-color="#EC9066"/>
<stop offset="0.708333" stop-color="#8F1A00"/>
</linearGradient>
<radialGradient id="paint1_radial_2214_3386" cx="0" cy="0" r="1" gradientUnits="userSpaceOnUse" gradientTransform="translate(8.34807 13.6448) rotate(-5.68786) scale(22.2732 26.9084)">
<stop offset="0.333333" stop-color="white" stop-opacity="0"/>
<stop offset="0.708333" stop-color="white"/>
</radialGradient>
<linearGradient id="paint2_linear_2214_3386" x1="8.60012" y1="8.51876" x2="13.9787" y2="2.57465" gradientUnits="userSpaceOnUse">
<stop offset="0.06" stop-color="#111111"/>
<stop offset="0.43" stop-color="#7A7A7A" stop-opacity="0.82"/>
<stop offset="0.8" stop-color="#DAD9D9" stop-opacity="0.66"/>
<stop offset="0.98" stop-color="white" stop-opacity="0.6"/>
</linearGradient>
<linearGradient id="paint3_linear_2214_3386" x1="11.8641" y1="4.84938" x2="19.6093" y2="13.1133" gradientUnits="userSpaceOnUse">
<stop offset="0.06" stop-color="#111111"/>
<stop offset="0.43" stop-color="#7A7A7A" stop-opacity="0.82"/>
<stop offset="0.8" stop-color="#DAD9D9" stop-opacity="0.66"/>
<stop offset="0.98" stop-color="white" stop-opacity="0.6"/>
</linearGradient>
<linearGradient id="paint4_linear_2214_3386" x1="12.3366" y1="12.4741" x2="7.42261" y2="7.4522" gradientUnits="userSpaceOnUse">
<stop offset="0.06" stop-color="#111111"/>
<stop offset="0.43" stop-color="#7A7A7A" stop-opacity="0.82"/>
<stop offset="0.8" stop-color="#DAD9D9" stop-opacity="0.66"/>
<stop offset="0.98" stop-color="white" stop-opacity="0.6"/>
</linearGradient>
<linearGradient id="paint5_linear_2214_3386" x1="12.055" y1="18.6964" x2="17.2447" y2="13.8599" gradientUnits="userSpaceOnUse">
<stop offset="0.06" stop-color="#111111"/>
<stop offset="0.43" stop-color="#7A7A7A" stop-opacity="0.82"/>
<stop offset="0.8" stop-color="#DAD9D9" stop-opacity="0.66"/>
<stop offset="0.98" stop-color="white" stop-opacity="0.6"/>
</linearGradient>
<linearGradient id="paint6_linear_2214_3386" x1="8.819" y1="15.787" x2="13.9106" y2="20.9749" gradientUnits="userSpaceOnUse">
<stop offset="0.06" stop-color="#111111"/>
<stop offset="0.43" stop-color="#9E9D9E" stop-opacity="0.82"/>
<stop offset="0.93" stop-color="#111111"/>
</linearGradient>
<linearGradient id="paint7_linear_2214_3386" x1="11.5998" y1="11.6592" x2="16.8171" y2="16.885" gradientUnits="userSpaceOnUse">
<stop offset="0.06" stop-color="#111111"/>
<stop offset="0.43" stop-color="#7A7A7A" stop-opacity="0.82"/>
<stop offset="0.8" stop-color="#DAD9D9" stop-opacity="0.66"/>
<stop offset="0.98" stop-color="white" stop-opacity="0.6"/>
</linearGradient>
<clipPath id="clip0_2214_3386">
<rect width="24" height="24" fill="white"/>
</clipPath>
</defs>
</svg>
