<svg width="24" height="24" viewBox="0 0 24 24" fill="none" xmlns="http://www.w3.org/2000/svg">
<path d="M24 12C24 18.6274 18.6274 24 12 24C5.37258 24 0 18.6274 0 12C0 5.37258 5.37258 0 12 0C18.6274 0 24 5.37258 24 12Z" fill="white"/>
<path fill-rule="evenodd" clip-rule="evenodd" d="M12 22.5C17.799 22.5 22.5 17.799 22.5 12C22.5 6.20101 17.799 1.5 12 1.5C6.20101 1.5 1.5 6.20101 1.5 12C1.5 17.799 6.20101 22.5 12 22.5ZM12 24C18.6274 24 24 18.6274 24 12C24 5.37258 18.6274 0 12 0C5.37258 0 0 5.37258 0 12C0 18.6274 5.37258 24 12 24Z" fill="black"/>
<path d="M5.78729 15.9983L8.20762 16L10.7992 14.0094H15.1996L14.5469 16H16.5045L17.153 14.0094H19.3591L21 12.7465H17.5699L19.4527 7H17.4927L10.0191 12.7465H7.06471L7.87962 10.2593L3 14.0093H8.37548L5.78729 15.9983ZM16.6802 9.48897L15.6148 12.7466H12.4426L16.6802 9.48897Z" fill="black"/>
</svg>
