<svg width="24" height="24" viewBox="0 0 24 24" fill="none" xmlns="http://www.w3.org/2000/svg">
<path d="M11.9998 23.9997C18.6272 23.9997 23.9997 18.6272 23.9997 11.9998C23.9997 5.37252 18.6272 0 11.9998 0C5.37252 0 0 5.37252 0 11.9998C0 18.6272 5.37252 23.9997 11.9998 23.9997Z" fill="#0042C3"/>
<path fill-rule="evenodd" clip-rule="evenodd" d="M12.8853 5.21582L12.8853 5.21583C12.7709 5.28346 12.6565 5.35106 12.54 5.41365V5.41425L12.5472 5.4572C12.5556 5.45933 12.5639 5.46171 12.5722 5.4641C12.5908 5.46946 12.6095 5.47483 12.6286 5.47732C12.7247 5.48977 12.8212 5.49999 12.9177 5.51021C13.124 5.53204 13.3302 5.55388 13.5317 5.59746C14.1609 5.73351 14.6559 6.06568 14.9238 6.67205C15.259 7.43159 15.3034 8.23678 15.2707 9.05189C15.2666 9.15606 15.2617 9.26026 15.2569 9.36446L15.2569 9.36449C15.2419 9.68504 15.227 10.0056 15.2331 10.3259C15.2403 10.6854 15.3521 10.9566 15.7608 11.1089C16.4648 11.3714 17.1454 11.7029 17.8178 12.0417C18.0977 12.1826 18.3209 12.1483 18.5374 11.9783C19.075 11.557 19.4 11.0043 19.5063 10.3265C19.513 10.2837 19.5196 10.2408 19.5262 10.198C19.5823 9.8318 19.6385 9.46582 19.7931 9.12246C19.9781 8.71101 20.0523 8.27402 20.07 7.82683C20.082 7.52469 19.976 7.28413 19.7342 7.0808C19.6865 7.04062 19.6385 7.00056 19.5905 6.9605L19.5904 6.96041L19.5903 6.96032L19.5901 6.96013C19.0979 6.5491 18.6041 6.13676 18.2788 5.56442C18.2586 5.52924 18.2269 5.49968 18.1964 5.47127L18.1887 5.46411C17.5757 4.88717 16.8399 4.57482 16.0068 4.57422C15.4693 4.57372 14.9309 4.63305 14.394 4.69221C14.2898 4.70369 14.1857 4.71516 14.0817 4.72619C13.6331 4.77379 13.2589 4.99494 12.8853 5.21582ZM4.35195 16.6648C4.31942 16.6614 4.28588 16.6579 4.25098 16.6541L4.25128 16.6553C4.25202 16.6664 4.25194 16.6763 4.25187 16.6852C4.25173 16.7015 4.25163 16.7143 4.25668 16.7244C4.33637 16.8814 4.41382 17.0398 4.49127 17.1982L4.49128 17.1983L4.49131 17.1983C4.67714 17.5784 4.86296 17.9584 5.0796 18.32C5.33458 18.7456 5.72592 19.0625 6.22477 19.1559C6.83204 19.2697 7.44803 19.3589 8.06431 19.3982C8.53446 19.4282 9.00668 19.4266 9.47891 19.425H9.47896C9.70265 19.4243 9.92635 19.4236 10.1498 19.4262C10.6904 19.4325 11.2079 19.3445 11.7116 19.1309C11.9647 19.0237 12.2492 18.9594 12.524 18.9399C12.9503 18.9096 13.3779 18.8975 13.8055 18.8854H13.8056L13.8058 18.8854L13.8061 18.8854L13.8063 18.8854L13.8066 18.8854L13.8069 18.8854L13.8071 18.8854L13.8074 18.8854L13.8077 18.8854L13.8079 18.8853L13.8082 18.8853L13.8084 18.8853C14.0149 18.8795 14.2214 18.8737 14.4278 18.8657L14.4549 18.8648C14.5363 18.8622 14.6248 18.8594 14.6891 18.8219C14.7342 18.7956 14.7808 18.7699 14.8276 18.7442L14.8278 18.7441L14.8278 18.744L14.8279 18.744L14.828 18.744L14.828 18.7439C15.002 18.6482 15.1793 18.5507 15.3009 18.408C15.5854 18.0742 15.8297 17.7045 16.0723 17.3373L16.1033 17.2902C16.4355 16.7877 16.5439 16.2309 16.4869 15.6303C16.4529 15.2729 16.4466 14.9104 16.4607 14.5515C16.4627 14.5018 16.4639 14.4519 16.4652 14.4018C16.4724 14.1122 16.4797 13.8181 16.6241 13.5546C16.713 13.393 16.8249 13.2432 16.9361 13.0942L16.9361 13.0942L16.9878 13.0249C17.0629 12.9233 17.0359 12.8618 16.935 12.8128C16.7824 12.7386 16.6292 12.6654 16.4755 12.5933C16.3046 12.5131 16.2412 12.5305 16.1433 12.6954L16.1056 12.759C15.9984 12.9396 15.8912 13.1203 15.7952 13.3069C15.7678 13.3602 15.7398 13.4135 15.7119 13.4668L15.7119 13.4668L15.7119 13.4668L15.7119 13.4668C15.5914 13.6965 15.4705 13.927 15.3865 14.1697C15.3362 14.3144 15.325 14.4725 15.3138 14.6308L15.3138 14.6308L15.3138 14.6309L15.3138 14.6309L15.3138 14.6309L15.3138 14.6309L15.3138 14.631L15.3138 14.631L15.3138 14.631L15.3138 14.6311L15.3138 14.6311L15.3138 14.6311L15.3138 14.6312L15.3138 14.6312L15.3138 14.6312L15.3138 14.6313L15.3138 14.6313L15.3138 14.6313L15.3138 14.6314L15.3138 14.6314L15.3138 14.6314L15.3138 14.6315L15.3138 14.6315C15.3086 14.7049 15.3034 14.7784 15.2942 14.8506C15.2555 15.1569 15.0768 15.3572 14.7897 15.4374C14.5912 15.4928 14.3877 15.5298 14.1841 15.5667C14.1028 15.5815 14.0214 15.5963 13.9403 15.6122C13.8865 15.6228 13.8322 15.6322 13.778 15.6417L13.778 15.6417L13.7779 15.6417L13.7779 15.6417L13.7779 15.6417L13.7778 15.6417L13.7778 15.6417L13.7778 15.6417L13.7778 15.6417L13.7777 15.6417L13.7777 15.6417L13.7777 15.6417L13.7776 15.6417L13.7776 15.6417L13.7776 15.6417L13.7775 15.6417L13.7775 15.6418L13.7775 15.6418L13.7775 15.6418L13.7774 15.6418L13.7774 15.6418L13.7774 15.6418L13.7773 15.6418C13.4522 15.6984 13.1282 15.7548 12.8982 16.048C12.8423 16.1192 12.7516 16.1724 12.6666 16.2102C12.4927 16.2877 12.4104 16.4069 12.3972 16.6009C12.3828 16.8175 12.2263 16.9475 12.0095 16.9289C11.9258 16.9215 11.8441 16.8924 11.7573 16.8615C11.7164 16.8469 11.6744 16.832 11.6305 16.8187L11.6033 16.8747C11.5859 16.9108 11.5668 16.9504 11.5473 16.9899C11.4232 17.2394 11.162 17.3395 10.9199 17.2145C10.7931 17.1487 10.7532 17.1965 10.7172 17.3085C10.634 17.5653 10.3207 17.7809 10.0237 17.5632C9.88404 17.4608 9.78523 17.4845 9.6693 17.6143C9.46597 17.8413 9.20738 17.8969 8.91966 17.856C8.74817 17.8314 8.63164 17.7368 8.56017 17.5746C8.53253 17.5121 8.47337 17.4479 8.4124 17.4196C8.34554 17.3887 8.27221 17.3721 8.19303 17.3542C8.15768 17.3462 8.12117 17.338 8.08354 17.328C8.08354 17.3465 8.08294 17.365 8.08235 17.3833C8.08107 17.4233 8.07979 17.4629 8.08474 17.5016C8.10426 17.6503 8.02587 17.7386 7.89643 17.7638C7.35763 17.8686 6.84136 17.8509 6.40827 17.4482C6.31697 17.3629 6.21876 17.328 6.09473 17.3884C5.95627 17.4557 5.82953 17.4241 5.73072 17.3067L5.73056 17.3065C5.68285 17.2495 5.63188 17.1886 5.60728 17.1205C5.54842 16.958 5.4394 16.9097 5.27932 16.943C5.23547 16.9523 5.18982 16.9559 5.14507 16.9577C4.95316 16.9649 4.77296 16.9472 4.67054 16.7475C4.65733 16.7217 4.61949 16.6985 4.58975 16.6937C4.51313 16.6814 4.43589 16.6734 4.35195 16.6648ZM13.1561 14.7063C13.1537 14.6599 13.1516 14.6135 13.1494 14.5671C13.1445 14.4586 13.1396 14.3501 13.1306 14.242C13.1107 14.0035 13.2032 13.8227 13.4021 13.6963C13.8021 13.4416 14.088 13.0998 14.2724 12.6574C14.3179 12.5484 14.4496 12.4677 14.5678 12.3953L14.5678 12.3953L14.5679 12.3952C14.5848 12.3848 14.6015 12.3747 14.6175 12.3646C15.0068 12.121 15.4116 12.1826 15.8126 12.3361C15.9219 12.3778 15.9183 12.4682 15.8663 12.5607C15.8068 12.6665 15.7481 12.7729 15.6894 12.8793C15.5623 13.1098 15.4352 13.3403 15.299 13.5653C15.0978 13.8969 15.0125 14.2582 15.005 14.6363C14.9962 15.0691 14.7911 15.143 14.4818 15.2033C14.2565 15.2473 14.03 15.2854 13.8035 15.3235L13.8034 15.3235L13.8034 15.3235L13.8033 15.3235L13.8033 15.3235L13.8032 15.3235L13.8032 15.3236L13.8031 15.3236L13.8031 15.3236L13.803 15.3236L13.803 15.3236L13.8029 15.3236L13.8029 15.3236L13.8028 15.3236L13.8028 15.3236L13.8027 15.3236L13.8027 15.3236L13.8026 15.3237L13.8026 15.3237L13.8026 15.3237L13.8025 15.3237L13.8025 15.3237C13.6947 15.3418 13.5869 15.36 13.4792 15.3787C13.4498 15.3838 13.4204 15.3907 13.3921 15.401C13.1864 15.4751 13.1309 15.4331 13.1366 15.2166C13.1399 15.0995 13.139 14.9821 13.1382 14.8649V14.8649V14.8648V14.8648V14.8648V14.8648V14.8648V14.8648V14.8647V14.8647V14.8647V14.8647V14.8647V14.8647V14.8646V14.8646V14.8646V14.8646V14.8646V14.8646V14.8645V14.8645V14.8645V14.8644V14.8643V14.8643V14.8642V14.8641V14.8641V14.864V14.8639V14.8639V14.8638V14.8637V14.8637V14.8636V14.8635V14.8635V14.8634V14.8633V14.8633C13.1378 14.8111 13.1375 14.759 13.1375 14.7069H13.1558L13.1561 14.7063ZM7.87958 15.3227L7.87959 15.3226L7.87959 15.3226L7.87959 15.3226L7.87959 15.3226L7.87959 15.3226L7.8796 15.3226L7.8796 15.3226L7.8796 15.3225L7.8796 15.3225L7.87961 15.3225L7.87961 15.3225L7.87961 15.3225L7.87961 15.3225L7.87961 15.3225L7.87962 15.3224L7.87962 15.3224L7.87962 15.3224L7.87962 15.3224L7.87962 15.3224L7.87963 15.3224C7.8883 15.2598 7.89697 15.1973 7.90435 15.1348L7.90405 15.1345C7.89157 15.1288 7.87925 15.1229 7.86686 15.117L7.85479 15.1113C7.83286 15.1393 7.81037 15.1669 7.78789 15.1944L7.78785 15.1945C7.73986 15.2533 7.6919 15.3121 7.64936 15.3747C7.46974 15.6393 7.29112 15.9047 7.11248 16.17L7.11232 16.1703L7.11226 16.1704C6.94003 16.4262 6.76778 16.6821 6.59459 16.9374C6.46124 17.1338 6.46605 17.2623 6.65766 17.3984C6.99764 17.6398 7.38777 17.6338 7.77821 17.5813C7.81335 17.5765 7.8629 17.4873 7.8617 17.4386C7.85956 17.3608 7.84992 17.2831 7.84029 17.2054C7.82961 17.1193 7.81893 17.0332 7.81845 16.947C7.81605 16.5439 7.82056 16.1406 7.83587 15.7378C7.84125 15.5991 7.86042 15.4609 7.87958 15.3227L7.87958 15.3227ZM8.22456 16.9679L8.22455 16.9679C8.19831 16.8941 8.17387 16.8254 8.15857 16.7546L8.15105 16.72C8.06995 16.3467 7.98937 15.9758 8.06336 15.5848C8.14776 15.14 8.43547 15.1049 8.79227 15.2262C8.97217 15.2875 9.03404 15.447 8.98058 15.6944C8.87336 16.1906 8.63429 16.627 8.33456 17.0321C8.32973 17.0386 8.32202 17.0428 8.30641 17.0513C8.29582 17.0571 8.2816 17.0648 8.26218 17.0766C8.24976 17.0387 8.23696 17.0028 8.22456 16.9679ZM6.71226 16.1375C6.72895 16.0899 6.74625 16.0407 6.76646 15.9902C6.68027 15.98 6.6235 15.9731 6.56674 15.9661C6.47941 15.9552 6.392 15.9448 6.30459 15.9343L6.30451 15.9343C6.09104 15.9088 5.87755 15.8833 5.66513 15.8511C5.54469 15.8328 5.52637 15.8887 5.52847 15.9827C5.53718 16.3791 5.65131 16.7482 5.82641 17.0993C5.89488 17.2363 5.99009 17.257 6.0826 17.1396C6.2664 16.9056 6.43669 16.6593 6.59527 16.4073C6.64553 16.3275 6.67761 16.2361 6.71226 16.1375ZM6.18555 15.576L6.1856 15.5759L6.20146 15.6357C6.26818 15.6448 6.33497 15.6536 6.40177 15.6624C6.55964 15.6831 6.7176 15.7038 6.87482 15.7291C7.07244 15.7613 7.18927 15.6829 7.3067 15.5189C7.4824 15.2735 7.398 15.0549 7.29529 14.8354C7.2202 14.675 6.86761 14.6077 6.773 14.7332C6.62687 14.9271 6.4904 15.1282 6.35396 15.3293L6.35394 15.3293C6.29804 15.4117 6.24215 15.494 6.1856 15.5759L6.18555 15.5757V15.576ZM9.66351 16.9848C9.66548 16.9553 9.66745 16.9259 9.66997 16.8965C9.66841 16.8797 9.66797 16.8625 9.66753 16.8454C9.66653 16.8063 9.66554 16.7674 9.65135 16.734C9.63453 16.6938 9.58858 16.6427 9.55103 16.6385C9.37294 16.6184 9.19334 16.6082 9.01434 16.6055C8.96748 16.6049 8.8918 16.6331 8.87798 16.6673C8.77737 16.9181 8.69839 17.1767 8.74344 17.4518C8.76176 17.5635 8.84014 17.6362 8.95367 17.6597C9.28314 17.7281 9.59098 17.5149 9.64444 17.1794C9.65479 17.1152 9.65915 17.05 9.66351 16.9848ZM6.0778 14.541C6.31566 14.5569 6.4388 14.7789 6.33488 14.9125C6.25205 15.0189 6.17599 15.1304 6.09988 15.242C6.0438 15.3242 5.9877 15.4065 5.92884 15.4867C5.90481 15.5198 5.84564 15.5519 5.809 15.5459C5.7421 15.535 5.6769 15.5137 5.61165 15.4923L5.61163 15.4923L5.61161 15.4923L5.61158 15.4923L5.61155 15.4923L5.61153 15.4923L5.6115 15.4923L5.61147 15.4923L5.61145 15.4923L5.61142 15.4923L5.61139 15.4922L5.61137 15.4922L5.61134 15.4922L5.61131 15.4922L5.61129 15.4922L5.61126 15.4922C5.58173 15.4826 5.5522 15.4729 5.52248 15.4642C5.41587 15.4333 5.38223 15.36 5.43719 15.2702L5.45956 15.2338C5.57405 15.0475 5.68938 14.8598 5.82642 14.6906C5.87363 14.6324 5.95099 14.5986 6.01357 14.5713C6.03818 14.5606 6.0605 14.5509 6.0778 14.541ZM10.6299 16.6768L10.6299 16.6765V16.6768L10.6299 16.6768ZM10.6101 16.6735L10.6299 16.6768C10.6216 16.724 10.6139 16.7714 10.6062 16.8187L10.6062 16.8187L10.6062 16.8187L10.6062 16.8187L10.6062 16.8188L10.6062 16.8188L10.6062 16.8188L10.6062 16.8188L10.6062 16.8188L10.6062 16.8188L10.6062 16.8188L10.6062 16.8188L10.6062 16.8188L10.6062 16.8188L10.6062 16.8188C10.5867 16.9383 10.5673 17.0577 10.5389 17.1751C10.5221 17.2441 10.4774 17.3129 10.4284 17.3664C10.3311 17.473 10.183 17.4601 10.1137 17.3339C9.97249 17.0771 9.98841 16.7948 10.0073 16.5155C10.0088 16.4921 10.05 16.4575 10.0779 16.4515C10.2242 16.4209 10.3716 16.393 10.52 16.377C10.5467 16.3743 10.599 16.4293 10.6062 16.4644C10.6159 16.5117 10.6139 16.5615 10.6118 16.6113C10.611 16.6321 10.6101 16.6529 10.6101 16.6735ZM9.46368 16.2386H9.46367C9.22466 16.2167 9.18373 16.213 9.26118 15.9099C9.30017 15.7578 9.31792 15.5995 9.33548 15.4429L9.33596 15.4387C9.34557 15.3525 9.38371 15.3161 9.46661 15.3083C9.5033 15.3048 9.53981 15.298 9.5763 15.2911L9.57631 15.2911L9.57632 15.2911C9.61836 15.2832 9.66039 15.2753 9.70267 15.2726C9.89578 15.2603 9.97387 15.3528 9.92011 15.5387C9.86335 15.7339 9.80118 15.9285 9.72609 16.1171C9.70802 16.1626 9.66484 16.1982 9.63193 16.2253C9.61945 16.2356 9.60845 16.2446 9.60086 16.2526H9.60055C9.54914 16.2464 9.50364 16.2423 9.46368 16.2386ZM4.83015 15.9424L4.83009 16.0375H4.83339C4.83339 16.0675 4.83285 16.0975 4.83231 16.1275C4.83114 16.1926 4.82998 16.2578 4.83429 16.3225C4.85802 16.6817 4.92049 16.7328 5.27397 16.7082C5.38539 16.7004 5.42504 16.658 5.40161 16.5454L5.3932 16.5054C5.36508 16.3722 5.33671 16.2379 5.33043 16.103L5.32976 16.0887C5.32182 15.9191 5.31783 15.8339 5.27513 15.7785C5.23198 15.7225 5.1493 15.697 4.98305 15.6456L4.98303 15.6456L4.98302 15.6456L4.983 15.6456L4.97605 15.6435C4.86042 15.6077 4.82949 15.6492 4.83009 15.7522C4.83029 15.8157 4.83022 15.879 4.83015 15.9424ZM11.4457 16.5553L11.4457 16.5554C11.4276 16.6474 11.4095 16.7394 11.3844 16.8294C11.3471 16.9633 11.2084 17.0748 11.1033 17.0582C10.9594 17.0357 10.9159 16.9222 10.8978 16.7984C10.8777 16.6609 10.8594 16.5221 10.8555 16.3834C10.8543 16.3443 10.9002 16.2789 10.9366 16.2689C11.075 16.2302 11.218 16.205 11.3607 16.1858C11.3868 16.1822 11.4387 16.2257 11.4463 16.2557C11.456 16.2956 11.4539 16.3382 11.4519 16.3809C11.451 16.3987 11.4502 16.4165 11.4502 16.4341L11.4694 16.438C11.4611 16.477 11.4534 16.5162 11.4457 16.5553ZM5.66639 14.4252L5.66657 14.4249V14.4252L5.66639 14.4252ZM5.5748 14.4071C5.60517 14.4137 5.63581 14.4203 5.66639 14.4252L5.55584 14.593C5.46435 14.7319 5.37841 14.8623 5.29325 14.9931C5.26899 15.0306 5.2486 15.071 5.22839 15.111L5.22838 15.111L5.22147 15.1247C5.12026 15.3229 4.98091 15.352 4.80551 15.2019C4.77998 15.1799 4.76677 15.1037 4.78449 15.0775L4.83489 15.0033C4.9608 14.8176 5.08707 14.6314 5.23229 14.4615C5.32489 14.3532 5.44743 14.3796 5.5748 14.4071ZM10.333 16.0987C10.0093 16.0512 10.0084 16.0509 10.1042 15.7371C10.136 15.6329 10.1724 15.5298 10.2108 15.4277C10.2505 15.3223 10.3276 15.2622 10.4421 15.2836C10.5658 15.3064 10.6652 15.3896 10.6655 15.5112C10.6655 15.6776 10.6436 15.8512 10.5883 16.0065C10.5751 16.0437 10.5013 16.0594 10.4277 16.0751L10.4277 16.0751C10.3943 16.0822 10.361 16.0893 10.3333 16.0984L10.333 16.0987ZM4.7173 14.2145L4.71726 14.2145L4.71703 14.2144C4.6958 14.2087 4.67342 14.2026 4.64967 14.1953L4.64937 14.1956C4.6339 14.2042 4.61623 14.2118 4.59824 14.2195C4.55792 14.2368 4.51602 14.2548 4.4938 14.2866C4.37997 14.4488 4.27065 14.6161 4.17785 14.7912C4.11001 14.9194 4.19567 14.9681 4.27951 15.0157C4.30108 15.028 4.32254 15.0402 4.34123 15.0537C4.44124 15.1257 4.4935 15.0636 4.54426 14.9855C4.57178 14.9431 4.59898 14.9004 4.62618 14.8577C4.70877 14.7282 4.79138 14.5986 4.88334 14.4761C4.96382 14.3692 4.9413 14.3046 4.83468 14.2536C4.79923 14.2367 4.76068 14.2262 4.7173 14.2145ZM4.26953 15.9275L4.27369 15.8533C4.27795 15.7757 4.28284 15.6864 4.29025 15.5974C4.2912 15.5858 4.29138 15.5736 4.29156 15.5613C4.29245 15.4994 4.29338 15.4348 4.39177 15.4356C4.50289 15.4365 4.6014 15.5269 4.59599 15.6254C4.59338 15.6726 4.5883 15.7198 4.58322 15.767C4.57603 15.8338 4.56884 15.9006 4.56866 15.9675C4.56866 16.0272 4.5747 16.0869 4.58074 16.1467C4.58621 16.2009 4.59169 16.255 4.59269 16.3093C4.59359 16.3531 4.57767 16.4204 4.54824 16.4354C4.5158 16.4516 4.44012 16.4354 4.41699 16.406C4.36384 16.339 4.31969 16.2591 4.29326 16.1777C4.27816 16.1314 4.27642 16.0808 4.27438 16.0216C4.27338 15.9925 4.27231 15.9613 4.26953 15.9275ZM11.3521 15.5567V15.542H11.3497C11.3497 15.5253 11.3509 15.5083 11.3521 15.4912V15.4912V15.4912V15.4912V15.4912V15.4912C11.3549 15.4522 11.3576 15.4131 11.3461 15.3789C11.329 15.3284 11.2801 15.2483 11.2503 15.2504C11.2263 15.2521 11.1994 15.2494 11.1719 15.2467C11.0876 15.2382 10.9982 15.2292 10.9737 15.3477C10.9399 15.5112 10.9273 15.6795 10.9147 15.8466L10.9122 15.8802C10.9104 15.9051 10.9602 15.9586 10.9842 15.9574C11.2464 15.9442 11.3537 15.824 11.3521 15.5567ZM12.217 16.3854C12.2156 16.3927 12.2145 16.403 12.2132 16.4152V16.4152C12.2092 16.4531 12.2031 16.5101 12.1818 16.5605C12.1578 16.6173 12.1034 16.7005 12.0608 16.7014C11.9815 16.7035 11.8511 16.674 11.8304 16.6224C11.7794 16.4947 11.7659 16.3473 11.7646 16.2076C11.7643 16.1704 11.8581 16.113 11.9169 16.098C12.1992 16.0268 12.2185 16.046 12.217 16.3851V16.3854ZM12.1677 15.5289V15.4394V15.4391H12.1719C12.1719 15.4185 12.1725 15.3978 12.1732 15.3771C12.1749 15.3278 12.1765 15.2785 12.1689 15.2307C12.1635 15.1962 12.1307 15.146 12.101 15.1382C11.9259 15.0928 11.7724 15.219 11.7697 15.4004C11.7693 15.4297 11.767 15.4592 11.7648 15.4887V15.4887V15.4887V15.4887V15.4887C11.7605 15.5441 11.7563 15.5994 11.7643 15.6529C11.7715 15.7001 11.8154 15.768 11.8556 15.7791C12.0409 15.8301 12.1686 15.7214 12.1677 15.5289ZM4.09679 15.8728C3.95983 15.783 3.88204 15.2706 3.95923 15.0742C4.15505 15.1451 4.19079 15.2142 4.15115 15.3977C4.13566 15.4691 4.13027 15.5425 4.12489 15.616C4.12223 15.6522 4.11957 15.6884 4.11571 15.7244C4.11239 15.7566 4.10806 15.7886 4.10333 15.8237L4.10333 15.8237L4.10332 15.8237L4.10332 15.8237L4.09679 15.8728ZM15.5779 11.3394C16.1771 11.5586 16.7727 11.7902 17.3637 12.0307L17.3631 12.0304C17.5947 12.1247 17.5635 12.2187 17.3869 12.3932C17.194 12.5841 17.0476 12.5206 16.8565 12.4377L16.8231 12.4233C16.3837 12.2347 15.9374 12.0536 15.4788 11.9223C15.1235 11.8208 14.7637 11.907 14.4421 12.1019L14.4071 12.123C14.3156 12.1781 14.2226 12.2341 14.1477 12.3073C14.0694 12.3842 14.0006 12.4815 13.9582 12.5827C13.8168 12.9215 13.5996 13.196 13.29 13.3885C12.9734 13.5856 12.8116 13.8484 12.8263 14.2316C12.8393 14.5697 12.8333 14.9087 12.8273 15.2473L12.8239 15.4476C12.8215 15.6173 12.7848 15.781 12.6178 15.8702C12.5617 15.9002 12.483 15.93 12.4313 15.912C12.3968 15.8999 12.3761 15.8032 12.3764 15.7444C12.3769 15.6315 12.3831 15.5188 12.3892 15.4061C12.3931 15.334 12.397 15.262 12.3995 15.1899C12.4064 14.9926 12.3223 14.9019 12.1205 14.9118C12.0416 14.9156 11.9634 14.9305 11.8851 14.9454C11.8306 14.9558 11.7761 14.9662 11.7213 14.9728C11.5529 14.9932 11.3835 15.0115 11.2141 15.0188L11.1798 15.0201C11.0461 15.0251 10.9176 15.0299 10.8116 15.1401C10.7885 15.1641 10.7062 15.1536 10.6639 15.1329C10.4948 15.0497 10.3317 15.0416 10.1632 15.132C10.1317 15.1488 10.0806 15.162 10.0527 15.1482C9.75775 15.0025 9.46943 15.0707 9.17961 15.1626C9.14867 15.1725 9.09792 15.1695 9.07629 15.1503C8.88198 14.9758 8.64982 14.9419 8.40354 14.9635C8.2783 14.9746 8.17469 14.9515 8.06867 14.8728C8.01461 14.8326 7.89988 14.8256 7.83651 14.8551C7.69686 14.9202 7.62207 14.8743 7.5536 14.7587C7.3755 14.4583 7.03942 14.3487 6.69914 14.4586C6.63466 14.4796 6.54756 14.4493 6.47485 14.424L6.46548 14.4208C6.43337 14.4096 6.40216 14.3888 6.37155 14.3684C6.32744 14.3391 6.28458 14.3105 6.24203 14.3127C6.07661 14.3213 5.93256 14.2702 5.78601 14.2183L5.78598 14.2183C5.74789 14.2048 5.70964 14.1913 5.6708 14.1787C5.57884 14.149 5.47651 14.1516 5.37415 14.1542H5.37411C5.3267 14.1555 5.27929 14.1567 5.23291 14.1547C5.22341 14.1542 5.21323 14.1544 5.20291 14.1545H5.20287C5.17176 14.1549 5.13945 14.1553 5.12118 14.14C4.96531 14.009 4.78631 13.9463 4.58539 13.937C4.57757 13.9366 4.5701 13.9312 4.55868 13.9231C4.55168 13.9181 4.54319 13.912 4.53223 13.9054C4.54213 13.8892 4.55113 13.8724 4.56006 13.8559C4.57902 13.8206 4.59759 13.7861 4.62353 13.7586C4.93227 13.4318 5.24342 13.1077 5.55457 12.7837C5.59966 12.7368 5.64543 12.6905 5.69119 12.6442L5.6912 12.6442L5.69124 12.6441L5.69126 12.6441C5.75093 12.5837 5.81059 12.5234 5.86872 12.4617C6.14953 12.1641 6.14593 11.8271 6.00056 11.4724C5.97821 11.418 5.95292 11.3644 5.92764 11.3108L5.92764 11.3108L5.92764 11.3108C5.87582 11.201 5.82408 11.0913 5.79784 10.9757C5.73747 10.7096 5.86992 10.4789 6.00237 10.2591C6.07945 10.1312 6.16255 10.006 6.24562 9.88079L6.24562 9.88078C6.41501 9.62556 6.58426 9.37053 6.70215 9.09346C6.96494 8.47537 7.12922 7.82214 7.24575 7.153C7.32354 6.7076 7.50674 6.27332 7.69355 5.85675C7.79853 5.62276 8.06604 5.53461 8.30957 5.45436L8.31885 5.4513C8.79788 5.29362 9.22376 5.40775 9.64783 5.65613C9.8176 5.75557 10.0094 5.81799 10.2009 5.88032C10.276 5.90477 10.3511 5.92921 10.4248 5.95586C10.6441 6.03514 10.8607 5.98504 11.0739 5.93575C11.0989 5.92996 11.1239 5.92418 11.1489 5.91862C11.7736 5.77927 12.4034 5.71319 13.0386 5.8099C13.3371 5.85525 13.6414 5.91291 13.9207 6.02224C14.4138 6.21535 14.6706 6.63071 14.8193 7.11996C15.0632 7.92155 15.0211 8.74237 14.9731 9.56198C14.9481 9.98305 14.9328 10.4014 15.0521 10.8126C15.1307 11.0847 15.3124 11.2421 15.5779 11.3394ZM7.4641 13.2915C8.0999 13.0182 8.62429 12.6095 9.02403 12.0463C9.1754 11.8331 9.28623 11.5976 9.28172 11.2844C9.28412 11.0273 9.18141 10.7979 8.92222 10.6246C8.48463 10.332 7.99509 10.181 7.4686 10.1822C7.1103 10.1831 6.87784 10.4128 6.82919 10.7735C6.76041 11.2841 6.6568 11.7818 6.45317 12.262C6.32733 12.5587 6.35766 12.878 6.60424 13.1251C6.84811 13.3696 7.13012 13.4351 7.4641 13.2915ZM9.88142 8.23288C9.92139 8.02111 9.96136 7.8093 9.99261 7.59629L9.99664 7.56885C10.0279 7.35597 10.0597 7.13905 10.0482 6.92654C10.044 6.85386 10.0359 6.78178 10.0211 6.71271C10.0139 6.67817 10.0049 6.64423 9.99382 6.61149C9.96649 6.5292 9.92654 6.45322 9.86978 6.38804C9.81301 6.32287 9.73913 6.26851 9.64362 6.22917C9.53802 6.18597 9.42516 6.16041 9.31239 6.13487C9.26127 6.1233 9.21018 6.11173 9.15979 6.09852C8.69847 6.12495 8.40685 6.30395 8.22514 6.70189C8.21313 6.72862 8.20142 6.75595 8.19031 6.78449C8.15602 6.87208 8.12562 6.96134 8.09522 7.05055C8.06517 7.13876 8.03514 7.22692 8.00139 7.31337C7.97887 7.37134 7.95454 7.4284 7.92751 7.48426C7.86745 7.6086 7.80227 7.73054 7.7353 7.85187C7.70067 7.91469 7.66561 7.9773 7.63055 8.03991L7.63054 8.03993L7.63053 8.03993C7.55277 8.1788 7.47499 8.31768 7.40193 8.45885C7.31693 8.62313 7.29321 8.78051 7.32714 8.92137C7.33135 8.93879 7.33645 8.9562 7.34246 8.97332C7.35477 9.00756 7.37039 9.0406 7.38961 9.07243C7.39922 9.08835 7.40973 9.10397 7.42115 9.11929C7.4665 9.18025 7.52596 9.23612 7.59925 9.28537C7.62477 9.30249 7.6509 9.31871 7.67733 9.33372C7.70376 9.34874 7.73079 9.36256 7.75782 9.37517C7.89357 9.43824 8.03834 9.47098 8.19 9.46767C8.22034 9.46707 8.25097 9.46497 8.28191 9.46137C8.45616 9.44114 8.62936 9.41123 8.80245 9.38134L8.80245 9.38134L8.80246 9.38134C8.85549 9.37218 8.90852 9.36302 8.96157 9.35415C9.1766 9.31811 9.3529 9.24302 9.49106 9.1289C9.58987 9.04751 9.66855 8.94599 9.72802 8.82466C9.77547 8.72765 9.81031 8.61773 9.83254 8.49519C9.84841 8.40773 9.86491 8.32034 9.8814 8.23295L9.88141 8.23291L9.88142 8.23288ZM13.7681 8.93428C13.9183 8.66278 14.0685 8.38917 14.0784 8.06812L14.0781 8.06842C14.0922 7.61491 13.9108 7.23228 13.6333 6.8884C13.0572 6.17451 12.1971 6.16129 11.4955 6.67456C11.3925 6.74995 11.3624 6.85116 11.4486 6.96018C11.5291 7.06199 11.6306 7.04878 11.7313 6.99352C11.7598 6.97786 11.7873 6.95991 11.8147 6.94199C11.8589 6.91318 11.9028 6.88447 11.9508 6.86558C11.9838 6.85256 12.0236 6.85645 12.0633 6.86035C12.0814 6.86212 12.0994 6.86389 12.1169 6.86407C12.1157 6.88142 12.1162 6.89983 12.1168 6.91826V6.91827V6.91829C12.118 6.95856 12.1192 6.9989 12.1019 7.02836C11.9991 7.20357 11.8917 7.37613 11.7844 7.54872L11.7844 7.54874L11.7844 7.54876C11.7386 7.62229 11.6929 7.69583 11.6475 7.76958C11.5075 7.99694 11.3811 8.2315 11.379 8.5069C11.3779 8.63963 11.3815 8.77244 11.3852 8.90528V8.90529V8.9053C11.3887 9.03156 11.3922 9.15787 11.3916 9.28417C11.3914 9.33042 11.3755 9.37652 11.3597 9.42268L11.3597 9.42269C11.3524 9.44397 11.3451 9.46527 11.3393 9.4866C11.3175 9.47639 11.2947 9.46727 11.272 9.45816L11.2719 9.45816L11.2719 9.45815C11.2184 9.43671 11.1649 9.41529 11.1234 9.37968C11.0865 9.34805 11.076 9.27858 11.0675 9.22218L11.0666 9.21629C11.0507 9.11268 11.0351 9.00726 11.0372 8.90304C11.0423 8.65467 11.0507 8.40629 11.072 8.15912C11.079 8.07873 11.0971 7.99946 11.1152 7.92008C11.1283 7.86272 11.1415 7.8053 11.1504 7.74736C11.1657 7.64765 11.1492 7.55064 11.0324 7.5194C10.9164 7.48817 10.8248 7.52211 10.7795 7.64344C10.776 7.65274 10.7712 7.6617 10.7663 7.67062L10.7663 7.67063L10.7663 7.67063C10.7589 7.68418 10.7516 7.69761 10.7495 7.71192C10.7365 7.79545 10.7226 7.87892 10.7087 7.9624L10.7087 7.96243L10.7087 7.96246C10.6717 8.18358 10.6348 8.40475 10.6167 8.62734C10.6089 8.72322 10.6223 8.82062 10.6358 8.91815C10.6478 9.00543 10.6598 9.09283 10.6567 9.17935C10.6452 9.49651 10.7969 9.70374 11.0594 9.84189C11.421 10.0323 11.8156 10.0873 12.073 10.0972C12.7314 10.1074 13.1614 9.94761 13.4414 9.4899C13.5537 9.30669 13.6642 9.12229 13.7681 8.93428ZM7.04406 12.9259C6.9053 12.8847 6.8104 12.8127 6.8167 12.6841C6.82421 12.5286 6.83502 12.3616 6.89689 12.2228C7.04136 11.8997 7.10893 11.56 7.1705 11.217C7.17937 11.1677 7.18592 11.1177 7.19246 11.0677C7.20476 10.9738 7.21705 10.88 7.24469 10.7908C7.26781 10.716 7.33629 10.638 7.40567 10.5998C7.44217 10.5798 7.49489 10.589 7.54754 10.5983H7.54755C7.57071 10.6023 7.59386 10.6064 7.61561 10.6079C7.6101 10.6266 7.60549 10.6457 7.60088 10.6648C7.59118 10.7051 7.58147 10.7454 7.56335 10.7812C7.4348 11.0332 7.35852 11.296 7.3423 11.5813C7.33359 11.7375 7.29875 11.8991 7.24018 12.0441C7.13656 12.3015 7.04526 12.5568 7.06538 12.8397C7.06636 12.8544 7.06149 12.8694 7.05506 12.8892C7.05162 12.8998 7.04773 12.9118 7.04406 12.9259ZM7.75103 8.65754C7.73658 8.68887 7.72249 8.71941 7.70801 8.74819H7.70831C7.73083 8.92328 7.84796 8.97944 7.97321 9.02059C8.10776 9.06504 8.13118 9.04221 8.11677 8.89865C8.08493 8.5842 8.1462 8.29288 8.33001 8.03159C8.57133 7.6886 8.72366 7.30345 8.87593 6.91843C8.909 6.83483 8.94206 6.75123 8.97603 6.66807C8.98484 6.64657 8.98136 6.62005 8.97787 6.59346C8.97624 6.58103 8.97461 6.56859 8.97423 6.55664C8.9623 6.55798 8.95006 6.55846 8.93785 6.55895C8.91164 6.55999 8.88555 6.56103 8.86281 6.57046C8.70423 6.63653 8.61022 6.76297 8.55976 6.92185C8.39007 7.45705 8.17804 7.97242 7.86448 8.44244C7.81878 8.51069 7.78395 8.58618 7.75103 8.65754Z" fill="white"/>
</svg>
