<svg width="24" height="24" viewBox="0 0 24 24" fill="none" xmlns="http://www.w3.org/2000/svg">
<circle cx="12" cy="12" r="12" fill="#FAFBFB"/>
<path d="M15.3963 8.80627C15.8491 9.58241 16.3072 10.3586 16.7599 11.1347C17.5199 12.439 18.2745 13.7488 19.0291 15.0531C19.083 15.1447 19.1261 15.2418 19.1746 15.3334C18.9967 15.4089 18.9159 15.2633 18.8243 15.1717C18.5009 14.8645 18.1937 14.5411 17.8757 14.2285C17.6493 13.9967 17.4229 13.7703 17.2073 13.5332C17.1265 13.4793 17.051 13.42 16.9809 13.3499C16.2587 12.5953 15.5041 11.8839 14.7711 11.1347C14.6471 11.0107 14.5016 10.8975 14.4639 10.7089C14.6094 10.0459 14.9328 9.45844 15.2454 8.86556C15.2723 8.81166 15.337 8.78471 15.3963 8.80627Z" fill="#626362"/>
<path d="M6.15918 12.8882C7.3719 10.7484 8.59001 8.60329 9.80273 6.46351C9.81351 6.44734 9.84045 6.43656 9.85662 6.42578C9.98598 6.54436 9.93747 6.68988 9.90513 6.82463C9.82968 7.14802 9.75422 7.47141 9.6572 7.78942C9.53323 8.14515 9.48472 8.52244 9.36076 8.87817C9.09126 10.0262 8.76787 11.1581 8.47682 12.3007C8.4337 12.4624 8.40675 12.6295 8.26123 12.7427C8.02946 12.9044 7.75458 12.8289 7.50126 12.8774C7.17786 12.9421 6.84369 12.9367 6.51491 12.9852C6.39633 13.0014 6.26159 13.0014 6.15918 12.8882Z" fill="#626362"/>
<path d="M14.3895 18.6873H6.85449C6.89761 18.5041 7.0647 18.5149 7.18866 18.4825C7.56595 18.3855 7.94863 18.2885 8.32592 18.1807C8.6601 18.1106 8.99427 18.019 9.32305 17.9112C9.45241 17.8465 9.58176 17.771 9.73268 17.7603C10.4118 17.701 11.0478 17.4369 11.7108 17.2967C12.2551 17.1836 12.7833 16.9895 13.3385 16.9141C13.6942 17.135 14.0122 17.4908 14.0607 17.8303C14.1092 18.1699 14.4111 18.3639 14.3895 18.6873Z" fill="#626362"/>
<path d="M10.0347 6.087C10.5791 5.12222 11.1181 4.15204 11.6624 3.18726C11.8187 2.91776 12.002 2.91237 12.1637 3.18187C12.3523 3.49448 12.5194 3.81787 12.6973 4.13587C12.3577 5.04676 11.9211 5.91992 11.5385 6.80924C11.4468 7.01406 11.3875 7.23504 11.269 7.42908C11.1073 7.5261 11.0426 7.38057 10.951 7.30511C10.8647 7.22426 10.7677 7.12186 10.6761 7.03023C10.5252 6.90087 10.385 6.76074 10.2449 6.62599C10.1102 6.46968 9.99696 6.30799 10.0347 6.087Z" fill="#464646"/>
<path d="M13.9804 6.3557C14.4332 7.07794 14.8751 7.81635 15.2578 8.57632C15.2578 8.59249 15.2524 8.60866 15.2524 8.62483C15.053 9.29318 14.6919 9.89145 14.4493 10.5436C14.4332 10.5706 14.4062 10.5975 14.3739 10.6083C14.1259 10.5706 14.0127 10.3496 13.851 10.2041C13.5816 9.95613 13.3282 9.68664 13.0803 9.41714C13.0318 9.36863 12.9994 9.31474 12.9833 9.25006C12.9294 9.07219 12.8647 8.89433 12.9833 8.71107C13.0426 8.62483 13.0102 8.53321 12.9671 8.44697C12.9348 8.38229 12.9186 8.31222 12.9132 8.24215C12.9024 7.9511 12.9671 7.90798 13.2689 7.99422C13.3228 7.85947 13.2204 7.74629 13.2043 7.62232C13.1719 7.32049 13.2636 7.25581 13.5546 7.36361C13.6031 7.23964 13.5007 7.13723 13.5007 7.02405C13.5007 6.86235 13.3875 6.60364 13.7379 6.67909C13.7648 6.68448 13.7918 6.68987 13.7864 6.6737C13.7756 6.64136 13.7702 6.60364 13.7702 6.5713C13.8025 6.4635 13.7971 6.31797 13.9804 6.3557Z" fill="#606160"/>
<path d="M6.15884 12.8914C6.8703 12.8644 7.58176 12.7944 8.28783 12.6758C8.30939 12.7728 8.26627 12.8321 8.16926 12.8536C7.53325 12.9345 6.89186 12.9722 6.25586 13.0746C6.89725 12.9668 7.54403 12.9345 8.18543 12.8644C8.304 12.9399 8.27166 13.0477 8.24472 13.1501C8.14231 13.5813 8.0399 14.0125 7.88359 14.4329C7.80275 14.5407 7.85664 14.697 7.75424 14.7994C7.53864 15.1066 7.1883 15.0096 6.89725 15.0581C6.57925 15.112 6.23969 15.015 5.93246 15.1713C5.78155 15.4031 5.54439 15.4569 5.29646 15.4947C5.04853 15.5324 4.87605 15.4785 4.85449 15.1928L6.15884 12.8914Z" fill="#606160"/>
<path d="M14.3888 18.6857C14.2917 18.551 14.1947 18.4216 14.0923 18.2923C14.0007 18.1683 14.0007 18.1683 14.0708 17.9904C14.0977 17.9258 14.033 17.888 14.0007 17.8395C13.7959 17.5539 13.5911 17.2628 13.3809 16.9771C13.4455 16.8154 13.6018 16.8047 13.7366 16.7723C14.13 16.6699 14.5235 16.5729 14.917 16.4759C15.0409 16.4543 15.1595 16.4112 15.2889 16.4274C15.4721 16.5028 15.623 16.643 15.7147 16.8154C15.9249 17.1927 16.259 17.4946 16.48 17.8772C16.5285 17.9581 16.6148 17.9581 16.701 17.9473C16.9436 18.1414 17.1969 18.3246 17.1861 18.6857H14.3888Z" fill="#606160"/>
<path d="M13.9813 6.36072C13.6956 6.4793 13.9813 6.71645 13.8789 6.88354C13.7603 6.86198 13.7549 6.66795 13.6148 6.70029C13.383 6.96978 13.9112 7.27161 13.5717 7.53571C13.4854 7.48182 13.4693 7.34168 13.3345 7.34168C13.0974 7.61117 13.6148 7.913 13.286 8.17711C13.1998 8.1286 13.1728 7.99924 13.0327 7.97768C12.9626 8.13399 13.0004 8.29029 13.0273 8.4466C12.7901 8.57596 12.8656 8.82389 12.8225 9.02332C12.4721 8.99637 12.3643 8.6568 12.1218 8.48972C11.9871 8.3388 11.8146 8.22023 11.7337 8.0208C11.6529 7.595 11.917 7.277 12.1002 6.94283C12.1649 6.81886 12.2458 6.72184 12.2512 6.57632C12.2566 6.45774 12.3051 6.323 12.4075 6.2691C12.5422 6.19903 12.4937 6.06967 12.5422 5.98882C12.7632 5.6277 12.7632 5.15878 13.0974 4.85156C13.4262 5.34204 13.7226 5.8433 13.9813 6.36072Z" fill="#565756"/>
<path d="M4.8547 15.1881C5.09725 15.5115 5.45298 15.4845 5.91651 15.1126C6.27763 15.242 6.64414 15.1611 7.00526 15.1288C7.22624 15.1072 7.44184 15.021 7.66821 15.0372C7.81374 15.2042 7.66282 15.3498 7.63048 15.5007C7.59275 15.6947 7.50113 15.8834 7.45801 16.0774C7.43645 16.2175 7.42028 16.3577 7.31787 16.4655C6.76272 16.5248 6.21834 16.6703 5.6524 16.6649C5.31284 16.6649 4.96789 16.7242 4.62833 16.7727C4.14324 16.8428 4.10012 16.8158 4.20253 16.3307C4.42352 15.9534 4.63911 15.5708 4.8547 15.1881Z" fill="#565756"/>
<path d="M17.1928 18.6849L16.6915 17.9843C16.4167 17.7094 16.2065 17.386 16.0016 17.068C15.9477 16.9817 15.9208 16.8793 15.8238 16.8147C15.6513 16.7069 15.6136 16.5452 15.6621 16.3565C15.8346 16.184 16.0771 16.211 16.2819 16.1194C16.4382 16.0439 16.5999 15.9846 16.7724 16.0547C16.8155 16.0816 16.767 16.0655 16.8047 16.0601C17.0095 16.0439 16.9341 16.3403 17.1605 16.3457C17.3545 16.3457 17.4246 16.5991 17.5324 16.75C17.9366 17.2836 18.3247 17.8279 18.7127 18.3669C18.7828 18.464 18.869 18.5502 18.8367 18.6903L17.1928 18.6849Z" fill="#565756"/>
<path d="M3.14062 18.2003C3.28615 17.9254 3.4209 17.6398 3.61493 17.3918C3.77124 17.4996 3.96527 17.4188 4.09463 17.3918C4.62284 17.2733 5.16721 17.2733 5.70081 17.2086C6.08888 17.1601 6.48234 17.0253 6.88658 17.1439C6.95665 17.1655 7.03211 16.9499 7.16685 17.0738C7.22075 17.3325 7.04288 17.5427 7.02133 17.7853C7.01055 17.8931 6.97282 17.9955 6.90275 18.0763C6.68715 18.2488 6.43383 18.1141 6.20746 18.1356C5.74932 18.168 5.31274 18.2812 4.85999 18.3351C4.54738 18.3674 4.22938 18.3782 3.91677 18.3674C3.80897 18.3566 3.70117 18.3674 3.60415 18.3997C3.39395 18.4752 3.23225 18.4105 3.14062 18.2003Z" fill="#4A4A4A"/>
<path d="M20.7761 18.6866H19.7736C19.4233 18.6489 19.3155 18.3255 19.1646 18.0991C18.6849 17.3877 18.1297 16.7301 17.6554 16.0132C17.6231 15.9647 17.5799 15.9216 17.6015 15.8569C17.7524 15.6845 17.9842 15.706 18.1728 15.6359C18.2429 15.6198 18.313 15.6198 18.383 15.6306C18.7442 15.8623 19.0945 16.0887 19.2346 16.5414C19.2993 16.7463 19.5095 16.8864 19.6497 17.0535C19.7844 17.2044 19.903 17.3445 19.9892 17.5386C20.1294 17.8781 20.3827 18.153 20.6522 18.4063C20.7276 18.4818 20.8085 18.5626 20.7761 18.6866Z" fill="#4A4A4A"/>
<path d="M13.1017 4.85646C13.0209 5.07206 12.8269 5.24453 12.9293 5.51942C12.967 5.62182 12.7514 5.65416 12.7514 5.67033C12.6759 6.03684 12.4226 6.32789 12.3418 6.68363C12.3094 6.80759 12.2609 6.86688 12.207 6.95312C12.0184 7.27651 11.7489 7.5999 11.8082 8.0257C11.6034 8.06343 11.5387 7.8694 11.4093 7.78316C11.3339 7.68075 11.1883 7.61607 11.2315 7.45438C11.2422 7.08248 11.4686 6.79142 11.6034 6.46803C11.8998 5.75118 12.2286 5.03972 12.5466 4.33365C12.5789 4.25819 12.6113 4.17734 12.7029 4.15039C12.8538 4.36599 13.0047 4.59775 13.1017 4.85646Z" fill="#4F5150"/>
<path d="M7.1397 17.0513C6.8702 17.3154 6.4983 17.213 6.19647 17.2507C5.69521 17.31 5.18318 17.3693 4.67653 17.407C4.36931 17.4286 4.0567 17.4555 3.75486 17.4987C3.64707 17.5148 3.6309 17.4771 3.62012 17.3963C3.77642 17.019 4.0028 16.6848 4.20761 16.3398C4.19144 16.7064 4.34775 16.7549 4.69809 16.701C5.33948 16.5986 5.99166 16.577 6.64383 16.5177C6.85942 16.4961 7.05885 16.2698 7.29061 16.48C7.38224 16.5986 7.30678 16.7171 7.29061 16.8357C7.25827 16.9166 7.22593 17.0028 7.1397 17.0513Z" fill="#4F5150"/>
<path d="M17.6173 15.9046C17.8652 15.8777 17.8921 16.1633 17.9353 16.2496C18.1077 16.5837 18.3665 16.8694 18.5874 17.1551C18.8785 17.5324 19.0995 17.9635 19.439 18.3085C19.5522 18.4271 19.6115 18.5996 19.7678 18.6858H18.8354C18.3179 17.9689 17.8059 17.2467 17.2723 16.546C17.1376 16.3735 16.9274 16.2604 16.7549 16.1202C16.8788 15.8238 17.1861 15.9424 17.3963 15.8453C17.4771 15.8238 17.5634 15.8507 17.6173 15.9046Z" fill="#4F5150"/>
<path d="M20.7772 18.6838C20.6317 18.4628 20.4592 18.258 20.2598 18.0856C19.9849 17.8376 19.9903 17.4388 19.7101 17.2447C19.4891 17.0884 19.4837 16.7165 19.1387 16.7111C19.1279 16.7111 19.101 16.6519 19.1064 16.6249C19.1872 16.253 18.9177 16.0536 18.6698 15.9673C18.4812 15.9027 18.6159 15.6655 18.4219 15.6871C18.4434 15.4823 18.6321 15.5308 18.7507 15.4715C18.9016 15.4391 19.0525 15.3906 19.2142 15.3906C19.7909 16.377 20.3676 17.3687 20.9443 18.355C21.0306 18.5329 21.0467 18.6784 20.7772 18.6838Z" fill="#3F403F"/>
<path d="M3.141 18.198C3.37815 18.4082 3.63147 18.2843 3.89019 18.2519C4.28904 18.198 4.6825 18.3004 5.09752 18.1441C5.32928 18.0579 5.68501 17.9609 5.88982 17.9986C6.21861 18.0525 6.542 17.9717 6.85461 18.0579C6.94624 18.1549 6.90851 18.2573 6.88156 18.3651C6.84383 18.4837 6.8061 18.6023 6.71447 18.6939C5.56104 18.6993 4.40761 18.7047 3.25418 18.7047C2.93079 18.6939 2.90923 18.5807 3.141 18.198Z" fill="#3F403F"/>
<path d="M10.0338 6.0918C10.1093 6.26427 10.1739 6.44214 10.3033 6.58766C10.2386 7.0458 9.97451 7.42848 9.80204 7.8435C9.73736 7.99981 9.61339 8.03215 9.58105 7.80577C9.62956 7.33686 9.86133 6.91106 9.86133 6.43136C9.91523 6.31817 9.97451 6.20498 10.0338 6.0918Z" fill="#2F302F"/>
<path d="M19.2016 15.3988C19.0776 15.512 18.9267 15.5389 18.7704 15.5443C18.4416 15.2048 18.2045 14.8059 17.9242 14.4286C17.8703 14.3532 17.8272 14.2615 17.908 14.1699C18.2314 14.4825 18.5494 14.7951 18.8728 15.1024C18.9645 15.1886 19.0345 15.3126 19.1747 15.3341C19.1908 15.3557 19.2016 15.3773 19.2016 15.3988Z" fill="#303130"/>
<path d="M6.70996 18.689L6.78003 18.3441C7.23817 18.1608 7.72325 18.1824 8.19756 18.1339C8.26763 18.1285 8.37543 18.1393 8.35387 18.2686L6.8501 18.6944L6.70996 18.689Z" fill="#2F302F"/>
<path d="M15.3977 8.80841C15.0204 9.41207 14.7347 10.0642 14.5353 10.7434C14.4221 10.7649 14.3736 10.7164 14.3898 10.5978C14.6592 9.92411 14.9988 9.28271 15.2467 8.5982L15.2575 8.58203C15.3438 8.63593 15.3653 8.72756 15.3977 8.80841Z" fill="#606160"/>
<path d="M14.3889 10.6005C14.4158 10.6652 14.4644 10.7191 14.5344 10.746C15.2782 11.5006 16.022 12.2552 16.7658 13.0098C16.8628 13.1122 16.9545 13.2254 17.0461 13.3332C16.9167 13.4194 16.8251 13.3224 16.7281 13.2685C16.4478 13.1284 16.1837 12.9505 15.9034 12.8104C15.7956 12.7349 15.6879 12.6541 15.5531 12.6217C15.3968 12.5624 15.2189 12.5517 15.0788 12.4439C14.6153 11.9642 13.9577 11.7917 13.4133 11.4306C13.0792 11.2096 12.7342 10.9994 12.4162 10.746C12.2922 10.2125 12.6318 9.81899 12.8258 9.38241C12.8959 9.22072 13.0037 9.38241 13.0953 9.38241C13.4133 9.68963 13.7313 9.99686 14.0493 10.2987C14.1625 10.4011 14.2757 10.4981 14.3889 10.6005Z" fill="#565756"/>
<path d="M17.9096 14.1704C18.0013 14.5207 18.2923 14.7363 18.4702 15.0274C18.5726 15.1998 18.7343 15.34 18.772 15.5448C18.6696 15.6364 18.5079 15.5717 18.4109 15.6903H18.1953C17.8342 15.4154 17.7318 14.9627 17.4461 14.6339C17.306 14.4722 17.1982 14.2889 17.0149 14.1596C16.9017 14.0841 16.8263 13.9763 16.7939 13.847C16.7939 13.8146 16.7993 13.7823 16.8101 13.75C16.9395 13.6206 17.1119 13.5667 17.2629 13.4805L17.9096 14.1704Z" fill="#343434"/>
<path d="M17.256 13.4791C17.1859 13.6839 16.9973 13.7001 16.8302 13.754C16.7008 13.8025 16.6308 13.7055 16.5607 13.6354C16.3397 13.4252 16.1187 13.215 15.9193 12.9886C15.8708 12.9293 15.7037 12.8377 15.9031 12.7461C16.3182 12.8755 16.6362 13.1827 17.0404 13.3282L17.256 13.4791Z" fill="#292929"/>
<path d="M7.78711 14.4697L8.2183 12.8904C8.19135 12.8743 8.18596 12.8581 8.19135 12.8419C8.19674 12.8258 8.20752 12.8204 8.2183 12.8204C8.23986 12.7719 8.26681 12.7234 8.28837 12.6749C8.61715 11.4082 8.95132 10.1416 9.2801 8.875L9.32861 8.91812C9.4418 9.16605 9.36095 9.43555 9.39868 9.69426C9.40407 10.1416 9.37712 10.5836 9.39868 11.0309C9.39868 12.0658 9.40946 13.0953 9.40407 14.1301C9.40946 14.2595 9.39868 14.3888 9.38251 14.5182C9.36095 14.6583 9.2801 14.7176 9.13457 14.723C8.85969 14.7338 8.5902 14.7769 8.31532 14.8092C8.00809 14.8524 7.8464 14.7715 7.78711 14.4697Z" fill="#565756"/>
<path d="M9.58062 7.80014C9.6453 7.90794 9.67764 7.95106 9.74771 7.78936C9.92018 7.37973 10.0657 6.95932 10.3083 6.58203L10.7341 6.94315C10.7233 7.19648 10.6263 7.43902 10.4699 7.63844C10.3945 7.74624 10.346 7.8756 10.3298 8.00495C10.2813 8.32296 10.0657 8.5655 9.99025 8.86194C9.94713 9.02903 9.81239 9.07215 9.67225 9.11527C9.5914 9.12605 9.50516 9.10988 9.42971 9.07215C9.33808 9.03981 9.34347 8.94279 9.30574 8.87272L9.28418 8.86733C9.37581 8.52238 9.42432 8.14509 9.58062 7.80014Z" fill="#343434"/>
<path d="M14.967 16.5518L13.3878 16.983C12.3152 17.2578 11.2426 17.5327 10.17 17.8022C10.0245 17.84 9.87896 17.91 9.72266 17.84C9.74422 17.619 9.94903 17.5866 10.0946 17.5004C10.2509 17.4088 10.3964 17.3117 10.5581 17.2309C10.7306 17.1447 10.9138 17.0746 11.0593 16.9345C11.1617 16.8428 11.2534 16.7458 11.3827 16.6919C11.8193 16.5033 12.2343 16.2715 12.6224 16.002C13.0859 15.7002 13.598 15.4738 14.1154 15.2852C14.5196 15.6193 14.9131 15.9697 14.967 16.5518Z" fill="#565756"/>
<path d="M8.35755 18.2635C8.13657 18.1072 7.91019 18.2473 7.68382 18.2527C7.38199 18.2581 7.08015 18.3066 6.77832 18.339C6.83222 18.2527 6.85378 18.1503 6.84839 18.0533C6.90229 17.9671 6.92924 17.8701 6.92385 17.7676C7.28497 17.6006 7.68382 17.6706 8.05572 17.5844C8.34138 17.5143 8.63243 17.6167 8.90193 17.4981C9.04745 17.4335 9.1822 17.4712 9.31156 17.5413C9.33312 17.5682 9.34928 17.5952 9.36006 17.6275C9.38701 17.7461 9.38701 17.8647 9.37084 17.9832C9.04206 18.1126 8.7025 18.2042 8.35755 18.2635Z" fill="#343434"/>
<path d="M9.3722 17.9827C9.24824 17.8803 9.31292 17.7456 9.29675 17.6216C9.33987 17.5785 9.31831 17.4977 9.37759 17.4707C9.72794 17.3252 10.0891 17.2174 10.461 17.1581C10.5202 17.1473 10.6119 17.1527 10.5903 17.2659L9.72254 17.8318L9.3722 17.9827Z" fill="#292929"/>
<path d="M9.65137 9.09048C9.98554 8.918 10.0179 8.54071 10.1688 8.25505C10.3197 7.96939 10.2766 7.59209 10.5946 7.38189C10.4652 7.18247 10.6808 7.09084 10.724 6.94531L11.2252 7.44657L11.4408 7.73223C11.4031 7.77535 11.3114 7.79152 11.3114 7.84542C11.3114 8.20115 10.9611 8.41674 10.9611 8.77248C10.9611 8.93956 10.7563 8.99885 10.7132 9.17671C10.6539 9.41926 10.6593 9.58634 10.8964 9.71031C11.042 9.79116 11.1821 9.88279 11.3114 9.9798C11.3546 10.0121 11.3869 10.0445 11.4192 10.0876C11.5216 10.2439 11.6133 10.411 11.4516 10.5727C11.2791 10.7398 11.3384 11.2464 11.5702 11.338C12.093 11.5321 12.6266 11.6992 13.1709 11.8339C13.3919 11.8878 13.6075 11.9525 13.8231 12.028C13.8986 12.0549 14.0333 12.0818 13.9255 12.2166C13.7207 12.3082 13.4943 12.2489 13.2841 12.319C13.1602 12.3406 13.0416 12.3783 12.9176 12.3729C12.314 12.2867 11.7049 12.3028 11.0959 12.2382C10.9018 12.2166 10.6754 12.195 10.7293 11.9202C10.7994 11.5752 10.7078 11.3273 10.4059 11.2141C10.0125 11.0686 9.98015 11.0093 10.0772 10.605C10.1257 10.3948 10.1472 10.1738 10.2389 9.98519C10.3844 9.68336 10.2712 9.51628 10.0017 9.3977C9.90469 9.35458 9.86157 9.24678 9.76455 9.20366C9.71605 9.18749 9.66754 9.14438 9.65137 9.09048Z" fill="#3F403F"/>
<path d="M11.3767 10.099L11.3066 10.0289C11.3767 9.80254 11.3444 9.52766 11.5061 9.35518C11.6139 9.25278 11.6785 9.11264 11.6893 8.96711C11.7163 8.67606 11.9319 8.5521 12.169 8.45508L12.8158 9.0264C12.9398 9.04796 12.9829 9.15037 13.0314 9.242L13.1069 9.38213C12.8374 9.49532 12.4816 10.1313 12.4816 10.5032C12.4816 10.5841 12.4655 10.6649 12.4601 10.7458C12.0127 10.6541 11.6839 10.39 11.3767 10.099Z" fill="#4F5150"/>
<path d="M15.2452 8.60156C15.2236 9.01658 14.9703 9.35075 14.814 9.71726C14.6846 10.0137 14.6146 10.3479 14.3828 10.6012C14.4583 10.1161 14.7332 9.70649 14.9218 9.26452C15.0188 9.03814 15.0673 8.78482 15.2452 8.60156Z" fill="#626362"/>
<path d="M13.0259 9.23614C12.9289 9.19302 12.8534 9.11756 12.8103 9.02054C12.7295 8.77261 12.6055 8.50851 13.0259 8.44922C13.096 8.49773 13.1661 8.60014 13.1175 8.64325C12.9289 8.82651 13.0259 9.03671 13.0259 9.23614Z" fill="#5A5B5A"/>
<path d="M7.78717 14.4688C8.0351 14.9323 8.45551 14.6951 8.79507 14.6897C8.95676 14.6897 9.12385 14.6358 9.29094 14.6843C9.4688 14.9269 9.37178 15.2072 9.38795 15.4713C9.38795 15.5252 9.37717 15.5845 9.361 15.6384C9.30172 15.8108 9.19931 15.8486 9.00527 15.8863C8.48246 15.9833 7.94886 15.9995 7.42604 16.118C7.39909 16.1234 7.37215 16.0749 7.35059 16.048C7.46377 15.7192 7.62008 15.4012 7.63625 15.0455C7.59313 14.9323 7.70093 14.8568 7.70632 14.7598C7.80333 14.6736 7.72788 14.555 7.78717 14.4688Z" fill="#505150"/>
<path d="M7.71131 14.7559C7.80294 14.8798 7.67897 14.9499 7.64124 15.0415C7.31785 15.214 6.95134 15.2356 6.601 15.2679C6.50398 15.2787 6.40696 15.214 6.28839 15.2679C6.13208 15.3434 5.99733 15.2787 5.92188 15.1116C6.05662 15.0523 6.15903 14.9607 6.34228 14.9715C6.73574 14.993 7.13998 14.9499 7.53883 14.9122C7.59812 14.9122 7.65202 14.8151 7.71131 14.7559Z" fill="#5A5B5A"/>
<path d="M8.21839 12.8203V12.8904L6.21875 13.1114C6.87092 12.9173 7.54466 12.8634 8.21839 12.8203Z" fill="#626362"/>
<path d="M14.9662 16.5516C14.7829 16.0719 14.4542 15.6946 14.1038 15.3335C14.0715 15.1503 14.2332 15.1341 14.3356 15.0802C14.535 14.9778 14.7506 14.9131 14.9069 14.7406C15.0147 14.6167 15.1063 14.455 15.3111 14.6059C15.6615 14.8484 15.9957 15.1018 16.0549 15.5815C16.0657 15.7216 16.1573 15.8456 16.2867 15.9049C16.443 15.9695 16.4754 16.0773 16.3298 16.1959C16.125 16.3091 15.8771 16.2714 15.683 16.4115C15.5914 16.5085 15.4459 16.5355 15.3219 16.487L14.9662 16.5516Z" fill="#505150"/>
<path d="M15.3223 16.4804C15.4301 16.4158 15.5594 16.3942 15.6834 16.405C15.6888 16.626 15.9313 16.7068 15.9852 16.8416C16.1469 17.2728 16.5565 17.5423 16.6913 17.9842C16.5943 18.1836 16.4757 18.0651 16.4326 17.9681C16.2224 17.5045 15.7588 17.2135 15.5918 16.723C15.5486 16.6098 15.3546 16.6206 15.3223 16.4804Z" fill="#5B5C5B"/>
<path d="M12.1627 8.45028C11.9956 8.66588 11.6722 8.77907 11.7585 9.15097C11.7693 9.20486 11.7423 9.38812 11.5752 9.37195C11.5267 9.36656 11.5159 9.39351 11.5105 9.42585C11.4836 9.64144 11.4674 9.85704 11.3003 10.0241C11.0578 9.97561 10.8907 9.78697 10.6859 9.66839C10.5026 9.5606 10.5835 8.96232 10.7937 8.88147C10.9069 8.83835 10.8961 8.78985 10.8907 8.72517C10.8638 8.35327 11.2788 8.12689 11.2195 7.72804C11.2087 7.65797 11.365 7.7496 11.4405 7.72804L11.7962 8.0137L12.1627 8.45028Z" fill="#4A4A4A"/>
<path d="M7.35549 16.0499C7.54952 16.0122 7.722 15.899 7.94298 15.9422C8.08851 15.9691 8.2502 15.9314 8.40112 15.899C8.65444 15.8397 8.8916 15.7319 9.16109 15.8397C9.18265 15.8451 9.24733 15.7427 9.29584 15.6888C9.49526 15.6727 9.46292 15.8074 9.43597 15.9206C9.37668 16.1739 9.3713 16.4326 9.35513 16.686C9.34435 16.7183 9.33357 16.7452 9.30662 16.7722C8.7299 16.8584 8.13702 16.8476 7.5603 16.977C7.41478 17.0093 7.31776 16.9069 7.20996 16.8369C7.23152 16.7183 7.25847 16.5997 7.28003 16.4757C7.30698 16.3356 7.38244 16.2009 7.35549 16.0499Z" fill="#4A4A4A"/>
<path d="M16.3298 16.1908C16.3406 16.1693 16.3568 16.1315 16.3568 16.1261C15.8717 15.7381 15.9633 14.908 15.2573 14.687C15.2195 14.52 15.3597 14.4984 15.4621 14.4499C15.6777 14.3421 15.8933 14.2505 16.1143 14.1642C16.1466 14.1588 16.1789 14.1642 16.2113 14.175C16.2975 14.2936 16.3406 14.4229 16.5131 14.4876C16.7395 14.5685 16.7826 14.8487 16.8688 15.032C16.982 15.2853 17.1491 15.5063 17.3539 15.6896C17.424 15.7435 17.4455 15.8351 17.4078 15.9105C17.2138 16.0507 16.9497 15.9644 16.761 16.1261C16.6047 16.0776 16.4646 16.1315 16.3298 16.1908Z" fill="#4A4A4A"/>
<path d="M7.21094 16.8365C7.72297 16.885 8.24579 16.8365 8.74166 16.6855C8.89257 16.9335 9.13512 16.5616 9.29681 16.7664C9.50163 16.885 9.33993 17.0682 9.38305 17.2191C9.37227 17.3323 9.34532 17.4455 9.29681 17.5533C8.9842 17.5964 8.65003 17.715 8.35898 17.6503C8.20267 17.618 8.01942 17.8929 7.91701 17.618C7.71758 17.936 7.31334 17.5425 7.10853 17.8551C7.04924 17.8336 6.98456 17.8066 6.93066 17.7743L7.14626 17.0574L7.21094 16.8365Z" fill="#3F403F"/>
<path d="M17.4021 15.9026C17.3752 15.687 17.1434 15.6655 17.0356 15.5038C16.8631 15.2451 16.723 14.9648 16.6044 14.6791C16.5721 14.5983 16.5182 14.4959 16.4373 14.5121C16.087 14.5929 16.2109 14.3342 16.184 14.1833C16.2109 13.9461 16.4481 13.9569 16.5882 13.8545C16.6691 13.8221 16.7445 13.7898 16.8308 13.8275C16.9224 14.0593 17.2296 14.1186 17.2728 14.3881C17.5584 14.3342 17.4291 14.7762 17.6986 14.7438C17.6393 15.0133 18.0219 15.0942 17.9627 15.3852C17.9465 15.4714 18.3238 15.4229 18.1944 15.6924C18.0327 15.838 17.7848 15.7625 17.6231 15.908L17.4021 15.9026Z" fill="#3F403F"/>
<path d="M11.3764 10.0996L12.4544 10.7464C13.0311 11.0967 13.6132 11.4471 14.1899 11.7974C14.5025 11.9861 14.8852 12.0615 15.1116 12.3903C15.0738 12.4334 15.0145 12.4496 14.9606 12.4442C14.7073 12.4011 14.4702 12.3148 14.2168 12.2771C14.1252 12.2663 14.0282 12.2556 13.9635 12.1693L11.9693 11.5657C11.8938 11.5441 11.813 11.5225 11.7321 11.4956C11.5812 11.4471 11.4303 11.3932 11.2794 11.3393C11.4087 11.1129 11.2093 10.9081 11.247 10.6925C11.2578 10.644 11.177 10.4176 11.4357 10.4985C11.5057 10.52 11.3872 10.2397 11.3764 10.0996Z" fill="#4A4A4A"/>
<path d="M14.2445 12.1797C14.487 12.2444 14.7403 12.2605 14.9667 12.3899C15.1446 12.5839 15.3494 12.6809 15.6027 12.5462C15.7159 12.5893 15.8345 12.627 15.8991 12.7456C15.8399 12.9127 16.0016 12.9558 16.0824 13.0367C16.3249 13.2846 16.5783 13.5164 16.8316 13.7535V13.8236L16.616 13.8991C16.3088 13.8883 16.1956 13.5811 15.9638 13.4571C15.8614 13.4032 15.7913 13.3008 15.7051 13.2145C15.3871 12.9019 15.3602 12.9019 15.0206 13.2253C14.9829 13.2631 14.9397 13.2846 14.8859 13.29C14.6649 13.2523 14.4978 13.1014 14.3361 12.972C14.1043 12.7834 13.9588 12.848 13.8294 13.0798C13.7809 13.1714 13.7163 13.2631 13.6731 13.3601C13.5653 13.5487 13.4683 13.7481 13.2905 13.8883C12.994 14.023 12.9132 13.9799 12.897 13.6727C12.8916 13.5811 12.9186 13.484 12.8916 13.3924C12.9078 13.0313 12.9832 12.6863 13.1827 12.3791C13.3012 12.3629 13.2958 12.4761 13.3443 12.5354C13.506 12.7348 13.7432 12.7456 13.9211 12.557C14.0343 12.4384 14.1097 12.2821 14.2445 12.1797Z" fill="#2C2D2C"/>
<path d="M15.6028 12.5469C15.522 12.6655 15.3818 12.7949 15.2686 12.6978C15.1662 12.6116 14.8752 12.6655 14.9668 12.3906H15.107L15.6028 12.5469Z" fill="#212121"/>
<path d="M9.2959 15.5494C9.2959 15.2638 9.2959 14.9727 9.2959 14.6871C9.2959 13.469 9.2959 12.2508 9.30129 11.0273C9.46837 11.0327 9.45759 11.1837 9.49532 11.2861C9.60312 11.5879 9.6678 11.9059 9.78638 12.2077C9.82949 12.3047 9.86183 12.4071 9.88878 12.5042C10.1044 13.3073 10.3254 14.1103 10.5086 14.9242C10.5463 15.0482 10.5625 15.1829 10.5571 15.3123C10.5463 15.4416 10.4439 15.6033 10.3523 15.544C10.1313 15.3985 10.0289 15.6788 9.85644 15.6303C9.67319 15.5764 9.48454 15.5494 9.2959 15.5494Z" fill="#4A4A4A"/>
<path d="M9.71631 12.2554C9.50071 11.8727 9.48993 11.4146 9.2959 11.0265C9.2959 10.5738 9.2959 10.121 9.2959 9.66288C9.37675 9.45806 9.28512 9.21013 9.43603 9.02148L9.65163 9.09155L9.79177 9.16701C9.84027 9.61976 9.61929 10.024 9.54383 10.4552C9.51688 10.6277 9.47376 10.7894 9.70553 10.8486C10.0505 10.978 10.0397 11.2744 10.0343 11.5655C10.0289 11.7703 10.0235 11.9697 9.92112 12.153C9.878 12.2177 9.79716 12.2608 9.71631 12.2554Z" fill="#282828"/>
<path d="M9.43603 9.021C9.43603 9.24198 9.38753 9.46296 9.2959 9.66239L9.30129 8.88086L9.43603 9.021Z" fill="#202020"/>
<path d="M14.9649 14.7561C14.8625 15.0256 14.5769 15.0202 14.3828 15.1496C14.2912 15.2089 14.1511 15.1981 14.1026 15.3328C13.5312 15.6832 12.8845 15.8772 12.3401 16.2922C12.0598 16.5024 11.7418 16.7019 11.3699 16.7665C11.3537 16.7396 11.3483 16.7019 11.3591 16.6695C11.5208 16.4162 11.7849 16.2545 11.9466 16.0066C12.0167 15.8934 12.0975 15.791 12.1946 15.6994C12.7174 15.1765 13.2833 14.7022 13.8061 14.1848C14.1834 13.8129 14.6092 13.9045 14.7871 14.4004C14.8356 14.5244 15.0404 14.5729 14.9649 14.7561Z" fill="#4A4A4A"/>
<path d="M9.29579 17.5537C9.22572 17.4567 9.29579 17.3651 9.29579 17.268C9.44671 17.0902 9.66769 17.074 9.8725 17.0039C10.2013 16.8961 10.5462 16.8476 10.8535 16.6752C10.902 16.6644 10.9559 16.6805 10.9882 16.7183C11.0529 16.7883 11.096 16.8854 11.096 16.9824C10.9774 17.1549 10.7834 17.2141 10.5947 17.2734C10.1258 17.2573 9.70003 17.4028 9.30118 17.6292L9.29579 17.5537Z" fill="#2E2F2E"/>
<path d="M11.0908 16.9821L10.9453 16.7665C11.1717 16.5239 11.2579 16.5131 11.3765 16.6964C11.3765 16.718 11.3711 16.7449 11.3711 16.7665L11.0908 16.9821Z" fill="#222222"/>
<path d="M12.881 12.3088C12.2719 12.5136 11.6467 12.6807 11.0161 12.8154C11.0431 12.492 10.8921 12.3304 10.5741 12.298C10.4448 12.2818 10.3154 12.2711 10.1807 12.2711C10.0675 12.2657 9.9543 12.2711 9.86806 12.174C9.89501 11.9423 9.93813 11.7159 9.94891 11.4841C9.95969 11.2147 9.90579 11.0098 9.65247 10.8859C9.62552 10.8481 9.58779 10.805 9.59857 10.7565C9.69558 10.2606 9.7387 9.754 10.0136 9.30664C10.089 9.34437 10.1753 9.37132 10.2292 9.42522C10.3478 9.53841 10.5041 9.5923 10.3585 9.85641C10.2292 10.0936 10.213 10.4116 10.1268 10.6918C10.0513 10.9452 10.1699 11.0691 10.4232 11.1284C10.5795 11.1661 10.8975 11.2147 10.8275 11.3817C10.7304 11.6189 10.946 11.6944 10.9353 11.8507C10.9083 12.1417 10.9029 12.0986 11.2425 12.1471C11.7869 12.2441 12.342 12.1579 12.881 12.3088Z" fill="#333333"/>
<path d="M13.2426 12.3909L13.2372 12.2508C13.469 12.1214 13.7223 12.2023 13.9595 12.1699L14.2397 12.1807C14.1966 12.3747 14.078 12.5257 13.9379 12.6496C13.8571 12.7251 13.8085 12.9137 13.6415 12.8167C13.4744 12.7197 13.151 12.7412 13.2426 12.3909Z" fill="#1F2020"/>
<path d="M10.0121 9.30665L9.65096 10.8805C9.44075 10.8859 9.34913 10.8266 9.42458 10.584C9.56472 10.1151 9.67252 9.63543 9.79648 9.16112C9.92584 9.12339 9.89889 9.31743 10.0121 9.30665Z" fill="#2E2F2E"/>
<path d="M10.2397 13.0467C10.3367 13.1599 10.4337 13.2731 10.5253 13.3917C10.7571 13.8498 11.0212 14.2918 11.2745 14.7391C11.3176 14.8092 11.35 14.8901 11.3661 14.9763C11.35 15.0679 11.3931 15.1326 11.2152 15.1757C10.8595 15.262 10.7355 15.6015 10.7786 15.9195C10.8002 16.0489 10.8002 16.1782 10.714 16.2914C10.4067 16.5286 10.0887 16.728 9.67372 16.6472C9.54436 16.6202 9.43117 16.7442 9.29643 16.6957C9.25331 16.4208 9.28026 16.1405 9.37189 15.8764C9.415 15.7632 9.37728 15.7309 9.29643 15.6878C9.29643 15.6392 9.29643 15.5907 9.29643 15.5476C9.42039 15.4398 9.58748 15.4075 9.71145 15.4829C10.0133 15.6608 10.1211 15.5153 10.1642 15.2512C10.3582 15.2512 10.175 15.5638 10.369 15.4937C10.563 15.4237 10.4876 15.2404 10.4499 15.0895C10.2343 14.2379 10.0241 13.3809 9.80847 12.5293C10.078 12.5886 10.1211 12.8473 10.2397 13.0467Z" fill="#3F403F"/>
<path d="M12.3798 15.1885C12.563 15.1022 12.4606 14.8705 12.5954 14.7573C12.8433 14.4716 12.9619 14.0943 13.2422 13.8248C13.4146 13.6955 13.5063 13.5068 13.5979 13.3236C13.7111 13.2266 13.8296 13.1942 13.9374 13.3343C14.1584 13.6146 14.3902 13.5985 14.6327 13.3613C14.7082 13.2912 14.8052 13.2912 14.8915 13.2535L14.9615 13.1834C15.0585 13.1241 15.1825 13.0217 15.2526 13.1888C15.3658 13.4529 15.6191 13.5338 15.8185 13.6901C15.9694 13.814 16.1958 13.9165 16.1096 14.1859C15.9263 14.3584 15.6838 14.4231 15.4628 14.5309C15.3765 14.574 15.2849 14.5902 15.2472 14.6872C15.0963 14.4932 15.0585 14.7519 14.9615 14.7573C14.8861 14.574 14.5842 14.5093 14.7028 14.2237C14.7244 14.1698 14.6435 14.132 14.5788 14.1752C14.5249 14.2129 14.4657 14.2452 14.4225 14.1806C14.18 13.8194 14.0237 14.0889 13.8512 14.256C13.3122 14.7573 12.7732 15.2639 12.2343 15.7652C12.1426 15.5334 12.3367 15.3825 12.3798 15.1885Z" fill="#3F403F"/>
<path d="M9.29496 16.6929C9.47821 16.6121 9.62913 16.4504 9.87706 16.6228C9.96869 16.6875 10.1681 16.4126 10.3729 16.4611C10.3945 16.2941 10.5831 16.3587 10.6532 16.2617C10.7017 16.3156 10.7772 16.3048 10.8311 16.3426C10.8742 16.3911 10.9065 16.445 10.9173 16.5097C10.9335 16.5743 10.9119 16.6444 10.8634 16.6929C10.7233 16.9786 10.4107 16.9031 10.1897 17.0055C9.9094 17.1349 9.58601 17.1834 9.28418 17.2696C9.28418 17.1025 9.28418 16.9355 9.28418 16.7684C9.29496 16.7414 9.29496 16.7199 9.29496 16.6929Z" fill="#343434"/>
<path d="M16.1143 14.1852C16.055 13.8187 15.6724 13.7594 15.4675 13.533C15.3705 13.4306 15.1981 13.436 15.2034 13.2096C15.2088 13.0695 15.0471 13.2042 14.9717 13.1773C15.3382 12.7461 15.3597 12.7515 15.7532 13.1288C16.0335 13.3929 16.3353 13.6408 16.621 13.8941L16.1898 14.1798L16.1143 14.1852Z" fill="#343434"/>
<path d="M14.8907 13.2518C14.7883 13.3381 14.6913 13.4189 14.5943 13.5052C14.3463 13.7208 14.1038 13.683 13.9259 13.4351C13.8235 13.295 13.7373 13.2842 13.6025 13.3219C13.969 12.6374 13.969 12.6374 14.5997 13.0578C14.6967 13.1225 14.7937 13.1872 14.8907 13.2518Z" fill="#343434"/>
<path d="M13.2415 13.8221C13.0636 14.1454 12.8966 14.4742 12.7133 14.7976C12.654 14.9 12.6109 14.8461 12.5947 14.7545C12.6648 14.3125 12.7995 13.8867 12.9397 13.4609C13.0529 13.531 12.9612 13.6388 12.9666 13.7197C12.9828 13.9945 13.0906 13.9406 13.2415 13.8221Z" fill="#363636"/>
<path d="M10.2401 13.0476C9.99219 12.9613 10.0084 12.6541 9.79815 12.5301C9.7712 12.4385 9.74425 12.3469 9.71191 12.2553C9.74425 12.2014 9.80354 12.169 9.86283 12.1744H10.2186C10.6767 12.3684 10.7683 12.6218 10.5096 12.9506L10.2401 13.0476Z" fill="#202020"/>
<path d="M12.3779 15.1863C12.5343 15.4288 12.2109 15.5528 12.2324 15.7576L12.0168 16.0433C11.8767 16.1349 11.8282 16.0163 11.7635 15.9355C11.7204 15.86 11.688 15.7792 11.6719 15.6929C11.6988 15.1863 11.7689 15.0839 12.157 14.9707L12.3779 15.1863Z" fill="#212121"/>
<path d="M11.8094 15.9043C11.8848 15.9474 11.9118 16.0606 12.0196 16.0444C11.8363 16.287 11.6207 16.508 11.3782 16.6912C11.1949 16.4972 11.0871 16.7128 10.947 16.7613L10.8769 16.6858C10.8769 16.6158 10.8769 16.5403 10.8769 16.4702C10.8392 16.3409 10.947 16.3085 11.0224 16.2708C11.2812 16.1522 11.5237 15.9851 11.8094 15.9043Z" fill="#292929"/>
<path d="M10.5147 12.9566C10.7087 12.5901 10.4608 12.3853 10.2236 12.1805C10.4446 12.1428 10.644 12.2398 10.8596 12.2613C11.0752 12.2829 11.1399 12.5901 11.0159 12.8219C10.8596 12.8974 10.6926 12.9459 10.5147 12.9566Z" fill="#292929"/>
<path d="M12.158 14.9716C11.8939 15.1387 11.716 15.3543 11.7322 15.6885C11.7052 15.71 11.6621 15.71 11.6352 15.6885C11.5004 15.516 11.3926 15.3274 11.3818 15.101C11.522 14.6644 11.6082 14.6105 11.9424 14.756C12.034 14.8045 12.1095 14.88 12.158 14.9716Z" fill="#2A2A2A"/>
<path d="M11.9424 14.7581C11.619 14.6611 11.5166 14.8659 11.4465 15.1138C11.3064 15.157 11.3657 15.0006 11.3064 14.9683C11.2848 14.8982 11.2579 14.8282 11.2309 14.7527C11.1824 14.6826 11.1447 14.6126 11.1123 14.5371C11.0638 14.4239 11.0207 14.3107 11.1177 14.2083C11.2147 14.1059 11.3118 14.2407 11.4088 14.2407L11.9424 14.7581Z" fill="#303130"/>
<path d="M11.4041 14.2422C11.1023 14.1829 11.0592 14.3123 11.167 14.5602C11.1939 14.6249 11.2101 14.695 11.2316 14.7597C10.9029 14.3716 10.7358 13.8919 10.4663 13.4661C10.4609 13.4553 10.504 13.4176 10.5256 13.3906C10.8597 13.6278 11.1346 13.9404 11.4041 14.2422Z" fill="#343434"/>
<path d="M11.3068 14.9707L11.4469 15.1162L11.6625 15.6876C11.6032 15.8546 11.4415 15.8924 11.3068 15.957C11.1127 16.0379 10.9349 16.1673 10.8001 16.3343C10.7247 16.3721 10.6546 16.3882 10.6546 16.2643C10.6869 16.1888 10.757 16.108 10.7085 16.0325C10.5198 15.7415 10.8756 15.4989 10.7732 15.2132C10.7516 15.1593 10.8432 15.1701 10.9025 15.1809C11.0804 15.2025 11.2583 15.2025 11.3068 14.9707Z" fill="#343434"/>
<path d="M10.7992 16.3343C10.7776 16.1726 10.8639 16.081 11.004 16.0109C11.225 15.9085 11.4406 15.7953 11.6562 15.6875H11.7262L11.8017 15.9031C11.5592 16.2049 11.1387 16.2211 10.8693 16.4744C10.8207 16.4475 10.7938 16.3936 10.7992 16.3343Z" fill="#2E2F2E"/>
</svg>
