<svg width="24" height="24" viewBox="0 0 24 24" fill="none" xmlns="http://www.w3.org/2000/svg">
<path d="M14.7917 10.9965L16.5542 8.00583L21.305 15.4053L21.3072 16.8252L21.2917 7.05367C21.2805 6.81482 21.1536 6.59629 20.9513 6.46744L12.3982 1.54758C12.1981 1.44927 11.9444 1.45031 11.7447 1.55063C11.7177 1.56419 11.6923 1.57886 11.6681 1.59487L11.6383 1.61364L3.33618 6.42469L3.30393 6.43929C3.26252 6.45835 3.22066 6.48256 3.18134 6.51071C3.02396 6.62363 2.91939 6.79054 2.88558 6.97778C2.88051 7.00616 2.87679 7.03505 2.875 7.06418L2.88803 15.0271L7.31312 8.16842C7.87024 7.25894 9.08411 6.96601 10.2109 6.98195L11.5335 7.01688L3.74106 19.5137L4.65962 20.0426L12.5454 7.02954L16.031 7.01688L8.16548 20.3583L11.4432 22.2435L11.8348 22.4688C12.0005 22.5361 12.1957 22.5394 12.3628 22.4792L21.0361 17.4529L19.3779 18.4138L14.7917 10.9965ZM15.4642 20.6818L12.1536 15.4859L14.1745 12.0567L18.5222 18.9096L15.4642 20.6818Z" fill="#2D374B"/>
<path d="M12.1533 15.4859L15.4639 20.6817L18.522 18.9095L14.1743 12.0566L12.1533 15.4859Z" fill="#28A0F0"/>
<path d="M21.3075 16.8253L21.3053 15.4053L16.5546 8.00586L14.792 10.9965L19.3782 18.4138L21.0364 17.4529C21.1991 17.3209 21.2975 17.127 21.3078 16.9178L21.3075 16.8253Z" fill="#28A0F0"/>
<path d="M1.39949 18.1635L3.74115 19.5128L11.5336 7.01601L10.211 6.98108C9.0842 6.96514 7.8704 7.25807 7.31321 8.16755L2.88812 15.0262L1.39941 17.3136V18.1635H1.39949Z" fill="white"/>
<path d="M16.0314 7.01758L12.546 7.03024L4.66016 20.0433L7.41644 21.6303L8.16601 20.359L16.0314 7.01758Z" fill="white"/>
<path d="M22.7761 6.99901C22.747 6.27007 22.3523 5.60273 21.7341 5.21424L13.0689 0.231149C12.4573 -0.0768261 11.6933 -0.0771987 11.0808 0.230926C11.0084 0.267421 2.65403 5.11265 2.65403 5.11265C2.53844 5.16807 2.42709 5.23413 2.3223 5.30906C1.7704 5.70462 1.43397 6.31923 1.39941 6.99454V17.3146L2.88812 15.0272L2.87509 7.06433C2.87688 7.03521 2.88053 7.00661 2.88567 6.97831C2.91926 6.79091 3.0239 6.62378 3.18143 6.51087C3.22075 6.48272 11.7177 1.56434 11.7448 1.55079C11.9445 1.45046 12.1983 1.44942 12.3983 1.54773L20.9513 6.4676C21.1537 6.59645 21.2806 6.81497 21.2918 7.05383V16.9179C21.2814 17.1271 21.1988 17.3209 21.0361 17.453L19.3779 18.4139L18.5223 18.9097L15.4642 20.682L12.3628 22.4793C12.1958 22.5397 12.0005 22.5363 11.8348 22.4689L8.16549 20.3584L7.41592 21.6297L10.7135 23.5282C10.8225 23.5902 10.9197 23.6452 10.9994 23.69C11.1229 23.7593 11.207 23.8055 11.2367 23.8199C11.4711 23.9337 11.8082 24 12.1121 24C12.3907 24 12.6624 23.9488 12.9195 23.8481L21.9275 18.6313C22.4445 18.2308 22.7487 17.6267 22.7761 16.9722V6.99901Z" fill="#96BEDC"/>
</svg>
