<svg width="24" height="24" viewBox="0 0 24 24" fill="none" xmlns="http://www.w3.org/2000/svg">
<circle cx="12" cy="12" r="12" fill="black"/>
<path d="M9.01501 7.61328L8.24902 9.93869H12.6805L11.9143 7.61328H9.01501Z" fill="#FFFFFE"/>
<path d="M7.15137 13.2707L9.11906 14.7194L10.4859 10.5293H8.04579L7.15137 13.2707Z" fill="#FFFFFE"/>
<path d="M12.5488 7.61328L13.9139 11.7815L15.9273 10.33L15.0377 7.61328H12.5488Z" fill="#FFFFFE"/>
<path d="M13.9746 15.3426L10.9042 13.106L10.4014 12.7461L9.63086 15.0835L11.9634 16.7827L13.9746 15.3426Z" fill="#FFFFFE"/>
<path d="M14.4821 14.9843L16.8925 13.249L16.1308 10.9258L12.5049 13.5361L14.4821 14.9843Z" fill="#FFFFFE"/>
<path d="M8.38063 7.61328H5.85105L3.62012 14.4115L5.66673 15.8838L8.38063 7.61328Z" fill="#FFFFFE"/>
<path d="M6.96207 13.8652L6.18652 16.2382L11.9825 20.4246L13.9525 19.0019L6.96207 13.8652Z" fill="#FFFFFE"/>
<path d="M14.8298 6.99774L14.0605 4.65039H6.824L6.05469 6.99774H14.8298Z" fill="#FFFFFE"/>
<path d="M17.3996 12.8771L19.3929 11.4441L17.162 4.65039H14.6982L17.3996 12.8771Z" fill="#FFFFFE"/>
<path d="M20.3586 14.398L19.5841 12.043L12.4609 17.1564L14.4713 18.6243L20.3586 14.398Z" fill="#FFFFFE"/>
</svg>
