<svg width="24" height="24" viewBox="0 0 24 24" fill="none" xmlns="http://www.w3.org/2000/svg">
<g clip-path="url(#clip0_2073_2050)">
<path d="M16.144 16.9776L13.9707 13.2248H18.1865L21.4545 18.895C22.8761 16.9285 23.7258 14.5194 23.7258 11.8974C23.7258 5.32597 18.4152 0 11.8629 0C5.31054 0 0 5.32597 0 11.8974C0 14.5194 0.849681 16.9285 2.27127 18.895L11.8629 2.22872L17.5819 12.176H13.3825L11.8139 9.45567L9.64062 13.2248H12.7779L14.9348 16.9776H7.48375L4.86934 21.517C6.83014 22.9591 9.24846 23.7949 11.8629 23.7949C14.4446 23.7949 16.8302 22.9591 18.7747 21.5661L16.144 16.9776Z" fill="#739473"/>
</g>
<defs>
<clipPath id="clip0_2073_2050">
<rect width="24" height="24" fill="white"/>
</clipPath>
</defs>
</svg>
