<svg width="24" height="24" viewBox="0 0 24 24" fill="none" xmlns="http://www.w3.org/2000/svg">
<path d="M12.3125 0.03125V4.45123L5.93117 8.13585L2.13672 5.90677L12.3125 0.03125Z" fill="#D50161"/>
<path d="M5.82741 8.3177V15.6796L2.00732 17.9573C2.00262 17.9406 2 17.9239 2 17.9061V6.09542C2 6.08705 2.00052 6.07868 2.00157 6.07031L5.82741 8.3177Z" fill="#F80858"/>
<path d="M12.3127 19.55V23.97L2.16211 18.1091L5.92728 15.8633L12.3127 19.55Z" fill="#FB2078"/>
<path d="M22.7642 18.0516C22.7568 18.0579 22.7485 18.0636 22.7401 18.0683L12.5215 23.9684V19.5485L18.8677 15.8848L22.7642 18.0516Z" fill="#E8126C"/>
<path d="M22.7898 5.9732L18.8672 8.11493L12.5215 4.45123V0.03125L22.7401 5.93135C22.7595 5.94234 22.7762 5.95646 22.7898 5.9732Z" fill="#FF77AB"/>
<path d="M22.8349 6.1875V17.8528L19.0049 15.7236C19.0065 15.7147 19.007 15.7058 19.007 15.6964V8.30518C19.007 8.29576 19.0065 8.28687 19.0049 8.27798L22.8349 6.1875Z" fill="url(#paint0_linear_2352_14404)"/>
<path d="M22.8356 6.18672L19.0056 8.2772C19.0072 8.28609 19.0077 8.29498 19.0077 8.30439V15.6956C19.0077 15.705 19.0072 15.7139 19.0056 15.7228L22.8356 17.852V17.9053C22.8356 17.9629 22.8095 18.0173 22.765 18.0523L18.8686 15.8855L12.5224 19.5492V23.9691L12.5124 23.9749C12.4538 24.0084 12.3817 24.0084 12.3231 23.9749L12.3131 23.9691V19.5492L5.92769 15.8624L2.16252 18.1083L2.09453 18.069C2.05164 18.0445 2.02078 18.0037 2.00771 17.9571L5.82779 15.6789V8.31695L2.00195 6.06956C2.0098 6.01151 2.04327 5.96025 2.09453 5.93096L2.13741 5.90638L5.93187 8.13546L12.3131 4.45084V0.0308577L12.3231 0.0251046C12.3817 -0.0083682 12.4538 -0.0083682 12.5124 0.0251046L12.5224 0.0308577V4.45084L18.8681 8.11454L22.7907 5.9728C22.8194 6.00628 22.8356 6.04916 22.8356 6.09467V6.18672Z" fill="#FB0249"/>
<path d="M19.0071 8.30473V15.6959C19.0071 15.7054 19.0065 15.7142 19.005 15.7231C18.9971 15.7796 18.9637 15.8304 18.9129 15.8596L18.8679 15.8858L12.5217 19.5495L12.5118 19.5553C12.4532 19.5892 12.381 19.5892 12.3224 19.5553L12.3125 19.5495L5.92704 15.8628L5.92181 15.8596C5.86324 15.8256 5.82715 15.7634 5.82715 15.6959V8.30473C5.82715 8.23726 5.86324 8.1745 5.92181 8.14103L5.93123 8.1358L12.3125 4.45117L12.3224 4.44542C12.381 4.41142 12.4532 4.41142 12.5118 4.44542L12.5217 4.45117L18.8674 8.11488L18.9129 8.14103C18.9637 8.16979 18.9971 8.22052 19.005 8.27753C19.0065 8.28642 19.0071 8.29531 19.0071 8.30473Z" fill="#FE38D3"/>
<path d="M18.7925 8.42687V15.5717C18.7925 15.5822 18.7915 15.5921 18.7899 15.6021C18.781 15.657 18.7481 15.7056 18.6989 15.7344L18.6508 15.7621L12.5211 19.3013L12.5111 19.3071C12.4531 19.3411 12.3814 19.3411 12.3234 19.3071L12.3134 19.3013L6.13875 15.736L6.13613 15.7344C6.07808 15.7004 6.04199 15.6387 6.04199 15.5717V8.42687C6.04199 8.35992 6.07756 8.29768 6.13613 8.26421L6.14398 8.2595L12.3134 4.69727L12.3234 4.69151C12.3814 4.65752 12.4531 4.65752 12.5111 4.69151L12.5211 4.69727L18.6492 8.23545L18.6989 8.26421C18.747 8.29245 18.7805 8.34057 18.7894 8.39496C18.7915 8.40542 18.7925 8.41588 18.7925 8.42687Z" fill="url(#paint1_linear_2352_14404)"/>
<path d="M6.0961 8.23156L6.08825 8.23627C6.02967 8.26974 5.99358 8.33251 5.99358 8.39997V8.4141L5.82779 8.31681L2.00195 6.06943C2.0098 6.01138 2.04327 5.96012 2.09453 5.93083L2.13741 5.90625L5.93187 8.13533L6.0961 8.23156Z" fill="#FE38D4"/>
<path d="M6.08999 15.7652L5.92681 15.8625L2.16165 18.1083L2.09366 18.0691C2.05077 18.0445 2.01991 18.0037 2.00684 17.9572L5.82692 15.6789L5.99271 15.5801V15.6C5.99271 15.6674 6.0288 15.7297 6.08738 15.7637L6.08999 15.7652Z" fill="#FE38D4"/>
<path d="M22.8353 6.09452V6.18657L19.0053 8.27705L18.8385 8.36805C18.8296 8.31314 18.7961 8.2645 18.7475 8.23625L18.6973 8.20749L18.8678 8.11439L22.7904 5.97266C22.8191 6.00613 22.8353 6.04902 22.8353 6.09452Z" fill="#FE38D4"/>
<path d="M22.8357 17.8526V17.906C22.8357 17.9635 22.8096 18.0179 22.7651 18.0529L18.8687 15.8861L18.6992 15.7919L18.7479 15.7642C18.797 15.7355 18.8305 15.6863 18.8394 15.6309L19.0057 15.7234L22.8357 17.8526Z" fill="#FE38D4"/>
<path d="M12.5217 0.0308577V4.64226L12.5118 4.63651C12.4532 4.60251 12.381 4.60251 12.3224 4.63651L12.3125 4.64226V0.0308577L12.3224 0.0251046C12.381 -0.0083682 12.4532 -0.0083682 12.5118 0.0251046L12.5217 0.0308577Z" fill="#FE38D4"/>
<path d="M12.5217 19.3574V23.9688L12.5118 23.9746C12.4532 24.008 12.381 24.008 12.3224 23.9746L12.3125 23.9688V19.3574L12.3224 19.3632C12.381 19.3972 12.4532 19.3972 12.5118 19.3632L12.5217 19.3574Z" fill="#FE38D4"/>
<path d="M12.9265 11.8322C13.0948 12.0424 13.2379 12.2728 13.3868 12.4979C13.4784 12.6363 13.5834 12.769 13.6171 12.938C13.6678 13.1918 13.7217 13.4448 13.7696 13.6985C13.7838 13.7748 13.7854 13.8538 13.7866 13.9317C13.7874 13.972 13.6386 14.0882 13.6021 14.0769C13.5851 14.0717 13.5709 14.0487 13.5611 14.0309C13.5405 13.9938 13.523 13.9547 13.5044 13.9164C13.4975 13.9176 13.4902 13.9188 13.4833 13.92C13.4808 13.9365 13.4735 13.9547 13.4772 13.9696C13.521 14.1447 13.5859 14.317 13.607 14.4945C13.6455 14.8201 13.8272 15.0871 13.9419 15.3812C14.0316 15.6112 14.1467 15.8311 14.2432 16.0582C14.2761 16.1352 14.2943 16.2208 14.3057 16.3047C14.3308 16.4919 14.3629 16.6763 14.4416 16.8501C14.4882 16.9534 14.562 17.0575 14.4468 17.1745C14.3823 17.1515 14.3892 16.9954 14.253 17.0523C14.2619 17.0817 14.2627 17.1208 14.2826 17.1414C14.3596 17.2217 14.3698 17.3286 14.3625 17.421C14.3564 17.4968 14.2879 17.5682 14.2437 17.6397C14.238 17.6485 14.2116 17.6465 14.195 17.6465C14.1135 17.6473 14.032 17.6453 13.9505 17.6473C13.8758 17.6493 13.8057 17.6473 13.7404 17.5985C13.712 17.5771 13.6662 17.5775 13.6281 17.5703C13.538 17.5529 13.5088 17.5214 13.5133 17.4303C13.5169 17.3581 13.5015 17.3004 13.4334 17.2624C13.42 17.2552 13.4099 17.2322 13.4083 17.2156C13.388 17.0284 13.3422 16.8384 13.3588 16.6545C13.3742 16.4834 13.27 16.3305 13.3194 16.1619C13.3292 16.1284 13.3203 16.0933 13.2692 16.0788C13.2452 16.0719 13.2254 16.0291 13.2164 15.9989C13.1787 15.875 13.1511 15.748 13.1094 15.6257C13.0879 15.5624 13.0558 15.4946 13.0084 15.4494C12.8916 15.3373 12.8543 15.1948 12.8125 15.0476C12.7318 14.7636 12.6471 14.4796 12.4853 14.2262C12.465 14.1943 12.4581 14.1544 12.4439 14.1189C12.4281 14.0781 12.4208 14.0281 12.392 13.9995C12.3417 13.9494 12.334 13.8914 12.3235 13.828C12.3141 13.7707 12.2833 13.7171 12.2736 13.6598C12.2582 13.5718 12.2456 13.4823 12.2448 13.3935C12.244 13.2995 12.2602 13.2055 12.2651 13.1115C12.2659 13.095 12.2472 13.0776 12.2375 13.0607C12.2314 13.0627 12.2257 13.0647 12.2196 13.0671C12.1681 13.3548 12.1154 13.642 12.0659 13.9297C12.0436 14.0596 11.9321 14.135 11.8064 14.0939C11.7877 14.0878 11.7703 14.0555 11.7654 14.033C11.7423 13.9256 11.7314 13.8151 11.7006 13.7098C11.6819 13.6469 11.6381 13.59 11.5975 13.5359C11.5882 13.5234 11.5298 13.5246 11.5229 13.5359C11.4653 13.636 11.3964 13.7348 11.3664 13.8437C11.3339 13.962 11.3003 14.0737 11.2163 14.1649C11.1798 14.2044 11.192 14.2286 11.2346 14.2484C11.2634 14.2621 11.3007 14.269 11.3194 14.2912C11.3522 14.3303 11.3932 14.3779 11.3964 14.4239C11.413 14.6591 11.4183 14.8947 11.4276 15.1303C11.4329 15.265 11.4418 15.3998 11.4418 15.5345C11.4418 15.6693 11.4418 15.8052 11.4244 15.9384C11.4155 16.0074 11.3777 16.0772 11.3376 16.1361C11.2824 16.2167 11.2119 16.2869 11.149 16.3628C11.0854 16.4398 11.0748 16.4419 10.9937 16.385C10.984 16.3781 10.9742 16.3713 10.9645 16.3644C10.9304 16.4225 10.999 16.5863 11.1803 16.8804C11.104 16.9054 11.0314 16.93 10.958 16.9526C10.9479 16.9558 10.9325 16.9526 10.9227 16.9466C10.7986 16.8695 10.7297 16.8715 10.617 16.9578C10.604 16.9679 10.5886 16.9752 10.5683 16.9873C10.5468 16.9441 10.531 16.9034 10.5075 16.8675C10.4921 16.8437 10.4608 16.807 10.4462 16.8106C10.4065 16.8211 10.37 16.8477 10.3367 16.8735C10.3238 16.8836 10.3234 16.909 10.3169 16.9276C10.297 16.9853 10.2893 17.043 10.194 17.0196C10.1413 17.0067 10.0768 17.0466 10.0168 17.0575C9.8793 17.0821 9.74182 17.1087 9.60313 17.1249C9.51189 17.1354 9.42753 17.1039 9.36427 17.0341C9.3517 17.0204 9.34237 16.9885 9.34967 16.9748C9.37725 16.9244 9.40401 16.8675 9.447 16.8332C9.52689 16.7694 9.61854 16.7194 9.711 16.6601C9.70451 16.6424 9.69721 16.621 9.6891 16.5988C9.70127 16.5883 9.71303 16.5794 9.72276 16.5689C9.74142 16.5492 9.75886 16.5282 9.7767 16.5076C9.74345 16.4907 9.70695 16.4552 9.67815 16.4604C9.62949 16.4697 9.6157 16.4479 9.6157 16.4152C9.6157 16.3729 9.61692 16.3245 9.63679 16.2894C9.71911 16.1445 9.81036 16.0041 9.89552 15.8609C9.92391 15.8129 9.95027 15.8016 10.001 15.8355C10.0671 15.8795 10.0817 15.8706 10.1076 15.7915C10.1656 15.6152 10.2151 15.4353 10.2832 15.263C10.3485 15.0984 10.2913 14.9467 10.2609 14.791C10.2443 14.7047 10.2122 14.6216 10.1944 14.5356C10.1567 14.3529 10.2062 14.1766 10.2451 14.0003C10.254 13.9599 10.267 13.92 10.2836 13.8821C10.2897 13.8684 10.312 13.8619 10.3266 13.8522C10.3335 13.8684 10.3465 13.8841 10.3461 13.9002C10.3461 13.9269 10.3416 13.9547 10.3311 13.9789C10.2998 14.0527 10.3294 14.0947 10.3972 14.1225C10.4235 14.1334 10.4487 14.1479 10.4819 14.1645C10.4917 14.0681 10.4937 13.9801 10.5103 13.895C10.5383 13.7514 10.5764 13.6098 10.6093 13.4669C10.6133 13.4488 10.6214 13.4197 10.6129 13.4121C10.5038 13.3136 10.5602 13.191 10.5707 13.0821C10.5853 12.9251 10.6186 12.7694 10.6535 12.6157C10.6693 12.5459 10.7029 12.4777 10.7402 12.4164C10.8039 12.3119 10.8802 12.2147 10.9459 12.111C10.9925 12.0372 11.0533 11.9855 11.1324 11.95C11.222 11.9101 11.31 11.8653 11.3992 11.8242C11.4487 11.8012 11.4666 11.7681 11.4357 11.7193C11.3875 11.6434 11.3364 11.5688 11.2897 11.4917C11.2662 11.4526 11.2545 11.4058 11.2289 11.3679C11.2022 11.3279 11.1652 11.2953 11.1336 11.2585C11.1133 11.2347 11.0971 11.2065 11.0736 11.1863C11.0517 11.1682 11.0172 11.1424 10.9982 11.1488C10.9734 11.1573 10.9438 11.1928 10.9418 11.2186C10.9365 11.29 10.9418 11.3614 10.8854 11.4175C10.881 11.4219 10.8769 11.4328 10.8793 11.4381C10.9219 11.5373 10.8631 11.6551 10.939 11.7491C10.9824 11.8032 10.9799 11.8617 10.9398 11.919C10.8826 12.0005 10.8347 12.09 10.7674 12.1618C10.7102 12.2228 10.6324 12.2583 10.5391 12.2151C10.5237 12.2078 10.4775 12.2328 10.4677 12.253C10.4458 12.2982 10.4393 12.3506 10.4247 12.3995C10.4146 12.4337 10.4045 12.4688 10.3887 12.5007C10.3469 12.5846 10.2783 12.6314 10.1855 12.6508C10.1632 12.6556 10.1344 12.6895 10.1311 12.7133C10.1263 12.7508 10.1336 12.7936 10.149 12.8283C10.1591 12.8517 10.1928 12.865 10.2147 12.884C10.2861 12.9449 10.2946 13.005 10.2228 13.0631C10.1733 13.103 10.1064 13.1224 10.0464 13.1478C10.0362 13.1523 10.0172 13.1442 10.0062 13.1365C9.96162 13.1047 9.91823 13.0716 9.87565 13.0373C9.857 13.022 9.83631 13.005 9.82617 12.984C9.78724 12.9037 9.84564 12.6806 9.91255 12.6173C9.92594 12.6044 9.92675 12.5661 9.91864 12.5451C9.89593 12.4842 9.83793 12.4229 9.84483 12.368C9.85456 12.2925 9.90647 12.2199 9.94905 12.1517C9.99366 12.0807 10.05 12.0174 10.0979 11.9484C10.1048 11.9383 10.0999 11.9113 10.0906 11.9008C10.0464 11.852 10.0679 11.8092 10.0942 11.762C10.1392 11.6805 10.1814 11.5974 10.224 11.5147C10.2475 11.4691 10.2763 11.4381 10.3331 11.428C10.4089 11.4143 10.4406 11.3638 10.4438 11.2852C10.4454 11.2489 10.4511 11.2126 10.4556 11.1762C10.4633 11.1137 10.4625 11.054 10.4077 11.0084C10.3335 10.9467 10.3165 10.8608 10.31 10.7712C10.3088 10.7514 10.3092 10.7321 10.3084 10.7123C10.3047 10.6461 10.2783 10.6106 10.2025 10.6135C10.0229 10.6195 9.96041 10.5699 9.91499 10.3988C9.77589 10.4113 9.69681 10.3306 9.68464 10.1943C9.66761 10.0027 9.71546 9.83443 9.81685 9.67265C9.89755 9.54396 9.96487 9.40719 10.0318 9.27083C10.0744 9.18409 10.1384 9.1264 10.2236 9.08606C10.2589 9.06911 10.2946 9.05056 10.325 9.02675C10.3647 8.99529 10.3793 8.95414 10.3595 8.9025C10.2285 8.57047 10.1064 8.23481 9.96487 7.90723C9.90566 7.77046 9.80144 7.65387 9.72682 7.52275C9.67897 7.43844 9.6445 7.34605 9.61246 7.25407C9.60678 7.23793 9.64368 7.20727 9.66072 7.18306L9.6814 7.18589C9.62503 7.02492 9.57353 6.86233 9.51148 6.70379C9.43118 6.49884 9.34683 6.29551 9.25599 6.09501C9.21787 6.01069 9.28073 5.98204 9.31723 5.93444C9.35494 5.88562 9.38941 5.91548 9.42591 5.93404C9.57028 6.00746 9.66274 6.13131 9.74669 6.26283C10.0849 6.79294 10.4223 7.32306 10.7577 7.85478C10.7743 7.88141 10.7699 7.92054 10.7776 7.95362C10.7836 7.97863 10.7885 8.00607 10.8019 8.02705C10.8441 8.09321 10.8923 8.15574 10.9329 8.22271C10.9519 8.25418 10.9625 8.29251 10.9706 8.32922C10.9824 8.38449 11.0472 8.41596 11.0979 8.38449C11.2265 8.30582 11.3591 8.23683 11.51 8.21142C11.5335 8.20738 11.5578 8.20657 11.5874 8.20415C11.5874 8.22594 11.5919 8.24369 11.5866 8.25781C11.5679 8.30622 11.5789 8.33245 11.6336 8.3393C11.6503 8.34132 11.6649 8.35705 11.6803 8.36633C11.6685 8.38005 11.6592 8.39699 11.6446 8.40748C11.5501 8.47445 11.4556 8.54062 11.3595 8.60517C11.3218 8.63058 11.3153 8.65398 11.3498 8.68626C11.4475 8.77663 11.5408 8.87224 11.6442 8.95535C11.686 8.98923 11.7488 8.99771 11.8032 9.01586C11.8437 9.02958 11.8903 9.0324 11.9256 9.05338C12.1138 9.16675 12.2947 9.2906 12.4439 9.45439C12.4565 9.46811 12.4743 9.47779 12.4954 9.49353C12.761 9.18853 13.0242 8.88676 13.2919 8.57935C13.1933 8.51278 13.1009 8.45025 13.0169 8.39336C13.0388 8.33567 13.0595 8.28807 13.0757 8.23925C13.1199 8.10531 13.274 8.03229 13.4034 8.08716C13.4577 8.11015 13.5104 8.13638 13.564 8.16179C13.6216 8.18923 13.6678 8.17511 13.7075 8.12669C13.8766 7.91893 14.0462 7.71156 14.2157 7.5042C14.2218 7.49653 14.2266 7.48645 14.2343 7.4816C14.3848 7.38962 14.3905 7.23349 14.4136 7.08503C14.4144 7.08019 14.416 7.07454 14.4144 7.07051C14.3665 6.92769 14.4367 6.83046 14.5316 6.73324C14.633 6.62996 14.7185 6.51094 14.8191 6.40646C14.8475 6.377 14.9043 6.35885 14.9464 6.36167C15.049 6.36813 15.1403 6.34997 15.2096 6.27373C15.382 6.08452 15.5531 5.8941 15.7202 5.70045C16.163 5.18567 16.6035 4.66927 17.0451 4.15328C17.0994 4.08954 17.1505 4.02338 17.2073 3.96165C17.2941 3.86765 17.4125 3.86926 17.492 3.96851C17.5484 4.03911 17.5958 4.11657 17.6457 4.19201C17.6757 4.2372 17.6672 4.28036 17.6404 4.32756C17.3659 4.80926 17.0933 5.29217 16.8204 5.77508C16.5114 6.32173 16.2024 6.86839 15.8958 7.41625C15.852 7.49451 15.8086 7.55422 15.7028 7.53688C15.6419 7.52719 15.6079 7.57803 15.5807 7.62765C15.4781 7.81202 15.3873 8.00445 15.2672 8.17672C15.1942 8.28161 15.1792 8.38893 15.1703 8.5039C15.1679 8.53658 15.1869 8.57451 15.2048 8.60476C15.2263 8.64148 15.2088 8.7496 15.1768 8.77985C15.1573 8.7976 15.1415 8.82665 15.1379 8.85247C15.1204 8.96826 15.1066 9.08485 15.0949 9.20144C15.0908 9.24259 15.0734 9.291 15.1322 9.31561C15.1407 9.31924 15.1439 9.34385 15.1435 9.35878C15.1431 9.38621 15.1387 9.41324 15.135 9.44068C15.1338 9.44996 15.1322 9.4665 15.1277 9.4673C15.0316 9.48788 15.077 9.57623 15.0482 9.62827C15.032 9.65813 15.0097 9.68516 14.9882 9.71219C14.9606 9.74688 14.9168 9.77633 14.9051 9.81506C14.882 9.89292 14.8353 9.92923 14.7607 9.95425C14.5888 10.0123 14.4379 10.1031 14.3223 10.2488C14.2923 10.2867 14.2412 10.3121 14.195 10.3327C14.1106 10.3706 14.0644 10.4299 14.0526 10.5219C14.0482 10.5562 14.0283 10.5897 14.0113 10.6215C13.9878 10.6647 13.9853 10.7022 14.019 10.743C14.0685 10.8035 14.1171 10.8656 14.1589 10.9314C14.1771 10.96 14.1844 10.9995 14.1861 11.0346C14.1909 11.1311 14.2173 11.1686 14.3118 11.1992C14.4351 11.2388 14.4497 11.2598 14.4549 11.3872C14.4574 11.4433 14.4586 11.5014 14.474 11.5547C14.5016 11.6507 14.4712 11.7273 14.4136 11.8C14.3775 11.8451 14.3815 11.9637 14.4201 12.0077C14.5064 12.107 14.5081 12.3022 14.4201 12.3974C14.388 12.4321 14.3856 12.4632 14.4087 12.5027C14.4854 12.6351 14.4602 12.7791 14.4497 12.9199C14.4472 12.9514 14.4184 12.9925 14.3901 13.0086C14.2128 13.1083 14.0194 13.097 13.8994 12.8973C13.8085 12.746 13.8892 12.6443 13.9655 12.5334C13.9748 12.5197 13.9902 12.51 14.0247 12.4789C14.004 12.4709 13.9882 12.464 13.9719 12.458C13.89 12.4281 13.8616 12.3644 13.8503 12.2829C13.8397 12.207 13.8239 12.1332 13.8673 12.0622C13.9006 12.0073 13.8681 11.973 13.8211 11.9621C13.6735 11.9278 13.6224 11.831 13.6139 11.6898C13.6082 11.5958 13.5903 11.5054 13.652 11.4215C13.6597 11.411 13.6475 11.3695 13.6354 11.3651C13.6029 11.3525 13.5644 11.3433 13.5307 11.3485C13.4585 11.3594 13.3973 11.3473 13.3527 11.288C13.3207 11.246 13.2882 11.2404 13.2464 11.2727C13.1455 11.3505 13.0344 11.403 12.905 11.4187" fill="#FF1B88"/>
<path opacity="0.2" d="M13.8069 6.6708L14.7584 9.80796L18.0741 10.8361L20.4385 8.72699L19.883 5.00208L16.5672 3.97399L13.8069 6.6708Z" fill="white"/>
<path opacity="0.2" d="M15.3936 5.67275L14.8086 7.94739L16.456 9.8107L18.6883 9.39936L19.7344 6.91228L18.087 5.04897L15.3936 5.67275Z" fill="white"/>
<path opacity="0.5" d="M17.2978 6.19531L16.4609 6.80447V7.9551L17.2978 8.49657L18.3438 7.9551V6.80447L17.2978 6.19531Z" fill="white"/>
<path d="M16.1999 3.21289L17.2198 7.03088H13.2188L17.2198 7.29239L15.4939 11.0581L17.4552 7.47544L20.384 10.2213L17.6121 7.29239L20.4625 5.488L17.4552 7.03088L16.1999 3.21289Z" fill="white"/>
<path opacity="0.2" d="M4.99787 15.8949L5.35826 17.0831L6.61417 17.4725L7.5097 16.6737L7.29932 15.2628L6.0434 14.8734L4.99787 15.8949Z" fill="white"/>
<path opacity="0.2" d="M5.59876 15.516L5.37721 16.3775L6.00117 17.0833L6.84668 16.9275L7.24291 15.9855L6.61895 15.2797L5.59876 15.516Z" fill="white"/>
<path opacity="0.9" d="M6.31967 15.707L6.00586 15.9424V16.3869L6.31967 16.5962L6.71193 16.3869V15.9424L6.31967 15.707Z" fill="white"/>
<defs>
<linearGradient id="paint0_linear_2352_14404" x1="19.6775" y1="7.89516" x2="22.4495" y2="17.8585" gradientUnits="userSpaceOnUse">
<stop stop-color="#BE0F54"/>
<stop offset="1" stop-color="#BF0150"/>
</linearGradient>
<linearGradient id="paint1_linear_2352_14404" x1="14.6565" y1="5.46136" x2="8.98184" y2="17.9091" gradientUnits="userSpaceOnUse">
<stop stop-color="#BD0E54"/>
<stop offset="0.33333" stop-color="#9D0540"/>
<stop offset="0.65012" stop-color="#890033"/>
<stop offset="0.937507" stop-color="#B70436"/>
<stop offset="0.968758" stop-color="#E10838"/>
</linearGradient>
</defs>
</svg>
