<svg width="25" height="24" viewBox="0 0 25 24" fill="none" xmlns="http://www.w3.org/2000/svg">
<g clip-path="url(#clip0_720_11641)">
<path d="M12.6367 24C19.2641 24 24.6367 18.6274 24.6367 12C24.6367 5.37258 19.2641 0 12.6367 0C6.0093 0 0.636719 5.37258 0.636719 12C0.636719 18.6274 6.0093 24 12.6367 24Z" fill="black"/>
<path d="M17.0322 13.6446C17.4405 13.4849 17.901 13.6865 18.0607 14.0949C18.2169 14.4942 18.0276 14.9433 17.6373 15.1123L17.6104 15.1234L8.08324 18.8488C7.67488 19.0085 7.21441 18.8068 7.05472 18.3985C6.89862 17.9992 7.08783 17.5501 7.4781 17.3811L7.50501 17.37L17.0322 13.6446Z" fill="white"/>
<path d="M17.0322 9.42973C17.4405 9.27004 17.901 9.47166 18.0607 9.88002C18.2169 10.2793 18.0276 10.7284 17.6373 10.8975L17.6104 10.9085L8.08324 14.6339C7.67488 14.7936 7.21441 14.592 7.05472 14.1836C6.89862 13.7843 7.08783 13.3352 7.4781 13.1662L7.50501 13.1551L17.0322 9.42973Z" fill="white"/>
<path d="M17.0322 5.21294C17.4405 5.05325 17.901 5.25482 18.0607 5.66323C18.2169 6.06248 18.0276 6.51163 17.6373 6.68065L17.6104 6.69175L8.08324 10.4171C7.67488 10.5768 7.21441 10.3752 7.05472 9.96686C6.89862 9.56754 7.08783 9.1184 7.4781 8.94938L7.50501 8.93828L17.0322 5.21294Z" fill="white"/>
<path d="M17.6261 18.4121C18.0646 18.4121 18.42 18.7676 18.42 19.206C18.42 19.635 18.0799 19.9844 17.6546 19.9995L17.6261 20H13.2901C12.8515 20 12.4961 19.6445 12.4961 19.206C12.4961 18.7771 12.8363 18.4276 13.2615 18.4126L13.2901 18.4121H17.6261Z" fill="white"/>
<path d="M12.13 4C12.5685 4 12.9239 4.35545 12.9239 4.79396C12.9239 5.22286 12.5838 5.57239 12.1585 5.58735L12.13 5.58786H7.7939C7.35545 5.58786 7 5.23241 7 4.79396C7 4.36501 7.34015 4.01547 7.76546 4.00051L7.7939 4H12.13Z" fill="white"/>
</g>
<defs>
<clipPath id="clip0_720_11641">
<rect width="24" height="24" fill="white" transform="translate(0.636719)"/>
</clipPath>
</defs>
</svg>
