<svg width="24" height="24" viewBox="0 0 24 24" fill="none" xmlns="http://www.w3.org/2000/svg">
<path d="M0 2C0 0.89543 0.895431 0 2 0H22C23.1046 0 24 0.895431 24 2V22C24 23.1046 23.1046 24 22 24H2C0.89543 24 0 23.1046 0 22V2Z" fill="#88D060"/>
<path d="M12.0002 5.0696C12.2892 5.06869 12.5726 5.14867 12.8185 5.30051C13.0643 5.45234 13.2628 5.66996 13.3914 5.92873L17.7663 14.6787C17.8851 14.9159 17.9412 15.1795 17.9293 15.4444C17.9175 15.7094 17.8381 15.9669 17.6987 16.1925C17.5593 16.4181 17.3645 16.6044 17.1329 16.7335C16.9013 16.8627 16.6404 16.9304 16.3752 16.9304H7.62525C7.36008 16.9304 7.09931 16.8625 6.86773 16.7334C6.63615 16.6042 6.44144 16.4179 6.3021 16.1923C6.16275 15.9667 6.08341 15.7092 6.07159 15.4443C6.05978 15.1794 6.11589 14.9159 6.23459 14.6787L10.6091 5.92873C10.7377 5.66996 10.9361 5.45234 11.182 5.30051C11.4278 5.14867 11.7113 5.06869 12.0002 5.0696ZM12.0002 4C11.5128 3.99995 11.035 4.13561 10.6204 4.39178C10.2057 4.64795 9.87054 5.01451 9.65244 5.4504L5.27746 14.2004C5.0772 14.6006 4.9826 15.0454 5.00263 15.4925C5.02266 15.9396 5.15667 16.3741 5.39191 16.7548C5.62716 17.1356 5.95584 17.4498 6.34672 17.6677C6.73761 17.8857 7.17772 18 7.62525 18H16.3752C16.8227 18 17.2628 17.8855 17.6536 17.6676C18.0444 17.4496 18.373 17.1353 18.6082 16.7546C18.8434 16.3739 18.9774 15.9394 18.9974 15.4924C19.0174 15.0453 18.9228 14.6006 18.7225 14.2004L14.348 5.4504C14.1299 5.01451 13.7948 4.64795 13.3801 4.39178C12.9654 4.13561 12.4876 3.99995 12.0002 4Z" fill="white"/>
</svg>
