<svg width="24" height="24" viewBox="0 0 24 24" fill="none" xmlns="http://www.w3.org/2000/svg">
<g clip-path="url(#clip0_2068_1810)">
<path d="M23.6023 12C23.6023 18.6274 18.3187 24 11.8011 24C5.28356 24 0 18.6274 0 12C0 5.37258 5.28356 0 11.8011 0C18.3187 0 23.6023 5.37258 23.6023 12Z" fill="#4958C5"/>
<path d="M16.6097 7.02563H13.3848V6.10159C13.3848 5.08769 14.4198 4.3301 15.1139 4.26628C15.7198 4.21059 16.0479 4.13359 17.247 4.53146V2.86735C16.4266 2.66128 15.4421 2.69032 14.6217 2.76468C13.7256 2.81601 11.6935 3.77858 11.6935 6.01173V7.02563H10.5071V8.54007H11.6935V14.2513C11.6935 14.2513 10.9236 13.5069 9.34589 13.5069C7.14973 13.5069 5.20605 15.2267 5.20605 17.6909C5.20605 20.155 7.01094 21.9236 9.39642 21.9236C11.7819 21.9236 13.4479 19.847 13.4984 17.6909C13.5489 15.5347 13.4984 13.0834 13.4984 13.0834V8.54007H16.6097V7.02563Z" fill="white"/>
<path d="M9.41259 20.0904C10.751 20.0904 11.8359 18.9872 11.8359 17.6263C11.8359 16.2654 10.751 15.1621 9.41259 15.1621C8.07422 15.1621 6.98926 16.2654 6.98926 17.6263C6.98926 18.9872 8.07422 20.0904 9.41259 20.0904Z" fill="#4958C5"/>
</g>
<defs>
<clipPath id="clip0_2068_1810">
<rect width="24" height="24" fill="white"/>
</clipPath>
</defs>
</svg>
