<svg width="24" height="24" viewBox="0 0 24 24" fill="none" xmlns="http://www.w3.org/2000/svg">
<g clip-path="url(#clip0_720_12754)">
<path d="M12 24C18.6274 24 24 18.6274 24 12C24 5.37258 18.6274 0 12 0C5.37258 0 0 5.37258 0 12C0 18.6274 5.37258 24 12 24Z" fill="url(#paint0_linear_720_12754)"/>
<path fill-rule="evenodd" clip-rule="evenodd" d="M10.0291 4.24135C5.08323 5.45648 2.55805 11.0312 4.85817 15.6566C7.78393 21.5398 16.4156 21.4201 19.2223 15.4574C22.0908 9.36348 16.5743 2.63323 10.0291 4.24135ZM10.3123 6.11824C9.88061 6.7543 9.4297 7.6122 8.9444 8.72084L8.62276 9.45552L8.50664 8.76747C8.44275 8.38902 8.38176 7.72407 8.37099 7.28984L8.35136 6.50027L8.79988 6.25053C9.27352 5.98675 10.356 5.55939 10.5727 5.55062C10.6451 5.54773 10.5315 5.79538 10.3123 6.11824ZM14.3108 5.84778C14.5964 5.95617 15.0094 6.14783 15.2287 6.27375L15.6274 6.50277L15.6077 7.29114C15.597 7.72467 15.5356 8.39141 15.4712 8.77275L15.3542 9.46618L15.1324 8.92536C14.7741 8.05162 14.0861 6.73587 13.657 6.1041C13.203 5.43537 13.213 5.43148 14.3108 5.84778ZM12.4815 6.61932C13.2343 7.88555 14.7956 11.7395 14.625 11.91C14.5455 11.9894 9.43309 11.9894 9.35375 11.91C9.09819 11.6545 11.6209 5.94391 11.9894 5.94391C12.0393 5.94391 12.2608 6.24784 12.4815 6.61932ZM7.45302 10.3943C7.54272 10.8779 7.6414 11.3774 7.67229 11.5045C7.74007 11.7828 7.46528 11.7553 6.1827 11.3557C5.43427 11.1225 5.41145 11.1063 5.46896 10.8455C5.70059 9.79592 6.12908 8.85065 6.74266 8.03588L7.1553 7.48798L7.22258 8.50159C7.25965 9.05895 7.36331 9.91067 7.45302 10.3943ZM17.8066 8.93243C18.122 9.53711 18.3697 10.2108 18.5098 10.8455C18.5673 11.1063 18.5445 11.1225 17.796 11.3557C16.4484 11.7756 16.2365 11.7899 16.3212 11.4546C16.5079 10.7157 16.6867 9.48162 16.7432 8.54104L16.8057 7.50203L17.1372 7.89352C17.3195 8.1088 17.6208 8.5763 17.8066 8.93243ZM6.60093 12.8653C7.0636 13.0058 7.4586 13.1373 7.47883 13.1574C7.49906 13.1776 7.44574 13.6644 7.36032 14.2389C7.275 14.8135 7.20344 15.5693 7.20135 15.9184L7.19766 16.5532L6.8499 16.1547C5.98555 15.1644 5.0015 12.3609 5.58547 12.5527C5.68136 12.5842 6.13835 12.7249 6.60093 12.8653ZM18.5677 12.7468C18.5677 13.5312 17.7704 15.4196 17.1288 16.1547L16.7811 16.5532L16.7774 15.9184C16.7753 15.5693 16.7037 14.8135 16.6184 14.2389C16.4369 13.0171 16.3654 13.1615 17.2765 12.9092C17.6784 12.7979 18.0772 12.6658 18.1628 12.6158C18.4256 12.4621 18.5677 12.508 18.5677 12.7468ZM14.0122 14.1125C13.3915 15.7741 12.2121 18.0972 11.9894 18.0972C11.7666 18.0972 10.5872 15.7741 9.96653 14.1125L9.72463 13.465H11.9894H14.2541L14.0122 14.1125ZM9.49558 16.5033C9.73081 16.9691 10.1025 17.6142 10.3218 17.937C10.7201 18.5237 10.7201 18.524 10.4537 18.4571C9.99584 18.3423 9.16587 18.0063 8.75004 17.7674L8.35136 17.5384L8.37099 16.75C8.38176 16.3165 8.44315 15.6497 8.50754 15.2684L8.62455 14.575L8.84632 15.1158C8.96832 15.4132 9.26046 16.0376 9.49558 16.5033ZM15.5915 16.218C15.7455 17.6274 15.6626 17.736 13.9944 18.3096C13.2342 18.571 13.2303 18.5654 13.6943 17.8825C14.1117 17.2683 15.2709 14.9484 15.2871 14.6953C15.3082 14.364 15.4861 15.254 15.5915 16.218Z" fill="white"/>
</g>
<defs>
<linearGradient id="paint0_linear_720_12754" x1="0" y1="0" x2="24" y2="24" gradientUnits="userSpaceOnUse">
<stop/>
<stop offset="1" stop-color="#4F5D6B"/>
</linearGradient>
<clipPath id="clip0_720_12754">
<rect width="24" height="24" fill="white"/>
</clipPath>
</defs>
</svg>
