<svg width="24" height="24" viewBox="0 0 24 24" fill="none" xmlns="http://www.w3.org/2000/svg">
<path d="M5.70787 17.3862C5.70261 16.6555 5.95245 15.9459 6.41433 15.3797C6.45372 15.3277 6.48132 15.2677 6.49521 15.204C6.50909 15.1402 6.50894 15.0742 6.49476 15.0105C6.48058 14.9468 6.45271 14.887 6.41308 14.8351C6.37346 14.7833 6.32303 14.7407 6.26529 14.7103C5.55592 14.3581 4.93819 13.8457 4.46091 13.2137C3.98363 12.5816 3.65988 11.8472 3.51525 11.0686C3.32165 9.86347 3.41012 8.62989 3.77372 7.46475C3.84228 7.21029 3.85492 6.944 3.81076 6.68419C3.33844 4.91018 3.38961 3.03739 3.95808 1.29182C4.40695 -0.000492874 5.11341 -0.302032 6.37643 0.29243C7.0896 0.633472 7.75234 1.07124 8.34591 1.59336C8.40897 1.66548 8.4958 1.71261 8.59064 1.7262C8.68547 1.73979 8.78204 1.71895 8.86283 1.66745C9.9508 1.20465 11.1219 0.9692 12.3042 0.97557C13.4865 0.981941 14.655 1.23 15.7379 1.70449C15.8108 1.73908 15.8926 1.75052 15.9722 1.73727C16.0519 1.72403 16.1255 1.68673 16.1833 1.6304C16.7495 1.13397 17.3748 0.709453 18.0451 0.366523C18.3396 0.216829 18.6516 0.104533 18.9739 0.0322456C19.2259 -0.0259088 19.4901 0.000847201 19.7254 0.108353C19.9606 0.215859 20.1538 0.398089 20.2748 0.626708C20.6244 1.27324 20.8511 1.979 20.9433 2.70819C21.1684 4.12014 21.0927 5.56373 20.7211 6.94438C20.696 7.06907 20.7089 7.19842 20.7581 7.3157C21.1166 8.3536 21.2556 9.45462 21.1665 10.5491C21.0941 11.4272 20.7961 12.2717 20.3013 13.0008C19.8065 13.7299 19.1317 14.3187 18.3423 14.7103C18.2827 14.7388 18.2304 14.7805 18.1892 14.8322C18.1481 14.8839 18.1193 14.9443 18.105 15.0089C18.0908 15.0734 18.0914 15.1403 18.1068 15.2046C18.1222 15.2688 18.1521 15.3287 18.1942 15.3797C18.4915 15.7586 18.7048 16.1963 18.8201 16.6639C18.9354 17.1315 18.9499 17.6182 18.8627 18.0918C18.8627 18.203 18.7886 18.2771 18.9368 18.3891C19.3114 18.6344 19.6082 18.9814 19.7926 19.3894C19.9769 19.7975 20.0411 20.2496 19.9776 20.6928C19.9257 21.2872 19.7617 21.8663 19.4942 22.3995C19.3532 22.7243 19.119 23 18.8214 23.1918C18.5238 23.3836 18.176 23.483 17.822 23.4773H17.2258C16.7772 23.4512 16.3294 23.5402 15.9249 23.7358C15.3441 24.0145 14.6772 24.0544 14.0674 23.8469C14.0303 23.8469 13.9933 23.8099 13.9554 23.8099C13.547 23.3636 13.0266 23.4756 12.5063 23.4756H11.7257C11.3864 23.4734 11.0528 23.5627 10.7599 23.7341C10.4019 23.9261 9.99835 24.0171 9.59254 23.9974C9.18673 23.9776 8.79392 23.8479 8.45618 23.6221C8.30428 23.5184 8.12302 23.4664 7.93926 23.4739H6.78566C6.43306 23.4748 6.08769 23.374 5.79104 23.1834C5.4944 22.9928 5.25909 22.7206 5.11341 22.3995C4.8701 21.911 4.71882 21.3818 4.66713 20.8384C4.65931 20.7498 4.63211 20.6639 4.58744 20.587C4.54278 20.51 4.48175 20.4438 4.40867 20.393C3.95197 20.1029 3.55696 19.7257 3.24625 19.2828C2.93553 18.8399 2.71521 18.34 2.5979 17.8119C2.48058 17.2837 2.46858 16.7376 2.56257 16.2048C2.65656 15.672 2.8547 15.163 3.14565 14.7068C3.1827 14.6698 3.21975 14.6328 3.21975 14.5957C3.25121 14.5375 3.30109 14.4914 3.36159 14.4646C3.42208 14.4377 3.48976 14.4317 3.55402 14.4475C3.70307 14.4846 3.74012 14.5957 3.77716 14.7448C3.87682 15.5273 4.24532 16.2509 4.81962 16.7918C5.07379 17.048 5.37709 17.2502 5.71132 17.3862" fill="#2F201C"/>
<path d="M3.99819 10.7364C3.85815 9.72627 3.94647 8.69762 4.25665 7.72616C4.78969 5.88217 5.91243 4.26372 7.45297 3.11865C7.67524 2.93256 7.71143 2.78437 7.52792 2.56123C7.24775 2.17764 6.93717 1.81722 6.59918 1.48345C6.74736 1.3344 6.85764 1.4464 6.9705 1.5205C7.39703 1.77548 7.79553 2.07464 8.15943 2.41305C8.25969 2.48766 8.37814 2.53397 8.50241 2.54715C8.62668 2.56034 8.75221 2.53991 8.86589 2.488C10.4779 1.77913 12.2727 1.59819 13.9938 1.97108C14.5805 2.10021 15.153 2.28692 15.7031 2.5285C15.7866 2.57 15.8809 2.58507 15.9732 2.57168C16.0656 2.55829 16.1516 2.51708 16.22 2.45354C16.5906 2.12382 16.9879 1.82556 17.4081 1.56185C17.5571 1.45071 17.7061 1.33871 17.8914 1.45071C17.5743 1.76709 17.2763 2.10196 16.9988 2.45354C16.7404 2.82573 16.7404 2.89982 17.1108 3.16C18.1168 3.92596 18.9461 4.89948 19.5424 6.01443C20.1386 7.12938 20.4879 8.35962 20.5665 9.62155C20.611 9.98048 20.5988 10.3442 20.5303 10.6993C20.3903 10.9373 20.1878 11.1324 19.9448 11.2635C19.7018 11.3945 19.4276 11.4566 19.1518 11.4428C18.3404 11.4944 17.5409 11.2277 16.923 10.6993C16.3266 10.209 15.756 9.68788 15.2137 9.13823C14.8684 8.79841 14.4955 8.48777 14.0989 8.20949C13.5571 7.81667 12.9036 7.60824 12.2344 7.61491C11.5653 7.62158 10.916 7.843 10.3822 8.24653C9.84381 8.65274 9.33772 9.10007 8.86848 9.5845C8.51328 9.95044 8.13945 10.2978 7.74847 10.6252C7.10933 11.1754 6.28771 11.467 5.44472 11.4428C5.16471 11.4476 4.88754 11.3861 4.63584 11.2634C4.38414 11.1406 4.16505 10.96 3.99647 10.7364" fill="#EAA548"/>
<path d="M3.99805 10.7345C4.31573 10.9925 4.68322 11.1823 5.07756 11.2919C5.54755 11.3756 6.03058 11.3484 6.48824 11.2126C6.9459 11.0768 7.36556 10.8361 7.71387 10.5096C8.38328 9.95222 9.01393 9.32071 9.64544 8.72625C10.1327 8.23206 10.7321 7.8629 11.3926 7.65019C11.9138 7.51251 12.4607 7.50494 12.9854 7.62812C13.5101 7.7513 13.9966 8.00147 14.402 8.35665C15.1826 8.98816 15.889 9.7308 16.6696 10.4373C17.0237 10.8055 17.4638 11.0798 17.9504 11.2355C18.4369 11.3911 18.9546 11.4233 19.4567 11.329C19.8507 11.2285 20.2101 11.0231 20.4965 10.7345C20.478 10.9357 20.4405 11.1348 20.3845 11.329C20.1842 11.6778 19.9611 12.0131 19.7168 12.3327C19.0303 13.0152 18.2086 13.5467 17.3045 13.8929C16.2366 14.2616 15.1243 14.4867 13.9971 14.5623C12.2841 14.7357 10.5547 14.6473 8.86833 14.3004C7.45515 14.0739 6.13819 13.4418 5.07756 12.4808C4.69649 12.1316 4.38183 11.7163 4.14882 11.2549C4.07713 11.0897 4.02731 10.916 4.00063 10.7379" fill="white"/>
<path d="M4.14637 11.293C4.42277 11.5652 4.6718 11.8638 4.88988 12.1847C5.39453 12.7136 5.98496 13.1534 6.63622 13.4856C7.9356 14.0799 9.33663 14.4203 10.7639 14.4884C12.568 14.6643 14.3889 14.5388 16.1519 14.1171C17.4713 13.8265 18.6819 13.1695 19.6446 12.2217C19.8378 12.0026 20.0109 11.7664 20.1615 11.5161C20.1986 11.442 20.2356 11.33 20.3847 11.33C20.2386 11.904 19.9792 12.4431 19.6218 12.9153C19.2643 13.3876 18.816 13.7836 18.3032 14.08C17.1276 14.7526 15.8237 15.1703 14.4762 15.306C12.442 15.5857 10.3731 15.4723 8.3817 14.9717C7.10302 14.687 5.93846 14.027 5.0372 13.0764C4.58911 12.5701 4.28164 11.9552 4.14551 11.293" fill="#DCDCDC"/>
<path d="M13.8458 22.699C13.7957 22.417 13.7833 22.1296 13.8088 21.8444V19.986C13.8088 19.9119 13.8458 19.9119 13.8829 19.949C13.957 20.0231 13.9199 20.1351 13.957 20.2462C14.7092 19.5745 15.4169 18.8545 16.0755 18.0906C16.4828 17.6477 16.7425 17.0893 16.819 16.4925C16.819 16.4554 16.856 16.3805 16.856 16.3434C17.0042 16.2693 17.1145 16.2323 17.2644 16.1582C17.4505 16.1582 17.4505 16.3434 17.4875 16.4554C17.6112 16.9543 17.6239 17.4743 17.5246 17.9786C17.3836 18.8817 17.1086 19.7586 16.7087 20.5805C16.4959 21.13 16.2216 21.6537 15.8911 22.1416C15.8264 22.2681 15.7388 22.3814 15.6327 22.4759C15.5892 22.5053 15.5367 22.5184 15.4845 22.5129C14.9935 22.4458 14.4935 22.51 14.0354 22.699C14.0076 22.7168 13.9753 22.7263 13.9423 22.7263C13.9093 22.7263 13.877 22.7168 13.8493 22.699" fill="#EAA548"/>
<path d="M10.687 20.5829C10.687 21.2894 10.724 21.995 10.687 22.7014C10.6526 22.7197 10.6143 22.7292 10.5754 22.7292C10.5365 22.7292 10.4982 22.7197 10.4638 22.7014C10.016 22.5221 9.52718 22.4705 9.05177 22.5524C9.0035 22.5736 8.95038 22.5814 8.89804 22.5749C8.84571 22.5683 8.79612 22.5478 8.75454 22.5153C8.70293 22.3341 8.62792 22.1603 8.5314 21.9984C7.88109 20.8711 7.39324 19.6575 7.08229 18.3937C6.92808 17.7991 6.90282 17.1784 7.0082 16.5733C7.04524 16.4242 7.08229 16.2382 7.23134 16.1641C7.37952 16.239 7.4898 16.2761 7.63971 16.3502C7.67588 16.3826 7.70461 16.4225 7.72394 16.4672C7.74327 16.5118 7.75274 16.56 7.75171 16.6086C7.81643 17.1027 8.0229 17.5674 8.34617 17.9466C8.97865 18.7092 9.66136 19.4288 10.3897 20.1004C10.5382 20.2254 10.6424 20.3949 10.687 20.5838" fill="#EAA548"/>
<path d="M11.2814 21.7336V20.0243C11.2814 19.7658 11.1703 19.6151 10.9101 19.653C10.8133 19.5645 10.7479 19.4468 10.724 19.3178C10.4897 18.6078 10.1379 17.942 9.68327 17.3484C9.5786 17.1572 9.40667 17.0116 9.2008 16.94C9.12585 16.903 9.05176 16.903 9.05176 16.7539C9.64622 16.8289 10.2407 16.977 10.8351 17.0124C11.0583 17.0124 10.9842 17.1244 10.9101 17.2708C10.7954 17.5333 10.7659 17.8251 10.8259 18.1052C10.8859 18.3853 11.0323 18.6395 11.2444 18.8319C11.4527 19.032 11.715 19.1668 11.999 19.2196C12.283 19.2724 12.5762 19.241 12.8425 19.1292C13.1762 18.9776 13.4409 18.7065 13.5845 18.3693C13.728 18.0322 13.74 17.6534 13.6179 17.3079C13.5068 17.0106 13.6179 17.0106 13.8411 17.0106C14.2873 16.9736 14.7327 16.8995 15.2195 16.8254C15.2566 16.9366 15.1825 16.9736 15.1454 17.0477C14.5352 17.7433 14.0905 18.568 13.8445 19.46C13.8075 19.5341 13.8075 19.6082 13.7334 19.6461C13.3991 19.6082 13.3241 19.6831 13.3241 20.0174C13.3241 20.5748 13.3241 21.1322 13.2871 21.6897C13.0095 21.929 12.657 22.0637 12.2905 22.0705C11.9241 22.0772 11.5668 21.9556 11.2806 21.7267" fill="#DCDCDC"/>
<path d="M9.05211 16.792C9.75771 17.0504 10.017 17.6837 10.3522 18.2781C10.6163 18.6977 10.7922 19.1668 10.8691 19.6566C10.646 19.7686 10.683 19.9909 10.683 20.1735V20.5828C9.81864 19.7478 8.99986 18.8669 8.2302 17.9439C7.85077 17.4973 7.64036 16.9316 7.63574 16.3457C8.11993 16.4947 8.56448 16.6429 9.04867 16.792" fill="white"/>
<path d="M13.6596 19.6903C13.7735 19.0484 14.0273 18.4395 14.4031 17.9069C14.6187 17.53 14.879 17.1806 15.1785 16.8661C15.7359 16.7171 16.3312 16.5689 16.8507 16.3828C16.8863 16.5908 16.8782 16.8038 16.827 17.0085C16.7759 17.2132 16.6827 17.405 16.5535 17.5717C16.0395 18.3527 15.4278 19.0646 14.7331 19.6903C14.4296 19.9691 14.1441 20.2669 13.8784 20.582C13.7664 20.3967 13.8784 20.2106 13.8043 20.0245C13.8113 19.9606 13.8011 19.896 13.7749 19.8373C13.7487 19.7786 13.7075 19.7278 13.6553 19.6903" fill="white"/>
<path d="M15.5889 22.4398C16.4049 21.176 16.9958 19.7804 17.3352 18.3148C17.5338 17.6064 17.5079 16.8539 17.2611 16.1609C17.2982 16.123 17.3723 16.086 17.4093 16.0489C17.8556 15.8258 17.8556 15.8258 18.0417 16.2721C18.3078 17.0131 18.3337 17.8192 18.1158 18.5758C17.7696 19.9315 17.2073 21.2226 16.4504 22.3993C16.3763 22.5105 16.3022 22.5854 16.2273 22.6966C15.9688 22.6966 15.7448 22.6966 15.5958 22.4381" fill="#E08532"/>
<path d="M7.23188 16.1608C6.9319 17.2322 7.01072 18.3742 7.45502 19.3942C7.77112 20.3799 8.22133 21.3174 8.79299 22.1804C8.81224 22.2015 8.82667 22.2266 8.83529 22.2538C8.84391 22.2811 8.84651 22.3098 8.8429 22.3382C8.8393 22.3665 8.82958 22.3938 8.81441 22.418C8.79925 22.4422 8.77901 22.4629 8.75508 22.4785C8.72668 22.5695 8.66516 22.6466 8.58269 22.6944C8.50021 22.7423 8.40279 22.7575 8.30966 22.7369C7.76091 22.0598 7.33332 21.293 7.04579 20.4702C6.61851 19.5964 6.35428 18.6519 6.26609 17.6832C6.22147 17.1737 6.31056 16.6615 6.52455 16.197C6.71065 15.8257 6.71065 15.8257 7.04148 16.0488C7.11643 16.0859 7.15348 16.1229 7.22757 16.16" fill="#E08532"/>
<path d="M16.8186 22.9249C17.5732 21.7349 18.1608 20.4469 18.565 19.0971C18.6391 18.8748 18.714 18.9489 18.8234 19.06C19.0239 19.2858 19.1737 19.5518 19.2628 19.8402C19.352 20.1286 19.3784 20.4328 19.3404 20.7323C19.296 21.2248 19.1574 21.7042 18.932 22.1443C18.8401 22.3528 18.6961 22.5341 18.5138 22.6708C18.3315 22.8075 18.1171 22.895 17.8913 22.9249C17.5322 22.9435 17.1725 22.9435 16.8135 22.9249" fill="#E08432"/>
<path d="M7.12047 22.924C6.92756 22.9573 6.72996 22.952 6.53915 22.9082C6.34835 22.8644 6.16816 22.7831 6.00908 22.669C5.85001 22.5549 5.71522 22.4103 5.61257 22.2436C5.50992 22.0769 5.44146 21.8915 5.41118 21.698C5.13367 21.0777 5.09411 20.377 5.30004 19.7294C5.37657 19.475 5.51719 19.2445 5.70841 19.06C5.81955 18.9489 5.8945 18.8748 5.93155 19.0971C6.30726 20.3804 6.85809 21.6059 7.56847 22.7388C7.64256 22.8878 7.64256 22.9249 7.45647 22.9249L7.12047 22.924Z" fill="#E08432"/>
<path d="M19.7543 5.23632C19.2247 4.42299 18.5871 3.68537 17.8589 3.0437C17.4506 2.70942 17.4506 2.67237 17.8219 2.26314C18.2304 1.79834 18.7064 1.39756 19.2339 1.07422C19.3293 1.14808 19.3952 1.25343 19.42 1.37145C19.6697 2.05092 19.8076 2.76637 19.8284 3.48998C19.8782 3.8594 19.8906 4.2329 19.8655 4.60481C19.9404 4.86327 19.9404 5.08727 19.7543 5.23632Z" fill="#B8572A"/>
<path d="M5.26128 1.11133C5.8977 1.48093 6.45415 1.97354 6.8982 2.56044C6.9723 2.67244 7.00934 2.74653 6.8982 2.85767C6.06825 3.53152 5.35233 4.33472 4.77796 5.23638C4.71418 5.19913 4.66268 5.14406 4.62977 5.07794C4.59686 5.01182 4.58399 4.93753 4.59272 4.86419C4.54828 3.76176 4.67352 2.65904 4.96405 1.59465C4.96795 1.49535 4.99734 1.39873 5.04939 1.31408C5.10145 1.22943 5.17442 1.15961 5.26128 1.11133Z" fill="#B8572A"/>
<path d="M17.8959 1.40555C17.4209 1.58431 16.9898 1.86315 16.632 2.22316C16.4797 2.42276 16.2592 2.55939 16.0127 2.60705C15.7661 2.6547 15.5107 2.61006 15.2949 2.48162C14.0689 1.94529 12.7201 1.7526 11.393 1.9242C10.4328 1.99474 9.49706 2.26034 8.64297 2.70476C8.53183 2.77885 8.45688 2.7418 8.34574 2.66685C7.86241 2.29553 7.417 1.89146 6.89663 1.55288C6.81263 1.48376 6.70812 1.44438 6.5994 1.44088C6.26512 1.18242 5.96703 0.923954 5.5957 0.660323C5.91549 0.699004 6.2213 0.813942 6.4874 0.995462C7.08323 1.34962 7.64327 1.76077 8.15964 2.22316C8.2279 2.31131 8.32614 2.37133 8.43573 2.39182C8.54532 2.4123 8.65862 2.39183 8.75411 2.33429C9.84043 1.82072 11.0271 1.55435 12.2287 1.55435C13.4303 1.55435 14.617 1.82072 15.7033 2.33429C15.7907 2.38728 15.8937 2.40883 15.995 2.39535C16.0964 2.38188 16.1901 2.3342 16.2607 2.2602C16.9146 1.63275 17.6681 1.11803 18.4904 0.737C18.6024 0.699092 18.6765 0.662046 18.7876 0.625C18.8246 0.625 18.8246 0.625 18.8996 0.662046C18.5274 0.920508 18.2302 1.17897 17.8959 1.40555Z" fill="#F4CB71"/>
<path d="M3.14387 16.0847C3.17658 15.8785 3.23927 15.6783 3.32996 15.4902C3.55488 16.1234 3.92351 16.6958 4.40689 17.1625C4.73545 17.4967 5.12733 17.762 5.55963 17.943C5.85686 18.0912 5.85686 18.2403 5.59667 18.4255C5.31827 18.6174 5.08894 18.8721 4.92726 19.169C4.86331 19.1762 4.7986 19.1662 4.73983 19.14C4.68105 19.1138 4.63036 19.0723 4.59298 19.02C3.89382 18.4708 3.40667 17.6962 3.21452 16.8282C3.11862 16.5927 3.09289 16.3345 3.14042 16.0847" fill="#E08432"/>
<path d="M5.26085 1.11131C4.81744 2.29676 4.62754 3.56201 4.70343 4.8254C4.71008 4.96447 4.73499 5.10206 4.77752 5.23463C4.62934 5.53186 4.48029 5.8291 4.29506 6.16337C4.17407 5.90878 4.12264 5.62668 4.14602 5.34577C4.00298 4.13643 4.10406 2.91067 4.44325 1.74109C4.48029 1.59291 4.55439 1.44386 4.59229 1.29567C4.77752 0.778751 4.77752 0.778751 5.26085 1.10958" fill="#CF722E"/>
<path d="M19.755 5.23378C19.8664 4.12658 19.791 3.00853 19.5319 1.92633C19.4289 1.64682 19.3426 1.36143 19.2734 1.07168L19.3105 1.03463C19.7197 0.776171 19.7197 0.776172 19.9058 1.22073C20.2446 2.08496 20.4198 3.0046 20.4227 3.93285C20.4427 4.57901 20.4055 5.22567 20.3116 5.86529C20.2994 5.95455 20.2745 6.04159 20.2375 6.12375C20.0885 5.82652 19.9403 5.52928 19.7542 5.23205" fill="#CF722E"/>
<path d="M11.2815 21.7344C11.577 21.8988 11.9095 21.9852 12.2477 21.9852C12.5859 21.9852 12.9184 21.8988 13.2139 21.7344C13.2139 22.0687 13.251 22.3659 13.251 22.7002C13.251 22.8863 13.2139 22.9233 13.0649 22.9233H11.428C11.2789 22.9233 11.2048 22.8863 11.2419 22.7381C11.2727 22.4044 11.285 22.0694 11.2789 21.7344" fill="#DF8432"/>
<path d="M3.14307 16.0859C3.17479 16.7003 3.34911 17.2989 3.65222 17.8342C3.95533 18.3695 4.3789 18.827 4.88941 19.1702C4.8057 19.3609 4.74357 19.5603 4.70418 19.7647C4.66627 19.9138 4.62922 19.9508 4.51809 19.8388C3.93765 19.4244 3.49563 18.8446 3.24972 18.1751C3.00382 17.5056 2.96545 16.7776 3.13962 16.0859" fill="#DCDCDC"/>
<path d="M11.9876 18.6872C11.8697 18.6488 11.7613 18.5857 11.6698 18.5021C11.5782 18.4185 11.5055 18.3163 11.4565 18.2023C11.4076 18.0884 11.3835 17.9653 11.3859 17.8413C11.3883 17.7173 11.4171 17.5953 11.4705 17.4833C11.5238 17.3713 11.6004 17.272 11.6951 17.192C11.7899 17.112 11.9006 17.0532 12.0199 17.0193C12.1393 16.9855 12.2644 16.9776 12.3871 16.996C12.5097 17.0144 12.627 17.0588 12.7311 17.1261C12.8365 17.269 12.901 17.4378 12.9179 17.6145C12.9348 17.7912 12.9034 17.9692 12.8271 18.1294C12.7508 18.2897 12.6324 18.4262 12.4845 18.5245C12.3367 18.6227 12.1649 18.679 11.9876 18.6872Z" fill="#F3DF5A"/>
<path d="M7.04539 15.343C7.00834 15.1199 7.08244 15.0846 7.26853 15.1569C8.46292 15.5894 9.7155 15.8401 10.9843 15.9004C11.3557 15.9004 11.3927 15.9375 11.3557 16.3838C11.3186 16.7181 11.0972 16.532 10.9473 16.569C10.9103 16.569 10.8362 16.532 10.7983 16.532C10.8362 16.4579 10.8732 16.4579 10.9473 16.4208C9.5886 16.3208 8.26282 15.9546 7.04539 15.343Z" fill="#A22B2A"/>
<path d="M13.6595 16.4934C13.1762 16.6045 13.1426 16.5675 13.1426 16.1221C13.1426 15.8989 13.2546 15.8636 13.4398 15.8636C14.4077 15.8272 15.368 15.6774 16.301 15.4173C16.6282 15.3354 16.9509 15.2361 17.2676 15.1201C17.3788 15.083 17.4908 15.046 17.4537 15.2312C17.242 15.46 16.9723 15.627 16.6732 15.7146C15.7127 16.0645 14.7111 16.289 13.6931 16.3822C13.6561 16.3822 13.582 16.3443 13.619 16.4193C13.6229 16.4474 13.6359 16.4734 13.6561 16.4934" fill="#A22B2A"/>
<path d="M8.97698 22.4411C9.55875 22.3035 10.1712 22.3961 10.6863 22.6995C10.6863 23.0338 10.5751 23.294 10.2409 23.3681C9.90732 23.4051 9.5707 23.4051 9.23716 23.3681C9.23716 23.2199 9.38535 23.2199 9.4603 23.2199C9.31478 23.0929 9.17805 22.9562 9.05107 22.8107C8.97698 22.6995 8.90289 22.5884 8.97698 22.4393" fill="#FCFCFA"/>
<path d="M13.8457 22.7012C14.0936 22.5498 14.369 22.4491 14.656 22.4047C14.943 22.3604 15.236 22.3733 15.518 22.4427C15.6661 22.5539 15.555 22.6288 15.518 22.74C15.3723 22.9723 15.183 23.1741 14.9605 23.3344C14.7744 23.4835 14.5522 23.3715 14.329 23.3715C13.9947 23.2974 13.8457 23.113 13.8457 22.7029" fill="#FFFCFB"/>
<path d="M13.6603 16.4955C13.5113 16.4585 13.252 16.5696 13.252 16.4214C13.252 16.2353 13.5104 16.3465 13.6233 16.3094C14.594 16.2046 15.5523 16.0055 16.4844 15.7149C16.8187 15.6038 17.116 15.4177 17.4511 15.2695C17.4881 15.4548 17.3391 15.4918 17.1926 15.5668C16.2684 16.0133 15.276 16.3022 14.2565 16.4214C14.061 16.4643 13.8621 16.4891 13.662 16.4955" fill="#C03433"/>
<path d="M7.04492 15.3432C7.15606 15.2691 7.23101 15.3432 7.34215 15.4173C8.37587 15.9219 9.50083 16.2126 10.6496 16.2719C10.8374 16.2782 11.0242 16.3033 11.207 16.3469C11.2811 16.3469 11.3552 16.3469 11.3182 16.458C11.3182 16.5321 11.2441 16.5321 11.17 16.5321H10.8357C9.59295 16.4575 8.37872 16.1288 7.26806 15.5663C7.15606 15.4922 7.04492 15.4543 7.04492 15.3432Z" fill="#C43533"/>
<path d="M14.291 23.3682C14.9225 23.4423 15.1457 22.9219 15.4799 22.5506V22.4395H15.5919C15.8039 22.5081 16.0043 22.6083 16.1864 22.7367C15.9782 23.0293 15.6824 23.2481 15.3417 23.3616C15.001 23.4751 14.6331 23.4774 14.291 23.3682Z" fill="#D9D9D8"/>
<path d="M8.97697 22.4395C9.08811 22.8108 9.42325 22.9564 9.64552 23.2571C9.53439 23.3682 9.31125 23.22 9.20011 23.3682C9.00863 23.3366 8.82631 23.2638 8.66579 23.1548C8.50527 23.0457 8.37039 22.9031 8.27051 22.7367C8.41955 22.6626 8.5686 22.5506 8.71679 22.4782C8.80466 22.4867 8.89328 22.474 8.97525 22.4412" fill="#D9D9D9"/>
<path d="M11.9883 18.688C12.7688 18.3537 12.88 18.1306 12.6947 17.0898C12.8844 17.1971 13.0275 17.3711 13.096 17.5779C13.1646 17.7848 13.1538 18.0097 13.0657 18.209C12.9775 18.4083 12.8185 18.5678 12.6193 18.6563C12.4202 18.7448 12.1953 18.7561 11.9883 18.688Z" fill="#F9F8F6"/>
<path d="M12.2854 16.4203C12.0993 16.4203 11.9141 16.5314 11.9141 16.1971C11.9141 15.8999 12.0622 15.9387 12.2483 15.9387C12.4344 15.9387 12.6197 15.8646 12.6197 16.1971C12.6197 16.5297 12.3965 16.3832 12.2854 16.4203Z" fill="#C3C3C2"/>
<path d="M9.2373 23.3694C9.57161 23.3508 9.90669 23.3508 10.241 23.3694C9.91053 23.4434 9.56777 23.4434 9.2373 23.3694Z" fill="#D9D9D9"/>
<path d="M6.6734 7.87148C6.66592 7.5568 6.78255 7.25182 6.99808 7.02243C7.21361 6.79303 7.51075 6.65764 7.82528 6.64551C8.14428 6.6171 8.46189 6.71341 8.71138 6.91423C8.96087 7.11504 9.12283 7.40472 9.16325 7.72243C9.20516 7.8949 9.18302 8.07672 9.10093 8.23408C9.01884 8.39144 8.8824 8.51364 8.71697 8.57794C8.26966 8.80468 7.75782 8.8701 7.26786 8.76317C7.07616 8.71417 6.90936 8.59598 6.79961 8.43134C6.68985 8.26671 6.6449 8.06728 6.6734 7.87148Z" fill="#2F201C"/>
<path d="M16.7809 8.80187C16.5276 8.78494 16.2776 8.73483 16.0374 8.65282C15.9068 8.62199 15.7849 8.56209 15.6806 8.47757C15.5764 8.39306 15.4926 8.28612 15.4355 8.16472C15.3783 8.04331 15.3493 7.91058 15.3506 7.77641C15.3519 7.64224 15.3835 7.51008 15.4429 7.3898C15.549 7.11449 15.7487 6.88535 16.007 6.74261C16.2652 6.59987 16.5654 6.55265 16.855 6.60925C17.1455 6.66573 17.4062 6.82411 17.5902 7.05584C17.7743 7.28757 17.8695 7.57741 17.8587 7.87313C17.8587 8.50463 17.4874 8.80187 16.7809 8.80187Z" fill="#2F201C"/>
<path d="M9.79534 5.34738C9.79198 5.45566 9.76502 5.56189 9.71636 5.65867C9.66769 5.75545 9.59849 5.84045 9.51358 5.90772C9.42867 5.97499 9.3301 6.02292 9.22476 6.04816C9.11941 6.07339 9.00982 6.07533 8.90365 6.05384C8.88333 6.05629 8.86273 6.05416 8.84335 6.0476C8.82397 6.04104 8.8063 6.03022 8.79165 6.01593C8.23423 5.94184 7.937 5.68166 7.97491 5.27329C8.02467 5.02955 8.16135 4.81222 8.35949 4.66179C8.55762 4.51137 8.80369 4.43812 9.05183 4.45569C9.26461 4.4849 9.4588 4.59253 9.59634 4.75749C9.73389 4.92244 9.80486 5.13282 9.79534 5.34738Z" fill="#FFFFFC"/>
<path d="M14.7373 5.34547C14.7361 5.13096 14.8158 4.92388 14.9604 4.76548C15.1051 4.60709 15.3041 4.50902 15.5179 4.49083C15.7655 4.48239 16.0077 4.56452 16.1991 4.72185C16.3906 4.87917 16.5181 5.10089 16.5578 5.34547C16.5654 5.44694 16.5454 5.54858 16.4998 5.6396C16.4543 5.73061 16.385 5.8076 16.2993 5.8624C16.1197 5.98027 15.9138 6.05207 15.6998 6.07146C15.4858 6.09084 15.2703 6.05721 15.0725 5.97354C14.9672 5.90583 14.8812 5.81216 14.8226 5.70155C14.7641 5.59095 14.735 5.46713 14.7382 5.34203" fill="#FFFFFC"/>
<path d="M10.836 8.83939C11.0346 8.58759 11.301 8.39782 11.6039 8.29249C11.9067 8.18716 12.2334 8.17066 12.5453 8.24493C12.7007 8.24656 12.8536 8.28462 12.9916 8.35607C13.1043 8.37453 13.2121 8.41535 13.3087 8.47612C13.4053 8.53689 13.4888 8.61638 13.5543 8.70992C13.6197 8.80345 13.6657 8.90913 13.6897 9.02074C13.7137 9.13234 13.715 9.24762 13.6938 9.35976C13.6706 9.56338 13.5974 9.7581 13.4807 9.92659C13.3641 10.0951 13.2076 10.2321 13.0252 10.3256C12.7668 10.4746 12.7668 10.4746 12.9882 10.7348C13.4706 10.9932 13.7308 10.9579 14.066 10.5487C14.1731 10.3927 14.2723 10.2314 14.3632 10.0654C14.376 10.0299 14.3969 9.99799 14.4243 9.97211C14.4517 9.94622 14.4848 9.92711 14.5209 9.91631C14.557 9.90551 14.5951 9.90331 14.6322 9.90989C14.6693 9.91648 14.7043 9.93166 14.7345 9.95423C14.7678 9.96958 14.7974 9.99184 14.8215 10.0195C14.8455 10.0472 14.8633 10.0797 14.8739 10.1148C14.8844 10.1499 14.8873 10.1869 14.8824 10.2232C14.8776 10.2596 14.865 10.2944 14.8456 10.3256C14.6924 10.7322 14.4036 11.0736 14.028 11.2922C13.9724 11.3236 13.9239 11.3662 13.8856 11.4174C13.8473 11.4686 13.8201 11.5272 13.8058 11.5894C13.7452 12.0889 13.5077 12.5501 13.1364 12.8895C13.0201 13.0193 12.8784 13.1237 12.72 13.1964C12.5617 13.2691 12.39 13.3084 12.2158 13.312C12.0416 13.3155 11.8686 13.2832 11.7074 13.2171C11.5462 13.1509 11.4003 13.0523 11.2789 12.9274C10.9131 12.5683 10.6775 12.0975 10.6095 11.5894C10.5986 11.5158 10.5733 11.445 10.535 11.3811C10.4967 11.3172 10.4462 11.2616 10.3863 11.2172C10.0516 10.989 9.79317 10.6654 9.64453 10.2885C9.62515 10.2574 9.61262 10.2225 9.60775 10.1862C9.60289 10.1498 9.60581 10.1129 9.61632 10.0778C9.62683 10.0426 9.64469 10.0102 9.66872 9.98248C9.69274 9.9548 9.72238 9.93254 9.75567 9.91718C9.7887 9.89661 9.82611 9.88409 9.86488 9.88064C9.90364 9.8772 9.94267 9.88292 9.97882 9.89734C10.015 9.91177 10.0472 9.93449 10.0729 9.96368C10.0987 9.99287 10.1172 10.0277 10.127 10.0654C10.204 10.2392 10.3043 10.4018 10.4251 10.5487C10.4882 10.64 10.5712 10.7159 10.6679 10.7706C10.7645 10.8253 10.8723 10.8574 10.9831 10.8646C11.0939 10.8717 11.2049 10.8536 11.3078 10.8118C11.4106 10.7699 11.5026 10.7053 11.577 10.6228C11.7252 10.4376 11.577 10.4005 11.465 10.2885C11.2094 10.1561 11.0072 9.93978 10.8922 9.67594C10.7773 9.41209 10.7565 9.11673 10.8335 8.83939" fill="#2F201C"/>
<path d="M10.8356 8.83984C10.7615 9.69449 11.244 10.1037 11.9504 10.401C11.8644 10.5075 11.7477 10.5851 11.6161 10.6232C11.4457 10.5602 11.2897 10.4634 11.1576 10.3387C11.0254 10.214 10.9197 10.0639 10.8468 9.89744C10.774 9.73096 10.7354 9.5515 10.7335 9.36979C10.7315 9.18807 10.7663 9.00783 10.8356 8.83984Z" fill="#CBCCCD"/>
<path d="M12.9902 10.6973C12.8227 10.6297 12.6709 10.5285 12.5439 10.4001C12.8171 10.3353 13.0693 10.2025 13.2774 10.0141C13.4854 9.82564 13.6424 9.58766 13.7337 9.32227C13.7895 9.43735 13.8087 9.56677 13.7887 9.69309C13.7687 9.8194 13.7104 9.93655 13.6217 10.0287C13.4735 10.2376 13.2838 10.4136 13.0643 10.5457C12.9902 10.5836 12.9161 10.5836 12.9902 10.6947" fill="#CCCECE"/>
<path d="M8.08534 7.05577C8.30848 7.09281 8.45667 7.1669 8.45667 7.42709C8.46041 7.47862 8.45366 7.53038 8.43681 7.57922C8.41997 7.62806 8.39338 7.67298 8.35866 7.71124C8.32394 7.7495 8.28181 7.78032 8.23483 7.80182C8.18785 7.82332 8.137 7.83506 8.08534 7.83632C7.97717 7.83542 7.87369 7.79198 7.79728 7.71541C7.72086 7.63883 7.67765 7.53527 7.67697 7.42709C7.67516 7.3746 7.68479 7.32235 7.7052 7.27395C7.72561 7.22556 7.75631 7.18219 7.79517 7.14686C7.83403 7.11153 7.88011 7.08508 7.93022 7.06935C7.98033 7.05362 8.03326 7.04898 8.08534 7.05577Z" fill="#F9F8F8"/>
<path d="M16.8558 7.5009C16.8477 7.59328 16.8049 7.67917 16.736 7.74121C16.6671 7.80326 16.5772 7.83684 16.4845 7.83518C16.3763 7.8345 16.2727 7.79129 16.1961 7.71488C16.1196 7.63846 16.0761 7.53498 16.0752 7.42681C16.074 7.32417 16.1117 7.22488 16.1808 7.14895C16.2498 7.07301 16.3451 7.02607 16.4474 7.01758C16.5068 7.02022 16.565 7.03511 16.6183 7.06133C16.6716 7.08754 16.719 7.12451 16.7573 7.16991C16.7957 7.2153 16.8242 7.26814 16.8412 7.32511C16.8581 7.38207 16.8631 7.44192 16.8558 7.5009Z" fill="#F7F7F7"/>
<path d="M12.247 9.24743C12.0216 9.25955 11.7958 9.23452 11.5785 9.17334C11.2813 9.02429 11.2813 8.80115 11.5406 8.61592C11.765 8.52065 12.0073 8.47466 12.2511 8.48105C12.4948 8.48745 12.7344 8.54607 12.9535 8.65297C13.1758 8.80115 13.1758 9.02429 12.9156 9.13629C12.8185 9.20139 12.7086 9.24498 12.5933 9.26415C12.478 9.28331 12.36 9.27761 12.247 9.24743Z" fill="#573E39"/>
<path d="M12.918 12.2576C12.8631 12.3898 12.7702 12.5027 12.6512 12.5821C12.5321 12.6615 12.3922 12.7039 12.2491 12.7039C12.1059 12.7039 11.966 12.6615 11.847 12.5821C11.7279 12.5027 11.635 12.3898 11.5801 12.2576C11.5953 12.2147 11.62 12.1758 11.6522 12.1436C11.6843 12.1114 11.7233 12.0868 11.7662 12.0715C11.9586 12.005 12.1645 11.9872 12.3655 12.0197C12.5665 12.0522 12.7563 12.1339 12.918 12.2576Z" fill="#E18981"/>
<path d="M12.9183 12.2583C12.4881 12.0908 12.0106 12.0908 11.5804 12.2583C11.4322 12.1472 11.3951 12.0352 11.6174 11.9999C12.0511 11.8516 12.5217 11.8516 12.9554 11.9999C13.1785 12.074 12.9924 12.186 12.9183 12.2583Z" fill="#EAAFA7"/>
</svg>
