<svg width="24" height="24" viewBox="0 0 24 24" fill="none" xmlns="http://www.w3.org/2000/svg">
<g clip-path="url(#clip0_720_13654)">
<path fill-rule="evenodd" clip-rule="evenodd" d="M12 24C5.4 24 0 18.6001 0 11.9402C0.06 5.34039 5.4 -0.0595034 12.06 0.000495202C18.66 0.0604941 24 5.40039 24 12.1202C23.94 18.6601 18.6 24 12 24Z" fill="white"/>
<path d="M11.9242 19.5631C6.35915 19.5631 1.84863 17.9552 1.84863 15.8009C1.84863 14.6767 3.07719 13.6639 5.04359 12.9505C6.57842 13.9354 9.15387 14.4401 12.0739 14.4401C14.9243 14.4401 17.444 13.824 18.9928 12.8809C20.8478 13.5874 21.9998 14.5723 21.9998 15.6582C21.9998 17.816 17.4893 19.5631 11.9242 19.5631Z" fill="#1E1E1E"/>
<path d="M11.9831 13.9562C7.76493 13.9562 4.34375 12.6336 4.34375 11.0014C4.34375 10.0965 5.39829 9.28555 7.05146 8.74609C8.23129 9.36211 9.99931 9.75539 11.9831 9.75539C13.9669 9.75539 15.7349 9.36211 16.9147 8.74609C18.5714 9.28903 19.6224 10.0965 19.6224 11.0014C19.6259 12.6336 16.2048 13.9562 11.9831 13.9562V13.9562Z" fill="#1E1E1E"/>
<path d="M11.9559 9.26506C8.69486 9.26506 6.0498 8.17223 6.0498 6.82882C6.0498 5.48541 8.69486 4.39258 11.9559 4.39258C15.217 4.39258 17.8621 5.48541 17.8621 6.82882C17.8621 8.17223 15.217 9.26506 11.9559 9.26506V9.26506Z" fill="#1E1E1E"/>
</g>
<defs>
<clipPath id="clip0_720_13654">
<rect width="24" height="24" fill="white"/>
</clipPath>
</defs>
</svg>
