<svg width="24" height="24" viewBox="0 0 24 24" fill="none" xmlns="http://www.w3.org/2000/svg">
<rect width="24" height="24" rx="4" fill="black"/>
<path d="M20.3861 9.0137C19.5916 9.06773 18.6655 9.23881 18.3248 9.39488C18.1436 9.47592 18.0987 9.53745 18.1513 9.63199C18.1761 9.67851 18.2055 9.69802 18.2954 9.72653C18.4007 9.76105 18.4069 9.77005 18.3341 9.79106C18.235 9.81958 18.2102 9.89311 18.2876 9.93813C18.3403 9.96815 18.348 9.98766 18.3046 9.98766C18.2659 9.98766 18.1792 9.89011 18.0894 9.74154C17.9159 9.46091 17.6294 9.30934 17.0719 9.20429C16.9232 9.17578 16.8319 9.17127 16.3363 9.16527C15.74 9.15927 15.4009 9.17277 14.9936 9.2223C14.7504 9.25081 14.6436 9.28233 14.5754 9.34536C14.5398 9.37687 14.5305 9.42489 14.5522 9.45641C14.5677 9.48042 14.6235 9.50593 14.7117 9.53144L14.7892 9.55395L14.6544 9.647C14.5801 9.69802 14.5058 9.75805 14.4887 9.78056C14.4593 9.81958 14.4577 9.82858 14.4779 9.94564C14.5027 10.1062 14.4918 10.1587 14.3524 10.5324C14.2084 10.9181 13.2513 13.2292 13.2358 13.2292C13.2049 13.2292 13.2281 13.0341 13.2854 12.7925C13.3907 12.3558 13.4201 12.2537 13.6106 11.6384C13.9405 10.5699 14.0907 9.99216 14.1449 9.56296C14.1712 9.35886 14.165 9.31984 14.1077 9.29133C14.0566 9.26582 13.7531 9.19829 13.5564 9.16977C12.9447 9.08123 12.1518 9.12175 12.0527 9.24781C11.9907 9.32735 12.0588 9.37987 12.2416 9.39338C12.3159 9.39938 12.3965 9.41439 12.4197 9.42489C12.4584 9.4444 12.4615 9.45191 12.4538 9.50893C12.4445 9.56746 12.4476 9.57496 12.5188 9.63649L12.5916 9.70252L12.5808 9.81808C12.5699 9.93213 12.3562 10.8836 12.3221 10.9676C12.302 11.0171 12.2664 11.0381 12.206 11.0381C12.1084 11.0381 12.0418 10.9391 11.9752 10.696C11.9195 10.4979 11.8777 10.4034 11.7398 10.1827C11.475 9.75955 11.1591 9.35736 11.0429 9.30334C10.9918 9.27782 10.9361 9.27482 10.5288 9.27032C9.82412 9.26282 9.45398 9.29733 9.35487 9.37987C9.31925 9.40989 9.3146 9.42489 9.31615 9.49693C9.31925 9.62599 9.31305 9.62899 9.07146 9.64399C8.95686 9.65 8.79115 9.66651 8.70133 9.68001C8.47832 9.71303 7.96106 9.82108 7.90221 9.84659C7.87588 9.8586 7.83407 9.89761 7.80774 9.93213C7.78296 9.96815 7.70398 10.0357 7.63429 10.0837C7.51659 10.1632 7.4469 10.2383 7.4469 10.2833C7.4469 10.3178 7.50575 10.3613 7.57389 10.3778C7.84336 10.4454 7.88053 10.4694 7.88053 10.5789C7.88053 10.7155 7.80465 10.8446 7.49336 11.2407C7.28739 11.5049 7.24403 11.5649 7.1604 11.715L7.09381 11.8365L7.0427 11.742C6.90487 11.4899 6.68031 11.3758 6.24668 11.3368C6.14447 11.3278 6.03606 11.3158 6.00664 11.3098L5.95398 11.2993L6.09956 11.1942C6.18009 11.1357 6.39226 10.9901 6.57035 10.8716C6.77788 10.732 6.925 10.6225 6.9823 10.5624C7.25796 10.2788 7.24248 9.94714 6.94668 9.76105C6.72677 9.62148 6.38761 9.48792 6.08252 9.41739C5.56217 9.29883 4.68717 9.23881 3.87566 9.26582C3.31814 9.28533 3.14314 9.31384 3.00686 9.41289C2.96659 9.4414 2.95575 9.45941 2.95575 9.49843C2.95575 9.58697 3.05332 9.64399 3.31814 9.70853C3.40332 9.72953 3.47765 9.75205 3.4854 9.75955C3.49314 9.76705 3.44513 9.79707 3.3708 9.82858C3.21283 9.89911 3.15708 9.94564 3.15708 10.0117C3.15708 10.0702 3.20199 10.1272 3.28872 10.1767L3.35686 10.2158L3.29646 10.2938C3.26239 10.3373 3.20819 10.4289 3.17412 10.4994C3.11062 10.6315 2.52832 12.2882 2.13496 13.4573C2.00796 13.834 1.89491 14.1611 1.88097 14.1851C1.86858 14.2091 1.81593 14.2737 1.76637 14.3277C1.56195 14.5468 1.50929 14.6608 1.57743 14.7449L1.60686 14.7824L1.55265 14.8754C1.52478 14.9265 1.5 14.9745 1.5 14.9835C1.5 14.9925 1.53097 15 1.57124 15C1.62544 15 1.73075 14.9655 2.00951 14.8574C2.21084 14.7794 2.50819 14.6788 2.66925 14.6323C3.10597 14.5078 4.87765 14.0411 5.28186 13.9435C5.47389 13.897 5.67832 13.8385 5.73562 13.8144C5.79292 13.7889 5.84093 13.7694 5.84403 13.7694C5.84712 13.7694 5.79137 13.8865 5.72013 14.029C5.53429 14.3997 5.50487 14.5273 5.59624 14.5678C5.67522 14.6023 5.92611 14.4913 6.17235 14.3112C6.34425 14.1851 6.60133 13.9225 6.97146 13.4948C7.14956 13.2907 7.32301 13.1001 7.35863 13.0716C7.49181 12.965 8.11903 12.5659 8.16549 12.5584C8.20111 12.5539 8.22124 12.5584 8.23673 12.5779C8.27389 12.6199 8.2615 12.806 8.20885 13.0341C8.18252 13.1451 8.13606 13.3417 8.10509 13.4693C8.0323 13.7769 8.02301 13.8625 8.05708 13.912L8.08341 13.9495L8.14381 13.9195C8.18252 13.9 8.23053 13.891 8.27854 13.8925C8.31881 13.894 8.39624 13.8895 8.44889 13.882L8.54646 13.87L8.53562 14.014L8.52633 14.1581L8.56659 14.1761C8.61925 14.1986 8.68274 14.1611 8.80819 14.032C8.94137 13.8925 9.01571 13.7799 9.12566 13.5473C9.24801 13.2907 9.27434 13.2202 9.4292 12.7309C9.57478 12.2717 9.63673 12.1397 9.78695 11.9671C9.95575 11.772 10.0069 11.6759 9.97743 11.6024C9.96504 11.5709 9.86438 11.5709 9.74358 11.6009C9.60575 11.6354 9.52832 11.6309 9.49735 11.5859C9.47412 11.5514 9.47412 11.5409 9.49889 11.4328C9.52677 11.3143 9.71726 10.657 9.80243 10.3853C9.85354 10.2248 9.91858 10.1377 9.98673 10.1377C10.0347 10.1377 10.1153 10.2248 10.1385 10.2998C10.1741 10.4124 10.1772 10.6285 10.1509 10.9181C10.0982 11.4764 10.0487 11.6699 9.86903 12.0256C9.73274 12.2942 9.71881 12.3438 9.77146 12.3798C9.79159 12.3933 9.82412 12.4038 9.8427 12.4038C9.87522 12.4038 9.87832 12.4113 9.87832 12.4743C9.87832 12.6139 9.78075 12.926 9.65996 13.1811C9.62588 13.2517 9.53606 13.4183 9.46018 13.5518C9.30221 13.8265 9.24801 13.948 9.18761 14.1521C9.15354 14.2722 9.14889 14.3067 9.15973 14.3697L9.17367 14.4447L9.25575 14.4072C9.30221 14.3862 9.36106 14.3697 9.38584 14.3697C9.41217 14.3697 9.49425 14.3427 9.57013 14.3112L9.70642 14.2527L9.73119 14.3292C9.74513 14.3727 9.76062 14.4177 9.76527 14.4297C9.77765 14.4688 9.87832 14.3427 9.98208 14.1581C10.0781 13.9855 10.2872 13.5128 10.521 12.9365C10.6511 12.6199 10.8447 12.1096 10.8633 12.0376C10.8772 11.9791 10.8973 11.9761 10.9066 12.0316C10.9113 12.0586 10.9175 12.3663 10.9221 12.7159C10.9283 13.0956 10.9376 13.3762 10.9485 13.4153C10.9717 13.5053 11.0352 13.5758 11.1513 13.6344C11.2659 13.6944 11.3635 13.7019 11.4316 13.6584C11.506 13.6088 11.7925 13.1706 12.2757 12.3648C12.4181 12.1292 12.5265 11.9611 12.5513 11.9461L12.59 11.9221L12.5808 12.0841C12.5684 12.2687 12.4785 12.6424 12.3608 12.9936C12.2927 13.2007 12.0914 13.7229 11.856 14.3037C11.7383 14.5918 11.6856 14.7449 11.6965 14.7554C11.7042 14.7644 12.1905 14.5048 12.2834 14.4417C12.3237 14.4147 12.381 14.3607 12.4104 14.3232C12.4956 14.2136 12.5962 14.1296 12.6319 14.1401C12.6644 14.1476 12.6644 14.1476 12.6334 14.2211C12.5962 14.3157 12.5962 14.3472 12.635 14.3847C12.6861 14.4342 12.81 14.4252 13.0841 14.3472C13.2157 14.3112 13.4046 14.2527 13.5022 14.2196C13.8801 14.0876 14.1712 14.035 14.6715 14.0095C15.5093 13.966 16.1303 13.876 16.5097 13.7454C16.6754 13.6884 16.9294 13.5578 17.0765 13.4543C17.2113 13.3597 17.2345 13.3507 17.2639 13.3837C17.2763 13.3988 17.267 13.4228 17.2237 13.4813C17.1741 13.5518 17.1695 13.5638 17.1865 13.5983C17.202 13.6344 17.1973 13.6434 17.1029 13.7439C16.9898 13.8655 16.9604 13.939 17.0115 13.9765C17.0456 14.0005 17.1137 13.999 17.7301 13.9495C18.3635 13.9 19.3051 13.7814 19.8827 13.6779C20.6091 13.5473 20.9095 13.4708 20.9544 13.4033C20.9777 13.3717 20.9668 13.3087 20.9343 13.2802C20.9064 13.2562 20.8723 13.2517 20.6973 13.2472C20.5858 13.2442 20.4883 13.2367 20.4805 13.2292C20.4728 13.2217 20.5347 13.1736 20.6199 13.1181C20.7051 13.0656 20.7965 12.9981 20.8259 12.968L20.877 12.917L20.8336 12.8945C20.8088 12.8825 20.7686 12.869 20.7423 12.863C20.6834 12.8495 20.6571 12.827 20.6571 12.7955C20.6571 12.7489 20.75 12.6469 20.8801 12.5479C21.052 12.4173 21.1062 12.3558 21.1062 12.2912C21.1062 12.1832 21.0117 12.1532 20.7221 12.1712C20.479 12.1862 20.2591 12.2177 20.0299 12.2717C19.8192 12.3197 19.7743 12.3197 19.7743 12.2717C19.7743 12.2087 20.1909 10.4904 20.2622 10.2623C20.2947 10.1542 20.335 10.1287 20.4821 10.1167C20.6865 10.0987 21.6978 9.98916 21.7923 9.97265C21.9053 9.95464 22.0896 9.8736 22.1299 9.82558C22.1934 9.74754 22.15 9.69502 21.992 9.6575L21.8883 9.63349L22.0199 9.59897C22.1546 9.56296 22.2723 9.51193 22.26 9.49092C22.2553 9.48492 22.1996 9.46241 22.1361 9.4399L22.0184 9.39788L22.0509 9.36486C22.0679 9.34686 22.1252 9.31384 22.1794 9.28983C22.4086 9.18928 22.5 9.14426 22.5 9.13226C22.5 9.08423 22.2445 9.03621 21.8573 9.0122C21.5832 8.99569 20.6509 8.99569 20.3861 9.0137ZM16.6847 10.0897C16.6584 10.1122 16.6181 10.1452 16.5918 10.1647C16.5361 10.2083 16.5485 10.2188 16.6909 10.2443C16.8396 10.2698 16.8442 10.2758 16.7746 10.3283C16.6677 10.4109 16.6553 10.4154 16.0591 10.5939C15.85 10.657 15.675 10.7035 15.6688 10.6975C15.6611 10.69 15.6889 10.5804 15.7277 10.4514L15.7989 10.2173L16.025 10.1752C16.1489 10.1527 16.3487 10.1152 16.4679 10.0927C16.742 10.0402 16.742 10.0402 16.6847 10.0897ZM5.50332 10.1662C5.45221 10.2353 5.45066 10.2398 5.47699 10.2638C5.49248 10.2773 5.5281 10.2878 5.55442 10.2878C5.58075 10.2878 5.62102 10.2953 5.6458 10.3043L5.68916 10.3208L5.65044 10.3508C5.55907 10.4244 5.14093 10.5924 4.84204 10.675C4.62832 10.735 4.55088 10.747 4.55088 10.72C4.55243 10.6645 4.59735 10.2833 4.60199 10.2773C4.60664 10.2743 4.74757 10.2383 4.91637 10.1978C5.20907 10.1272 5.36858 10.0987 5.49867 10.0942L5.55752 10.0927L5.50332 10.1662ZM19.3856 10.2878C19.4212 10.2878 19.4228 10.2908 19.4135 10.3808C19.4042 10.4889 19.1673 11.4343 19.0929 11.6609C19.0263 11.8635 18.8761 12.1607 18.8033 12.2357C18.7383 12.3017 18.7584 12.2942 18.2954 12.4113C18.0677 12.4698 17.854 12.5133 17.854 12.5013C17.854 12.4998 17.9004 12.3783 17.9577 12.2297C18.0569 11.9701 18.06 11.9566 18.0615 11.817C18.0631 11.6865 18.0584 11.6669 18.0166 11.5859C17.9593 11.4764 17.8555 11.3968 17.7285 11.3623C17.679 11.3488 17.5566 11.3338 17.456 11.3278C17.3553 11.3233 17.2639 11.3143 17.2546 11.3098C17.2423 11.3038 17.2996 11.2557 17.4002 11.1882C17.6511 11.0186 17.7874 10.9061 17.9314 10.753C18.1931 10.4739 18.2628 10.4199 18.4038 10.3853C18.523 10.3568 19.2013 10.2743 19.271 10.2803C19.3144 10.2848 19.3655 10.2878 19.3856 10.2878ZM8.70133 10.9136C8.70133 10.9256 8.66261 11.1642 8.64712 11.2588L8.63783 11.3083H8.88097C9.16438 11.3083 9.16128 11.2978 8.93053 11.4688C8.71991 11.6234 8.71372 11.6384 8.76327 11.8935C8.77876 11.9701 8.77876 12.0121 8.76327 12.0781C8.75398 12.1247 8.74004 12.1667 8.73385 12.1712C8.71217 12.1832 8.60066 12.0796 8.47677 11.9311C8.41018 11.853 8.35442 11.7885 8.34978 11.7885C8.3281 11.7885 8.25996 11.835 8.13916 11.9326C8.00288 12.0436 7.91615 12.0976 7.90066 12.0826C7.89137 12.0736 7.9208 12.0136 8.07102 11.7405C8.18252 11.5364 8.18562 11.4944 8.09425 11.4358L8.02765 11.3923L8.14381 11.3638C8.33584 11.3158 8.33739 11.3158 8.45509 11.1552C8.59447 10.9646 8.70133 10.8611 8.70133 10.9136ZM16.6615 11.898C16.6476 11.9086 16.5934 11.9491 16.5407 11.9881C16.4881 12.0286 16.4447 12.0646 16.4447 12.0706C16.4447 12.0766 16.4757 12.0976 16.5144 12.1187L16.5825 12.1547L16.5515 12.1877C16.4912 12.2507 16.1489 12.4023 15.9011 12.4773C15.4288 12.6199 15.0509 12.7234 15.0416 12.7144C15.0323 12.7054 15.3188 12.0661 15.3436 12.0391C15.3591 12.0241 16.1628 11.9101 16.3673 11.895C16.6243 11.8755 16.6894 11.8755 16.6615 11.898ZM5.74027 11.9176L5.79757 11.9416L5.74336 11.9851C5.71394 12.0106 5.6427 12.0601 5.5854 12.0976C5.5281 12.1352 5.47699 12.1787 5.47235 12.1952C5.45841 12.2342 5.49867 12.2912 5.55907 12.3227L5.60708 12.3453L5.54668 12.3888C5.45221 12.4563 5.35465 12.4863 4.77544 12.6289C4.22721 12.7655 4.08628 12.7955 4.08628 12.7835C4.08628 12.7489 4.28296 12.1952 4.30155 12.1742C4.34956 12.1262 4.93805 11.9731 5.27102 11.9236C5.50951 11.889 5.66438 11.886 5.74027 11.9176Z" fill="#FFD11B"/>
</svg>
