<svg width="24" height="24" viewBox="0 0 24 24" fill="none" xmlns="http://www.w3.org/2000/svg">
<circle cx="12" cy="12" r="12" fill="#4520E6"/>
<path d="M17.5466 9.28217C17.5466 8.15969 17.01 7.16612 16.1853 6.55614L18.4111 4.27344L17.0806 4.27973L15.3116 6.09394C14.9835 5.98075 14.634 5.92101 14.2692 5.92101H8.18053V14.7657L15.5109 7.24787C16.17 7.67233 16.6115 8.42695 16.6115 9.28532C16.6115 10.609 15.5599 11.6875 14.2692 11.6875H14.0761L5.91797 20.0543H7.2424L8.84274 18.413H14.2692C16.078 18.413 17.5466 16.9038 17.5466 15.0518C17.5466 13.8287 16.9058 12.7597 15.9523 12.1717C16.9058 11.5775 17.5466 10.5053 17.5466 9.28217ZM9.1156 12.4453V6.87999H14.2692C14.3581 6.87999 14.444 6.88628 14.5298 6.89571L9.1156 12.4453ZM16.6115 15.0455C16.6115 16.3692 15.5599 17.4477 14.2692 17.4477H9.77782L14.444 12.6622C15.6519 12.7565 16.6115 13.7847 16.6115 15.0455Z" fill="white"/>
</svg>
