<svg width="24" height="24" viewBox="0 0 24 24" fill="none" xmlns="http://www.w3.org/2000/svg">
<path d="M11.3508 23.93C17.5883 23.93 22.6449 18.8735 22.6449 12.6359C22.6449 6.39835 17.5883 1.3418 11.3508 1.3418C5.1132 1.3418 0.0566406 6.39835 0.0566406 12.6359C0.0566406 18.8735 5.1132 23.93 11.3508 23.93Z" fill="#8DC351"/>
<path d="M15.0208 8.75461C14.4561 7.34286 13.1149 7.27225 11.4913 7.55461L10.9266 5.57812L9.72664 5.93106L10.2913 7.83698C10.009 7.90755 9.65606 8.04873 9.30312 8.11931L8.73839 6.14286L7.53839 6.49579L8.10313 8.47225C7.82076 8.54286 7.609 8.61343 7.32664 8.684L5.70312 9.24873L6.05606 10.5193C6.05606 10.5193 6.9737 10.237 6.90313 10.237C7.39721 10.0958 7.609 10.3076 7.75019 10.5899L8.38546 12.8487C8.38546 12.8487 8.45606 12.8487 8.52664 12.8487L8.38546 12.9193L9.30312 16.0958C9.30312 16.237 9.30312 16.5193 8.95019 16.6605L8.10313 16.9429L8.24427 18.4252L9.79725 18.0017C10.0796 17.9311 10.3619 17.8605 10.6443 17.7899L11.209 19.7664L12.409 19.4134L11.8443 17.4369C12.1972 17.3664 12.4796 17.2958 12.8325 17.1546L13.3972 19.1311L14.5972 18.7781L14.0325 16.8017C16.009 16.0958 17.2796 15.1781 16.9266 13.2017C16.6443 11.6487 15.7266 11.1546 14.4561 11.2252C15.1619 10.5193 15.4443 9.81343 15.0208 8.75461ZM14.5972 13.5546C15.0208 15.0369 12.409 15.6017 11.5619 15.884L10.7855 13.2017C11.6325 12.9899 14.1031 12.0017 14.5972 13.5546ZM12.9031 9.95461C13.3266 11.2958 11.1384 11.7899 10.4325 12.0017L9.72664 9.60167C10.4325 9.38992 12.5502 8.54286 12.9031 9.95461Z" fill="white"/>
</svg>
