<svg width="24" height="24" viewBox="0 0 24 24" fill="none" xmlns="http://www.w3.org/2000/svg">
<g clip-path="url(#clip0_720_13753)">
<path d="M5.20341 15.596C5.20341 17.3446 5.19667 19.0933 5.20341 20.845C5.20941 22.6446 6.55317 23.9899 8.36033 23.9944C10.5349 24.0004 12.7095 24.0079 14.8841 23.9944C16.677 23.9944 18.4114 23.3564 19.777 22.1947C20.629 21.4903 21.3211 20.6124 21.8071 19.6195C22.2931 18.6266 22.562 17.5415 22.5957 16.4365C22.6294 15.3315 22.4272 14.232 22.0025 13.2113C21.5779 12.1906 20.9406 11.2722 20.1331 10.5172C19.5893 9.9921 18.9631 9.55971 18.2795 9.23716C18.1542 9.73731 18.0448 10.212 17.8573 10.6619C16.563 13.7581 13.838 15.5847 10.4869 15.599C8.7255 15.6072 6.96257 15.6035 5.20265 15.605C5.20265 14.2552 5.20265 12.9055 5.20715 11.5595C5.2154 9.75531 6.5569 8.41006 8.35656 8.41006C10.3669 8.40556 12.3781 8.42355 14.3884 8.4033C15.6422 8.39056 16.8502 8.57052 17.9945 9.09542C18.2292 9.20265 18.2945 9.13743 18.3252 8.90122C18.4063 8.23182 18.4113 7.55537 18.3402 6.88484C17.936 3.11529 14.5909 0.0536313 10.8019 0.0183879C8.56655 -0.00185828 6.33118 0.00564031 4.0951 0.0183879C3.68807 0.0167838 3.28478 0.095995 2.90862 0.251474C2.53245 0.406953 2.19089 0.635602 1.90377 0.924114C1.61666 1.21263 1.38969 1.55528 1.23604 1.9322C1.08239 2.30911 1.00512 2.71278 1.0087 3.1198C0.999704 6.25421 0.999704 9.38836 1.0087 12.5223C1.00881 13.2279 1.25165 13.9121 1.6965 14.4599C2.14135 15.0077 2.76112 15.3858 3.45175 15.5307C4.02989 15.6522 4.61627 15.581 5.20341 15.596Z" fill="#FEFEFE"/>
<path d="M5.20334 15.5963C4.61845 15.5813 4.02981 15.6525 3.44867 15.5213C2.75804 15.3764 2.13827 14.9983 1.69342 14.4505C1.24858 13.9027 1.00573 13.2186 1.00562 12.5129C0.998125 9.37848 0.998125 6.24433 1.00562 3.11042C1.00245 2.70371 1.07998 2.30041 1.23377 1.9239C1.38755 1.54738 1.61454 1.20511 1.90154 0.916931C2.18853 0.628748 2.52984 0.40036 2.90572 0.245023C3.2816 0.0896858 3.68458 0.0104728 4.09129 0.0119732C6.32737 -2.4551e-05 8.5627 -0.00752315 10.798 0.0119732C14.5893 0.0472166 17.9322 3.10892 18.3364 6.87846C18.4075 7.549 18.4025 8.22542 18.3214 8.89482C18.2936 9.13103 18.2254 9.19477 17.9907 9.08904C16.8464 8.56414 15.6384 8.38418 14.3846 8.39692C12.3742 8.41717 10.3631 8.39691 8.35275 8.40366C6.55308 8.40816 5.20933 9.75341 5.20334 11.5531C5.19734 12.9028 5.20333 14.2526 5.19883 15.5986L5.20334 15.5963Z" fill="#00CEAA"/>
<path d="M5.19785 15.6022C6.95927 15.6022 8.72221 15.6022 10.4821 15.5962C13.8333 15.5819 16.556 13.7553 17.8525 10.6591C18.04 10.2092 18.1524 9.73678 18.2747 9.23438C18.9583 9.55693 19.5845 9.98934 20.1283 10.5144C20.9358 11.2694 21.5731 12.1879 21.9977 13.2086C22.4224 14.2292 22.6246 15.3287 22.5909 16.4337C22.5572 17.5387 22.2883 18.6238 21.8023 19.6167C21.3163 20.6096 20.6242 21.4875 19.7722 22.1919C18.4066 23.3537 16.6722 23.9916 14.8793 23.9916C12.7047 24.0081 10.5301 24.0006 8.35554 23.9916C6.54913 23.9856 5.20612 22.6419 5.19862 20.8422C5.19337 19.0935 5.19862 17.3449 5.19862 15.5932L5.19785 15.6022Z" fill="#00B2FA"/>
</g>
<defs>
<clipPath id="clip0_720_13753">
<rect width="24" height="24" fill="white"/>
</clipPath>
</defs>
</svg>
