<svg width="24" height="24" viewBox="0 0 24 24" fill="none" xmlns="http://www.w3.org/2000/svg">
<circle cx="12" cy="12" r="12" fill="#FFAD41"/>
<path fill-rule="evenodd" clip-rule="evenodd" d="M13.8207 4C16.4055 4 18.5 6.19386 18.5 8.9C18.5 10.1547 18.0491 11.2995 17.3073 12.1667C18.0756 13.0608 18.5008 14.2255 18.5 15.4333C18.5 18.0816 16.4933 20.2398 13.9843 20.3304L13.8207 20.3333H7.72396C7.56317 20.3341 7.40772 20.2724 7.28706 20.1601C7.16641 20.0477 7.08894 19.8925 7.06934 19.7238L7.06442 19.6429V15.0436C7.06442 14.8914 7.16978 14.7651 7.30815 14.7392L7.36083 14.734H9.88732L9.9407 14.7384C9.99966 14.7497 10.054 14.7796 10.0966 14.8241C10.1393 14.8686 10.1681 14.9257 10.1795 14.9879L10.1837 15.0436V16.76C10.1837 16.9085 10.2842 17.0318 10.4176 17.0607L10.4766 17.0667H13.82C14.0239 17.0677 14.226 17.0263 14.4148 16.9448C14.6035 16.8633 14.7753 16.7433 14.9201 16.5916C15.065 16.4399 15.1802 16.2596 15.2591 16.0608C15.338 15.8621 15.3791 15.6489 15.38 15.4333C15.3782 15.0185 15.2278 14.6198 14.9591 14.3174C14.6904 14.015 14.3233 13.8315 13.9317 13.8037L13.82 13.8H10.6529L5.97642 13.7993C4.83715 13.7183 4.5 12.1659 4.5 12.1659C4.5 12.1659 4.81116 10.7353 5.84367 10.5497L5.97642 10.5333H13.82C14.0239 10.5344 14.226 10.493 14.4148 10.4115C14.6035 10.33 14.7753 10.21 14.9201 10.0583C15.065 9.9066 15.1802 9.72624 15.2591 9.5275C15.338 9.32876 15.3791 9.11553 15.38 8.9C15.3782 8.48515 15.2278 8.08642 14.9591 7.78406C14.6904 7.4817 14.3233 7.29816 13.9317 7.27038L13.82 7.26667H10.4773C10.4101 7.26622 10.3449 7.29038 10.2926 7.33504C10.2404 7.37971 10.2044 7.44212 10.1907 7.51167L10.1844 7.57329V9.28903C10.1842 9.36202 10.1597 9.43261 10.1153 9.4885C10.0709 9.54439 10.0094 9.58205 9.9414 9.59491L9.88802 9.59936H7.36012C7.29111 9.59976 7.22415 9.57458 7.17089 9.52818C7.11763 9.48179 7.08145 9.41713 7.06863 9.34545L7.06442 9.28903V4.69045C7.06442 4.33632 7.31868 4.04455 7.646 4.00445L7.72396 4H13.8207Z" fill="white"/>
</svg>
