<svg width="24" height="24" viewBox="0 0 24 24" fill="none" xmlns="http://www.w3.org/2000/svg">
<circle cx="12" cy="12" r="12" fill="black"/>
<path d="M15.0101 4.54474C14.4173 4.20828 13.7284 4 13.0074 4H9.00195C10.1074 4 11.0047 4.89721 11.0047 6.00271V10.0081V12.0108H13.0074C13.7444 12.0108 14.4173 11.8186 15.0101 11.4661C15.4587 11.2098 15.8432 10.8733 16.1476 10.4728C16.6924 9.78383 17.0128 8.93468 17.0128 7.9894C17.0128 6.53143 16.2117 5.23367 15.0101 4.54474Z" fill="#D85111"/>
<path d="M16.1484 10.4888C15.8279 10.8893 15.4434 11.2258 15.0108 11.4821C14.418 11.8186 13.7291 12.0269 13.0081 12.0269H11.0054V10.0081V6.00271C11.0054 4.89721 10.1082 4 9.00271 4C7.89721 4 7 4.89721 7 6.00271V10.0081V12.0108V18.019V20.0217H9.00271H14.0015C14.354 20.0217 14.6744 19.9896 14.9948 19.9256C17.2859 19.4609 19.0002 17.4422 19.0002 15.0229C19.0163 13.0202 17.8467 11.2899 16.1484 10.4888Z" fill="white"/>
</svg>
