<svg width="24" height="24" viewBox="0 0 24 24" fill="none" xmlns="http://www.w3.org/2000/svg">
<circle cx="12" cy="12" r="12" fill="#F0B90B"/>
<path d="M4.52879 4.52705C9.41078 4.52705 14.292 4.52931 19.174 4.51953C19.4297 4.51953 19.4816 4.56992 19.4801 4.82564C19.4688 7.78971 19.4726 10.7538 19.4726 13.7179C17.6555 13.7164 15.8376 13.7209 14.0205 13.7051C13.7287 13.7028 13.7091 13.8247 13.7099 14.0571C13.7174 15.7373 13.7076 17.4182 13.7204 19.0985C13.7227 19.3813 13.6617 19.485 13.3571 19.4783C12.4614 19.458 11.5641 19.4565 10.6683 19.4783C10.3524 19.4858 10.2787 19.3918 10.2802 19.0842C10.2923 16.2953 10.2953 13.5073 10.278 10.7184C10.2757 10.3409 10.3968 10.2732 10.7413 10.2769C12.3846 10.2942 14.028 10.2754 15.6706 10.2927C15.9903 10.2957 16.0693 10.201 16.055 9.89638C16.0302 9.37441 16.0279 8.85019 16.055 8.32822C16.0723 8.00632 15.9602 7.94164 15.6579 7.94314C13.2428 7.95518 10.8278 7.95894 8.41272 7.94089C8.03892 7.93788 7.94114 8.02663 7.9434 8.4072C7.95994 11.9549 7.94716 15.5034 7.9622 19.0511C7.9637 19.4076 7.85164 19.4843 7.52372 19.4768C6.66555 19.4572 5.80513 19.4535 4.94696 19.4783C4.60851 19.4896 4.51976 19.397 4.52051 19.0548C4.53255 14.212 4.52879 9.36915 4.52879 4.52705Z" fill="white"/>
<path d="M19.4801 19.4745C18.4459 19.4745 17.4125 19.4677 16.3783 19.479C16.1277 19.482 16.0311 19.4203 16.0364 19.1487C16.0537 18.2428 16.053 17.3361 16.0364 16.4294C16.0311 16.1397 16.1126 16.0374 16.4161 16.0412C17.4374 16.054 18.4587 16.0397 19.4793 16.0352V19.4737L19.4801 19.4745Z" fill="white"/>
</svg>
