<svg width="24" height="24" viewBox="0 0 24 24" fill="none" xmlns="http://www.w3.org/2000/svg">
<g clip-path="url(#clip0_930_925)">
<circle cx="12" cy="12" r="12" fill="white"/>
<path d="M9.26641 12.5729C9.26177 12.4721 9.27767 12.3715 9.31316 12.277C9.34864 12.1826 9.40297 12.0964 9.47283 12.0236C9.54269 11.9508 9.62663 11.893 9.71953 11.8537C9.81244 11.8144 9.91237 11.7944 10.0133 11.7949C10.2235 11.7998 10.4232 11.8876 10.5689 12.0392C10.7146 12.1908 10.7946 12.3938 10.7912 12.604C10.788 12.8093 10.705 13.0054 10.5598 13.1506C10.4146 13.2958 10.2186 13.3788 10.0133 13.382C9.808 13.3707 9.61521 13.2799 9.47578 13.1289C9.33635 12.9778 9.26125 12.7784 9.26641 12.5729Z" fill="#252C44"/>
<path d="M20.7477 5.8959C20.5354 5.70362 20.2558 5.60297 19.9697 5.61584H17.5736V4.55781C17.5624 4.34785 17.5312 4.13944 17.4802 3.93545C17.3396 3.4507 17.0209 3.03703 16.5881 2.77734C16.1553 2.51765 15.6403 2.43113 15.1464 2.53512C14.7473 2.62347 14.3869 2.83731 14.1181 3.14529C13.8493 3.45327 13.6862 3.83923 13.6527 4.24663C13.6216 4.58893 13.6216 4.93123 13.6216 5.27354V5.64695H11.4122V4.43334C11.3958 4.12803 11.3119 3.83015 11.1666 3.56112C11.0214 3.29209 10.8183 3.05859 10.572 2.87742C10.3138 2.69294 10.0146 2.57391 9.70022 2.53055C9.38584 2.48719 9.06564 2.52079 8.76712 2.62848C8.36676 2.7738 8.02218 3.04124 7.78208 3.39303C7.54197 3.74481 7.41847 4.16315 7.42902 4.58893V5.70919H5.0018C4.72206 5.71285 4.45453 5.82433 4.25496 6.02037C4.16158 6.11922 4.09091 6.23727 4.04791 6.36627C4.00491 6.49527 3.99061 6.63211 4.00601 6.76722C4.03518 7.04349 4.09788 7.31517 4.19272 7.57629C4.37498 8.18368 4.67854 8.7478 5.08503 9.23453C5.49153 9.72125 5.99252 10.1205 6.55771 10.4081C6.57387 10.4258 6.59606 10.4369 6.61995 10.4392V17.1296C6.60739 17.4763 6.64939 17.8229 6.74443 18.1565C6.87442 18.6721 7.10923 19.1553 7.43421 19.5761C7.75919 19.9969 8.16736 20.3463 8.6333 20.6024L8.75155 20.6647C9.09282 20.8282 9.45362 20.9474 9.82514 21.0194L9.91538 21.0568L9.98073 21.0816L10.2297 21.1128H14.4898C15.1787 21.1065 15.8545 20.9244 16.4533 20.5838C17.1006 20.229 17.9159 19.2145 18.2582 18.2499C18.28 18.1814 18.3018 18.1067 18.3204 18.0289C18.3295 17.9962 18.3368 17.9629 18.3422 17.9294C18.3833 17.7517 18.4052 17.5702 18.4076 17.3879C18.4107 17.3537 18.4107 17.3194 18.4076 17.2852V10.3303L18.9988 9.97241C19.7327 9.45853 20.3048 8.74608 20.6481 7.91859C20.8454 7.53116 20.9618 7.10768 20.9904 6.67386C21.0103 6.5343 20.9988 6.39207 20.9568 6.2575C20.9148 6.12294 20.8434 5.99941 20.7477 5.8959ZM15.0219 4.55781C15.0246 4.44116 15.0456 4.32566 15.0841 4.21551C15.1424 4.12158 15.2257 4.04566 15.3246 3.99621C15.4235 3.94677 15.5341 3.92573 15.6443 3.93545C15.7703 3.9448 15.8883 4.00118 15.9747 4.09339C16.0612 4.18561 16.1098 4.30694 16.111 4.43334V5.5536C16.111 5.58472 16.0799 5.61584 16.0799 5.67807H15.0561C15.0561 5.61584 15.025 5.5536 15.025 5.49136L15.0219 4.55781ZM15.1464 11.8084C15.3566 11.8133 15.5563 11.9011 15.702 12.0526C15.8478 12.2042 15.9277 12.4072 15.9243 12.6175C15.9211 12.8228 15.8381 13.0188 15.6929 13.164C15.5477 13.3092 15.3517 13.3922 15.1464 13.3954C14.9411 13.3842 14.7483 13.2934 14.6089 13.1423C14.4695 12.9913 14.3944 12.7918 14.3995 12.5863C14.3949 12.4856 14.4108 12.3849 14.4463 12.2905C14.4818 12.196 14.5361 12.1098 14.606 12.037C14.6758 11.9643 14.7598 11.9065 14.8527 11.8672C14.9456 11.8279 15.0455 11.8079 15.1464 11.8084ZM8.736 4.55781C8.73874 4.44116 8.75974 4.32566 8.79824 4.21551C8.85655 4.12158 8.93977 4.04566 9.03866 3.99621C9.13755 3.94677 9.24823 3.92573 9.35836 3.93545C9.49044 3.95068 9.61287 4.01214 9.70399 4.10895C9.79511 4.20577 9.84905 4.3317 9.85626 4.46446V5.58472C9.83108 5.61264 9.8101 5.64409 9.79402 5.67807H8.76712C8.76712 5.61584 8.736 5.5536 8.736 5.49136V4.55781ZM16.3289 17.4408C16.2766 17.7584 16.1431 18.0571 15.9414 18.3079C15.7397 18.5587 15.4765 18.7531 15.1775 18.8722C14.8889 18.9795 14.5829 19.0322 14.2751 19.0278H10.6996C10.2249 19.0511 9.75547 18.9201 9.36148 18.6544C9.08937 18.4479 8.87097 18.1789 8.72473 17.8702C8.5785 17.5614 8.50871 17.2221 8.52128 16.8807V9.66122C8.51859 9.43647 8.44041 9.21915 8.29932 9.04419C8.15822 8.86923 7.9624 8.74679 7.74332 8.69655C7.31936 8.57839 6.93951 8.33815 6.65106 8.00572C6.57162 7.91927 6.49783 7.8278 6.43013 7.73188H11.3219V8.19866C11.3219 8.54096 11.3219 8.9455 11.353 9.31892C11.4468 10.3306 11.7098 11.3194 12.131 12.244C12.5026 13.0845 13.0187 13.8534 13.6558 14.5157C14.3957 15.3169 15.3274 15.9166 16.3631 16.2583V16.5695C16.3976 16.8558 16.386 17.1457 16.3289 17.4284V17.4408Z" fill="#252C44"/>
</g>
<defs>
<clipPath id="clip0_930_925">
<rect width="24" height="24" fill="white"/>
</clipPath>
</defs>
</svg>
