<svg width="24" height="24" viewBox="0 0 24 24" fill="none" xmlns="http://www.w3.org/2000/svg">
<g clip-path="url(#clip0_2361_1818)">
<path d="M12 24C18.6274 24 24 18.6274 24 12C24 5.37258 18.6274 0 12 0C5.37258 0 0 5.37258 0 12C0 18.6274 5.37258 24 12 24Z" fill="#000001"/>
<path d="M11.9995 23.753C18.4902 23.753 23.752 18.4912 23.752 12.0005C23.752 5.50981 18.4902 0.248047 11.9995 0.248047C5.50883 0.248047 0.24707 5.50981 0.24707 12.0005C0.24707 18.4912 5.50883 23.753 11.9995 23.753Z" fill="url(#paint0_linear_2361_1818)"/>
<path d="M12.0001 21.9847C17.515 21.9847 21.9856 17.514 21.9856 11.9992C21.9856 6.48433 17.515 2.01367 12.0001 2.01367C6.48531 2.01367 2.01465 6.48433 2.01465 11.9992C2.01465 17.514 6.48531 21.9847 12.0001 21.9847Z" fill="url(#paint1_linear_2361_1818)"/>
<path d="M11.1376 15.9663C10.5698 16.3355 9.96887 16.6519 9.41838 17.0496C9.1874 17.2167 8.94141 17.3733 8.67155 17.4688C8.32278 17.592 7.99595 17.4557 7.69029 17.3044C7.18291 17.0531 6.83105 16.6538 6.59469 16.1338C6.4434 15.8008 6.49768 15.5005 6.5893 15.1717C6.75599 14.5739 6.98311 13.9961 7.15827 13.4025C7.22679 13.1707 7.20601 12.9124 7.22602 12.6664C7.26221 12.6595 7.27761 12.6337 7.28723 12.601C7.30109 12.5536 7.30032 12.4882 7.36807 12.4882C7.43544 12.4882 7.43044 12.5571 7.45431 12.5994C7.4774 12.6406 7.4801 12.7041 7.54978 12.7045C7.64871 13.1076 7.70068 13.118 8.06562 13.0487C8.17495 13.0279 8.20575 12.9317 8.27697 12.8766C8.75008 12.5101 9.20896 12.1259 9.67822 11.7548C10.0674 11.4469 10.4647 11.1481 10.8581 10.8452C11.3878 10.4375 11.9183 10.0314 12.4465 9.62177C12.5485 9.54285 12.6751 9.47471 12.6405 9.30533C12.6089 9.15057 12.4754 9.13595 12.3633 9.08552C12.1139 8.97311 11.8629 8.86301 11.6204 8.73713C11.4702 8.65898 11.3747 8.65705 11.2238 8.77716C10.641 9.2422 10.0355 9.67874 9.43878 10.1265C9.15853 10.3366 8.88213 10.5518 8.59879 10.7578C8.43788 10.8744 8.37475 10.844 8.3682 10.6481C8.35396 10.2258 8.21807 9.82426 8.1634 9.40888C8.12529 9.11824 8.06139 8.83106 8.02636 8.54041C8.01673 8.46072 7.98093 8.41453 7.9382 8.36179C7.98902 8.21089 8.11567 8.17046 8.25233 8.16122C8.3863 8.15199 8.404 8.27402 8.44789 8.36179C8.55144 8.56851 8.60341 8.80295 8.77588 8.97272C8.83131 9.06319 8.87212 9.16058 8.9341 9.24989C9.02264 9.37732 9.13966 9.38001 9.24476 9.33189C9.79063 9.08321 10.3003 8.77177 10.7492 8.37141C10.9802 8.16507 11.0795 7.8802 11.1619 7.5884C11.2747 7.18958 11.1388 6.84735 10.9394 6.5159C10.9632 6.44353 10.9447 6.37424 10.912 6.31226C10.8481 6.19138 10.8793 6.11708 10.9786 6.01815C11.1318 5.86532 11.2593 5.9042 11.4036 6.0066C11.573 6.33189 11.7435 6.65641 11.9091 6.98363C11.9229 7.01096 11.9422 7.04291 11.9314 7.08718C11.9068 7.18997 11.9618 7.21153 12.0569 7.19536C12.351 7.14493 12.6209 7.0229 12.895 6.91434C13.0497 6.85313 13.1964 6.77152 13.3473 6.7003C13.4301 6.66103 13.4697 6.59905 13.4566 6.50666C13.5944 6.50974 13.6899 6.39772 13.83 6.38271C14.1488 6.34844 14.3917 6.49204 14.6319 6.66219C14.6669 6.73379 14.5965 6.85159 14.6831 6.88238C14.7986 6.92358 14.8071 6.7796 14.8617 6.7207C15.4911 6.0451 15.8141 5.20088 16.1413 4.36012C16.1606 4.31046 16.1814 4.30661 16.2191 4.30469C16.2245 4.66309 16.1814 5.01302 16.1186 5.36795C16.0116 5.97349 15.8368 6.55748 15.6382 7.13453C15.4118 7.79166 15.0904 8.40298 14.5784 8.88765C14.2704 9.17906 13.9305 9.43429 13.5298 9.59405C14.5953 9.7515 15.5215 10.1811 16.3288 10.8648C16.5575 11.0584 16.7684 11.2806 16.8015 11.607C16.8054 11.6467 16.8354 11.6571 16.8685 11.6628C16.9836 12.8027 16.9763 13.9449 16.9243 15.0874C16.8358 15.114 16.8843 15.1841 16.8778 15.236C16.8439 15.2815 16.7992 15.3227 16.7781 15.3735C16.5305 15.9594 16.124 16.4371 15.719 16.9118C15.2471 17.4646 14.767 18.0104 14.3782 18.6272C13.7423 19.6354 13.3719 20.7263 13.37 21.9293C13.0809 22.0214 12.781 22.0144 12.4834 22.0217C12.3064 22.026 12.1289 22.026 11.9518 22.0275C11.9241 22.0279 11.8968 22.0283 11.869 22.0287C11.8309 22.0244 11.7928 22.0206 11.7547 22.0163C11.7605 21.36 11.7412 20.7063 11.8933 20.055C12.1477 18.9655 12.6886 18.0482 13.4562 17.2509C14.0726 16.6111 14.7524 16.0302 15.2825 15.3103C15.5612 14.9315 15.7795 14.5223 15.8345 14.0442C15.8896 13.8255 16.0705 13.6912 16.1937 13.5191C16.4208 13.2019 16.6141 12.8728 16.7053 12.4893C16.7557 12.2765 16.6687 12.1537 16.4578 12.0797C16.2122 11.9939 15.9512 12.0078 15.7059 11.9315C15.6355 11.9096 15.5847 11.9562 15.547 12.0124C15.1281 12.6395 14.6153 13.185 14.0036 13.6173C13.5147 13.963 12.9662 14.2182 12.3883 14.3964C12.3052 14.4218 12.2217 14.4449 12.1393 14.4723C12.0323 14.5081 11.9622 14.5708 11.9911 14.6971C11.8321 14.9939 11.6288 15.2614 11.4444 15.5421C11.3482 15.6887 11.1773 15.7796 11.138 15.9659L11.1376 15.9663ZM11.4552 11.0484C11.4533 11.1031 11.4483 11.157 11.4036 11.197C11.3266 11.2105 11.3155 11.2836 11.282 11.3348C11.1184 11.5839 10.9856 11.8522 10.7242 12.0289C10.6006 12.1125 10.4724 12.1779 10.3411 12.243C10.2041 12.3107 10.1833 12.3989 10.2768 12.4686C10.5417 12.6649 10.832 12.7746 11.1661 12.7388C11.3124 12.723 11.4156 12.7754 11.4641 12.919C11.4979 13.0187 11.5692 13.0583 11.6716 13.0491C11.7116 13.1919 11.752 13.3339 11.9422 13.3336C11.9657 13.4167 12.0353 13.4225 12.1046 13.4367C12.4388 13.5053 12.7568 13.4475 13.0682 13.3232C13.1941 13.2727 13.3346 13.2539 13.4227 13.1264C13.2988 13.1457 13.1814 13.1869 13.0616 13.2185C12.9662 13.2439 12.8615 13.2877 12.7949 13.1634C13.0578 13.0506 13.33 12.9501 13.5563 12.7723C13.673 12.6807 13.8373 12.6537 13.9132 12.509C13.9886 12.5013 13.9798 12.5625 13.9979 12.6064C14.024 12.6691 14.0556 12.7426 14.138 12.6556C14.2007 12.5609 14.2673 12.4712 14.2954 12.3558C14.4121 11.8734 14.399 11.3914 14.302 10.9087C14.3101 10.7555 14.2754 10.6173 14.1615 10.5072C14.1472 10.4321 14.1272 10.3597 14.0672 10.3062C13.8962 10.0749 13.7346 9.83042 13.4004 9.82464C12.4653 9.74187 11.6943 10.1942 11.454 11.0488L11.4552 11.0484ZM8.486 16.0025C8.68426 15.9582 8.81899 15.83 8.92601 15.666C9.01802 15.5883 9.01917 15.4778 9.02726 15.3719C9.03226 15.3088 9.00339 15.2645 8.93756 15.2434C8.48831 15.0978 8.14069 15.3511 8.06755 15.7808C8.04599 15.907 8.12876 15.9936 8.23732 16.0545C8.33741 16.1107 8.41786 16.0906 8.486 16.0029V16.0025ZM11.7147 8.07461C11.7093 8.16777 11.7393 8.30328 11.8683 8.36756C12.2244 8.54503 12.5639 8.75022 12.9115 8.94193C12.9908 8.98581 13.0882 8.9989 13.156 8.92383C13.4227 8.6278 13.681 8.32406 13.9478 8.02764C14.1045 7.85364 14.1599 7.68349 13.9933 7.481C13.9267 7.40016 13.8805 7.30045 13.8346 7.2046C13.7041 6.9332 13.5763 6.96631 13.3554 7.05408C12.893 7.2377 12.4446 7.45636 11.9803 7.63537C11.7793 7.71275 11.7185 7.8394 11.7147 8.07461Z" fill="#EBEACB"/>
<path d="M7.99217 18.2417C7.67189 18.3233 7.37277 18.4153 7.06711 18.4746C6.44925 18.5943 5.85602 18.4773 5.29283 18.2197C4.59528 17.901 4.18221 17.3235 3.89811 16.6345C3.83229 16.4751 3.90851 16.4447 4.04016 16.4339C4.43552 16.4012 4.81933 16.4709 5.19582 16.5752C5.47953 16.6537 5.75555 16.7596 6.03619 16.8508C6.08623 16.867 6.13628 16.9178 6.19979 16.8639C6.02849 16.6075 5.76902 16.4358 5.57385 16.2018C5.0018 15.5154 4.59951 14.7559 4.42551 13.8689C4.32504 13.3577 4.33273 12.8588 4.38624 12.3472C4.42474 11.9776 4.55832 11.6423 4.67035 11.2974C4.68728 11.245 4.70076 11.1653 4.7689 11.1746C4.83434 11.183 4.82895 11.2616 4.83626 11.3178C4.98755 12.4376 5.45105 13.4189 6.15629 14.2924C6.23252 14.3867 6.30989 14.4887 6.40921 14.5534C6.54279 14.6404 6.53279 14.7428 6.50314 14.869C6.43462 15.1601 6.31451 15.4388 6.32876 15.7491C6.34762 16.1652 6.50892 16.5267 6.77146 16.83C7.0598 17.163 7.3797 17.4644 7.82356 17.6042C8.2474 17.7378 8.64584 17.747 9.03311 17.5014C9.44848 17.2381 9.88772 17.0129 10.2896 16.7272C10.3554 16.6803 10.4386 16.6499 10.5179 16.6314C10.7165 16.5852 10.8297 16.7299 10.7908 16.9463C10.6888 17.5168 10.4902 18.0542 10.2615 18.5843C10.034 19.1117 9.8242 19.6472 9.60785 20.1796C9.58322 20.24 9.5528 20.2931 9.48852 20.3359C9.40883 20.0668 9.44733 19.7965 9.44001 19.5294C9.4327 19.2641 9.54164 19.0212 9.58707 18.7641C9.40151 18.9161 9.32953 19.1348 9.30566 19.3457C9.26986 19.6626 9.09239 19.8296 8.83216 19.9613C8.41178 20.1738 7.98601 20.2246 7.53445 20.0695C7.31156 19.9929 7.07943 19.9405 6.84961 19.8862C6.72219 19.8562 6.67907 19.8019 6.72719 19.6707C6.82497 19.4046 7.00475 19.1983 7.19646 19.0004C7.40164 18.7883 7.63108 18.6032 7.86822 18.4276C7.92365 18.3864 7.98524 18.3456 7.99217 18.2417Z" fill="#674D36"/>
<path d="M18.452 18.5774C18.382 18.4065 18.2822 18.2529 18.1849 18.097C17.8546 17.5673 17.6917 16.9802 17.7275 16.3632C17.7579 15.8446 17.9084 15.3426 18.1818 14.8907C18.9656 13.5949 19.508 12.2002 19.8868 10.7389C19.9395 10.5352 19.9892 10.3289 19.9934 10.1156C19.9942 10.0725 19.9845 10.0178 20.0492 10.0121C20.1031 10.0074 20.1216 10.0498 20.142 10.0925C20.2263 10.2677 20.271 10.4544 20.2941 10.6446C20.3922 11.4514 20.3472 12.2456 20.1031 13.0282C20.0096 13.3277 19.9114 13.6238 19.794 13.914C19.7836 13.9394 19.7755 13.961 19.8206 13.9972C20.0177 13.8016 20.1389 13.5537 20.2802 13.3177C20.5474 12.8727 20.7033 12.3765 20.9377 11.9172C20.962 11.8699 20.9681 11.7856 21.0374 11.7956C21.0963 11.8041 21.1009 11.883 21.1213 11.9353C21.2969 12.3892 21.3885 12.8523 21.305 13.3416C21.273 13.5298 21.278 13.7246 21.2476 13.9136C21.1594 14.4591 20.8549 14.9088 20.5774 15.3676C20.4696 15.5459 20.3333 15.7068 20.2259 15.9024C20.4053 15.813 20.5835 15.7207 20.7649 15.6352C20.863 15.589 20.9643 15.5466 21.0682 15.5162C21.1902 15.4801 21.2349 15.5232 21.1837 15.6502C21.0024 16.0991 20.8087 16.5418 20.5731 16.9664C20.2621 17.5277 19.8918 18.0477 19.501 18.554C19.4275 18.649 19.3313 18.726 19.2481 18.8138C19.1761 18.8896 19.093 18.8627 19.0156 18.8369C18.8531 18.783 18.6938 18.7207 18.5332 18.6618C18.5182 18.6221 18.4901 18.5952 18.452 18.5778V18.5774Z" fill="#674D36"/>
<path d="M15.8333 14.0453C15.7782 14.5234 15.5603 14.9326 15.2813 15.3114C14.7512 16.0313 14.0713 16.6122 13.455 17.252C12.687 18.0493 12.1465 18.9666 11.8921 20.0561C11.74 20.7074 11.7592 21.3611 11.7535 22.0175C11.1175 22.056 10.4927 21.9817 9.8764 21.8277C9.75475 21.7973 9.63272 21.768 9.50992 21.7426C9.40944 21.7218 9.40059 21.6775 9.42638 21.579C9.65736 20.6982 9.97611 19.8513 10.3549 19.0229C10.5836 18.5224 10.7526 17.995 10.9501 17.4799C10.9678 17.4333 10.9963 17.391 11.0197 17.3467C11.0833 17.346 11.1256 17.3079 11.1653 17.2643C11.4852 16.9113 11.882 16.6777 12.314 16.4836C12.8202 16.2558 13.3287 16.0356 13.8015 15.7307C14.2488 15.4419 14.5691 15.0177 14.9964 14.7144C15.0172 14.6997 15.0183 14.6582 15.0291 14.6293C15.2836 14.4649 15.5353 14.2967 15.7528 14.0842C15.7782 14.0592 15.8029 14.0499 15.8341 14.0449L15.8333 14.0453Z" fill="#A9A091"/>
<path d="M16.9076 15.586C16.9083 15.9148 16.8633 16.2405 16.8436 16.5677C16.7959 17.363 16.8721 18.1406 17.2817 18.8513C17.4103 19.0746 17.5312 19.3028 17.6848 19.5107C17.7237 19.5635 17.746 19.6362 17.8315 19.6335L17.8303 19.6324C17.8411 19.7656 17.9554 19.8222 18.0336 19.9199C17.5916 20.2749 17.1143 20.589 16.6088 20.8623C15.7481 21.3277 14.8345 21.6496 13.8802 21.8567C13.7909 21.8759 13.6943 21.8698 13.6038 21.8956C13.6004 21.8574 13.5938 21.8193 13.5934 21.7812C13.5738 20.4766 13.9984 19.3209 14.7737 18.2862C15.191 17.7291 15.6487 17.2044 16.1003 16.6747C16.4021 16.3205 16.6504 15.9263 16.8679 15.5137C16.8764 15.5406 16.8652 15.5783 16.9079 15.5864L16.9076 15.586Z" fill="#EBEACB"/>
<path d="M4.99641 5.28586C4.6076 5.81749 4.24112 6.36221 3.97396 6.96891C3.79033 7.38543 3.67869 7.82198 3.56475 8.26007C3.40268 8.88293 3.41384 9.5185 3.46196 10.1441C3.507 10.7315 3.65829 11.3105 3.87887 11.8645C3.98012 12.1181 4.06943 12.3776 4.21687 12.6105C4.25767 12.6752 4.24998 12.7456 4.24536 12.8161C4.17183 13.9209 4.50443 14.9053 5.1377 15.7972C5.25203 15.9581 5.39292 16.0998 5.52112 16.2507C5.5573 16.293 5.62352 16.3296 5.59387 16.3943C5.55769 16.4732 5.49763 16.4047 5.44682 16.4039C4.57296 16.3885 4.06481 15.7868 3.55743 15.2044C2.94573 14.5022 2.60696 13.6584 2.35751 12.771C2.28822 12.5247 2.28129 12.2671 2.20468 12.0277C1.96908 11.2905 2.21238 10.5918 2.36059 9.88884C2.55076 8.98764 2.90069 8.14419 3.35648 7.34501C3.68177 6.7745 4.04595 6.2294 4.48326 5.73934C4.63378 5.57073 4.76082 5.37209 4.96523 5.25391C4.97563 5.26469 4.98602 5.27546 4.99641 5.28624V5.28586Z" fill="#7E6853"/>
<path d="M18.4584 9.41753C18.5393 9.64543 18.4588 9.87371 18.4438 10.0981C18.3968 10.7942 18.2263 11.4717 18.0261 12.1365C17.8475 12.7301 17.6211 13.3099 17.3824 13.8831C17.3378 13.9909 17.3289 14.1183 17.2123 14.2118C17.1622 14.0956 17.185 13.9839 17.1838 13.8777C17.1784 13.3461 17.1807 12.8144 17.1753 12.2828C17.1742 12.1754 17.153 12.0676 17.1384 11.9606C17.1033 11.7038 17.1946 11.4721 17.285 11.2388C17.2238 11.198 17.1792 11.3 17.1288 11.2561C17.0795 11.2138 17.1045 11.1483 17.1018 11.0929C17.0849 10.7241 17.0564 10.3568 16.9983 9.99151C16.9578 9.73743 16.9752 9.47797 16.9983 9.22428C17.0598 8.54521 16.9625 7.87576 16.9186 7.2017C16.8839 6.66853 16.7946 6.14344 16.7496 5.61296C16.7423 5.52827 16.7219 5.42818 16.8308 5.37891C16.8585 5.43049 16.9016 5.4405 16.954 5.42318C16.9336 5.51865 16.9563 5.58178 17.0695 5.57716C17.0552 5.61681 17.0583 5.64761 17.1087 5.65415L17.108 5.65338C17.1045 5.68226 17.1184 5.69419 17.1461 5.69226C17.1934 5.93864 17.3505 6.11187 17.5307 6.26932C17.5249 6.30358 17.5191 6.33823 17.5722 6.33515C17.623 6.37595 17.6561 6.42561 17.6538 6.49337C17.6173 6.69855 17.7312 6.8764 17.7585 7.07004C17.802 7.37416 17.8563 7.67674 17.9102 8.00703C18.0157 7.85151 17.9784 7.70676 17.9941 7.57049C18.0885 7.63824 18.0045 7.77952 18.1066 7.8442C18.1181 8.07825 18.0438 8.30653 18.0673 8.54251C18.0788 8.65608 18.1235 8.73038 18.239 8.7273C18.3545 8.72422 18.361 8.78658 18.3849 8.87666C18.4322 9.0549 18.3772 9.24468 18.458 9.41638L18.4584 9.41753Z" fill="#EAA10F"/>
<path d="M9.39643 10.3482C9.40643 10.3074 9.43723 10.3028 9.47188 10.3059C9.55079 10.3371 9.60045 10.2909 9.6582 10.2454C9.85838 10.0876 10.0605 9.93207 10.2676 9.78348C10.3785 9.70379 10.5521 9.66799 10.6048 9.78733C10.661 9.91475 10.7203 10.063 10.7192 10.2193C10.7172 10.451 10.5836 10.5915 10.4135 10.7197C10.1987 10.881 9.96001 11.0165 9.79409 11.2379C9.83413 11.274 9.85684 11.2563 9.8757 11.2417C10.2306 10.9719 10.5856 10.7016 10.939 10.4302C11.0117 10.3744 11.0802 10.3016 11.1522 10.4287C10.5459 10.9203 9.94961 11.4246 9.32983 11.8985C8.98914 12.1591 8.67154 12.4463 8.33201 12.7069C8.1761 12.8266 8.01942 12.9756 7.78921 12.8936C7.81693 12.7619 7.9636 12.78 8.03289 12.7003C8.06177 12.6672 8.10565 12.6387 8.0864 12.5875C8.06831 12.5394 8.02712 12.5594 7.98901 12.5617C7.78344 12.5744 7.75033 12.5352 7.82501 12.3373C7.87198 12.213 7.8408 12.1606 7.7153 12.1826C7.61945 12.1991 7.61136 12.1548 7.60097 12.0809C7.56478 11.8265 7.45199 11.5863 7.44698 11.3206C7.4312 11.3734 7.41542 11.4265 7.39963 11.4792C7.28876 11.1616 7.24642 10.829 7.1879 10.4999C7.11168 10.071 7.06048 9.63873 7.01852 9.20527C7.01429 9.16177 7.02545 9.11673 7.0293 9.07246C7.16134 9.03665 7.1444 8.8819 7.23641 8.81415C7.30416 8.71521 7.40156 8.65747 7.50973 8.61358C7.69413 8.71213 7.70529 8.90615 7.74494 9.07361C7.85812 9.55173 7.95398 10.0341 8.05792 10.5145C8.06754 10.5592 8.06023 10.6185 8.13683 10.6323C8.13683 10.5911 8.14646 10.5507 8.13529 10.5168C7.94012 9.91899 7.87083 9.29496 7.74956 8.68211C7.73724 8.61897 7.72954 8.53505 7.62907 8.5389C7.81462 8.47538 7.92318 8.54006 7.9482 8.75525C8.02173 9.38697 8.17109 10.0041 8.29736 10.6254C8.31469 10.7101 8.32084 10.7982 8.30468 10.8883C8.29659 10.9334 8.20574 10.9695 8.27465 11.0161C8.32662 11.0515 8.39322 11.0435 8.45443 11.0053C8.54451 10.9491 8.63959 10.9014 8.73275 10.8502C8.76278 10.9187 8.81128 10.9403 8.85786 10.8752C8.93717 10.7647 9.0669 10.7132 9.14928 10.6115C9.2255 10.5176 9.39065 10.508 9.39604 10.3494L9.39643 10.3482ZM9.52269 11.4669C9.48381 11.4796 9.45763 11.505 9.4457 11.5447C9.41721 11.5481 9.38565 11.5466 9.37756 11.5843C9.37679 11.5886 9.38295 11.5986 9.38642 11.5986C9.42029 11.6001 9.438 11.5786 9.45032 11.5501C9.49921 11.5462 9.525 11.5204 9.52616 11.4708C9.53116 11.465 9.53655 11.4592 9.54156 11.4534C9.5354 11.4577 9.52885 11.4623 9.52269 11.4665V11.4669ZM9.67475 11.351C9.64665 11.3584 9.61662 11.3634 9.61393 11.4011C9.61393 11.4049 9.62163 11.4134 9.62548 11.413C9.66205 11.4122 9.67167 11.3849 9.67976 11.356C9.71286 11.3533 9.74058 11.3433 9.74212 11.3037C9.74212 11.2995 9.73404 11.291 9.72942 11.291C9.68938 11.2902 9.67899 11.3183 9.67437 11.3507L9.67475 11.351ZM9.21549 11.7391C9.26207 11.7368 9.28864 11.7114 9.29787 11.6667C9.31443 11.6598 9.33599 11.6548 9.31019 11.6332C9.30981 11.6328 9.29595 11.6482 9.28825 11.6563C9.24629 11.664 9.21472 11.6833 9.20933 11.7302L9.16237 11.7472L9.17777 11.768C9.19047 11.7583 9.20279 11.7487 9.21549 11.7391Z" fill="#EAA10F"/>
<path d="M16.8681 11.6631C16.835 11.6573 16.8049 11.6465 16.8011 11.6073C16.7684 11.2804 16.5574 11.0587 16.3283 10.865C15.5207 10.1814 14.5949 9.75174 13.5293 9.59429C13.9304 9.43453 14.2703 9.1793 14.5779 8.88789C15.0899 8.40322 15.4114 7.7919 15.6377 7.13478C15.8364 6.55772 16.0111 5.97373 16.1182 5.36819C16.1809 5.01326 16.224 4.66294 16.2186 4.30493C16.2256 4.21947 16.1848 4.12438 16.2979 4.0293C16.562 5.06869 16.6629 6.10809 16.6852 7.15749C16.6871 7.33765 16.6367 7.52089 16.7179 7.69605C16.7372 8.04405 16.7476 8.39167 16.7056 8.73891C16.6513 8.83746 16.6825 8.94178 16.6844 9.04457C16.6475 9.49921 16.6148 9.88532 16.1474 10.4281C16.3568 10.4412 16.4604 10.2772 16.6024 10.1879C16.6521 10.1567 16.679 10.0647 16.7526 10.1044C16.8142 10.1375 16.7992 10.2152 16.8003 10.2795C16.8084 10.7415 16.9004 11.1996 16.8677 11.6635L16.8681 11.6631ZM16.5077 7.93241C16.537 7.68527 16.4619 7.42311 16.4381 7.1571C16.4184 6.93999 16.4127 6.71555 16.3399 6.50383C16.2918 6.36331 16.229 6.34946 16.1278 6.45763C16.0874 6.50075 16.0681 6.55079 16.0562 6.60776C15.9869 6.94114 15.8668 7.2595 15.7567 7.58018C15.5661 8.13413 15.3779 8.68925 15.1115 9.2128C15.0314 9.37024 15.0595 9.4303 15.2416 9.46956C15.5222 9.53039 15.8013 9.55772 16.0881 9.50729C16.2263 9.48304 16.3996 9.35138 16.4111 9.20933C16.445 8.79126 16.5143 8.37589 16.5081 7.93164L16.5077 7.93241Z" fill="#A9A091"/>
<path d="M2.13381 12.3051C2.22273 12.6419 2.30704 12.9776 2.41406 13.3075C2.61924 13.9388 2.92413 14.5186 3.31718 15.0506C3.6494 15.5002 4.0332 15.8995 4.51633 16.1928C4.54905 16.2128 4.59255 16.2336 4.58639 16.2756C4.57715 16.3383 4.51787 16.3225 4.47745 16.3218C4.29806 16.3179 4.12059 16.3248 3.94466 16.3653C3.81416 16.3953 3.73794 16.4496 3.79414 16.6016C3.95005 17.022 4.14792 17.4143 4.46205 17.7446C4.91169 18.2173 5.48143 18.4517 6.09313 18.6231C6.42073 18.7151 6.7491 18.7047 7.08017 18.7077C7.13329 18.7081 7.19181 18.6835 7.25725 18.7416C7.03397 18.8706 6.79838 18.9264 6.56394 18.9326C6.20746 18.9414 5.84945 18.9645 5.49298 18.9018C5.13381 18.8386 4.80043 18.697 4.45474 18.5923C4.40431 18.5769 4.39006 18.5337 4.36158 18.501C4.00048 18.0864 3.68328 17.6379 3.40995 17.1633C3.0862 16.6005 2.81865 16.0107 2.61116 15.3913C2.42214 14.8281 2.2774 14.2553 2.18 13.6725C2.10494 13.2228 2.07914 12.7651 2.13342 12.3047L2.13381 12.3051Z" fill="#7E6853"/>
<path d="M15.6058 4.04343C15.8514 4.16892 15.8314 4.39798 15.8017 4.60893C15.7321 5.10438 15.5084 5.54092 15.2251 5.94552C15.1246 6.08911 15.0022 6.14801 14.7997 6.06139C14.4228 5.90009 14.0255 5.78653 13.6367 5.65295C13.6294 5.59212 13.6648 5.544 13.6833 5.49011C13.7591 5.26876 13.9016 5.06588 13.8792 4.8172C13.8692 4.70479 13.8981 4.65243 14.0132 4.58892C14.1187 4.53079 14.2038 4.43416 14.3362 4.41722C14.3566 4.41453 14.3766 4.38758 14.3912 4.36756C14.561 4.13428 14.6419 4.12658 14.8671 4.33022C14.8971 4.35755 14.9225 4.38373 14.9652 4.37449C15.0241 4.36179 15.0226 4.31251 15.023 4.26824C15.0241 4.12966 15.0545 3.9853 14.9321 3.8725C14.9082 3.85056 14.8894 3.79705 14.8998 3.7701C14.9202 3.71698 14.976 3.74624 15.018 3.74701C15.1454 3.74893 15.2382 3.87674 15.3748 3.8444L15.3767 3.84594C15.3898 3.98491 15.4768 4.03804 15.6054 4.04381L15.6058 4.04343Z" fill="#EAA10F"/>
<path d="M15.5618 12.2185C15.6141 12.0834 15.6877 12.0222 15.8517 12.0676C16.0584 12.1249 16.2774 12.1303 16.4872 12.1842C16.5719 12.2058 16.615 12.2477 16.612 12.3259C16.6023 12.5696 16.5723 12.8079 16.3737 12.9838C16.3248 12.9172 16.2724 12.8737 16.2351 12.9888C16.2001 13.0966 16.175 13.2078 16.1454 13.3175C16.0626 13.3175 16.0676 13.3761 16.068 13.4319L16.0672 13.4327C15.9949 13.4369 15.9945 13.4919 15.9895 13.5435C15.8905 13.8157 15.6746 13.9866 15.4432 14.1283C15.0332 14.3797 14.5905 14.5487 14.1243 14.6857C13.605 14.8385 13.0942 14.8097 12.5749 14.7789C12.4425 14.7712 12.32 14.6984 12.183 14.6957C12.1618 14.6953 12.1337 14.6576 12.1222 14.6314C12.1029 14.5879 12.1437 14.5806 12.1726 14.5721C12.7385 14.4097 13.2624 14.1479 13.7864 13.8861C13.8549 13.9558 13.9473 13.9312 14.0589 13.9735C14.0219 13.8881 13.9738 13.8392 13.9854 13.7753L13.9865 13.7745C14.045 13.7791 14.1009 13.788 14.1382 13.8419C14.1682 13.885 14.2094 13.9004 14.2522 13.8642C14.3114 13.8138 14.2652 13.7757 14.2318 13.7364C14.2113 13.7121 14.1948 13.6848 14.1767 13.6586V13.6598C14.1898 13.6467 14.2033 13.6336 14.2164 13.6205L14.2156 13.6217C14.2291 13.6086 14.2421 13.5951 14.2556 13.582L14.2541 13.5836C14.2676 13.5705 14.281 13.557 14.2941 13.5439L14.2933 13.5443C14.3676 13.5693 14.4312 13.5585 14.5093 13.5293C14.5948 13.4973 14.6941 13.4184 14.8 13.5435C14.9439 13.7133 15.1098 13.88 15.3693 13.7352L15.3732 13.7379C15.3759 13.7502 15.3785 13.7626 15.3816 13.7749C15.5241 13.6971 15.6927 13.6459 15.8039 13.5366C16.0245 13.3195 16.1281 13.0211 16.2651 12.7482C16.3625 12.6381 16.4464 12.5222 16.4345 12.3147C16.3606 12.4826 16.3051 12.6077 16.2501 12.7328C16.0515 12.722 15.8528 12.7774 15.653 12.6878C15.4313 12.588 15.4132 12.5723 15.5244 12.3609C15.5475 12.3174 15.5841 12.2751 15.5618 12.2185Z" fill="#EAA10F"/>
<path d="M4.68314 18.7715C4.87678 18.788 5.05232 18.8708 5.23402 18.9278C5.55046 19.0267 5.87729 19.0005 6.20027 19.0252C6.48052 19.0467 6.75192 18.9882 7.0853 18.9532C6.90706 19.1772 6.7704 19.3693 6.66145 19.5795C6.54404 19.8066 6.57638 19.9013 6.81313 19.9695C7.21002 20.0834 7.60615 20.1985 8.01113 20.2848C8.36876 20.361 8.67172 20.2178 8.99008 20.1138C9.06207 20.0904 9.16755 19.966 9.20528 20.0727C9.2457 20.187 9.27765 20.3552 9.13329 20.4595C8.95736 20.5862 8.74871 20.6235 8.54391 20.6693C8.1116 20.766 7.67429 20.7879 7.23158 20.7837C6.96673 20.7814 6.7935 20.6131 6.6014 20.4907C5.92887 20.0615 5.30678 19.566 4.76668 18.974C4.71933 18.922 4.66158 18.8785 4.65234 18.8023C4.66235 18.7919 4.67275 18.7819 4.68276 18.7715H4.68314Z" fill="#7E6853"/>
<path d="M21.2082 11.6737C21.0211 11.5409 21.0057 11.5463 20.9033 11.738C20.8009 11.9297 20.7008 12.1237 20.566 12.2958C20.5337 12.3374 20.5018 12.4132 20.4348 12.3762C20.3897 12.3516 20.4109 12.2827 20.4163 12.233C20.454 11.8916 20.5002 11.5493 20.4848 11.2056C20.4717 10.9142 20.4529 10.6189 20.3689 10.3383C20.2896 10.0738 20.3674 9.81624 20.3863 9.5614C20.4082 9.26344 20.4509 8.96625 20.4463 8.66598C20.4448 8.5605 20.4671 8.46041 20.5014 8.36648C20.5614 8.20133 20.6554 8.18863 20.762 8.32914C20.9687 8.60131 21.1154 8.90735 21.2082 9.23303C21.3271 9.65071 21.3922 10.078 21.3876 10.5161C21.3837 10.9076 21.3379 11.2895 21.2089 11.6729L21.2082 11.6737Z" fill="#7E6853"/>
<path d="M11.2477 5.20537C10.9548 5.36051 10.6853 5.54914 10.4555 5.7882C10.3873 5.85903 10.3596 5.8548 10.293 5.78743C10.2122 5.70582 10.1629 5.60188 10.0724 5.52488C9.98619 5.45097 10.094 5.41363 10.1433 5.37744C10.452 5.1534 10.7396 4.89701 11.1018 4.75458C11.1422 4.73879 11.1773 4.70838 11.2146 4.68451C11.2962 4.70607 11.3659 4.67066 11.4283 4.62831C11.7043 4.4416 12.003 4.43006 12.3148 4.50397C12.3171 4.50435 12.3275 4.4724 12.3341 4.45508C12.4253 4.58558 12.52 4.71377 12.5658 4.86968C12.4742 5.00865 12.6039 5.14878 12.5643 5.28967C12.5554 5.32163 12.5585 5.37552 12.6124 5.37013C12.654 5.3659 12.7032 5.34934 12.731 5.32047C12.7648 5.28544 12.7317 5.25734 12.6944 5.23616C12.607 5.1865 12.6736 5.14724 12.7067 5.10682C12.9215 5.27966 12.9515 5.55029 13.0628 5.77819C12.9927 5.75971 12.9612 5.78666 12.9408 5.85788C12.9038 5.98876 12.8176 6.04689 12.6713 6.0492C12.5658 6.05113 12.4322 6.0184 12.3576 6.06537C12.1528 6.19433 11.9364 6.19587 11.7135 6.19626C11.5903 6.02418 11.5503 5.81745 11.476 5.62497C11.4972 5.49409 11.4017 5.38707 11.4055 5.25657C11.4109 5.08295 11.3378 5.10489 11.2469 5.20537H11.2477Z" fill="#EAA10F"/>
<path d="M9.56696 4.84092C9.49536 4.94178 9.55964 5.02493 9.61277 5.09769C9.83066 5.39488 10.0578 5.68514 10.2972 5.96654C10.5267 6.23602 10.7727 6.49894 10.9532 6.79998C11.0822 7.01479 11.0814 7.29543 11.0183 7.54642C10.9162 7.95371 10.6572 8.25937 10.3292 8.50998C10.2888 8.54078 10.2418 8.56503 10.186 8.55232C10.1617 8.55155 10.1425 8.55733 10.1413 8.58697L10.1421 8.58659C10.084 8.56965 10.0139 8.58659 9.98002 8.50921C9.83258 8.17545 9.71132 7.83206 9.59814 7.4856C9.56311 7.37858 9.70054 7.35741 9.71594 7.27079C9.7194 7.25193 9.75328 7.25539 9.78061 7.27079C10.0582 7.42824 10.0678 7.42208 10.0647 7.10834C10.0639 7.03827 10.0728 6.96667 10.0251 6.90546C9.99542 6.86735 9.97848 6.81923 10.0131 6.78189C10.1906 6.58979 10.1841 6.40732 10.0331 6.19328C9.95153 6.07741 9.91958 5.91457 9.8499 5.79331C9.74366 5.60814 9.61931 5.42914 9.50498 5.2459C9.4507 5.15889 9.41952 5.04148 9.29171 5.02069C9.26823 4.96564 9.24475 4.91021 9.22126 4.85516C9.25976 4.82937 9.29287 4.80358 9.2613 4.74968C9.22935 4.6954 9.2024 4.63843 9.1716 4.58376C9.1462 4.53872 9.11463 4.49137 9.1716 4.45134C9.23281 4.40822 9.24205 4.47713 9.26746 4.50485C9.36832 4.6161 9.49343 4.70618 9.56773 4.84169L9.56696 4.84092Z" fill="#EAA10F"/>
<path d="M7.83165 4.52442C7.8201 4.39931 7.83588 4.27073 7.77891 4.15217C7.85936 3.88462 7.81509 3.62092 7.76274 3.35491C7.74234 3.25136 7.66303 3.10546 7.86706 3.07812C7.83896 3.22364 7.88824 3.35684 7.93058 3.49157C7.95406 3.53854 7.97793 3.58589 8.00141 3.63285C7.94944 3.71793 8.01566 3.79338 8.02451 3.87268C8.07417 4.32463 8.13577 4.77734 8.43373 5.14613C8.49994 5.22813 8.48877 5.33746 8.5469 5.39559C8.72552 5.57421 8.74631 5.79017 8.76056 6.02192C8.77134 6.19785 8.8183 6.39918 8.97806 6.47848C9.10664 6.54239 9.1332 6.65518 9.2152 6.73718C9.21866 6.7622 9.21789 6.78915 9.22636 6.81263C9.3661 7.19759 9.54472 7.56677 9.68562 7.95211C9.76877 8.18001 9.71872 8.38597 9.66521 8.59769C9.64404 8.68162 9.53163 8.74051 9.48659 8.6847C9.37226 8.5438 9.14898 8.56497 9.09124 8.3109C8.97998 7.82084 8.82446 7.33926 8.70859 6.84805C8.64853 6.59243 8.60888 6.33104 8.50071 6.08775C8.53535 6.35337 8.58193 6.6163 8.6366 6.87769C8.77134 7.5225 8.90992 8.16692 9.0462 8.81135C9.05967 8.87525 9.10548 8.95571 8.98537 8.97072L8.98383 8.96841C8.97113 8.94262 8.95804 8.91683 8.94534 8.89103L8.94611 8.89257C8.86565 8.28549 8.69935 7.69612 8.58386 7.05169C8.565 7.13484 8.55691 7.1718 8.54844 7.20876C8.4984 7.12599 8.50148 7.03822 8.5215 6.94814C8.5546 6.89809 8.58732 6.84843 8.50225 6.81571C8.37521 6.77683 8.42718 6.65403 8.40986 6.57857C8.29321 6.0685 8.20429 5.55265 8.08957 5.0422C8.04722 4.85433 7.97793 4.66724 7.83242 4.52481L7.83165 4.52442Z" fill="#EAA10F"/>
<path d="M15.0289 14.6289C15.0185 14.6578 15.017 14.6994 14.9962 14.714C14.5685 15.0173 14.2486 15.4416 13.8013 15.7303C13.3285 16.0352 12.8204 16.2558 12.3138 16.4833C11.8822 16.6773 11.4853 16.911 11.165 17.264C11.1254 17.3075 11.0834 17.3456 11.0195 17.3463C11.063 17.1754 11.1389 17.0214 11.2259 16.8663C11.6674 16.0771 12.3977 15.6864 13.21 15.4127C13.7847 15.2187 14.3421 14.99 14.8722 14.6944C14.9211 14.667 14.9765 14.6505 15.0289 14.6293V14.6289Z" fill="#786A5D"/>
<path d="M20.6035 15.5133C20.7506 15.2692 20.9015 15.0509 21.015 14.8099C21.3203 14.1636 21.452 13.4799 21.4389 12.7712C21.4335 12.4686 21.3842 12.1633 21.2826 11.8731C21.2572 11.8011 21.2568 11.736 21.2876 11.669C21.4289 11.3622 21.4866 11.0312 21.5675 10.707C21.5802 10.6558 21.6036 10.6177 21.6656 10.5742C21.7145 10.8814 21.7761 11.164 21.7753 11.4558C21.7742 11.9412 21.8023 12.429 21.7669 12.9117C21.7303 13.4068 21.6899 13.9037 21.5528 14.39C21.4878 14.6202 21.4377 14.8596 21.3827 15.0956C21.3577 15.2026 21.3149 15.2704 21.1863 15.2931C21.0712 15.3131 20.9661 15.3901 20.8572 15.4436C20.7837 15.4794 20.7113 15.5183 20.6039 15.5133H20.6035Z" fill="#7E6853"/>
<path d="M9.02441 4.02166C9.09948 3.91503 9.16339 3.84112 9.10064 3.73371C9.10141 3.73333 9.10218 3.73256 9.10295 3.73179C9.10256 3.73179 9.10218 3.73179 9.10179 3.73102C9.20073 3.61668 9.30813 3.50774 9.32776 3.34683C9.37819 3.18745 9.46173 3.05387 9.62649 2.94531C9.6596 3.19746 9.65152 3.42459 9.67038 3.64864C9.70849 4.09866 9.7928 4.53597 9.91213 4.96905C9.92137 5.00216 9.97411 5.03334 9.93215 5.06876C9.89327 5.10186 9.8517 5.08262 9.81397 5.04912C9.73351 4.97752 9.64921 4.90977 9.56605 4.84009C9.49214 4.70497 9.36703 4.61489 9.26617 4.50325C9.24076 4.47553 9.23152 4.40662 9.17031 4.44974" fill="#EBEACB"/>
<path d="M11.153 10.4283C11.0806 10.3013 11.0125 10.374 10.9397 10.4299C10.586 10.7013 10.2314 10.9715 9.87648 11.2414C9.85762 11.256 9.83452 11.2737 9.79487 11.2375C9.96079 11.0162 10.1995 10.8806 10.4143 10.7193C10.5844 10.5915 10.718 10.451 10.7199 10.2189C10.7211 10.063 10.6618 9.9144 10.6056 9.78697C10.5529 9.66764 10.3792 9.70344 10.2684 9.78312C10.0613 9.93172 9.85916 10.0872 9.65898 10.2451C9.60123 10.2905 9.55157 10.3367 9.47266 10.3055C9.53964 10.1408 9.70479 10.0795 9.83029 9.98253C10.3273 9.5995 10.8366 9.23186 11.3389 8.85652C11.4656 8.76182 11.5564 8.82188 11.6454 8.91196C11.2585 8.99318 11.2704 9.00088 11.3235 9.38392C11.3578 9.63106 11.5141 9.61336 11.6793 9.62221C11.7047 9.66148 11.7305 9.66456 11.7559 9.62221C11.7847 9.61028 11.8163 9.60219 11.8417 9.58525C11.8798 9.55985 11.9106 9.47669 11.9603 9.53328C12.0188 9.60027 11.9245 9.62529 11.8891 9.65724C11.7851 9.75156 11.6796 9.8451 11.5657 9.92633C11.4791 9.98831 11.5014 10.0322 11.5657 10.0845C11.4571 10.2339 11.267 10.2855 11.153 10.4283Z" fill="#FABE2A"/>
<path d="M16.2647 12.7485C16.1277 13.0218 16.0245 13.3201 15.8036 13.5369C15.6923 13.6462 15.5237 13.6978 15.3813 13.7751C15.3786 13.7628 15.3759 13.7505 15.3728 13.7382C15.4236 13.7078 15.4794 13.6801 15.4679 13.595C15.3728 13.6104 15.3747 13.6754 15.3689 13.7355C15.1099 13.8802 14.9436 13.7136 14.7996 13.5438C14.6933 13.4187 14.594 13.4976 14.5089 13.5295C14.4308 13.5588 14.3677 13.5696 14.293 13.5446C14.5682 13.3043 14.8138 13.0329 15.0871 12.7896C15.2334 12.6595 15.3301 12.4724 15.4448 12.3084C15.476 12.2642 15.5102 12.2326 15.5614 12.2188C15.5837 12.2753 15.5472 12.3173 15.5241 12.3612C15.4124 12.5725 15.4305 12.5887 15.6526 12.688C15.8524 12.7777 16.0507 12.7223 16.2497 12.7331C16.2555 12.7373 16.2605 12.7427 16.2647 12.7485Z" fill="#FABE2A"/>
<path d="M15.3749 3.84578C15.2382 3.87811 15.1455 3.75031 15.018 3.74838C14.9761 3.74761 14.9203 3.71835 14.8999 3.77148C14.8895 3.79843 14.9087 3.85194 14.9322 3.87388C15.0546 3.98667 15.0242 4.13103 15.023 4.26962C15.023 4.31389 15.0242 4.36316 14.9653 4.37587C14.9226 4.38511 14.8975 4.35893 14.8671 4.3316C14.6419 4.12795 14.5611 4.13565 14.3913 4.36894C14.3767 4.38896 14.3567 4.41629 14.3363 4.4186C14.2038 4.43554 14.1188 4.53216 14.0133 4.59029C13.8982 4.65381 13.8693 4.70616 13.8793 4.81857C13.9013 5.06726 13.7592 5.27052 13.6834 5.49148C13.6649 5.54538 13.6299 5.5935 13.6368 5.65432C13.4936 5.61583 13.4794 5.56155 13.5506 5.41642C13.8601 4.78354 13.8401 4.1164 13.7022 3.4458C13.6815 3.34533 13.638 3.23754 13.7107 3.16132C13.7993 3.06816 13.9024 3.15554 14.0056 3.17517C14.4941 3.26757 14.8979 3.53319 15.3125 3.77918C15.3376 3.79419 15.3545 3.82345 15.3749 3.84616V3.84578ZM14.2208 3.9655C14.3224 3.95087 14.4976 3.99707 14.4741 3.82807C14.451 3.66061 14.3894 3.47698 14.1823 3.41347C14.063 3.37689 13.9917 3.43002 14.0056 3.5328C14.0171 3.61711 13.9979 3.69603 14.0064 3.77764C14.0198 3.90968 14.056 4.00554 14.2208 3.9655ZM14.1511 4.2727C14.1396 4.25653 14.1299 4.24344 14.1207 4.23035C14.1149 4.24075 14.1038 4.25191 14.1045 4.26192C14.1057 4.27924 14.1145 4.2958 14.1199 4.31273C14.1295 4.30042 14.1392 4.2881 14.1511 4.2727Z" fill="#FABE2A"/>
<path d="M17.8313 19.6331C17.7074 19.4272 17.5834 19.2208 17.4591 19.0149C17.3201 18.7847 17.1969 18.5472 17.1176 18.2885C17.0968 18.2199 17.0876 18.1518 17.1134 18.0625C17.3216 18.307 17.5603 18.501 17.8356 18.6423C18.1735 18.8159 18.5308 18.9294 18.9161 18.9352C18.9639 18.936 19.032 18.9156 19.0528 18.9737C19.072 19.0276 19.0128 19.0653 18.9789 19.0977C18.7429 19.3217 18.5 19.5384 18.2652 19.7636C18.1451 19.8787 18.0484 19.9107 17.9537 19.7378C17.9295 19.6932 17.9037 19.6289 17.8305 19.6324L17.8317 19.6335L17.8313 19.6331Z" fill="#674D36"/>
<path d="M16.8677 15.5131C16.6505 15.9258 16.4019 16.32 16.1001 16.6742C15.6485 17.2039 15.1912 17.7286 14.7735 18.2856C13.9982 19.3204 13.5732 20.4764 13.5932 21.7807C13.594 21.8188 13.6001 21.8569 13.6036 21.895C13.5331 21.9593 13.4508 21.9412 13.3691 21.9296C13.3707 20.727 13.7414 19.6357 14.3774 18.6274C14.7662 18.0107 15.2462 17.4653 15.7182 16.9121C16.1235 16.4374 16.5301 15.9593 16.7772 15.3738C16.7988 15.3229 16.8434 15.2818 16.8769 15.2363C16.8946 15.2363 16.9123 15.2363 16.93 15.2363C16.9316 15.2621 16.9335 15.2875 16.935 15.3133C16.9035 15.3768 16.9196 15.4565 16.8673 15.5131H16.8677Z" fill="#A9A091"/>
<path d="M7.30664 20.8523C7.47525 20.8523 7.64425 20.8562 7.81286 20.8516C8.24248 20.8396 8.65516 20.748 9.04936 20.5759C9.16138 20.5271 9.23183 20.5294 9.28034 20.6653C9.33885 20.8304 9.36272 20.9852 9.3146 21.1603C9.26994 21.3212 9.20296 21.4825 9.2376 21.6565C8.96505 21.6835 7.74665 21.1672 7.30703 20.8523H7.30664Z" fill="#7E6853"/>
<path d="M11.7143 6.19715C11.9371 6.19677 12.1535 6.19523 12.3583 6.06627C12.433 6.01892 12.5666 6.05164 12.672 6.0501C12.8183 6.04779 12.9046 5.98966 12.9415 5.85877C12.9615 5.78755 12.9931 5.76061 13.0635 5.77908C13.1371 5.96733 13.211 6.15558 13.2845 6.34382C13.2048 6.44199 13.0943 6.47894 12.9758 6.50281C12.8129 6.53553 12.6682 6.61791 12.5127 6.67142C12.3529 6.72647 12.207 6.8308 12.0261 6.81386C11.951 6.59366 11.7797 6.42197 11.7139 6.19715H11.7143Z" fill="#FABE2A"/>
<path d="M11.1377 15.9661C11.177 15.7802 11.3479 15.6889 11.4441 15.5423C11.6281 15.262 11.8318 14.9941 11.9908 14.6973C12.3796 14.9132 12.8215 14.9225 13.3008 15.0314C13.0729 15.1134 12.8947 15.1796 12.7149 15.2424C12.1952 15.4245 11.6609 15.5742 11.2255 15.9376C11.2035 15.9557 11.1673 15.9569 11.1381 15.9661H11.1377Z" fill="#A9A091"/>
<path d="M11.6785 9.62236C11.5137 9.61351 11.357 9.63122 11.3228 9.38407C11.27 9.00104 11.2581 8.99334 11.6446 8.91211L11.6442 8.92096C11.6596 8.99411 11.7039 8.98949 11.7566 8.96254L11.7578 8.96331C11.7578 9.02683 11.7943 9.01759 11.834 9.00142C11.8352 9.06186 11.8787 9.04107 11.911 9.04107L11.9094 9.0403C11.9202 9.06224 11.9314 9.06378 11.9437 9.04184C11.9857 9.05647 12.0276 9.0711 12.0692 9.08573C12.0804 9.09689 12.0915 9.10767 12.1027 9.11883L12.1023 9.11806C12.1959 9.21199 12.2948 9.29322 12.4411 9.26704C12.4688 9.33711 12.4449 9.39985 12.3895 9.43566C12.0946 9.6266 11.8837 9.92417 11.5645 10.0839C11.5002 10.0312 11.4775 9.98769 11.5645 9.92571C11.6785 9.84448 11.784 9.75094 11.8879 9.65662C11.9233 9.62467 12.0176 9.59965 11.9591 9.53267C11.9095 9.47608 11.8787 9.55923 11.8405 9.58464C11.8151 9.60157 11.7836 9.60966 11.7547 9.62159L11.7512 9.61736C11.7466 9.59541 11.7462 9.56385 11.717 9.5677C11.7027 9.56962 11.6927 9.60042 11.6808 9.61813L11.6777 9.62198L11.6785 9.62236Z" fill="#EAA10F"/>
<path d="M7.82357 7.23633C8.05455 7.44074 7.98911 7.90731 7.71655 8.01164C7.52677 8.0844 7.34122 8.16639 7.16683 8.27187C7.06905 8.33077 7.04518 8.30767 7.01323 8.18949C6.91699 7.83032 7.01592 7.59742 7.37201 7.46115C7.48558 7.41764 7.57989 7.3164 7.69807 7.26558C7.80047 7.40918 7.73965 7.57278 7.75312 7.72715C7.75813 7.78182 7.73888 7.86535 7.81164 7.86497C7.87785 7.86497 7.87862 7.78028 7.874 7.72484C7.86053 7.56162 7.8409 7.39917 7.82357 7.23633Z" fill="#EAA10F"/>
<path d="M8.77566 8.97166C8.6032 8.8019 8.55123 8.56745 8.44767 8.36073C8.40379 8.27257 8.38608 8.15093 8.25211 8.16017C8.11545 8.1694 7.9888 8.20983 7.93799 8.36073C7.70508 8.2437 7.51684 8.46159 7.29395 8.47699C7.30049 8.34841 7.38133 8.32762 7.44754 8.29298C7.63348 8.19635 7.81634 8.09241 8.00766 8.00695C8.13624 7.94959 8.1655 7.85412 8.12931 7.74364C8.08619 7.61083 8.1066 7.46531 8.03615 7.3402C8.01652 7.30555 8.00882 7.2582 8.04885 7.23895C8.09235 7.21778 8.12777 7.23664 8.1501 7.29092C8.18744 7.381 8.22979 7.47301 8.36029 7.39486C8.40302 7.36907 8.44382 7.38986 8.4496 7.45338C8.49541 7.96807 8.59819 8.47044 8.78374 8.95395C8.78528 8.95819 8.77912 8.9655 8.77643 8.97128L8.77566 8.97166Z" fill="#A9A091"/>
<path d="M14.6317 6.66164C14.3914 6.49149 14.1485 6.3479 13.8298 6.38216C13.6897 6.39717 13.5946 6.5092 13.4564 6.50612C13.441 6.3683 13.4283 6.2301 13.4102 6.09228C13.3975 5.99566 13.4236 5.94831 13.5314 5.96101C13.8144 5.99412 14.0908 6.05571 14.3456 6.18237C14.5358 6.27707 14.6259 6.44799 14.6317 6.66087V6.66164Z" fill="#A9A091"/>
<path d="M11.4038 6.00594C11.2595 5.90355 11.132 5.86466 10.9788 6.01749C10.8795 6.11643 10.8483 6.19034 10.9122 6.3116C10.9449 6.37358 10.9638 6.44288 10.9396 6.51525C10.7786 6.37705 10.6385 6.22037 10.5142 6.04829C10.4764 5.99632 10.4938 5.96629 10.5326 5.93896C10.6955 5.82463 10.8583 5.71029 11.0246 5.60135C11.0801 5.56516 11.1571 5.55516 11.1967 5.61598C11.2768 5.73917 11.3977 5.84311 11.4034 6.00633L11.4038 6.00594Z" fill="#A9A091"/>
<path d="M18.4579 9.41841C18.377 9.24672 18.4317 9.05693 18.3847 8.87869C18.3608 8.78861 18.3543 8.72625 18.2388 8.72933C18.1237 8.73241 18.0787 8.65811 18.0671 8.54455C18.0436 8.30895 18.1179 8.08028 18.1064 7.84623C18.1149 7.76269 18.0698 7.66915 18.1534 7.58984C18.3485 8.03409 18.3851 8.50182 18.4532 8.96261C18.4552 8.99226 18.4571 9.0219 18.459 9.05154C18.4586 9.17396 18.4582 9.29599 18.4579 9.41841Z" fill="#FABE2A"/>
<path d="M12.0264 6.81379C12.2073 6.83034 12.3532 6.7264 12.513 6.67135C12.6681 6.61784 12.8132 6.53546 12.9761 6.50274C13.0946 6.47887 13.2051 6.44192 13.2848 6.34375C13.3834 6.51236 13.3641 6.58705 13.1997 6.65056C12.9206 6.75797 12.6369 6.85459 12.3613 6.97008C12.1796 7.04592 12.0706 7.01166 12.0271 6.81379H12.0264Z" fill="#EAA10F"/>
<path d="M7.3998 11.4789C7.41558 11.4262 7.43137 11.3731 7.44715 11.3203C7.45215 11.5863 7.56495 11.8262 7.60113 12.0806C7.61153 12.1545 7.62 12.1988 7.71547 12.1822C7.84096 12.1603 7.87215 12.2127 7.82518 12.337C7.7505 12.5349 7.78399 12.5741 7.98917 12.5614C8.02728 12.5591 8.06848 12.5391 8.08657 12.5872C8.10582 12.6388 8.06193 12.6669 8.03306 12.7C7.96377 12.7797 7.8171 12.7616 7.78938 12.8933C7.63847 12.824 7.67851 12.6684 7.64117 12.551C7.52953 12.2011 7.45677 11.8415 7.39941 11.4789H7.3998Z" fill="#FABE2A"/>
<path d="M7.54984 12.705C7.48016 12.705 7.47785 12.6411 7.45437 12.5999C7.4305 12.5576 7.43551 12.4883 7.36814 12.4887C7.3 12.4887 7.30116 12.5545 7.2873 12.6015C7.27767 12.6342 7.26266 12.66 7.22609 12.6669C7.19337 12.598 7.16411 12.528 7.1745 12.4487C7.20415 12.2261 7.12099 12.0102 7.13678 11.7888C7.13947 11.753 7.12715 11.708 7.18297 11.7018C7.22647 11.6968 7.25997 11.7207 7.27267 11.7588C7.37699 12.0706 7.52443 12.3701 7.54984 12.705Z" fill="#A9A091"/>
<path d="M17.994 7.57321C17.9782 7.70949 18.0155 7.85462 17.9101 8.00976C17.8562 7.67946 17.8019 7.37688 17.7584 7.07276C17.7307 6.87874 17.6171 6.70089 17.6537 6.49609C17.8881 6.81715 17.9728 7.18517 17.994 7.57321Z" fill="#FABE2A"/>
<path d="M8.54688 7.20785C8.55534 7.17089 8.56343 7.13432 8.58229 7.05078C8.69816 7.69482 8.86447 8.2842 8.94454 8.89166C8.81904 8.71997 8.77939 8.52441 8.74898 8.31576C8.7101 8.05091 8.63311 7.79183 8.58499 7.52659C8.56574 7.41996 8.58037 7.31101 8.54688 7.20746V7.20785Z" fill="#FABE2A"/>
<path d="M12.3353 4.4559C12.3287 4.47284 12.3183 4.50517 12.316 4.50479C12.0038 4.43088 11.7055 4.44242 11.4295 4.62913C11.3667 4.67148 11.2974 4.70689 11.2158 4.68533C11.4456 4.49786 11.7236 4.38968 11.9692 4.22839C12.0997 4.14254 12.1955 4.20028 12.2645 4.32347C12.2891 4.36736 12.3118 4.41201 12.3353 4.45628V4.4559Z" fill="#FABE2A"/>
<path d="M7.6291 8.53919C7.72996 8.53534 7.73728 8.61926 7.7496 8.6824C7.87086 9.29564 7.94015 9.91966 8.13533 10.5171C8.14649 10.551 8.13687 10.5918 8.13687 10.6326C8.06026 10.6187 8.06757 10.5595 8.05795 10.5148C7.95401 10.0344 7.85777 9.55202 7.74498 9.0739C7.70533 8.90644 7.69416 8.71242 7.50977 8.61387C7.54018 8.57384 7.57328 8.53804 7.62949 8.53919H7.6291Z" fill="#FABE2A"/>
<path d="M9.3965 10.348C9.3915 10.5066 9.22596 10.5163 9.14974 10.6102C9.06736 10.7118 8.93724 10.7638 8.85832 10.8739C8.81136 10.9393 8.76324 10.9174 8.73321 10.8489C8.7309 10.8389 8.7336 10.8304 8.74207 10.8242C8.80905 10.8531 8.80751 10.8015 8.81598 10.7615C9.01423 10.6298 9.17861 10.4516 9.3965 10.3477V10.348Z" fill="#FABE2A"/>
<path d="M7.82374 7.23781C7.84106 7.40064 7.8607 7.5631 7.87417 7.72632C7.87879 7.78176 7.87802 7.86606 7.81181 7.86645C7.73943 7.86683 7.7583 7.78291 7.75329 7.72863C7.73943 7.57426 7.80064 7.41104 7.69824 7.26706C7.7325 7.22472 7.7787 7.23434 7.82374 7.23781Z" fill="#FABE2A"/>
<path d="M8.36566 6.92132C8.37875 7.01948 8.37336 7.07877 8.30291 7.09455C8.21552 7.11418 8.22091 7.04104 8.20975 6.98753C8.20859 6.98137 8.20821 6.97483 8.20628 6.96905C8.17664 6.87859 8.14854 6.78735 8.20705 6.69842C8.2136 6.6888 8.24478 6.6838 8.25594 6.69073C8.3568 6.75193 8.34179 6.86511 8.36566 6.92132Z" fill="#EAA10F"/>
<path d="M8.15225 3.41304C8.07834 3.43922 8.00443 3.4654 7.93051 3.49157C7.88817 3.35684 7.83851 3.22326 7.86661 3.07812C7.95323 3.09699 7.97478 3.17975 8.02175 3.23711C8.02444 3.25867 8.03484 3.27215 8.05871 3.27099L8.06256 3.27445C8.05678 3.32912 8.08103 3.3553 8.13647 3.35068C8.14186 3.37146 8.14725 3.39225 8.15264 3.41304H8.15225Z" fill="#FABE2A"/>
<path d="M12.7074 5.10823C12.6743 5.14904 12.6077 5.1883 12.6951 5.23758C12.7325 5.25875 12.7659 5.28685 12.7317 5.32188C12.704 5.35075 12.6547 5.36731 12.6131 5.37154C12.5592 5.37693 12.5558 5.32304 12.565 5.29109C12.6046 5.15058 12.4753 5.01045 12.5665 4.87109C12.5873 4.90997 12.6081 4.94924 12.6289 4.98851C12.617 5.0374 12.6458 5.04471 12.6839 5.04279C12.6916 5.06473 12.6993 5.08629 12.707 5.10823H12.7074Z" fill="#FABE2A"/>
<path d="M17.5311 6.27042C17.3505 6.11297 17.1938 5.93935 17.1465 5.69336C17.3213 5.85466 17.451 6.04637 17.5311 6.27042Z" fill="#FABE2A"/>
<path d="M11.248 5.20654C11.3393 5.10568 11.4124 5.08412 11.4067 5.25774C11.4024 5.38785 11.4979 5.49526 11.4771 5.62615C11.3408 5.51874 11.3643 5.32472 11.248 5.20654Z" fill="#FABE2A"/>
<path d="M16.1455 13.3181C16.1751 13.2084 16.2002 13.0971 16.2352 12.9894C16.2725 12.8743 16.3249 12.9178 16.3738 12.9844C16.3099 13.1041 16.2895 13.2534 16.1455 13.3181Z" fill="#FABE2A"/>
<path d="M16.7183 7.69676C16.6371 7.52161 16.6875 7.33836 16.6856 7.1582C16.8057 7.33105 16.7591 7.51391 16.7183 7.69676Z" fill="#EAA10F"/>
<path d="M14.1765 13.6598C14.1946 13.686 14.2111 13.7137 14.2315 13.7376C14.265 13.7769 14.3112 13.815 14.252 13.8654C14.2092 13.902 14.1676 13.8866 14.138 13.8431C14.1007 13.7892 14.0445 13.7803 13.9863 13.7757C14.0314 13.7068 14.0776 13.6398 14.1765 13.6598Z" fill="#FABE2A"/>
<path d="M7.23619 8.81445C7.14418 8.88221 7.16112 9.03735 7.02908 9.07276C6.99944 8.90761 7.0695 8.82215 7.23619 8.81445Z" fill="#FABE2A"/>
<path d="M10.8584 5.56814C10.95 5.47844 11.0297 5.3668 11.2141 5.38721C11.0971 5.4796 11.0135 5.57045 10.8853 5.59509C10.8765 5.58623 10.8676 5.57699 10.8588 5.56814H10.8584Z" fill="#EAA10F"/>
<path d="M13.9852 13.7758C13.9736 13.8401 14.0221 13.8886 14.0587 13.974C13.947 13.9317 13.8547 13.9567 13.7861 13.8866C13.8701 13.8813 13.8978 13.7754 13.9848 13.7754L13.9852 13.7758Z" fill="#FABE2A"/>
<path d="M12.4423 9.26812C12.296 9.29468 12.1971 9.21307 12.1035 9.11914C12.234 9.12876 12.3541 9.16226 12.4423 9.26812Z" fill="#FABE2A"/>
<path d="M16.6845 9.04394C16.6826 8.94154 16.6514 8.83683 16.7056 8.73828C16.7703 8.8453 16.7903 8.94885 16.6845 9.04394Z" fill="#EAA10F"/>
<path d="M15.6056 4.04357C15.477 4.03818 15.3897 3.98506 15.377 3.8457C15.4863 3.87304 15.5575 3.94541 15.6056 4.04357Z" fill="#FABE2A"/>
<path d="M16.8682 15.5123C16.9209 15.4561 16.9047 15.376 16.9359 15.3125C16.9598 15.4068 16.9767 15.5004 16.9082 15.5851C16.8655 15.577 16.8766 15.5389 16.8682 15.5123Z" fill="#EAA10F"/>
<path d="M17.0684 5.57781C16.9557 5.58243 16.9326 5.5193 16.953 5.42383C17.0323 5.44462 17.0492 5.51198 17.0684 5.57781Z" fill="#FABE2A"/>
<path d="M16.9306 15.2365C16.9129 15.2365 16.8951 15.2365 16.8774 15.2365C16.8844 15.1841 16.8355 15.1145 16.924 15.0879C16.9683 15.1356 16.9594 15.1857 16.9302 15.2365H16.9306Z" fill="#EAA10F"/>
<path d="M4.65286 18.8028C4.60667 18.789 4.55431 18.7836 4.54199 18.7204C4.60936 18.6846 4.6467 18.727 4.68327 18.772C4.67326 18.782 4.66287 18.7924 4.65286 18.8028Z" fill="#EAA10F"/>
<path d="M5.28198 4.99414C5.27621 5.04149 5.24387 5.06536 5.20384 5.0823C5.19614 5.08307 5.18805 5.08422 5.18035 5.08538C5.17342 5.07806 5.16649 5.07113 5.15918 5.0642C5.17265 4.99222 5.23001 4.99837 5.28198 4.99453V4.99414Z" fill="#EAA10F"/>
<path d="M16.0676 13.4327C16.0672 13.3769 16.0622 13.318 16.1449 13.3184C16.1499 13.3773 16.113 13.4077 16.0676 13.4327Z" fill="#FABE2A"/>
<path d="M15.9893 13.5445C15.9943 13.4929 15.9943 13.4378 16.067 13.4336C16.0636 13.4863 16.0451 13.5283 15.9893 13.5445Z" fill="#FABE2A"/>
<path d="M16.9533 5.42515C16.9005 5.44247 16.8578 5.43246 16.8301 5.38088C16.9021 5.31004 16.9217 5.38473 16.9533 5.42515Z" fill="#FABE2A"/>
<path d="M8.50098 6.81445C8.58605 6.84717 8.55333 6.89722 8.52022 6.94688C8.51368 6.90261 8.50752 6.85834 8.50098 6.81445Z" fill="#FABE2A"/>
<path d="M8.8161 10.7637C8.80763 10.8037 8.80879 10.8553 8.74219 10.8264C8.7495 10.7848 8.77837 10.7691 8.8161 10.7637Z" fill="#EAA10F"/>
<path d="M11.7569 8.96248C11.7042 8.98943 11.6603 8.99366 11.6445 8.9209C11.695 8.90012 11.7311 8.91705 11.7569 8.96248Z" fill="#FABE2A"/>
<path d="M5.07604 5.17695C5.06103 5.19928 5.04602 5.22161 5.031 5.24355C5.02099 5.2347 5.01099 5.22584 5.00098 5.2166C5.01868 5.19466 5.03639 5.17272 5.0541 5.15039C5.06103 5.15924 5.06835 5.1681 5.07604 5.17657V5.17695Z" fill="#EAA10F"/>
<path d="M11.8682 22.0285C11.8959 22.0281 11.9232 22.0277 11.9509 22.0273C11.9236 22.0578 11.8963 22.0578 11.8682 22.0285Z" fill="#EAA10F"/>
<path d="M17.5726 6.33731C17.5191 6.34039 17.5253 6.30575 17.531 6.27148C17.5695 6.27803 17.5688 6.30921 17.5726 6.33731Z" fill="#FABE2A"/>
<path d="M11.912 9.04294C11.8796 9.04294 11.8365 9.06372 11.835 9.00328C11.8688 9.00059 11.9027 8.99751 11.912 9.04294Z" fill="#FABE2A"/>
<path d="M18.4599 9.05182C18.458 9.02217 18.456 8.99253 18.4541 8.96289C18.4803 8.99099 18.4845 9.02025 18.4599 9.05182Z" fill="#EAA10F"/>
<path d="M5.14033 5.12395C5.11877 5.14204 5.09721 5.15975 5.07565 5.17784C5.06834 5.16937 5.06103 5.16052 5.05371 5.15166C5.06757 5.12356 5.08913 5.10662 5.12146 5.10547C5.12801 5.11163 5.13417 5.1174 5.14033 5.12356V5.12395Z" fill="#EAA10F"/>
<path d="M12.6847 5.04256C12.6466 5.04449 12.6177 5.03717 12.6297 4.98828C12.6616 4.99252 12.682 5.0083 12.6847 5.04256Z" fill="#EAA10F"/>
<path d="M11.834 9.00274C11.7944 9.01891 11.7578 9.02776 11.7578 8.96463C11.7909 8.96232 11.826 8.95539 11.834 9.00274Z" fill="#FABE2A"/>
<path d="M10.8399 5.62661C10.8249 5.6474 10.7995 5.6678 10.7829 5.64548C10.7618 5.61737 10.7968 5.6116 10.8168 5.60352C10.8245 5.61121 10.8322 5.61891 10.8403 5.62623L10.8399 5.62661Z" fill="#EAA10F"/>
<path d="M17.1082 5.65512C17.0577 5.64857 17.0546 5.61778 17.0689 5.57812C17.1139 5.58736 17.1216 5.61585 17.1082 5.65512Z" fill="#FABE2A"/>
<path d="M8.94389 8.89062C8.9566 8.91642 8.96969 8.94221 8.98239 8.968C8.94543 8.95414 8.94158 8.92412 8.94389 8.89062Z" fill="#FABE2A"/>
<path d="M14.2949 13.5449C14.2815 13.558 14.268 13.5715 14.2549 13.5846C14.2541 13.5569 14.2703 13.5465 14.2949 13.5449Z" fill="#FABE2A"/>
<path d="M10.1406 8.58545C10.1414 8.5558 10.161 8.55041 10.1853 8.5508C10.1703 8.56235 10.1556 8.5739 10.1406 8.58545Z" fill="#FABE2A"/>
<path d="M14.2561 13.582C14.2427 13.5951 14.2296 13.6086 14.2161 13.6217C14.2134 13.5921 14.2296 13.5817 14.2561 13.582Z" fill="#FABE2A"/>
<path d="M10.8853 5.59531C10.8703 5.6057 10.8553 5.61609 10.8399 5.62649C10.8322 5.61917 10.8245 5.61148 10.8164 5.60378C10.8303 5.59184 10.8445 5.58029 10.8584 5.56836C10.8672 5.57721 10.8761 5.58607 10.8849 5.59531H10.8853Z" fill="#EAA10F"/>
<path d="M11.9444 9.04401C11.9321 9.06595 11.9206 9.06441 11.9102 9.04247C11.9217 9.04016 11.9333 9.04055 11.9444 9.04401Z" fill="#FABE2A"/>
<path d="M14.2168 13.6201C14.2037 13.6332 14.1902 13.6463 14.1771 13.6594C14.1652 13.6209 14.1875 13.6166 14.2168 13.6201Z" fill="#FABE2A"/>
<path d="M5.17537 5.11796C5.16344 5.1195 5.15189 5.12104 5.13996 5.12297C5.1338 5.11681 5.12764 5.11103 5.12109 5.10487C5.13341 5.0914 5.14612 5.07793 5.15843 5.06445C5.16536 5.07138 5.17268 5.07831 5.17961 5.08563C5.1773 5.09679 5.17499 5.10834 5.17268 5.1195L5.17499 5.11758L5.17537 5.11796Z" fill="#EAA10F"/>
<path d="M17.1461 5.69345C17.1183 5.69499 17.1045 5.68306 17.1079 5.65457C17.1368 5.65188 17.1453 5.6692 17.1461 5.69345Z" fill="#FABE2A"/>
<path d="M4.96484 5.25375C4.97678 5.24143 4.98871 5.22912 5.00065 5.2168C5.01027 5.22565 5.02028 5.2345 5.03029 5.24374C5.01874 5.25799 5.00719 5.27223 4.99564 5.28609C4.98525 5.27531 4.97485 5.26453 4.96484 5.25375Z" fill="#EAA10F"/>
<path d="M8.05844 3.2702C8.03457 3.27136 8.02418 3.25789 8.02148 3.23633C8.0338 3.24749 8.04612 3.25904 8.05844 3.2702Z" fill="#EAA10F"/>
<path d="M12.3005 11.282C11.9895 11.7801 11.8293 12.3379 11.658 12.8919C11.6376 12.9581 11.715 12.9946 11.6719 13.0493C11.5699 13.0586 11.4983 13.0185 11.4644 12.9192C11.4155 12.7756 11.3127 12.7233 11.1664 12.739C10.8319 12.7748 10.5416 12.6651 10.2772 12.4688C10.1832 12.3995 10.2044 12.311 10.3415 12.2432C10.4727 12.1781 10.6009 12.1127 10.7245 12.0292C10.9863 11.8525 11.1187 11.5842 11.2823 11.3351C11.3158 11.2839 11.327 11.2107 11.4039 11.1973C11.4236 11.2681 11.4036 11.3335 11.3797 11.3998C11.3216 11.5622 11.2661 11.7258 11.2099 11.889C11.1387 11.966 11.0775 12.0484 11.0794 12.1608C11.0028 12.237 10.9266 12.3133 10.85 12.3899C10.7222 12.4218 10.594 12.4542 10.4531 12.4896C10.6159 12.5739 11.039 12.4954 11.1845 12.3656C11.1337 12.3237 11.076 12.4084 11.0251 12.3568C11.0517 12.3302 11.0779 12.3036 11.1044 12.2771C11.253 12.2317 11.3162 12.3448 11.3935 12.4322C11.5906 12.4642 11.6961 12.391 11.777 12.1685C11.8963 11.8394 12.0645 11.5368 12.2713 11.255C12.2813 11.2642 12.2913 11.2735 12.3013 11.2827L12.3005 11.282Z" fill="#A9A091"/>
<path d="M8.48536 16.002C8.41722 16.0901 8.33677 16.1098 8.23668 16.0536C8.12812 15.9927 8.04535 15.9061 8.06691 15.7799C8.13967 15.3502 8.48729 15.0969 8.93692 15.2425C9.00275 15.2636 9.03124 15.3079 9.02662 15.371C9.01853 15.4769 9.01738 15.5874 8.92537 15.6651C8.88534 15.5808 8.8299 15.51 8.72558 15.5327C8.61663 15.5562 8.55581 15.6424 8.52694 15.7421C8.50269 15.8257 8.49845 15.915 8.48536 16.0016V16.002Z" fill="#A9A091"/>
<path d="M13.9759 10.5349C13.4296 10.4328 12.9565 10.5464 12.59 10.9937C12.5042 11.0984 12.3972 11.1862 12.3001 11.2817C12.2901 11.2724 12.2801 11.2632 12.2705 11.2543C12.5342 10.8509 12.8441 10.5118 13.3496 10.4121C13.4677 10.389 13.5905 10.4074 13.7049 10.3543C13.8488 10.2877 13.8766 10.1865 13.7634 10.0737C13.6629 9.97358 13.5432 9.90121 13.4015 9.87234C13.4015 9.85617 13.4015 9.84039 13.4011 9.82422C13.7353 9.82999 13.8966 10.0744 14.0679 10.3058C14.0059 10.3693 14.0621 10.4806 13.9759 10.5345V10.5349Z" fill="#000001"/>
<path d="M13.9756 10.5353C14.0618 10.4814 14.0056 10.3702 14.0676 10.3066C14.1276 10.3602 14.1473 10.4325 14.1619 10.5076C14.1392 10.6658 14.2308 10.784 14.3024 10.9091C14.399 11.3918 14.4125 11.8734 14.2959 12.3562C14.2678 12.4717 14.2012 12.5617 14.1384 12.6561C14.1019 12.6222 14.118 12.5891 14.1365 12.5533C14.2555 12.3208 14.3147 12.0751 14.2959 11.813C14.2666 11.7776 14.2474 11.7379 14.2528 11.691C14.287 11.3942 14.1788 11.117 14.138 10.8306C14.1207 10.7074 14.021 10.6381 13.9756 10.5353Z" fill="#000001"/>
<path d="M13.4014 9.8245C13.4014 9.84067 13.4014 9.85645 13.4018 9.87262C12.4448 9.868 11.8223 10.2291 11.5567 11.0479C11.5228 11.0479 11.489 11.0479 11.4551 11.0483C11.6953 10.1937 12.4668 9.74135 13.4014 9.82412V9.8245Z" fill="#000001"/>
<path d="M11.9424 13.3341C12.2357 13.3214 12.5179 13.2536 12.7955 13.1639C12.8621 13.2883 12.9668 13.2444 13.0622 13.219C13.182 13.1874 13.299 13.1462 13.4233 13.127C13.3352 13.2548 13.1943 13.2736 13.0688 13.3237C12.757 13.448 12.4394 13.5061 12.1052 13.4372C12.0359 13.423 11.9659 13.4172 11.9428 13.3341H11.9424Z" fill="#A9A091"/>
<path d="M14.2963 11.8125C14.3152 12.0747 14.2559 12.3203 14.137 12.5528C14.1185 12.589 14.1023 12.6221 14.1389 12.6556C14.0561 12.7426 14.0249 12.669 13.9988 12.6063C13.9803 12.5624 13.9895 12.5008 13.9141 12.5089C14.0603 12.3399 14.1716 12.1536 14.2174 11.9311C14.227 11.8845 14.2413 11.8325 14.2967 11.8125H14.2963Z" fill="#A9A091"/>
<path d="M14.3032 10.9093C14.2316 10.7842 14.14 10.666 14.1627 10.5078C14.277 10.6183 14.3113 10.7565 14.3032 10.9093Z" fill="#000001"/>
<path d="M9.2985 11.6666C9.28888 11.7113 9.2627 11.7367 9.21612 11.739L9.20996 11.7302C9.21535 11.6832 9.24692 11.6639 9.28888 11.6562L9.2985 11.6666Z" fill="#FABE2A"/>
<path d="M9.68108 11.3566C9.67299 11.3851 9.66337 11.4128 9.6268 11.4135C9.62295 11.4135 9.61486 11.4055 9.61525 11.4016C9.61794 11.3639 9.64797 11.3589 9.67607 11.3516L9.68108 11.357V11.3566Z" fill="#FABE2A"/>
<path d="M9.67578 11.3507C9.6804 11.318 9.69041 11.2903 9.73083 11.291C9.73545 11.291 9.74353 11.2995 9.74353 11.3037C9.74199 11.3434 9.71428 11.3534 9.68117 11.3561L9.67617 11.3507H9.67578Z" fill="#FABE2A"/>
<path d="M9.45075 11.5503C9.43843 11.5784 9.42073 11.6 9.38685 11.5988C9.38338 11.5988 9.37723 11.5888 9.378 11.5846C9.38608 11.5468 9.41765 11.548 9.44613 11.5449L9.45075 11.5503Z" fill="#FABE2A"/>
<path d="M9.44629 11.5446C9.45822 11.5049 9.48402 11.4795 9.52328 11.4668L9.52713 11.4706C9.52559 11.5199 9.4998 11.5461 9.45129 11.5499L9.44667 11.5446H9.44629Z" fill="#FABE2A"/>
<path d="M9.21621 11.7393C9.20351 11.7489 9.19119 11.7586 9.17848 11.7682L9.16309 11.7474C9.17887 11.7416 9.19465 11.7362 9.21005 11.7305L9.21621 11.7393Z" fill="#FABE2A"/>
<path d="M9.52344 11.4682C9.5296 11.4639 9.53614 11.4593 9.5423 11.4551C9.5373 11.4609 9.53191 11.4666 9.5269 11.4724L9.52344 11.4686V11.4682Z" fill="#FABE2A"/>
<path d="M9.28906 11.6559C9.29676 11.6478 9.31062 11.6324 9.311 11.6328C9.33641 11.6544 9.31524 11.6594 9.29869 11.6663L9.28906 11.6559Z" fill="#FABE2A"/>
<path d="M16.25 12.7325C16.305 12.6074 16.3601 12.4823 16.4344 12.3145C16.4463 12.5219 16.3628 12.6378 16.265 12.7479C16.2608 12.7421 16.2558 12.7368 16.25 12.7325Z" fill="#FABE2A"/>
<path d="M9.97981 8.50846C9.83237 8.1747 9.71111 7.83132 9.59793 7.48485C9.5629 7.37783 9.70033 7.35666 9.71573 7.27004C9.71919 7.25118 9.75307 7.25465 9.7804 7.27004C10.058 7.42749 10.0676 7.42133 10.0645 7.10759C10.0637 7.03753 10.0726 6.96593 10.0249 6.90472C9.99521 6.86661 9.97827 6.81848 10.0129 6.78114C10.1904 6.58905 10.1838 6.40658 10.0329 6.19254C9.95132 6.07667 9.91937 5.91383 9.84969 5.79256C9.74344 5.6074 9.6191 5.42839 9.50477 5.24515C9.45049 5.15815 9.41931 5.04074 9.2915 5.01995C9.26802 4.9649 9.36118 4.83902 9.3377 4.78397C9.17909 4.68311 9.16177 4.53182 9.07092 4.36782C8.93734 4.12684 8.16434 3.31496 8.13662 3.35076C8.03691 3.47933 8.00496 3.46548 7.93066 3.49165C7.95415 3.53862 7.97763 3.58558 8.00111 3.63293C7.94914 3.71801 8.01536 3.79346 8.02421 3.87276C8.07387 4.32471 8.13546 4.77742 8.43342 5.14621C8.49964 5.22821 8.48847 5.33754 8.5466 5.39567C8.72522 5.57429 8.74601 5.79025 8.76025 6.022C8.77103 6.19793 8.818 6.39926 8.97776 6.47856C9.10633 6.54247 9.1329 6.65526 9.21489 6.73726C9.21836 6.76228 9.21759 6.78923 9.22606 6.81271C9.3658 7.19767 9.54442 7.56685 9.68532 7.95219C9.76847 8.18009 9.71842 8.38605 9.66491 8.59777C9.64374 8.6817 9.53133 8.74059 9.48629 8.68478C9.37196 8.54388 9.14868 8.56505 9.09094 8.31098C8.97968 7.82092 8.82416 7.33934 8.70829 6.84813C8.64823 6.59251 8.60858 6.33112 8.50041 6.08783C8.53505 6.35384 8.58163 6.61638 8.6363 6.87777C8.77103 7.52258 8.90962 8.167 9.0459 8.81143C9.05937 8.87533 9.10518 8.95579 8.98507 8.9708C9.16292 9.2268 9.20258 9.23719 9.45819 9.03817C9.58831 8.93692 9.71881 8.84607 9.86779 8.77139C9.9621 8.72404 10.0741 8.68131 10.1426 8.58623C10.0845 8.56929 10.0145 8.58623 9.98058 8.50885L9.97981 8.50846ZM8.85804 5.67746C8.86496 5.66861 8.87305 5.66091 8.88229 5.65436C8.89923 5.6636 8.91578 5.67323 8.9358 5.68439C8.91616 5.67323 8.89923 5.66399 8.88229 5.65436C8.87305 5.66091 8.86496 5.66861 8.85804 5.67746C8.85958 5.69286 8.86073 5.70864 8.86227 5.72404C8.83763 5.71057 8.83109 5.69517 8.85804 5.67708V5.67746ZM9.4963 7.24926C9.36541 7.09797 9.37196 6.87238 9.22991 6.72725C9.16523 6.4597 9.02896 6.21987 8.93195 5.96503C8.905 5.89419 8.85919 5.82914 8.87536 5.74791C9.09748 6.24181 9.31922 6.73533 9.54096 7.22924C9.52594 7.23617 9.51093 7.2431 9.49591 7.24964L9.4963 7.24926Z" fill="#FABE2A"/>
<path d="M9.22901 6.72739C9.16434 6.45984 9.02806 6.22001 8.93105 5.96516C8.90411 5.89433 8.8583 5.82927 8.87446 5.74805C9.09659 6.24195 9.31832 6.73547 9.54045 7.22938C9.52543 7.23631 9.51042 7.24324 9.49541 7.24978C9.36452 7.09849 9.37106 6.8729 9.22901 6.72777V6.72739Z" fill="#EAA10F"/>
<path d="M8.86249 5.7247C8.83785 5.71123 8.83131 5.69583 8.85826 5.67773C8.8598 5.69352 8.86095 5.70892 8.86249 5.7247Z" fill="#EAA10F"/>
<path d="M11.7553 9.62338C11.7299 9.66572 11.7041 9.66303 11.6787 9.62338L11.6818 9.61953C11.7053 9.61953 11.7288 9.61953 11.7522 9.61914L11.7557 9.62338H11.7553Z" fill="#EAA10F"/>
<path d="M15.3691 13.7362C15.3749 13.6762 15.373 13.6111 15.4681 13.5957C15.4796 13.6812 15.4238 13.7085 15.373 13.7389L15.3691 13.7362Z" fill="#EAA10F"/>
<path d="M14.2209 3.96588C14.0557 4.00553 14.0199 3.91006 14.0065 3.77802C13.998 3.69641 14.0172 3.61788 14.0057 3.53319C13.9915 3.43079 14.0631 3.37728 14.1824 3.41385C14.3899 3.47737 14.4511 3.661 14.4742 3.82845C14.4977 3.99707 14.3225 3.95126 14.2209 3.96588Z" fill="#EAA10F"/>
<path d="M14.1511 4.27281C14.1392 4.28821 14.1296 4.30053 14.1199 4.31285C14.1142 4.29591 14.1057 4.27936 14.1045 4.26204C14.1038 4.25203 14.1149 4.24086 14.1207 4.23047C14.1299 4.24356 14.1396 4.25665 14.1511 4.27281Z" fill="#EAA10F"/>
<path d="M11.7521 9.61873C11.7286 9.61873 11.7051 9.61873 11.6816 9.61911C11.6936 9.6014 11.704 9.57061 11.7178 9.56868C11.7467 9.56483 11.7471 9.5964 11.7521 9.61834V9.61873Z" fill="#FABE2A"/>
<path d="M12.682 12.2935C12.7455 12.1976 12.8191 12.1156 12.9118 12.0425C13.1836 11.8288 13.2129 11.6656 13.0674 11.3384C13.0331 11.2614 12.9931 11.1879 12.9253 11.1371C12.893 11.1128 12.8495 11.094 12.8911 11.0555C12.9092 11.0385 12.9519 11.0439 12.9962 11.0582C13.1632 11.1117 13.1598 11.2834 13.2545 11.3846C13.3923 11.5317 13.4192 11.5467 13.5551 11.3888C13.584 11.3553 13.6063 11.2995 13.6556 11.3219C13.7114 11.3469 13.6664 11.3942 13.6606 11.4354C13.6336 11.6329 13.4446 11.7823 13.4928 12.0013C13.4851 12.0617 13.4681 12.1156 13.4007 12.1349C13.2906 11.9871 13.1817 11.9959 13.0439 12.1122C12.948 12.193 12.8556 12.29 12.7259 12.3254C12.7113 12.3151 12.6963 12.3043 12.6816 12.2939L12.682 12.2935Z" fill="#FABE2A"/>
<path d="M13.4004 12.1336C13.4678 12.1143 13.4847 12.0604 13.4924 12C13.5702 12.1759 13.5363 12.3526 13.5101 12.5709C13.3819 12.4169 13.4166 12.2691 13.4004 12.1336Z" fill="#EAA10F"/>
<path d="M12.7268 12.3245C12.6791 12.3827 12.6375 12.4527 12.5332 12.4235C12.5598 12.3488 12.6337 12.3338 12.683 12.293C12.6976 12.3037 12.7122 12.3141 12.7272 12.3245H12.7268Z" fill="#FABE2A"/>
<path d="M11.3604 11.9288C11.4258 11.6354 11.4912 11.3417 11.5567 11.0484C11.8227 10.2292 12.4448 9.86809 13.4018 9.8731C13.5438 9.90197 13.6632 9.97434 13.7637 10.0744C13.8768 10.1868 13.8491 10.2881 13.7051 10.3551C13.5908 10.4082 13.468 10.3893 13.3498 10.4128C12.8444 10.5125 12.5341 10.8513 12.2708 11.2551C12.0637 11.5369 11.8958 11.8395 11.7765 12.1686C11.6957 12.3915 11.5898 12.4643 11.3931 12.4323C11.3823 12.2645 11.3711 12.097 11.3604 11.9292V11.9288Z" fill="#EBEACB"/>
<path d="M11.3602 11.9279C11.3709 12.0958 11.3821 12.2632 11.3929 12.4311C11.3155 12.3437 11.2524 12.2305 11.1038 12.2759C11.1015 12.2363 11.1657 12.182 11.0791 12.1601C11.0776 12.0477 11.1384 11.9657 11.2096 11.8887C11.2323 12.0069 11.3163 11.8918 11.3602 11.9279Z" fill="#000001"/>
<path d="M11.0242 12.3567C11.075 12.4087 11.1331 12.3236 11.1836 12.3656C11.0381 12.4953 10.615 12.5742 10.4521 12.4895C10.5934 12.4541 10.7212 12.4218 10.849 12.3898C10.9241 12.4661 10.9645 12.3621 11.0238 12.3564L11.0242 12.3567Z" fill="#000001"/>
<path d="M8.94434 8.89101C8.94434 8.8914 8.94472 8.89178 8.94511 8.89217L8.94434 8.89062V8.89101Z" fill="#000001"/>
<path d="M14.2564 13.582C14.2564 13.582 14.2557 13.582 14.2549 13.582C14.2549 13.5824 14.2549 13.5828 14.2549 13.5836L14.2564 13.582Z" fill="#000001"/>
<path d="M14.2176 13.6211C14.2176 13.6211 14.2172 13.6211 14.2168 13.6211C14.2168 13.6215 14.2168 13.6219 14.2168 13.6222L14.2176 13.6211Z" fill="#000001"/>
<path d="M21.7355 9.7913C21.5842 9.14572 21.349 8.53287 21.0961 7.93233C20.8282 7.29637 20.4447 6.70777 20.0217 6.15612C19.743 5.79271 19.4392 5.44817 19.1266 5.1121C18.9164 4.88613 18.6651 4.71174 18.4414 4.50425C17.8416 3.94721 17.1518 3.5226 16.4242 3.16767C15.6346 2.78232 14.8035 2.49668 13.9377 2.32653C13.4342 2.22759 12.9295 2.13328 12.4137 2.12327C11.4393 2.1044 10.4727 2.14175 9.52647 2.41468C9.16538 2.51901 8.79466 2.59523 8.44897 2.74421C8.24071 2.83391 8.04361 2.91128 7.8107 2.85392C7.73217 2.83468 7.59243 2.82505 7.60898 2.9544C7.62823 3.10607 7.53353 3.14033 7.44422 3.18961C7.34606 3.24389 7.23942 3.28277 7.13895 3.33397C6.59731 3.60922 6.10841 3.96684 5.62182 4.3264C5.3816 4.50387 5.13754 4.68518 4.93389 4.90153C4.50582 5.3554 4.11046 5.84006 3.73782 6.3409C3.30859 6.91795 2.97637 7.5516 2.68303 8.20757C2.44396 8.7419 2.28344 9.30048 2.13638 9.86406C2.08249 10.0708 2.00665 10.2764 1.98702 10.4865C1.89232 11.4959 1.82341 12.5076 1.94506 13.52C2.00434 14.0116 2.09673 14.4974 2.25687 14.9679C2.28305 15.0449 2.33002 15.1165 2.32232 15.2031C2.34503 15.2928 2.36774 15.3821 2.39007 15.4718C2.46052 15.5519 2.51403 15.6381 2.49593 15.7517C2.4994 15.7721 2.50286 15.7921 2.50671 15.8125C2.50864 15.8283 2.51018 15.8437 2.5121 15.8594C2.54405 15.9226 2.58563 15.9819 2.59063 16.0558C2.68226 16.0716 2.72114 16.1181 2.68149 16.2109C2.69072 16.2475 2.70035 16.2837 2.70959 16.3202C2.93941 16.3961 2.93479 16.5901 2.94133 16.7787C3.0318 16.9466 3.12188 17.114 3.21235 17.2819C3.31744 17.2857 3.33207 17.3523 3.31937 17.4374L3.32245 17.4409C3.48297 17.4821 3.52455 17.5968 3.50992 17.7457C3.52224 17.8216 3.59538 17.8547 3.63003 17.9151C3.93184 18.4398 4.35645 18.8671 4.77028 19.2964C5.19374 19.7356 5.64645 20.151 6.16577 20.4821C6.36056 20.6064 6.55612 20.7296 6.75129 20.8532C6.81558 20.8116 6.85369 20.8224 6.856 20.9055C6.89334 20.9255 6.93107 20.9459 6.96841 20.9659C7.08313 20.9694 7.18014 21.0002 7.21594 21.1257C7.39456 21.1669 7.53507 21.2855 7.69676 21.3617C7.92658 21.4702 8.14831 21.5984 8.40701 21.6296C8.59179 21.6654 8.76541 21.727 8.91439 21.8467C9.33361 21.9553 9.74706 22.0885 10.1786 22.1459C10.5024 22.189 10.8257 22.2648 11.1499 22.2702C11.8255 22.2806 12.5018 22.254 13.1778 22.2425C13.3257 22.1201 13.4989 22.1135 13.6779 22.1331C14.0467 22.085 14.4005 21.9884 14.7577 21.8775C15.2493 21.7251 15.7313 21.5588 16.2048 21.3575C16.6713 21.1592 17.0994 20.8936 17.5136 20.6122C18.1369 20.1887 18.7309 19.7256 19.246 19.1674C19.6837 18.6928 20.0906 18.1954 20.447 17.6572C20.6823 17.1876 20.9644 16.7422 21.1715 16.2579C21.314 15.9249 21.5034 15.6031 21.585 15.2554C21.6639 14.919 21.7809 14.5921 21.8264 14.2422C21.8791 13.8338 21.9699 13.4269 21.9888 13.0153C22.0385 11.9317 21.985 10.8576 21.7351 9.7913H21.7355ZM20.4459 8.66683C20.4443 8.56135 20.4667 8.46126 20.5009 8.36733C20.561 8.20218 20.6549 8.18948 20.7616 8.32999C20.9683 8.60177 21.115 8.9082 21.2077 9.23388C21.3267 9.65156 21.3917 10.0789 21.3871 10.517C21.3833 10.9085 21.3375 11.2903 21.2085 11.6738C21.0214 11.5409 21.006 11.5463 20.9036 11.7381C20.8012 11.9298 20.7011 12.1238 20.5664 12.2959C20.534 12.3374 20.5021 12.4133 20.4351 12.3763C20.3901 12.3517 20.4112 12.2828 20.4166 12.2331C20.4544 11.8916 20.5006 11.5494 20.4852 11.2056C20.4721 10.9142 20.4532 10.619 20.3693 10.3383C20.29 10.0739 20.3677 9.81633 20.3866 9.56148C20.4085 9.26352 20.4513 8.96633 20.4467 8.66606L20.4459 8.66683ZM4.36184 18.501C4.00075 18.0864 3.68354 17.638 3.41022 17.1633C3.08646 16.6005 2.81892 16.0107 2.61142 15.3913C2.42241 14.8277 2.27766 14.2553 2.18027 13.6725C2.1052 13.2228 2.07941 12.7651 2.13369 12.3047C2.22261 12.6416 2.30692 12.9772 2.41394 13.3071C2.61912 13.9385 2.92401 14.5182 3.31706 15.0503C3.64928 15.4999 4.03308 15.8991 4.51621 16.1924C4.54893 16.2124 4.59243 16.2332 4.58627 16.2752C4.57703 16.3379 4.51775 16.3222 4.47733 16.3214C4.29794 16.3175 4.12047 16.3245 3.94454 16.3649C3.81404 16.3949 3.73782 16.4492 3.79402 16.6013C3.94993 17.0216 4.1478 17.4139 4.46193 17.7442C4.91156 18.2169 5.48131 18.4514 6.09301 18.6227C6.42061 18.7147 6.74898 18.7043 7.08005 18.7074C7.13317 18.7078 7.19169 18.6831 7.25713 18.7413C7.03385 18.8702 6.79826 18.926 6.56382 18.9322C6.20734 18.9411 5.84933 18.9641 5.49285 18.9014C5.13369 18.8383 4.80031 18.6966 4.45462 18.5919C4.40419 18.5765 4.38994 18.5334 4.36145 18.5007L4.36184 18.501ZM5.57293 16.2013C5.00087 15.5149 4.59859 14.7554 4.42459 13.8684C4.32411 13.3572 4.33181 12.8583 4.38532 12.3467C4.42382 11.9771 4.5574 11.6418 4.66942 11.2969C4.68636 11.2445 4.69984 11.1648 4.76797 11.1741C4.83342 11.1826 4.82803 11.2611 4.83534 11.3173C4.98663 12.4371 5.45012 13.4184 6.15537 14.2919C6.23159 14.3862 6.30897 14.4882 6.40829 14.5529C6.54187 14.6399 6.53186 14.7423 6.50222 14.8686C6.4337 15.1596 6.31359 15.4383 6.32783 15.7486C6.3467 16.1647 6.508 16.5262 6.77054 16.8295C7.05888 17.1625 7.37878 17.464 7.82264 17.6037C8.24648 17.7373 8.64491 17.7465 9.03218 17.5009C9.44756 17.2376 9.8868 17.0124 10.2887 16.7268C10.3545 16.6798 10.4377 16.6494 10.517 16.6309C10.7156 16.5847 10.8288 16.7295 10.7899 16.9458C10.6879 17.5163 10.4893 18.0537 10.2606 18.5838C10.0331 19.1112 9.82328 19.6467 9.60693 20.1791C9.58229 20.2395 9.55188 20.2926 9.48759 20.3354C9.40791 20.0663 9.4464 19.796 9.43909 19.5293C9.43177 19.264 9.54072 19.0211 9.58614 18.764C9.40059 18.916 9.3286 19.1347 9.30474 19.3456C9.26894 19.6625 9.09147 19.8295 8.83124 19.9612C8.41086 20.1737 7.98509 20.2245 7.53353 20.0694C7.31064 19.9928 7.07851 19.9404 6.84869 19.8861C6.72126 19.8561 6.67815 19.8018 6.72627 19.6706C6.82405 19.4045 7.00383 19.1982 7.19554 19.0003C7.40072 18.7882 7.63016 18.6031 7.86729 18.4275C7.92273 18.3863 7.98432 18.3455 7.99125 18.2416C7.67096 18.3232 7.37185 18.4152 7.06619 18.4745C6.44833 18.5942 5.8551 18.4772 5.29191 18.2196C4.59436 17.9009 4.18129 17.3234 3.89719 16.6344C3.83136 16.475 3.90759 16.4446 4.03924 16.4338C4.4346 16.4011 4.8184 16.4708 5.19489 16.5751C5.47861 16.6536 5.75463 16.7595 6.03526 16.8507C6.08531 16.8669 6.13535 16.9173 6.19887 16.8638C6.02757 16.6074 5.7681 16.4357 5.57293 16.2017V16.2013ZM6.60154 20.4897C5.92902 20.0605 5.30692 19.5651 4.76682 18.973C4.71947 18.921 4.66172 18.8775 4.65248 18.8013C4.60629 18.7875 4.55394 18.7821 4.54162 18.7189C4.60898 18.6831 4.64633 18.7255 4.6829 18.7705C4.87653 18.7871 5.05207 18.8698 5.23378 18.9268C5.55021 19.0257 5.87705 18.9996 6.20003 19.0242C6.48028 19.0458 6.75168 18.9872 7.08505 18.9522C6.90682 19.1763 6.77015 19.3684 6.66121 19.5785C6.5438 19.8057 6.57613 19.9004 6.81289 19.9685C7.20978 20.0825 7.6059 20.1976 8.01088 20.2838C8.36851 20.36 8.67148 20.2168 8.98984 20.1129C9.06183 20.0894 9.16731 19.965 9.20503 20.0717C9.24545 20.186 9.27741 20.3542 9.13304 20.4586C8.95712 20.5852 8.74847 20.6226 8.54367 20.6684C8.11136 20.765 7.67404 20.7869 7.23134 20.7827C6.96648 20.7804 6.79325 20.6122 6.60116 20.4897H6.60154ZM9.31475 21.1596C9.27009 21.3205 9.20311 21.4818 9.23775 21.6558C8.9652 21.6827 7.7468 21.1665 7.30718 20.8516C7.47579 20.8516 7.64479 20.8555 7.8134 20.8508C8.24302 20.8389 8.65569 20.7473 9.04989 20.5752C9.16192 20.5263 9.23236 20.5286 9.28087 20.6645C9.33938 20.8297 9.36325 20.9844 9.31513 21.1596H9.31475ZM16.6094 20.8616C15.7486 21.327 14.8351 21.6489 13.8808 21.856C13.7915 21.8752 13.6948 21.8691 13.6044 21.8949C13.5339 21.9591 13.4515 21.9411 13.3699 21.9295C13.0808 22.0215 12.7809 22.0146 12.4834 22.0219C12.3063 22.0261 12.1288 22.0261 11.9517 22.0277C11.9248 22.0581 11.8971 22.0581 11.869 22.0288C11.8309 22.0246 11.7927 22.0207 11.7546 22.0165C11.1187 22.055 10.4939 21.9807 9.87756 21.8267C9.75591 21.7963 9.63388 21.7671 9.51108 21.7416C9.4106 21.7209 9.40175 21.6766 9.42754 21.578C9.65852 20.6972 9.97726 19.8503 10.3561 19.0219C10.5847 18.5214 10.7537 17.994 10.9512 17.479C10.9689 17.4324 10.9974 17.39 11.0209 17.3458C11.0644 17.1749 11.1402 17.0209 11.2272 16.8657C11.6688 16.0766 12.3991 15.6858 13.2113 15.4121C13.7861 15.2181 14.3435 14.9894 14.8736 14.6938C14.9225 14.6664 14.9779 14.6499 15.0303 14.6287C15.2847 14.4643 15.5365 14.2961 15.754 14.0836C15.7794 14.0586 15.804 14.0494 15.8352 14.0443C15.8903 13.8257 16.0712 13.6913 16.1944 13.5193C16.4215 13.2021 16.6148 12.8729 16.706 12.4895C16.7564 12.2766 16.6694 12.1538 16.4585 12.0799C16.2129 11.994 15.9519 12.0083 15.7066 11.9317C15.6362 11.9097 15.5854 11.9563 15.5476 12.0125C15.1288 12.6396 14.616 13.1851 14.0043 13.6174C13.5154 13.9631 12.9669 14.2184 12.389 14.3966C12.3059 14.422 12.2224 14.4451 12.14 14.4724C12.033 14.5082 11.9629 14.571 11.9918 14.6972C12.3806 14.9132 12.8225 14.9224 13.3018 15.0314C13.0739 15.1134 12.8957 15.1796 12.7159 15.2423C12.1962 15.4244 11.6619 15.5742 11.2265 15.9376C11.2045 15.9557 11.1683 15.9568 11.1391 15.9661C10.5713 16.3353 9.97033 16.6517 9.41984 17.0494C9.18886 17.2164 8.94287 17.3731 8.67302 17.4686C8.32424 17.5918 7.99741 17.4555 7.69175 17.3042C7.18437 17.0528 6.83252 16.6536 6.59615 16.1335C6.44486 15.8005 6.49914 15.5003 6.59076 15.1715C6.75745 14.5737 6.98458 13.9958 7.15974 13.4022C7.22826 13.1705 7.20747 12.9122 7.22749 12.6662C7.19477 12.5973 7.16551 12.5272 7.1759 12.4479C7.20555 12.2254 7.12239 12.0094 7.13818 11.7881C7.14087 11.7523 7.12855 11.7073 7.18437 11.7011C7.22787 11.6961 7.26136 11.72 7.27407 11.7581C7.37839 12.0699 7.52583 12.3694 7.55124 12.7043C7.65018 13.1074 7.70215 13.1177 8.06709 13.0485C8.17642 13.0277 8.20721 12.9314 8.27843 12.8764C8.75155 12.5099 9.21042 12.1257 9.67969 11.7546C10.0689 11.4466 10.4662 11.1479 10.8596 10.8453C11.3893 10.4377 11.9198 10.0315 12.4479 9.62192C12.55 9.543 12.6766 9.47486 12.642 9.30548C12.6104 9.15073 12.4768 9.1361 12.3648 9.08567C12.1153 8.97326 11.8643 8.86316 11.6218 8.73728C11.4717 8.65913 11.3762 8.65721 11.2253 8.77732C10.6425 9.24235 10.0369 9.67889 9.44024 10.1266C9.15999 10.3368 8.88359 10.552 8.60026 10.7579C8.43934 10.8746 8.37621 10.8442 8.36967 10.6482C8.35542 10.2259 8.21953 9.82441 8.16487 9.40904C8.12676 9.11839 8.06285 8.83121 8.02782 8.54056C8.0182 8.46088 7.9824 8.41468 7.93967 8.36194C7.70676 8.24491 7.51852 8.4628 7.29563 8.4782C7.30217 8.34962 7.38301 8.32884 7.44923 8.29419C7.63516 8.19757 7.81802 8.09363 8.00934 8.00816C8.13792 7.9508 8.16718 7.85533 8.13099 7.74485C8.08788 7.61204 8.10828 7.46652 8.03783 7.34141C8.0182 7.30677 8.0105 7.25942 8.05053 7.24055C8.09404 7.21938 8.12945 7.23824 8.15178 7.29252C8.18912 7.3826 8.23147 7.47461 8.36197 7.39646C8.4047 7.37067 8.4455 7.39146 8.45128 7.45498C8.49709 7.96967 8.59987 8.47204 8.78543 8.95555C8.78697 8.95979 8.78081 8.9671 8.77811 8.97288C8.83355 9.06334 8.87435 9.16074 8.93633 9.25005C9.02487 9.37747 9.1419 9.38016 9.24699 9.33204C9.79287 9.08336 10.3026 8.77193 10.7514 8.37157C10.9824 8.16523 11.0817 7.88036 11.1641 7.58856C11.2769 7.18974 11.141 6.84751 10.9416 6.51606C10.7807 6.37786 10.6406 6.22118 10.5162 6.0491C10.4785 5.99713 10.4958 5.9671 10.5347 5.93977C10.6975 5.82544 10.8604 5.7111 11.0267 5.60216C11.0821 5.56597 11.1591 5.55596 11.1987 5.61679C11.2788 5.73997 11.3997 5.84391 11.4055 6.00714C11.5749 6.33243 11.7454 6.65695 11.9109 6.98417C11.9248 7.0115 11.944 7.04345 11.9333 7.08772C11.9086 7.19051 11.9637 7.21206 12.0587 7.1959C12.3529 7.14547 12.6227 7.02343 12.8968 6.91488C13.0516 6.85367 13.1982 6.77206 13.3491 6.70084C13.4319 6.66157 13.4716 6.59959 13.4585 6.5072C13.4431 6.36939 13.4304 6.23118 13.4123 6.09337C13.3996 5.99674 13.4257 5.94939 13.5335 5.9621C13.8165 5.9952 14.0929 6.0568 14.3477 6.18345C14.5379 6.27815 14.628 6.44907 14.6338 6.66196C14.6688 6.73356 14.5983 6.85136 14.6849 6.88215C14.8004 6.92334 14.8089 6.77937 14.8636 6.72047C15.493 6.04486 15.816 5.20064 16.1432 4.35989C16.1624 4.31023 16.1832 4.30638 16.2209 4.30446C16.2279 4.21899 16.1871 4.12391 16.3002 4.02882C16.5643 5.06822 16.6652 6.10761 16.6875 7.15702C16.8076 7.32986 16.761 7.51272 16.7202 7.69558C16.7395 8.04358 16.7499 8.3912 16.7079 8.73843C16.7726 8.84507 16.7926 8.94901 16.6867 9.04409C16.6498 9.49873 16.6171 9.88485 16.1497 10.4276C16.3591 10.4407 16.4627 10.2767 16.6047 10.1874C16.6544 10.1562 16.6814 10.0642 16.7549 10.1039C16.8165 10.137 16.8015 10.2148 16.8026 10.279C16.8107 10.741 16.9027 11.1991 16.87 11.663C16.9851 12.8029 16.9778 13.945 16.9258 15.0876C16.9701 15.1353 16.9612 15.1854 16.932 15.2362C16.9335 15.262 16.9354 15.2874 16.937 15.3132C16.9608 15.4075 16.9778 15.501 16.9093 15.5857C16.91 15.9145 16.865 16.2402 16.8453 16.5674C16.7976 17.3627 16.8738 18.1403 17.2834 18.851C17.412 19.0742 17.5329 19.3025 17.6865 19.5104C17.7254 19.5631 17.7477 19.6351 17.8324 19.6328C17.8439 19.7653 17.9575 19.8218 18.0356 19.9192C17.5937 20.2742 17.1164 20.5883 16.6109 20.8616H16.6094ZM14.2161 13.6205C14.2138 13.5924 14.2295 13.5824 14.2546 13.5824C14.2546 13.5562 14.27 13.5458 14.2938 13.5443C14.5687 13.3041 14.8143 13.0331 15.0876 12.7898C15.2339 12.6596 15.3305 12.4726 15.4452 12.3086C15.4764 12.2643 15.5107 12.2327 15.5619 12.2189C15.6142 12.0837 15.6878 12.0225 15.8518 12.068C16.0585 12.1253 16.2775 12.1307 16.4873 12.1846C16.572 12.2062 16.6151 12.2481 16.6121 12.3263C16.6024 12.57 16.5724 12.8082 16.3738 12.9842C16.3099 13.1039 16.2895 13.2533 16.1455 13.3179C16.1505 13.3768 16.1135 13.4072 16.0681 13.4323L16.0673 13.433C16.0639 13.4858 16.0454 13.5277 15.9896 13.5439C15.8906 13.8161 15.6747 13.987 15.4433 14.1287C15.0333 14.38 14.5906 14.549 14.1244 14.6861C13.6051 14.8389 13.0943 14.81 12.575 14.7792C12.4426 14.7715 12.3201 14.6988 12.1831 14.6961C12.1619 14.6957 12.1338 14.658 12.1223 14.6318C12.103 14.5883 12.1438 14.581 12.1727 14.5725C12.7386 14.4101 13.2625 14.1483 13.7865 13.8865C13.8704 13.8811 13.8981 13.7753 13.9851 13.7753L13.9862 13.7745C14.0313 13.7056 14.0775 13.6386 14.1764 13.6586V13.6598C14.1649 13.6217 14.1864 13.6174 14.2157 13.6205H14.2161ZM7.23634 8.81312C7.3041 8.71418 7.40149 8.65644 7.50966 8.61255C7.54008 8.57252 7.57318 8.53672 7.62939 8.53787C7.81494 8.47435 7.9235 8.53903 7.94852 8.75422C8.02205 9.38594 8.17141 10.003 8.29768 10.6244C8.315 10.709 8.32116 10.7972 8.30499 10.8873C8.29691 10.9323 8.20606 10.9685 8.27497 11.0151C8.32694 11.0505 8.39353 11.0424 8.45474 11.0043C8.54482 10.9481 8.63991 10.9004 8.73307 10.8492C8.73076 10.8392 8.73346 10.8307 8.74192 10.8245C8.74924 10.783 8.77811 10.7672 8.81584 10.7618C9.01409 10.6301 9.17847 10.4519 9.39636 10.348C9.40637 10.3072 9.43716 10.3025 9.47181 10.3052C9.53879 10.1405 9.70394 10.0793 9.82944 9.98224C10.3264 9.59921 10.8357 9.23157 11.3381 8.85585C11.4648 8.76115 11.5556 8.8212 11.6445 8.91128V8.92014C11.6946 8.89935 11.7308 8.91629 11.7562 8.96171L11.7573 8.96248C11.7904 8.96017 11.8255 8.95324 11.8335 9.00059C11.867 8.99828 11.9009 8.9952 11.9102 9.03986C11.9213 9.03793 11.9325 9.03832 11.9433 9.0414C11.9852 9.05603 12.0272 9.07066 12.0688 9.08528C12.0799 9.09645 12.0911 9.10723 12.1022 9.11839V9.11762C12.2324 9.12725 12.3525 9.16074 12.4406 9.2666C12.4683 9.33666 12.4445 9.39941 12.389 9.43521C12.0942 9.62615 11.8832 9.92373 11.5641 10.0835C11.4555 10.2329 11.2653 10.2844 11.1514 10.4273C10.5451 10.9189 9.94878 11.4232 9.32899 11.897C8.9883 12.1577 8.67071 12.4448 8.33117 12.7055C8.17526 12.8252 8.01858 12.9742 7.78838 12.8922C7.63747 12.8229 7.67751 12.6673 7.64017 12.5499C7.52853 12.2 7.45577 11.8404 7.39841 11.4778C7.28754 11.1602 7.2452 10.8276 7.18668 10.4985C7.11046 10.0696 7.05926 9.63732 7.0173 9.20385C7.01307 9.16035 7.02423 9.11531 7.02808 9.07104C6.99844 8.90589 7.0685 8.82043 7.23519 8.81273L7.23634 8.81312ZM7.01307 8.18948C6.91682 7.83031 7.01576 7.59741 7.37185 7.46113C7.48541 7.41763 7.57973 7.31639 7.69791 7.26557C7.73217 7.22323 7.77837 7.23285 7.82341 7.23632C8.05438 7.44073 7.98894 7.9073 7.71639 8.01163C7.5266 8.08439 7.34105 8.16638 7.16666 8.27186C7.06888 8.33076 7.04502 8.30766 7.01307 8.18948ZM8.20644 6.69853C8.21299 6.6889 8.24417 6.6839 8.25533 6.69083C8.35619 6.75204 8.34118 6.86522 8.36505 6.92142C8.37814 7.01958 8.37275 7.07887 8.3023 7.09465C8.21491 7.11429 8.2203 7.04114 8.20914 6.98763C8.20798 6.98147 8.2076 6.97493 8.20567 6.96915C8.17603 6.87869 8.14793 6.78745 8.20644 6.69853ZM10.4554 5.78809C10.3872 5.85893 10.3595 5.85469 10.2929 5.78732C10.2121 5.70571 10.1628 5.60177 10.0723 5.52478C9.98612 5.45087 10.0939 5.41353 10.1432 5.37773C10.4519 5.15368 10.7395 4.8973 11.1017 4.75486C11.1422 4.73908 11.1772 4.70866 11.2145 4.6848C11.4443 4.49732 11.7223 4.38915 11.9679 4.22785C12.0984 4.142 12.1943 4.19975 12.2632 4.32293C12.2878 4.36682 12.3105 4.41147 12.334 4.45575C12.4252 4.58625 12.5199 4.71444 12.5657 4.87035C12.5865 4.90961 12.6073 4.9485 12.6285 4.98776C12.6604 4.992 12.6808 5.00778 12.6835 5.04204C12.6912 5.06398 12.6989 5.08554 12.7066 5.10748C12.9214 5.28033 12.9515 5.55096 13.0627 5.77886C13.1363 5.9671 13.2102 6.15535 13.2837 6.34359C13.3822 6.51221 13.363 6.58689 13.1986 6.65041C12.9195 6.75781 12.6358 6.85444 12.3602 6.96992C12.1785 7.04576 12.0695 7.0115 12.026 6.81363C11.951 6.59343 11.7797 6.42174 11.7138 6.19692C11.5906 6.02485 11.5506 5.81812 11.4763 5.62564C11.3404 5.51824 11.3635 5.32422 11.2472 5.20603C10.9543 5.36117 10.6848 5.5498 10.455 5.78886L10.4554 5.78809ZM11.2138 5.38697C11.0967 5.47936 11.0132 5.57021 10.885 5.59484C10.87 5.60524 10.855 5.61563 10.8396 5.62603C10.8246 5.64681 10.7992 5.66722 10.7826 5.64527C10.7614 5.61717 10.7965 5.6114 10.8161 5.60331C10.83 5.59176 10.8442 5.57983 10.8581 5.56828C10.9497 5.4782 11.0294 5.36695 11.2134 5.38735L11.2138 5.38697ZM13.7018 3.44484C13.681 3.34436 13.6375 3.23657 13.7102 3.16035C13.7988 3.06719 13.9019 3.15458 14.0051 3.17421C14.4936 3.2666 14.8974 3.53222 15.3121 3.77821C15.3371 3.79323 15.354 3.82248 15.3744 3.8452L15.3763 3.84674C15.4857 3.87407 15.5569 3.94644 15.605 4.04461C15.8506 4.1701 15.8306 4.39916 15.801 4.61011C15.7313 5.10556 15.5076 5.5421 15.2243 5.9467C15.1238 6.09029 15.0014 6.14919 14.7989 6.06257C14.422 5.90127 14.0247 5.78771 13.6359 5.65413C13.4927 5.61563 13.4785 5.56135 13.5497 5.41622C13.8592 4.78335 13.8392 4.11621 13.7014 3.44561L13.7018 3.44484ZM17.1456 5.69339C17.3204 5.85469 17.4501 6.04602 17.5302 6.27045C17.5687 6.277 17.5679 6.30818 17.5718 6.33628C17.6226 6.37709 17.6557 6.42674 17.6534 6.49488C17.8878 6.81594 17.9721 7.18396 17.9937 7.572C18.088 7.63976 18.0041 7.78104 18.1061 7.84533C18.1146 7.76217 18.0695 7.66824 18.1531 7.58933C18.3482 8.03357 18.3848 8.5013 18.4529 8.9621C18.4791 8.9902 18.4834 9.01946 18.4587 9.05102C18.4583 9.17344 18.458 9.29547 18.4576 9.41789C18.5384 9.64579 18.458 9.87407 18.4429 10.0985C18.396 10.7945 18.2254 11.472 18.0253 12.1369C17.8466 12.7305 17.6203 13.3102 17.3816 13.8834C17.3369 13.9912 17.3281 14.1186 17.2114 14.2122C17.1614 14.0959 17.1841 13.9843 17.183 13.878C17.1776 13.3464 17.1799 12.8148 17.1745 12.2832C17.1733 12.1757 17.1522 12.068 17.1375 11.9609C17.1025 11.7042 17.1937 11.4724 17.2842 11.2391C17.223 11.1983 17.1783 11.3003 17.1279 11.2565C17.0786 11.2141 17.1037 11.1487 17.101 11.0932C17.084 10.7244 17.0555 10.3572 16.9974 9.99187C16.957 9.73779 16.9743 9.47833 16.9974 9.22464C17.059 8.54557 16.9616 7.87612 16.9177 7.20206C16.8831 6.66889 16.7938 6.1438 16.7487 5.61332C16.7414 5.52863 16.721 5.42854 16.83 5.37927C16.9019 5.30843 16.9212 5.38312 16.9531 5.42354C17.0324 5.44394 17.0494 5.51169 17.0682 5.57752C17.1129 5.58715 17.121 5.61525 17.1075 5.65413C17.1356 5.65182 17.1441 5.66876 17.1448 5.69301L17.1456 5.69339ZM18.9788 19.0973C18.7428 19.3214 18.4999 19.5381 18.2651 19.7633C18.145 19.8784 18.0484 19.9104 17.9537 19.7375C17.9294 19.6929 17.9036 19.629 17.8308 19.6321C17.7069 19.4261 17.5833 19.2205 17.459 19.0146C17.32 18.7844 17.1964 18.5469 17.1175 18.2882C17.0967 18.2196 17.0875 18.1515 17.1133 18.0622C17.3215 18.3066 17.5602 18.5007 17.8355 18.6419C18.1735 18.8156 18.5307 18.9291 18.9161 18.9349C18.9638 18.9357 19.0319 18.9153 19.0527 18.9734C19.072 19.0273 19.0127 19.065 18.9788 19.0973ZM6.88718 7.86072C6.92106 7.97506 6.92375 8.08631 6.90412 8.20103C6.90027 8.31344 6.89989 8.42392 6.98573 8.51439C7.04463 8.57637 7.01306 8.62603 6.95571 8.66799C6.89219 8.86663 6.90027 9.07566 6.86601 9.27853C6.7998 9.68274 6.80134 10.0947 6.84253 10.495C6.89681 11.0251 6.89796 11.5556 6.92606 12.0853C6.98419 12.292 6.96956 12.5072 6.94185 12.7101C6.9022 13.0019 6.95956 13.3056 6.83906 13.587C6.81173 13.7398 6.7844 13.8927 6.75707 14.0455C6.74744 14.1525 6.70356 14.2507 6.59808 14.2746C6.49914 14.2969 6.45564 14.196 6.40521 14.1271H6.40059C6.38519 14.1148 6.37018 14.1021 6.35478 14.0894C5.85087 13.5408 5.48208 12.9168 5.1972 12.2243C5.01974 11.7931 4.94583 11.3608 4.90617 10.9108C4.90155 10.8576 4.9004 10.8007 4.84227 10.7884C4.79107 10.7772 4.77567 10.8292 4.75257 10.8688C4.54816 11.2222 4.40727 11.5998 4.29293 12.0014C4.10738 11.5036 3.94185 11.0008 3.86486 10.4719C3.81866 10.3853 3.80403 10.2921 3.80134 10.1947C3.7844 9.63154 3.75129 9.06565 3.8279 8.50707C3.91875 7.84802 4.10584 7.20976 4.37531 6.59959C4.59128 6.11031 4.83842 5.63758 5.16217 5.20834C5.17834 5.18679 5.17257 5.14906 5.1768 5.11865C5.19797 5.11634 5.20837 5.10479 5.2049 5.08208C5.1972 5.08285 5.18912 5.084 5.18142 5.08516C5.17911 5.09594 5.17719 5.10671 5.17488 5.11749C5.16371 5.11903 5.15255 5.12057 5.14177 5.12211C5.12021 5.14021 5.09865 5.1583 5.0771 5.17601C5.06247 5.19834 5.04745 5.22066 5.03244 5.24299C5.02089 5.25723 5.00934 5.27109 4.9978 5.28534C4.60898 5.81735 4.2425 6.36169 3.97534 6.96838C3.79171 7.38491 3.68007 7.82146 3.56613 8.25954C3.40406 8.88241 3.41522 9.51798 3.46334 10.1435C3.50838 10.731 3.65967 11.31 3.88025 11.8639C3.9815 12.1176 4.07081 12.3771 4.21825 12.61C4.25906 12.6747 4.25136 12.7451 4.24674 12.8156C4.17321 13.9204 4.50582 14.9047 5.13908 15.7967C5.25341 15.9576 5.3943 16.0993 5.5225 16.2502C5.55868 16.2925 5.6249 16.3291 5.59525 16.3938C5.55907 16.4727 5.49901 16.4042 5.4482 16.4034C4.57434 16.388 4.06619 15.7863 3.55881 15.2039C2.94711 14.5017 2.60834 13.6578 2.35889 12.7705C2.2896 12.5241 2.28267 12.2666 2.20606 12.0272C1.97046 11.29 2.21376 10.5913 2.36197 9.88831C2.55214 8.98712 2.90207 8.14367 3.35786 7.34449C3.68315 6.77398 4.04733 6.22888 4.48464 5.73882C4.63516 5.57021 4.7622 5.37157 4.96661 5.25338C4.97855 5.24107 4.99048 5.22875 5.00241 5.21643C5.01974 5.19448 5.03745 5.17216 5.05515 5.15021C5.06901 5.12211 5.09057 5.10517 5.12291 5.10402C5.13561 5.09055 5.14793 5.07707 5.16063 5.0636C5.17372 4.99161 5.23147 4.99777 5.28305 4.99392C5.6657 4.61935 6.05413 4.25326 6.5438 4.01381C6.63773 3.968 6.74244 3.9014 6.8048 3.82595C7.01961 3.56649 7.36376 3.56033 7.62323 3.3536C7.68598 3.63231 7.7853 4.572 7.87692 4.82146C7.95737 4.55391 8.15293 5.4039 8.10058 5.1379C8.08018 5.03434 7.66403 3.10376 7.86806 3.07643C7.95468 3.09529 7.97624 3.17806 8.0232 3.23542C8.03552 3.24658 8.04784 3.25813 8.06016 3.2693L8.06401 3.27276C8.11444 3.27276 8.14293 3.2947 8.13792 3.34898C8.14331 3.36977 8.1487 3.39056 8.15409 3.41135L8.19566 3.46178C8.21491 3.43906 9.64889 5.15445 9.66506 5.16523C9.69316 5.14482 9.53995 4.85957 9.56805 4.83917C9.36864 4.56854 8.12984 3.13032 8.44358 3.00329C9.0549 2.75537 9.69432 2.61409 10.348 2.5421C10.4542 2.53056 10.537 2.47551 10.6379 2.4551C11.285 2.32383 11.9379 2.39543 12.5881 2.39005C13.1932 2.38504 13.7741 2.54634 14.3643 2.65875C14.8289 2.74729 15.2485 2.94015 15.6832 3.09491C16.0835 3.23734 16.4766 3.41943 16.8407 3.63809C17.2369 3.87599 17.5841 4.19397 17.9733 4.44458C18.6227 4.86342 19.1259 5.43316 19.6209 6.00752C19.8927 6.32281 20.1033 6.69083 20.3412 7.0346C20.3677 7.07309 20.3816 7.11621 20.3727 7.16202C20.2888 7.5874 20.3731 8.01817 20.3323 8.44394C20.2965 8.81697 20.2342 9.1873 20.2253 9.56341C20.2242 9.61845 20.2084 9.7197 20.0952 9.64771C20.0309 9.60652 19.9924 9.65118 19.9597 9.70815C19.932 9.75666 19.9408 9.82518 19.8796 9.85482C19.833 10.4323 19.7014 10.9912 19.5401 11.5475C19.4065 12.0091 19.2259 12.4522 19.0566 12.8987C18.9284 13.2367 18.7186 13.5439 18.5434 13.8638C18.3979 14.1294 18.2505 14.3939 18.1038 14.6587C18.041 14.8955 17.9286 15.1057 17.7631 15.287C17.7608 15.4106 17.695 15.5114 17.6507 15.6212C17.4878 16.0261 17.4782 16.4415 17.5256 16.875C17.5783 17.3616 17.7431 17.7939 18.0025 18.1985C18.0911 18.3363 18.2108 18.4464 18.3278 18.5592C18.3671 18.5969 18.4102 18.5815 18.4537 18.5773C18.384 18.4063 18.2839 18.2527 18.1866 18.0964C17.8563 17.5667 17.6934 16.9797 17.7292 16.3626C17.7596 15.844 17.9102 15.3421 18.1835 14.8901C18.9673 13.5943 19.5097 12.1996 19.8885 10.7383C19.9412 10.5347 19.9909 10.3283 19.9951 10.1151C19.9959 10.0719 19.9862 10.0173 20.0509 10.0115C20.1048 10.0069 20.1233 10.0492 20.1437 10.092C20.228 10.2671 20.2727 10.4538 20.2958 10.644C20.3939 11.4509 20.3489 12.245 20.1048 13.0277C20.0113 13.3272 19.9131 13.6232 19.7957 13.9135C19.7853 13.9389 19.7772 13.9608 19.8223 13.9966C20.019 13.8011 20.1406 13.5531 20.2819 13.3172C20.5491 12.8721 20.705 12.3759 20.9394 11.9167C20.9637 11.8693 20.9698 11.785 21.0391 11.795C21.098 11.8035 21.1026 11.8824 21.123 11.9348C21.2986 12.3886 21.3902 12.8517 21.3067 13.341C21.2747 13.5293 21.2797 13.7241 21.2493 13.9131C21.1611 14.4586 20.8566 14.9082 20.5791 15.3671C20.4713 15.5453 20.335 15.7062 20.2276 15.9018C20.407 15.8125 20.5852 15.7201 20.7666 15.6346C20.8647 15.5884 20.966 15.5461 21.0699 15.5157C21.1919 15.4795 21.2366 15.5226 21.1854 15.6496C21.0041 16.0985 20.8104 16.5412 20.5749 16.9658C20.2638 17.5271 19.8935 18.0472 19.5027 18.5534C19.4292 18.6485 19.333 18.7255 19.2498 18.8132C19.1778 18.8891 19.0947 18.8621 19.0173 18.8363C18.8548 18.7824 18.6955 18.7201 18.5349 18.6612C18.3925 18.7736 18.222 18.727 18.0595 18.5973C17.5987 18.2289 17.4659 17.7176 17.36 17.1737C17.3173 16.9535 17.3135 16.7364 17.2884 16.5185C17.2696 16.4996 17.268 16.4808 17.2881 16.4619C17.2892 16.4169 17.2904 16.3714 17.2919 16.3264C17.2603 16.182 17.2419 16.0381 17.3073 15.8972C17.3581 15.68 17.3304 15.4456 17.4528 15.2447C17.5294 14.9844 17.4952 14.6972 17.6461 14.4555C17.6249 14.2965 17.7042 14.1598 17.7585 14.0232C17.8439 13.8076 17.8697 13.5708 17.9945 13.3703C17.9767 13.1863 18.0911 13.0358 18.1365 12.8691C18.1827 12.6997 18.2539 12.5272 18.3248 12.3601C18.3967 12.19 18.4052 11.991 18.4483 11.8058C18.5249 11.4755 18.6273 11.1502 18.6593 10.8099C18.6805 10.5828 18.7078 10.356 18.7324 10.1293C18.7324 9.90487 18.7382 9.68043 18.7313 9.45639C18.717 8.97172 18.6762 8.47936 18.5426 8.02125C18.3894 7.49655 18.1673 6.98879 17.9071 6.49642C17.6711 6.04987 17.3481 5.66183 17.1229 5.21027C17.0525 5.06899 16.922 4.9381 16.8053 4.81799C16.5809 4.58702 16.4681 4.31062 16.4265 4.00226C16.4123 3.89755 16.3872 3.80901 16.2891 3.77975C16.1659 3.74318 16.147 3.85675 16.1143 3.93759C16.0596 4.07348 15.9757 4.04076 15.8856 3.97916C15.5723 3.76551 15.2674 3.538 14.9421 3.34398C14.7473 3.22772 14.5198 3.1669 14.3088 3.07643C14.1017 2.98789 13.8862 2.9363 13.6625 2.93015C13.4003 2.92322 13.3499 3.02908 13.4223 3.27969C13.5686 3.78553 13.5928 4.29984 13.4408 4.8126C13.4354 4.8307 13.4242 4.84687 13.4142 4.86303C13.1663 5.26647 13.0646 5.25954 12.824 4.84995C12.6728 4.59318 12.4972 4.35065 12.3328 4.10197C12.2231 3.93605 12.0853 3.94067 11.9375 4.04153C11.643 4.24286 11.3404 4.42995 11.0313 4.60819C10.8242 4.72791 10.587 4.78797 10.4003 4.95158C10.3072 5.03319 10.1189 4.92347 10.0639 4.75832C9.92645 4.34565 9.82135 3.9245 9.7971 3.48834C9.78671 3.30471 9.73281 3.1234 9.77785 2.93515C9.79056 2.88203 9.76361 2.80195 9.68739 2.78348C9.6154 2.76577 9.54649 2.77385 9.50684 2.85238C9.4387 2.98827 8.9756 3.95414 8.93671 4.10697C8.94557 4.14354 8.98945 4.17164 9.0395 4.1882C9.08993 4.02921 9.46334 3.05449 9.6281 2.94631C9.66121 3.19846 9.65313 3.42559 9.67237 3.64964C9.71049 4.09966 9.79441 4.53697 9.91413 4.97005C9.92337 5.00316 9.97611 5.03434 9.93415 5.06976C9.89488 5.10286 9.85369 5.084 9.81596 5.05051C9.73512 4.97891 9.65082 4.91077 9.56805 4.84148C9.49645 4.94234 9.56074 5.02549 9.61386 5.09825C9.83175 5.39543 10.0589 5.6857 10.2983 5.9671C10.5278 6.23657 10.7737 6.4995 10.9543 6.80054C11.0833 7.01535 11.0825 7.29599 11.0194 7.54698C10.9173 7.95427 10.6583 8.25993 10.3303 8.51054C10.2899 8.54133 10.2429 8.56559 10.1871 8.55288C10.1721 8.56443 10.1574 8.57598 10.1424 8.58753H10.1432C10.0747 8.68223 9.96264 8.72496 9.86832 8.77231C9.71972 8.84699 9.58884 8.93784 9.45872 9.03909C9.20311 9.23811 9.16346 9.22772 8.9856 8.97172L8.98406 8.96941C8.94749 8.95555 8.94326 8.92553 8.94557 8.89242C8.82084 8.72111 8.78119 8.52594 8.75078 8.31806C8.7119 8.0532 8.63491 7.79413 8.58679 7.52889C8.56754 7.42225 8.58217 7.31331 8.54867 7.20975C8.49863 7.12699 8.50171 7.03922 8.52173 6.94914C8.51518 6.90487 8.50902 6.8606 8.50248 6.81671C8.37544 6.77783 8.42741 6.65503 8.41009 6.57957C8.29345 6.0695 8.20452 5.55365 8.0898 5.0432C8.04745 4.85533 7.97816 4.66824 7.83265 4.52581C7.85574 4.90923 7.98586 5.27417 8.02936 5.65297C8.08364 6.12378 8.00395 6.58342 7.78414 6.99841C7.67943 7.19628 7.42035 7.2648 7.2452 7.41224M21.7682 12.9145C21.7317 13.4096 21.6912 13.9065 21.5542 14.3927C21.4891 14.6229 21.4391 14.8624 21.384 15.0984C21.359 15.2054 21.3163 15.2731 21.1877 15.2959C21.0726 15.3159 20.9675 15.3929 20.8586 15.4464C20.785 15.4822 20.7127 15.5211 20.6053 15.5161C20.7523 15.272 20.9032 15.0537 21.0168 14.8127C21.3221 14.1664 21.4537 13.4827 21.4406 12.774C21.4352 12.4714 21.386 12.1661 21.2843 11.8759C21.2589 11.8039 21.2585 11.7388 21.2893 11.6718C21.4306 11.365 21.4884 11.034 21.5692 10.7098C21.5819 10.6586 21.6054 10.6205 21.6674 10.577C21.7163 10.8842 21.7779 11.1668 21.7771 11.4586C21.7759 11.944 21.804 12.4317 21.7686 12.9145H21.7682Z" fill="#000001"/>
<path d="M14.2532 11.6904C14.2875 11.3936 14.1793 11.1165 14.1385 10.83C14.1212 10.7069 14.0215 10.6376 13.976 10.5348C13.4298 10.4328 12.9567 10.5463 12.5902 10.9936C12.5043 11.0984 12.3973 11.1861 12.3003 11.2816C11.9892 11.7797 11.8291 12.3375 11.6578 12.8915C11.6374 12.9577 11.7148 12.9943 11.6717 13.049C11.7117 13.1918 11.7521 13.3338 11.9423 13.3334C12.2356 13.3207 12.5178 13.253 12.7954 13.1633C13.0583 13.0505 13.3305 12.95 13.5568 12.7722C13.6735 12.6805 13.8378 12.6536 13.9137 12.5089C14.06 12.3399 14.1712 12.1535 14.217 11.931C14.2266 11.8844 14.2409 11.8325 14.2963 11.8125C14.2671 11.777 14.2478 11.7374 14.2532 11.6904ZM13.6607 11.434C13.6338 11.6315 13.4448 11.7809 13.4929 11.9999C13.5707 12.1759 13.5368 12.3526 13.5106 12.5708C13.3824 12.4168 13.4171 12.269 13.4009 12.1335C13.2908 11.9857 13.1819 11.9945 13.044 12.1108C12.9482 12.1916 12.8558 12.2887 12.7261 12.3241C12.6783 12.3822 12.6368 12.4523 12.5324 12.423C12.559 12.3483 12.6329 12.3333 12.6822 12.2921C12.7453 12.1967 12.8188 12.1143 12.9116 12.0415C13.1834 11.8279 13.2127 11.6646 13.0671 11.3374C13.0329 11.2604 12.9928 11.1869 12.9251 11.1361C12.8928 11.1118 12.8492 11.093 12.8908 11.0545C12.9089 11.0375 12.9516 11.0429 12.9959 11.0572C13.163 11.1107 13.1595 11.2824 13.2542 11.3836C13.392 11.5307 13.419 11.5457 13.5549 11.3878C13.5838 11.3544 13.6061 11.2985 13.6554 11.3209C13.7112 11.3459 13.6661 11.3932 13.6604 11.4344L13.6607 11.434Z" fill="#000001"/>
<path d="M13.1567 8.92317C13.4235 8.62713 13.6818 8.3234 13.9486 8.02698C14.1053 7.85297 14.1607 7.68282 13.994 7.48033C13.9274 7.39949 13.8812 7.29979 13.8354 7.20393C13.7049 6.93253 13.5771 6.96564 13.3561 7.05341C12.8938 7.23704 12.4453 7.45569 11.9811 7.6347C11.7801 7.71208 11.7193 7.83873 11.7154 8.07394C11.71 8.1671 11.7401 8.30261 11.869 8.3669C12.2251 8.54398 12.5647 8.74955 12.9123 8.94126C12.9916 8.98514 13.089 8.99823 13.1567 8.92317ZM11.9976 8.28413C11.9037 8.24063 11.8506 8.18789 11.869 8.08087C11.7331 7.8857 11.9356 7.84412 12.0253 7.77444C12.11 7.70861 12.2278 7.6809 12.3348 7.64856C12.6913 7.54077 13.007 7.33867 13.3573 7.21586C13.6406 7.11654 13.6841 7.12771 13.8054 7.41643C13.9582 7.58889 13.9728 7.78946 13.8427 7.95614C13.7269 8.10435 13.6102 8.25218 13.4539 8.36151C13.3369 8.48316 13.2634 8.65408 13.0747 8.69373C12.8699 8.80691 12.7052 8.66601 12.5496 8.58479C12.3649 8.48816 12.1878 8.37267 11.9976 8.28452V8.28413Z" fill="#000001"/>
<path d="M8.72654 15.5336C8.6176 15.5571 8.55678 15.6429 8.5279 15.743C8.50365 15.8266 8.49942 15.9159 8.48633 16.0025C8.68458 15.9582 8.81932 15.83 8.92634 15.666C8.8863 15.5813 8.83087 15.5109 8.72654 15.5336Z" fill="#000001"/>
<path d="M11.404 11.1962C11.4236 11.2671 11.4036 11.3325 11.3797 11.3987C11.3216 11.5612 11.2662 11.7248 11.21 11.888C11.2327 12.0062 11.3166 11.8907 11.3605 11.9273C11.4259 11.6339 11.4914 11.3402 11.5568 11.0469C11.5229 11.0469 11.4891 11.0469 11.4552 11.0473C11.4533 11.1019 11.4483 11.1558 11.4036 11.1959L11.404 11.1962Z" fill="#000001"/>
<path d="M16.4109 9.21032C16.4448 8.79226 16.5141 8.37688 16.508 7.93264C16.5372 7.68549 16.4621 7.42334 16.4383 7.15733C16.4186 6.94021 16.4129 6.71578 16.3401 6.50443C16.292 6.36392 16.2292 6.35006 16.128 6.45824C16.0876 6.50135 16.0683 6.5514 16.0564 6.60837C15.9871 6.94175 15.867 7.26011 15.7569 7.58078C15.5663 8.13474 15.3781 8.68986 15.1117 9.2134C15.0316 9.37085 15.0597 9.43091 15.2418 9.47017C15.5225 9.531 15.8016 9.55833 16.0883 9.5079C16.2266 9.48365 16.3998 9.35199 16.4113 9.20994L16.4109 9.21032ZM16.2731 8.53857C16.2339 8.70487 16.2377 8.88118 16.2158 9.05249C16.1815 9.31811 16.0822 9.40319 15.7615 9.42321C15.9629 9.15643 16.0244 8.87464 16.0129 8.57206C15.9759 8.80996 15.9147 9.03979 15.7885 9.24613C15.7292 9.34314 15.6726 9.43938 15.5252 9.42667C15.2672 9.40434 15.2191 9.31465 15.335 9.08637C15.4997 8.76184 15.6018 8.4123 15.7226 8.07007C15.8081 7.8287 15.9043 7.58964 16.0364 7.36829C16.0568 7.33402 16.0891 7.3117 16.1322 7.31593C16.1846 7.32132 16.2119 7.3552 16.22 7.40332C16.2824 7.77942 16.3648 8.15284 16.2735 8.53895L16.2731 8.53857Z" fill="#000001"/>
<path d="M11.079 12.1602C11.0024 12.2364 10.9262 12.3126 10.8496 12.3892C10.9247 12.4654 10.9651 12.3615 11.0244 12.3557C11.0509 12.3292 11.0771 12.3026 11.1037 12.276C11.1014 12.2364 11.1657 12.1821 11.079 12.1602Z" fill="#000001"/>
<path d="M13.8048 7.41624C13.9576 7.58871 13.9722 7.78927 13.8421 7.95596C13.7262 8.10417 13.6096 8.25199 13.4533 8.36132C13.4229 8.23121 13.3644 8.19848 13.2554 8.29588C13.1842 8.3594 13.1045 8.41368 13.0291 8.47219C13.0002 8.49452 12.9771 8.54341 12.9348 8.52147C12.6403 8.36941 12.3462 8.21619 12.0555 8.05682C12.0062 8.02987 11.9674 7.9575 12.0405 7.91631C12.1568 7.85087 12.2946 7.74154 12.4024 7.76194C12.6022 7.79928 12.6949 7.68071 12.8181 7.58909C12.8389 7.57369 12.8728 7.51826 12.8863 7.55599C12.934 7.68841 12.9756 7.61565 13.0025 7.55483C13.0672 7.41085 13.205 7.40123 13.3274 7.35504C13.5007 7.28998 13.6439 7.41163 13.8048 7.41624Z" fill="#EAA10F"/>
<path d="M13.8042 7.41725C13.6433 7.41263 13.4997 7.29098 13.3269 7.35604C13.2045 7.40224 13.0666 7.41186 13.002 7.55584C12.975 7.61628 12.9331 7.68942 12.8857 7.55699C12.8722 7.51927 12.8384 7.5747 12.8176 7.5901C12.6944 7.68172 12.6016 7.80029 12.4018 7.76295C12.294 7.74293 12.1562 7.85187 12.04 7.91731C11.9668 7.95851 12.0061 8.03088 12.055 8.05783C12.3452 8.21758 12.6393 8.3708 12.9342 8.52247C12.9766 8.54442 12.9997 8.49553 13.0285 8.4732C13.1044 8.41468 13.1837 8.3604 13.2549 8.29689C13.3638 8.19949 13.4227 8.23221 13.4528 8.36233C13.3357 8.48398 13.2622 8.6549 13.0736 8.69455C12.6466 8.5398 12.2759 8.27379 11.8679 8.08169C11.732 7.88652 11.9345 7.84494 12.0242 7.77526C12.1089 7.70944 12.2267 7.68172 12.3337 7.64938C12.6901 7.54159 13.0058 7.33949 13.3561 7.21669C13.6395 7.11737 13.683 7.12853 13.8042 7.41725Z" fill="#FABE2A"/>
<path d="M11.8679 8.08203C12.276 8.27413 12.6467 8.53975 13.0736 8.69489C12.8692 8.80807 12.704 8.66717 12.5485 8.58594C12.3637 8.48932 12.1867 8.37383 11.9965 8.28568C11.9026 8.24218 11.8494 8.18944 11.8679 8.08242V8.08203Z" fill="#EAA10F"/>
<path d="M15.7614 9.4242C15.9628 9.15742 16.0244 8.87563 16.0128 8.57305C15.9759 8.81095 15.9147 9.04078 15.7884 9.24711C15.7291 9.34412 15.6725 9.44036 15.5251 9.42766C15.2672 9.40533 15.219 9.31564 15.3349 9.08735C15.4997 8.76283 15.6017 8.41329 15.7226 8.07106C15.808 7.82969 15.9043 7.59063 16.0363 7.36927C16.0567 7.33501 16.089 7.31269 16.1322 7.31692C16.1845 7.32231 16.2119 7.35619 16.2199 7.40431C16.2823 7.78041 16.3647 8.15383 16.2734 8.53994C16.2342 8.70624 16.238 8.88256 16.2161 9.05386C16.1818 9.31949 16.0825 9.40456 15.7618 9.42458L15.7614 9.4242Z" fill="#EAA10F"/>
</g>
<defs>
<linearGradient id="paint0_linear_2361_1818" x1="11.7335" y1="24.019" x2="12.2552" y2="0.454001" gradientUnits="userSpaceOnUse">
<stop stop-color="#464AF4"/>
<stop offset="1" stop-color="#1D3478"/>
</linearGradient>
<linearGradient id="paint1_linear_2361_1818" x1="12.044" y1="21.7691" x2="11.957" y2="2.46523" gradientUnits="userSpaceOnUse">
<stop stop-color="#37C2FB"/>
<stop offset="1" stop-color="#1D3478"/>
</linearGradient>
<clipPath id="clip0_2361_1818">
<rect width="24" height="24" fill="white"/>
</clipPath>
</defs>
</svg>
