<svg width="24" height="24" viewBox="0 0 24 24" fill="none" xmlns="http://www.w3.org/2000/svg">
<g clip-path="url(#clip0_2355_1755)">
<path d="M12.0004 24.0007C18.628 24.0007 24.0007 18.628 24.0007 12.0004C24.0007 5.37275 18.628 0 12.0004 0C5.37275 0 0 5.37275 0 12.0004C0 18.628 5.37275 24.0007 12.0004 24.0007Z" fill="#ADFF00"/>
<path d="M3.89941 5.49219C4.02437 5.49219 4.13212 5.49219 4.23987 5.49219C5.72663 5.49219 7.2134 5.49219 8.70016 5.49518C10.0724 5.49817 11.2255 6.66319 11.2375 8.06241C11.2442 8.7927 11.2158 9.52374 11.2449 10.2525C11.2749 11.0015 11.1454 11.642 10.3149 11.984C10.4795 12.0573 10.5738 12.1 10.6681 12.1419C11.4021 12.4696 11.8181 13.0315 11.8361 13.8568C11.8525 14.6313 11.854 15.4072 11.8331 16.1809C11.8009 17.4028 10.7085 18.5438 9.44018 18.5775C7.62493 18.6262 5.80669 18.5895 3.98995 18.588C3.96975 18.588 3.94955 18.5745 3.89941 18.5573V5.49219ZM5.78125 13.0091V16.6268C5.81118 16.6426 5.83064 16.6605 5.85009 16.6605C6.95076 16.665 8.05218 16.6837 9.15285 16.6635C9.59507 16.6553 9.94225 16.2639 9.95048 15.8255C9.96245 15.1633 9.9632 14.4996 9.95048 13.8374C9.94225 13.4034 9.59656 13.0195 9.18278 13.0136C8.06041 12.9978 6.93729 13.0083 5.782 13.0083L5.78125 13.0091ZM5.76853 11.0778C6.70683 11.0778 7.60772 11.0921 8.50861 11.0719C8.9845 11.0614 9.34066 10.6805 9.35114 10.2031C9.36535 9.5634 9.36909 8.9229 9.35114 8.28389C9.33692 7.76386 8.96429 7.41817 8.4495 7.41368C7.80002 7.4077 7.15054 7.40994 6.50107 7.40845C6.26238 7.40845 6.02369 7.40845 5.76778 7.40845V11.0778H5.76853Z" fill="black"/>
<path d="M12.762 9.21015H16.3521C16.3588 9.05751 16.3693 8.93779 16.3693 8.81807C16.3708 7.81841 16.3761 6.8195 16.3656 5.81985C16.3633 5.57891 16.4217 5.4779 16.6783 5.48688C17.1834 5.50558 17.6892 5.49211 18.2437 5.49211V9.20416C18.7622 9.20416 19.2321 9.21988 19.7005 9.19818C19.9923 9.18471 20.115 9.26028 20.0978 9.58577C20.0709 10.0766 20.0911 10.5705 20.0911 11.1084H18.2818C18.2714 11.2499 18.2579 11.3471 18.2571 11.4452C18.2557 13.0733 18.2609 14.7015 18.2512 16.3297C18.2497 16.5871 18.3095 16.6919 18.5819 16.6799C19.0645 16.6582 19.5479 16.6739 20.0844 16.6739C20.0844 17.2852 20.0896 17.8644 20.0754 18.4428C20.0739 18.4959 19.9422 18.5894 19.8704 18.5902C18.7802 18.5999 17.69 18.6021 16.6005 18.5864C16.5227 18.5857 16.3918 18.4413 16.3805 18.3515C16.3491 18.0971 16.3663 17.8367 16.3663 17.5778C16.3663 15.5792 16.3663 13.5799 16.3663 11.5813V11.1526H14.6094C14.6094 11.285 14.6094 11.4152 14.6094 11.5462C14.608 13.758 14.6012 15.9706 14.6117 18.1824C14.6132 18.4974 14.5406 18.6268 14.2106 18.6051C13.7939 18.5774 13.3741 18.5932 12.9558 18.5999C12.786 18.6029 12.7239 18.5363 12.7246 18.3627C12.7314 15.3428 12.7351 12.3221 12.7388 9.30218C12.7388 9.29096 12.7441 9.28048 12.7613 9.2109L12.762 9.21015Z" fill="black"/>
<path d="M14.6098 5.39258H12.7549V7.30809H14.6098V5.39258Z" fill="black"/>
</g>
<defs>
<clipPath id="clip0_2355_1755">
<rect width="24" height="24" fill="white"/>
</clipPath>
</defs>
</svg>
