<svg width="24" height="24" viewBox="0 0 24 24" fill="none" xmlns="http://www.w3.org/2000/svg">
<path d="M12.4131 8.16016L15.5118 9.94583L12.4131 11.6175L9.31445 9.94583L12.4131 8.16016Z" fill="#FB8EAE"/>
<path d="M21.0936 6.93384L17.2428 9.01122L12.4125 6.22743L7.58226 9.01122L3.73145 6.93384L12.4125 1.93164L21.0936 6.93384Z" fill="#FB8EAE"/>
<path d="M15.5794 13.6294L12.4131 15.4537V11.619L15.5118 9.94727L15.5794 9.9859V13.6294Z" fill="#FCA4BD"/>
<path d="M21.1515 6.96839V17.0333L12.4131 22.069V17.3862L17.2537 14.5973V9.01872L17.2434 9.01293L21.0942 6.93555L21.1515 6.96839Z" fill="#FCA4BD"/>
<path d="M2 18V6L12.4127 11.6178V23.9997L2 18Z" fill="#FED6E1"/>
<path d="M3.67427 17.0321V6.96721L3.73158 6.93437L2 6V18L12.4127 23.9997V22.0678L3.67427 17.0321Z" fill="#811735"/>
<path d="M9.24653 13.6282V9.98473L9.31415 9.94609L7.58257 9.01172L7.57227 9.01751V14.596L12.4128 17.385V15.4525L9.24653 13.6282Z" fill="#811735"/>
<path d="M12.4127 0L2 6.00032L3.73158 6.93469L7.5824 4.71564V9.01207L9.31398 9.94644L12.4127 8.16077L15.5113 9.94644L15.579 9.98508V13.6285L12.4127 15.4529V17.3853L17.2532 14.5964V9.01787L17.2429 9.01207L12.4127 6.22828L9.24636 8.05323V3.7568L12.4127 1.93249L21.0937 6.93469L21.1511 6.96753V17.0325L12.4127 22.0682V24L22.8253 18.0003V6.00032L12.4127 0Z" fill="#DD275F"/>
</svg>
