<svg width="24" height="24" viewBox="0 0 24 24" fill="none" xmlns="http://www.w3.org/2000/svg">
<rect width="24" height="24" rx="4" fill="#070302"/>
<path fill-rule="evenodd" clip-rule="evenodd" d="M4 11.1855V10.9151V10.6447H7.15487H10.3097L10.0433 10.9151L9.77685 11.1855H6.88842H4ZM4 10.1858V10.4832H7.23596H10.4681L10.7306 10.2128C10.8735 10.0622 10.9894 9.92696 10.9894 9.9115C10.9894 9.89605 9.41773 9.88446 7.49468 9.88446H4V10.1858ZM4 9.42867V9.71839H4.90746H5.81492V9.42867V9.13895H4.90746H4V9.42867ZM4 8.69325V8.98298H4.90746H5.81878L5.8072 8.70098L5.79561 8.42285L4.89974 8.41126L4 8.40353V8.69325ZM4 8.2494V7.95968V7.66995H7.27458H10.5492L10.8349 7.95968L11.1207 8.2494H7.56033H4ZM4 7.2261V7.51582H7.27458H10.5492L10.8349 7.2261L11.1207 6.93638H7.56033H4V7.2261ZM4 6.49252V6.78225H4.90746H5.81492V6.49252V6.2028H4.90746H4V6.49252ZM4 5.75895V6.04867L4.89974 6.04094L5.79561 6.02935L5.8072 5.74736L5.81878 5.46922H4.90746H4V5.75895ZM4 5.31509V5.02537V4.73564H7.23596H10.4719L10.7577 5.02537L11.0434 5.31509H7.52172H4ZM4 4.57968V4.28995V4.00023H6.88456H9.76913L10.0317 4.25905C10.1784 4.40198 10.2943 4.53332 10.2943 4.54877C10.2943 4.56809 8.87711 4.57968 7.14715 4.57968H4ZM9.36835 5.92505C9.36835 5.83234 9.32973 5.75895 9.20617 5.63533L9.04398 5.46922H10.1136H11.1833V5.75895V6.04867H10.2758H9.36835V5.92505ZM9.25172 6.62C9.34054 6.53115 9.36757 6.46934 9.36757 6.35345V6.2028H10.275H11.1825V6.49252V6.78225H10.1592C9.5954 6.78225 9.13587 6.77066 9.13587 6.75907C9.13587 6.74748 9.18994 6.68567 9.25172 6.62ZM9.25172 8.5735C9.18994 8.51169 9.13587 8.44989 9.13587 8.43057C9.13587 8.41512 9.5954 8.40353 10.1592 8.40353H11.1825V8.69325V8.98298H10.275H9.36757V8.83618C9.36757 8.72029 9.34054 8.65849 9.25172 8.5735ZM9.20617 9.55228C9.32973 9.42867 9.36835 9.35527 9.36835 9.26256V9.13895H10.2758H11.1833V9.42867V9.71839H10.1136H9.04398L9.20617 9.55228Z" fill="#EC6B15"/>
<path fill-rule="evenodd" clip-rule="evenodd" d="M14.2464 11.1855L13.9761 10.9151L13.7058 10.6447H16.4977H19.2857V10.9151V11.1855H18.7181H16.1965H14.2464ZM12.9918 9.90599C12.9918 9.92144 13.1192 10.0528 13.2737 10.2034L13.5517 10.4777L16.4093 10.4738L19.2668 10.47V10.1803V9.89054L16.1312 9.88667C14.4051 9.88667 12.9918 9.8944 12.9918 9.90599ZM12.7988 9.71839V9.42867V9.13895H13.7758H14.7528L15.0385 9.42867L15.3243 9.71839H14.0615H12.7988ZM12.7988 8.69325V8.98298H13.7063H14.6137V8.69325V8.40353H13.7063H12.7988V8.69325ZM12.7988 8.2494V7.95968V7.66995H13.7063H14.6137V7.95968V8.2494H13.7063H12.7988ZM12.7988 7.2261V7.51582H13.7063H14.6137V7.2261V6.93638H13.7063H12.7988V7.2261ZM12.7988 6.78225V6.49252V6.2028H13.7063H14.6137V6.49252V6.78225H13.7063H12.7988ZM12.7988 5.75895V6.04867H13.7063H14.6137V5.75895V5.46922H13.7063H12.7988V5.75895ZM12.7988 5.31509V5.02537V4.73564H13.7063H14.6137V5.02537V5.31509H13.7063H12.7988ZM12.7988 4.57968V4.28995V4.00023H13.7063H14.6137V4.28995V4.57968H13.7063H12.7988Z" fill="#EC6B15"/>
<path fill-rule="evenodd" clip-rule="evenodd" d="M5.40587 19.9844L5.13942 19.714L4.87298 19.4436H7.5915H10.31L10.0436 19.714L9.77712 19.9844H7.5915H5.40587ZM4.19711 18.7048C4.17394 18.7203 4.2782 18.8477 4.43652 19.0023L4.71842 19.2765L7.59526 19.2727L10.4682 19.2688L10.7424 18.9907C10.9509 18.7821 11.005 18.7087 10.9548 18.6932C10.8582 18.6662 4.24345 18.6778 4.19711 18.7048ZM4 18.2275V18.5172H5.25886H6.51386L6.23196 18.2275L5.95007 17.9378H4.97697H4V18.2275ZM4 17.4921V17.7818H4.90746H5.81492V17.4921V17.2024H4.90746H4V17.4921ZM4 16.7585V17.0482H4.90746H5.81492V16.7585V16.4688H4.90746H4V16.7585ZM4 16.0249V16.3147H4.90746H5.81492V16.0249V15.7352H4.90746H4V16.0249ZM4 15.2914V15.5811H4.90746H5.81492V15.2914V15.0016H4.90746H4V15.2914ZM4 14.5578V14.8475H4.90746H5.81492V14.5578V14.2681H4.90746H4V14.5578ZM4 13.8242V14.1139H4.90746H5.81492V13.8242V13.5345H4.90746H4V13.8242ZM4 13.3785V13.0888V12.7991H4.90746H5.81492V13.0888V13.3785H4.90746H4ZM9.36744 13.3785V13.0888V12.7991H10.2749H11.1824V13.0888V13.3785H10.2749H9.36744ZM9.36744 14.1139V13.8242V13.5345H10.2749H11.1824V13.8242V14.1139H10.2749H9.36744ZM9.36744 14.8475V14.5578V14.2681H10.2749H11.1824V14.5578V14.8475H10.2749H9.36744ZM9.36744 15.5811V15.2914V15.0016H10.2749H11.1824V15.2914V15.5811H10.2749H9.36744ZM9.36744 16.3147V16.0249V15.7352H10.2749H11.1824V16.0249V16.3147H10.2749H9.36744ZM9.36744 17.0482V16.7585V16.4688H10.2749H11.1824V16.7585V17.0482H10.2749H9.36744ZM9.36744 17.7818V17.4921V17.2024H10.2749H11.1824V17.4921V17.7818H10.2749H9.36744ZM8.66079 18.5172L8.96199 18.2275L9.25933 17.9378H10.2208H11.1824V18.2275V18.5172H9.92351H8.66079Z" fill="#EC6B15"/>
<path fill-rule="evenodd" clip-rule="evenodd" d="M12.7988 19.7139V19.9843L13.6291 19.9882C14.0847 19.992 14.4902 19.9959 14.5288 19.9998C14.5829 20.0036 14.5944 19.9611 14.606 19.7216L14.6176 19.4435H13.7063H12.7988V19.7139ZM12.8338 18.7109C12.8106 18.7263 12.799 18.8499 12.8067 19.0045L12.8183 19.271L13.718 19.2826L14.6139 19.2903V18.989V18.6838L13.7451 18.6877C13.2662 18.6877 12.8569 18.6993 12.8338 18.7109ZM12.7988 18.2266V18.5163H13.7063H14.6137V18.2266V17.9369H13.7063H12.7988V18.2266ZM12.7988 17.493V17.7827H13.7063H14.6137V17.493V17.2033H13.7063H12.7988V17.493ZM12.7988 17.0473V16.7576V16.4679H16.0889H19.3789L19.6415 16.7267C19.7882 16.8696 19.904 17.001 19.904 17.0164C19.904 17.0357 18.3054 17.0473 16.3514 17.0473H12.7988ZM12.7988 16.024V16.3137H16.0734H19.3441L19.6028 16.051C19.7496 15.9081 19.877 15.7806 19.8925 15.7613C19.904 15.7459 18.317 15.7343 16.3592 15.7343H12.7988V16.024ZM12.7988 15.2904V15.5802H13.7063H14.6137V15.2904V15.0007H13.7063H12.7988V15.2904ZM12.7988 14.5569V14.8466H13.7063H14.6137V14.5569V14.2671H13.7063H12.7988V14.5569ZM12.7988 14.113V13.8233V13.5336H16.0502H19.3016L19.5642 13.7924C19.711 13.9353 19.8268 14.0666 19.8268 14.0821C19.8268 14.1014 18.2474 14.113 16.3128 14.113H12.7988ZM12.7988 13.3794V13.0897V12.8H15.6834H18.568L18.8305 13.0588C18.9773 13.2017 19.0931 13.3331 19.0931 13.3485C19.0931 13.3678 17.6759 13.3794 15.946 13.3794H12.7988ZM18.1672 14.723C18.1672 14.6302 18.1286 14.5569 18.005 14.4332L17.8428 14.2671H18.9125H19.9821V14.5569V14.8466H19.0746H18.1672V14.723ZM18.0426 15.4527C18.143 15.3522 18.1662 15.2943 18.1662 15.163V15.0007H19.0737H19.9811V15.2904V15.5802H18.9501H17.9191L18.0426 15.4527ZM18.0698 17.3578C18.0158 17.3076 17.9733 17.2535 17.9733 17.2342C17.9733 17.2187 18.4251 17.2033 18.9773 17.2033H19.9813V17.493V17.7827H19.0738H18.1664V17.6166C18.1664 17.4891 18.1432 17.4273 18.0698 17.3578ZM18.1663 18.2536C18.1663 18.1068 18.1779 17.9755 18.1933 17.9639C18.2049 17.9484 18.6142 17.9369 19.1008 17.9369H19.9812V18.2266V18.5163H19.0737H18.1663V18.2536ZM18.1663 19.0083C18.1663 18.8499 18.174 18.7147 18.1817 18.707C18.1894 18.6993 18.5988 18.6877 19.0892 18.6877L19.9812 18.6838V18.9851V19.2903H19.0737H18.1663V19.0083ZM18.1663 19.9853V19.7149V19.4445H19.0699C19.722 19.4445 19.9256 19.4319 19.9815 19.5168C20.0133 19.5651 19.9973 19.645 19.9889 19.7767L19.9735 19.9853H19.0699H18.1663Z" fill="#EC6B15"/>
</svg>
