<svg width="25" height="24" viewBox="0 0 25 24" fill="none" xmlns="http://www.w3.org/2000/svg">
<g clip-path="url(#clip0_720_13772)">
<path d="M23.1783 13.0623C22.8514 13.0625 22.5329 13.1669 22.2677 13.3607C22.0024 13.5545 21.8039 13.828 21.7001 14.1424L20.2912 13.788L21.6508 7.98728C21.7797 8.0224 21.9125 8.04034 22.046 8.04068C22.2508 8.04079 22.4536 7.99995 22.6428 7.92049C22.8321 7.84102 23.004 7.7245 23.1488 7.57757C23.2936 7.43064 23.4085 7.25619 23.4868 7.0642C23.5651 6.87221 23.6053 6.66645 23.6052 6.45866C23.6053 6.25084 23.5651 6.04502 23.4868 5.85298C23.4085 5.66094 23.2936 5.48644 23.1488 5.33945C23.004 5.19245 22.8321 5.07586 22.6429 4.9963C22.4537 4.91675 22.2508 4.8758 22.046 4.8758C21.754 4.87598 21.4679 4.95935 21.2203 5.11644C20.9727 5.27352 20.7736 5.49801 20.6456 5.76431L14.6451 4.31793L14.9334 3.11486C15.0592 3.14824 15.1886 3.16534 15.3186 3.16574C15.5235 3.16574 15.7263 3.12478 15.9155 3.04523C16.1047 2.96567 16.2767 2.84908 16.4215 2.70209C16.5663 2.55509 16.6811 2.38059 16.7594 2.18855C16.8377 1.99651 16.878 1.79069 16.8779 1.58287C16.878 1.37504 16.8377 1.16922 16.7594 0.977184C16.6811 0.785145 16.5663 0.610644 16.4215 0.46365C16.2767 0.316655 16.1047 0.200065 15.9155 0.120508C15.7263 0.0409503 15.5235 -2.98432e-08 15.3186 0C14.9049 0 14.5081 0.166762 14.2155 0.463608C13.9229 0.760455 13.7586 1.16306 13.7586 1.58287C13.7587 1.82558 13.8142 2.06497 13.9207 2.28232L11.7088 3.60914L8.74916 2.89529C8.75716 2.8306 8.76133 2.7655 8.76168 2.70031C8.76169 2.28175 8.59823 1.88025 8.30708 1.58374C8.01593 1.28722 7.62084 1.11984 7.20832 1.11827C6.79457 1.11827 6.39776 1.28503 6.10519 1.58187C5.81263 1.87872 5.64827 2.28133 5.64827 2.70113C5.6485 2.99762 5.73088 3.28807 5.88601 3.53933C6.04115 3.79058 6.26281 3.99251 6.52565 4.12208L5.8162 7.1471L3.5718 8.49427C3.42811 8.28706 3.23741 8.11795 3.01577 8.00123C2.79413 7.88451 2.54809 7.82361 2.29837 7.82366C1.88477 7.82366 1.48808 7.99029 1.19553 8.28695C0.90299 8.58362 0.738503 8.98602 0.738281 9.40568C0.738281 9.82548 0.90264 10.2281 1.19521 10.5249C1.48778 10.8218 1.88462 10.9885 2.29837 10.9885C2.62679 10.9883 2.94676 10.883 3.21276 10.6875C3.47875 10.4921 3.67721 10.2165 3.77989 9.89996L5.09261 10.2298L3.73811 16.0076C3.65717 15.9941 3.57529 15.987 3.49326 15.9864C3.28843 15.9864 3.08562 16.0274 2.89639 16.1069C2.70716 16.1865 2.53522 16.3031 2.39042 16.4501C2.24562 16.5971 2.13078 16.7716 2.05247 16.9636C1.97416 17.1557 1.93392 17.3615 1.93403 17.5693C1.93392 17.7771 1.97419 17.9829 2.05251 18.1748C2.13083 18.3668 2.24565 18.5413 2.39046 18.6882C2.53527 18.8351 2.70721 18.9517 2.89643 19.0311C3.08565 19.1106 3.28847 19.1514 3.49326 19.1513C3.78975 19.1511 4.08006 19.0652 4.33016 18.9037C4.58027 18.7421 4.7798 18.5116 4.90541 18.2391L10.7203 19.6422L10.4237 20.8809C10.3073 20.8527 10.1882 20.8382 10.0686 20.8376C9.65481 20.8376 9.25801 21.0044 8.96544 21.3013C8.67287 21.5981 8.50851 22.0007 8.50851 22.4205C8.50851 22.8403 8.67287 23.2429 8.96544 23.5398C9.25801 23.8366 9.65481 24.0034 10.0686 24.0034C10.2734 24.0034 10.4762 23.9624 10.6654 23.8829C10.8547 23.8033 11.0266 23.6867 11.1714 23.5397C11.3162 23.3927 11.4311 23.2182 11.5094 23.0262C11.5877 22.8342 11.6279 22.6283 11.6278 22.4205C11.6283 22.2601 11.6043 22.1005 11.5568 21.9474L14.0226 20.4383L16.6514 21.0725C16.6444 21.1333 16.6408 21.1944 16.6405 21.2556C16.6404 21.4634 16.6807 21.6693 16.759 21.8613C16.8373 22.0533 16.9521 22.2278 17.0969 22.3748C17.2417 22.5218 17.4137 22.6384 17.6029 22.718C17.7921 22.7975 17.9949 22.8385 18.1998 22.8385C18.6135 22.8385 19.0103 22.6717 19.3029 22.3749C19.5955 22.078 19.7598 21.6754 19.7598 21.2556C19.7598 20.9579 19.6769 20.6662 19.5206 20.4143C19.3643 20.1623 19.1411 19.9602 18.8766 19.8313L19.5225 17.0725L21.9324 15.5973C22.0771 15.794 22.2651 15.9537 22.4814 16.0638C22.6977 16.1739 22.9363 16.2313 23.1783 16.2315C23.592 16.2315 23.9888 16.0647 24.2814 15.7678C24.5739 15.471 24.7383 15.0684 24.7383 14.6486C24.7387 14.4404 24.6987 14.2342 24.6205 14.0418C24.5423 13.8494 24.4275 13.6745 24.2826 13.5271C24.1377 13.3798 23.9655 13.2629 23.776 13.1831C23.5865 13.1034 23.3834 13.0623 23.1783 13.0623ZM20.0481 13.727L15.4908 12.5799C15.5311 12.383 15.5515 12.1824 15.5518 11.9813C15.5523 11.5319 15.4493 11.0886 15.2509 10.6867L20.7726 7.37092C20.9356 7.60261 21.1569 7.78561 21.4135 7.9008L20.0481 13.727ZM12.6949 9.08605C12.2198 9.08524 11.752 9.20535 11.3345 9.43536L8.98315 5.53962L11.7489 3.88046L14.3393 4.50614L13.2305 9.13777C13.055 9.10427 12.8768 9.08751 12.6982 9.08774L12.6949 9.08605ZM11.1206 9.56675C10.5523 9.94799 10.1373 10.523 9.95074 11.1878L5.39008 10.0407L6.03012 7.31072L8.7667 5.66849L11.1206 9.56675ZM12.6949 14.8766C13.1873 14.8774 13.6714 14.748 14.0995 14.5011L16.567 18.5833L13.9825 20.1653L11.0245 19.4523L12.1342 14.8215C12.3199 14.8588 12.5089 14.8773 12.6982 14.8766H12.6949ZM14.3126 14.368C14.8435 13.9964 15.2354 13.4539 15.4248 12.8283L19.9871 13.9762L19.3002 16.908L16.7776 18.4519L14.3126 14.368ZM20.5486 6.00507C20.5048 6.15275 20.4826 6.30615 20.4826 6.46036C20.4829 6.70059 20.5375 6.93755 20.6422 7.15302L15.1273 10.4663C14.7527 9.85003 14.1647 9.39799 13.4786 9.19881L14.5875 4.56633L20.5486 6.00507ZM14.0494 2.50276C14.2133 2.73621 14.4365 2.9202 14.6953 3.03517L14.4011 4.26028L12.0615 3.69562L14.0494 2.50276ZM11.3972 3.79738L8.85193 5.32345L8.06481 4.01949C8.37073 3.81282 8.59502 3.50332 8.6982 3.14541L11.3972 3.79738ZM6.75458 4.22128C6.89999 4.26492 7.05085 4.28717 7.20249 4.2874C7.42421 4.2875 7.64335 4.23922 7.84506 4.14582L8.63634 5.45739L6.11368 6.9682L6.75458 4.22128ZM3.83419 9.65408C3.84755 9.57253 3.85453 9.49004 3.85508 9.40737C3.8548 9.16741 3.80018 8.93073 3.69547 8.71556L5.73016 7.49554L5.14524 9.98389L3.83419 9.65408ZM5.33239 10.2933L9.89227 11.4404C9.858 11.6204 9.84064 11.8032 9.84045 11.9864C9.84182 12.4865 9.9714 12.9777 10.2165 13.4116L4.78509 16.6749C4.59127 16.3867 4.30937 16.1713 3.98291 16.0619L5.33239 10.2933ZM4.99064 18.0008C5.02957 17.861 5.04953 17.7164 5.04997 17.571C5.04996 17.3403 4.99976 17.1125 4.90292 16.9038L10.3485 13.6337C10.7188 14.1773 11.2614 14.5758 11.886 14.763L10.7763 19.3964L4.99064 18.0008ZM11.4573 21.7117C11.2892 21.3721 11.0062 21.1052 10.6602 20.9597L10.961 19.7024L13.6717 20.3561L11.4573 21.7117ZM14.3259 20.2526L16.694 18.8037L17.3675 19.9186C17.0423 20.1269 16.8043 20.4496 16.699 20.8249L14.3259 20.2526ZM18.6376 19.7397C18.4943 19.6968 18.3458 19.6748 18.1964 19.6744C17.9878 19.6745 17.7812 19.7169 17.5889 19.7991L16.9088 18.6723L19.2184 17.2582L18.6376 19.7397ZM19.6011 16.7274L20.2302 14.0407L21.6374 14.3942C21.6232 14.4783 21.6157 14.5633 21.6149 14.6486C21.6147 14.9044 21.6761 15.1564 21.7936 15.3828L19.6011 16.7274Z" fill="url(#paint0_linear_720_13772)"/>
</g>
<defs>
<linearGradient id="paint0_linear_720_13772" x1="12.7383" y1="0" x2="12.7383" y2="24.0034" gradientUnits="userSpaceOnUse">
<stop stop-color="#F90CFF"/>
<stop offset="1" stop-color="#22DAFF"/>
</linearGradient>
<clipPath id="clip0_720_13772">
<rect width="24" height="24" fill="white" transform="translate(0.738281)"/>
</clipPath>
</defs>
</svg>
