<svg width="25" height="24" viewBox="0 0 25 24" fill="none" xmlns="http://www.w3.org/2000/svg">
<g clip-path="url(#clip0_720_13779)">
<path fill-rule="evenodd" clip-rule="evenodd" d="M12.6367 24C6.03672 24 0.636719 18.6001 0.636719 11.9402C0.696719 5.34039 6.03672 -0.0595034 12.6967 0.000495202C19.2967 0.0604941 24.6367 5.40039 24.6367 12.1202C24.5767 18.6601 19.2367 24 12.6367 24Z" fill="white"/>
<path d="M12.2704 2L7.83235 4.58898L12.2704 7.17796L16.7917 4.58898L12.2704 2ZM13.0002 15.822V20.9998L19.028 17.5763V12.3974L13.0002 15.822ZM17.5209 6.21713V11.396L12.9996 13.985V8.80611L17.5209 6.21713ZM6.63672 11.396L11.158 13.985V8.80611L6.63672 6.21713V11.396ZM6.63672 18.411L11.158 21V15.822L6.63672 13.2331V18.411Z" fill="#000D2B"/>
</g>
<defs>
<clipPath id="clip0_720_13779">
<rect width="24" height="24" fill="white" transform="translate(0.636719)"/>
</clipPath>
</defs>
</svg>
