<svg width="24" height="24" viewBox="0 0 24 24" fill="none" xmlns="http://www.w3.org/2000/svg">
<g clip-path="url(#clip0_2355_1780)">
<path d="M12 24C18.6274 24 24 18.6274 24 12C24 5.37258 18.6274 0 12 0C5.37258 0 0 5.37258 0 12C0 18.6274 5.37258 24 12 24Z" fill="white"/>
<path d="M12.0001 23.2229C18.1983 23.2229 23.2229 18.1983 23.2229 12.0001C23.2229 5.80195 18.1983 0.777344 12.0001 0.777344C5.80195 0.777344 0.777344 5.80195 0.777344 12.0001C0.777344 18.1983 5.80195 23.2229 12.0001 23.2229Z" fill="#FB1F1E"/>
<path d="M7.67431 4.75411C7.9742 4.80086 8.21605 4.95877 8.42948 5.16224C8.56282 5.28934 8.6283 5.46133 8.69842 5.62867C8.75235 5.75724 8.7736 5.89045 8.77466 6.02831C8.79179 6.08661 8.78196 6.14625 8.77638 6.20402C8.75513 6.42542 8.69085 6.63207 8.55538 6.8131C8.51262 6.87021 8.53467 6.95587 8.59523 6.99173C8.62285 7.00806 8.6449 6.99744 8.66801 6.98084C8.98131 6.75572 9.31467 6.56367 9.66198 6.39726C10.0959 6.18928 10.5512 6.0481 11.0317 6.00108C11.4445 5.96071 11.8538 5.98474 12.2514 6.11118C12.5156 6.19512 12.7541 6.33019 12.9645 6.51095C13.1373 6.6593 13.3041 6.81522 13.4597 6.98084C13.8701 7.41766 14.3006 7.83469 14.717 8.2654C14.9429 8.49915 15.1738 8.72785 15.402 8.95934C15.9298 9.49484 16.461 10.0269 16.988 10.5631C17.4077 10.9899 17.6662 11.5036 17.7364 12.1037C17.7854 12.5228 17.7311 12.9327 17.6161 13.3362C17.4647 13.8674 17.2078 14.3474 16.9012 14.803C16.8616 14.8617 16.817 14.9166 16.766 14.9662C16.7357 14.9957 16.7097 15.0283 16.6884 15.065C16.6544 15.1236 16.6587 15.1801 16.7006 15.2318C16.7912 15.3432 16.9142 15.4166 17.0267 15.5018C17.0576 15.5253 17.0911 15.5083 17.1185 15.4876C17.1737 15.4459 17.2364 15.4183 17.298 15.3881C17.4324 15.3223 17.5764 15.3042 17.7233 15.3029C17.8712 15.3015 18.0196 15.2949 18.1658 15.329C18.1989 15.3367 18.2301 15.345 18.2531 15.3718C18.3389 15.4171 18.4283 15.4567 18.5098 15.5086C18.8619 15.7322 19.0531 16.0595 19.1156 16.4674C19.1651 16.7905 19.0931 17.0851 18.9081 17.3532C18.8968 17.3696 18.8869 17.3867 18.8764 17.4034L18.8765 17.4032C18.8567 17.4486 18.8337 17.4913 18.7827 17.5094C18.7741 17.518 18.7653 17.5267 18.7567 17.5352C18.7296 17.6041 18.6657 17.6365 18.6109 17.6752C18.4516 17.7875 18.2759 17.863 18.0819 17.8922C18.0731 17.8935 18.0645 17.8954 18.0557 17.8968C17.9088 17.9207 17.9063 17.9203 17.8881 18.0671C17.8504 18.3716 17.7123 18.6245 17.4984 18.8397C17.4781 18.8601 17.4569 18.8794 17.4331 18.8956C17.2599 19.0612 17.0567 19.1745 16.8228 19.2236C16.429 19.3064 16.0615 19.2401 15.7363 18.9965C15.564 18.8675 15.4397 18.695 15.34 18.5052C15.3276 18.4817 15.3155 18.4582 15.3036 18.4344C15.1868 18.1146 15.176 17.7916 15.274 17.4653C15.2906 17.3923 15.3293 17.3312 15.3774 17.2751C15.4978 17.1347 15.502 17.0221 15.3919 16.875C15.3481 16.8165 15.3008 16.761 15.2466 16.7117C15.1898 16.6602 15.1571 16.656 15.0935 16.6995C14.9584 16.7918 14.8298 16.8932 14.6934 16.9839C14.2792 17.2595 13.8356 17.4701 13.3498 17.583C13.0139 17.6611 12.6742 17.679 12.3294 17.6397C12.045 17.6073 11.7806 17.5127 11.53 17.3888C11.3418 17.2958 11.1644 17.175 11.009 17.0273C10.5707 16.6107 10.2016 16.1375 9.86531 15.6372C9.74206 15.4536 9.62227 15.2677 9.48242 15.0958C9.24774 14.8072 8.96365 14.5847 8.61555 14.449C8.26731 14.3131 7.9657 14.1016 7.67258 13.8755C7.35888 13.6335 7.06124 13.3728 6.7834 13.091C6.40528 12.7076 6.17153 12.2496 6.11828 11.7094C6.07777 11.2995 6.11018 10.8947 6.20673 10.4924C6.37208 9.80324 6.67264 9.17835 7.0724 8.59756C7.09485 8.56502 7.12075 8.53421 7.13336 8.49556C7.12101 8.48321 7.10932 8.46993 7.09591 8.45878C7.00812 8.38613 7.0048 8.38427 6.91356 8.44868C6.78008 8.54298 6.6296 8.59902 6.47647 8.64989C6.46014 8.65534 6.44181 8.65587 6.42441 8.65627C6.35814 8.65813 6.2916 8.65627 6.22559 8.66065C5.51717 8.70806 5.03439 8.18173 4.91354 7.66283C4.896 7.58779 4.88564 7.51116 4.87197 7.43532C4.8555 7.2284 4.89282 7.03078 4.97861 6.84245C5.08207 6.61507 5.23507 6.42741 5.43336 6.27547C5.59035 6.15514 5.76765 6.08874 5.96249 6.06536C5.99742 6.05434 6.03009 6.0384 6.06688 6.03123C6.1119 6.02233 6.14577 5.99497 6.15719 5.94703C6.16184 5.92764 6.16994 5.9101 6.18415 5.89563C6.23263 5.43331 6.48351 5.10712 6.8781 4.88519C7.0971 4.76194 7.33816 4.72595 7.58811 4.75225C7.61653 4.7553 7.64535 4.75371 7.67404 4.75437L7.67431 4.75411Z" fill="#1A1714"/>
<path d="M15.3205 18.4372C15.4068 18.5829 15.4884 18.7312 15.6077 18.8554C15.8013 19.0569 16.036 19.1767 16.31 19.2202C16.7015 19.2825 17.0517 19.186 17.3612 18.9389C17.3835 18.9211 17.4069 18.9047 17.4297 18.8875C17.4334 18.8904 17.4348 18.8936 17.4338 18.897C17.4329 18.9003 17.4318 18.902 17.4306 18.902C17.4267 18.9424 17.4591 18.975 17.4527 19.0169C17.4411 19.0937 17.3978 19.1454 17.3305 19.1776C17.1637 19.2571 16.9934 19.3271 16.8091 19.356C16.8032 19.3569 16.7983 19.363 16.7929 19.3666C16.6346 19.3772 16.4802 19.4136 16.324 19.438C16.1244 19.4691 15.9257 19.5058 15.7247 19.5266C15.4843 19.5516 15.2443 19.5812 15.0036 19.6038C14.813 19.6217 14.6218 19.6325 14.4307 19.6455C14.1492 19.6646 13.8675 19.6795 13.5855 19.689C13.502 19.6918 13.4182 19.6979 13.3346 19.6981C12.8594 19.6987 12.3843 19.7215 11.9091 19.7106C11.6334 19.7042 11.3577 19.697 11.0823 19.6832C10.8532 19.6716 10.6241 19.6633 10.3948 19.6572C10.1153 19.6497 9.83629 19.6323 9.55739 19.609C9.2899 19.5865 9.02428 19.5507 8.75732 19.5245C8.38957 19.4885 8.02699 19.4202 7.66693 19.3368C7.48511 19.2947 7.31246 19.2338 7.15136 19.1389C7.07193 19.0922 7.05294 19.0294 7.10235 18.9513C7.13024 18.9072 7.15906 18.8703 7.21391 18.847C7.51234 18.7208 7.8283 18.6639 8.14187 18.5937C8.33206 18.5512 8.52291 18.532 8.71575 18.5157C8.88628 18.5012 9.05562 18.4725 9.22602 18.4546C9.35511 18.4409 9.48487 18.4336 9.6145 18.4244C9.86485 18.4067 10.1151 18.3896 10.3654 18.373C10.4051 18.3704 10.445 18.3717 10.4848 18.3713C10.6722 18.3696 10.8595 18.363 11.0461 18.3446C11.105 18.307 11.1703 18.3292 11.2327 18.3253C11.3623 18.3265 11.4918 18.3256 11.6214 18.326C11.6522 18.326 11.6829 18.3255 11.7125 18.3156C11.954 18.3065 12.1954 18.3061 12.4369 18.3155C12.4689 18.3261 12.502 18.3259 12.5352 18.326C12.8226 18.3268 13.1099 18.3248 13.3973 18.3235C13.6427 18.3224 13.8868 18.3478 14.1316 18.3596C14.3169 18.3686 14.5021 18.3793 14.6871 18.3913C14.8984 18.4052 15.1111 18.4021 15.3208 18.4372H15.3205Z" fill="#AE2524"/>
<path d="M9.73344 13.4353C10.3328 13.2012 10.892 12.8982 11.3917 12.488C11.6637 12.2646 11.9256 12.0311 12.1662 11.7746C12.7613 11.1402 13.205 10.4133 13.4871 9.58907C13.5835 9.30737 13.6563 9.0197 13.6853 8.72379C13.7112 8.45817 13.7173 8.19108 13.6758 7.92533C13.6715 7.89717 13.6727 7.86782 13.6749 7.83926C13.6764 7.81948 13.6616 7.79145 13.691 7.78189C13.7161 7.77365 13.7393 7.78614 13.7571 7.8038C13.8073 7.85361 13.8563 7.90461 13.9061 7.95494C14.1842 8.23651 14.4629 8.51767 14.7407 8.79963C15.0745 9.13817 15.4097 9.47538 15.7404 9.81697C15.9742 10.0584 16.2139 10.2938 16.4524 10.5304C16.67 10.7464 16.8855 10.9659 17.0507 11.2276C17.215 11.4878 17.3226 11.7675 17.3663 12.0741C17.4278 12.5048 17.3616 12.9209 17.2368 13.3304C17.0733 13.8666 16.7914 14.3406 16.4573 14.7863C16.2054 15.1226 15.9329 15.4413 15.6346 15.7368C15.2495 16.1184 14.8354 16.4652 14.3732 16.7512C14.3131 16.7884 14.2505 16.8204 14.1801 16.834C14.1672 16.8437 14.1528 16.8481 14.1368 16.8482C13.9975 16.849 13.8581 16.855 13.7191 16.8465C13.4868 16.8323 13.2592 16.7891 13.0366 16.7204C12.6748 16.6089 12.3509 16.4272 12.0586 16.1885C11.742 15.9302 11.4778 15.6211 11.2147 15.311C10.9196 14.9632 10.6577 14.591 10.3971 14.2176C10.306 14.0869 10.2009 13.9668 10.0911 13.8518C9.98126 13.7368 9.87794 13.6155 9.76199 13.5062C9.74326 13.4886 9.71272 13.4708 9.73357 13.4352L9.73344 13.4353Z" fill="#A14822"/>
<path d="M6.4914 11.1097C6.50123 10.6908 6.63019 10.2995 6.77655 9.91382C6.93167 9.50502 7.15466 9.13208 7.40156 8.77283C7.42215 8.74281 7.4337 8.74215 7.4604 8.76619C7.89881 9.16144 8.33816 9.55576 8.77723 9.95034C8.8779 10.0408 8.98389 10.1222 9.11139 10.1732C9.30344 10.2501 9.49203 10.2427 9.67239 10.1442C9.89219 10.0243 10.0619 9.84847 10.1973 9.63983C10.3558 9.39545 10.3113 9.00299 10.1204 8.78611C9.7376 8.35141 9.35722 7.91459 8.97419 7.4803C8.84284 7.33141 8.84576 7.2929 9.01005 7.18439C9.44833 6.89512 9.90946 6.65301 10.4156 6.50399C10.7944 6.39256 11.1803 6.32284 11.5763 6.3494C12.0722 6.3826 12.5147 6.54955 12.8661 6.91452C13.1007 7.15809 13.2345 7.45546 13.3015 7.78377C13.335 7.94766 13.361 8.11315 13.368 8.28089C13.3711 8.35433 13.3581 8.42565 13.3407 8.49658C13.2464 8.80165 13.1203 9.09383 12.9736 9.37672C12.7702 9.76852 12.5285 10.1348 12.2389 10.4694C11.8267 10.9454 11.358 11.3559 10.8333 11.7035C10.2999 12.0566 9.72312 12.3063 9.09625 12.4354C8.85134 12.4859 8.60298 12.5165 8.35237 12.5084C7.87159 12.4929 7.42866 12.3577 7.04257 12.0646C6.84481 11.9144 6.70483 11.7122 6.56551 11.5085C6.47852 11.3814 6.48104 11.2494 6.4914 11.1103V11.1097Z" fill="#D17640"/>
<path d="M6.52036 6.09159C6.48982 5.58518 6.90114 5.17027 7.36518 5.09537C7.80811 5.02391 8.30642 5.36657 8.40231 5.85306C8.46155 6.15375 8.39846 6.43186 8.20336 6.67477C8.05395 6.86071 8.05528 6.90161 8.20283 7.08636C8.70805 7.71907 9.25497 8.31607 9.78396 8.92846C9.83018 8.98186 9.87401 9.03657 9.90814 9.09953C9.98238 9.23632 9.97335 9.36741 9.88012 9.48933C9.80096 9.59306 9.71078 9.68815 9.61144 9.77262C9.45499 9.90543 9.27888 9.91021 9.11764 9.7766C8.93556 9.62573 8.7625 9.4641 8.58586 9.30658C8.18809 8.95184 7.79828 8.5882 7.39015 8.24528C7.29546 8.16572 7.1993 8.08776 7.09464 8.02109C7.02253 7.97514 6.95506 7.97846 6.88653 8.02959C6.784 8.10609 6.68532 8.1883 6.56764 8.24222C6.26789 8.37982 5.9753 8.34768 5.69972 8.18498C5.35055 7.97899 5.1925 7.65081 5.24098 7.2614C5.30261 6.76681 5.67182 6.39826 6.19989 6.39427C6.26178 6.39374 6.32353 6.39733 6.38529 6.38856C6.48065 6.37501 6.51664 6.33942 6.52488 6.24366C6.52714 6.2175 6.52514 6.1908 6.52435 6.16437C6.52355 6.14007 6.52169 6.11576 6.52036 6.09146V6.09159Z" fill="#FBFBFB"/>
<path d="M17.7092 17.5331C17.5872 17.5487 17.5631 17.577 17.5446 17.6992C17.5273 17.8134 17.5426 17.9284 17.5243 18.0427C17.4851 18.2888 17.3571 18.4813 17.171 18.638C17.011 18.7728 16.8287 18.8615 16.6168 18.8829C16.1282 18.9322 15.6551 18.5665 15.5884 18.0793C15.5463 17.7713 15.6187 17.4926 15.832 17.2582C15.8409 17.2484 15.8498 17.2384 15.8582 17.2282C15.975 17.0844 15.9762 17.019 15.8582 16.8741C15.7466 16.7369 15.6322 16.6021 15.5192 16.4661C15.46 16.3948 15.4592 16.3738 15.5284 16.3122C15.8028 16.0677 16.0614 15.8078 16.3025 15.5303C16.3721 15.4504 16.4028 15.45 16.4848 15.5193C16.6165 15.6306 16.7463 15.744 16.8786 15.8547C17.0135 15.9675 17.0754 15.9723 17.2205 15.8718C17.339 15.7897 17.4595 15.714 17.6008 15.6773C17.8132 15.6222 18.017 15.6513 18.2129 15.7428C18.557 15.9035 18.7466 16.1714 18.7683 16.5536C18.7642 16.5853 18.7408 16.5948 18.7145 16.6038C18.5303 16.6676 18.3452 16.7191 18.1458 16.7068C18.0229 16.6992 17.9736 16.7525 17.9812 16.8745C17.9947 17.0939 17.9102 17.2894 17.8417 17.4893C17.8321 17.5173 17.8126 17.531 17.7811 17.5293C17.7572 17.5281 17.7327 17.5244 17.709 17.5331H17.7092Z" fill="#FDFDFD"/>
<path d="M9.7336 13.4355C9.73147 13.4561 9.74622 13.4676 9.75857 13.4799C9.91701 13.6369 10.0682 13.8009 10.2174 13.9665C10.3668 14.1323 10.4886 14.3189 10.6165 14.5008C10.8054 14.7693 11.0032 15.0306 11.2134 15.2828C11.4185 15.5288 11.6283 15.7703 11.8594 15.9918C12.2708 16.386 12.7496 16.659 13.3113 16.775C13.4946 16.8128 13.6803 16.8351 13.8682 16.8328C13.972 16.8314 14.076 16.8337 14.18 16.8343C14.1527 16.9063 14.0861 16.9284 14.0242 16.9561C13.8051 17.0542 13.5846 17.147 13.3513 17.209C13.064 17.2854 12.7713 17.3038 12.4796 17.2802C12.0552 17.2459 11.6735 17.0892 11.3417 16.817C10.9514 16.4965 10.6386 16.1071 10.3477 15.6987C10.1869 15.4726 10.0396 15.2369 9.87558 15.0132C9.60278 14.6414 9.2661 14.3407 8.84349 14.1465C8.62488 14.046 8.40494 13.9491 8.20559 13.8126C8.13547 13.7645 8.06787 13.7126 8 13.6488C8.59712 13.7171 9.17008 13.6135 9.73347 13.4357L9.7336 13.4355Z" fill="#5A2812"/>
<path d="M6.49147 11.1097C6.44937 11.3518 6.59175 11.5246 6.71911 11.6998C7.03507 12.1345 7.4776 12.358 7.99571 12.453C8.15017 12.4813 8.30569 12.4949 8.46201 12.4904C8.79311 12.4809 9.11771 12.4263 9.43592 12.3345C9.75042 12.2438 10.0532 12.1225 10.3437 11.9722C10.6773 11.7995 10.9881 11.5912 11.2831 11.3587C11.5678 11.1343 11.8354 10.8903 12.0808 10.624C12.3998 10.2776 12.6736 9.8978 12.8977 9.48209C13.0456 9.20757 13.1703 8.92335 13.2804 8.63209C13.298 8.58574 13.2957 8.53036 13.3407 8.49609C13.3469 8.85309 13.2705 9.19548 13.1491 9.52805C12.9556 10.0577 12.6846 10.5466 12.3549 11.0033C12.1527 11.2833 11.928 11.5439 11.6799 11.7839C11.2553 12.1947 10.78 12.5355 10.2587 12.8134C9.92082 12.9935 9.5706 13.1395 9.1966 13.2258C8.89445 13.2957 8.58818 13.329 8.27886 13.3113C7.91071 13.2904 7.5634 13.1978 7.25382 12.9859C6.90917 12.7502 6.69268 12.425 6.57368 12.0301C6.48815 11.7463 6.47168 11.4546 6.48072 11.1606C6.48125 11.143 6.47965 11.1248 6.49161 11.1097H6.49147Z" fill="#A14822"/>
<path d="M17.7091 17.5325C17.8191 17.5386 17.8357 17.4565 17.8619 17.3772C17.9066 17.2416 17.9572 17.1079 17.9627 16.9631C17.9641 16.9238 17.9611 16.8844 17.9611 16.8451C17.9611 16.7452 18.0159 16.6798 18.1131 16.6867C18.3274 16.7019 18.5276 16.651 18.7261 16.5806C18.7443 16.5742 18.7559 16.5647 18.7683 16.5527C18.7876 16.7878 18.7401 17.0055 18.5919 17.1933C18.4198 17.4115 18.1957 17.5317 17.9142 17.5346C17.8458 17.5353 17.7774 17.5332 17.709 17.5324L17.7091 17.5325Z" fill="#EAEAEA"/>
</g>
<defs>
<clipPath id="clip0_2355_1780">
<rect width="24" height="24" fill="white"/>
</clipPath>
</defs>
</svg>
