<svg width="24" height="24" viewBox="0 0 24 24" fill="none" xmlns="http://www.w3.org/2000/svg">
<circle cx="12" cy="12" r="12" fill="url(#paint0_radial_2313_2434)"/>
<g filter="url(#filter0_f_2313_2434)">
<path d="M9.20528 7.4344C9.23122 5.80032 9.51869 5.26211 9.65919 5.19727C9.94018 5.48907 10.5086 6.10509 10.5346 6.23478C10.5605 6.36447 10.9561 8.79614 11.1506 9.99577C12.0692 12.6652 13.6082 18.3607 12.4151 19.7873C10.9236 21.5705 8.62165 20.6951 7.03296 19.69C5.67122 19.1389 5.08762 19.4631 4.40678 18.231C3.62864 16.7007 4.62293 13.7027 5.21734 12.395C5.23895 12.2869 5.26921 11.7271 5.21734 10.3524C5.16546 8.97771 5.51994 7.83428 5.70367 7.4344C6.3305 8.39627 7.59065 10.3265 7.61659 10.3524C7.64252 10.3783 8.55683 9.80123 9.01074 9.50943C9.06478 9.49862 9.17934 9.06849 9.20528 7.4344Z" fill="#35280A"/>
</g>
<path d="M10.8941 5.42397C10.531 4.74959 10.0728 4.66745 9.88906 4.71068C9.18871 4.91819 9.48919 7.08831 9.72698 8.14743L8.55977 8.69861C8.3004 8.36358 7.77515 7.68055 7.74922 7.62868C7.71679 7.56383 6.80897 6.42905 5.99841 6.81812C5.34997 7.12937 5.72823 9.51998 5.99841 10.6764C5.89034 10.9033 5.64825 11.4415 5.5445 11.7787C5.41481 12.2002 4.96087 13.9186 4.83118 14.567C4.70149 15.2155 4.73391 16.3827 5.34994 17.3554C5.84276 18.1335 7.39254 18.3496 8.10583 18.3605C9.03527 18.9549 11.1859 20.0853 12.3532 19.8519C13.5204 19.6184 14.6984 17.8957 15.1415 17.0636L16.3735 14.0159L16.7626 12.1678C16.6977 11.9625 16.4384 11.2665 15.9196 10.1252C15.2712 8.69861 13.5852 7.79079 13.1961 7.53141C12.8849 7.32391 12.2883 7.38011 12.0289 7.43414C11.802 7.04508 11.2573 6.09835 10.8941 5.42397Z" fill="url(#paint1_radial_2313_2434)"/>
<g opacity="0.5" filter="url(#filter1_f_2313_2434)">
<path fill-rule="evenodd" clip-rule="evenodd" d="M9.24811 8.38383L10.2532 8.54594C10.5558 8.55675 11.0249 8.18929 10.4802 6.63302C10.1851 5.78999 9.95917 5.16896 9.80032 4.74414C9.17865 5.05742 9.46824 7.12967 9.69886 8.15687L9.24414 8.3716L9.24811 8.38383Z" fill="url(#paint2_radial_2313_2434)"/>
</g>
<g opacity="0.5" filter="url(#filter2_f_2313_2434)">
<path fill-rule="evenodd" clip-rule="evenodd" d="M13.0836 19.4866C12.8625 19.5333 12.623 19.5611 12.3673 19.5611C11.0267 19.5611 9.94804 18.5656 9.60231 18.2466C9.56341 18.2107 9.53379 18.1833 9.51412 18.1669C9.39389 18.0668 9.19936 18.0656 8.93052 18.0641C8.76437 18.0631 8.56983 18.062 8.34692 18.0373C7.76332 17.9724 6.85549 17.2591 6.49885 15.9622C6.22178 14.9547 7.04049 12.5188 7.41966 11.3907C7.52856 11.0666 7.6012 10.8505 7.6012 10.8071C7.6012 10.6515 6.64425 9.05622 6.23357 7.79175C5.82289 6.52728 6.23357 6.74005 6.23357 6.74005C6.13343 6.74683 6.03297 6.77162 5.93396 6.81914C5.28551 7.1304 5.66377 9.521 5.93396 10.6774C5.82588 10.9044 5.5838 11.4426 5.48005 11.7798C5.35036 12.2012 4.89642 13.9196 4.76673 14.5681C4.63704 15.2165 4.66946 16.3837 5.28548 17.3564C5.7783 18.1345 7.32809 18.3507 8.04138 18.3615C8.97082 18.9559 11.1215 20.0863 12.2887 19.8529C12.5561 19.7994 12.824 19.6678 13.0836 19.4866Z" fill="url(#paint3_radial_2313_2434)"/>
</g>
<path d="M13.5916 12.5743C14.6292 11.9258 16.1854 11.6987 16.5421 11.861C17.1905 12.0555 17.2554 13.093 17.1257 13.936C16.996 14.779 16.7042 16.2056 15.5694 16.854C14.4346 17.5025 10.4143 17.4376 8.82556 16.5298C7.23687 15.622 7.00991 13.8063 7.82047 12.9633C8.63103 12.1204 10.5115 13.7415 10.8682 13.8063C11.2248 13.8712 12.2947 13.3848 13.5916 12.5743Z" fill="url(#paint4_radial_2313_2434)"/>
<path d="M13.8676 13.1647C13.6861 13.8391 14.7863 14.1806 15.3591 14.2671C15.7481 14.3493 15.9103 13.9104 16.0724 13.5538C16.2345 13.1971 16.2993 12.4839 15.9103 12.3218C15.5212 12.1596 14.0946 12.3218 13.8676 13.1647Z" fill="url(#paint5_radial_2313_2434)"/>
<path d="M13.7186 11.7458C13.5629 11.8755 13.3511 11.8431 13.2646 11.8106C13.3619 12.4267 14.6264 12.1349 14.6264 11.8106C14.6264 11.5513 13.9888 11.5296 13.6861 11.5513C13.751 11.5621 13.8742 11.6161 13.7186 11.7458Z" fill="black"/>
<path d="M10.9949 12.4665C10.8393 12.5962 10.6275 12.5638 10.541 12.5313C10.6383 13.1474 11.9028 12.8556 11.9028 12.5313C11.9028 12.272 11.2651 12.2503 10.9625 12.272C11.0274 12.2828 11.1506 12.3368 10.9949 12.4665Z" fill="black"/>
<g filter="url(#filter3_f_2313_2434)">
<path d="M9.95784 9.76761C9.46502 9.92323 8.47722 9.37854 8.20704 9.02189C8.09896 9.35693 7.88281 10.0659 7.88281 10.2215C7.88281 10.3771 8.18542 11.4968 8.33672 12.0372L11.0602 11.6481L15.5345 10.4485L13.8485 8.56798C13.6108 8.57879 13.012 8.59392 12.5192 8.56798C12.0264 8.54204 11.7951 7.95196 11.7411 7.66016L11.5141 7.49805C11.4817 7.51966 11.4557 7.62125 11.6114 7.85469C11.8059 8.14649 11.6438 8.6004 11.5141 8.85978C11.3844 9.11916 10.5739 9.57307 9.95784 9.76761Z" fill="url(#paint6_radial_2313_2434)"/>
</g>
<circle cx="13.2318" cy="5.87735" r="0.551179" fill="url(#paint7_radial_2313_2434)"/>
<circle cx="15.1166" cy="6.33048" r="0.551179" fill="url(#paint8_radial_2313_2434)"/>
<circle cx="16.2191" cy="7.5629" r="0.551179" fill="url(#paint9_radial_2313_2434)"/>
<path d="M12.5552 4.09375C12.7108 4.69032 12.8746 5.034 13.1064 5.06642C13.5927 5.06642 13.6251 4.3207 13.6251 3.80195C13.6251 3.28319 13.8197 1.20816 12.8794 1.33785C11.9392 1.46754 12.3607 3.34803 12.5552 4.09375Z" fill="url(#paint10_radial_2313_2434)"/>
<path d="M17.4512 5.90923C16.8145 6.5459 16.8351 6.98997 16.9 7.10885C17.3863 7.4655 18.4887 6.62252 18.7481 6.42798C19.0074 6.23345 20.434 5.32563 19.7856 4.77445C19.1371 4.22327 18.2293 5.13109 17.4512 5.90923Z" fill="url(#paint11_radial_2313_2434)"/>
<path d="M15.279 4.32159C15.0715 5.3591 15.2574 5.59686 15.3763 5.58606C15.8302 5.74817 16.5435 4.32159 16.7704 3.80283C16.9974 3.28406 17.5161 2.18172 16.7056 2.08445C15.895 1.98718 15.5384 3.0247 15.279 4.32159Z" fill="url(#paint12_radial_2313_2434)"/>
<path d="M7.13656 7.72423C6.87718 7.5686 6.68265 7.72423 6.61781 7.82149C6.22874 8.17814 6.45569 10.318 6.90961 10.545C7.36352 10.7719 8.30377 9.89652 8.43345 9.53987C8.56314 9.18323 7.46079 7.91876 7.13656 7.72423Z" fill="url(#paint13_radial_2313_2434)"/>
<path d="M11.0226 6.23491C10.6594 5.58646 10.4606 5.55404 10.4065 5.61889C10.0823 5.81341 10.2444 6.6564 10.3741 7.46696C10.5038 8.27752 10.7956 8.21267 11.4116 8.01814C12.0276 7.8236 11.4765 7.04547 11.0226 6.23491Z" fill="url(#paint14_radial_2313_2434)"/>
<path d="M13.985 9.21803C13.3884 9.24397 13.2393 9.70436 13.2393 9.93132C13.3365 10.2555 13.9201 10.288 14.1795 10.288C14.4389 10.288 14.6983 10.1259 14.7631 9.96374C14.828 9.80163 14.7307 9.18561 13.985 9.21803Z" fill="url(#paint15_radial_2313_2434)"/>
<path d="M9.28316 11.0674C8.81628 11.6899 9.15347 12.1265 9.38043 12.267C9.67223 12.3967 10.1205 12.0052 10.2883 11.6834C10.4405 11.3915 10.4488 11.0781 10.4179 10.9701C10.3531 10.7432 9.86676 10.2893 9.28316 11.0674Z" fill="url(#paint16_radial_2313_2434)"/>
<defs>
<filter id="filter0_f_2313_2434" x="3.9914" y="5.06758" width="8.98887" height="15.8766" filterUnits="userSpaceOnUse" color-interpolation-filters="sRGB">
<feFlood flood-opacity="0" result="BackgroundImageFix"/>
<feBlend mode="normal" in="SourceGraphic" in2="BackgroundImageFix" result="shape"/>
<feGaussianBlur stdDeviation="0.0648446" result="effect1_foregroundBlur_2313_2434"/>
</filter>
<filter id="filter1_f_2313_2434" x="9.11445" y="4.61445" width="1.74571" height="4.06211" filterUnits="userSpaceOnUse" color-interpolation-filters="sRGB">
<feFlood flood-opacity="0" result="BackgroundImageFix"/>
<feBlend mode="normal" in="SourceGraphic" in2="BackgroundImageFix" result="shape"/>
<feGaussianBlur stdDeviation="0.0648446" result="effect1_foregroundBlur_2313_2434"/>
</filter>
<filter id="filter2_f_2313_2434" x="4.57539" y="6.59687" width="8.63828" height="13.4176" filterUnits="userSpaceOnUse" color-interpolation-filters="sRGB">
<feFlood flood-opacity="0" result="BackgroundImageFix"/>
<feBlend mode="normal" in="SourceGraphic" in2="BackgroundImageFix" result="shape"/>
<feGaussianBlur stdDeviation="0.0648446" result="effect1_foregroundBlur_2313_2434"/>
</filter>
<filter id="filter3_f_2313_2434" x="7.81797" y="7.4332" width="7.78106" height="4.66875" filterUnits="userSpaceOnUse" color-interpolation-filters="sRGB">
<feFlood flood-opacity="0" result="BackgroundImageFix"/>
<feBlend mode="normal" in="SourceGraphic" in2="BackgroundImageFix" result="shape"/>
<feGaussianBlur stdDeviation="0.0324223" result="effect1_foregroundBlur_2313_2434"/>
</filter>
<radialGradient id="paint0_radial_2313_2434" cx="0" cy="0" r="1" gradientUnits="userSpaceOnUse" gradientTransform="translate(12 12) rotate(90) scale(12)">
<stop offset="0.69792" stop-color="#FEE102"/>
<stop offset="0.875006" stop-color="#FFAD00"/>
</radialGradient>
<radialGradient id="paint1_radial_2313_2434" cx="0" cy="0" r="1" gradientUnits="userSpaceOnUse" gradientTransform="translate(13.2642 11.7463) rotate(148.935) scale(9.42485 12.1533)">
<stop offset="0.533967" stop-color="#EE901C"/>
<stop offset="1" stop-color="#8A5B34"/>
<stop offset="1" stop-color="#AA6C2C"/>
</radialGradient>
<radialGradient id="paint2_radial_2313_2434" cx="0" cy="0" r="1" gradientUnits="userSpaceOnUse" gradientTransform="translate(10.2105 7.39414) rotate(100.962) scale(1.17345 0.48671)">
<stop stop-color="#75481A"/>
<stop offset="1" stop-color="#956036"/>
</radialGradient>
<radialGradient id="paint3_radial_2313_2434" cx="0" cy="0" r="1" gradientUnits="userSpaceOnUse" gradientTransform="translate(10.152 15.8974) rotate(107.508) scale(4.18053 2.66481)">
<stop stop-color="#75481A"/>
<stop offset="1" stop-color="#956036"/>
</radialGradient>
<radialGradient id="paint4_radial_2313_2434" cx="0" cy="0" r="1" gradientUnits="userSpaceOnUse" gradientTransform="translate(14.4962 13.255) rotate(170.177) scale(9.31203 4.54694)">
<stop stop-color="white"/>
<stop offset="0.147292" stop-color="white"/>
<stop offset="0.684026" stop-color="#CDCDCD"/>
<stop offset="0.810638" stop-color="#6D6D6C"/>
<stop offset="0.966849" stop-color="#6D6D6C"/>
</radialGradient>
<radialGradient id="paint5_radial_2313_2434" cx="0" cy="0" r="1" gradientUnits="userSpaceOnUse" gradientTransform="translate(15.4039 12.9378) rotate(162.072) scale(1.15862 0.734346)">
<stop stop-color="#9B9B9B"/>
<stop offset="0.359474" stop-color="#5A5A5A"/>
<stop offset="1" stop-color="#151514"/>
</radialGradient>
<radialGradient id="paint6_radial_2313_2434" cx="0" cy="0" r="1" gradientUnits="userSpaceOnUse" gradientTransform="translate(10.3469 8.53556) rotate(71.565) scale(4.30619 9.44772)">
<stop offset="0.0781169" stop-color="white"/>
<stop offset="0.348955" stop-color="#EE901D"/>
</radialGradient>
<radialGradient id="paint7_radial_2313_2434" cx="0" cy="0" r="1" gradientUnits="userSpaceOnUse" gradientTransform="translate(13.3686 5.55759) rotate(73.844) scale(0.906749 0.867968)">
<stop stop-color="#F7D9DA"/>
<stop offset="0.161452" stop-color="#DD1C28"/>
<stop offset="0.654174" stop-color="#DD1C28"/>
<stop offset="0.895233" stop-color="#5F191B"/>
</radialGradient>
<radialGradient id="paint8_radial_2313_2434" cx="0" cy="0" r="1" gradientUnits="userSpaceOnUse" gradientTransform="translate(15.3063 6.23321) rotate(108.435) scale(0.820226 0.785146)">
<stop stop-color="#F7D9DA"/>
<stop offset="0.161452" stop-color="#DD1C28"/>
<stop offset="0.654174" stop-color="#DD1C28"/>
<stop offset="0.895233" stop-color="#5F191B"/>
</radialGradient>
<radialGradient id="paint9_radial_2313_2434" cx="0" cy="0" r="1" gradientUnits="userSpaceOnUse" gradientTransform="translate(16.5061 7.59532) rotate(152.447) scale(0.841107 0.805133)">
<stop stop-color="#F7D9DA"/>
<stop offset="0.161452" stop-color="#DD1C28"/>
<stop offset="0.654174" stop-color="#DD1C28"/>
<stop offset="0.895233" stop-color="#5F191B"/>
</radialGradient>
<radialGradient id="paint10_radial_2313_2434" cx="0" cy="0" r="1" gradientUnits="userSpaceOnUse" gradientTransform="translate(13.134 2.11599) rotate(85.643) scale(3.41421 0.840499)">
<stop stop-color="#F7D9DA"/>
<stop offset="0.161452" stop-color="#DD1C28"/>
<stop offset="0.707456" stop-color="#DD1C28"/>
<stop offset="0.895233" stop-color="#5F191B"/>
</radialGradient>
<radialGradient id="paint11_radial_2313_2434" cx="0" cy="0" r="1" gradientUnits="userSpaceOnUse" gradientTransform="translate(19.3917 5.42287) rotate(142.224) scale(3.28155 0.808735)">
<stop stop-color="#F7D9DA"/>
<stop offset="0.161452" stop-color="#DD1C28"/>
<stop offset="0.732581" stop-color="#DD1C28"/>
<stop offset="0.993937" stop-color="#5F191B"/>
</radialGradient>
<radialGradient id="paint12_radial_2313_2434" cx="0" cy="0" r="1" gradientUnits="userSpaceOnUse" gradientTransform="translate(16.7332 2.89501) rotate(111.705) scale(3.59434 0.871794)">
<stop stop-color="#F7D9DA"/>
<stop offset="0.161452" stop-color="#DD1C28"/>
<stop offset="0.732581" stop-color="#DD1C28"/>
<stop offset="0.895233" stop-color="#5F191B"/>
</radialGradient>
<radialGradient id="paint13_radial_2313_2434" cx="0" cy="0" r="1" gradientUnits="userSpaceOnUse" gradientTransform="translate(7.40219 8.50351) rotate(78.5116) scale(2.46835 1.19223)">
<stop stop-color="#F7D9DA"/>
<stop offset="0.161452" stop-color="#F8C1A3"/>
<stop offset="0.704696" stop-color="#F0B89B"/>
<stop offset="1" stop-color="#675145"/>
</radialGradient>
<radialGradient id="paint14_radial_2313_2434" cx="0" cy="0" r="1" gradientUnits="userSpaceOnUse" gradientTransform="translate(10.9301 6.33217) rotate(80.3948) scale(2.13741 0.870211)">
<stop stop-color="#F7D9DA"/>
<stop offset="0.161452" stop-color="#F8C1A3"/>
<stop offset="0.704696" stop-color="#F0B89B"/>
<stop offset="1" stop-color="#675145"/>
</radialGradient>
<radialGradient id="paint15_radial_2313_2434" cx="0" cy="0" r="1" gradientUnits="userSpaceOnUse" gradientTransform="translate(14.4964 9.57471) rotate(151.032) scale(1.39563 0.861459)">
<stop stop-color="white"/>
<stop offset="0.303846" stop-color="white"/>
<stop offset="0.689307" stop-color="#B6B6B5"/>
<stop offset="0.810399" stop-color="#6D6D6C"/>
</radialGradient>
<radialGradient id="paint16_radial_2313_2434" cx="0" cy="0" r="1" gradientUnits="userSpaceOnUse" gradientTransform="translate(10.216 10.9702) rotate(131.906) scale(1.699 0.957457)">
<stop stop-color="white"/>
<stop offset="0.297353" stop-color="white"/>
<stop offset="0.723362" stop-color="#B6B6B5"/>
<stop offset="0.847958" stop-color="#6D6D6C"/>
<stop offset="0.966849" stop-color="#6D6D6C"/>
</radialGradient>
</defs>
</svg>
