<svg width="24" height="24" viewBox="0 0 24 24" fill="none" xmlns="http://www.w3.org/2000/svg">
<g clip-path="url(#clip0_2355_1787)">
<path d="M20 0H4C1.79086 0 0 1.79086 0 4V20C0 22.2091 1.79086 24 4 24H20C22.2091 24 24 22.2091 24 20V4C24 1.79086 22.2091 0 20 0Z" fill="#39384C"/>
<path d="M11.9374 18.8091C8.68145 18.8091 5.4249 18.8091 2.16894 18.8091C1.90332 18.8087 1.77051 18.6723 1.77051 18.4C1.77051 14.1306 1.77051 9.8611 1.77051 5.59164C1.77051 5.13358 1.77051 5.13477 2.21439 5.13477C8.73635 5.13831 15.2583 5.14303 21.7802 5.14126C22.0565 5.14126 22.1498 5.21918 22.1492 5.509C22.1403 9.80797 22.1433 14.1069 22.1433 18.4053C22.1433 18.7973 22.1421 18.7996 21.7354 18.7996C18.4694 18.8002 15.2034 18.7996 11.9374 18.7996V18.8079V18.8091ZM20.7266 6.5892C20.5714 6.57917 20.4468 6.56382 20.3223 6.56382C19.1518 6.56618 17.9812 6.57386 16.8107 6.57504C12.4043 6.57858 7.99732 6.57976 3.59092 6.58212C3.18835 6.58212 3.18776 6.5833 3.18776 6.98587C3.18776 10.3203 3.18776 13.6548 3.18717 16.9893C3.18717 17.2565 3.32273 17.3903 3.59387 17.3907C9.18082 17.3936 14.7678 17.3948 20.3547 17.4072C20.657 17.4078 20.7343 17.3234 20.7331 17.027C20.7231 13.6731 20.7266 10.3186 20.7266 6.96462C20.7266 6.84833 20.7266 6.73205 20.7266 6.58979V6.5892Z" fill="#52F1BB"/>
<path d="M8.35144 9.90249C8.43998 9.80392 8.51141 9.726 8.58165 9.64631C9.5255 8.56788 11.1653 8.67236 11.8872 9.91017C12.3004 10.6185 12.5825 11.4036 12.9267 12.1532C13.0825 12.492 13.2253 12.8391 13.4101 13.162C13.7029 13.6738 14.2176 13.6814 14.4443 13.1425C14.6863 12.5688 14.8421 11.9543 14.9909 11.3463C15.4401 9.51232 17.0179 8.13639 18.8772 7.98528C19.3005 7.95104 19.3129 7.96049 19.3111 8.37545C19.3099 8.67 19.4049 9.03302 19.2674 9.23843C19.1499 9.41434 18.7586 9.3984 18.4953 9.48694C17.4594 9.83579 16.7316 10.5016 16.5421 11.6054C16.3562 12.6886 16.8626 13.5114 17.7457 14.071C18.1388 14.3201 18.6317 14.421 19.0891 14.5539C19.255 14.6017 19.3199 14.6507 19.314 14.8201C19.3046 15.0951 19.2987 15.3714 19.3158 15.6459C19.33 15.8731 19.2273 15.9357 19.0236 15.9398C18.2663 15.9546 17.5828 15.7049 16.9754 15.2899C16.4949 14.9612 16.0734 14.5462 15.5988 14.1472C15.603 14.1436 15.5475 14.179 15.5068 14.2274C14.462 15.4416 12.6103 15.2539 11.8937 13.819C11.4952 13.0215 11.2125 12.1662 10.8749 11.338C10.8117 11.1834 10.7474 11.0281 10.6641 10.8841C10.3838 10.3977 9.97293 10.3458 9.58807 10.7631C9.19908 11.1846 9.04502 11.7182 8.97654 12.2701C8.72332 14.3148 7.00798 15.6187 5.52107 15.8867C5.23479 15.9386 4.94201 15.9575 4.60378 15.9977C4.60378 15.5432 4.59316 15.1335 4.615 14.725C4.61795 14.6648 4.77083 14.5722 4.86114 14.5633C5.85458 14.4647 6.60541 13.9801 7.1095 13.1319C7.80012 11.9696 7.36155 10.4916 6.09777 9.80215C5.70996 9.59083 5.25604 9.49166 4.82278 9.37774C4.64687 9.3317 4.56955 9.28388 4.57722 9.09736C4.58903 8.81285 4.59257 8.52656 4.57722 8.24205C4.56247 7.98056 4.70472 7.95576 4.90896 7.96698C6.07475 8.03132 7.04989 8.50708 7.86151 9.33229C8.02561 9.49933 8.16787 9.68822 8.35144 9.90308V9.90249Z" fill="#52F1BB"/>
</g>
<defs>
<clipPath id="clip0_2355_1787">
<rect width="24" height="24" fill="white"/>
</clipPath>
</defs>
</svg>
