<svg width="25" height="24" viewBox="0 0 25 24" fill="none" xmlns="http://www.w3.org/2000/svg">
<g clip-path="url(#clip0_720_13793)">
<path d="M13.6986 0C13.8857 0.154567 14.1197 0.0863165 14.3293 0.120442C15.2517 0.260083 16.1557 0.501639 17.0248 0.84068C18.5576 1.44931 19.9182 2.33014 21.0797 3.50043C22.8811 5.31428 24.0176 7.47902 24.44 10.0079C24.6956 11.512 24.6597 13.0512 24.334 14.5417C23.7972 17.0039 22.5948 19.0868 20.7525 20.7983C19.2249 22.2179 17.4359 23.1625 15.4097 23.6511C14.8589 23.7836 14.2948 23.849 13.7343 23.9346C13.2879 24.0024 12.8455 24.008 12.4022 23.9964C10.9591 23.9588 9.5339 23.6666 8.19241 23.1332C7.00414 22.6651 5.9006 22.0054 4.92563 21.1805C3.46586 19.9581 2.31732 18.4065 1.57455 16.6535C1.29527 15.9904 1.0739 15.3044 0.912927 14.6031C0.80665 14.1708 0.735888 13.7306 0.70135 13.2867C0.69854 13.243 0.705772 13.1876 0.636719 13.1835V10.8197C0.705772 10.8128 0.694924 10.7574 0.698135 10.7141C0.734638 10.2778 0.802657 9.84464 0.901675 9.41813C1.04477 8.77094 1.24125 8.13673 1.48904 7.52198C2.26512 5.58018 3.53786 3.87645 5.17976 2.58147C6.29184 1.69823 7.53921 1.05587 8.88415 0.605423C9.53855 0.387022 10.2122 0.244091 10.8955 0.136898C11.1613 0.0967512 11.4463 0.142524 11.6953 0.00120559L13.6986 0ZM12.6548 23.4861C18.9908 23.5182 24.1244 18.3103 24.1268 12.0369C24.1296 5.71335 18.9992 0.564472 12.6777 0.554837C6.35609 0.545202 1.19355 5.69367 1.18833 12.0116C1.18311 18.3296 6.33561 23.5058 12.6536 23.4857L12.6548 23.4861Z" fill="#F4BA1A"/>
<path d="M12.653 23.486C6.335 23.5061 1.18091 18.3267 1.18653 12.0096C1.19215 5.69239 6.35908 0.541111 12.6758 0.552754C18.9926 0.564397 24.1278 5.71328 24.125 12.0349C24.1226 18.3103 18.989 23.5182 12.653 23.486ZM11.4249 20.1056C12.0925 20.1056 12.6196 20.1089 13.1472 20.1056C13.4874 20.1084 13.8269 20.0753 14.1601 20.0069C14.9068 19.8395 15.601 19.5472 16.2237 19.0935C17.1751 18.4002 17.8147 17.4876 18.1941 16.3768C18.4277 15.6943 18.4382 14.9909 18.433 14.2815C18.429 13.7873 18.3181 13.318 18.1732 12.8514C18.1559 12.7956 18.1523 12.6981 18.0728 12.6973C18.009 12.6973 18.0118 12.7888 17.9773 12.835C17.9576 12.8619 17.9371 12.8884 17.9187 12.9153C17.4771 13.5576 16.9098 14.0659 16.253 14.4774C16.1289 14.5553 16.0675 14.638 16.0659 14.7958C16.06 15.0283 16.0259 15.2592 15.9643 15.4835C15.6315 16.7682 14.5017 17.6888 13.1745 17.7141C12.1668 17.7333 11.1583 17.7161 10.1502 17.7217C9.99723 17.7217 9.95869 17.6659 9.9595 17.521C9.96512 16.553 9.94866 15.5847 9.96953 14.6171C9.98639 13.8278 10.3144 13.1546 10.8584 12.5921C11.2197 12.2183 11.6682 11.9899 12.1555 11.802C12.653 11.6089 13.1536 11.6298 13.6474 11.6816C13.8891 11.712 14.1341 11.6598 14.3424 11.5334C14.9333 11.1829 15.2902 10.6502 15.4564 9.98453C15.4878 9.85968 15.4621 9.78139 15.3276 9.71716C14.7956 9.46807 14.2236 9.31568 13.6382 9.26711C12.8857 9.19111 12.1257 9.27777 11.4096 9.52123C10.0542 9.99256 8.98792 10.8152 8.2729 12.0854C7.88749 12.7699 7.65264 13.483 7.59924 14.2654C7.55227 14.9528 7.57755 15.6397 7.57715 16.3266C7.57715 16.9288 7.53701 17.5278 7.60526 18.1268C7.71125 19.0799 8.63021 19.9848 9.58451 20.0763C10.2437 20.1426 10.9058 20.0848 11.4249 20.1056V20.1056ZM11.6449 3.95843C11.0828 3.95843 10.5232 3.95843 9.9623 3.95843C9.80894 3.95843 9.65155 3.95001 9.50341 3.98012C8.35038 4.21538 7.56752 5.17369 7.57274 6.35803C7.57675 7.32585 7.57675 8.29394 7.57274 9.26229C7.56912 9.95643 7.7253 10.6197 7.93406 11.2753C7.97863 11.417 8.03523 11.3957 8.10308 11.301C8.17093 11.2062 8.22593 11.0942 8.30382 11.0051C8.75106 10.49 9.23364 10.013 9.82139 9.65694C9.9334 9.58909 9.96832 9.5112 9.96751 9.38233C9.96109 8.44087 9.96753 7.49942 9.9603 6.55797C9.9603 6.38854 10.0004 6.32392 10.1831 6.32552C11.178 6.33355 12.1728 6.32793 13.1676 6.33154C13.5488 6.33397 13.9253 6.41601 14.2729 6.57242C15.9189 7.30431 16.4846 9.19243 15.7953 10.7172C15.181 12.077 13.8096 12.6154 12.4486 12.336C12.3842 12.3209 12.3168 12.3255 12.2551 12.3492C11.4738 12.6387 10.9579 13.1867 10.6592 13.9551C10.593 14.1257 10.6191 14.2124 10.7962 14.2931C11.7963 14.7527 12.9107 14.9036 13.9971 14.7267C15.3838 14.5103 16.5228 13.8395 17.3594 12.7162C18.6068 11.0416 18.7758 9.1832 18.0399 7.27741C17.2667 5.27407 15.289 3.93395 13.1086 3.95724C12.6196 3.96326 12.1323 3.95803 11.6449 3.95843V3.95843Z" fill="#21203F"/>
<path d="M11.4254 20.1058C10.9034 20.085 10.2442 20.1412 9.58499 20.0781C8.63069 19.9866 7.71173 19.0817 7.60574 18.1286C7.53909 17.5296 7.57723 16.9286 7.57763 16.3284C7.57763 15.6415 7.55275 14.9545 7.59972 14.2672C7.65312 13.4847 7.88797 12.7717 8.27338 12.0872C8.98841 10.817 10.0547 9.99435 11.4101 9.52303C12.1261 9.27957 12.8862 9.19289 13.6387 9.26889C14.2241 9.31746 14.7961 9.46986 15.3281 9.71895C15.4626 9.78319 15.4887 9.86147 15.4569 9.98633C15.2907 10.6504 14.935 11.1847 14.3429 11.5352C14.1346 11.6616 13.8896 11.7138 13.6479 11.6833C13.1541 11.6308 12.6535 11.6099 12.156 11.8038C11.6686 11.9929 11.2202 12.2201 10.8589 12.5939C10.3149 13.1559 9.98688 13.8296 9.97002 14.6189C9.94914 15.5865 9.9656 16.5548 9.95998 17.5228C9.95998 17.6665 9.99772 17.7235 10.1507 17.7235C11.1588 17.7179 12.1673 17.7351 13.175 17.7159C14.5022 17.6906 15.632 16.7704 15.9648 15.4853C16.0264 15.261 16.0605 15.0301 16.0664 14.7976C16.0664 14.6414 16.1294 14.5567 16.2535 14.4792C16.9103 14.0677 17.4776 13.5586 17.9192 12.9171C17.9381 12.8894 17.9593 12.8629 17.9778 12.8368C18.0123 12.7906 18.0095 12.6983 18.0733 12.6991C18.1536 12.6991 18.1565 12.7974 18.1737 12.8532C18.3186 13.3189 18.4295 13.7891 18.4335 14.2833C18.4387 14.9927 18.4282 15.6949 18.1946 16.3786C17.8152 17.4882 17.1757 18.402 16.2242 19.0953C15.6015 19.549 14.9073 19.8413 14.1606 20.0087C13.8274 20.0771 13.4878 20.1102 13.1477 20.1074C12.6201 20.109 12.093 20.1058 11.4254 20.1058Z" fill="#F4BA1A"/>
<path d="M11.6451 3.95733C12.1325 3.95733 12.6198 3.96175 13.1072 3.95733C15.2876 3.93404 17.2653 5.27416 18.0385 7.2775C18.7744 9.18409 18.6054 11.0417 17.358 12.7162C16.5213 13.8404 15.3824 14.5104 13.9957 14.7268C12.9095 14.9044 11.7951 14.7541 10.7947 14.2952C10.6169 14.2149 10.5916 14.1278 10.6578 13.9572C10.9565 13.1876 11.4724 12.6396 12.2537 12.3513C12.3154 12.3276 12.3828 12.323 12.4472 12.3381C13.8082 12.6191 15.1796 12.0791 15.7939 10.7193C16.4832 9.19373 15.9183 7.30681 14.2715 6.57452C13.9239 6.41811 13.5474 6.33607 13.1662 6.33364C12.1714 6.33003 11.1765 6.33363 10.1817 6.32761C10.0002 6.32761 9.95768 6.39065 9.95889 6.56007C9.96571 7.50152 9.95888 8.44297 9.9661 9.38443C9.9661 9.5133 9.93199 9.59118 9.81998 9.65903C9.23223 10.0151 8.74965 10.4921 8.30241 11.0072C8.22492 11.0963 8.17233 11.2079 8.10167 11.3031C8.03101 11.3982 7.97721 11.4191 7.93265 11.2774C7.72469 10.6218 7.56852 9.95853 7.57133 9.26439C7.57614 8.29657 7.57614 7.32849 7.57133 6.36013C7.56611 5.17579 8.34897 4.21748 9.502 3.98222C9.65014 3.95211 9.80753 3.96094 9.96089 3.96054C10.5234 3.95612 11.0842 3.95773 11.6451 3.95733Z" fill="#F4BA1A"/>
</g>
<defs>
<clipPath id="clip0_720_13793">
<rect width="23.9715" height="24" fill="white" transform="translate(0.636719)"/>
</clipPath>
</defs>
</svg>
