<svg width="24" height="24" viewBox="0 0 24 24" fill="none" xmlns="http://www.w3.org/2000/svg">
<g clip-path="url(#clip0_1750_1768)">
<path d="M23.6412 14.9029C22.0385 21.3315 15.5274 25.2438 9.09797 23.6407C2.67126 22.038 -1.24108 15.5265 0.362312 9.09836C1.96429 2.66903 8.47546 -1.24361 14.9029 0.359082C21.3318 1.96177 25.2439 8.47405 23.6411 14.903L23.6412 14.9029H23.6412Z" fill="url(#paint0_linear_1750_1768)"/>
<path fill-rule="evenodd" clip-rule="evenodd" d="M17.293 10.2913C17.5318 8.69438 16.316 7.83596 14.6535 7.26331L15.1928 5.10014L13.876 4.77201L13.351 6.87825C13.0048 6.79192 12.6493 6.71054 12.296 6.62989L12.8248 4.50977L11.5088 4.18164L10.9692 6.34415C10.6827 6.27892 10.4014 6.21444 10.1284 6.14653L10.1299 6.13972L8.31404 5.68626L7.96375 7.0927C7.96375 7.0927 8.94069 7.31664 8.92011 7.33041C9.45334 7.4635 9.54976 7.81648 9.53377 8.09629L8.91941 10.5607C8.95612 10.57 9.00376 10.5835 9.05631 10.6046L9.01806 10.595C8.98559 10.5869 8.95181 10.5785 8.91711 10.5702L8.05601 14.0224C7.99086 14.1844 7.82543 14.4276 7.45262 14.3352C7.46582 14.3544 6.49555 14.0964 6.49555 14.0964L5.8418 15.6037L7.5554 16.0309C7.74291 16.0779 7.92824 16.1262 8.1117 16.1741L8.11209 16.1741L8.11269 16.1743C8.24074 16.2077 8.36787 16.2408 8.49422 16.2731L7.94931 18.4611L9.26459 18.7892L9.80423 16.6245C10.1635 16.722 10.5122 16.812 10.8536 16.8968L10.3158 19.0514L11.6327 19.3795L12.1775 17.1956C14.4229 17.6205 16.1113 17.4492 16.822 15.4182C17.3946 13.7831 16.7935 12.8399 15.6122 12.2248C16.4726 12.0264 17.1207 11.4605 17.2935 10.2915L17.293 10.2912L17.293 10.2913ZM14.2844 14.5101C13.911 16.0103 11.5627 15.3901 10.4883 15.1063H10.4883C10.3917 15.0808 10.3053 15.058 10.2317 15.0397L10.9548 12.141C11.0445 12.1634 11.1542 12.188 11.2785 12.2159H11.2786C12.3899 12.4653 14.6669 12.9763 14.2844 14.5101H14.2844ZM11.5015 10.8706C12.3972 11.1096 14.3513 11.6311 14.6916 10.2676H14.6917C15.0392 8.87308 13.1402 8.45265 12.2127 8.24731C12.1084 8.22419 12.0163 8.20383 11.9412 8.18509L11.2856 10.8141C11.3475 10.8295 11.4201 10.8489 11.5015 10.8706Z" fill="white"/>
</g>
<defs>
<linearGradient id="paint0_linear_1750_1768" x1="24" y1="24" x2="7.28341e-07" y2="-7.28341e-07" gradientUnits="userSpaceOnUse">
<stop stop-color="#F7931A"/>
<stop offset="1" stop-color="#FFC176"/>
</linearGradient>
<clipPath id="clip0_1750_1768">
<rect width="24" height="24" fill="white"/>
</clipPath>
</defs>
</svg>
