<svg width="24" height="24" viewBox="0 0 24 24" fill="none" xmlns="http://www.w3.org/2000/svg">
<g clip-path="url(#clip0_2361_1827)">
<path d="M12 24C18.6274 24 24 18.6274 24 12C24 5.37258 18.6274 0 12 0C5.37258 0 0 5.37258 0 12C0 18.6274 5.37258 24 12 24Z" fill="black"/>
<path d="M20.8072 10.1546C20.6885 9.57848 20.5132 9.01549 20.2837 8.47388C20.0575 7.94042 19.7807 7.42983 19.4572 6.94913C19.1363 6.47422 18.7704 6.03141 18.3644 5.62688C17.9596 5.22086 17.5166 4.85491 17.0414 4.53413C16.56 4.21222 16.0498 3.93554 15.5174 3.70763C14.4164 3.24065 13.2326 3 12.0367 3C10.8407 3 9.65695 3.24065 8.55591 3.70763C7.49125 4.1567 6.52424 4.80885 5.70891 5.62763C5.30297 6.03192 4.93702 6.47448 4.61616 6.94913C4.29421 7.43079 4.01753 7.94122 3.78966 8.47388C3.32268 9.57492 3.08203 10.7587 3.08203 11.9546C3.08203 13.1506 3.32268 14.3343 3.78966 15.4354C4.01016 15.9679 4.29516 16.4726 4.61616 16.9594C4.937 17.4345 5.30295 17.8776 5.70891 18.2824C6.11368 18.6884 6.55674 19.0544 7.03191 19.3751C7.50891 19.6961 8.02341 19.9721 8.55591 20.2016C9.65695 20.6686 10.8407 20.9093 12.0367 20.9093C13.2326 20.9093 14.4164 20.6686 15.5174 20.2016C16.0499 19.9811 16.5547 19.6961 17.0414 19.3751C17.5166 19.0544 17.9596 18.6884 18.3644 18.2824C18.7704 17.8776 19.1364 17.4346 19.4572 16.9594C19.7782 16.4824 20.0542 15.9679 20.2837 15.4354C20.9902 13.7691 21.1728 11.9272 20.8072 10.1546ZM12.0449 19.7884C7.71966 19.7884 4.22091 16.2799 4.22091 11.9636C4.22091 7.64738 7.72941 4.13888 12.0449 4.13888C16.3612 4.13888 19.8697 7.64738 19.8697 11.9636C19.8697 16.2799 16.3619 19.7884 12.0449 19.7884Z" fill="white"/>
<path d="M12.1833 19.1079H12.3948C12.4316 19.1079 12.4676 19.1079 12.5043 19.0981H12.5141C12.5508 19.0981 12.5778 19.0981 12.6146 19.0891H12.6423C12.6701 19.0891 12.6978 19.0891 12.7248 19.0801H12.7526C12.7803 19.0801 12.8081 19.0711 12.8448 19.0711H12.8628C12.8996 19.0711 12.9363 19.0614 12.9731 19.0614C13.0098 19.0614 13.0376 19.0524 13.0743 19.0434H13.0923C13.1201 19.0434 13.1478 19.0344 13.1748 19.0344H13.1936C13.2303 19.0246 13.2581 19.0246 13.2948 19.0156C13.3676 19.0066 13.4411 18.9879 13.5056 18.9699H13.5243C13.5513 18.9609 13.5881 18.9609 13.6158 18.9511H13.6248C13.6983 18.9331 13.7628 18.9144 13.8363 18.8964C13.1484 18.9182 12.4606 18.8534 11.7888 18.7036C10.7778 18.4831 9.81408 18.0886 8.99658 17.4084C8.35209 16.872 7.83487 16.1991 7.48232 15.4384C7.12977 14.6776 6.9507 13.848 6.95808 13.0096C6.96469 11.7588 7.40977 10.5499 8.21583 9.59336C9.26283 8.35361 10.7508 7.70111 12.2748 7.66436H12.4863V6.44336H12.2478C11.7842 6.45185 11.3226 6.50713 10.8701 6.60836C10.4147 6.71133 9.97148 6.86217 9.54783 7.05836C9.11583 7.26086 8.71158 7.50836 8.33508 7.79336C7.94602 8.0891 7.59175 8.42802 7.27908 8.80361C6.98467 9.15121 6.72916 9.52996 6.51708 9.93311C6.30727 10.3218 6.13788 10.7309 6.01158 11.1541C5.88768 11.5708 5.80479 11.9986 5.76408 12.4314L5.73633 12.8349V13.0734C5.74533 13.5421 5.80083 14.0011 5.90133 14.4511C6.00258 14.9109 6.15858 15.3511 6.35133 15.7741C6.58158 16.2789 6.99483 17.0229 7.60983 17.5831C8.86556 18.573 10.4186 19.1103 12.0176 19.1079H12.1833Z" fill="white"/>
<path d="M14.1856 17.9324C13.7326 17.9163 13.2814 17.8671 12.8356 17.7854C10.9441 17.4457 9.31808 16.2884 8.72183 14.5439C7.99583 12.4222 9.10733 10.1264 11.2193 9.42894C11.6218 9.29406 12.0436 9.22566 12.4681 9.22644C13.0103 9.22644 13.5518 9.33669 14.0483 9.53844L14.5621 8.44569C14.4076 8.38375 14.2515 8.32573 14.0941 8.27169C13.5679 8.10655 13.0196 8.02283 12.4681 8.02344C11.9156 8.02448 11.3668 8.11437 10.8428 8.28969C10.1741 8.51026 9.55821 8.86672 9.03383 9.33669C8.78094 9.56197 8.55037 9.81112 8.34533 10.0807C8.14264 10.3472 7.96726 10.6334 7.82183 10.9349C7.5257 11.5412 7.35092 12.1996 7.30733 12.8729C7.26158 13.5704 7.35308 14.2679 7.58258 14.9294C7.81642 15.6099 8.19223 16.2329 8.68508 16.7572C9.13508 17.2439 9.65858 17.6114 10.2916 17.9512C10.9531 18.2999 11.7706 18.4837 12.6241 18.6037C13.1753 18.6764 13.9103 18.6952 14.3416 18.6952C14.7181 18.5572 14.8741 18.4927 15.0766 18.4102C15.2513 18.3277 15.4253 18.2452 15.6001 18.1439C15.7748 18.0427 15.8026 18.0239 16.0958 17.8319C16.122 17.8157 16.1466 17.7971 16.1693 17.7764C15.1591 17.9512 14.9018 17.9414 14.1856 17.9324Z" fill="white"/>
<path d="M16.4448 16.5655C16.1598 16.5835 15.7556 16.6105 15.2966 16.6105C14.4791 16.6105 13.4778 16.5377 12.6243 16.2527C11.3013 15.8125 10.0526 14.683 10.0526 13.2865C10.0523 12.9559 10.1172 12.6286 10.2435 12.3232C10.3699 12.0178 10.5552 11.7403 10.7889 11.5065C11.0226 11.2728 11.3001 11.0875 11.6056 10.9612C11.911 10.8348 12.2383 10.7699 12.5688 10.7702C13.5146 10.7702 14.3321 11.2937 14.7641 12.0557L15.8568 11.5142C15.6855 11.1916 15.4654 10.8974 15.2043 10.642C14.8584 10.2954 14.4475 10.0205 13.9952 9.83295C13.543 9.64538 13.0581 9.54883 12.5685 9.54883C12.0788 9.54883 11.594 9.64538 11.1417 9.83295C10.6894 10.0205 10.2785 10.2954 9.93259 10.642C9.58618 10.9879 9.31136 11.3987 9.12386 11.8509C8.93635 12.3032 8.83984 12.7879 8.83984 13.2775C8.84229 13.7905 8.95215 14.2974 9.16234 14.7655C9.35434 15.1877 9.62134 15.583 9.96109 15.9505C10.5581 16.5925 11.3748 17.107 12.2478 17.401C13.0833 17.6762 14.3141 17.7775 15.5081 17.695C15.8381 17.6672 16.0863 17.6395 16.5086 17.548C16.9161 17.2264 17.2859 16.8598 17.6111 16.4552C17.3261 16.483 16.8026 16.5377 16.4448 16.5655Z" fill="white"/>
</g>
<defs>
<clipPath id="clip0_2361_1827">
<rect width="24" height="24" fill="white"/>
</clipPath>
</defs>
</svg>
