<svg width="24" height="24" viewBox="0 0 24 24" fill="none" xmlns="http://www.w3.org/2000/svg">
<path d="M10.793 0.499938L0.499938 10.7931C-0.166646 11.4596 -0.166646 12.5404 0.499938 13.2069L10.793 23.5001C11.4596 24.1666 12.5404 24.1666 13.207 23.5001L23.5001 13.2069C24.1667 12.5404 24.1666 11.4596 23.5001 10.7931L13.207 0.499938C12.5404 -0.166646 11.4596 -0.166646 10.793 0.499938Z" fill="#F0B80B"/>
<path fill-rule="evenodd" clip-rule="evenodd" d="M12.6163 6.83782C12.4194 6.82552 12.2356 6.81404 12.0707 6.80078L12.0701 6.80081C10.63 6.87128 9.41656 6.93067 8.25962 7.31892C7.68797 7.51309 7.12759 7.76041 6.68504 8.16727C6.00308 8.79544 5.66586 9.60051 5.60565 10.5168C5.57433 10.9757 5.65332 11.0523 6.11463 11.0226C6.1299 11.0216 6.14494 11.0195 6.15995 11.0174C6.18069 11.0144 6.20136 11.0115 6.22246 11.0115C6.39028 10.9897 6.55796 10.9668 6.72567 10.944C7.14686 10.8866 7.56812 10.8293 7.99136 10.7877C8.10701 10.7843 8.21964 10.7502 8.31735 10.6891C8.41506 10.628 8.49431 10.542 8.54673 10.4402C8.76859 10.0568 9.45811 10.0012 9.67499 10.3796C9.82935 10.6492 10.015 10.6471 10.2367 10.6447C10.2581 10.6445 10.2797 10.6442 10.3018 10.6442C10.5749 10.6487 10.848 10.6529 11.1212 10.657C12.2182 10.6739 13.3151 10.6907 14.4112 10.7234L14.4446 10.7244C14.7263 10.7329 14.9712 10.7404 15.2173 10.5429C15.473 10.3375 15.8052 10.4353 16.0058 10.7085C16.0672 10.7914 16.1558 10.8509 16.2566 10.8767C16.8746 10.9917 17.4901 11.0956 18.1169 11.1945C18.3275 11.2292 18.4278 11.1179 18.3927 10.9138C18.3225 10.5032 18.2486 10.0914 18.1608 9.68461C18.0041 8.95993 17.5566 8.4183 16.9749 7.99038C16.1562 7.39312 15.201 7.12104 14.2169 6.98132C13.6612 6.90315 13.0992 6.86801 12.6163 6.83782ZM10.9361 7.6172C10.8705 7.655 10.8011 7.69499 10.7343 7.74186C10.6996 7.69302 10.6624 7.65088 10.6293 7.61342H10.6293V7.61339H10.6292C10.5702 7.54654 10.5243 7.49466 10.5299 7.4463C10.555 7.19898 10.7694 7.19898 10.9587 7.19898C11.0853 7.20019 11.3035 7.22248 11.2358 7.37086C11.1901 7.47078 11.0712 7.53928 10.9361 7.6172ZM13.0422 7.11114L12.6398 7.35853C12.7878 7.45223 12.9487 7.52466 13.1175 7.57369C13.1728 7.58222 13.2413 7.51474 13.3098 7.44735C13.3405 7.41706 13.3713 7.38681 13.4008 7.36347L13.0422 7.11114ZM8.91527 7.74928L8.40379 8.15366L8.40129 8.14748C8.36469 8.09772 8.33031 8.05704 8.30065 8.02196C8.24699 7.95851 8.20876 7.91329 8.20069 7.8655C8.17562 7.73567 8.464 7.565 8.68586 7.59097C8.74189 7.59693 8.79321 7.64326 8.84465 7.68969C8.868 7.71078 8.89141 7.7319 8.91527 7.74928ZM11.6858 8.01883C11.7309 8.01261 11.7683 8.00991 11.7991 8.00766C11.854 8.0037 11.8886 8.00119 11.9102 7.98299C12.0076 7.89534 12.1005 7.8029 12.1885 7.70599C12.077 7.66118 11.9632 7.62237 11.8475 7.58974C11.821 7.58453 11.7937 7.58457 11.7673 7.58986C11.7408 7.59516 11.7156 7.60565 11.6933 7.62069C11.6055 7.69359 11.5218 7.77119 11.4426 7.85316L11.6858 8.01883ZM15.5232 7.98055C15.29 8.02504 15.0957 7.89271 14.9891 7.6244L14.9866 7.61818C15.0866 7.56066 15.2026 7.53621 15.3176 7.54848C15.4327 7.56069 15.5407 7.60898 15.626 7.68617C15.6724 7.72578 15.7275 7.82596 15.7087 7.85684C15.6659 7.92068 15.5992 7.96514 15.5232 7.98055ZM13.6979 8.08193C13.7424 8.07534 13.7802 8.07251 13.8124 8.07007C13.8711 8.06566 13.9111 8.06265 13.9386 8.04112L13.9537 8.02929C14.0397 7.96193 14.1576 7.86959 14.1517 7.79377C14.1379 7.63673 13.9938 7.59839 13.8421 7.65034C13.7802 7.66299 13.7212 7.68642 13.6678 7.71956C13.6047 7.78184 13.5477 7.84977 13.4973 7.92239L13.6979 8.08193ZM9.99098 8.08773C9.94784 8.1217 9.89906 8.16013 9.85299 8.20558L9.44303 7.86426C9.47094 7.84746 9.49933 7.8258 9.52775 7.80411C9.59128 7.75565 9.65493 7.70707 9.71383 7.71217C9.7374 7.7142 9.76293 7.71519 9.7893 7.71617C9.93836 7.72172 10.1149 7.72832 10.1212 7.9385C10.1228 7.98385 10.0652 8.02923 9.99098 8.08773Z" fill="#1E2125"/>
<path d="M11.5462 17.1992C10.5797 17.1474 9.61075 17.1293 8.64931 17.0352C7.45464 16.9146 6.46077 16.4429 5.93077 15.3223C5.84755 15.1219 5.80314 14.9085 5.7998 14.6926C5.7998 14.6287 5.95197 14.4936 6.02928 14.4972C6.63658 14.5297 7.24138 14.5961 7.84869 14.6359C8.4211 14.6721 8.9935 14.689 9.56588 14.7119C9.75047 14.7191 9.88391 14.7577 9.9487 14.9616C10.011 15.1052 10.0988 15.237 10.2081 15.3512C10.4363 15.6395 10.6945 15.666 10.9925 15.4453C11.101 15.3859 11.2015 15.3138 11.2918 15.2306C11.6335 14.7987 12.0874 14.7276 12.6211 14.7252C14.2524 14.7112 15.8802 14.5786 17.4908 14.3283C17.6842 14.2994 17.8724 14.2415 18.0645 14.2077C18.2902 14.1691 18.3912 14.262 18.3987 14.4912C18.4274 15.344 17.8999 16.0726 17.1105 16.449C15.8385 17.052 14.4693 17.0943 13.1062 17.1799C12.5887 17.2125 12.0674 17.1799 11.5474 17.1799L11.5462 17.1992Z" fill="#1E2125"/>
<path d="M18.5318 12.7992C18.1044 12.6191 17.6966 12.4754 17.3071 12.2763C17.0462 12.1408 16.8356 12.0772 16.5796 12.2966C16.4562 12.4035 16.3051 12.4639 16.1484 12.469C15.9917 12.4741 15.8377 12.4237 15.7088 12.3251C15.6154 12.2545 15.5053 12.2159 15.3922 12.2142C15.2792 12.2125 15.1682 12.2478 15.0731 12.3156C14.862 12.4386 14.6275 12.5046 14.389 12.5083C14.1504 12.5121 13.9144 12.4535 13.7002 12.3372C13.6022 12.2747 13.4924 12.2384 13.3795 12.2311C13.2666 12.2238 13.1537 12.2458 13.0498 12.2953C12.9393 12.3598 12.8134 12.3845 12.6895 12.3661C12.5657 12.3476 12.4502 12.2869 12.3591 12.1923C12.2924 12.1138 12.2032 12.0635 12.1066 12.0499C12.0101 12.0363 11.9122 12.0603 11.8299 12.1178C11.6222 12.2262 11.3953 12.2824 11.1655 12.2824C10.9358 12.2824 10.7089 12.2262 10.5011 12.1178C10.3039 12.0284 10.1729 12.004 10.0112 12.2438C9.89608 12.4172 9.65233 12.5147 9.44783 12.5811C9.259 12.6517 9.05909 12.6788 8.86046 12.6606C8.66182 12.6424 8.46863 12.5794 8.29284 12.4755C8.18913 12.4118 8.07429 12.3732 7.95608 12.3623C7.83786 12.3513 7.71888 12.3681 7.60698 12.4118C7.2518 12.5202 6.89665 12.5337 6.55861 12.3183C6.36873 12.1978 6.21687 12.3183 6.04663 12.4213C5.82798 12.5548 5.59152 12.649 5.34608 12.7003C5.27623 12.6987 5.20798 12.6772 5.14789 12.6378C5.08782 12.5983 5.03796 12.5424 5.00316 12.4755C4.99434 12.394 5.00406 12.3115 5.03143 12.2353C5.05883 12.1591 5.10299 12.0917 5.15993 12.0392C5.49061 11.8482 5.84088 11.6396 6.20218 11.5854C7.0595 11.45 7.93524 11.3985 8.80479 11.3307C10.7204 11.1586 12.6452 11.1555 14.5612 11.3212C15.541 11.4174 16.5208 11.5095 17.5006 11.6464C17.895 11.7019 18.2758 11.8726 18.6629 11.9905C18.8821 12.0582 19.0671 12.2059 18.9764 12.4605C18.9274 12.6041 18.7094 12.6719 18.5318 12.7992Z" fill="#1E2125"/>
<path d="M9.46104 14.2C8.33935 14.1334 7.22881 14.0692 6.11211 13.9963C5.88531 13.9827 5.79057 13.8062 5.80051 13.5025C5.80923 13.2754 5.94633 13.2112 6.1408 13.2235C6.98828 13.2779 7.83579 13.347 8.68456 13.3889C10.7697 13.4778 12.8548 13.505 14.9362 13.289C15.9408 13.184 16.9478 13.1026 17.9536 13.0124C18.1418 12.9951 18.3499 12.9569 18.3961 13.2235C18.4285 13.4087 18.2465 13.6235 18.0084 13.6618C17.473 13.7671 16.9321 13.8434 16.3882 13.8902C14.4028 13.9877 12.4161 14.0556 10.4307 14.1297C10.1079 14.142 9.78634 14.1297 9.46355 14.1297L9.46104 14.2Z" fill="#1E2125"/>
</svg>
