<svg width="24" height="24" viewBox="0 0 24 24" fill="none" xmlns="http://www.w3.org/2000/svg">
<rect width="24" height="24" fill="#FFD84A"/>
<path d="M13.9587 20.569C17.2909 19.8723 19.9333 17.2951 20.726 14.0007H15.9937C14.7686 16.3377 13.2621 15.8229 11.8722 16.3789C11.3815 16.5745 10.9765 16.9554 10.7741 17.6623C10.7741 17.6623 10.1289 17.1304 9.98821 17.024C9.84407 16.9176 9.29843 16.8078 8.95526 16.7495C8.61209 16.6911 8.17283 16.5951 8.04929 16.372C7.92918 16.1489 7.9532 15.871 7.99781 15.7097C8.03899 15.5518 7.98066 15.3322 7.94634 15.2636C7.90859 15.1949 7.74387 15.0508 7.71985 14.8998C7.69239 14.7454 8.01154 14.4605 8.01154 14.4605C8.01154 14.4605 7.73014 14.3747 7.64435 14.3164C7.55855 14.2581 7.53453 14.1483 7.48992 14.035C7.44874 13.9252 7.47276 13.7811 7.47276 13.7811L7.4556 13.383C7.4556 13.383 7.31833 13.2766 7.25313 13.2388C7.18793 13.2011 7.07812 13.1908 7.01635 13.0432C6.95458 12.8957 6.98546 12.6829 6.98546 12.6829C6.98546 12.6829 7.12959 12.3089 7.21195 11.9931C7.29775 11.6809 7.59287 11.2622 7.59287 11.2004C7.59287 11.1386 7.48649 11.0803 7.48649 11.0803C7.48649 11.0803 7.29774 10.9121 7.26343 10.8298C7.23254 10.7509 7.26 10.5827 7.26 10.5827L7.35952 10.418C7.35952 10.418 7.39726 9.98902 7.38697 9.89293C7.37667 9.79684 7.50365 9.46397 7.50365 9.46397C7.50365 9.46397 7.62033 8.92519 7.737 8.61634C7.85368 8.31091 8.84888 7.32601 8.84888 7.32601C8.4405 6.69115 9.69994 6.19355 10.273 6.02539C10.8461 5.85724 11.9992 5.57241 13.5435 5.86754C15.3623 6.21071 16.4158 8.23885 16.457 10.2773H20.8187C20.1598 6.77351 17.435 4.00069 13.9553 3.26973V2H10.1632V3.31091C6.23392 4.20659 3.2998 7.72409 3.2998 11.9245C3.2998 16.1249 6.23392 19.6424 10.1632 20.5381V22H13.9553V20.569H13.9587ZM15.1872 15.617C14.6691 16.8181 13.341 17.9609 11.6114 18.5683L11.6697 19.289C11.6697 19.6321 11.4261 19.7351 11.2648 19.5738L10.7706 19.2512L10.4755 19.4949C10.122 19.7865 9.98134 19.5738 9.90584 19.3644C9.75485 18.9458 9.70337 18.5443 9.89555 18.0432C10.1049 18.0226 10.2936 18.0535 10.6059 18.1908L10.9285 18.0192C11.1001 17.9197 11.2476 17.9369 11.2991 18.1325L11.4192 18.4242L11.4364 17.6829C11.4364 17.6829 13.5057 17.5353 15.1872 15.6205V15.617Z" fill="black"/>
</svg>
