<svg width="25" height="24" viewBox="0 0 25 24" fill="none" xmlns="http://www.w3.org/2000/svg">
<path d="M12.9557 1C10.3346 0.998724 7.78515 1.85966 5.69708 3.45123C3.60901 5.04279 2.09718 7.27743 1.39269 9.81356C0.688196 12.3497 0.829798 15.0478 1.79585 17.4954C2.7619 19.9431 4.49925 22.0056 6.74234 23.3678C7.19884 23.6461 7.72259 23.7932 8.25656 23.7932H8.29568C8.68583 23.7954 9.07251 23.7198 9.43336 23.5708C9.79423 23.4218 10.1221 23.2024 10.3979 22.9253C10.6738 22.6481 10.8922 22.3187 11.0405 21.9563C11.1889 21.5938 11.2641 21.2053 11.262 20.8134V15.3231C11.2614 15.2927 11.2491 15.2636 11.2276 15.2422C11.2062 15.2206 11.1773 15.2082 11.1469 15.2076H9.34276C9.11584 15.216 8.88957 15.1785 8.67747 15.097C8.46536 15.0155 8.27178 14.892 8.10828 14.7337C7.94478 14.5754 7.81474 14.3857 7.72591 14.1758C7.63708 13.9659 7.5913 13.7401 7.5913 13.512C7.5913 13.2839 7.63708 13.0582 7.72591 12.8482C7.81474 12.6383 7.94478 12.4485 8.10828 12.2903C8.27178 12.132 8.46536 12.0084 8.67747 11.927C8.88957 11.8456 9.11584 11.808 9.34276 11.8164H16.5571C16.7841 11.808 17.0104 11.8456 17.2225 11.927C17.4346 12.0084 17.6282 12.132 17.7917 12.2903C17.9552 12.4485 18.0852 12.6383 18.174 12.8482C18.2628 13.0582 18.3086 13.2839 18.3086 13.512C18.3086 13.7401 18.2628 13.9659 18.174 14.1758C18.0852 14.3857 17.9552 14.5754 17.7917 14.7337C17.6282 14.892 17.4346 15.0155 17.2225 15.097C17.0104 15.1785 16.7841 15.216 16.5571 15.2076H14.7576C14.7272 15.2082 14.6983 15.2206 14.6769 15.2422C14.6555 15.2636 14.6431 15.2927 14.6425 15.3231V20.8134C14.648 21.6041 14.9634 22.3607 15.5203 22.9193C16.0773 23.4779 16.831 23.7936 17.6181 23.7979H17.6572C18.192 23.7975 18.7163 23.6478 19.1714 23.3655C21.4111 22.0019 23.1453 19.9396 24.1091 17.4934C25.0729 15.0471 25.2135 12.3513 24.5094 9.81725C23.8053 7.28322 22.2951 5.05024 20.2095 3.45904C18.1238 1.86785 15.577 1.00585 12.958 1.00463L12.9557 1ZM4.44109 15.4388C4.06131 15.4393 3.68992 15.3265 3.37395 15.1149C3.05797 14.9031 2.81163 14.602 2.66608 14.2497C2.52053 13.8974 2.48233 13.5095 2.55631 13.1352C2.63029 12.7611 2.81314 12.4174 3.08168 12.1476C3.35023 11.8778 3.69242 11.6942 4.06493 11.6198C4.43744 11.5455 4.82352 11.5839 5.17431 11.7301C5.5251 11.8763 5.82483 12.1238 6.03555 12.4412C6.24625 12.7586 6.35849 13.1316 6.35803 13.5131C6.35683 14.0219 6.15575 14.5095 5.7985 14.8701C5.44126 15.2308 4.95672 15.4351 4.45029 15.4388H4.44109ZM12.9557 9.70119C12.3667 9.70164 11.7907 9.52659 11.3007 9.19819C10.8107 8.86977 10.4287 8.40273 10.2029 7.85618C9.9772 7.30963 9.9179 6.7081 10.0325 6.12769C10.1472 5.54728 10.4306 5.01407 10.847 4.5955C11.2633 4.17693 11.7939 3.8918 12.3716 3.7762C12.9493 3.66059 13.5482 3.71967 14.0925 3.94601C14.6368 4.17236 15.1019 4.55576 15.4292 5.04774C15.7565 5.5397 15.9313 6.11812 15.9313 6.70985C15.9264 7.50087 15.6113 8.2581 15.0542 8.81723C14.4972 9.37636 13.7431 9.69231 12.9557 9.69655V9.70119ZM21.4358 15.4388C21.0562 15.4388 20.685 15.3256 20.3694 15.1137C20.0536 14.9017 19.8077 14.6005 19.6624 14.2481C19.5173 13.8957 19.4793 13.5079 19.5536 13.1339C19.6279 12.7598 19.8109 12.4163 20.0795 12.1468C20.3481 11.8772 20.6904 11.6938 21.0628 11.6197C21.4352 11.5455 21.8213 11.584 22.1719 11.7303C22.5226 11.8766 22.8222 12.124 23.0327 12.4414C23.2433 12.7587 23.3555 13.1317 23.355 13.5131C23.3538 14.0239 23.1512 14.5134 22.7914 14.8742C22.4317 15.2352 21.9443 15.4382 21.4358 15.4388Z" fill="url(#paint0_linear_2355_1804)"/>
<defs>
<linearGradient id="paint0_linear_2355_1804" x1="19.9714" y1="3.57923" x2="4.43599" y2="21.214" gradientUnits="userSpaceOnUse">
<stop stop-color="#FF8500"/>
<stop offset="0.192702" stop-color="#FF1751"/>
<stop offset="0.583334" stop-color="#E204B0"/>
<stop offset="1" stop-color="#2840FB"/>
</linearGradient>
</defs>
</svg>
