<svg width="24" height="24" viewBox="0 0 24 24" fill="none" xmlns="http://www.w3.org/2000/svg">
<path d="M5.7366 23.2309C5.19415 23.2309 4.74777 22.7846 4.74777 22.2421C4.74777 21.6991 5.19415 21.2528 5.7366 21.2528C6.27905 21.2528 6.72597 21.6991 6.72597 22.2421C6.72597 22.7846 6.27905 23.2309 5.7366 23.2309ZM13.8463 21.9783C13.8463 21.9778 13.8463 21.9773 13.8463 21.9767C13.8463 21.4343 14.2927 20.9879 14.8351 20.9879C15.3776 20.9879 15.824 21.4343 15.824 21.9767C15.824 22.5192 15.3776 22.9656 14.8351 22.9656C14.2932 22.9656 13.8474 22.5202 13.8463 21.9783ZM11.5385 22.5717C10.9233 22.5717 10.4175 22.0659 10.4175 21.4507C10.4175 20.8356 10.9233 20.3297 11.5385 20.3297C12.1537 20.3297 12.6595 20.8356 12.6595 21.4507C12.6595 22.0659 12.1537 22.5717 11.5385 22.5717ZM17.5362 21.3191V21.275C17.5607 20.8228 17.9391 20.4635 18.3924 20.4635C18.8626 20.4635 19.2496 20.8504 19.2496 21.3207C19.2496 21.7788 18.8828 22.1598 18.4253 22.1774H18.3924C17.9237 22.1752 17.5389 21.7888 17.5389 21.3202L17.5362 21.3191ZM8.24186 20.7257C7.5545 20.7257 6.98923 20.1604 6.98923 19.4731C6.98923 18.7857 7.5545 18.2204 8.24186 18.2204C8.92921 18.2204 9.49448 18.7857 9.49448 19.4731C9.49448 20.1604 8.92921 20.7257 8.24186 20.7257ZM3.56149 20.3281C2.95853 20.3106 2.47234 19.8101 2.47234 19.2072C2.47234 18.592 2.9787 18.0856 3.59387 18.0856C4.20904 18.0856 4.71539 18.592 4.71539 19.2072C4.71539 19.8101 4.22921 20.3106 3.62625 20.3281C3.60448 20.3292 3.58325 20.3292 3.56149 20.3281ZM21.2968 20.1981C20.8987 20.1981 20.5717 19.8706 20.5717 19.4731C20.5717 19.075 20.8987 18.7475 21.2968 18.7475C21.6948 18.7475 22.0218 19.075 22.0218 19.4731C22.0218 19.8706 21.6948 20.1981 21.2968 20.1981ZM5.01104 16.0443C5.01104 15.2847 5.63629 14.6595 6.39582 14.6595C7.15536 14.6595 7.78061 15.2847 7.78061 16.0443C7.78061 16.8038 7.15536 17.4291 6.39582 17.4291C5.63629 17.4291 5.01104 16.8038 5.01104 16.0443ZM22.8132 16.7024C22.8137 16.3771 23.0812 16.1101 23.4066 16.1101C23.732 16.1101 24 16.3781 24 16.7035C24 17.0289 23.7325 17.2964 23.4071 17.2969C23.0818 17.2969 22.8132 17.0289 22.8132 16.7035C22.8132 16.703 22.8132 16.703 22.8132 16.7024ZM2.17617 17.1647C1.48882 17.1647 0.923016 16.5989 0.923016 15.9121C0.923016 15.2248 1.48882 14.659 2.17617 14.659C2.86352 14.659 3.42933 15.2248 3.42933 15.9121C3.42933 16.5989 2.86352 17.1647 2.17617 17.1647ZM10.3023 16.7247C9.82515 16.5857 9.49501 16.1451 9.49501 15.6483C9.49501 15.0331 10.0008 14.5273 10.616 14.5273C11.2312 14.5273 11.737 15.0331 11.737 15.6483C11.7365 16.263 11.2301 16.7688 10.6155 16.7688C10.5099 16.7688 10.4053 16.7539 10.3039 16.7247H10.3023ZM3.95639 12.3501C3.95639 11.5184 4.64109 10.8337 5.47281 10.8337C6.30453 10.8337 6.98923 11.5184 6.98923 12.3501C6.98923 13.1818 6.30453 13.8665 5.47281 13.8665C4.64109 13.8665 3.95639 13.1818 3.95639 12.3501ZM0 12.3501C0 11.5906 0.625252 10.9653 1.38479 10.9653C2.14433 10.9653 2.76958 11.5906 2.76958 12.3501C2.76958 13.1096 2.14433 13.7349 1.38479 13.7349C0.625252 13.7349 0 13.1096 0 12.3501ZM8.1771 12.2668V12.2185C8.1771 11.5311 8.74238 10.9658 9.42973 10.9658C10.1171 10.9658 10.6824 11.5311 10.6824 12.2185V12.2668C10.6585 12.9366 10.1006 13.4748 9.43079 13.4748C8.76042 13.4748 8.20258 12.9366 8.17869 12.2668H8.1771ZM11.8686 12.2185C11.8686 11.6033 12.3745 11.0975 12.9896 11.0975C13.6048 11.0975 14.1106 11.6033 14.1106 12.2185C14.1106 12.8336 13.6048 13.3395 12.9896 13.3395C12.375 13.34 11.8692 12.8347 11.8681 12.22L11.8686 12.2185ZM5.01104 8.65962C5.01104 7.90008 5.63629 7.27483 6.39582 7.27483C7.15536 7.27483 7.78061 7.90008 7.78061 8.65962C7.78061 9.41916 7.15536 10.0444 6.39582 10.0444C5.63629 10.0444 5.01104 9.41916 5.01104 8.65962ZM2.17617 10.0439C1.48882 10.0439 0.923546 9.4786 0.923546 8.79125C0.923546 8.1039 1.48882 7.53862 2.17617 7.53862C2.86352 7.53862 3.4288 8.1039 3.4288 8.79125C3.4288 9.4786 2.86352 10.0439 2.17617 10.0439ZM10.5624 9.90853C9.96687 9.88146 9.49183 9.38466 9.49183 8.7886C9.49183 8.17396 9.99766 7.6676 10.6128 7.6676C11.228 7.6676 11.7338 8.17396 11.7338 8.7886C11.7338 9.38466 11.2588 9.88146 10.6632 9.90853H10.5624ZM22.8111 8.65696C22.8127 8.33266 23.0802 8.06621 23.4045 8.06621C23.7298 8.06621 23.9979 8.33425 23.9979 8.65962C23.9979 8.98392 23.7314 9.25143 23.4071 9.25302C23.0818 9.25302 22.8132 8.98498 22.8132 8.65962L22.8111 8.65696ZM8.24186 6.8794C7.5545 6.8794 6.98923 6.3136 6.98923 5.62625C6.98923 4.93942 7.5545 4.37362 8.24186 4.37362C8.92921 4.37362 9.49501 4.93942 9.49501 5.62625C9.49501 6.3136 8.92921 6.8794 8.24186 6.8794ZM3.56149 6.74565C2.95853 6.72813 2.47234 6.22761 2.47234 5.62465C2.47234 5.00949 2.9787 4.50313 3.59387 4.50313C4.20904 4.50313 4.71539 5.00949 4.71539 5.62465C4.71539 6.22761 4.22921 6.72813 3.62625 6.74565C3.60448 6.74671 3.58325 6.74671 3.56149 6.74565ZM21.2968 6.61773C20.8987 6.61773 20.5717 6.29024 20.5717 5.89216C20.5717 5.49461 20.8987 5.16713 21.2968 5.16713C21.6948 5.16713 22.0218 5.49461 22.0218 5.89216C22.0218 6.29024 21.6948 6.61773 21.2968 6.61773ZM11.5385 5.03284C10.9233 5.03284 10.4175 4.52701 10.4175 3.91185C10.4175 3.29668 10.9233 2.79085 11.5385 2.79085C12.1537 2.79085 12.6595 3.29668 12.6595 3.91185C12.6595 4.52701 12.1537 5.03284 11.5385 5.03284ZM17.5389 3.91079V3.86673C17.5506 3.40443 17.9343 3.03129 18.3961 3.03076C18.8669 3.03076 19.2538 3.41823 19.2538 3.88849C19.2538 4.35929 18.8669 4.74675 18.3961 4.74675C17.9343 4.74675 17.5506 4.37309 17.5389 3.91079ZM13.8463 3.3832C13.8474 2.84128 14.2932 2.39596 14.8351 2.39596C15.3776 2.39596 15.824 2.84234 15.824 3.38479C15.824 3.92724 15.3776 4.37362 14.8351 4.37362C14.2927 4.37362 13.8463 3.92724 13.8463 3.38479V3.3832ZM5.7366 3.97819C5.19415 3.97819 4.74777 3.53181 4.74777 2.98936C4.74777 2.44638 5.19415 2 5.7366 2C6.27905 2 6.72597 2.44638 6.72597 2.98883C6.72597 3.53181 6.27905 3.97819 5.7366 3.97819Z" fill="white"/>
<path d="M5.7366 23.2309C5.19415 23.2309 4.74777 22.7846 4.74777 22.2421C4.74777 21.6991 5.19415 21.2528 5.7366 21.2528C6.27905 21.2528 6.72597 21.6991 6.72597 22.2421C6.72597 22.7846 6.27905 23.2309 5.7366 23.2309ZM13.8463 21.9783C13.8463 21.9778 13.8463 21.9773 13.8463 21.9767C13.8463 21.4343 14.2927 20.9879 14.8351 20.9879C15.3776 20.9879 15.824 21.4343 15.824 21.9767C15.824 22.5192 15.3776 22.9656 14.8351 22.9656C14.2932 22.9656 13.8474 22.5202 13.8463 21.9783ZM11.5385 22.5717C10.9233 22.5717 10.4175 22.0659 10.4175 21.4507C10.4175 20.8356 10.9233 20.3297 11.5385 20.3297C12.1537 20.3297 12.6595 20.8356 12.6595 21.4507C12.6595 22.0659 12.1537 22.5717 11.5385 22.5717ZM17.5362 21.3191V21.275C17.5607 20.8228 17.9391 20.4635 18.3924 20.4635C18.8626 20.4635 19.2496 20.8504 19.2496 21.3207C19.2496 21.7788 18.8828 22.1598 18.4253 22.1774H18.3924C17.9237 22.1752 17.5389 21.7888 17.5389 21.3202L17.5362 21.3191ZM8.24186 20.7257C7.5545 20.7257 6.98923 20.1604 6.98923 19.4731C6.98923 18.7857 7.5545 18.2204 8.24186 18.2204C8.92921 18.2204 9.49448 18.7857 9.49448 19.4731C9.49448 20.1604 8.92921 20.7257 8.24186 20.7257ZM3.56149 20.3281C2.95853 20.3106 2.47234 19.8101 2.47234 19.2072C2.47234 18.592 2.9787 18.0856 3.59387 18.0856C4.20904 18.0856 4.71539 18.592 4.71539 19.2072C4.71539 19.8101 4.22921 20.3106 3.62625 20.3281C3.60448 20.3292 3.58325 20.3292 3.56149 20.3281ZM21.2968 20.1981C20.8987 20.1981 20.5717 19.8706 20.5717 19.4731C20.5717 19.075 20.8987 18.7475 21.2968 18.7475C21.6948 18.7475 22.0218 19.075 22.0218 19.4731C22.0218 19.8706 21.6948 20.1981 21.2968 20.1981ZM5.01104 16.0443C5.01104 15.2847 5.63629 14.6595 6.39582 14.6595C7.15536 14.6595 7.78061 15.2847 7.78061 16.0443C7.78061 16.8038 7.15536 17.4291 6.39582 17.4291C5.63629 17.4291 5.01104 16.8038 5.01104 16.0443ZM22.8132 16.7024C22.8137 16.3771 23.0812 16.1101 23.4066 16.1101C23.732 16.1101 24 16.3781 24 16.7035C24 17.0289 23.7325 17.2964 23.4071 17.2969C23.0818 17.2969 22.8132 17.0289 22.8132 16.7035C22.8132 16.703 22.8132 16.703 22.8132 16.7024ZM2.17617 17.1647C1.48882 17.1647 0.923016 16.5989 0.923016 15.9121C0.923016 15.2248 1.48882 14.659 2.17617 14.659C2.86352 14.659 3.42933 15.2248 3.42933 15.9121C3.42933 16.5989 2.86352 17.1647 2.17617 17.1647ZM10.3023 16.7247C9.82515 16.5857 9.49501 16.1451 9.49501 15.6483C9.49501 15.0331 10.0008 14.5273 10.616 14.5273C11.2312 14.5273 11.737 15.0331 11.737 15.6483C11.7365 16.263 11.2301 16.7688 10.6155 16.7688C10.5099 16.7688 10.4053 16.7539 10.3039 16.7247H10.3023ZM3.95639 12.3501C3.95639 11.5184 4.64109 10.8337 5.47281 10.8337C6.30453 10.8337 6.98923 11.5184 6.98923 12.3501C6.98923 13.1818 6.30453 13.8665 5.47281 13.8665C4.64109 13.8665 3.95639 13.1818 3.95639 12.3501ZM0 12.3501C0 11.5906 0.625252 10.9653 1.38479 10.9653C2.14433 10.9653 2.76958 11.5906 2.76958 12.3501C2.76958 13.1096 2.14433 13.7349 1.38479 13.7349C0.625252 13.7349 0 13.1096 0 12.3501ZM8.1771 12.2668V12.2185C8.1771 11.5311 8.74238 10.9658 9.42973 10.9658C10.1171 10.9658 10.6824 11.5311 10.6824 12.2185V12.2668C10.6585 12.9366 10.1006 13.4748 9.43079 13.4748C8.76042 13.4748 8.20258 12.9366 8.17869 12.2668H8.1771ZM11.8686 12.2185C11.8686 11.6033 12.3745 11.0975 12.9896 11.0975C13.6048 11.0975 14.1106 11.6033 14.1106 12.2185C14.1106 12.8336 13.6048 13.3395 12.9896 13.3395C12.375 13.34 11.8692 12.8347 11.8681 12.22L11.8686 12.2185ZM5.01104 8.65962C5.01104 7.90008 5.63629 7.27483 6.39582 7.27483C7.15536 7.27483 7.78061 7.90008 7.78061 8.65962C7.78061 9.41916 7.15536 10.0444 6.39582 10.0444C5.63629 10.0444 5.01104 9.41916 5.01104 8.65962ZM2.17617 10.0439C1.48882 10.0439 0.923546 9.4786 0.923546 8.79125C0.923546 8.1039 1.48882 7.53862 2.17617 7.53862C2.86352 7.53862 3.4288 8.1039 3.4288 8.79125C3.4288 9.4786 2.86352 10.0439 2.17617 10.0439ZM10.5624 9.90853C9.96687 9.88146 9.49183 9.38466 9.49183 8.7886C9.49183 8.17396 9.99766 7.6676 10.6128 7.6676C11.228 7.6676 11.7338 8.17396 11.7338 8.7886C11.7338 9.38466 11.2588 9.88146 10.6632 9.90853H10.5624ZM22.8111 8.65696C22.8127 8.33266 23.0802 8.06621 23.4045 8.06621C23.7298 8.06621 23.9979 8.33425 23.9979 8.65962C23.9979 8.98392 23.7314 9.25143 23.4071 9.25302C23.0818 9.25302 22.8132 8.98498 22.8132 8.65962L22.8111 8.65696ZM8.24186 6.8794C7.5545 6.8794 6.98923 6.3136 6.98923 5.62625C6.98923 4.93942 7.5545 4.37362 8.24186 4.37362C8.92921 4.37362 9.49501 4.93942 9.49501 5.62625C9.49501 6.3136 8.92921 6.8794 8.24186 6.8794ZM3.56149 6.74565C2.95853 6.72813 2.47234 6.22761 2.47234 5.62465C2.47234 5.00949 2.9787 4.50313 3.59387 4.50313C4.20904 4.50313 4.71539 5.00949 4.71539 5.62465C4.71539 6.22761 4.22921 6.72813 3.62625 6.74565C3.60448 6.74671 3.58325 6.74671 3.56149 6.74565ZM21.2968 6.61773C20.8987 6.61773 20.5717 6.29024 20.5717 5.89216C20.5717 5.49461 20.8987 5.16713 21.2968 5.16713C21.6948 5.16713 22.0218 5.49461 22.0218 5.89216C22.0218 6.29024 21.6948 6.61773 21.2968 6.61773ZM11.5385 5.03284C10.9233 5.03284 10.4175 4.52701 10.4175 3.91185C10.4175 3.29668 10.9233 2.79085 11.5385 2.79085C12.1537 2.79085 12.6595 3.29668 12.6595 3.91185C12.6595 4.52701 12.1537 5.03284 11.5385 5.03284ZM17.5389 3.91079V3.86673C17.5506 3.40443 17.9343 3.03129 18.3961 3.03076C18.8669 3.03076 19.2538 3.41823 19.2538 3.88849C19.2538 4.35929 18.8669 4.74675 18.3961 4.74675C17.9343 4.74675 17.5506 4.37309 17.5389 3.91079ZM13.8463 3.3832C13.8474 2.84128 14.2932 2.39596 14.8351 2.39596C15.3776 2.39596 15.824 2.84234 15.824 3.38479C15.824 3.92724 15.3776 4.37362 14.8351 4.37362C14.2927 4.37362 13.8463 3.92724 13.8463 3.38479V3.3832ZM5.7366 3.97819C5.19415 3.97819 4.74777 3.53181 4.74777 2.98936C4.74777 2.44638 5.19415 2 5.7366 2C6.27905 2 6.72597 2.44638 6.72597 2.98883C6.72597 3.53181 6.27905 3.97819 5.7366 3.97819Z" fill="url(#paint0_linear_2355_1831)"/>
<defs>
<linearGradient id="paint0_linear_2355_1831" x1="-2.9074e-07" y1="23.231" x2="24" y2="3.7197" gradientUnits="userSpaceOnUse">
<stop stop-color="#964BFF"/>
<stop offset="0.37" stop-color="#A695FF"/>
<stop offset="0.65" stop-color="#3CE9FF"/>
<stop offset="0.86" stop-color="#CAFF2C"/>
<stop offset="1" stop-color="#FFFF21"/>
</linearGradient>
</defs>
</svg>
