<svg width="24" height="24" viewBox="0 0 24 24" fill="none" xmlns="http://www.w3.org/2000/svg">
<g clip-path="url(#clip0_720_13917)">
<path d="M12 24C18.6274 24 24 18.6274 24 12C24 5.37258 18.6274 0 12 0C5.37258 0 0 5.37258 0 12C0 18.6274 5.37258 24 12 24Z" fill="white"/>
<path d="M19.9268 17.5994C17.7255 19.757 15.8157 20.8066 12.6959 20.8066C7.47685 20.8066 3.87598 17.162 3.87598 12.0304C3.87598 6.76759 7.95794 3.3125 12.7397 3.3125C15.5241 3.3125 18.1774 4.53708 19.9997 6.65097L17.7692 8.79398C16.2676 7.19037 14.6203 6.3594 12.6668 6.3594C9.5324 6.3594 6.98119 8.76483 6.98119 12.045C6.98119 15.4855 9.44493 17.7743 12.7397 17.7743C14.8098 17.7743 16.1948 16.9433 17.7692 15.3689L19.9268 17.5994Z" fill="black"/>
</g>
<defs>
<clipPath id="clip0_720_13917">
<rect width="24" height="24" fill="white"/>
</clipPath>
</defs>
</svg>
