<svg width="24" height="24" viewBox="0 0 24 24" fill="none" xmlns="http://www.w3.org/2000/svg">
<g clip-path="url(#clip0_720_13924)">
<path d="M12 24C18.6274 24 24 18.6274 24 12C24 5.37258 18.6274 0 12 0C5.37258 0 0 5.37258 0 12C0 18.6274 5.37258 24 12 24Z" fill="#000D17"/>
<path d="M14.3078 13.6595C13.8681 14.4929 12.9966 15.0614 11.9916 15.0614C10.5447 15.0614 9.37172 13.8838 9.37172 12.4312C9.37172 10.9786 10.5447 9.80098 11.9916 9.80098C12.9966 9.80098 13.8681 10.3694 14.3078 11.2029H17.0352C16.488 8.91306 14.4407 7.20898 11.9916 7.20898C9.12423 7.20898 6.7998 9.54256 6.7998 12.421C6.7998 15.2995 9.12423 17.6329 11.9916 17.6329C14.4332 17.6329 16.4755 15.9389 17.03 13.6595H14.3078Z" fill="#FFB0C2"/>
<path d="M16.0963 9.24209C16.6818 8.76261 17.0558 8.03245 17.0558 7.21471C17.0558 5.77039 15.8895 4.59961 14.4508 4.59961C13.012 4.59961 11.8457 5.77039 11.8457 7.21471V7.21669C11.8941 7.21537 11.9425 7.21461 11.9912 7.21461C13.6633 7.21461 15.1483 8.00915 16.0963 9.24209Z" fill="#CC91F0"/>
<path d="M14.4534 9.83363C15.0775 9.83351 15.6504 9.61325 16.0989 9.24579C15.1511 8.01293 13.6662 7.21853 11.994 7.21875C11.9453 7.21869 11.8969 7.21943 11.8486 7.22079C11.8495 8.66417 13.0153 9.83375 14.4534 9.83363Z" fill="#CC66B8"/>
</g>
<defs>
<clipPath id="clip0_720_13924">
<rect width="24" height="24" fill="white"/>
</clipPath>
</defs>
</svg>
