<svg width="24" height="24" viewBox="0 0 24 24" fill="none" xmlns="http://www.w3.org/2000/svg">
<g clip-path="url(#clip0_720_13933)">
<path d="M12 24C18.6274 24 24 18.6274 24 12C24 5.37258 18.6274 0 12 0C5.37258 0 0 5.37258 0 12C0 18.6274 5.37258 24 12 24Z" fill="white"/>
<path d="M14.3093 12.5765C14.3093 12.4169 14.3093 12.3371 14.1504 12.2573C13.5942 11.8584 12.9586 11.4595 12.4025 11.0605C12.2822 10.9798 12.1254 10.9798 12.0052 11.0605L10.2573 12.3371C10.1084 12.4134 10.0159 12.5683 10.019 12.7361C10.0152 12.9081 9.95984 13.0749 9.86006 13.2148C9.77972 13.3355 9.77972 13.493 9.86006 13.6137C10.4957 14.8904 11.0518 16.167 11.6874 17.4436C11.9258 17.8425 12.0847 18.3213 12.323 18.8C12.4025 18.7202 12.4025 18.6404 12.4819 18.5606C13.197 16.9649 13.8326 15.3691 14.5476 13.7733C14.6271 13.6137 14.6271 13.534 14.4682 13.4542C14.2873 13.2001 14.229 12.8782 14.3093 12.5765Z" fill="#CD0124"/>
<path d="M11.5998 10.4772C9.9998 9.35792 8.3998 8.2386 6.8798 7.19922L6.7998 7.27918C6.8798 7.43908 6.8798 7.51902 6.9598 7.67892L8.6398 11.2768C8.7998 11.5966 8.8798 11.9164 9.3598 11.9963C9.49806 12.0088 9.63696 11.981 9.7598 11.9164C10.2398 11.5166 10.7998 11.1968 11.2798 10.797L11.5998 10.4772Z" fill="#CD0124"/>
<path fill-rule="evenodd" clip-rule="evenodd" d="M0 12C0 5.37258 5.37258 0 12 0C15.1826 0 18.2348 1.26428 20.4852 3.51472C22.7358 5.76516 24 8.8174 24 12C24 18.6274 18.6274 24 12 24C5.37258 24 0 18.6274 0 12ZM18.16 7.2C18.24 7.04 18.32 6.96 18.48 6.96C18.9912 6.88044 19.3662 6.43728 19.36 5.92C19.3261 5.48758 19.0456 5.11358 18.64 4.96C18.2191 4.80168 17.7454 4.97086 17.52 5.36C17.44 5.6 17.28 5.6 17.12 5.6H6.96C6.72 5.6 6.64 5.6 6.56 5.44C6.3079 5.03586 5.80416 4.86794 5.36 5.04C4.94678 5.2276 4.67014 5.62718 4.64 6.08C4.66586 6.56934 5.03476 6.97178 5.52 7.04C5.76 7.04 5.84 7.12 5.84 7.2C6.64 8.8 7.36 10.32 8.08 11.92C8.1609 12.0411 8.1609 12.1989 8.08 12.32C7.91298 12.6109 7.89902 12.9651 8.0426 13.2682C8.1862 13.5714 8.46912 13.785 8.8 13.84C8.97716 13.8759 9.12612 13.995 9.2 14.16C9.6 14.96 9.98 15.76 10.36 16.56C10.74 17.36 11.12 18.16 11.52 18.96C11.5996 19.1101 11.5996 19.2899 11.52 19.44C11.3819 19.6415 11.3295 19.8897 11.3745 20.1298C11.4196 20.3698 11.5582 20.5822 11.76 20.72C12.1468 21.0168 12.6932 20.9826 13.04 20.64C13.4403 20.298 13.51 19.7055 13.2 19.28C13.1191 19.1589 13.1191 19.0011 13.2 18.88C13.84 17.28 14.56 15.6 15.28 14C15.36 13.84 15.44 13.76 15.52 13.76C15.8098 13.6726 16.0471 13.4633 16.17 13.1867C16.293 12.9101 16.2893 12.5937 16.16 12.32V12C16.48 11.2 16.82 10.4 17.16 9.59998C17.5 8.79998 17.84 8 18.16 7.2Z" fill="#CD0124"/>
<path d="M12 9.93939C12.1201 10.0207 12.2767 10.0207 12.3968 9.93939C13.9048 8.81335 15.4127 7.76773 16.8413 6.64169C16.9206 6.56125 17 6.56125 17 6.48083V6.40039H7C7.0908 6.43415 7.17242 6.48929 7.2381 6.56125L12 9.93939Z" fill="#CD0124"/>
<path d="M12.7998 10.4954C13.4284 10.9715 14.0569 11.3683 14.6855 11.7651C14.8427 11.8445 15.0784 11.7651 15.3141 11.7651C15.3927 11.7651 15.4712 11.6064 15.4712 11.5271C16.0212 10.2573 16.5712 8.90821 17.1212 7.63847C17.1212 7.55911 17.1998 7.47975 17.1998 7.40039H17.1212C15.7855 8.35269 14.2927 9.38435 12.7998 10.4954Z" fill="#CD0124"/>
</g>
<defs>
<clipPath id="clip0_720_13933">
<rect width="24" height="24" fill="white"/>
</clipPath>
</defs>
</svg>
