<svg width="24" height="24" viewBox="0 0 24 24" fill="none" xmlns="http://www.w3.org/2000/svg">
<g clip-path="url(#clip0_931_276)">
<path fill-rule="evenodd" clip-rule="evenodd" d="M17.6615 11.7538C20.9231 11.7538 23.5692 9.10769 23.5692 5.84615C23.5692 2.64615 20.9231 0 17.6615 0C14.4 0 11.8154 2.64615 11.7538 5.84615C11.7538 2.64615 9.10769 0 5.84615 0C2.64615 0 0 2.64615 0 5.90769C0 9.16923 2.64615 11.7538 5.84615 11.8154C2.58462 11.8154 0 14.4615 0 17.7231C0 20.9846 2.64615 23.6308 5.90769 23.6308C9.16923 23.6308 11.8154 20.9846 11.8154 17.7231C11.8154 14.4615 9.16923 11.8769 5.96923 11.8154C9.16923 11.8154 11.8154 9.16923 11.8154 5.96923C11.8154 9.16923 14.4 11.7538 17.6615 11.7538Z" fill="#06E594"/>
<path d="M17.6616 23.5693C20.9231 23.5693 23.5693 20.9231 23.5693 17.6616C23.5693 14.4001 20.9231 11.7539 17.6616 11.7539C14.4001 11.7539 11.7539 14.4001 11.7539 17.6616C11.7539 20.9231 14.4001 23.5693 17.6616 23.5693Z" fill="#06E594"/>
</g>
<defs>
<clipPath id="clip0_931_276">
<rect width="24" height="24" fill="white"/>
</clipPath>
</defs>
</svg>
