<svg width="24" height="24" viewBox="0 0 24 24" fill="none" xmlns="http://www.w3.org/2000/svg">
<path d="M3.95604 9.76316L0 12.0658L6 2L3.95604 9.76316Z" fill="#B7FAFF"/>
<path d="M13.9121 5.81579L6 2H17.9341L13.9121 5.81579Z" fill="#B7FAFF"/>
<path d="M15.0332 17.8555L6.06641 22.0002H18.0002L15.0332 17.8555Z" fill="#B37AAF"/>
<path d="M15.0332 17.8553L24.0002 12L18.0002 22L15.0332 17.8553Z" fill="#B388BD"/>
<path d="M13.9121 5.81579L24 12L17.9341 2L13.9121 5.81579Z" fill="#B4CFFA"/>
<path d="M13.9121 5.81579L3.95605 9.76316L6.00001 2L13.9121 5.81579Z" fill="#B4CFFA"/>
<path d="M3.95604 9.76172L0 12.0644L6.06593 21.9986L3.95604 9.76172Z" fill="#B3A5D6"/>
<path d="M15.033 17.8538L6.06594 21.9986L3.95605 9.76172L15.033 17.8538Z" fill="#B397C9"/>
<path d="M13.9121 5.81641L3.95605 9.76377L15.033 17.8559L13.9121 5.81641Z" fill="#B2B3E1"/>
<path d="M15.033 17.8559L13.9121 5.81641L24 12.0006L15.033 17.8559Z" fill="#B3C1EE"/>
</svg>
