<svg width="24" height="24" viewBox="0 0 24 24" fill="none" xmlns="http://www.w3.org/2000/svg">
<g clip-path="url(#clip0_2073_2040)">
<path d="M12 24C18.6274 24 24 18.6274 24 12C24 5.37258 18.6274 0 12 0C5.37257 0 0 5.37258 0 12C0 18.6274 5.37257 24 12 24Z" fill="black"/>
<path fill-rule="evenodd" clip-rule="evenodd" d="M12.5383 16.4336V19.4016C12.5383 19.8073 12.2284 20.1359 11.8458 20.1359C11.7153 20.1359 11.5893 20.0999 11.4779 20.0281L5.66249 16.2539C5.25082 15.9869 4.99902 15.5093 4.99902 14.9958V12.1357C4.99902 11.7968 5.26054 11.5195 5.57997 11.5195C5.68164 11.5195 5.78354 11.5504 5.87055 11.6069L11.9621 15.3707C12.3206 15.5914 12.5383 15.9971 12.5383 16.4336Z" fill="#01D494"/>
<path fill-rule="evenodd" clip-rule="evenodd" d="M15.7698 12.4253V18.8113C15.7698 19.002 15.6827 19.1765 15.5374 19.2636L14.2 20.1082C14.1855 20.1191 14.1661 20.13 14.1467 20.1354V16.5883C14.1467 16.1305 13.9335 15.7055 13.5798 15.4658L8.23047 11.8641V7.86479C8.23047 7.50508 8.49212 7.21094 8.81176 7.21094C8.9135 7.21094 9.01547 7.24352 9.10254 7.2981L15.1934 11.2975C15.5519 11.5318 15.7698 11.9623 15.7698 12.4253Z" fill="#01D494"/>
<path fill-rule="evenodd" clip-rule="evenodd" d="M19.0001 16.8097C19.0001 16.9923 18.895 17.1591 18.7234 17.2478L17.2791 17.9829V11.7678C17.2791 11.3245 17.0357 10.9232 16.6371 10.6936L10.3838 7.16374V3.52956C10.3838 3.42006 10.4168 3.3106 10.4722 3.2168C10.6605 2.91955 11.0645 2.81528 11.3798 2.9874L18.3416 6.79878C18.7513 7.02294 19.0001 7.4349 19.0001 7.8781V16.8097Z" fill="#01D494"/>
</g>
<defs>
<clipPath id="clip0_2073_2040">
<rect width="24" height="24" fill="white"/>
</clipPath>
</defs>
</svg>
