<svg width="24" height="24" viewBox="0 0 24 24" fill="none" xmlns="http://www.w3.org/2000/svg">
<circle cx="12" cy="12" r="12" fill="#202020"/>
<path d="M16.9321 16.9547C17.0918 17.4945 16.8809 17.9594 16.5861 18.3105C16.4443 18.479 16.2833 18.6216 16.1347 18.7335C15.9737 18.8547 15.6635 19.0668 15.2497 19.2882C14.5837 19.6429 13.65 20.0205 12.6398 20.0771C12.4184 20.09 12.1933 20.0869 11.967 20.0648C11.2331 19.9934 10.6232 19.9221 10.0645 19.7856C10.0639 19.7856 10.0626 19.7856 10.062 19.7856C9.17273 19.5698 8.41295 19.1898 7.48667 18.3867C7.43055 18.3382 7.37566 18.289 7.32324 18.2392C5.95539 16.9522 5.66616 15.3179 5.12963 14.0696C5.06241 13.9122 4.98532 13.7745 4.90268 13.6552C4.77626 13.4714 4.63626 13.3287 4.49442 13.218C4.43029 13.1676 4.36553 13.1239 4.30139 13.0858C4.19409 13.0225 4.08863 12.9745 3.98996 12.9389C3.65817 12.8183 3.40039 12.8313 3.40039 12.8313C3.40039 12.8313 3.43493 12.415 4.06211 12.102C4.68868 11.7896 5.30415 11.8825 5.30415 11.8825C5.30415 11.8825 5.269 11.1877 5.51322 10.424C5.75681 9.6603 6.34885 6.60433 9.48293 4.5211C11.0561 3.47519 12.4894 3.26059 13.526 3.30609C14.5553 3.35159 15.1507 3.6339 15.1507 3.6339C15.1507 3.6339 15.1716 3.5718 15.2358 3.48387C15.3517 3.32646 15.6518 3.10503 16.1809 2.99312C16.3764 2.95192 16.5312 2.96237 16.6527 3.00173C16.9179 3.08781 17.0277 3.31347 17.0715 3.45059C17.0758 3.46289 17.0789 3.47457 17.082 3.48564C17.0943 3.53114 17.098 3.56065 17.098 3.56065C17.098 3.56065 16.6342 3.6412 16.1809 4.06978C15.9361 4.30098 15.7493 4.65761 15.629 4.93615C15.6093 4.98227 15.5914 5.02592 15.5753 5.06651C15.5272 5.18825 15.4958 5.28294 15.4816 5.3266C15.4761 5.34443 15.3971 5.35253 15.3971 5.35253C15.3971 5.35253 15.3739 5.28821 15.3233 5.22304C15.229 5.10067 15.1215 4.91524 14.86 4.70557C14.5232 4.43502 14.0546 4.17062 13.4668 4.10975C13.3238 4.09499 13.1745 4.09191 13.0179 4.10421C11.4508 4.22596 9.79684 5.44097 9.06543 6.27475C8.33402 7.10792 6.6794 10.3717 7.34112 14.0696C7.65996 15.8516 8.31736 17.034 9.15176 17.8069C9.79314 18.4015 10.5387 18.7538 11.317 18.95C11.6272 19.0287 11.9423 19.0816 12.2575 19.116C12.6645 19.1603 13.0197 19.1707 13.3293 19.1578C14.6454 19.1037 15.1112 18.5683 15.2802 18.4748C15.4886 18.3592 15.8494 18.2428 15.5823 17.5252C15.3622 16.9331 16.1242 16.268 16.5861 16.5324C16.6842 16.5877 16.8464 16.7118 16.9006 16.8594C16.9099 16.8833 16.9179 16.9079 16.9253 16.9313C16.9278 16.9393 16.9302 16.9473 16.9321 16.9553V16.9547Z" fill="url(#paint0_linear_2355_2159)"/>
<path d="M17.0975 18.3096C16.9557 18.4781 16.7947 18.6208 16.6461 18.7327C16.4852 18.8538 16.175 19.0659 15.7611 19.2873C14.9847 19.7017 13.8426 20.1463 12.6406 20.0762C13.6508 20.0196 14.5845 19.6421 15.2505 19.2873C15.6643 19.0659 15.9745 18.8538 16.1355 18.7327C16.2841 18.6208 16.4451 18.4781 16.5869 18.3096C16.8817 17.9585 17.0926 17.4937 16.9329 16.9538C16.931 16.9458 16.9286 16.9378 16.9261 16.9298C16.9187 16.9065 16.7578 16.7282 16.7486 16.7043C16.6943 16.5567 16.4582 16.5005 16.3601 16.4452C16.6487 16.3216 17.2733 16.4834 17.4121 16.8579C17.4213 16.8819 17.4293 16.9065 17.4367 16.9298C17.4392 16.9378 17.4417 16.9458 17.4435 16.9538C17.6032 17.4937 17.3923 17.9585 17.0975 18.3096Z" fill="url(#paint1_linear_2355_2159)"/>
<path d="M17.5251 4.01096C17.5251 4.01096 17.0613 4.09151 16.6081 4.52008C16.3231 4.7894 16.1165 5.22843 16.0025 5.51681C15.9352 5.68713 15.9001 5.80458 15.9001 5.80458C15.9001 5.80458 15.7269 5.60924 15.4531 5.35222C15.4673 5.30857 15.5276 5.18723 15.5757 5.06549C15.6898 4.7771 15.8964 4.33808 16.1813 4.06876C16.6346 3.64018 17.0983 3.55963 17.0983 3.55963C17.0983 3.55963 17.0194 3.32578 17.0071 3.28028C17.004 3.26921 16.7956 3.07675 16.7913 3.06445C17.0867 3.15607 17.4739 3.80497 17.5091 3.93594C17.5214 3.98144 17.5251 4.01096 17.5251 4.01096Z" fill="url(#paint2_linear_2355_2159)"/>
<path d="M14.8603 4.70468C14.5742 4.60999 14.2492 4.55957 13.8878 4.58724C12.3207 4.70714 10.6661 5.90678 9.93472 6.7295C9.20331 7.5516 7.54931 10.7736 8.21103 14.4242C8.68158 17.0214 9.89032 18.3293 11.3174 18.9491C9.52831 18.4978 7.90577 17.2206 7.34148 14.0688C6.67976 10.3708 8.33438 7.10704 9.06579 6.27387C9.7972 5.44009 11.4512 4.22508 13.0182 4.10333C13.8187 4.04123 14.4422 4.36896 14.8603 4.70468Z" fill="url(#paint3_linear_2355_2159)"/>
<path d="M12.3363 20.0802C12.1964 20.0802 12.0577 20.0734 11.9221 20.0599C11.1268 19.9826 10.5616 19.912 10.0284 19.7813H10.0191L10.0155 19.7782C9.06922 19.5469 8.32486 19.1407 7.44673 18.3773C7.38475 18.3239 7.33136 18.2754 7.28288 18.2288C6.24643 17.2506 5.82669 16.065 5.45605 15.0188C5.33577 14.6794 5.22225 14.3585 5.09338 14.0572C5.03018 13.9093 4.95531 13.7718 4.87063 13.6491C4.75588 13.4822 4.62149 13.3374 4.47053 13.2196C4.41162 13.1729 4.3478 13.1294 4.28152 13.0901C4.18395 13.0324 4.08148 12.9839 3.97715 12.9459C3.65744 12.8293 3.40523 12.8403 3.40217 12.8403L3.36719 12.8422L3.37026 12.8072C3.37148 12.7894 3.41321 12.3709 4.04527 12.0542C4.58405 11.7848 5.121 11.8143 5.26336 11.8278C5.2603 11.675 5.26336 11.0583 5.47385 10.3974C5.49716 10.325 5.52355 10.2305 5.55423 10.12C5.84204 9.09645 6.60603 6.37675 9.43618 4.48978C11.0587 3.40915 12.529 3.2318 13.4777 3.27353C14.3742 3.31342 14.983 3.5509 15.1198 3.60981C15.1327 3.58158 15.1566 3.53679 15.1959 3.48278C15.3254 3.30605 15.5892 3.07287 16.1115 2.96241C16.2949 2.92375 16.4582 2.92682 16.5969 2.97161C16.8754 3.06243 16.9902 3.3036 17.0332 3.43922C17.0368 3.44903 17.0393 3.45947 17.0424 3.46928L17.0442 3.47542C17.0571 3.52267 17.0608 3.55335 17.0608 3.55458L17.0645 3.58342L17.0356 3.58833C17.0313 3.58895 16.5772 3.67302 16.1391 4.08846C15.8961 4.31857 15.7101 4.68001 15.5972 4.94266C15.5776 4.98807 15.5604 5.03164 15.5444 5.07214C15.5107 5.15866 15.4782 5.24764 15.4518 5.32987L15.4236 5.42008L15.388 5.36485C15.388 5.36485 15.3628 5.32557 15.3137 5.26298C15.229 5.15314 15.0486 4.93713 14.7841 4.72481C14.3626 4.38546 13.9017 4.18725 13.4139 4.13693C13.2678 4.12159 13.1193 4.11975 12.9726 4.13141C11.3882 4.25476 9.73196 5.51949 9.06063 6.28716C8.66605 6.73758 8.08922 7.78017 7.68912 9.09338C7.33811 10.2452 6.99508 12.0389 7.35223 14.0406C7.64248 15.6692 8.2457 16.918 9.1447 17.7532C9.72521 18.2932 10.4456 18.6743 11.2857 18.8866C11.5778 18.9609 11.8822 19.0149 12.2172 19.0517C12.5952 19.0928 12.9524 19.1069 13.2789 19.0934C14.3988 19.0474 14.9216 18.6902 15.145 18.5374C15.183 18.5117 15.2125 18.4914 15.237 18.4779L15.2658 18.462C15.4702 18.3503 15.7795 18.1809 15.5346 17.5219C15.4291 17.2377 15.5444 16.899 15.8273 16.6591C16.0869 16.4394 16.3956 16.3786 16.6146 16.5038C16.7251 16.5664 16.8086 16.6726 16.8626 16.8192C16.8718 16.8432 16.8797 16.8683 16.8877 16.8922C16.8902 16.9008 16.8926 16.9094 16.8951 16.9174C17.0319 17.3832 16.911 17.8606 16.5447 18.2981C16.4171 18.4503 16.2643 18.5939 16.0906 18.7252C15.9783 18.8099 15.6672 19.0339 15.2057 19.2812C14.5908 19.6095 13.6391 20.0133 12.5959 20.0722C12.5087 20.0771 12.4222 20.0795 12.3357 20.0795L12.3363 20.0802ZM10.0449 19.7224C10.5745 19.8519 11.1366 19.9218 11.9276 19.9985C12.1436 20.02 12.3676 20.0237 12.5922 20.0108C13.6243 19.9531 14.5669 19.5524 15.1763 19.2272C15.634 18.9817 15.9415 18.7602 16.0525 18.6761C16.2225 18.5479 16.3723 18.4073 16.4968 18.2588C16.8546 17.8317 16.9681 17.3856 16.8349 16.934V16.9321C16.8325 16.9248 16.8307 16.918 16.8282 16.9107C16.8208 16.888 16.8135 16.864 16.8043 16.8407C16.7558 16.7075 16.6815 16.6124 16.5834 16.5566C16.3876 16.4443 16.1059 16.5026 15.8666 16.7051C15.6666 16.8745 15.4745 17.1837 15.5917 17.4998C15.855 18.2085 15.5039 18.4006 15.2947 18.5147L15.2658 18.5307C15.2438 18.543 15.2149 18.5626 15.1787 18.5871C14.951 18.7424 14.4184 19.1063 13.2807 19.1535C12.9512 19.167 12.591 19.1535 12.2093 19.1118C11.8711 19.075 11.5637 19.0204 11.2691 18.9455C10.4186 18.7307 9.68962 18.3441 9.10113 17.7974C8.19231 16.953 7.58296 15.6926 7.29025 14.0504C6.93065 12.0364 7.27613 10.2329 7.62898 9.07436C8.03154 7.75256 8.6145 6.70138 9.01276 6.24543C9.69084 5.47039 11.3637 4.194 12.9665 4.06882C13.1168 4.05716 13.269 4.059 13.4188 4.07434C13.9189 4.1265 14.3902 4.32839 14.821 4.67572C15.0897 4.89234 15.2744 5.11202 15.3603 5.22371C15.3763 5.24457 15.3904 5.26298 15.4015 5.27832C15.426 5.20407 15.4549 5.12491 15.4849 5.0482C15.5009 5.0077 15.5187 4.96352 15.5389 4.9175C15.6543 4.64933 15.8445 4.27991 16.0955 4.04243C16.4876 3.67056 16.8828 3.55826 16.9939 3.53249C16.9914 3.52083 16.9884 3.50672 16.9835 3.48953L16.9816 3.4834C16.9792 3.47481 16.9767 3.4656 16.9736 3.4564C16.9252 3.3036 16.8165 3.106 16.5766 3.02746C16.4483 2.98573 16.2956 2.98327 16.1231 3.01948C15.6199 3.12625 15.3677 3.3484 15.2444 3.51654C15.1848 3.59876 15.164 3.65767 15.164 3.65767L15.1529 3.6902L15.1216 3.67547C15.1155 3.6724 14.4785 3.37662 13.4734 3.33244C12.5351 3.29071 11.0777 3.46683 9.4687 4.5401C6.65757 6.41419 5.89788 9.11793 5.61192 10.136C5.58062 10.2464 5.55423 10.3415 5.53091 10.4152C5.29221 11.1626 5.32412 11.853 5.32412 11.8597L5.32596 11.8971L5.28914 11.8916C5.283 11.891 4.67856 11.8045 4.07166 12.1076C3.57399 12.3568 3.46046 12.674 3.43653 12.7771C3.52121 12.7783 3.73538 12.7912 3.99679 12.887C4.10479 12.9262 4.21096 12.9766 4.31159 13.0361C4.38032 13.0772 4.44598 13.122 4.50673 13.1705C4.6626 13.2926 4.80129 13.4417 4.91911 13.6135C5.00624 13.7399 5.08295 13.8805 5.148 14.0326C5.27748 14.3352 5.39162 14.6567 5.51251 14.9973C5.88069 16.0368 6.29798 17.215 7.324 18.1834C7.37186 18.2288 7.42464 18.2766 7.486 18.33C8.358 19.0885 9.09683 19.4911 10.0357 19.7193L10.0443 19.7212L10.0449 19.7224Z" fill="url(#paint4_linear_2355_2159)"/>
<defs>
<linearGradient id="paint0_linear_2355_2159" x1="10.2492" y1="2.9668" x2="10.2492" y2="20.0847" gradientUnits="userSpaceOnUse">
<stop stop-color="#F6EA6E"/>
<stop offset="1" stop-color="#87440D"/>
</linearGradient>
<linearGradient id="paint1_linear_2355_2159" x1="15.0695" y1="16.4972" x2="15.0695" y2="20.0835" gradientUnits="userSpaceOnUse">
<stop stop-color="#693F15"/>
<stop offset="1" stop-color="#332309"/>
</linearGradient>
<linearGradient id="paint2_linear_2355_2159" x1="16.5035" y1="3.44957" x2="16.5035" y2="5.80458" gradientUnits="userSpaceOnUse">
<stop stop-color="#583306"/>
<stop offset="1" stop-color="#9E6F0F"/>
</linearGradient>
<linearGradient id="paint3_linear_2355_2159" x1="11.0244" y1="4.0957" x2="11.0244" y2="18.9491" gradientUnits="userSpaceOnUse">
<stop offset="0.0446723" stop-color="#6D5108"/>
<stop offset="0.307089" stop-color="#FBB12E"/>
<stop offset="0.595747" stop-color="#6E4B07"/>
<stop offset="0.791671" stop-color="#BC780C"/>
<stop offset="1" stop-color="#33200F"/>
</linearGradient>
<linearGradient id="paint4_linear_2355_2159" x1="10.2158" y1="2.93555" x2="10.2158" y2="20.0802" gradientUnits="userSpaceOnUse">
<stop stop-color="#FCE36F"/>
<stop offset="0.0937422" stop-color="#FFE367"/>
<stop offset="0.46354" stop-color="#B0761C"/>
<stop offset="1" stop-color="#A5611F"/>
</linearGradient>
</defs>
</svg>
