<svg width="24" height="24" viewBox="0 0 24 24" fill="none" xmlns="http://www.w3.org/2000/svg">
<g clip-path="url(#clip0_2595_2587)">
<rect width="24" height="24" rx="4" fill="white"/>
<rect width="24" height="24" fill="black"/>
<g filter="url(#filter0_d_2595_2587)">
<path fill-rule="evenodd" clip-rule="evenodd" d="M17.8259 8.6203L12.1812 5.50946C12.0685 5.44737 11.9319 5.44737 11.8192 5.50946L6.17447 8.6203C6.0548 8.68626 5.98047 8.81209 5.98047 8.94873V15.0516C5.98047 15.1883 6.0548 15.3141 6.17447 15.3801L11.8192 18.4909C11.9319 18.553 12.0685 18.553 12.1812 18.4909L17.8259 15.3801C17.9456 15.3141 18.0199 15.1883 18.0199 15.0516V8.94873C18.0199 8.81208 17.9456 8.68626 17.8259 8.6203ZM12.7242 4.52418C12.2735 4.27579 11.7269 4.27579 11.2762 4.52418L5.63147 7.63502C5.15278 7.89884 4.85547 8.40215 4.85547 8.94873V15.0516C4.85547 15.5982 5.15278 16.1015 5.63147 16.3653L11.2762 19.4762C11.7269 19.7246 12.2735 19.7246 12.7242 19.4762L18.3689 16.3653C18.8476 16.1015 19.1449 15.5982 19.1449 15.0516V8.94873C19.1449 8.40215 18.8476 7.89884 18.3689 7.63502L12.7242 4.52418Z" fill="#FC8E01"/>
</g>
<g filter="url(#filter1_d_2595_2587)">
<path fill-rule="evenodd" clip-rule="evenodd" d="M17.8616 8.15035L12.5417 5.22514C12.2042 5.03954 11.7951 5.03954 11.4576 5.22514L6.13764 8.15035C5.77808 8.34805 5.55469 8.72583 5.55469 9.13615V14.8621C5.55469 15.2724 5.77808 15.6502 6.13764 15.8479L11.4576 18.7731C11.7951 18.9587 12.2042 18.9587 12.5417 18.7731L17.8616 15.8479C18.2212 15.6502 18.4446 15.2724 18.4446 14.8621V9.13615C18.4446 8.72583 18.2212 8.34805 17.8616 8.15035ZM12.7224 4.89653C12.2723 4.64907 11.727 4.64907 11.2769 4.89653L5.95695 7.82175C5.47755 8.08535 5.17969 8.58905 5.17969 9.13615V14.8621C5.17969 15.4092 5.47755 15.9129 5.95695 16.1765L11.2769 19.1017C11.727 19.3492 12.2723 19.3492 12.7224 19.1017L18.0423 16.1765C18.5217 15.9129 18.8196 15.4092 18.8196 14.8621V9.13615C18.8196 8.58906 18.5217 8.08535 18.0423 7.82175L12.7224 4.89653Z" fill="#FFD300"/>
</g>
</g>
<defs>
<filter id="filter0_d_2595_2587" x="2.85547" y="2.33789" width="18.2891" height="19.3242" filterUnits="userSpaceOnUse" color-interpolation-filters="sRGB">
<feFlood flood-opacity="0" result="BackgroundImageFix"/>
<feColorMatrix in="SourceAlpha" type="matrix" values="0 0 0 0 0 0 0 0 0 0 0 0 0 0 0 0 0 0 127 0" result="hardAlpha"/>
<feOffset/>
<feGaussianBlur stdDeviation="1"/>
<feComposite in2="hardAlpha" operator="out"/>
<feColorMatrix type="matrix" values="0 0 0 0 0.988235 0 0 0 0 0.556863 0 0 0 0 0.00392157 0 0 0 0.6 0"/>
<feBlend mode="normal" in2="BackgroundImageFix" result="effect1_dropShadow_2595_2587"/>
<feBlend mode="normal" in="SourceGraphic" in2="effect1_dropShadow_2595_2587" result="shape"/>
</filter>
<filter id="filter1_d_2595_2587" x="-0.820312" y="-1.28906" width="25.6396" height="26.5762" filterUnits="userSpaceOnUse" color-interpolation-filters="sRGB">
<feFlood flood-opacity="0" result="BackgroundImageFix"/>
<feColorMatrix in="SourceAlpha" type="matrix" values="0 0 0 0 0 0 0 0 0 0 0 0 0 0 0 0 0 0 127 0" result="hardAlpha"/>
<feOffset/>
<feGaussianBlur stdDeviation="3"/>
<feComposite in2="hardAlpha" operator="out"/>
<feColorMatrix type="matrix" values="0 0 0 0 0.988235 0 0 0 0 0.556863 0 0 0 0 0.00392157 0 0 0 1 0"/>
<feBlend mode="normal" in2="BackgroundImageFix" result="effect1_dropShadow_2595_2587"/>
<feBlend mode="normal" in="SourceGraphic" in2="effect1_dropShadow_2595_2587" result="shape"/>
</filter>
<clipPath id="clip0_2595_2587">
<rect width="24" height="24" rx="4" fill="white"/>
</clipPath>
</defs>
</svg>
