<svg width="24" height="24" viewBox="0 0 24 24" fill="none" xmlns="http://www.w3.org/2000/svg">
<g clip-path="url(#clip0_2572_2871)">
<path d="M12 24C18.6274 24 24 18.6274 24 12C24 5.37258 18.6274 0 12 0C5.37258 0 0 5.37258 0 12C0 18.6274 5.37258 24 12 24Z" fill="#F7F8FA"/>
<path d="M12.1296 7.64942V3.85742C7.6376 3.85742 4 7.49522 4 11.987C4 16.479 7.6378 20.117 12.1296 20.117V16.325C9.732 16.325 7.792 14.3848 7.792 11.987C7.792 9.58962 9.732 7.64942 12.1296 7.64942Z" fill="#000426"/>
<path d="M16.4829 7.64942C16.2339 7.64942 15.9873 7.60042 15.7573 7.50502C15.5273 7.40982 15.3181 7.27022 15.1421 7.09402C14.9661 6.91802 14.8265 6.70902 14.7311 6.47902C14.6359 6.24902 14.5869 6.00242 14.5869 5.75342C14.5869 5.50442 14.6359 5.25782 14.7311 5.02782C14.8265 4.79782 14.9661 4.58882 15.1421 4.41282C15.3181 4.23662 15.5273 4.09702 15.7573 4.00182C15.9873 3.90642 16.2339 3.85742 16.4829 3.85742C16.9857 3.85742 17.4679 4.05722 17.8235 4.41282C18.1791 4.76842 18.3789 5.25062 18.3789 5.75342C18.3789 6.25622 18.1791 6.73862 17.8235 7.09402C17.4679 7.44962 16.9857 7.64942 16.4829 7.64942Z" fill="#00D8D5"/>
<path d="M16.4517 20.1182C15.9489 20.1182 15.4667 19.9184 15.1111 19.5628C14.7555 19.2074 14.5557 18.725 14.5557 18.2222C14.5557 17.7194 14.7555 17.237 15.1111 16.8816C15.4667 16.526 15.9489 16.3262 16.4517 16.3262C16.9547 16.3262 17.4369 16.526 17.7925 16.8816C18.1481 17.237 18.3477 17.7194 18.3477 18.2222C18.3477 18.725 18.1481 19.2074 17.7925 19.5628C17.4369 19.9184 16.9547 20.1182 16.4517 20.1182Z" fill="#FF4C8B"/>
<path d="M16.4677 11.9882C16.4677 14.386 14.5277 16.3262 12.1299 16.3262V7.65039C14.5275 7.65039 16.4677 9.59039 16.4677 11.988" fill="#000426"/>
</g>
<defs>
<clipPath id="clip0_2572_2871">
<rect width="24" height="24" fill="white"/>
</clipPath>
</defs>
</svg>
