<svg width="25" height="24" viewBox="0 0 25 24" fill="none" xmlns="http://www.w3.org/2000/svg">
<g clip-path="url(#clip0_720_13964)">
<path d="M13.8715 12.5664L18.0157 16.7744C18.095 16.8553 18.1563 16.9524 18.1957 17.0592C18.2351 17.1661 18.2516 17.2803 18.2442 17.3941C18.2367 17.5079 18.2055 17.6188 18.1525 17.7195C18.0995 17.8201 18.026 17.9081 17.9369 17.9776C16.831 18.8596 15.5027 19.4076 14.1043 19.5587C12.7059 19.7099 11.2938 19.4581 10.0297 18.8322C8.76571 18.2063 7.7008 17.2316 6.95694 16.0198C6.21309 14.8079 5.8204 13.4079 5.82378 11.9799C5.82716 10.5519 6.22654 9.15378 6.97614 7.9456C7.72571 6.73738 8.79527 5.76793 10.0623 5.14825C11.3293 4.52858 12.7425 4.28371 14.1402 4.44171C15.5379 4.59971 16.8636 5.15415 17.9653 6.0416C18.0502 6.11236 18.1195 6.20051 18.1685 6.30025C18.2176 6.4 18.2455 6.50916 18.2502 6.62058C18.2549 6.73196 18.2365 6.84316 18.1961 6.94684C18.1557 7.05055 18.0943 7.14444 18.0157 7.2224L13.8684 11.4336C13.7955 11.5079 13.7376 11.5959 13.6982 11.6928C13.658 11.7945 13.6377 11.9032 13.6383 12.0128C13.6371 12.1228 13.6585 12.2318 13.7013 12.3328C13.74 12.4301 13.7979 12.5183 13.8715 12.592V12.5664ZM12.9197 0C10.5823 0 8.29742 0.703789 6.35393 2.02236C4.41043 3.34094 2.89566 5.21509 2.00117 7.40778C1.10668 9.60051 0.872644 12.0133 1.32865 14.3411C1.78466 16.6689 2.91023 18.8071 4.56303 20.4853C6.21582 22.1635 8.32164 23.3064 10.6141 23.7694C12.9067 24.2324 15.2829 23.9948 17.4424 23.0865C19.6019 22.1783 21.4476 20.6402 22.7462 18.6668C24.0448 16.6935 24.7379 14.3734 24.7379 12C24.7379 8.81742 23.4928 5.76516 21.2765 3.51472C19.0601 1.26428 16.0541 0 12.9197 0Z" fill="#69E2DC"/>
</g>
<defs>
<clipPath id="clip0_720_13964">
<rect width="24" height="24" fill="white" transform="translate(0.738281)"/>
</clipPath>
</defs>
</svg>
