<svg width="24" height="24" viewBox="0 0 24 24" fill="none" xmlns="http://www.w3.org/2000/svg">
<g clip-path="url(#clip0_1746_2365)">
<path d="M21.2257 18.5919C20.6518 18.5919 20.1649 18.9919 20.0431 19.5485L15.4779 19.3311C15.4953 19.2441 15.504 19.1572 15.504 19.0702C15.504 18.9137 15.4779 18.7572 15.4344 18.6006L17.0953 17.6441C17.504 18.1485 18.2431 18.2528 18.7736 17.8702C19.304 17.4876 19.4431 16.7572 19.0866 16.2093C18.7301 15.6615 18.0083 15.4876 17.4431 15.8093C16.8779 16.1311 16.6605 16.8441 16.9562 17.4267L15.3475 18.3572C14.9649 17.5485 14.017 17.1832 13.191 17.5224C12.3649 17.8615 11.9475 18.7919 12.2431 19.6354L9.25182 20.3572C9.23443 19.9485 9.06052 19.5659 8.77356 19.2702L9.31269 18.5224C9.92139 18.7311 10.591 18.4267 10.8344 17.8267C11.0779 17.2267 10.8083 16.5398 10.2257 16.2702C9.64313 15.9919 8.93878 16.2267 8.63443 16.7919C8.33008 17.3572 8.52139 18.0702 9.06921 18.4093L8.57356 19.0963C8.22574 18.8354 7.78226 18.7224 7.34747 18.7746L6.83443 15.8441C7.47791 15.705 7.97356 15.2006 8.11269 14.5659C8.25182 13.9224 8.00834 13.2615 7.4866 12.8702C6.96487 12.4702 6.26052 12.418 5.6866 12.7224L4.39095 10.1919C4.66921 10.0528 4.8953 9.83542 5.06052 9.57455L6.13878 9.86151C6.13008 9.92238 6.12139 9.97455 6.12139 10.0354C6.12139 10.6615 6.59965 11.1919 7.22574 11.2528C7.85182 11.3137 8.42574 10.8876 8.53878 10.2615C8.65182 9.63542 8.27791 9.03542 7.66921 8.8702C7.06052 8.69629 6.42574 9.01803 6.19965 9.60933L5.18226 9.33977C5.32139 9.00933 5.34747 8.64412 5.26052 8.29629L8.26052 6.91368C8.81704 7.60933 9.82574 7.75716 10.5562 7.23542C11.2866 6.71368 11.4779 5.71368 10.991 4.96586L12.904 3.09629C13.1388 3.24412 13.4083 3.33977 13.6779 3.35716V4.18325C13.0431 4.25281 12.5649 4.80933 12.5996 5.45281C12.6344 6.09629 13.1649 6.60064 13.8083 6.60064C14.4518 6.60064 14.9823 6.09629 15.017 5.45281C15.0518 4.80933 14.5823 4.25281 13.9388 4.18325V3.35716C14.1823 3.33977 14.4083 3.2702 14.617 3.15716L16.7127 5.54846C16.2257 6.19194 16.2605 7.08759 16.791 7.68759C17.3301 8.28759 18.217 8.42673 18.9127 8.00933C19.6083 7.59194 19.904 6.74846 19.6344 5.99194L20.2866 5.62673C20.704 6.11368 21.4257 6.20064 21.9388 5.80933C22.4518 5.42673 22.5736 4.70499 22.217 4.17455C21.8605 3.64412 21.1475 3.4789 20.5996 3.80933C20.0518 4.13977 19.8518 4.83542 20.1475 5.40933L19.5301 5.75716C19.2779 5.29629 18.8257 4.98325 18.3127 4.90499C17.7996 4.82673 17.2692 4.99194 16.8953 5.35716L14.8431 3.01803C15.0431 2.86151 15.2083 2.65281 15.3214 2.42672L17.1214 2.72238C17.2605 3.34846 17.8692 3.75716 18.4953 3.64412C19.1301 3.53977 19.5649 2.95716 19.4953 2.32238C19.4257 1.68759 18.8692 1.20933 18.2344 1.24412C17.591 1.2789 17.0953 1.80064 17.0866 2.44412L15.417 2.16586C15.6518 1.36586 15.2692 0.513681 14.5127 0.15716C13.7562 -0.199362 12.8605 0.0615075 12.3996 0.75716C11.9388 1.45281 12.0605 2.38325 12.6866 2.93977L10.8257 4.75716C10.5388 4.42672 10.1301 4.21803 9.6953 4.18325V2.91368C10.3301 2.84412 10.8083 2.28759 10.7736 1.64412C10.7388 1.00064 10.217 0.504986 9.57356 0.504986C8.93008 0.504986 8.39965 1.00933 8.36487 1.65281C8.33008 2.29629 8.79965 2.85281 9.44313 2.92238V4.18325C8.86921 4.22673 8.35617 4.56586 8.08661 5.0702C7.81704 5.58325 7.82574 6.19194 8.11269 6.69629L5.19095 8.03542C5.0866 7.78325 4.92139 7.56586 4.71269 7.39194L5.85182 5.33977C5.95617 5.36586 6.05182 5.38325 6.15617 5.38325C6.77356 5.38325 7.2866 4.92238 7.36487 4.31368C7.44313 3.70499 7.04313 3.13977 6.45182 2.99194C5.85182 2.84412 5.24313 3.16586 5.02574 3.73977C4.80834 4.31368 5.06052 4.95716 5.59965 5.24412L4.4953 7.24412C3.82574 6.84412 2.98226 6.95716 2.43443 7.51368C1.8953 8.0702 1.79965 8.91368 2.20834 9.57455C2.61704 10.2354 3.41704 10.5311 4.15617 10.2963L5.46921 12.8615C5.13878 13.105 4.904 13.4702 4.82574 13.8702L3.86921 13.5919C3.8953 13.4963 3.904 13.3919 3.904 13.2963C3.904 12.6789 3.44313 12.1659 2.83443 12.0963C2.22574 12.0267 1.66052 12.418 1.51269 13.018C1.36487 13.618 1.6953 14.2267 2.27791 14.4354C2.85182 14.6441 3.4953 14.3919 3.77356 13.8441L4.79095 14.1398C4.79095 14.1659 4.79095 14.1919 4.79095 14.218C4.79095 14.7919 5.07791 15.3224 5.56487 15.6267L4.91269 16.4789C4.43443 16.0528 3.704 16.0789 3.25182 16.5398C2.79965 17.0006 2.78226 17.7224 3.21704 18.2006C3.65182 18.6789 4.37356 18.7311 4.87791 18.3224C5.38226 17.9137 5.46921 17.1919 5.0953 16.6702L5.79965 15.7485C6.00834 15.8441 6.24313 15.8876 6.47791 15.8876C6.51269 15.8876 6.54747 15.8876 6.58226 15.8789L7.104 18.8267C6.40834 19.0354 5.92139 19.6702 5.8953 20.3919C5.87791 21.1224 6.33008 21.7746 7.01704 22.018C7.704 22.2615 8.46921 22.0354 8.91269 21.4528L11.3475 22.5398C11.3301 22.6267 11.3127 22.7224 11.3127 22.8093C11.3127 23.4267 11.7736 23.9485 12.391 24.018C13.0083 24.0876 13.5736 23.6876 13.7127 23.0876C13.8518 22.4876 13.5127 21.8789 12.9301 21.6702C12.3475 21.4615 11.704 21.7311 11.4344 22.2876L9.06052 21.2267C9.16487 21.0354 9.23443 20.8267 9.25182 20.6093L12.3475 19.8528C12.5823 20.2876 12.9996 20.5919 13.4866 20.6963C13.9736 20.7919 14.4779 20.6702 14.8605 20.3659L16.017 21.3659C15.7475 21.9572 15.9823 22.6528 16.5562 22.9485C17.1301 23.2528 17.8344 23.0528 18.1649 22.4963C18.4953 21.9398 18.3388 21.2267 17.8083 20.8615C17.2692 20.4963 16.5475 20.618 16.1562 21.1311L15.0518 20.1832C15.217 20.0093 15.3388 19.7919 15.417 19.5659L20.017 19.7919C20.0257 20.4615 20.5649 20.9919 21.2344 20.9919C21.904 20.9919 22.4431 20.4441 22.4344 19.7832C22.4344 19.1311 21.8953 18.5919 21.2257 18.5919Z" fill="#FF473E"/>
</g>
<defs>
<clipPath id="clip0_1746_2365">
<rect width="24" height="24" fill="white"/>
</clipPath>
</defs>
</svg>
