<svg width="24" height="24" viewBox="0 0 24 24" fill="none" xmlns="http://www.w3.org/2000/svg">
<g clip-path="url(#clip0_2355_2166)">
<circle cx="12" cy="12" r="12" fill="#171B20"/>
<path d="M19.7931 7.49518C19.2773 7.79503 18.7804 8.08301 18.2583 8.38682C16.7986 6.10906 14.755 4.84161 12.0373 4.80522C9.93759 4.77674 8.16538 5.58056 6.71834 7.09564C3.9192 10.0261 4.20639 14.8427 7.34731 17.5026C10.5911 20.2495 15.7637 19.6949 18.2583 15.6189C18.7638 15.9108 19.2702 16.2035 19.7749 16.4955C18.3144 19.2883 14.5912 21.6491 10.3514 20.8706C6.29823 20.1261 3.16996 16.5841 2.98721 12.504C2.79416 8.16925 5.50865 4.42546 9.67176 3.28539C13.5595 2.22127 17.9268 4.01801 19.7923 7.49518H19.7931Z" fill="white"/>
<path d="M20.9999 11.0852V12.8748C20.8385 12.8819 20.6866 12.8954 20.5347 12.8954C18.3471 12.8969 16.1596 12.8985 13.9728 12.893C13.7228 12.893 13.5471 12.9389 13.3707 13.158C12.7228 13.9642 11.5265 14.0251 10.7717 13.3234C9.99956 12.6058 9.99007 11.4001 10.752 10.6817C11.5052 9.97122 12.6895 10.0226 13.3549 10.8241C13.5321 11.0369 13.7085 11.0891 13.9593 11.0883C16.1469 11.082 18.3345 11.0852 20.5213 11.0852C20.6755 11.0852 20.829 11.0852 20.9999 11.0852Z" fill="white"/>
</g>
<defs>
<clipPath id="clip0_2355_2166">
<rect width="23.9768" height="24" fill="white"/>
</clipPath>
</defs>
</svg>
