<svg width="24" height="24" viewBox="0 0 24 24" fill="none" xmlns="http://www.w3.org/2000/svg">
<g clip-path="url(#clip0_2026_1498)">
<path fill-rule="evenodd" clip-rule="evenodd" d="M10.9091 21.7585V18.4549C7.81374 17.935 5.45455 15.2429 5.45455 12C5.45455 8.7571 7.81374 6.06499 10.9091 5.5451V2.24148C6 2.78374 2.18182 6.94602 2.18182 12C2.18182 17.054 6 21.2163 10.9091 21.7585ZM21.8182 12C21.8182 17.054 18 21.2163 13.0909 21.7585V18.4549C16.1863 17.935 18.5455 15.2429 18.5455 12C18.5455 8.7571 16.1863 6.06499 13.0909 5.5451V2.24148C18 2.78374 21.8182 6.94602 21.8182 12ZM24 12C24 18.6275 18.6275 24 12 24C5.37251 24 0 18.6275 0 12C0 5.37251 5.37251 0 12 0C18.6275 0 24 5.37251 24 12ZM16.3636 12C16.3636 14.4098 14.4098 16.3636 12 16.3636C9.5902 16.3636 7.63636 14.4098 7.63636 12C7.63636 9.5902 9.5902 7.63636 12 7.63636C14.4098 7.63636 16.3636 9.5902 16.3636 12Z" fill="url(#paint0_linear_2026_1498)"/>
</g>
<defs>
<linearGradient id="paint0_linear_2026_1498" x1="24" y1="-1.43051e-06" x2="1.43051e-06" y2="24" gradientUnits="userSpaceOnUse">
<stop stop-color="#96FEFB"/>
<stop offset="1" stop-color="#3958FF"/>
</linearGradient>
<clipPath id="clip0_2026_1498">
<rect width="24" height="24" fill="white"/>
</clipPath>
</defs>
</svg>
