<svg width="24" height="24" viewBox="0 0 24 24" fill="none" xmlns="http://www.w3.org/2000/svg">
<g clip-path="url(#clip0_2215_1923)">
<circle cx="12" cy="12" r="12" fill="#35D07F"/>
<path fill-rule="evenodd" clip-rule="evenodd" d="M9.7002 7.21289C7.54449 7.9751 6 10.0312 6 12.4479C6 15.5136 8.48537 17.9989 11.551 17.9989C13.9677 17.9989 16.0238 16.4544 16.786 14.2986H15.1777C14.5038 15.6165 13.1328 16.5186 11.551 16.5186C9.30277 16.5186 7.48027 14.6961 7.48027 12.4479C7.48027 10.8661 8.38239 9.4951 9.7002 8.82122V7.21289Z" fill="white"/>
<path d="M14.21 3.75L14.25 5.26694H15.25L15.29 3.75H14.21ZM14.25 10.5008L14.21 12H15.29L15.25 10.5008H14.25ZM16.06 6.59758L17.15 6.02097C17.03 5.80215 16.8633 5.5922 16.65 5.39113C16.4433 5.19005 16.1833 5.02742 15.87 4.90323C15.5567 4.77312 15.1733 4.70806 14.72 4.70806C14.2733 4.70806 13.8733 4.78199 13.52 4.92984C13.1667 5.07769 12.89 5.27581 12.69 5.52419C12.49 5.76667 12.39 6.03575 12.39 6.33145C12.39 6.62715 12.45 6.88145 12.57 7.09436C12.6967 7.30726 12.8567 7.48763 13.05 7.63548C13.2433 7.78333 13.4467 7.90457 13.66 7.99919C13.8733 8.09382 14.0667 8.16774 14.24 8.22097C14.5133 8.30968 14.7633 8.40134 14.99 8.49597C15.2167 8.59059 15.4 8.70296 15.54 8.83306C15.68 8.95726 15.75 9.11694 15.75 9.3121C15.75 9.47177 15.7133 9.6078 15.64 9.72016C15.5733 9.82661 15.4667 9.90941 15.32 9.96855C15.18 10.0218 15.0033 10.0484 14.79 10.0484C14.53 10.0484 14.2967 10.004 14.09 9.91532C13.8833 9.8207 13.6967 9.68468 13.53 9.50726C13.3633 9.32984 13.2033 9.11102 13.05 8.85081L12 9.48065C12.1467 9.78226 12.3567 10.0543 12.63 10.2968C12.9033 10.5392 13.22 10.7344 13.58 10.8823C13.94 11.0242 14.3267 11.0952 14.74 11.0952C15.26 11.0952 15.7067 11.0242 16.08 10.8823C16.4533 10.7344 16.74 10.5245 16.94 10.2524C17.1467 9.98038 17.25 9.65806 17.25 9.28548C17.25 9.00753 17.2 8.76801 17.1 8.56694C17 8.35995 16.8633 8.18253 16.69 8.03468C16.5167 7.88683 16.3233 7.75968 16.11 7.65323C15.9033 7.54677 15.69 7.45806 15.47 7.3871C15.19 7.29247 14.9267 7.20376 14.68 7.12097C14.4333 7.03226 14.2333 6.92876 14.08 6.81048C13.9333 6.6922 13.86 6.53844 13.86 6.34919C13.86 6.21317 13.89 6.09785 13.95 6.00323C14.0167 5.9086 14.1167 5.83468 14.25 5.78145C14.3833 5.72231 14.5533 5.69274 14.76 5.69274C14.9667 5.69274 15.1467 5.73414 15.3 5.81694C15.46 5.89382 15.6 6.00027 15.72 6.13629C15.8467 6.27231 15.96 6.42608 16.06 6.59758Z" fill="white"/>
</g>
<defs>
<clipPath id="clip0_2215_1923">
<rect width="24" height="24" fill="white"/>
</clipPath>
</defs>
</svg>
