<svg width="24" height="24" viewBox="0 0 24 24" fill="none" xmlns="http://www.w3.org/2000/svg">
<circle cx="12" cy="12" r="12" fill="white"/>
<path d="M19.4759 10.7134V7.35671H17.7866V5.67836H14.4102V4H11.0341V5.67836H7.65797V7.35671H5.96875V17.4262H7.65697V19.1045H11.0331V20.7829H14.4092V19.1045H17.7866V17.4262H19.4759V14.0698H16.0984V15.7481H14.4102V17.4265H11.0341V15.7481H9.34586V9.03506H11.0341V7.35671H14.4102V9.03506H16.0984V10.7134H19.4759Z" fill="#3A3A3A"/>
<path d="M14.4893 7.27344H13.3135V9.03581H14.4893V7.27344Z" fill="#1682FE"/>
<path d="M11.1104 4H9.93457V5.76237H11.1104V4Z" fill="#1682FE"/>
<path d="M7.73539 5.67969H6.55957V7.44206H7.73539V5.67969Z" fill="#60D8A4"/>
<path d="M6.05781 12.3926H4.87012V17.427H6.05781V12.3926Z" fill="#F4BB3B"/>
<path d="M6.05781 7.35742H4.87012V12.3918H6.05781V7.35742Z" fill="#60D8A4"/>
<path d="M16.1768 8.95117H15.001V10.7135H16.1768V8.95117Z" fill="#1682FE"/>
<path d="M16.1758 14.0703H15V15.8327H16.1758V14.0703Z" fill="#FF5A5A"/>
<path d="M14.4883 15.75H13.3125V17.5124H14.4883V15.75Z" fill="#FF5A5A"/>
<path d="M11.1114 19.0215H9.93555V20.7839H11.1114V19.0215Z" fill="#FF5A5A"/>
<path d="M7.73539 17.3438H6.55957V19.1061H7.73539V17.3438Z" fill="#F4BB3B"/>
</svg>
