<svg width="24" height="24" viewBox="0 0 24 24" fill="none" xmlns="http://www.w3.org/2000/svg">
<rect width="24" height="24" rx="12" fill="black"/>
<path fill-rule="evenodd" clip-rule="evenodd" d="M14.4252 12.4379L17.9711 15.9584C18.0137 16 18.0476 16.0496 18.0709 16.1043C18.0941 16.159 18.1063 16.2177 18.1068 16.277C18.1072 16.3364 18.0958 16.3952 18.0733 16.4502C18.0508 16.5052 18.0176 16.5552 17.9756 16.5975L17.7154 16.8549C17.6423 16.931 17.5457 16.9807 17.4409 16.9961C17.3718 17.0052 17.3014 16.9984 17.2353 16.976C17.1692 16.9537 17.1092 16.9165 17.0601 16.8673L12.73 12.5684C12.6547 12.4938 12.5949 12.4051 12.5542 12.3076C12.5134 12.21 12.4925 12.1054 12.4925 11.9998C12.4925 11.8942 12.5134 11.7896 12.5542 11.6921C12.5949 11.5945 12.6547 11.5059 12.73 11.4313L17.0601 7.13233C17.1022 7.09038 17.1523 7.0571 17.2075 7.03439C17.2626 7.01169 17.3218 7 17.3815 7C17.4412 7 17.5003 7.01169 17.5555 7.03439C17.6106 7.0571 17.6607 7.09038 17.7029 7.13233L17.9711 7.40307C18.0134 7.44495 18.0469 7.49469 18.0698 7.54945C18.0927 7.6042 18.1044 7.6629 18.1044 7.72218C18.1044 7.78146 18.0927 7.84016 18.0698 7.89491C18.0469 7.94967 18.0134 7.99942 17.9711 8.0413L14.4252 11.5627C14.3089 11.679 14.2436 11.8363 14.2436 12.0003C14.2436 12.1642 14.3089 12.3215 14.4252 12.4379ZM9.75762 11.5664L6.21301 8.04499C6.17 8.00328 6.13575 7.9535 6.11227 7.89855C6.08878 7.84359 6.07651 7.78455 6.07618 7.72484C6.07585 7.66514 6.08745 7.60596 6.11033 7.55075C6.1332 7.49553 6.16689 7.44539 6.20944 7.40321L6.46862 7.14489C6.54243 7.06929 6.6391 7.01973 6.7439 7.00375C6.81304 6.99485 6.88332 7.00183 6.94933 7.02415C7.01534 7.04646 7.07531 7.08351 7.12463 7.13246L11.4531 11.4315C11.5283 11.5061 11.588 11.5947 11.6288 11.6923C11.6695 11.7898 11.6905 11.8944 11.6905 12C11.6905 12.1056 11.6695 12.2102 11.6288 12.3078C11.588 12.4053 11.5283 12.494 11.4531 12.5686L7.12463 16.8676C7.08239 16.9096 7.03223 16.9429 6.97702 16.9656C6.92181 16.9883 6.86264 17 6.80288 17C6.74312 17 6.68395 16.9883 6.62875 16.9656C6.57354 16.9429 6.52338 16.9096 6.48113 16.8676L6.21301 16.6013C6.17074 16.5593 6.13722 16.5095 6.11434 16.4547C6.09147 16.3998 6.07969 16.3411 6.07969 16.2817C6.07969 16.2224 6.09147 16.1636 6.11434 16.1088C6.13722 16.0539 6.17074 16.0041 6.21301 15.9622L9.75762 12.4416C9.87387 12.3253 9.9391 12.168 9.9391 12.004C9.9391 11.8401 9.87387 11.6828 9.75762 11.5664Z" fill="white"/>
</svg>
