<svg width="24" height="24" viewBox="0 0 24 24" fill="none" xmlns="http://www.w3.org/2000/svg">
<g clip-path="url(#clip0_2628_3026)">
<path d="M12 0C18.628 0 24 5.37305 24 12C24 18.628 18.628 24 12 24C5.37305 24 0 18.6275 0 12C0 5.37305 5.37305 0 12 0Z" fill="#F5AC37"/>
<path d="M12.4422 12.8415H17.002C17.0992 12.8415 17.1451 12.8415 17.1521 12.7141C17.1894 12.2502 17.1894 11.7836 17.1521 11.3192C17.1521 11.2291 17.1073 11.1918 17.0096 11.1918H7.93477C7.82245 11.1918 7.79221 11.2291 7.79221 11.3344V12.6692C7.79221 12.8415 7.79221 12.8415 7.97203 12.8415H12.4422V12.8415ZM16.6429 9.63172C16.6559 9.5977 16.6559 9.56044 16.6429 9.52696C16.5668 9.36117 16.4766 9.20295 16.3718 9.05445C16.2141 8.80065 16.0284 8.56683 15.8167 8.35676C15.7168 8.22986 15.6012 8.11592 15.4716 8.01926C14.8225 7.46683 14.0509 7.07587 13.2214 6.87931C12.8029 6.78535 12.3752 6.74053 11.9465 6.74431H7.91911C7.80679 6.74431 7.79167 6.78913 7.79167 6.88687V9.5491C7.79167 9.66142 7.79167 9.69166 7.93423 9.69166H16.5889C16.5889 9.69166 16.664 9.67654 16.6791 9.63172H16.6424H16.6429ZM16.6429 14.4016C16.5155 14.3875 16.3869 14.3875 16.2595 14.4016H7.94233C7.83001 14.4016 7.79221 14.4016 7.79221 14.5517V17.1545C7.79221 17.2744 7.79221 17.3047 7.94233 17.3047H11.7823C11.9659 17.3187 12.1495 17.3057 12.3293 17.2674C12.8866 17.2274 13.4347 17.1065 13.9575 16.9072C14.1475 16.8413 14.3311 16.7555 14.5045 16.6523H14.5569C15.457 16.1841 16.1882 15.4487 16.6494 14.5458C16.6494 14.5458 16.7018 14.4324 16.6429 14.4027V14.4016ZM6.28506 18.6541V18.6093V16.8618V16.2695V14.5069C6.28506 14.4091 6.28506 14.3946 6.16517 14.3946H4.5376C4.44742 14.3946 4.41016 14.3946 4.41016 14.2747V12.8496H6.15005C6.24725 12.8496 6.28506 12.8496 6.28506 12.7222V11.3122C6.28506 11.222 6.28506 11.1999 6.16517 11.1999H4.5376C4.44742 11.1999 4.41016 11.1999 4.41016 11.08V9.76024C4.41016 9.67762 4.41016 9.65548 4.53004 9.65548H6.14249C6.25481 9.65548 6.28506 9.65548 6.28506 9.51292V5.47043C6.28506 5.35055 6.28506 5.32031 6.43518 5.32031H12.0599C12.4681 5.33651 12.8737 5.38133 13.2749 5.45531C14.1016 5.60814 14.896 5.90352 15.6223 6.32526C16.104 6.60877 16.5473 6.95113 16.9421 7.34533C17.2391 7.65368 17.5069 7.9874 17.7445 8.34272C17.9805 8.70291 18.1765 9.08793 18.3304 9.49024C18.3493 9.595 18.4498 9.66574 18.5545 9.64792H19.897C20.0692 9.64792 20.0692 9.64792 20.0768 9.81316V11.0433C20.0768 11.1632 20.032 11.1934 19.9116 11.1934H18.8764C18.7716 11.1934 18.7414 11.1934 18.7489 11.3284C18.79 11.7853 18.79 12.2437 18.7489 12.7006C18.7489 12.828 18.7489 12.8431 18.892 12.8431H20.0763C20.1286 12.9106 20.0763 12.9781 20.0763 13.0462C20.0838 13.1331 20.0838 13.2211 20.0763 13.3081V14.2158C20.0763 14.3433 20.039 14.3811 19.9261 14.3811H18.5086C18.4098 14.3622 18.3137 14.4253 18.291 14.5236C17.9535 15.4011 17.4135 16.1879 16.7158 16.8186C16.4609 17.0482 16.1931 17.2642 15.9134 17.4634C15.6131 17.6362 15.321 17.816 15.0132 17.9586C14.4467 18.2135 13.8527 18.4014 13.243 18.5207C12.6641 18.6244 12.0772 18.6714 11.488 18.6633H6.2829V18.6557L6.28506 18.6541Z" fill="#FEFEFD"/>
</g>
<defs>
<clipPath id="clip0_2628_3026">
<rect width="24" height="24" fill="white"/>
</clipPath>
</defs>
</svg>
