<svg width="24" height="24" viewBox="0 0 24 24" fill="none" xmlns="http://www.w3.org/2000/svg">
<g clip-path="url(#clip0_854_296)">
<circle cx="12" cy="12" r="12" fill="white"/>
<path d="M21.4148 18C17.3658 10.3436 6.74572 10.26 2.61493 17.9582C0.229155 14.4019 0.29732 8.43303 4.10092 4.44446C8.09539 0.274602 14.3802 -0.157725 18.7973 3.41246C23.1326 6.92686 24.305 13.356 21.4148 18ZM19.329 13.1049C19.9152 10.6504 18.4292 7.41497 16.0162 5.82512C13.3032 4.05397 9.88131 4.23527 7.35921 6.28534C5.32789 7.94492 4.06003 11.2222 4.71441 13.0631C9.58139 9.98104 14.4347 9.96709 19.329 13.1049Z" fill="url(#paint0_linear_854_296)"/>
<path d="M12.0945 23C9.58981 22.9711 7.36975 22.2622 5.34893 20.8446C4.99316 20.5986 4.922 20.3672 5.07854 19.9477C6.08895 17.0545 8.89248 15.0292 11.9522 15.0003C15.0261 14.9714 17.8865 17.0111 18.9254 19.9187C19.082 20.3672 18.9966 20.5986 18.6266 20.8735C16.6342 22.2478 14.4426 22.9566 12.0945 23Z" fill="#280E36"/>
</g>
<defs>
<linearGradient id="paint0_linear_854_296" x1="12" y1="1" x2="12" y2="18" gradientUnits="userSpaceOnUse">
<stop stop-color="#6F237C"/>
<stop offset="1" stop-color="#301240"/>
</linearGradient>
<clipPath id="clip0_854_296">
<rect width="24" height="24" fill="white"/>
</clipPath>
</defs>
</svg>
