<svg width="24" height="24" viewBox="0 0 24 24" fill="none" xmlns="http://www.w3.org/2000/svg">
<g clip-path="url(#clip0_2068_2143)">
<path fill-rule="evenodd" clip-rule="evenodd" d="M15.0059 0.417306V1.10918C15.0059 1.30376 14.9124 1.46375 14.6194 1.50107C10.7818 1.69934 7.71363 4.76362 7.51041 8.60097C7.49919 8.82283 7.31634 8.99716 7.09419 8.99773H6.3915C6.2526 8.99773 6.01638 8.9215 6.00612 8.62908C6.19743 3.96852 9.91446 0.224733 14.5735 0H14.5902C14.8201 0.000600009 15.0062 0.187323 15.0059 0.417306ZM9.35142 9.00097H8.68173L8.68011 8.99719H8.65254C8.42211 8.98159 8.2479 8.78224 8.26335 8.55177C8.48682 5.17183 11.1784 2.47969 14.5583 2.25564C14.5675 2.2551 14.5767 2.2551 14.5859 2.25564C14.8167 2.25534 15.0042 2.4421 15.0048 2.67295V3.3605C15.0156 3.56717 14.8583 3.74417 14.6518 3.75779C12.0411 3.93363 9.95736 6.00333 9.76386 8.61285C9.74913 8.83024 9.56928 8.9995 9.35142 9.00097ZM15.0043 4.93129V5.62154C15.0043 5.90262 14.7599 6.00426 14.641 6.0183C13.2736 6.1854 12.1951 7.26106 12.0243 8.628C11.9995 8.83882 11.8215 8.99809 11.6092 8.99935H10.9395C10.7098 9.00025 10.5229 8.81497 10.5217 8.58531C10.5208 8.57199 10.5208 8.55861 10.5217 8.54529C10.7374 6.41631 12.4207 4.73272 14.5497 4.51671C14.6593 4.50648 14.7686 4.54027 14.8533 4.61062C14.9381 4.681 14.9914 4.78216 15.0016 4.89184C15.0024 4.90534 15.0024 4.91887 15.0016 4.93237L15.0043 4.93129ZM22.497 14.5987C22.5349 14.8912 22.6948 14.9852 22.8895 14.9852L23.5829 14.982H23.5997C23.8295 14.9729 24.0084 14.7794 23.9997 14.5495C23.7739 9.89054 20.0296 6.17415 15.3691 5.98317C15.0772 5.99343 15.001 6.22965 15.001 6.36858V7.07125C15.001 7.29343 15.1753 7.47653 15.3972 7.48748C19.235 7.69154 22.2991 10.7606 22.497 14.5987ZM14.9978 8.66097C14.9978 8.55012 15.0419 8.4438 15.1204 8.36553C15.1989 8.28723 15.3053 8.2434 15.4161 8.24367C15.4255 8.24316 15.4349 8.24316 15.4442 8.24367C18.8258 8.46594 21.5196 11.1588 21.743 14.5404C21.7581 14.7705 21.5844 14.9696 21.3544 14.9858H21.3268H20.6419C20.4353 14.9966 20.2583 14.8393 20.2447 14.6328C20.0685 12.0218 17.9983 9.93824 15.3886 9.74528C15.1711 9.73109 15.0017 9.55085 15.001 9.33286L14.9978 8.66097ZM18.3782 14.9852H19.0641L19.0669 14.9798C19.08 14.9806 19.0932 14.9806 19.1063 14.9798C19.3345 14.9587 19.5024 14.7567 19.4814 14.5285C19.2654 12.3998 17.5821 10.7167 15.4534 10.501C15.4401 10.5002 15.4267 10.5002 15.4134 10.501C15.3032 10.5015 15.1977 10.5459 15.1201 10.6242C15.0426 10.7026 14.9993 10.8086 14.9999 10.9188V11.5907C15.0007 11.803 15.1603 11.9812 15.3713 12.0052C16.738 12.176 17.8136 13.2542 17.9809 14.6214C17.9955 14.7409 18.0966 14.9852 18.3782 14.9852ZM1.11003 8.99665C1.30461 8.99665 1.4646 9.09016 1.50246 9.38257C1.70073 13.221 4.76577 16.2898 8.60388 16.4928C8.82552 16.5043 8.99952 16.687 9.00009 16.909V17.6117C9.00009 17.7511 8.92386 17.9874 8.63199 17.9971C3.97116 17.8069 0.226228 14.0905 0.000328233 9.43124C-0.00405177 9.32092 0.0355479 9.21337 0.110488 9.13228C0.185398 9.05119 0.289468 9.00316 0.399778 8.99881H0.417058L1.11003 8.99665ZM8.87856 15.616C8.95713 15.5379 9.00141 15.4317 9.00171 15.3209L9.00009 14.6512C8.99943 14.4332 8.83005 14.253 8.61252 14.2387C6.00288 14.0455 3.93282 11.9621 3.75645 9.35122C3.7434 9.14428 3.56622 8.98642 3.35916 8.99719H2.64513C2.53464 9.00493 2.43177 9.05629 2.3592 9.13993C2.2866 9.22357 2.25024 9.33265 2.2581 9.44312C2.48247 12.8232 5.17509 15.5147 8.55525 15.7377H8.58279C8.69361 15.7379 8.80002 15.6942 8.87856 15.616ZM4.93533 8.99665H5.62179C5.9034 8.99665 6.0045 9.24097 6.01908 9.35989C6.18654 10.7271 7.26201 11.8055 8.62875 11.9766C8.83962 12.0005 8.99925 12.1784 9.00009 12.3907V13.0625C9.00039 13.2919 8.81535 13.4784 8.58606 13.4798H8.54658C6.41772 13.2639 4.73427 11.5806 4.51806 9.45179C4.50786 9.34159 4.54209 9.23188 4.61313 9.14704C4.68417 9.0622 4.78614 9.00922 4.89642 8.99989H4.93587L4.93533 8.99665ZM9.38982 22.4965C9.09738 22.5338 9.00387 22.6938 9.00387 22.8884H9.00441V23.5997C9.01377 23.8294 9.20712 24.0081 9.43683 23.9997C14.0957 23.7744 17.8123 20.0305 18.0036 15.3701C17.9934 15.0776 17.7571 15.0014 17.6182 15.0014H16.9156C16.6933 15.0017 16.5103 15.1762 16.4993 15.3982C16.2946 19.2348 13.2267 22.2978 9.38982 22.4965ZM15.328 14.9966C15.4388 14.9966 15.5451 15.0407 15.6233 15.1192C15.7015 15.1977 15.7452 15.3041 15.7448 15.4149V15.4431C15.5231 18.8249 12.8304 21.5192 9.44871 21.743C9.2184 21.7584 9.01896 21.5846 9.00279 21.3543V21.3268V20.6419C8.99199 20.4352 9.14925 20.2582 9.35574 20.2446C11.9664 20.0685 14.05 17.999 14.2437 15.3895C14.2577 15.1718 14.438 15.0021 14.6561 15.0014L15.328 14.9966ZM9.00387 18.3781V19.0625L9.00765 19.0641C9.00687 19.0772 9.00687 19.0904 9.00765 19.1036C9.01713 19.2137 9.07014 19.3157 9.15495 19.3867C9.23976 19.4577 9.34938 19.492 9.45954 19.4819C11.5881 19.2658 13.2714 17.583 13.4881 15.4544V15.4139C13.4869 15.1845 13.3001 14.9995 13.0708 15.0004H12.3989C12.1867 15.0014 12.0087 15.1609 11.9843 15.3717C11.813 16.7384 10.7347 17.8138 9.36765 17.9814C9.24873 17.9955 9.00387 18.0971 9.00387 18.3781Z" fill="#FF5C00"/>
</g>
<defs>
<clipPath id="clip0_2068_2143">
<rect width="24" height="24" fill="white"/>
</clipPath>
</defs>
</svg>
