<svg width="24" height="24" viewBox="0 0 24 24" fill="none" xmlns="http://www.w3.org/2000/svg">
<g clip-path="url(#clip0_720_15987)">
<circle cx="12" cy="12" r="12" fill="white"/>
<path fill-rule="evenodd" clip-rule="evenodd" d="M12.2699 4C16.5323 4 20.0002 7.58876 20.0002 12C20.0002 16.4112 16.5323 20 12.2699 20H8.01059V10.3816H9.97381V17.9806H12.2699C15.4498 17.9806 18.0369 15.2978 18.0369 12C18.0369 8.70224 15.4498 6.01928 12.2699 6.01928H7.59082V4H12.2699Z" fill="#08023A"/>
<path fill-rule="evenodd" clip-rule="evenodd" d="M11.7032 7.14258C14.2382 7.14258 16.3005 9.27562 16.3005 11.8973C16.3005 14.5192 14.2382 16.6523 11.7032 16.6523H10.8982V14.6329H11.7032C13.1556 14.6329 14.3373 13.4058 14.3373 11.8973C14.3373 10.3891 13.1556 9.16194 11.7032 9.16194H6.96323V17.4114H5V7.14258H11.7032Z" fill="#E3AC53"/>
</g>
<defs>
<clipPath id="clip0_720_15987">
<rect width="24" height="24" fill="white"/>
</clipPath>
</defs>
</svg>
