<svg width="24" height="24" viewBox="0 0 24 24" fill="none" xmlns="http://www.w3.org/2000/svg">
<g clip-path="url(#clip0_720_16011)">
<path d="M12 24C18.6274 24 24 18.6274 24 12C24 5.37258 18.6274 0 12 0C5.37258 0 0 5.37258 0 12C0 18.6274 5.37258 24 12 24Z" fill="#FFF706"/>
<path fill-rule="evenodd" clip-rule="evenodd" d="M11.9999 3.12481C11.8085 3.19325 11.6182 3.41024 11.4975 3.69756C11.432 3.85342 11.3297 4.32957 11.3279 4.48655C11.3269 4.57036 11.3201 4.5774 11.2835 4.53192C11.2597 4.50229 11.172 4.42477 11.0887 4.35972C10.9692 4.26651 10.8937 4.23747 10.7323 4.22284C10.5475 4.20603 10.5162 4.21367 10.4137 4.29989C10.2664 4.42385 10.2143 4.6187 10.2378 4.95876C10.2567 5.23219 10.3535 5.53239 10.4805 5.71057C10.5198 5.76581 10.5433 5.82489 10.5328 5.84193C10.5222 5.85897 10.4133 5.89222 10.2907 5.91584C8.68697 6.2245 7.29977 7.17954 6.4047 8.59114C6.17378 8.95537 5.87062 9.54391 5.76857 9.82604C5.57872 10.3512 5.49 10.6121 5.44244 10.7853C5.21328 11.6199 5.04547 12.65 5.03154 13.3078L5.02288 13.7163L5.97388 13.7258L6.92489 13.7353L6.9598 13.6435C6.97893 13.5931 6.99463 13.4549 6.99463 13.3365C6.99463 12.6605 7.32663 11.2832 7.6604 10.5743C7.8753 10.1179 8.22842 9.5897 8.53671 9.26358C8.9536 8.82262 9.64053 8.40175 10.2632 8.20588C10.7884 8.04067 11.1177 7.99867 11.8797 7.99983C12.5019 8.00075 12.6918 8.01395 13.0235 8.07929C13.4496 8.16324 13.8563 8.28775 14.1713 8.43069C14.2787 8.4795 14.3986 8.53386 14.4377 8.5515C14.4768 8.56919 14.5567 8.61522 14.6153 8.65379C14.6739 8.69236 14.7459 8.73492 14.7752 8.74844C15.0555 8.8773 15.7748 9.5628 16.0442 9.95792C16.221 10.217 16.4923 10.718 16.5694 10.9274C16.8748 11.7575 16.9801 12.287 17.0357 13.2722C17.049 13.507 17.0756 13.6921 17.0983 13.7073C17.12 13.7218 17.5535 13.7298 18.0615 13.725L18.9852 13.7163L18.9969 13.3078C19.0143 12.6966 18.9039 11.668 18.7697 11.1907C18.7417 11.0913 18.7188 10.9874 18.7188 10.9597C18.7188 10.8762 18.4528 10.0787 18.3111 9.73723C17.8354 8.59142 17.0337 7.5866 16.0542 6.90842C15.8402 6.7602 15.7156 6.68417 15.3719 6.49205C15.062 6.31873 14.1972 5.99201 13.9051 5.93788C13.827 5.92338 13.752 5.90463 13.7382 5.89616C13.7245 5.88764 13.7543 5.79892 13.8045 5.69899C14.071 5.16838 14.0513 4.45182 13.7651 4.26428C13.6224 4.17079 13.3604 4.20909 13.1834 4.3493C13.1056 4.41093 13.0335 4.4614 13.0232 4.4614C13.0129 4.4614 12.9934 4.35347 12.9799 4.22159C12.9507 3.93607 12.7943 3.53637 12.6373 3.34587C12.529 3.21455 12.2941 3.07652 12.1817 3.07814C12.1524 3.0786 12.0706 3.09958 11.9999 3.12481ZM10.4419 10.5092C10.3936 10.5346 10.3177 10.6095 10.2731 10.6756C10.1975 10.7878 10.1921 10.8322 10.1921 11.3436C10.1921 11.902 10.206 11.974 10.3432 12.1246C10.5064 12.304 10.8057 12.2569 10.9321 12.032C11.0019 11.9079 11.0093 11.8432 11.0093 11.356C11.0093 10.7936 10.9885 10.6963 10.8396 10.5616C10.7467 10.4775 10.5512 10.4518 10.4419 10.5092ZM13.3701 10.5155C13.1613 10.6064 13.1409 10.6812 13.1409 11.3559C13.1409 11.9092 13.1474 11.9736 13.2126 12.0651C13.3098 12.2017 13.493 12.2602 13.6555 12.2066C13.8962 12.1271 13.9225 12.0433 13.9225 11.3559C13.9225 10.6891 13.9046 10.6198 13.7059 10.517C13.5846 10.4543 13.5114 10.4539 13.3701 10.5155ZM4.03399 14.6105C4.0044 14.6401 4.00237 18.3972 4.03186 18.4742C4.05071 18.5232 4.16087 18.5303 4.90059 18.5303C5.99264 18.5303 6.22504 18.4849 6.68526 18.1809C7.22374 17.8252 7.52755 17.24 7.52755 16.5586C7.52755 15.6415 6.97272 14.911 6.07335 14.6441C5.91776 14.5978 5.70388 14.5868 4.96902 14.5868C4.46782 14.5868 4.047 14.5974 4.03399 14.6105ZM9.26842 14.6519C9.02065 14.7272 8.72842 14.8773 8.6027 14.9938C8.54912 15.0435 8.49411 15.0841 8.48041 15.0841C8.42776 15.0841 8.12206 15.5217 8.02704 15.733C7.85168 16.1229 7.80964 16.5346 7.90086 16.9684C7.98217 17.3548 8.14609 17.655 8.43355 17.9438C9.15035 18.664 10.2523 18.7234 11.0799 18.0866C11.1974 17.9962 11.2935 17.911 11.2935 17.8972C11.2935 17.8835 11.3345 17.8282 11.3846 17.7742C11.4979 17.652 11.6586 17.3307 11.7339 17.0761C11.769 16.9572 11.7907 16.7528 11.7905 16.5432C11.7897 15.9743 11.6051 15.5303 11.206 15.1374C10.9658 14.901 10.7361 14.7635 10.404 14.6574C10.1216 14.5672 9.5563 14.5645 9.26842 14.6519ZM12.2968 16.5497L12.306 18.5126L13.1232 18.5238C13.6478 18.5311 14.0293 18.5198 14.189 18.4925C15.1185 18.3334 15.8107 17.4893 15.8042 16.523C15.7995 15.8381 15.4114 15.1756 14.8089 14.8246C14.4405 14.61 14.2878 14.5868 13.2425 14.5868H12.2876L12.2968 16.5497ZM17.4505 14.6576C16.9961 14.8192 16.7193 15.0094 16.4767 15.3267C16.1103 15.8058 15.9827 16.3738 16.1077 16.9684C16.407 18.3913 18.0907 19.0003 19.2578 18.1078C19.5803 17.8613 19.7701 17.582 19.9288 17.1212C20.0253 16.8406 20.0236 16.2886 19.9253 15.975C19.7224 15.3278 19.213 14.827 18.5712 14.644C18.2885 14.5634 17.6951 14.5706 17.4505 14.6576ZM5.92614 15.5446C6.49643 15.8356 6.68026 16.7144 6.28496 17.2595C6.06464 17.5634 5.85789 17.6486 5.37553 17.6346L5.02292 17.6244L5.01348 16.5497L5.00412 15.4749H5.39683C5.71689 15.4749 5.81483 15.4879 5.92614 15.5446ZM10.2119 15.5593C10.5559 15.7195 10.7744 16.1057 10.7736 16.5523C10.7729 16.8922 10.677 17.1276 10.4441 17.3602C10.2683 17.5358 10.2204 17.5635 10.0273 17.6014C9.57982 17.6892 9.20744 17.5059 8.99171 17.0914C8.90998 16.9345 8.89923 16.8724 8.89947 16.5585C8.8997 16.2647 8.91354 16.174 8.97953 16.0337C9.20795 15.5483 9.74462 15.3417 10.2119 15.5593ZM14.2017 15.5434C14.3775 15.6331 14.5723 15.8519 14.6677 16.0666C14.7701 16.2972 14.7769 16.7403 14.6821 17.0073C14.5973 17.2462 14.3164 17.5376 14.1119 17.5989C14.0325 17.6227 13.8136 17.6422 13.6253 17.6422H13.283V16.5585V15.4749H13.6753C13.9925 15.4749 14.0931 15.4881 14.2017 15.5434ZM18.4168 15.5596C18.6441 15.6671 18.7626 15.7952 18.8805 16.0612C18.9517 16.2218 18.9758 16.3357 18.9781 16.523C18.9827 16.8948 18.8943 17.1188 18.6473 17.3609C18.4736 17.5311 18.4153 17.5654 18.2355 17.6032C17.7991 17.695 17.4158 17.506 17.1975 17.0914C17.1142 16.9331 17.1042 16.8753 17.1055 16.5586C17.1067 16.2668 17.1212 16.173 17.1866 16.0337C17.4158 15.5454 17.9508 15.3393 18.4168 15.5596Z" fill="black"/>
</g>
<defs>
<clipPath id="clip0_720_16011">
<rect width="24" height="24" fill="white"/>
</clipPath>
</defs>
</svg>
