<svg width="24" height="24" viewBox="0 0 24 24" fill="none" xmlns="http://www.w3.org/2000/svg">
<g clip-path="url(#clip0_2485_3266)">
<circle cx="12" cy="12" r="12" fill="#EEC93D"/>
<path fill-rule="evenodd" clip-rule="evenodd" d="M0.373047 14.9826C1.02414 14.2331 2.06566 13.3612 3.28023 13.2094C5.35217 12.9504 6.04281 12.8641 6.64713 12.1734C7.13058 11.6209 7.42411 11.2526 7.51044 11.1375C7.25144 10.7058 6.76799 9.54897 6.90612 8.37487C7.04425 7.20078 7.36655 6.27416 7.51044 5.95761C7.73054 5.59077 8.04105 5.27693 8.3201 4.99489C8.69776 4.61319 9.01778 4.28974 8.97806 3.972C8.96261 3.84844 8.93888 3.7083 8.91476 3.56592C8.80409 2.91245 8.68541 2.21174 9.32338 2.8497L10.4457 3.972H12.5176C13.0644 3.28139 14.2442 2.0383 14.5896 2.59082C14.9349 3.14333 14.9637 4.49003 14.9349 5.09431C14.9061 5.15186 14.9521 5.38783 15.3665 5.87128C15.7566 6.32637 16.7831 8.54393 17.4138 9.90634C17.6206 10.3531 17.7849 10.7079 17.8701 10.8785C18.2155 11.5691 19.5967 12.6914 20.8917 12.8641C21.0073 12.8795 21.1257 12.8935 21.2465 12.9079C22.0533 13.0035 22.9666 13.1119 23.8763 13.7276C23.039 19.5368 18.0406 24.0007 11.9996 24.0007C6.40158 24.0007 1.69884 20.1675 0.373047 14.9826Z" fill="#C0A54E"/>
<path fill-rule="evenodd" clip-rule="evenodd" d="M3.92995 20.8809C3.84966 20.7315 3.76636 20.5687 3.71227 20.4605L4.92091 20.8059H5.52522L6.64752 20.4605L7.16551 20.1152L7.68349 19.5109L8.11514 19.1656L8.46047 18.6476L8.5468 18.9066C8.51802 18.9066 8.46047 18.9584 8.46047 19.1656C8.46047 19.3298 8.39107 19.6328 8.34027 19.8546L8.34027 19.8546L8.34026 19.8546L8.34026 19.8546C8.31093 19.9827 8.2878 20.0836 8.2878 20.1152C8.2878 20.2016 7.94248 20.6332 7.85615 20.7195C7.76982 20.8059 7.59716 20.9785 7.51083 21.1512C7.4245 21.3239 7.16551 21.4102 6.73385 21.4965C6.3022 21.5828 5.87054 21.6692 5.61155 21.7555C5.447 21.8104 5.21274 21.7955 5.04164 21.7774C4.65324 21.5005 4.28204 21.201 3.92995 20.8809ZM9.59146 23.7579C8.87278 23.6115 8.17746 23.4008 7.51176 23.1322L7.59716 22.7051L7.85615 22.6188L8.37414 22.5325L9.15111 22.3598L9.49644 22.6188V22.8778L9.6691 23.1368L9.59146 23.7579ZM13.1247 23.9477C12.7545 23.9821 12.3793 23.9997 12 23.9997C11.794 23.9997 11.5892 23.9945 11.3857 23.9842C11.2293 23.8321 11.0784 23.6828 10.9641 23.5685L10.2734 23.2231L10.3597 22.7915L10.5324 22.5325H10.7914L11.3094 22.6188L11.9137 22.7051L12.518 22.7915L12.8633 22.9641C12.9784 23.0217 13.1914 23.1541 13.1223 23.2231C13.0566 23.2889 13.091 23.6049 13.1111 23.79C13.1174 23.848 13.1223 23.8932 13.1223 23.9138C13.1223 23.9226 13.1232 23.9341 13.1247 23.9477ZM2.70576 19.5908L2.50364 18.6476L2.76264 16.7483L3.19429 15.885L3.71227 15.2807L4.31659 14.7627L4.57558 14.5037L4.40292 14.4174L3.88494 14.5037L3.53961 14.5901C3.51084 14.6764 3.43602 14.8663 3.36695 14.9354L3.10796 15.1944L3.45328 14.5901L3.36695 14.1584L2.84897 14.5037H2.41731L2.07199 14.5901C2.10077 14.5325 2.10652 14.5037 1.89933 14.849C1.72667 15.1368 1.66911 15.3095 1.62435 15.4438C1.60197 15.5109 1.58278 15.5685 1.55401 15.626C1.46768 15.7987 1.46768 16.2303 1.55401 16.3167C1.59717 16.3598 1.66192 16.4893 1.72667 16.6188C1.79142 16.7483 1.85616 16.8778 1.89933 16.921C1.93225 16.9539 1.79649 17.4196 1.60797 18.0041C1.93166 18.5631 2.29915 19.0936 2.70576 19.5908ZM7.51083 7.33827H7.08308C7.23206 6.6712 7.41283 6.17258 7.51083 5.95698C7.73093 5.59014 8.04145 5.2763 8.32049 4.99426C8.69815 4.61256 9.01817 4.28911 8.97845 3.97137C8.96301 3.84781 8.93927 3.70767 8.91516 3.56528C8.85365 3.20213 8.78967 2.82439 8.85446 2.66992C8.91171 2.77134 8.97845 2.91656 8.97845 3.02173C8.97845 3.15986 9.036 3.48217 9.06478 3.62605C9.06478 3.74116 9.08205 3.98864 9.15111 4.0577L9.4101 4.3167L9.75543 4.40303L9.92809 5.09367C9.87054 5.23756 9.75543 5.54259 9.75543 5.61166C9.75543 5.69799 9.58277 6.38863 9.49644 6.38863C9.42737 6.38863 9.52521 6.61885 9.58277 6.73396L9.92809 6.64763L10.1871 6.3023L10.5324 5.78432L10.6187 5.35267L10.7051 5.18L11.1367 5.00734L11.9137 5.09367L12 5.18V5.69799L11.6547 5.87065L11.5684 6.3023C11.5396 6.41741 11.482 6.66489 11.482 6.73396C11.482 6.80302 11.1943 7.10806 11.0504 7.25194L11.1367 7.51093H11.5684L12 7.59726L12.777 7.4246L11.8274 8.71956L9.6691 7.51093L8.63313 7.85626L8.24464 7.94259L7.85615 8.02892L7.51083 7.33827ZM8.46047 9.15122L8.80579 7.94259L9.32377 7.85626H9.6691L10.1871 8.28791L10.7051 8.5469L10.9641 8.63323H11.3094L10.9641 8.8059H11.3957H11.6547L11.2231 8.97856H11.0504L11.1367 9.06489L11.2231 9.15122H11.482L11.2231 9.23755L11.1367 9.32388L11.2231 9.41021L12.1727 9.9282L11.3094 9.58287H11.1367L10.9641 9.75553L10.1008 10.0145L8.97845 9.84186L8.46047 9.15122ZM7.51083 11.4821L7.76982 11.5685L8.20147 11.8275L8.97845 12.1728L9.6691 12.4318L10.1871 12.6044V12.8634V13.0361C10.1871 13.0843 10.1938 13.1258 10.1998 13.1624C10.2151 13.257 10.2252 13.3192 10.1008 13.3814C10.0144 13.4246 9.97125 13.4246 9.93888 13.4246C9.90651 13.4246 9.88492 13.4246 9.84176 13.4678C9.75543 13.5541 9.75543 13.8131 9.75543 13.8994C9.75543 13.9426 9.79859 14.0073 9.84176 14.0721C9.88492 14.1368 9.92809 14.2016 9.92809 14.2447C9.92809 14.3311 9.84176 14.4174 9.75543 14.3311C9.6691 14.2447 9.32377 13.8994 9.23744 13.8994C9.16838 13.8994 8.74824 13.7267 8.5468 13.6404L8.20147 13.3814L7.76982 12.5181L7.51083 11.4821ZM10.3597 13.8131C10.3597 13.744 10.4749 13.439 10.5324 13.2951L11.1367 12.7771L11.8274 12.4318C12.0576 12.2879 12.5353 11.9829 12.6043 11.9138C12.6734 11.8447 12.9209 11.6548 13.036 11.5685L13.4677 11.3095L13.7266 11.9138L14.4173 12.6044L14.1583 13.0361L13.295 13.5541L12.4317 13.8994L12.259 13.8131L12.6043 13.2951L13.3813 12.4318V12.2591L12.0864 13.4678C11.9713 13.6116 11.7065 13.9339 11.5684 14.0721L11.3094 14.3311L10.7051 14.5901L10.4461 14.3311C10.3597 14.2447 10.3597 13.8994 10.3597 13.8131ZM13.8993 13.6404L14.5036 13.4678H16.1439H16.9209C17.2086 13.4102 17.8015 13.2951 17.8705 13.2951C17.9396 13.2951 18.705 13.1224 19.0791 13.0361L20.0288 12.9498L19.9425 13.2088L20.2014 13.4678H20.8058L21.6691 13.7267L22.8777 14.2447C22.9928 14.3311 23.223 14.521 23.223 14.5901C23.223 14.6591 23.1655 14.849 23.1367 14.9354L22.3597 14.849L21.5827 14.2447C21.3813 14.216 20.9612 14.1584 20.8921 14.1584H20.6331L20.8058 14.3311H21.2374L21.4101 14.5037C21.3237 14.7052 21.1338 15.1253 21.0648 15.1944C21.0216 15.2375 20.8705 15.4965 20.7194 15.7555C20.5684 16.0145 20.4173 16.2735 20.3741 16.3167C20.2878 16.403 20.0288 17.2663 20.0288 17.3095C20.0288 17.344 19.9712 18.1584 19.9425 18.5613L19.7698 18.1296C19.6547 17.8994 19.4245 17.4131 19.4245 17.3095C19.4245 17.2781 19.4295 17.2088 19.436 17.1205V17.1205C19.4562 16.8442 19.4899 16.3821 19.4245 16.3167C19.3554 16.2476 19.1655 16.1728 19.0791 16.144L18.7338 16.7483L18.6475 16.921L18.3022 16.3167C18.3022 16.2591 18.2504 16.1267 18.0432 16.0577C17.836 15.9886 17.6691 15.9713 17.6115 15.9713V16.4893L17.8705 17.2663L17.7842 17.439C17.5828 17.2663 17.1626 16.9037 17.0935 16.8347C17.0245 16.7656 16.6619 16.1152 16.4892 15.7987L16.2302 14.849L15.7122 14.0721L14.7626 13.7267L13.9856 13.6404H13.8993ZM17.0935 17.3095L16.6619 16.662L11.1367 14.849L10.6187 15.1944L10.2734 16.144L9.75543 17.0936V18.6476C9.72665 18.9929 9.6691 19.7008 9.6691 19.7699C9.6691 19.839 9.89931 20.4893 10.0144 20.8059L10.4461 21.6692C10.5324 21.8418 11.3094 22.1008 11.3957 22.1008C11.4315 22.1008 11.6598 22.1156 11.9273 22.133C12.3056 22.1575 12.7622 22.1872 12.8633 22.1872C12.9248 22.1872 13.0739 22.22 13.2482 22.2584C13.5633 22.3278 13.9608 22.4154 14.072 22.3598C14.2101 22.2908 14.1295 22.1584 14.072 22.1008L14.331 21.8418C14.4748 21.8131 14.7626 21.7382 14.7626 21.6692C14.7626 21.6001 14.8777 21.2375 14.9353 21.0649L15.1079 21.1512H15.3669C15.436 21.1512 16.0863 20.7483 16.4029 20.5469L17.1799 19.8562V19.4246C17.295 19.2231 17.5252 18.803 17.5252 18.7339C17.5252 18.7052 17.4868 18.6284 17.4389 18.5325C17.3429 18.3406 17.2086 18.0721 17.2662 17.957C17.3353 17.8188 17.1799 17.4677 17.0935 17.3095ZM6.47486 14.3311L6.04321 13.9857V13.4678L6.82018 13.5541L7.59716 13.8131L7.85615 13.8994L8.71946 14.7627L9.23744 15.3994L9.4101 16.144L9.6691 16.0577V16.662V17.7843L9.58277 18.5613L9.49644 19.1656L9.32377 18.2159V17.2663C9.32377 17.1627 9.20867 16.6476 9.15111 16.403L8.89212 15.7987L8.71946 15.4534L8.58996 15.367L8.71946 15.7987L8.58996 15.9713L8.46047 15.6692L8.20147 15.367C8.2878 15.626 8.46047 16.1699 8.46047 16.2735V16.921L8.5468 17.698C8.40291 17.8706 8.11514 18.1987 8.11514 18.1296C8.11514 18.0908 8.13258 17.9474 8.15179 17.7894L8.15179 17.7894C8.17531 17.596 8.20147 17.3808 8.20147 17.3095V16.5757L7.59716 16.144V15.4534L7.25184 14.849L6.47486 14.3311Z" fill="#D4B96A"/>
<path fill-rule="evenodd" clip-rule="evenodd" d="M5.95117 22.3667C6.13385 22.2625 6.27463 22.1878 6.30245 22.1878C6.37152 22.1878 7.25209 21.9 7.68374 21.7561C8.08662 21.4684 8.92691 20.841 9.06503 20.6338L9.58302 19.8569L9.75568 18.4756V19.5115L9.84201 20.3749L10.36 21.1518L10.9643 21.7561L12.2593 22.0151L13.6406 22.1015L13.8996 21.5835C13.9859 21.4972 14.1931 21.3245 14.3312 21.3245C14.4069 21.3245 14.4991 21.2748 14.6296 21.2044C14.7971 21.1141 15.0276 20.9899 15.3672 20.8928C15.6416 20.8144 15.7736 20.7538 15.8844 20.703C16.0177 20.6418 16.1204 20.5946 16.4031 20.5475C16.7394 20.4915 16.7846 20.3626 16.8222 20.2555C16.8425 20.1977 16.8606 20.1461 16.9211 20.1159C17.0506 20.0511 17.1316 19.6464 17.2004 19.3025C17.2233 19.1878 17.2449 19.0799 17.2665 18.9936C17.3162 18.7948 17.28 18.6818 17.2239 18.5065C17.1826 18.3772 17.1304 18.214 17.0938 17.9576C17.0247 17.4741 16.8348 17.4108 16.7485 17.4396L16.2305 16.231V15.1087L17.0938 16.49L17.7844 17.4396C17.6981 17.2382 17.5254 16.818 17.5254 16.749C17.5254 16.6626 17.5254 15.6267 17.6981 15.6267C17.8362 15.6267 18.2161 15.8569 18.3888 15.972L18.8204 16.3173L19.4247 15.713V16.9216C19.4247 17.0598 19.77 17.5547 19.9427 17.7849C20.1441 18.2741 20.5816 19.2353 20.7197 19.1662C20.7962 19.128 20.8388 19.1067 20.8775 19.0798C20.9262 19.046 20.9688 19.0034 21.065 18.9072C21.1135 18.8587 21.196 18.7694 21.2915 18.666C21.5362 18.4012 21.8662 18.0439 21.9283 18.0439C21.9675 18.0439 22.0829 18.1739 22.2016 18.3231C20.0848 21.7313 16.3076 24.0007 12.0003 24.0007C9.79426 24.0007 7.72726 23.4054 5.95117 22.3667ZM12.6909 6.13028L13.1226 6.82092L14.0722 7.25258L14.3312 7.68423L14.2988 9.23818C14.0219 9.72739 13.4679 10.7231 13.4679 10.7921C13.4679 10.8612 13.7557 11.3965 13.8996 11.6554L14.3312 12.3461L15.1082 12.0008L15.9715 11.3101L16.5758 10.6195L16.9211 10.1015L16.6621 9.23818L15.5398 7.94322V7.51157L15.8852 7.33891L16.1623 7.26963C15.8328 6.61131 15.5385 6.07121 15.3672 5.87128C14.9528 5.38783 14.9067 5.15186 14.9355 5.09431C14.9643 4.49003 14.9355 3.14333 14.5902 2.59082C14.2449 2.0383 13.065 3.28139 12.5183 3.972H10.4463L9.32403 2.8497C9.08526 2.61094 8.95248 2.55968 8.8856 2.62328L9.15137 3.88568L9.41036 4.231L9.58302 4.40366L9.92834 5.00798L9.58302 5.87128L9.49669 6.64826L9.75568 6.56193L10.1873 5.3533L10.9643 4.57632L11.2233 4.40366L11.7413 4.66265C11.9427 4.63388 12.3801 4.57632 12.5183 4.57632C12.6564 4.57632 12.806 4.69143 12.8636 4.74898L13.4679 5.26697L13.8132 5.87128H13.5542C13.4391 5.81373 13.1916 5.68136 13.1226 5.61229C13.0535 5.54323 12.9211 5.3533 12.8636 5.26697L12.6046 5.43963L12.6909 6.13028Z" fill="#C29A38"/>
<path fill-rule="evenodd" clip-rule="evenodd" d="M1.89743 18.4789C1.34732 17.623 0.90302 16.6926 0.583008 15.7062L1.55371 13.9854L3.97097 13.2084L5.13644 12.9494L6.04291 13.1221L6.73356 13.3811L7.85586 13.6077L8.63283 14.158L7.76952 13.8991L7.85586 14.0717H7.65082L7.25154 13.8127L6.64723 13.6401L6.47456 13.7264L6.90622 13.9854L6.38823 13.8991L6.04291 13.9854L6.73356 14.417L7.25154 14.7624C7.28032 14.8487 7.35514 15.0386 7.4242 15.1077C7.49327 15.1767 7.56809 15.4242 7.59686 15.5393L7.76952 16.1437L8.20118 16.3163V17.3523L8.02852 18.4746L7.65082 19.5106L7.07888 20.2012L6.21557 20.6329L5.09327 20.8055L4.22996 20.6329L3.53932 19.7695L3.10766 18.1293V16.8343L3.62565 15.3667C3.82709 15.2228 4.25802 14.9005 4.37025 14.7624C4.48248 14.6242 4.49615 14.5897 4.48896 14.5897L4.40263 14.5034L3.71198 14.5897L3.10766 15.3667L3.36666 14.417L2.84867 14.8487L2.67601 14.676L2.0717 14.7624C1.92781 15.1077 1.64004 15.8156 1.64004 15.8847C1.64004 15.9537 1.92781 16.3739 2.0717 16.5753V17.266C2.0717 17.335 1.95659 18.1005 1.89903 18.4746L1.89743 18.4789ZM9.09013 23.6446C8.56374 23.5135 8.05108 23.3477 7.55476 23.1496L7.51053 23.0501L7.76952 22.7911L8.11485 22.7048L8.89182 22.6185L9.06449 22.7048L9.15082 23.1364C9.13458 23.2663 9.10918 23.475 9.09013 23.6446ZM12.6271 23.9836C12.4193 23.9943 12.2101 23.9998 11.9997 23.9998C11.5027 23.9998 11.0129 23.9695 10.5318 23.9109L10.4458 23.2228L10.6184 22.7911L10.9638 22.7048L11.5681 22.7911L12.1724 23.1364C12.2012 23.1652 12.2587 23.24 12.2587 23.3091C12.2587 23.3523 12.3235 23.4386 12.3882 23.5249C12.453 23.6113 12.5177 23.6976 12.5177 23.7408C12.5177 23.7695 12.5369 23.7887 12.5593 23.8111C12.5937 23.8455 12.6357 23.8875 12.6271 23.9836ZM14.6698 23.7016C14.5573 23.7272 14.4443 23.7511 14.3307 23.7735V23.3954L14.5897 23.5681L14.6698 23.7016ZM20.5827 20.3861C20.3758 20.1367 20.1148 19.7944 20.1148 19.6832C20.1148 19.5451 19.9997 19.0501 19.9422 18.8199V17.5249C19.9422 17.266 20.1148 16.5753 20.2012 16.4026C20.2702 16.2645 20.4026 15.7696 20.4601 15.5393C20.6328 15.2803 20.9954 14.7451 21.0645 14.676C21.1335 14.607 21.2083 14.4746 21.2371 14.417H20.8055L20.3738 14.2444C20.6904 14.1868 21.3407 14.0717 21.4098 14.0717C21.4788 14.0717 21.7263 14.2444 21.8414 14.3307L22.5321 14.7624H23.2227L22.1868 14.0717L21.3235 13.6401L20.4601 13.4674L19.9422 13.3811L19.7695 13.2084L19.6832 13.1221C19.8846 13.0357 20.322 12.8631 20.4601 12.8631C20.5195 12.8631 20.6236 12.8524 20.7367 12.838C20.7885 12.8478 20.8402 12.8562 20.8918 12.8631C21.0074 12.8785 21.1258 12.8925 21.2465 12.9069L21.2466 12.9069C22.0534 13.0026 22.9666 13.1109 23.8763 13.7266C23.5053 16.3012 22.3169 18.6115 20.5827 20.3861ZM7.4242 11.3955V11.2478C7.46279 11.199 7.49163 11.1617 7.51053 11.1365C7.3871 10.9308 7.21269 10.5603 7.07888 10.1018V9.23719V8.80554L7.4242 8.54655L8.11485 8.63288L8.28751 7.8559L8.71916 7.59691L9.49614 6.56104L9.6688 6.47461L10.2731 7.33792L10.7911 7.94223H11.8271L12.4314 7.51058L12.7767 6.90626L13.0357 6.7336C13.4674 6.67605 14.3652 6.59547 14.5033 6.7336C14.6415 6.87173 14.676 7.25159 14.676 7.42425L15.0213 7.94223V9.15086C14.9062 9.43863 14.6415 10.0487 14.5033 10.1868C14.3652 10.325 14.0429 10.7624 13.899 10.9638L14.417 10.7048L14.158 11.2228H14.3307V11.4818C14.3307 11.5509 14.4458 11.6257 14.5033 11.6545V12.0861C14.5033 12.1724 14.5033 12.4314 14.5897 12.3451C14.6587 12.276 14.9062 12.1437 15.0213 12.0861L15.5393 11.9134H15.712L15.1076 12.4314L14.7623 12.5178L14.2443 12.9494L13.8127 13.0357L13.381 13.1221L13.2084 13.3811H12.6904L13.4674 12.4314L13.2947 12.2588L12.863 12.7768L12.0861 13.5537L11.3091 14.0717V13.7264L11.4817 13.1221L12.0861 12.6365L13.2947 11.6545V11.4818H13.122C13.0357 11.5106 12.8458 11.5854 12.7767 11.6545C12.6904 11.7408 12.0861 11.9134 11.9997 11.9134C11.9566 11.9134 11.6976 11.935 11.4386 11.9566C11.1796 11.9782 10.9206 11.9998 10.8774 11.9998C10.8084 11.9998 10.3882 12.0573 10.1868 12.0861H9.23715L8.46017 11.7408L8.02852 11.4818L7.85586 11.3955L7.59686 11.3091V11.5681L8.20118 12.2588L8.71916 12.6365L9.32348 12.7768V12.9494L9.23715 13.0357L8.71916 12.9494L8.89182 13.2084L9.06449 13.5537H8.71916C8.60406 13.4962 8.35657 13.3811 8.28751 13.3811C8.21844 13.3811 7.97096 13.2084 7.85586 13.1221L7.65082 12.2588L7.4242 11.3955ZM10.5321 18.8199C10.6184 19.5106 11.171 20.9436 12.6904 21.1508L12.3451 20.8055L12.4314 20.7192H13.0357L12.5177 20.2875L13.2084 20.4602H13.8127L14.2443 20.1149L15.2803 20.0285L15.8846 19.5106L16.3163 18.9062L16.5753 17.6976L16.6616 16.748L16.3163 15.453V14.676C16.2012 14.4746 15.9537 14.0717 15.8846 14.0717C15.8156 14.0717 15.0501 13.8991 14.676 13.8127L13.899 13.6401L13.2084 13.8127L12.2587 14.0717L11.5681 14.5034L10.7048 16.748L10.5321 18.8199Z" fill="#E0CD88"/>
<path d="M9.32327 7.76953L8.80528 7.85586L8.45996 9.06449L8.97795 9.75514L10.1002 9.9278L10.9636 9.66881L11.1362 9.49615H11.3089L12.1722 9.84147L11.2225 9.32348L11.1362 9.23715L11.2225 9.15082L11.4815 9.06449H11.2225L11.1362 8.97816L11.0499 8.89183H11.2225L11.6542 8.71917H11.3952H10.9636L11.3089 8.54651H10.9636L10.7046 8.46018L10.1866 8.20119L9.66859 7.76953H9.32327Z" fill="#D4B96A"/>
<path d="M8.11523 6.21655V6.56187C8.20157 6.7345 8.44329 7.04522 8.71955 6.90709C9.06487 6.73443 9.4102 6.04389 9.49653 5.35324C9.56559 4.80072 9.17998 4.95036 8.97854 5.09425L8.54689 5.61223L8.11523 6.21655Z" fill="#E0CD88"/>
<path fill-rule="evenodd" clip-rule="evenodd" d="M0.373047 14.9816C1.02414 14.2321 2.06566 13.3602 3.28023 13.2084C5.35217 12.9494 6.04281 12.8631 6.64713 12.1724C6.95676 11.8186 7.18849 11.5402 7.33778 11.3556V11.7408L6.90612 12.1724L6.12915 12.6904C6.27303 12.7768 6.57806 12.9667 6.64713 13.0357C6.71619 13.1048 6.67591 13.2372 6.64713 13.2947C6.30181 13.2372 5.55936 13.1048 5.35217 13.0357C5.14497 12.9667 5.03562 13.007 5.00684 13.0357C4.57516 13.2084 3.69455 13.5537 3.62555 13.5537C3.58244 13.5537 3.38827 13.5969 3.19406 13.64C2.99976 13.6832 2.80542 13.7264 2.76225 13.7264C2.67591 13.7264 2.24426 13.9854 2.15793 14.0717C2.0716 14.158 1.12196 15.1077 1.12196 15.2803C1.12196 15.3561 0.955669 15.7479 0.747157 16.1782C0.602385 15.7885 0.477279 15.3892 0.373047 14.9816ZM7.81155 23.2487C7.7049 23.2089 7.59897 23.1677 7.49377 23.1251L7.51044 23.0501H7.6831C7.71841 23.1031 7.76455 23.1739 7.81155 23.2487ZM10.8995 23.95C10.6607 23.9283 10.4239 23.8996 10.1893 23.8641C10.1876 23.8486 10.1867 23.836 10.1867 23.8271C10.1867 23.758 10.2442 23.3739 10.273 23.1904L10.6183 22.7911V22.8775L10.5319 23.1904C10.5607 23.2875 10.6356 23.499 10.7047 23.5681C10.7362 23.5996 10.8138 23.7577 10.8995 23.95ZM23.8763 13.7266C23.8388 13.9866 23.793 14.2439 23.7391 14.4983C23.738 14.4973 23.7369 14.4963 23.7358 14.4953C23.5421 14.3244 23.3586 14.1624 23.2226 14.0717C23.1363 14.0142 23.0979 13.9758 23.066 13.9438C23.002 13.8799 22.9636 13.8415 22.6183 13.7264C22.2039 13.5883 21.8126 13.3235 21.6687 13.2084L21.6175 12.9526C22.328 13.0466 23.1034 13.2035 23.8763 13.7266ZM6.90612 8.37388C6.83989 8.93689 6.91658 9.49593 7.04291 9.97294C7.07878 9.74504 7.07878 9.2797 7.07878 9.15086C7.07878 8.9782 7.33778 8.71921 7.42411 8.71921C7.51044 8.71921 7.76943 8.77317 7.85576 8.80554C7.92483 8.83144 7.94209 8.58612 7.94209 8.46022C7.97087 8.28756 8.02842 7.92497 8.02842 7.8559C8.02842 7.81274 7.98526 7.76957 7.94209 7.72641C7.89893 7.68324 7.85576 7.64007 7.85576 7.59691C7.85576 7.55374 7.83418 7.489 7.81259 7.42425C7.79101 7.3595 7.76943 7.29475 7.76943 7.25159V6.64727V6.47461H7.51044C7.45288 6.53216 7.32051 6.69907 7.25144 6.90626C7.21768 7.00755 7.16879 7.09921 7.12091 7.17317C7.03612 7.52551 6.95809 7.93219 6.90612 8.37388ZM12.3448 14.0717C12.0859 14.3019 11.5679 14.8142 11.5679 15.0214C11.5679 15.2803 11.5679 15.7983 11.4815 15.7983C11.3952 15.7983 11.1362 16.3163 11.1362 16.4026C11.1362 16.489 11.0499 17.266 10.9636 17.4386C10.9194 17.5269 10.943 17.7507 10.965 17.9598C10.9861 18.1596 11.0057 18.3461 10.9636 18.3883C10.9027 18.4491 10.9705 18.7671 11.0158 18.9799C11.0349 19.069 11.0499 19.1397 11.0499 19.1652C11.0499 19.2084 11.2657 19.4458 11.4816 19.6832C11.6974 19.9206 11.9132 20.158 11.9132 20.2012C11.9132 20.2875 11.7405 20.4602 11.5679 20.2875C11.3952 20.1149 10.6183 19.2516 10.5319 18.9926C10.4456 18.7336 10.3593 17.4386 10.3593 17.3523C10.3593 17.3091 10.4456 16.9854 10.5319 16.6616C10.6183 16.3379 10.7046 16.0142 10.7046 15.971C10.7046 15.8847 10.9636 15.1077 11.0499 15.0214C11.0763 14.995 11.143 14.9121 11.2253 14.8099L11.2254 14.8098L11.2255 14.8097L11.2255 14.8097L11.2256 14.8095L11.2257 14.8095L11.2257 14.8094L11.2257 14.8094L11.2257 14.8094C11.4129 14.577 11.6807 14.2444 11.7406 14.2444C11.8096 14.2444 12.1722 14.1293 12.3448 14.0717ZM3.7118 15.2803C3.25137 15.6257 2.48591 16.817 3.10749 18.8199C3.16507 19.2803 3.43563 20.2875 4.05721 20.6329C4.83418 21.0645 5.52483 21.1508 5.26584 20.9782C5.05864 20.84 4.89174 20.6904 4.83418 20.6329L4.3162 20.4602L4.14354 20.2012C4.20109 20.1724 4.3162 20.1321 4.3162 20.2012C4.3162 20.2703 4.60397 20.3451 4.74785 20.3739C4.74785 20.3163 4.73059 20.1839 4.66152 20.1149C4.61836 20.0717 4.57519 20.0717 4.54282 20.0717C4.51044 20.0717 4.48886 20.0717 4.48886 20.0285C4.48886 20.0156 4.4919 20.0014 4.49513 19.9863C4.50708 19.9306 4.52159 19.863 4.39405 19.8007L4.74785 19.9422H5.09318C4.94929 19.7983 4.64426 19.5106 4.57519 19.5106C4.51764 19.5106 4.38335 19.4338 4.24905 19.3571C4.18191 19.3187 4.11476 19.2803 4.05721 19.2516C4.01932 19.2326 3.98559 19.2178 3.95509 19.2045C3.8466 19.1569 3.77913 19.1273 3.7118 18.9926C3.66867 18.9062 3.62551 18.8631 3.58235 18.8199C3.5392 18.7767 3.49605 18.7336 3.45289 18.6472C3.36656 18.4746 3.10757 17.7839 3.28023 16.9206C3.41836 16.23 3.6255 15.5393 3.7118 15.2803Z" fill="#E3DFBA"/>
<path fill-rule="evenodd" clip-rule="evenodd" d="M13.9778 23.838C13.793 23.8687 13.6067 23.8951 13.4191 23.9172L13.4674 23.4823L13.3811 23.0506H13.8991L13.9778 23.838ZM19.9202 21.0153C19.6592 21.2448 19.3882 21.4631 19.1079 21.6695L18.8199 21.324L18.5609 21.583L18.1293 22.0146C17.9912 22.1528 17.266 22.4751 16.9207 22.619L16.489 22.4463L17.0933 22.2736L17.6976 21.6693L18.2156 21.065L18.3883 20.6334L18.6473 19.6837L18.8199 18.6477L18.9926 18.2161L19.4242 18.9067V19.5111C19.4242 19.5974 19.4242 19.77 19.5106 20.029C19.5755 20.2238 19.7981 20.7391 19.9202 21.0153ZM9.23722 2.93555L9.32355 3.45353L9.49621 3.97152L9.58254 4.05785H9.92787L10.2732 4.14418L11.2228 4.23051L12.2588 4.14418L11.2228 4.05785L10.1869 3.97152L9.49621 3.28087L9.23722 2.93555ZM13.3811 3.88519L13.2084 4.66216H13.3811L13.2948 5.09382L13.1221 5.18015L13.0358 4.92115L12.8631 4.74849V4.4895L13.0358 4.31684L13.2084 3.79885L13.4674 3.45353L13.3811 3.88519ZM9.84154 6.30245L9.7552 6.7341V6.82043L10.2732 6.30245L10.5322 5.87079L10.6185 5.35281L11.0502 4.66216V4.57583L10.3595 5.09382L10.1005 5.43914L9.92787 5.78446L9.84154 6.30245ZM7.68327 8.46072L9.15089 8.20172L9.32355 8.28805L9.40988 8.63338L9.23722 8.89237L9.32355 9.49668L9.58254 9.92834H10.2732L11.0502 9.66935L10.8775 9.92834L10.3595 10.1873L9.92787 10.5327L9.49621 10.7053L8.8919 10.619L8.37391 10.4463L8.11492 10.2737L7.94226 9.75568L7.68327 9.41035L7.59694 8.9787L7.68327 8.46072ZM9.66887 8.80604L9.7552 8.89237L9.58254 9.15136L9.66887 8.80604ZM9.84154 9.06503L9.7552 9.32402H9.84154V9.06503ZM14.6761 5.95712V5.69813L14.8487 5.52547L15.1077 5.87079L15.194 6.30245L15.1077 6.56144L14.935 6.47511L14.6761 6.21612V5.95712ZM9.89549 14.5039L9.32355 14.2449L9.7552 14.7629L9.84154 15.2485L10.1005 15.5398L10.6185 15.0219L10.4459 14.7629L10.1869 14.8492L10.2732 14.5039L10.1869 13.9859L10.0142 13.8132V14.2449L9.89549 14.5039ZM9.32355 21.583L8.80557 22.0146L8.8919 22.101L9.58254 22.2736L9.84154 22.878L10.1005 23.5686L10.1869 22.619L10.4459 22.36L10.3595 22.101H10.1869C10.1581 21.9571 10.0833 21.6175 10.0142 21.4103L9.84154 20.8923L9.7552 20.6334L9.58254 21.065L9.32355 21.583ZM14.6761 11.2233L15.1077 10.7053L15.3667 10.0147L15.6257 9.58302V9.92834V10.36V10.4463L16.0573 10.101L16.1437 10.4463L16.0573 10.5327V10.878C16.1149 10.878 16.23 10.8952 16.23 10.9643C16.23 11.0334 16.0573 11.2233 15.971 11.3096L15.5394 11.655C15.3667 11.7701 15.0041 12.0003 14.935 12.0003C14.866 12.0003 14.8487 11.8852 14.8487 11.8276L15.194 11.396L15.1077 11.2233L14.935 11.3096L14.6761 11.2233ZM6.30197 8.54705H6.81996L6.90629 8.63338H6.21564L5.69766 8.71971L5.61133 8.63338L6.30197 8.54705ZM6.99262 8.80604H6.73363C6.66456 8.80604 6.35953 8.86359 6.21564 8.89237L6.04298 8.9787H6.21564L6.56097 8.89237H6.99262V8.80604ZM6.56097 9.23769L7.07895 9.15136V9.23769L6.6473 9.32402L6.3883 9.49668L6.04298 9.66935L5.78399 9.75568L5.87032 9.66935C5.95665 9.61179 6.16384 9.47942 6.30197 9.41035C6.4401 9.34129 6.53219 9.26647 6.56097 9.23769ZM7.16528 9.32402L6.73363 9.58302L6.47464 9.92834L6.30197 10.36L6.21564 10.4463L6.30197 10.5327L6.3883 10.4463L6.47464 10.1873L6.73363 9.75568L7.07895 9.49668L7.16528 9.32402ZM10.7048 6.82043L10.7912 6.7341V6.90676L10.9638 7.16575L11.0502 7.33842H10.8775L10.7048 7.25208L10.5322 7.07942V6.90676L10.7048 6.82043Z" fill="#A47A2D"/>
<path d="M7.68359 8.46089V8.2019C7.68359 8.0983 7.85626 7.92852 7.94259 7.85657H8.89222C9.06489 7.85657 9.23755 8.02924 9.32388 8.11557C9.41021 8.2019 9.15122 8.46089 9.15122 8.54722C9.15122 8.61629 8.97856 8.92132 8.89222 9.06521V9.49686H8.71956L8.5469 9.41053L8.37424 9.23787L8.20158 9.41053L8.11525 9.15154L7.85626 8.80621L7.68359 8.46089Z" fill="black"/>
<path d="M10.9642 6.56161L10.6188 6.99327L10.7052 7.0796L11.1368 7.33859C11.2807 7.33859 11.5857 7.32132 11.6548 7.25226C11.7239 7.18319 11.9138 7.10837 12.0001 7.0796L12.2591 6.64794L12.0865 6.56161L11.6548 6.30262H11.3958L10.9642 6.56161Z" fill="black"/>
<path d="M8.80589 6.21629C8.5987 5.94003 8.25913 6.27384 8.11525 6.47528C8.18431 7.23506 8.60446 7.02202 8.80589 6.82052C8.89222 6.73422 9.01309 6.49255 8.80589 6.21629Z" fill="black"/>
<path d="M8.37424 9.58311L7.85626 9.66944C7.92532 9.8075 8.19438 9.78452 8.32028 9.75577C8.51093 9.78454 9.03035 9.87663 9.58287 10.0148C10.1354 10.1529 10.7915 9.89965 11.0505 9.75577V9.66944L10.5325 9.8421L9.92819 9.92843L9.15122 9.8421L8.80589 9.66944L8.37424 9.58311Z" fill="black"/>
<path d="M11.3091 6.56017V6.47384L11.1364 6.56017C11.0789 6.61772 10.9638 6.75009 10.9638 6.81916V7.07815C10.9638 7.14722 11.0213 7.16448 11.0501 7.16448C11.1364 7.19326 11.3263 7.25081 11.3954 7.25081H11.5681L11.3091 7.07815L11.2227 6.90549L11.5681 6.73283C11.7407 6.6465 11.6544 6.6465 11.6544 6.56017C11.6544 6.4911 11.5968 6.47384 11.5681 6.47384H11.4817L11.3954 6.56017H11.3091Z" fill="#E3DFBA"/>
<path d="M8.80549 6.47384H8.71916L8.63283 6.38751L8.71916 6.30117H8.80549V6.38751V6.47384Z" fill="#E3DFBA"/>
<path d="M8.37383 6.6465L8.46016 6.38751L8.54649 6.30117V6.21484L8.37383 6.30117L8.20117 6.47384V6.73283C8.22995 6.79038 8.30477 6.90549 8.37383 6.90549H8.54649C8.63283 6.90549 8.46016 6.81916 8.46016 6.73283C8.46016 6.66376 8.40261 6.6465 8.37383 6.6465Z" fill="#E3DFBA"/>
</g>
<defs>
<clipPath id="clip0_2485_3266">
<rect width="24" height="24" fill="white"/>
</clipPath>
</defs>
</svg>
