<svg width="24" height="24" viewBox="0 0 24 24" fill="none" xmlns="http://www.w3.org/2000/svg">
<circle cx="12" cy="12" r="12" fill="#E6007A"/>
<path d="M11.9998 6.46094C13.8691 6.46094 15.3845 5.56551 15.3845 4.46094C15.3845 3.35637 13.8691 2.46094 11.9998 2.46094C10.1306 2.46094 8.61523 3.35637 8.61523 4.46094C8.61523 5.56551 10.1306 6.46094 11.9998 6.46094Z" fill="white"/>
<path d="M11.9998 21.5391C13.8691 21.5391 15.3845 20.6436 15.3845 19.5391C15.3845 18.4345 13.8691 17.5391 11.9998 17.5391C10.1306 17.5391 8.61523 18.4345 8.61523 19.5391C8.61523 20.6436 10.1306 21.5391 11.9998 21.5391Z" fill="white"/>
<path d="M7.27095 9.2725C8.20807 7.6494 8.20199 5.89148 7.25736 5.34608C6.31273 4.80068 4.78727 5.67433 3.85014 7.29744C2.91301 8.92054 2.91909 10.6785 3.86372 11.2239C4.80835 11.7693 6.33382 10.8956 7.27095 9.2725Z" fill="white"/>
<path d="M20.1485 16.7067C21.0856 15.0836 21.0801 13.326 20.1361 12.781C19.1921 12.2359 17.6671 13.1099 16.73 14.733C15.7929 16.3561 15.7985 18.1137 16.7425 18.6587C17.6864 19.2038 19.2114 18.3298 20.1485 16.7067Z" fill="white"/>
<path d="M7.25736 18.6578C8.20199 18.1124 8.20807 16.3545 7.27095 14.7314C6.33382 13.1083 4.80835 12.2346 3.86372 12.78C2.91909 13.3254 2.91301 15.0834 3.85014 16.7065C4.78727 18.3296 6.31273 19.2032 7.25736 18.6578Z" fill="white"/>
<path d="M20.1371 11.2229C21.0811 10.6779 21.0866 8.9203 20.1495 7.29719C19.2124 5.67409 17.6874 4.80014 16.7434 5.34517C15.7994 5.8902 15.7939 7.64782 16.731 9.27092C17.6681 10.894 19.1931 11.768 20.1371 11.2229Z" fill="white"/>
</svg>
