<svg width="24" height="24" viewBox="0 0 24 24" fill="none" xmlns="http://www.w3.org/2000/svg">
<g clip-path="url(#clip0_2026_1525)">
<path d="M12 24C18.6274 24 24 18.6274 24 12C24 5.37259 18.6274 0 12 0C5.37259 0 0 5.37259 0 12C0 18.6274 5.37259 24 12 24Z" fill="#8150E6"/>
<mask id="mask0_2026_1525" style="mask-type:alpha" maskUnits="userSpaceOnUse" x="0" y="0" width="24" height="24">
<path d="M12 24C18.6274 24 24 18.6274 24 12C24 5.37259 18.6274 0 12 0C5.37259 0 0 5.37259 0 12C0 18.6274 5.37259 24 12 24Z" fill="#8150E6"/>
</mask>
<g mask="url(#mask0_2026_1525)">
<path d="M23.7472 15.5L15.0272 6.9L10.2272 6L7.40723 16.68L14.7872 24C19.1672 23.04 22.76 19.76 23.7472 15.5Z" fill="#3C176B"/>
</g>
<path d="M10.9811 15.9715V8.92247H12.8302C13.4245 8.92247 14.0189 8.98655 14.5472 9.1788C15.0755 9.30696 15.5377 9.56329 15.8679 9.8837C15.934 9.94779 16 9.94779 16 10.0119C16 9.05063 15.6698 8.0894 15.1415 7.25633C14.6132 7.12816 14.0189 7 13.4245 7H9V15.9715C9.66038 15.9715 10.3208 16.0356 10.9811 15.9715Z" fill="#6B42BD"/>
<path d="M18.0266 10.4409C17.7266 9.72094 17.3666 9.18094 16.8866 8.70094C16.4066 8.22094 14.8466 6.67357 14.5 6.50026C14.38 6.44026 14.9666 7.62093 14.8466 7.56094C15.3266 8.34093 15.6266 9.24094 15.6266 10.1409C15.9266 10.4409 16.1066 11.5209 16.2266 11.9409L11.0666 16.6809V15.7209C10.4666 15.7809 9.8666 15.7209 9.2666 15.7209V18.4809H13.1066C13.7066 18.4809 14.3666 18.3609 14.9666 18.1209C15.6266 17.8809 16.1666 17.5809 16.7066 17.1009C17.2466 16.6209 17.6666 16.0809 17.9666 15.3609C18.3266 14.6409 18.4466 13.8009 18.4466 12.8409C18.4466 11.8809 18.2666 11.1009 18.0266 10.4409Z" fill="#9B74EC"/>
<path d="M10.5267 14.8195C11.0667 14.8195 11.6067 14.7595 12.1467 14.5795C12.6267 14.4595 13.1067 14.2195 13.4667 13.9195C13.8267 13.6195 14.1267 13.1995 14.3667 12.7195C14.6067 12.2395 14.6667 11.6395 14.6667 10.9795C14.6667 10.3195 14.5467 9.77953 14.3667 9.29953C14.1867 8.81953 13.8867 8.39953 13.5867 8.09953C13.2267 7.79953 12.8667 7.55953 12.3867 7.43953C11.9067 7.31953 11.4267 7.19953 10.8267 7.19953H9.14668V14.8195H10.5267ZM7.34668 5.51953H11.3667C12.0267 5.51953 12.6867 5.63953 13.3467 5.87953C13.9467 6.11953 14.5467 6.47953 15.0267 6.89953C15.5067 7.37953 15.8667 7.91953 16.1667 8.63953C16.4667 9.35953 16.5867 10.1395 16.5867 11.0395C16.5867 11.9995 16.4067 12.8395 16.1067 13.5595C15.7467 14.2795 15.3267 14.8195 14.8467 15.2995C14.3067 15.7795 13.7667 16.0795 13.1067 16.3195C12.4467 16.5595 11.8467 16.6795 11.2467 16.6795H7.40668V5.51953H7.34668Z" fill="white"/>
</g>
<defs>
<clipPath id="clip0_2026_1525">
<rect width="24" height="24" fill="white"/>
</clipPath>
</defs>
</svg>
