<svg width="24" height="24" viewBox="0 0 24 24" fill="none" xmlns="http://www.w3.org/2000/svg">
<g clip-path="url(#clip0_720_16143)">
<path d="M12 24C18.6274 24 24 18.6274 24 12C24 5.37258 18.6274 0 12 0C5.37258 0 0 5.37258 0 12C0 18.6274 5.37258 24 12 24Z" fill="white"/>
<path d="M7.92943 18.9939C6.75318 18.9939 5.57693 18.9846 4.40068 18.9999C4.03019 19.005 3.9463 18.875 4.02936 18.5183C4.70222 15.6432 5.36677 12.7657 6.0255 9.88636C6.09278 9.59164 6.21905 9.45659 6.53221 9.46934C7.07133 9.49057 7.6121 9.46254 8.15122 9.47783C8.43365 9.48632 8.58068 9.39204 8.63883 9.09562C8.73934 8.58262 8.88554 8.07895 8.98689 7.5668C9.04503 7.27123 9.19207 7.1778 9.47616 7.18629C10.0294 7.20328 10.5835 7.18204 11.1367 7.19224C11.3842 7.19648 11.5155 7.11155 11.5687 6.85165C11.6741 6.33949 11.7921 5.82903 11.9383 5.32877C11.9757 5.19967 12.136 5.01621 12.2432 5.01366C13.6695 4.98224 15.0991 4.9576 16.4597 5.51223C19.6304 6.80409 20.8723 10.1658 19.3571 13.3644C18.2399 15.7248 16.3974 17.2663 14.0657 18.2584C12.6161 18.875 11.0935 19.0016 9.5476 18.9948C9.00848 18.9914 8.46937 18.9939 7.92943 18.9939ZM6.89938 16.7321C6.93094 16.558 6.95171 16.4068 6.98577 16.2582C7.35791 14.6334 7.74418 13.0111 8.10221 11.3829C8.33895 10.3068 8.4918 10.4359 7.29977 10.4486C7.176 10.4503 6.97165 10.6117 6.94257 10.7332C6.39266 13.0417 5.86518 15.3562 5.32689 17.6681C5.2621 17.9458 5.33105 18.0639 5.62262 18.0545C7.55728 17.9908 9.50772 18.0681 11.4241 17.8456C14.4935 17.4906 16.8476 15.87 18.2773 13.0383C19.0805 11.4475 19.1063 9.78189 18.1194 8.22419C17.0046 6.46604 14.7934 5.86895 13.0531 6.01504C12.9825 6.02099 12.8728 6.07789 12.8562 6.13395C12.7607 6.46095 12.6884 6.79474 12.5879 7.21007C12.9542 7.21007 13.2151 7.20328 13.4742 7.21092C16.2246 7.29416 18.4907 10.187 16.8717 13.2421C15.7786 15.3052 14.0291 16.4518 11.7988 16.6964C10.2379 16.868 8.6488 16.772 7.07299 16.7933C7.03478 16.7941 6.99657 16.7678 6.89938 16.7321ZM11.5761 9.47273C11.5761 9.47358 11.5761 9.47358 11.5761 9.47443C12.0189 9.47443 12.4616 9.47953 12.9044 9.47358C13.5698 9.46509 14.167 9.63751 14.4686 10.2941C14.7643 10.9387 14.6006 11.5681 14.2235 12.1397C13.9012 12.6289 13.4319 12.9287 12.9011 13.1198C12.6228 13.2201 12.5754 13.3576 12.6751 13.6269C12.8363 14.0635 12.9841 14.506 13.1079 14.9553C13.1943 15.2712 13.3422 15.2831 13.5922 15.1489C14.4013 14.7115 15.1032 14.1424 15.6066 13.3576C16.3227 12.2416 16.6383 11.0381 15.9771 9.79464C15.3358 8.58771 14.231 8.17493 12.9376 8.18767C12.2182 8.19531 11.498 8.18427 10.7787 8.18937C9.7669 8.19701 9.97623 8.06282 9.71457 9.10751C9.6506 9.36232 9.73367 9.47868 9.99866 9.47528C10.5245 9.46764 11.0503 9.47273 11.5761 9.47273ZM8.19774 15.7554C9.42632 15.7554 10.5968 15.7613 11.7664 15.7511C12.0139 15.7486 11.9981 15.5634 11.9391 15.3816C11.7456 14.7922 11.5421 14.2053 11.3643 13.6108C11.2812 13.333 11.1309 13.2268 10.8526 13.2379C10.4572 13.254 10.061 13.2421 9.66971 13.2421C9.64645 12.341 9.74613 12.2331 10.5195 12.2306C11.0171 12.2289 11.5188 12.2535 12.0114 12.2017C12.3312 12.1677 12.6577 12.0547 12.9476 11.9087C13.2749 11.7439 13.4036 11.4254 13.3305 11.0483C13.2591 10.6856 12.985 10.5573 12.6718 10.4945C12.4965 10.4597 12.3154 10.4401 12.136 10.4384C11.3477 10.4316 10.5585 10.4478 9.77105 10.4265C9.46702 10.4181 9.37565 10.5489 9.31501 10.8266C9.05085 12.0267 8.76343 13.2209 8.48765 14.4185C8.38713 14.8542 8.29742 15.2916 8.19774 15.7554Z" fill="black"/>
</g>
<defs>
<clipPath id="clip0_720_16143">
<rect width="24" height="24" fill="white"/>
</clipPath>
</defs>
</svg>
