<svg width="24" height="24" viewBox="0 0 24 24" fill="none" xmlns="http://www.w3.org/2000/svg">
<g clip-path="url(#clip0_2068_2883)">
<circle cx="12" cy="12" r="12" fill="white"/>
<path d="M19.5585 13.3598H17.2578C17.4004 12.4586 17.4004 11.5412 17.2578 10.6385H19.5585C19.8023 10.6385 20 10.4489 20 10.2151C20 9.98132 19.8023 9.79168 19.5585 9.79168H17.08C16.6677 8.21862 15.8184 6.78084 14.6198 5.63557C12.6272 3.72299 9.8712 2.77917 7.06154 3.04378C7.02477 3.04821 6.99713 3.0805 7.00176 3.11583C7.00639 3.14671 7.03086 3.17024 7.06154 3.17316C9.18908 3.37606 11.1771 4.27872 12.69 5.7283C13.881 6.87058 14.7072 8.26872 15.1118 9.79326H8.52688C8.28313 9.79326 8.08541 9.9829 8.08541 10.2167C8.08541 10.4505 8.28313 10.6401 8.52688 10.6401H15.2911C15.3632 11.09 15.3985 11.5457 15.3985 12C15.3985 12.4558 15.3632 12.91 15.2911 13.3599H8.52688C8.28313 13.3599 8.08541 13.5495 8.08541 13.7833C8.08541 14.0171 8.28313 14.2067 8.52688 14.2067H15.1118C14.7072 15.7313 13.881 17.1294 12.69 18.2717C11.1771 19.7213 9.18908 20.6239 7.06154 20.8268C7.02477 20.8298 6.99713 20.8621 7.00024 20.8974C7.00328 20.9283 7.02934 20.9533 7.06154 20.9562C9.87272 21.2208 12.6272 20.277 14.6198 18.3644C15.8169 17.2176 16.6677 15.7813 17.08 14.2068H19.5585C19.8023 14.2068 20 14.0172 20 13.7834C19.9999 13.5495 19.8022 13.3598 19.5585 13.3598Z" fill="#3B218C"/>
</g>
<defs>
<clipPath id="clip0_2068_2883">
<rect width="24" height="24" fill="white"/>
</clipPath>
</defs>
</svg>
