<svg width="24" height="24" viewBox="0 0 24 24" fill="none" xmlns="http://www.w3.org/2000/svg">
<g clip-path="url(#clip0_2726_2473)">
<path d="M11.8508 0.000230704C9.48394 0.0297215 7.17861 0.758559 5.22491 2.09501C3.27122 3.43145 1.75643 5.31586 0.871055 7.51111C-0.0143146 9.70636 -0.23068 12.1144 0.249166 14.4323C0.729013 16.7502 1.88361 18.8745 3.56776 20.5378C5.25192 22.2011 7.39037 23.3293 9.71409 23.7802C12.0378 24.2312 14.443 23.9848 16.6271 23.0722C18.8111 22.1596 20.6765 20.6214 21.9885 18.6512C23.3006 16.6811 24.0006 14.3669 24.0006 11.9998C23.9806 8.79744 22.6892 5.73418 20.4107 3.48386C18.1322 1.23355 15.0532 -0.0195512 11.8508 0.000230704Z" fill="#00EDBE"/>
<path fill-rule="evenodd" clip-rule="evenodd" d="M16.6517 7.56258L16.6517 7.56238L16.6517 7.56217V7.56258ZM16.6517 7.56238C16.6193 6.96241 16.7656 6.36631 17.0723 5.84961H7.27822C7.19044 5.8493 7.10347 5.86628 7.02225 5.89957C6.94104 5.93287 6.86717 5.98184 6.80489 6.04369C6.7426 6.10553 6.6931 6.17904 6.65922 6.26001C6.62534 6.34098 6.60774 6.42784 6.60742 6.51561V8.60914C6.60774 8.69692 6.62534 8.78377 6.65922 8.86474C6.6931 8.94572 6.7426 9.01922 6.80489 9.08107C6.86717 9.14291 6.94104 9.19188 7.02225 9.22518C7.10347 9.25848 7.19044 9.27545 7.27822 9.27514H17.0723C16.7656 8.75844 16.6193 8.16234 16.6517 7.56238ZM5.08132 12.0333C5.11328 12.6333 4.96635 13.2294 4.65918 13.7458H14.4532C14.541 13.7462 14.628 13.7292 14.7092 13.6959C14.7904 13.6626 14.8643 13.6136 14.9266 13.5518C14.9889 13.4899 15.0384 13.4164 15.0722 13.3354C15.1061 13.2545 15.1237 13.1676 15.124 13.0798V10.9863C15.1237 10.8985 15.1061 10.8117 15.0722 10.7307C15.0384 10.6497 14.9889 10.5762 14.9266 10.5144C14.8643 10.4525 14.7904 10.4036 14.7092 10.3703C14.628 10.337 14.541 10.32 14.4532 10.3203H4.65918C4.96587 10.8371 5.11224 11.4332 5.07973 12.0333H5.08132ZM16.6517 16.5038C16.6517 16.5039 16.6517 16.5039 16.6517 16.504V16.5036C16.6517 16.5036 16.6517 16.5037 16.6517 16.5038ZM17.0723 14.791C16.7656 15.3077 16.6193 15.9038 16.6517 16.5038C16.6193 17.1037 16.7656 17.6998 17.0723 18.2165H7.27822C7.19044 18.2169 7.10347 18.1999 7.02225 18.1666C6.94104 18.1333 6.86717 18.0843 6.80489 18.0225C6.7426 17.9606 6.6931 17.8871 6.65922 17.8061C6.62534 17.7252 6.60774 17.6383 6.60742 17.5505V15.457C6.60774 15.3692 6.62534 15.2824 6.65922 15.2014C6.6931 15.1204 6.7426 15.0469 6.80489 14.9851C6.86717 14.9232 6.94104 14.8743 7.02225 14.841C7.10347 14.8077 7.19044 14.7907 7.27822 14.791H17.0723Z" fill="#141BEB"/>
</g>
<defs>
<clipPath id="clip0_2726_2473">
<rect width="24" height="24" fill="white"/>
</clipPath>
</defs>
</svg>
