<svg width="24" height="24" viewBox="0 0 24 24" fill="none" xmlns="http://www.w3.org/2000/svg">
<g clip-path="url(#clip0_720_16218)">
<path d="M12 24C18.6274 24 24 18.6274 24 12C24 5.37258 18.6274 0 12 0C5.37258 0 0 5.37258 0 12C0 18.6274 5.37258 24 12 24Z" fill="black"/>
<path d="M12.7526 12.0639L19 8.78435L17.9493 6.80078L12.2289 9.07428C12.0815 9.1329 11.9185 9.1329 11.7711 9.07428L6.05068 6.80078L5 8.78435L11.2474 12.0639L5 15.3434L6.05068 17.327L11.7711 15.0535C11.9185 14.9949 12.0815 14.9949 12.2289 15.0535L17.9493 17.327L19 15.3434L12.7526 12.0639Z" fill="#23F7DD"/>
</g>
<defs>
<clipPath id="clip0_720_16218">
<rect width="24" height="24" fill="white"/>
</clipPath>
</defs>
</svg>
