<svg width="24" height="24" viewBox="0 0 24 24" fill="none" xmlns="http://www.w3.org/2000/svg">
<g clip-path="url(#clip0_720_16253)">
<path d="M18.9721 16.7861C21.7477 16.7861 23.9978 14.5359 23.9978 11.7602C23.9978 8.98452 21.7477 6.73438 18.9721 6.73438C16.1964 6.73438 13.9463 8.98452 13.9463 11.7602C13.9463 14.5359 16.1964 16.7861 18.9721 16.7861Z" fill="#2B5EBA"/>
<path d="M12.6206 4.8468C13.959 4.8468 15.044 3.76182 15.044 2.42341C15.044 1.085 13.959 0 12.6206 0C11.2822 0 10.1973 1.085 10.1973 2.42341C10.1973 3.76182 11.2822 4.8468 12.6206 4.8468Z" fill="#2B5EBA"/>
<path d="M12.6206 23.5305C13.959 23.5305 15.044 22.4455 15.044 21.107C15.044 19.7686 13.959 18.6836 12.6206 18.6836C11.2822 18.6836 10.1973 19.7686 10.1973 21.107C10.1973 22.4455 11.2822 23.5305 12.6206 23.5305Z" fill="#2B5EBA"/>
<path d="M11.5105 15.3882C11.6538 15.4359 11.8089 15.4598 11.9641 15.4598C12.7998 15.4598 13.4802 14.7793 13.4802 13.9437C13.4802 13.108 12.7998 12.4276 11.9641 12.4276C11.4269 12.4276 10.9614 12.7021 10.6868 13.12V13.1319C10.639 13.1916 10.6032 13.2632 10.5793 13.3348C8.90802 16.2835 5.55347 14.3137 5.55347 14.3137C5.00435 13.9915 4.37162 13.8004 3.67922 13.8004C1.66173 13.8004 0.0262402 15.4359 0.0262402 17.4534C0.0262402 19.4709 1.66173 21.1064 3.67922 21.1064C5.08791 21.1064 6.31751 20.3066 6.91442 19.1367V19.1247C7.02184 18.9218 7.1054 18.7069 7.17704 18.4801C8.91998 14.4809 11.5105 15.3882 11.5105 15.3882ZM10.651 10.0281C10.7226 10.1594 10.8181 10.2907 10.9255 10.3981C11.5224 10.995 12.4775 10.995 13.0624 10.3981C13.6593 9.80123 13.6593 8.84621 13.0624 8.26123C12.6804 7.87923 12.1551 7.74792 11.6776 7.85534H11.6657C11.5941 7.86731 11.5105 7.89116 11.4389 7.92698C8.16787 8.83425 7.18897 5.06189 7.18897 5.06189C7.0338 4.44112 6.71147 3.85614 6.23395 3.37864C4.8014 1.94609 2.49738 1.94609 1.07677 3.3667C-0.343835 4.78731 -0.355773 7.10327 1.07677 8.52389C2.07956 9.52665 3.50017 9.82512 4.76558 9.41923H4.77751C4.99242 9.3476 5.20729 9.25211 5.42217 9.14465C9.46911 7.54498 10.651 10.0281 10.651 10.0281Z" fill="#2B5EBA"/>
</g>
<defs>
<clipPath id="clip0_720_16253">
<rect width="24" height="24" fill="white"/>
</clipPath>
</defs>
</svg>
