<svg width="25" height="24" viewBox="0 0 25 24" fill="none" xmlns="http://www.w3.org/2000/svg">
<g clip-path="url(#clip0_2068_1955)">
<path fill-rule="evenodd" clip-rule="evenodd" d="M12.6367 24C6.03672 24 0.636719 18.6001 0.636719 11.9402C0.696719 5.34038 6.03672 -0.0595036 12.6967 0.000495205C19.2967 0.060494 24.6367 5.40038 24.6367 12.1202C24.5767 18.6601 19.2367 24 12.6367 24Z" fill="black"/>
<path fill-rule="evenodd" clip-rule="evenodd" d="M8.80433 9.152L12.5483 4L16.2603 9.12L17.8603 16.768L12.5483 20L7.23633 16.768L8.80433 9.152ZM9.28433 10.624L8.10033 16.416L11.9723 18.784L9.28433 10.624ZM9.66833 9.312L12.5483 5.344L15.4283 9.312L12.5483 18.016L9.66833 9.312ZM15.7803 10.624L13.0923 18.784L16.9643 16.416L15.7803 10.624Z" fill="white"/>
</g>
<defs>
<clipPath id="clip0_2068_1955">
<rect width="24" height="24" fill="white" transform="translate(0.636719)"/>
</clipPath>
</defs>
</svg>
