<svg width="25" height="24" viewBox="0 0 25 24" fill="none" xmlns="http://www.w3.org/2000/svg">
<g clip-path="url(#clip0_2363_1681)">
<path d="M7.50201 16.0697C12.1184 19.195 17.8975 12.76 18.336 8.55492C18.4184 8.6373 18.4964 8.72602 18.568 8.82043C19.8759 10.532 19.4196 14.0882 16.5199 17.0893C13.4599 20.2565 4.49646 22.4572 2.13473 20.1494C2.09862 20.1139 2.06313 20.0771 2.02891 20.0385C1.96618 19.97 1.90661 19.8972 1.84958 19.8192H1.84895C0.217853 17.6089 0.559406 11.7594 5.60603 7.08162L5.60667 7.08098C6.7663 6.00626 8.17434 4.99301 9.86373 4.10015C15.712 1.00969 19.668 1.93043 21.8333 3.08119C23.0905 3.74846 23.7439 4.49367 23.8136 4.57541C23.8161 4.57795 23.818 4.58048 23.8199 4.58301C23.8199 4.58301 18.184 1.57747 10.9372 6.51511C3.69105 11.4534 7.50201 16.0697 7.50201 16.0697Z" fill="url(#paint0_linear_2363_1681)"/>
<path d="M18.1783 19.1717C15.4978 21.0259 13.1006 22.0144 10.9575 22.4434C9.26684 22.7805 7.7346 22.7698 6.34557 22.5594C3.19681 22.0822 1.84961 19.82 1.84961 19.82H1.85024C1.93896 19.941 2.03464 20.0513 2.1354 20.1501C4.49713 22.458 13.4605 20.2572 16.5206 17.0901C19.4203 14.089 19.8765 10.5328 18.5686 8.8212C18.5072 8.71538 18.4305 8.62603 18.3367 8.55569C17.0389 7.58996 14.624 7.23193 11.1172 9.77235C7.60976 12.3134 7.50267 16.0705 7.50267 16.0705C7.50267 16.0705 3.69172 11.4541 10.9378 6.51587C16.1803 2.94382 20.5793 3.5287 22.6121 4.12563H22.6134C23.3897 4.35376 23.8206 4.58378 23.8206 4.58378C27.053 8.84211 22.9733 15.8557 18.1783 19.1717Z" fill="url(#paint1_linear_2363_1681)"/>
<path d="M18.1778 19.1711C15.4973 21.0252 13.1001 22.0138 10.957 22.4428C10.9577 22.4422 10.9583 22.4415 10.9589 22.4415C17.2869 19.3999 20.4185 15.8481 22.0515 11.8927C22.0515 11.8927 22.0528 11.8901 22.0528 11.8888C22.054 11.885 22.0566 11.8787 22.0604 11.8698C22.1839 11.5707 22.2986 11.2697 22.4051 10.9656C22.4773 10.7596 22.5464 10.5524 22.6117 10.3446C24.0514 5.76433 22.6117 4.125 22.6117 4.125H22.6129C23.3892 4.35312 23.8201 4.58315 23.8201 4.58315C24.1255 4.98554 24.3663 5.41327 24.5469 5.86002C26.2743 10.1348 22.5192 16.1687 18.1778 19.1711Z" fill="url(#paint2_linear_2363_1681)"/>
<path d="M5.60603 7.08203C5.55661 7.1511 2.3825 11.5945 2.06313 17.1436C1.99596 18.3058 1.99216 19.2588 2.02891 20.0389C1.96618 19.9705 1.90661 19.8976 1.84958 19.8196H1.84895C0.217853 17.6094 0.559406 11.7599 5.60603 7.08203Z" fill="#57A9E8"/>
<path d="M24.5471 5.86002C24.0117 6.84792 22.9559 9.53409 22.4053 10.9656C22.4775 10.7596 22.5466 10.5524 22.6119 10.3446C24.0516 5.76433 22.6119 4.125 22.6119 4.125H22.6131C23.3894 4.35312 23.8203 4.58315 23.8203 4.58315C24.1257 4.98554 24.3665 5.41327 24.5471 5.86002Z" fill="#DE90DA"/>
</g>
<defs>
<linearGradient id="paint0_linear_2363_1681" x1="0.976368" y1="11.5535" x2="23.8199" y2="11.5535" gradientUnits="userSpaceOnUse">
<stop stop-color="#57B3E8"/>
<stop offset="1" stop-color="#3975D7"/>
</linearGradient>
<linearGradient id="paint1_linear_2363_1681" x1="24.9352" y1="5.43672" x2="2.44527" y2="21.4859" gradientUnits="userSpaceOnUse">
<stop stop-color="#D06DD5"/>
<stop offset="0.73" stop-color="#6462D9"/>
</linearGradient>
<linearGradient id="paint2_linear_2363_1681" x1="25.1249" y1="6.21361" x2="11.9202" y2="23.1215" gradientUnits="userSpaceOnUse">
<stop stop-color="#D06DD5"/>
<stop offset="0.81" stop-color="#6029F0"/>
<stop offset="0.99" stop-color="#3365D7"/>
</linearGradient>
<clipPath id="clip0_2363_1681">
<rect width="24" height="24" fill="white" transform="translate(0.976562)"/>
</clipPath>
</defs>
</svg>
