<svg width="25" height="24" viewBox="0 0 25 24" fill="none" xmlns="http://www.w3.org/2000/svg">
<g clip-path="url(#clip0_3122_2320)">
<mask id="mask0_3122_2320" style="mask-type:luminance" maskUnits="userSpaceOnUse" x="0" y="0" width="25" height="24">
<path d="M24.3921 0H0.39209V24H24.3921V0Z" fill="white"/>
</mask>
<g mask="url(#mask0_3122_2320)">
<path fill-rule="evenodd" clip-rule="evenodd" d="M12.3921 24C5.79209 24 0.39209 18.6001 0.39209 11.9402C0.45209 5.34039 5.79209 -0.0595034 12.4521 0.000495201C19.0521 0.0604941 24.3921 5.40039 24.3921 12.1202C24.3321 18.6601 18.9921 24 12.3921 24Z" fill="#F7F8FA"/>
<path d="M12.926 0.667969L12.7847 1.19118V16.3721L12.926 16.5258L19.3921 12.3604L12.926 0.667969Z" fill="#343434"/>
<path d="M12.7847 0.667969L6.17725 12.3604L12.7847 16.5258V9.15736V0.667969Z" fill="#8C8C8C"/>
<path d="M12.865 17.761L12.7847 17.8596V22.8971L12.865 23.1332L19.3921 13.8828L12.865 17.761Z" fill="#3C3C3B"/>
<path d="M12.7847 23.1332V17.761L6.17725 13.8828L12.7847 23.1332Z" fill="#8C8C8C"/>
<path d="M12.7847 16.5266L19.3921 12.4673L12.7847 8.59766V16.5266Z" fill="#141414"/>
<path d="M6.17725 12.4673L12.7847 16.5266V8.59766L6.17725 12.4673Z" fill="#393939"/>
</g>
</g>
<defs>
<clipPath id="clip0_3122_2320">
<rect width="25" height="24" fill="white"/>
</clipPath>
</defs>
</svg>
