<svg width="24" height="24" viewBox="0 0 24 24" fill="none" xmlns="http://www.w3.org/2000/svg">
<path fill-rule="evenodd" clip-rule="evenodd" d="M12 0C18.6274 0 24 5.37257 24 12C24 18.6274 18.6274 24 12 24C5.37257 24 0 18.6274 0 12C0 5.37257 5.37257 0 12 0Z" fill="#2775CA"/>
<path fill-rule="evenodd" clip-rule="evenodd" d="M14.7419 3.55074C14.4712 3.46429 14.25 3.6249 14.25 3.90901V4.60769C14.25 4.79817 14.3935 5.01498 14.5724 5.08053C17.4446 6.13253 19.5 8.89329 19.5 12.1255C19.5 15.3577 17.4446 18.1183 14.5724 19.1704C14.3762 19.2422 14.25 19.4344 14.25 19.6433V20.3419C14.25 20.626 14.4712 20.7866 14.7419 20.7002C18.3716 19.5404 20.9999 16.1399 20.9999 12.1255C20.9999 8.11102 18.3716 4.71046 14.7419 3.55074Z" fill="white"/>
<path fill-rule="evenodd" clip-rule="evenodd" d="M9.75003 3.90901C9.75003 3.6249 9.52877 3.46429 9.25817 3.55074C5.62838 4.71046 3 8.11098 3 12.1255C3 16.14 5.62838 19.5404 9.25817 20.7002C9.52875 20.7866 9.75003 20.626 9.75003 20.3419V19.6433C9.75003 19.4527 9.60645 19.2359 9.42758 19.1704C6.55539 18.1183 4.5 15.3576 4.5 12.1255C4.5 8.89333 6.55539 6.13253 9.42758 5.08053C9.60645 5.01498 9.75003 4.79817 9.75003 4.60768V3.90901Z" fill="white"/>
<path d="M15.0686 14.466L14.3821 14.1593C14.231 14.0918 14.0528 14.1549 13.9796 14.3034C13.6556 14.9609 13.1171 15.38 12.4058 15.38C11.7618 15.38 11.2452 15.0646 10.8493 14.4273C10.6946 14.1807 10.5717 13.9055 10.478 13.604H12.3214C12.4382 13.604 12.5451 13.5382 12.5978 13.4338L13.0376 12.8402C13.1416 12.6342 12.992 12.391 12.7613 12.391H10.2706C10.2634 12.2632 10.259 12.133 10.259 11.9988C10.2576 11.8658 10.2614 11.7355 10.2683 11.6071H12.3214C12.4382 11.6071 12.5451 11.5414 12.5978 11.4371L13.0376 10.8435C13.1417 10.6375 12.992 10.3942 12.7613 10.3942H10.4758C10.8101 9.3043 11.5079 8.59026 12.4058 8.60429C13.09 8.60429 13.6211 8.97887 13.9618 9.59234C14.0382 9.72985 14.21 9.78255 14.3539 9.71903L15.0439 9.41443C15.209 9.34154 15.2792 9.1419 15.1918 8.984C14.5548 7.83367 13.6262 7.25586 12.4058 7.25586C11.2922 7.25586 10.3999 7.69862 9.7223 8.57746C9.32629 9.09506 9.05062 9.70238 8.88702 10.3942H7.8847C7.76785 10.3942 7.66096 10.4599 7.60829 10.5642L7.16842 11.1579C7.0644 11.3639 7.21409 11.6071 7.44483 11.6071H8.72141C8.71525 11.736 8.70935 11.8652 8.70935 11.9988C8.70772 12.1313 8.71084 12.2617 8.71645 12.391H7.8847C7.76785 12.391 7.66096 12.4568 7.60829 12.561L7.16842 13.1546C7.0644 13.3606 7.21409 13.604 7.44483 13.604H8.88411C9.33929 15.4853 10.6497 16.7683 12.4058 16.7418C13.6526 16.7418 14.5923 16.122 15.2196 14.8878C15.2995 14.7307 15.2295 14.5379 15.0686 14.466Z" fill="white"/>
</svg>
