<svg width="24" height="24" viewBox="0 0 24 24" fill="none" xmlns="http://www.w3.org/2000/svg">
<path fill-rule="evenodd" clip-rule="evenodd" d="M4.59156 1.9706L0.329047 10.8905C0.312828 10.9236 0.307688 10.9611 0.314379 10.9974C0.321071 11.0337 0.339243 11.0669 0.366239 11.0922L11.8783 22.0821C11.911 22.1134 11.9545 22.1308 11.9998 22.1308C12.0452 22.1308 12.0887 22.1134 12.1214 22.0821L23.6334 11.0929C23.6604 11.0676 23.6786 11.0344 23.6853 10.9981C23.692 10.9618 23.6868 10.9243 23.6706 10.8912L19.4081 1.97128C19.3944 1.94133 19.3722 1.91595 19.3444 1.89819C19.3165 1.88042 19.2841 1.87102 19.2511 1.87111H4.74997C4.71676 1.8707 4.68411 1.87987 4.65601 1.89752C4.62791 1.91518 4.60552 1.94055 4.59156 1.9706Z" fill="#50AF95"/>
<path fill-rule="evenodd" clip-rule="evenodd" d="M13.4908 11.8804C13.4075 11.8866 12.9775 11.9121 12.0181 11.9121C11.2551 11.9121 10.7134 11.8893 10.5233 11.8804C7.57458 11.7515 5.3736 11.2417 5.3736 10.6313C5.3736 10.0208 7.57458 9.51169 10.5233 9.38078V11.3726C10.7161 11.3864 11.2683 11.4188 12.0313 11.4188C12.9469 11.4188 13.4055 11.3809 13.488 11.3733V9.38216C16.4305 9.51238 18.6266 10.0222 18.6266 10.6313C18.6266 11.2403 16.4312 11.7502 13.488 11.8797L13.4908 11.8804ZM13.4908 9.17616V7.39379H17.5972V4.67578H6.41685V7.39379H10.5226V9.17548C7.18543 9.32772 4.67578 9.98431 4.67578 10.7711C4.67578 11.5579 7.18543 12.2138 10.5226 12.3668V18.0784H13.4901V12.3647C16.8196 12.2124 19.3251 11.5565 19.3251 10.7704C19.3251 9.98431 16.8217 9.32841 13.4901 9.17548L13.4908 9.17616Z" fill="white"/>
</svg>
