<svg width="25" height="24" viewBox="0 0 25 24" fill="none" xmlns="http://www.w3.org/2000/svg">
<path d="M15.1326 3.44349H7.7804L3.25 9.28224L7.23433 14.4168L15.3722 3.92779C15.4217 3.8642 15.4438 3.7836 15.4339 3.70368C15.4239 3.62376 15.3826 3.55107 15.3191 3.50156C15.2652 3.46194 15.1995 3.4415 15.1326 3.44349Z" fill="url(#paint0_linear_2361_2333)"/>
<path d="M4.15041 2.005C4.10236 2.0044 4.05486 2.01531 4.01188 2.0368C3.9689 2.05829 3.93167 2.08975 3.90332 2.12854C2.62215 3.82729 1.07043 5.89173 1.02595 5.98315C0.986137 6.06307 0.969874 6.15267 0.979061 6.24148C0.988249 6.3303 1.02251 6.41467 1.07784 6.48475L3.25223 9.28922L8.5202 2.49424C8.54521 2.46309 8.56383 2.42733 8.575 2.38899C8.58618 2.35064 8.58968 2.31047 8.58532 2.27077C8.58096 2.23107 8.56882 2.19262 8.54959 2.15762C8.53036 2.12261 8.50442 2.09174 8.47325 2.06677C8.41897 2.02235 8.35065 1.9987 8.28052 2.00006L4.15041 2.005Z" fill="url(#paint1_linear_2361_2333)"/>
<path d="M13.3052 21.6317L24.9098 6.66416C24.9348 6.63302 24.9534 6.59725 24.9646 6.55891C24.9758 6.52056 24.9793 6.48039 24.9749 6.44069C24.9705 6.40099 24.9584 6.36254 24.9392 6.32754C24.9199 6.29253 24.894 6.26166 24.8628 6.23669C24.8086 6.19227 24.7402 6.16862 24.6701 6.16998H13.6178L7.23047 14.4154L12.8258 21.6317C12.8503 21.6631 12.8808 21.6895 12.9155 21.7092C12.9503 21.7288 12.9885 21.7414 13.0282 21.7463C13.0678 21.7511 13.1079 21.748 13.1464 21.7373C13.1848 21.7265 13.2207 21.7082 13.2521 21.6835C13.2721 21.6688 13.29 21.6514 13.3052 21.6317Z" fill="url(#paint2_linear_2361_2333)"/>
<defs>
<linearGradient id="paint0_linear_2361_2333" x1="5.4491" y1="12.3387" x2="11.6881" y2="3.07533" gradientUnits="userSpaceOnUse">
<stop stop-color="#ED0E67"/>
<stop offset="1" stop-color="#FF3185"/>
</linearGradient>
<linearGradient id="paint1_linear_2361_2333" x1="6.56819" y1="1.41816" x2="1.25327" y2="9.77105" gradientUnits="userSpaceOnUse">
<stop stop-color="#FF8712"/>
<stop offset="1" stop-color="#ED0E67"/>
</linearGradient>
<linearGradient id="paint2_linear_2361_2333" x1="21.1614" y1="6.2021" x2="7.27" y2="20.0935" gradientUnits="userSpaceOnUse">
<stop stop-color="#F00054"/>
<stop offset="1" stop-color="#C40671"/>
</linearGradient>
</defs>
</svg>
