<svg width="24" height="24" viewBox="0 0 24 24" fill="none" xmlns="http://www.w3.org/2000/svg">
<g clip-path="url(#clip0_720_16402)">
<path d="M12 24C18.6274 24 24 18.6274 24 12C24 5.37258 18.6274 0 12 0C5.37258 0 0 5.37258 0 12C0 18.6274 5.37258 24 12 24Z" fill="white"/>
<path fill-rule="evenodd" clip-rule="evenodd" d="M4 4V19H20V4H4ZM9.59348 5.74H11.0894V7.18003H9.59348V5.74ZM7.38208 5.74H5.82107V7.18003H7.38208V5.74ZM7.31698 9.22005V10.66H5.75597V9.22005H7.31698ZM6.27635 17.1399H6.86175V16.5999H6.27635V17.1399ZM7.38208 14.26H5.82107V12.88H7.38208V14.26ZM10.1139 17.1399H10.6993V16.5999H10.1139V17.1399ZM10.6993 13.78H10.1139V13.24H10.6993V13.78ZM9.59348 10.72H11.1544V9.28001H9.59348V10.72ZM14.4715 17.1399H13.8861V16.5999H14.4715V17.1399ZM13.8861 13.78H14.4715V13.24H13.8861V13.78ZM14.4715 10.2399H13.8861V9.69996H14.4715V10.2399ZM13.431 7.18003H14.992V5.74H13.431V7.18003ZM18.3089 17.1399H17.7236V16.5999H18.3089V17.1399ZM17.7236 13.78H18.3089V13.24H17.7236V13.78ZM18.3089 10.2399H17.7236V9.69996H18.3089V10.2399ZM17.7236 6.76003H18.3089V6.22006H17.7236V6.76003Z" fill="#202944"/>
</g>
<defs>
<clipPath id="clip0_720_16402">
<rect width="24" height="24" fill="white"/>
</clipPath>
</defs>
</svg>
