<svg width="24" height="24" viewBox="0 0 24 24" fill="none" xmlns="http://www.w3.org/2000/svg">
<g clip-path="url(#clip0_720_16405)">
<path fill-rule="evenodd" clip-rule="evenodd" d="M12 24C5.4 24 0 18.6001 0 11.9402C0.06 5.34038 5.4 -0.0595036 12.06 0.000495205C18.66 0.060494 24 5.40038 24 12.1202C23.94 18.6601 18.6 24 12 24Z" fill="#0090FF"/>
<path fill-rule="evenodd" clip-rule="evenodd" d="M13.0412 10.5937L12.6843 12.5162L16.0751 12.9968L15.8371 13.898L12.5058 13.4174C12.2679 14.1984 12.1489 15.0395 11.8515 15.7604C11.554 16.6015 11.2566 17.4426 10.8997 18.2236C10.4238 19.2449 9.59096 19.9659 8.46072 20.1462C7.80636 20.2662 7.0925 20.2062 6.55712 19.7856C6.37866 19.6655 6.2002 19.4252 6.2002 19.2449C6.2002 19.0046 6.31918 18.7042 6.49764 18.5841C6.61662 18.524 6.91403 18.5841 7.09249 18.6442C7.27095 18.8244 7.44944 19.0647 7.5684 19.305C7.92532 19.7856 8.40122 19.8457 8.87712 19.4853C9.4125 19.0046 9.70994 18.3438 9.8884 17.6829C10.2453 16.241 10.6023 14.8593 10.8997 13.4174V13.1771L7.74686 12.6964L7.86584 11.7953L11.1376 12.2759L11.554 10.4135L8.16328 9.87279L8.28226 8.91155L11.792 9.39217C11.911 9.03169 11.9705 8.73131 12.0894 8.43091C12.3869 7.34951 12.6843 6.26811 13.3981 5.30687C14.112 4.34561 14.9448 3.74483 16.194 3.80491C16.7294 3.80491 17.2648 3.98515 17.6217 4.40569C17.6812 4.46577 17.8002 4.58593 17.8002 4.70609C17.8002 4.94639 17.8002 5.24679 17.6217 5.42703C17.3838 5.60725 17.0864 5.54717 16.8484 5.30687C16.6699 5.12663 16.551 4.94639 16.3725 4.76617C16.0156 4.28553 15.4802 4.22547 15.0638 4.64601C14.7664 4.94639 14.4689 5.36695 14.2905 5.78749C13.874 7.04913 13.5766 8.37085 13.1602 9.69255L16.432 10.1732L16.194 11.0743L13.0412 10.5937Z" fill="white"/>
</g>
<defs>
<clipPath id="clip0_720_16405">
<rect width="24" height="24" fill="white"/>
</clipPath>
</defs>
</svg>
