<svg width="24" height="24" viewBox="0 0 24 24" fill="none" xmlns="http://www.w3.org/2000/svg">
<g clip-path="url(#clip0_720_16415)">
<path d="M12 24C18.6274 24 24 18.6274 24 12C24 5.37258 18.6274 0 12 0C5.37258 0 0 5.37258 0 12C0 18.6274 5.37258 24 12 24Z" fill="white"/>
<path d="M11.9944 20.9829C16.9554 20.9829 20.9771 16.9612 20.9771 12.0002C20.9771 7.03926 16.9554 3.01758 11.9944 3.01758C7.0334 3.01758 3.01172 7.03926 3.01172 12.0002C3.01172 16.9612 7.0334 20.9829 11.9944 20.9829Z" fill="#FEFEFE"/>
<path d="M8.28325 15.9422C8.49134 15.9422 8.68786 15.8266 8.78033 15.6416L10.104 13.1272H8.05779C7.74565 13.1272 7.49711 12.8728 7.49711 12.5665V11.4393C7.49711 11.1272 7.75143 10.8786 8.05779 10.8786H11.2948L13.8092 6.11562C13.9075 5.93065 14.0983 5.81502 14.3064 5.81502H18.5434C16.9017 4.08092 14.5838 3 12.0058 3C7.03468 3 3 7.02889 3 12.0058C3 13.4162 3.3237 14.7572 3.90752 15.948H8.28325V15.9422Z" fill="#9B1C2E"/>
<path d="M15.7172 8.05849C15.5091 8.05849 15.3125 8.17411 15.2201 8.35909L13.8963 10.8735H15.9426C16.2547 10.8735 16.5033 11.1279 16.5033 11.4342V12.5614C16.5033 12.8735 16.2489 13.1221 15.9426 13.1221H12.7056L10.1911 17.8851C10.0929 18.0701 9.90215 18.1857 9.69405 18.1857H5.45703C7.09867 19.9198 9.41657 21.0007 11.9946 21.0007C16.9657 21.0007 21.0004 16.9718 21.0004 11.9949C21.0004 10.5845 20.6767 9.24345 20.0929 8.05273H15.7172V8.05849Z" fill="#9B1C2E"/>
</g>
<defs>
<clipPath id="clip0_720_16415">
<rect width="24" height="24" fill="white"/>
</clipPath>
</defs>
</svg>
