<svg width="24" height="24" viewBox="0 0 24 24" fill="none" xmlns="http://www.w3.org/2000/svg">
<path d="M0 2C0 0.89543 0.895431 0 2 0H22C23.1046 0 24 0.895431 24 2V22C24 23.1046 23.1046 24 22 24H2C0.89543 24 0 23.1046 0 22V2Z" fill="#F3D663"/>
<path fill-rule="evenodd" clip-rule="evenodd" d="M8.30046 3.13923C8.42403 3.0481 8.57353 2.9993 8.72671 3.00001C8.7988 3.00043 8.87044 3.0118 8.93911 3.03376C8.93911 3.03376 10.4875 3.47182 10.851 4.99126C11.0425 5.79038 11.473 6.1172 12.0402 6.34126C12.3532 6.46486 12.6934 6.52491 13.0171 6.55922V5.88001C13.0171 5.08441 13.6574 4.44001 14.4481 4.44001C15.2388 4.44001 15.8792 5.08441 15.8792 5.88001V7.32001C15.8792 7.51095 15.8038 7.69408 15.6696 7.8291C15.5354 7.96412 15.3534 8.03998 15.1637 8.04001C13.973 8.25385 13.7326 9.54192 13.7326 10.2C13.7326 12.0474 15.1194 14.5144 17.2278 14.5144C17.3289 14.5025 17.4314 14.5126 17.5283 14.5438C18.1254 14.7361 17.9003 15.3431 18.2088 15.7392C19.0148 16.7741 20.1724 17.2573 20.1724 18.84C20.1724 19.7022 19.6205 20.4028 18.9928 20.6864C18.3653 20.9699 17.6943 21 17.0783 21C14.6042 21 12.9773 19.3015 12.2554 18.7162C9.67756 16.6248 7.62151 13.8241 5.15749 11.6062C3.23383 9.87481 3.00388 7.39454 3.00388 7.39454C2.98696 7.23152 3.02575 7.06756 3.11386 6.92975C3.20206 6.79193 3.33436 6.68851 3.4888 6.63657L5.31679 6.02344C5.44306 5.69087 5.66554 5.22254 6.18322 4.7761C6.81259 4.2334 8.30046 3.13923 8.30046 3.13923ZM9.45903 5.32876C9.363 4.9274 9.05134 4.70574 8.80222 4.56657C8.42962 4.84483 7.52188 5.51846 7.114 5.87016C6.93454 6.02491 6.79405 6.26283 6.69469 6.46501L7.80718 7.87829C8.41252 8.60759 7.22092 9.49214 6.68497 8.77126L5.63403 7.43532L4.56772 7.79391C4.69408 8.3969 5.00395 9.53457 6.11194 10.5319C8.5558 12.7315 10.5976 15.5215 13.1541 17.5955C13.9517 18.2422 14.9852 19.2824 16.4829 19.5108C14.4035 17.9912 11.2444 14.5525 10.155 12.36C10.3374 12.5774 10.9664 12.9553 11.2004 12.7875C11.4543 12.6046 11.5017 12.2641 11.3443 12.0085C11.1754 11.7396 10.8735 11.4329 10.5589 11.1135C10.0177 10.5637 9.43942 9.97639 9.43942 9.48001C9.43942 8.98753 9.75423 8.76001 10.155 8.76001C10.5557 8.76001 10.8984 9.47438 11.586 9.47438C11.8887 9.47438 12.3016 9.28561 12.3016 8.76001C12.3016 8.34018 12.0741 7.84344 11.6392 7.72042C10.5548 7.41368 9.71526 6.39787 9.45903 5.32876ZM17.0825 16.628C16.9434 16.4494 16.8203 16.2333 16.7317 15.991C16.2901 16.0389 15.8792 16.185 15.8792 16.6842C15.8792 18.1436 17.5031 18.9328 18.5624 19.2985C18.7031 19.221 18.7413 19.1396 18.7413 18.84C18.7413 17.8084 17.6453 17.3507 17.0825 16.628Z" fill="black"/>
<path d="M16.8629 8.80319C17.5237 9.07216 17.3388 9.94519 16.9845 10.3918C16.689 10.7642 16.0756 11.0602 15.6021 10.8687C15.1326 10.6789 15.0056 10.0459 15.3665 9.68782C15.5016 9.55383 15.6894 9.47787 15.879 9.48057C15.8723 8.98216 16.3931 8.61196 16.8629 8.80319Z" fill="black"/>
<path d="M16.7966 11.1296C17.072 10.8442 17.5381 10.843 17.8155 11.1216C18.2049 11.5128 17.9993 12.175 17.6998 12.5523C17.4712 12.8405 17.0571 13.0811 16.5944 13.0811C16.3045 13.0852 16.0353 12.9064 15.9241 12.639C15.7297 12.1713 16.085 11.6338 16.5944 11.6411C16.5919 11.4504 16.6645 11.2664 16.7966 11.1296Z" fill="black"/>
</svg>
