<svg width="24" height="24" viewBox="0 0 24 24" fill="none" xmlns="http://www.w3.org/2000/svg">
<g clip-path="url(#clip0_2068_2256)">
<path d="M21.2293 18.0508C20.9716 21.2441 17.3636 23.9332 11.9515 23.7987C6.86155 23.6643 3.28571 21.4458 3.02799 18.2525C2.99578 17.8491 3.02799 17.4458 3.06021 17.0088C3.22128 15.7651 3.64007 14.5886 4.25215 13.513L4.63873 13.6811C5.63739 13.2777 6.66826 12.9752 7.73135 12.7735C9.11658 12.5718 10.534 12.5382 11.9193 12.639C13.3045 12.5382 14.722 12.5718 16.1072 12.7735C17.1703 12.9752 18.2011 13.2777 19.1998 13.6811L19.5864 13.513L19.8441 13.3785C20.4562 14.4542 20.875 15.6306 21.1005 16.8743C21.1649 17.2441 21.1971 17.6475 21.1649 18.0172" fill="#F4A427"/>
<path d="M21.2293 18.0506C20.9716 21.2103 17.3958 23.7985 11.9515 23.7649C6.86155 23.6304 3.28571 21.412 3.02799 18.2187C2.99578 17.8153 3.02799 17.412 3.06021 16.975C3.60786 16.8405 4.15551 16.8405 4.70316 16.9414C5.73403 17.1094 6.3139 17.7817 7.05484 18.1178C7.47363 18.3195 7.89242 17.9834 8.279 17.6136C9.30987 16.5716 10.6951 15.9666 12.1126 15.933C13.5622 15.8994 14.7542 16.5044 16.0105 17.7145C16.2683 17.9834 16.6226 18.1515 16.977 18.1178C17.2991 18.017 17.6213 17.8489 17.879 17.6136C18.8454 16.9414 20.0052 16.6725 21.1327 16.8405C21.2293 17.2775 21.2615 17.6473 21.2293 18.0506Z" fill="white"/>
<path d="M6.24979 10.1844C5.89543 10.5542 5.44443 10.8231 4.9612 10.9239L4.76792 10.9575C4.57463 11.0248 4.38134 11.0584 4.15583 11.0584C4.12362 11.0584 4.05919 11.0584 4.02698 11.0584C3.93033 11.0248 3.80147 10.9911 3.70483 10.9575C3.35047 10.7895 3.02832 10.5878 2.73839 10.3189C2.15852 9.81467 1.61087 9.24324 1.19208 8.57097C-0.579736 5.88189 -0.0320846 2.25164 2.41624 0.234835C2.57731 0.133995 2.7706 0.133995 2.89946 0.302062C2.96389 0.402902 2.9961 0.503743 2.96389 0.604583C2.73838 1.68021 2.5451 3.36089 3.51154 4.80626C4.34912 6.01635 6.08872 7.19282 7.15181 7.19282C7.37731 8.53736 7.02295 9.44492 6.24979 10.1844Z" fill="#F79422"/>
<path d="M10.8882 5.54688L10.4694 9.8494H10.4372C9.79287 9.95024 8.92307 10.0847 7.73112 10.2864C6.63582 10.4544 5.15394 11.2612 4.28414 11.799L4.1875 11.0931C4.38079 11.0595 4.60629 11.0259 4.79958 10.9923L4.99287 10.9586C5.47609 10.8578 5.9271 10.5889 6.28146 10.2191C7.0224 9.44603 7.40898 8.57208 7.15126 7.19393L7.28012 7.22755C7.66669 6.79057 8.1177 6.45444 8.63314 6.18553C9.30965 5.78217 10.0828 5.58049 10.8882 5.54688Z" fill="#5A595C"/>
<path d="M20.2958 13.277L20.038 13.4115L19.7803 13.546L19.3937 13.714C18.3951 13.3107 17.3642 13.0081 16.3011 12.8065C14.9159 12.5376 13.5307 12.4031 12.1132 12.4031C10.6958 12.4031 9.31052 12.5039 7.92528 12.8065C6.8622 13.0081 5.83132 13.3107 4.83267 13.714C4.70381 13.6468 4.57495 13.5796 4.44609 13.546L3.89844 13.277C3.93065 12.8065 3.89844 12.5376 3.89844 12.067C3.99508 11.9997 4.15616 11.8989 4.31723 11.7981L4.34944 11.7644C5.18703 11.2266 6.66891 10.4535 7.76421 10.2518C8.95616 10.0502 9.79374 9.9157 10.4702 9.81486C10.889 9.78125 11.34 9.78125 11.7911 9.78125C12.4676 9.78125 13.0796 9.78125 13.6917 9.81486C14.336 9.9157 15.2058 10.0502 16.43 10.2518C17.5575 10.4199 19.0394 11.2266 19.9092 11.7644H19.9414C20.1025 11.8653 20.2313 11.9325 20.328 12.0334C20.2958 12.5376 20.2635 12.8065 20.2958 13.277Z" fill="#929497"/>
<path d="M13.659 9.84813C13.0791 9.81452 12.4348 9.78091 11.7583 9.81452C11.3073 9.81452 10.8563 9.84813 10.4375 9.84813H10.4697L10.8885 5.54561L10.9852 4.67166C11.3073 4.46998 11.6939 4.36914 12.0482 4.36914H12.1127C12.4992 4.36914 12.8536 4.46998 13.1758 4.67166L13.2724 5.54561V5.57922L13.659 9.84813Z" fill="#929497"/>
<path d="M22.8081 8.57085C22.3571 9.2095 21.8417 9.81454 21.2296 10.3187C20.9396 10.5877 20.6175 10.7893 20.2631 10.9574L20.1021 11.0246L20.0054 11.0582C19.7799 11.1255 19.6511 11.0582 19.2323 10.991L19.039 10.9574C18.5558 10.8566 18.1047 10.5877 17.7504 10.2179C17.0094 9.44479 16.6229 8.57084 16.8806 7.19269C17.9115 7.22631 19.6833 6.04984 20.5209 4.80614C21.4551 3.36076 21.2618 1.68009 21.0363 0.604458C21.0041 0.402778 21.1007 0.23471 21.294 0.167484C21.3907 0.13387 21.5195 0.167484 21.5839 0.23471C24.0323 2.25152 24.5799 5.91538 22.8081 8.57085Z" fill="#F79422"/>
<path d="M20.0053 11.0595L19.8765 11.799C19.0067 11.2612 17.5248 10.4544 16.3973 10.2864C15.1731 10.0847 14.3355 9.95024 13.659 9.8494L13.2402 5.54688C13.9812 5.58049 14.7221 5.81578 15.3986 6.18553C15.9141 6.45444 16.3651 6.82419 16.7516 7.22755L16.8805 7.19393C16.6228 8.53847 17.0094 9.44603 17.7503 10.2191C18.1047 10.5889 18.5557 10.8578 19.0389 10.9586C19.0711 10.9586 19.2 11.0259 19.2322 11.0259C19.4899 11.1267 19.7476 11.1267 20.0053 11.0595Z" fill="#5A595C"/>
<path d="M12.6285 17.0751C12.6285 17.1759 12.3708 17.3104 12.0809 17.3104C11.7909 17.3104 11.5332 17.1759 11.5332 17.1087C11.5332 17.0415 11.7909 17.0415 12.0809 17.0415C12.3708 17.0415 12.6285 16.9743 12.6285 17.0751Z" fill="white"/>
<path d="M14.3678 18.3525C14.3678 18.2517 14.2711 18.1845 14.1745 18.2181C14.0778 18.2181 14.0134 18.3189 14.0456 18.4198C14.11 18.7895 13.8523 19.1257 13.4657 19.1929H13.4013C13.4013 19.1929 13.4013 19.1929 13.3691 19.1929H13.3369C13.1436 19.2265 12.9503 19.1929 12.7248 19.092C12.4671 18.9912 12.306 18.7559 12.2738 18.487C12.2738 18.4534 12.2738 18.3862 12.2738 18.3525V18.1173C12.8859 18.0164 13.3691 17.5458 13.3691 17.2097C13.3691 16.8399 12.7892 16.6719 12.0805 16.6719C11.3718 16.6719 10.7919 16.8063 10.7919 17.2097C10.7919 17.5794 11.3074 18.0836 11.9516 18.1509V18.3525C11.9516 18.3862 11.9516 18.4534 11.9516 18.487C11.9194 18.7559 11.7584 18.9912 11.5006 19.092C11.3396 19.1929 11.1463 19.2265 10.9852 19.1929C10.953 19.1593 10.7919 19.1257 10.7919 19.1257C10.4376 19.0248 10.2121 18.7223 10.2121 18.3189C10.2121 18.2181 10.1476 18.1509 10.051 18.1509C9.95433 18.1509 9.8899 18.2181 9.8899 18.3189C9.85769 18.8904 10.1798 19.361 10.7275 19.4618H10.7597C10.7597 19.4618 10.7919 19.4954 10.8241 19.4954C10.9208 19.529 11.0174 19.529 11.1141 19.529C11.3074 19.529 11.5006 19.4618 11.6295 19.3946C11.8228 19.3273 12.0161 19.1593 12.1127 18.9912C12.2416 19.1593 12.4027 19.3273 12.5959 19.3946C12.8537 19.4954 13.1114 19.529 13.3691 19.4954H13.4657H13.498C14.0778 19.3946 14.4322 18.8904 14.3678 18.3525Z" fill="#171717"/>
<path d="M21.7125 0.101727C21.5836 0.000886289 21.3903 -0.0327272 21.2292 0.000886292C20.9715 0.101727 20.8105 0.337021 20.8749 0.639542C21.2292 2.32021 21.0682 3.66475 20.3917 4.70677C19.5863 5.91685 17.8467 7.05971 16.8803 7.0261H16.848H16.8158C16.397 6.58912 15.946 6.25299 15.495 6.01769C14.8185 5.64794 14.1098 5.44626 13.4333 5.37904L13.3688 4.63954C13.3688 4.57231 13.3366 4.5387 13.3044 4.50509C12.9501 4.30341 12.5635 4.16895 12.1447 4.16895H12.0803C11.6937 4.16895 11.2749 4.26979 10.9205 4.50509C10.8883 4.5387 10.8561 4.57231 10.8561 4.63954L10.7594 5.37904C9.95408 5.44626 9.21314 5.64794 8.56884 6.01769C8.05341 6.2866 7.6024 6.62273 7.24804 7.0261H7.21582H7.18361C6.21716 7.0261 4.50978 5.91685 3.6722 4.70677C2.93126 3.66475 2.77018 2.32021 3.12455 0.673155C3.15676 0.538701 3.15676 0.370634 3.0279 0.202567C2.86683 -0.0327271 2.5769 -0.0663406 2.31918 0.101727C-0.193573 2.15215 -0.741224 5.91685 1.0628 8.67315C1.44938 9.2782 1.96482 9.84963 2.64133 10.4547C2.93126 10.7236 3.25341 10.9253 3.6722 11.1269C3.73663 11.1605 3.76884 11.1605 3.83327 11.1942C3.8977 11.1942 3.92992 11.2278 3.99435 11.2278C4.02656 11.2278 4.02656 11.2278 4.05878 11.2278H4.09099L4.15542 11.732C4.02656 11.7992 3.92992 11.8664 3.86549 11.9337C3.83327 11.9673 3.80106 12.0009 3.80106 12.0681C3.80106 12.2362 3.80106 12.3706 3.80106 12.5051C3.80106 12.7404 3.80106 12.9757 3.80106 13.2446C3.80106 13.3118 3.83327 13.379 3.8977 13.4127L4.15542 13.5471C3.54334 14.6563 3.15676 15.8328 2.99569 17.0093V17.0429C2.89904 17.5135 2.86683 17.8832 2.89904 18.2866C3.12455 21.5471 6.76481 23.8664 11.9514 24.0009C17.0735 24.0009 21.1326 21.4799 21.3903 18.0849C21.4225 17.6143 21.4225 17.211 21.3259 16.8748C21.1004 15.6984 20.7138 14.5555 20.1662 13.5471L20.3594 13.4463C20.4239 13.4127 20.4561 13.3454 20.4561 13.2782C20.4239 12.9084 20.4561 12.6732 20.4561 12.3034L20.4883 12.0681C20.4883 12.0345 20.4883 11.9673 20.4561 11.9337C20.3594 11.8328 20.2628 11.7656 20.1339 11.6984L20.0695 11.6648L20.1662 11.1942L20.3594 11.1269C20.746 10.9253 21.1004 10.7236 21.3581 10.4547C21.938 9.98408 22.4534 9.41265 22.9688 8.67315C24.7729 5.95047 24.193 2.18576 21.7125 0.101727ZM16.6225 7.36223L16.6547 7.39584C16.6547 7.42946 16.6547 7.49668 16.6547 7.5303C16.6547 7.59752 16.6547 7.66475 16.6225 7.73198C16.6225 7.79921 16.6225 7.90005 16.6225 7.96727C16.6225 8.0345 16.6225 8.10173 16.6225 8.16895C16.6225 8.23618 16.6225 8.26979 16.6225 8.33702C16.6225 8.43786 16.6547 8.50509 16.6547 8.60593C16.6547 8.63954 16.6547 8.67315 16.687 8.70677C16.7192 8.80761 16.7192 8.90845 16.7514 9.00929C16.7514 9.00929 16.7514 9.0429 16.7836 9.0429C16.8158 9.14374 16.848 9.24458 16.9125 9.34542V9.37904C16.9769 9.47988 17.0091 9.58072 17.0735 9.68156C17.0735 9.71517 17.1058 9.71517 17.1058 9.74879C17.1702 9.84963 17.2346 9.91685 17.299 10.0177C17.3957 10.1185 17.4923 10.253 17.589 10.3538C17.6534 10.4211 17.6856 10.4547 17.75 10.4883C17.299 10.3202 16.848 10.1521 16.4292 10.0849C15.3339 9.91685 14.5286 9.7824 13.9165 9.68156L13.7876 9.64794L13.4333 5.71517C14.0454 5.7824 14.6896 5.98408 15.3017 6.32021C15.7849 6.58912 16.236 6.92526 16.6225 7.36223ZM19.6507 11.2278H19.6829C19.7152 11.2278 19.7474 11.2278 19.8118 11.2278L19.7796 11.4631C19.6185 11.3622 19.4252 11.2614 19.1997 11.1269H19.2319C19.3286 11.1605 19.4252 11.1605 19.5219 11.1942C19.5541 11.2278 19.6185 11.2278 19.6507 11.2278ZM4.41314 11.5303L4.38092 11.2278C4.44535 11.2278 4.47757 11.2278 4.542 11.1942C4.63864 11.1942 4.73529 11.1605 4.83193 11.1605L5.02522 11.1269C5.08965 11.1269 5.15408 11.0933 5.18629 11.0933C4.96079 11.2278 4.73529 11.3286 4.57421 11.4631C4.50978 11.4631 4.44535 11.4967 4.41314 11.5303ZM12.048 4.5387H12.1125C12.4346 4.5387 12.7568 4.60593 13.0145 4.774L13.0789 5.47988C13.0789 5.51349 13.0467 5.5471 13.0467 5.58072L13.4333 9.64794C12.8856 9.61433 12.338 9.61433 11.7581 9.61433C11.3715 9.61433 10.985 9.61433 10.6306 9.64794L10.6628 9.47988L11.0494 5.58072L11.146 4.80761C11.4037 4.63954 11.7259 4.5387 12.048 4.5387ZM7.40911 7.32862C7.76347 6.92526 8.18227 6.58912 8.72992 6.32021C9.30978 5.98408 9.98629 5.7824 10.7272 5.71517L10.3407 9.64794C9.66414 9.74879 8.82656 9.88324 7.76347 10.0513C7.21582 10.1521 6.60374 10.3874 6.02388 10.6563C6.15274 10.5555 6.28159 10.4547 6.41045 10.3202C7.24804 9.44626 7.53797 8.5387 7.3769 7.36223C7.3769 7.36223 7.3769 7.36223 7.40911 7.32862ZM3.8977 10.858C3.83327 10.858 3.80106 10.8244 3.76884 10.8244C3.41448 10.6563 3.09233 10.4547 2.83461 10.2194C2.19032 9.64794 1.67488 9.07652 1.32052 8.50509C-0.386862 5.88324 0.128574 2.32021 2.51247 0.370634C2.5769 0.337021 2.67354 0.303407 2.77018 0.404248C2.83461 0.505088 2.83461 0.538701 2.8024 0.572315C2.44804 2.35383 2.60911 3.76559 3.38227 4.90845C4.21985 6.15215 5.92723 7.26139 7.02253 7.36223V7.39584C7.18361 8.50509 6.89367 9.34542 6.15274 10.0513C5.79837 10.4211 5.37958 10.6563 4.92857 10.7572L4.70307 10.7908C4.50978 10.858 4.34871 10.8916 4.15542 10.8916H4.05878C3.99435 10.8916 3.96213 10.858 3.8977 10.858ZM21.0037 16.9421C21.0682 17.2782 21.1004 17.6143 21.0682 18.0513C20.8105 21.2446 16.8803 23.6311 11.9514 23.6311C6.9581 23.5303 3.4467 21.379 3.22119 18.2866C3.18898 17.9169 3.22119 17.5135 3.25341 17.1101V17.0765C3.41448 15.9337 3.76884 14.8244 4.34871 13.7824L4.60643 13.8832C4.63864 13.8832 4.70307 13.9169 4.73529 13.8832H4.7675C4.79972 13.8832 4.79972 13.9169 4.83193 13.9169C4.86414 13.9169 4.86414 13.9169 4.89636 13.9169C5.89502 13.5135 6.92589 13.211 7.95676 13.0093C9.21314 12.774 10.5984 12.6395 12.1125 12.6395C13.0789 12.6395 14.0776 12.7068 15.1084 12.8412C15.4306 12.8748 15.7849 12.9421 16.1393 13.0093C17.2024 13.211 18.2333 13.5135 19.1997 13.9169C19.2319 13.9169 19.2641 13.9169 19.3286 13.9169H19.3608C19.3608 13.9169 19.3608 13.9169 19.393 13.9169C19.4252 13.9169 19.4896 13.9169 19.5219 13.9169L19.9084 13.7488H19.9407C20.4239 14.69 20.8104 15.7656 21.0037 16.9421ZM20.1662 12.1017V12.2698C20.1339 12.6059 20.1339 12.8412 20.1339 13.1774L19.9729 13.2446C19.9407 13.211 19.8762 13.211 19.844 13.2446L19.5863 13.379L19.2964 13.4799C18.3299 13.1101 17.3313 12.8076 16.3004 12.6059C15.8816 12.5387 15.495 12.4715 15.1084 12.4379C14.0454 12.2698 13.0145 12.2026 11.9192 12.2026C10.2762 12.2362 8.9232 12.3706 7.69904 12.6059C6.70039 12.8076 5.70173 13.0765 4.73529 13.4463C4.63864 13.4127 4.542 13.3454 4.47757 13.3454L4.02656 13.1101C4.02656 12.8412 4.02656 12.6395 4.02656 12.4379C4.02656 12.337 4.02656 12.2362 4.02656 12.1017C4.12321 12.0345 4.25206 11.9673 4.38092 11.9C4.38092 11.9 4.41314 11.9 4.41314 11.8664L4.44535 11.8328C4.542 11.7656 4.63864 11.732 4.73529 11.6648C5.47622 11.2278 6.76482 10.5555 7.76347 10.3874C8.82656 10.2194 9.66414 10.0849 10.2762 9.98408L10.4373 9.95047H10.4695C10.6628 9.95047 10.8561 9.95047 11.0816 9.95047C11.3071 9.95047 11.5326 9.91685 11.7581 9.91685C12.4024 9.88324 13.0145 9.91685 13.6266 9.95047C14.3031 10.0513 15.1407 10.1858 16.3648 10.3874C17.5568 10.5555 19.1675 11.4967 19.7796 11.8664C19.8118 11.8664 19.844 11.9 19.8762 11.9C19.9084 11.9 19.9084 11.9 19.9407 11.9H19.9729C20.0373 12.0345 20.1017 12.0681 20.1662 12.1017ZM22.6789 8.47147C22.1957 9.17736 21.6803 9.74879 21.1326 10.1858C20.8749 10.4211 20.5849 10.6227 20.1984 10.7908L19.9729 10.8916C19.844 10.9253 19.7474 10.9253 19.5541 10.858C19.4896 10.858 19.393 10.8244 19.2641 10.7908L19.0709 10.7572C18.6198 10.6563 18.2011 10.4211 17.8789 10.0513C17.7823 9.95047 17.6856 9.84963 17.6212 9.74879C17.3635 9.44626 17.2024 9.11013 17.1058 8.74038C17.1058 8.74038 17.1058 8.74038 17.1058 8.70677C17.0735 8.60593 17.0413 8.50509 17.0413 8.37063C17.0413 8.33702 17.0413 8.30341 17.0413 8.26979C17.0413 8.20257 17.0091 8.10173 17.0091 8.0345C17.0091 7.96727 17.0091 7.90005 17.0091 7.83282C17.0091 7.76559 17.0091 7.69837 17.0091 7.63114C17.0091 7.56391 17.0091 7.49668 17.0413 7.39584C17.0413 7.36223 17.0413 7.295 17.0735 7.26139C18.1688 7.19416 19.8762 6.05131 20.7138 4.80761C21.4547 3.66475 21.6158 2.25299 21.2615 0.471474C21.2292 0.337021 21.2937 0.269794 21.4225 0.23618C21.4547 0.23618 21.5192 0.23618 21.5514 0.269794C23.8709 2.32021 24.3863 5.88324 22.6789 8.47147Z" fill="#221F1F"/>
<path d="M9.66474 14.5216L8.63387 13.7148C8.21508 13.8493 7.89293 14.3871 7.89293 15.0258C7.89293 15.1266 7.89293 15.2274 7.92514 15.3283C7.86071 15.3283 7.8285 15.3283 7.76407 15.3619C7.50635 15.4291 7.28085 15.4964 7.08756 15.6308C6.99092 15.698 6.89427 15.7653 6.79763 15.8325C6.70098 15.8997 6.60434 15.9669 6.53991 16.0678C6.37883 16.2359 6.28219 16.4375 6.18555 16.6728C6.34662 16.4039 6.60434 16.1686 6.89427 16.0342C6.99092 16.0006 7.08756 15.9669 7.1842 15.9333C7.37749 15.8661 7.603 15.8661 7.79629 15.8661C7.86071 15.8661 7.92514 15.8661 7.98957 15.8661C7.73186 16.1686 7.50635 16.4711 7.28085 16.8073C7.15199 17.0426 7.05535 17.2779 6.9587 17.5132C6.86206 17.7485 6.82984 18.0174 6.79763 18.2863C6.79763 18.3871 6.79763 18.5216 6.79763 18.656V18.8577V19.0258C6.82984 19.2611 6.86206 19.53 6.89427 19.7653C6.9587 20.0342 7.02313 20.2695 7.08756 20.5048C7.11977 20.6056 7.1842 20.7401 7.21642 20.8409C7.28085 20.9417 7.31306 21.0762 7.37749 21.177C7.31306 21.0762 7.28085 20.9417 7.24863 20.8409C7.21642 20.7064 7.21642 20.6056 7.1842 20.4711C7.15199 20.2359 7.11977 19.9669 7.08756 19.7317C7.08756 19.4627 7.08756 19.2274 7.08756 18.9922V18.8241V18.656C7.08756 18.5552 7.08756 18.4207 7.11977 18.3199C7.15199 18.0846 7.21642 17.8493 7.31306 17.6476C7.40971 17.4123 7.53857 17.2106 7.66743 17.0426C7.89293 16.7401 8.15065 16.4711 8.44058 16.2022C8.56944 16.2695 8.6983 16.3367 8.82716 16.3367C9.34259 16.3367 9.76139 15.7653 9.76139 15.0258C9.76139 14.8577 9.72917 14.6896 9.66474 14.5216Z" fill="#221F1F"/>
<path d="M9.40699 14.8573C9.40699 15.1262 9.24592 15.3279 9.08484 15.3279C8.92377 15.3279 8.7627 15.1262 8.7627 14.8573C8.7627 14.5884 8.92377 14.3867 9.08484 14.3867C9.24592 14.3867 9.40699 14.5884 9.40699 14.8573Z" fill="white"/>
<path d="M17.9118 16.0006C17.7186 15.8325 17.5253 15.6644 17.2998 15.5636C17.0743 15.4627 16.8488 15.3955 16.591 15.3619C16.4944 15.3283 16.43 15.3283 16.3333 15.3283C16.3655 15.2274 16.3655 15.1266 16.3655 15.0258C16.3655 14.3871 16.0434 13.8493 15.6246 13.7148L14.5937 14.5216C14.5615 14.6896 14.5293 14.8577 14.5293 15.0258C14.5293 15.7317 14.9803 16.3367 15.4635 16.3367C15.5924 16.3367 15.7535 16.2695 15.8501 16.2022C16.1078 16.4711 16.3655 16.7064 16.6233 17.009C16.7843 17.177 16.9132 17.3787 17.0098 17.5804C17.1065 17.7821 17.1709 17.9838 17.2353 18.219C17.2676 18.4543 17.2998 18.6896 17.2998 18.9249C17.2998 19.1938 17.2998 19.4291 17.2676 19.6644C17.2676 19.8997 17.2031 20.135 17.1709 20.3703C17.1387 20.4711 17.1065 20.6056 17.0743 20.7064C17.042 20.8073 16.9776 20.9417 16.9454 21.0426C17.0098 20.9417 17.0743 20.8073 17.1065 20.7064C17.1709 20.6056 17.2031 20.4711 17.2353 20.3703C17.2998 20.135 17.3642 19.8997 17.3964 19.6644C17.4286 19.4291 17.4608 19.1602 17.4931 18.9249C17.5253 18.656 17.5253 18.4207 17.4931 18.1518C17.4608 17.9165 17.3964 17.6476 17.2998 17.4123C17.2031 17.177 17.0743 16.9417 16.9454 16.7401C16.7521 16.4039 16.5266 16.1014 16.2689 15.8325C16.3655 15.8325 16.43 15.7989 16.5266 15.7989C16.7521 15.7989 16.9776 15.7989 17.2031 15.8325C17.4286 15.8661 17.6219 15.9669 17.8152 16.1014C18.0085 16.2359 18.1696 16.4039 18.2984 16.6056C18.2018 16.4039 18.0729 16.1686 17.9118 16.0006Z" fill="#221F1F"/>
<path d="M14.8506 14.8573C14.8506 15.1262 15.0117 15.3279 15.1727 15.3279C15.3338 15.3279 15.4949 15.1262 15.4949 14.8573C15.4949 14.5884 15.3338 14.3867 15.1727 14.3867C15.0117 14.3867 14.8506 14.5884 14.8506 14.8573Z" fill="white"/>
</g>
<defs>
<clipPath id="clip0_2068_2256">
<rect width="24" height="24" fill="white"/>
</clipPath>
</defs>
</svg>
