<svg width="24" height="24" viewBox="0 0 24 24" fill="none" xmlns="http://www.w3.org/2000/svg">
<path d="M12 24C18.6274 24 24 18.6274 24 12C24 5.37258 18.6274 0 12 0C5.37258 0 0 5.37258 0 12C0 18.6274 5.37258 24 12 24Z" fill="#00EF8B"/>
<path d="M17.2658 10.123H13.877V13.5118H17.2658V10.123Z" fill="white"/>
<path d="M10.49 14.7814C10.49 15.033 10.4154 15.279 10.2756 15.4881C10.1358 15.6973 9.93717 15.8603 9.70475 15.9566C9.47232 16.0529 9.21656 16.0781 8.96982 16.029C8.72307 15.9799 8.49643 15.8588 8.31853 15.6809C8.14064 15.503 8.01949 15.2763 7.97041 15.0296C7.92133 14.7829 7.94652 14.5271 8.0428 14.2947C8.13907 14.0622 8.30211 13.8636 8.51129 13.7238C8.72047 13.584 8.96639 13.5094 9.21797 13.5094H10.49V10.123H9.21797C8.29663 10.123 7.39597 10.3963 6.6299 10.9081C5.86383 11.42 5.26676 12.1475 4.91417 12.9988C4.56159 13.85 4.46934 14.7866 4.64908 15.6903C4.82883 16.5939 5.2725 17.4239 5.92399 18.0754C6.57547 18.7269 7.40552 19.1706 8.30916 19.3503C9.21281 19.5301 10.1495 19.4378 11.0007 19.0852C11.8519 18.7327 12.5794 18.1356 13.0913 17.3695C13.6032 16.6034 13.8764 15.7028 13.8764 14.7814V13.5094H10.49V14.7814Z" fill="white"/>
<path d="M15.1486 8.42786H18.9598V5.03906H15.1486C13.9135 5.04033 12.7294 5.53154 11.8561 6.40488C10.9827 7.27822 10.4915 8.46237 10.4902 9.69746V10.1223H13.8766V9.69746C13.8773 9.36052 14.0116 9.0376 14.25 8.79957C14.4885 8.56155 14.8117 8.42786 15.1486 8.42786Z" fill="white"/>
<path d="M10.4902 13.5094H13.8766V10.123H10.4902V13.5094Z" fill="#16FF99"/>
</svg>
