<svg width="25" height="24" viewBox="0 0 25 24" fill="none" xmlns="http://www.w3.org/2000/svg">
<g clip-path="url(#clip0_2364_2804)">
<path d="M22.5657 17.2743C22.384 17.2743 22.1729 17.216 22.0281 17.289C21.8498 17.3788 21.969 17.6142 21.9488 17.7842C21.8939 18.255 21.7567 18.7077 21.494 19.0904C21.2137 19.4995 20.8343 19.8302 20.3438 19.9918C20.1449 20.0572 20.0341 20.1957 19.9762 20.3849C19.6842 21.3404 19.1353 22.0626 18.1828 22.4578C17.9121 22.5703 17.67 22.7642 17.3943 22.8804C17.0221 23.0378 16.6327 23.068 16.232 23.0248C15.9479 22.9941 15.7066 23.1091 15.4884 23.2883C15.1435 23.5719 14.7658 23.7423 14.2975 23.7499C14.0437 23.754 13.7802 23.8325 13.5183 23.8623C13.1314 23.9064 12.7391 23.9664 12.3652 23.8128C12.0064 23.6659 11.6263 23.6995 11.2566 23.6496C10.7904 23.5862 10.3892 23.3886 10.0472 23.0814C9.87268 22.9249 9.70357 22.8053 9.46985 22.7415C9.14842 22.6538 8.85385 22.4948 8.62977 22.225C8.4699 22.0319 8.27981 21.8729 8.04315 21.763C7.59584 21.5548 7.31763 21.1621 7.04908 20.7706C6.85479 20.4877 6.58162 20.2771 6.38566 19.993C6.29796 19.8659 6.07556 19.8411 5.94213 19.7354C5.36179 19.2751 4.72691 18.8655 4.39835 18.158C4.37779 18.1136 4.35136 18.0783 4.29471 18.0657C3.88642 17.9734 3.48611 17.858 3.0581 17.8509C2.35734 17.8387 1.81435 17.5089 1.39893 16.947C0.955396 16.347 0.922666 15.6768 1.0217 14.9748C1.11149 14.3399 1.27263 13.7235 1.4581 13.1113C1.67798 12.3854 2.03591 11.7228 2.39133 11.0606C2.75094 10.3909 3.20916 9.78415 3.67997 9.18914C3.7962 9.04185 3.93342 8.90799 4.07567 8.78547C4.20575 8.67343 4.21834 8.54209 4.20113 8.38977C4.10672 7.55893 4.10756 6.74193 4.61236 6.01683C4.94679 5.53679 5.28962 5.05969 5.74616 4.68581C5.98409 4.4911 6.26985 4.36606 6.56358 4.27123C6.72219 4.22003 6.81703 4.11932 6.88836 3.97078C7.12964 3.4664 7.50142 3.07112 7.98692 2.80424C8.25589 2.65612 8.50347 2.4761 8.77454 2.3305C9.12366 2.14293 9.4988 2.09425 9.87729 2.04809C9.99017 2.03425 10.0972 2.02208 10.1958 1.96333C10.2256 1.94571 10.257 1.92347 10.2898 1.91801C10.8709 1.82612 11.3053 1.42412 11.8205 1.19417C12.2376 1.00786 12.6749 0.96716 13.1251 1.02339C13.2355 1.03724 13.3505 1.04857 13.4591 1.03262C14.1477 0.932332 14.7684 1.08675 15.3281 1.50049C15.5056 1.63183 15.7205 1.64736 15.9278 1.61631C16.4674 1.53658 16.9793 1.59239 17.4661 1.85423C17.5936 1.92263 17.7392 1.9583 17.8777 2.00529C18.2407 2.12782 18.5596 2.32126 18.829 2.59444C19.0761 2.84495 19.3405 3.06692 19.6338 3.2696C20.1294 3.61159 20.4537 4.0996 20.5603 4.70763C20.5754 4.79281 20.617 4.84736 20.6728 4.89939C21.0517 5.25439 21.293 5.68324 21.3677 6.2002C21.4017 6.43603 21.5842 6.6001 21.6564 6.8204C21.8246 7.33611 21.9245 7.85769 21.8309 8.39942C21.8024 8.56433 21.9216 8.64867 22.0025 8.73637C22.6005 9.38342 23.1183 10.093 23.5698 10.8437C24.07 11.6749 24.493 12.5511 24.7343 13.4982C24.8874 14.0978 25.0133 14.7079 24.9646 15.3323C24.9071 16.0755 24.5219 16.6201 23.8971 17.0091C23.4851 17.2655 23.0281 17.2831 22.564 17.2735L22.5657 17.2743Z" fill="#FEFEFE"/>
<path d="M21.0161 16.4957C20.8638 16.4957 20.6871 16.4471 20.5654 16.5083C20.4156 16.5839 20.5159 16.7811 20.4991 16.9238C20.453 17.3186 20.338 17.6979 20.1177 18.019C19.8827 18.3618 19.5646 18.6391 19.1534 18.7747C18.9868 18.8297 18.8941 18.9459 18.8454 19.1041C18.6004 19.9051 18.1405 20.5106 17.3419 20.8421C17.1149 20.9365 16.9118 21.0989 16.681 21.1963C16.3692 21.3281 16.0428 21.3536 15.7067 21.3171C15.4688 21.2911 15.2661 21.3876 15.0835 21.5379C14.7944 21.7754 14.4776 21.9185 14.0849 21.9252C13.8721 21.9285 13.651 21.9944 13.4315 22.0196C13.1071 22.0565 12.7782 22.1069 12.4647 21.978C12.1638 21.8547 11.8449 21.8832 11.5353 21.8412C11.1442 21.7884 10.8081 21.6222 10.5215 21.365C10.375 21.2336 10.2332 21.1338 10.0372 21.0801C9.76783 21.0066 9.52068 20.8732 9.33311 20.647C9.19883 20.485 9.0398 20.352 8.84132 20.2597C8.4666 20.0851 8.23329 19.7557 8.00796 19.428C7.84515 19.1909 7.61604 19.0143 7.45155 18.7764C7.37811 18.6698 7.1918 18.6492 7.07977 18.5603C6.59343 18.1746 6.06094 17.831 5.78525 17.238C5.76804 17.2007 5.7458 17.1713 5.69839 17.1604C5.35598 17.0832 5.02029 16.9863 4.66193 16.9804C4.07447 16.9703 3.61918 16.6938 3.2709 16.2226C2.89912 15.7194 2.87143 15.1576 2.95493 14.5693C3.03004 14.0372 3.16516 13.5202 3.32084 13.007C3.50505 12.3986 3.80507 11.843 4.10342 11.2879C4.40513 10.7264 4.78908 10.2179 5.18352 9.71893C5.28129 9.59556 5.39584 9.48352 5.51543 9.38029C5.62453 9.2863 5.63502 9.17636 5.62034 9.0488C5.54145 8.35223 5.54187 7.66742 5.96526 7.05939C6.24557 6.65698 6.533 6.25708 6.9157 5.94363C7.11501 5.7804 7.35503 5.67592 7.60093 5.59619C7.73395 5.55339 7.81368 5.46862 7.87326 5.344C8.07552 4.92102 8.38729 4.58995 8.79432 4.36587C9.02008 4.24166 9.22737 4.09102 9.45438 3.96891C9.74685 3.81156 10.0616 3.77085 10.3792 3.73225C10.474 3.7205 10.5634 3.71043 10.6461 3.66133C10.6713 3.64665 10.6973 3.62776 10.725 3.62357C11.2122 3.54678 11.5764 3.20983 12.0082 3.01638C12.3577 2.85986 12.7245 2.8263 13.1017 2.87287C13.194 2.8842 13.2905 2.89385 13.3816 2.88085C13.959 2.7965 14.4793 2.92616 14.9484 3.27319C15.097 3.38313 15.2774 3.39614 15.4511 3.37054C15.9035 3.3034 16.3327 3.3504 16.7406 3.56986C16.8476 3.62734 16.9693 3.65714 17.0855 3.69658C17.3898 3.79939 17.6575 3.96136 17.8832 4.19047C18.0905 4.4007 18.3121 4.58659 18.558 4.75653C18.9734 5.04355 19.2453 5.45226 19.3347 5.96209C19.3473 6.03343 19.3821 6.07917 19.4291 6.12323C19.7467 6.42074 19.949 6.78035 20.0119 7.21381C20.0405 7.41145 20.1936 7.54909 20.2536 7.73372C20.3946 8.16634 20.4786 8.60358 20.4001 9.05761C20.3762 9.19566 20.476 9.26658 20.544 9.34001C21.0455 9.88258 21.4793 10.4776 21.8578 11.107C22.277 11.804 22.6316 12.5383 22.8343 13.3322C22.9627 13.8349 23.068 14.3465 23.0277 14.8697C22.9795 15.4924 22.6564 15.9494 22.1331 16.2754C21.7878 16.4903 21.4047 16.505 21.0157 16.497L21.0161 16.4957Z" fill="#EFEFEF"/>
<path d="M1.98124 15.5813C1.98165 14.9591 2.12936 14.3766 2.29133 13.7984C2.52967 12.9457 2.92328 12.1623 3.36219 11.3961C3.82084 10.5955 4.37221 9.87246 5.02178 9.22121C5.0415 9.20149 5.05787 9.17505 5.08137 9.16288C5.33272 9.03322 5.38055 8.84691 5.2597 8.59598C5.11116 8.28714 5.15941 7.95271 5.1485 7.62541C5.13466 7.21208 5.22865 6.83401 5.49805 6.5151C5.70534 6.26962 5.8778 5.99981 6.07208 5.74636C6.30287 5.4455 6.62598 5.25961 7.00153 5.19792C7.11819 5.17862 7.18742 5.12575 7.25918 5.05148C7.32716 4.9814 7.38842 4.89832 7.46983 4.84838C7.61963 4.75648 7.70649 4.64445 7.76566 4.46947C7.90665 4.05363 8.21884 3.76913 8.61538 3.60296C8.83526 3.51064 8.98422 3.32979 9.19487 3.23076C9.40048 3.13425 9.62036 3.04906 9.83395 3.06081C10.1915 3.08011 10.486 2.94164 10.7856 2.79478C10.9132 2.73225 11.0445 2.76918 11.1734 2.75491C11.4302 2.7268 11.5498 2.49727 11.7373 2.36802C12.1536 2.08227 12.5938 1.9547 13.1023 2.03569C13.3411 2.07387 13.5925 2.06086 13.835 2.03904C14.2651 2.00044 14.5849 2.21151 14.8836 2.47083C14.973 2.54846 15.0523 2.60091 15.174 2.59042C15.247 2.58413 15.32 2.59797 15.396 2.61896C15.5504 2.66176 15.7044 2.68106 15.8777 2.637C16.3418 2.51909 16.7862 2.6135 17.1827 2.87954C17.2851 2.94836 17.3917 2.91395 17.4957 2.95591C17.8125 3.08389 18.1126 3.2253 18.2993 3.52659C18.4353 3.74647 18.6287 3.87571 18.8624 3.98145C19.3039 4.18077 19.4956 4.5836 19.5947 5.02504C19.6446 5.24744 19.6941 5.41948 19.901 5.5718C20.2342 5.81644 20.3806 6.19283 20.3978 6.61035C20.4007 6.68588 20.3894 6.75764 20.4561 6.82058C20.6995 7.04843 20.7427 7.36105 20.8225 7.66485C20.9228 8.04796 20.7998 8.39205 20.6785 8.73529C20.6382 8.84943 20.705 8.87587 20.7511 8.91783C21.415 9.52166 21.9428 10.2367 22.4359 10.979C22.8715 11.6348 23.2386 12.3289 23.516 13.0657C23.7682 13.735 23.9515 14.4253 23.9612 15.1466C23.9687 15.7097 23.5382 16.2024 22.9957 16.2615C22.5622 16.309 22.1287 16.322 21.7053 16.1688C21.4489 16.0761 21.193 16.1936 20.937 16.2125C20.8741 16.2171 20.8132 16.241 20.8451 16.3656C20.9735 16.8687 20.9857 17.3748 20.8728 17.8913C20.7805 18.3131 20.5959 18.6529 20.2505 18.9093C20.1448 18.9878 20.0193 19.0608 19.9052 19.0604C19.731 19.0596 19.6673 19.1728 19.5565 19.2589C19.1922 19.5421 19.0177 19.9269 18.8868 20.3499C18.7437 20.8119 18.4688 21.2072 18.0312 21.3993C17.6464 21.5684 17.3229 21.8446 16.9259 21.9767C16.7119 22.0481 16.4765 22.0955 16.2591 22.0447C15.9608 21.9755 15.7019 22.0682 15.4258 22.1374C15.216 22.1899 15.0519 22.2826 14.9113 22.4433C14.6927 22.6939 14.3897 22.787 14.0759 22.7958C13.806 22.8034 13.5459 22.8537 13.2832 22.894C12.8997 22.9523 12.5438 22.902 12.2056 22.7014C12.1372 22.6607 12.0269 22.6729 11.9387 22.6846C11.3081 22.7685 10.8087 22.5478 10.4256 22.0468C10.3429 21.939 10.2456 21.8878 10.0945 21.8781C9.65561 21.85 9.32663 21.607 9.07654 21.2604C8.99471 21.1471 8.92338 21.0641 8.77693 21.0183C8.32501 20.8769 8.04512 20.5186 7.82356 20.1325C7.69516 19.9093 7.46353 19.8069 7.33345 19.592C7.19875 19.3701 6.79047 19.0742 6.54709 18.9475C6.35029 18.8451 6.17321 18.7163 6.05194 18.5254C6.00956 18.4587 5.94955 18.4201 5.88158 18.3827C5.41916 18.1301 5.22446 17.7071 5.17746 17.2103C5.16445 17.0718 5.12207 17.0378 5.00835 17.063C4.54258 17.1662 4.11163 16.998 3.67019 16.904C3.56277 16.8813 3.44654 16.8855 3.33618 16.8956C2.61779 16.9623 1.90025 16.3325 1.98082 15.5822L1.98124 15.5813ZM21.7016 12.3184C21.6982 12.2508 21.6705 12.195 21.6206 12.1501C21.5962 12.0947 21.5794 12.0343 21.5467 11.9844C21.3898 11.7452 21.2387 11.5018 21.0671 11.2736C20.7788 10.8904 20.5346 10.47 20.1716 10.1477C19.969 9.96771 19.8275 9.70587 19.5225 9.63369C19.5842 10.1452 19.645 10.6446 19.7054 11.1439C19.6559 11.639 19.7012 12.138 19.614 12.6344C19.567 12.9021 19.5644 13.187 19.4914 13.4455C19.3412 13.9759 19.5351 14.3913 19.841 14.7895C19.8783 14.8382 19.9115 14.8802 19.9895 14.8327C20.1326 14.745 20.2614 14.7761 20.3697 14.9079C20.4394 14.9926 20.5212 15.0061 20.5954 14.9112C20.7276 14.7425 20.8904 14.7623 21.0595 14.834C21.2756 14.9251 21.4242 14.8953 21.582 14.7224C21.71 14.5822 21.8241 14.5789 21.9449 14.7241C22.0167 14.8101 22.0905 14.8919 22.1795 14.9595C22.2983 15.0497 22.4099 14.9884 22.5005 14.9209C22.5744 14.8655 22.6856 14.821 22.6516 14.6792C22.5097 14.0863 22.3578 13.4958 22.0855 12.947C21.9768 12.7275 21.8883 12.4909 21.7007 12.3176L21.7016 12.3184ZM6.35448 9.89008C6.27811 9.87078 6.22566 9.90393 6.17027 9.95596C5.64323 10.4503 5.16025 10.9807 4.77714 11.5975C4.55475 11.955 4.3399 12.3171 4.15233 12.6931C4.01386 12.9705 3.90518 13.2625 3.78517 13.5487C3.58879 14.0166 3.46332 14.505 3.37604 15.0035C3.35968 15.1114 3.34037 15.2184 3.32863 15.3266C3.32317 15.3757 3.28121 15.4408 3.35674 15.4714C3.41339 15.4945 3.44234 15.4508 3.47339 15.4097C3.49731 15.3783 3.54011 15.361 3.56403 15.3296C3.6232 15.2507 3.70209 15.2385 3.78727 15.2608C3.87203 15.283 3.86616 15.3573 3.8779 15.4282C3.90728 15.6095 4.03526 15.6628 4.20311 15.5751C4.23248 15.5599 4.26941 15.5591 4.29962 15.5453C4.49656 15.4557 4.63377 15.503 4.71126 15.6871C4.72092 15.7102 4.71042 15.7383 4.74357 15.7546C4.81197 15.7882 5.23704 15.7412 5.30376 15.6888C5.62687 15.4349 5.95249 15.1844 6.27182 14.9263C6.44764 14.7845 6.59534 14.6301 6.54163 14.3645C6.40778 13.7023 6.34022 13.0301 6.25462 12.3608C6.29028 12.2022 6.19293 12.0553 6.21349 11.8975C6.27727 11.8761 6.27518 11.8484 6.22105 11.8157C6.22021 11.5358 6.21937 11.2559 6.21811 10.976C6.2756 10.9668 6.2521 10.9249 6.25252 10.8921C6.25462 10.7956 6.25839 10.6991 6.25881 10.6026C6.26007 10.3588 6.34315 10.1276 6.36833 9.88714C6.36707 9.86826 6.36623 9.8498 6.36497 9.83091C6.36162 9.85022 6.35826 9.86952 6.3549 9.88882L6.35448 9.89008ZM8.90324 18.846C8.80547 18.7973 8.70098 18.7616 8.61874 18.6848C8.58307 18.6517 8.55663 18.5741 8.48698 18.6324C8.41648 18.6915 8.48992 18.7394 8.51048 18.786C8.62209 19.0402 8.89233 19.1859 8.9901 19.4414C9.08871 19.6982 9.25572 19.7465 9.49154 19.6961C9.52847 19.7095 9.56288 19.7158 9.57798 19.6663C9.87927 19.5786 10.084 19.6491 10.0832 19.9861C10.0832 20.1103 10.1302 20.2357 10.165 20.3578C10.191 20.4485 10.2565 20.5454 10.3539 20.4863C10.5381 20.3742 10.7298 20.4359 10.9178 20.4179C11.0869 20.6717 11.3018 20.8916 11.4457 21.166C11.5464 21.3582 11.6761 21.3725 11.8813 21.2797C12.0525 21.2021 12.2325 21.1001 12.4238 21.2176C12.514 21.273 12.5803 21.367 12.6701 21.4245C12.9601 21.6096 13.2219 21.5802 13.3189 21.3989C13.4552 21.1438 13.5732 21.1304 13.759 21.3511C13.8828 21.4975 13.9932 21.4744 14.1107 21.3578C14.1644 21.3041 14.2278 21.25 14.2563 21.1828C14.3813 20.8908 14.6016 20.7976 14.9038 20.8324C15.0464 20.8488 15.1895 20.8509 15.3154 20.7426C15.4593 20.6188 15.623 20.5181 15.7703 20.3977C15.8991 20.2924 15.9725 20.3033 16.0594 20.4573C16.2541 20.8022 16.5755 20.7968 16.7446 20.4401C16.8311 20.2584 16.9809 20.2404 17.1013 20.2911C17.291 20.3713 17.4043 20.2613 17.4689 20.1573C17.6523 19.8619 17.8679 19.5723 17.8738 19.1989C17.9737 18.984 18.1042 18.7935 18.3022 18.6563C18.3929 18.5715 18.4995 18.4998 18.5439 18.3689C18.434 18.3789 18.3329 18.4117 18.2439 18.3911C18.0685 18.3508 17.9372 18.4121 17.8121 18.5178C17.7311 18.5069 17.6611 18.5438 17.5881 18.5673C17.3375 18.5464 17.0698 18.4587 16.8399 18.5178C16.3598 18.6412 15.9448 18.4872 15.5223 18.3273C15.1018 18.1683 14.751 17.8918 14.3969 17.6236C14.3511 17.5888 14.2953 17.5368 14.2609 17.6068C14.1896 17.7524 14.0247 17.8221 13.9739 17.9799C13.9378 17.9979 13.8988 18.0118 13.8665 18.0348C13.3818 18.381 12.4624 18.2975 12.0982 17.687C12.0881 17.5783 11.9979 17.5003 12.0004 17.3798C12.0034 17.2225 11.9249 17.1923 11.7952 17.2988C11.3307 17.6794 10.8356 18.0176 10.3455 18.3626C10.152 18.4989 9.95438 18.684 9.73786 18.7197C9.46259 18.7654 9.1911 18.8766 8.90324 18.846ZM6.60793 12.2743C6.59912 12.4716 6.65325 12.6679 6.66122 12.8543C6.68011 13.3083 6.77326 13.7501 6.8148 14.1991C6.83872 14.4572 6.88362 14.7203 6.99692 14.9616C6.9902 15.0098 6.98895 15.0535 7.05944 15.0409C7.15092 15.0799 7.28645 14.9851 7.341 15.1122C7.39094 15.2289 7.29149 15.3115 7.23274 15.4038C6.96335 15.8285 6.73717 16.2741 6.64192 16.7726C6.62346 16.8696 6.54331 16.9833 6.60793 17.0676C6.68262 17.1654 6.79215 17.0106 6.89076 17.0601C6.98643 17.157 7.02126 17.2661 7.02335 17.4088C7.02965 17.8129 7.38884 17.9161 7.62466 17.8166C7.89196 17.7034 7.99561 17.7554 8.07617 18.0428C8.14121 18.2749 8.15674 18.2807 8.36613 18.1477C8.38333 18.1368 8.39928 18.1234 8.4169 18.1125C8.67371 17.9522 8.7912 17.9979 8.86967 18.2896C8.89359 18.3777 8.94352 18.4389 9.04045 18.4398C9.30775 18.4423 9.56833 18.457 9.81003 18.2799C9.97368 18.1599 10.1533 18.0541 10.3098 17.9253C10.5897 17.6945 10.9094 17.5229 11.1939 17.3005C11.4394 17.1088 11.692 16.925 11.927 16.721C12.2635 16.4298 12.621 16.1625 12.9316 15.8415C13.0444 15.8516 13.1796 15.7106 13.266 15.8507C13.4141 16.0912 13.6407 16.2502 13.8312 16.4462C14.216 16.8419 14.5911 17.2493 15.0523 17.5607C15.2285 17.6794 15.3775 17.8565 15.6159 17.8599C15.782 17.9979 15.9864 18.0697 16.1714 18.175C16.2633 18.2275 16.3783 18.2489 16.4882 18.2275C16.6003 18.2052 16.5025 18.0714 16.5843 18.0269C16.5957 18.021 16.6015 18.0055 16.6099 17.9946L16.6246 17.9891C16.7039 17.9895 16.7677 18.0223 16.8332 18.0684C17.2012 18.3265 17.4815 18.2988 17.7907 17.9891C17.8256 17.9543 17.8784 17.9333 17.9401 17.9325C18.0673 17.9304 18.1088 18.0445 18.2049 18.1032C18.2347 18.0638 18.2825 18.0265 18.2955 17.9795C18.3539 17.7663 18.4667 17.6882 18.69 17.7667C18.7772 17.7973 18.8704 17.794 18.9002 17.6333C18.9434 17.4 19.1348 17.3714 19.3135 17.5405C19.3773 17.601 19.4369 17.7315 19.5074 17.7063C19.6039 17.6715 19.5594 17.5246 19.5993 17.4323C19.6093 17.4088 19.6014 17.3769 19.6014 17.3492C19.598 16.9569 19.517 16.5779 19.4016 16.2049C19.2107 15.5868 18.9107 15.0182 18.6102 14.4496C18.5674 14.3687 18.4919 14.2684 18.5985 14.1907C18.6837 14.1286 18.7789 14.1496 18.8582 14.234C18.9573 14.3393 18.985 14.2684 19.0131 14.1702C19.1436 13.7166 19.1549 13.2445 19.2367 12.7829C19.29 12.4821 19.2564 12.1741 19.303 11.8673C19.3836 11.3361 19.3202 10.7994 19.2405 10.2707C19.1809 9.87413 19.0861 9.48305 19.0068 9.08987C19.0903 8.94594 19.1696 8.79866 19.259 8.6585C19.3626 8.49569 19.4646 8.33498 19.436 8.12895C19.5527 7.98922 19.5489 7.85074 19.4323 7.71311C19.4121 7.64849 19.3513 7.67618 19.3106 7.65898C19.2963 7.60569 19.259 7.62205 19.2241 7.63002C18.8591 7.60778 18.854 7.59394 18.8444 7.23432C18.8406 7.10173 18.8935 6.99682 18.9384 6.88478C19.0278 6.66071 18.998 6.58014 18.771 6.52181C18.5771 6.47188 18.4176 6.39005 18.3362 6.19661C18.3337 5.93225 18.348 5.66621 18.322 5.40395C18.3077 5.26086 18.2443 5.11736 18.0362 5.1312C17.9271 5.13876 17.8172 5.15764 17.6988 5.08211C17.4953 4.95287 17.4513 4.74306 17.382 4.55255C17.262 4.22273 17.0556 4.12328 16.8076 4.31966C16.7358 4.37673 16.6691 4.42709 16.5868 4.37254C16.5117 4.3226 16.4215 4.27435 16.453 4.1472C16.4715 4.07293 16.4618 3.97726 16.3527 3.97977C16.2335 3.98229 16.1207 3.96593 15.9931 4.02845C15.7535 4.14636 15.4887 4.30204 15.2365 4.01712C15.1711 3.94327 15.0599 3.92103 14.9508 3.929C14.7582 3.94369 14.5651 3.91935 14.3717 3.96802C14.2483 3.99866 14.1124 4.01125 14.1023 3.79514C14.083 3.38644 13.8274 3.2681 13.4813 3.49176C13.3478 3.5782 13.219 3.58282 13.1175 3.45148C12.9995 3.29915 12.8497 3.30923 12.7201 3.39147C12.5447 3.50309 12.3781 3.63107 12.2577 3.81361C12.1595 3.96215 12.0294 4.09013 11.9127 4.22651C11.8326 4.3205 11.7189 4.33561 11.6328 4.27309C11.5422 4.20721 11.436 4.18539 11.3416 4.13293C11.2426 4.07754 11.1218 4.05027 11.0315 4.2093C10.8893 4.46024 10.6648 4.55297 10.421 4.47073C10.3157 4.43506 10.2078 4.42667 10.1033 4.40065C9.84024 4.33519 9.6682 4.48751 9.66358 4.76865C9.66233 4.85132 9.64932 4.90209 9.56665 4.95035C9.47434 5.00406 9.42482 4.95119 9.3665 4.9151C9.17473 4.79719 9.04003 4.85635 9.00101 5.08085C8.97961 5.20422 8.96744 5.33052 8.93387 5.45053C8.88729 5.61754 8.82687 5.77364 8.60657 5.78497C8.42949 5.7942 8.30067 5.90875 8.20793 6.04765C8.12191 6.17647 8.05393 6.31872 7.98847 6.45971C7.88105 6.69176 7.8458 6.70351 7.63054 6.58769C7.36996 6.44796 6.97384 6.53776 7.02335 6.93346C7.04685 7.11977 6.94866 7.19656 6.79844 7.20075C6.57059 7.20747 6.53744 7.34342 6.51352 7.52554C6.46526 7.88935 6.67507 8.1986 6.70738 8.54395C6.73214 8.81166 6.9088 9.03406 6.94027 9.30052C6.9323 9.35465 6.94027 9.41885 6.91341 9.46123C6.65367 9.87581 6.69689 10.3592 6.59954 10.8103C6.55506 10.8237 6.56136 10.8619 6.56136 10.8946C6.56136 11.3222 6.56136 11.7502 6.56261 12.1778C6.56261 12.2152 6.54835 12.2651 6.60961 12.2748L6.60793 12.2743ZM13.3482 17.0471C13.3516 17.0471 13.355 17.0471 13.3583 17.0471C13.3583 17.1516 13.3537 17.2565 13.3596 17.3605C13.3684 17.5233 13.2635 17.6035 13.1338 17.593C13.0256 17.5842 12.9639 17.4789 12.9685 17.3488C12.9756 17.1549 12.9731 16.9602 12.9282 16.7693C12.9055 16.6728 12.9064 16.5196 12.8489 16.4928C12.7377 16.4403 12.6966 16.6006 12.6148 16.6568C12.5526 16.6996 12.4985 16.7542 12.4364 16.7978C12.3588 16.8528 12.3374 16.9258 12.3517 17.0152C12.4477 17.6287 12.9614 17.8351 13.4573 17.6769C13.8728 17.5443 13.9391 17.2212 13.6504 16.8901C13.5983 16.8305 13.5203 16.7856 13.5039 16.6929C13.4951 16.6434 13.4506 16.6052 13.3965 16.6144C13.3273 16.6262 13.3499 16.6891 13.3491 16.7336C13.3466 16.8381 13.3482 16.9426 13.3482 17.0471Z" fill="#010101"/>
<path d="M16.6235 17.9882L16.6088 17.9937C16.3885 17.9731 16.1757 17.9215 15.9672 17.8455C15.851 17.8032 15.7293 17.7771 15.6147 17.859C15.376 17.8556 15.227 17.6785 15.0512 17.5598C14.59 17.2488 14.2149 16.841 13.8301 16.4453C13.6396 16.2493 13.413 16.0907 13.2649 15.8498C13.1784 15.7097 13.0433 15.8507 12.9304 15.8406C12.8075 15.763 12.6333 15.7546 12.5561 15.8238C12.3375 16.0189 12.0773 16.1415 11.8394 16.3001C11.549 16.4939 11.2612 16.7025 10.9452 16.8439C10.56 17.016 10.1505 17.1372 9.74427 17.2564C9.48873 17.3311 9.22185 17.4284 8.9512 17.3105C8.79174 17.2409 8.65369 17.2556 8.52654 17.373C8.44933 17.444 8.36331 17.4738 8.29324 17.3764C8.15141 17.1792 7.97601 17.1834 7.80061 17.3C7.5908 17.4402 7.42085 17.3668 7.25636 17.2321C7.14726 17.1427 7.03103 17.076 6.88962 17.0588C6.79143 17.0092 6.68149 17.1641 6.6068 17.0663C6.54218 16.9815 6.62232 16.8682 6.64079 16.7713C6.73604 16.2728 6.96221 15.8272 7.23161 15.4025C7.29035 15.3098 7.3898 15.2275 7.33987 15.1109C7.28532 14.9837 7.14978 15.0782 7.0583 15.0396C7.0604 14.9947 7.04278 14.9661 6.99578 14.9602C6.88248 14.719 6.83759 14.4559 6.81367 14.1978C6.77213 13.7488 6.67897 13.307 6.66009 12.8529C6.65211 12.667 6.59798 12.4702 6.6068 12.273C6.61771 12.2411 6.63869 12.2097 6.63869 12.1778C6.64078 11.7581 6.63995 11.339 6.63953 10.9193C6.63953 10.877 6.63743 10.835 6.59631 10.8081C6.69366 10.357 6.65044 9.87365 6.91018 9.45907C6.93662 9.41669 6.92864 9.35249 6.93703 9.29835C7.17034 9.21863 7.33064 9.05707 7.38309 8.82209C7.41876 8.66222 7.44267 8.49605 7.4389 8.3261C7.4326 8.04832 7.42421 7.77053 7.47373 7.49274C7.52324 7.21244 7.66255 7.07648 7.93866 7.02781C8.13294 6.9934 8.34107 6.9485 8.41577 6.71142C8.44514 6.61826 8.49465 6.52469 8.592 6.48776C8.90336 6.37027 8.98645 6.12059 8.9877 5.82267C8.9877 5.71482 9.02589 5.66951 9.14002 5.64391C9.49964 5.56292 9.75728 5.31913 9.95912 5.03253C10.137 4.77992 10.1182 4.75978 10.4207 4.86132C10.5873 4.91755 10.7148 4.90035 10.8227 4.74971C10.9792 4.53109 11.3162 4.48912 11.5348 4.65235C11.8176 4.86342 12.1231 4.86342 12.4244 4.69096C12.724 4.51934 12.9909 4.29778 13.3068 4.15133C13.5468 4.04013 13.7097 4.04055 13.8813 4.23274C14.0433 4.41401 14.2237 4.49794 14.4687 4.43835C14.5464 4.41947 14.6551 4.41233 14.7138 4.45262C15.0042 4.65152 15.279 4.54703 15.5409 4.41485C15.6521 4.35862 15.7112 4.38548 15.7981 4.43709C16.1178 4.6276 16.451 4.76313 16.8379 4.6876C16.9718 4.66159 17.0695 4.68257 17.093 4.86762C17.1316 5.16932 17.2663 5.26919 17.5764 5.26793C17.7216 5.26751 17.816 5.30654 17.8538 5.45844C17.8769 5.55201 17.9176 5.64307 17.9604 5.73035C18.0498 5.91246 18.098 6.13025 18.3347 6.19403C18.4161 6.38747 18.576 6.4693 18.7694 6.51923C18.9964 6.57756 19.0262 6.65812 18.9368 6.8822C18.8919 6.99424 18.8391 7.09914 18.8428 7.23174C18.8529 7.59093 18.8575 7.6052 19.2226 7.62744C19.2343 7.68745 19.2541 7.72479 19.309 7.65639C19.3497 7.67402 19.411 7.64632 19.4307 7.71052C19.432 7.849 19.4332 7.98789 19.4345 8.12636C19.463 8.3324 19.3611 8.49311 19.2574 8.65592C19.168 8.79649 19.0891 8.94336 19.0052 9.08729C18.928 9.09526 18.873 9.05666 18.8223 9.00462C18.7916 8.97357 18.7509 8.95259 18.7098 8.98029C18.6695 9.00756 18.672 9.05582 18.6872 9.09442C18.7644 9.29374 18.7383 9.5069 18.7723 9.71042C18.8819 10.3612 18.9389 11.0142 18.8848 11.6725C18.8626 11.9407 18.8588 12.2222 18.7698 12.4702C18.6884 12.6981 18.6129 12.918 18.5915 13.1588C18.5785 13.3032 18.5508 13.4463 18.5222 13.5885C18.5147 13.6275 18.4987 13.7224 18.445 13.6766C18.2814 13.5365 18.0397 13.5709 17.8903 13.411C17.8882 13.3905 17.8773 13.3649 17.8857 13.3493C18.1672 12.8324 18.064 12.3603 17.6276 11.9755C17.4489 11.8182 17.2202 11.7703 17.0431 11.626C16.8333 11.5165 16.6226 11.5236 16.4112 11.6205C16.3423 11.7032 16.2311 11.7011 16.1443 11.7577C15.8665 11.939 15.7007 12.1992 15.5606 12.4849C15.3881 12.6696 15.3965 12.9159 15.579 13.0288C15.6525 13.093 15.5895 13.171 15.6 13.2415C15.5912 13.2516 15.5824 13.2616 15.5736 13.2717C15.4859 13.3363 15.295 13.3359 15.3768 13.5142C15.4515 13.6775 15.5744 13.599 15.7066 13.5566C16.0222 13.4555 16.3293 13.2772 16.6805 13.3884C16.5651 13.6792 16.5954 13.8105 16.9579 13.7719C16.9848 13.769 17.0125 13.7769 17.0397 13.7794C17.1274 13.8713 17.2391 13.813 17.3393 13.8273C17.4174 13.9112 17.5105 13.9473 17.6285 13.9561C17.7963 13.9691 17.9751 13.9922 17.9306 14.244C17.9155 14.3308 17.9927 14.3724 18.0481 14.421C18.0905 14.5545 18.153 14.4571 18.2201 14.4466C18.3133 14.432 18.4417 14.2931 18.5042 14.4462C18.6469 14.7953 18.8034 15.1478 18.8747 15.5146C18.9574 15.9396 19.0291 16.3735 19.0145 16.8133C19.0056 17.0764 18.8466 17.2195 18.5818 17.1796C18.4727 17.1632 18.3661 17.128 18.2575 17.1074C17.9801 17.055 17.7363 17.2081 17.6713 17.4826C17.6469 17.5858 17.6012 17.59 17.5072 17.5732C17.3884 17.5526 17.2487 17.5153 17.1602 17.6403C17.1018 17.7226 17.0309 17.7339 16.9441 17.7293C16.7611 17.7192 16.6604 17.8141 16.6235 17.9869V17.9882ZM13.8099 14.4156C13.9916 14.3459 14.115 14.2171 14.1901 14.0396C14.23 13.9607 14.2698 13.8823 14.3089 13.8029C14.4234 13.5713 14.3609 13.3472 14.1289 13.2591C13.922 13.1807 13.7034 13.1093 13.4852 13.0904C13.0786 13.056 12.6837 13.1542 12.3002 13.2851C12.2397 13.3057 12.1478 13.3216 12.1441 13.4001C12.1348 13.6028 12.1172 13.8008 12.2607 13.9872C12.4038 14.173 12.5758 14.33 12.7236 14.5113C12.9741 14.8188 13.2695 14.943 13.5867 14.5931C13.645 14.5289 13.6845 14.4072 13.8099 14.4152V14.4156ZM7.59374 14.7555C7.53961 14.8289 7.59751 14.8612 7.64954 14.8725C7.71249 14.8864 7.79473 14.9116 7.81445 14.805C8.06035 14.625 8.31925 14.471 8.60921 14.3703C8.70236 14.338 8.82237 14.3031 8.81566 14.1739C8.80517 13.9809 8.92854 13.9498 9.07414 13.9091C9.2764 13.8525 9.50425 13.865 9.67126 13.7048C9.75686 13.6959 9.76693 13.625 9.78749 13.5629C9.97045 13.5218 10.1505 13.5529 10.3305 13.5868C10.3456 13.6771 10.4186 13.6527 10.4769 13.6649C10.6255 13.6968 10.7572 13.6254 10.8953 13.5998C11.1215 13.5579 11.3581 13.7031 11.5814 13.5449C11.6409 13.5029 11.7467 13.5285 11.7576 13.4131C11.7677 13.3065 11.711 13.247 11.6263 13.197C11.5138 13.1303 11.3929 13.0879 11.2679 13.1248C11.137 13.1634 11.0061 13.1538 10.8747 13.1593C10.8726 13.0833 10.8798 13.0061 10.8667 12.9318C10.8139 12.6255 10.774 12.3183 10.5332 12.0783C10.2046 11.751 9.81225 11.6138 9.36746 11.7002C9.09429 11.7535 8.84168 11.8731 8.64907 12.1152C8.37045 12.4656 8.27435 12.8487 8.31883 13.2809C8.33058 13.3569 8.2668 13.4584 8.39269 13.4949C8.49507 13.6242 8.52654 13.7467 8.36164 13.8537C8.3331 13.8722 8.2924 13.8982 8.28904 13.9246C8.25463 14.2049 8.00118 14.2536 7.81907 14.3774C7.69696 14.4168 7.57233 14.4538 7.59793 14.625C7.59667 14.6686 7.59499 14.7123 7.59374 14.7559V14.7555ZM9.20003 10.2219C9.17192 10.2219 9.14422 10.2228 9.11611 10.2219C8.89874 10.2131 8.81356 10.4368 8.65201 10.4947C8.47871 10.5572 8.28233 10.522 8.12036 10.673C7.99279 10.7922 7.9353 10.9454 7.83627 11.0763C7.78634 11.1422 7.79263 11.2437 7.83166 11.3176C7.87572 11.4006 7.97055 11.4036 8.05531 11.3948C8.17239 11.3826 8.26596 11.3335 8.31506 11.216C8.37506 11.0721 8.47241 10.9856 8.6411 10.9684C8.82573 10.9495 9.02715 10.9101 9.14044 10.7548C9.20842 10.6617 9.28479 10.6311 9.37417 10.6084C9.44802 10.5895 9.53488 10.6017 9.55545 10.5035C9.57517 10.4091 9.50635 10.3512 9.4518 10.2882C9.38172 10.2072 9.28857 10.2236 9.19919 10.2224L9.20003 10.2219ZM14.2988 5.56586C14.1033 5.56502 13.867 5.68797 13.7168 5.84617C13.6354 5.93219 13.653 5.98967 13.7327 6.05052C13.8658 6.15165 14.0076 6.12647 14.1465 6.06814C14.222 6.03667 14.2833 6.01024 14.3492 6.09122C14.4331 6.19403 14.5136 6.34299 14.6823 6.22676C14.8317 6.12353 14.9349 6.34005 15.0742 6.26998C15.0864 6.26368 15.104 6.25949 15.1095 6.249C15.1745 6.12395 15.2295 5.99009 15.1821 5.85204C15.1435 5.73958 15.0478 5.68461 14.9177 5.68965C14.7805 5.6951 14.6349 5.7186 14.5166 5.61663C14.4511 5.56041 14.3752 5.56544 14.2988 5.56586ZM17.0863 7.66646C17.0561 7.88341 17.0888 8.06132 17.3452 8.11126C17.3767 8.11755 17.4153 8.14063 17.4308 8.16707C17.508 8.29967 17.6192 8.34457 17.7418 8.25393C17.8744 8.15532 17.8752 7.89641 17.769 7.77976C17.6964 7.70003 17.5819 7.6459 17.5882 7.51246C17.602 7.22167 17.4505 7.06851 17.1816 6.9934C17.096 6.96948 17.0385 6.95815 16.9835 7.03494C16.9298 7.11005 16.9 7.19565 16.973 7.26195C17.1006 7.37777 17.0909 7.52086 17.0867 7.66646H17.0863ZM16.913 9.97226C16.8358 9.97226 16.7892 9.95757 16.7682 9.97478C16.6663 10.057 16.454 10.0025 16.4581 10.2135C16.4619 10.4158 16.613 10.5669 16.8144 10.5547C16.9881 10.5442 17.1211 10.5878 17.2357 10.7246C17.3393 10.8488 17.584 10.8702 17.7187 10.7746C17.7829 10.7288 17.8781 10.6789 17.863 10.5862C17.8488 10.498 17.7548 10.4527 17.6738 10.4422C17.5563 10.4271 17.4623 10.3713 17.43 10.2723C17.3364 9.98569 17.0876 10.0142 16.9134 9.97184L16.913 9.97226ZM9.0754 7.94803C9.06533 8.12301 9.08841 8.24428 9.24661 8.24596C9.39347 8.24763 9.50048 8.17966 9.49166 8.00719C9.48621 7.89641 9.52817 7.79697 9.64315 7.79697C9.81897 7.79697 9.89911 7.72185 9.91506 7.55569C9.92093 7.49484 9.96247 7.45162 10.0124 7.4277C10.1488 7.36266 10.1962 7.2523 10.1521 7.11886C10.1186 7.01732 10.0376 6.93675 9.91548 6.9527C9.77994 6.97032 9.6272 6.99927 9.58356 7.14572C9.54328 7.28084 9.45558 7.37189 9.35445 7.42854C9.12324 7.5582 9.1417 7.79361 9.0754 7.94803ZM13.4587 6.3304C13.4382 6.28844 13.4147 6.23767 13.3895 6.18815C13.2733 5.96114 13.1952 5.94058 12.9632 6.04464C12.8708 6.08619 12.7714 6.09458 12.6724 6.01695C12.5079 5.88813 12.3136 5.89442 12.1269 5.95778C12.0329 5.98967 12.0119 6.08912 12.0106 6.18438C12.0089 6.29054 12.0979 6.28299 12.1592 6.29096C12.3417 6.31488 12.4911 6.41097 12.609 6.53308C12.7563 6.68582 12.9136 6.64302 13.0693 6.59812C13.1864 6.56413 13.293 6.49238 13.4038 6.43699C13.444 6.41684 13.473 6.38957 13.4587 6.32998V6.3304ZM15.4989 15.7621C15.3957 15.7621 15.3113 15.7567 15.2282 15.7638C15.1531 15.7701 15.094 15.8112 15.086 15.8918C15.0675 16.0768 15.3462 16.2896 15.5111 16.1981C15.6248 16.1352 15.702 16.1566 15.7985 16.2044C15.898 16.2535 15.9999 16.2992 16.104 16.3383C16.3566 16.4339 16.6054 16.4151 16.8404 16.2858C16.895 16.2556 16.9604 16.1931 16.939 16.1171C16.9193 16.0466 16.853 16.0114 16.7745 16.0118C16.6839 16.0122 16.5924 16.0043 16.5026 16.0131C16.2865 16.0345 16.0872 15.9959 15.9126 15.8645C15.7817 15.7659 15.6374 15.7386 15.4989 15.7617V15.7621ZM9.45726 16.7142C9.67965 16.6488 9.93058 16.6597 10.0896 16.4516C10.1135 16.4205 10.158 16.3895 10.1408 16.3441C10.1177 16.2833 10.0573 16.3085 10.012 16.306C9.85212 16.2976 9.68301 16.4088 9.53866 16.3349C9.25038 16.1868 8.95413 16.1574 8.63816 16.1587C8.52403 16.1591 8.44892 16.1524 8.37003 16.2472C8.30708 16.3227 8.35702 16.3563 8.38723 16.4075C8.45017 16.5137 8.52948 16.572 8.66208 16.5342C8.81608 16.4902 8.96085 16.5162 9.10562 16.5913C9.21472 16.6479 9.33976 16.6744 9.45642 16.7138L9.45726 16.7142Z" fill="#FEFEFE"/>
<path d="M17.5871 18.5683C17.6601 18.5448 17.7306 18.5074 17.8111 18.5188C17.9282 18.5225 18.0453 18.5318 18.1619 18.528C18.258 18.5251 18.305 18.5599 18.3012 18.6572C18.1032 18.7944 17.9727 18.985 17.8728 19.1998C17.7129 19.2317 17.5652 19.303 17.3869 19.2481C17.1058 19.1612 16.8779 19.259 16.7033 19.4981C16.6094 19.627 16.5166 19.7575 16.4176 19.8825C16.3299 19.9925 16.2237 20.0718 16.076 19.9895C15.7886 19.8292 15.5431 19.9182 15.3132 20.1112C15.2662 20.1507 15.2288 20.2186 15.1566 20.1976C14.8533 20.1108 14.6611 20.3164 14.5369 20.5103C14.4059 20.7142 14.275 20.7658 14.0539 20.7566C13.7064 20.7419 13.3745 20.8023 13.1219 21.0814C13.0023 21.2135 12.9108 21.1355 12.8135 21.0352C12.5689 20.7839 12.4711 20.7704 12.1757 20.9471C12.0435 21.026 11.9336 21.0293 11.8186 20.9198C11.7284 20.8334 11.6369 20.7436 11.5316 20.6794C11.3406 20.5627 11.1757 20.3764 10.9168 20.4188C10.7293 20.4364 10.5371 20.3751 10.3529 20.4872C10.2559 20.5464 10.19 20.4494 10.164 20.3588C10.1292 20.2367 10.0818 20.1108 10.0822 19.987C10.083 19.65 9.87827 19.5796 9.57699 19.6673C9.52118 19.5989 9.50188 19.637 9.49055 19.697C9.25472 19.7474 9.08771 19.6991 8.9891 19.4423C8.89133 19.1868 8.6211 19.0412 8.50948 18.7869C8.48892 18.7403 8.41549 18.6925 8.48598 18.6333C8.55564 18.575 8.58208 18.6526 8.61774 18.6858C8.70041 18.7626 8.80447 18.7986 8.90224 18.8469C9.01134 18.9505 9.15276 18.9472 9.28493 18.9464C9.79687 18.9443 10.2727 18.7924 10.7284 18.5704C10.7905 18.5402 10.8614 18.5196 10.9143 18.4839C11.1573 18.3211 11.4413 18.2254 11.657 18.0165C11.7884 17.8893 11.8941 17.7206 12.0972 17.6875C12.4614 18.2985 13.3808 18.382 13.8655 18.0354C13.8978 18.0123 13.9368 17.9984 13.9729 17.9804C14.0824 18.0114 14.1282 17.8146 14.223 17.8868C14.3841 18.0085 14.5792 18.0937 14.7215 18.2141C15.0094 18.4579 15.3526 18.5452 15.6807 18.5968C16.2615 18.6883 16.8578 18.666 17.4486 18.6547C17.5132 18.6535 17.5782 18.6568 17.5866 18.5679L17.5871 18.5683Z" fill="#FEFEFE"/>
<path d="M6.21259 11.8978C6.19203 12.0551 6.28938 12.202 6.25371 12.361C6.14041 12.3522 6.14377 12.4273 6.13328 12.51C6.06488 13.0454 6.03005 13.5863 5.88361 14.1092C5.80724 14.3819 5.7573 14.6622 5.60456 14.911C5.55673 14.9891 5.52651 15.0101 5.44595 14.9757C5.2823 14.9056 5.13963 14.9186 5.02801 15.0797C4.97682 15.1532 4.91933 15.1901 4.87317 15.0592C4.82324 14.9173 4.7284 14.8619 4.56181 14.9077C4.4888 14.9278 4.37425 15.0235 4.28906 14.8724C4.20094 14.7155 4.00205 14.697 3.86525 14.825C3.72426 14.9572 3.5711 15.0315 3.37598 15.0038C3.46326 14.5049 3.58872 14.0168 3.7851 13.549C3.90553 13.2628 4.01379 12.9703 4.15227 12.6934C4.34026 12.3174 4.5551 11.9553 4.77708 11.5977C5.16061 10.9805 5.64317 10.4505 6.17021 9.9562C6.2256 9.90417 6.27805 9.87102 6.35442 9.89032L6.36785 9.88823C6.34267 10.1282 6.25917 10.3595 6.25833 10.6037C6.25791 10.7002 6.25413 10.7967 6.25203 10.8932C6.19287 10.9016 6.15552 10.9188 6.21762 10.9771C6.21846 11.257 6.2193 11.5369 6.22056 11.8168C6.1744 11.8399 6.17021 11.8671 6.21301 11.8986L6.21259 11.8978Z" fill="#FEFEFE"/>
<path d="M19.7044 11.145C19.644 10.6456 19.5836 10.1463 19.5215 9.63477C19.8265 9.70694 19.968 9.96878 20.1706 10.1488C20.5336 10.4711 20.7778 10.8911 21.0661 11.2746C21.2377 11.5029 21.3888 11.7463 21.5457 11.9855C21.5784 12.0354 21.5952 12.0958 21.6196 12.1512C21.5403 12.2586 21.6087 12.2947 21.7006 12.3195L21.6997 12.3186C21.6892 12.4181 21.6951 12.5163 21.7543 12.6006C21.9729 12.912 21.9783 13.2963 22.1055 13.6396C22.2041 13.9056 22.2251 14.1968 22.2007 14.4851C22.1974 14.5254 22.215 14.5762 22.173 14.6005C22.1164 14.6337 22.0719 14.5787 22.0509 14.5476C21.9565 14.4096 21.7946 14.3647 21.6775 14.2577C21.5252 14.1188 21.3242 14.1297 21.1622 14.2631C21.103 14.3118 21.0279 14.3487 20.9868 14.4087C20.9184 14.5086 20.8668 14.4792 20.7845 14.4276C20.6494 14.342 20.4782 14.2187 20.3431 14.2774C20.072 14.3953 20.0699 14.2195 20.0674 14.0668C20.0586 13.5737 19.9701 13.0924 19.9096 12.6061C19.8551 12.1672 19.7502 11.7295 19.7682 11.2818C19.7703 11.2276 19.78 11.1655 19.7044 11.1458V11.145Z" fill="#FEFEFE"/>
<path d="M13.3472 17.0471C13.3472 16.9426 13.3456 16.8382 13.3481 16.7337C13.3493 16.6892 13.3263 16.6263 13.3955 16.6145C13.4496 16.6053 13.4945 16.6435 13.5029 16.693C13.5193 16.7857 13.5969 16.8306 13.6494 16.8902C13.9381 17.2213 13.8718 17.5444 13.4563 17.677C12.9604 17.8352 12.4467 17.6287 12.3507 17.0152C12.3368 16.9254 12.3578 16.8528 12.4354 16.7979C12.4971 16.7542 12.5512 16.6997 12.6138 16.6569C12.6956 16.6007 12.7371 16.4404 12.8479 16.4928C12.905 16.5197 12.9041 16.6728 12.9272 16.7693C12.9721 16.9603 12.9746 17.155 12.9675 17.3488C12.9629 17.4789 13.0246 17.5842 13.1328 17.5931C13.2621 17.6035 13.3674 17.5234 13.3586 17.3606C13.3527 17.2565 13.3573 17.1516 13.3573 17.0471C13.354 17.0471 13.3506 17.0471 13.3472 17.0471Z" fill="#FF3506"/>
<path d="M19.4344 8.12873C19.4332 7.99026 19.4319 7.85136 19.4307 7.71289C19.5469 7.85053 19.5507 7.98942 19.4344 8.12873Z" fill="#EFEFEF"/>
<path d="M14.1288 13.2599C13.9219 13.1815 13.7033 13.1101 13.4851 13.0913C13.0785 13.0568 12.7625 13.0757 12.3786 13.2066C12.3182 13.2272 12.092 13.3531 12.0882 13.4316C12.079 13.6342 12.1168 13.8012 12.2607 13.988C12.4038 14.1739 12.5758 14.3308 12.7235 14.5121C12.974 14.8197 13.2694 14.9439 13.5867 14.5939C13.645 14.5297 14.115 14.2175 14.1901 14.0396C14.2299 13.9607 14.2698 13.8822 14.3088 13.8029C14.4234 13.5713 14.3609 13.3472 14.1288 13.2591V13.2599Z" fill="#010101"/>
<path d="M17.9714 13.6991C17.8959 13.6978 17.7973 13.6865 17.7696 13.6135C17.7339 13.5191 17.7948 13.4465 17.8909 13.4121C17.8888 13.3915 17.8779 13.3659 17.8862 13.3504C18.1678 12.8334 18.0646 12.3614 17.6282 11.9766C17.4494 11.8192 17.2207 11.7714 17.0437 11.627C16.8338 11.5175 16.6232 11.5246 16.4117 11.6216C16.3429 11.7042 16.2317 11.7021 16.1448 11.7588C15.867 11.9401 15.7013 12.2002 15.5611 12.486C15.3887 12.6706 15.3971 12.9169 15.5796 13.0298C15.653 13.094 15.5901 13.1721 15.6006 13.2425C15.6165 13.2744 15.6023 13.2795 15.5742 13.2728C15.4865 13.3374 15.2955 13.337 15.3774 13.5153C15.452 13.6785 15.575 13.6001 15.7072 13.5577C16.0227 13.4566 16.3299 13.2782 16.6811 13.3894C16.5657 13.6802 16.5959 13.8115 16.9585 13.7729C16.9853 13.77 17.013 13.778 17.0403 13.7805C17.128 13.8724 17.2396 13.8141 17.3399 13.8283C17.4179 13.9123 17.5111 13.9483 17.629 13.9572C17.7969 13.9702 17.9756 13.9932 17.9311 14.245C17.916 14.3319 17.9932 14.3734 18.0486 14.4221C18.3126 14.3642 18.2316 14.1292 18.2484 13.9731C18.2643 13.825 18.1573 13.7008 17.9714 13.6978V13.6991ZM17.4889 12.486C17.4192 12.4847 17.3454 12.4877 17.3437 12.3853C17.342 12.2946 17.3819 12.2422 17.475 12.2355C17.5535 12.2334 17.6143 12.2627 17.6227 12.3454C17.6324 12.4377 17.5833 12.4877 17.4884 12.4856L17.4889 12.486Z" fill="#010101"/>
<path d="M10.866 12.9327C10.8131 12.6263 10.7733 12.3192 10.5324 12.0792C10.2039 11.7519 9.81152 11.6146 9.36672 11.7011C9.09355 11.7544 8.84094 11.874 8.64834 12.1161C8.36971 12.4665 8.27362 12.8496 8.3181 13.2818C8.32985 13.3577 8.26607 13.4593 8.39195 13.4958C8.49434 13.625 8.52581 13.7476 8.3609 13.8546C8.33237 13.873 8.29166 13.899 8.28831 13.9255C8.2539 14.2058 8.00045 14.2545 7.81833 14.3782C7.69665 14.4177 7.5716 14.4546 7.5972 14.6258C7.59594 14.6695 7.59426 14.7131 7.593 14.7567C7.53887 14.8302 7.59678 14.8625 7.64881 14.8738C7.71175 14.8877 7.794 14.9128 7.81372 14.8063C8.05961 14.6262 8.31852 14.4722 8.60847 14.3715C8.70163 14.3392 8.82164 14.3044 8.81493 14.1751C8.80443 13.9821 8.9278 13.9511 9.07341 13.9104C9.27566 13.8537 9.50352 13.8663 9.67052 13.706C9.75613 13.6972 9.7662 13.6263 9.78676 13.5642C9.96971 13.5231 10.1497 13.5541 10.3297 13.5881C10.6249 13.5752 10.8061 13.4326 10.8736 13.1601C10.8715 13.0841 10.8786 13.0069 10.8656 12.9327H10.866ZM10.1086 12.5336C10.0045 12.5282 9.98859 12.4589 9.99531 12.3742C9.99657 12.2873 10.018 12.2218 10.1258 12.2218C10.2425 12.2218 10.3214 12.2982 10.3163 12.3888C10.3117 12.4803 10.2164 12.5391 10.1086 12.5336Z" fill="#010101"/>
<path d="M9.99449 12.373C9.99575 12.2862 10.0172 12.2207 10.125 12.2207C10.2416 12.2207 10.3205 12.2971 10.3155 12.3877C10.3109 12.4792 10.2156 12.5379 10.1078 12.5325C10.0037 12.527 9.98778 12.4578 9.99449 12.373Z" fill="#EFEFEF"/>
<path d="M17.475 12.2367C17.5531 12.2346 17.6139 12.264 17.6223 12.3467C17.6319 12.439 17.5828 12.4889 17.488 12.4868C17.4184 12.4856 17.3445 12.4885 17.3428 12.3861C17.3411 12.2955 17.381 12.243 17.4746 12.2363L17.475 12.2367Z" fill="#EFEFEF"/>
</g>
<defs>
<clipPath id="clip0_2364_2804">
<rect width="24" height="24" fill="white" transform="translate(0.976562)"/>
</clipPath>
</defs>
</svg>
