<svg width="24" height="24" viewBox="0 0 24 24" fill="none" xmlns="http://www.w3.org/2000/svg">
<g clip-path="url(#clip0_933_348)">
<path d="M12 24C18.6274 24 24 18.6274 24 12C24 5.37258 18.6274 0 12 0C5.37258 0 0 5.37258 0 12C0 18.6274 5.37258 24 12 24Z" fill="#2B61D1"/>
<path d="M9.7762 15.9964L7.63647 17.2316L5.4082 15.9452V13.4737L7.59167 12.2129L9.7762 13.4737V15.9964Z" fill="white"/>
<path d="M10.5761 17.3812L10.6038 17.3652L13.5435 19.0623L12.1761 19.8516L9.23633 18.1546L10.5761 17.3812Z" fill="white"/>
<path d="M15.1363 9.4668L18.8899 11.6343V15.9681L15.1363 18.1345L11.3838 15.9681V11.6343L15.1363 9.4668Z" fill="white"/>
<path d="M18.9454 8.12702V9.81875L15.9363 8.08115L15.1363 7.61928L14.3363 8.08115L10.5838 10.2486L9.78376 10.7105V11.63L8.39176 10.8268L7.59176 10.3649L6.79176 10.8268L5.40723 11.6268V8.12702L12.1763 4.21875L18.9454 8.12702Z" fill="white"/>
</g>
<defs>
<clipPath id="clip0_933_348">
<rect width="24" height="24" fill="white"/>
</clipPath>
</defs>
</svg>
