<svg width="24" height="24" viewBox="0 0 24 24" fill="none" xmlns="http://www.w3.org/2000/svg">
<path d="M12 24C18.6274 24 24 18.6274 24 12C24 5.37258 18.6274 0 12 0C5.37259 0 0 5.37258 0 12C0 18.6274 5.37259 24 12 24Z" fill="#38C1AD"/>
<path d="M9.42219 18.6872C9.15405 18.6872 8.89689 18.5807 8.70729 18.3911C8.51769 18.2014 8.41113 17.9443 8.41113 17.6761V10.7397C8.41113 9.29562 8.98479 7.91076 10.0059 6.88968C11.027 5.86856 12.4119 5.29492 13.8559 5.29492H14.5272C14.7961 5.29711 15.0533 5.40547 15.2426 5.59639C15.432 5.78732 15.5382 6.04536 15.5382 6.31428C15.5382 6.58242 15.4317 6.83958 15.2421 7.02918C15.0525 7.21878 14.7953 7.32534 14.5272 7.32534H13.8559C12.9496 7.32528 12.0803 7.6848 11.4387 8.32488C10.797 8.96496 10.4355 9.83334 10.4333 10.7397V17.6844C10.4333 17.8168 10.407 17.9479 10.3562 18.0701C10.3052 18.1923 10.2306 18.3032 10.1366 18.3964C10.0427 18.4897 9.93111 18.5633 9.80847 18.6133C9.68589 18.6632 9.55461 18.6883 9.42219 18.6872Z" fill="white"/>
<path d="M14.5527 13.5163H9.42285V11.4941H14.5278C14.796 11.4941 15.0531 11.6007 15.2427 11.7903C15.4323 11.9799 15.5389 12.2371 15.5389 12.5052C15.539 12.7691 15.4359 13.0226 15.2516 13.2115C15.0673 13.4004 14.8165 13.5098 14.5527 13.5163Z" fill="white"/>
</svg>
