<svg width="25" height="24" viewBox="0 0 25 24" fill="none" xmlns="http://www.w3.org/2000/svg">
<g clip-path="url(#clip0_1614_634)">
<path d="M12.707 24C19.3345 24 24.707 18.6274 24.707 12C24.707 5.37258 19.3345 0 12.707 0C6.07962 0 0.707031 5.37258 0.707031 12C0.707031 18.6274 6.07962 24 12.707 24Z" fill="#38C1AD"/>
<path d="M10.1292 18.6872C9.86108 18.6872 9.60392 18.5807 9.41432 18.3911C9.22472 18.2014 9.11816 17.9443 9.11816 17.6761V10.7397C9.11816 9.29562 9.69182 7.91076 10.7129 6.88968C11.734 5.86856 13.1189 5.29492 14.5629 5.29492H15.2342C15.5031 5.29711 15.7603 5.40547 15.9496 5.59639C16.139 5.78732 16.2453 6.04536 16.2453 6.31428C16.2453 6.58242 16.1388 6.83958 15.9491 7.02918C15.7595 7.21878 15.5023 7.32534 15.2342 7.32534H14.5629C13.6566 7.32528 12.7873 7.6848 12.1457 8.32488C11.5041 8.96496 11.1425 9.83334 11.1403 10.7397V17.6844C11.1403 17.8168 11.1141 17.9479 11.0632 18.0701C11.0122 18.1923 10.9377 18.3032 10.8436 18.3964C10.7497 18.4897 10.6381 18.5633 10.5155 18.6133C10.3929 18.6632 10.2616 18.6883 10.1292 18.6872Z" fill="white"/>
<path d="M15.2597 13.5163H10.1299V11.4941H15.2349C15.503 11.4941 15.7602 11.6007 15.9498 11.7903C16.1394 11.9799 16.2459 12.2371 16.2459 12.5052C16.246 12.7691 16.1429 13.0226 15.9586 13.2115C15.7743 13.4004 15.5235 13.5098 15.2597 13.5163Z" fill="white"/>
</g>
<defs>
<clipPath id="clip0_1614_634">
<rect width="24" height="24" fill="white" transform="translate(0.707031)"/>
</clipPath>
</defs>
</svg>
