<svg width="25" height="24" viewBox="0 0 25 24" fill="none" xmlns="http://www.w3.org/2000/svg">
<circle cx="12.9766" cy="12" r="12" fill="#386FF9"/>
<path fill-rule="evenodd" clip-rule="evenodd" d="M19.1603 6.17047L18.4749 10.4115L16.038 7.45159L19.1603 6.17047ZM18.4897 12.2355L19.0997 14.5599L14.4352 15.8856L18.4897 12.2355ZM8.33568 11.0673L10.8365 7.69554H15.1795L17.9554 11.0673H8.33568ZM17.6339 11.9004L13.112 15.9711L8.50624 11.9004H17.6339ZM9.99909 7.45403L7.76442 10.4668L7.07816 6.18682L9.99909 7.45403ZM11.7727 15.8843L7.06374 14.561L7.70898 12.2928L11.7727 15.8843ZM12.6421 16.9921L11.7532 18.0014C10.9999 17.2631 10.1717 16.6075 9.28753 16.0493L12.6421 16.9921ZM16.9538 16.0339C16.0697 16.6011 15.2435 17.2653 14.4949 18.0107L13.5871 16.9907L16.9538 16.0339ZM20.1922 4.85045L15.2889 6.86244H10.7187L6.04297 4.83398L7.10511 11.4579L6.08517 15.0434L8.74618 16.685C10.0061 17.4624 11.1346 18.435 12.1004 19.5758L13.1366 20.7995L14.224 19.5126C15.1571 18.4082 16.2437 17.4602 17.4536 16.6948L20.0632 15.0434L19.1234 11.4628L20.1922 4.85045Z" fill="#FFFFFE"/>
</svg>
