<svg width="24" height="24" viewBox="0 0 24 24" fill="none" xmlns="http://www.w3.org/2000/svg">
<rect width="24" height="24" rx="1" fill="black"/>
<path d="M19.1594 7.42475C19.4945 8.28126 19.8798 9.06711 20.1111 9.8957C20.6538 11.8425 20.492 13.7552 19.6133 15.5921C19.5526 15.7194 19.4857 15.845 19.4163 15.968C19.0697 16.5759 19.0644 16.5794 19.5649 17.06C20.2457 17.7141 20.9291 18.3666 21.6222 19.0085C21.792 19.1664 21.8263 19.2797 21.6521 19.4507C21.1666 19.9261 20.6916 20.4119 20.2105 20.8916C19.9449 21.1567 19.6775 21.4184 19.3943 21.6975C19.2676 21.5902 19.1401 21.4943 19.0257 21.3844C18.2763 20.6692 17.5252 19.9557 16.7846 19.2318C16.6351 19.0852 16.5436 19.0852 16.3475 19.1794C15.7634 19.4577 15.1627 19.7089 14.5531 19.9278C12.9013 20.5226 11.224 20.4755 9.56953 19.9723C8.88786 19.7656 8.24578 19.4123 7.61425 19.073C7.37853 18.9466 7.31432 18.9884 7.15688 19.1594C6.3556 20.0307 5.5332 20.8829 4.7372 21.7219C3.8893 20.8802 3.09417 20.09 2.27441 19.2763C2.5075 19.0312 2.76785 18.7512 3.03348 18.4764C3.60432 17.8851 4.18307 17.2998 4.74423 16.6998C4.80844 16.6309 4.82779 16.4625 4.79173 16.3683C4.4786 15.5572 4.12854 14.76 3.83388 13.9427C3.72306 13.6357 3.69227 13.2877 3.687 12.958C3.67116 11.9506 3.61751 10.9415 3.91216 9.95065C4.17867 9.05316 4.54897 8.20799 5.06967 7.37416C4.19626 6.53859 3.31318 5.69255 2.39931 4.81773C3.21731 3.96646 4.01419 3.13699 4.85858 2.25781C5.12508 2.53779 5.36696 2.80817 5.62556 3.06111C6.20519 3.62979 6.79274 4.19062 7.37941 4.75232C7.57467 4.93897 7.84734 4.91106 8.06811 4.75319C8.27657 4.60404 8.51933 4.50112 8.75241 4.38774C8.83333 4.34849 8.93272 4.35023 9.01716 4.31621C10.8264 3.58967 12.6621 3.52861 14.5074 4.14875C15.0914 4.345 15.6579 4.60491 16.2085 4.88053C16.4961 5.02444 16.6659 4.97124 16.869 4.75929C17.5146 4.08421 18.1673 3.41697 18.8296 2.75846C19.287 2.30317 19.2958 2.31276 19.7654 2.76107C20.331 3.30097 20.9027 3.83476 21.4621 4.38163C21.7559 4.66859 21.7365 4.66858 21.4648 4.95816C20.7849 5.68296 20.1146 6.41735 19.4391 7.14652C19.3362 7.25729 19.2245 7.36108 19.1603 7.42475H19.1594ZM17.0581 11.8032C17.0318 11.5119 17.059 11.2031 16.9693 10.9328C16.6966 10.1111 16.3888 9.32441 15.7291 8.67898C14.8302 7.7998 13.8143 7.21455 12.5644 7.06802C11.3251 6.92236 10.1624 7.21717 9.14294 7.90621C8.67237 8.22369 8.25809 8.67026 7.92738 9.13427C6.8376 10.6589 6.65113 12.3353 7.37325 14.05C7.96696 15.4586 9.11215 16.3256 10.545 16.8385C11.399 17.1437 12.2821 17.1411 13.1362 16.9414C13.9964 16.7408 14.7678 16.3465 15.4292 15.6985C16.5383 14.6108 17.1171 13.3505 17.0581 11.8041V11.8032Z" fill="white"/>
</svg>
