<svg width="25" height="25" viewBox="0 0 25 25" fill="none" xmlns="http://www.w3.org/2000/svg">
<path d="M12 24C18.6276 24 24 18.6276 24 12C24 5.3724 18.6276 0 12 0C5.3724 0 0 5.3724 0 12C0 18.6276 5.3724 24 12 24Z" fill="white"/>
<path d="M19 4L18.9141 4.23476L18.6325 4.9853L18.4455 5.46909C17.0248 9.09678 15.92 10.8183 14.7451 10.8183C14.4482 10.8264 14.1529 10.7706 13.8781 10.6546C13.6032 10.5385 13.3549 10.3646 13.1487 10.1441L12.9989 10.0038C12.6257 9.64849 12.4687 9.56088 12.1094 9.56088C11.9223 9.56088 11.5873 9.80696 11.164 10.3853C10.5969 11.214 10.1147 12.1012 9.72516 13.0326L9.67743 13.1418H14.7169L14.0894 14.4879H9.38395V20H8V4H19ZM17.039 5.34359H9.38395V10.6751C10.3012 9.03378 11.1731 8.20991 12.1108 8.20991C12.4262 8.19952 12.7402 8.25679 13.033 8.37812C13.3257 8.49943 13.5909 8.68215 13.8116 8.91468L13.9662 9.05938C14.3146 9.39109 14.4487 9.46738 14.7465 9.46738C15.0739 9.46786 15.9448 8.04061 17.039 5.34359Z" fill="#050505"/>
</svg>
