<svg width="24" height="24" viewBox="0 0 24 24" fill="none" xmlns="http://www.w3.org/2000/svg">
<g clip-path="url(#clip0_720_16445)">
<path d="M12 24C18.6274 24 24 18.6274 24 12C24 5.37257 18.6274 0 12 0C5.37257 0 0 5.37257 0 12C0 18.6274 5.37257 24 12 24Z" fill="#1969FF"/>
<path fill-rule="evenodd" clip-rule="evenodd" d="M13.2 8.91171L16.8 6.81172V11.0117L13.2 8.91171ZM16.8 17.9117L12 20.7117L7.2 17.9117V13.0117L12 15.8117L16.8 13.0117V17.9117ZM7.2 6.81172L10.8 8.91171L7.2 11.0117V6.81172ZM12.6 9.91173L16.2 12.0117L12.6 14.1117V9.91173ZM11.4 14.1117L7.80002 12.0117L11.4 9.91173V14.1117ZM16.2 5.81174L12 8.21169L7.80002 5.81174L12 3.31171L16.2 5.81174ZM6 5.41169V18.5117L12 21.9117L18 18.5117V5.41169L12 2.01172L6 5.41169Z" fill="white"/>
</g>
<defs>
<clipPath id="clip0_720_16445">
<rect width="24" height="24" fill="white"/>
</clipPath>
</defs>
</svg>
