<svg width="24" height="24" viewBox="0 0 24 24" fill="none" xmlns="http://www.w3.org/2000/svg">
<g clip-path="url(#clip0_2068_2854)">
<path d="M1.34709e-05 11.9958C0.00984973 5.36045 5.37215 0 11.9999 0C18.6305 0 24.0099 5.3812 23.9996 12.0038C23.9893 18.6402 18.626 24.0017 11.9995 24C5.3683 23.9985 -0.00982278 18.6182 1.34709e-05 11.9958ZM11.9308 11.059C12.4503 11.0556 12.9519 10.9602 13.4339 10.763C14.6854 10.2509 15.9369 9.73943 17.1887 9.22825C17.6621 9.03506 18.1376 8.8474 18.6093 8.65022C19.0453 8.46794 19.2875 8.02346 19.2039 7.56024C19.1337 7.17109 18.8935 6.92488 18.5315 6.77887C16.7227 6.04976 14.9152 5.31726 13.1073 4.58569C12.3485 4.27862 11.5905 4.276 10.8406 4.60782C8.99373 5.425 7.14913 6.2471 5.30483 7.07012C5.21062 7.11207 5.11763 7.1694 5.04248 7.23918C4.57264 7.67489 4.73387 8.41445 5.34433 8.66497C6.95947 9.32769 8.57538 9.98872 10.1862 10.6619C10.7475 10.8964 11.3183 11.0619 11.9308 11.0589V11.059ZM12.0828 15.4503C12.248 15.4475 12.5572 15.4129 12.8625 15.3409C13.223 15.2557 13.5588 15.1036 13.8997 14.9654C15.4588 14.3336 17.0177 13.7017 18.5762 13.0687C18.986 12.9022 19.2328 12.5445 19.2316 12.1276C19.2304 11.7145 18.9834 11.3615 18.5753 11.1953C18.0449 10.9794 17.5141 10.7649 16.9822 10.5528C16.9471 10.5388 16.8965 10.5392 16.8614 10.5534C15.8833 10.9442 14.9044 11.3331 13.9295 11.732C12.6487 12.2561 11.3618 12.2879 10.072 11.7818C9.14158 11.4167 8.21836 11.0331 7.29283 10.6557C7.23104 10.6305 7.1814 10.6308 7.11977 10.6585C6.51822 10.929 5.91514 11.1966 5.31221 11.4642C4.97086 11.6155 4.76629 11.9183 4.77183 12.2677C4.77736 12.6235 4.9893 12.9176 5.33818 13.0607C6.98898 13.7382 8.64086 14.4132 10.2894 15.0965C10.8184 15.3158 11.3609 15.4517 12.0829 15.4505L12.0828 15.4503ZM11.8701 19.6384C12.5439 19.6396 13.1237 19.528 13.6756 19.2898C15.3141 18.5828 16.951 17.8714 18.5878 17.1603C18.6671 17.1258 18.7458 17.0854 18.8157 17.0352C19.4334 16.5899 19.3398 15.6315 18.6429 15.3244C18.208 15.1328 17.7637 14.9623 17.3223 14.7854C17.2941 14.7742 17.252 14.7817 17.2218 14.7939C16.1089 15.2399 14.9955 15.685 13.8843 16.1356C12.6006 16.6562 11.3142 16.6701 10.0272 16.1571C9.04645 15.7661 8.06866 15.3676 7.09303 14.9637C6.93089 14.8965 6.78887 14.866 6.63733 14.9712C6.60229 14.9957 6.55864 15.0075 6.51884 15.0252C6.10541 15.2093 5.6909 15.3908 5.27901 15.5783C4.91384 15.7445 4.71973 16.0981 4.78259 16.4914C4.83407 16.8135 5.02696 17.0269 5.32358 17.156C6.88247 17.8348 8.44259 18.5106 9.9978 19.1978C10.6198 19.4726 11.2604 19.6407 11.8701 19.6382V19.6384Z" fill="#0A2336"/>
<path d="M11.9304 11.0592C11.3179 11.0622 10.7471 10.8967 10.1859 10.6622C8.57502 9.98902 6.9591 9.32799 5.34396 8.66528C4.7335 8.41476 4.57227 7.6752 5.04211 7.23948C5.11742 7.16971 5.2104 7.11238 5.30446 7.07042C7.14876 6.2474 8.99352 5.42531 10.8403 4.60813C11.5901 4.27631 12.3481 4.27892 13.1069 4.586C14.9148 5.31757 16.7224 6.05006 18.5311 6.77918C18.8932 6.92518 19.1333 7.1714 19.2036 7.56054C19.2873 8.02392 19.0449 8.4684 18.6089 8.65052C18.1372 8.84771 17.6616 9.03521 17.1883 9.22856C15.9365 9.73973 14.6849 10.2512 13.4335 10.7633C12.9515 10.9605 12.4499 11.0559 11.9304 11.0593V11.0592Z" fill="url(#paint0_linear_2068_2854)"/>
<path d="M12.0827 15.4509C11.3607 15.452 10.8181 15.3163 10.2891 15.0969C8.64078 14.4135 6.9889 13.7385 5.33795 13.0612C4.98907 12.9181 4.77713 12.6239 4.77159 12.2681C4.76606 11.9189 4.97062 11.6161 5.31197 11.4646C5.9149 11.197 6.51784 10.9294 7.11954 10.659C7.18117 10.6313 7.23096 10.631 7.2926 10.6562C8.21813 11.0337 9.14135 11.4173 10.0718 11.7823C11.3616 12.2884 12.6484 12.2567 13.9293 11.7325C14.9042 11.3335 15.883 10.9447 16.8611 10.5538C16.8963 10.5397 16.9469 10.5392 16.9819 10.5532C17.5138 10.7653 18.0449 10.9799 18.5751 11.1958C18.9831 11.3619 19.2303 11.715 19.2313 12.1281C19.2326 12.5449 18.9858 12.9027 18.576 13.0691C17.0176 13.7022 15.4585 14.334 13.8995 14.9658C13.5584 15.104 13.2226 15.2563 12.8622 15.3413C12.557 15.4134 12.2476 15.448 12.0825 15.4507L12.0827 15.4509Z" fill="url(#paint1_linear_2068_2854)"/>
<path d="M11.8697 19.6376C11.26 19.6401 10.6194 19.4719 9.99742 19.1971C8.44221 18.5101 6.88194 17.8342 5.3232 17.1553C5.02657 17.0261 4.83354 16.8128 4.7822 16.4908C4.71934 16.0973 4.91346 15.7438 5.27863 15.5777C5.69052 15.3902 6.10503 15.2087 6.51846 15.0246C6.55811 15.0069 6.60191 14.9949 6.63695 14.9706C6.78849 14.8652 6.9305 14.8959 7.09265 14.9631C8.06813 15.3668 9.04591 15.7655 10.0268 16.1565C11.3138 16.6695 12.6002 16.6555 13.884 16.135C14.9952 15.6845 16.1085 15.2394 17.2214 14.7932C17.2517 14.7811 17.2938 14.7736 17.3219 14.7848C17.7633 14.9617 18.2076 15.1321 18.6426 15.3238C19.3394 15.6309 19.4332 16.5891 18.8153 17.0345C18.7455 17.0849 18.6667 17.1252 18.5874 17.1596C16.9506 17.8708 15.3139 18.5822 13.6753 19.2892C13.1233 19.5273 12.5435 19.639 11.8697 19.6378V19.6376Z" fill="url(#paint2_linear_2068_2854)"/>
</g>
<defs>
<linearGradient id="paint0_linear_2068_2854" x1="11.9948" y1="4.35742" x2="11.9948" y2="11.0593" gradientUnits="userSpaceOnUse">
<stop stop-color="#B8FDBB"/>
<stop offset="1" stop-color="#F8FD8B"/>
</linearGradient>
<linearGradient id="paint1_linear_2068_2854" x1="12.0014" y1="10.543" x2="12.0014" y2="15.4509" gradientUnits="userSpaceOnUse">
<stop stop-color="#B8FDBB"/>
<stop offset="1" stop-color="#F8FD8B"/>
</linearGradient>
<linearGradient id="paint2_linear_2068_2854" x1="11.9987" y1="14.7793" x2="11.9987" y2="19.6378" gradientUnits="userSpaceOnUse">
<stop stop-color="#B8FDBB"/>
<stop offset="1" stop-color="#F8FD8B"/>
</linearGradient>
<clipPath id="clip0_2068_2854">
<rect width="23.9995" height="24" fill="white"/>
</clipPath>
</defs>
</svg>
