<svg width="25" height="24" viewBox="0 0 25 24" fill="none" xmlns="http://www.w3.org/2000/svg">
<g clip-path="url(#clip0_2370_3207)">
<path d="M20.4425 12.53C20.4425 12.6156 20.4411 12.701 20.4381 12.7861C20.3925 14.1235 19.9911 15.3706 19.3257 16.4358C18.2588 18.1432 16.5133 19.3831 14.4667 19.7777C14.0117 19.8655 13.5417 19.9114 13.0611 19.9114C12.5804 19.9114 12.1266 19.867 11.6788 19.7822C9.83411 19.4327 8.23219 18.3968 7.14898 16.9502C6.27792 15.7872 5.74221 14.3586 5.68479 12.8078C5.68139 12.7156 5.67969 12.623 5.67969 12.53C5.67969 10.8649 6.23097 9.32862 7.16102 8.0937C7.70144 7.37593 8.36991 6.76003 9.13229 6.2799C10.27 5.56304 11.6172 5.14844 13.0611 5.14844C14.505 5.14844 15.8404 5.55938 16.975 6.27049C17.7286 6.74264 18.3909 7.34715 18.9291 8.05146C19.8785 9.29357 20.4425 10.8459 20.4425 12.53Z" fill="url(#paint0_radial_2370_3207)"/>
<path d="M13.103 20.3301L13.6137 21.365L14.7558 21.531L13.9295 22.3365L14.1245 23.4739L13.103 22.9369L12.0815 23.4739L12.2767 22.3365L11.4502 21.531L12.5923 21.365L13.103 20.3301Z" fill="url(#paint1_linear_2370_3207)"/>
<path d="M13.103 1L13.6137 2.03481L14.7558 2.20078L13.9295 3.00632L14.1245 4.1438L13.103 3.60678L12.0815 4.1438L12.2767 3.00632L11.4502 2.20078L12.5923 2.03481L13.103 1Z" fill="url(#paint2_linear_2370_3207)"/>
<path d="M16.1868 19.7617L16.9147 20.3447L17.8074 20.0755L17.4781 20.9479L18.0099 21.7138L17.0784 21.6701L16.5145 22.4126L16.2682 21.5131L15.3877 21.2062L16.1669 20.694L16.1868 19.7617Z" fill="url(#paint3_linear_2370_3207)"/>
<path d="M18.5313 18.1864L19.3588 18.4252L20.0246 17.8789L20.0532 18.7398L20.7785 19.2041L19.9687 19.4973L19.7512 20.3307L19.2221 19.6511L18.3623 19.7017L18.8451 18.9885L18.5313 18.1864Z" fill="url(#paint4_linear_2370_3207)"/>
<path d="M9.94223 19.7617L9.21438 20.3447L8.3216 20.0755L8.65106 20.9479L8.11914 21.7138L9.05063 21.6701L9.61473 22.4126L9.86101 21.5131L10.7415 21.2062L9.96211 20.694L9.94223 19.7617Z" fill="url(#paint5_linear_2370_3207)"/>
<path d="M7.59782 18.1864L6.77031 18.4252L6.10459 17.8789L6.07595 18.7398L5.35059 19.2041L6.16044 19.4973L6.37794 20.3307L6.90712 19.6511L7.7668 19.7017L7.28406 18.9885L7.59782 18.1864Z" fill="url(#paint6_linear_2370_3207)"/>
<path d="M2.68262 12.2408L2.84754 11.9152L4.25079 11.8438L4.23117 13.0354L3.24881 12.8507L2.68262 12.2408Z" fill="url(#paint7_linear_2370_3207)"/>
<path d="M2.82214 14.728C2.82214 14.728 2.51191 14.3292 1.89889 14.2626C1.28588 14.1961 0.976562 14.4953 0.976562 14.4953C0.976562 14.4953 1.153 13.8343 1.38201 13.5832C1.61103 13.3321 1.67747 12.9554 1.52967 12.6895C1.38201 12.4236 1.35245 11.6924 1.441 11.4412C1.52967 11.1901 1.66962 11.0996 1.66962 11.0996C1.66962 11.0996 1.90046 11.4338 2.18846 11.4781C2.47646 11.5225 3.13512 11.4904 3.43045 11.5052C3.72577 11.52 4.25024 11.6314 4.25024 11.8234C4.25024 12.0154 3.71596 11.9636 3.5237 11.9656C3.33144 11.9675 2.73975 12.1004 2.73975 12.2478C2.73975 12.4105 2.82201 14.7279 2.82201 14.7279L2.82214 14.728Z" fill="url(#paint8_linear_2370_3207)"/>
<path d="M23.2713 12.2408L23.1064 11.9152L21.7031 11.8438L21.7227 13.0354L22.7051 12.8507L23.2713 12.2408Z" fill="url(#paint9_linear_2370_3207)"/>
<path d="M23.1312 14.728C23.1312 14.728 23.4415 14.3292 24.0545 14.2626C24.6675 14.1961 24.9768 14.4953 24.9768 14.4953C24.9768 14.4953 24.8004 13.8343 24.5714 13.5832C24.3423 13.3321 24.2759 12.9554 24.4237 12.6895C24.5715 12.4236 24.6009 11.6924 24.5124 11.4412C24.4238 11.1901 24.2837 11.0996 24.2837 11.0996C24.2837 11.0996 24.0529 11.4338 23.7649 11.4781C23.4769 11.5225 22.8182 11.4904 22.5229 11.5052C22.2276 11.52 21.7031 11.6314 21.7031 11.8234C21.7031 12.0154 22.2374 11.9636 22.4297 11.9656C22.6244 11.9677 23.2136 12.1004 23.2136 12.2478C23.2136 12.4105 23.1314 14.7279 23.1314 14.7279L23.1312 14.728Z" fill="url(#paint10_linear_2370_3207)"/>
<path d="M9.72799 2.74055C9.25126 2.90587 8.92755 3.27234 8.80866 3.42498C8.80866 3.42498 8.24679 3.75862 7.5778 4.21573C7.69342 3.99744 7.86214 3.61776 7.87325 3.24396C7.89013 2.67189 7.53778 2.11328 7.53778 2.11328C7.53778 2.11328 7.08629 2.65188 7.01566 3.26031C6.94504 3.86875 7.25932 4.39858 7.25932 4.39858L7.28169 4.4216C6.89037 4.69835 6.48596 5.00505 6.15088 5.30338C5.88472 5.54038 5.62484 5.79424 5.37935 6.06144C5.48934 5.81922 5.57932 5.41403 5.53041 4.88983C5.47875 4.33593 4.91739 3.82624 4.91739 3.82624C4.91739 3.82624 4.39306 4.2177 4.42248 5.15572C4.45204 6.09375 4.94682 6.49253 4.94682 6.49253L4.98423 6.51973C4.47559 7.15067 4.06438 7.83914 3.84635 8.5458C3.80986 8.66378 3.77782 8.7773 3.74931 8.88717C3.74068 8.67973 3.68692 8.19751 3.38846 7.81456C2.997 7.31232 2.29531 7.2532 2.29531 7.2532C2.29531 7.2532 2.11809 7.85889 2.52433 8.47191C2.89342 9.02894 3.5369 9.28098 3.65135 9.32244C3.50381 10.1006 3.54488 10.6939 3.57313 11.3475H3.94732C3.94732 11.3475 3.83511 10.2186 3.95491 9.33774C4.15934 9.4034 4.63057 9.52202 5.17584 9.43936C5.90708 9.32858 6.17285 8.77469 6.17285 8.77469C6.17285 8.77469 5.91441 8.47191 5.06493 8.51625C4.44904 8.54842 4.13998 8.84061 4.01664 8.99886C4.03626 8.91646 4.05902 8.83864 4.08505 8.76736C4.32531 8.11132 4.66628 7.27073 5.20932 6.56119L5.23469 6.55165C5.23469 6.55165 5.36025 7.03178 6.32038 7.12032C7.28051 7.209 7.62031 6.78053 7.62031 6.78053C7.62031 6.78053 7.28051 6.35219 6.43862 6.14541C5.96843 6.02992 5.61124 6.18386 5.38732 6.34238C5.4964 6.2163 5.61254 6.09558 5.73693 5.98297C6.26414 5.50532 6.78848 5.05802 7.23984 4.70973C7.38985 4.87622 7.73135 5.2168 8.12999 5.36263C8.66754 5.55921 9.30868 5.40109 9.30868 5.40109C9.30868 5.40109 8.93998 4.80272 8.38504 4.54362C8.12332 4.42147 7.86201 4.39465 7.65889 4.40041C7.78157 4.31487 7.89496 4.24098 7.99698 4.18094C8.32343 3.98868 8.66061 3.81002 8.87589 3.69885C9.00786 3.71324 9.64454 3.76778 10.1364 3.54818C10.6879 3.30203 11.0572 2.71112 11.0572 2.71112C11.0572 2.71112 10.3384 2.52893 9.72773 2.74068L9.72799 2.74055Z" fill="url(#paint11_linear_2370_3207)"/>
<path d="M16.3633 2.74055C16.84 2.90587 17.1637 3.27234 17.2826 3.42498C17.2826 3.42498 17.8445 3.75862 18.5135 4.21573C18.3978 3.99744 18.2291 3.61776 18.218 3.24396C18.2011 2.67189 18.5535 2.11328 18.5535 2.11328C18.5535 2.11328 19.005 2.65188 19.0756 3.26031C19.1462 3.86875 18.8319 4.39858 18.8319 4.39858L18.8096 4.4216C19.2009 4.69835 19.6053 5.00505 19.9404 5.30338C20.2065 5.54038 20.4664 5.79424 20.7119 6.06144C20.6019 5.81922 20.5119 5.41403 20.5608 4.88983C20.6125 4.33593 21.1739 3.82624 21.1739 3.82624C21.1739 3.82624 21.6982 4.2177 21.6688 5.15572C21.6392 6.09375 21.1444 6.49253 21.1444 6.49253L21.107 6.51973C21.6157 7.15067 22.0269 7.83914 22.2449 8.5458C22.2814 8.66378 22.3134 8.7773 22.342 8.88717C22.3506 8.67973 22.4043 8.19751 22.7028 7.81456C23.0943 7.31232 23.7959 7.2532 23.7959 7.2532C23.7959 7.2532 23.9732 7.85889 23.5669 8.47191C23.1978 9.02894 22.5544 9.28098 22.4399 9.32244C22.5874 10.1006 22.5464 10.6939 22.5181 11.3475H22.1439C22.1439 11.3475 22.2562 10.2186 22.1363 9.33774C21.9319 9.4034 21.4607 9.52202 20.9154 9.43936C20.1842 9.32858 19.9184 8.77469 19.9184 8.77469C19.9184 8.77469 20.1768 8.47191 21.0263 8.51625C21.6422 8.54842 21.9513 8.84061 22.0746 8.99886C22.055 8.91646 22.0322 8.83864 22.0062 8.76736C21.766 8.11132 21.425 7.27073 20.8819 6.56119L20.8566 6.55165C20.8566 6.55165 20.731 7.03178 19.7709 7.12032C18.8107 7.209 18.471 6.78053 18.471 6.78053C18.471 6.78053 18.8107 6.35219 19.6526 6.14541C20.1228 6.02992 20.48 6.18386 20.7039 6.34238C20.5949 6.2163 20.4787 6.09558 20.3543 5.98297C19.8271 5.50532 19.3028 5.05802 18.8514 4.70973C18.7014 4.87622 18.3599 5.2168 17.9613 5.36263C17.4237 5.55921 16.7826 5.40109 16.7826 5.40109C16.7826 5.40109 17.1513 4.80272 17.7062 4.54362C17.9679 4.42147 18.2293 4.39465 18.4324 4.40041C18.3097 4.31487 18.1963 4.24098 18.0943 4.18094C17.7678 3.98868 17.4306 3.81002 17.2154 3.69885C17.0834 3.71324 16.4467 3.76778 15.9549 3.54818C15.4035 3.30203 15.0342 2.71112 15.0342 2.71112C15.0342 2.71112 15.753 2.52893 16.3637 2.74068L16.3633 2.74055Z" fill="url(#paint12_linear_2370_3207)"/>
<path d="M16.9745 6.27049L14.755 6.72982H11.2246L9.13184 6.2799C10.2696 5.56304 11.6167 5.14844 13.0606 5.14844C14.5046 5.14844 15.8399 5.55938 16.9745 6.27049Z" fill="url(#paint13_linear_2370_3207)"/>
<path d="M13.0605 5.18767C14.4095 5.18767 15.7243 5.55546 16.8699 6.25204L14.751 6.69058H11.2288L9.23516 6.26198C10.3847 5.55886 11.7051 5.18767 13.0606 5.18767M13.0606 5.14844C11.6167 5.14844 10.2696 5.56304 9.13184 6.2799L11.2246 6.72982H14.755L16.9745 6.27049C15.8399 5.55938 14.4983 5.14844 13.0606 5.14844Z" fill="#FCF856"/>
<path d="M11.3878 6.93555H14.6965L15.5533 9.21038L14.5193 10.4364H11.6979L10.5605 9.13648L11.3878 6.93555Z" fill="url(#paint14_linear_2370_3207)"/>
<path d="M14.6697 6.97478L15.5087 9.20266L14.5013 10.3972H11.7159L10.6057 9.12838L11.415 6.97478H14.6695M14.6967 6.93555H11.3878L10.5605 9.13648L11.6979 10.4364H14.5193L15.5533 9.21038L14.6965 6.93555H14.6967Z" fill="#FCF856"/>
<path d="M15.6419 9.32812L18.2268 9.9189L18.8325 12.12L17.0755 13.724L15.5532 13.3017L14.667 10.5246L15.6419 9.32812Z" fill="url(#paint15_linear_2370_3207)"/>
<path d="M15.6569 9.37194L18.1953 9.95212L18.7883 12.1073L17.0652 13.6804L15.5842 13.2696L14.7108 10.533L15.6569 9.37181M15.6419 9.32812L14.667 10.5246L15.5532 13.3017L17.0755 13.724L18.8324 12.12L18.2267 9.91903L15.6416 9.32812H15.6419Z" fill="#FCF856"/>
<path d="M10.4864 9.32812L11.4909 10.5098L10.6194 13.3017L8.95013 13.7245L7.31055 12.1642L7.96044 9.88935L10.4864 9.32812Z" fill="url(#paint16_linear_2370_3207)"/>
<path d="M10.4719 9.37155L11.447 10.5188L10.5885 13.2691L8.96164 13.6813L7.35488 12.1523L7.99183 9.9227L10.4719 9.37155ZM10.4864 9.32812L7.96044 9.88948L7.31055 12.1643L8.95013 13.7246L10.6193 13.3017L11.4909 10.5098L10.4864 9.32812Z" fill="#FCF856"/>
<path d="M7.7242 9.99282L7.16285 12.0461L5.68479 12.8078C5.68139 12.7156 5.67969 12.623 5.67969 12.53C5.67969 10.8649 6.23097 9.32867 7.16102 8.09375L7.7242 9.99282Z" fill="url(#paint17_linear_2370_3207)"/>
<path d="M7.14585 8.18007L7.68352 9.99335L7.12963 12.0192L5.72206 12.7445C5.71997 12.6732 5.71906 12.6014 5.71906 12.53C5.71906 11.7195 5.85024 10.9233 6.10881 10.1632C6.35051 9.45292 6.6992 8.78615 7.14572 8.18007M7.16102 8.09375C6.23097 9.32867 5.67969 10.8649 5.67969 12.53C5.67969 12.623 5.68139 12.7156 5.68479 12.8078L7.16285 12.0461L7.7242 9.99282L7.16102 8.09375Z" fill="#FCF856"/>
<path d="M20.4421 12.5293C20.4421 12.615 20.4406 12.7004 20.4376 12.7854L19.0536 12.1341L18.3594 9.78532L18.9287 8.05078C19.8781 9.2929 20.4421 10.8452 20.4421 12.5293Z" fill="url(#paint18_linear_2370_3207)"/>
<path d="M18.9426 8.13423C19.3997 8.74488 19.7567 9.41832 20.0043 10.1371C20.2688 10.9049 20.4028 11.7098 20.4028 12.5293C20.4028 12.595 20.4019 12.6604 20.4002 12.7244L19.0862 12.1061L18.4004 9.78598L18.9426 8.13423ZM18.9287 8.05078L18.3594 9.78532L19.0536 12.1341L20.4376 12.7854C20.4406 12.7004 20.4421 12.615 20.4421 12.5293C20.4421 10.8452 19.8781 9.2929 18.9287 8.05078Z" fill="#DEBE2A"/>
<path d="M15.5014 13.4609L16.7495 13.8597L14.7812 14.2143L14.8256 13.9373L15.5014 13.4609Z" fill="url(#paint19_linear_2370_3207)"/>
<path d="M15.5081 13.5041L16.5873 13.849L14.8287 14.1658L14.8617 13.9598L15.5081 13.5042M15.5014 13.4609L14.8256 13.9373L14.7812 14.2143L16.7495 13.8597L15.5013 13.4609H15.5014Z" fill="#FCF856"/>
<path d="M10.6708 13.4492L11.4905 14.0253L9.40039 13.8702L10.6708 13.4492Z" fill="url(#paint20_linear_2370_3207)"/>
<path d="M10.6643 13.4926L11.3516 13.9756L9.59932 13.8456L10.6643 13.4926ZM10.6708 13.4492L9.40039 13.8702L11.4905 14.0253L10.6708 13.4492Z" fill="#FCF856"/>
<path d="M11.6792 19.7832C9.83454 19.4337 8.23262 18.3978 7.14941 16.9512H9.17222L10.6495 18.2068L11.6792 19.7832Z" fill="url(#paint21_linear_2370_3207)"/>
<path d="M9.15783 16.9905L10.6198 18.233L11.5955 19.7268C10.7255 19.5506 9.90307 19.2208 9.14972 18.7455C8.40762 18.2774 7.76151 17.6873 7.22841 16.9904H9.15783M9.17222 16.9512H7.14941C8.23262 18.3978 9.83454 19.4337 11.6792 19.7832L10.6495 18.2068L9.17222 16.9512Z" fill="url(#paint22_linear_2370_3207)"/>
<path d="M9.56348 17.0449L10.7269 18.0364L12.5475 17.0449H9.56348Z" fill="#C58518"/>
<path d="M12.3931 17.0842L10.7316 17.9891L9.66994 17.0842H12.3933M12.5473 17.0449H9.56348L10.7267 18.0364L12.5473 17.0449Z" fill="url(#paint23_linear_2370_3207)"/>
<path d="M13.751 17.101L15.446 18.0427L16.7792 16.9004L13.751 17.101Z" fill="#C58518"/>
<path d="M16.6641 16.9472L15.4412 17.9951L13.8863 17.1314L16.6641 16.9473M16.7792 16.9004L13.751 17.101L15.446 18.0427L16.7792 16.9004Z" fill="url(#paint24_linear_2370_3207)"/>
<path d="M19.3258 16.4355C18.2589 18.143 16.5134 19.3829 14.4668 19.7775L15.4277 18.3163L17.4588 16.5955L19.3258 16.4355Z" fill="url(#paint25_linear_2370_3207)"/>
<path d="M19.2503 16.4813C18.9959 16.8789 18.702 17.2534 18.3759 17.5954C18.032 17.9561 17.6502 18.2828 17.2412 18.5665C16.8285 18.8529 16.3852 19.0973 15.9241 19.2928C15.4825 19.48 15.0211 19.6237 14.5512 19.7206L15.4574 18.3425L17.4746 16.6334L19.2503 16.4813ZM19.3258 16.4355L17.4588 16.5955L15.4277 18.3163L14.4668 19.7775C16.5134 19.3829 18.2589 18.143 19.3258 16.4355Z" fill="url(#paint26_linear_2370_3207)"/>
<path d="M2.74023 12.2617V15.4867C2.74023 15.4867 4.50773 17.2686 13.1196 17.1361C21.7315 17.0036 23.2882 15.4573 23.2882 15.4573L23.2123 12.2617C23.2123 12.2617 20.3973 13.9111 13.0142 13.9111C5.63109 13.9111 2.74023 12.2617 2.74023 12.2617Z" fill="url(#paint27_radial_2370_3207)"/>
</g>
<defs>
<radialGradient id="paint0_radial_2370_3207" cx="0" cy="0" r="1" gradientUnits="userSpaceOnUse" gradientTransform="translate(11.624 10.3473) scale(9.75172)">
<stop offset="0.13" stop-color="#F6DE38"/>
<stop offset="0.21" stop-color="#F0D635"/>
<stop offset="0.32" stop-color="#E1C12E"/>
<stop offset="0.45" stop-color="#C99F23"/>
<stop offset="0.6" stop-color="#A86F14"/>
<stop offset="0.7" stop-color="#914E0A"/>
<stop offset="1" stop-color="#BD780E"/>
</radialGradient>
<linearGradient id="paint1_linear_2370_3207" x1="13.128" y1="23.2555" x2="13.0984" y2="21.217" gradientUnits="userSpaceOnUse">
<stop stop-color="#F0C027"/>
<stop offset="1" stop-color="#FCF069"/>
</linearGradient>
<linearGradient id="paint2_linear_2370_3207" x1="13.0776" y1="3.88105" x2="13.1218" y2="0.956316" gradientUnits="userSpaceOnUse">
<stop stop-color="#F0C027"/>
<stop offset="1" stop-color="#FCF069"/>
</linearGradient>
<linearGradient id="paint3_linear_2370_3207" x1="17.5392" y1="21.951" x2="16.1803" y2="20.0602" gradientUnits="userSpaceOnUse">
<stop stop-color="#F0C027"/>
<stop offset="1" stop-color="#FCF069"/>
</linearGradient>
<linearGradient id="paint4_linear_2370_3207" x1="20.2282" y1="19.6956" x2="19.0463" y2="18.6617" gradientUnits="userSpaceOnUse">
<stop stop-color="#F0C027"/>
<stop offset="1" stop-color="#FCF069"/>
</linearGradient>
<linearGradient id="paint5_linear_2370_3207" x1="8.77688" y1="21.9256" x2="9.87003" y2="20.0645" gradientUnits="userSpaceOnUse">
<stop stop-color="#F0C027"/>
<stop offset="1" stop-color="#FCF069"/>
</linearGradient>
<linearGradient id="paint6_linear_2370_3207" x1="5.91756" y1="19.5474" x2="7.06969" y2="18.6907" gradientUnits="userSpaceOnUse">
<stop stop-color="#F0C027"/>
<stop offset="1" stop-color="#FCF069"/>
</linearGradient>
<linearGradient id="paint7_linear_2370_3207" x1="2.68262" y1="12.4396" x2="4.25079" y2="12.4396" gradientUnits="userSpaceOnUse">
<stop offset="0.02" stop-color="#A65C0F"/>
<stop offset="0.57" stop-color="#E9C74A"/>
<stop offset="1" stop-color="#ECCC4D"/>
</linearGradient>
<linearGradient id="paint8_linear_2370_3207" x1="4.25037" y1="12.9138" x2="0.976562" y2="12.9138" gradientUnits="userSpaceOnUse">
<stop offset="0.02" stop-color="#A65C0F"/>
<stop offset="0.57" stop-color="#E9C74A"/>
<stop offset="1" stop-color="#ECCC4D"/>
</linearGradient>
<linearGradient id="paint9_linear_2370_3207" x1="23.2713" y1="12.4396" x2="21.7031" y2="12.4396" gradientUnits="userSpaceOnUse">
<stop offset="0.02" stop-color="#A65C0F"/>
<stop offset="0.57" stop-color="#E9C74A"/>
<stop offset="1" stop-color="#ECCC4D"/>
</linearGradient>
<linearGradient id="paint10_linear_2370_3207" x1="21.703" y1="12.9138" x2="24.9768" y2="12.9138" gradientUnits="userSpaceOnUse">
<stop offset="0.02" stop-color="#A65C0F"/>
<stop offset="0.57" stop-color="#E9C74A"/>
<stop offset="1" stop-color="#ECCC4D"/>
</linearGradient>
<linearGradient id="paint11_linear_2370_3207" x1="2.77348" y1="10.3412" x2="8.94809" y2="2.15762" gradientUnits="userSpaceOnUse">
<stop stop-color="#CA911C"/>
<stop offset="1" stop-color="#F9E467"/>
</linearGradient>
<linearGradient id="paint12_linear_2370_3207" x1="23.3176" y1="10.3412" x2="17.1432" y2="2.15762" gradientUnits="userSpaceOnUse">
<stop stop-color="#CA911C"/>
<stop offset="1" stop-color="#F9E467"/>
</linearGradient>
<linearGradient id="paint13_linear_2370_3207" x1="11.8358" y1="8.01431" x2="14.0072" y2="4.91223" gradientUnits="userSpaceOnUse">
<stop stop-color="#FCF856"/>
<stop offset="1" stop-color="#E4B123"/>
</linearGradient>
<linearGradient id="paint14_linear_2370_3207" x1="11.6911" y1="10.4313" x2="14.4621" y2="6.75872" gradientUnits="userSpaceOnUse">
<stop stop-color="#FCF856"/>
<stop offset="0.53" stop-color="#FADA2D"/>
</linearGradient>
<linearGradient id="paint15_linear_2370_3207" x1="14.7326" y1="11.473" x2="18.8096" y2="11.606" gradientUnits="userSpaceOnUse">
<stop stop-color="#FADB2E"/>
<stop offset="1" stop-color="#E4B123"/>
</linearGradient>
<linearGradient id="paint16_linear_2370_3207" x1="11.2378" y1="10.0084" x2="7.64825" y2="12.9332" gradientUnits="userSpaceOnUse">
<stop stop-color="#FCF856"/>
<stop offset="0.53" stop-color="#FADA2D"/>
</linearGradient>
<linearGradient id="paint17_linear_2370_3207" x1="7.70157" y1="10.5869" x2="5.61874" y2="10.3652" gradientUnits="userSpaceOnUse">
<stop stop-color="#FADB2E"/>
<stop offset="1" stop-color="#E4B123"/>
</linearGradient>
<linearGradient id="paint18_linear_2370_3207" x1="18.315" y1="10.4181" x2="20.5308" y2="10.4181" gradientUnits="userSpaceOnUse">
<stop stop-color="#D69C1D"/>
<stop offset="1" stop-color="#C17F18"/>
</linearGradient>
<linearGradient id="paint19_linear_2370_3207" x1="14.7812" y1="13.8376" x2="16.7495" y2="13.8376" gradientUnits="userSpaceOnUse">
<stop stop-color="#FCF856"/>
<stop offset="0.53" stop-color="#FADA2D"/>
</linearGradient>
<linearGradient id="paint20_linear_2370_3207" x1="9.40039" y1="13.7373" x2="11.4905" y2="13.7373" gradientUnits="userSpaceOnUse">
<stop stop-color="#FCF856"/>
<stop offset="0.53" stop-color="#FADA2D"/>
</linearGradient>
<linearGradient id="paint21_linear_2370_3207" x1="7.14941" y1="18.3671" x2="11.6792" y2="18.3671" gradientUnits="userSpaceOnUse">
<stop stop-color="#B46F14"/>
<stop offset="1" stop-color="#E4B023"/>
</linearGradient>
<linearGradient id="paint22_linear_2370_3207" x1="9.09727" y1="18.7875" x2="10.0073" y2="17.5813" gradientUnits="userSpaceOnUse">
<stop stop-color="#CA911C"/>
<stop offset="1" stop-color="#F9E467"/>
</linearGradient>
<linearGradient id="paint23_linear_2370_3207" x1="10.4594" y1="17.8348" x2="11.5966" y2="16.3277" gradientUnits="userSpaceOnUse">
<stop stop-color="#CA911C"/>
<stop offset="1" stop-color="#F9E467"/>
</linearGradient>
<linearGradient id="paint24_linear_2370_3207" x1="14.6676" y1="17.7925" x2="15.8626" y2="16.2086" gradientUnits="userSpaceOnUse">
<stop stop-color="#CA911C"/>
<stop offset="1" stop-color="#F9E467"/>
</linearGradient>
<linearGradient id="paint25_linear_2370_3207" x1="14.4668" y1="18.1065" x2="19.3258" y2="18.1065" gradientUnits="userSpaceOnUse">
<stop stop-color="#B46F14"/>
<stop offset="1" stop-color="#E4B023"/>
</linearGradient>
<linearGradient id="paint26_linear_2370_3207" x1="15.1778" y1="20.314" x2="18.5472" y2="15.8482" gradientUnits="userSpaceOnUse">
<stop stop-color="#CA911C"/>
<stop offset="1" stop-color="#F9E467"/>
</linearGradient>
<radialGradient id="paint27_radial_2370_3207" cx="0" cy="0" r="1" gradientUnits="userSpaceOnUse" gradientTransform="translate(12.9705 14.7442) scale(7.44262)">
<stop stop-color="#FBEF8D"/>
<stop offset="0.46" stop-color="#EECC4D"/>
<stop offset="1" stop-color="#C4861B"/>
</radialGradient>
<clipPath id="clip0_2370_3207">
<rect width="24" height="24" fill="white" transform="translate(0.976562)"/>
</clipPath>
</defs>
</svg>
