<svg width="24" height="24" viewBox="0 0 24 24" fill="none" xmlns="http://www.w3.org/2000/svg">
<circle cx="12" cy="12" r="12" fill="#141414"/>
<path fill-rule="evenodd" clip-rule="evenodd" d="M13.8889 8.59235C13.363 8.77748 12.9541 9.20486 12.8727 9.65459C12.8367 9.85307 12.8328 15.2956 12.8685 15.3894C12.9148 15.5112 12.9751 15.5173 14.0683 15.5089C15.0079 15.5018 15.0942 15.4973 15.1376 15.4539C15.1812 15.4103 15.1854 15.3199 15.1922 14.2694L15.1997 13.1322L15.2667 13.1067C15.308 13.091 16.3114 13.0812 17.8817 13.0812H20.4298L20.4992 12.9987L20.5687 12.9161L20.5611 12.0229C20.554 11.1884 20.5502 11.126 20.5033 11.0741L20.453 11.0187L17.8321 11.0119L15.2112 11.0052V10.9126V10.82L17.8163 10.8068C20.5177 10.7931 20.5093 10.7935 20.5504 10.6863C20.5737 10.6258 20.5699 8.71004 20.5465 8.67632C20.4609 8.55301 20.6258 8.55863 17.1823 8.56168C15.001 8.56353 13.9427 8.57344 13.8889 8.59235ZM4.25737 8.69054C3.8694 8.80512 3.50853 9.16949 3.37141 9.58517C3.30516 9.7859 3.29709 14.3547 3.36255 14.5705C3.40427 14.7079 3.52387 14.9438 3.58787 15.0148C3.87092 15.3292 4.05294 15.4511 4.29447 15.4884C4.67219 15.5465 10.8824 15.51 11.0057 15.4489C11.3521 15.2772 11.6755 14.938 11.724 14.6956C11.733 14.6507 11.7507 14.6076 11.7634 14.5998C11.7935 14.5812 11.7935 12.1102 11.7634 12.0916C11.7507 12.0838 11.7334 12.0429 11.725 12.0008C11.7166 11.9586 11.6734 11.8704 11.629 11.8047C11.5847 11.7389 11.5484 11.6732 11.5484 11.6587C11.5484 11.6442 11.5305 11.6255 11.5087 11.6171C11.4869 11.6087 11.469 11.5836 11.469 11.5614C11.469 11.5391 11.4512 11.5209 11.4294 11.5209C11.4075 11.5209 11.3897 11.511 11.3897 11.4989C11.3897 11.4868 11.3333 11.4362 11.2643 11.3865C10.8904 11.1167 10.9662 11.1242 8.60007 11.1242H6.5841L6.51408 11.189L6.44413 11.2539V12.0841C6.44413 12.8599 6.44737 12.9173 6.49332 12.9589C6.53815 12.9995 6.67422 13.0034 8.04198 13.0039C8.89912 13.0041 9.56915 13.0149 9.60604 13.0289C9.69246 13.0618 9.70423 13.3864 9.62171 13.4611C9.55103 13.5251 5.55869 13.5157 5.51763 13.4515C5.50203 13.4271 5.49475 12.8869 5.49872 12.0498L5.50527 10.6878L8.61019 10.6811C10.8513 10.6762 11.725 10.6661 11.7507 10.6448C11.7794 10.621 11.7864 10.4276 11.7864 9.65248V8.68974L11.7185 8.66396C11.5755 8.60961 4.44548 8.635 4.25737 8.69054ZM20.3224 9.67608L20.3294 10.5421L17.6649 10.5488L15.0004 10.5556L14.9703 10.6217C14.9503 10.6657 14.9458 10.7807 14.9568 10.9655L14.9732 11.2432L17.6514 11.2499L20.3295 11.2567L20.3225 12.0433L20.3155 12.83L17.65 12.8432C15.3987 12.8544 14.981 12.8622 14.9615 12.8936C14.9489 12.9141 14.9371 13.4549 14.9352 14.0956C14.9334 14.7362 14.9254 15.2669 14.9173 15.2749C14.8953 15.2969 13.182 15.2925 13.1281 15.2704C13.0837 15.2522 13.0817 15.107 13.0884 12.4406L13.0955 9.62993L13.1813 9.45624C13.2762 9.2641 13.4872 9.03527 13.6509 8.94694C13.9338 8.79414 13.712 8.80307 17.1551 8.80671L20.3155 8.81008L20.3224 9.67608Z" fill="#74F24D"/>
</svg>
