<svg width="24" height="24" viewBox="0 0 24 24" fill="none" xmlns="http://www.w3.org/2000/svg">
<g clip-path="url(#clip0_1657_1019)">
<path fill-rule="evenodd" clip-rule="evenodd" d="M23.6157 8.97633C23.8137 9.73833 23.9383 10.53 23.982 11.343C23.994 11.5607 24 11.7797 24 12C24 12.227 23.9937 12.4523 23.981 12.6763C23.9373 13.4657 23.8173 14.235 23.628 14.9763C23.5117 15.4317 23.3697 15.8767 23.2027 16.3097C22.3567 18.5077 20.8827 20.3937 19 21.7477C17.775 22.6293 16.377 23.2853 14.8667 23.6553C13.948 23.8807 12.988 24 12 24C11.012 24 10.052 23.8807 9.13333 23.6553C7.623 23.2853 6.225 22.629 5 21.7477C3.11733 20.3937 1.64333 18.5077 0.797667 16.3097C0.630667 15.8767 0.488333 15.4317 0.372 14.9763C0.182667 14.235 0.0626667 13.4657 0.019 12.6763C0.00633333 12.4523 0 12.227 0 12C0 11.7797 0.006 11.5607 0.018 11.343C0.0616667 10.53 0.186333 9.73833 0.384333 8.97633C0.502333 8.52067 0.647 8.07567 0.815667 7.643C1.66433 5.46533 3.131 3.59667 5 2.25233C6.225 1.371 7.623 0.714667 9.13333 0.344667C10.052 0.119333 11.012 0 12 0C12.988 0 13.948 0.119333 14.8667 0.344667C16.377 0.714667 17.775 1.37067 19 2.25233C20.869 3.59633 22.3357 5.46533 23.1843 7.643C23.3544 8.07849 23.4985 8.52373 23.6157 8.97633ZM11.4106 8.29933L8.2993 11.4107C8.03896 11.671 7.61696 11.671 7.35663 11.4107C7.0963 11.1503 7.0963 10.7283 7.35663 10.468L10.468 7.35666C10.7283 7.09633 11.1503 7.09633 11.4106 7.35666C11.671 7.61699 11.671 8.03899 11.4106 8.29933ZM12.542 15.6533L15.6533 12.542C15.9137 12.2817 16.336 12.2817 16.596 12.542C16.8563 12.8023 16.8563 13.2243 16.596 13.4847L13.4847 16.596C13.2243 16.8563 12.8023 16.8563 12.542 16.596C12.2817 16.3357 12.2817 15.9137 12.542 15.6533ZM7.05033 16.007L16.007 7.05033C16.2673 6.78999 16.6893 6.78999 16.9497 7.05033C17.21 7.31066 17.21 7.73266 16.9497 7.99299L7.99299 16.9497C7.73266 17.21 7.31066 17.21 7.05033 16.9497C6.78999 16.6893 6.78999 16.2673 7.05033 16.007Z" fill="#4A54F6"/>
</g>
<defs>
<clipPath id="clip0_1657_1019">
<rect width="24" height="24" fill="white"/>
</clipPath>
</defs>
</svg>
