<svg width="24" height="24" viewBox="0 0 24 24" fill="none" xmlns="http://www.w3.org/2000/svg">
<path d="M19.216 14.2797V21.7083C18.5368 22.4724 17.6453 23.0243 16.4992 23.4063C15.3956 23.7883 14.1645 24.0006 12.8061 24.0006C10.3865 24.0006 8.39142 23.2365 6.77835 21.6659C5.54733 20.4773 4.78324 19.1189 4.4861 17.5059H3.50977V16.2324H4.35875C4.35875 16.1475 4.35875 16.0201 4.35875 15.9352C4.35875 15.8078 4.35875 15.6805 4.35875 15.5107H3.50977V14.2373H4.52855C4.82569 12.7091 5.54733 11.3507 6.69345 10.2046C7.28774 9.56786 8.00938 9.10093 8.73102 8.71888C8.51878 8.42173 8.39142 8.03968 8.30653 7.65764C8.26408 7.48781 8.22163 7.27559 8.22163 7.06332C8.22163 6.89355 8.22163 6.76622 8.22163 6.59639C8.22163 6.42662 8.22163 6.29923 8.26408 6.1719C8.26408 6.08701 8.34897 6.00213 8.43387 5.95968C8.51878 5.91718 8.60367 5.95968 8.68857 6.00213C8.81592 6.12946 8.94325 6.25678 9.11308 6.34173C9.11308 6.42662 9.15552 6.46906 9.19796 6.5115C9.32529 6.55394 9.41023 6.55394 9.49512 6.46906C9.53756 6.42661 9.53756 6.38417 9.53756 6.38417C9.53756 6.25678 9.53756 6.12946 9.53756 6.00213V5.87474C9.53756 5.66251 9.53756 5.49272 9.58001 5.28047C9.62245 4.77108 9.70734 4.26169 9.87717 3.7523C9.96205 3.28536 10.1318 2.86086 10.3865 2.43638C10.5988 2.13923 10.8535 1.79964 11.1931 1.58739C11.4902 1.3327 11.8723 1.12045 12.2543 0.993101C12.3392 0.993101 12.4241 0.950652 12.509 0.908203C12.5514 0.908203 12.6364 0.908203 12.6788 0.950652C12.7213 0.993101 12.7213 1.03555 12.7213 1.078C12.6788 1.20535 12.6788 1.29025 12.6364 1.37515C12.5939 1.50249 12.5939 1.67229 12.5514 1.79964C12.5514 1.92699 12.509 2.05433 12.509 2.22413C12.509 2.35148 12.509 2.47883 12.509 2.60617C12.509 2.90331 12.5514 3.24291 12.6788 3.4976C12.7213 3.70985 12.8486 3.87965 12.9335 4.04944C13.0184 4.17679 13.1457 4.26169 13.3155 4.34659C13.4429 4.47394 13.6127 4.51638 13.7825 4.51638C13.9523 4.51638 14.0796 4.47394 14.207 4.38904C14.3768 4.30414 14.5041 4.17679 14.6315 4.00699C14.6739 3.96454 14.7164 3.87965 14.7588 3.8372C14.7588 3.8372 14.7588 3.79475 14.8012 3.79475C14.8437 3.70985 15.0135 3.70985 15.056 3.79475C15.0984 3.9221 15.1409 4.00699 15.1833 4.13435C15.3106 4.38904 15.438 4.68619 15.4805 4.98333C15.4805 5.06822 15.5229 5.19557 15.5229 5.32292C15.5229 5.45027 15.5229 5.53517 15.5229 5.62007C15.5229 5.95968 15.4805 6.29923 15.3531 6.59639C15.3531 6.63883 15.3106 6.68127 15.3531 6.76622C15.3956 6.93599 15.5229 6.97843 15.6502 6.93599C15.6927 6.93599 15.6927 6.89355 15.7351 6.89355C15.8201 6.8511 15.9474 6.76622 16.0323 6.68127C16.0323 6.68127 16.0747 6.63883 16.1172 6.63883C16.1597 6.63883 16.2021 6.68127 16.2021 6.72372V6.93599C16.2021 7.02087 16.2021 7.10576 16.2021 7.14826C16.2021 7.31803 16.1597 7.44536 16.1597 7.57275C16.0747 7.82741 15.9474 8.12457 15.8201 8.42173C17.0511 8.84621 18.0698 9.56786 18.9613 10.5442L16.4992 12.9213C15.4805 11.8176 14.1645 11.2234 12.5939 11.2234C11.2355 11.2234 10.0894 11.6903 9.19796 12.5817C8.73102 13.1336 8.34897 13.643 8.13673 14.2797H9.45268V15.5532H7.88203C7.88203 15.6805 7.88203 15.8078 7.88203 15.9777C7.88203 16.0626 7.88203 16.1899 7.88203 16.2748H9.45268V17.5483H8.09428C8.30653 18.185 8.68857 18.7793 9.19796 19.2887C10.0894 20.1802 11.278 20.6047 12.7637 20.6047C14.122 20.6047 15.1409 20.3499 15.7776 19.8406V17.5483H12.7637V14.2797H19.216Z" fill="#3A2700"/>
<path d="M18.8771 13.559V20.9876C18.1979 21.7517 17.3065 22.3035 16.1604 22.6856C15.0567 23.11 13.8257 23.2799 12.4673 23.2799C10.0476 23.2799 8.05256 22.5158 6.43949 20.9452C5.20846 19.799 4.44438 18.3982 4.14723 16.7851H3.1709V15.5117H4.01988C4.01988 15.4268 4.01988 15.2994 4.01988 15.2145C4.01988 15.0872 4.01988 14.9598 4.01988 14.79H3.1709V13.5165H4.18968C4.44438 12.0308 5.16601 10.6725 6.31214 9.52632C6.94888 8.88956 7.62807 8.38019 8.39216 8.04058C8.22235 7.70098 8.05256 7.36144 7.96766 6.97939C7.92521 6.76712 7.88276 6.55491 7.84031 6.34263C7.84031 6.17286 7.84031 6.04547 7.84031 5.8757C7.84031 5.70589 7.84031 5.57855 7.88276 5.4512C7.88276 5.3663 7.96766 5.28141 8.05256 5.23895C8.13746 5.1965 8.22235 5.23895 8.2648 5.28141C8.4346 5.40875 8.56195 5.5361 8.6893 5.66345C8.73175 5.70589 8.81664 5.74834 8.85907 5.79079C8.94401 5.83324 9.07134 5.83324 9.11378 5.74834C9.15623 5.70589 9.15623 5.66345 9.15623 5.621C9.15623 5.49365 9.15623 5.3663 9.15623 5.23895V5.15405C9.15623 4.94181 9.15623 4.77202 9.19867 4.55977C9.24111 4.05037 9.32606 3.54099 9.49583 3.0316C9.62316 2.56466 9.83543 2.14016 10.0901 1.71567C10.3024 1.41853 10.5571 1.07894 10.8967 0.866686C11.1513 0.611994 11.5334 0.442196 11.9154 0.272399C12.0003 0.272399 12.0853 0.229949 12.1701 0.1875C12.2126 0.1875 12.2975 0.187499 12.3399 0.229949C12.3824 0.272398 12.3824 0.314848 12.3824 0.357297C12.3399 0.484644 12.3399 0.569543 12.2975 0.696891C12.255 0.824238 12.255 0.994033 12.2126 1.12138C12.2126 1.24873 12.1701 1.37608 12.1701 1.54587C12.1701 1.67322 12.1701 1.80057 12.1701 1.92792C12.1701 2.22506 12.2126 2.56466 12.3399 2.81935C12.3824 3.0316 12.5097 3.20139 12.5946 3.37119C12.722 3.49853 12.8068 3.58344 12.9767 3.71078C13.104 3.79568 13.2738 3.83813 13.4436 3.79568C13.6134 3.79568 13.7408 3.75323 13.8681 3.66834C14.0379 3.58344 14.1653 3.45609 14.2501 3.28629C14.2926 3.24384 14.335 3.15894 14.3775 3.1165C14.3775 3.1165 14.3775 3.07405 14.42 3.07405C14.4624 2.98915 14.6322 2.98915 14.6746 3.07405C14.7171 3.15894 14.802 3.28629 14.8445 3.37119C14.9718 3.62589 15.0991 3.92303 15.1416 4.22018C15.1416 4.30507 15.184 4.43242 15.184 4.55977C15.184 4.68711 15.184 4.77202 15.184 4.85691C15.184 5.1965 15.1416 5.5361 15.0142 5.83325C15.0142 5.8757 14.9718 5.91814 15.0142 6.00303C15.0567 6.13042 15.184 6.2153 15.3538 6.17286C15.3963 6.17286 15.3963 6.13036 15.4387 6.13036C15.5236 6.08792 15.651 6.00303 15.7359 5.91814C15.7359 5.91814 15.7783 5.8757 15.8208 5.8757C15.8632 5.8757 15.9056 5.91814 15.9056 5.96059V6.17286C15.9056 6.25775 15.9056 6.34263 15.9056 6.38508C15.9056 6.55491 15.8632 6.68223 15.8632 6.80956C15.7359 7.10672 15.6085 7.40388 15.4812 7.70098C16.7122 8.12553 17.731 8.84712 18.6224 9.82348L16.1604 12.2431C15.1416 11.1394 13.8257 10.5451 12.255 10.5451C10.8967 10.5451 9.75055 11.0121 8.85907 11.9035C8.3497 12.4128 8.01011 12.9647 7.79786 13.559H9.11378V14.8324H7.54317C7.54317 14.9598 7.54317 15.0872 7.54317 15.257C7.54317 15.3419 7.54317 15.4692 7.54317 15.5541H9.11378V16.8276H7.75541C7.96766 17.5068 8.3497 18.1011 8.85907 18.6105C9.75055 19.5019 10.9391 19.9264 12.4248 19.9264C13.7832 19.9264 14.802 19.6717 15.4387 19.1623V16.8276H12.4248V13.559H18.8771Z" fill="url(#paint0_linear_1425_3080)"/>
<path d="M12.4662 23.4911C10.0041 23.4911 7.92411 22.6846 6.31104 21.1139C5.08001 19.9678 4.31592 18.5669 3.97633 16.9963H3V15.3408H3.84898C3.84898 15.2984 3.84898 15.2559 3.84898 15.2135C3.84898 15.1285 3.84898 15.0861 3.84898 15.0012H3V13.3882H4.01878C4.31592 11.86 5.08001 10.5441 6.18369 9.39793C6.77798 8.80361 7.41471 8.29424 8.13636 7.91219C8.009 7.65754 7.88166 7.36038 7.79676 7.02078C7.75431 6.8085 7.71186 6.59629 7.66941 6.38401C7.66941 6.21424 7.66941 6.04441 7.66941 5.87464C7.66941 5.70485 7.66941 5.5775 7.71186 5.4077C7.75431 5.2379 7.83921 5.11056 8.009 5.06811C8.1788 5.02566 8.3486 5.06811 8.47595 5.19545C8.56085 5.28035 8.6882 5.4077 8.81554 5.4926C8.858 5.53505 8.94289 5.5775 8.98533 5.61995C8.98533 5.53505 8.98533 5.4926 8.98533 5.45015C8.98533 5.36526 8.98533 5.32281 8.98533 5.2379V5.15301C8.98533 5.02566 8.98533 4.94076 8.98533 4.85586C8.98533 4.77097 8.98533 4.64361 8.98533 4.55872C9.02777 4.00688 9.11266 3.45504 9.28249 2.9881C9.40982 2.52116 9.62209 2.05422 9.87675 1.62972C10.1315 1.24768 10.3862 0.950535 10.7258 0.695843C11.0229 0.441145 11.4049 0.228899 11.8294 0.0591019C11.9568 0.0591019 12.0417 0.0591025 12.0841 0.016653C12.2539 -0.0257962 12.3813 0.016653 12.4662 0.101551C12.5511 0.18645 12.5935 0.313798 12.5511 0.441145C12.5086 0.526044 12.5086 0.610939 12.5086 0.695843C12.4662 0.823189 12.4662 0.992984 12.4237 1.12033C12.4237 1.24768 12.3813 1.37503 12.3813 1.50238C12.3813 1.67217 12.3813 1.79952 12.3813 1.88442C12.3813 2.18156 12.4237 2.47871 12.5086 2.7334C12.5511 2.9032 12.6359 3.073 12.7633 3.24279C12.8482 3.37014 12.9331 3.45504 13.0604 3.53993C13.1878 3.58239 13.3152 3.62484 13.4 3.62484C13.5274 3.62484 13.6548 3.58239 13.7821 3.49749C13.9095 3.41259 14.0368 3.32769 14.1217 3.20034C14.1217 3.1579 14.1641 3.1579 14.1641 3.11545C14.1641 3.073 14.2066 3.03055 14.249 2.9881L14.334 2.9032C14.4613 2.77585 14.7584 2.77585 14.8433 2.94565L15.0131 3.28524C15.1829 3.58239 15.2678 3.92198 15.3527 4.21913V4.34647C15.3527 4.43137 15.3952 4.51627 15.3952 4.60117C15.3952 4.64361 15.3952 4.68606 15.3952 4.72851C15.3952 4.77096 15.3952 4.81342 15.3952 4.85586C15.3952 5.28036 15.3103 5.61995 15.1829 5.87464V5.91708L15.2254 5.95953H15.2678L15.3527 5.91708C15.4376 5.91708 15.4801 5.87464 15.565 5.78974C15.6499 5.70485 15.7348 5.70485 15.7772 5.70485C15.947 5.70485 16.0319 5.83219 16.0319 5.95953V6.1718C16.0319 6.21424 16.0319 6.25669 16.0319 6.29913C16.0319 6.34157 16.0319 6.34157 16.0319 6.38401C16.0319 6.55384 15.9895 6.72362 15.947 6.851C15.9046 7.10566 15.8196 7.36038 15.7348 7.61504C16.8809 8.03958 17.8997 8.76117 18.7487 9.73753L18.876 9.82242L16.1168 12.4967L15.9895 12.3693C15.0131 11.2657 13.7396 10.7138 12.2115 10.7138C10.8956 10.7138 9.83431 11.1383 8.98533 12.0298C8.6033 12.4118 8.30615 12.8788 8.09391 13.3457H9.32493V15.0012H7.71186C7.71186 15.0861 7.71186 15.1285 7.71186 15.2135C7.71186 15.2559 7.71186 15.2984 7.71186 15.3408H9.28249V16.9963H8.009C8.22125 17.5057 8.56085 18.0151 8.98533 18.4396C9.83431 19.2886 11.0229 19.7131 12.4237 19.7131C13.6972 19.7131 14.6736 19.5008 15.2678 19.0339V17.0388H12.2115V13.3882H19.0458V21.0714L19.0033 21.1139C18.2817 21.878 17.3478 22.4723 16.2441 22.8543C15.098 23.2788 13.8245 23.4911 12.4662 23.4911ZM3.38204 16.6143H4.31592V16.7416C4.61307 18.3122 5.37716 19.6706 6.56573 20.8168C8.13636 22.345 10.1315 23.109 12.4662 23.109C13.7821 23.109 15.0131 22.8968 16.1168 22.5147C17.178 22.1751 18.027 21.6233 18.6638 20.9017V13.7702H12.5935V16.6567H15.6499V19.2462L15.565 19.2886C14.8858 19.8404 13.8245 20.0951 12.4237 20.0951C10.8956 20.0951 9.66454 19.6282 8.73064 18.6943C8.1788 18.1849 7.79676 17.5482 7.58452 16.8266L7.49962 16.6143H8.94289V15.7229H7.37227L7.32982 15.553C7.32982 15.4257 7.32982 15.3408 7.32982 15.2135C7.32982 15.0861 7.32982 14.9163 7.32982 14.789V14.6192H8.90045V13.7278H7.54207L7.62696 13.473C7.83921 12.8788 8.22125 12.2845 8.6882 11.7751C9.62209 10.8412 10.8107 10.3742 12.2115 10.3742C13.7821 10.3742 15.098 10.9261 16.1592 11.9873L18.3666 9.86486C17.5176 8.97344 16.5837 8.33668 15.4376 7.91219L15.2254 7.82731L15.3103 7.65754C15.4376 7.40282 15.5225 7.10566 15.6074 6.76606C15.6499 6.63873 15.6499 6.5114 15.6499 6.38401C15.6499 6.38401 15.6499 6.34157 15.6499 6.29913C15.6499 6.25669 15.6499 6.25669 15.6499 6.21424C15.6499 6.21424 15.565 6.25669 15.5225 6.29913L15.4376 6.34157C15.2678 6.38401 15.1405 6.38401 15.0555 6.34157C14.9282 6.25669 14.8433 6.1718 14.8433 6.04441C14.8009 5.95953 14.8433 5.87464 14.8433 5.83219V5.78974C14.9707 5.4926 15.0131 5.2379 15.0131 4.85586C15.0131 4.81342 15.0131 4.77096 15.0131 4.72851C15.0131 4.68606 15.0131 4.60117 15.0131 4.55872C15.0131 4.51627 15.0131 4.43137 14.9707 4.34647V4.21913C14.9282 4.00688 14.8009 3.75218 14.6735 3.49749L14.5462 3.24279C14.5462 3.24279 14.5462 3.28524 14.5037 3.28524C14.5037 3.32769 14.4613 3.37014 14.4188 3.37014C14.2915 3.58239 14.1641 3.70974 13.9519 3.83708C13.8245 3.92198 13.6548 4.00688 13.4425 4.00688C13.2727 4.00688 13.0604 3.96443 12.8907 3.87953C12.7209 3.75218 12.5935 3.62484 12.4662 3.53993C12.3388 3.28524 12.2115 3.11545 12.169 2.9032C12.0841 2.60606 11.9992 2.26646 11.9992 1.92687C11.9992 1.79952 11.9992 1.62972 11.9992 1.50238C11.9992 1.37503 11.9992 1.24768 12.0417 1.07788C12.0417 0.908086 12.0841 0.78074 12.1266 0.610939C12.1266 0.526043 12.169 0.441145 12.169 0.356247C12.1266 0.398696 12.0417 0.441145 11.9568 0.441145C11.5748 0.610945 11.2352 0.78074 10.938 1.03543C10.6833 1.24768 10.4286 1.50238 10.2164 1.84197C9.96169 2.22401 9.79186 2.6485 9.66454 3.11545C9.4947 3.53994 9.40982 4.04933 9.36738 4.60117C9.36738 4.68606 9.36738 4.77097 9.36738 4.89831C9.36738 4.98321 9.36738 5.11056 9.36738 5.19545V5.2379C9.36738 5.32281 9.36738 5.36526 9.36738 5.4077C9.36738 5.4926 9.36738 5.53505 9.36738 5.61995C9.36738 5.6624 9.36738 5.74729 9.28249 5.83219C9.24005 5.91708 9.1976 5.95953 9.11266 6.00197C8.98533 6.04441 8.90045 6.00197 8.77309 5.95953C8.6882 5.91708 8.6033 5.83219 8.56085 5.78974C8.4335 5.70485 8.30615 5.5775 8.1788 5.45015L8.13636 5.4077C8.05146 5.4077 8.05146 5.4077 8.05146 5.45015C8.05146 5.5775 8.009 5.70485 8.009 5.87464C8.009 6.04441 8.009 6.21424 8.009 6.34157C8.05146 6.55384 8.09391 6.72362 8.13636 6.93589C8.2637 7.31793 8.39105 7.65754 8.56085 7.91219L8.6882 8.08202L8.47595 8.16691C7.75431 8.50651 7.03268 9.01589 6.43839 9.61015C5.33471 10.7563 4.65552 12.0722 4.35837 13.6004L4.31592 13.7278H3.38204V14.6192H4.23103L4.18858 14.8314C4.18858 14.9588 4.18858 15.0861 4.18858 15.2135C4.18858 15.2984 4.18858 15.3833 4.18858 15.4681L4.23103 15.6804H3.38204V16.6143ZM8.98533 5.61995C8.98533 5.6624 8.98533 5.6624 8.98533 5.61995V5.61995Z" fill="url(#paint1_linear_1425_3080)"/>
<defs>
<linearGradient id="paint0_linear_1425_3080" x1="3.17345" y1="11.7375" x2="18.8712" y2="11.7375" gradientUnits="userSpaceOnUse">
<stop stop-color="#C99004"/>
<stop offset="1" stop-color="#F5CE11"/>
</linearGradient>
<linearGradient id="paint1_linear_1425_3080" x1="17.5452" y1="22.3165" x2="5.15133" y2="4.6156" gradientUnits="userSpaceOnUse">
<stop stop-color="#F5CD16"/>
<stop offset="0.0332" stop-color="#E9BC10"/>
<stop offset="0.0843" stop-color="#DBA809"/>
<stop offset="0.1357" stop-color="#D39C05"/>
<stop offset="0.1874" stop-color="#D09804"/>
<stop offset="0.2211" stop-color="#DAAE39"/>
<stop offset="0.2978" stop-color="#F2E3BC"/>
<stop offset="0.3358" stop-color="white"/>
<stop offset="0.3511" stop-color="#FDF6D5"/>
<stop offset="0.372" stop-color="#FAEBA2"/>
<stop offset="0.3934" stop-color="#F8E176"/>
<stop offset="0.4148" stop-color="#F6D952"/>
<stop offset="0.4362" stop-color="#F5D336"/>
<stop offset="0.4577" stop-color="#F4CE22"/>
<stop offset="0.4792" stop-color="#F3CC16"/>
<stop offset="0.501" stop-color="#F3CB12"/>
<stop offset="0.5485" stop-color="#EFC611"/>
<stop offset="0.6068" stop-color="#E5B70C"/>
<stop offset="0.6705" stop-color="#D49E05"/>
<stop offset="0.6814" stop-color="#D19904"/>
<stop offset="0.7298" stop-color="#D6A007"/>
<stop offset="0.7991" stop-color="#E5B30F"/>
<stop offset="0.8701" stop-color="#FACD1B"/>
<stop offset="1" stop-color="#D09A0F"/>
</linearGradient>
</defs>
</svg>
