<svg width="25" height="25" viewBox="0 0 25 25" fill="none" xmlns="http://www.w3.org/2000/svg">
<path fill-rule="evenodd" clip-rule="evenodd" d="M23.4375 2.69984C23.4603 2.72676 23.4741 2.76027 23.4768 2.79552C23.491 2.9684 24.7452 20.1179 13.0262 24.1121C12.991 24.1241 12.9528 24.1241 12.9176 24.1121C1.199 20.1179 2.4532 2.9684 2.46701 2.79552C2.46982 2.76038 2.48361 2.727 2.50639 2.70011C2.52917 2.67321 2.55982 2.65418 2.59399 2.64568L12.9322 0.125708C12.9583 0.119556 12.9854 0.119556 13.0116 0.125708L23.3493 2.64568C23.3837 2.65395 23.4145 2.67292 23.4375 2.69984ZM21.5347 4.53093C21.5533 4.55274 21.5648 4.57985 21.5671 4.60845H21.5683C21.5798 4.74946 22.6057 18.7505 13.0164 22.0108C12.9883 22.0215 12.9572 22.0215 12.929 22.0108C3.3393 18.7505 4.36559 4.74946 4.3771 4.60845C4.37933 4.57985 4.39056 4.55265 4.40917 4.53085C4.42779 4.50905 4.45283 4.4937 4.48069 4.48703L12.9389 2.4285C12.9603 2.42312 12.9827 2.42312 13.0042 2.4285L21.4632 4.48703C21.491 4.49378 21.516 4.50916 21.5347 4.53093Z" fill="#798CE5"/>
<path d="M12.8516 5.50124L7.21172 6.87284C7.19313 6.87758 7.1765 6.88803 7.16409 6.90268C7.15172 6.91735 7.14422 6.93554 7.14266 6.95467C7.13538 7.04879 6.45132 16.3829 12.8435 18.5567C12.8627 18.5629 12.8834 18.5629 12.9026 18.5567C19.2948 16.3825 18.6111 7.04879 18.6035 6.95429C18.602 6.93509 18.5945 6.91684 18.582 6.9022C18.5696 6.88757 18.5527 6.87728 18.534 6.87284L12.8945 5.50087C12.8805 5.49711 12.8656 5.49711 12.8516 5.50087" fill="#798CE5"/>
</svg>
