<svg width="24" height="24" viewBox="0 0 24 24" fill="none" xmlns="http://www.w3.org/2000/svg">
<rect width="24" height="24" rx="4" fill="url(#paint0_linear_2572_3828)"/>
<path fill-rule="evenodd" clip-rule="evenodd" d="M20.5454 8.86248C20.5454 7.79576 20.1099 7.15159 19.3772 6.70795C18.655 6.27505 13.2709 3.18034 13.2709 3.18034C13.0798 3.07489 12.8567 2.99034 12.6338 3.00089C12.5169 3.00089 12.4107 3.03253 12.3045 3.09598L10.3931 4.20488C10.7011 4.03597 11.0727 4.13088 11.3594 4.29997C11.3594 4.29997 16.4781 7.22558 17.2852 7.70085C18.1559 8.2183 18.6339 8.64085 18.6339 9.86593V11.3868L20.5454 10.2777V8.86248ZM16.393 8.37662C17.1259 8.82025 17.5612 9.46461 17.5612 10.5313V11.9466L15.6497 13.0555V11.5346C15.6497 10.3095 15.1717 9.88697 14.301 9.36952C13.4939 8.89425 8.37524 5.96864 8.37524 5.96864C8.08852 5.79973 7.71689 5.70464 7.40889 5.87355L9.32051 4.76465C9.42669 4.70119 9.53287 4.66956 9.64959 4.66956C9.87268 4.65901 10.0956 4.74356 10.2869 4.84919C10.2869 4.84919 15.671 7.94371 16.393 8.37662ZM14.5559 12.2C14.5559 11.1333 14.1204 10.4889 13.3877 10.0453C12.6655 9.61238 7.28138 6.51786 7.28138 6.51786C7.09029 6.41222 6.86721 6.32768 6.6443 6.33822C6.52739 6.33822 6.4212 6.36986 6.31502 6.43331L4.40358 7.54222L4.41074 7.53834L4.40363 7.54247C4.2549 7.62701 4.14873 7.77483 4.09564 7.93337C4.04255 8.08119 4.02127 8.22901 4.02127 8.38737C4.02127 8.38737 4 13.4675 4 15.1575C4 16.2559 4.59472 16.974 5.18944 17.3437C5.55053 17.5655 11.2425 20.8184 11.2425 20.8184C11.4019 20.9135 11.5823 20.9769 11.7736 20.998C11.9116 21.0085 12.0603 20.9769 12.177 20.9135L14.0886 19.8046C14.0672 19.8168 14.0454 19.8276 14.0233 19.8371L14.1522 19.7623C14.2797 19.6883 14.3858 19.5721 14.4497 19.4243C14.524 19.2552 14.5558 19.0758 14.5558 18.8961C14.548 18.8731 14.5516 17.8805 14.5541 17.1731L14.5541 17.1727C14.555 16.9064 14.5558 16.6805 14.5558 16.5621C14.5558 16.0869 14.3753 15.8227 13.9929 15.6114C12.9204 15.02 9.75569 13.1718 9.75569 13.1718L7.84425 14.2807C7.84425 14.2807 11.0408 16.0869 12.0815 16.7205C12.4106 16.9212 12.6442 17.1641 12.6442 17.6921C12.6442 18.0526 12.6402 18.8566 12.6371 19.4147C11.4212 18.7212 8.39544 16.9934 7.22834 16.3086C6.2938 15.7595 5.91144 15.3899 5.91144 14.0484C5.91144 12.74 5.92419 9.39906 5.92995 7.95751C7.28059 8.72997 10.6533 10.66 11.2955 11.0382C12.1664 11.5556 12.6443 11.9782 12.6443 13.2033V14.7242L14.5559 13.6153V12.2ZM17.5592 14.9798C17.5585 14.6088 17.558 14.3302 17.5611 14.2808L15.6496 15.3899L15.6389 18.1464C15.6389 18.4739 15.5435 18.833 15.246 19.0124L17.1576 17.9035C17.3487 17.7873 17.4762 17.5866 17.5187 17.3648C17.5638 17.32 17.561 15.8787 17.5592 14.98V14.98V14.98V14.9799V14.9798ZM20.5434 13.3837C20.5427 13.0132 20.5422 12.7353 20.5453 12.686L18.6338 13.7949L18.6231 16.5514C18.6231 16.8789 18.5275 17.238 18.2302 17.4176L20.1416 16.3085C20.3329 16.1923 20.4603 15.9918 20.5027 15.77C20.5479 15.7251 20.5451 14.2822 20.5434 13.3837Z" fill="white"/>
<defs>
<linearGradient id="paint0_linear_2572_3828" x1="-1" y1="12" x2="25.5" y2="12" gradientUnits="userSpaceOnUse">
<stop stop-color="#1F2C79"/>
<stop offset="0.357185" stop-color="#5D2C6C"/>
<stop offset="0.620247" stop-color="#A72D5E"/>
<stop offset="1" stop-color="#FF2F4D"/>
</linearGradient>
</defs>
</svg>
