<svg width="24" height="24" viewBox="0 0 24 24" fill="none" xmlns="http://www.w3.org/2000/svg">
<g clip-path="url(#clip0_720_16585)">
<path d="M12 24C18.6274 24 24 18.6274 24 12C24 5.37258 18.6274 0 12 0C5.37258 0 0 5.37258 0 12C0 18.6274 5.37258 24 12 24Z" fill="white"/>
<path d="M14.7162 18.2344H9.2998V18.9603H14.7162V18.2344Z" fill="#681AF1"/>
<path d="M16.1119 17.5078H7.84766V18.2337H16.1119V17.5078Z" fill="#681AF1"/>
<path d="M16.7821 16.7812H7.17773V17.5072H16.7821V16.7812Z" fill="#681AF1"/>
<path d="M17.5085 16.0566H6.39648V16.7826H17.5085V16.0566Z" fill="#781CF2"/>
<path d="M18.2334 15.3301H5.78125V16.056H18.2334V15.3301Z" fill="#781CF2"/>
<path d="M18.2334 14.6035H5.78125V15.3294H18.2334V14.6035Z" fill="#781CF2"/>
<path d="M18.9038 9.35547H5.05566V10.4723H18.9038V9.35547Z" fill="#E740EC"/>
<path d="M18.2334 7.90234H5.78125V9.35417H18.2334V7.90234Z" fill="#E740EC"/>
<path d="M17.5083 7.17773H6.45215V7.90365H17.5083V7.17773Z" fill="#E740EC"/>
<path d="M16.7823 6.45117H7.12207V7.17708H16.7823V6.45117Z" fill="#E740EC"/>
<path d="M16.1119 5.72656H7.84766V6.45247H16.1119V5.72656Z" fill="#E740EC"/>
<path d="M14.7162 5H9.2998V5.72591H14.7162V5Z" fill="#E740EC"/>
<path d="M18.904 12.5391H5V14.6051H18.904V12.5391Z" fill="#9521F2"/>
<path d="M18.904 10.4727H5V12.5387H18.904V10.4727Z" fill="#B828F3"/>
<path d="M8.85221 13.0977H7.40039V13.6002H8.85221V13.0977Z" fill="white"/>
<path d="M9.35477 10.6387H7.40039V11.1412H9.35477V10.6387Z" fill="white"/>
<path d="M10.3043 10.6387H9.80176V13.5982H10.3043V10.6387Z" fill="white"/>
<path d="M12.0358 10.6387H11.5332V13.5982H12.0358V10.6387Z" fill="white"/>
<path d="M9.35532 11.8125H7.84766V12.3151H9.35532V11.8125Z" fill="white"/>
<path d="M11.5332 11.8125H10.3047V12.3151H11.5332V11.8125Z" fill="white"/>
<path d="M14.2134 13.0977H12.4824V13.6002H14.2134V13.0977Z" fill="white"/>
<path d="M16.6705 11.0859H16.168V13.5987H16.6705V11.0859Z" fill="white"/>
<path d="M13.9342 13.5996H13.4316V14.1022H13.9342V13.5996Z" fill="white"/>
<path d="M14.7164 12.3145H14.2139V13.0962H14.7164V12.3145Z" fill="white"/>
<path d="M12.985 11.0859H12.4824V11.8677H12.985V11.0859Z" fill="white"/>
<path d="M14.2138 11.8691H12.9854V12.3159H14.2138V11.8691Z" fill="white"/>
<path d="M14.7164 10.6387H12.9854V11.0854H14.7164V10.6387Z" fill="white"/>
<path d="M17.6198 10.6387H15.2188V11.0854H17.6198V10.6387Z" fill="white"/>
<path d="M13.9899 10.1367H13.4873V10.6393H13.9899V10.1367Z" fill="white"/>
<path d="M9.35509 12.3145H8.85254V13.0962H9.35509V12.3145Z" fill="white"/>
<path d="M7.40099 11.1426H6.89844V13.097H7.40099V11.1426Z" fill="white"/>
</g>
<defs>
<clipPath id="clip0_720_16585">
<rect width="24" height="24" fill="white"/>
</clipPath>
</defs>
</svg>
