<svg width="25" height="24" viewBox="0 0 25 24" fill="none" xmlns="http://www.w3.org/2000/svg">
<circle cx="12.707" cy="12" r="12" fill="url(#paint0_linear_1614_632)"/>
<path fill-rule="evenodd" clip-rule="evenodd" d="M2.70703 12C2.70703 6.47716 7.18419 2 12.707 2C18.2299 2 22.707 6.47717 22.707 12C22.707 17.5229 18.2299 22 12.707 22C7.18419 22 2.70703 17.5229 2.70703 12ZM12.707 2.95238C7.71018 2.95238 3.65941 7.00315 3.65941 12C3.65941 16.9969 7.71017 21.0476 12.707 21.0476C17.7039 21.0476 21.7546 16.9969 21.7546 12C21.7546 7.00315 17.7039 2.95238 12.707 2.95238Z" fill="black"/>
<path fill-rule="evenodd" clip-rule="evenodd" d="M11.1157 5C11.3667 5 11.5702 5.21615 11.5702 5.48278V7.89645H13.6162V5.48278C13.6162 5.21615 13.8197 5 14.0708 5C14.3218 5 14.5253 5.21615 14.5253 5.48278V7.89645H17.2525C17.5035 7.89645 17.707 8.1126 17.707 8.37923C17.707 8.64586 17.5035 8.86201 17.2525 8.86201H14.0845L14.0708 8.86223L14.057 8.86201H11.1295L11.1157 8.86223L11.1019 8.86201H8.61612V14.8967H16.7979V12.4828H11.1161C10.8651 12.4828 10.6616 12.2667 10.6616 12.0001C10.6616 11.7334 10.8651 11.5173 11.1161 11.5173H17.0252C17.4018 11.5173 17.707 11.8415 17.707 12.2415V15.1381C17.707 15.5381 17.4018 15.8623 17.0252 15.8623H14.5253V18.5181C14.5253 18.7847 14.3218 19.0009 14.0708 19.0009C13.8197 19.0009 13.6162 18.7847 13.6162 18.5181V15.8623H11.5702V18.5181C11.5702 18.7847 11.3667 19.0009 11.1157 19.0009C10.8646 19.0009 10.6611 18.7847 10.6611 18.5181V15.8623H8.38885C8.01229 15.8623 7.70703 15.5381 7.70703 15.1381V8.62062C7.70703 8.22067 8.01229 7.89645 8.38885 7.89645H10.6611V5.48278C10.6611 5.21615 10.8646 5 11.1157 5Z" fill="black"/>
<defs>
<linearGradient id="paint0_linear_1614_632" x1="0.707031" y1="0" x2="24.707" y2="24" gradientUnits="userSpaceOnUse">
<stop stop-color="#C09E52"/>
<stop offset="1" stop-color="#F2E09F"/>
</linearGradient>
</defs>
</svg>
