<svg width="24" height="24" viewBox="0 0 24 24" fill="none" xmlns="http://www.w3.org/2000/svg">
<path fill-rule="evenodd" clip-rule="evenodd" d="M8.93373 0.0104405C8.96615 -0.00329946 9.00261 -0.00348464 9.03516 0.00992536L12.3661 1.38226C12.3984 1.39555 12.4345 1.39549 12.4667 1.3821L15.3738 0.17369C15.4046 0.160894 15.4389 0.160253 15.4702 0.171894L18.4955 1.29973C18.5327 1.31359 18.5619 1.34356 18.575 1.38145L19.755 4.77245C19.7677 4.80912 19.7955 4.83843 19.8311 4.85285L22.8891 6.09072C22.9238 6.10478 22.9511 6.13301 22.9642 6.16849L23.9915 8.93664C24.0033 8.9684 24.0028 9.0035 23.9902 9.03494L22.655 12.3636C22.6419 12.3964 22.642 12.4332 22.6553 12.4659L23.898 15.5163C23.9118 15.5502 23.9114 15.5883 23.8969 15.6219L22.76 18.2561C22.746 18.2884 22.7202 18.3138 22.688 18.327L19.2606 19.7318C19.2286 19.7449 19.2028 19.7702 19.1888 19.8023L17.8864 22.7849C17.8725 22.8167 17.847 22.8418 17.8153 22.855L15.0897 23.9899C15.0557 24.0041 15.0174 24.0033 14.9839 23.9878L11.7586 22.4964C11.7246 22.4807 11.6857 22.4802 11.6513 22.495L8.55852 23.8274C8.52538 23.8417 8.48795 23.8417 8.45478 23.8276L5.7886 22.6878C5.7549 22.6734 5.72854 22.6456 5.7157 22.6109L4.47679 19.2595C4.46353 19.2236 4.43587 19.1951 4.40069 19.1812L1.27377 17.9405C1.23871 17.9265 1.21111 17.8982 1.1978 17.8625L0.00859697 14.6736C-0.00345324 14.6413 -0.00281466 14.6056 0.0103811 14.5737L1.37902 11.2703C1.39233 11.2381 1.39286 11.202 1.3805 11.1695L0.393734 8.57436C0.381514 8.54223 0.381885 8.50657 0.39477 8.4747L1.52509 5.67893C1.53895 5.64465 1.56609 5.61767 1.60017 5.60429L4.61847 4.41962C4.65053 4.40704 4.67655 4.38236 4.69106 4.35076L6.1184 1.24195C6.13239 1.21148 6.15711 1.18739 6.1877 1.17443L8.93373 0.0104405Z" fill="url(#paint0_radial_1658_1114)"/>
<g filter="url(#filter0_ii_1658_1114)">
<path fill-rule="evenodd" clip-rule="evenodd" d="M8.93373 0.0104405C8.96615 -0.00329946 9.00261 -0.00348464 9.03516 0.00992536L12.3661 1.38226C12.3984 1.39555 12.4345 1.39549 12.4667 1.3821L15.3738 0.17369C15.4046 0.160894 15.4389 0.160253 15.4702 0.171894L18.4955 1.29973C18.5327 1.31359 18.5619 1.34356 18.575 1.38145L19.755 4.77245C19.7677 4.80912 19.7955 4.83843 19.8311 4.85285L22.8891 6.09072C22.9238 6.10478 22.9511 6.13301 22.9642 6.16849L23.9915 8.93664C24.0033 8.9684 24.0028 9.0035 23.9902 9.03494L22.655 12.3636C22.6419 12.3964 22.642 12.4332 22.6553 12.4659L23.898 15.5163C23.9118 15.5502 23.9114 15.5883 23.8969 15.6219L22.76 18.2561C22.746 18.2884 22.7202 18.3138 22.688 18.327L19.2606 19.7318C19.2286 19.7449 19.2028 19.7702 19.1888 19.8023L17.8864 22.7849C17.8725 22.8167 17.847 22.8418 17.8153 22.855L15.0897 23.9899C15.0557 24.0041 15.0174 24.0033 14.9839 23.9878L11.7586 22.4964C11.7246 22.4807 11.6857 22.4802 11.6513 22.495L8.55852 23.8274C8.52538 23.8417 8.48795 23.8417 8.45478 23.8276L5.7886 22.6878C5.7549 22.6734 5.72854 22.6456 5.7157 22.6109L4.47679 19.2595C4.46353 19.2236 4.43587 19.1951 4.40069 19.1812L1.27377 17.9405C1.23871 17.9265 1.21111 17.8982 1.1978 17.8625L0.00859697 14.6736C-0.00345324 14.6413 -0.00281466 14.6056 0.0103811 14.5737L1.37902 11.2703C1.39233 11.2381 1.39286 11.202 1.3805 11.1695L0.393734 8.57436C0.381514 8.54223 0.381885 8.50657 0.39477 8.4747L1.52509 5.67893C1.53895 5.64465 1.56609 5.61767 1.60017 5.60429L4.61847 4.41962C4.65053 4.40704 4.67655 4.38236 4.69106 4.35076L6.1184 1.24195C6.13239 1.21148 6.15711 1.18739 6.1877 1.17443L8.93373 0.0104405ZM4.1571 5.85076C4.19352 5.74233 4.08847 5.64014 3.98311 5.6815L2.31005 6.33817C2.27598 6.35154 2.24883 6.37853 2.23497 6.4128L1.39703 8.4854C1.38414 8.51727 1.38377 8.55293 1.39599 8.58507L2.33435 11.0529L3.61847 14.213C3.6323 14.247 3.65924 14.2738 3.69305 14.2872L6.30251 15.3214C6.41124 15.3645 6.5181 15.2549 6.4743 15.1452L3.53896 7.7931C3.52698 7.76308 3.52605 7.72968 3.53634 7.69902L4.1571 5.85076ZM6.10579 11.6006C6.0921 11.6335 6.09183 11.6705 6.10504 11.7036L7.05739 14.089C7.10192 14.2005 7.2573 14.2016 7.30336 14.0907L10.8874 5.46149C10.8998 5.43168 10.9223 5.40738 10.9509 5.39301L15.3536 3.1778C15.3868 3.16114 15.4252 3.1592 15.4598 3.17245L18.366 4.28595C18.4719 4.32651 18.5762 4.2231 18.5385 4.11491L17.8424 2.11436C17.8292 2.07646 17.8001 2.0465 17.7629 2.03263L15.4885 1.18476C15.4573 1.17312 15.4229 1.17376 15.3921 1.18655L12.6006 2.34696L9.39241 3.79947C9.36162 3.81341 9.3372 3.83869 9.32408 3.87019L6.10579 11.6006ZM10.9409 1.81428C11.0495 1.85902 11.0521 2.01394 10.9451 2.0624L8.67716 3.08922C8.64637 3.10316 8.62194 3.12844 8.60883 3.15993L5.71467 10.1118C5.66854 10.2226 5.51326 10.2214 5.46875 10.1099L4.53241 7.76469C4.52042 7.73466 4.51949 7.70127 4.52979 7.6706L5.44427 4.94781L6.81056 1.97198C6.82455 1.9415 6.84927 1.91742 6.87986 1.90445L8.93878 1.03172C8.9712 1.01798 9.00765 1.01779 9.0402 1.0312L10.9409 1.81428ZM19.2375 5.62925L15.5103 4.20117C15.4757 4.18791 15.4372 4.18985 15.4041 4.20652L13.2188 5.30602C13.1154 5.35805 13.1219 5.50974 13.2294 5.55244L17.0557 7.07237L21.1172 8.58894C21.153 8.60231 21.1814 8.63063 21.1952 8.6667L22.0201 10.8213C22.0637 10.9351 22.2221 10.9364 22.2674 10.8233L22.9901 9.02157C23.0027 8.99013 23.0032 8.95503 22.9914 8.92326L22.2372 6.89088C22.224 6.85539 22.1967 6.82716 22.162 6.8131L19.2375 5.62925ZM11.2884 6.9291L15.8631 8.76604L14.9682 10.9141L10.3525 9.1825L11.2884 6.9291ZM9.1383 12.1059L9.95599 10.1372L14.5547 11.9069L13.7013 13.9557L9.23152 12.1338C9.20079 12.1214 9.16961 12.1122 9.1383 12.1059ZM8.73374 13.08L7.8809 15.1333L12.4469 16.9668L13.2871 14.9499L8.83952 13.137C8.80146 13.1217 8.76611 13.1025 8.73374 13.08ZM10.9286 18.4147C11.036 18.3655 11.0321 18.2096 10.9223 18.1661L2.9834 15.0198C2.94959 15.0064 2.92265 14.9795 2.90882 14.9455L2.01941 12.7568C1.97433 12.6459 1.81954 12.6453 1.77371 12.7559L1.01297 14.5921C0.999771 14.624 0.999133 14.6597 1.01118 14.692L1.92267 17.1362C1.93598 17.1719 1.96358 17.2002 1.99863 17.2141L4.98382 18.3986L8.23865 19.603C8.2713 19.6151 8.30731 19.6137 8.33899 19.5993L10.9286 18.4147ZM5.88222 19.7362C5.77544 19.6967 5.67212 19.8023 5.712 19.9102L6.44712 21.8988C6.45996 21.9335 6.48632 21.9614 6.52002 21.9758L8.45337 22.8022C8.48654 22.8164 8.52397 22.8164 8.55711 22.8021L11.5298 21.5214L11.531 21.5209L14.6424 20.1914C14.6742 20.1778 14.6995 20.1523 14.7131 20.1202L18.1773 11.9155C18.1915 11.8817 18.1916 11.8436 18.1775 11.8098L17.0133 9.02019C16.9675 8.91037 16.8139 8.91043 16.7682 9.02027L12.7955 18.5571C12.7824 18.5884 12.7582 18.6136 12.7276 18.6276L8.37614 20.6181C8.34446 20.6326 8.30844 20.634 8.27579 20.6219L5.88222 19.7362ZM17.8576 8.62009C17.8123 8.51134 17.9169 8.40015 18.0262 8.44096L20.4009 9.32771C20.4368 9.34108 20.4652 9.3694 20.479 9.40547L21.6989 12.5918L22.886 15.5056C22.8998 15.5395 22.8994 15.5776 22.8849 15.6112L22.0589 17.525C22.0449 17.5573 22.0191 17.5827 21.9869 17.5959L19.9403 18.4348C19.8332 18.4787 19.7256 18.373 19.7655 18.2631L20.7324 15.602C20.744 15.5699 20.7432 15.5344 20.73 15.5029L17.8576 8.62009ZM18.4293 19.209L19.7311 15.6261C19.7428 15.5939 19.7419 15.5584 19.7288 15.5269L18.825 13.3614C18.7793 13.2518 18.6263 13.2515 18.5801 13.3608L15.4214 20.8422C15.4078 20.8743 15.3825 20.8999 15.3507 20.9134L13.1505 21.8536C13.0437 21.8992 13.0415 22.0518 13.1469 22.1006L15.0033 22.959C15.0368 22.9745 15.0751 22.9752 15.1091 22.9611L17.1151 22.1258C17.1469 22.1126 17.1723 22.0875 17.1862 22.0556L18.4293 19.209Z" fill="url(#paint1_radial_1658_1114)"/>
</g>
<defs>
<filter id="filter0_ii_1658_1114" x="0" y="0" width="24.2" height="24.2" filterUnits="userSpaceOnUse" color-interpolation-filters="sRGB">
<feFlood flood-opacity="0" result="BackgroundImageFix"/>
<feBlend mode="normal" in="SourceGraphic" in2="BackgroundImageFix" result="shape"/>
<feColorMatrix in="SourceAlpha" type="matrix" values="0 0 0 0 0 0 0 0 0 0 0 0 0 0 0 0 0 0 127 0" result="hardAlpha"/>
<feOffset dx="0.2"/>
<feGaussianBlur stdDeviation="0.1"/>
<feComposite in2="hardAlpha" operator="arithmetic" k2="-1" k3="1"/>
<feColorMatrix type="matrix" values="0 0 0 0 0.0392157 0 0 0 0 0.105882 0 0 0 0 0.235294 0 0 0 0.7 0"/>
<feBlend mode="normal" in2="shape" result="effect1_innerShadow_1658_1114"/>
<feColorMatrix in="SourceAlpha" type="matrix" values="0 0 0 0 0 0 0 0 0 0 0 0 0 0 0 0 0 0 127 0" result="hardAlpha"/>
<feOffset dy="0.2"/>
<feGaussianBlur stdDeviation="0.1"/>
<feComposite in2="hardAlpha" operator="arithmetic" k2="-1" k3="1"/>
<feColorMatrix type="matrix" values="0 0 0 0 0.290196 0 0 0 0 0.717647 0 0 0 0 0.952941 0 0 0 0.7 0"/>
<feBlend mode="normal" in2="effect1_innerShadow_1658_1114" result="effect2_innerShadow_1658_1114"/>
</filter>
<radialGradient id="paint0_radial_1658_1114" cx="0" cy="0" r="1" gradientUnits="userSpaceOnUse" gradientTransform="translate(12 12) rotate(90) scale(12)">
<stop stop-color="#EDFBFB"/>
<stop offset="0.487458" stop-color="#85E8FB"/>
<stop offset="0.756434" stop-color="#45B3F4"/>
<stop offset="1" stop-color="#0A41F4"/>
</radialGradient>
<radialGradient id="paint1_radial_1658_1114" cx="0" cy="0" r="1" gradientUnits="userSpaceOnUse" gradientTransform="translate(12 12) rotate(90) scale(12)">
<stop stop-color="#268FA5"/>
<stop offset="1" stop-color="#1A4363"/>
</radialGradient>
</defs>
</svg>
