<svg width="25" height="24" viewBox="0 0 25 24" fill="none" xmlns="http://www.w3.org/2000/svg">
<g clip-path="url(#clip0_2367_2831)">
<path d="M7.71522 4.95644L7.22318 4.62424L7.21484 1.09242C7.21484 0.22371 8.16139 -0.297515 8.87165 0.183402L14.8317 4.21699L10.7453 7.00798L7.71522 4.95644Z" fill="url(#paint0_linear_2367_2831)"/>
<path d="M10.4727 19.0437L11.5652 19.7832L8.91597 21.5929C8.20849 22.0766 7.25778 21.5595 7.25639 20.6894L7.24805 17.1242L7.44125 16.9922L10.4727 19.0437Z" fill="#2ABDE1"/>
<path d="M22.7475 12.145L15.9493 16.7888L15.6518 16.9917L11.5293 14.2007L15.9743 11.1651C16.1911 11.0164 16.1911 10.6939 15.9743 10.5466L14.8693 9.7988L18.6583 7.21074L18.9557 7.00781L22.7433 9.57085C23.6454 10.181 23.6481 11.532 22.7488 12.145H22.7475Z" fill="url(#paint1_linear_2367_2831)"/>
<path d="M18.9541 7.00779L18.6566 7.21072L14.8677 9.79877L10.7451 7.00779L14.8315 4.2168L15.924 4.95624L18.9541 7.00779Z" fill="#28519D"/>
<path d="M15.9235 4.9556L14.8311 4.21616L17.4803 2.40646C18.1877 1.92277 19.1385 2.43982 19.1399 3.30992L19.1468 6.8751L18.9536 7.00715L15.9235 4.9556Z" fill="#2ABDE1"/>
<path d="M15.6517 16.9922L11.5653 19.7831L10.4729 19.0437L7.44141 16.9922L7.73885 16.7892L11.5292 14.2012L15.6517 16.9922Z" fill="#28519D"/>
<path d="M10.4238 13.4529L11.5288 14.2007L7.73848 16.7888L7.44104 16.9917L3.65485 14.4287C2.75279 13.8185 2.75001 12.4675 3.64929 11.8531L10.4475 7.21074L10.7449 7.00781L14.8675 9.7988L10.4224 12.8344C10.2042 12.9831 10.2056 13.3056 10.4238 13.4529Z" fill="url(#paint2_linear_2367_2831)"/>
<path d="M19.1809 22.9077C19.1837 23.7765 18.2357 24.2977 17.5255 23.8168L11.5654 19.7832L15.6518 16.9922L18.6819 19.0437L19.1739 19.3759L19.1809 22.9077Z" fill="url(#paint3_linear_2367_2831)"/>
</g>
<defs>
<linearGradient id="paint0_linear_2367_2831" x1="9.68059" y1="6.28521" x2="13.2124" y2="-3.52494" gradientUnits="userSpaceOnUse">
<stop stop-color="#186FB0"/>
<stop offset="0.32" stop-color="#295296"/>
</linearGradient>
<linearGradient id="paint1_linear_2367_2831" x1="17.4754" y1="16.729" x2="17.4754" y2="7.78062" gradientUnits="userSpaceOnUse">
<stop stop-color="#28BDE0"/>
<stop offset="1" stop-color="#2577B9"/>
</linearGradient>
<linearGradient id="paint2_linear_2367_2831" x1="9.17011" y1="7.16349" x2="8.46403" y2="19.3296" gradientUnits="userSpaceOnUse">
<stop stop-color="#28BDE0"/>
<stop offset="1" stop-color="#2577B9"/>
</linearGradient>
<linearGradient id="paint3_linear_2367_2831" x1="15.1334" y1="16.9852" x2="15.9187" y2="25.6195" gradientUnits="userSpaceOnUse">
<stop stop-color="#287AB5"/>
<stop offset="0.32" stop-color="#295296"/>
</linearGradient>
<clipPath id="clip0_2367_2831">
<rect width="24" height="24" fill="white" transform="translate(0.976562)"/>
</clipPath>
</defs>
</svg>
