<svg width="24" height="24" viewBox="0 0 24 24" fill="none" xmlns="http://www.w3.org/2000/svg">
<g clip-path="url(#clip0_2736_2526)">
<path d="M12 24C18.6274 24 24 18.6274 24 12C24 5.37258 18.6274 0 12 0C5.37258 0 0 5.37258 0 12C0 18.6274 5.37258 24 12 24Z" fill="#6747ED"/>
<path fill-rule="evenodd" clip-rule="evenodd" d="M11.8254 13.5508C10.0504 13.5508 8.62539 12.1258 8.62539 10.3508C8.62539 8.57578 10.0504 7.15078 11.8254 7.15078C13.6004 7.15078 15.0254 8.57578 15.0254 10.3508C15.0254 12.1258 13.6004 13.5508 11.8254 13.5508ZM11.8254 5.55078C14.4754 5.55078 16.6254 7.70078 16.6254 10.3508C16.6254 13.0008 14.4754 15.1508 11.8254 15.1508C9.17539 15.1508 7.02539 13.0008 7.02539 10.3508C7.02539 7.70078 9.17539 5.55078 11.8254 5.55078ZM16.4004 15.4008C16.7254 15.7258 16.7254 16.2258 16.4004 16.5258L13.2004 19.7258C12.8754 20.0508 12.3754 20.0508 12.0754 19.7258C11.7504 19.4008 11.7504 18.9008 12.0754 18.6008L15.2754 15.4008C15.5754 15.0758 16.1004 15.0758 16.4004 15.4008ZM18.2504 6.35078C18.2504 6.80078 17.9004 7.15078 17.4504 7.15078C17.0004 7.15078 16.6504 6.80078 16.6504 6.35078C16.6504 5.90078 17.0004 5.55078 17.4504 5.55078C17.8754 5.55078 18.2504 5.90078 18.2504 6.35078Z" fill="white"/>
</g>
<defs>
<clipPath id="clip0_2736_2526">
<rect width="24" height="24" fill="white"/>
</clipPath>
</defs>
</svg>
