<svg width="24" height="24" viewBox="0 0 24 24" fill="none" xmlns="http://www.w3.org/2000/svg">
<circle cx="12" cy="12" r="12" fill="url(#paint0_linear_1658_1167)"/>
<path d="M6.37285 10.92C6.24549 10.7338 6.14784 10.5983 6.05444 10.4586C5.82095 10.1156 5.79548 9.73884 6.01199 9.40015C6.27945 8.98101 6.59361 8.58728 6.91201 8.20624C7.45542 7.55425 8.00308 6.91073 8.5762 6.28414C8.86913 5.96662 9.19603 5.66602 9.55264 5.41623C10.0366 5.07754 10.4272 5.17915 10.7796 5.65332C11.0258 5.98778 11.2296 6.36458 11.5225 6.64824C12.3249 7.41877 13.2843 7.70667 14.3881 7.43571C14.6429 7.3722 14.8891 7.37644 15.1311 7.49075C15.4198 7.63046 15.5938 7.91835 15.5216 8.23165C15.3858 8.84977 15.2372 9.46365 15.0759 10.0775C14.991 10.3993 15.1353 10.6745 15.216 10.9581C15.4283 11.6863 15.8485 12.3045 16.2476 12.9395C16.4259 13.2274 16.6382 13.3544 16.9566 13.4391C17.7165 13.6423 18.4382 13.9598 19.0581 14.4552C19.6906 14.959 20.1024 15.5898 20.1024 16.4196C20.1024 16.9573 20.0175 17.495 19.5081 17.8125C19.3128 17.9353 19.0623 17.9903 18.833 18.02C17.7844 18.1597 16.7316 18.1004 15.6787 18.0919C13.0763 18.0792 10.4739 18.0708 7.87147 18.0623C7.62948 18.0623 7.40023 18.0284 7.26438 17.7913C7.0606 17.4272 7.31532 17.0123 7.74835 17.0081C8.75451 17.0039 9.75642 17.0081 10.7626 17.0081C10.8602 17.0081 10.9579 17.0081 11.1065 17.0081C10.8305 16.6652 10.5843 16.3519 10.3295 16.0471C10.2998 16.009 10.2107 16.009 10.1512 16.009C8.89461 16.009 7.63373 16.0217 6.37709 16.009C6.18181 16.009 5.96105 15.9624 5.79972 15.865C5.62566 15.7592 5.58321 15.539 5.65962 15.3316C5.73604 15.1241 5.88463 14.9844 6.11813 14.9802C6.75493 14.9717 7.39174 14.9759 8.02855 14.9759C8.49979 14.9759 8.97527 14.9759 9.5017 14.9759C9.24273 14.6415 9.01348 14.3451 8.77574 14.053C8.74602 14.0149 8.66111 14.0022 8.60167 14.0022C7.40023 14.0022 6.19879 13.9979 4.99734 14.0022C4.61101 14.0022 4.35205 13.8074 4.34356 13.4899C4.33506 13.1724 4.56432 12.948 4.91668 12.948C5.7233 12.9438 6.52993 12.948 7.33655 12.948C7.5191 12.948 7.70165 12.948 7.94789 12.948C7.67618 12.6008 7.44268 12.296 7.2007 11.9954C7.17523 11.9615 7.09456 11.9615 7.04362 11.9615C6.20303 11.9615 5.36245 11.9615 4.51762 11.9615C4.39025 11.9615 4.26289 11.9658 4.13978 11.9404C3.8893 11.8896 3.72797 11.6948 3.72373 11.4493C3.71948 11.1995 3.85534 10.9793 4.1143 10.9412C4.41997 10.8989 4.73413 10.9073 5.04404 10.9031C5.46434 10.9158 5.89312 10.92 6.37285 10.92ZM14.4561 8.51107C12.4692 8.75662 10.9961 8.04113 9.98142 6.36458C9.85831 6.47043 9.73095 6.55087 9.6333 6.66094C8.9031 7.49498 8.17714 8.33325 7.45542 9.17153C7.28136 9.37474 7.12004 9.59066 6.97145 9.81082C6.93748 9.86162 6.95022 9.98016 6.98843 10.031C7.73562 11.0132 8.48705 11.9912 9.24273 12.9692C9.98992 13.9344 10.7371 14.8955 11.497 15.8523C11.6796 16.0809 11.8791 16.3222 12.1253 16.4662C12.8343 16.8896 13.624 17.0674 14.4561 17.0589C15.1268 17.0547 15.8018 17.0758 16.4726 17.0674C17.2156 17.0589 17.9543 17.025 18.6972 17.0081C18.918 17.0039 19.0071 16.898 19.0368 16.6948C19.1175 16.1571 18.9095 15.7338 18.5274 15.3739C18.0477 14.9209 17.4321 14.7177 16.8335 14.4764C16.5957 14.379 16.3707 14.3451 16.1075 14.4806C15.7509 14.6626 15.3476 14.3239 15.4452 13.926C15.5004 13.6974 15.4325 13.5492 15.3136 13.3883C14.6768 12.5331 14.2438 11.5847 14.0188 10.5432C13.9678 10.3019 13.9806 10.0775 14.0612 9.84045C14.2056 9.41285 14.3202 8.97678 14.4561 8.51107Z" fill="black"/>
<path d="M12.0443 22.0007C10.7452 21.9753 9.49707 21.7382 8.29563 21.2555C6.61021 20.5824 5.20499 19.5282 4.0927 18.1014C2.96767 16.6493 2.27992 15.0024 2.0719 13.1734C1.83416 11.0904 2.19077 9.10482 3.19268 7.26316C4.25827 5.30719 5.81208 3.84233 7.85411 2.92785C10.516 1.72972 13.2203 1.69585 15.9034 2.81778C18.3572 3.84233 20.1148 5.61625 21.1889 8.05063C21.8639 9.58323 22.0931 11.1878 21.9743 12.8432C21.9148 13.6264 21.7577 14.3927 21.503 15.1378C21.3884 15.4723 21.1337 15.6332 20.845 15.5443C20.5436 15.4554 20.4077 15.1802 20.5223 14.8288C20.8747 13.7492 21.0318 12.6484 20.9723 11.5138C20.8705 9.63404 20.2379 7.94479 19.0704 6.46723C17.5633 4.56206 15.585 3.4486 13.1821 3.11414C11.3778 2.86435 9.64566 3.16494 8.01119 3.97781C6.58474 4.68484 5.42999 5.70093 4.55545 7.02184C3.29457 8.92277 2.82333 11.01 3.14173 13.2708C3.37523 14.977 4.06298 16.4799 5.18376 17.7924C6.08378 18.8466 7.1706 19.6425 8.43997 20.1971C9.94708 20.8533 11.5179 21.065 13.1439 20.866C14.0609 20.756 14.9439 20.5062 15.776 20.0997C15.8439 20.0659 15.9203 20.0362 15.9925 20.0151C16.2769 19.9262 16.5402 20.0447 16.6421 20.2987C16.7439 20.5527 16.6378 20.8279 16.3746 20.955C15.5595 21.3529 14.7062 21.6577 13.8061 21.7975C13.2245 21.8906 12.6344 21.9329 12.0443 22.0007Z" fill="black"/>
<path d="M11.9979 12.0725C12.2186 12.3942 12.4224 12.6864 12.6262 12.9827C12.6686 13.0462 12.7153 13.1097 12.7536 13.1775C12.8767 13.423 12.8045 13.7109 12.588 13.8549C12.363 14.0031 12.0573 13.9649 11.8917 13.7321C11.5139 13.2071 11.1488 12.6694 10.7752 12.136C10.754 12.1064 10.737 12.0767 10.7158 12.0471C10.3974 11.5898 10.5757 11.1919 11.1361 11.1199C11.1955 11.1114 11.2549 11.0945 11.3398 11.0776C11.1658 10.8278 11.0087 10.5949 10.8516 10.3621C10.754 10.2181 10.6436 10.0742 10.5629 9.92177C10.4398 9.69315 10.5247 9.40525 10.7328 9.26554C10.9535 9.11736 11.2592 9.147 11.4163 9.36715C11.8578 9.98527 12.2993 10.6119 12.7153 11.2469C12.9276 11.5687 12.7153 11.9497 12.3205 12.0217C12.2229 12.0428 12.1295 12.0555 11.9979 12.0725Z" fill="black"/>
<defs>
<linearGradient id="paint0_linear_1658_1167" x1="24" y1="0" x2="2.86102e-06" y2="24" gradientUnits="userSpaceOnUse">
<stop stop-color="#DADADA"/>
<stop offset="1" stop-color="#A5A5A5"/>
</linearGradient>
</defs>
</svg>
