<svg width="25" height="24" viewBox="0 0 25 24" fill="none" xmlns="http://www.w3.org/2000/svg">
<rect x="0.976562" width="24" height="24" rx="4" fill="#FDEE2D"/>
<path d="M3.67578 13.2338C3.74433 12.9105 3.79093 12.5805 3.88615 12.2654C4.17925 11.2943 4.71852 10.4987 5.60153 9.97018C6.28768 9.55952 7.02854 9.48803 7.81093 9.59069C8.57204 9.69064 9.33687 9.80754 10.1085 9.74553C10.698 9.69844 11.2849 9.61847 11.8671 9.55376C11.5064 9.84074 11.1333 10.1376 10.7605 10.4344C10.4657 10.6688 10.1625 10.8931 9.87816 11.1395C9.39765 11.5559 8.82023 11.7914 8.25294 12.0468C7.81329 12.2451 7.36182 12.4189 6.93095 12.6337C5.38913 13.4021 4.7148 14.6795 4.78335 16.3814C4.7847 16.4133 4.78335 16.4448 4.74992 16.4956C4.62802 16.3388 4.49666 16.1883 4.38591 16.024C4.00569 15.4592 3.76965 14.8398 3.70617 14.1577C3.7028 14.1194 3.68625 14.0825 3.67578 14.0452C3.67578 13.7745 3.67578 13.5041 3.67578 13.2334L3.67578 13.2338Z" fill="black"/>
<path d="M11.9339 9.13474C11.7198 9.17167 11.5058 9.20623 11.2927 9.24621C10.254 9.4407 9.21566 9.39699 8.17495 9.25943C7.51176 9.17201 6.84587 9.09577 6.19011 9.31635C6.14216 9.33227 6.09489 9.34956 6.04694 9.36582C6.00068 9.3814 5.95408 9.39631 5.86426 9.42579C6.14858 9.07443 6.45282 8.81489 6.79522 8.60109C7.93993 7.8865 9.17514 7.73674 10.4705 8.04643C10.9702 8.16603 11.4581 8.33511 11.9515 8.48148C11.9815 8.26565 12.0156 8.02881 12.0454 7.79163C12.0491 7.76148 12.0362 7.72421 12.0197 7.69778C11.5848 7.00217 11.6462 6.26962 11.8691 5.53098C11.9319 5.32294 12.0376 5.12778 12.1308 4.9299C12.1588 4.87061 12.2058 4.81674 12.254 4.771C12.409 4.62394 12.6042 4.66867 12.6343 4.87671C12.7065 5.37953 13.0239 5.69768 13.4021 5.97891C13.5781 6.1097 13.7533 6.2415 13.9336 6.36585C13.9725 6.39262 14.0363 6.40617 14.0815 6.39567C14.195 6.36958 14.3047 6.32655 14.4695 6.27233C14.1437 6.02499 13.8475 5.80001 13.5436 5.56893C13.9492 5.18978 14.4358 5.03765 14.975 5.0346C15.6976 5.03054 16.3767 5.21045 16.999 5.57639C17.1631 5.67261 17.2607 5.65093 17.383 5.48219C17.0861 5.33141 16.7944 5.18335 16.4824 5.02511C16.5067 4.90754 16.5381 4.77303 16.5607 4.63682C16.581 4.51484 16.5857 4.39049 16.6077 4.26885C16.6195 4.20177 16.6438 4.08995 16.6769 4.08419C16.7407 4.07335 16.8336 4.10486 16.8815 4.15196C17.1854 4.45114 17.4802 4.75914 17.7777 5.06476C17.801 5.08848 17.8199 5.11626 17.8496 5.15319C18.1829 4.89738 18.5118 4.64529 18.84 4.39219C19.8598 3.60645 20.8796 2.82037 21.8993 2.03463C21.9172 2.02074 21.9351 2.00719 21.9527 1.9933C22.0398 1.92485 22.1303 1.89029 22.2238 1.97873C22.3137 2.06343 22.2782 2.15017 22.2222 2.23691C22.0202 2.54829 21.819 2.86069 21.6177 3.17241C20.8853 4.30646 20.1526 5.44052 19.4137 6.58405C19.8091 6.96015 19.9962 7.45314 20.1968 7.94309C20.2984 8.19111 20.4588 8.41406 20.5851 8.65225C20.8455 9.14287 20.8853 9.66161 20.7492 10.1936C20.7182 10.3149 20.7381 10.3938 20.8282 10.4748C20.9113 10.5497 20.9731 10.6493 21.0582 10.7211C21.4168 11.024 21.4695 11.4262 21.3908 11.846C21.329 12.1771 21.3513 12.5003 21.354 12.831C21.358 13.3131 21.3074 13.7973 21.2581 14.2781C21.1828 15.012 21.095 15.7446 20.9981 16.4757C20.9741 16.6557 20.8944 16.8281 20.8414 17.0043C20.8157 17.0897 20.7837 17.1747 20.7715 17.2622C20.707 17.7236 20.4278 18.031 19.9672 18.0615C19.4357 18.0967 18.9011 18.0984 18.3686 18.0855C18.2393 18.0825 18.0992 17.9825 17.9884 17.8958C17.8344 17.7748 17.6902 17.6356 17.566 17.4841C17.3451 17.2151 17.0686 17.0385 16.7498 16.9139C16.609 16.859 16.4699 16.7946 16.3416 16.7153C16.1315 16.5859 16.0566 16.6851 15.9752 16.8481C15.8617 17.0745 15.8813 17.3198 15.9327 17.559C16.0441 18.0784 16.3416 18.4924 16.7009 18.8648C16.7917 18.959 16.8261 19.038 16.7951 19.1735C16.5742 20.1378 16.1461 21.0042 15.5859 21.8106C15.5227 21.9014 15.4592 21.9918 15.3735 22.0701C15.4572 21.7099 15.543 21.3501 15.6233 20.9893C15.6564 20.8412 15.6777 20.6901 15.7051 20.5406C15.7662 20.2055 15.7057 19.8962 15.5339 19.6001C15.3137 19.2209 15.0959 18.8394 14.9004 18.447C14.5131 17.6701 14.4428 16.8671 14.7542 16.0437C14.7697 16.0027 14.7825 15.9604 14.7998 15.9082C14.5536 15.7649 14.3179 15.6114 14.0684 15.486C13.5568 15.2289 13.2245 14.8135 12.9709 14.314C12.4171 13.2247 12.1139 12.0683 12.0356 10.8509C11.9991 10.2844 11.9684 9.71752 11.9343 9.13372L11.9339 9.13474ZM16.5601 6.25336C16.5033 6.25099 16.4483 6.24658 16.3929 6.24624C15.6956 6.23913 15.0196 6.36992 14.3577 6.5766C13.7395 6.76973 13.1401 7.00691 12.6289 7.42265C12.4171 7.59477 12.2622 7.80247 12.2412 8.08777C12.2297 8.24498 12.2037 8.40287 12.2088 8.55941C12.2368 9.42037 12.2493 10.2823 12.3111 11.1409C12.3915 12.2547 12.716 13.3057 13.2316 14.2954C13.4241 14.6651 13.675 14.9768 14.0454 15.1943C15.131 15.8313 16.2362 16.4293 17.387 16.9389C17.9199 17.1747 18.4858 17.2967 19.0625 17.357C19.5312 17.4062 19.848 17.0423 19.747 16.5777C19.692 16.3256 19.6261 16.0729 19.5329 15.833C19.2898 15.2092 18.8356 14.8616 18.1586 14.8131C17.7679 14.7853 17.3786 14.7403 16.9896 14.6928C16.9423 14.6871 16.9031 14.6169 16.8602 14.5766C16.9153 14.5526 16.9703 14.5082 17.025 14.5085C17.2546 14.5092 17.4863 14.5468 17.7135 14.5278C18.4007 14.4709 19.0855 14.3855 19.7727 14.3286C20.1782 14.2951 20.5537 14.1877 20.9049 13.9837C21.0096 13.923 21.0964 13.8576 21.0687 13.7214C21.0403 13.5835 20.9316 13.5439 20.813 13.5544C20.5963 13.574 20.3815 13.6164 20.1647 13.6367C19.0811 13.7394 17.9969 13.8339 16.9139 13.9407C16.6752 13.964 16.4564 13.9285 16.2467 13.8197C15.9779 13.6801 15.7064 13.5452 15.4437 13.3945C15.2175 13.2644 14.9872 13.204 14.7224 13.2196C14.2956 13.2447 13.9465 13.0736 13.6922 12.7232C13.6476 12.6619 13.5774 12.5833 13.6804 12.5274C13.7125 12.5101 13.8097 12.5613 13.8428 12.6064C14.0967 12.9503 14.4428 13.1 14.8453 13.0024C15.1952 12.9177 15.5416 12.7839 15.8621 12.6179C16.5111 12.2811 17.1587 11.9284 17.4748 11.2009C17.4907 11.1643 17.5697 11.1552 17.6193 11.1331C17.6264 11.1867 17.6518 11.246 17.6376 11.2931C17.5734 11.5065 17.4772 11.7125 17.4373 11.9297C17.4228 12.0097 17.5109 12.15 17.5903 12.1937C17.6609 12.2326 17.8162 12.2126 17.878 12.1567C18.189 11.8745 18.5665 11.7349 18.9545 11.6224C19.3229 11.5153 19.693 11.395 20.0982 11.4283C20.1573 11.2422 20.085 11.0921 19.9611 10.9583C19.6173 10.5869 19.277 10.2122 18.9265 9.84729C18.5962 9.50372 18.5064 9.089 18.5398 8.63294C18.5699 8.22092 18.81 7.93055 19.2138 7.85736C19.4279 7.81874 19.6515 7.83127 19.8767 7.82043C19.7183 7.4728 19.5826 7.09873 19.2679 6.81615C19.0906 7.08992 18.9295 7.34709 18.7583 7.59748C18.7178 7.65678 18.6496 7.71675 18.5831 7.73471C18.3133 7.80688 18.036 7.8184 17.7686 7.72997C17.0672 7.49855 16.6657 7.01165 16.5601 6.25336ZM20.913 13.1424C20.9022 13.0126 20.8826 12.9062 20.8887 12.8012C20.8927 12.728 20.9113 12.6206 20.9603 12.5921C21.0828 12.5203 21.0828 12.4291 21.0677 12.3139C21.0612 12.2665 21.0852 12.2153 21.0913 12.1655C21.1186 11.9372 21.1534 11.7091 21.1676 11.4798C21.1781 11.312 21.1193 11.1613 20.9991 11.0352C20.8363 10.8644 20.6753 10.6913 20.525 10.5097C20.4842 10.4602 20.4636 10.3735 20.471 10.3084C20.4912 10.136 20.5399 9.96724 20.5632 9.79477C20.6398 9.22554 20.3778 8.75898 20.1066 8.29343C20.0276 8.15756 19.9199 8.12538 19.797 8.1762C19.6379 8.24193 19.4813 8.32257 19.3405 8.42151C18.9177 8.71764 18.8431 9.4058 19.1831 9.80731C19.2493 9.75648 19.3124 9.70092 19.3823 9.65552C19.7048 9.44544 20.1336 9.53354 20.3484 9.85102C20.5095 10.0892 20.4484 10.2336 20.1634 10.2451C19.9557 10.2532 19.7467 10.2241 19.5191 10.2102C19.7166 10.4165 19.9199 10.6029 20.0901 10.8163C20.1904 10.942 20.2859 11.1054 20.3005 11.2599C20.3332 11.6102 20.2174 11.9199 19.9294 12.1527C19.7764 12.2763 19.7818 12.3228 19.9108 12.4708C20.0843 12.6701 20.2572 12.8696 20.4352 13.0648C20.469 13.1017 20.5237 13.1342 20.5716 13.1393C20.6766 13.1505 20.7833 13.1427 20.913 13.1427V13.1424ZM16.7785 13.5517C17.0916 13.4917 17.4049 13.4338 17.7176 13.3711C18.2552 13.2633 18.2575 13.2633 18.5054 12.7741C18.5361 12.7134 18.556 12.608 18.5246 12.5654C18.4936 12.523 18.3892 12.5176 18.3197 12.524C17.9205 12.5616 17.541 12.563 17.2969 12.1581C17.2391 12.0625 17.1385 12.0625 17.0439 12.1201C16.6276 12.3743 16.2109 12.627 15.7959 12.8835C15.6943 12.9465 15.672 13.038 15.7716 13.117C16.0657 13.3497 16.3743 13.554 16.7782 13.5517H16.7785ZM20.94 14.847C20.9444 14.5983 20.7354 14.4553 20.4956 14.5563C20.4389 14.58 20.3852 14.6112 20.3298 14.6386C20.0043 14.7989 19.9395 14.9449 20.0587 15.2888C20.2268 15.7734 20.4051 16.2531 20.2998 16.7848C20.289 16.8393 20.3656 16.9437 20.4251 16.9691C20.4727 16.9894 20.579 16.9433 20.6185 16.8939C20.6753 16.823 20.7155 16.7248 20.7273 16.6336C20.8029 16.0424 20.8691 15.4498 20.9393 14.847H20.94ZM21.3297 2.71229C21.3216 2.7028 21.3131 2.69331 21.305 2.68383C21.2665 2.7133 21.227 2.74109 21.1899 2.77226C20.4163 3.41501 19.6427 4.0581 18.8694 4.7012C18.4547 5.04612 18.0401 5.39139 17.6251 5.73597C17.5282 5.81661 17.46 5.90843 17.5086 6.04261C17.5764 6.22964 17.7858 6.25844 17.9435 6.10055C18.7897 5.25281 19.6346 4.40371 20.4804 3.55596C20.7624 3.27338 21.0464 2.99317 21.3297 2.71195V2.71229ZM19.1831 13.5524C19.4205 13.5232 19.6049 13.5049 19.7879 13.4768C19.9591 13.4504 19.9996 13.3508 19.8919 13.222C19.7801 13.0885 19.6619 12.9601 19.5427 12.8334C19.4488 12.7334 19.3577 12.7365 19.2827 12.8584C19.2064 12.9831 19.125 13.1054 19.0598 13.2356C19.0227 13.3101 18.9748 13.4168 19.0024 13.4751C19.0281 13.5293 19.1476 13.5388 19.1831 13.552V13.5524Z" fill="black"/>
<path d="M8.28286 20.6154C6.9163 19.7467 5.76382 18.7102 5.27892 17.1008C4.85346 15.6882 5.28264 13.7305 7.21784 12.8925C7.87158 12.6096 8.53477 12.3426 9.16487 12.013C9.66901 11.7493 10.1303 11.402 10.6101 11.0913C10.6415 11.071 10.6709 11.047 10.7188 11.0117C10.7188 11.3973 10.7469 11.7636 10.7131 12.1237C10.6375 12.9359 10.4045 13.7054 9.9405 14.383C9.69636 14.7395 9.41542 15.0726 9.13312 15.4005C8.20148 16.4834 7.87597 17.7415 8.04886 19.1419C8.10862 19.626 8.20115 20.1065 8.28286 20.6151V20.6154Z" fill="black"/>
<path d="M11.2526 6.04135C11.0466 6.76543 11.2175 7.38345 11.6169 7.99841C10.533 7.62672 9.46867 7.42986 8.32227 7.61554C9.0925 6.6797 10.0667 6.21924 11.2526 6.04102V6.04135Z" fill="black"/>
<path d="M13.8965 8.67067C13.9154 8.61578 13.9255 8.55615 13.9542 8.50702C14.1497 8.17327 14.458 7.97912 14.8096 7.8602C15.5217 7.61861 16.2467 7.60438 16.9585 7.84698C17.9202 8.17463 18.1009 9.22905 17.3387 9.92568C17.0247 10.2127 16.6397 10.275 16.2511 10.3109C15.9691 10.337 15.6801 10.3116 15.3964 10.2862C15.2749 10.2754 15.1587 10.2066 15.0351 10.1625C15.4069 9.53264 16.4199 9.30834 17.0652 9.83996C17.4508 9.61904 17.541 9.23278 17.2732 8.87329C16.8906 8.35963 16.3436 8.12855 15.7351 8.02588C15.0584 7.9117 14.507 8.177 14.0224 8.62594C13.9985 8.64831 13.9738 8.66965 13.9492 8.69168C13.9316 8.68456 13.914 8.67778 13.8965 8.67067Z" fill="black"/>
</svg>
