<svg width="24" height="24" viewBox="0 0 24 24" fill="none" xmlns="http://www.w3.org/2000/svg">
<rect width="24" height="24" rx="8" fill="#D9623A"/>
<path d="M5.91391 6.25586H8.56265C9.16455 6.25586 9.62074 6.79871 9.51825 7.39182L9.04497 10.1241C9.00377 10.3634 9.18766 10.5826 9.43083 10.5826H11.1632C11.3501 10.5826 11.5108 10.4499 11.547 10.2669L12.1821 7.03897C12.2715 6.58458 12.6704 6.25686 13.1336 6.25686H15.7964C16.3993 6.25686 16.8555 6.80072 16.751 7.39483L14.8067 18.4458C14.7253 18.9092 14.3224 19.248 13.8521 19.248H11.2074C10.6045 19.248 10.1473 18.7031 10.2528 18.109L10.718 15.4853C10.7602 15.246 10.5763 15.0259 10.3332 15.0259H8.49834C8.31245 15.0259 8.15167 15.1575 8.11449 15.3395L7.48346 18.4699C7.39202 18.9223 6.9941 19.248 6.53289 19.248H3.96955C3.36665 19.248 2.91046 18.7041 3.01496 18.11L4.95932 7.05807C5.04071 6.59464 5.44365 6.25586 5.91391 6.25586Z" fill="white"/>
<path d="M20.4284 4C20.4133 4 20.3983 4 20.3832 4L16.2805 4.14174C15.5801 4.16587 14.8928 4.73988 14.7511 5.41743L14.7119 5.60542H15.8464C15.9077 5.43653 16.1418 5.25257 16.3186 5.24654L20.2857 5.10982L20.0325 6.32419C19.9953 6.50313 19.7371 6.71424 19.5472 6.72027L17.647 6.78561C17.644 6.80974 17.643 6.83386 17.638 6.85799L17.4551 7.89945L19.5854 7.82607C20.2857 7.80194 20.973 7.22793 21.1147 6.55038L21.3981 5.18823C21.5367 4.52576 21.1017 4 20.4284 4Z" fill="#FFC55A"/>
<path d="M18.6854 9.35034L18.5427 10.0359C18.5246 10.0892 18.4191 10.1737 18.3648 10.1797L17.0475 10.2249L16.8516 11.3378L18.403 11.2845C18.9617 11.2654 19.5114 10.807 19.6239 10.2661L19.85 9.17945C19.9605 8.65067 19.6139 8.23047 19.0753 8.23047C19.0632 8.23047 19.0511 8.23047 19.0391 8.23047L17.3881 8.28777L17.1922 9.40061L18.6854 9.34934V9.35034Z" fill="#FFC55A"/>
<path d="M17.6395 12.7791L17.532 13.2938C17.5159 13.321 17.4687 13.3592 17.4385 13.3672L16.487 13.4004L16.291 14.5132L17.4858 14.472C18.0012 14.4539 18.5077 14.0317 18.6112 13.5331L18.8202 12.5308C18.9217 12.0433 18.6021 11.6562 18.1057 11.6562C18.0947 11.6562 18.0836 11.6562 18.0726 11.6562L16.7864 11.7005L16.5905 12.8133L17.6395 12.7771V12.7791Z" fill="#FFC55A"/>
</svg>
