<svg width="24" height="24" viewBox="0 0 24 24" fill="none" xmlns="http://www.w3.org/2000/svg">
<g clip-path="url(#clip0_2214_3403)">
<path d="M0 2C0 0.89543 0.895431 0 2 0H22C23.1046 0 24 0.895431 24 2V22C24 23.1046 23.1046 24 22 24H2C0.89543 24 0 23.1046 0 22V2Z" fill="#0F1319"/>
<path d="M19 11.4961V9.73635H17.2022V7H15.1755V9.73858H8.82443V7H6.79778V9.73858H5V11.4983H6.79778V12.406H5V14.1657H6.79778V16.902H8.82443V14.1634H15.1755V16.902H17.2022V14.1634H19V12.4037H17.2022V11.4961H19ZM15.1755 12.4037H8.82443V11.4961H15.1755V12.4037Z" fill="white"/>
</g>
<defs>
<clipPath id="clip0_2214_3403">
<rect width="24" height="24" fill="white"/>
</clipPath>
</defs>
</svg>
