<svg width="24" height="24" viewBox="0 0 24 24" fill="none" xmlns="http://www.w3.org/2000/svg">
<g clip-path="url(#clip0_2572_3304)">
<circle cx="12" cy="12" r="12" fill="#6632EB"/>
<path d="M11.7582 16.4002L16.3992 11.7592C16.7072 11.4519 17.1245 11.2793 17.5596 11.2793C17.9946 11.2793 18.412 11.4519 18.7199 11.7592C19.0272 12.0672 19.1998 12.4845 19.1998 12.9196C19.1998 13.3547 19.0272 13.772 18.7199 14.08L14.079 18.7209C13.771 19.0282 13.3537 19.2008 12.9186 19.2008C12.4836 19.2008 12.0662 19.0282 11.7582 18.7209C11.4509 18.4129 11.2784 17.9956 11.2784 17.5606C11.2784 17.1255 11.4509 16.7082 11.7582 16.4002ZM5.27967 12.2423C5.58765 12.5494 6.00483 12.7219 6.43975 12.7219C6.87468 12.7219 7.29186 12.5494 7.59984 12.2423L12.2414 7.60081C12.5485 7.29284 12.721 6.87566 12.721 6.44073C12.721 6.0058 12.5485 5.58862 12.2414 5.28065C11.9334 4.97336 11.5161 4.80078 11.081 4.80078C10.6459 4.80078 10.2286 4.97336 9.92059 5.28065L5.27967 9.92156C4.97238 10.2296 4.7998 10.6469 4.7998 11.082C4.7998 11.517 4.97238 11.9343 5.27967 12.2423ZM10.2583 13.7404C10.5663 14.0477 10.9836 14.2203 11.4187 14.2203C11.8538 14.2203 12.2711 14.0477 12.5791 13.7404L13.7395 12.5801C14.0468 12.272 14.2193 11.8547 14.2193 11.4197C14.2193 10.9846 14.0468 10.5673 13.7395 10.2593C13.4315 9.95201 13.0142 9.77943 12.5791 9.77943C12.144 9.77943 11.7267 9.95201 11.4187 10.2593L10.2583 11.4197C9.95103 11.7277 9.77845 12.145 9.77845 12.5801C9.77845 13.0151 9.95103 13.4324 10.2583 13.7404Z" fill="white"/>
</g>
<defs>
<clipPath id="clip0_2572_3304">
<rect width="24" height="24" fill="white"/>
</clipPath>
</defs>
</svg>
