<svg width="24" height="24" viewBox="0 0 24 24" fill="none" xmlns="http://www.w3.org/2000/svg">
<g clip-path="url(#clip0_2218_1712)">
<path fill-rule="evenodd" clip-rule="evenodd" d="M22.2936 9.229C21.4706 8.73603 20.7722 8.47417 19.8688 8.3201C19.6054 8.27514 19.6045 8.2819 19.8573 8.41097C20.8103 8.89763 21.5572 9.77497 21.8724 10.7779C22.4408 12.5861 21.4387 14.567 19.5605 15.3483C18.5527 15.7675 17.0854 15.688 16.0617 15.1585C15.852 15.05 15.7863 14.9998 15.8266 14.9783C15.8985 14.9399 16.016 14.8734 16.0309 14.8627C16.0393 14.8565 16.0844 14.8308 16.131 14.8053C16.2355 14.7484 16.2608 14.7341 16.6628 14.5039C16.8408 14.402 17.0246 14.2977 17.0713 14.2723C17.1848 14.2104 17.1945 14.2016 17.1945 14.1612C17.1945 14.0851 17.101 14.0686 16.8865 14.107C16.8398 14.1154 16.7252 14.1328 16.632 14.1458C16.4243 14.1749 16.2284 14.2058 16.0501 14.2377C15.9759 14.2509 15.858 14.2717 15.7881 14.2838C15.3288 14.3632 14.3687 14.5769 13.95 14.693C13.8822 14.7118 13.792 14.736 13.7496 14.7468C13.4824 14.8149 13.0523 14.9532 13.026 14.9795C12.9165 15.0891 13.0155 15.2353 13.5538 15.7592C14.2716 16.4576 14.9135 16.8764 15.7717 17.2063C16.044 17.3109 16.503 17.4362 16.8632 17.5042C17.6789 17.6581 18.8595 17.6185 19.5528 17.4139C19.591 17.4027 19.6673 17.3815 19.7224 17.3667C19.8777 17.3253 20.215 17.2118 20.3621 17.1514C20.396 17.1375 20.4443 17.1179 20.4694 17.1079C21.3113 16.7742 22.2645 16.0221 22.8758 15.2093C22.9791 15.072 23.1905 14.7593 23.1905 14.7439C23.1905 14.7384 23.2002 14.723 23.212 14.7096C23.2545 14.6618 23.458 14.2676 23.5668 14.0224C23.5893 13.9716 23.6145 13.9179 23.6226 13.9032C23.6308 13.8885 23.6375 13.8677 23.6375 13.857C23.6376 13.8463 23.6477 13.8181 23.6602 13.7943C23.6726 13.7706 23.6895 13.7289 23.6978 13.7018C23.7062 13.6747 23.7278 13.6109 23.746 13.5601C23.7845 13.4526 23.8097 13.3669 23.8593 13.1747C24.1236 12.1525 24.0082 11.0575 23.5719 10.4473C23.5655 10.4384 23.5204 10.3746 23.4717 10.3057C23.1995 9.92037 22.7275 9.48894 22.2936 9.229Z" fill="url(#paint0_linear_2218_1712)"/>
<path fill-rule="evenodd" clip-rule="evenodd" d="M1.70643 14.3687C2.52936 14.8616 3.22782 15.1235 4.13117 15.2776C4.39462 15.3225 4.39545 15.3158 4.14272 15.1867C3.18974 14.7 2.44282 13.8227 2.12759 12.8198C1.55924 11.0116 2.56125 9.03066 4.43946 8.24936C5.44734 7.83011 6.91465 7.9097 7.93834 8.43915C8.14803 8.54763 8.21366 8.59789 8.17341 8.61938C8.10148 8.65777 7.98401 8.72429 7.96915 8.735C7.96066 8.74112 7.91558 8.76689 7.86896 8.79233C7.7645 8.84922 7.73918 8.86357 7.33721 9.09379C7.15915 9.1957 6.97536 9.29991 6.92874 9.32536C6.81516 9.38722 6.80547 9.39602 6.80547 9.43645C6.80547 9.5126 6.89902 9.52905 7.11349 9.49066C7.16024 9.4823 7.27478 9.46483 7.36802 9.45182C7.57573 9.4228 7.77164 9.39187 7.94989 9.35998C8.02406 9.34672 8.14197 9.32599 8.21187 9.31388C8.67123 9.23448 9.63135 9.02071 10.05 8.90464C10.1178 8.88583 10.208 8.86166 10.2504 8.85081C10.5176 8.78277 10.9477 8.64451 10.974 8.61817C11.0835 8.5086 10.9845 8.36231 10.4462 7.83847C9.72841 7.14008 9.08646 6.72121 8.22832 6.39138C7.95601 6.28672 7.49697 6.16141 7.13684 6.09342C6.3211 5.93954 5.14046 5.97914 4.44717 6.18373C4.40904 6.19495 4.3327 6.21619 4.2776 6.23092C4.12231 6.27231 3.78501 6.38583 3.63795 6.44629C3.60402 6.46019 3.55568 6.47977 3.53055 6.48972C2.68873 6.82344 1.73551 7.57559 1.12417 8.38833C1.02092 8.52563 0.809512 8.83831 0.809512 8.85375C0.809512 8.85923 0.799818 8.87467 0.787956 8.88806C0.745482 8.93589 0.541981 9.33007 0.433183 9.57522C0.410671 9.62605 0.385479 9.67975 0.377381 9.69441C0.369216 9.70915 0.362519 9.72994 0.362457 9.74065C0.362393 9.75136 0.352253 9.77955 0.339819 9.80334C0.327446 9.82706 0.310481 9.86871 0.30219 9.89581C0.293835 9.92292 0.272154 9.98675 0.253978 10.0376C0.215523 10.145 0.190331 10.2308 0.140652 10.423C-0.123628 11.4451 -0.00819535 12.5402 0.428082 13.1503C0.434522 13.1592 0.47961 13.223 0.52827 13.292C0.800457 13.6773 1.27251 14.1087 1.70643 14.3687Z" fill="url(#paint1_linear_2218_1712)"/>
<path fill-rule="evenodd" clip-rule="evenodd" d="M19.7991 6.23419C19.5077 6.14816 19.2431 6.09083 18.9129 6.04204C18.4964 5.98057 17.735 5.98745 17.3099 6.05652C16.5895 6.17361 16.0154 6.36735 15.3971 6.70217C15.1445 6.83896 14.5387 7.23806 14.4815 7.3054C14.4772 7.31038 14.4252 7.3524 14.366 7.39883C13.9678 7.71062 13.341 8.34058 12.9553 8.81653C12.9175 8.86314 12.8828 8.90479 12.8782 8.909C12.8604 8.92526 12.5562 9.31294 12.4238 9.48806C12.1679 9.82638 11.8752 10.2365 11.2475 11.1363C10.9044 11.628 10.6084 12.0511 10.5898 12.0765C10.2326 12.5636 9.93404 12.9616 9.73436 13.2171C9.67057 13.2987 9.63603 13.343 9.60068 13.3867C9.55481 13.4433 9.50757 13.4988 9.3933 13.6333C9.15293 13.9163 8.87277 14.2021 8.54676 14.4972C7.06313 15.84 4.42187 16.0207 2.21223 14.9305C1.80504 14.7296 1.10289 14.2802 0.994535 14.1511C0.990326 14.1461 0.945238 14.1073 0.894346 14.065C0.748559 13.9439 0.67962 13.8793 0.450098 13.6487C0.294362 13.4923 0.237539 13.4435 0.243598 13.4714C0.254631 13.5225 0.327524 13.7246 0.364194 13.8059C0.380265 13.8414 0.393403 13.8772 0.393403 13.8855C0.393403 13.8938 0.403607 13.9202 0.415979 13.9442C0.428415 13.9682 0.484663 14.0849 0.540975 14.2036C0.671776 14.4793 0.823876 14.7354 1.05722 15.0731C1.81888 16.1755 3.15271 17.0814 4.50701 17.4162C5.75302 17.7243 6.98787 17.6134 8.20812 17.0835C8.53018 16.9437 9.27072 16.5056 9.43354 16.3585C9.4505 16.3432 9.49208 16.3102 9.52601 16.2851C10.3808 15.6541 11.3638 14.5076 12.6257 12.6699C12.974 12.1627 12.9776 12.1576 13.11 11.9728C13.1692 11.8903 13.2176 11.8163 13.2176 11.8083C13.2176 11.8004 13.2227 11.7916 13.2291 11.7888C13.2355 11.786 13.2615 11.7524 13.2869 11.7143C13.3123 11.6761 13.3385 11.638 13.3449 11.6295C13.4105 11.5439 13.4642 11.4679 13.4642 11.461C13.4642 11.4564 13.4867 11.4222 13.5142 11.3851C13.5418 11.348 13.5761 11.3012 13.5904 11.2809C13.8543 10.9088 13.9728 10.7435 13.9928 10.7191C14.0063 10.7027 14.0884 10.5956 14.1752 10.4812C14.262 10.3667 14.337 10.2697 14.3418 10.2654C14.3466 10.2612 14.3921 10.2057 14.4429 10.1421C14.4937 10.0785 14.54 10.023 14.5457 10.0187C14.5513 10.0144 14.578 9.98314 14.6048 9.94934C14.7516 9.76446 15.1809 9.33016 15.4121 9.13252C15.4617 9.09011 15.5102 9.04802 15.5198 9.03897C15.7817 8.7921 16.3909 8.42801 16.8472 8.24575C18.3341 7.65176 20.5199 7.88128 22.1112 8.79854C22.1918 8.84497 22.2814 8.89631 22.3104 8.91263C22.4541 8.9935 22.9428 9.33475 22.9898 9.38705C22.994 9.39177 23.0183 9.41153 23.0436 9.43105C23.1618 9.52186 23.2793 9.62977 23.5202 9.8686C23.6635 10.0107 23.7827 10.125 23.7852 10.1225C23.7876 10.1201 23.7722 10.0697 23.7509 10.0106C23.7296 9.95157 23.7064 9.88589 23.6993 9.86465C23.6862 9.82536 23.6469 9.72747 23.6219 9.67199C23.6143 9.65502 23.5932 9.60649 23.5751 9.56408C23.4644 9.30452 23.2322 8.88476 23.0746 8.65958C22.9568 8.49134 22.8296 8.31488 22.8209 8.30786C22.8157 8.30366 22.7666 8.24473 22.7118 8.177C22.575 8.00787 22.2115 7.63684 22.0342 7.48544C21.9536 7.41669 21.8842 7.35617 21.88 7.35094C21.8719 7.34105 21.7572 7.25202 21.6257 7.15369C21.2601 6.88029 20.7487 6.5912 20.3463 6.43043C20.0512 6.31244 19.9907 6.29076 19.7991 6.23419Z" fill="url(#paint2_linear_2218_1712)"/>
</g>
<defs>
<linearGradient id="paint0_linear_2218_1712" x1="22.8309" y1="9.06021" x2="13.6794" y2="17.6059" gradientUnits="userSpaceOnUse">
<stop stop-color="#49CC90"/>
<stop offset="1" stop-color="#1DD6C9"/>
</linearGradient>
<linearGradient id="paint1_linear_2218_1712" x1="1.75388" y1="15.3107" x2="11.033" y2="7.33898" gradientUnits="userSpaceOnUse">
<stop stop-color="#CCFA95"/>
<stop offset="1" stop-color="#5DD376"/>
</linearGradient>
<linearGradient id="paint2_linear_2218_1712" x1="0.254686" y1="14.1312" x2="23.7872" y2="14.1312" gradientUnits="userSpaceOnUse">
<stop stop-color="#B2F04A"/>
<stop offset="0.539118" stop-color="#26BBCD"/>
<stop offset="1" stop-color="#005E9E"/>
</linearGradient>
<clipPath id="clip0_2218_1712">
<rect width="24" height="24" fill="white"/>
</clipPath>
</defs>
</svg>
