<svg width="24" height="24" viewBox="0 0 24 24" fill="none" xmlns="http://www.w3.org/2000/svg">
<path d="M24 12C24 17.4873 20.3171 22.1142 15.2882 23.5434C15.287 23.544 15.2864 23.5446 15.2852 23.5446C14.907 23.6521 14.5208 23.7414 14.1286 23.8118C13.4377 23.9356 12.7267 24 12.0006 24C11.7924 24 11.5847 23.9945 11.3789 23.9842C10.6188 23.9454 9.87746 23.8361 9.16104 23.6618C3.90326 22.3862 0 17.6494 0 12C0 9.56357 0.726132 7.29653 1.97379 5.40349C2.74485 4.23415 3.71444 3.2081 4.83521 2.37268C5.28996 2.0339 5.76899 1.72669 6.26987 1.45348H6.27048C7.69906 0.67574 9.3025 0.179712 11.0079 0.040678C11.3352 0.0133569 11.6661 0 12 0C18.6275 0 24 5.37253 24 12Z" fill="#226769"/>
<path d="M19.2815 18.8956C18.5639 21.5293 16.7048 22.8784 15.2878 23.5438C15.2866 23.5444 15.286 23.545 15.2847 23.545C14.9065 23.6524 14.5204 23.7417 14.1281 23.8121C14.8519 23.406 16.0291 22.6762 16.6702 21.9106C17.6392 20.7528 18.1911 18.2089 16.2932 15.4901C14.3953 12.7714 10.1156 10.5772 7.14065 7.36001C4.99504 5.04016 5.7066 2.62194 6.26941 1.45382H6.27002C7.6986 0.676078 9.30204 0.180049 11.0075 0.0410156C10.4392 0.38526 9.70882 1.00089 9.49633 1.96259C9.13265 3.60489 11.0846 5.61025 13.1573 7.15845C15.2301 8.70603 17.397 10.5232 17.9488 11.2906C18.5007 12.058 20.5061 14.3997 19.2815 18.8956Z" fill="white"/>
<path d="M12.8345 23.0945C12.6857 23.2032 11.8242 23.7193 11.3779 23.9846C10.6178 23.9457 9.8765 23.8364 9.16009 23.6622C9.52011 23.3914 10.5273 22.5548 10.6269 21.6277C10.7483 20.4972 10.4114 18.9897 8.52745 17.3073C6.64291 15.6243 5.01397 14.9516 3.78938 13.673C2.56479 12.3944 1.60916 10.927 1.42034 9.08309C1.28799 7.78504 1.57516 6.48031 1.97344 5.40386C2.7445 4.23452 3.71409 3.20846 4.83486 2.37305C4.08141 3.22121 3.25692 4.45369 3.3316 5.73171C3.46638 8.04671 4.24716 9.50019 7.89482 12.1789C11.5425 14.8575 13.5072 15.988 14.5035 18.7608C15.4992 21.5336 13.036 22.947 12.8345 23.0945Z" fill="white"/>
</svg>
