<svg width="24" height="24" viewBox="0 0 24 24" fill="none" xmlns="http://www.w3.org/2000/svg">
<g clip-path="url(#clip0_2370_2918)">
<path d="M11.9987 23.9994C18.626 23.9994 23.9984 18.627 23.9984 11.9997C23.9984 5.37245 18.626 0 11.9987 0C5.37147 0 -0.000976562 5.37245 -0.000976562 11.9997C-0.000976562 18.627 5.37147 23.9994 11.9987 23.9994Z" fill="black"/>
<path d="M13.4269 2.26232V11.2912H10.5936C10.5871 11.1914 10.5757 11.0964 10.5757 11.0019C10.5745 8.77653 10.5775 6.55053 10.5703 4.32513C10.5697 4.1213 10.6331 4.00414 10.807 3.89714C11.6696 3.36934 12.5237 2.82718 13.4269 2.26172V2.26232Z" fill="white"/>
<path d="M8.17467 8.01172C8.17467 9.33512 8.17467 10.6268 8.17467 11.918C8.17467 12.9814 8.17885 14.0441 8.16869 15.1075C8.1675 15.2187 8.11729 15.3747 8.0348 15.4333C7.15193 16.0573 6.2583 16.6653 5.32702 17.3066C5.31865 17.1793 5.3067 17.0879 5.3067 16.997C5.3055 14.6718 5.30371 12.3472 5.31208 10.0219C5.31208 9.90417 5.37006 9.73501 5.45852 9.67823C6.31688 9.12233 7.1872 8.58436 8.05512 8.0428C8.07784 8.02905 8.10832 8.02846 8.17467 8.01232V8.01172Z" fill="white"/>
<path d="M15.7163 17.277V16.9787C15.7163 14.6637 15.7193 12.3492 15.7109 10.0342C15.7103 9.82734 15.7779 9.71317 15.9494 9.60796C16.8114 9.07956 17.6662 8.5392 18.5634 7.97852C18.5717 8.10524 18.5837 8.19669 18.5837 8.28815C18.5849 10.5536 18.5867 12.8184 18.5783 15.0839C18.5783 15.2028 18.5245 15.3702 18.4372 15.4324C17.5801 16.0427 16.7104 16.6356 15.843 17.2328C15.8203 17.2483 15.7892 17.2519 15.7157 17.2776L15.7163 17.277Z" fill="white"/>
<path d="M10.5469 21.837V13.6855H13.3999C13.4047 13.7818 13.4137 13.8786 13.4137 13.9749C13.4142 15.8434 13.4119 17.7119 13.4178 19.5805C13.4184 19.7795 13.3634 19.9033 13.1919 20.0192C12.3192 20.6062 11.4572 21.2093 10.5469 21.837Z" fill="white"/>
</g>
<defs>
<clipPath id="clip0_2370_2918">
<rect width="24" height="24" fill="white" transform="translate(-0.000976562)"/>
</clipPath>
</defs>
</svg>
