<svg width="24" height="24" viewBox="0 0 24 24" fill="none" xmlns="http://www.w3.org/2000/svg">
<g clip-path="url(#clip0_2374_5012)">
<circle cx="12" cy="12" r="12" fill="#FC6F6F"/>
<path fill-rule="evenodd" clip-rule="evenodd" d="M8.44455 3.48242C7.95363 3.48242 7.55566 3.88039 7.55566 4.37131V12.075V16.3713C7.55566 16.8622 7.95363 17.2602 8.44455 17.2602C8.93547 17.2602 9.33344 16.8622 9.33344 16.3713V12.075C9.33344 10.544 10.5445 9.33427 12.0001 9.33427C13.4557 9.33427 14.6668 10.544 14.6668 12.075V16.3713C14.6668 16.8622 15.0647 17.2602 15.5557 17.2602C16.0466 17.2602 16.4446 16.8622 16.4446 16.3713V12.075V11.9269C16.4446 11.8875 16.442 11.8488 16.437 11.8108C16.3028 9.45351 14.3835 7.5565 12.0001 7.5565C10.9959 7.5565 10.0741 7.89327 9.33344 8.45935V4.37131C9.33344 3.88039 8.93547 3.48242 8.44455 3.48242ZM9.33344 19.3343C9.33344 19.8252 8.93547 20.2232 8.44455 20.2232C7.95363 20.2232 7.55566 19.8252 7.55566 19.3343C7.55566 18.8434 7.95363 18.4454 8.44455 18.4454C8.93547 18.4454 9.33344 18.8434 9.33344 19.3343ZM16.4446 19.3343C16.4446 19.8252 16.0466 20.2232 15.5557 20.2232C15.0647 20.2232 14.6668 19.8252 14.6668 19.3343C14.6668 18.8434 15.0647 18.4454 15.5557 18.4454C16.0466 18.4454 16.4446 18.8434 16.4446 19.3343Z" fill="white"/>
</g>
<defs>
<clipPath id="clip0_2374_5012">
<rect width="24" height="24" fill="white"/>
</clipPath>
</defs>
</svg>
