<svg width="24" height="24" viewBox="0 0 24 24" fill="none" xmlns="http://www.w3.org/2000/svg">
<g clip-path="url(#clip0_2622_2499)">
<path fill-rule="evenodd" clip-rule="evenodd" d="M12 0C18.628 0 24 5.372 24 12C24 18.628 18.628 24 12 24C5.372 24 0 18.628 0 12C0 5.372 5.372 0 12 0Z" fill="#1EEFA4"/>
<path d="M13.1846 14.4774C13.1846 13.8824 13.6666 13.4004 14.2606 13.4004H14.6916C15.2866 13.4004 15.7686 13.8824 15.7686 14.4774V14.9074C15.7686 15.5024 15.2866 15.9854 14.6916 15.9854H14.2616C13.9759 15.9854 13.702 15.872 13.5 15.67C13.298 15.468 13.1846 15.1941 13.1846 14.9084V14.4774ZM14.2606 9.52344C13.6666 9.52344 13.1846 10.0054 13.1846 10.6004V11.0304C13.1846 11.6264 13.6666 12.1084 14.2606 12.1084H14.6916C15.2866 12.1084 15.7686 11.6264 15.7686 11.0314V10.6004C15.7686 10.0054 15.2866 9.52344 14.6916 9.52344H14.2616H14.2606Z" fill="#141E21"/>
<path fill-rule="evenodd" clip-rule="evenodd" d="M9.308 5C8.16545 5 7.06969 5.45388 6.26178 6.26178C5.45388 7.06969 5 8.16545 5 9.308V14.692C5 15.8346 5.45388 16.9303 6.26178 17.7382C7.06969 18.5461 8.16545 19 9.308 19H14.692C15.8346 19 16.9303 18.5461 17.7382 17.7382C18.5461 16.9303 19 15.8346 19 14.692V9.308C19 8.16545 18.5461 7.06969 17.7382 6.26178C16.9303 5.45388 15.8346 5 14.692 5H9.308ZM14.692 6.723H9.308C8.62242 6.723 7.96491 6.99535 7.48013 7.48013C6.99535 7.96491 6.723 8.62242 6.723 9.308V14.692C6.723 15.0315 6.78986 15.3676 6.91977 15.6812C7.04968 15.9949 7.24009 16.2798 7.48013 16.5199C7.72017 16.7599 8.00514 16.9503 8.31876 17.0802C8.63239 17.2101 8.96853 17.277 9.308 17.277H14.692C15.0315 17.277 15.3676 17.2101 15.6812 17.0802C15.9949 16.9503 16.2798 16.7599 16.5199 16.5199C16.7599 16.2798 16.9503 15.9949 17.0802 15.6812C17.2101 15.3676 17.277 15.0315 17.277 14.692V9.308C17.277 8.96853 17.2101 8.63239 17.0802 8.31876C16.9503 8.00514 16.7599 7.72017 16.5199 7.48013C16.2798 7.24009 15.9949 7.04968 15.6812 6.91977C15.3676 6.78986 15.0315 6.723 14.692 6.723Z" fill="#141E21"/>
</g>
<defs>
<clipPath id="clip0_2622_2499">
<rect width="24" height="24" fill="white"/>
</clipPath>
</defs>
</svg>
