<svg width="24" height="24" viewBox="0 0 24 24" fill="none" xmlns="http://www.w3.org/2000/svg">
<g clip-path="url(#clip0_720_17779)">
<path d="M12.0372 23.9474C18.5859 23.9474 23.8947 18.6386 23.8947 12.0899C23.8947 5.5412 18.5859 0.232422 12.0372 0.232422C5.48847 0.232422 0.179688 5.5412 0.179688 12.0899C0.179688 18.6386 5.48847 23.9474 12.0372 23.9474Z" fill="#302874"/>
<path d="M8.66992 21.1956C8.66992 21.1956 9.34492 20.7606 10.1699 20.4606C10.9949 20.1606 12.0449 20.0706 12.0449 20.0706C12.0449 20.0706 13.0949 20.1606 13.9199 20.4606C14.7449 20.7606 15.4199 21.1956 15.4199 21.1956L12.0524 18.5781L8.66992 21.1956Z" fill="white"/>
<path d="M7.97984 20.9547L10.9273 18.5772C10.9273 18.5772 10.7023 18.3672 10.4173 17.9622C10.1323 17.5572 10.2073 16.2372 10.2073 16.2372L10.1998 2.99219C10.1998 2.99219 9.58484 6.37469 9.13484 7.70969C8.68484 9.04469 7.96484 9.89219 7.96484 9.89219C7.96484 9.89219 8.30984 10.1022 8.63984 10.8972C8.96984 11.6922 8.80484 17.0097 8.77484 18.0672C8.74484 19.1322 7.97984 20.9547 7.97984 20.9547Z" fill="white"/>
<path d="M15.4346 10.8972C15.7646 10.1022 16.1096 9.89219 16.1096 9.89219C16.1096 9.89219 15.3896 9.03719 14.9396 7.70969C14.4896 6.37469 13.8746 2.99219 13.8746 2.99219L13.8596 16.2447C13.8596 16.2447 13.9346 17.5647 13.6496 17.9697C13.3646 18.3747 13.1396 18.5847 13.1396 18.5847L16.0871 20.9622C16.0871 20.9622 15.3221 19.1322 15.2921 18.0747C15.2696 17.0022 15.1046 11.6847 15.4346 10.8972Z" fill="white"/>
<path d="M12.0375 5.09961C12.18 8.27961 12.18 11.5046 12.0375 14.6846C11.895 11.5046 11.895 8.27961 12.0375 5.09961Z" fill="white"/>
</g>
<defs>
<clipPath id="clip0_720_17779">
<rect width="24" height="24" fill="white"/>
</clipPath>
</defs>
</svg>
