<svg width="24" height="24" viewBox="0 0 24 24" fill="none" xmlns="http://www.w3.org/2000/svg">
<g clip-path="url(#clip0_860_366)">
<path d="M12.0006 24.0012C18.6283 24.0012 24.0012 18.6283 24.0012 12.0006C24.0012 5.37284 18.6283 0 12.0006 0C5.37284 0 0 5.37284 0 12.0006C0 18.6283 5.37284 24.0012 12.0006 24.0012Z" fill="#0C2029"/>
<path d="M4.49414 5.83047C4.58173 5.83047 4.62961 5.82229 4.67866 5.82229C5.07222 5.82229 5.46694 5.82229 5.8605 5.82229C5.90592 5.82173 5.95082 5.83205 5.99145 5.85237C6.03208 5.87268 6.06726 5.9024 6.09406 5.93907C6.49113 6.40036 6.89519 6.85582 7.29225 7.31711C7.89369 8.01781 8.48928 8.7185 9.09071 9.4192C9.46908 9.85947 9.85563 10.2916 10.2352 10.7295C10.5166 11.0542 10.7969 11.3812 11.0725 11.7117C11.1459 11.8027 11.185 11.9166 11.1831 12.0335C11.1812 12.1505 11.1383 12.263 11.062 12.3516C10.8284 12.6272 10.575 12.8947 10.3379 13.1691C10.1009 13.4435 9.87082 13.7273 9.63725 14.0041C9.33946 14.3544 9.03465 14.6954 8.73686 15.0446C8.50329 15.3179 8.2779 15.5982 8.04433 15.8714C7.79325 16.1634 7.53516 16.4484 7.28174 16.7391C6.89169 17.1888 6.50397 17.643 6.11392 18.0915C6.07204 18.1402 6.01314 18.1711 5.94925 18.1779C5.50081 18.1849 5.05353 18.1779 4.60508 18.1779C4.56787 18.1734 4.53113 18.1656 4.49531 18.1545C4.51327 18.1192 4.53437 18.0856 4.55837 18.0541C4.82347 17.7528 5.09207 17.4562 5.35483 17.1514C5.70518 16.7438 7.42422 14.7445 7.80727 14.296C8.35225 13.6678 8.89724 13.0383 9.44222 12.4077C9.6828 12.1286 9.67579 11.8343 9.42821 11.5598C9.05996 11.1449 8.69365 10.7283 8.32929 10.3103C8.06536 10.0078 7.8061 9.70065 7.54567 9.39585C7.19533 8.98244 6.84498 8.56551 6.48295 8.15326C6.24939 7.8835 6.00881 7.62192 5.77642 7.35332C5.54402 7.08472 5.30928 6.80444 5.07572 6.53584C4.91689 6.35016 4.7534 6.16915 4.59341 5.98463C4.55741 5.93518 4.52427 5.8837 4.49414 5.83047Z" fill="#00BAD0"/>
<path d="M19.4828 5.88491C19.366 6.02271 19.2492 6.16013 19.1324 6.29715C18.9105 6.55252 18.6879 6.80789 18.4644 7.06325C18.0755 7.5082 17.6866 7.95547 17.2966 8.39924C16.8295 8.9306 16.3623 9.45964 15.8952 9.98983C15.4981 10.4406 15.1026 10.8918 14.7087 11.3433C14.2166 11.907 13.7258 12.4722 13.2361 13.039C13.187 13.0951 13.1321 13.1464 13.0866 13.2048C12.8869 13.4641 12.9499 13.7572 13.1391 13.9733C13.6658 14.5794 14.1832 15.1937 14.7087 15.8021C15.2062 16.379 15.7107 16.9501 16.2105 17.5258C16.3518 17.6881 16.4885 17.854 16.6263 18.0198C16.6543 18.0537 16.6765 18.0922 16.7138 18.1483C16.6651 18.1597 16.6155 18.1675 16.5655 18.1716C16.2093 18.1716 15.8508 18.1448 15.497 18.1716C15.2167 18.1985 15.0567 18.0805 14.8944 17.8832C14.5347 17.4452 14.154 17.0248 13.7861 16.5985C13.4544 16.212 13.1298 15.8196 12.7993 15.4307C12.5867 15.1831 12.366 14.9414 12.1547 14.6915C11.9433 14.4416 11.7284 14.1858 11.5229 13.9254C11.4688 13.8361 11.4431 13.7324 11.4491 13.6282C11.4552 13.5239 11.4927 13.424 11.5567 13.3415C12.0495 12.7661 12.5428 12.1912 13.0364 11.6166C13.7464 10.7898 14.4564 9.96375 15.1665 9.13848C15.741 8.46971 16.3148 7.80013 16.8879 7.1298C17.2183 6.74325 17.5477 6.35437 17.8805 5.96899C17.9196 5.9185 17.9702 5.87815 18.0281 5.85132C18.086 5.82449 18.1496 5.81199 18.2133 5.81485C18.5789 5.82653 18.9432 5.81483 19.3088 5.82184C19.3643 5.82439 19.4196 5.82987 19.4746 5.8382L19.4828 5.88491Z" fill="#00BAD0"/>
<path d="M7.39941 5.85149C7.47205 5.8385 7.54534 5.82954 7.61897 5.82463C7.91793 5.82463 8.21806 5.8398 8.51469 5.81645C8.75877 5.79776 8.90591 5.91221 9.04839 6.08272C9.55445 6.69154 10.064 7.29648 10.5771 7.89752C11.0442 8.44796 11.5195 8.99489 12.003 9.53832C12.1656 9.73143 12.3391 9.91508 12.5227 10.0884C12.5903 10.1479 12.6329 10.2308 12.642 10.3205C12.6511 10.4101 12.626 10.4999 12.5717 10.5719C12.4211 10.7739 12.2471 10.9584 12.0824 11.1499C12.0077 11.2363 11.9563 11.1639 11.9107 11.1137C11.7811 10.9701 11.655 10.8218 11.5289 10.6746C11.2813 10.385 11.0372 10.0907 10.7885 9.80576C10.3992 9.35108 10.006 8.89756 9.60894 8.44522C9.11301 7.87455 8.61668 7.3031 8.11996 6.73086C7.90041 6.47745 7.6867 6.21935 7.47182 5.96243C7.4543 5.9379 7.44029 5.90871 7.39941 5.85149Z" fill="#00BAD0"/>
<path d="M14.6403 14.1313C14.5901 14.0718 14.5306 14.0146 14.4792 13.9597C14.2456 13.6911 14.2363 13.4925 14.4523 13.2157C14.5528 13.0861 14.673 12.9717 14.7817 12.8479C14.84 12.7802 14.8903 12.7848 14.9463 12.8479L15.4765 13.4563C15.8393 13.876 16.2021 14.2956 16.5649 14.7152C17.0029 15.2233 17.4396 15.7336 17.8787 16.2404C18.2797 16.7076 18.6818 17.1704 19.0851 17.629C19.1937 17.7539 19.3035 17.8765 19.4097 18.0038C19.4454 18.0527 19.4777 18.1038 19.5067 18.1568C19.3432 18.1662 19.2054 18.179 19.0664 18.179C18.7803 18.179 18.4942 18.172 18.2081 18.172C18.1696 18.1732 18.1315 18.1648 18.0971 18.1477C18.0626 18.1306 18.033 18.1052 18.0107 18.0739C17.7514 17.7621 17.4805 17.4608 17.2166 17.1525C16.9118 16.8021 16.6116 16.439 16.308 16.0828C16.0417 15.7745 14.8424 14.3672 14.6403 14.1313Z" fill="#00BAD0"/>
<path d="M16.6247 5.83516C16.5301 5.96012 16.4635 6.05821 16.3911 6.14696C15.9672 6.63979 15.5386 7.12795 15.1159 7.62078C14.6931 8.1136 14.2657 8.62393 13.8394 9.12492C13.7402 9.24171 13.6374 9.35849 13.5358 9.47527C13.4681 9.55235 13.4097 9.54886 13.3443 9.46361C13.2275 9.30712 13.0967 9.15414 12.9682 8.99648C12.9067 8.92079 12.8709 8.82749 12.8658 8.7301C12.8608 8.6327 12.8869 8.53623 12.9402 8.45459C13.0383 8.32146 13.1469 8.19533 13.2544 8.07037C13.788 7.44792 14.3264 6.83131 14.8566 6.20185C15.2548 5.73472 15.0902 5.82814 15.6974 5.81763C15.9509 5.81763 16.2031 5.81763 16.4565 5.81763C16.4939 5.82931 16.5383 5.82932 16.6247 5.83516Z" fill="#00BAD0"/>
<path d="M8.17552 18.1777C7.99334 18.1777 7.81115 18.1777 7.62897 18.1777C7.57812 18.1716 7.52803 18.1602 7.47949 18.1438C7.49254 18.0899 7.51381 18.0383 7.54255 17.9909C7.67335 17.8309 7.81232 17.6779 7.94779 17.5237C8.34252 17.0675 8.73685 16.6101 9.1308 16.1515L10.4785 14.5878C10.4894 14.5699 10.5048 14.5552 10.5231 14.5449C10.5414 14.5347 10.562 14.5293 10.583 14.5293C10.604 14.5293 10.6246 14.5347 10.6429 14.5449C10.6612 14.5552 10.6765 14.5699 10.6875 14.5878C10.8183 14.7373 10.9479 14.8879 11.0729 15.0421C11.1318 15.1252 11.1635 15.2246 11.1635 15.3264C11.1635 15.4283 11.1318 15.5277 11.0729 15.6108C10.7821 15.9612 10.489 16.3115 10.1912 16.6525C9.86303 17.0356 9.53136 17.4163 9.20204 17.7993C9.12328 17.8835 9.04883 17.9716 8.97898 18.0633C8.9473 18.1061 8.90464 18.1395 8.85551 18.1601C8.80638 18.1806 8.7526 18.1875 8.69987 18.18C8.52586 18.18 8.34952 18.18 8.17785 18.18L8.17552 18.1777Z" fill="#00BAD0"/>
</g>
<defs>
<clipPath id="clip0_860_366">
<rect width="24" height="24" fill="white"/>
</clipPath>
</defs>
</svg>
