<svg width="24" height="24" viewBox="0 0 24 24" fill="none" xmlns="http://www.w3.org/2000/svg">
<g clip-path="url(#clip0_720_16487)">
<path d="M15.1265 22.6811C15.0681 22.6226 15.0096 22.5641 14.9511 22.5641C13.6064 22.2718 12.2616 21.804 11.0922 21.1024C8.63656 19.6407 6.99946 17.4774 6.941 14.9633C6.941 14.0278 7.1164 13.0923 7.52566 12.2153C7.75953 11.6306 9.16276 9.64266 9.3382 9.29186C10.2737 7.83016 9.98133 7.94709 8.63656 6.13459L6.7656 3.38659L5.53776 1.51562C4.83613 1.98336 4.13453 2.56803 3.49136 3.15273C2.20506 4.43903 1.21113 6.07613 0.626429 7.83016C0.0417619 9.58419 -0.133638 11.4552 0.100229 13.2677C0.334095 15.0802 1.03573 16.8342 2.08813 18.3544C3.14056 19.8746 4.5438 21.1609 6.12243 22.0379C1.97119 18.9976 0.0417624 14.3786 1.6204 9.75959C2.02966 8.53179 2.67283 7.36243 3.49136 6.30999L4.83613 8.29789C4.8946 8.41482 4.95306 8.53179 4.95306 8.70719C4.95306 8.82413 4.8946 8.99953 4.83613 9.11646C4.193 9.93503 3.66676 10.812 3.31596 11.806C1.56193 16.8927 6.29783 22.1548 11.2676 23.0319C12.2031 23.2073 13.9572 23.3827 14.8927 23.1488C14.9511 23.1488 15.0096 23.0903 15.0096 23.0903C15.0681 23.0319 15.0681 23.0319 15.0681 22.9734C15.0681 22.9149 15.0681 22.8565 15.0681 22.798C15.185 22.798 15.185 22.7395 15.1265 22.6811Z" fill="url(#paint0_linear_720_16487)"/>
<path d="M8.81237 0.580467C8.87084 0.638934 8.92931 0.697401 8.98777 0.697401C10.3325 0.989734 11.6773 1.4575 12.8467 2.1591C15.3023 3.6208 16.9394 5.78413 16.9979 8.29827C16.9979 9.23373 16.8225 10.1692 16.4132 11.0462C16.1793 11.6309 14.7761 13.6188 14.6007 13.9697C13.6652 15.4314 13.9576 15.3144 15.3023 17.1269L17.1733 19.8749L18.4596 21.7459C19.1612 21.2782 19.8628 20.6935 20.506 20.1088C21.7923 18.8225 22.7862 17.1854 23.3709 15.4314C23.9556 13.6773 24.131 11.8063 23.8971 9.99383C23.6633 8.1813 22.9616 6.42727 21.9092 4.9071C20.8568 3.38693 19.4536 2.10063 17.8749 1.2236C22.0262 4.26397 23.9556 8.88293 22.3185 13.5019C21.9092 14.7297 21.2661 15.8991 20.4475 16.9515L19.1027 14.9636C19.0443 14.8467 18.9858 14.7297 18.9858 14.5543C18.9858 14.4374 19.0443 14.262 19.1027 14.1451C19.7459 13.3265 20.2721 12.4495 20.6229 11.4555C22.377 6.3688 17.641 1.10667 12.6713 0.229667C11.7358 0.0542672 9.98174 -0.121166 9.04624 0.112734C8.98777 0.112734 8.92931 0.171201 8.92931 0.171201C8.81237 0.171201 8.75391 0.229668 8.75391 0.288134C8.75391 0.346601 8.75391 0.405068 8.75391 0.463534C8.75391 0.463534 8.75391 0.522001 8.81237 0.580467Z" fill="url(#paint1_linear_720_16487)"/>
</g>
<defs>
<linearGradient id="paint0_linear_720_16487" x1="9.75456" y1="27.399" x2="22.3522" y2="16.7868" gradientUnits="userSpaceOnUse">
<stop stop-color="#174E5B"/>
<stop offset="0.07" stop-color="#195A6C"/>
<stop offset="0.21" stop-color="#1E779A"/>
<stop offset="0.4" stop-color="#27A7E3"/>
<stop offset="0.47" stop-color="#2ABAFF"/>
<stop offset="0.7" stop-color="#1DDAF0"/>
<stop offset="1" stop-color="#0EFFE0"/>
</linearGradient>
<linearGradient id="paint1_linear_720_16487" x1="14.159" y1="-4.1052" x2="1.59231" y2="6.5892" gradientUnits="userSpaceOnUse">
<stop stop-color="#174E5B"/>
<stop offset="0.07" stop-color="#195A6C"/>
<stop offset="0.21" stop-color="#1E779A"/>
<stop offset="0.4" stop-color="#27A7E3"/>
<stop offset="0.47" stop-color="#2ABAFF"/>
<stop offset="0.7" stop-color="#1DDAF0"/>
<stop offset="1" stop-color="#0EFFE0"/>
</linearGradient>
<clipPath id="clip0_720_16487">
<rect width="24" height="24" fill="white"/>
</clipPath>
</defs>
</svg>
