<svg width="24" height="24" viewBox="0 0 24 24" fill="none" xmlns="http://www.w3.org/2000/svg">
<path d="M12 24C18.6274 24 24 18.6274 24 12C24 5.37259 18.6274 0 12 0C5.37259 0 0 5.37259 0 12C0 18.6274 5.37259 24 12 24Z" fill="#00D4D5"/>
<path d="M12.3893 3.75V7.84276L15.9428 5.79901L12.3893 3.75Z" fill="white"/>
<path opacity="0.9" d="M15.9426 5.79785V9.89062L19.4954 7.84161L15.9426 5.79785Z" fill="white"/>
<path opacity="0.8" d="M12.3893 7.84277V11.9355L15.9428 9.89175L12.3893 7.84277ZM15.9428 9.89251V13.9845L19.4955 11.9355L15.9428 9.89251Z" fill="white"/>
<path opacity="0.8" d="M12.3893 11.9355V16.0283L15.9428 13.9845L12.3893 11.9355Z" fill="white"/>
<path d="M15.9426 13.9834V18.0762L19.4954 16.0272L15.9426 13.9834Z" fill="white"/>
<path opacity="0.4" d="M3.20483 7.70508V11.7978L6.75834 9.74883L3.20483 7.70508Z" fill="white"/>
<path opacity="0.2" d="M7.6875 9.22559V13.3183L11.235 11.2746L7.6875 9.22559Z" fill="white"/>
<path opacity="0.3" d="M5.05334 11.8154V15.9082L8.60611 13.8592L5.05334 11.8154Z" fill="white"/>
<path opacity="0.9" d="M7.39502 14.9033V18.9961L10.9425 16.9471L7.39502 14.9033Z" fill="white"/>
<path opacity="0.7" d="M12.3601 16.6641V20.7576L15.9076 18.7078L12.3601 16.6641Z" fill="white"/>
<path opacity="0.9" d="M8.27917 7.2041V11.2976L11.8267 9.25384L8.27917 7.2041Z" fill="white"/>
<path opacity="0.8" d="M12.3891 3.75V7.84276L8.83557 5.79901L12.3891 3.75Z" fill="white"/>
<path opacity="0.6" d="M8.27911 5.49023V9.58224L4.72485 7.53323L8.27911 5.49023Z" fill="white"/>
<path opacity="0.6" d="M11.8327 7.51465V11.6081L8.27917 9.5584L11.8327 7.51465Z" fill="white"/>
<path opacity="0.95" d="M7.67105 9.22559V13.3183L4.11755 11.2746L7.67105 9.22559Z" fill="white"/>
<path opacity="0.6" d="M12.3892 11.9355V16.0283L8.84167 13.9845L12.3892 11.9355Z" fill="white"/>
<path opacity="0.55" d="M5.0535 12.8877V16.9805L1.5 14.9307L5.0535 12.8877Z" fill="white"/>
<path d="M19.4954 7.84277V11.9355L15.9426 9.89175L19.4954 7.84277Z" fill="white"/>
<path opacity="0.95" d="M15.9428 9.89355V13.9856L12.3893 11.9365L15.9428 9.89355Z" fill="white"/>
<path opacity="0.9" d="M19.4954 11.9355V16.0283L15.9426 13.9845L19.4954 11.9355Z" fill="white"/>
<path opacity="0.7" d="M15.9428 13.9834V18.0762L12.3893 16.0272L15.9428 13.9834Z" fill="white"/>
<path opacity="0.4" d="M11.6027 15.6914V19.7842L8.04993 17.7404L11.6027 15.6914Z" fill="white"/>
<path d="M15.9428 5.79785V9.89062L12.3893 7.84161L15.9428 5.79785Z" fill="white"/>
</svg>
