<svg width="24" height="24" viewBox="0 0 24 24" fill="none" xmlns="http://www.w3.org/2000/svg">
<g clip-path="url(#clip0_1302_3036)">
<path d="M20.2823 10.3524C20.2352 9.97595 20.2352 9.55242 20.2352 9.17595C20.1411 9.17595 20.094 9.22301 19.9999 9.22301C19.247 9.4583 18.494 9.74066 17.7882 10.2112C17.4117 10.4936 16.9882 10.7759 16.6117 11.0583C16.3764 11.2465 16.1411 11.4348 15.9058 11.623C15.5764 11.4348 15.247 11.2465 14.9176 11.0583C14.3529 10.7289 13.8352 10.4465 13.2705 10.1171C13.3176 10.0701 13.3176 10.023 13.3646 9.97595C13.5529 9.83477 13.7411 9.64654 13.9293 9.50536C14.447 9.08183 15.0117 8.6583 15.6234 8.37595C16.1882 8.0936 16.7999 7.8583 17.3646 7.62301C17.5058 7.57595 17.5999 7.62301 17.694 7.67007C18.0234 7.8583 18.3058 8.04654 18.6352 8.18771C18.9176 8.37595 19.1999 8.51713 19.5293 8.70536C19.7646 8.84654 19.9999 8.98771 20.2352 9.12889C20.2823 9.55242 20.2823 9.97595 20.2823 10.3524Z" fill="#F1716A"/>
<path d="M15.9525 21.0357C15.9525 21.1298 15.9525 21.224 15.9525 21.3651C15.9996 21.5534 15.9054 21.6004 15.7643 21.6946C14.776 22.2593 13.7878 22.824 12.7525 23.4357C12.7054 23.4357 12.7054 23.4828 12.6584 23.4828C12.6584 23.4828 12.6584 23.4828 12.6113 23.4828C12.6113 22.7769 12.6113 22.024 12.6113 21.3181C12.8937 21.1769 13.176 20.9887 13.4584 20.8475C14.0702 20.471 14.6819 20.1416 15.2937 19.7651C15.4819 19.671 15.6702 19.5298 15.8584 19.3887C15.8584 19.4357 15.9054 19.4828 15.9054 19.5298C15.9525 20.0475 15.9525 20.5181 15.9525 21.0357Z" fill="#3C1B26"/>
<path d="M12.6586 21.318C12.6586 22.0239 12.6586 22.7768 12.6586 23.4827C12.6586 23.4827 12.6586 23.4827 12.6116 23.4827C12.3763 23.3415 12.1881 23.2004 11.9528 23.0592C10.6822 22.3063 9.36452 21.5533 8.09393 20.8004C8.09393 20.8004 8.04688 20.8004 8.04688 20.7533C8.04688 20.7533 8.04687 20.7063 8.09393 20.7063C8.56452 20.4239 8.98805 20.1886 9.45864 19.9062C9.55276 19.9533 9.69393 20.0474 9.78805 20.0945C9.78805 20.0945 9.78805 20.0945 9.83511 20.0945C9.92923 20.1415 10.0233 20.1886 10.1175 20.2357C10.2116 20.2827 10.3528 20.3768 10.4469 20.4239C10.541 20.471 10.6351 20.518 10.7292 20.5651C10.7292 20.5651 10.7292 20.5651 10.7763 20.6121C10.9175 20.7062 11.0116 20.7533 11.1528 20.8474C11.1528 20.8474 11.1528 20.8474 11.1998 20.8945C11.1998 20.8945 11.1998 20.8945 11.2469 20.8945C11.341 20.9415 11.4351 21.0357 11.5292 21.0827C11.5763 21.1298 11.6704 21.1298 11.7175 21.1768C11.8116 21.1298 11.8586 21.0827 11.9528 21.0827C12.0469 21.0357 12.0939 20.9886 12.1881 20.9886C12.2822 21.0827 12.4704 21.1768 12.6586 21.318Z" fill="#2A131B"/>
<path d="M3.29395 17.0356C3.29395 16.8474 3.29395 16.6591 3.29395 16.5179C3.29395 16.5179 3.29395 16.5179 3.341 16.5179C3.341 16.6121 3.341 16.7062 3.341 16.8474C3.48218 16.8003 3.5763 16.7532 3.62336 16.7062C3.52924 16.6121 3.48218 16.565 3.43512 16.5179C3.48218 16.4709 3.5763 16.4709 3.62336 16.4238C3.67042 16.4238 3.71747 16.4709 3.76453 16.565C3.71747 16.6121 3.71747 16.6121 3.67042 16.6591C3.76453 16.7062 3.81159 16.8003 3.90571 16.8474C3.95277 16.9415 3.99983 17.0356 4.04689 17.1297C3.85865 17.2238 3.71747 17.2709 3.5763 17.365C3.48218 17.2238 3.43512 17.0827 3.341 16.9415C3.341 16.9415 3.29395 16.9885 3.29395 17.0356Z" fill="#9E3D63"/>
<path d="M3.29395 17.0357C3.29395 16.9886 3.341 16.9416 3.341 16.8945C3.43512 17.0357 3.48218 17.1769 3.5763 17.3181C3.62336 17.4122 3.67042 17.5063 3.71747 17.5534C3.76453 17.6945 3.85865 17.8357 3.90571 18.0239C3.76453 17.9298 3.67042 17.8828 3.52924 17.7886H3.48218C3.43512 17.6475 3.341 17.5063 3.29395 17.3651C3.29395 17.2239 3.29395 17.1298 3.29395 17.0357Z" fill="#91314B"/>
<path d="M3.341 16.4705C3.29395 16.4705 3.29395 16.4705 3.341 16.4705C3.29395 16.4705 3.29395 16.4234 3.29395 16.3764C3.38806 16.3293 3.52924 16.2352 3.62336 16.1881C3.76453 16.1411 3.85865 16.094 3.95277 15.9999C3.95277 15.9999 3.95277 15.9999 3.99983 15.9528C3.99983 15.9528 4.04689 15.9528 4.04689 15.9058C4.04689 15.9058 4.09395 15.9058 4.09395 15.8587C4.09395 15.8587 4.141 15.8587 4.141 15.8117C4.141 15.8117 4.141 15.8117 4.18806 15.8117C4.28218 15.7646 4.28218 15.8587 4.32924 15.9058C4.18806 15.9999 4.04689 16.094 3.90571 16.1411C3.81159 16.1881 3.71748 16.2352 3.67042 16.2822C3.62336 16.3293 3.52924 16.3293 3.48218 16.3764C3.38806 16.4705 3.38806 16.4705 3.341 16.4705Z" fill="#C85064"/>
<path d="M3.29395 17.3184C3.341 17.4595 3.43512 17.6007 3.48218 17.7419C3.43512 17.6948 3.341 17.6948 3.29395 17.6478C3.29395 17.5537 3.29395 17.4595 3.29395 17.3184Z" fill="#A24741"/>
<path d="M3.62402 4.61123C4.09461 4.32888 4.5652 4.04653 5.08285 3.76417C7.20049 2.54064 9.3652 1.31711 11.4828 0.0465263C11.577 -0.000532473 11.6711 -0.0475913 11.7652 0.0465263C14.3534 1.55241 16.9417 3.05829 19.5299 4.56417L19.577 4.61123C19.5299 4.65829 19.4828 4.70535 19.4358 4.70535C18.9181 4.9877 18.4005 5.31711 17.8828 5.59947C17.2711 5.97594 16.6123 6.30535 16.0005 6.68182C15.3887 7.01123 14.777 7.3877 14.1652 7.71711C13.5534 8.04653 12.9417 8.423 12.3299 8.75241C12.0476 8.89359 11.8123 9.03476 11.5299 9.17594C11.4358 9.12888 11.3417 9.08182 11.2476 9.03476C10.0711 8.32888 8.84755 7.67006 7.67108 6.96417C6.44755 6.25829 5.27108 5.55241 4.04755 4.84653C3.95344 4.79947 3.7652 4.70535 3.62402 4.61123Z" fill="#F1716A"/>
<path d="M3.62345 4.61133C3.76463 4.70545 3.95287 4.79956 4.09404 4.89368C5.31757 5.59956 6.49404 6.30545 7.71757 7.01133C8.89404 7.71721 10.1176 8.37603 11.294 9.08192C11.3882 9.12897 11.4823 9.17603 11.5764 9.22309C11.5764 9.31721 11.5764 9.36427 11.5764 9.45839C11.5764 10.3996 11.5764 11.3407 11.5764 12.329C11.4823 12.2819 11.3882 12.2349 11.294 12.1878C10.5882 11.8113 9.92934 11.3878 9.22345 11.0113C8.89404 10.8231 8.51757 10.6349 8.18816 10.3996C8.18816 10.3996 8.18816 10.3525 8.1411 10.3525C7.81169 10.1643 7.52934 10.0231 7.19992 9.83486C6.7764 9.59956 6.35287 9.31721 5.92934 9.08192C5.27051 8.70545 4.61169 8.32897 3.95287 7.9525C3.71757 7.81133 3.5764 7.71721 3.62345 7.43486C3.62345 6.5878 3.62345 5.69368 3.62345 4.84662C3.5764 4.70545 3.62345 4.65839 3.62345 4.61133Z" fill="#A24741"/>
<path d="M11.5762 12.2819C11.5762 11.3407 11.5762 10.3996 11.5762 9.41133C11.5762 9.31721 11.5762 9.27015 11.5762 9.17603C11.8585 9.03486 12.0938 8.89368 12.3762 8.7525C12.9879 8.42309 13.5997 8.04662 14.2115 7.71721C14.8232 7.3878 15.435 7.01133 16.0468 6.68192C16.6585 6.30545 17.3173 5.97603 17.9291 5.59956C18.4468 5.31721 18.9644 4.9878 19.4821 4.70545C19.5291 4.65839 19.5762 4.65839 19.6232 4.61133C19.6232 4.65839 19.6703 4.70545 19.6703 4.7525C19.6703 5.69368 19.6703 6.63486 19.6703 7.57603C19.6703 7.62309 19.6703 7.67015 19.6703 7.71721C19.3879 7.90545 19.1056 8.04662 18.7762 8.23486C18.4468 8.04662 18.1644 7.85839 17.835 7.71721C17.7409 7.67015 17.5997 7.62309 17.5056 7.67015C16.9409 7.90545 16.3291 8.14074 15.7644 8.42309C15.1526 8.70545 14.5879 9.12897 14.0703 9.5525C13.8821 9.69368 13.6938 9.88192 13.5056 10.0231C13.4585 10.0702 13.4585 10.1172 13.4115 10.1643C13.4115 10.2113 13.3644 10.2584 13.3644 10.2584C13.3644 10.6349 13.3644 11.0113 13.3644 11.3407C12.9409 11.576 12.5173 11.8113 12.0938 12.0466C11.9056 12.1407 11.7644 12.1878 11.5762 12.2819Z" fill="#DA5B54"/>
<path d="M3.62318 7.3418C3.57613 7.62415 3.76436 7.76533 3.9526 7.85944C4.61142 8.23591 5.27024 8.61239 5.92907 8.98886C6.3526 9.22415 6.77613 9.5065 7.19966 9.7418C7.01142 9.83591 6.87024 9.97709 6.68201 10.0712C6.68201 10.1183 6.63495 10.1653 6.63495 10.2124C6.63495 10.8712 6.63495 11.483 6.63495 12.1418C6.63495 12.4241 6.58789 12.7065 6.54083 12.9889C6.39966 13.6477 6.1173 14.2594 6.16436 14.9183C6.07024 14.8712 6.02318 14.8712 5.92907 14.8242C5.78789 14.73 5.69377 14.683 5.5526 14.5889C5.36436 14.4477 5.12907 14.3536 4.94083 14.2124C4.84671 14.1653 4.7526 14.1183 4.70554 14.0712C4.5173 13.9771 4.32907 13.883 4.14083 13.7418C3.99966 13.6477 3.81142 13.5536 3.67024 13.4594C3.67024 13.4124 3.62318 13.3653 3.62318 13.3183C3.62318 11.7183 3.62318 10.1183 3.62318 8.51827C3.62318 8.1418 3.62318 7.81239 3.62318 7.43591C3.57613 7.43591 3.57613 7.38886 3.62318 7.3418Z" fill="#886B59"/>
<path d="M18.7295 8.18952C19.0118 8.00129 19.2942 7.86011 19.6236 7.67188C19.6236 8.00129 19.6236 8.3307 19.6236 8.66011C19.2942 8.56599 19.0118 8.37776 18.7295 8.18952Z" fill="#BC967F"/>
<path d="M3.67108 15.8121C3.67108 15.5768 3.67108 15.2944 3.62402 15.0591C3.71814 15.0121 3.85932 14.965 3.95343 14.918C4.04755 15.1062 4.14167 15.2944 4.28285 15.5297C4.09461 15.6239 3.90638 15.765 3.7652 15.8591C3.71814 15.8121 3.71814 15.8121 3.67108 15.8121Z" fill="#A24741"/>
<path d="M3.62402 14.2126C3.62402 14.0714 3.62402 13.9302 3.62402 13.7891C3.67108 13.8832 3.7652 13.9302 3.81226 14.0244C3.95344 14.2597 4.04755 14.542 4.18873 14.7773C4.18873 14.7773 4.18873 14.7773 4.18873 14.8244C4.09461 14.8244 4.04755 14.8714 3.95344 14.8714C3.90638 14.8244 3.85932 14.7302 3.81226 14.6832C3.7652 14.4949 3.71814 14.3538 3.62402 14.2126Z" fill="#AB696D"/>
<path d="M3.81226 13.9764C3.7652 13.8823 3.67108 13.8353 3.62402 13.7412C3.62402 13.647 3.62402 13.6 3.62402 13.5059C3.7652 13.6 3.95344 13.6941 4.09461 13.7882C4.04755 13.8353 4.04755 13.8353 4.00049 13.8823C3.95344 13.9294 3.90638 13.9764 3.81226 13.9764Z" fill="#91353B"/>
<path d="M3.85932 14.6348C3.90638 14.6818 3.95344 14.7759 4.00049 14.823V14.8701C3.85932 14.9171 3.7652 14.9642 3.62402 15.0583C3.62402 14.9642 3.62402 14.8701 3.62402 14.7289C3.71814 14.6818 3.81226 14.6818 3.85932 14.6348Z" fill="#91314B"/>
<path d="M3.67108 15.8125C3.71814 15.8125 3.71814 15.8125 3.7652 15.8125C3.81226 15.9066 3.81226 16.0007 3.95344 16.0007C3.85932 16.0478 3.7652 16.1419 3.62402 16.189C3.67108 16.0478 3.67108 15.9066 3.67108 15.8125Z" fill="#9E4255"/>
<path d="M3.85932 14.6345C3.7652 14.6815 3.71814 14.6815 3.62402 14.7286C3.62402 14.5403 3.62402 14.3521 3.62402 14.2109C3.71814 14.3521 3.7652 14.4933 3.85932 14.6345Z" fill="#9E4255"/>
<path d="M20.0938 12.752C20.1409 12.752 20.1879 12.7049 20.1879 12.7991C20.1879 13.1285 20.1879 13.4108 20.1879 13.7402C20.1879 13.8344 20.0938 13.8814 20.0468 13.9755C19.9056 14.1638 19.7644 14.352 19.6232 14.5402C19.5291 14.6344 19.4821 14.7285 19.3879 14.8226C19.2468 14.9638 19.1526 15.152 19.0115 15.2932C18.9644 15.3402 18.9173 15.4344 18.8703 15.4814C18.7291 15.6226 18.635 15.8108 18.4938 15.952V15.9049C18.4468 15.9049 18.3997 15.952 18.3526 15.952C18.3056 16.0461 18.2115 16.1402 18.1644 16.1873C18.0703 16.3285 17.9291 16.5167 17.835 16.6579C17.7879 16.7049 17.7879 16.752 17.7409 16.7991C17.6468 16.8932 17.5997 16.9873 17.5056 17.0814C17.4115 17.0344 17.3644 16.9402 17.2703 16.8932C17.2232 16.9402 17.1762 16.9873 17.1762 17.0344C17.1291 17.1285 17.035 17.2226 16.9879 17.3167C16.9879 17.3638 16.9409 17.4108 16.9409 17.4579C16.8468 17.6461 16.7056 17.7873 16.6115 17.9755C16.5644 18.0696 16.4703 18.1638 16.4232 18.2579C16.3762 18.352 16.2821 18.3991 16.235 18.4932C16.1409 18.4461 16.0468 18.4461 15.9056 18.3991C15.9056 18.3991 15.8585 18.3991 15.8585 18.352C15.7644 18.3049 15.6232 18.2579 15.5291 18.2108C15.4821 18.2108 15.3879 18.1638 15.3409 18.1638C15.2938 18.1167 15.2468 18.1167 15.1526 18.0696C15.1056 18.1638 15.1056 18.2108 15.0585 18.3049C15.0115 18.352 14.9644 18.4461 14.9644 18.4932C14.9173 18.5402 14.9173 18.6814 14.7762 18.6343C14.6821 18.6343 14.5879 18.5873 14.4938 18.5873C14.3997 18.5402 14.3056 18.5402 14.1644 18.4932C13.9291 18.4461 13.9291 18.4461 13.8821 18.6343C13.7879 18.6343 13.7409 18.6344 13.6468 18.6814C13.6468 18.6814 13.6468 18.6814 13.5997 18.6814C13.4585 18.6344 13.2703 18.6344 13.1291 18.5873C12.8468 18.5402 12.5173 18.4932 12.235 18.4461C12.1409 18.4932 12.0938 18.4932 11.9997 18.5402C11.9056 18.5873 11.8585 18.6344 11.7644 18.6814C11.7173 18.6814 11.6703 18.7285 11.6232 18.7285C11.6232 18.7285 11.6232 18.7285 11.5762 18.7285C11.5762 18.352 11.5762 18.0226 11.5762 17.6461C11.6232 17.5991 11.7173 17.5991 11.7644 17.552C12.7526 16.9873 13.7409 16.4226 14.6821 15.8579C15.435 15.4344 16.1409 15.0108 16.8938 14.5873C17.5997 14.1638 18.3056 13.7873 19.0115 13.3638C19.3879 13.1755 19.7174 12.9873 20.0938 12.752Z" fill="#D5D5D5"/>
<path d="M11.5762 12.2816C11.7644 12.1875 11.9056 12.0934 12.0938 12.0463C12.5173 11.8111 12.9409 11.5758 13.3644 11.3405C13.7409 11.5287 14.1173 11.764 14.4468 11.9522C14.1644 12.1405 13.8821 12.2816 13.5997 12.4699C13.5056 12.5169 13.5056 12.564 13.5056 12.6581C13.5056 13.364 13.5056 14.1169 13.5056 14.8228C13.5056 14.8699 13.5056 14.9169 13.5056 15.0111C13.6938 14.9169 13.8821 14.8228 14.0703 14.6816C14.2585 14.5875 14.3997 14.4934 14.5879 14.3522C14.9173 14.164 15.2938 13.9758 15.6232 13.7875C15.6703 13.7875 15.6703 13.6934 15.6703 13.6463C15.6703 13.3169 15.6703 12.9875 15.6703 12.7052C15.8115 12.7522 15.9526 12.8463 16.0938 12.8934C16.1409 12.8463 16.235 12.7993 16.2821 12.7522C16.4232 12.6581 16.5644 12.564 16.7056 12.4228C16.7056 12.6581 16.7056 12.9405 16.7056 13.2228C17.0821 12.9875 17.4585 12.7993 17.7879 12.564C18.1174 12.3758 18.4468 12.1875 18.7762 11.9993C18.8232 11.9522 18.8703 11.9052 18.8703 11.8581C18.8703 11.5758 18.8703 11.2934 18.8703 11.0111C19.1526 10.9169 19.435 10.7758 19.7174 10.6816C19.7174 11.2934 19.7174 11.9052 19.7174 12.5169H19.6703C17.6938 13.6463 15.7174 14.8228 13.7409 15.9522C13.0821 16.3287 12.4703 16.7052 11.8115 17.0816C11.7644 17.1287 11.7173 17.0816 11.6703 17.0816C11.6703 17.0346 11.7173 16.9405 11.7173 16.8934C11.5762 15.3405 11.5762 13.7875 11.5762 12.2816Z" fill="#BC967F"/>
<path d="M11.5291 17.0359C11.5762 17.0359 11.6232 17.0359 11.6703 17.0359C12.3291 16.6594 12.9409 16.2829 13.5997 15.9065C15.5762 14.777 17.5526 13.6006 19.5291 12.4712H19.5762C19.7644 12.5653 19.9056 12.6594 20.0938 12.8006C19.7173 13.0359 19.3409 13.2241 18.9644 13.4594C18.2585 13.8829 17.5526 14.2594 16.8468 14.6829C16.0938 15.1065 15.3879 15.53 14.635 15.9535C13.6938 16.4712 12.7056 17.0359 11.7644 17.6006C11.7173 17.6476 11.6703 17.6476 11.5762 17.6947C11.1997 17.5065 10.9173 17.3182 10.6821 16.9418L10.635 16.8947C9.64676 15.6712 8.65852 14.4476 7.67029 13.2241C7.62323 13.177 7.57617 13.0359 7.57617 12.9888C7.57617 12.1888 7.57617 11.4359 7.57617 10.6359C7.76441 10.5418 7.95264 10.4476 8.09382 10.3535C8.09382 11.0123 8.09382 11.6712 8.04676 12.33C8.04676 12.7065 8.09382 12.9888 8.37617 13.2241C8.37617 13.2241 8.42323 13.2712 8.42323 13.3182C9.50558 14.5417 10.5409 15.7653 11.5291 17.0359Z" fill="#FBFBFB"/>
<path d="M19.7179 17.2227C19.7179 17.2697 19.765 17.3168 19.765 17.3638C19.765 18.0227 19.765 18.6344 19.765 19.2932C19.765 19.3403 19.7179 19.4344 19.6709 19.4344C18.6356 20.0462 17.5532 20.658 16.5179 21.2697C16.5179 21.2697 16.4709 21.2697 16.4238 21.2697C16.4238 20.5638 16.4238 19.858 16.4238 19.1521C16.7062 19.0109 16.9415 18.8697 17.2238 18.6815C17.8827 18.305 18.5415 17.9285 19.2003 17.5521C19.3415 17.458 19.5297 17.3168 19.7179 17.2227Z" fill="#3C1B26"/>
<path d="M19.6233 10.5877C19.341 10.6818 19.0586 10.823 18.7763 10.9171C18.3998 11.1054 18.0704 11.3407 17.6939 11.5289C17.4116 11.7642 17.0822 11.9524 16.7998 12.1877C16.7528 12.2348 16.7057 12.2818 16.6586 12.3289C16.5175 12.423 16.3763 12.5171 16.2351 12.6583C16.1881 12.7054 16.0939 12.7524 16.0469 12.7995C16.0469 12.376 16.0469 11.9995 16.0469 11.576C16.2822 11.3877 16.4704 11.1995 16.7528 11.0113C17.1292 10.7289 17.5528 10.4466 17.9292 10.1642C18.5881 9.69361 19.341 9.45832 20.141 9.17597C20.1881 9.17597 20.2822 9.12891 20.3763 9.12891C20.3763 9.55244 20.3763 9.92891 20.3763 10.3054C20.0469 10.4466 19.8116 10.4936 19.6233 10.5877Z" fill="#DA5B54"/>
<path d="M19.7174 17.2238C19.5292 17.3179 19.388 17.4591 19.1998 17.5532C18.5409 17.9296 17.8821 18.3061 17.2233 18.6826C16.9409 18.8238 16.7056 18.9649 16.4233 19.1532C16.2351 19.0591 15.9998 18.9179 15.8115 18.8238C15.8586 18.7767 15.9056 18.7296 15.9527 18.6826C16.0939 18.5885 16.2821 18.4943 16.4233 18.4473C16.5174 18.4002 16.5645 18.3532 16.6586 18.3061C16.8939 18.1649 17.0821 18.0708 17.3174 17.9296C17.4115 17.8826 17.4586 17.8355 17.5527 17.7885C17.6468 17.7414 17.6939 17.6943 17.788 17.6473C18.1174 17.4591 18.4468 17.2708 18.8233 17.0826C18.8703 17.0355 18.9645 16.9885 19.0115 16.9885C19.0586 16.9885 19.1056 16.9414 19.1527 16.9414C19.3409 16.9885 19.5292 17.0826 19.7174 17.2238Z" fill="#431E2B"/>
<path d="M15.8114 18.7773C15.9996 18.8715 16.2349 19.0126 16.4232 19.1068C16.4232 19.8126 16.4232 20.5185 16.4232 21.2244C16.282 21.1303 16.0938 21.0362 15.9526 20.9891C15.9526 20.5185 15.9526 20.0009 15.9526 19.5303C15.9526 19.4832 15.9055 19.4362 15.9055 19.3891C15.7173 19.295 15.5291 19.2009 15.3408 19.0597C15.482 18.9656 15.6232 18.8715 15.7643 18.7773C15.8114 18.7773 15.8114 18.7773 15.8114 18.7773Z" fill="#2A131B"/>
<path d="M19.0586 15.2948C19.1998 15.1536 19.2939 14.9654 19.4351 14.8242C19.5292 14.9183 19.5762 15.0125 19.6704 15.0595C19.6704 15.2477 19.6704 15.436 19.6704 15.5772C19.5762 15.6242 19.4821 15.6242 19.388 15.6713C19.2468 15.5301 19.1527 15.436 19.0586 15.2948Z" fill="#C85064"/>
<path d="M19.1528 16.893C19.1058 16.893 19.0587 16.9401 19.0117 16.9401C18.9175 16.7989 18.8705 16.7048 18.7764 16.5636C19.0117 16.4695 19.1999 16.3754 19.3881 16.2812C19.3881 16.2812 19.3881 16.2812 19.4352 16.2812C19.4822 16.3754 19.5764 16.4695 19.6234 16.6107C19.4822 16.6577 19.3411 16.7989 19.1528 16.893Z" fill="#DA5B54"/>
<path d="M19.0584 15.2949C19.1525 15.4361 19.2466 15.5773 19.3407 15.7185C19.4348 15.6714 19.5289 15.6714 19.6231 15.6243C19.6231 15.7185 19.6231 15.8126 19.6231 15.9067C19.576 15.9067 19.5289 15.9537 19.4819 15.9537C19.4348 15.8126 19.3407 15.7185 19.1525 15.8126C19.1525 15.8126 19.1054 15.8126 19.0584 15.8126C19.0113 15.7185 18.9172 15.6243 18.8701 15.4832C18.9642 15.4361 19.0113 15.342 19.0584 15.2949Z" fill="#AF3C55"/>
<path d="M19.5292 15.9064C19.5763 15.9064 19.6234 15.8594 19.6704 15.8594C19.6704 15.9535 19.6704 16.0476 19.6704 16.1417C19.6234 16.1888 19.5292 16.1888 19.4822 16.2358C19.4822 16.2358 19.4822 16.2358 19.4351 16.2358C19.3881 16.1417 19.341 16.0947 19.2939 16.0006C19.2939 16.0006 19.2939 16.0006 19.2939 15.9535C19.3881 16.0006 19.4351 15.9535 19.5292 15.9064Z" fill="#C97F6C"/>
<path d="M19.624 15.0587C19.5298 14.9645 19.4828 14.8704 19.3887 14.8234C19.4828 14.7293 19.5298 14.6351 19.624 14.541C19.671 14.7293 19.624 14.8704 19.624 15.0587Z" fill="#C3524C"/>
<path d="M19.4355 16.2816C19.4826 16.2346 19.5767 16.2346 19.6238 16.1875C19.6238 16.3287 19.6238 16.4699 19.6238 16.611C19.5767 16.4699 19.5297 16.3757 19.4355 16.2816Z" fill="#AF3C55"/>
<path d="M6.7761 21.5054C6.16434 21.129 5.50551 20.7995 4.89375 20.4231C4.65846 20.2819 4.42316 20.1407 4.18787 19.9995C4.14081 19.9525 4.09375 19.9054 4.09375 19.8584C4.09375 19.2937 4.09375 18.6819 4.09375 18.1172C4.14081 18.1172 4.23493 18.1642 4.28199 18.1642C4.47022 18.2584 4.65846 18.3995 4.84669 18.4937C4.89375 18.4937 4.98787 18.5407 5.03493 18.5407C5.12904 18.5878 5.22316 18.6819 5.31728 18.729C5.64669 18.9642 5.92904 19.1525 6.2114 19.2937C6.35257 19.3878 6.49375 19.4819 6.63493 19.529C6.63493 19.529 6.68199 19.529 6.68199 19.576C6.72904 19.576 6.72904 19.6231 6.7761 19.6231C6.7761 20.2819 6.7761 20.8937 6.7761 21.5054Z" fill="#886C5A"/>
<path d="M6.77637 21.5057C6.77637 20.8939 6.77637 20.2821 6.77637 19.6704H6.82343C6.91754 19.7174 7.01166 19.7645 7.05872 19.8115C7.15284 19.9057 7.29401 19.9527 7.38813 20.0468C7.48225 20.0939 7.57637 20.1409 7.67049 20.0468C7.7646 19.9998 7.81166 19.9527 7.90578 19.9057C7.9999 19.8586 8.09401 19.8115 8.14107 19.7645C8.47049 19.5762 8.7999 19.388 9.12931 19.1998C9.22343 19.1527 9.27048 19.1057 9.3646 19.0586C9.3646 19.0586 9.3646 19.0586 9.41166 19.0586C9.41166 19.0586 9.41166 19.0586 9.45872 19.0586C9.45872 19.0586 9.45872 19.0586 9.45872 19.1057C9.45872 19.2468 9.45872 19.388 9.45872 19.5292C9.45872 19.6704 9.45872 19.8586 9.45872 19.9998C8.98813 20.2821 8.5646 20.5174 8.09401 20.7998L8.04696 20.8468C7.90578 20.8939 7.81166 20.9409 7.67049 21.0351C7.38813 21.1292 7.05872 21.3174 6.77637 21.5057Z" fill="#BC967F"/>
<path d="M4.28235 18.2123C4.23529 18.2123 4.14118 18.1652 4.09412 18.1652C4.04706 18.1182 4.04706 18.1182 4 18.0711C4.04706 18.0241 4.09412 17.977 4.14118 17.977C4.23529 17.8829 4.37647 17.8358 4.47059 17.7888C4.56471 17.7417 4.65882 17.6946 4.70588 17.6476C4.84706 17.6005 4.98824 17.5064 5.12941 17.4594C5.12941 17.4594 5.17647 17.4594 5.17647 17.4123C5.27059 17.4123 5.36471 17.4123 5.41176 17.3652C5.45882 17.4594 5.6 17.5535 5.45882 17.6476C5.55294 17.6946 5.6 17.6946 5.64706 17.7417C5.69412 17.7888 5.69412 17.7888 5.74118 17.8358C5.78824 17.977 5.83529 18.0711 5.88235 18.2123C5.83529 18.2594 5.74118 18.2594 5.69412 18.3064C5.6 18.1182 5.50588 17.977 5.36471 17.8358C5.31765 17.7888 5.27059 17.7417 5.27059 17.7417C5.12941 17.8358 4.98824 17.8829 4.84706 17.977C4.75294 18.0241 4.65882 18.0241 4.61176 18.0711C4.51765 18.1182 4.42353 18.1652 4.28235 18.2123Z" fill="#91314B"/>
<path d="M4.47071 17.7889C4.3766 17.836 4.23542 17.8831 4.1413 17.9301C4.09424 17.9772 4.04719 17.9772 4.00013 18.0242C3.95307 18.0242 3.95307 17.9772 3.90601 17.9772C3.85895 17.836 3.76483 17.6948 3.71777 17.5066C3.85895 17.4595 3.95307 17.3654 4.09424 17.3184C4.1413 17.3184 4.18836 17.3184 4.23542 17.3654C4.32954 17.5066 4.3766 17.6478 4.47071 17.7889Z" fill="#9E3D63"/>
<path d="M3.48242 17.7402C3.52948 17.7402 3.52948 17.7873 3.48242 17.7402C3.52948 17.7873 3.52948 17.7402 3.48242 17.7402Z" fill="#A24741"/>
<path d="M16.0005 11.576C16.0005 11.9995 16.0005 12.376 16.0005 12.7995C15.8594 12.7525 15.7182 12.6584 15.577 12.6113C15.5299 12.5642 15.4829 12.5642 15.4829 12.5172C15.1535 12.329 14.777 12.0937 14.4476 11.9054C14.0711 11.7172 13.6946 11.4819 13.3652 11.2937C13.3652 10.9172 13.3652 10.5407 13.3652 10.2113C13.3652 10.1642 13.3652 10.1172 13.4123 10.1172C13.977 10.4466 14.4946 10.729 15.0594 11.0584C15.3417 11.1995 15.6711 11.3878 16.0005 11.576Z" fill="#A24741"/>
<path d="M15.3408 19.0586C15.529 19.1527 15.7173 19.2468 15.9055 19.388C15.7173 19.5292 15.529 19.6233 15.3408 19.7645C14.729 20.1409 14.1173 20.4704 13.5055 20.8468C13.2232 20.988 12.9408 21.1762 12.6585 21.3174C12.4702 21.2233 12.282 21.0821 12.0938 20.988C12.0938 20.988 12.0938 20.988 12.0938 20.9409C12.282 20.8468 12.5173 20.7057 12.7055 20.6115C12.7526 20.6115 12.7526 20.5174 12.7526 20.5174C12.7996 20.5174 12.8937 20.4704 12.9408 20.4704C12.9879 20.4233 13.0349 20.4233 13.082 20.3762H13.129C13.129 20.3762 13.1761 20.3762 13.1761 20.3292C13.5055 20.1409 13.882 19.9057 14.2114 19.7174C14.2585 19.6704 14.3526 19.6704 14.3996 19.6233C14.4467 19.6233 14.4937 19.5762 14.4937 19.5762C14.7761 19.388 15.0585 19.2468 15.3408 19.0586Z" fill="#431E2B"/>
<path d="M9.45898 19.4827C9.45898 19.3415 9.45898 19.2003 9.45898 19.0591C9.5531 19.0121 9.69428 18.965 9.7884 18.918C9.97663 19.2474 10.1649 19.5768 10.306 19.9062C10.306 19.9062 10.306 19.9062 10.306 19.9533C10.1178 20.0474 9.97663 20.0944 9.7884 20.1886C9.7884 20.1886 9.7884 20.1886 9.74134 20.1886C9.69428 19.9062 9.5531 19.718 9.45898 19.4827Z" fill="#9E4255"/>
<path d="M11.1527 20.941C11.1056 20.941 11.1056 20.8939 11.1056 20.8939C11.1056 20.8469 11.0585 20.7998 11.0585 20.7528C10.9644 20.6116 10.9174 20.4233 10.8232 20.2822C11.0115 20.1881 11.1997 20.0939 11.3409 20.0469C11.435 20.2351 11.5291 20.3763 11.5762 20.5645C11.5762 20.6116 11.5762 20.7057 11.5762 20.7528C11.4821 20.7998 11.2938 20.8469 11.1527 20.941Z" fill="#9E4255"/>
<path d="M10.8234 20.2812C10.9175 20.4224 10.9645 20.6107 11.0587 20.7518C11.1057 20.7989 11.1057 20.846 11.1057 20.893C10.9645 20.7989 10.8704 20.7518 10.7293 20.6577C10.7293 20.6577 10.7293 20.6577 10.6822 20.6107C10.6351 20.5165 10.5881 20.4695 10.541 20.3754C10.541 20.3754 10.541 20.3754 10.541 20.3283C10.6351 20.3754 10.7293 20.3283 10.8234 20.2812Z" fill="#A24741"/>
<path d="M9.83594 20.1415C10.0242 20.0474 10.1654 20.0004 10.3536 19.9062C10.4006 19.9533 10.4477 20.0474 10.4948 20.0945V20.1415C10.4006 20.1886 10.2595 20.2357 10.1654 20.2827C10.0242 20.2357 9.93006 20.1886 9.83594 20.1415Z" fill="#91314B"/>
<path d="M9.45898 19.4824C9.5531 19.7177 9.69428 19.906 9.78839 20.1412C9.69428 20.0942 9.5531 20.0001 9.45898 19.953C9.45898 19.8118 9.45898 19.6236 9.45898 19.4824Z" fill="#91314B"/>
<path d="M11.1533 20.9404C11.2945 20.8463 11.4357 20.7992 11.5768 20.7051C11.5768 20.7992 11.5768 20.8933 11.5768 20.9874C11.5768 20.9874 11.5768 20.9874 11.5768 21.0345C11.5298 21.0815 11.4827 21.0815 11.4357 21.1286C11.3416 21.0345 11.2474 20.9874 11.1533 20.9404Z" fill="#91314B"/>
<path d="M10.0703 20.2818C10.1644 20.2347 10.3056 20.1877 10.3997 20.1406C10.4468 20.2347 10.4938 20.2818 10.5409 20.3759C10.5409 20.3759 10.5409 20.3759 10.5409 20.423C10.4938 20.47 10.4468 20.47 10.3997 20.5171C10.3056 20.423 10.2115 20.3759 10.0703 20.2818Z" fill="#AB696D"/>
<path d="M11.624 20.9874C11.624 20.8933 11.624 20.7992 11.624 20.7051C11.6711 20.7051 11.6711 20.7051 11.7181 20.7051C11.7652 20.7521 11.7652 20.8463 11.8123 20.8933C11.9064 20.8463 12.0005 20.8463 12.0476 20.7992C12.0476 20.8463 12.0476 20.8933 12.0946 20.9404C12.0946 20.9404 12.0946 20.9404 12.0946 20.9874C12.0005 21.0345 11.9534 21.0815 11.8593 21.0815C11.8593 20.8463 11.7181 20.9874 11.624 20.9874Z" fill="#9E3D63"/>
<path d="M11.624 20.9873C11.7181 20.9873 11.8593 20.8461 11.8593 21.0814C11.7652 21.1285 11.7181 21.1756 11.624 21.1756C11.624 21.1285 11.624 21.0814 11.624 20.9873C11.624 21.0344 11.624 20.9873 11.624 20.9873Z" fill="#BA486D"/>
<path d="M10.3994 20.5179C10.4465 20.4709 10.4935 20.4709 10.5406 20.4238C10.5876 20.5179 10.6347 20.565 10.6818 20.6591C10.5876 20.6121 10.4935 20.565 10.3994 20.5179Z" fill="#9E4255"/>
<path d="M11.6236 21.0352C11.6236 21.0822 11.6236 21.1293 11.6707 21.1763C11.6236 21.1293 11.5295 21.1293 11.4824 21.0822C11.4824 21.0822 11.5765 21.0352 11.6236 21.0352Z" fill="#9E3D63"/>
<path d="M4.47029 17.7871C4.37617 17.6459 4.32911 17.5047 4.235 17.4106C4.235 17.3635 4.14088 17.3635 4.09382 17.3635C3.95264 17.4106 3.85852 17.5047 3.71735 17.5518C3.67029 17.4577 3.62323 17.3635 3.57617 17.3165C3.71735 17.2224 3.90558 17.1753 4.04676 17.0812C3.9997 16.9871 3.95264 16.8929 3.90558 16.7988C3.9997 16.8459 4.14088 16.8929 4.235 16.94C4.235 16.94 4.235 16.94 4.28205 16.94C4.32911 16.9871 4.42323 17.0812 4.47029 17.1282C4.47029 17.1753 4.42323 17.2224 4.42323 17.2224C4.51735 17.4106 4.61147 17.5518 4.70558 17.6929C4.61147 17.6929 4.51735 17.74 4.47029 17.7871Z" fill="#9E4255"/>
<path d="M4.28248 16.9413C4.18836 16.8942 4.04719 16.8472 3.95307 16.8001C3.85895 16.7531 3.81189 16.706 3.71777 16.6119C3.76483 16.5648 3.76483 16.5648 3.81189 16.5178C3.85895 16.5178 3.90601 16.4707 4.00013 16.4707C4.00013 16.4707 4.00013 16.4707 4.04719 16.4707C4.09424 16.6119 4.18836 16.8001 4.28248 16.9413Z" fill="#AF3C55"/>
<path d="M4.00049 16.4697C3.90638 16.4697 3.85932 16.5167 3.7652 16.5638C3.71814 16.5167 3.67108 16.4226 3.62402 16.3756C3.71814 16.3285 3.81226 16.2814 3.85932 16.2344C3.90638 16.2814 3.95344 16.3756 4.00049 16.4697Z" fill="#9E4255"/>
<path d="M3.34082 16.4709C3.38788 16.4709 3.43494 16.4709 3.482 16.4238C3.52906 16.4709 3.57611 16.5179 3.67023 16.6121C3.57611 16.6591 3.482 16.7062 3.38788 16.7532C3.34082 16.6591 3.34082 16.565 3.34082 16.4709Z" fill="#91314B"/>
<path d="M4.00037 16.4706C3.95331 16.3765 3.95331 16.3294 3.90625 16.2353C4.04743 16.1412 4.1886 16.0471 4.32978 16C4.32978 16 4.32978 16 4.37684 16C4.4239 16.0941 4.47096 16.1412 4.47096 16.2353C4.56507 16.1882 4.61213 16.1882 4.70625 16.1882C4.70625 16.1882 4.70625 16.1882 4.75331 16.1882C4.84743 16.3294 4.94154 16.5176 4.9886 16.6588C4.94154 16.7059 4.84743 16.7529 4.80037 16.8C4.80037 16.8 4.80037 16.8 4.75331 16.8C4.65919 16.6588 4.61213 16.5176 4.51801 16.3765C4.51801 16.3294 4.4239 16.3294 4.37684 16.3294C4.28272 16.3294 4.14154 16.3765 4.00037 16.4706Z" fill="#9E3D63"/>
<path d="M4.75318 16.1409C4.70612 16.1409 4.70612 16.1409 4.75318 16.1409C4.65906 15.8585 4.61201 15.8585 4.37671 15.9997C4.37671 15.9997 4.37671 15.9997 4.32965 15.9997C4.32965 15.9526 4.32965 15.8585 4.18848 15.9056C4.18848 15.9056 4.18848 15.9056 4.18848 15.8585C4.28259 15.8115 4.37671 15.7644 4.47083 15.7173C4.51789 15.7644 4.51789 15.8115 4.56495 15.8585C4.75318 15.7644 4.94142 15.6703 5.17671 15.5762C5.22377 15.6232 5.27083 15.7173 5.31789 15.7644C5.27083 15.8115 5.17671 15.8585 5.12965 15.9056C4.98848 15.9997 4.8473 16.0468 4.75318 16.1409Z" fill="#AF3C55"/>
<path d="M4.09393 15.9062C4.09393 15.9062 4.04688 15.9063 4.04688 15.9533C4.04688 15.9533 4.09393 15.9062 4.09393 15.9062Z" fill="#9E4255"/>
<path d="M4.04706 15.9531C4.04706 15.9531 4 15.9531 4 16.0002C4 15.9531 4.04706 15.9531 4.04706 15.9531Z" fill="#9E4255"/>
<path d="M4.18768 15.9062C4.18768 15.9062 4.14062 15.9063 4.14062 15.9533C4.14062 15.9063 4.14063 15.9062 4.18768 15.9062Z" fill="#9E4255"/>
<path d="M11.5289 17.0359C10.5406 15.8123 9.50533 14.5417 8.5171 13.3182C8.5171 13.2712 8.47004 13.2712 8.47004 13.2241C8.18768 12.9888 8.14062 12.7065 8.14062 12.33C8.18768 11.6712 8.14062 11.0123 8.18768 10.3535C8.5171 10.5418 8.89357 10.73 9.22298 10.9653C9.92886 11.3418 10.5877 11.7653 11.2936 12.1418C11.3877 12.1888 11.4818 12.2359 11.5759 12.2829C11.5759 13.7888 11.5759 15.2947 11.5759 16.8476C11.5759 16.8947 11.5759 16.9418 11.5289 17.0359Z" fill="#886B59"/>
<path d="M8.14144 10.3538C7.95321 10.4479 7.76497 10.542 7.62379 10.6361C7.29438 10.4479 7.01203 10.2597 6.68262 10.1185C6.87085 10.0244 7.01203 9.88318 7.20026 9.78906C7.52968 9.9773 7.81203 10.1185 8.14144 10.3067C8.14144 10.3067 8.14144 10.3067 8.14144 10.3538Z" fill="#D5D5D5"/>
<path d="M6.68266 10.0703C7.01208 10.2585 7.29443 10.4468 7.62384 10.588C7.62384 11.388 7.62384 12.1409 7.62384 12.9409C7.62384 13.035 7.6709 13.1291 7.71796 13.1762C8.70619 14.3997 9.69443 15.6233 10.6827 16.8468L10.7297 16.8938C10.965 17.2233 11.2474 17.4585 11.6238 17.6468C11.6238 18.0233 11.6238 18.3527 11.6238 18.7291C11.5297 18.6821 11.4827 18.635 11.3885 18.588C11.2474 18.4938 11.1062 18.4468 10.965 18.3527C10.8709 18.3056 10.7768 18.2115 10.7297 18.1644C10.5885 18.0703 10.4474 17.9762 10.3062 17.9291C10.2591 17.8821 10.165 17.835 10.118 17.788C10.0238 17.7409 9.92972 17.6938 9.8356 17.6468C9.64737 17.5527 9.50619 17.4585 9.31796 17.3174C9.17678 17.2233 9.08266 17.1762 8.94149 17.0821C8.84737 17.035 8.75325 16.9409 8.65913 16.8938C8.4709 16.7527 8.23561 16.6585 8.04737 16.5174C8.00031 16.5174 7.95325 16.4703 7.90619 16.4703C7.76502 16.3762 7.6709 16.3291 7.52972 16.235C7.34149 16.1409 7.20031 16.0468 7.01208 15.9527C6.91796 15.9056 6.82384 15.8585 6.77678 15.8115C6.6356 15.7174 6.49443 15.6703 6.35325 15.5762C6.30619 15.5291 6.30619 15.4821 6.25913 15.435C6.25913 15.3409 6.25913 15.2468 6.25913 15.1527C6.25913 15.1056 6.25913 15.0585 6.25913 15.0115C6.21208 14.3056 6.49443 13.6938 6.6356 13.0821C6.68266 12.7997 6.72972 12.5174 6.72972 12.235C6.72972 11.5762 6.72972 10.9644 6.72972 10.3056C6.63561 10.2115 6.68266 10.1644 6.68266 10.0703Z" fill="#898988"/>
<path d="M4.94068 14.3066C5.12892 14.4478 5.36421 14.5419 5.55245 14.6831C5.55245 14.7302 5.55245 14.7772 5.59951 14.8243C5.55245 14.8243 5.45833 14.8713 5.41127 14.8713C5.17598 15.0125 4.98774 15.1066 4.75245 15.2478C4.75245 15.2478 4.75245 15.2478 4.70539 15.2478C4.61127 15.0596 4.51715 14.8713 4.37598 14.6361C4.42304 14.589 4.47009 14.589 4.47009 14.5419C4.61127 14.4478 4.79951 14.3537 4.94068 14.3066Z" fill="#A24741"/>
<path d="M4.94173 14.306C4.80055 14.4001 4.65937 14.4942 4.5182 14.5883C4.47114 14.5883 4.47114 14.6354 4.42408 14.6824C4.37702 14.7295 4.2829 14.7295 4.23585 14.7766C4.09467 14.5413 4.00055 14.2589 3.85938 14.0236C3.90643 14.0236 4.00055 13.9766 4.04761 13.9766C4.04761 14.0236 4.09467 14.0236 4.09467 14.0707C4.2829 14.4472 4.2829 14.4472 4.70643 14.2119C4.75349 14.1648 4.84761 14.2119 4.94173 14.306Z" fill="#91314B"/>
<path d="M6.16468 14.9652C6.16468 15.0123 6.16468 15.0593 6.16468 15.1064C5.97645 15.2005 5.83527 15.2476 5.64704 15.3417C5.59998 15.2476 5.55292 15.2005 5.50586 15.1064C5.55292 15.0593 5.64704 15.0123 5.69409 14.9652C5.78821 14.9182 5.83527 14.9182 5.92939 14.8711C6.02351 14.9182 6.07057 14.9652 6.16468 14.9652Z" fill="#DA5B54"/>
<path d="M4.65882 14.1185C4.28235 14.4008 4.28235 14.4008 4.04706 13.9773C4.04706 13.9302 4 13.9302 4 13.8832C4.04706 13.8361 4.04706 13.8361 4.09412 13.7891C4.28235 13.9302 4.47059 14.0244 4.65882 14.1185Z" fill="#9E4255"/>
<path d="M5.9292 14.8701C5.83509 14.9171 5.78803 14.9171 5.69391 14.9642C5.64685 14.9171 5.64685 14.8701 5.59979 14.7759C5.59979 14.7289 5.59979 14.6818 5.55273 14.6348C5.69391 14.7289 5.78803 14.823 5.9292 14.8701Z" fill="#BC967F"/>
<path d="M3.99994 16.0009C3.95288 16.0009 3.95288 16.0009 3.99994 16.0009C3.81171 16.0009 3.81171 15.9068 3.76465 15.8126C3.95288 15.7185 4.09406 15.6244 4.2823 15.4832C4.18818 15.295 4.047 15.1068 3.95288 14.8715V14.8244C4.047 14.8244 4.09406 14.7773 4.18818 14.7773C4.2823 14.9656 4.37641 15.1538 4.47053 15.3891L4.42347 15.4362C4.37641 15.4362 4.32935 15.5303 4.32935 15.5303C4.37641 15.5773 4.42347 15.6244 4.47053 15.6715C4.47053 15.6715 4.47053 15.6715 4.47053 15.7185C4.37641 15.7656 4.2823 15.8126 4.18818 15.8597C4.18818 15.8597 4.18818 15.8597 4.14112 15.9068C4.14112 15.9068 4.09406 15.9068 4.09406 15.9538C4.09406 15.9538 4.047 15.9538 4.047 16.0009C4.047 15.9538 3.99994 15.9538 3.99994 16.0009Z" fill="#B17664"/>
<path d="M4.47083 15.3408C4.37671 15.1526 4.28259 14.9644 4.18848 14.7291C4.18848 14.7291 4.18848 14.7291 4.18848 14.682C4.23554 14.6349 4.32965 14.6349 4.37671 14.5879C4.47083 14.7761 4.56495 14.9644 4.70612 15.1997C4.65906 15.2938 4.56495 15.2938 4.47083 15.3408C4.51789 15.3408 4.51789 15.3408 4.47083 15.3408Z" fill="#91353B"/>
<path d="M13.835 18.6355C13.8821 18.4002 13.8821 18.4002 14.1174 18.4943C14.2115 18.5414 14.3056 18.5414 14.4468 18.5885C14.3056 18.6826 14.1645 18.7296 13.9762 18.8238C14.1174 19.0591 14.2115 19.2473 14.3527 19.4355C14.3527 19.4355 14.3527 19.4355 14.3527 19.4826C14.2586 19.5296 14.2115 19.5296 14.1174 19.5767C14.0233 19.3885 13.8821 19.1532 13.7409 18.9179C13.4115 19.1061 13.0821 19.2473 12.7527 19.3885C12.7527 19.3885 12.7527 19.3885 12.7056 19.3885C12.6586 19.2943 12.6115 19.2473 12.5645 19.1532C12.6115 19.1061 12.6586 19.1061 12.7056 19.0591C12.988 18.9179 13.2703 18.7767 13.5527 18.6355C13.5527 18.6355 13.5527 18.6355 13.5997 18.6355C13.5997 18.6826 13.5997 18.7296 13.6468 18.7296C13.6939 18.7767 13.7409 18.8238 13.7409 18.8238C13.788 18.8238 13.8821 18.7767 13.8821 18.7296C13.9292 18.7296 13.8821 18.6826 13.835 18.6355Z" fill="#DA8573"/>
<path d="M14.353 19.4349C14.2589 19.2467 14.1177 19.0585 13.9766 18.8232C14.1648 18.7291 14.306 18.6349 14.4472 18.5879C14.5413 18.5879 14.6354 18.6349 14.7295 18.6349C14.8236 18.8232 14.9177 18.9644 14.9648 19.1526C14.7295 19.2467 14.5413 19.3408 14.353 19.4349Z" fill="#DA5B54"/>
<path d="M10.8707 18.4004C11.0118 18.4945 11.153 18.5416 11.2942 18.6357C11.3883 18.6827 11.4354 18.7298 11.5295 18.7769C11.5295 18.7769 11.5295 18.7769 11.5766 18.7769C11.5766 18.9651 11.5766 19.1533 11.5766 19.2945C11.5766 19.2945 11.5766 19.2945 11.5766 19.3416C11.4824 19.3886 11.3883 19.3886 11.2942 19.4357C11.2942 19.3886 11.2471 19.3886 11.2471 19.3416C11.0589 19.0592 10.9177 18.7298 10.7295 18.4475C10.7295 18.4475 10.7295 18.4474 10.7295 18.4004C10.8236 18.4004 10.8707 18.4004 10.8707 18.4004Z" fill="#A24741"/>
<path d="M13.6002 18.6824C13.3178 18.8236 13.0355 18.9647 12.7531 19.1059C12.7061 19.1059 12.659 19.153 12.6119 19.2C12.6119 19.2 12.6119 19.2 12.5649 19.2C12.5178 19.1059 12.5178 19.0588 12.4708 18.9647C12.3767 19.0118 12.2825 19.0118 12.2355 19.0588C12.2355 19.0588 12.2355 19.0588 12.1884 19.0588C12.0943 18.9177 12.0472 18.7294 11.9531 18.5883C12.0472 18.5412 12.0943 18.5412 12.1884 18.4941C12.2355 18.6353 12.3296 18.7294 12.3767 18.8706C12.3767 18.9177 12.4708 18.9177 12.5178 18.9177C12.7061 18.8236 12.8943 18.7294 13.0825 18.6824C13.2708 18.6353 13.4119 18.6353 13.6002 18.6824Z" fill="#BB4449"/>
<path d="M14.918 18.4935C14.965 18.4464 15.0121 18.3523 15.0121 18.3052C15.1062 18.2582 15.2003 18.2111 15.2944 18.1641C15.3415 18.1641 15.4356 18.2111 15.4827 18.2111C15.4827 18.2582 15.5297 18.3523 15.5297 18.3994C15.5768 18.5405 15.6709 18.6347 15.718 18.7758C15.5768 18.8699 15.3886 18.9641 15.2474 19.0111C15.1062 18.8229 15.0121 18.6817 14.918 18.4935Z" fill="#C85064"/>
<path d="M17.3645 17.8815C17.1292 18.0227 16.9409 18.1168 16.7056 18.258C16.6586 18.1639 16.6115 18.0227 16.5645 17.9286C16.6586 17.7404 16.7997 17.5992 16.8939 17.411C17.035 17.3639 17.0821 17.458 17.1292 17.5521C17.2233 17.6933 17.2703 17.7874 17.3645 17.8815Z" fill="#DA5B54"/>
<path d="M14.9172 18.4941C15.0114 18.6824 15.1055 18.8236 15.2467 19.0118C15.3878 18.9177 15.5761 18.8236 15.7172 18.7765C15.7172 18.7765 15.7643 18.7765 15.7643 18.8236C15.6231 18.9177 15.482 19.0118 15.3408 19.1059C15.0584 19.2471 14.7761 19.4353 14.4937 19.5765C14.4467 19.5765 14.3996 19.6236 14.3996 19.6236C14.3996 19.5765 14.3525 19.5294 14.3525 19.4824C14.3525 19.4824 14.3525 19.4824 14.3525 19.4353C14.5408 19.3412 14.7761 19.2471 14.9643 19.153C14.8702 18.9647 14.7761 18.8236 14.729 18.6353C14.8702 18.6824 14.8702 18.5412 14.9172 18.4941Z" fill="#AF3C55"/>
<path d="M17.459 17.0825C17.5531 16.9883 17.6472 16.8942 17.6943 16.8001C17.7413 16.7531 17.7413 16.706 17.7884 16.6589C17.8355 16.6589 17.8825 16.6589 17.9296 16.6589C18.0707 16.6119 18.2119 16.5648 18.3531 16.4707C18.4002 16.5178 18.4472 16.6119 18.4943 16.6589C18.1649 16.8001 17.8355 16.9883 17.506 17.1295C17.506 17.1295 17.506 17.0825 17.459 17.0825Z" fill="#DA8573"/>
<path d="M13.0826 18.5886C12.8944 18.6827 12.7061 18.7769 12.5179 18.8239C12.4708 18.8239 12.3767 18.8239 12.3767 18.7769C12.2826 18.6827 12.2355 18.5416 12.1885 18.4004C12.5179 18.4945 12.8002 18.5416 13.0826 18.5886Z" fill="#DA5B54"/>
<path d="M18.9174 15.4824C18.9645 15.5765 19.0586 15.6707 19.1057 15.8118V15.8589C18.9174 15.953 18.6821 16.0471 18.4939 16.0942C18.4939 16.0942 18.4939 16.0942 18.4468 16.0942C18.3998 16.0471 18.3527 16.0001 18.3057 15.953C18.3527 15.953 18.3998 15.9059 18.4468 15.9059V15.953C18.6821 15.8118 18.7763 15.6236 18.9174 15.4824Z" fill="#DA5B54"/>
<path d="M17.3651 17.8815C17.271 17.7874 17.2239 17.6462 17.1298 17.5521C17.0828 17.458 16.9886 17.3638 16.8945 17.4109C16.8945 17.3638 16.9416 17.3168 16.9416 17.2697C17.0357 17.3638 17.1769 17.2697 17.271 17.2227C17.271 17.2227 17.271 17.2227 17.3181 17.2227C17.4122 17.4109 17.5063 17.5521 17.6004 17.7403C17.5063 17.8344 17.4122 17.8344 17.3651 17.8815Z" fill="#DA8573"/>
<path d="M15.7648 18.7758C15.7648 18.7758 15.7177 18.7758 15.7177 18.7288C15.6707 18.5876 15.5765 18.4935 15.5295 18.3523C15.4824 18.3052 15.4824 18.2582 15.4824 18.1641C15.5765 18.2111 15.7177 18.2582 15.8118 18.3052C15.8118 18.3052 15.8589 18.3052 15.8589 18.3523C15.906 18.4464 15.953 18.5405 16.0001 18.6347C15.953 18.6817 15.906 18.7288 15.8589 18.7758C15.8118 18.7758 15.8118 18.7758 15.7648 18.7758Z" fill="#C3524C"/>
<path d="M11.9529 18.541C12.047 18.6822 12.0941 18.8704 12.1882 19.0116C12.1411 19.0587 12.047 19.1057 11.9999 19.1528C11.9058 19.0116 11.8117 18.8704 11.7646 18.6822C11.8117 18.6351 11.8588 18.5881 11.9529 18.541Z" fill="#DA8573"/>
<path d="M11.7173 18.6816C11.8115 18.8228 11.9056 18.964 11.9526 19.1522C11.9526 19.1522 11.9526 19.1522 11.9526 19.1993C11.8115 19.2463 11.7173 19.2934 11.5762 19.3405C11.5762 19.1522 11.5762 18.964 11.5762 18.8228C11.6703 18.7287 11.6703 18.7287 11.7173 18.6816Z" fill="#DA5B54"/>
<path d="M18.4006 16.4699C18.2595 16.5169 18.1183 16.611 17.9771 16.6581C17.9301 16.6581 17.883 16.6581 17.8359 16.6581C17.9301 16.5169 18.0712 16.3287 18.1654 16.1875C18.2124 16.1875 18.2124 16.1875 18.2595 16.2346C18.3065 16.2816 18.3536 16.3757 18.4006 16.4228V16.4699Z" fill="#BB4449"/>
<path d="M16.0006 18.6833C15.9535 18.5892 15.9064 18.4951 15.8594 18.4009C15.9535 18.448 16.0476 18.448 16.1888 18.4951C16.2358 18.4009 16.33 18.3539 16.377 18.2598C16.4241 18.3068 16.4711 18.4009 16.5182 18.448C16.33 18.4951 16.1417 18.5892 16.0006 18.6833Z" fill="#C85064"/>
<path d="M16.4703 18.4003C16.4232 18.3532 16.3762 18.2591 16.3291 18.212C16.3762 18.1179 16.4703 18.0238 16.5173 17.9297C16.5644 18.0238 16.6115 18.165 16.6585 18.2591C16.6115 18.3062 16.5644 18.3532 16.4703 18.4003Z" fill="#AF3C55"/>
<path d="M17.2711 17.271C17.224 17.1769 17.1769 17.1298 17.1299 17.0357C17.1769 16.9886 17.1769 16.9416 17.224 16.8945C17.3181 16.9416 17.3652 17.0357 17.4593 17.0828C17.4593 17.0828 17.4593 17.1298 17.5064 17.1298C17.5064 17.1298 17.5064 17.1298 17.5064 17.1769C17.4122 17.1769 17.3652 17.2239 17.2711 17.271Z" fill="#B17664"/>
<path d="M17.1296 17.0352C17.1767 17.1293 17.2238 17.1763 17.2708 17.2704C17.1767 17.3175 17.0826 17.4116 16.9414 17.3175C16.9885 17.2234 17.0826 17.1293 17.1296 17.0352Z" fill="#DBA589"/>
<path d="M13.8357 18.6348C13.8828 18.6818 13.9298 18.7289 13.9298 18.7759C13.9298 18.823 13.8357 18.8701 13.7886 18.8701C13.7416 18.8701 13.6945 18.823 13.6945 18.7759C13.6475 18.7289 13.6475 18.6818 13.6475 18.6818C13.6945 18.6818 13.7886 18.6348 13.8357 18.6348Z" fill="#DBA589"/>
<path d="M18.2582 16.2355C18.2111 16.2355 18.2111 16.2355 18.1641 16.1884C18.2111 16.0943 18.3052 16.0002 18.3523 15.9531C18.3994 16.0002 18.4464 16.0472 18.4935 16.0943C18.3994 16.1414 18.3523 16.1884 18.2582 16.2355Z" fill="#DA8573"/>
<path d="M15.2941 18.1644C15.2 18.2115 15.1058 18.2585 15.0117 18.3056C15.0588 18.2585 15.0588 18.1644 15.1058 18.0703C15.1529 18.1174 15.247 18.1174 15.2941 18.1644Z" fill="#DA8573"/>
<path d="M15.8588 18.3998C15.8588 18.3998 15.8117 18.3528 15.8588 18.3998C15.8117 18.3528 15.8588 18.3998 15.8588 18.3998Z" fill="#C85064"/>
<path d="M14.4472 11.9062C14.7766 12.0945 15.1531 12.3298 15.4825 12.518C15.2002 12.7063 14.8707 12.8474 14.5884 13.0357C14.5413 13.0357 14.5413 13.1298 14.5413 13.1768C14.5413 13.5533 14.5413 13.9298 14.5413 14.3062C14.3531 14.4004 14.2119 14.5415 14.0237 14.6357C13.8355 14.7298 13.6943 14.8239 13.459 14.9651C13.459 14.918 13.459 14.871 13.459 14.7768C13.459 14.071 13.459 13.318 13.459 12.6121C13.459 12.518 13.506 12.471 13.5531 12.4239C13.8355 12.2827 14.1649 12.0945 14.4472 11.9062Z" fill="#FEFDFD"/>
<path d="M14.541 14.3058C14.541 13.9293 14.541 13.5529 14.541 13.1764C14.541 13.1293 14.5881 13.0823 14.5881 13.0352C14.8704 12.847 15.1998 12.7058 15.4822 12.5176C15.5293 12.5646 15.5763 12.5646 15.5763 12.6117C15.5763 12.9411 15.5763 13.2705 15.5763 13.5529C15.5763 13.5999 15.5763 13.694 15.5293 13.694C15.2469 13.9293 14.8704 14.1176 14.541 14.3058Z" fill="#4B353B"/>
<path d="M17.6943 11.5297C18.0708 11.3415 18.4002 11.1062 18.7767 10.918C18.7767 11.2003 18.7767 11.4827 18.7767 11.765C18.7767 11.8121 18.7296 11.9062 18.6826 11.9062C18.3532 12.0944 18.0237 12.2827 17.6943 12.4709C17.6943 12.1886 17.6943 11.8591 17.6943 11.5297Z" fill="#4B353B"/>
<path d="M17.6937 11.5293C17.6937 11.8587 17.6937 12.1881 17.6937 12.4705C17.3643 12.6587 16.9878 12.894 16.6113 13.1293C16.6113 12.8469 16.6113 12.5646 16.6113 12.3293C16.6584 12.2822 16.7054 12.2352 16.7525 12.1881C17.0819 11.9528 17.3643 11.7646 17.6937 11.5293Z" fill="#FBFBFB"/>
<path d="M17.5059 17.1758C17.5059 17.1758 17.5059 17.1288 17.5059 17.1758C17.8353 16.9876 18.1647 16.8464 18.4941 16.6582H18.5412C18.6353 16.7994 18.6823 16.8935 18.7764 17.0347C18.447 17.2229 18.1176 17.4111 17.7412 17.5994C17.6941 17.5053 17.6 17.317 17.5059 17.1758Z" fill="#DA5B54"/>
<path d="M18.8232 17.0822C18.7291 16.941 18.682 16.8469 18.5879 16.7057L18.6349 16.6586C18.7761 16.6116 18.7761 16.5645 18.682 16.4233L18.6349 16.3763C18.6349 16.3763 18.6349 16.3763 18.6349 16.3292C18.8702 16.2351 19.0585 16.141 19.2938 16.0469C19.3408 16.141 19.3879 16.1881 19.4349 16.2822C19.2467 16.3763 19.0114 16.4704 18.8232 16.5645C18.9173 16.7057 18.9644 16.8469 19.0585 16.941C18.9644 16.9881 18.8702 17.0351 18.8232 17.0822Z" fill="#DA8573"/>
<path d="M17.5058 17.1758C17.5999 17.317 17.694 17.5052 17.7882 17.6464C17.694 17.6934 17.647 17.7405 17.5529 17.7875C17.4587 17.5993 17.3646 17.4581 17.2705 17.2699C17.3646 17.2228 17.4117 17.1758 17.5058 17.1758Z" fill="#BB4449"/>
<path d="M19.1055 15.8584V15.8113C19.1525 15.8113 19.1525 15.8113 19.1996 15.8113C19.3878 15.7172 19.4349 15.8113 19.529 15.9525C19.4349 15.9525 19.3878 15.9996 19.2937 15.9996C19.2466 15.9525 19.1525 15.9054 19.1055 15.8584Z" fill="#91314B"/>
<path d="M19.1059 15.8594C19.153 15.9064 19.2471 15.9535 19.2941 16.0476C19.2941 16.0476 19.2941 16.0476 19.2941 16.0947C19.0588 16.1888 18.8706 16.2829 18.6353 16.377C18.5883 16.2829 18.5412 16.2358 18.4941 16.1417C18.7294 16.0006 18.9177 15.9535 19.1059 15.8594Z" fill="#BB4449"/>
<path d="M6.63594 19.5296C6.49476 19.4355 6.35358 19.3414 6.21241 19.2943C6.16535 19.2473 6.16535 19.1531 6.11829 19.1061C6.02417 18.9179 5.93006 18.7296 5.83594 18.5414C5.93006 18.4943 6.02417 18.4943 6.07123 18.4473C6.16535 18.6355 6.25947 18.8237 6.35359 19.059C6.4477 19.2002 6.49476 19.2943 6.58888 19.4355C6.63594 19.4826 6.63594 19.5296 6.63594 19.5296Z" fill="#91314B"/>
<path d="M5.83503 18.541C5.92915 18.7293 6.02327 18.9175 6.11738 19.1057C6.16444 19.1528 6.16444 19.2469 6.2115 19.294C5.92915 19.1057 5.64679 18.9645 5.31738 18.7763C5.50562 18.7293 5.64679 18.6351 5.83503 18.541Z" fill="#9E4255"/>
<path d="M6.63477 19.529C6.63477 19.4819 6.63477 19.4349 6.63477 19.3878C6.823 19.2937 7.05829 19.1996 7.24653 19.1055C7.29359 19.1996 7.29359 19.2466 7.34065 19.3408C7.15241 19.4349 6.96418 19.529 6.823 19.6231H6.77594C6.72888 19.6231 6.72888 19.5761 6.68182 19.5761C6.68182 19.5761 6.63477 19.5761 6.63477 19.529Z" fill="#91353B"/>
<path d="M4.61133 18.0238C4.70545 17.9767 4.79956 17.9767 4.84662 17.9297C4.9878 18.165 5.08192 18.3532 5.17603 18.5415C5.12898 18.5415 5.08192 18.5885 5.03486 18.5885C4.9878 18.5885 4.89368 18.5415 4.84662 18.5415C4.79956 18.4003 4.70545 18.212 4.61133 18.0238Z" fill="#A24741"/>
<path d="M5.03516 18.6359C5.08222 18.6359 5.12927 18.5888 5.17633 18.5888C5.36457 18.4947 5.5528 18.4476 5.69398 18.3535C5.74104 18.4476 5.74104 18.4947 5.7881 18.5888C5.64692 18.6829 5.45869 18.777 5.31751 18.8241C5.22339 18.73 5.12927 18.6829 5.03516 18.6359Z" fill="#AB696D"/>
<path d="M4.61164 18.0234C4.70576 18.2117 4.79987 18.3529 4.84693 18.5411C4.6587 18.447 4.47046 18.3058 4.28223 18.2117C4.4234 18.1646 4.51752 18.1176 4.61164 18.0234Z" fill="#9E4255"/>
<path d="M6.63477 19.5293C6.63477 19.5293 6.68183 19.5293 6.68183 19.5764C6.68183 19.5764 6.63477 19.5764 6.63477 19.5293Z" fill="#91314B"/>
<path d="M9.36446 19.0598C9.27035 19.1068 9.22329 19.1539 9.12917 19.2009C9.08211 19.1068 9.03505 19.0127 8.98799 18.9186C8.65858 19.1068 8.32917 19.248 7.99976 19.3892C7.99976 19.3892 7.99976 19.3892 7.9527 19.3892C7.90564 19.2951 7.85858 19.248 7.81152 19.1539C7.85858 19.1539 7.85858 19.1068 7.90564 19.1068C8.23505 18.9656 8.51741 18.8245 8.84682 18.6833C8.84682 18.6833 8.84682 18.6833 8.89388 18.6833C8.98799 18.9186 9.03505 18.9656 9.22329 18.7774C9.17623 18.7304 9.12917 18.6362 9.12917 18.5892C9.12917 18.5892 9.12917 18.5892 9.12917 18.5421C9.31741 18.448 9.5527 18.3539 9.74094 18.2598H9.78799C9.83505 18.3539 9.83505 18.4009 9.88211 18.4951C9.88211 18.4951 9.88211 18.4951 9.88211 18.5421C9.69388 18.6362 9.45858 18.7304 9.22329 18.8245C9.31741 18.8715 9.36446 18.9656 9.36446 19.0598C9.36446 19.0127 9.36446 19.0598 9.36446 19.0598Z" fill="#C97F6C"/>
<path d="M8.04688 19.3886C8.37629 19.2474 8.7057 19.0591 9.03511 18.918C9.08217 19.0121 9.12923 19.1062 9.17629 19.2003C8.84687 19.3886 8.51746 19.5768 8.18805 19.765C8.14099 19.6239 8.09393 19.5297 8.04688 19.3886Z" fill="#C3524C"/>
<path d="M9.36463 19.0118C9.31757 18.9647 9.31757 18.8706 9.27051 18.7765C9.5058 18.6824 9.69404 18.5883 9.92933 18.4941C9.97639 18.5412 9.97639 18.6353 10.0234 18.6824C9.97639 18.7294 9.88227 18.7765 9.83521 18.8236C9.69404 18.9177 9.59992 18.9647 9.45874 19.0588C9.41168 19.0588 9.41168 19.0589 9.36463 19.0118C9.41168 19.0589 9.41168 19.0118 9.36463 19.0118Z" fill="#C3524C"/>
<path d="M7.71723 19.9997C7.62312 20.0938 7.529 20.0938 7.43488 19.9997C7.34076 19.9056 7.19959 19.8585 7.10547 19.7644C7.24665 19.7173 7.38782 19.6232 7.529 19.5762C7.529 19.5762 7.57606 19.5762 7.57606 19.6232C7.62312 19.7644 7.67017 19.9056 7.71723 19.9997Z" fill="#A24741"/>
<path d="M7.48207 19.624C7.34089 19.671 7.19971 19.7651 7.05854 19.8122C6.96442 19.7651 6.8703 19.7181 6.82324 19.671C7.01148 19.5769 7.19971 19.4828 7.34089 19.3887C7.34089 19.3887 7.34089 19.3887 7.38795 19.3887C7.43501 19.4357 7.48207 19.5298 7.48207 19.624Z" fill="#B17664"/>
<path d="M9.45898 19.0596C9.60016 18.9655 9.69428 18.9184 9.83545 18.8243C9.88251 18.7772 9.97663 18.7302 10.0237 18.6831C10.1649 18.6361 10.306 18.5419 10.259 18.3537C10.306 18.3537 10.3531 18.3537 10.4002 18.3066H10.4472C10.4943 18.4008 10.4943 18.4478 10.5413 18.5419C10.4002 18.6361 10.2119 18.7302 10.0707 18.7772C9.97663 18.8243 9.88251 18.8713 9.83545 18.9184C9.69428 18.9655 9.5531 19.0125 9.45898 19.0596Z" fill="#AB696D"/>
<path d="M7.71735 20.0001C7.67029 19.8589 7.62323 19.7648 7.57617 19.6236C7.62323 19.5765 7.71735 19.5295 7.76441 19.4824C7.76441 19.4824 7.76441 19.4824 7.81147 19.4824C7.85852 19.5765 7.90558 19.7177 7.95264 19.8118C7.85852 19.906 7.81147 19.953 7.71735 20.0001Z" fill="#C97F6C"/>
<path d="M7.9527 19.8593C7.90564 19.7651 7.85858 19.624 7.81152 19.5298C7.90564 19.4828 7.9527 19.4357 8.04682 19.3887C8.04682 19.3887 8.04682 19.3887 8.09388 19.3887C8.14093 19.4828 8.18799 19.624 8.23505 19.7181C8.09388 19.7651 7.99976 19.8122 7.9527 19.8593Z" fill="#AA3D42"/>
<path d="M9.36523 19.0117C9.41229 19.0117 9.41229 19.0588 9.36523 19.0117C9.41229 19.0588 9.41229 19.0588 9.36523 19.0117C9.36523 19.0588 9.36523 19.0117 9.36523 19.0117Z" fill="#AB696D"/>
<path d="M5.74074 17.836C5.69368 17.7889 5.69368 17.7889 5.64662 17.7419C5.5525 17.6007 5.59956 17.5537 5.74074 17.5066C5.88192 17.4595 6.02309 17.3654 6.21133 17.3184C6.3525 17.5066 6.44662 17.6948 6.5878 17.9301C6.5878 17.9301 6.5878 17.9301 6.5878 17.9772C6.49368 18.0242 6.3525 18.0713 6.25839 18.1184H6.21133C6.02309 17.9772 5.88192 17.9301 5.74074 17.836Z" fill="#DA5B54"/>
<path d="M5.69374 18.3051C5.5055 18.3992 5.31727 18.4463 5.17609 18.5404C5.08197 18.3522 4.98786 18.1639 4.84668 17.9287C4.98786 17.8345 5.12903 17.7404 5.27021 17.6934C5.27021 17.6934 5.36433 17.7404 5.36433 17.7875C5.5055 17.9757 5.59962 18.1169 5.69374 18.3051Z" fill="#9E4255"/>
<path d="M6.16524 17.3175C6.02406 17.3646 5.88288 17.4587 5.69465 17.5057C5.55347 17.5528 5.50641 17.6469 5.60053 17.741C5.55347 17.741 5.45935 17.694 5.41229 17.6469C5.60053 17.5057 5.41229 17.4587 5.36523 17.3646C5.36523 17.3646 5.36523 17.3646 5.36523 17.3175C5.55347 17.2234 5.78876 17.1293 5.977 17.0352C6.11818 17.1293 6.11818 17.1763 6.16524 17.3175C6.16524 17.2704 6.16524 17.2704 6.16524 17.3175Z" fill="#AF3C55"/>
<path d="M4.706 17.6934C4.61188 17.5523 4.51776 17.4111 4.4707 17.2699C4.4707 17.2228 4.4707 17.1758 4.51776 17.1758C4.56482 17.1758 4.56482 17.1758 4.61188 17.1758C4.65894 17.2228 4.706 17.2699 4.75306 17.2699C4.89423 17.364 4.98835 17.4111 5.12953 17.5052C4.98835 17.5523 4.84717 17.5993 4.706 17.6934Z" fill="#9E3D63"/>
<path d="M5.41199 17.3182C5.41199 17.3182 5.41199 17.3653 5.41199 17.3182C5.36494 17.4124 5.27082 17.4124 5.1767 17.4594C5.08258 17.2712 4.98847 17.13 4.94141 16.9418C5.03552 16.8947 5.08258 16.8947 5.1767 16.8477C5.22376 17.0359 5.31788 17.1771 5.41199 17.3182Z" fill="#9E3D63"/>
<path d="M4.94092 16.9414C5.03504 17.1296 5.12916 17.2708 5.17622 17.4591C5.17622 17.4591 5.12916 17.4591 5.12916 17.5061C4.98798 17.412 4.84681 17.3179 4.70563 17.2238C4.65857 17.1767 4.61151 17.1767 4.56445 17.1296C4.70563 17.0826 4.79975 17.0355 4.94092 16.9414C4.89386 16.9414 4.89386 16.9414 4.94092 16.9414Z" fill="#BA486D"/>
<path d="M5.74121 17.8359C5.88239 17.9301 6.02356 18.0242 6.16474 18.0712C6.07062 18.1183 6.02356 18.1653 5.92945 18.2124C5.92945 18.2124 5.92945 18.2124 5.88239 18.2124C5.83533 18.0712 5.78827 17.9771 5.74121 17.8359Z" fill="#A24741"/>
<path d="M5.88257 18.2109C5.92963 18.2109 5.92963 18.2109 5.88257 18.2109C5.97669 18.3051 6.02375 18.3521 6.07081 18.4462C6.07081 18.4462 6.07081 18.4462 6.07081 18.4933C5.97669 18.5403 5.88257 18.5403 5.83551 18.5874C5.83551 18.5874 5.83551 18.5874 5.78845 18.5874C5.74139 18.4933 5.74139 18.4462 5.69434 18.3521C5.69434 18.3521 5.69434 18.3521 5.69434 18.3051C5.78845 18.258 5.83551 18.2109 5.88257 18.2109Z" fill="#9E3D63"/>
<path d="M14.2116 19.7173C13.8822 19.9056 13.5057 20.0938 13.1763 20.3291C13.1293 20.235 13.0822 20.1409 13.0352 20.0938C13.0352 20.0938 13.0352 20.0938 13.0352 20.0468C13.3646 19.9056 13.741 19.7173 14.0705 19.5762C14.1175 19.6232 14.1646 19.6703 14.2116 19.7173Z" fill="#AF3C55"/>
<path d="M12.0939 20.9413C12.0939 20.8942 12.0939 20.8472 12.0469 20.8001C12.0469 20.8001 12.0469 20.8001 12.0469 20.7531C12.2351 20.6589 12.4704 20.5648 12.6586 20.4707H12.7057C12.7057 20.5178 12.6586 20.5648 12.6586 20.5648C12.4704 20.706 12.2822 20.8472 12.0939 20.9413Z" fill="#C85064"/>
<path d="M12.7525 20.4702H12.7054C12.6584 20.3761 12.6584 20.329 12.6113 20.2349C12.6113 20.2349 12.6113 20.2349 12.6113 20.1879C12.7054 20.1408 12.7525 20.1408 12.8466 20.0938C12.8466 20.0938 12.8466 20.0938 12.8937 20.0938C12.9407 20.1879 12.9878 20.2349 13.0349 20.329V20.3761C12.8937 20.4702 12.7996 20.4702 12.7525 20.4702Z" fill="#AB696D"/>
<path d="M12.941 20.3763C12.8939 20.2822 12.8469 20.2351 12.7998 20.141C12.8939 20.0939 12.941 20.0939 13.0351 20.0469C13.0822 20.141 13.1292 20.2351 13.1763 20.2822C13.1763 20.2822 13.1292 20.2822 13.1292 20.3292H13.0822C13.0351 20.3292 12.988 20.3763 12.941 20.3763Z" fill="#91314B"/>
<path d="M14.2115 19.7177C14.1644 19.6707 14.1174 19.6236 14.0703 19.5765C14.1644 19.5295 14.2115 19.5295 14.3056 19.4824C14.3056 19.5295 14.3527 19.5765 14.3527 19.6236C14.3527 19.6236 14.2585 19.6707 14.2115 19.7177Z" fill="#AB696D"/>
<path d="M12.9414 20.3752C12.9885 20.3752 13.0355 20.3752 13.0826 20.3281C13.0355 20.3752 12.9885 20.3752 12.9414 20.4222V20.3752Z" fill="#AF3C55"/>
<path d="M9.78809 18.9185C9.8822 18.8715 9.97632 18.8244 10.0234 18.7773C10.1175 18.9656 10.2116 19.2009 10.3528 19.3891C10.3999 19.5303 10.494 19.6244 10.5881 19.7656C10.5881 19.7656 10.5881 19.7656 10.5881 19.8126C10.494 19.8597 10.3999 19.8597 10.3528 19.9068C10.1646 19.5773 9.97632 19.2479 9.78809 18.9185Z" fill="#A24741"/>
<path d="M10.3057 19.9066C10.3998 19.8596 10.4939 19.8596 10.541 19.8125C10.588 19.9066 10.6351 19.9537 10.6821 20.0478C10.6821 20.0478 10.6821 20.0478 10.6821 20.0949C10.588 20.1419 10.541 20.1419 10.4468 20.189C10.3998 20.0478 10.3527 20.0007 10.3057 19.9066Z" fill="#91353B"/>
<path d="M10.6826 20.0483C10.9179 19.9072 11.1532 19.8131 11.3885 19.6719C11.4356 19.766 11.4356 19.8131 11.4826 19.9072C11.4356 19.9542 11.3414 19.9542 11.2944 20.0013C11.1061 20.0954 10.9179 20.1895 10.7767 20.2366C10.7767 20.2366 10.7767 20.2366 10.7297 20.2366C10.7767 20.1895 10.7297 20.1425 10.6826 20.0483Z" fill="#AB696D"/>
<path d="M11.7181 20.7055C11.6711 20.7055 11.6711 20.7055 11.624 20.7055C11.624 20.6585 11.624 20.5643 11.624 20.5173C11.624 20.3761 11.624 20.2349 11.6711 20.0938C11.7652 20.2349 11.8593 20.4232 11.9064 20.5643C11.8123 20.6114 11.7652 20.6585 11.7181 20.7055Z" fill="#AF3C55"/>
<path d="M11.6232 20.0945C11.6232 20.2357 11.6232 20.3768 11.5761 20.518C11.482 20.3298 11.3879 20.1886 11.3408 20.0004C11.3879 19.9533 11.482 19.9533 11.5291 19.9062H11.5761C11.6232 20.0004 11.6232 20.0474 11.6232 20.0945Z" fill="#91314B"/>
<path d="M10.6818 20.0469C10.7288 20.141 10.7288 20.1881 10.7759 20.2822C10.6818 20.3292 10.6347 20.3763 10.5406 20.4233C10.4935 20.3292 10.4465 20.2822 10.3994 20.1881V20.141C10.5406 20.0939 10.6347 20.0939 10.6818 20.0469Z" fill="#B17664"/>
<path d="M11.7178 20.7056C11.7648 20.6586 11.8589 20.6115 11.906 20.5645H11.9531C12.0001 20.6586 12.0001 20.7056 12.0472 20.7997C12.0472 20.7997 12.0472 20.7997 12.0472 20.8468C11.9531 20.8939 11.906 20.8939 11.8119 20.9409C11.7648 20.8468 11.7178 20.7527 11.7178 20.7056Z" fill="#91314B"/>
<path d="M4 16.4695C4.14118 16.4224 4.23529 16.3283 4.37647 16.2812C4.42353 16.2812 4.51765 16.2813 4.51765 16.3283C4.61176 16.4695 4.65882 16.6107 4.75294 16.7518C4.61176 16.846 4.42353 16.893 4.28235 16.9871C4.28235 16.9871 4.28235 16.9871 4.23529 16.9871C4.18824 16.7989 4.09412 16.6107 4 16.4695Z" fill="#BA486D"/>
<path d="M4.28223 16.9404C4.4234 16.8463 4.61164 16.7992 4.75281 16.7051C4.75281 16.7051 4.75281 16.7051 4.79987 16.7051C4.84693 16.7992 4.84693 16.8463 4.89399 16.9404C4.79987 16.9874 4.70576 17.0815 4.56458 17.1286C4.51752 17.1286 4.51752 17.1286 4.47046 17.1286C4.4234 17.0815 4.37634 17.0345 4.28223 16.9404Z" fill="#AF3C55"/>
<path d="M4.75293 16.1421C4.89411 16.048 4.98822 16.0009 5.1294 15.9068C5.17646 15.8597 5.27058 15.8127 5.31764 15.7656C5.31764 15.7656 5.31764 15.7656 5.36469 15.7656C5.45881 15.9539 5.55293 16.1421 5.64705 16.2833C5.45881 16.3774 5.27058 16.4715 5.03528 16.5656C5.03528 16.5656 5.03528 16.5656 4.98822 16.5656C4.89411 16.4715 4.79999 16.2833 4.75293 16.1421Z" fill="#C85064"/>
<path d="M4.37598 16.0013C4.61127 15.8601 4.61127 15.9072 4.70539 16.1425C4.65833 16.1425 4.56421 16.1895 4.47009 16.1895C4.42304 16.1425 4.42304 16.0483 4.37598 16.0013Z" fill="#91314B"/>
<path d="M4.98804 16.6113C5.08216 16.7054 5.08216 16.7525 5.12922 16.8466C5.12922 16.8466 5.12922 16.8466 5.12922 16.8937C5.08216 16.8937 4.98804 16.9407 4.94098 16.9407C4.94098 16.9407 4.94098 16.9407 4.89392 16.9407C4.84686 16.8466 4.84686 16.7996 4.7998 16.7054C4.84686 16.7054 4.94098 16.6584 4.98804 16.6113Z" fill="#9E4255"/>
<path d="M4.4707 15.7183C4.51776 15.6712 4.56482 15.6242 4.61188 15.6242C4.706 15.5771 4.75306 15.53 4.84717 15.483C4.94129 15.4359 5.03541 15.3889 5.08247 15.3418C5.12953 15.4359 5.12953 15.483 5.17659 15.5771C5.17659 15.5771 5.17659 15.5771 5.17659 15.6242C4.98835 15.7183 4.80011 15.8124 4.56482 15.9065C4.56482 15.8124 4.51776 15.7653 4.4707 15.7183Z" fill="#DA5B54"/>
<path d="M5.17676 15.6236C5.17676 15.5765 5.17676 15.5765 5.17676 15.6236C5.27088 15.5295 5.31793 15.5295 5.41205 15.4824C5.41205 15.4824 5.41205 15.4824 5.45911 15.4824C5.50617 15.5765 5.55323 15.6236 5.60029 15.7177C5.60029 15.7177 5.60029 15.7177 5.60029 15.7648C5.50617 15.7648 5.45911 15.8118 5.36499 15.8118C5.36499 15.8118 5.36499 15.8118 5.31793 15.8118C5.27088 15.7177 5.22382 15.6707 5.17676 15.6236Z" fill="#AB696D"/>
<path d="M8.89442 17.1289C9.03559 17.223 9.12971 17.2701 9.27089 17.3642C9.365 17.5054 9.41206 17.6466 9.50618 17.7877C9.45912 17.8348 9.41206 17.8348 9.365 17.8818C9.22383 17.976 9.08265 18.023 8.89442 18.1171C8.75324 17.8818 8.565 17.5995 8.42383 17.3642C8.565 17.2701 8.70618 17.223 8.89442 17.1289Z" fill="#DA5B54"/>
<path d="M6.9178 15.9531C7.10603 16.0472 7.24721 16.1414 7.43544 16.2355C7.43544 16.2825 7.43544 16.3296 7.43544 16.3767C7.15309 16.5178 6.82368 16.659 6.54133 16.8002H6.49427C6.40015 16.659 6.30603 16.4708 6.21191 16.3296C6.21191 16.3296 6.21191 16.3296 6.21191 16.2825C6.44721 16.1884 6.6825 16.0943 6.9178 15.9531Z" fill="#C85064"/>
<path d="M7.85859 16.5176C7.90565 16.5176 7.95271 16.5646 7.99977 16.5646C7.99977 16.6117 7.99977 16.6588 8.04683 16.7058C8.14095 16.847 8.18801 16.9882 8.28212 17.1293C8.18801 17.1764 8.14095 17.2235 8.09389 17.2235C8.14095 17.3176 8.14095 17.3646 8.18801 17.4588C8.14095 17.5058 8.09389 17.5058 8.04683 17.5529C7.76448 17.694 7.52918 17.7882 7.24683 17.9293C7.24683 17.9293 7.24683 17.9293 7.19977 17.9293C7.15271 17.8352 7.10565 17.7882 7.05859 17.694C7.05859 17.694 7.05859 17.694 7.05859 17.647C7.38801 17.5058 7.67036 17.3646 7.99977 17.2235C7.99977 17.2235 8.04683 17.1293 7.99977 17.0823C7.90565 16.894 7.81154 16.7529 7.67036 16.5646C7.71742 16.5646 7.76448 16.5176 7.85859 16.5176Z" fill="#DA8573"/>
<path d="M8.89436 17.1296C8.75318 17.1767 8.56495 17.2708 8.42377 17.3179C8.61201 17.6002 8.75318 17.8355 8.89436 18.0708C8.89436 18.0708 8.89436 18.0708 8.89436 18.1179C8.80024 18.1649 8.75318 18.212 8.65906 18.2591C8.65906 18.2591 8.65906 18.2591 8.61201 18.2591C8.61201 18.212 8.56495 18.1649 8.56495 18.1179C8.42377 17.8826 8.32965 17.6473 8.18848 17.4591C8.37671 17.3649 8.37671 17.3649 8.28259 17.1296C8.28259 17.1296 8.28259 17.1296 8.28259 17.0826C8.37671 17.0355 8.47083 16.9885 8.61201 16.9414C8.70612 16.9885 8.80024 17.0826 8.89436 17.1296Z" fill="#DA8573"/>
<path d="M6.16474 15.4355C6.2118 15.4826 6.2118 15.5767 6.25886 15.5767C6.40003 15.6708 6.54121 15.765 6.68239 15.812C6.49415 15.9061 6.30592 16.0003 6.07062 16.0473C5.97651 15.9061 5.88239 15.7179 5.74121 15.5767C5.92945 15.5297 6.02356 15.4826 6.16474 15.4355Z" fill="#C85064"/>
<path d="M9.45893 17.7888C9.36481 17.6476 9.31775 17.5064 9.22363 17.3652C9.41187 17.4594 9.55304 17.5535 9.74128 17.6946C9.78834 17.9299 9.8354 17.9299 10.0236 17.8358C10.0707 17.8829 10.1648 17.9299 10.2119 17.977C10.2119 18.0241 10.2119 18.0711 10.2119 18.1182C10.1648 18.1182 10.0707 18.1652 10.0236 18.1652C10.0236 18.1652 10.0236 18.1652 9.97657 18.1652C9.92952 18.0711 9.88246 18.0241 9.8354 17.9299C9.74128 17.977 9.64716 17.977 9.6001 18.0241C9.6001 17.9299 9.50599 17.8829 9.45893 17.7888Z" fill="#AF3C55"/>
<path d="M6.07031 16.0947C6.25855 16.0006 6.44678 15.9064 6.68208 15.8594C6.7762 15.9064 6.87031 15.9535 6.91737 16.0006C6.68208 16.0947 6.44678 16.2358 6.21149 16.33C6.16443 16.2358 6.11737 16.1888 6.07031 16.0947Z" fill="#C3524C"/>
<path d="M6.16511 15.4349C6.02393 15.4819 5.88276 15.5761 5.78864 15.6231C5.74158 15.529 5.69452 15.4349 5.64746 15.3878C5.64746 15.3878 5.64746 15.3878 5.64746 15.3408C5.8357 15.2466 5.97687 15.1996 6.16511 15.1055C6.16511 15.2466 6.16511 15.3408 6.16511 15.4349Z" fill="#AF3C55"/>
<path d="M8.61195 16.9411C8.51783 16.9882 8.42371 17.0352 8.28254 17.0823C8.28254 17.0823 8.28254 17.0823 8.23548 17.0823C8.14136 16.9411 8.0943 16.7999 8.00018 16.6588C8.00018 16.6117 7.95312 16.5646 7.95312 16.5176C8.18842 16.7058 8.37666 16.847 8.61195 16.9411Z" fill="#DA5B54"/>
<path d="M10.2119 18.0709C10.2119 18.0238 10.2119 17.9767 10.2119 17.9297C10.3531 18.0238 10.4943 18.1179 10.6354 18.165C10.6354 18.165 10.6354 18.165 10.6354 18.212C10.5413 18.2591 10.4943 18.2591 10.4001 18.3062H10.3531C10.3531 18.212 10.306 18.212 10.2119 18.212C10.2119 18.165 10.2119 18.1179 10.2119 18.0709Z" fill="#91314B"/>
<path d="M7.85889 16.5167C7.81183 16.5638 7.71772 16.5638 7.67066 16.6108C7.67066 16.6108 7.67066 16.6108 7.6236 16.6108C7.57654 16.5167 7.52948 16.4697 7.48242 16.3756C7.48242 16.3285 7.48242 16.2814 7.48242 16.2344C7.57654 16.3285 7.71772 16.4226 7.85889 16.5167Z" fill="#AB696D"/>
<path d="M10.0236 17.8345C9.83533 17.9287 9.83533 17.9287 9.74121 17.6934C9.83533 17.7404 9.92945 17.7875 10.0236 17.8345Z" fill="#BA486D"/>
<path d="M10.6348 18.2109C10.7289 18.258 10.823 18.3051 10.9171 18.3521C10.8701 18.3521 10.823 18.3992 10.7759 18.3992C10.7289 18.3521 10.6818 18.3051 10.6348 18.2109Z" fill="#B17664"/>
<path d="M5.08234 15.3419C4.98822 15.3889 4.89411 15.436 4.84705 15.483C4.79999 15.3889 4.79999 15.2948 4.75293 15.2477C4.98822 15.1066 5.17646 15.0125 5.41175 14.8713C5.45881 14.8242 5.55293 14.8242 5.59999 14.8242C5.64705 14.8713 5.64705 14.9183 5.69411 14.9654C5.64705 15.0125 5.55293 15.0595 5.50587 15.1536C5.41175 15.2007 5.36469 15.2477 5.27058 15.2948C5.22352 15.2948 5.1294 15.3419 5.08234 15.3419Z" fill="#B17664"/>
<path d="M4.75287 15.248C4.79993 15.3422 4.79993 15.4363 4.84699 15.4833C4.75287 15.5304 4.70581 15.5775 4.6117 15.6245C4.56464 15.5304 4.56464 15.4363 4.51758 15.3422C4.56464 15.2951 4.65875 15.2951 4.75287 15.248C4.70581 15.248 4.70581 15.248 4.75287 15.248Z" fill="#AB696D"/>
<path d="M5.27051 15.2935C5.36463 15.2465 5.41168 15.1994 5.5058 15.1523C5.55286 15.2465 5.59992 15.2935 5.64698 15.3876C5.64698 15.3876 5.64698 15.3876 5.64698 15.4347C5.55286 15.4818 5.5058 15.4818 5.41168 15.5288C5.41168 15.5288 5.41168 15.5288 5.36463 15.5288C5.36463 15.4347 5.31757 15.3406 5.27051 15.2935Z" fill="#BB4449"/>
<path d="M4.51734 15.3418C4.56439 15.4359 4.56439 15.53 4.61145 15.6242C4.56439 15.6242 4.51734 15.6712 4.47028 15.6712C4.42322 15.6242 4.37616 15.5771 4.3291 15.53C4.3291 15.53 4.37616 15.4359 4.42322 15.3889C4.42322 15.3889 4.47028 15.3889 4.51734 15.3418Z" fill="#BC967F"/>
<path d="M14.0706 19.5297C13.7412 19.6709 13.3647 19.8591 13.0353 20.0003C12.9882 19.9533 12.9412 19.8591 12.9412 19.8121C12.8941 19.6709 12.8 19.5297 12.7529 19.3886C13.0823 19.2474 13.4118 19.0591 13.7412 18.918C13.8353 19.1533 13.9765 19.3415 14.0706 19.5297Z" fill="#DA5B54"/>
<path d="M12.7532 19.3887C12.8003 19.5298 12.8944 19.671 12.9415 19.8122C12.9885 19.8593 13.0356 19.9534 13.0356 20.0004C13.0356 20.0004 13.0356 20.0004 13.0356 20.0475C12.9415 20.0946 12.8944 20.0946 12.8003 20.1416C12.8003 20.1416 12.8003 20.1416 12.7532 20.1416C12.6591 19.9534 12.5179 19.7181 12.4238 19.5298C12.565 19.4828 12.6121 19.4357 12.7532 19.3887C12.7062 19.3887 12.7062 19.3887 12.7532 19.3887Z" fill="#BB4449"/>
<path d="M12.7058 19.3894C12.6116 19.4365 12.5646 19.4835 12.4705 19.5306C12.4705 19.5306 12.4705 19.5306 12.4234 19.5306C12.3763 19.4365 12.3293 19.3894 12.2822 19.2953C12.3763 19.2482 12.4234 19.2482 12.5175 19.2012C12.5175 19.2012 12.5175 19.2012 12.5646 19.2012C12.6116 19.2482 12.6587 19.3424 12.7058 19.3894Z" fill="#B17664"/>
<path d="M11.4349 19.671C11.1997 19.7651 10.9644 19.9063 10.7291 20.0004C10.682 19.9063 10.6349 19.8592 10.5879 19.7651C10.5879 19.7651 10.5879 19.7651 10.5879 19.718C10.7761 19.671 10.9173 19.5769 11.1055 19.5298C11.0585 19.4827 11.0585 19.4357 11.0585 19.3886C10.9173 19.1063 10.7291 18.7769 10.5879 18.4945C10.682 18.4474 10.7291 18.4474 10.8232 18.4004C11.0114 18.6827 11.1526 19.0122 11.3408 19.2945C11.3408 19.3416 11.3879 19.3416 11.3879 19.3886C11.3408 19.5298 11.3879 19.5769 11.4349 19.671Z" fill="#91314B"/>
<path d="M11.624 19.2935C11.7652 19.2465 11.8593 19.1994 12.0005 19.1523C12.0476 19.1994 12.0476 19.2935 12.0946 19.3406C11.9534 19.4347 11.8123 19.4818 11.6711 19.5759C11.6711 19.5759 11.6711 19.5759 11.624 19.5759C11.624 19.5288 11.624 19.4347 11.624 19.2935C11.624 19.3406 11.624 19.2935 11.624 19.2935Z" fill="#BB4449"/>
<path d="M11.624 19.3418C11.624 19.4359 11.624 19.53 11.624 19.6242C11.5769 19.6712 11.5298 19.6712 11.4828 19.7183C11.4357 19.6242 11.4357 19.53 11.3887 19.483C11.4357 19.3889 11.5298 19.3418 11.624 19.3418Z" fill="#91353B"/>
<path d="M10.7759 18.4462C10.6818 18.4933 10.6347 18.4933 10.5406 18.5403C10.5406 18.5403 10.5406 18.5403 10.4935 18.5403C10.4465 18.4462 10.4465 18.3992 10.3994 18.3051C10.4935 18.258 10.5406 18.258 10.6347 18.2109C10.6818 18.3051 10.7288 18.3521 10.7759 18.4462Z" fill="#9E3D63"/>
<path d="M12.0941 19.3882C12.0471 19.3411 12.0471 19.247 12 19.2C12 19.2 12 19.2 12 19.1529C12.0471 19.1058 12.1412 19.0588 12.1882 19.0117C12.1882 19.0117 12.1882 19.0117 12.2353 19.0117C12.2824 19.1058 12.3294 19.1529 12.3765 19.247C12.2353 19.2941 12.1882 19.3411 12.0941 19.3882C12.0941 19.3882 12.0941 19.3411 12.0941 19.3882Z" fill="#B17664"/>
<path d="M12.3297 19.2474C12.2826 19.1533 12.2355 19.1062 12.1885 19.0121C12.2826 18.965 12.3297 18.965 12.4238 18.918C12.4708 19.0121 12.4708 19.1062 12.5179 19.1533C12.4708 19.2003 12.4238 19.2474 12.3297 19.2474Z" fill="#AA3D42"/>
<path d="M18.6347 16.377C18.6347 16.424 18.6818 16.424 18.6818 16.424C18.7759 16.5181 18.7759 16.6122 18.6347 16.6593C18.5877 16.6593 18.5877 16.7064 18.5877 16.7064H18.5406C18.4935 16.6593 18.4465 16.5652 18.3994 16.5181V16.4711C18.4935 16.377 18.5406 16.377 18.6347 16.377Z" fill="#DBA589"/>
<path d="M18.6353 16.3761C18.5411 16.3761 18.4941 16.4232 18.4 16.4232C18.3529 16.3761 18.3058 16.282 18.2588 16.2349C18.3529 16.1879 18.4 16.1408 18.4941 16.0938C18.4941 16.0938 18.4941 16.0938 18.5411 16.0938C18.5411 16.1879 18.5882 16.2349 18.6353 16.3761C18.6353 16.329 18.6353 16.329 18.6353 16.3761Z" fill="#B17664"/>
<path d="M6.07031 18.448C6.21149 18.3539 6.35267 18.3068 6.49384 18.2598C6.58796 18.3068 6.72914 18.3539 6.82325 18.448C6.87031 18.4951 6.87031 18.5421 6.91737 18.5892C7.01149 18.7774 7.10561 18.9656 7.24678 19.2009C7.05855 19.2951 6.82325 19.3892 6.63502 19.4833C6.5409 19.3421 6.49384 19.248 6.39972 19.1068C6.25855 18.8715 6.16443 18.6362 6.07031 18.448Z" fill="#A24741"/>
<path d="M7.24738 19.1528C7.15326 18.9645 7.05915 18.7763 6.91797 18.541C7.05915 18.5881 7.15326 18.6351 7.29444 18.6822C7.29444 18.7293 7.3415 18.7293 7.3415 18.7763C7.38856 18.8704 7.38856 18.9645 7.43562 19.0116C7.38856 19.0587 7.3415 19.1057 7.24738 19.1528C7.29444 19.1528 7.24738 19.1528 7.24738 19.1528Z" fill="#B17664"/>
<path d="M7.29395 19.1527C7.341 19.1057 7.43512 19.1057 7.48218 19.0586C7.52924 19.1527 7.5763 19.1998 7.62336 19.2939C7.52924 19.2939 7.48218 19.3409 7.38806 19.388C7.38806 19.388 7.38806 19.388 7.341 19.388C7.341 19.2939 7.29395 19.1998 7.29395 19.1527Z" fill="#AB696D"/>
<path d="M8.89424 18.6826C8.56483 18.8237 8.28248 18.9649 7.95307 19.1061C7.90601 19.1061 7.90601 19.1531 7.85895 19.1531C7.85895 19.1531 7.85895 19.1531 7.81189 19.1531C7.76483 19.059 7.76483 18.9649 7.71777 18.9179C7.71777 18.9179 7.71777 18.9179 7.71777 18.8708C7.76483 18.8708 7.81189 18.8237 7.90601 18.8237C8.18836 18.6826 8.47071 18.5884 8.75307 18.4473C8.80013 18.5414 8.84718 18.5884 8.89424 18.6826Z" fill="#AA3D42"/>
<path d="M9.74122 18.2587C9.55299 18.3528 9.31769 18.447 9.12946 18.5411C9.0824 18.447 9.03534 18.3999 8.98828 18.3058C9.17652 18.2117 9.41181 18.1176 9.60005 18.0234C9.69416 18.1176 9.69416 18.2117 9.74122 18.2587Z" fill="#AA3D42"/>
<path d="M9.74176 18.2593C9.6947 18.1652 9.64764 18.1181 9.60059 18.024C9.60059 18.024 9.60059 18.024 9.60059 17.9769C9.6947 17.9299 9.74176 17.9299 9.83588 17.8828C9.88294 17.9769 9.93 18.024 9.97706 18.1181C9.93 18.1652 9.83588 18.2122 9.78882 18.2593C9.78882 18.2593 9.78882 18.2593 9.74176 18.2593Z" fill="#91314B"/>
<path d="M8.98841 18.3535C9.03547 18.4476 9.08252 18.4947 9.12958 18.5888C9.12958 18.5888 9.12958 18.5888 9.12958 18.6359C9.03547 18.6829 8.98841 18.6829 8.89429 18.73C8.89429 18.73 8.89429 18.73 8.84723 18.73C8.80017 18.6359 8.75311 18.5888 8.70605 18.4947C8.70605 18.4947 8.70605 18.4947 8.70605 18.4476C8.84723 18.4006 8.89429 18.3535 8.98841 18.3535Z" fill="#AB696D"/>
<path d="M7.85852 19.1523C7.95264 19.2465 7.95264 19.2935 7.9997 19.3876C7.90558 19.4347 7.85852 19.4818 7.76441 19.5288C7.76441 19.5288 7.76441 19.5288 7.71735 19.5288C7.67029 19.4347 7.62323 19.3876 7.57617 19.2935C7.71735 19.2465 7.76441 19.1994 7.85852 19.1523Z" fill="#AB696D"/>
<path d="M8.89453 18.682C8.98865 18.6349 9.03571 18.6349 9.12982 18.5879C9.17688 18.6349 9.22394 18.7291 9.22394 18.7761C9.03571 18.9644 8.98865 18.9173 8.89453 18.682Z" fill="#DBA589"/>
<path d="M9.83594 18.2584C9.883 18.2113 9.97711 18.1642 10.0242 18.1172C10.0242 18.1172 10.0242 18.1172 10.0712 18.1172C10.1183 18.2113 10.1183 18.2584 10.1653 18.3525C10.0712 18.3995 10.0242 18.3995 9.93006 18.4466C9.883 18.3995 9.83594 18.3525 9.83594 18.2584Z" fill="#AB696D"/>
<path d="M9.92969 18.4947C10.0238 18.4476 10.0709 18.4476 10.165 18.4006C10.212 18.4006 10.212 18.4006 10.2591 18.3535C10.3062 18.5418 10.165 18.6359 10.0238 18.6829C9.97675 18.6359 9.92969 18.5888 9.92969 18.4947Z" fill="#AF3C55"/>
<path d="M7.62378 19.2949C7.67084 19.389 7.7179 19.4361 7.76496 19.5302C7.7179 19.5773 7.62378 19.6243 7.57672 19.6714C7.57672 19.6714 7.52966 19.6714 7.52966 19.6243C7.48261 19.5302 7.48261 19.4361 7.43555 19.389C7.48261 19.342 7.52966 19.2949 7.62378 19.2949Z" fill="#BC967F"/>
<path d="M10.4942 18.541C10.5413 18.541 10.5413 18.541 10.4942 18.541C10.6824 18.8234 10.8236 19.1528 11.0119 19.4351C11.0119 19.4822 11.0589 19.5293 11.0589 19.5763C10.8707 19.6704 10.7295 19.7175 10.5413 19.7645C10.4472 19.6234 10.4001 19.5293 10.306 19.3881C10.2119 19.1998 10.1177 18.9645 9.97656 18.7763C10.2119 18.7293 10.353 18.6351 10.4942 18.541Z" fill="#9E4255"/>
<path d="M10.2119 18.2109C10.259 18.2109 10.3531 18.2109 10.3531 18.3051C10.306 18.3051 10.259 18.3051 10.2119 18.3521C10.2119 18.3051 10.2119 18.258 10.2119 18.2109Z" fill="#AF3C55"/>
<path d="M6.16406 17.317C6.16406 17.2699 6.16406 17.2699 6.16406 17.317C6.25818 17.2699 6.30524 17.2228 6.39936 17.1758H6.44642C6.44642 17.2228 6.49347 17.2699 6.54053 17.364C6.63465 17.5052 6.68171 17.6934 6.77583 17.8346C6.68171 17.8346 6.63465 17.8817 6.54053 17.8817C6.44642 17.6934 6.30524 17.5052 6.16406 17.317Z" fill="#DA8573"/>
<path d="M6.49439 18.2587C6.35322 18.3058 6.21204 18.3528 6.07086 18.3999C6.02381 18.3058 5.97675 18.2587 5.92969 18.1646C6.02381 18.1176 6.07086 18.0705 6.16498 18.0234H6.21204C6.30616 18.1176 6.40028 18.1646 6.49439 18.2587Z" fill="#B17664"/>
<path d="M6.49427 18.212C6.40015 18.165 6.30603 18.1179 6.21191 18.0709C6.30603 18.0238 6.44721 17.9767 6.54133 17.9297C6.58838 18.0238 6.58838 18.0709 6.63544 18.165C6.58838 18.165 6.54133 18.212 6.49427 18.212Z" fill="#DA8573"/>
<path d="M6.63513 18.1167C6.58807 18.0226 6.58807 17.9755 6.54102 17.8814C6.54102 17.8814 6.54102 17.8814 6.54102 17.8344C6.58807 17.7873 6.68219 17.7873 6.72925 17.7402H6.77631C6.82337 17.7873 6.82337 17.8814 6.87043 17.9285C6.82337 18.0696 6.77631 18.1167 6.63513 18.1167C6.68219 18.1167 6.68219 18.1167 6.63513 18.1167Z" fill="#DBA589"/>
<path d="M5.12988 16.847C5.31812 16.7058 5.50635 16.6117 5.74165 16.5176C5.83576 16.7058 5.92988 16.847 6.07106 17.0352C5.88282 17.1293 5.64753 17.2235 5.45929 17.3176C5.31812 17.1764 5.224 17.0352 5.12988 16.847Z" fill="#C85064"/>
<path d="M6.39973 17.1767C6.30561 17.2238 6.25855 17.2238 6.16443 17.2708C6.11737 17.1767 6.11737 17.1296 6.07031 17.0355C6.11737 17.0355 6.21149 16.9885 6.25855 16.9414C6.25855 16.9414 6.25855 16.9414 6.30561 16.9414C6.35267 17.0355 6.35267 17.0826 6.39973 17.1767Z" fill="#AB696D"/>
<path d="M12.0472 20.752C12.0002 20.6579 12.0002 20.6108 11.9531 20.5167C12.1414 20.4226 12.3767 20.3285 12.5649 20.2344C12.6119 20.3285 12.6119 20.3756 12.659 20.4697C12.4708 20.5638 12.2355 20.6579 12.0472 20.752Z" fill="#AF3C55"/>
<path d="M12.5652 20.2831C12.377 20.3772 12.1417 20.4714 11.9534 20.5655H11.9064C11.8123 20.4243 11.7181 20.2361 11.6711 20.0949C11.6711 20.0478 11.6711 20.0008 11.624 19.9537C11.624 19.9537 11.624 19.9537 11.624 19.9066C11.7652 19.8596 11.9534 19.7655 12.0946 19.7184C12.1887 19.6714 12.2828 19.6714 12.3299 19.7655C12.377 19.9066 12.4711 20.0949 12.5652 20.2831C12.5652 20.2361 12.5652 20.2831 12.5652 20.2831Z" fill="#DA5B54"/>
<path d="M12.5644 20.2357C12.4703 20.0946 12.3762 19.9063 12.2821 19.7651C12.235 19.624 12.1409 19.624 12.0468 19.7181C11.9056 19.8122 11.7644 19.8593 11.5762 19.9063C11.5762 19.8122 11.5762 19.7181 11.6232 19.624C11.7644 19.5298 11.9056 19.4828 12.0468 19.3887C12.0468 19.3887 12.0468 19.3887 12.0938 19.3887C12.1409 19.4828 12.1409 19.5298 12.1879 19.624C12.2821 19.5769 12.3762 19.5769 12.4232 19.5298C12.4232 19.5298 12.4232 19.5298 12.4703 19.5298C12.5644 19.7181 12.7056 19.9534 12.7997 20.1416C12.7056 20.1887 12.6585 20.1887 12.5644 20.2357Z" fill="#DA8573"/>
<path d="M11.6238 19.623C11.6238 19.7172 11.6238 19.8113 11.5767 19.9054C11.5767 19.9054 11.5767 19.9054 11.5767 19.9525H11.5297C11.4826 19.8583 11.4826 19.8113 11.4355 19.7172C11.4826 19.6701 11.5767 19.623 11.6238 19.623Z" fill="#B17664"/>
<path d="M6.25856 16.9421C6.16444 16.9892 6.11738 16.9892 6.02327 17.0362C5.92915 16.848 5.83503 16.7068 5.69385 16.5186C5.69385 16.4715 5.64679 16.3774 5.59974 16.3303C5.50562 16.1421 5.4115 15.9539 5.31738 15.8127C5.4115 15.8127 5.45856 15.7656 5.55268 15.7656C5.64679 15.9068 5.74091 16.095 5.88209 16.2362C5.92915 16.3303 5.97621 16.3774 6.02327 16.4715C6.07032 16.6127 6.16444 16.7539 6.25856 16.9421Z" fill="#C97F6C"/>
<path d="M5.60005 16.3281C5.6471 16.3752 5.69416 16.4693 5.74122 16.5634C5.55299 16.6575 5.36475 16.7517 5.12946 16.8458C5.0824 16.7517 5.03534 16.7046 4.98828 16.6105C5.22358 16.5164 5.41181 16.4222 5.60005 16.3281Z" fill="#C3524C"/>
<path d="M5.27027 15.2949C5.31733 15.342 5.36438 15.4361 5.41144 15.4832C5.31733 15.5302 5.27027 15.5302 5.17615 15.5773C5.12909 15.4832 5.12909 15.4361 5.08203 15.342C5.12909 15.342 5.22321 15.2949 5.27027 15.2949Z" fill="#DA8573"/>
<path d="M5.88215 16.1879C5.78803 16.0468 5.69391 15.8585 5.55273 15.7173C5.55273 15.7173 5.55273 15.7173 5.55273 15.6703C5.64685 15.6232 5.69391 15.6232 5.78803 15.5762C5.88215 15.7173 5.97626 15.9056 6.11744 16.0468C6.11744 16.0468 6.11744 16.0468 6.11744 16.0938C6.02332 16.1409 5.9292 16.1879 5.88215 16.1879Z" fill="#AF3C55"/>
<path d="M5.78858 15.624C5.69446 15.671 5.6474 15.671 5.55329 15.7181C5.50623 15.624 5.45917 15.5769 5.41211 15.4828C5.50623 15.4357 5.55329 15.4357 5.6474 15.3887C5.69446 15.4357 5.74152 15.5298 5.78858 15.624Z" fill="#91314B"/>
<path d="M8.98786 18.3538C8.9408 18.3067 8.89374 18.2126 8.84668 18.1655C8.84668 18.1655 8.84668 18.1655 8.84668 18.1185C8.98786 18.0244 9.12903 17.9773 9.31727 17.8832C9.36433 17.8361 9.41139 17.8361 9.45844 17.7891C9.5055 17.8832 9.55256 17.9302 9.59962 18.0244C9.59962 18.0244 9.59962 18.0244 9.59962 18.0714C9.41138 18.1655 9.22315 18.2597 8.98786 18.3538Z" fill="#C3524C"/>
<path d="M7.48219 16.377C7.52925 16.4711 7.57631 16.5181 7.62337 16.6122C7.29396 16.7534 6.96455 16.8946 6.63513 17.0358C6.58807 16.9417 6.58807 16.8946 6.54102 16.8005C6.87043 16.6593 7.15278 16.5181 7.48219 16.377Z" fill="#AF3C55"/>
<path d="M6.25892 16.9417C6.1648 16.7534 6.07068 16.5652 5.97656 16.424C6.07068 16.424 6.11774 16.377 6.21186 16.377C6.30597 16.5181 6.40009 16.7064 6.49421 16.8475C6.44715 16.8475 6.35303 16.8946 6.25892 16.9417C6.30597 16.9417 6.30597 16.9417 6.25892 16.9417Z" fill="#AF3C55"/>
<path d="M6.30566 16.94C6.35272 16.8929 6.44684 16.8459 6.4939 16.7988H6.54096C6.58802 16.8929 6.58802 16.94 6.63508 17.0341C6.63508 17.0341 6.63508 17.0341 6.63508 17.0812C6.58802 17.1282 6.4939 17.1282 6.44684 17.1753H6.39978C6.35272 17.0812 6.35272 17.0341 6.30566 16.94Z" fill="#91314B"/>
<path d="M6.21241 16.3761C6.11829 16.3761 6.07123 16.4232 5.97711 16.4232C5.93006 16.329 5.883 16.282 5.83594 16.1879C5.93006 16.1408 5.97711 16.1408 6.07123 16.0938C6.11829 16.1879 6.16535 16.2349 6.21241 16.3761C6.21241 16.329 6.21241 16.329 6.21241 16.3761Z" fill="#AA3D42"/>
<path d="M8.18861 17.459C8.32979 17.6943 8.42391 17.8825 8.56508 18.1178C8.61214 18.1649 8.61214 18.2119 8.61214 18.259C8.28273 18.4472 8.00038 18.6355 7.67097 18.8237C7.48273 18.5413 7.34156 18.2119 7.15332 17.9296C7.43567 17.7884 7.67097 17.6943 7.95332 17.5531C8.00038 17.506 8.04744 17.506 8.0945 17.459C8.14156 17.459 8.18861 17.459 8.18861 17.459Z" fill="#DA5B54"/>
<path d="M6.63477 17.0819C6.63477 17.0819 6.63477 17.0349 6.63477 17.0819C6.96418 16.8937 7.29359 16.7525 7.623 16.6113C7.623 16.6113 7.623 16.6113 7.67006 16.6113C7.76418 16.7996 7.90535 16.9407 7.99947 17.129C7.99947 17.176 7.99947 17.2231 7.99947 17.2702C7.71712 17.4113 7.38771 17.5525 7.0583 17.6937C6.91712 17.4584 6.77594 17.2702 6.63477 17.0819Z" fill="#DA5B54"/>
<path d="M7.20014 17.9297C7.34131 18.212 7.52955 18.5415 7.67073 18.8238L7.71778 18.8709C7.71778 18.8709 7.71778 18.8709 7.71778 18.9179C7.62367 18.9179 7.57661 18.965 7.52955 18.8709C7.52955 18.8238 7.43543 18.8238 7.38837 18.7768C7.38837 18.7297 7.34131 18.7297 7.34131 18.6826C7.20014 18.4473 7.10602 18.212 6.96484 17.9767C7.0119 17.9767 7.05896 17.9297 7.20014 17.9297C7.15308 17.9297 7.15308 17.9297 7.20014 17.9297Z" fill="#BB4449"/>
<path d="M6.63471 17.082C6.77589 17.2703 6.87 17.4585 7.01118 17.6938C7.01118 17.6938 7.01118 17.6938 7.01118 17.7409C6.91706 17.7879 6.87 17.835 6.77589 17.882H6.72883C6.63471 17.7409 6.58765 17.5526 6.49353 17.4114C6.44647 17.3644 6.44647 17.3173 6.39941 17.2232C6.54059 17.1291 6.58765 17.1291 6.63471 17.082Z" fill="#BB4449"/>
<path d="M8.18805 17.4583H8.14099C8.09393 17.3642 8.09393 17.3171 8.04688 17.223C8.09393 17.176 8.18805 17.176 8.23511 17.1289C8.23511 17.1289 8.23511 17.1289 8.28217 17.1289C8.28217 17.1289 8.28217 17.1289 8.28217 17.176C8.37629 17.3642 8.37629 17.3642 8.18805 17.4583Z" fill="#DBA589"/>
<path d="M6.82324 17.8345C6.91736 17.7875 6.96442 17.7404 7.05854 17.6934C7.1056 17.7875 7.15265 17.8345 7.19971 17.9287C7.1056 17.9757 7.05854 17.9757 6.96442 18.0228C6.96442 18.0228 6.96442 18.0228 6.91736 18.0228C6.8703 17.9287 6.82324 17.8816 6.82324 17.8345Z" fill="#B17664"/>
<path d="M7.76483 18.8715L7.71777 18.8245C8.04718 18.6362 8.32954 18.448 8.65895 18.2598C8.65895 18.2598 8.65895 18.2598 8.70601 18.2598C8.75307 18.3068 8.75307 18.3539 8.80013 18.4009C8.80013 18.4009 8.80013 18.4009 8.80013 18.448C8.51777 18.5892 8.23542 18.6833 7.95307 18.8245C7.85895 18.8715 7.81189 18.8715 7.76483 18.8715Z" fill="#C3524C"/>
<path d="M8.7533 18.4464C8.70624 18.3994 8.70624 18.3523 8.65918 18.3052C8.7533 18.2582 8.80036 18.2111 8.89447 18.1641C8.94153 18.2111 8.94153 18.3052 8.98859 18.3523C8.89447 18.3523 8.84741 18.3994 8.7533 18.4464Z" fill="#C97F6C"/>
<path d="M10.2117 18.2113C10.2117 18.2584 10.2117 18.3054 10.2117 18.3525C10.1646 18.3525 10.1646 18.3525 10.1176 18.3995C10.0705 18.3054 10.0705 18.2584 10.0234 18.1642C10.0705 18.1642 10.1646 18.1172 10.2117 18.1172C10.2117 18.1172 10.2117 18.1642 10.2117 18.2113Z" fill="#C97F6C"/>
<path d="M12.47 19.5302C12.3759 19.5773 12.3289 19.5773 12.2347 19.6243C12.1877 19.5302 12.1877 19.4832 12.1406 19.389C12.2347 19.342 12.2818 19.342 12.3759 19.2949C12.3759 19.342 12.423 19.4361 12.47 19.5302Z" fill="#DBA589"/>
<path d="M6.91773 18.0234C7.0589 18.2587 7.20008 18.494 7.34126 18.7293C7.20008 18.6823 7.10596 18.6352 6.96479 18.5881C6.91773 18.5411 6.91773 18.494 6.87067 18.447C6.82361 18.3529 6.77655 18.2587 6.72949 18.1646C6.77655 18.1176 6.82361 18.0705 6.91773 18.0234Z" fill="#DA8573"/>
<path d="M6.68238 18.1172C6.72943 18.2113 6.77649 18.3054 6.82355 18.3995C6.72943 18.3525 6.58826 18.3054 6.49414 18.2584C6.49414 18.2584 6.49414 18.2584 6.49414 18.2113C6.5412 18.2113 6.58826 18.1642 6.68238 18.1172Z" fill="#DA5B54"/>
<path d="M7.38867 18.7773C7.43573 18.8244 7.52985 18.8244 7.52985 18.8715C7.57691 18.9656 7.67102 18.9185 7.71808 18.9185C7.76514 19.0126 7.76514 19.1068 7.8122 19.1538C7.71808 19.2009 7.67102 19.2009 7.57691 19.2479C7.52985 19.1538 7.48279 19.1068 7.43573 19.0126C7.43573 18.9656 7.38867 18.8715 7.38867 18.7773Z" fill="#91353B"/>
</g>
<defs>
<clipPath id="clip0_1302_3036">
<rect width="24" height="24" fill="white"/>
</clipPath>
</defs>
</svg>
