<svg width="25" height="24" viewBox="0 0 25 24" fill="none" xmlns="http://www.w3.org/2000/svg">
<g clip-path="url(#clip0_720_13625)">
<path d="M12.8181 23.9991C12.2787 23.9991 11.7514 23.8498 11.3029 23.5701C10.8544 23.2904 10.5048 22.8929 10.2984 22.4278C10.092 21.9626 10.038 21.4508 10.1432 20.9571C10.2485 20.4633 10.5082 20.0097 10.8896 19.6537C11.271 19.2978 11.757 19.0553 12.286 18.9571C12.8151 18.8589 13.3634 18.9093 13.8618 19.102C14.3601 19.2946 14.7861 19.6209 15.0857 20.0395C15.3854 20.4581 15.5454 20.9502 15.5454 21.4537C15.5454 22.1288 15.258 22.7762 14.7466 23.2536C14.2351 23.7309 13.5414 23.9991 12.8181 23.9991Z" fill="#B41514"/>
<path d="M12.8181 5.45455C12.2787 5.45455 11.7514 5.29459 11.3029 4.99492C10.8544 4.69524 10.5048 4.2693 10.2984 3.77096C10.092 3.27261 10.038 2.72425 10.1432 2.19521C10.2485 1.66617 10.5082 1.18022 10.8896 0.798801C11.271 0.417385 11.757 0.157637 12.286 0.052405C12.8151 -0.0528274 13.3634 0.00118162 13.8618 0.207602C14.3601 0.414023 14.7861 0.763585 15.0857 1.21208C15.3854 1.66058 15.5454 2.18787 15.5454 2.72727C15.5454 3.45059 15.258 4.14428 14.7466 4.65575C14.2351 5.16721 13.5414 5.45455 12.8181 5.45455Z" fill="#B41514"/>
<path d="M1.72754 17.0918V13.0918H23.9094V17.0918H1.72754Z" fill="#B41514"/>
<path d="M12.6364 11.2727C6.33871 11.2727 1.21355 6.26263 1 0H4.99295C5.20247 4.05253 8.54671 7.27273 12.6364 7.27273C16.726 7.27273 20.0703 4.05253 20.2798 0H24.2727C24.0592 6.26263 18.934 11.2727 12.6364 11.2727Z" fill="#B41514"/>
</g>
<defs>
<clipPath id="clip0_720_13625">
<rect width="24" height="24" fill="white" transform="translate(0.636719)"/>
</clipPath>
</defs>
</svg>
