<svg width="24" height="24" viewBox="0 0 24 24" fill="none" xmlns="http://www.w3.org/2000/svg">
<g clip-path="url(#clip0_2630_7283)">
<path d="M12.7821 0C12.8034 0.0782789 12.8688 0.0656278 12.9263 0.0687906C13.8898 0.132837 14.8249 0.338418 15.7333 0.659441C16.67 0.990742 17.5626 1.41614 18.4055 1.9459C18.9822 2.30804 19.5266 2.70576 20.0268 3.17148C20.6618 3.76292 21.2133 4.42078 21.712 5.12687C22.3336 6.00771 22.7992 6.96682 23.1655 7.97892C23.3483 8.48259 23.5208 8.98863 23.6555 9.50654C23.8233 10.1533 23.9297 10.812 23.9856 11.4777C24.0163 11.8383 23.9856 12.1997 23.9478 12.5586C23.8887 13.1271 23.7713 13.6846 23.5988 14.2302C23.3869 14.8999 23.1143 15.5459 22.8551 16.1974C22.6684 16.6655 22.447 17.117 22.2122 17.5614C22.0531 17.8618 21.8688 18.1496 21.6828 18.4343C21.389 18.885 21.0691 19.3167 20.7122 19.72C19.8598 20.6838 18.9089 21.5307 17.8021 22.1964C17.3577 22.4637 16.9032 22.712 16.425 22.9073C15.4788 23.2931 14.5161 23.6355 13.5069 23.8205C13.0956 23.8956 12.682 23.9707 12.2598 23.9628C12.1022 23.9597 11.9486 24.0071 11.7895 23.9976C11.3388 23.9723 10.8882 23.9415 10.4383 23.898C9.98693 23.8537 9.54575 23.7557 9.10536 23.6616C8.86587 23.6102 8.61377 23.5825 8.38451 23.4607C8.23325 23.3801 8.04812 23.3651 7.88189 23.3105C7.1437 23.0686 6.47564 22.6969 5.86272 22.2194C5.74454 22.1276 5.64528 22.0169 5.52711 21.9292C5.24192 21.7173 4.98036 21.4769 4.75505 21.2073C4.55731 20.9708 4.36035 20.7344 4.13425 20.5281C3.86245 20.2806 3.6009 20.0236 3.35116 19.7563C2.91314 19.2867 2.4436 18.8494 2.01188 18.3734C1.69517 18.0239 1.40526 17.6547 1.15395 17.2562C0.760826 16.6339 0.51424 15.9507 0.351162 15.2359C0.231414 14.7109 0.159723 14.1796 0.106939 13.6435C0.0210676 12.7792 0.0439143 11.9126 0.032097 11.0468C0.0289458 10.8175 0.0147651 10.5882 0.00531132 10.3597C-0.0198988 9.71687 0.0226433 9.07561 0.0998491 8.43594C0.199114 7.61678 0.515815 6.88538 0.944387 6.18957C1.07123 5.9832 1.22249 5.79659 1.36272 5.60366C1.50531 5.40836 1.655 5.20911 1.84328 5.04701C1.94649 4.95846 1.9977 4.82246 2.10169 4.72915C2.27579 4.57101 2.44517 4.40734 2.61062 4.2405C2.91944 3.92897 3.22038 3.60953 3.53236 3.30195C3.75531 3.08213 3.97748 2.86311 4.2154 2.65674C4.4541 2.44958 4.68887 2.23767 4.93073 2.03288C5.2624 1.75218 5.60668 1.48888 5.96828 1.25088C6.56308 0.857905 7.20909 0.563766 7.89686 0.377953C8.37663 0.248279 8.86666 0.163674 9.36377 0.11386C9.63162 0.0869766 9.89948 0.0766975 10.1673 0.0616743C10.2304 0.0585115 10.3021 0.0743254 10.3414 0.00158139H12.7813L12.7821 0ZM13.2745 10.2624C13.2138 10.2672 13.1902 10.2316 13.1602 10.2079C12.816 9.9351 12.4741 9.65914 12.1266 9.39031C11.4113 8.83682 10.692 8.28729 9.97511 7.73538C9.36692 7.26729 8.7666 6.7905 8.14581 6.33901C7.9977 6.23148 7.99848 6.23385 7.87874 6.37143C7.68493 6.59441 7.51004 6.83241 7.3312 7.06724C7.05704 7.4278 6.78367 7.78757 6.51109 8.14891C6.42128 8.26752 6.42364 8.27543 6.54024 8.36636C6.61272 8.42329 6.68677 8.47626 6.76004 8.5324C7.92128 9.42905 9.08173 10.3257 10.243 11.2216C10.4872 11.4097 10.7322 11.5963 10.9764 11.7845C11.0678 11.8549 11.0678 11.8707 10.9835 11.9474C10.9693 11.9609 10.9536 11.9727 10.9378 11.9854C10.3982 12.4029 9.85852 12.8203 9.31886 13.2363C8.39397 13.9487 7.46828 14.6603 6.54418 15.3727C6.42679 15.4636 6.42758 15.466 6.52054 15.5878C6.97354 16.1832 7.42574 16.7786 7.87952 17.3732C7.95988 17.4786 8.05179 17.4839 8.15526 17.389C8.17417 17.3716 8.19859 17.3605 8.21907 17.3447C8.50741 17.1138 8.80048 16.8893 9.10773 16.6845C9.26135 16.5817 9.37086 16.4212 9.52921 16.3397C9.70568 16.248 9.80416 16.0606 9.99638 16.0005C10.2532 15.7246 10.5849 15.5427 10.8709 15.3016C11.0859 15.1205 11.312 14.9497 11.5413 14.7876C11.8454 14.5725 12.1337 14.3409 12.4213 14.1052C12.6371 13.9281 12.879 13.7818 13.098 13.6071C13.1413 13.5723 13.176 13.5138 13.2572 13.5288C13.2768 13.6443 13.2532 13.7589 13.2359 13.8728C13.15 14.4429 13.0633 15.0129 12.9783 15.5838C12.8908 16.1737 12.8042 16.7643 12.7175 17.3542C12.6757 17.6396 12.6316 17.9243 12.5907 18.2097C12.5733 18.3331 12.582 18.3426 12.7017 18.3639C12.7663 18.3758 12.8309 18.3868 12.8955 18.3971C13.5817 18.4999 14.2679 18.6011 14.9541 18.7047C15.1314 18.7316 15.1534 18.7158 15.1778 18.5315C15.2133 18.2651 15.2519 17.9994 15.2905 17.7337C15.359 17.2664 15.4362 16.8007 15.4953 16.3326C15.571 15.7341 15.708 15.145 15.738 14.5401C15.8625 14.1811 15.8428 13.7984 15.9223 13.4316C15.994 13.0995 16.0263 12.7579 16.0775 12.421C16.1177 12.1546 16.161 11.8881 16.1216 11.6185C16.0429 11.0737 15.9625 10.5289 15.8822 9.98412C15.7419 9.04398 15.6017 8.10384 15.4599 7.16371C15.3622 6.51534 15.2653 5.86697 15.1652 5.21939C15.1361 5.02804 15.1219 5.02408 14.9431 5.05018C14.2183 5.15771 13.4974 5.28897 12.7679 5.36329C12.5899 5.38148 12.5686 5.41311 12.5954 5.58864C12.6805 6.13976 12.7695 6.68929 12.8491 7.2412C12.9869 8.2011 13.1075 9.16417 13.2831 10.1185C13.291 10.1636 13.2997 10.2095 13.2761 10.2601L13.2745 10.2624Z" fill="#48E9CA"/>
<path d="M13.2742 10.2624C13.2971 10.2118 13.2892 10.1659 13.2813 10.1209C13.1056 9.1665 12.9843 8.20343 12.8472 7.24353C12.7684 6.69162 12.6786 6.14209 12.5935 5.59097C12.5668 5.41544 12.588 5.38381 12.7661 5.36563C13.4956 5.2913 14.2164 5.15925 14.9412 5.05251C15.1201 5.02642 15.1343 5.03037 15.1634 5.22172C15.2635 5.8693 15.3604 6.51767 15.458 7.16604C15.5991 8.10618 15.7401 9.04632 15.8803 9.98645C15.9615 10.5312 16.041 11.076 16.1198 11.6208C16.1592 11.8912 16.1159 12.1577 16.0757 12.4234C16.0245 12.7602 15.993 13.101 15.9205 13.4339C15.8409 13.8016 15.8606 14.1843 15.7361 14.5424C15.7062 15.1465 15.5691 15.7364 15.4935 16.335C15.4344 16.803 15.3572 17.2688 15.2887 17.7361C15.2501 18.0017 15.2115 18.2674 15.176 18.5339C15.1516 18.7181 15.1295 18.7339 14.9523 18.707C14.2661 18.6035 13.5799 18.5023 12.8937 18.3995C12.8291 18.39 12.7645 18.3781 12.6999 18.3663C12.5802 18.3449 12.5715 18.3354 12.5888 18.2121C12.629 17.9266 12.6731 17.6412 12.7157 17.3565C12.8023 16.7667 12.889 16.176 12.9764 15.5862C13.0615 15.0161 13.1482 14.4452 13.234 13.8751C13.2514 13.7604 13.275 13.6466 13.2553 13.5311C13.1742 13.5161 13.1395 13.5746 13.0962 13.6094C12.8772 13.7842 12.6353 13.9304 12.4194 14.1076C12.1319 14.3432 11.8435 14.5749 11.5395 14.7899C11.3102 14.952 11.0841 15.1228 10.869 15.3039C10.583 15.545 10.2514 15.7269 9.99455 16.0029C9.80153 16.063 9.70306 16.2503 9.52737 16.3421C9.36902 16.4243 9.25952 16.5848 9.10589 16.6868C8.79864 16.8916 8.50558 17.1162 8.21724 17.347C8.19675 17.3629 8.17233 17.3739 8.15342 17.3913C8.04996 17.4862 7.95805 17.4809 7.87769 17.3755C7.42469 16.7801 6.9717 16.1855 6.51871 15.5901C6.42575 15.4683 6.42496 15.466 6.54234 15.375C7.46724 14.6626 8.39213 13.951 9.31703 13.2386C9.85747 12.8219 10.3963 12.4044 10.936 11.9877C10.9517 11.9758 10.9667 11.9632 10.9817 11.9498C11.0652 11.8723 11.066 11.8572 10.9746 11.7869C10.7304 11.5987 10.4854 11.4121 10.2411 11.2239C9.07989 10.3272 7.91865 9.43059 6.7582 8.53474C6.68572 8.4786 6.61088 8.42483 6.5384 8.36869C6.42181 8.27776 6.42023 8.26906 6.50925 8.15125C6.78184 7.7899 7.056 7.42934 7.32937 7.06958C7.5082 6.83474 7.6831 6.59674 7.8769 6.37376C7.99665 6.23618 7.99586 6.23381 8.14397 6.34134C8.76477 6.79283 9.36508 7.26962 9.97328 7.73771C10.6902 8.28962 11.4095 8.83836 12.1248 9.39264C12.4722 9.66148 12.8141 9.93743 13.1584 10.2102C13.1883 10.2339 13.212 10.2695 13.2726 10.2648L13.2742 10.2624Z" fill="#FEFEFF"/>
</g>
<defs>
<clipPath id="clip0_2630_7283">
<rect width="24" height="24" fill="white"/>
</clipPath>
</defs>
</svg>
