<svg width="25" height="24" viewBox="0 0 25 24" fill="none" xmlns="http://www.w3.org/2000/svg">
<path fill-rule="evenodd" clip-rule="evenodd" d="M9.16998 12L15.9887 19.0276L20.3159 14.6519C21.1027 13.8564 22.2829 13.8564 22.9385 14.6519C23.7253 15.4475 23.7253 16.7735 22.9385 17.5691L17.3 23.4033C16.5132 24.1989 15.333 24.1989 14.5463 23.4033L6.41628 14.9171V19.9558C6.41628 21.0166 5.49838 21.9447 4.44935 21.9447C3.40032 21.9447 2.48242 21.0166 2.48242 19.9558V4.0442C2.48242 2.98343 3.40032 2.05525 4.44935 2.05525C5.49838 2.05525 6.41628 2.98343 6.41628 4.0442V9.08287L14.5463 0.596685C15.333 -0.198895 16.5132 -0.198895 17.3 0.596685L22.9385 6.43094C23.7253 7.22652 23.7253 8.55249 22.9385 9.34807C22.1517 10.1436 20.9716 10.1436 20.3159 9.34807L15.9887 4.83978L9.16998 12ZM15.9887 10.011C17.0377 10.011 17.9556 10.9392 17.9556 12C17.9556 13.0608 17.0377 13.989 15.9887 13.989C14.9396 13.989 14.0217 13.0608 14.0217 12C14.0217 10.9392 14.9396 10.011 15.9887 10.011Z" fill="#23AF91"/>
</svg>
