<svg width="24" height="24" viewBox="0 0 24 24" fill="none" xmlns="http://www.w3.org/2000/svg">
<g clip-path="url(#clip0_2486_3928)">
<path d="M12.3926 -0.000562022C12.3564 0.0717753 12.402 0.103423 12.4573 0.132636C12.5717 0.192801 12.6573 0.287744 12.7473 0.37747C14.1078 1.73519 15.4683 3.0929 16.8285 4.45097C17.2288 4.85056 17.2291 5.38822 16.8295 5.78782C15.9615 6.65552 15.0931 7.52287 14.225 8.39057C14.0442 8.57141 13.878 8.75991 13.8122 9.01935C13.7156 9.40121 13.8432 9.71003 14.1138 9.96912C14.3864 10.2303 14.7251 10.2842 15.0621 10.1594C15.2009 10.1079 15.3501 10.0216 15.4715 9.89853C16.222 9.13446 16.9826 8.38014 17.7428 7.62581C17.9191 7.45088 18.0993 7.28012 18.2714 7.10067C18.495 6.86731 19.1582 6.80019 19.4712 7.09024C19.5474 7.16084 19.6288 7.22622 19.7018 7.2996C21.047 8.64758 22.3912 9.99625 23.7353 11.3453C24.1207 11.732 24.0723 12.327 23.6793 12.7079C22.9772 13.3881 22.2872 14.0812 21.6066 14.7837C20.9256 15.4862 20.2308 16.1752 19.53 16.8582C19.1746 17.2046 18.5695 17.2084 18.1869 16.8165C17.2813 15.8886 16.3597 14.9757 15.436 14.0656C15.1599 13.7936 14.8065 13.7015 14.4379 13.8277C14.088 13.9477 13.8853 14.2113 13.8122 14.5869C13.7472 14.9211 13.8543 15.1872 14.0731 15.4177C14.9491 16.3418 15.869 17.2227 16.7649 18.1276C16.8198 18.1829 16.8615 18.257 16.9544 18.2695C16.9944 18.2747 17.0177 18.315 17.0159 18.3623C17.0149 18.3909 17.0135 18.4222 17.0236 18.4475C17.209 18.9188 17.1571 19.2328 16.8028 19.5886C15.443 20.9536 14.0783 22.3138 12.7157 23.6757C12.4225 23.9685 12.0709 24.07 11.6769 23.9473C11.4933 23.8902 11.3434 23.7483 11.2074 23.6127C9.96306 22.376 8.72393 21.1348 7.48307 19.8946C7.06678 19.4787 6.64493 19.068 6.23525 18.6458C4.65982 17.0224 3.04823 15.4348 1.45159 13.8319C1.07565 13.4545 0.696921 13.0803 0.322019 12.7023C-0.104702 12.2721 -0.106789 11.732 0.32028 11.3046C1.69121 9.93296 3.06388 8.56237 4.43725 7.19318C4.84171 6.79011 5.40998 6.78802 5.81653 7.19144C6.72874 8.09705 7.63505 9.00822 8.54761 9.91313C9.02163 10.3833 9.75683 10.295 10.0987 9.74237C10.2705 9.46485 10.2455 8.84372 9.93141 8.53977C9.04528 7.68285 8.18244 6.80158 7.31057 5.93006C7.25319 5.87267 7.19615 5.81529 7.14016 5.75686C6.85429 5.45708 6.80943 4.9855 7.03826 4.63216C7.1099 4.52157 7.18989 4.41688 7.28484 4.32229C8.45823 3.15411 9.62711 1.98106 10.8029 0.815668C11.1159 0.505452 11.3802 0.128115 11.8376 -0.00195312H12.3937L12.3926 -0.000562022Z" fill="url(#paint0_linear_2486_3928)"/>
</g>
<defs>
<linearGradient id="paint0_linear_2486_3928" x1="12.0007" y1="-0.00195313" x2="12.0007" y2="23.9984" gradientUnits="userSpaceOnUse">
<stop stop-color="#8A68F9"/>
<stop offset="1" stop-color="#6526C8"/>
</linearGradient>
<clipPath id="clip0_2486_3928">
<rect width="24.0007" height="24" fill="white"/>
</clipPath>
</defs>
</svg>
