<svg width="24" height="24" viewBox="0 0 24 24" fill="none" xmlns="http://www.w3.org/2000/svg">
<circle cx="11.9998" cy="11.9998" r="11.9998" fill="#304631"/>
<path fill-rule="evenodd" clip-rule="evenodd" d="M22.3167 18.1326C20.2239 21.6472 16.3864 24.0018 11.999 24.0018C6.61131 24.0018 2.05295 20.4513 0.536133 15.5624L0.799083 15.4121L6.60952 20.1699L14.6094 21.0962L22.0619 18.0647L22.3167 18.1326Z" fill="#EEBB2E"/>
<path d="M19.1156 15.9577L22.2314 18.0629L21.0946 19.1997L19.1156 20.505L17.1367 21.3049L15.3683 21.8944L14.5684 22.0207L14.8631 22.3576L14.5684 22.6102L13.7263 22.947V23.4523L11.5368 23.5365L11.621 22.947L10.9052 22.6102L10.4 22.147L10.5684 21.8944L8.16845 21.3049L6.44216 20.505L3.53694 18.7366L1.3475 16.8419L0.758037 15.9998L0.673828 15.4524L3.32642 13.8945L8.16845 17.5155L11.4105 18.105L13.3052 18.2313H15.7894L15.3683 16.1261L15.7894 15.6629H17.0104L17.3473 16.1261L19.1156 14.9893V15.9577Z" fill="#EEBB2E"/>
<path d="M5.72624 19.032L4.54731 18.6109L4.421 18.4004L4.16837 16.8846L3.99995 14.6952L3.87364 14.4426L2.18945 12.8847L3.07365 10.8637L5.30519 4.92693L5.93676 4.42167L6.48412 3.36906L8.88409 2.56907L10.063 2.31644L12.5472 1.9375L15.4945 2.44276L17.2629 2.65328L17.3471 3.36906L18.2313 4.54799L18.4418 6.65322L18.526 7.79004L17.2629 6.73743L16.6734 6.65322H15.7892L14.6103 6.99005L13.7261 6.5269H12.2104L10.6946 6.99005L9.68407 7.74794L9.22092 8.80055L9.30513 10.5268L9.05251 10.8637L8.37883 11.2005L7.99989 11.0321L7.91568 13.0531L7.99989 16.0847L8.29462 19.032H5.72624Z" fill="#EEBB2E"/>
<path d="M13.7684 18.02L11.0316 17.9357L8.04222 15.8305L7.95801 12.9253L8.04222 11.1569L8.71589 11.199L9.26325 10.6516L9.05273 9.09377L9.81061 7.62011L11.158 6.77802L12.5053 6.52539L13.6421 6.5675L14.7369 6.98854L15.2 6.6517L16.421 6.5675L17.5158 6.77802L18.3578 7.66222L18.5684 9.09377L18.821 11.4095L19.1999 11.9569V12.6306V13.1358L18.9052 13.7674L18.821 14.82L17.3473 16.1673L17.0526 15.7463L16.4631 15.5358L15.8737 15.62L15.4526 16.2516L15.8737 17.5147L13.7684 18.02Z" fill="#38953C"/>
<path d="M11.5788 9.26262L10.9473 9.59946L11.1157 9.80998L11.4104 9.68366L12.5472 10.0626L13.4314 10.231L14.1472 10.1047L14.5683 9.85208L14.7367 9.47314L13.9367 9.26262L13.0525 9.00999L12.5472 9.0942L11.5788 9.26262Z" fill="white"/>
<path d="M16.1261 9.17841L15.3261 9.55735V9.85208L16.1261 10.1047L17.0103 10.1468L17.5577 9.93629L18.0208 9.55735V9.17841L17.6419 8.92578H16.7577L16.1261 9.17841Z" fill="white"/>
<path d="M18.5353 12.3349L18.6663 12.0967C18.7762 11.8969 19.0578 11.8824 19.1876 12.0699C19.2477 12.1567 19.259 12.2684 19.2174 12.3655L19.1125 12.6101C19.0615 12.7292 19.0684 12.8652 19.1314 12.9785C19.2004 13.1028 19.2017 13.2536 19.1348 13.3791L19.0464 13.545C18.9557 13.715 18.8041 13.8445 18.622 13.9075L18.0111 14.119C17.8777 14.1652 17.7404 14.1995 17.601 14.2217L16.4733 14.4011C16.1312 14.4556 15.7835 14.4653 15.4388 14.4301L13.8948 14.2726L12.4633 14.02L10.9475 13.5989L10.0269 13.2044C9.85768 13.1318 9.71044 13.0161 9.59995 12.8688L9.50955 12.7483C9.43172 12.6445 9.38965 12.5183 9.38965 12.3886V12.2917C9.38965 12.1137 9.49448 11.9524 9.65714 11.8801C9.73012 11.8476 9.81043 11.8352 9.88981 11.844L10.3531 11.8955C10.4685 11.9083 10.5827 11.9303 10.6945 11.9614L12.0422 12.3358L14.0819 12.8093C14.2937 12.8584 14.5091 12.8903 14.7261 12.9044L15.8389 12.977C16.1696 12.9985 16.5017 12.9789 16.8276 12.9186L17.4737 12.7989L18.2573 12.5605C18.3758 12.5244 18.4756 12.4434 18.5353 12.3349Z" fill="#DD4230"/>
<path d="M4.45197 18.4183L4.29471 17.8522L5.72627 18.0206L7.91571 18.189L8.25255 19.0311H6.52626L4.69214 18.649L5.55785 19.9995L3.91577 19.0311L4.45197 18.4183Z" fill="#5347C5"/>
<path d="M5.64206 16.7996L4.12629 16.8838L4.08419 16.0417L5.55785 15.8733L7.7894 15.6627V16.7575L5.64206 16.7996Z" fill="#5347C5"/>
<path d="M4.12629 15.1996L3.91577 14.4417L4.42103 14.1891L6.52626 13.4733L7.8736 13.3049L7.7894 14.5259L6.44205 14.6101L5.1368 14.8628L4.12629 15.1996Z" fill="#5347C5"/>
<path d="M3.36841 12.6733L2.52632 13.1786L2.18948 12.9259L2.52632 11.9996L2.77895 11.6207L3.70525 11.2418L4.88418 11.0312H6.31573L7.95781 11.1154L7.8736 12.1681L4.67365 12.2944L3.36841 12.6733Z" fill="#5347C5"/>
<path d="M4.08419 8.12601L3.49472 9.72599L4.50524 9.59968L5.85258 9.64178L7.7894 10.0207L7.74729 8.84179L5.0947 8.16812L4.08419 8.12601Z" fill="#5347C5"/>
<path d="M7.74729 7.03129V7.74707L6.9473 7.32603L5.64206 6.86288L4.67365 6.65235L5.01049 5.55763L5.81048 5.64184L6.77888 6.27341L7.74729 7.03129Z" fill="#5347C5"/>
<path d="M7.57887 4.84185L8.21044 6.27341L8.88412 6.1892L8.67359 4.96817L8.46307 3.70503L7.99992 2.86294L6.77888 3.24188L6.56836 3.4103L7.11572 3.91555L7.57887 4.84185Z" fill="#5347C5"/>
<path d="M11.3262 5.85236L10.1051 6.02078L9.89463 4.54712L9.51568 3.36819L8.96832 2.56821L10.2736 2.23137L10.6525 2.61031L11.1578 4.25239L11.3262 5.85236Z" fill="#5347C5"/>
<path d="M11.9999 5.05238L12.0841 5.85236L13.0104 5.76816L12.8841 3.11557L12.7577 2.23137L12.6314 1.97874L12.3367 1.89453L11.4525 2.02085L11.8314 3.4103L11.9999 5.05238Z" fill="#5347C5"/>
<path d="M14.063 3.28398L14.1472 4.3366L15.0735 4.12608L15.1998 3.07346L14.9472 2.35768L13.8525 2.23137L14.063 3.28398Z" fill="#5347C5"/>
<path d="M16.2945 4.88396L15.9998 5.85236V5.89447L17.0945 5.97868L17.1787 5.55763L16.9682 3.70503L17.1787 3.11557L17.2629 2.61031L16.2945 2.56821L16.2103 3.11557L16.2945 4.88396Z" fill="#5347C5"/>
<path d="M17.5998 6.48393L17.2629 5.97868L17.5998 5.17869L18.2313 4.84185L18.3577 5.2629V5.85236L17.5998 6.48393Z" fill="#5347C5"/>
<path d="M18.484 7.03129L17.9787 7.1155L18.484 7.62076V7.03129Z" fill="#5347C5"/>
<path d="M19.1155 15.8733H17.9366L19.1155 15.0312V15.8733Z" fill="#5347C5"/>
<path d="M18.7366 16.8417H17.5577L17.684 17.389L19.2418 17.5996V16.9259L18.7366 16.8417Z" fill="#5347C5"/>
<path d="M19.3261 18.3574L17.8945 18.1048L18.0629 19.0311L19.5366 18.9469L19.3261 18.3574Z" fill="#5347C5"/>
<path d="M21.0523 17.8522L20.4208 18.4416L19.9576 17.8101L20.1682 17.2627L21.0523 17.8522Z" fill="#5347C5"/>
<path d="M20.7576 18.189L21.3892 18.9048L22.2734 18.1048L21.4734 17.5574L20.7576 18.189Z" fill="#5347C5"/>
<path d="M19.9997 18.7364L20.7155 19.4522L19.4524 20.2521L19.0313 19.41L19.9997 18.7364Z" fill="#5347C5"/>
<path d="M14.3998 21.01L14.063 21.1363L14.1472 20.5048L14.3998 21.01Z" fill="#5347C5"/>
<path d="M15.8314 20.7153L15.1156 20.9258L14.8209 20.0837L15.5366 19.8732L15.8314 20.7153Z" fill="#5347C5"/>
<path d="M16.7577 21.5153L16.2945 20.589L16.8419 20.3785L17.3471 21.2627L16.7577 21.5153Z" fill="#5347C5"/>
<path d="M15.4945 20.9258L15.7893 21.7679L15.0314 21.9363L14.6946 21.1363L15.4945 20.9258Z" fill="#5347C5"/>
<path d="M3.07368 14.8628L2.10527 15.6206L1.51581 14.9891L2.56842 14.3154L3.07368 14.8628Z" fill="#5347C5"/>
<path d="M3.57893 15.6206L2.69474 16.3785L3.2842 17.0101L3.99998 16.3785V16.2101L3.57893 15.6206Z" fill="#5347C5"/>
<path d="M2.3158 15.9996L1.30528 16.7996L1.26318 16.7575L0.71582 16.0417L1.64212 15.3259L2.3158 15.9996Z" fill="#5347C5"/>
<path d="M2.94736 16.7575L1.97896 17.4311L2.98947 18.2311L3.78946 17.5574L2.94736 16.7575Z" fill="#5347C5"/>
<path d="M9.97884 20.589L9.26306 20.4206L9.47358 19.5364L10.1894 19.789L9.97884 20.589Z" fill="#5347C5"/>
<path d="M10.8209 20.1258L10.6946 20.8416L11.0315 20.9679L10.8209 20.1258Z" fill="#5347C5"/>
<path d="M10.3578 20.7995L10.1894 21.7679L9.43148 21.6416L9.59989 20.589L10.3578 20.7995Z" fill="#5347C5"/>
<path d="M8.79991 20.3364L8.37886 21.3048L7.41045 20.8837L7.8736 19.9153L8.79991 20.3364Z" fill="#5347C5"/>
<path fill-rule="evenodd" clip-rule="evenodd" d="M8.6737 17.8092L8.82845 19.2019C8.87137 19.2203 8.92166 19.2411 8.97815 19.2637C9.14226 19.3296 9.35591 19.4105 9.58705 19.4957C9.79148 19.5711 10.0092 19.6498 10.2178 19.7243C10.427 19.7989 10.627 19.8693 10.795 19.9279C10.8484 19.5328 11.0323 19.1791 11.3019 18.9116C10.4632 18.7151 9.54251 18.3739 8.6737 17.8092ZM13.9556 19.0974C14.1682 19.3769 14.2996 19.7215 14.3143 20.0962C14.4542 20.0743 14.6203 20.0433 14.8024 20.002C14.8314 19.9954 14.8608 19.9888 14.8905 19.982C15.3567 19.8769 15.9095 19.7521 16.3933 19.5176C16.2473 19.1542 16.1066 18.7981 15.9999 18.525L13.9556 19.0974ZM14.2839 20.5029C14.2987 20.4259 14.3085 20.347 14.313 20.2668C14.4415 20.2473 14.5921 20.2201 14.7571 20.1845L14.9174 20.9033C14.8353 20.9214 14.7555 20.938 14.6783 20.9533C14.5946 20.9699 14.5139 20.9848 14.4365 20.9981L14.2839 20.5029ZM14.1991 20.7998C14.1656 20.8874 14.1253 20.9716 14.0788 21.0518C14.1391 21.0443 14.2024 21.0355 14.2687 21.0254L14.1991 20.7998ZM13.9463 21.2489L14.7122 22.3477C14.5358 22.5206 14.1546 22.8123 13.7225 22.9029C13.6762 22.9126 13.6421 22.9535 13.6421 23.0019V23.367C13.6421 23.4135 13.6798 23.4512 13.7263 23.4512C13.7728 23.4512 13.8105 23.4135 13.8105 23.367V23.0556C14.3005 22.9353 14.7125 22.5952 14.8733 22.4239C14.9074 22.3877 14.9085 22.3348 14.8824 22.2973L14.7202 22.0647C14.8162 22.0544 14.92 22.0408 15.0309 22.0234C15.2612 21.9874 15.5227 21.9353 15.8095 21.8648C16.109 21.7912 16.4363 21.6974 16.7846 21.5805C16.9983 21.5088 17.2199 21.4284 17.448 21.3387C18.5959 21.7198 18.8468 21.1026 18.8209 20.7144C19.0433 20.599 19.2684 20.4742 19.4951 20.341C19.9142 20.0949 20.3388 19.8176 20.7617 19.506C20.9909 19.3371 21.2197 19.1581 21.4468 18.9686C21.7408 18.7232 21.8015 18.5364 22.0875 18.2545C22.1328 18.2099 22.3566 18.0588 22.3043 18.023L21.5222 17.4873L21.5198 17.4856L21.0091 17.1358L21.0104 17.1355L20.9925 17.1245L19.2475 15.9293C19.2457 15.9281 19.244 15.927 19.2422 15.9259C19.2392 15.9242 19.2361 15.9226 19.2329 15.9213L19.0735 13.8093L19.3683 13.2198L19.242 12.7567L19.3683 12.1672L19.0735 11.6198L18.9051 11.1988L18.6104 8.20936L18.3157 4.54626L17.5999 3.57785L17.3473 2.60945L15.0736 2.35682L12.5052 1.85156L10.3579 2.14629L8.04213 2.77786L6.31585 3.36733L5.9369 4.37784L5.22113 4.9252L4.67377 6.44097L2.82116 11.3251L2.06328 12.883L3.18327 13.8569L0.713849 15.3797C0.674263 15.4041 0.661961 15.456 0.686373 15.4956C0.710784 15.5352 0.762664 15.5475 0.80225 15.523L1.49664 15.0948C1.53987 15.1488 1.58614 15.2061 1.63508 15.2662L0.751695 15.8878C0.713659 15.9145 0.704522 15.967 0.731285 16.0051C0.758048 16.0431 0.810578 16.0523 0.848613 16.0255L1.74213 15.3968C1.82553 15.498 1.91499 15.6052 2.00897 15.7163C2.08406 15.805 2.16205 15.8963 2.24214 15.9889L1.3078 16.7643C1.2625 16.8019 1.2586 16.8705 1.30019 16.9128C1.47409 17.09 1.68296 17.2901 1.92277 17.5057C2.2058 17.7603 2.53215 18.0369 2.89528 18.3239C3.19831 18.5633 3.52703 18.8099 3.87762 19.057C4.39842 19.424 4.96778 19.792 5.57325 20.1385L5.72638 20.4618H6.16124C6.55448 20.6691 6.96037 20.8652 7.37582 21.0444C7.69566 21.1824 8.02123 21.3104 8.35114 21.426C8.68618 21.5434 9.02573 21.6479 9.36833 21.7369C9.63538 21.8062 9.9043 21.8661 10.1744 21.9153C10.2596 21.9309 10.345 21.9453 10.4304 21.9587L10.3318 22.1375C10.3127 22.172 10.3145 22.2169 10.3422 22.2504C10.4402 22.3688 10.6161 22.5404 10.8395 22.6883C11.0436 22.8233 11.2922 22.9419 11.561 22.9785L11.4545 23.4757C11.4447 23.5212 11.4737 23.5659 11.5192 23.5757C11.5647 23.5854 11.6094 23.5565 11.6192 23.511L11.7414 22.9407C11.7545 22.8796 11.7099 22.8231 11.6499 22.8186C11.3905 22.7989 11.1417 22.6863 10.9325 22.5478C10.7453 22.424 10.5945 22.2824 10.5018 22.1779L11.0726 21.1433C11.3893 21.6207 11.9315 21.9355 12.5473 21.9355C13.1165 21.9355 13.6229 21.6666 13.9463 21.2489ZM10.9079 20.8313C10.8869 20.7794 10.8682 20.7263 10.8521 20.6721L10.8312 20.809L10.9079 20.8313ZM8.94621 20.2617L8.84972 19.3934C8.8707 19.402 8.89263 19.4109 8.91544 19.42C9.06402 19.4797 9.2518 19.5511 9.45539 19.6266L9.24768 20.3493L8.94621 20.2617ZM8.96844 20.4618H8.87022L8.49362 21.2971C8.76835 21.3913 9.04581 21.4765 9.32518 21.5513L9.52271 20.6045L8.96634 20.4429L8.96844 20.4618ZM7.70767 20.4618H8.68547L8.33404 21.2413C8.05899 21.1432 7.78689 21.0364 7.51859 20.9223L7.70767 20.4618ZM6.52858 20.4618H7.52561L7.36393 20.8556C7.08062 20.7315 6.80184 20.5997 6.52858 20.4618ZM5.34744 19.6618L5.44603 19.8699C5.29249 19.7796 5.14143 19.6879 4.99307 19.5954L5.34744 19.6618ZM4.44609 18.5821L4.63326 19.3659C4.43134 19.2343 4.23508 19.1015 4.04509 18.9688L4.44609 18.5821ZM3.356 13.8493C3.36632 13.866 3.37008 13.885 3.36799 13.9031L3.86571 14.3493C3.87065 14.3538 3.87773 14.3549 3.8838 14.3522L5.01066 13.8513L6.43981 13.3049L6.44478 13.3038L7.77377 13.2208C7.78265 13.2202 7.78956 13.2128 7.78956 13.204V12.3103C7.78956 12.301 7.78202 12.2935 7.77272 12.2935H7.53693H6.44221L5.64223 12.3777L4.33856 12.5038L4.33546 12.5044L3.32907 12.798L3.32424 12.8003L2.67044 13.2498C2.66145 13.2559 2.66062 13.2689 2.66874 13.2762L3.26567 13.8114C3.29982 13.8036 3.33659 13.8178 3.356 13.8493ZM2.73299 14.3324L3.3164 13.9726L3.94088 14.5157L3.93487 14.5179C3.92502 14.5216 3.92093 14.5333 3.92634 14.5424L4.00009 14.6653V16.0388L2.73299 14.3324ZM4.00009 14.6653V14.5672L3.94088 14.5157L4.92645 14.1461L6.10399 13.6835L6.10536 13.683L6.10684 13.6826L7.15799 13.4724L7.7701 13.4316C7.78035 13.4309 7.78883 13.4395 7.78801 13.4497L7.7065 14.4686C7.70584 14.4769 7.6993 14.4834 7.69107 14.4841L6.14748 14.6092L4.67523 14.9037L4.67367 14.9041L4.67248 14.9045L4.14471 15.1075C4.1351 15.1112 4.12445 15.1054 4.12222 15.0954L4.04284 14.7382L4.04085 14.7332L4.00009 14.6653ZM3.40651 17.0088L4.00009 16.481V16.7145L4.24886 17.7562C4.13637 17.6779 4.00879 17.5745 3.87033 17.4515C3.72411 17.3216 3.56764 17.1715 3.40651 17.0088ZM3.81372 17.626C3.99383 17.7825 4.16142 17.9102 4.30495 17.9911L4.36802 18.2552L3.90737 18.8717C3.6151 18.6642 3.33859 18.4572 3.08015 18.255L3.81372 17.626ZM4.38259 17.9179L4.42072 18.1848C4.42672 18.1778 4.4259 18.1846 4.42264 18.1982L4.44466 18.3524C4.474 18.3912 4.50732 18.4552 4.51087 18.4961L5.21988 18.693L5.22152 18.6934L5.22252 18.6935L6.73695 18.8618L7.97854 18.9032C7.98948 18.9035 7.99786 18.8935 7.99557 18.8828L7.87638 18.3266C7.87483 18.3194 7.86874 18.314 7.86137 18.3134L6.90536 18.2302L5.26461 18.104L5.26355 18.1039L5.262 18.1036L4.40316 17.8991C4.3916 17.8964 4.38091 17.9061 4.38259 17.9179ZM20.4985 17.3816C20.6003 17.3051 20.7066 17.2461 20.8089 17.2029L21.3392 17.5661C21.2989 17.5997 21.2574 17.629 21.2136 17.6592L21.1947 17.6721C21.1459 17.7056 21.0934 17.7416 21.0401 17.7854L20.4985 17.3816ZM20.0892 17.8727C20.1632 17.722 20.2597 17.5964 20.3668 17.4935L20.9123 17.9001C20.8282 17.9764 20.7431 18.051 20.6572 18.124C20.5835 18.1866 20.5092 18.2481 20.4344 18.3084L20.0892 17.8727ZM19.9462 18.6801C19.9299 18.4398 19.958 18.2315 20.0165 18.0521L20.3024 18.413C20.1906 18.5003 20.0777 18.585 19.9639 18.6673L19.9462 18.6801ZM20.2104 19.6618C20.0781 19.7374 19.7652 19.8486 19.3281 19.8721L19.484 20.152C19.8481 19.9352 20.216 19.6946 20.583 19.4281L20.0041 18.8458C19.992 18.8544 19.9799 18.863 19.9678 18.8716C20.0046 19.1069 20.0818 19.3695 20.2104 19.6618ZM17.7566 20.1287C17.7077 20.1507 17.659 20.1724 17.6104 20.1937L17.5647 20.3534C17.5614 20.3649 17.5709 20.3761 17.5828 20.3748L17.9128 20.3381C17.9244 20.3368 17.9312 20.3243 17.926 20.3139L17.8554 20.1728C17.8536 20.1691 17.8504 20.1662 17.8466 20.1647L17.7566 20.1287ZM17.7442 19.9493C17.7738 19.9358 17.8035 19.9221 17.8332 19.9083L17.7283 19.4186C17.727 19.4127 17.7228 19.408 17.7171 19.4061L17.492 19.3311C17.4823 19.3278 17.472 19.334 17.4701 19.3441L17.3918 19.7752C17.3904 19.7828 17.3943 19.7903 17.4014 19.7935L17.7442 19.9493ZM16.8951 20.3051C17.0656 20.2399 17.2386 20.17 17.4135 20.0954L17.4292 20.0111C17.4306 20.0037 17.4269 19.9963 17.4202 19.9929L17.275 19.9204C17.268 19.9169 17.2596 19.9186 17.2545 19.9245C17.1827 20.007 17.0213 20.1516 16.8665 20.1659C16.8548 20.167 16.8466 20.1789 16.8509 20.1899L16.8951 20.3051ZM17.3281 20.314C17.2028 20.3658 17.0785 20.4152 16.9556 20.4623L17.0411 20.6846C17.046 20.6972 17.063 20.6992 17.0707 20.6881L17.3281 20.314ZM16.4308 19.611C16.5355 19.8707 16.6416 20.1308 16.7388 20.3639C16.5791 20.4229 16.422 20.4778 16.2681 20.5289C16.129 20.575 15.9925 20.618 15.8593 20.6578L15.6224 19.9472C15.8937 19.8557 16.1704 19.7445 16.4308 19.611ZM17.0105 18.8618C17.0492 18.9975 16.9504 19.1491 16.8247 19.2746C16.8192 19.2702 16.8151 19.2771 16.8106 19.2885C16.7874 19.311 16.7634 19.3326 16.7393 19.353C16.7323 19.3495 16.7244 19.3441 16.7157 19.3364C16.6564 19.3752 16.5952 19.4116 16.5325 19.4459L16.3414 18.8344C16.3388 18.8261 16.343 18.8171 16.3511 18.8138L16.7999 18.6302C16.8421 18.6092 16.9431 18.626 17.0105 18.8618ZM17.1367 21.2197C17.1095 21.2197 16.9763 20.9272 16.8041 20.5193C16.6724 20.568 16.5425 20.614 16.4147 20.6573L16.7992 21.3978C16.9331 21.352 17.07 21.3029 17.2095 21.2502C17.1856 21.2404 17.1613 21.2302 17.1367 21.2197ZM18.6117 19.8304C18.6234 19.858 18.7137 20.2459 18.782 20.5441C18.966 20.4479 19.1518 20.3457 19.3388 20.2373L19.1378 19.8765C18.9755 19.8753 18.7993 19.8617 18.6117 19.8304ZM18.6117 19.8304C18.6108 19.8285 18.6104 19.8302 18.6104 19.8302L18.6117 19.8304ZM12.1658 1.93631L11.5968 2.05823C11.5872 2.06029 11.5814 2.07011 11.5842 2.07953L11.8316 2.90414L12.0842 4.54622L12.1257 5.6659C12.126 5.67532 12.1341 5.68262 12.1435 5.6821L12.8674 5.64188C12.8767 5.64136 12.8838 5.63343 12.8833 5.62415L12.8 4.08307V3.19888L12.716 2.443L12.7151 2.4391L12.551 1.98767C12.5488 1.98165 12.5434 1.97739 12.537 1.97669L12.1712 1.93604L12.1658 1.93631ZM10.5475 2.26836L11.3539 2.10707C11.3622 2.10541 11.3705 2.1102 11.3732 2.11826L11.579 2.73573L11.7895 3.87255L11.9158 4.79885V5.6686C11.9158 5.67691 11.9097 5.68398 11.9015 5.68525L11.3863 5.76452C11.3766 5.766 11.3677 5.75902 11.3669 5.74931L11.2423 4.29526L11.2417 4.292L10.8636 2.98963L10.8626 2.98715L10.5355 2.29204C10.5309 2.28214 10.5367 2.2705 10.5475 2.26836ZM10.1008 2.31566L9.16345 2.51943C9.15124 2.52209 9.14607 2.53665 9.15388 2.54641L9.30411 2.7342L9.30616 2.73748L9.72581 3.61873L9.72675 3.62119L10.0628 4.75528L10.0632 4.75681L10.0634 4.75827L10.1876 5.91792C10.1887 5.92756 10.1976 5.93433 10.2071 5.93274L11.186 5.7696C11.1941 5.76825 11.2 5.76122 11.2 5.75299V5.30411L11.0739 4.29508L11.0733 4.29217L10.6952 3.07387L10.6942 3.07133L10.3611 2.40513C10.3591 2.40113 10.3556 2.39809 10.3513 2.39668L10.1097 2.31614C10.1068 2.31518 10.1038 2.31502 10.1008 2.31566ZM8.14362 2.85534L8.87404 2.57129C8.88026 2.56887 8.88733 2.57036 8.89205 2.57508L9.09276 2.77579L9.09605 2.78043L9.55743 3.74515L9.55788 3.74617L9.55832 3.74739L9.87329 4.75531L9.87393 4.75824L10.0191 5.91953C10.0202 5.92853 10.014 5.93681 10.005 5.93825L8.98468 6.1015C8.97567 6.10295 8.96715 6.09695 8.96547 6.08798L8.84218 5.43042L8.67376 4.2936L8.46367 3.53728L8.46312 3.53562L8.46251 3.53426L8.13466 2.87857C8.13023 2.8697 8.13438 2.85894 8.14362 2.85534ZM17.0567 3.02382L17.2486 2.71684C17.2552 2.7062 17.2483 2.69228 17.2358 2.69114L16.7999 2.65152L16.354 2.61098C16.3446 2.61012 16.3363 2.61723 16.3357 2.6267L16.2948 3.28172L16.2948 3.28445L16.3789 4.12518L16.4209 4.62862L16.4208 4.63224L16.337 5.26061L16.3367 5.26201L16.3364 5.26334L16.1747 5.78873C16.1715 5.7992 16.179 5.80992 16.1899 5.8105L16.9573 5.85089C16.964 5.85124 16.9703 5.84759 16.9733 5.8416L17.0923 5.60363C17.0938 5.60051 17.0944 5.59699 17.0939 5.59354L17.0105 5.05148L16.8421 4.16728L16.6745 3.45525C16.6739 3.45279 16.6739 3.45022 16.6745 3.44774L16.7553 3.08393C16.7568 3.07709 16.7624 3.07191 16.7694 3.07091L17.0448 3.03156C17.0497 3.03086 17.0541 3.02803 17.0567 3.02382ZM7.66325 6.90553V6.57342C7.66325 6.56943 7.66184 6.56558 7.65926 6.56254L7.20143 6.02146L7.19843 6.01868L6.44525 5.47472C6.44325 5.47328 6.44159 5.47141 6.44039 5.46925L6.23328 5.09644C6.23223 5.09455 6.23155 5.09248 6.23129 5.09035L6.19061 4.76492C6.18996 4.75976 6.19174 4.7546 6.19541 4.75092L6.3544 4.59193C6.35675 4.58958 6.35974 4.58798 6.36301 4.58733L6.56214 4.5475C6.56625 4.54668 6.57052 4.54742 6.57411 4.54957L6.98633 4.7969C6.98846 4.79819 6.99029 4.79993 6.99167 4.802L7.41062 5.43042L7.86772 6.21997C7.87134 6.22621 7.87853 6.22946 7.8856 6.22804L8.06378 6.19241C8.07432 6.1903 8.08022 6.17899 8.07591 6.16914L7.49483 4.84096L7.0329 3.9171L7.02975 3.91272L6.78186 3.66484C6.78001 3.66299 6.77776 3.6616 6.77528 3.66077L6.52902 3.57868L6.52369 3.57782H6.37039C6.36302 3.57782 6.35651 3.58261 6.35431 3.58964L6.14748 4.25149L6.02245 4.54324C6.0216 4.54521 6.02045 4.54695 6.01893 4.54846C5.8918 4.67549 5.63361 4.92517 5.60012 4.92517C5.56682 4.92517 5.36609 5.06239 5.26662 5.13331C5.26439 5.1349 5.26264 5.13697 5.26141 5.13943L5.10705 5.44815C5.10145 5.45935 5.1096 5.47253 5.12212 5.47253H5.47229L5.4753 5.4728L5.93325 5.55606C5.93569 5.5565 5.93801 5.55748 5.94003 5.55893L6.52642 5.97778L7.41062 6.69356L7.6345 6.91744C7.64511 6.92805 7.66325 6.92053 7.66325 6.90553ZM7.66387 7.16352L7.70244 7.58787C7.70367 7.60139 7.68921 7.61074 7.67738 7.60405L6.73836 7.0733L6.73742 7.07281L6.7354 7.07199L5.60186 6.69414L5.60017 6.69367L5.5983 6.69337L4.82098 6.61154C4.81027 6.61042 4.80336 6.59968 4.80676 6.58947L5.09158 5.73503C5.09359 5.72898 5.09886 5.72458 5.10517 5.72368L5.38633 5.68352C5.38849 5.68321 5.39069 5.68332 5.3928 5.68385L5.89216 5.80869L5.89719 5.81086L6.48432 6.1883L7.07378 6.65145L7.65805 7.15226C7.66138 7.15511 7.66347 7.15915 7.66387 7.16352ZM4.13654 7.97632L4.66836 6.78995C4.67156 6.78281 4.67925 6.77882 4.68693 6.78031L5.97729 7.03005L5.97866 7.03038L5.98072 7.03111L7.44974 7.66069C7.45171 7.66153 7.4535 7.66274 7.45502 7.66426L7.70042 7.90966C7.70358 7.91282 7.70535 7.9171 7.70535 7.92157V8.692C7.70535 8.70327 7.69451 8.71136 7.68371 8.70815L6.14748 8.25143L4.96855 8.04091L4.15107 8.00003C4.13923 7.99944 4.13169 7.98714 4.13654 7.97632ZM4.03815 8.26236L3.54658 9.57321C3.54218 9.58495 3.55169 9.5972 3.56415 9.59587L4.71445 9.47262L4.7174 9.47257L5.93696 9.55667L7.72568 9.88946C7.73663 9.8915 7.7465 9.88254 7.74554 9.87144L7.66426 8.93673C7.66365 8.92973 7.65877 8.92385 7.65201 8.92197L6.23169 8.52511L4.97032 8.25181L4.96675 8.25143H4.05392C4.0469 8.25143 4.04062 8.25578 4.03815 8.26236ZM7.83402 11.0536L7.87326 10.7397C7.87359 10.737 7.87327 10.7343 7.87231 10.7317L7.74853 10.4016L7.74758 10.3978L7.74746 10.3957V10.1177C7.74746 10.1097 7.74188 10.1029 7.73408 10.1012L6.94747 9.93561L5.64223 9.7672L4.46492 9.72515L4.46169 9.72535L3.66469 9.85119L3.66199 9.85185L3.41846 9.93302C3.41355 9.93466 3.40967 9.93846 3.40793 9.94334L2.98964 11.1145L2.83913 11.4532C2.83285 11.4673 2.84733 11.4817 2.86143 11.4754L3.6611 11.1155L3.66571 11.1142L4.88434 10.9461H6.23169L7.49304 10.9882L7.49657 10.9887L7.81323 11.0678C7.82303 11.0703 7.83277 11.0636 7.83402 11.0536ZM2.32429 12.9734L2.47485 13.0863C2.48056 13.0906 2.48835 13.0908 2.4943 13.0869L2.6107 13.0093L3.28211 12.5896L3.28695 12.5876L4.63172 12.2514L6.23169 12.083H7.77358C7.78254 12.083 7.78993 12.0759 7.7904 12.067L7.8309 11.2975C7.83134 11.2892 7.82558 11.2817 7.81738 11.2801L7.41062 11.1988L6.10538 11.1145H4.97012L4.96701 11.1148L3.62289 11.3669L3.61962 11.3678L2.7016 11.7434C2.69733 11.7451 2.69396 11.7486 2.69228 11.7529L2.40076 12.5025L2.39988 12.5056L2.31782 12.9569C2.31668 12.9632 2.31919 12.9696 2.32429 12.9734ZM4.20991 15.8954C4.20543 15.8117 4.18235 15.5045 4.16947 15.3368C4.16892 15.3297 4.17296 15.3231 4.17952 15.3202L4.84046 15.0311L4.84239 15.0303L4.84415 15.0299L6.44221 14.7355L7.68659 14.6526C7.6966 14.6519 7.70497 14.6601 7.70454 14.6701L7.66392 15.6043C7.66354 15.6131 7.65657 15.62 7.64786 15.6204L5.81065 15.7039L4.22971 15.912C4.21962 15.9133 4.21045 15.9055 4.20991 15.8954ZM19.0078 15.2555L18.1936 15.7595C18.1795 15.7682 18.1852 15.7899 18.2017 15.7906L19.0547 15.8294C19.0648 15.8299 19.073 15.8214 19.0722 15.8114L19.0335 15.2686C19.0326 15.2559 19.0186 15.2488 19.0078 15.2555ZM16.3766 15.8022L16.3389 16.0282C16.3377 16.0357 16.3415 16.043 16.3483 16.0462L17.1127 16.4083C17.1239 16.4136 17.1368 16.4055 17.1366 16.3931C17.1344 16.2579 17.1155 16.0089 17.0526 15.9145C16.9868 15.8158 16.5944 15.7894 16.3931 15.7882C16.3848 15.7882 16.3779 15.7941 16.3766 15.8022ZM15.7411 16.56L15.6635 16.211L15.6633 16.2095L15.6631 16.2073C15.6648 15.9816 15.9758 15.867 16.1489 15.8338C16.1591 15.8318 16.1684 15.8397 16.168 15.8501C16.1568 16.1331 15.9106 16.4336 15.7684 16.5687C15.759 16.5775 15.7439 16.5726 15.7411 16.56ZM15.7912 16.7645L15.8693 17.1162C15.8716 17.1263 15.8823 17.132 15.8919 17.128C16.108 17.037 16.5146 16.7892 16.5473 16.4618C16.5808 16.127 16.3119 16.2082 16.1709 16.2919L16.1689 16.2933L16.1672 16.2949L16.1665 16.2957L15.7946 16.7502C15.7913 16.7542 15.7901 16.7595 15.7912 16.7645ZM16.7498 16.3953L16.5633 16.8056C16.5572 16.819 16.571 16.837 16.5856 16.8383C16.7281 16.8516 17.1015 17.0415 17.3133 17.1586C17.3262 17.1658 17.3414 17.154 17.3378 17.1397L17.2226 16.6789C17.2216 16.6747 17.219 16.6711 17.2153 16.6687L16.7742 16.388C16.7656 16.3825 16.7541 16.3859 16.7498 16.3953ZM15.964 17.3675L16.1181 17.9068C16.1217 17.9194 16.1377 17.9232 16.1466 17.9136L16.6704 17.3495C16.6725 17.3472 16.674 17.3444 16.6746 17.3414L16.7132 17.1481C16.7147 17.1407 16.711 17.1331 16.7042 17.1298L16.4727 17.014C16.4669 17.0111 16.4599 17.0117 16.4548 17.0158C16.3236 17.1203 16.0721 17.3098 15.9795 17.3415C15.9689 17.3451 15.9609 17.3567 15.964 17.3675ZM16.9263 17.1776C16.9263 17.2731 16.8511 17.4262 16.8073 17.502C16.8031 17.5092 16.8046 17.5183 16.811 17.5235C17.0527 17.721 17.5068 18.0414 17.4736 17.8092C17.4315 17.5144 16.9263 17.0513 16.9263 17.1776ZM16.1708 18.1557L16.2903 18.6336C16.2927 18.6431 16.3025 18.6487 16.3117 18.6455C16.6096 18.5424 17.1245 18.2659 16.9263 17.9355C16.7333 17.6139 16.6785 17.6249 16.674 17.6754C16.6735 17.6801 16.6717 17.6847 16.6682 17.6879L16.1758 18.1392C16.1712 18.1434 16.1693 18.1497 16.1708 18.1557ZM17.0105 18.4408C17.1688 18.3457 17.1907 18.1192 17.1811 17.9991C17.1802 17.9882 17.1895 17.9789 17.2004 17.9803L17.5019 18.018C17.5099 18.019 17.5161 18.0256 17.5166 18.0336L17.5565 18.6722C17.5572 18.683 17.5477 18.6917 17.537 18.6898C17.2808 18.6454 16.8466 18.5391 17.0105 18.4408ZM17.1789 18.7996V19.0171C17.1789 19.0248 17.1841 19.0315 17.1916 19.0334L17.6592 19.1503C17.671 19.1532 17.6819 19.1432 17.6799 19.1312L17.6438 18.9145C17.6427 18.9081 17.638 18.9028 17.6316 18.9011L17.2002 18.7834C17.1894 18.7805 17.1789 18.7885 17.1789 18.7996ZM17.0947 19.2828C17.0947 19.3482 16.7774 19.4982 16.6047 19.5712C16.5962 19.5747 16.5922 19.5844 16.5956 19.593L16.7532 19.9871C16.756 19.994 16.763 19.9982 16.7703 19.9975C17.1921 19.9578 17.3023 19.5722 17.3051 19.375C17.3052 19.3699 17.3029 19.3652 17.2989 19.362C17.2269 19.3055 17.0947 19.2174 17.0947 19.2828ZM17.2774 20.9615L18.0008 20.6801C18.011 20.6762 18.0148 20.6636 18.0078 20.6552C17.928 20.5586 17.7381 20.4396 17.5157 20.6302C17.3105 20.8061 17.2605 20.9097 17.2603 20.9521C17.2602 20.9608 17.2693 20.9646 17.2774 20.9615ZM17.642 16.6981V16.3004C17.642 16.2959 17.6438 16.2916 17.647 16.2885L17.8897 16.0457C17.8929 16.0426 17.8972 16.0408 17.9016 16.0408H19.0586C19.0672 16.0408 19.0743 16.0472 19.0753 16.0557L19.1555 16.7372C19.1567 16.7474 19.1486 16.7563 19.1383 16.756L17.6584 16.7149C17.6493 16.7147 17.642 16.7072 17.642 16.6981ZM18.6931 16.925H17.7051C17.6944 16.925 17.6864 16.935 17.6887 16.9455L17.7658 17.2926C17.7673 17.2994 17.7729 17.3046 17.7799 17.3056L19.2192 17.5112C19.2305 17.5128 19.2401 17.503 19.2382 17.4918L19.1598 17.0209C19.1586 17.0139 19.1531 17.0083 19.1462 17.0071L18.6961 16.9253L18.6942 16.925L18.6931 16.925ZM17.8164 17.5382L17.934 18.0085C17.9357 18.0152 17.9413 18.0203 17.9483 18.0211L19.3035 18.1854C19.3148 18.1867 19.3242 18.1768 19.3221 18.1656L19.244 17.736C19.2428 17.7293 19.2377 17.724 19.2311 17.7225L18.8631 17.6408L17.8347 17.5174C17.823 17.516 17.8135 17.5267 17.8164 17.5382ZM18.1442 18.809L17.9858 18.2545C17.9825 18.243 17.992 18.2318 18.004 18.2332L18.6947 18.3144L19.3129 18.3969C19.3207 18.3979 19.3267 18.4042 19.3274 18.412L19.3668 18.8448C19.3676 18.8541 19.3607 18.8624 19.3513 18.8631L18.8227 18.9038L18.8213 18.9038L18.8193 18.9037L18.1583 18.8211C18.1516 18.8202 18.1461 18.8155 18.1442 18.809ZM14.7377 17.1332L14.8605 16.8056C14.8622 16.8012 14.8656 16.7977 14.87 16.7959L15.0654 16.7177C15.0706 16.7157 15.0764 16.7163 15.081 16.7194L15.1925 16.7937C15.1972 16.7968 15.2 16.8021 15.2 16.8077V17.0061C15.2 17.0082 15.1996 17.0102 15.1989 17.012L15.0765 17.3385C15.0747 17.3433 15.0709 17.347 15.066 17.3486L14.3172 17.5982L14.3158 17.5986L14.3143 17.5989L13.4749 17.7248L13.4737 17.7249L13.4724 17.725H12.5913L12.5877 17.7246L11.8329 17.5568L11.8312 17.5564L11.0775 17.2633L11.0763 17.2627L11.0752 17.2622L11.071 17.2587L10.4435 16.5475L10.4412 16.5443L10.1791 16.0508C10.1758 16.0448 10.1766 16.0373 10.1811 16.0321L10.3108 15.8783C10.314 15.8746 10.3187 15.8724 10.3237 15.8724H10.6769L10.6811 15.8729L11.6614 16.1245L11.665 16.1251L12.8 16.1671L14.019 16.2091L14.023 16.2098L14.6026 16.3754C14.6076 16.3768 14.6116 16.3805 14.6136 16.3853L14.6924 16.5824C14.6939 16.5861 14.694 16.5902 14.6928 16.594L14.5688 16.966L14.5684 16.967L14.5679 16.9682L14.4858 17.1322L14.484 17.1351L14.4813 17.1378L14.2763 17.3018L14.2731 17.3038L14.2704 17.3049L13.9842 17.3866C13.9808 17.3876 13.9771 17.3875 13.9738 17.3863L13.5177 17.2204L13.5141 17.2186L13.2746 17.059C13.268 17.0545 13.2591 17.0554 13.2534 17.0611L13.1506 17.1639C13.1433 17.1711 13.1442 17.1831 13.1524 17.1893L13.3053 17.3039L13.5983 17.4714L13.5998 17.4722L13.6018 17.4729L14.0166 17.5973C14.0195 17.5982 14.0226 17.5983 14.0255 17.5975L14.3541 17.5154L14.3581 17.5139L14.3608 17.512L14.609 17.3052L14.6117 17.3023L14.7354 17.1374L14.737 17.1349L14.7377 17.1332ZM4.21386 16.9862L4.33497 17.7129C4.33617 17.7201 4.34187 17.7257 4.34909 17.7268L5.17908 17.8513L6.40011 17.9776L7.81133 18.1021C7.82188 18.103 7.83065 18.0941 7.82957 18.0836L7.70695 16.8984C7.70605 16.8896 7.69858 16.883 7.6898 16.8833L4.23007 16.9666C4.21983 16.9669 4.21218 16.9761 4.21386 16.9862ZM4.21067 16.0983V16.7807C4.21067 16.7905 4.21887 16.7982 4.22856 16.7976L5.55802 16.7145L7.64674 16.6727C7.65591 16.6725 7.66325 16.665 7.66325 16.6558V15.8471C7.66325 15.8378 7.65571 15.8303 7.64641 15.8303H6.52642L5.17908 15.9987L4.22605 16.0816C4.21735 16.0823 4.21067 16.0896 4.21067 16.0983ZM18.4168 7.0448L18.1664 7.18788C18.1568 7.19338 18.155 7.20655 18.1629 7.21441L18.4133 7.4648C18.4239 7.47541 18.442 7.46789 18.442 7.45289V7.05942C18.442 7.04649 18.4281 7.03838 18.4168 7.0448ZM18.0319 7.02603L18.43 6.86681C18.4371 6.86396 18.4414 6.85668 18.4404 6.84908L18.3578 6.1883L18.3205 5.96435C18.3184 5.95158 18.3032 5.94589 18.2932 5.95408L17.8543 6.3132L17.8513 6.31644L17.6499 6.59835C17.6453 6.60477 17.6458 6.61353 17.6511 6.6194L18.0131 7.02166C18.0178 7.02691 18.0253 7.02865 18.0319 7.02603ZM17.3923 5.98437L17.5447 6.32711C17.5502 6.33957 17.5675 6.34063 17.5745 6.32894L17.6825 6.1489C17.6836 6.14711 17.685 6.14554 17.6866 6.14427L18.0621 5.8522L18.0633 5.8514L18.0641 5.85087L18.3475 5.68893C18.3537 5.6854 18.357 5.67838 18.3558 5.67138L18.2344 4.9837C18.2328 4.9746 18.2242 4.96849 18.215 4.97001L17.9835 5.0086C17.9805 5.00911 17.9776 5.01043 17.9753 5.01243L17.6872 5.25937C17.6852 5.2611 17.6836 5.26328 17.6826 5.26574L17.3922 5.97112C17.3904 5.97537 17.3905 5.98016 17.3923 5.98437ZM17.4219 5.51764L17.6397 4.97322C17.6412 4.96939 17.6441 4.96625 17.6478 4.96441L17.9766 4.79998L17.9814 4.79844L18.2082 4.76064C18.2196 4.75873 18.2257 4.74613 18.2202 4.73596L17.9823 4.29979C17.9801 4.29583 17.9764 4.2929 17.9721 4.29166L17.6949 4.21247C17.6884 4.2106 17.6814 4.21284 17.6771 4.21814L17.5174 4.41781L17.5148 4.42242L17.3905 4.75389C17.3898 4.75578 17.3894 4.75778 17.3894 4.7598V5.51139C17.3894 5.52993 17.415 5.53486 17.4219 5.51764ZM15.5814 6.12119L15.6192 6.3858C15.6203 6.39345 15.6264 6.39938 15.6341 6.40017L17.2392 6.5648C17.2508 6.56599 17.2601 6.55529 17.2573 6.54396L17.1398 6.0741C17.138 6.06691 17.1317 6.06174 17.1243 6.06137L16.2961 6.01996L16.2944 6.01996L16.2933 6.02005L15.5961 6.10208C15.5867 6.10318 15.58 6.11182 15.5814 6.12119ZM7.53574 3.03096L6.76003 3.35757C6.74901 3.36222 6.7462 3.37655 6.75466 3.38501L7.19827 3.82862L7.20129 3.83274L7.70535 4.79885L8.28955 6.1759C8.29263 6.18315 8.30032 6.1873 8.30807 6.18589L8.74267 6.10688C8.75131 6.10531 8.75729 6.09736 8.75642 6.08863L8.71586 5.68305L8.54744 4.79885L8.33723 3.87393L8.33638 3.87125L8.04311 3.159L8.04068 3.15489L7.88052 2.95469C7.87641 2.94955 7.86967 2.94727 7.86329 2.94887L7.53819 3.03014L7.53574 3.03096ZM12.8056 2.00344L13.0101 2.94448L13.0104 2.94566L13.0105 2.94806V3.95676V4.88306L13.093 5.66612C13.0939 5.67544 13.1023 5.68217 13.1116 5.68109L13.4457 5.64236C13.453 5.64152 13.4589 5.63608 13.4603 5.6289L13.5575 5.13766L13.5587 5.13387L13.8095 4.59053L13.8121 4.5865L14.1002 4.25724C14.1034 4.25359 14.1049 4.24873 14.1042 4.24392L13.9368 2.98835L13.7707 2.19904C13.7693 2.19254 13.7642 2.18746 13.7578 2.18605L12.8256 1.98341C12.8136 1.9808 12.803 1.99146 12.8056 2.00344ZM14.8531 2.39722L14.1066 2.2728L14.1056 2.27266L14.1044 2.27258L13.9999 2.27257C13.9892 2.27257 13.9812 2.28255 13.9835 2.29307L14.1471 3.02927L14.1474 3.03168L14.2302 4.14888C14.2309 4.15876 14.24 4.16588 14.2498 4.16425L14.978 4.04288C14.9849 4.04173 14.9904 4.03643 14.9917 4.02957L15.0316 3.83045L15.0735 3.32673L15.0735 3.32365L15.0317 2.90601L15.031 2.90236L14.8663 2.40851C14.8644 2.40259 14.8593 2.39825 14.8531 2.39722ZM15.1603 4.02978L15.2838 3.45325L15.2842 3.44972V3.03282L15.2835 3.02819L15.1224 2.46427C15.1192 2.45299 15.1282 2.44195 15.1399 2.44285L15.6617 2.48299L15.6632 2.48317L15.6645 2.48344L16.1541 2.60584C16.1623 2.60789 16.1677 2.61566 16.1668 2.62404L16.1264 2.98703L16.1263 2.98969L16.1684 3.87255L16.2105 4.50412V4.92296L16.2104 4.92473L16.2099 4.9273L16.0425 5.55508L16.042 5.5566L16.0413 5.55827L15.9217 5.7975C15.9182 5.80446 15.9104 5.80813 15.9028 5.80638L15.3684 5.68305L15.083 5.60151C15.0772 5.59986 15.0728 5.59524 15.0713 5.5894L14.9947 5.28293C14.992 5.2723 15.0001 5.262 15.011 5.262H15.1558L15.1581 5.26216L15.1599 5.26251L15.3218 5.30298C15.3247 5.30372 15.3274 5.30525 15.3296 5.30741L15.536 5.51378L15.5367 5.51449L15.5378 5.51535L15.6969 5.6347C15.702 5.63853 15.7088 5.63914 15.7145 5.63629L15.7764 5.60537C15.7839 5.60162 15.7875 5.59293 15.7848 5.58498L15.758 5.50448C15.7536 5.49131 15.7661 5.47879 15.7793 5.48318L15.8598 5.51001C15.8677 5.51266 15.8764 5.50906 15.8802 5.50157L15.9103 5.44128C15.9136 5.43479 15.9123 5.42696 15.9072 5.42184L15.8338 5.34851C15.8323 5.34699 15.8305 5.34578 15.8286 5.34493L15.5554 5.22787C15.5457 5.22373 15.5422 5.21181 15.548 5.20305L15.621 5.09358L15.746 4.88521L15.7479 4.88063L15.7877 4.72141C15.7888 4.71708 15.7881 4.71249 15.7858 4.70866L15.6639 4.50534L15.663 4.50401L15.6622 4.50304L15.412 4.21115L15.4104 4.20947L15.4093 4.20863L15.1674 4.04732C15.1616 4.04349 15.1588 4.03653 15.1603 4.02978ZM14.3946 5.95621L14.3605 5.81985C14.3589 5.81346 14.3612 5.80672 14.3663 5.80261L14.5648 5.64382C14.5672 5.64194 14.57 5.64072 14.573 5.64029L14.8536 5.6002C14.8595 5.59936 14.8654 5.6017 14.8691 5.60635L15.0097 5.782C15.0185 5.79303 15.0106 5.80936 14.9965 5.80936H14.6992C14.6963 5.80936 14.6934 5.81013 14.6908 5.81158L14.4193 5.96675C14.4096 5.97229 14.3973 5.96704 14.3946 5.95621ZM14.4421 6.15574V6.20553C14.4421 6.21745 14.4541 6.2256 14.4652 6.22117L14.6472 6.14838C14.6507 6.14697 14.6546 6.1468 14.6582 6.14789L15.0478 6.26474C15.0597 6.26833 15.0713 6.25814 15.0692 6.24584L15.0339 6.03396C15.0325 6.02584 15.0255 6.01989 15.0173 6.01989H14.6573C14.6542 6.01989 14.6512 6.02072 14.6486 6.02229L14.4503 6.14129C14.4452 6.14434 14.4421 6.14982 14.4421 6.15574ZM14.3715 6.58974C14.4009 6.54881 14.4475 6.49228 14.4773 6.48405C14.4816 6.48286 14.486 6.48126 14.4891 6.4781L14.5635 6.40376C14.5666 6.4006 14.5709 6.39883 14.5754 6.39883H14.8183L14.8193 6.39886L14.8214 6.39911L14.8227 6.39941L15.0478 6.47442C15.0597 6.47838 15.0632 6.49345 15.0544 6.50231L14.869 6.68774C14.8653 6.69141 14.8601 6.69318 14.855 6.69254L14.5263 6.65145L14.3811 6.61515C14.3698 6.61232 14.3647 6.5992 14.3715 6.58974ZM14.2737 6.46619V6.23288L14.2736 6.23175L14.2735 6.23041L14.273 6.22804L14.1481 5.81173L14.1474 5.80827L14.1474 5.80689V5.43366C14.1474 5.43152 14.1478 5.4294 14.1486 5.42741L14.2248 5.23689C14.2284 5.22774 14.2391 5.22368 14.2479 5.22808L14.3065 5.25735C14.3122 5.2602 14.3158 5.26603 14.3158 5.27241V5.43042V5.53009C14.3158 5.54246 14.3287 5.55061 14.3398 5.5453L14.5237 5.45798L14.5252 5.45736L14.5261 5.45704L14.5292 5.45644L14.7638 5.43199C14.7724 5.4311 14.7789 5.42387 14.7789 5.41524V5.18477C14.7789 5.1803 14.7772 5.17602 14.774 5.17286L14.6173 5.01612C14.6131 5.01193 14.6114 5.00586 14.6128 5.00012L14.6262 4.94673C14.6289 4.93591 14.6412 4.93066 14.6509 4.9362L14.7775 5.00855L14.7793 5.00943L14.7805 5.0099L14.9052 5.05148L15.1127 5.09298C15.1147 5.09338 15.1168 5.09341 15.1188 5.09308L15.3648 5.05207C15.3672 5.05168 15.3694 5.0508 15.3714 5.04947L15.4889 4.97114C15.4926 4.96866 15.4952 4.96481 15.4961 4.96043L15.5361 4.76005C15.5366 4.75787 15.5366 4.75562 15.5361 4.75344L15.4957 4.55122C15.4951 4.54796 15.4935 4.54497 15.4911 4.54262L15.2873 4.33879C15.2852 4.33676 15.2827 4.33529 15.28 4.3345L14.9917 4.25214L14.9888 4.25158L14.9878 4.25151L14.6136 4.25149C14.6115 4.25149 14.6095 4.25185 14.6076 4.25256L14.2771 4.37652C14.2748 4.37737 14.2728 4.37868 14.2711 4.38039L13.9804 4.67107L13.9787 4.67301L13.9779 4.67432L13.7279 5.09095C13.7268 5.09269 13.7261 5.09461 13.7258 5.0966L13.6429 5.55249C13.6424 5.55527 13.6426 5.55814 13.6435 5.56083L13.81 6.06041L13.8113 6.06344L13.9772 6.3537C13.9783 6.35569 13.9799 6.35743 13.9817 6.35881L14.1429 6.47967C14.1458 6.48185 14.1493 6.48304 14.153 6.48304H14.2568C14.2661 6.48304 14.2737 6.4755 14.2737 6.46619ZM15.031 7.66045L14.8678 7.17057C14.8651 7.16262 14.8686 7.15396 14.8761 7.15019C14.9646 7.1057 15.1296 7.02033 15.1737 6.98829C15.2194 6.95502 15.3477 6.9464 15.4083 6.94619L15.411 6.94596L15.4123 6.94569L15.8736 6.81987C16.028 6.7918 16.3452 6.73566 16.3789 6.73566C16.4121 6.73566 16.5842 6.70842 16.6698 6.69419L16.674 6.69403L16.6774 6.69468L17.0923 6.81915L17.0941 6.81981L17.0968 6.82127L17.3449 6.98669L17.3475 6.98882L17.3485 6.98989C17.4755 7.15926 17.7434 7.51926 17.8105 7.61986C17.8947 7.74617 17.8947 7.78828 17.8947 7.83038C17.8947 7.87249 17.8105 7.9988 17.7262 8.08301C17.6598 8.14944 17.5061 8.16674 17.4345 8.16721L17.4308 8.16764L17.4287 8.16829L16.7578 8.41985L15.8736 8.67248L15.544 8.75488C15.5394 8.75603 15.5346 8.75518 15.5306 8.75255L15.4253 8.68235C15.4173 8.67699 15.4153 8.66601 15.4211 8.65824C15.4665 8.59678 15.5478 8.48202 15.5789 8.41985C15.6122 8.35319 15.7033 8.28104 15.746 8.25233L15.7473 8.25134L15.7485 8.25025L15.9108 8.08794C15.914 8.08479 15.9158 8.0805 15.9158 8.07604V8.00921C15.9158 8.00283 15.9121 7.997 15.9064 7.99415L15.8378 7.95982C15.8338 7.95782 15.8292 7.95749 15.8249 7.9589L15.4545 8.08238L15.4523 8.08328L15.4509 8.08407L15.1379 8.27968C15.1275 8.28617 15.1139 8.27976 15.1123 8.26763L15.0318 7.66355L15.0315 7.66219L15.031 7.66045ZM15.5572 9.14072L15.7005 9.17654C15.7036 9.17732 15.7068 9.1772 15.7099 9.1762C15.7538 9.16175 15.8412 9.13563 15.8736 9.13563C15.8947 9.13563 16 9.10405 16.1052 9.07247C16.2105 9.04089 16.3157 9.00931 16.3368 9.00931C16.3578 9.00931 16.4526 8.97774 16.5473 8.94616C16.6421 8.91458 16.7368 8.883 16.7578 8.883C16.7789 8.883 16.8631 8.87247 16.9473 8.86195C17.0315 8.85142 17.1157 8.84089 17.1368 8.84089H17.5157C17.5824 8.84089 17.7647 8.89593 17.85 8.92426L17.8519 8.92477L17.8534 8.925L17.8553 8.92515C17.8849 8.9262 17.951 8.94404 17.9999 9.00931C18.0276 9.04624 18.0432 9.06697 18.0519 9.06441C18.0631 9.06114 18.0631 9.01967 18.0631 8.9251C18.0631 8.87698 18.0665 8.83574 18.0695 8.80039C18.0768 8.712 18.0811 8.66045 18.021 8.63037C17.9969 8.61834 17.9797 8.60631 17.9625 8.59428C17.9196 8.56421 17.8766 8.53413 17.7262 8.50406C17.5157 8.46195 17.2631 8.46195 17.0947 8.50406C17.0303 8.52014 16.9844 8.53008 16.9452 8.53857C16.8818 8.55231 16.8359 8.56225 16.7578 8.58827C16.6315 8.63037 16.2947 8.75669 16.2105 8.79879C16.1894 8.80932 16.171 8.81984 16.1526 8.83037C16.0973 8.86195 16.0421 8.89353 15.9158 8.9251C15.7849 8.95783 15.6434 9.0197 15.5839 9.04893C15.5807 9.05054 15.578 9.05318 15.5764 9.05644L15.5462 9.11685C15.5414 9.12649 15.5467 9.13811 15.5572 9.14072ZM16.3789 9.51457C16.3789 9.48184 16.2729 9.36696 16.2154 9.30897C16.2122 9.3058 16.208 9.30405 16.2035 9.30405H16.0881C16.0855 9.30405 16.083 9.30462 16.0807 9.30579C15.9949 9.34842 15.8138 9.43036 15.7473 9.43036C15.68 9.43036 15.607 9.4865 15.5789 9.51457L15.4554 9.63807C15.4536 9.63992 15.4522 9.64216 15.4514 9.64465C15.4375 9.68781 15.4199 9.7672 15.4526 9.7672C15.468 9.7672 15.5455 9.80104 15.6437 9.84396C15.8138 9.91829 16.0462 10.0198 16.1263 10.0198C16.1814 10.0198 16.2205 10.0278 16.2646 10.0369C16.3214 10.0486 16.3866 10.0619 16.5052 10.0619H16.8842C17.0411 10.0619 17.081 10.0385 17.1609 9.99175C17.1882 9.97578 17.2202 9.95705 17.2631 9.93561C17.3618 9.88629 17.4171 9.86585 17.4629 9.84893C17.4953 9.83696 17.5229 9.82674 17.5578 9.8093C17.6198 9.7783 17.7046 9.67884 17.7619 9.61172C17.7824 9.58768 17.7994 9.56778 17.8105 9.55667C17.8428 9.52434 17.8777 9.43768 17.8929 9.39354C17.8941 9.3901 17.894 9.38639 17.8929 9.38293L17.8526 9.26194L17.8233 9.1742C17.8186 9.15997 17.799 9.15857 17.7923 9.17199L17.6427 9.47111L17.6419 9.4726L17.6411 9.47368L17.5175 9.63857L17.516 9.64023L17.515 9.64119L17.5133 9.64248L17.2655 9.80768L17.264 9.80858L17.2623 9.80935L17.2603 9.81001L16.9318 9.89213C16.9282 9.89303 16.9245 9.89276 16.9211 9.89131C16.8208 9.84826 16.6135 9.7582 16.5473 9.72509C16.4631 9.68299 16.3789 9.55667 16.3789 9.51457ZM15.5543 10.0881L15.6176 10.1831C15.6198 10.1864 15.6231 10.1888 15.6269 10.1899C15.7272 10.2185 15.9248 10.2725 15.9579 10.2725C15.9771 10.2725 16.0228 10.2901 16.0828 10.3132C16.154 10.3407 16.2454 10.3759 16.3368 10.3988C16.5052 10.4409 16.7157 10.4409 16.7578 10.4409H17.1368C17.2169 10.4409 17.3477 10.4239 17.4435 10.4116C17.4988 10.4044 17.5424 10.3988 17.5578 10.3988C17.5768 10.3988 17.6425 10.3732 17.7148 10.3451C17.8034 10.3107 17.902 10.2725 17.9368 10.2725C17.9461 10.2725 17.9574 10.2734 17.9698 10.2744C18.0413 10.2803 18.1535 10.2896 18.1894 10.1461C18.2197 10.025 18.2064 9.991 18.1966 9.96578C18.1927 9.95594 18.1894 9.94744 18.1894 9.93561C18.1894 9.9024 18.1348 9.7846 18.1064 9.72749L18.1057 9.7263L18.1051 9.7253L18.1042 9.72419L18.1033 9.72316L18.0375 9.65741C18.0294 9.64928 18.0157 9.6515 18.0105 9.66178L17.9801 9.72265L17.9787 9.72495L17.977 9.72698C17.9338 9.76991 17.8347 9.86032 17.7684 9.89351C17.7335 9.91095 17.7203 9.92117 17.7048 9.93314C17.6829 9.95006 17.6565 9.9705 17.5578 10.0198C17.3894 10.104 17.3052 10.1461 17.1368 10.1882C17.0806 10.2023 17.0526 10.2116 17.0339 10.2179C17.024 10.2212 17.0167 10.2236 17.0092 10.2254C16.9886 10.2303 16.9667 10.2303 16.8842 10.2303C16.7719 10.2303 16.5847 10.2116 16.46 10.1992C16.3976 10.1929 16.3508 10.1882 16.3368 10.1882C16.3157 10.1882 16.221 10.1777 16.1263 10.1672C16.0315 10.1567 15.9368 10.1461 15.9158 10.1461C15.8824 10.1461 15.7087 10.0911 15.6236 10.0628L15.6205 10.0621L15.6194 10.062L15.6183 10.0619H15.5683C15.5548 10.0619 15.5468 10.0769 15.5543 10.0881ZM13.7117 6.37354L13.4631 5.94457C13.4599 5.93911 13.4539 5.93588 13.4476 5.9362L12.6316 5.97778H11.3685L10.1737 6.1462L8.75797 6.27251L8.08843 6.39805C8.08571 6.39856 8.08317 6.39973 8.08101 6.40145L7.88009 6.56219C7.8761 6.56538 7.87377 6.57022 7.87377 6.57534V7.9988V9.38825C7.8878 9.75316 7.9243 10.5082 7.95798 10.6093C7.99085 10.7079 8.18677 10.9482 8.28751 11.0641C8.29196 11.0692 8.29896 11.0711 8.3054 11.0689C8.43514 11.0258 8.68309 10.9461 8.71586 10.9461C8.74955 10.9461 8.98252 10.6654 9.0948 10.5251L9.17201 10.4479C9.17633 10.4436 9.17797 10.4372 9.17629 10.4313L9.0948 10.1461L8.96849 9.55667L8.84318 9.01366C8.84252 9.01081 8.84259 9.00794 8.84343 9.00513C8.88609 8.86314 8.97724 8.57076 9.01059 8.50406C9.0527 8.41985 9.17901 8.16722 9.30533 8.08301C9.40112 8.01915 9.4727 7.83421 9.52006 7.71183C9.53515 7.67285 9.54778 7.64021 9.55795 7.61986C9.5824 7.57097 9.63522 7.53628 9.70407 7.49105C9.75382 7.45838 9.81193 7.42022 9.87374 7.36723C9.90437 7.34098 9.93592 7.3129 9.9678 7.28452C10.0893 7.1764 10.2158 7.06373 10.3158 7.0304C10.4422 6.98829 10.5264 6.94619 10.6106 6.86198C10.6715 6.80109 10.8204 6.76222 10.946 6.72944C10.9941 6.71688 11.0387 6.70522 11.0737 6.69356C11.126 6.67612 11.2217 6.65146 11.3338 6.62256C11.4923 6.5817 11.6836 6.53236 11.8316 6.48304C12.0842 6.39883 12.379 6.39883 12.4632 6.39883H13.2211H13.6971C13.7101 6.39883 13.7182 6.38477 13.7117 6.37354ZM14.0365 9.39268L14.5856 9.54957C14.5973 9.55291 14.6017 9.56719 14.5939 9.57654L14.4 9.8093C14.3158 9.90755 14.1137 10.0956 13.9789 10.0619C13.8621 10.0327 13.6642 10.0643 13.5258 10.0864C13.4647 10.0961 13.4153 10.104 13.3895 10.104C13.3221 10.104 12.8281 9.96368 12.5895 9.89351L11.7895 9.64088L11.3737 9.55772C11.3703 9.55704 11.3667 9.55743 11.3636 9.55885L11.1157 9.66903C11.0975 9.6771 11.0828 9.65255 11.0985 9.64035L11.3655 9.43264C11.3675 9.43114 11.3697 9.43007 11.3721 9.42952L12.4483 9.18118C12.4567 9.17922 12.4653 9.18402 12.468 9.19226L12.5879 9.55196C12.5889 9.55504 12.5908 9.55775 12.5934 9.55978L13.0067 9.89046C13.0092 9.89245 13.0122 9.8937 13.0154 9.89405L13.3872 9.93536L13.3889 9.93546L13.3901 9.93542L13.3918 9.93523L13.6375 9.89428C13.6405 9.89378 13.6433 9.89245 13.6457 9.89046L13.9333 9.64392C13.9356 9.64193 13.9373 9.63935 13.9383 9.63646L14.0159 9.40355C14.0188 9.395 14.0279 9.39021 14.0365 9.39268ZM18.858 13.2198H18.6981L18.6967 13.2198L18.6946 13.2201L18.6929 13.2206L18.6915 13.2211L18.1052 13.4724L17.4736 13.6829L16.3368 13.8934L15.3684 13.9356L14.821 13.8934L13.9789 13.725L13.2211 13.5566L12.379 13.3882L11.4527 13.0935L10.679 12.8408L10.2339 12.7571L10.2326 12.7567L10.2315 12.7564L10.2295 12.7556L10.0725 12.6771C10.0668 12.6742 10.0632 12.6684 10.0632 12.662V12.5629C10.0632 12.5536 10.0708 12.5461 10.0801 12.5461H10.3139L10.3177 12.5465L10.679 12.6303L11.1158 12.7566L12.0842 13.0935L12.6316 13.2198C13.0667 13.304 13.9789 13.4892 14.1474 13.5566C14.2687 13.6051 14.4459 13.6257 14.5904 13.6425C14.6967 13.6548 14.7853 13.6651 14.821 13.6829C14.8884 13.7166 15.5228 13.697 15.8315 13.6829H16.2947C16.3789 13.6829 17.1789 13.5566 17.3052 13.4724C17.3794 13.4229 17.57 13.4171 17.7317 13.4121C17.845 13.4086 17.9442 13.4056 17.9789 13.3882L18.4823 13.1365L18.4843 13.1353L18.4857 13.1342C18.5986 13.0354 18.8295 12.8323 18.8631 12.7987L19.028 12.6338C19.0303 12.6315 19.0319 12.6287 19.0326 12.6255L19.1153 12.2532L19.1157 12.2495V12.0513C19.1157 12.0449 19.1121 12.039 19.1064 12.0362L18.9623 11.9642C18.954 11.96 18.9439 11.9634 18.9398 11.9717L18.7376 12.3759L18.7369 12.3773L18.7355 12.3792L18.5299 12.6259C18.5275 12.6287 18.5242 12.6307 18.5206 12.6315L17.5578 12.8408L16.7603 13.0927L16.7577 13.0933L16.7552 13.0935H15.5789L14.4 13.0093L13.7263 12.925L12.6316 12.6303L12.1263 12.504L11.3263 12.2514L10.7369 12.083L10.1756 11.957L10.1737 11.9567L10.1719 11.9566H9.64914C9.64467 11.9566 9.64039 11.9584 9.63723 11.9616L9.43657 12.1622C9.43341 12.1654 9.43164 12.1697 9.43164 12.1741V12.5391C9.43164 12.5436 9.43341 12.5479 9.43657 12.551L9.72553 12.84L9.72733 12.8416L10.229 13.2178L10.2303 13.2187L10.2348 13.2206L11.2 13.4724L12.0842 13.8092L13.1355 14.1036L13.1365 14.1038L13.1383 14.1041L14.3579 14.2303C14.7789 14.2584 15.6379 14.3145 15.7052 14.3145C15.7725 14.3145 16.6015 14.2585 17.009 14.2304L17.0102 14.2303L17.0119 14.2299C17.2371 14.1736 17.7351 14.0534 17.9368 14.0198C18.1894 13.9777 18.6104 13.7671 18.6525 13.725C18.6857 13.6919 18.8574 13.5474 18.9431 13.4759C18.9459 13.4736 18.9477 13.4705 18.9486 13.4671L18.9865 13.3155C18.9882 13.3086 18.9854 13.3013 18.9795 13.2974L18.8673 13.2226C18.8645 13.2208 18.8613 13.2198 18.858 13.2198ZM8.22928 11.2489L8.49816 11.3641C8.50271 11.366 8.50789 11.3659 8.51233 11.3637L8.84065 11.1995L8.84227 11.1986L8.84352 11.1977L9.4252 10.7407C9.42927 10.7375 9.43164 10.7326 9.43164 10.7274V10.4409V9.38825V8.72019C9.43164 8.71655 9.43282 8.71301 9.43501 8.71009L9.81058 8.20933L10.1717 7.66503C10.173 7.66301 10.1748 7.6613 10.1769 7.66003L10.9895 7.15671L11.6607 6.82113L11.666 6.8195L12.2948 6.73566L13.0504 6.6517L13.0548 6.65179L13.597 6.73521L13.6026 6.73713L13.9789 6.94619L14.2737 7.15671C14.3579 7.22688 14.5263 7.3925 14.5263 7.49355C14.5263 7.5946 14.6105 7.87249 14.6526 7.9988C14.6807 8.13915 14.7368 8.43669 14.7368 8.50406C14.7368 8.56621 14.7129 8.82424 14.6982 8.97404C14.6968 8.98818 14.6796 8.99428 14.6695 8.98431C14.5779 8.89423 14.4191 8.74521 14.3579 8.71458C14.2737 8.67248 13.7684 8.41985 13.6421 8.41985C13.5827 8.41985 13.5419 8.40123 13.4891 8.37713C13.4297 8.34997 13.3549 8.31584 13.2211 8.29353C13.1862 8.28773 13.153 8.28192 13.121 8.27634C12.9214 8.24145 12.7709 8.21515 12.5895 8.25143C12.4718 8.27498 12.354 8.32486 12.2437 8.37162C12.1567 8.40848 12.0743 8.4434 12 8.46195C11.8769 8.49274 11.8147 8.57275 11.7942 8.61844C11.7911 8.62537 11.7939 8.63329 11.8002 8.63751L11.9077 8.70916C11.9127 8.71251 11.9191 8.71291 11.9246 8.71021L12.2914 8.52677C12.2936 8.52568 12.296 8.52507 12.2985 8.525L13.0105 8.50406H13.5118C13.5144 8.50406 13.517 8.50464 13.5193 8.50581C13.5775 8.53473 13.7115 8.59737 13.8105 8.63037C13.9094 8.66334 14.0702 8.7797 14.1428 8.83726C14.1458 8.83963 14.1494 8.84088 14.1533 8.84095C14.2115 8.84209 14.3253 8.86001 14.3579 8.9251C14.3877 8.98465 14.5731 9.20207 14.6933 9.33899C14.7048 9.35209 14.6913 9.37199 14.6749 9.36612L14.149 9.1783L14.1472 9.17778L14.1457 9.1775C13.9485 9.14926 13.5238 9.0765 13.3895 9.00931C13.272 8.9506 12.8885 8.97376 12.5672 8.99317C12.4276 9.00159 12.2998 9.00931 12.2105 9.00931C12.0185 9.00931 11.8264 9.08084 11.6926 9.13066C11.6211 9.1573 11.5662 9.17773 11.5369 9.17773C11.4699 9.17773 11.1477 9.34417 10.9923 9.42886C10.9904 9.42988 10.9888 9.4312 10.9875 9.43283L10.786 9.67453C10.7818 9.67967 10.7809 9.68685 10.7839 9.69284L10.8594 9.84373C10.8618 9.84855 10.8663 9.85193 10.8717 9.85282L11.1112 9.89274C11.1142 9.89324 11.1173 9.8929 11.1202 9.89176L11.3263 9.8093L11.447 9.76908C11.4507 9.76786 11.4546 9.76793 11.4582 9.76929L11.7895 9.89351L12.2105 10.0619L12.8829 10.23L12.8856 10.2305L13.3895 10.2725H13.809L13.812 10.2722L14.2702 10.1889L14.2717 10.1885L14.2744 10.1875L14.2766 10.1863L14.6498 9.93748L14.6527 9.93505L14.6539 9.93358L14.706 9.85558C14.7152 9.84172 14.7368 9.84826 14.7368 9.86493V10.0108C14.7368 10.0164 14.734 10.0217 14.7293 10.0248L14.4853 10.1875L14.4837 10.1885L14.0231 10.3979L14.0218 10.3984L14.0204 10.3988L14.0189 10.3991L13.2632 10.5251L12.6737 10.5672H12.3181C12.3066 10.5672 12.2985 10.5784 12.3021 10.5894L12.3344 10.6861C12.336 10.6908 12.3395 10.6946 12.3441 10.6964L12.5437 10.7762C12.5461 10.7772 12.5487 10.7776 12.5513 10.7774L13.0526 10.7356L13.8105 10.6093L14.1474 10.5251L14.4686 10.418C14.4848 10.4126 14.4978 10.432 14.4867 10.4449L14.2746 10.6924L14.2734 10.6937L14.2726 10.6944C14.188 10.7649 14.0125 10.9126 13.9789 10.9461C13.9457 10.9794 13.6632 11.1523 13.521 11.2377C13.5176 11.2398 13.5151 11.243 13.5138 11.2468L13.4759 11.3606C13.4745 11.3648 13.4748 11.3694 13.4768 11.3734L13.5077 11.4351C13.512 11.4439 13.523 11.4471 13.5314 11.442L13.9368 11.1988L14.4842 10.7777L14.984 10.3612C14.9875 10.3583 14.992 10.3569 14.9965 10.3574L15.4066 10.3984C15.4092 10.3986 15.4116 10.3995 15.4138 10.4009L15.7473 10.6093L16.2923 10.9446L16.2974 10.9467C16.4246 10.9751 16.6736 11.039 16.6736 11.0724C16.6736 11.106 17.0079 11.198 17.1769 11.2404L17.181 11.2409H17.3403C17.3448 11.2409 17.3491 11.2391 17.3522 11.2359L17.4485 11.1397C17.4585 11.1296 17.4524 11.1124 17.4383 11.111L17.0548 11.0727L17.052 11.0721L17.0505 11.0716L16.5071 10.8627L16.5044 10.8613L16.1323 10.6009C16.1185 10.5912 16.126 10.5694 16.1429 10.5703L16.8842 10.6093L17.642 10.6935H18.1858L18.1902 10.6941L18.1927 10.695L18.5646 10.8603C18.5671 10.8613 18.5692 10.863 18.5709 10.8651L18.7324 11.067C18.7352 11.0705 18.7365 11.0749 18.736 11.0794L18.6949 11.4493L18.6939 11.4533C18.6516 11.5663 18.5683 11.7968 18.5683 11.8303C18.5683 11.8724 18.3999 12.2093 18.3578 12.2514C18.3503 12.2589 18.3374 12.2731 18.3209 12.2914C18.2446 12.3756 18.0902 12.5461 18.021 12.5461C17.9368 12.5461 17.642 12.5882 17.5157 12.6724C17.3894 12.7566 16.5473 12.925 16.4631 12.925H15.7052L14.6526 12.7987L13.7263 12.6303L12.5474 12.3777L11.5369 12.083L10.4422 11.8303L9.81497 11.7049C9.81209 11.7043 9.80912 11.7045 9.80634 11.7054L9.43712 11.8285C9.43357 11.8297 9.43051 11.832 9.42844 11.8351L9.26605 12.0787C9.26421 12.0815 9.26322 12.0847 9.26322 12.088V12.5019L9.26325 12.5029L9.26342 12.5045L9.26373 12.506L9.34602 12.8352C9.34694 12.8388 9.34905 12.8421 9.35202 12.8444L9.72491 13.1344L9.72804 13.1364L10.5264 13.5145L11.5369 13.8934L12.4211 14.1461L13.7263 14.3987L14.8631 14.4829L16.5454 14.6091L16.5477 14.6091L16.5493 14.6089L17.346 14.4831L17.3473 14.483L17.3486 14.4829H18.1824C18.1869 14.4829 18.1912 14.4847 18.1943 14.4878L18.3108 14.6043C18.3139 14.6075 18.3157 14.6117 18.3157 14.6162V14.7322C18.3157 14.7344 18.3153 14.7366 18.3144 14.7387L18.1063 15.2382L18.1052 15.2403L18.1033 15.2429L17.7703 15.6176L17.7658 15.6211L17.3894 15.8303L17.3171 15.8664C17.3101 15.8699 17.3017 15.8681 17.2967 15.8621L17.0947 15.6197L16.803 15.2863L16.7988 15.2829L16.7973 15.2821L16.7957 15.2815C16.7096 15.2527 16.5294 15.1897 16.4631 15.1566C16.4011 15.1256 16.2022 15.1402 16.0679 15.1501C16.0199 15.1537 15.9801 15.1566 15.9579 15.1566C15.8736 15.1566 15.7894 15.1987 15.7052 15.2408C15.6381 15.2744 15.5374 15.534 15.4951 15.6607L15.4946 15.6619L15.4942 15.6629L15.3702 15.9109C15.369 15.9133 15.3674 15.9153 15.3653 15.9168C15.3076 15.9596 15.1819 16.0408 15.1158 16.0408C15.0484 16.0408 14.3298 15.9566 13.9789 15.9145L12.9684 15.8303L11.8316 15.6197L10.6527 15.4513L9.87374 15.2829L9.26735 15.1574C9.26464 15.1569 9.26211 15.1557 9.25998 15.1539L8.75933 14.7367L8.75844 14.7359L8.75687 14.7341L8.29748 14.1495C8.29573 14.1472 8.29457 14.1446 8.29411 14.1418L8.1685 13.3882L8.08429 12.3777L8.12632 11.6212L8.12649 11.6196L8.1267 11.6185L8.2062 11.2607C8.20849 11.2504 8.21958 11.2447 8.22928 11.2489ZM10.423 9.95289C10.386 9.89374 10.3081 9.87575 10.2489 9.91273C10.1898 9.9497 10.1718 10.0276 10.2087 10.0868C10.2459 10.1462 10.3108 10.1862 10.3645 10.2124C10.4234 10.241 10.4925 10.2641 10.5614 10.2798C10.6302 10.2956 10.7037 10.3051 10.7718 10.304C10.8355 10.303 10.9134 10.2926 10.9754 10.2513C11.0334 10.2126 11.0491 10.1341 11.0104 10.0761C10.9717 10.018 10.8933 10.0024 10.8353 10.0411C10.8353 10.0411 10.8299 10.0438 10.819 10.0463C10.8064 10.0491 10.7894 10.0511 10.7678 10.0514C10.7245 10.0521 10.6716 10.0459 10.6177 10.0335C10.5638 10.0212 10.5135 10.0039 10.4751 9.9852C10.4412 9.96871 10.4265 9.95606 10.423 9.95289ZM9.4283 11.4281C9.43071 11.4978 9.37614 11.5562 9.30642 11.5587C9.22941 11.5613 8.99511 11.6359 8.92182 11.9932C8.90781 12.0616 8.84104 12.1056 8.77271 12.0916C8.70437 12.0776 8.66033 12.0108 8.67435 11.9425C8.77226 11.4651 9.11005 11.3127 9.29769 11.3062C9.36741 11.3038 9.42589 11.3583 9.4283 11.4281ZM14.4292 4.63356L14.4696 4.57968C14.5035 4.53456 14.5624 4.51615 14.6159 4.53399C14.6399 4.54197 14.661 4.55672 14.6768 4.57644L14.7787 4.7038C14.8028 4.73394 14.8004 4.7774 14.7731 4.80469C14.7512 4.82659 14.7182 4.83296 14.6897 4.82075L14.452 4.7189C14.4455 4.71609 14.4395 4.71205 14.4344 4.70699C14.4147 4.68722 14.4124 4.65592 14.4292 4.63356ZM13.0523 9.36576C13.0276 9.38007 12.999 9.38829 12.9684 9.38829C12.951 9.38829 12.9343 9.38566 12.9185 9.38072C12.9088 9.37776 12.8993 9.37382 12.8903 9.36921C12.8841 9.36592 12.8781 9.3623 12.8723 9.35836C12.8672 9.35474 12.8624 9.35095 12.8577 9.34684C12.8223 9.31592 12.8 9.27053 12.8 9.21987C12.8 9.17069 12.821 9.12645 12.8546 9.09569C12.8847 9.06823 12.9245 9.05145 12.9684 9.05145C13.0189 9.05145 13.0642 9.07366 13.095 9.10885C13.1132 9.12958 13.1263 9.15474 13.1326 9.18254C13.1341 9.18911 13.1352 9.19586 13.1359 9.20277C13.1365 9.20836 13.1368 9.21411 13.1368 9.21987C13.1368 9.23599 13.1345 9.25161 13.1303 9.26642C13.123 9.29174 13.1099 9.31477 13.0925 9.33368C13.0809 9.34635 13.0673 9.3572 13.0523 9.36576ZM17.263 9.55671C17.4026 9.55671 17.5157 9.44355 17.5157 9.30408C17.5157 9.16461 17.4026 9.05145 17.263 9.05145C17.1235 9.05145 17.0104 9.16461 17.0104 9.30408C17.0104 9.44355 17.1235 9.55671 17.263 9.55671ZM13.5578 9.72513C13.6213 9.72513 13.6794 9.70177 13.7238 9.66312C13.7549 9.63598 13.7793 9.60128 13.7942 9.56181C13.8008 9.54437 13.8055 9.52595 13.8081 9.50704C13.8096 9.49569 13.8105 9.48418 13.8105 9.4725C13.8105 9.38434 13.7653 9.30671 13.6969 9.26148C13.6817 9.25145 13.6653 9.24306 13.6481 9.23648C13.6331 9.23073 13.6174 9.22645 13.6011 9.22365C13.587 9.22119 13.5726 9.21987 13.5578 9.21987C13.4183 9.21987 13.3052 9.33303 13.3052 9.4725C13.3052 9.61197 13.4183 9.72513 13.5578 9.72513ZM16.5894 9.38829C16.6824 9.38829 16.7578 9.31296 16.7578 9.21987C16.7578 9.12678 16.6824 9.05145 16.5894 9.05145C16.4964 9.05145 16.421 9.12678 16.421 9.21987C16.421 9.31296 16.4964 9.38829 16.5894 9.38829ZM13.221 9.55671C13.221 9.60325 13.1833 9.64092 13.1368 9.64092C13.1133 9.64092 13.092 9.63121 13.0767 9.61575C13.0618 9.60062 13.0526 9.57973 13.0526 9.55671C13.0526 9.51016 13.0902 9.4725 13.1368 9.4725C13.1833 9.4725 13.221 9.51016 13.221 9.55671ZM16.9096 9.52283C16.92 9.50885 16.9262 9.49141 16.9262 9.4725C16.9262 9.42595 16.8885 9.38829 16.842 9.38829C16.7955 9.38829 16.7578 9.42595 16.7578 9.4725C16.7578 9.51904 16.7955 9.55671 16.842 9.55671C16.8697 9.55671 16.8942 9.54339 16.9096 9.52283ZM1.64109 15.0058C1.69692 15.0753 1.75772 15.1503 1.82268 15.2296C1.90429 15.3291 1.99245 15.4353 2.08556 15.5459L2.93572 14.8879L2.5891 14.4212L1.64109 15.0058ZM3.03615 15.0232L2.19445 15.6746C2.2692 15.7625 2.34652 15.8524 2.42569 15.9435C2.5164 16.0478 2.60951 16.1534 2.7039 16.2589L3.45498 15.5872L3.03615 15.0232ZM3.55581 15.723L2.81663 16.384C2.90005 16.476 2.9841 16.5673 3.06804 16.6569C3.1418 16.7357 3.21545 16.8131 3.28849 16.8884L3.97074 16.2818L3.55581 15.723ZM2.35269 16.116L1.47191 16.847C1.61984 16.9956 1.79175 17.1598 1.98543 17.3354L2.87933 16.7015C2.79747 16.6133 2.71575 16.5238 2.63483 16.434C2.5393 16.328 2.44487 16.2214 2.35269 16.116ZM2.99547 16.8256L2.11394 17.4507C2.36108 17.6703 2.6396 17.9055 2.94539 18.1487L3.68683 17.5129C3.53899 17.3782 3.38302 17.2259 3.22416 17.0637C3.14845 16.9864 3.07204 16.9068 2.99547 16.8256ZM10.5171 21.8016L10.9491 21.0186L10.4071 20.8612L10.2839 21.7638C10.3615 21.7773 10.4393 21.7899 10.5171 21.8016ZM10.118 21.7335L10.2436 20.8138L9.68493 20.6516L9.48837 21.5937C9.6974 21.6465 9.9074 21.6933 10.118 21.7335ZM10.6681 20.7616L10.7694 20.0973C10.617 20.0443 10.436 19.9807 10.2444 19.9125L10.0422 20.5799L10.6681 20.7616ZM9.88041 20.5329L10.0856 19.8559C9.92895 19.7998 9.76861 19.7418 9.61383 19.685L9.40942 20.3962L9.88041 20.5329ZM21.4827 17.6644C21.4237 17.718 21.365 17.7594 21.3091 17.7979L21.2906 17.8106C21.2247 17.8558 21.1634 17.8979 21.1014 17.9553C21.0132 18.0368 20.924 18.1165 20.8339 18.1944L21.3993 18.7886C21.6494 18.5775 21.8973 18.3534 22.1414 18.1156L21.4827 17.6644ZM21.2697 18.8967L20.7054 18.3037C20.6286 18.368 20.5512 18.4311 20.4732 18.4929C20.3639 18.5796 20.2534 18.6639 20.1421 18.7458L20.7201 19.3272C20.9039 19.1903 21.0873 19.0469 21.2697 18.8967ZM16.6375 21.4518L16.2529 20.7112C16.0141 20.7891 15.7833 20.8577 15.5632 20.9175L15.8425 21.683C16.0901 21.6203 16.3564 21.5438 16.6375 21.4518ZM15.678 21.7233L15.3997 20.9608C15.2747 20.9931 15.1535 21.0226 15.0366 21.0492C14.9579 21.0671 14.8813 21.0837 14.8067 21.0992L15.0736 21.8459C15.2566 21.8155 15.4591 21.7751 15.678 21.7233ZM14.9041 21.872L14.6397 21.1324C14.5536 21.1488 14.4707 21.1635 14.3914 21.1765C14.2988 21.1917 14.2109 21.2046 14.1282 21.2153L14.6098 21.9062C14.6994 21.8984 14.7977 21.8871 14.9041 21.872ZM15.6975 20.7052L15.4622 19.9991C15.2747 20.0577 15.0919 20.1068 14.9213 20.1472L15.0816 20.8659C15.1943 20.8394 15.3109 20.8103 15.431 20.7786C15.5181 20.7555 15.607 20.7311 15.6975 20.7052ZM14.0503 21.9751C14.075 22.0145 14.063 22.0664 14.0235 22.0911C13.6875 22.3011 13.3629 22.4322 13.0577 22.5052L13.2198 23.4368C13.2277 23.4826 13.1971 23.5262 13.1512 23.5342C13.1054 23.5422 13.0618 23.5115 13.0538 23.4657L12.8928 22.5394C12.7133 22.5711 12.5414 22.583 12.3789 22.5798V23.4933C12.3789 23.5399 12.3412 23.5776 12.2947 23.5776C12.2482 23.5776 12.2105 23.5399 12.2105 23.4933V22.5709C11.6642 22.524 11.2416 22.3101 11.02 22.1267C10.9842 22.097 10.9792 22.0439 11.0088 22.0081C11.0385 21.9723 11.0915 21.9673 11.1274 21.9969C11.5105 22.314 12.6219 22.7685 13.9343 21.9483C13.9737 21.9236 14.0257 21.9356 14.0503 21.9751Z" fill="black"/>
<path fill-rule="evenodd" clip-rule="evenodd" d="M12.4621 21.4319C13.2992 21.4319 13.9778 20.7533 13.9778 19.9162C13.9778 19.079 13.2992 18.4004 12.4621 18.4004C11.6249 18.4004 10.9463 19.079 10.9463 19.9162C10.9463 20.7533 11.6249 21.4319 12.4621 21.4319ZM12.5324 18.6071C12.5173 18.5839 12.4918 18.5697 12.4641 18.569C12.4365 18.5683 12.4103 18.5812 12.3939 18.6035L11.594 19.6982C11.5792 19.7185 11.5742 19.7443 11.5803 19.7686C11.5865 19.7929 11.6032 19.8132 11.6259 19.824L12.4259 20.2029C12.4499 20.2143 12.4779 20.2137 12.5013 20.2013L13.2171 19.8223C13.238 19.8112 13.2533 19.7918 13.2593 19.7689C13.2652 19.746 13.2612 19.7216 13.2482 19.7018L12.5324 18.6071ZM12.3777 19.3354L11.9171 19.5415L12.3777 18.9111V19.3354ZM12.5461 19.338V18.9358L12.9368 19.5333L12.5461 19.338ZM12.5461 19.5263L12.9937 19.75L12.5461 19.987V19.5263ZM12.3777 19.5199V19.9938L11.8633 19.7501L12.3777 19.5199ZM12.3777 20.9135L11.9148 20.2556L12.3777 20.4749V20.9135ZM12.5461 20.9099V20.4763L12.9797 20.2836L12.5461 20.9099ZM11.7558 19.9939L12.4631 20.3289L13.1308 20.0322C13.2241 19.9907 13.313 20.098 13.2549 20.182L12.5312 21.2274C12.5155 21.25 12.4898 21.2635 12.4623 21.2637C12.4347 21.2638 12.4089 21.2504 12.3931 21.2279L11.6299 20.1434C11.5701 20.0584 11.6619 19.9494 11.7558 19.9939Z" fill="#EEBB2E"/>
<path fill-rule="evenodd" clip-rule="evenodd" d="M12 23C18.0751 23 23 18.0751 23 12C23 5.92487 18.0751 1 12 1C5.92487 1 1 5.92487 1 12C1 18.0751 5.92487 23 12 23ZM12 24C18.6274 24 24 18.6274 24 12C24 5.37258 18.6274 0 12 0C5.37258 0 0 5.37258 0 12C0 18.6274 5.37258 24 12 24Z" fill="black"/>
</svg>
