<svg width="24" height="24" viewBox="0 0 24 24" fill="none" xmlns="http://www.w3.org/2000/svg">
<circle cx="11.999" cy="12" r="12" fill="black"/>
<path d="M9.53146 6.84158C9.53146 6.84158 10.7687 5.81055 11.9831 5.74019C13.1974 5.66984 13.7345 5.74019 13.7345 5.74019C13.7345 5.74019 14.1314 4.89656 17.0965 5.20102C20.0616 5.50547 20.6452 6.56079 20.6452 6.56079C20.6452 6.56079 18.1701 5.59948 15.9988 6.30303C13.8275 7.00657 13.1738 8.24867 13.1738 8.24867L9.06445 8.43608L9.53146 6.84221V6.84158Z" fill="#FA0105"/>
<path d="M17.2544 7.38867C17.2544 7.38867 19.1142 8.18284 19.5094 10.1918C19.9046 12.2008 16.8593 11.5233 16.8593 11.5233L16.1387 10.0752L16.5962 8.2455L17.2544 7.38867Z" fill="#F80200"/>
<path d="M17.597 6.76161C17.597 6.76161 20.0512 7.72864 21.2433 9.31657C22.4353 10.9045 22.0845 11.9435 21.6754 12.4924C21.2662 13.0414 20.6119 13.0997 20.6119 13.0997C20.6119 13.0997 21.3948 12.5861 21.3718 11.8151C21.3488 11.0441 20.9626 10.5776 20.9626 10.5776C20.9626 10.5776 21.1613 11.5043 20.2499 12.08C19.3385 12.6556 18.5904 12.3752 18.5904 12.3752C18.5904 12.3752 20.0748 12.235 20.1798 11.1024C20.2847 9.96974 19.3733 8.5102 18.6605 7.95008C17.9478 7.38996 16.7676 6.85279 16.7676 6.85279L17.3518 6.6543L17.597 6.76161Z" fill="url(#paint0_linear_2370_3255)"/>
<path d="M14.0485 16.1666C14.0485 16.1666 15.961 17.3111 17.7571 16.295C19.5531 15.2789 17.5123 12.5234 17.5123 12.5234L15.961 13.119L13.7803 15.4191L14.0485 16.1666Z" fill="#F70500"/>
<path d="M6.83623 8.22748C6.83623 8.22748 4.09573 8.13386 2.76064 9.8382C1.42554 11.5425 2.43277 13.7361 2.90124 14.5296C3.3697 15.3232 3.86181 15.72 3.86181 15.72C3.86181 15.72 2.83156 14.0628 2.83156 12.6393C2.83156 11.2158 3.46365 10.6318 3.46365 10.6318C3.46365 10.6318 3.46054 11.9214 3.7069 12.5252C3.95327 13.1291 4.25998 13.6015 4.25998 13.6015C4.25998 13.6015 3.78591 11.5711 4.68178 10.2232C5.57766 8.87537 7.4397 8.61249 7.4397 8.61249L6.83686 8.22748H6.83623Z" fill="url(#paint1_linear_2370_3255)"/>
<path d="M7.04646 9.01367C7.04646 9.01367 5.11408 9.45175 4.76584 11.0812C4.4176 12.7106 4.64541 13.902 5.53929 15.4613C6.43316 17.0206 7.87019 18.1419 8.39596 18.5973C8.92173 19.0528 9.32459 19.2278 9.32459 19.2278C9.32459 19.2278 7.15136 17.3179 6.55545 15.8988C5.95953 14.4797 5.97691 13.7791 5.97691 13.7791C5.97691 13.7791 7.23889 17.0026 9.18431 18.2815C11.1297 19.5604 12.6195 20.2615 13.198 20.3838C13.7766 20.506 15.0907 20.6469 15.0907 20.6469C15.0907 20.6469 13.0925 20.349 10.8845 18.4919C8.67654 16.6347 7.43194 14.3221 7.43194 14.3221L8.43072 12.9204L9.05023 10.4501L7.04646 9.01367Z" fill="url(#paint2_linear_2370_3255)"/>
<path d="M8.53223 15.3234L11.9003 17.9991C11.9506 18.0394 12.022 18.0394 12.0728 18.0003L15.6637 15.2179C15.6637 15.2179 15.6637 15.2148 15.6625 15.2148L12.0455 15.8174L8.53471 15.3203C8.53471 15.3203 8.53223 15.3222 8.53347 15.3234H8.53223Z" fill="#EC2027"/>
<path d="M16.2987 15.0911L16.2714 15.0092L16.1237 14.5742H16.0691C15.2091 15.0706 13.888 15.5528 12.0432 15.5528C10.3995 15.5528 9.15912 15.1352 8.29351 14.6785H8.07509L7.92431 15.1122L7.92245 15.1178C7.83434 15.3734 7.91749 15.6564 8.1297 15.8233L8.13342 15.8258L11.5003 18.5008C11.6374 18.61 11.8099 18.6702 11.9862 18.6702C12.1624 18.6702 12.3287 18.6125 12.464 18.5064L16.0548 15.724L16.1218 15.6725C16.2987 15.536 16.3694 15.3021 16.2975 15.0905L16.2987 15.0911ZM12.0724 18C12.0476 18.0193 12.0172 18.0292 11.9874 18.0292C11.9564 18.0292 11.9253 18.0193 11.8999 17.9988L8.78247 15.5217L8.53241 15.3226C8.53241 15.3226 8.53241 15.3201 8.53427 15.3201L12.0451 15.8171H12.0457L15.6633 15.214C15.6633 15.214 15.6658 15.2164 15.6639 15.2171L15.165 15.6036L12.073 17.9994L12.0724 18Z" fill="black"/>
<path d="M7.51701 10.3727C7.51701 10.3727 6.08488 6.58944 6.57632 6.07628C7.06776 5.56312 9.65404 7.27324 9.88921 7.29433C10.1244 7.31543 10.3596 7.33715 10.6586 7.42278C10.9577 7.50841 11.2146 7.7864 11.2146 7.7864C11.2146 7.7864 10.6934 5.88702 10.7499 5.85972C10.8063 5.83242 13.338 7.44388 13.338 7.44388C13.338 7.44388 13.3237 6.3251 13.4305 6.28973C13.5372 6.25436 14.2855 7.31543 14.2855 7.31543C14.2855 7.31543 17.0071 5.81194 17.5128 6.14701C18.0185 6.48209 16.5721 10.4788 16.5721 10.4788C16.5721 10.4788 17.1423 11.2054 17.1206 11.2768C17.0989 11.3481 16.2656 10.8709 16.1588 10.8424C16.0521 10.8139 16.7433 11.3624 17.0139 11.8613C17.2844 12.3602 17.5624 13.101 17.4911 13.1439C17.4197 13.1867 16.6645 12.8876 16.6645 12.8876C16.6645 12.8876 17.0921 13.6856 17.035 13.8568C16.9779 14.0281 15.4651 15.7804 12.0461 15.7804C8.6271 15.7804 7.05287 13.8637 7.05287 13.8637C7.05287 13.8637 6.96724 13.7923 7.05287 13.6105C7.1385 13.4287 7.34141 12.9763 7.32714 12.9478C7.31286 12.9192 6.68615 13.1401 6.55771 13.1755C6.42926 13.2109 7.05659 11.8216 7.23468 11.5976C7.41277 11.3736 7.76521 10.9708 7.73357 10.9491C7.70192 10.9274 7.06404 11.1663 6.98896 11.2308C6.91388 11.2954 7.00199 11.0261 7.08514 10.8815C7.20614 10.6711 7.58403 10.4006 7.51639 10.3721L7.51701 10.3727Z" fill="white"/>
<path d="M17.8786 12.4889C17.7743 12.209 17.6347 11.8982 17.5013 11.6487C17.5596 11.5891 17.6037 11.5147 17.6291 11.4297C17.7054 11.1753 17.6366 10.9953 17.1687 10.3835C17.2984 10.0112 17.5336 9.3125 17.7421 8.58589C18.2682 6.74918 18.285 6.02319 17.8053 5.70611C17.6682 5.61551 17.4982 5.56897 17.299 5.56897C16.5823 5.56897 15.18 6.24657 14.4428 6.63128C14.4062 6.58288 14.3677 6.532 14.3286 6.4805C13.9445 5.97913 13.7441 5.76009 13.437 5.76009C13.378 5.76009 13.3197 5.7694 13.2638 5.78801C12.9548 5.89102 12.8667 6.16714 12.8345 6.49974C12.6843 6.40542 12.5236 6.30366 12.3616 6.20313C10.9642 5.33008 10.9363 5.33008 10.752 5.33008H10.6329L10.5231 5.38158C10.3847 5.44797 10.1638 5.61986 10.2308 6.03622C10.2414 6.09889 10.2581 6.18142 10.2823 6.28938C10.3133 6.42714 10.3568 6.60646 10.4126 6.82488C10.2624 6.80006 10.1272 6.78579 10.0006 6.774C9.90752 6.72994 9.69779 6.61515 9.52591 6.52021C8.49959 5.95679 7.52353 5.45108 6.86579 5.45108C6.51582 5.45108 6.30733 5.59193 6.1944 5.70983C5.88228 6.0356 5.79045 6.64556 6.35387 8.56665C6.55615 9.25417 6.78264 9.90509 6.91357 10.2668C6.81056 10.3692 6.70259 10.4871 6.62689 10.6174C6.48293 10.8675 6.34518 11.2237 6.50589 11.5017C6.53319 11.5488 6.5667 11.5904 6.60517 11.6258C6.49224 11.8405 6.38241 12.0806 6.32532 12.2103C6.00452 12.9301 5.95364 13.164 6.06781 13.401C6.14972 13.5698 6.30733 13.6809 6.48976 13.7032C6.47487 13.9167 6.54933 14.0997 6.66288 14.2207C6.7634 14.338 7.25112 14.871 8.15893 15.3699C8.39968 15.5021 8.66898 15.6318 8.96993 15.7509C9.77535 16.0698 10.7973 16.3106 12.0477 16.3106C13.298 16.3106 14.2399 16.0978 14.9932 15.8291C15.4238 15.6764 15.78 15.5052 16.0636 15.3445C16.8926 14.876 17.443 14.315 17.5392 14.0253C17.5609 13.9595 17.5931 13.8664 17.5571 13.6722C17.6322 13.6616 17.7017 13.6374 17.765 13.599C17.9294 13.5003 18.1032 13.2949 18.0002 12.8717C17.9754 12.7687 17.9344 12.6403 17.8786 12.4895V12.4889ZM17.4926 13.1448C17.487 13.1479 17.4796 13.1491 17.469 13.1491C17.3238 13.1491 16.6661 12.8879 16.6661 12.8879C16.6661 12.8879 17.0936 13.6858 17.0365 13.8571C17.0086 13.9409 16.6301 14.4056 15.847 14.8574C15.0354 15.3258 13.7888 15.7807 12.0477 15.7807C10.4964 15.7807 9.32548 15.386 8.50889 14.9554C7.52539 14.436 7.05566 13.8645 7.05566 13.8645C7.05566 13.8645 6.97003 13.7932 7.05566 13.612C7.14067 13.4302 7.3442 12.9778 7.32993 12.9487C7.32931 12.9474 7.3262 12.9462 7.32062 12.9462C7.24181 12.9462 6.68088 13.1429 6.55988 13.1764C6.55863 13.177 6.55677 13.177 6.55553 13.177C6.44818 13.177 7.06125 11.82 7.23747 11.5985C7.41556 11.3738 7.76801 10.9717 7.73574 10.9494C7.73512 10.9488 7.73202 10.9482 7.72891 10.9482C7.65073 10.9482 7.06249 11.1697 6.99175 11.2311C6.9843 11.2379 6.9781 11.241 6.97375 11.241C6.93528 11.241 7.01409 11.0108 7.08793 10.8824C7.20893 10.672 7.58682 10.4015 7.51856 10.3729C7.51856 10.3729 6.08705 6.58909 6.57849 6.07717C6.64302 6.00953 6.74231 5.98099 6.86765 5.98099C7.70409 5.98099 9.68662 7.27599 9.89139 7.29523C10.1266 7.31633 10.3624 7.33866 10.6614 7.42305C10.9512 7.50558 11.2013 7.7693 11.2162 7.78543C11.2038 7.73827 10.6968 5.88667 10.752 5.86061C10.752 5.85999 10.7527 5.85999 10.7533 5.85999C10.8488 5.85999 13.3402 7.44539 13.3402 7.44539C13.3402 7.44539 13.3259 6.32661 13.4326 6.29125C13.4339 6.29063 13.4363 6.29063 13.4388 6.29063C13.5648 6.29063 14.2877 7.31695 14.2877 7.31695C14.2877 7.31695 16.4911 6.09951 17.3015 6.09951C17.3921 6.09951 17.4653 6.1144 17.5156 6.14853C18.0213 6.48298 16.5755 10.4803 16.5755 10.4803C16.5755 10.4803 17.1457 11.2069 17.1234 11.2783C17.1222 11.2839 17.1166 11.2857 17.1085 11.2857C16.9906 11.2857 16.2615 10.87 16.1622 10.8433C16.1591 10.8427 16.1567 10.8427 16.1554 10.8427C16.0896 10.8427 16.753 11.3763 17.0167 11.8622C17.2878 12.3611 17.5652 13.1019 17.4945 13.1448H17.4926Z" fill="black"/>
<path d="M7.97887 9.74638C7.97887 9.74638 7.04072 7.33513 7.13227 7.08684C7.22381 6.83855 8.30326 7.37774 8.30326 7.37774C8.30326 7.37774 8.47959 8.14361 8.58526 8.20043C8.69094 8.25726 7.71039 8.1152 7.68213 8.17202C7.65387 8.22885 8.20435 9.51229 8.19022 9.58332C8.17609 9.65435 7.97887 9.74638 7.97887 9.74638Z" fill="black"/>
<path d="M16.9711 7.13854C17.0618 7.20824 16.1379 9.79944 16.1114 9.79944C16.085 9.79944 15.8163 9.47007 15.8421 9.43306C15.868 9.39605 16.4439 8.29073 16.4096 8.17971C16.3753 8.06868 15.568 8.23275 15.5626 8.18526C15.5572 8.13777 15.8577 7.44139 15.8782 7.42042C15.8986 7.39945 16.8671 7.05897 16.9705 7.13915L16.9711 7.13854Z" fill="black"/>
<path d="M12.7334 10.9736C12.7529 10.769 12.8057 10.6066 13.0219 10.5184C13.2381 10.4302 13.563 10.2396 13.6208 10.2761C13.6786 10.3125 12.697 11.3553 12.7334 10.9736Z" fill="black"/>
<path d="M12.9424 11.782L14.8288 10.5332C14.8288 10.5332 14.6469 12.2311 13.8229 12.3081C12.999 12.3851 12.9424 11.782 12.9424 11.782Z" fill="black"/>
<path d="M14.2002 13.436C14.2002 13.436 14.6791 13.1955 14.9824 13.0194C15.2858 12.8434 15.5626 12.5762 15.5626 12.5762C15.5626 12.5762 15.5626 13.2755 15.5039 13.7026C15.4452 14.1298 15.318 14.5674 15.318 14.5674C15.318 14.5674 14.3812 13.4838 14.2008 13.4354L14.2002 13.436Z" fill="#EC2027"/>
<path d="M11.2121 10.9736C11.1926 10.769 11.1398 10.6066 10.9236 10.5184C10.7075 10.4302 10.3825 10.2396 10.3247 10.2761C10.2669 10.3125 11.2486 11.3553 11.2121 10.9736Z" fill="black"/>
<path d="M11.0561 11.8348L9.11719 10.5859C9.11719 10.5859 9.30419 12.2838 10.151 12.3608C10.9985 12.4378 11.0561 11.8348 11.0561 11.8348Z" fill="black"/>
<path d="M9.53627 13.436C9.53627 13.436 9.05741 13.1955 8.75403 13.0194C8.45064 12.8434 8.17383 12.5762 8.17383 12.5762C8.17383 12.5762 8.17383 13.2755 8.23253 13.7026C8.29123 14.1298 8.41851 14.5674 8.41851 14.5674C8.41851 14.5674 9.35523 13.4838 9.53566 13.4354L9.53627 13.436Z" fill="#EC2027"/>
<path d="M10.2695 13.0474C10.2695 13.0474 11.1538 12.209 12.0003 12.209C12.8468 12.209 13.5708 12.9645 13.5708 12.9645C13.5708 12.9645 12.7985 12.3274 12.0052 12.3328C11.2119 12.3382 10.2695 13.0474 10.2695 13.0474Z" fill="black"/>
<path d="M13.7928 13.9195C14.2278 14.266 13.2992 14.4908 13.057 14.5103C12.8543 14.5322 12.6424 14.5216 12.4428 14.4845C12.2377 14.4525 12.0931 14.3093 12.0548 14.1034C12.6764 14.0902 13.1663 13.6344 13.1348 13.1152C13.1089 12.6883 12.0919 12.6883 11.395 12.7906C10.6981 12.8936 10.9372 13.5258 10.9372 13.5258C11.1664 13.8812 11.3375 14.0896 11.9776 14.1034C11.9183 14.3012 11.8108 14.4946 11.6057 14.5454C11.1917 14.617 10.7469 14.514 10.3601 14.3615C10.2236 14.3125 10.0352 14.2208 10.1031 14.0494C10.1216 13.9998 10.1562 13.9559 10.1958 13.9188C10.1519 13.9502 10.1105 13.9898 10.0833 14.04C10.0271 14.1674 10.0803 14.2679 10.184 14.347V14.7394C10.184 14.7394 10.3892 14.5617 10.5004 14.4983C10.6783 14.5567 10.8649 14.5906 10.9631 14.6101C10.9848 14.6132 11.0058 14.6164 11.0274 14.6195C11.0323 14.6572 11.0509 14.7231 11.0515 14.7426C11.1621 15.0822 11.6353 15.2699 11.9245 15.0502C11.7435 15.0445 11.5532 15.1004 11.3857 15.0106C11.2745 14.9504 11.1639 14.8461 11.1244 14.7212C11.1083 14.6948 11.1028 14.6609 11.0966 14.6289C11.5 14.6804 11.859 14.649 12.0165 14.2302C12.0419 14.2968 12.0771 14.3608 12.1302 14.4123C12.2124 14.4958 12.3236 14.5354 12.428 14.5586C12.6399 14.5975 12.8525 14.6082 13.0656 14.5856C13.2201 14.568 13.3721 14.5347 13.5191 14.4826C13.6285 14.5429 13.841 14.7269 13.841 14.7269V14.3018C13.8744 14.2698 13.9028 14.234 13.9213 14.1901C13.9744 14.0789 13.8947 13.9596 13.7934 13.9182L13.7928 13.9195Z" fill="black"/>
<defs>
<linearGradient id="paint0_linear_2370_3255" x1="19.6868" y1="10.0039" x2="20.5037" y2="13.1571" gradientUnits="userSpaceOnUse">
<stop stop-color="#F80200"/>
<stop offset="1" stop-color="#FDC10B"/>
</linearGradient>
<linearGradient id="paint1_linear_2370_3255" x1="4.94619" y1="9.30254" x2="3.85275" y2="13.5525" gradientUnits="userSpaceOnUse">
<stop stop-color="#F80200"/>
<stop offset="1" stop-color="#FDC10B"/>
</linearGradient>
<linearGradient id="paint2_linear_2370_3255" x1="9.9261" y1="19.3289" x2="9.68109" y2="10.3583" gradientUnits="userSpaceOnUse">
<stop stop-color="#F80200"/>
<stop offset="1" stop-color="#FDC10B"/>
</linearGradient>
</defs>
</svg>
