<svg width="24" height="24" viewBox="0 0 24 24" fill="none" xmlns="http://www.w3.org/2000/svg">
<g clip-path="url(#clip0_2068_1944)">
<circle cx="12" cy="12" r="12" fill="#31CB9E"/>
<path d="M10.9648 11.9981L18.4204 16.2687C18.4803 16.3047 18.5487 16.3241 18.6186 16.3249C18.6885 16.3257 18.7574 16.3079 18.8181 16.2733C18.8789 16.2387 18.9293 16.1885 18.9642 16.1279C18.9991 16.0674 19.0173 15.9986 19.0168 15.9287V8.06161C19.0177 7.99159 18.9998 7.92261 18.9648 7.86191C18.9299 7.8012 18.8793 7.751 18.8184 7.71655C18.7574 7.6821 18.6883 7.66468 18.6183 7.6661C18.5483 7.66752 18.4799 7.68773 18.4204 7.72462L10.9648 11.9981Z" fill="white"/>
<path d="M18.2617 5.83252L13.1651 2.08387C13.1123 2.04336 13.0504 2.01645 12.9848 2.00551C12.9192 1.99458 12.8519 1.99996 12.7888 2.02117C12.7257 2.04239 12.6689 2.07879 12.6232 2.12717C12.5775 2.17555 12.5445 2.23442 12.5269 2.29859L10.666 10.6488L18.217 6.4737C18.2744 6.44414 18.3233 6.40027 18.3589 6.34632C18.3944 6.29237 18.4155 6.23016 18.42 6.16571C18.4244 6.10125 18.4122 6.03673 18.3845 5.97836C18.3568 5.92 18.3145 5.86977 18.2617 5.83252Z" fill="white"/>
<path d="M13.1591 21.9079L18.2617 18.1592C18.3152 18.1216 18.3582 18.0709 18.3864 18.0119C18.4147 17.9529 18.4274 17.8877 18.4232 17.8224C18.419 17.7572 18.3981 17.6941 18.3625 17.6392C18.3269 17.5843 18.2778 17.5395 18.22 17.5091L10.666 13.334L12.5269 21.6842C12.5424 21.7491 12.5737 21.8091 12.618 21.8589C12.6624 21.9087 12.7185 21.9466 12.7811 21.9694C12.8438 21.9922 12.9112 21.999 12.9772 21.9893C13.0431 21.9796 13.1057 21.9537 13.1591 21.9138" fill="white"/>
<path d="M9.02611 11.8414L10.9646 2.77549C10.9794 2.70037 10.9714 2.62253 10.9417 2.55195C10.912 2.48137 10.862 2.42125 10.7979 2.3793C10.7338 2.33734 10.6587 2.31545 10.5822 2.31644C10.5056 2.31742 10.4311 2.34123 10.3681 2.38482L5.40272 6.19311C5.27698 6.28957 5.17523 6.41378 5.1054 6.55603C5.03556 6.69829 4.99953 6.85475 5.00012 7.01322V16.6756C4.99768 16.8361 5.03282 16.9949 5.10272 17.1394C5.17263 17.2839 5.27537 17.41 5.40272 17.5076L10.3443 21.304C10.4072 21.3476 10.4817 21.3714 10.5583 21.3724C10.6349 21.3734 10.71 21.3515 10.774 21.3095C10.8381 21.2676 10.8882 21.2075 10.9179 21.1369C10.9475 21.0663 10.9555 20.9885 10.9407 20.9133L9.02611 11.8414Z" fill="white"/>
</g>
<defs>
<clipPath id="clip0_2068_1944">
<rect width="24" height="24" fill="white"/>
</clipPath>
</defs>
</svg>
