<svg width="24" height="24" viewBox="0 0 24 24" fill="none" xmlns="http://www.w3.org/2000/svg">
<path fill-rule="evenodd" clip-rule="evenodd" d="M11.7572 3.00568C11.7309 3.00951 11.7095 3.01795 11.7095 3.02444C11.7095 3.031 11.6828 3.04061 11.6502 3.0458C11.5961 3.05444 11.5374 3.07859 11.519 3.09975C11.5149 3.10436 11.5017 3.11287 11.4897 3.11865C11.4355 3.14449 11.3997 3.16987 11.3661 3.20617C11.3462 3.22766 11.3229 3.24525 11.3145 3.24525C11.3061 3.24525 11.2992 3.25226 11.2992 3.2609C11.2992 3.26947 11.2777 3.29758 11.2515 3.32329C11.2253 3.349 11.1961 3.38321 11.1865 3.39925C11.1395 3.47813 11.0647 3.63863 11.0647 3.66038C11.0647 3.67388 11.0586 3.68492 11.0512 3.68492C11.0438 3.68492 11.0331 3.70634 11.0275 3.73257C11.0219 3.75874 11.0123 3.78678 11.0061 3.79484C11 3.80289 10.9903 3.826 10.9846 3.84613C10.979 3.86625 10.959 3.91572 10.9403 3.95604C10.8833 4.07914 10.8595 4.13575 10.8594 4.1488C10.8594 4.15562 10.8396 4.20081 10.8155 4.24918C10.7914 4.29755 10.7716 4.34864 10.7716 4.36273C10.7715 4.37682 10.7665 4.38838 10.7604 4.38838C10.7497 4.38838 10.6982 4.49427 10.6982 4.51621C10.6982 4.52186 10.6727 4.57951 10.6415 4.64431C10.5616 4.81012 10.537 4.86674 10.537 4.88524C10.537 4.89407 10.531 4.90134 10.5236 4.90134C10.5161 4.90134 10.5057 4.92115 10.5004 4.9453C10.4951 4.96951 10.4847 4.98925 10.4772 4.98925C10.4698 4.98925 10.4638 4.99763 10.4638 5.00782C10.4638 5.01801 10.4506 5.05093 10.4344 5.08105C10.4183 5.11111 10.4052 5.14462 10.4052 5.15546C10.4052 5.16637 10.3926 5.18662 10.3773 5.20045C10.362 5.21434 10.3453 5.24765 10.3402 5.27453C10.3352 5.30141 10.3213 5.33147 10.3095 5.34134C10.2976 5.35121 10.2879 5.36711 10.2879 5.37672C10.2879 5.40438 10.2333 5.50995 10.2082 5.53079C10.1956 5.54124 10.1853 5.56169 10.1853 5.57623C10.1853 5.59078 10.1754 5.61259 10.1633 5.62467C10.1512 5.63681 10.1414 5.66057 10.1414 5.67752C10.1414 5.69446 10.132 5.71186 10.1207 5.71628C10.1093 5.72063 10.0957 5.7414 10.0904 5.7625C10.0851 5.7836 10.0685 5.81814 10.0534 5.83931C10.0383 5.86041 10.0216 5.89547 10.0161 5.91715C10.0107 5.93884 10.0009 5.95656 9.99439 5.95656C9.98783 5.95656 9.97809 5.9763 9.97283 6.00052C9.96751 6.02467 9.95822 6.04447 9.95212 6.04447C9.94608 6.04447 9.91648 6.09232 9.88629 6.15075C9.82143 6.27638 9.80039 6.313 9.78708 6.32306C9.78169 6.32722 9.77273 6.34864 9.76721 6.37071C9.76163 6.39279 9.75274 6.41084 9.74741 6.41084C9.74202 6.41084 9.72488 6.43557 9.7093 6.46583C9.69366 6.49608 9.66749 6.54056 9.651 6.56477C9.61984 6.61061 9.59088 6.66132 9.54634 6.74793C9.53186 6.77617 9.51414 6.80331 9.50693 6.80824C9.49161 6.81882 9.457 6.87602 9.4437 6.91283C9.43863 6.92692 9.42941 6.93848 9.42324 6.93848C9.41701 6.93848 9.40779 6.95004 9.40273 6.96412C9.39124 6.99581 9.36819 7.03385 9.3206 7.09969C9.2821 7.15293 9.25574 7.19493 9.23769 7.23161C9.22626 7.25466 9.22548 7.25577 9.16699 7.32894C9.14667 7.35432 9.13011 7.38198 9.13011 7.39055C9.13011 7.39905 9.12135 7.41126 9.1107 7.41769C9.09999 7.42418 9.08655 7.43931 9.08077 7.45145C9.05759 7.50021 9.03195 7.53734 8.97254 7.60824C8.93832 7.64921 8.91028 7.68881 8.91028 7.69641C8.91028 7.70394 8.89378 7.72562 8.87366 7.74452C8.85347 7.76348 8.83698 7.78471 8.83698 7.79178C8.83698 7.79879 8.82049 7.81983 8.80036 7.83853C8.78023 7.85716 8.76374 7.87891 8.76374 7.88683C8.76374 7.89475 8.7505 7.91313 8.7344 7.92773C8.7183 7.94234 8.70512 7.96072 8.70512 7.96857C8.70512 7.97643 8.682 8.00467 8.65382 8.03129C8.62558 8.05784 8.60253 8.0855 8.60253 8.09271C8.60253 8.09991 8.58526 8.12179 8.56429 8.14134C8.54326 8.16088 8.52177 8.18782 8.51664 8.20126C8.51145 8.21464 8.42646 8.31131 8.32771 8.4161C8.22896 8.52088 8.14819 8.61379 8.14819 8.62256C8.14819 8.63132 8.13826 8.63853 8.12618 8.63853C8.11411 8.63853 8.10424 8.6484 8.10424 8.66054C8.10424 8.67261 8.0943 8.68248 8.08223 8.68248C8.07015 8.68248 8.06022 8.69242 8.06022 8.70449C8.06022 8.71657 8.05035 8.72644 8.03828 8.72644C8.0262 8.72644 8.01627 8.73637 8.01627 8.74845C8.01627 8.76052 8.0064 8.77045 7.99432 8.77045C7.98218 8.77045 7.97231 8.78091 7.97231 8.79376C7.97231 8.80662 7.95913 8.82058 7.94303 8.8248C7.92686 8.82902 7.91368 8.84161 7.91368 8.85271C7.91368 8.86388 7.90654 8.87303 7.89784 8.87303C7.88921 8.87303 7.80312 8.94724 7.70671 9.03788C7.61023 9.12858 7.52336 9.20538 7.51368 9.20856C7.49784 9.21376 7.43785 9.26239 7.34735 9.34328C7.33014 9.35867 7.30982 9.37133 7.30229 9.37133C7.29476 9.37133 7.27314 9.38782 7.25418 9.40795C7.23522 9.42807 7.21133 9.44457 7.20107 9.44457C7.19075 9.44457 7.17712 9.45281 7.17062 9.46294C7.15868 9.48164 7.11765 9.5104 7.0783 9.52773C7.06623 9.53306 7.03227 9.55611 7.00292 9.57889C6.97358 9.60175 6.94306 9.62045 6.93508 9.62045C6.92716 9.62045 6.9119 9.63109 6.90106 9.64408C6.89028 9.65706 6.84665 9.68368 6.80406 9.70316C6.7614 9.72264 6.7266 9.74497 6.7266 9.75276C6.7266 9.76062 6.71836 9.76705 6.70823 9.76711C6.69817 9.76718 6.67019 9.77795 6.64597 9.79107C6.51904 9.85995 6.43886 9.89858 6.4225 9.89871C6.41237 9.89884 6.40413 9.90553 6.40413 9.91358C6.40413 9.92163 6.38893 9.92825 6.3703 9.92825C6.35173 9.92825 6.32368 9.93793 6.30804 9.94974C6.29239 9.96156 6.27071 9.97149 6.2598 9.97175C6.24129 9.97214 6.16306 10.003 6.10917 10.031C6.09606 10.0378 6.06139 10.048 6.03211 10.0534C6.00276 10.0589 5.97543 10.0689 5.97134 10.0756C5.96718 10.0823 5.93264 10.0923 5.89453 10.0978C5.85642 10.1033 5.81747 10.114 5.80792 10.1215C5.79844 10.1291 5.75391 10.1391 5.70904 10.1437C5.66412 10.1483 5.62743 10.1578 5.62743 10.1648C5.62743 10.1717 5.6014 10.1774 5.56965 10.1774C5.5379 10.1774 5.50823 10.1833 5.50369 10.1906C5.49921 10.1979 5.42461 10.2086 5.33793 10.2143C5.25133 10.2201 5.17218 10.2314 5.16212 10.2395C5.14933 10.2498 5.14375 10.2487 5.14375 10.236C5.14375 10.2215 5.13933 10.2215 5.1218 10.236C5.10492 10.25 5.09499 10.2502 5.07915 10.2371C5.06499 10.2253 5.05545 10.2248 5.04896 10.2353C5.03526 10.2574 4.74407 10.2555 4.72167 10.2331C4.70804 10.2194 4.70408 10.2198 4.70408 10.2348C4.70408 10.2504 4.69979 10.2507 4.68213 10.236C4.6646 10.2215 4.66012 10.2215 4.66012 10.236C4.66012 10.2487 4.65447 10.2498 4.64181 10.2396C4.63175 10.2315 4.5543 10.2205 4.46977 10.2152C4.38523 10.2099 4.30973 10.1992 4.30194 10.1915C4.29421 10.1837 4.25993 10.1774 4.22571 10.1774C4.19156 10.1774 4.15982 10.1713 4.15521 10.1639C4.15066 10.1565 4.10398 10.1458 4.05159 10.1402C3.99913 10.1345 3.9529 10.1245 3.94881 10.1179C3.94466 10.1112 3.91083 10.1012 3.87356 10.0956C3.8363 10.09 3.78864 10.0765 3.76767 10.0656C3.7467 10.0546 3.71813 10.0456 3.70431 10.0456C3.69041 10.0455 3.65704 10.033 3.63003 10.0179C3.60302 10.0027 3.55887 9.98552 3.53193 9.97961C3.50492 9.97364 3.45331 9.95305 3.41714 9.93384C3.38098 9.91462 3.34417 9.89891 3.33534 9.89891C3.31352 9.89891 2.89541 9.68933 2.88918 9.67524C2.88645 9.66914 2.85022 9.64771 2.80861 9.62765C2.71628 9.58324 2.69135 9.56786 2.61318 9.50689C2.57962 9.48066 2.548 9.45924 2.543 9.45924C2.53021 9.45924 2.44087 9.39561 2.4349 9.3823C2.43224 9.37627 2.42321 9.37133 2.41484 9.37133C2.40121 9.37133 2.33148 9.31816 2.27006 9.26102C2.25727 9.24914 2.24039 9.2394 2.23247 9.2394C2.22461 9.2394 2.19916 9.2196 2.17598 9.19545C2.1528 9.17123 2.12761 9.1515 2.11995 9.1515C2.11236 9.1515 2.05159 9.10202 1.98504 9.04158C1.91843 8.98113 1.85668 8.93166 1.84779 8.93166C1.83889 8.93166 1.83162 8.92153 1.83162 8.9092C1.83162 8.89686 1.82007 8.88277 1.80598 8.8779C1.7765 8.86778 1.37728 8.47674 1.37728 8.45797C1.37728 8.45116 1.31625 8.37967 1.24172 8.2991C1.16712 8.21853 1.10194 8.14134 1.09681 8.12757C1.09161 8.11381 1.07681 8.09375 1.06383 8.08297C1.05084 8.07219 1.04019 8.05713 1.04019 8.04947C1.04019 8.03278 1.01195 8.00344 0.981566 7.98863C0.96949 7.98273 0.943066 7.96831 0.922939 7.95669C0.902813 7.945 0.865286 7.9354 0.839511 7.93527C0.813801 7.93514 0.789584 7.92988 0.785689 7.92358C0.777638 7.91059 0.687588 7.91027 0.666033 7.92319C0.658242 7.92786 0.61695 7.93643 0.57436 7.94215C0.500151 7.95215 0.38452 8.00259 0.335567 8.04629C0.322842 8.05765 0.305962 8.06693 0.297976 8.06693C0.290055 8.06693 0.264605 8.08673 0.241427 8.11095C0.218314 8.1351 0.190656 8.15491 0.180073 8.15491C0.16949 8.15491 0.160855 8.1627 0.160855 8.17224C0.160855 8.18185 0.146767 8.20464 0.129497 8.22301C0.0965802 8.25807 0.0706754 8.29891 0.042628 8.36007C0.0333438 8.38019 0.0199044 8.40818 0.0126978 8.42213C-0.00509154 8.4568 -0.003858 8.60529 0.0143209 8.61652C0.0223715 8.62152 0.0290588 8.63678 0.0291237 8.65041C0.0292535 8.66404 0.0490555 8.71404 0.0730776 8.76149C0.0971646 8.80895 0.116902 8.85518 0.116967 8.86408C0.117031 8.87303 0.127809 8.90011 0.140924 8.92433C0.209809 9.05125 0.248439 9.13143 0.248569 9.1478C0.248698 9.15786 0.255386 9.1661 0.263436 9.1661C0.271487 9.1661 0.278109 9.17338 0.278109 9.18221C0.278109 9.20357 0.305897 9.26505 0.426592 9.51053C0.482102 9.62337 0.527419 9.72725 0.527354 9.74134C0.527289 9.75549 0.533327 9.76698 0.540729 9.76698C0.54813 9.76698 0.558583 9.78678 0.563907 9.811C0.569166 9.83515 0.578904 9.85495 0.585462 9.85495C0.592019 9.85495 0.601823 9.87268 0.607211 9.89436C0.612665 9.91605 0.629156 9.95065 0.643829 9.9713C0.658567 9.99194 0.672331 10.0154 0.674538 10.0235C0.676681 10.0315 0.681485 10.0497 0.685186 10.0638C0.688887 10.0779 0.697197 10.0895 0.703624 10.0895C0.710117 10.0895 0.719791 10.1094 0.725179 10.1338C0.730503 10.1582 0.780495 10.2684 0.836265 10.3787C0.89197 10.4891 0.937612 10.5861 0.937612 10.5943C0.937612 10.6124 1.01383 10.7679 1.02786 10.7784C1.03338 10.7825 1.0424 10.804 1.04792 10.826C1.0535 10.8481 1.06389 10.8662 1.0711 10.8662C1.0783 10.8662 1.08415 10.8736 1.08415 10.8827C1.08415 10.8996 1.11135 10.959 1.2621 11.2711C1.3093 11.3689 1.34793 11.4585 1.34793 11.4703C1.34793 11.4822 1.36118 11.5038 1.37728 11.5184C1.39338 11.5329 1.40656 11.555 1.40656 11.5674C1.40656 11.5798 1.44539 11.6695 1.49285 11.7667C1.59848 11.9829 1.6264 12.0456 1.6264 12.0665C1.6264 12.0754 1.6323 12.0826 1.63951 12.0826C1.64665 12.0826 1.65711 12.1007 1.66262 12.1228C1.66814 12.1448 1.67736 12.1663 1.68301 12.1704C1.69645 12.1802 1.7876 12.3679 1.7876 12.3858C1.7876 12.3934 1.83377 12.4911 1.89025 12.6029C1.94667 12.7147 1.99283 12.8182 1.99283 12.8328C1.99283 12.8474 1.99867 12.8593 2.00588 12.8593C2.01309 12.8593 2.02341 12.8771 2.02886 12.8987C2.03425 12.9204 2.05107 12.9555 2.06606 12.9766C2.08113 12.9978 2.09788 13.0327 2.10333 13.0544C2.10879 13.0761 2.11859 13.0938 2.12515 13.0938C2.1317 13.0938 2.14138 13.1136 2.1467 13.1378C2.15202 13.162 2.16189 13.1818 2.16865 13.1818C2.17546 13.1818 2.18527 13.2012 2.19046 13.2248C2.19565 13.2485 2.2522 13.3718 2.31622 13.4988C2.38017 13.6258 2.4325 13.7417 2.4325 13.7562C2.4325 13.7707 2.43906 13.7827 2.44711 13.7827C2.45522 13.7827 2.46178 13.7902 2.46178 13.7994C2.46178 13.8217 2.59773 14.0964 2.61189 14.1026C2.61799 14.1053 2.62299 14.1237 2.62299 14.1434C2.62299 14.1631 2.63292 14.1831 2.645 14.1877C2.65707 14.1924 2.66694 14.2087 2.66694 14.2239C2.66694 14.2392 2.68019 14.2764 2.69629 14.3064C2.71239 14.3365 2.72557 14.3689 2.72557 14.3784C2.72557 14.388 2.73063 14.398 2.73687 14.4006C2.7494 14.4061 2.84282 14.5925 2.84282 14.612C2.84282 14.6237 3.02123 14.9952 3.04974 15.0431C3.05694 15.0551 3.06675 15.0749 3.07149 15.087C3.07623 15.0991 3.10914 15.1691 3.14466 15.2425C3.18017 15.3159 3.20926 15.3835 3.20926 15.3928C3.20926 15.4019 3.21529 15.4094 3.22269 15.4094C3.23016 15.4094 3.24029 15.4281 3.24529 15.4509C3.25029 15.4736 3.3032 15.5898 3.36293 15.709C3.4226 15.8282 3.47564 15.9448 3.48071 15.9681C3.48583 15.9913 3.49557 16.0103 3.50232 16.0103C3.50914 16.0103 3.51901 16.0301 3.52433 16.0543C3.52966 16.0785 3.54005 16.0982 3.54745 16.0982C3.55491 16.0982 3.56102 16.1065 3.56108 16.1166C3.56108 16.1267 3.57004 16.1514 3.58088 16.1715C3.59173 16.1916 3.61718 16.2388 3.63743 16.2762C3.65769 16.3137 3.67859 16.3615 3.68385 16.3825C3.68911 16.4035 3.69989 16.4207 3.70781 16.4207C3.71573 16.4207 3.72216 16.4336 3.72216 16.4493C3.72216 16.4651 3.75845 16.5482 3.8028 16.6339C3.84714 16.7196 3.88337 16.7981 3.88337 16.8086C3.88337 16.819 3.8933 16.8356 3.90538 16.8457C3.91745 16.8557 3.92732 16.873 3.92732 16.884C3.92732 16.9118 3.97595 17.0216 3.98828 17.0216C3.9938 17.0216 4.00263 17.0413 4.00796 17.0655C4.01328 17.0897 4.02367 17.1095 4.03113 17.1095C4.03854 17.1095 4.04457 17.117 4.04457 17.1262C4.04457 17.1455 4.06464 17.1896 4.19715 17.4621C4.25026 17.5714 4.29375 17.6712 4.29375 17.684C4.29375 17.6968 4.30362 17.711 4.3157 17.7157C4.32784 17.7203 4.33771 17.7354 4.33771 17.7492C4.33771 17.7779 4.49911 18.1109 4.51664 18.1183C4.523 18.1209 4.52826 18.1358 4.52826 18.1513C4.52826 18.1668 4.54144 18.204 4.55754 18.2342C4.57364 18.2642 4.58689 18.2972 4.58689 18.3073C4.58689 18.3175 4.59273 18.3259 4.59994 18.3259C4.60708 18.3259 4.61753 18.344 4.62305 18.366C4.62864 18.3882 4.63766 18.4096 4.64311 18.4137C4.6572 18.4242 4.73342 18.5796 4.73342 18.5978C4.73342 18.606 4.77958 18.7042 4.836 18.8158C4.89242 18.9275 4.93858 19.027 4.93858 19.037C4.93858 19.047 4.94767 19.0627 4.95884 19.0719C4.96994 19.0811 4.98306 19.1088 4.98799 19.1335C4.99293 19.1582 5.00981 19.1964 5.02545 19.2184C5.0411 19.2404 5.05837 19.2761 5.06376 19.2978C5.06921 19.3194 5.07902 19.3372 5.08557 19.3372C5.09213 19.3372 5.10181 19.3569 5.10713 19.3811C5.11245 19.4053 5.12284 19.4251 5.13031 19.4251C5.13771 19.4251 5.14375 19.4407 5.14375 19.4599C5.14375 19.4791 5.15368 19.503 5.16576 19.513C5.17783 19.5231 5.18777 19.5386 5.18777 19.5477C5.18777 19.5568 5.22984 19.6499 5.28132 19.7548C5.33274 19.8596 5.37923 19.9553 5.38462 19.9673C5.38994 19.9794 5.41033 20.0157 5.42993 20.048C5.44948 20.0802 5.47155 20.1198 5.47889 20.1359C5.49453 20.1701 5.6336 20.3044 5.6534 20.3044C5.6608 20.3044 5.67879 20.3176 5.69333 20.3337C5.70794 20.3499 5.72878 20.3631 5.73962 20.3631C5.75047 20.3631 5.75936 20.368 5.75943 20.374C5.75955 20.3862 5.82961 20.4216 5.85383 20.4217C5.86227 20.4218 5.88901 20.4334 5.91317 20.4474C5.96582 20.478 7.88745 20.4788 7.92427 20.4483C7.93758 20.4373 7.94303 20.4375 7.94303 20.4492C7.94303 20.4582 7.9529 20.4656 7.96497 20.4656C7.97705 20.4656 7.98698 20.4582 7.98698 20.4492C7.98698 20.4378 7.99374 20.4384 8.00893 20.451C8.0225 20.4622 8.03795 20.4642 8.04925 20.4562C8.07139 20.4404 8.10502 20.4403 8.12988 20.4559C8.14066 20.4626 8.14819 20.4602 8.14819 20.45C8.14819 20.4369 8.15306 20.4368 8.16871 20.4498C8.18455 20.4629 8.1913 20.4625 8.19805 20.4479C8.2052 20.4325 8.20838 20.4325 8.21558 20.4479C8.22227 20.4625 8.22909 20.4629 8.24486 20.4498C8.26064 20.4367 8.26545 20.437 8.26545 20.451C8.26545 20.4656 8.26986 20.4656 8.28739 20.451C8.30492 20.4364 8.31381 20.4364 8.33134 20.451C8.34654 20.4636 8.35335 20.4641 8.35335 20.4528C8.35335 20.4438 8.36984 20.4363 8.38997 20.4363C8.41016 20.4363 8.42665 20.4438 8.42665 20.4528C8.42665 20.4643 8.43217 20.4647 8.44496 20.4541C8.45691 20.4441 8.8164 20.4353 9.48187 20.4287C10.1821 20.4216 10.5035 20.4135 10.5103 20.4027C10.5172 20.3917 10.5268 20.3924 10.542 20.405C10.5575 20.4178 10.5666 20.4184 10.5737 20.407C10.5808 20.3954 10.5892 20.3956 10.6036 20.4076C10.6147 20.4167 10.6318 20.4191 10.6417 20.413C10.6703 20.3954 10.8155 20.3956 10.8157 20.4134C10.8159 20.4238 10.8196 20.424 10.8267 20.4141C10.8328 20.4057 10.9206 20.3974 11.0276 20.3951C11.1412 20.3927 11.2215 20.3847 11.2272 20.3755C11.2339 20.3647 11.2401 20.3652 11.2473 20.3769C11.254 20.3877 11.264 20.3888 11.2748 20.3801C11.2842 20.3726 11.3149 20.3616 11.3431 20.3557C11.3713 20.3498 11.401 20.3401 11.4091 20.334C11.4171 20.3281 11.4435 20.3184 11.4677 20.3126C11.4919 20.3069 11.5326 20.2862 11.5583 20.2666C11.5839 20.2471 11.6128 20.2311 11.6223 20.2311C11.6443 20.2311 11.9293 19.9445 11.9293 19.9224C11.9293 19.9133 11.9421 19.888 11.9577 19.8661C11.9733 19.8442 11.9907 19.8074 11.9966 19.7842C12.0024 19.7611 12.016 19.7252 12.0268 19.7045C12.0376 19.6838 12.0465 19.6468 12.0465 19.6222C12.0465 19.5976 12.0537 19.5703 12.0625 19.5616C12.0849 19.5392 12.0816 18.006 12.059 17.9789C12.0475 17.9649 12.0475 17.9595 12.059 17.9595C12.0689 17.9595 12.0741 17.9286 12.0728 17.8789C12.0716 17.8346 12.0645 17.7983 12.0568 17.7983C12.0492 17.7983 12.0512 17.7884 12.0613 17.7763C12.0746 17.7602 12.0752 17.7491 12.0634 17.7349C12.0516 17.7208 12.0518 17.711 12.0639 17.6989C12.0763 17.6865 12.0757 17.6765 12.0618 17.6597C12.047 17.6419 12.0469 17.6371 12.0613 17.6371C12.0758 17.6371 12.0758 17.6326 12.0613 17.6151C12.0466 17.5976 12.0466 17.5931 12.0613 17.5931C12.073 17.5931 12.0749 17.5866 12.0665 17.5748C12.0507 17.5527 12.0506 17.519 12.0661 17.4942C12.0729 17.4834 12.0705 17.4759 12.0603 17.4759C12.0492 17.4759 12.0477 17.4693 12.0561 17.4575C12.0722 17.4351 12.072 17.3145 12.0558 17.2884C12.0494 17.278 12.0511 17.261 12.0596 17.2506C12.0707 17.2373 12.0703 17.2271 12.0586 17.2153C12.0462 17.2029 12.0467 17.1929 12.0607 17.176C12.0735 17.1607 12.0742 17.1534 12.063 17.1534C12.042 17.1534 12.0416 17.1057 12.0625 17.0848C12.074 17.0733 12.074 17.0661 12.0625 17.059C12.0417 17.0461 12.0419 16.9822 12.0628 16.9693C12.0735 16.9627 12.074 16.9561 12.0641 16.95C12.0542 16.944 12.0459 16.3801 12.0392 15.2848C12.0326 14.1903 12.0242 13.6258 12.0144 13.6197C12.0045 13.6136 12.005 13.6071 12.0157 13.6004C12.0363 13.5877 12.0369 13.5236 12.0166 13.5111C12.0061 13.5046 12.0066 13.4951 12.0183 13.4809C12.0309 13.4658 12.0311 13.455 12.0194 13.4409C12.0077 13.4267 12.0078 13.4169 12.0199 13.4048C12.0323 13.3924 12.0318 13.3824 12.0178 13.3656C12.005 13.3502 12.0043 13.343 12.0155 13.343C12.0245 13.343 12.0319 13.3331 12.0319 13.321C12.0319 13.3089 12.0245 13.299 12.0155 13.299C12.0041 13.299 12.0046 13.2923 12.0172 13.2771C12.0318 13.2595 12.0318 13.255 12.0172 13.255C12.0038 13.255 12.0032 13.25 12.0151 13.2356C12.0269 13.2215 12.0266 13.2116 12.014 13.199C12.0007 13.1858 12.0013 13.1818 12.0161 13.1818C12.0317 13.1818 12.0319 13.1775 12.0172 13.1598C12.0027 13.1423 12.0027 13.1378 12.0172 13.1378C12.0291 13.1378 12.0309 13.1314 12.0224 13.1195C12.0065 13.0973 12.0065 12.9765 12.0223 12.9509C12.0285 12.9409 12.0276 12.9326 12.0202 12.9326C12.0127 12.9326 12.0066 12.9063 12.0066 12.874C12.0066 12.8417 12.0131 12.8154 12.0211 12.8154C12.0305 12.8154 12.0305 12.809 12.0212 12.7971C12.001 12.7712 11.9995 12.6102 12.0195 12.6102C12.0307 12.6102 12.0309 12.6047 12.0202 12.5917C12.0098 12.5793 12.0016 12.0375 11.9949 10.9246C11.9889 9.92254 11.9796 9.2694 11.9711 9.25901C11.9622 9.24817 11.9628 9.23856 11.9726 9.23252C11.981 9.22733 11.988 9.20733 11.988 9.18811C11.988 9.1689 11.981 9.1489 11.9726 9.14371C11.9622 9.13728 11.963 9.12715 11.9753 9.11241C11.9898 9.09495 11.9893 9.08793 11.9724 9.07709C11.9541 9.06534 11.9541 9.06177 11.9724 9.05002C11.9886 9.03957 11.9895 9.03178 11.9764 9.01593C11.9641 9.00113 11.9638 8.991 11.9753 8.97945C11.9842 8.97055 11.986 8.95503 11.9795 8.94439C11.9635 8.91855 11.9627 8.74033 11.9785 8.73053C11.9854 8.72631 11.9821 8.7165 11.9712 8.70884C11.9557 8.69793 11.9554 8.69326 11.9697 8.68748C11.9798 8.68333 11.9837 8.67287 11.9783 8.66417C11.9624 8.63827 11.96 8.52127 11.9754 8.52127C11.9833 8.52127 11.9845 8.51303 11.9782 8.50297C11.9584 8.47128 11.9575 8.36987 11.977 8.35747C11.9904 8.34896 11.9906 8.34578 11.9778 8.34565C11.9566 8.34539 11.9498 7.20941 11.971 7.19636C11.9782 7.19195 11.9885 7.15539 11.9938 7.11527C11.9991 7.07515 12.0091 7.03879 12.016 7.0345C12.023 7.03022 12.0328 7.00464 12.0378 6.97763C12.0429 6.95062 12.0634 6.91309 12.0835 6.89427C12.1035 6.8755 12.1199 6.85135 12.1199 6.84064C12.1199 6.82999 12.1276 6.82123 12.137 6.82123C12.1464 6.82123 12.1663 6.81025 12.1812 6.79681C12.2153 6.76585 12.3355 6.76279 12.3929 6.79136C12.4412 6.81545 12.5742 6.93796 12.5742 6.95841C12.5742 6.96594 12.5969 6.99983 12.6247 7.03366C12.6524 7.06755 12.6795 7.11274 12.6849 7.1341C12.6902 7.15546 12.7003 7.17299 12.7073 7.17299C12.7142 7.17299 12.7362 7.20863 12.7561 7.2522C12.7761 7.29576 12.7994 7.33582 12.8081 7.34114C12.8167 7.34647 12.8337 7.37185 12.8459 7.3975C12.8705 7.44924 12.8898 7.48216 12.9333 7.54702C12.9876 7.62817 13 7.64921 13.0086 7.67492C13.0134 7.68901 13.0232 7.70056 13.0306 7.70056C13.0379 7.70056 13.0503 7.71543 13.0582 7.73354C13.0788 7.78133 13.1021 7.81645 13.164 7.89371C13.1943 7.93144 13.2191 7.96727 13.2191 7.97338C13.2191 7.97948 13.2454 8.01577 13.2777 8.05401C13.3099 8.09225 13.3362 8.12803 13.3362 8.13361C13.3362 8.13913 13.3544 8.16497 13.3766 8.19094C13.3988 8.21691 13.4267 8.25346 13.4389 8.27216C13.451 8.29079 13.479 8.32734 13.5012 8.35331C13.5233 8.37928 13.5415 8.40688 13.5415 8.41454C13.5415 8.42226 13.5678 8.45219 13.6001 8.48115C13.6323 8.51011 13.6587 8.53952 13.6587 8.54653C13.6587 8.55354 13.6851 8.58503 13.7174 8.61652C13.7496 8.64801 13.7759 8.68235 13.7759 8.6928C13.7759 8.70326 13.7858 8.71183 13.7979 8.71183C13.81 8.71183 13.8199 8.7217 13.8199 8.73371C13.8199 8.76253 14.5897 9.53254 14.6184 9.53254C14.6306 9.53254 14.6406 9.54241 14.6406 9.55448C14.6406 9.56662 14.6481 9.57649 14.6573 9.57649C14.6722 9.57649 14.7278 9.62148 14.8485 9.73121C14.8702 9.75088 14.8937 9.76698 14.9007 9.76698C14.9078 9.76698 14.9325 9.78678 14.9557 9.811C14.9789 9.83515 15.0035 9.85495 15.0105 9.85495C15.0174 9.85495 15.0384 9.87144 15.057 9.89157C15.0757 9.91176 15.0975 9.92825 15.1054 9.92825C15.1132 9.92825 15.1317 9.94143 15.1463 9.95753C15.1608 9.97364 15.1788 9.98681 15.1862 9.98681C15.1936 9.98681 15.2309 10.0132 15.2691 10.0454C15.3074 10.0777 15.3442 10.1041 15.3509 10.1041C15.3576 10.1041 15.3912 10.1272 15.4256 10.1554C15.4601 10.1836 15.4924 10.2066 15.4974 10.2066C15.5058 10.2066 15.5913 10.2633 15.6079 10.2799C15.619 10.2911 15.6711 10.3229 15.6959 10.3337C15.7079 10.339 15.7376 10.3571 15.7618 10.3739C15.8134 10.4097 15.8686 10.4409 15.9596 10.4854C15.9959 10.5032 16.0362 10.5271 16.0491 10.5384C16.086 10.5709 16.6821 10.8661 16.7108 10.8662C16.7248 10.8662 16.7364 10.8728 16.7364 10.8808C16.7364 10.8889 16.7439 10.8955 16.7531 10.8955C16.7623 10.8955 16.7969 10.9081 16.83 10.9235C16.9417 10.9753 16.9972 10.9981 17.012 10.9981C17.0253 10.9981 17.0697 11.018 17.1956 11.0802C17.2185 11.0915 17.2629 11.1049 17.2945 11.1099C17.3261 11.1149 17.352 11.1248 17.352 11.1319C17.352 11.1389 17.3657 11.1446 17.3827 11.1446C17.3995 11.1446 17.4308 11.1542 17.4523 11.1658C17.4736 11.1773 17.5159 11.1908 17.5461 11.1957C17.5763 11.2006 17.6011 11.2109 17.6011 11.2186C17.6011 11.2263 17.6205 11.2326 17.6442 11.2326C17.6679 11.2326 17.6911 11.2388 17.6958 11.2464C17.7005 11.254 17.7338 11.2646 17.7699 11.27C17.806 11.2754 17.8356 11.2854 17.8356 11.2921C17.8356 11.2989 17.8752 11.3089 17.9238 11.3144C17.9724 11.3199 18.0155 11.3299 18.0197 11.3367C18.0239 11.3434 18.0602 11.3533 18.1003 11.3587C18.1405 11.364 18.1768 11.3741 18.1812 11.3811C18.1855 11.3881 18.2084 11.3938 18.2321 11.3938C18.2558 11.3938 18.2752 11.3996 18.2752 11.4068C18.2752 11.4139 18.3132 11.4244 18.3595 11.4302C18.4059 11.4359 18.4503 11.4456 18.4584 11.4518C18.4665 11.458 18.5153 11.4672 18.5668 11.4724C18.6184 11.4775 18.6678 11.4875 18.6767 11.4945C18.6856 11.5015 18.7424 11.512 18.8028 11.5177C18.8633 11.5235 18.9194 11.5336 18.9274 11.5401C18.9355 11.5467 18.9783 11.5542 19.0227 11.5567C19.067 11.5593 19.1099 11.566 19.1179 11.5716C19.126 11.5771 19.1985 11.5863 19.2791 11.5919C19.3597 11.5975 19.434 11.6088 19.444 11.617C19.4568 11.6274 19.4623 11.6264 19.4623 11.6136C19.4623 11.5999 19.4673 11.5995 19.4823 11.6119C19.4945 11.6221 19.6065 11.632 19.7717 11.6377C19.92 11.6427 20.0483 11.6524 20.057 11.6592C20.0659 11.6662 20.0801 11.6641 20.09 11.6543C20.1031 11.6411 20.1072 11.6416 20.1072 11.6565C20.1072 11.672 20.1115 11.6723 20.1292 11.6576C20.1467 11.643 20.1512 11.643 20.1512 11.6576C20.1512 11.6693 20.1577 11.6712 20.1695 11.6628C20.1918 11.6469 20.2253 11.647 20.2507 11.6629C20.2615 11.6697 20.2789 11.6671 20.291 11.6571C20.3028 11.6473 20.3124 11.6458 20.3124 11.6538C20.3124 11.6617 20.3387 11.6682 20.371 11.6682C20.4032 11.6682 20.4296 11.6617 20.4296 11.6538C20.4296 11.6458 20.4395 11.6476 20.4516 11.6576C20.4652 11.6689 20.4805 11.6708 20.4919 11.6627C20.514 11.6469 20.5911 11.6468 20.6165 11.6626C20.6267 11.669 20.6348 11.6672 20.6348 11.6584C20.6348 11.6498 20.6644 11.6429 20.7017 11.6429C20.7665 11.6429 20.7861 11.6842 20.7365 11.7163C20.7302 11.7205 20.7205 11.7419 20.715 11.764C20.7094 11.7861 20.6995 11.8041 20.693 11.8041C20.6864 11.8041 20.6769 11.8232 20.6718 11.8465C20.6667 11.8698 20.6299 11.9537 20.59 12.0329C20.5501 12.1122 20.5175 12.1821 20.5175 12.1883C20.5175 12.2096 20.4667 12.3171 20.4566 12.3171C20.4511 12.3171 20.4422 12.3369 20.4369 12.361C20.4316 12.3853 20.4217 12.4051 20.415 12.4051C20.4081 12.4051 20.3981 12.4254 20.3926 12.4504C20.3872 12.4754 20.357 12.5461 20.3256 12.6076C20.2941 12.669 20.2683 12.7261 20.2682 12.7344C20.2682 12.7427 20.2385 12.8088 20.2023 12.8812C20.1661 12.9537 20.1365 13.024 20.1365 13.0376C20.1365 13.0511 20.1314 13.0643 20.1252 13.067C20.1117 13.0728 20.0192 13.2596 20.0192 13.281C20.0192 13.2893 19.9869 13.3587 19.9474 13.4354C19.9079 13.5121 19.8712 13.5952 19.8656 13.6201C19.8602 13.6451 19.8504 13.6654 19.8438 13.6654C19.8373 13.6654 19.8275 13.6832 19.822 13.7048C19.8166 13.7265 19.7993 13.7621 19.7838 13.7841C19.7682 13.8059 19.7553 13.8327 19.7552 13.8435C19.755 13.8544 19.7254 13.9226 19.6893 13.9952C19.6533 14.0677 19.6237 14.132 19.6237 14.138C19.6235 14.1591 19.5725 14.2663 19.5626 14.2663C19.5571 14.2663 19.5482 14.286 19.543 14.3103C19.5376 14.3344 19.5272 14.3542 19.5198 14.3542C19.5124 14.3542 19.5063 14.3699 19.5063 14.3891C19.5063 14.4082 19.4964 14.4321 19.4843 14.4422C19.4723 14.4522 19.4623 14.4699 19.4623 14.4814C19.4623 14.4929 19.4425 14.538 19.4184 14.5814C19.3942 14.6248 19.3744 14.6688 19.3744 14.679C19.3744 14.7023 19.2537 14.9461 19.2389 14.9527C19.2328 14.9554 19.2278 14.9698 19.2278 14.9848C19.2278 14.9997 19.2048 15.0569 19.1766 15.1118C19.1485 15.1667 19.1254 15.2191 19.1253 15.2284C19.1253 15.2376 19.0929 15.308 19.0534 15.3846C19.014 15.4612 18.9771 15.5444 18.9717 15.5693C18.9662 15.5942 18.9564 15.6146 18.9498 15.6146C18.9433 15.6146 18.9335 15.6323 18.928 15.654C18.9226 15.6757 18.9054 15.7113 18.8898 15.7332C18.8742 15.7551 18.8614 15.7817 18.8614 15.7922C18.8614 15.8028 18.8327 15.871 18.7976 15.9438C18.7089 16.1276 18.6856 16.1807 18.6856 16.1994C18.6856 16.2083 18.6795 16.2155 18.6721 16.2155C18.6647 16.2155 18.6543 16.2353 18.649 16.2594C18.6436 16.2836 18.6338 16.3034 18.6269 16.3034C18.6202 16.3034 18.6103 16.3233 18.6049 16.3477C18.5996 16.372 18.5734 16.4337 18.5468 16.4848C18.5201 16.5359 18.4938 16.5935 18.4881 16.6128C18.4727 16.6655 18.3589 16.8963 18.3455 16.9019C18.3391 16.9046 18.3339 16.9194 18.3339 16.9349C18.3339 16.9504 18.3206 16.9876 18.3045 17.0177C18.2884 17.0478 18.2752 17.0808 18.2752 17.091C18.2752 17.1012 18.2691 17.1095 18.2617 17.1095C18.2543 17.1095 18.244 17.1288 18.2388 17.1525C18.2336 17.1761 18.1968 17.2591 18.157 17.337C18.1173 17.415 18.0847 17.4863 18.0846 17.4956C18.0846 17.5049 18.0757 17.529 18.0648 17.5492C18.0539 17.5693 18.0285 17.6164 18.0082 17.6539C17.988 17.6913 17.9671 17.7391 17.9619 17.7602C17.9565 17.7811 17.9458 17.7983 17.9379 17.7983C17.93 17.7983 17.9235 17.8118 17.9235 17.8284C17.9235 17.845 17.9037 17.8941 17.8795 17.9375C17.8553 17.981 17.8356 18.0301 17.8356 18.0467C17.8356 18.0632 17.8295 18.0767 17.8221 18.0767C17.8147 18.0767 17.8042 18.0965 17.7989 18.1208C17.7936 18.1449 17.7832 18.1647 17.7758 18.1647C17.7684 18.1647 17.7623 18.1722 17.7623 18.1814C17.7623 18.1988 17.7463 18.235 17.6463 18.4437C17.6134 18.5125 17.5864 18.5751 17.5864 18.5827C17.5864 18.6001 17.5097 18.7556 17.4962 18.7657C17.4906 18.7699 17.4816 18.7913 17.4761 18.8134C17.4705 18.8354 17.4601 18.8535 17.4529 18.8535C17.4457 18.8535 17.4399 18.8667 17.4399 18.8829C17.4399 18.899 17.4267 18.9369 17.4105 18.9669C17.3944 18.997 17.3812 19.03 17.3812 19.0401C17.3812 19.0503 17.3763 19.0587 17.3703 19.0588C17.3581 19.0589 17.3227 19.1288 17.3224 19.1532C17.3223 19.1617 17.2935 19.2254 17.2585 19.2949C17.2235 19.3644 17.1902 19.4398 17.1845 19.4625C17.1788 19.4853 17.1598 19.5239 17.1424 19.5484C17.1048 19.6012 17.0943 19.8622 17.1284 19.8962C17.1385 19.9063 17.1467 19.9275 17.1467 19.9432C17.1467 19.959 17.1632 19.9935 17.1834 20.0199C17.2035 20.0463 17.22 20.074 17.22 20.0813C17.22 20.1064 17.3079 20.1734 17.3703 20.196C17.3844 20.2011 17.3959 20.2094 17.3959 20.2146C17.3959 20.2198 17.4173 20.2339 17.4435 20.2459C17.5451 20.2926 17.9528 20.2662 17.9528 20.2129C17.9528 20.2068 17.9684 20.2018 17.9874 20.2018C18.0065 20.2018 18.0389 20.1887 18.0594 20.1725C18.0799 20.1564 18.1046 20.1432 18.1143 20.1432C18.1474 20.1432 18.3894 19.8825 18.3997 19.8359C18.4051 19.8115 18.415 19.7915 18.4218 19.7915C18.4285 19.7915 18.4385 19.7717 18.4438 19.7475C18.449 19.7233 18.4595 19.7035 18.4669 19.7035C18.4743 19.7035 18.4804 19.6952 18.4804 19.685C18.4804 19.6748 18.4936 19.6419 18.5097 19.6118C18.5259 19.5817 18.539 19.5482 18.539 19.5373C18.539 19.5264 18.5522 19.5056 18.5683 19.491C18.5845 19.4764 18.5977 19.4538 18.5977 19.4407C18.5977 19.4277 18.6471 19.3182 18.7076 19.1975C18.768 19.0768 18.8174 18.9716 18.8175 18.9637C18.8175 18.9459 18.894 18.7904 18.9078 18.7801C18.9133 18.776 18.9223 18.7545 18.9278 18.7325C18.9334 18.7104 18.9438 18.6923 18.951 18.6923C18.9582 18.6923 18.964 18.6849 18.964 18.6758C18.964 18.6598 19.0409 18.4881 19.0682 18.4432C19.0755 18.4311 19.0854 18.4113 19.0901 18.3992C19.0949 18.3871 19.1278 18.3171 19.1633 18.2437C19.1988 18.1702 19.2278 18.1032 19.2278 18.0947C19.2278 18.0861 19.2328 18.077 19.2389 18.0743C19.2524 18.0683 19.3305 17.9135 19.3305 17.8925C19.3305 17.8842 19.3799 17.7798 19.4404 17.6605C19.5008 17.5413 19.5503 17.4342 19.5503 17.4226C19.5503 17.4109 19.5635 17.3872 19.5796 17.3699C19.5957 17.3526 19.6089 17.3298 19.6089 17.3192C19.6089 17.3086 19.6221 17.2753 19.6382 17.2452C19.6543 17.2151 19.6675 17.1822 19.6675 17.172C19.6675 17.1618 19.6736 17.1534 19.681 17.1534C19.6885 17.1534 19.6988 17.1337 19.7042 17.1095C19.7095 17.0853 19.7192 17.0655 19.7257 17.0655C19.7323 17.0655 19.7421 17.0478 19.7475 17.0261C19.7529 17.0044 19.7701 16.9688 19.7857 16.9469C19.8013 16.925 19.8141 16.8974 19.8141 16.8855C19.8141 16.8736 19.824 16.8557 19.836 16.8457C19.8482 16.8356 19.858 16.8159 19.858 16.8018C19.858 16.7878 19.9075 16.6786 19.968 16.5594C20.0284 16.4402 20.0779 16.3315 20.0779 16.3179C20.0779 16.3044 20.0904 16.282 20.1057 16.2681C20.121 16.2542 20.1379 16.2202 20.1431 16.1926C20.1483 16.1649 20.1583 16.1422 20.1653 16.1422C20.1723 16.1422 20.1825 16.1224 20.1878 16.0982C20.1931 16.0741 20.2035 16.0543 20.211 16.0543C20.2184 16.0543 20.2244 16.0469 20.2244 16.0378C20.2244 16.0179 20.3145 15.8303 20.3291 15.8196C20.3347 15.8155 20.3441 15.7932 20.3499 15.77C20.3558 15.7468 20.4124 15.6251 20.4757 15.4996C20.539 15.3741 20.5908 15.2637 20.5908 15.2543C20.5908 15.2449 20.6007 15.2289 20.6128 15.2189C20.6249 15.2089 20.6348 15.185 20.6348 15.1658C20.6348 15.1467 20.6408 15.131 20.6483 15.131C20.6557 15.131 20.6661 15.1112 20.6714 15.087C20.6767 15.0628 20.6871 15.0431 20.6946 15.0431C20.702 15.0431 20.7082 15.0348 20.7082 15.0247C20.7084 15.0083 20.7471 14.9282 20.8159 14.8012C20.8291 14.7771 20.8398 14.749 20.8399 14.739C20.8399 14.7288 20.8466 14.7206 20.8546 14.7206C20.8627 14.7206 20.8693 14.7078 20.8693 14.6922C20.8693 14.6766 20.8924 14.6189 20.9205 14.564C20.9486 14.5091 20.9718 14.4565 20.9718 14.4471C20.9718 14.4376 20.9769 14.4278 20.9831 14.4251C20.9992 14.4181 21.0891 14.2305 21.0891 14.204C21.0891 14.1918 21.099 14.1737 21.1111 14.1637C21.1232 14.1537 21.1331 14.138 21.1331 14.1289C21.1331 14.1198 21.1826 14.0141 21.243 13.894C21.3035 13.7739 21.3529 13.6676 21.3529 13.6577C21.3529 13.6478 21.3621 13.6321 21.3734 13.6227C21.3846 13.6134 21.3981 13.5829 21.4033 13.555C21.4086 13.527 21.4186 13.5042 21.4257 13.5042C21.4327 13.5042 21.4428 13.4844 21.4482 13.4602C21.4535 13.4361 21.4639 13.4163 21.4713 13.4163C21.4788 13.4163 21.4849 13.408 21.4849 13.3979C21.485 13.3879 21.4958 13.3598 21.5089 13.3357C21.5822 13.2004 21.6164 13.1279 21.6165 13.1066C21.6166 13.0935 21.6266 13.0746 21.6387 13.0646C21.6508 13.0545 21.6607 13.0387 21.6607 13.0295C21.6607 13.0202 21.7135 12.9078 21.7779 12.7797C21.8424 12.6515 21.8952 12.5346 21.8952 12.5198C21.8952 12.505 21.9012 12.493 21.9087 12.493C21.9161 12.493 21.9265 12.4732 21.9318 12.449C21.9371 12.4248 21.9469 12.4051 21.9533 12.4051C21.9599 12.4051 21.9697 12.3873 21.9752 12.3656C21.9806 12.344 21.9974 12.3089 22.0124 12.2878C22.0275 12.2666 22.0442 12.2316 22.0497 12.21C22.0551 12.1883 22.0649 12.1706 22.0714 12.1706C22.078 12.1706 22.0877 12.1507 22.093 12.1266C22.0983 12.1024 22.1088 12.0826 22.1162 12.0826C22.1236 12.0826 22.1297 12.0669 22.1297 12.0478C22.1297 12.0286 22.1396 12.0047 22.1516 11.9947C22.1638 11.9846 22.1736 11.9684 22.1736 11.9587C22.1736 11.949 22.226 11.8368 22.2901 11.7095C22.3542 11.5821 22.4108 11.459 22.4159 11.4359C22.4209 11.4128 22.4312 11.3938 22.4386 11.3938C22.446 11.3938 22.4521 11.3863 22.4521 11.3772C22.4521 11.3574 22.5421 11.1697 22.5567 11.1592C22.5624 11.1551 22.5716 11.1336 22.5771 11.1115C22.5826 11.0894 22.5927 11.0714 22.5995 11.0714C22.6064 11.0714 22.6162 11.0485 22.6215 11.0206C22.6267 10.9927 22.6403 10.9622 22.6515 10.9528C22.6627 10.9435 22.6719 10.9239 22.6719 10.9092C22.6719 10.8946 22.6778 10.8789 22.685 10.8745C22.6921 10.8701 22.7025 10.8483 22.7081 10.8262C22.7137 10.804 22.7228 10.7825 22.7284 10.7784C22.7455 10.7658 22.8771 10.4907 22.8771 10.4675C22.8771 10.4555 22.8903 10.4338 22.9064 10.4192C22.9225 10.4046 22.9358 10.3821 22.9359 10.3693C22.936 10.3564 22.9854 10.2477 23.0458 10.1278C23.1061 10.0079 23.1556 9.89813 23.1556 9.88391C23.1556 9.86969 23.1654 9.8543 23.1776 9.84963C23.1896 9.84502 23.1995 9.82509 23.1995 9.80535C23.1995 9.78561 23.2045 9.76724 23.2107 9.76458C23.2248 9.75835 23.3607 9.48365 23.3607 9.46125C23.3607 9.4521 23.3673 9.44457 23.3754 9.44457C23.3834 9.44457 23.3901 9.43736 23.3901 9.42846C23.3901 9.40665 23.4179 9.34549 23.5532 9.07086C23.6167 8.94192 23.6687 8.82895 23.6686 8.81986C23.6685 8.81077 23.6776 8.79577 23.6887 8.78656C23.6998 8.77734 23.713 8.74955 23.7179 8.72488C23.7229 8.70021 23.7397 8.66203 23.7553 8.64009C23.771 8.61808 23.7882 8.58237 23.7937 8.56068C23.7992 8.539 23.809 8.52127 23.8155 8.52127C23.822 8.52127 23.8317 8.50147 23.8371 8.47732C23.8423 8.4531 23.8528 8.43337 23.8602 8.43337C23.8676 8.43337 23.8737 8.42584 23.8737 8.41662C23.8737 8.39987 23.9041 8.33046 23.9732 8.18951C24.0311 8.07135 23.9901 7.87287 23.8999 7.83489C23.8936 7.83223 23.8884 7.82269 23.8884 7.81373C23.8884 7.791 23.8136 7.71524 23.791 7.71524C23.7809 7.71524 23.7673 7.70608 23.7608 7.69492C23.7454 7.6681 23.5363 7.55942 23.4749 7.5463C23.4484 7.54059 23.4184 7.52936 23.4084 7.52124C23.3955 7.51085 23.3901 7.51222 23.3901 7.52585C23.3901 7.54091 23.3862 7.5413 23.3725 7.5276C23.3512 7.50637 23.2196 7.50404 23.2068 7.52468C23.2018 7.53273 23.1789 7.53936 23.1557 7.53936C23.1098 7.53936 22.9779 7.65414 22.9504 7.71796C22.9355 7.75263 22.9049 7.8047 22.8918 7.81782C22.8788 7.8308 22.8481 7.88281 22.8335 7.91676C22.8256 7.93488 22.8132 7.94974 22.8059 7.94974C22.7986 7.94974 22.7884 7.96124 22.7833 7.97539C22.7719 8.00701 22.7488 8.04512 22.7012 8.11095C22.6542 8.17594 22.6307 8.2147 22.6194 8.24547C22.6145 8.25904 22.6012 8.27365 22.5899 8.278C22.5786 8.28235 22.5694 8.29482 22.5694 8.30579C22.5694 8.3167 22.5529 8.34111 22.5327 8.36007C22.5125 8.37902 22.4961 8.40084 22.4961 8.40857C22.4961 8.41629 22.4796 8.43791 22.4594 8.45661C22.4392 8.47531 22.4228 8.49628 22.4228 8.50316C22.4228 8.51011 22.403 8.53478 22.3788 8.55789C22.3546 8.58107 22.3348 8.60704 22.3347 8.61561C22.3347 8.62418 22.2819 8.68832 22.2175 8.75812C22.1531 8.82791 22.1003 8.89225 22.1003 8.90102C22.1003 8.90978 22.0905 8.91699 22.0784 8.91699C22.0663 8.91699 22.0564 8.92536 22.0564 8.93556C22.0564 8.95945 21.7613 9.25408 21.7373 9.25408C21.7274 9.25408 21.7193 9.26395 21.7193 9.27602C21.7193 9.28816 21.712 9.29803 21.7031 9.29803C21.6942 9.29803 21.6325 9.3475 21.5659 9.40795C21.4993 9.46839 21.4384 9.51787 21.4304 9.51787C21.4225 9.51787 21.4042 9.53104 21.3895 9.54715C21.3749 9.56331 21.3566 9.57649 21.3486 9.57649C21.3408 9.57649 21.3199 9.59136 21.3024 9.60947C21.2649 9.6481 21.2239 9.67648 21.188 9.68855C21.1739 9.69329 21.1624 9.70147 21.1624 9.7068C21.1624 9.71205 21.1376 9.72926 21.1074 9.74497C21.0772 9.76068 21.0327 9.78808 21.0085 9.80581C20.9844 9.82353 20.9464 9.84255 20.9242 9.84807C20.9021 9.85359 20.8839 9.86346 20.8839 9.87002C20.8839 9.87657 20.8642 9.88625 20.84 9.89157C20.8158 9.89689 20.796 9.90728 20.796 9.91475C20.796 9.92215 20.7885 9.92825 20.7793 9.92825C20.7701 9.92825 20.7322 9.94234 20.695 9.95955C20.5344 10.0341 20.5079 10.0451 20.4672 10.0546C20.4436 10.0601 20.4073 10.0735 20.3866 10.0843C20.3659 10.0951 20.3309 10.1039 20.3087 10.104C20.2865 10.1041 20.2684 10.1102 20.2684 10.1177C20.2684 10.1252 20.2304 10.1359 20.1842 10.1415C20.1378 10.1471 20.0931 10.157 20.085 10.1635C20.0768 10.17 20.0437 10.1777 20.0114 10.1807C19.9791 10.1837 19.9455 10.1905 19.9369 10.1959C19.9282 10.2013 19.8525 10.21 19.7686 10.2153C19.6848 10.2206 19.608 10.2315 19.5979 10.2396C19.5856 10.2494 19.5796 10.2492 19.5796 10.239C19.5796 10.2224 19.4634 10.2246 19.4354 10.2418C19.426 10.2476 19.4184 10.2446 19.4184 10.2351C19.4184 10.2222 19.4128 10.2224 19.3964 10.236C19.3843 10.2461 19.3744 10.248 19.3744 10.2404C19.3744 10.2328 19.3299 10.2255 19.2755 10.2242C19.1354 10.2209 18.9594 10.2053 18.9421 10.1947C18.934 10.1898 18.8944 10.1832 18.8541 10.1802C18.8138 10.1772 18.7741 10.1691 18.7658 10.1623C18.7576 10.1555 18.7162 10.1454 18.6739 10.1397C18.6316 10.1341 18.5937 10.1242 18.5897 10.1176C18.5856 10.1111 18.5511 10.1013 18.5131 10.0958C18.475 10.0902 18.4372 10.0808 18.4291 10.0746C18.4211 10.0685 18.3916 10.0586 18.3637 10.0526C18.3357 10.0466 18.3027 10.0365 18.2904 10.0302C18.236 10.0022 18.1593 9.97214 18.1411 9.97175C18.1303 9.97149 18.1085 9.96156 18.0929 9.94974C18.0772 9.93793 18.0492 9.92825 18.0306 9.92825C18.012 9.92825 17.9968 9.92163 17.9968 9.91358C17.9968 9.90553 17.9893 9.89891 17.9802 9.89891C17.9639 9.89891 17.7901 9.82087 17.7476 9.79451C17.7355 9.78698 17.7141 9.77691 17.7 9.77217C17.6859 9.7675 17.6744 9.75776 17.6744 9.75062C17.6744 9.74354 17.6674 9.7377 17.6588 9.7377C17.6352 9.7377 17.4856 9.6646 17.4754 9.64804C17.4704 9.63999 17.4308 9.61713 17.3872 9.5972C17.3436 9.57727 17.3079 9.55533 17.3079 9.54844C17.3079 9.54156 17.2964 9.53208 17.2823 9.52734C17.2515 9.51696 17.2161 9.49475 17.1447 9.44093C17.1153 9.41873 17.0863 9.40061 17.0802 9.40061C17.0741 9.40061 17.0391 9.37588 17.0023 9.34569C16.9375 9.29238 16.8993 9.26654 16.8537 9.24473C16.8415 9.23895 16.8171 9.21895 16.7994 9.20019C16.7816 9.18149 16.7614 9.1661 16.7545 9.1661C16.7476 9.1661 16.7229 9.14637 16.6997 9.12215C16.6766 9.098 16.6514 9.0782 16.6438 9.0782C16.6361 9.0782 16.6156 9.06333 16.5982 9.04522C16.5446 8.98938 16.4169 8.88764 16.4004 8.88764C16.3917 8.88764 16.3846 8.87764 16.3846 8.86531C16.3846 8.85304 16.3682 8.83674 16.3482 8.82915C16.3003 8.8109 15.4467 7.95825 15.4467 7.92858C15.4467 7.91605 15.4368 7.90573 15.4247 7.90573C15.4126 7.90573 15.4027 7.89813 15.4027 7.88884C15.4027 7.87359 15.3503 7.81191 15.2034 7.65447C15.176 7.62506 15.1535 7.59506 15.1535 7.58779C15.1535 7.58058 15.1272 7.54884 15.095 7.51735C15.0627 7.48586 15.0364 7.45398 15.0364 7.44645C15.0364 7.43892 15.0199 7.41749 14.9997 7.39886C14.9795 7.38016 14.9631 7.35919 14.9631 7.35224C14.9631 7.34536 14.9433 7.32069 14.9191 7.29751C14.8949 7.2744 14.8751 7.24927 14.8751 7.24181C14.8751 7.23434 14.8418 7.18974 14.801 7.14267C14.7602 7.09566 14.7263 7.0519 14.7257 7.04548C14.725 7.03898 14.7023 7.00665 14.6752 6.9736C14.6482 6.94056 14.626 6.90706 14.626 6.8992C14.626 6.89134 14.6095 6.86947 14.5894 6.85051C14.5692 6.83161 14.5527 6.80811 14.5527 6.79824C14.5527 6.78844 14.5428 6.77662 14.5307 6.77195C14.5187 6.76734 14.5087 6.75455 14.5087 6.74364C14.5087 6.73267 14.4922 6.70826 14.4721 6.6893C14.4519 6.67041 14.4355 6.64651 14.4355 6.63619C14.4355 6.62593 14.4272 6.61223 14.4171 6.60581C14.3984 6.5938 14.3696 6.55283 14.3523 6.51348C14.347 6.50134 14.3239 6.46745 14.3011 6.43804C14.2783 6.4087 14.2596 6.38 14.2596 6.37422C14.2596 6.36851 14.243 6.34306 14.2227 6.31774C14.2025 6.29235 14.1802 6.26456 14.1733 6.25586C14.1662 6.24716 14.1556 6.22412 14.1495 6.20457C14.1434 6.18503 14.1343 6.16575 14.1294 6.16172C14.1137 6.14893 14.0544 6.06077 14.0544 6.05012C14.0544 6.04453 14.0394 6.01954 14.0211 5.99454C14.0027 5.96961 13.9748 5.92449 13.9591 5.89423C13.9434 5.86404 13.9261 5.83931 13.9208 5.83931C13.9154 5.83931 13.9065 5.82158 13.9012 5.79983C13.8957 5.77815 13.8794 5.75017 13.865 5.73757C13.8506 5.72504 13.8336 5.69823 13.8273 5.6781C13.821 5.65791 13.8038 5.6259 13.7889 5.60688C13.7741 5.58792 13.7436 5.53605 13.7213 5.49164C13.6562 5.36218 13.6523 5.35569 13.6405 5.35569C13.6344 5.35569 13.6293 5.34744 13.6292 5.33731C13.629 5.31647 13.5497 5.15604 13.5247 5.12592C13.4938 5.08872 13.2923 4.67508 13.2923 4.64892C13.2923 4.63457 13.2862 4.62288 13.2787 4.62288C13.2711 4.62288 13.2607 4.60801 13.2555 4.5899C13.2431 4.54731 13.1711 4.39798 13.158 4.38825C13.1526 4.38416 13.1432 4.36104 13.1371 4.33696C13.1311 4.31287 13.1108 4.26411 13.092 4.22866C13.0732 4.19321 13.0578 4.15861 13.0578 4.15179C13.0578 4.12842 13.0069 4.02201 12.9957 4.02201C12.9895 4.02201 12.9845 4.00675 12.9845 3.98818C12.9845 3.96955 12.9749 3.9415 12.963 3.92585C12.9512 3.91021 12.9412 3.88755 12.9409 3.87547C12.9407 3.86333 12.9312 3.83574 12.9199 3.81412C12.9086 3.7925 12.8948 3.75413 12.8893 3.72887C12.8837 3.70362 12.87 3.66525 12.8587 3.64363C12.8474 3.62201 12.8381 3.59597 12.8381 3.58578C12.838 3.56728 12.8089 3.50826 12.793 3.49436C12.7883 3.49034 12.7798 3.47716 12.7741 3.46508C12.7578 3.43113 12.7298 3.38562 12.7106 3.36198C12.6469 3.28349 12.5684 3.2013 12.557 3.2013C12.5496 3.2013 12.529 3.18571 12.5112 3.16669C12.4935 3.14767 12.4624 3.12696 12.4423 3.12072C12.4221 3.11449 12.4024 3.10534 12.3983 3.1004C12.3854 3.08443 12.326 3.05476 12.3069 3.05463C12.2967 3.05457 12.2687 3.04424 12.2446 3.03171C12.1999 3.00841 11.8619 2.99036 11.7572 3.00568Z" fill="url(#paint0_linear_1679_1105)"/>
<defs>
<linearGradient id="paint0_linear_1679_1105" x1="12" y1="3" x2="12" y2="20.4708" gradientUnits="userSpaceOnUse">
<stop stop-color="#7640E0"/>
<stop offset="1" stop-color="#450CBA"/>
</linearGradient>
</defs>
</svg>
