<svg width="24" height="24" viewBox="0 0 24 24" fill="none" xmlns="http://www.w3.org/2000/svg">
<path d="M19.8587 13.375C19.8587 13.375 21.1624 17.2768 21.4681 18.0106C21.7739 18.7444 21.947 18.9376 22.2117 18.8056C22.4763 18.6735 22.1911 18.2352 22.5375 18.1637C22.8838 18.0923 22.9044 19.5897 22.0179 19.4165C21.1315 19.2434 20.9178 19.1005 20.9178 19.1005C20.9178 19.1005 21.315 19.6503 20.5508 19.5794C19.7867 19.5085 19.8987 19.5388 19.3284 19.6303C18.758 19.7217 18.758 19.6812 18.2688 19.5794C17.7796 19.4777 17.8001 19.4165 16.9343 19.0805C16.0684 18.7444 14.8438 17.8071 14.8438 17.8071L19.8582 13.375H19.8587Z" fill="#744C40"/>
<path d="M11.5622 17.3984C11.5622 17.3984 11.8831 18.4835 11.7305 18.7275C11.5779 18.9716 11.1958 19.0024 11.1958 19.0024C11.1958 19.0024 8.99545 19.1707 8.32332 19.6746C7.6512 20.1784 7.19283 21.6152 7.02453 22.211C6.85623 22.8068 6.90223 23.999 6.90223 23.999H19.8593C19.8593 23.999 19.3701 21.4777 18.8505 20.4847C18.331 19.4917 17.4603 19.1556 16.7422 19.0333C16.0241 18.911 15.1376 19.0636 15.0462 18.7735C14.9547 18.4835 14.985 17.4747 14.985 17.4747L11.5622 17.3984Z" fill="#C8C3A5"/>
<path d="M11.1959 19.0032C11.3642 19.2478 11.5573 20.7706 13.5034 20.6992C15.4494 20.6278 15.3471 19.6905 15.3574 19.4464C15.3677 19.2023 15.1539 18.876 15.9586 18.8863C16.7633 18.8966 16.9571 19.0189 16.9673 19.3144C16.9717 19.4394 17.2477 20.6045 17.2931 21.5997C17.3554 22.9602 17.3072 24 17.3072 24L9.71902 23.9473C9.71902 23.9473 10.1016 22.4823 9.99988 21.3724C9.89814 20.2625 9.31748 19.1315 9.63297 19.0395C9.94847 18.9475 11.0281 18.7586 11.1959 19.0032Z" fill="#E9E9E9"/>
<path d="M2.1554 11.553L1.56445 13.407L2.74635 15.7908L7.67688 17.0333L9.99955 17.1962C9.99955 17.1962 12.3017 18.317 14.4815 17.9295C16.6613 17.542 18.597 16.707 19.8395 14.0586C21.082 11.4101 20.4304 6.80592 20.4304 6.80592L20.1858 4.99248L15.3982 3.52539L9.75494 3.70884L5.45595 7.11113L2.1554 11.5525V11.553Z" fill="#D8D5B6"/>
<path d="M8.47543 10.0197C8.47543 10.0197 8.12422 9.91259 8.64373 9.07216C9.16325 8.23174 9.68276 8.18574 10.172 8.20143C10.6612 8.21713 11.8507 8.6138 11.829 8.7821C11.8074 8.9504 11.4199 8.97584 11.1655 8.87356C10.9112 8.77128 10.0502 8.33348 9.46414 8.78697C8.87806 9.24047 8.63886 10.1063 8.47597 10.0197H8.47543Z" fill="#060405"/>
<path d="M16.8494 7.80291C16.8494 7.80291 17.4404 7.51285 18.2142 7.66546C18.9881 7.81807 19.5385 8.38845 19.5742 8.55188C19.6099 8.71531 19.4519 8.74562 19.2073 8.55188C18.9627 8.35815 18.4583 8.04752 17.8268 8.06267C17.1952 8.07783 16.7931 8.23097 16.6449 8.08324C16.4966 7.9355 16.8483 7.80291 16.8483 7.80291H16.8494Z" fill="#090606"/>
<path opacity="0.9" d="M12.7325 12.1077C12.7325 12.1077 13.9712 11.7819 15.3512 11.6926C16.7311 11.6033 18.6425 11.9177 18.715 12.5942C18.8498 13.847 17.9639 13.3431 15.5952 13.6944C13.2266 14.0456 11.2253 15.7226 10.9807 14.1354C10.7361 12.5482 12.7319 12.1077 12.7319 12.1077H12.7325Z" fill="#E3C6B6"/>
<path d="M15.8714 15.5125H14.6029C14.5732 15.5125 14.5488 15.4882 14.5488 15.4584C14.5488 15.4286 14.5732 15.4043 14.6029 15.4043H15.8714C15.9012 15.4043 15.9255 15.4286 15.9255 15.4584C15.9255 15.4882 15.9012 15.5125 15.8714 15.5125Z" fill="#060405"/>
<path d="M16.8297 9.16259C16.8297 9.16259 17.2458 8.67338 17.9412 8.62035C18.6366 8.56731 19.1253 8.94126 19.1253 9.07871C19.1253 9.21617 19.0181 9.05057 18.6745 8.91961C18.3309 8.78865 17.7691 8.73994 17.4753 8.91961C17.1517 9.11713 16.8897 9.32548 16.8897 9.32548C16.8897 9.32548 16.4801 9.59823 16.8297 9.16259Z" fill="#060405"/>
<path d="M9.43883 10.2278C9.43883 10.2278 10.0601 9.77974 10.9314 9.64228C11.8026 9.50483 12.2556 9.66285 12.2507 9.82574C12.2458 9.98863 12.1284 9.82574 11.3237 9.85117C10.519 9.87661 10.0552 10.0958 9.8263 10.2635C9.59739 10.4313 9.3425 10.5742 9.30192 10.4416C9.26133 10.309 9.43937 10.2278 9.43937 10.2278H9.43883Z" fill="#060405"/>
<path d="M19.126 9.77539L19.5005 10.5244C19.5005 10.5244 19.4929 11.6933 19.126 12.3124C18.7591 12.9314 18.515 13.2442 18.515 13.2442L17.9316 13.1447C17.9316 13.1447 18.2093 11.6321 18.2093 11.6013C18.2093 11.5704 19.126 9.77539 19.126 9.77539Z" fill="white"/>
<path d="M19.1867 9.70854C19.1867 9.70854 19.1152 11.6134 18.8506 12.1632C18.586 12.7131 18.2088 13.1817 18.2088 13.1817C18.2088 13.1817 17.7905 13.0426 17.659 12.9782C17.4945 12.8976 17.1692 12.7179 17.0377 12.5913C16.9311 12.4885 16.7368 12.2525 16.6892 12.1124C16.6129 11.8873 16.5907 11.4008 16.6102 11.1637C16.6297 10.9267 16.6724 10.477 16.7628 10.2686C16.8148 10.148 16.9879 9.94448 17.068 9.84004C17.1481 9.7356 17.2747 9.49694 17.3743 9.41036C17.5269 9.27777 17.8949 9.07267 18.0951 9.04615C18.218 9.02992 18.4756 9.05265 18.5865 9.10731C18.7132 9.16954 18.9226 9.36706 19.0146 9.47421C19.0622 9.52941 19.1877 9.70854 19.1877 9.70854H19.1867Z" fill="#5A617E"/>
<path d="M18.7331 9.28919C18.7331 9.28919 18.889 10.385 18.606 11.2634C18.3235 12.1422 17.9414 12.3635 17.6817 12.1725C17.4219 11.9815 17.1697 11.2558 17.1394 10.8353C17.1091 10.4148 17.0382 9.97647 17.1394 9.71996C17.2027 9.55977 17.4446 9.37957 17.5978 9.30002C17.7509 9.22047 18.1043 9.15607 18.2775 9.16256C18.3954 9.16689 18.7331 9.28919 18.7331 9.28919Z" fill="#1B1B1B"/>
<path d="M17.7259 10.5834C17.9375 10.5834 18.1091 10.3208 18.1091 9.99678C18.1091 9.67279 17.9375 9.41016 17.7259 9.41016C17.5143 9.41016 17.3428 9.67279 17.3428 9.99678C17.3428 10.3208 17.5143 10.5834 17.7259 10.5834Z" fill="white"/>
<path d="M17.7257 10.6924C17.4503 10.6924 17.2344 10.3872 17.2344 9.99759C17.2344 9.60795 17.4503 9.30273 17.7257 9.30273C18.0012 9.30273 18.2171 9.60795 18.2171 9.99759C18.2171 10.3872 18.0012 10.6924 17.7257 10.6924ZM17.7257 9.5192C17.5791 9.5192 17.4508 9.7427 17.4508 9.99759C17.4508 10.2525 17.5791 10.476 17.7257 10.476C17.8724 10.476 18.0007 10.2525 18.0007 9.99759C18.0007 9.7427 17.8724 9.5192 17.7257 9.5192Z" fill="#060405"/>
<path d="M8.58203 12.1535C8.58203 12.1535 8.71462 13.0907 9.33587 13.6611C9.95712 14.2315 10.5075 14.3841 10.5075 14.3841L11.6093 14.0075L9.70278 12.1535L9.11021 11.6074L8.58257 12.1535H8.58203Z" fill="white"/>
<path d="M18.4234 12.4844C18.5389 12.4689 18.6132 12.3127 18.5894 12.1356C18.5656 11.9584 18.4526 11.8274 18.3371 11.843C18.2216 11.8585 18.1472 12.0147 18.1711 12.1918C18.1949 12.369 18.3079 12.5 18.4234 12.4844Z" fill="white"/>
<path d="M18.406 12.5659C18.333 12.5659 18.2599 12.5291 18.202 12.4625C18.1441 12.3954 18.1046 12.3029 18.0911 12.2017C18.0775 12.1005 18.0911 12.0009 18.1289 11.9208C18.1717 11.8305 18.2442 11.7726 18.327 11.7617C18.4894 11.7401 18.6403 11.8992 18.6706 12.1238C18.6842 12.225 18.6706 12.3245 18.6328 12.4046C18.59 12.495 18.5175 12.5529 18.4347 12.5637C18.425 12.5648 18.4152 12.5659 18.4055 12.5659H18.406ZM18.3562 11.9219C18.3562 11.9219 18.3514 11.9219 18.3486 11.9219C18.321 11.9257 18.2945 11.9506 18.2756 11.9901C18.2512 12.041 18.2426 12.1102 18.2518 12.1795C18.261 12.2488 18.2875 12.3132 18.3248 12.3559C18.3535 12.3895 18.386 12.4063 18.413 12.4025C18.4406 12.3987 18.4672 12.3738 18.4861 12.3343C18.5105 12.2834 18.5191 12.2141 18.5099 12.1449C18.4921 12.0128 18.4163 11.9214 18.3562 11.9214V11.9219Z" fill="#060405"/>
<path d="M9.16851 11.2724C9.16851 11.2724 9.1355 12.6995 9.75405 13.4576C10.1615 13.9566 10.8948 14.3029 11.2109 14.2624C11.5269 14.2218 12.0567 14.0178 12.2499 13.6C12.4431 13.1822 12.6769 12.5815 12.6265 12.0414C12.5762 11.5013 12.4534 11.1247 12.0459 10.8498C11.6384 10.5749 10.845 10.2183 10.5539 10.3508C10.2627 10.4834 9.74377 10.6257 9.4786 10.8806C9.21343 11.1355 9.16797 11.273 9.16797 11.273L9.16851 11.2724Z" fill="#626B8A"/>
<path d="M18.6468 9.016C18.6424 9.01383 18.6381 9.01113 18.6338 9.00896C18.4947 8.94024 18.2084 8.92021 18.0802 8.93753C17.8599 8.96675 17.5022 9.16752 17.3317 9.30281C16.9794 9.55932 16.7473 9.93002 16.6098 10.3456C16.375 11.0562 16.4361 12.2024 16.7879 12.546C17.0514 12.8041 17.3913 13.2105 18.6365 13.3713C18.8427 13.3978 18.7739 13.1267 18.6062 13.1424C18.5515 13.1472 18.4741 13.1472 18.3789 13.1364C18.5071 12.9638 18.755 12.6104 18.9482 12.2089C19.1371 11.8171 19.2296 10.8018 19.2691 10.1919C19.2956 10.2677 19.3091 10.3153 19.3091 10.3153C19.3091 10.3153 19.4693 10.8273 19.5992 10.6747C19.7101 10.5442 19.3302 9.31147 18.6462 9.01546L18.6468 9.016ZM17.2538 9.80447C17.4037 9.62805 17.5818 9.47923 17.7739 9.37641C17.9216 9.33095 18.1316 9.2974 18.2533 9.2974C18.2604 9.2974 18.2674 9.2974 18.2734 9.2974C18.3231 9.29903 18.4725 9.34232 18.6094 9.38886C18.6376 9.65349 18.7047 10.5172 18.4779 11.2218C18.2479 11.9367 17.9957 12.0676 17.9243 12.0909C17.8653 12.1098 17.8139 12.1012 17.7625 12.0633C17.5504 11.9069 17.3036 11.2223 17.2749 10.8256C17.269 10.7412 17.2608 10.6563 17.2533 10.5724C17.2268 10.2834 17.1997 9.98522 17.2533 9.80447H17.2538ZM18.7539 12.1158C18.5515 12.5363 18.2782 12.9129 18.1711 13.0542C18.0282 13.0054 17.7923 12.9221 17.7073 12.8804C17.5882 12.822 17.3978 12.7181 17.2549 12.6218C17.0092 12.4242 16.8371 12.2089 16.7733 11.9745C16.6829 11.6439 16.6894 10.8641 16.9583 10.2715C16.9643 10.3765 16.974 10.4858 16.9838 10.5973C16.9913 10.6801 16.9989 10.7634 17.0049 10.8457C17.0352 11.2651 17.289 12.0519 17.6023 12.2819C17.6829 12.3414 17.7739 12.3717 17.8675 12.3717C17.914 12.3717 17.9611 12.3642 18.0076 12.349C18.2939 12.2565 18.5456 11.8955 18.7355 11.3051C18.9487 10.6422 18.9228 9.87428 18.8919 9.49926C18.8979 9.50521 18.9022 9.51062 18.9076 9.51657C18.972 9.59342 19.0283 9.67838 19.077 9.76388C19.0624 10.0891 18.9807 11.6455 18.7539 12.1158Z" fill="#060405"/>
<path d="M9.58105 10.9811C9.58105 10.9811 9.68388 12.662 10.5546 12.9472C11.4253 13.2324 11.9854 12.8146 12.026 12.1116C12.0466 11.755 11.927 10.9633 11.7116 10.651C11.4962 10.3388 10.6607 10.3123 10.3944 10.4156C10.1612 10.506 9.89493 10.5991 9.67305 10.8588C9.64166 10.8962 9.61082 10.9362 9.58105 10.9806V10.9811Z" fill="#1B1B1B"/>
<path d="M12.7192 12.7815C12.7868 12.5039 12.8096 12.2528 12.7885 12.0255C12.7419 11.5217 12.6299 11.1175 12.2641 10.8106C12.0422 10.4832 11.6915 10.2343 11.0351 10.2067C10.8213 10.1526 10.6244 10.139 10.4874 10.2018C10.4133 10.2354 10.3197 10.2716 10.2207 10.3095C10.2179 10.3106 10.2152 10.3117 10.2125 10.3128C10.1205 10.3431 10.0312 10.3788 9.94574 10.4188C9.73307 10.5087 9.51714 10.618 9.3667 10.7625C9.34613 10.7825 9.32719 10.8014 9.30879 10.8198C8.92132 11.1294 8.6897 11.44 8.6897 11.44C8.38395 11.9519 8.2795 12.6241 8.47595 12.6241C8.6134 12.6241 8.66373 12.3075 8.73949 12.1543C8.83744 11.9568 9.00304 11.7506 9.0236 11.7252C9.06473 12.2285 9.19894 13.0337 9.62808 13.5597C9.83534 13.8141 10.1162 14.0289 10.3949 14.1815C10.2547 14.1702 10.2369 14.1496 10.1487 14.1675C10.0188 14.194 10.0989 14.3699 10.2748 14.4846C10.4506 14.5993 10.62 14.5977 10.7721 14.5571C10.8262 14.5425 10.9988 14.5008 11.218 14.4234C11.2223 14.4234 11.2272 14.4234 11.2315 14.4223C11.435 14.3958 11.6618 14.3201 11.8544 14.214C12.1023 14.0771 12.2857 13.8947 12.388 13.6847C12.4069 13.6604 12.4259 13.6355 12.4432 13.6095C12.6045 13.3692 12.6884 13.0808 12.7187 12.7815H12.7192ZM9.75038 10.98C9.9728 10.8182 10.2217 10.6905 10.4777 10.6526C11.0189 10.5725 11.3847 10.7728 11.7337 11.0287C11.8431 11.3713 11.9058 11.848 11.8907 12.104C11.8739 12.3968 11.7548 12.6322 11.5568 12.7675C11.323 12.9266 10.9821 12.945 10.5962 12.8183C10.2033 12.6895 9.98579 12.2063 9.87214 11.8231C9.7677 11.4719 9.73036 11.1375 9.71954 11.0184C9.72928 11.0049 9.73956 10.9925 9.74984 10.9795L9.75038 10.98ZM9.88026 13.3541C9.3851 12.7475 9.33531 11.6467 9.33098 11.3507C9.37427 11.3047 9.42081 11.2593 9.46898 11.2138C9.53229 11.7014 9.75904 12.8292 10.5123 13.0759C10.7088 13.1403 10.8982 13.1723 11.0741 13.1723C11.316 13.1723 11.533 13.1117 11.7094 12.9915C11.9789 12.8081 12.1391 12.4985 12.1613 12.1197C12.1726 11.9281 12.1477 11.6327 12.0914 11.3404C12.2792 11.5618 12.3945 11.8334 12.4692 12.1094C12.4897 12.4882 12.3701 12.9542 12.1028 13.5305C11.9394 13.8828 11.4675 14.0641 11.1904 14.0998C10.9404 14.1328 10.2537 13.8108 9.88026 13.3536V13.3541Z" fill="black"/>
<path d="M9.58085 10.7674C9.4737 10.9979 10.0289 11.6029 10.4364 11.3177C10.8439 11.0326 10.6339 10.4151 10.5539 10.3502C10.3141 10.2381 9.64687 10.6251 9.58031 10.7679L9.58085 10.7674Z" fill="white"/>
<path d="M10.2013 11.4994C10.0486 11.4994 9.88684 11.4361 9.7391 11.3121C9.5497 11.153 9.40088 10.8992 9.48314 10.7212C9.54753 10.5821 9.88143 10.3802 10.1406 10.2855C10.3398 10.213 10.4946 10.2011 10.6006 10.2509L10.6131 10.2569L10.6234 10.2655C10.7083 10.3353 10.7971 10.5956 10.7879 10.8402C10.7787 11.0843 10.6791 11.2797 10.4994 11.4052C10.4101 11.468 10.3079 11.4988 10.2013 11.4988V11.4994ZM9.67958 10.8132C9.66118 10.8548 9.71421 11.0091 9.87818 11.1465C9.94366 11.2017 10.1737 11.37 10.375 11.2288C10.4832 11.153 10.5476 11.041 10.566 10.8954C10.592 10.6952 10.5238 10.4998 10.4897 10.4414C10.4199 10.4262 10.2678 10.4544 10.0584 10.5561C9.84301 10.6606 9.6996 10.7769 9.67904 10.8132H9.67958Z" fill="#060405"/>
<path d="M11.9257 13.5898C12.1135 13.5645 12.2382 13.3397 12.2043 13.0876C12.1704 12.8355 11.9907 12.6517 11.8029 12.6769C11.6151 12.7022 11.4904 12.927 11.5243 13.1791C11.5582 13.4311 11.7379 13.615 11.9257 13.5898Z" fill="white"/>
<path d="M11.8919 13.6717C11.6771 13.6717 11.4812 13.4655 11.4439 13.1884C11.4249 13.0493 11.4487 12.9119 11.5093 12.802C11.5748 12.684 11.6749 12.6104 11.7918 12.5947C12.0234 12.5639 12.2448 12.7787 12.2848 13.0748C12.3249 13.3708 12.1685 13.637 11.9363 13.6679C11.9212 13.67 11.9066 13.6711 11.8914 13.6711L11.8919 13.6717ZM11.8373 12.7544C11.8297 12.7544 11.8216 12.7544 11.814 12.756C11.7491 12.7647 11.6917 12.809 11.6517 12.881C11.6073 12.9606 11.5911 13.0623 11.6051 13.1668C11.6327 13.3702 11.7745 13.5255 11.9152 13.5077C12.0559 13.4887 12.1517 13.3004 12.1241 13.0969C12.0981 12.9043 11.9699 12.7544 11.8373 12.7544Z" fill="#060405"/>
<path d="M6.88147 9.62714C6.88147 9.62714 7.09523 10.4421 5.7407 11.0228C4.38617 11.6035 2.69504 11.4709 2.32813 12.2556C1.96122 13.0402 2.49102 13.9462 3.6832 14.5831C4.87538 15.22 7.74787 16.3202 8.58288 16.5443C9.41789 16.7683 10.1447 17.2624 10.1447 17.2624C10.1447 17.2624 10.4742 17.8788 10.1447 18.164C9.81511 18.4492 8.01195 19.0195 7.04436 19.2744C6.07676 19.5293 4.1513 19.8551 3.0614 19.8654C1.9715 19.8757 1.13595 19.6105 1.56401 19.2642C1.99207 18.9178 2.22639 18.592 2.13439 18.1434C2.04239 17.6948 1.4114 15.8922 1.16679 15.2401C0.922188 14.588 0.953034 11.9904 1.20738 10.717C1.46173 9.44368 2.1647 9.35223 2.04293 8.55726C1.92117 7.76229 2.46071 5.1041 2.81734 4.07536C3.17396 3.04661 3.64261 2.68998 4.4576 2.17046C5.27259 1.65095 6.63686 -0.0299005 8.63375 0.000404551C10.6306 0.0307096 13.6151 0.0106866 15.1737 0.540484C16.7322 1.07028 18.7389 1.8344 19.9511 2.802C21.1633 3.7696 21.5302 4.33998 21.7234 5.5116C21.9166 6.68322 21.6828 7.45708 21.4788 7.93601C21.2748 8.41494 20.5112 8.95285 20.5112 8.95285C20.5112 8.95285 20.4706 8.27207 20.4603 8.10918C20.45 7.94629 20.542 8.32077 20.3174 8.15409C20.0929 7.98742 20.068 7.8137 20.0728 7.70168C20.0777 7.58966 20.2357 7.57938 20.2206 7.33478C20.2054 7.09017 20.0983 7.1313 19.9099 7.20219C19.7216 7.27308 19.6145 7.25306 19.5788 7.06961C19.543 6.88615 19.6193 6.76385 19.6193 6.76385C19.6193 6.76385 19.7059 7.21193 19.8894 6.9473C20.0728 6.68267 19.7465 6.56037 19.6756 6.60583C19.6047 6.65129 19.8791 6.37151 19.6605 6.36664C19.4418 6.36177 19.3753 6.63126 19.2324 6.60096C19.0895 6.57065 19.1561 6.24974 19.0338 6.15775C18.9115 6.06575 18.8709 6.28492 18.3666 6.41751C17.8622 6.55009 17.6739 6.38179 17.689 6.31036C17.7042 6.23892 18.2545 6.10147 18.1831 5.87256C18.1117 5.64364 17.5564 5.37847 17.2458 5.87256C16.9352 6.36664 17.0164 6.57011 16.8334 6.51437C16.6505 6.45863 16.6857 6.35148 16.7111 5.93858C16.7366 5.52567 16.7772 5.30217 16.6397 5.28648C16.5022 5.27078 16.5482 5.41365 16.5022 5.51052C16.4562 5.60739 16.3085 5.48508 16.3036 5.21504C16.2988 4.945 16.2733 4.79727 16.1608 4.79727C16.0482 4.79727 16.0439 5.3525 16.0948 5.79571C16.1456 6.23892 16.2934 6.60042 16.3139 6.61557C16.3345 6.63072 16.1359 6.72272 15.9725 6.52899C15.809 6.33525 15.3003 5.74484 15.198 5.59169C15.0958 5.43854 14.9892 5.48995 14.9892 5.65771C14.9892 5.82547 15.2998 6.8802 15.0297 7.13455C14.7597 7.38889 14.2045 7.60806 13.8738 7.47061C13.5432 7.33315 13.1508 7.14483 13.3034 6.96624C13.456 6.78766 13.8484 7.41974 13.981 7.08855C14.1136 6.75736 13.5123 6.5896 13.4663 6.08523C13.4203 5.58087 13.6038 5.39254 13.3186 5.15822C13.0334 4.9239 12.8651 4.89846 12.7276 5.10194C12.5902 5.30542 12.5799 5.55543 12.5496 5.9678C12.5193 6.38017 12.4782 6.73679 12.5956 6.65021C12.713 6.56362 12.6719 6.48732 12.6719 6.48732C12.6719 6.48732 12.8808 7.08313 12.4121 6.97111C11.9435 6.85909 12.0404 6.40073 11.9998 6.16154C11.9592 5.92234 11.8217 5.94237 11.6583 5.76432C11.4949 5.58628 11.4456 5.56085 11.3964 5.79463C11.3471 6.02841 11.4949 6.36014 11.312 6.78766C11.129 7.21518 10.7313 7.3732 10.4564 7.34776C10.1815 7.32233 9.7637 7.04201 9.932 6.71623C10.1003 6.39045 9.978 7.05229 10.2886 6.92512C10.5992 6.79794 10.4721 6.46188 10.2989 6.29845C10.1257 6.13502 9.95256 6.3136 10.0543 6.115C10.156 5.91639 10.0391 5.69235 9.87085 5.98782C9.70254 6.2833 9.56509 7.28661 9.52937 7.53122C9.49366 7.77582 9.42222 8.05073 9.31561 7.88784C9.209 7.72495 8.96927 6.91483 8.72466 6.90509C8.48006 6.89535 8.17971 7.62322 8.08826 8.31103C7.9968 8.99885 8.15969 9.63039 8.20028 9.80843C8.24087 9.98647 7.9508 9.9356 7.84365 9.87986C7.7365 9.82412 7.52274 9.60657 7.34957 9.58817C7.1764 9.56977 6.90149 9.51349 6.88092 9.62551L6.88147 9.62714Z" fill="#744C40"/>
</svg>
