<svg width="24" height="24" viewBox="0 0 24 24" fill="none" xmlns="http://www.w3.org/2000/svg">
<path d="M20.3576 0C20.3576 0.262616 20.3576 0.431934 20.3576 0.602116C20.3576 3.97034 20.3541 7.33856 20.3645 10.7068C20.3654 11.0178 20.3023 11.2044 19.981 11.3219C19.46 11.5119 18.9599 11.7598 18.3448 12.0294C18.9599 12.298 19.4756 12.5304 19.9974 12.7472C20.2185 12.8397 20.3351 12.9572 20.3343 13.2241C20.3256 16.7357 20.3282 20.2482 20.3274 23.7598C20.3274 23.8151 20.3101 23.8704 20.2894 24C19.9136 23.848 19.5602 23.7158 19.2156 23.5655C15.1701 21.8023 11.1263 20.0366 7.08167 18.2717C5.82992 17.7257 4.57731 17.1815 3.32989 16.626C3.21326 16.5742 3.04654 16.4532 3.04308 16.3591C3.01889 15.6758 3.03012 14.9907 3.03012 14.2167C8.09758 16.4273 13.0821 18.6025 18.1435 20.8106C18.1435 20.1117 18.1582 19.4733 18.1271 18.8375C18.1228 18.7425 17.9146 18.6302 17.7807 18.5714C15.754 17.6799 13.7248 16.7945 11.6956 15.9099C8.94071 14.7091 6.18583 13.5057 3.42664 12.3144C3.13465 12.1883 3.00507 12.0251 3.01716 11.6994C3.03963 11.1128 3.02321 10.5254 3.02321 9.8481C8.09153 12.0587 13.0881 14.2374 18.1504 16.4455C18.1504 15.7345 18.1668 15.1039 18.1357 14.4758C18.1297 14.3584 17.95 14.2055 17.8161 14.1458C15.8715 13.2828 13.9218 12.4319 11.972 11.581C9.07375 10.3155 6.17547 9.05075 3.27805 7.78432C3.20722 7.75322 3.14674 7.69966 2.99902 7.60204C8.80336 5.05968 14.5351 2.54928 20.3576 0ZM8.2142 7.60464C9.01673 7.95709 9.68969 8.26981 10.3791 8.54193C10.5536 8.61104 10.8023 8.605 10.9777 8.53589C11.7111 8.24563 12.4307 7.91822 13.1547 7.60291C14.707 6.9265 16.2594 6.25182 17.8083 5.56763C17.9388 5.50975 18.1349 5.38968 18.14 5.2912C18.1694 4.6407 18.1556 3.98762 18.1556 3.2732C14.834 4.72104 11.5885 6.1352 8.21506 7.60464H8.2142ZM18.1591 7.7083C16.5108 8.42531 14.9429 9.1069 13.2963 9.82305C14.1282 10.1876 14.885 10.5245 15.6478 10.845C15.7385 10.883 15.8793 10.8614 15.9761 10.82C16.6352 10.5375 17.2917 10.2463 17.9431 9.94572C18.0312 9.90512 18.147 9.79541 18.1496 9.71507C18.1668 9.07494 18.1591 8.43481 18.1591 7.7083Z" fill="url(#paint0_linear_2370_2986)"/>
<defs>
<linearGradient id="paint0_linear_2370_2986" x1="2.99902" y1="12" x2="20.3645" y2="12" gradientUnits="userSpaceOnUse">
<stop stop-color="#ED0D87"/>
<stop offset="1" stop-color="#3E2578"/>
</linearGradient>
</defs>
</svg>
