<svg width="24" height="24" viewBox="0 0 24 24" fill="none" xmlns="http://www.w3.org/2000/svg">
<path d="M0 11.9994C0 18.6267 5.37227 24 11.9994 24C18.6277 24 24 18.6267 24 11.9994C24 5.37211 18.6277 0 11.9994 0C5.3711 0 0 5.37327 0 12.0006V11.9994Z" fill="#F04832"/>
<path d="M8.18117 23.3511C8.15445 23.3488 8.12924 23.3543 8.10235 23.335C8.06914 23.3111 8.02555 23.3041 7.98492 23.2965C7.97464 23.268 7.97952 23.2397 7.9791 23.2119C7.9657 22.2497 7.95263 21.2876 7.9394 20.3255C7.93636 20.1039 7.9292 19.8822 7.93088 19.6607C7.93181 19.5428 7.9147 19.4299 7.88477 19.3166C7.82306 19.0832 7.7584 18.8503 7.70184 18.6159C7.64021 18.3604 7.57429 18.106 7.51073 17.8509C7.43756 17.5573 7.3627 17.2642 7.28826 16.971C7.20421 16.64 7.11983 16.3091 7.03569 15.9782C6.94516 15.6219 6.85495 15.2655 6.76433 14.9092C6.73904 14.8098 6.70937 14.7114 6.68779 14.6112C6.64302 14.4036 6.63763 14.1935 6.66865 13.984C6.67716 13.9267 6.72176 13.8791 6.77537 13.853C6.81778 13.8323 6.81382 13.8091 6.80134 13.7733C6.7468 13.6175 6.69638 13.4594 6.65466 13.3004C6.60956 13.1286 6.56361 12.9567 6.51666 12.7854C6.45056 12.5443 6.40015 12.2995 6.33296 12.0586C6.27766 11.8605 6.24226 11.6568 6.19876 11.4554C6.13528 11.1617 6.07028 10.8685 6.01026 10.5741C5.9725 10.3889 5.94805 10.2009 5.90792 10.0162C5.86906 9.83739 5.84208 9.65652 5.81039 9.47666C5.78788 9.34912 5.77312 9.21905 5.75213 9.09083C5.69936 8.76809 5.65595 8.44418 5.61253 8.12026C5.57493 7.83956 5.54298 7.55819 5.51887 7.27597C5.50007 7.05803 5.48288 6.83993 5.48448 6.62081C5.48659 6.33767 5.51955 6.05857 5.59449 5.7852C5.63209 5.64814 5.6664 5.51031 5.7217 5.37822C6.04803 4.59922 6.55366 3.97666 7.29736 3.5589C7.55271 3.41543 7.82483 3.31712 8.108 3.24686C8.13481 3.24021 8.16364 3.24198 8.19137 3.23995C8.20343 3.24071 8.21557 3.24088 8.22577 3.23212C8.24802 3.22925 8.27028 3.22639 8.29228 3.22353C8.30509 3.22412 8.31824 3.2253 8.32929 3.21611C8.52326 3.18848 8.71808 3.18654 8.91299 3.198C8.94435 3.20685 8.97672 3.20819 9.00926 3.20819C9.24488 3.23802 9.47443 3.29185 9.69858 3.37154C9.95233 3.46177 10.1854 3.58729 10.4072 3.74061C10.9678 4.12796 11.3698 4.64185 11.6396 5.26163C11.7281 5.46491 11.8021 5.67552 11.8479 5.89345C11.9131 6.2028 11.9457 6.515 11.9295 6.83252C11.9068 7.27825 11.8561 7.72103 11.8005 8.16339C11.7733 8.37889 11.7397 8.59362 11.7078 8.80853C11.6852 8.96076 11.6619 9.1129 11.6368 9.26471C11.6045 9.45939 11.5748 9.65467 11.535 9.84784C11.5009 10.0132 11.4716 10.1797 11.4402 10.3454C11.4101 10.5037 11.3799 10.6625 11.3492 10.8208C11.3317 10.9114 11.3075 11.003 11.2892 11.0928C11.2639 11.2174 11.2421 11.3438 11.2145 11.4681C11.1691 11.6718 11.1211 11.875 11.0711 12.0778C11.0231 12.2723 10.98 12.4684 10.9298 12.6626C10.8614 12.9273 10.792 13.1916 10.7126 13.4534C10.6807 13.5588 10.6518 13.6653 10.6171 13.77C10.6036 13.8108 10.6043 13.8349 10.6467 13.8573C10.7377 13.9054 10.7523 13.9978 10.7579 14.0862C10.7659 14.2109 10.7645 14.3364 10.7625 14.4615C10.7619 14.5027 10.7485 14.5441 10.7383 14.5847C10.6966 14.7496 10.6534 14.9142 10.6116 15.0791C10.5199 15.4403 10.429 15.8017 10.3375 16.1631C10.2424 16.5384 10.1469 16.9135 10.0517 17.2888C9.96093 17.6469 9.87283 18.0057 9.7785 18.3628C9.73686 18.5203 9.69268 18.6776 9.65416 18.8354C9.61302 19.0036 9.57685 19.1737 9.52754 19.3394C9.49727 19.4411 9.49264 19.5407 9.49264 19.6433C9.49264 20.9648 9.49264 22.2862 9.49264 23.6076V23.7034C9.41786 23.7184 9.35556 23.6824 9.28989 23.6671C9.29057 23.6474 9.29192 23.6279 9.29192 23.6082C9.292 22.2956 9.292 20.9829 9.292 19.6703C9.292 19.6563 9.29116 19.6422 9.292 19.6283C9.29394 19.5963 9.27969 19.5815 9.24749 19.5833C9.2335 19.5841 9.21942 19.5833 9.20542 19.5833C8.87707 19.5833 8.54872 19.5833 8.22037 19.5833C8.20351 19.5833 8.18665 19.5842 8.16988 19.5835C8.14096 19.5823 8.12966 19.597 8.13051 19.6244C8.1311 19.644 8.13051 19.6636 8.13084 19.6833C8.13523 19.9749 8.13944 20.2665 8.14416 20.5581C8.15032 20.9367 8.15057 21.3153 8.15858 21.6938C8.17021 22.2462 8.17409 22.7987 8.18126 23.3511L8.18117 23.3511ZM8.70679 13.8166C8.83872 13.8166 8.97073 13.8165 9.10266 13.8167C9.1309 13.8167 9.16513 13.821 9.17019 13.7845C9.1755 13.7466 9.20129 13.7205 9.21284 13.6866C9.27877 13.4943 9.35211 13.3044 9.41196 13.1103C9.49753 12.8328 9.56758 12.551 9.63595 12.2685C9.69496 12.0247 9.7425 11.7786 9.7984 11.5344C9.85564 11.284 9.89357 11.0294 9.94516 10.7776C9.98116 10.6019 10.007 10.4241 10.0361 10.2471C10.0687 10.0492 10.101 9.85121 10.131 9.6529C10.1617 9.45105 10.1917 9.24895 10.2182 9.04652C10.2648 8.69067 10.3116 8.33483 10.3527 7.97839C10.3998 7.5688 10.4376 7.15837 10.4669 6.74701C10.4949 6.35317 10.4277 5.9798 10.2398 5.63272C9.95663 5.10965 9.53352 4.76543 8.93861 4.6603C8.65073 4.60941 8.37001 4.65078 8.09906 4.7651C7.46807 5.03139 6.98697 5.72118 6.9508 6.3974C6.93892 6.61955 6.95451 6.84069 6.97314 7.0614C7.02002 7.61648 7.08223 8.17005 7.1565 8.72218C7.17648 8.87062 7.19081 9.01981 7.21652 9.16766C7.24628 9.33884 7.26794 9.51146 7.29079 9.68373C7.30773 9.81119 7.34432 9.93613 7.34019 10.0663C7.38478 10.1496 7.37264 10.2442 7.39009 10.3328C7.40527 10.4099 7.41446 10.49 7.4314 10.5663C7.46082 10.6988 7.48004 10.833 7.50407 10.9661C7.52928 11.1058 7.55499 11.2459 7.58019 11.3855C7.62024 11.6072 7.67689 11.8258 7.7273 12.0455C7.80283 12.375 7.88553 12.7025 7.97801 13.0278C8.02201 13.1824 8.08364 13.3308 8.12368 13.4863C8.14779 13.5797 8.20098 13.6615 8.23142 13.7524C8.25131 13.812 8.25561 13.8163 8.31909 13.8166C8.44824 13.8173 8.57738 13.8168 8.70653 13.8168L8.70679 13.8166ZM8.02522 13.8106C8.03457 13.792 8.02496 13.7772 8.01881 13.7618C7.81784 13.2547 7.67975 12.7291 7.55693 12.1989C7.43182 11.6589 7.32645 11.115 7.23245 10.5688C7.16257 10.1627 7.09774 9.75585 7.03932 9.34802C6.97373 8.89016 6.91447 8.43146 6.86296 7.97165C6.82048 7.59248 6.78153 7.21313 6.75506 6.83252C6.74376 6.67009 6.73584 6.50649 6.75438 6.34466C6.82098 5.76515 7.07338 5.28025 7.51537 4.89829C8.15436 4.34607 9.02586 4.28204 9.71275 4.75785C10.388 5.22549 10.7007 5.88579 10.6687 6.70581C10.6602 6.92434 10.6407 7.14262 10.6198 7.36038C10.5732 7.84613 10.517 8.33087 10.4524 8.81451C10.3796 9.35923 10.2992 9.90285 10.2068 10.4447C10.0956 11.0969 9.97239 11.7465 9.81652 12.3897C9.70221 12.8613 9.57424 13.3289 9.39249 13.78C9.38827 13.7904 9.3844 13.8009 9.39013 13.812C9.39257 13.8131 9.39502 13.8151 9.39738 13.8151C9.7146 13.816 10.0318 13.8166 10.349 13.8181C10.3753 13.8183 10.3919 13.8097 10.4006 13.7856C10.4092 13.762 10.4182 13.7384 10.4256 13.7144C10.5415 13.3423 10.6462 12.967 10.7431 12.5896C11.0259 11.4876 11.2522 10.3738 11.4362 9.25106C11.4851 8.95284 11.5293 8.65403 11.5716 8.35488C11.6308 7.93543 11.6794 7.51489 11.7146 7.09283C11.7441 6.73934 11.7459 6.38661 11.6723 6.03709C11.4771 5.10957 10.9993 4.36612 10.2023 3.8476C9.47603 3.37491 8.68816 3.26211 7.85923 3.53514C7.2687 3.72966 6.79299 4.09292 6.41364 4.58069C5.91913 5.21639 5.66851 5.93642 5.68646 6.74541C5.69118 6.9588 5.70754 7.1716 5.7287 7.38364C5.79083 8.00594 5.87681 8.6253 5.97882 9.2423C6.10763 10.0222 6.25575 10.7985 6.42957 11.5698C6.59421 12.3001 6.7774 13.0254 6.99987 13.7405C7.02963 13.8362 7.02693 13.8172 7.10187 13.8174C7.38546 13.8181 7.66913 13.8179 7.95272 13.8174C7.97708 13.8174 8.00262 13.8239 8.02522 13.8106ZM8.70695 14.0203C8.70695 14.0214 8.70695 14.0225 8.70695 14.0236C8.6761 14.0236 8.64525 14.0236 8.61439 14.0236C8.07816 14.0236 7.54184 14.0236 7.0056 14.0236C6.86136 14.0236 6.86313 14.0236 6.85757 14.1703C6.84947 14.3829 6.89297 14.5868 6.94541 14.7914C7.25403 15.9949 7.55912 17.1993 7.86555 18.4034C7.94285 18.707 8.02151 19.0105 8.09738 19.3145C8.10775 19.3561 8.12199 19.376 8.16903 19.3759C8.52841 19.3751 8.88778 19.3759 9.24707 19.3785C9.29504 19.3788 9.31653 19.3632 9.32766 19.3159C9.36366 19.1632 9.40429 19.0118 9.4429 18.8598C9.7624 17.6022 10.0819 16.3445 10.4012 15.0869C10.4446 14.9158 10.4881 14.7449 10.5303 14.5736C10.5712 14.4079 10.5579 14.2392 10.5542 14.0711C10.5534 14.0373 10.5354 14.0201 10.5009 14.0207C10.4812 14.021 10.4616 14.0205 10.4419 14.0205C9.88885 14.0205 9.33567 14.0205 8.78257 14.0205C8.75728 14.0205 8.73208 14.0205 8.70679 14.0205L8.70695 14.0203Z" fill="#040202"/>
<path d="M15.0628 23.5735C15.0007 23.5947 14.9386 23.616 14.8702 23.6267C14.8519 23.5962 14.8604 23.565 14.8604 23.5359C14.8599 22.0659 14.8599 20.5958 14.8599 19.1258C14.8599 18.3206 14.8596 17.5155 14.8606 16.7103C14.8606 16.6525 14.8518 16.6037 14.814 16.5556C14.7531 16.4782 14.7103 16.3888 14.6921 16.291C14.6846 16.2505 14.6885 16.2078 14.6885 16.1661C14.6883 15.8772 14.6889 15.5882 14.688 15.2993C14.6879 15.2453 14.6939 15.1919 14.7085 15.1413C14.7194 15.1036 14.7113 15.0776 14.6906 15.0487C14.5644 14.873 14.4615 14.6821 14.3744 14.4865C14.2789 14.2719 14.1883 14.0536 14.1262 13.8246C14.0834 13.667 14.0355 13.5098 14.0059 13.3501C13.9597 13.0999 13.9291 12.8467 13.9685 12.5906C13.9855 12.4808 14.007 12.3716 14.0434 12.2678C14.1543 11.9504 14.3268 11.6701 14.5702 11.4354C14.6671 11.342 14.7699 11.2562 14.8911 11.196C14.9137 11.1848 14.9186 11.172 14.9182 11.1512C14.9179 11.1316 14.9182 11.1119 14.9182 11.0923C14.9182 10.621 14.9164 10.1497 14.92 9.67837C14.9207 9.59379 14.8973 9.53886 14.8251 9.49025C14.6404 9.36599 14.5021 9.19843 14.3958 9.00265C14.2437 8.72288 14.2046 8.42423 14.2515 8.11472C14.2778 7.94144 14.3609 7.78895 14.4833 7.66225C14.5197 7.62451 14.5204 7.59873 14.4972 7.55484C14.2049 7.00279 13.9146 6.44965 13.6236 5.89685C13.6199 5.88985 13.6111 5.88345 13.6112 5.87697C13.6142 5.77646 13.5936 5.67436 13.622 5.5758C13.6494 5.48102 13.7159 5.42576 13.8142 5.41093C13.9616 5.41118 14.1093 5.41144 14.257 5.4116C14.3347 5.42239 14.3767 5.4758 14.4134 5.53839C14.7061 6.03787 14.9996 6.53693 15.2931 7.03599C15.3286 7.09622 15.3686 7.15401 15.4011 7.21576C15.4258 7.2626 15.4588 7.27937 15.5084 7.26648C15.5251 7.26681 15.5421 7.2674 15.5572 7.25772C15.5806 7.2551 15.604 7.25258 15.6271 7.25005C15.6431 7.24938 15.6598 7.25081 15.6743 7.2407C15.7711 7.2225 15.8687 7.20751 15.9647 7.18552C16.5136 7.05966 16.9096 6.75596 17.0813 6.204C17.168 5.92532 17.142 5.64698 17.0412 5.37496C16.925 5.06166 16.7243 4.82148 16.4303 4.65763C16.1497 4.50127 15.8542 4.43842 15.5356 4.48804C15.1497 4.54819 14.8486 4.74541 14.6274 5.06174C14.5536 5.16721 14.4662 5.21355 14.3406 5.21102C14.1414 5.20706 13.9421 5.21009 13.7429 5.20976C13.7149 5.20976 13.6866 5.20993 13.659 5.2058C13.4892 5.18069 13.3962 5.00572 13.472 4.85071C13.5791 4.63143 13.7026 4.42242 13.8632 4.23683C14.1397 3.91721 14.4747 3.68175 14.8688 3.52843C15.0116 3.47291 15.1586 3.43382 15.307 3.39869C15.3392 3.39111 15.3739 3.3944 15.4072 3.39263C15.4286 3.39322 15.4498 3.39136 15.4702 3.38285C15.6609 3.35893 15.8516 3.35969 16.042 3.38319C16.0582 3.39077 16.0757 3.39313 16.0937 3.39153C16.2666 3.41807 16.4361 3.45867 16.6003 3.51882C17.2705 3.76422 17.7474 4.21745 18.0363 4.86722C18.0944 4.99814 18.1437 5.13419 18.1744 5.2758C18.2548 5.64681 18.2643 6.01555 18.1784 6.38925C18.0605 6.90221 17.812 7.33497 17.4256 7.69022C17.3806 7.73167 17.332 7.76924 17.286 7.80959C17.1783 7.9042 17.1047 8.02197 17.072 8.1603C17.0536 8.23839 17.0527 8.32095 17.0473 8.40166C17.0162 8.85918 16.8255 9.23011 16.4485 9.49783C16.3928 9.53734 16.365 9.57871 16.3654 9.64897C16.3681 10.14 16.3688 10.6312 16.3661 11.1223C16.3658 11.1799 16.3971 11.1932 16.4357 11.218C16.7278 11.4053 16.9479 11.6593 17.1084 11.9648C17.1884 12.117 17.2462 12.2786 17.2863 12.4459C17.3322 12.6375 17.3423 12.8329 17.3308 13.0283C17.3254 13.1215 17.3041 13.2148 17.2804 13.3056C17.2514 13.417 17.2316 13.5303 17.2039 13.6419C17.165 13.7985 17.1089 13.9487 17.0563 14.1C17.0025 14.2548 16.9377 14.4054 16.8674 14.5547C16.7824 14.7354 16.6854 14.9072 16.5751 15.0725C16.5637 15.0896 16.5543 15.0988 16.5661 15.1225C16.5915 15.1735 16.5926 15.2308 16.5927 15.2869C16.593 15.5816 16.593 15.8762 16.5927 16.1708C16.5927 16.3096 16.5541 16.4381 16.4723 16.5491C16.4327 16.6028 16.4216 16.6561 16.4223 16.7198C16.4327 17.7074 16.4422 18.6951 16.4508 19.6828C16.46 20.735 16.4681 21.7873 16.4767 22.8396C16.4773 22.9125 16.477 22.9855 16.4801 23.0584C16.4816 23.094 16.472 23.1173 16.436 23.1277C16.3831 23.1431 16.3359 23.1752 16.2799 23.1817C16.2725 22.3879 16.2657 21.5942 16.2578 20.8004C16.2515 20.1749 16.252 19.5494 16.2422 18.9239C16.2316 18.2424 16.2293 17.5608 16.223 16.8792C16.2227 16.8501 16.2271 16.8197 16.214 16.7846C16.0827 16.8522 15.9465 16.8595 15.8081 16.8556C15.7324 16.8535 15.6566 16.8556 15.5808 16.8552C15.4077 16.8543 15.2324 16.8723 15.0601 16.7805V16.8913C15.0601 19.0849 15.0601 21.2785 15.0602 23.4722C15.0602 23.5058 15.0621 23.5394 15.063 23.5731L15.0628 23.5735ZM15.2922 7.50354C15.0911 7.53606 14.8987 7.59149 14.7304 7.71187C14.6103 7.7978 14.5271 7.91144 14.4799 8.05137C14.3971 8.29652 14.423 8.5426 14.5089 8.77587C14.5986 9.01933 14.7601 9.21798 14.9825 9.36111C15.0723 9.4189 15.1132 9.50483 15.1187 9.60887C15.1208 9.64804 15.1191 9.68738 15.1192 9.72672C15.1195 9.82428 15.1127 9.81973 15.2091 9.81973C15.4168 9.81973 15.6246 9.81973 15.8323 9.81973C15.925 9.81973 16.0176 9.81821 16.1103 9.82032C16.1545 9.82133 16.17 9.80423 16.1677 9.76093C16.1649 9.71055 16.1675 9.65992 16.1671 9.60946C16.1662 9.50937 16.2086 9.43103 16.2869 9.37088C16.3091 9.35378 16.3331 9.33903 16.3555 9.32227C16.5891 9.14789 16.7409 8.91975 16.8137 8.63703C16.847 8.50772 16.8426 8.37546 16.8569 8.24471C16.8843 7.99544 16.9934 7.79056 17.1881 7.63251C17.4785 7.39697 17.7019 7.1097 17.8493 6.76641C18.0939 6.19675 18.1106 5.61783 17.8882 5.03925C17.6542 4.43034 17.2285 4.00053 16.6288 3.74401C16.3707 3.63356 16.0991 3.57695 15.8192 3.56979C15.461 3.56061 15.1174 3.63019 14.7917 3.78217C14.2653 4.02765 13.8945 4.42528 13.65 4.94667C13.6343 4.98011 13.6435 5.00117 13.6789 5.00884C13.7004 5.01347 13.7235 5.01221 13.7459 5.01221C13.9396 5.01246 14.1333 5.00943 14.327 5.01389C14.3938 5.01541 14.432 4.99233 14.4706 4.93824C14.7293 4.57557 15.0808 4.35359 15.5216 4.29108C16.0553 4.21543 16.5217 4.37339 16.8888 4.76596C17.3233 5.23073 17.4441 5.77688 17.2345 6.38445C17.1735 6.56111 17.0698 6.71519 16.9465 6.85571C16.6484 7.19563 16.2569 7.35072 15.8234 7.42191C15.7129 7.44002 15.6023 7.45695 15.4912 7.47136C15.4559 7.47599 15.3292 7.49722 15.292 7.50328L15.2922 7.50354ZM16.4609 14.877C16.484 14.8606 16.4947 14.8342 16.5087 14.8107C16.7868 14.3434 16.9704 13.84 17.0779 13.3083C17.1237 13.0823 17.1524 12.8543 17.1152 12.6233C17.0376 12.1415 16.802 11.7532 16.4194 11.4524C16.4072 11.4428 16.3954 11.4268 16.3691 11.4394C16.3691 11.4665 16.3691 11.4968 16.3691 11.5269C16.3691 11.9534 16.3705 12.3797 16.3686 12.8062C16.3672 13.1085 16.1987 13.3316 15.9089 13.4165C15.7116 13.4743 15.5138 13.4667 15.3219 13.3949C15.1164 13.3179 14.9809 13.174 14.9316 12.9558C14.9166 12.8894 14.9182 12.822 14.9181 12.7548C14.9176 12.3424 14.9181 11.93 14.9172 11.5177C14.9172 11.489 14.9275 11.4572 14.906 11.4308C14.8739 11.4375 14.8543 11.4587 14.8326 11.4758C14.7238 11.561 14.626 11.6576 14.5426 11.7675C14.2591 12.1414 14.1102 12.556 14.1628 13.0313C14.1804 13.1903 14.2094 13.3472 14.2476 13.5024C14.3563 13.943 14.5162 14.3636 14.7426 14.7577C14.7672 14.8004 14.7877 14.8468 14.831 14.8851C14.8403 14.8729 14.8465 14.8635 14.8539 14.8551C15.0022 14.687 15.1883 14.6072 15.4127 14.611C15.5726 14.6138 15.7327 14.6117 15.8927 14.6115C16.1039 14.6112 16.2797 14.6908 16.4223 14.8457C16.4331 14.8576 16.4397 14.8754 16.4609 14.8768V14.877ZM15.1192 11.4682C15.1192 11.7628 15.1191 12.0573 15.1192 12.3519C15.1194 12.5175 15.1176 12.683 15.1216 12.8484C15.1253 13.0028 15.2027 13.1162 15.3398 13.1822C15.5414 13.2794 15.7467 13.2772 15.9487 13.1806C16.0468 13.1337 16.1152 13.0561 16.1451 12.9508C16.1609 12.8949 16.1676 12.8366 16.1675 12.7773C16.1666 12.2528 16.167 11.7281 16.167 11.2035C16.167 10.836 16.1671 10.4685 16.167 10.1009C16.167 10.0196 16.1665 10.0192 16.0838 10.0191C15.8564 10.019 15.629 10.019 15.4016 10.0191C15.3231 10.0191 15.2444 10.0198 15.1658 10.019C15.1347 10.0187 15.118 10.0298 15.1192 10.0628C15.12 10.0824 15.1192 10.102 15.1192 10.1217C15.1192 10.5705 15.1192 11.0194 15.1192 11.4683V11.4682ZM16.3889 15.7337C16.3889 15.5936 16.389 15.4534 16.3888 15.3133C16.3888 15.2742 16.3882 15.235 16.3793 15.1963C16.3326 14.9928 16.1688 14.8207 15.9111 14.8145C15.7318 14.8103 15.5522 14.8183 15.3728 14.8156C15.1745 14.8127 14.9093 14.9657 14.8974 15.2763C14.8859 15.5786 14.8892 15.8817 14.8965 16.1842C14.9028 16.4447 15.1183 16.6449 15.3788 16.6473C15.5526 16.6489 15.7265 16.6473 15.9003 16.6505C16.1457 16.655 16.3854 16.4571 16.3886 16.1624C16.3901 16.0195 16.3889 15.8766 16.389 15.7336L16.3889 15.7337ZM15.2099 7.31146C15.2075 7.27962 15.1916 7.26294 15.1806 7.24424C14.9564 6.86211 14.7321 6.47998 14.5078 6.09794C14.4226 5.95287 14.3373 5.8078 14.2516 5.66299C14.2379 5.63982 14.2303 5.60865 14.1944 5.60865C14.0821 5.60865 13.9699 5.60848 13.8576 5.60958C13.833 5.60983 13.8117 5.62263 13.8123 5.64959C13.814 5.72946 13.7997 5.80831 13.8421 5.88699C14.0192 6.21512 14.1906 6.54636 14.364 6.87643C14.463 7.06505 14.5618 7.25384 14.6616 7.44212C14.6732 7.46411 14.6782 7.50034 14.7205 7.47599C14.8703 7.38973 15.0359 7.3487 15.2099 7.31146Z" fill="#040202"/>
<path d="M15.0625 23.5738C15.0614 23.5402 15.0597 23.5066 15.0597 23.473C15.0595 21.2793 15.0596 19.0857 15.0596 16.892V16.7812C15.2317 16.8731 15.4069 16.855 15.5799 16.8559C15.6556 16.8562 15.7314 16.8542 15.8071 16.8563C15.9453 16.8602 16.0815 16.8529 16.2127 16.7854C16.2259 16.8204 16.2214 16.8508 16.2216 16.88C16.228 17.5615 16.2302 18.2432 16.2409 18.9247C16.2506 19.5501 16.2502 20.1756 16.2564 20.8011C16.2644 21.5948 16.2712 22.3886 16.2785 23.1824C16.0463 23.2826 15.8051 23.3581 15.5646 23.4347C15.4173 23.4816 15.268 23.5224 15.1194 23.5652C15.1011 23.5705 15.0815 23.571 15.0625 23.5737V23.5738Z" fill="#FE0000"/>
<path d="M8.18162 23.3519C8.17446 22.7995 8.17058 22.247 8.15896 21.6946C8.15095 21.316 8.1507 20.9374 8.14455 20.5589C8.13983 20.2673 8.13562 19.9757 8.13124 19.6841C8.1309 19.6644 8.13149 19.6448 8.1309 19.6252C8.13006 19.5978 8.14135 19.5831 8.17024 19.5843C8.18701 19.585 8.20386 19.5841 8.22071 19.5841C8.54883 19.5841 8.87696 19.5841 9.20509 19.5841C9.21908 19.5841 9.23314 19.5849 9.24713 19.5841C9.27931 19.5823 9.29355 19.597 9.29161 19.629C9.29077 19.643 9.29161 19.6571 9.29161 19.6711C9.29161 20.9838 9.29161 22.2964 9.29152 23.609C9.29152 23.6287 9.29018 23.6482 9.2895 23.6678C9.20703 23.6688 9.13096 23.6361 9.05261 23.6183C8.90636 23.585 8.76138 23.5432 8.61808 23.4998C8.47158 23.4554 8.32146 23.4178 8.18162 23.352V23.3519Z" fill="#FE0000"/>
<path d="M8.0252 13.8102C8.00261 13.8236 7.97698 13.817 7.9527 13.817C7.66911 13.8175 7.38544 13.8179 7.10186 13.817C7.02691 13.8168 7.02961 13.8358 6.99985 13.7401C6.77738 13.0251 6.5942 12.2996 6.42956 11.5694C6.25565 10.7982 6.10761 10.0219 5.9788 9.24195C5.87688 8.62495 5.7909 8.00559 5.72868 7.38328C5.70752 7.17124 5.69117 6.95844 5.68645 6.74506C5.66849 5.93607 5.91912 5.21604 6.41354 4.58034C6.79289 4.09257 7.2686 3.72931 7.85913 3.53479C8.68814 3.26167 9.47601 3.37456 10.2024 3.84717C10.9994 4.36568 11.4772 5.10913 11.6725 6.03665C11.7461 6.38618 11.7443 6.73891 11.7148 7.09239C11.6795 7.51445 11.631 7.93499 11.5717 8.35444C11.5295 8.65359 11.4852 8.95249 11.4363 9.25062C11.2524 10.3733 11.0261 11.487 10.7432 12.5892C10.6464 12.9666 10.5417 13.3418 10.4257 13.7139C10.4182 13.7379 10.4093 13.7615 10.4008 13.7852C10.3921 13.8093 10.3754 13.8179 10.3492 13.8177C10.032 13.8161 9.71475 13.8156 9.39753 13.8147C9.39509 13.8147 9.39264 13.8127 9.39028 13.8116C9.38446 13.8004 9.38834 13.7899 9.39256 13.7796C9.57422 13.3284 9.70228 12.8609 9.81659 12.3893C9.97246 11.7462 10.0957 11.0965 10.2069 10.4443C10.2993 9.90242 10.3797 9.35879 10.4525 8.81407C10.517 8.33043 10.5733 7.8457 10.6199 7.35995C10.6408 7.14218 10.6603 6.9239 10.6688 6.70538C10.7007 5.88535 10.3881 5.22505 9.71282 4.75742C9.02585 4.28169 8.15435 4.34563 7.51543 4.89785C7.07345 5.27981 6.82105 5.76471 6.75445 6.34423C6.73582 6.50606 6.74383 6.66966 6.75513 6.83208C6.78151 7.21261 6.82054 7.59204 6.86303 7.97122C6.91454 8.43102 6.9738 8.88972 7.03939 9.34759C7.09781 9.75541 7.16264 10.1622 7.23252 10.5684C7.32652 11.1146 7.43189 11.6585 7.557 12.1985C7.67982 12.7286 7.81782 13.2543 8.01888 13.7614C8.02503 13.7768 8.03464 13.7916 8.02529 13.8101L8.0252 13.8102Z" fill="#FE0000"/>
<path d="M8.70761 14.0197C8.7329 14.0197 8.75811 14.0197 8.7834 14.0197C9.3365 14.0197 9.88968 14.0197 10.4428 14.0197C10.4624 14.0197 10.4821 14.0202 10.5017 14.0199C10.5362 14.0193 10.5542 14.0365 10.555 14.0703C10.5587 14.2384 10.572 14.4071 10.5311 14.5728C10.4889 14.7441 10.4455 14.9151 10.4021 15.0861C10.0827 16.3437 9.76323 17.6013 9.44373 18.859C9.40512 19.011 9.36449 19.1625 9.32849 19.3151C9.31736 19.3624 9.29578 19.378 9.2479 19.3777C8.88852 19.3751 8.52915 19.3742 8.16986 19.3751C8.12282 19.3752 8.10857 19.3554 8.09821 19.3137C8.02233 19.0097 7.94368 18.7062 7.86638 18.4025C7.55995 17.1985 7.25486 15.9941 6.94624 14.7906C6.8938 14.5861 6.8503 14.3821 6.8584 14.1695C6.86396 14.0229 6.86219 14.0228 7.00643 14.0228C7.54266 14.0228 8.07898 14.0228 8.61522 14.0228C8.64608 14.0228 8.67693 14.0228 8.70778 14.0228C8.70778 14.0217 8.70778 14.0206 8.70778 14.0195L8.70761 14.0197Z" fill="#CCCCCC"/>
<path d="M15.4912 7.47074C15.6021 7.45625 15.7128 7.4394 15.8233 7.42129C16.2569 7.3501 16.6484 7.19501 16.9465 6.85509C17.0696 6.71457 17.1735 6.56049 17.2344 6.38383C17.444 5.77627 17.3232 5.23012 16.8887 4.76535C16.5217 4.37277 16.0552 4.21482 15.5215 4.29047C15.0806 4.35298 14.7292 4.57487 14.4706 4.93763C14.4319 4.99171 14.3938 5.01479 14.3269 5.01328C14.1333 5.00881 13.9395 5.01176 13.7458 5.01159C13.7234 5.01159 13.7004 5.01285 13.6788 5.00822C13.6434 5.00055 13.6343 4.97949 13.65 4.94605C13.8944 4.42467 14.2653 4.02704 14.7917 3.78155C15.1174 3.62958 15.4609 3.55991 15.8191 3.56917C16.0991 3.57634 16.3706 3.63303 16.6287 3.74339C17.2284 3.99991 17.6542 4.42972 17.8882 5.03863C18.1106 5.61722 18.0938 6.19614 17.8492 6.76579C17.7019 7.10908 17.4783 7.39627 17.1881 7.6319C16.9933 7.78994 16.8842 7.99482 16.8569 8.2441C16.8425 8.37484 16.8469 8.5071 16.8136 8.63642C16.7409 8.91914 16.5889 9.14727 16.3554 9.32165C16.3329 9.33842 16.309 9.35325 16.2868 9.37026C16.2086 9.43041 16.1662 9.50867 16.167 9.60884C16.1674 9.6593 16.1649 9.70993 16.1676 9.76031C16.17 9.80361 16.1545 9.82071 16.1102 9.8197C16.0176 9.8176 15.9249 9.81911 15.8323 9.81911C15.6245 9.81911 15.4167 9.81911 15.209 9.81911C15.1127 9.81911 15.1194 9.82358 15.1192 9.72611C15.1191 9.68685 15.1208 9.64742 15.1187 9.60825C15.1131 9.50413 15.0721 9.4182 14.9824 9.36049C14.76 9.21736 14.5985 9.01871 14.5088 8.77525C14.4229 8.54198 14.397 8.29591 14.4798 8.05076C14.5271 7.91083 14.6103 7.79718 14.7304 7.71126C14.8985 7.59087 15.0909 7.53544 15.2921 7.50292C15.3293 7.49694 15.4561 7.47563 15.4914 7.47099L15.4912 7.47074Z" fill="#FFC300"/>
<path d="M16.4608 14.8757C16.4397 14.8743 16.4332 14.8565 16.4222 14.8446C16.2797 14.6897 16.1039 14.6101 15.8926 14.6104C15.7326 14.6106 15.5726 14.6126 15.4126 14.6099C15.1883 14.606 15.0022 14.6859 14.8539 14.854C14.8465 14.8624 14.8402 14.8718 14.831 14.884C14.7876 14.8457 14.7671 14.7992 14.7426 14.7565C14.5162 14.3624 14.3563 13.9418 14.2476 13.5013C14.2093 13.3461 14.1803 13.1893 14.1628 13.0301C14.1102 12.5548 14.2591 12.1403 14.5426 11.7664C14.6259 11.6565 14.7238 11.5598 14.8326 11.4747C14.8543 11.4576 14.8739 11.4365 14.906 11.4297C14.9275 11.456 14.9171 11.4878 14.9172 11.5165C14.918 11.9289 14.9175 12.3413 14.918 12.7537C14.918 12.8208 14.9165 12.8883 14.9315 12.9547C14.9808 13.1729 15.1164 13.3168 15.3218 13.3937C15.5137 13.4656 15.7115 13.4732 15.9088 13.4154C16.1986 13.3305 16.3671 13.1075 16.3685 12.805C16.3705 12.3786 16.369 11.9522 16.369 11.5258C16.369 11.4956 16.369 11.4653 16.369 11.4383C16.3954 11.4256 16.4072 11.4417 16.4194 11.4513C16.802 11.752 17.0376 12.1404 17.1152 12.6222C17.1524 12.8531 17.1237 13.0812 17.0779 13.3072C16.9703 13.8389 16.7867 14.3422 16.5086 14.8096C16.4946 14.8331 16.4839 14.8594 16.4608 14.8759V14.8757Z" fill="#FE0000"/>
<path d="M15.1194 11.4668C15.1194 11.018 15.1194 10.569 15.1194 10.1202C15.1194 10.1006 15.1202 10.0809 15.1194 10.0613C15.1181 10.0284 15.1349 10.0172 15.166 10.0176C15.2445 10.0184 15.3231 10.0178 15.4016 10.0177C15.6288 10.0177 15.8561 10.0175 16.0833 10.0177C16.1659 10.0177 16.1664 10.0181 16.1665 10.0995C16.1666 10.467 16.1665 10.8345 16.1665 11.202C16.1665 11.7266 16.166 12.2513 16.167 12.7759C16.167 12.8351 16.1604 12.8935 16.1446 12.9493C16.1147 13.0546 16.0463 13.1322 15.9483 13.1792C15.7464 13.2757 15.5413 13.278 15.3398 13.1808C15.2028 13.1147 15.1255 13.0013 15.1218 12.847C15.1178 12.6815 15.1196 12.516 15.1194 12.3505C15.1191 12.0559 15.1194 11.7613 15.1194 11.4667V11.4668Z" fill="#FFC300"/>
<path d="M16.3887 15.7329C16.3887 15.8758 16.39 16.0188 16.3884 16.1617C16.3852 16.4564 16.1455 16.6543 15.9002 16.6498C15.7264 16.6466 15.5525 16.6482 15.3786 16.6466C15.1181 16.6442 14.9026 16.444 14.8963 16.1835C14.889 15.881 14.8856 15.5778 14.8973 15.2756C14.9091 14.9649 15.1744 14.8118 15.3726 14.8149C15.552 14.8176 15.7316 14.8095 15.911 14.8138C16.1687 14.8198 16.3325 14.992 16.3792 15.1956C16.388 15.2342 16.3885 15.2734 16.3886 15.3126C16.3889 15.4527 16.3887 15.5929 16.3886 15.733L16.3887 15.7329Z" fill="#CCCCCC"/>
<path d="M15.2092 7.31024C15.0353 7.34748 14.8698 7.38851 14.7201 7.47477C14.6778 7.49912 14.6729 7.46289 14.6612 7.44091C14.5615 7.25262 14.4629 7.06383 14.3638 6.87521C14.1905 6.54515 14.0193 6.2139 13.8423 5.88577C13.8 5.80709 13.8142 5.72824 13.8125 5.64837C13.8119 5.62133 13.8332 5.60853 13.8578 5.60836C13.97 5.60726 14.0821 5.60743 14.1943 5.60743C14.2301 5.60743 14.2378 5.6386 14.2515 5.66177C14.3372 5.80658 14.4224 5.95157 14.5075 6.09672C14.7317 6.47876 14.9559 6.86089 15.1799 7.24302C15.1908 7.26172 15.2067 7.27848 15.2092 7.31024Z" fill="#FFC300"/>
</svg>
