<svg width="24" height="24" viewBox="0 0 24 24" fill="none" xmlns="http://www.w3.org/2000/svg">
<circle cx="12" cy="12" r="12" fill="#151619"/>
<path d="M7.73453 10.7125H7.74264L7.88035 10.7611L8.00997 10.8097L8.14768 10.8502L8.2773 10.9069L8.41501 10.9555L8.54463 11.0041L8.68235 11.0527L8.81196 11.1013L8.94158 11.15L9.07119 11.1986L9.20891 11.2472L9.33852 11.3039L9.47624 11.3444L9.60585 11.393L9.74357 11.4416L9.87318 11.4983L10.0109 11.5469L10.1405 11.5874L10.2701 11.636L10.4078 11.6927L10.5456 11.7413V11.5307V11.4983V11.3282V11.2067V11.1176V10.9069V10.7044V10.4938V10.2913V10.0725V9.87001V9.8457H10.3835H10.2296H10.2134H10.0433H9.91369H9.86508H9.69496H9.60585H9.51674H9.33852H9.28992H9.1684H8.99828H8.99018H8.98208H8.82006H8.67424H8.64994H8.47172H8.35831H8.05047H7.74264H7.73453H7.55631L7.4267 9.91051L7.11886 10.0725L6.80293 10.2426L6.48699 10.3966L6.18725 10.5586L5.87132 10.7287L5.55538 10.8826L5.24755 11.0527L4.93161 11.2148L4.62377 11.3687L4.31594 11.5388L4.0324 11.6846L4 16.3265L4.31594 16.5452L4.62377 16.7639L4.93161 16.9745L5.24755 17.2014L5.55538 17.4201L5.87132 17.6388L6.00903 17.7441L6.18725 17.5173L6.48699 17.1123L6.51939 17.0717L6.48699 17.0474L6.18725 16.8287L5.87132 16.61L5.55538 16.3913L5.24755 16.1725L4.93161 15.9457L4.8506 15.8971L4.8749 12.1383L4.93161 12.1059L5.24755 11.9519L5.55538 11.798L5.87132 11.6441L6.18725 11.4902L6.48699 11.3282L6.80293 11.1743L7.11886 11.0284L7.4267 10.8664L7.73453 10.7125Z" fill="url(#paint0_linear_2281_1966)"/>
<path d="M13.097 19.5654L12.8377 19.6707L12.5461 19.7922L12.2545 19.9056L11.9628 20.0272L11.8332 20.0758L11.6793 20.0028L11.3877 19.8489L11.096 19.7112L10.8125 19.5573L10.5209 19.4115L10.2292 19.2738L9.93761 19.1198L9.64597 18.974L9.35434 18.8282L9.0627 18.6824L8.77107 18.5285L8.49564 18.3908L8.204 18.2449L8.1716 18.2287V14.4375H7.91237H7.62074H7.3291V18.7472L7.62074 18.8849L7.91237 19.0307L8.204 19.1847L8.49564 19.3224L8.77107 19.4763L9.0627 19.6221L9.35434 19.7679L9.64597 19.9137L9.93761 20.0596L10.2292 20.2054L10.5209 20.3512L10.8125 20.5051L11.096 20.6428L11.3877 20.7967L11.6793 20.9345L11.7927 20.9993L11.9628 20.9183L12.2545 20.8129L12.5461 20.6914L12.8377 20.5699L13.1213 20.4565L13.4129 20.3431L13.1213 19.614L13.097 19.5654Z" fill="url(#paint1_linear_2281_1966)"/>
<path d="M18.2736 14.3015L18.2899 16.0837L18.2169 16.1485L17.7228 16.4887L17.2286 16.8451L16.7345 17.2016L16.2403 17.5499L15.7462 17.8983L15.2601 18.2547L14.7659 18.6031L14.4743 18.8137L14.2718 18.6598L13.7857 18.279L13.2916 17.9064L12.7974 17.5256L12.3114 17.153L12.2222 17.0882V15.1683L12.3114 15.0872L12.7974 14.5688L13.2916 14.0584L13.7857 13.54L14.2718 13.0296L14.7497 12.5273H14.2718H13.7857H13.2916H12.7974H12.3114H11.8091H11.3149H10.8289H10.3347H9.84057H9.35451H8.86035L9.35451 13.0458L9.84057 13.5562L10.3347 14.0665L10.8289 14.585L11.3149 15.0953L11.3878 15.1683V17.4932L11.8091 17.8254L12.3114 18.2061L12.7974 18.5787L13.2916 18.9595L13.7857 19.3321L14.2718 19.7129L14.45 19.8506L14.7659 19.6238L15.2601 19.2835L15.7462 18.9271L16.2403 18.5706L16.7345 18.2304L17.2286 17.874L17.7228 17.5175L18.2169 17.1773L18.7111 16.8208L19.1161 16.5211L19.1972 14.3339L18.7111 14.3177L18.2736 14.3015Z" fill="url(#paint2_linear_2281_1966)"/>
<path d="M4.80239 10.1523H4.8591L4.8672 7.77061L5.18314 7.56808L5.58008 7.33315L5.96893 7.09823L6.35777 6.8552L6.74662 6.62027L7.14357 6.37724L7.52431 6.14232L7.92126 5.90739L8.3101 5.66436L8.70705 5.42133H8.71515L9.08779 5.64006L9.48474 5.85878L9.87358 6.08561L10.2624 6.30433L10.6513 6.52306L11.0401 6.74179L11.429 6.96861L11.8097 7.18734L11.8259 7.15493L12.2148 6.45015L11.8259 6.22333L11.429 6.0046L11.0401 5.78587L10.6513 5.56715L10.2624 5.34032L9.87358 5.1216L9.48474 4.90287L9.08779 4.67605L8.70705 4.45732L8.69085 4.44922L8.3101 4.67605L7.92126 4.91907L7.52431 5.1621L7.14357 5.40513L6.74662 5.64006L6.35777 5.87498L5.96893 6.11801L5.58008 6.35294L5.18314 6.59597L4.80239 6.8309L4.40545 7.06582L4.0328 7.30075L4.0166 10.1442H4.40545L4.80239 10.1523Z" fill="url(#paint3_linear_2281_1966)"/>
<path d="M20.0328 7.9745L19.8302 7.81249L19.6277 7.65047L19.4252 7.48035L19.2227 7.31833L19.0201 7.15631L18.8095 6.99429L18.607 6.83227L18.4045 6.67025L18.1938 6.50013L18.0399 6.38672L17.9832 6.45153L17.7807 6.70266L17.5782 6.96189L17.5215 7.02669L17.5782 7.0834L17.7807 7.25352L17.9832 7.42364L18.1938 7.59376L18.4045 7.76388L18.607 7.9421L18.8095 8.11222L19.0201 8.28234L19.1174 8.36335L19.1255 12.1951L19.0201 12.268L18.8095 12.3976L18.607 12.5272L18.4045 12.6568L18.1938 12.7865L17.9832 12.9161L17.7807 13.0457L17.5782 13.1753L17.3756 13.3049L17.1731 13.4345L16.9706 13.5642L16.76 13.6938L16.5575 13.8234L16.3549 13.953L16.1524 14.0826L15.9418 14.2122L15.7393 14.3418L15.9418 14.6659L16.1524 14.9899L16.1848 15.0466L16.3549 14.9413L16.5575 14.8198L16.76 14.6902L16.9706 14.5687L17.1731 14.431L17.3756 14.3094L17.5782 14.1798L17.7807 14.0583L17.9832 13.9287L18.1938 13.8072L18.4045 13.6695L18.607 13.548L18.8095 13.4183L19.0201 13.2968L19.2227 13.1672L19.4252 13.0457L19.6277 12.908L19.8302 12.7865L20.0328 12.6568V7.9745Z" fill="url(#paint4_linear_2281_1966)"/>
<path d="M13.3485 10.2584V10.4691V10.6797V10.8903V11.109V11.3278V11.5384V11.749V11.911L13.4133 11.8867L13.6888 11.7814L13.9642 11.668L14.2315 11.5627L14.507 11.4493L14.7824 11.3359L15.0497 11.2306L15.3252 11.1171L15.6006 11.0118L15.8679 10.8984L16.1434 10.7931L16.4107 10.6797V10.4691V10.3881V9.8291V5.66521L16.1028 5.47079L15.7869 5.29257L15.471 5.11435L15.1631 4.91992L14.8472 4.7417L14.5313 4.56348L14.2234 4.37716L13.9075 4.19084L13.5997 4.00452L13.2837 3.8263L12.9678 3.63997L12.6599 3.45365L12.3521 3.27543L12.0362 3.09721L11.8661 3L11.7202 3.08101L11.4043 3.25113L11.0884 3.41315L10.7886 3.59137L10.4727 3.76149L10.1568 3.92351L9.84082 4.10173L10.1568 4.27995L10.4727 4.45817L10.6671 4.57968L10.7886 4.51488L11.0884 4.35286L11.4043 4.18274L11.7202 4.02072L11.8418 3.95591L12.0362 4.06932L12.3521 4.24755L12.6599 4.42577L12.9678 4.61209L13.2837 4.79841L13.5997 4.97663L13.9075 5.16295L14.2234 5.34927L14.5313 5.52749L14.8472 5.70572L15.1631 5.90014L15.471 6.07836L15.5763 6.13507V9.8291H15.5034H15.471H15.3252H15.1631H15.1469H14.9606H14.8472H14.7824H14.6042H14.5313H14.426H14.2477H14.2234H14.0695H13.9075H13.8913H13.705H13.5997H13.5267H13.389H13.3647" fill="url(#paint5_linear_2281_1966)"/>
<path d="M13.3486 11.9101L16.4108 10.6787L13.3486 9.82812" fill="url(#paint6_linear_2281_1966)"/>
<path d="M10.5451 11.9109V9.86133L7.74219 10.6957L10.5451 11.9028" fill="url(#paint7_linear_2281_1966)"/>
<defs>
<linearGradient id="paint0_linear_2281_1966" x1="7.27076" y1="9.84813" x2="7.27076" y2="17.7409" gradientUnits="userSpaceOnUse">
<stop stop-color="#F6E93D"/>
<stop offset="0.13" stop-color="#F8E330"/>
<stop offset="0.35" stop-color="#F7C730"/>
<stop offset="0.64" stop-color="#F59C2E"/>
<stop offset="0.98" stop-color="#EB5E2C"/>
<stop offset="1" stop-color="#EB5C2C"/>
</linearGradient>
<linearGradient id="paint1_linear_2281_1966" x1="10.3722" y1="14.4407" x2="10.3722" y2="20.9985" gradientUnits="userSpaceOnUse">
<stop stop-color="#F6E93D"/>
<stop offset="0.13" stop-color="#F8E330"/>
<stop offset="0.35" stop-color="#F7C730"/>
<stop offset="0.64" stop-color="#F59C2E"/>
<stop offset="0.98" stop-color="#EB5E2C"/>
<stop offset="1" stop-color="#EB5C2C"/>
</linearGradient>
<linearGradient id="paint2_linear_2281_1966" x1="14.0283" y1="12.5265" x2="14.0283" y2="19.853" gradientUnits="userSpaceOnUse">
<stop stop-color="#F6E93D"/>
<stop offset="0.13" stop-color="#F8E330"/>
<stop offset="0.35" stop-color="#F7C730"/>
<stop offset="0.64" stop-color="#F59C2E"/>
<stop offset="0.98" stop-color="#EB5E2C"/>
<stop offset="1" stop-color="#EB5C2C"/>
</linearGradient>
<linearGradient id="paint3_linear_2281_1966" x1="8.11527" y1="4.45165" x2="8.11527" y2="10.1531" gradientUnits="userSpaceOnUse">
<stop stop-color="#F6E93D"/>
<stop offset="0.13" stop-color="#F8E330"/>
<stop offset="0.35" stop-color="#F7C730"/>
<stop offset="0.64" stop-color="#F59C2E"/>
<stop offset="0.98" stop-color="#EB5E2C"/>
<stop offset="1" stop-color="#EB5C2C"/>
</linearGradient>
<linearGradient id="paint4_linear_2281_1966" x1="17.8892" y1="6.3851" x2="17.8892" y2="15.0474" gradientUnits="userSpaceOnUse">
<stop stop-color="#F6E93D"/>
<stop offset="0.13" stop-color="#F8E330"/>
<stop offset="0.35" stop-color="#F7C730"/>
<stop offset="0.64" stop-color="#F59C2E"/>
<stop offset="0.98" stop-color="#EB5E2C"/>
<stop offset="1" stop-color="#EB5C2C"/>
</linearGradient>
<linearGradient id="paint5_linear_2281_1966" x1="13.1249" y1="3" x2="13.1249" y2="11.9135" gradientUnits="userSpaceOnUse">
<stop stop-color="#F6E93D"/>
<stop offset="0.13" stop-color="#F8E330"/>
<stop offset="0.35" stop-color="#F7C730"/>
<stop offset="0.64" stop-color="#F59C2E"/>
<stop offset="0.98" stop-color="#EB5E2C"/>
<stop offset="1" stop-color="#EB5C2C"/>
</linearGradient>
<linearGradient id="paint6_linear_2281_1966" x1="14.8765" y1="9.8338" x2="14.8765" y2="11.9149" gradientUnits="userSpaceOnUse">
<stop stop-color="#F6E93D"/>
<stop offset="0.13" stop-color="#F8E330"/>
<stop offset="0.35" stop-color="#F7C730"/>
<stop offset="0.64" stop-color="#F59C2E"/>
<stop offset="0.98" stop-color="#EB5E2C"/>
<stop offset="1" stop-color="#EB5C2C"/>
</linearGradient>
<linearGradient id="paint7_linear_2281_1966" x1="9.10985" y1="11.3962" x2="9.77089" y2="9.58001" gradientUnits="userSpaceOnUse">
<stop stop-color="#F6E93D"/>
<stop offset="0.13" stop-color="#F8E330"/>
<stop offset="0.35" stop-color="#F7C730"/>
<stop offset="0.64" stop-color="#F59C2E"/>
<stop offset="0.98" stop-color="#EB5E2C"/>
<stop offset="1" stop-color="#EB5C2C"/>
</linearGradient>
</defs>
</svg>
