<svg width="24" height="24" viewBox="0 0 24 24" fill="none" xmlns="http://www.w3.org/2000/svg">
<g clip-path="url(#clip0_2370_2997)">
<path d="M11.999 24C18.6264 24 23.999 18.6274 23.999 12C23.999 5.37258 18.6264 0 11.999 0C5.37161 0 -0.000976562 5.37258 -0.000976562 12C-0.000976562 18.6274 5.37161 24 11.999 24Z" fill="url(#paint0_radial_2370_2997)"/>
<path d="M12.0055 2.59798V21.7859C11.8018 21.701 11.6396 21.6413 11.4837 21.5677C9.43917 20.5995 7.39526 19.6288 5.35073 18.66C5.08605 18.5343 4.81822 18.4142 4.54851 18.2991C4.35927 18.218 4.30583 18.1281 4.40957 17.9156C5.89518 14.8759 7.36886 11.8311 8.84819 8.78879C9.8101 6.8109 10.7752 4.83426 11.7415 2.85826C11.7918 2.75578 11.8678 2.66587 11.9313 2.57031C11.9559 2.57974 11.9804 2.58917 12.0043 2.5986L12.0055 2.59798ZM11.8062 10.4888C9.38887 13.0419 7.02747 15.5366 4.64156 18.0571C7.05577 19.1957 9.40585 20.3041 11.8062 21.4357V10.4882V10.4888ZM11.832 3.38762C11.8138 3.38008 11.7949 3.37316 11.7767 3.36562C9.53599 7.9677 7.29593 12.5692 5.05524 17.1712C5.08039 17.1901 5.10617 17.209 5.13131 17.2278C5.19544 17.1467 5.25391 17.06 5.32432 16.9845C7.24815 14.9425 9.14934 12.8791 11.1128 10.8761C11.6579 10.3197 11.8685 9.77019 11.8483 9.00632C11.7993 7.13468 11.832 5.26052 11.832 3.38762Z" fill="black"/>
<path d="M12.5117 21.774V2.61124C12.5356 2.59804 12.5595 2.58547 12.5834 2.57227C12.6488 2.66028 12.7299 2.74076 12.777 2.83821C14.2626 5.8874 15.7464 8.93785 17.2282 11.9896C18.1839 13.9574 19.1326 15.9284 20.0951 17.8924C20.2014 18.1087 20.1636 18.2062 19.9574 18.303C17.5702 19.4258 15.1862 20.5543 12.8003 21.6797C12.728 21.7137 12.6475 21.73 12.5123 21.7734L12.5117 21.774ZM12.7261 21.4358C15.1422 20.2941 17.4904 19.1838 19.8826 18.0534C17.4866 15.5216 15.1303 13.0319 12.7261 10.4914V21.4358ZM19.3916 17.1782C19.4104 17.1638 19.4299 17.1493 19.4488 17.1348C17.2169 12.546 14.985 7.95771 12.7123 3.28395C12.6922 3.4229 12.6821 3.46062 12.6821 3.49771C12.6865 5.62461 12.6878 7.7515 12.706 9.87839C12.7072 10.023 12.8009 10.1965 12.9047 10.3065C14.2023 11.6884 15.5106 13.0602 16.8133 14.4371C17.6752 15.3481 18.5322 16.2641 19.3916 17.1776V17.1782Z" fill="black"/>
<path d="M11.7497 2.42024V21.6082C11.546 21.5233 11.3838 21.4636 11.2278 21.39C9.18331 20.4218 7.1394 19.4511 5.09487 18.4823C4.83019 18.3565 4.56236 18.2365 4.29265 18.1214C4.10341 18.0403 4.04997 17.9504 4.15371 17.7379C5.63933 14.6981 7.113 11.6533 8.59233 8.61105C9.55424 6.63316 10.5193 4.65653 11.4856 2.68052C11.5359 2.57804 11.612 2.48814 11.6755 2.39258C11.7 2.40201 11.7245 2.41144 11.7484 2.42087L11.7497 2.42024ZM11.5504 10.3111C9.13301 12.8642 6.77161 15.3589 4.3857 17.8793C6.79991 19.0179 9.14999 20.1263 11.5504 21.258V10.3104V10.3111ZM11.5761 3.20989C11.5579 3.20234 11.539 3.19543 11.5208 3.18788C9.28013 7.78997 7.04007 12.3914 4.79938 16.9935C4.82453 17.0124 4.85031 17.0312 4.87545 17.0501C4.93958 16.969 4.99805 16.8822 5.06847 16.8068C6.99229 14.7648 8.89348 12.7014 10.8569 10.6983C11.402 10.1419 11.6126 9.59245 11.5925 8.82858C11.5434 6.95694 11.5761 5.08279 11.5761 3.20989Z" fill="white"/>
<path d="M12.2559 21.5957V2.43351C12.2797 2.42031 12.3036 2.40773 12.3275 2.39453C12.3929 2.48255 12.474 2.56302 12.5212 2.66047C14.0068 5.70967 15.4905 8.76012 16.9724 11.8118C17.928 13.7797 18.8767 15.7506 19.8392 17.7147C19.9455 17.931 19.9078 18.0284 19.7016 18.1252C17.3144 19.2481 14.9303 20.3766 12.5444 21.502C12.4721 21.5359 12.3917 21.5523 12.2565 21.5957H12.2559ZM12.4702 21.2574C14.8863 20.1157 17.2345 19.0054 19.6267 17.875C17.2308 15.3432 14.8744 12.8536 12.4702 10.313V21.2574ZM19.1357 16.9999C19.1546 16.9854 19.1741 16.9709 19.1929 16.9565C16.9611 12.3676 14.7292 7.77935 12.4564 3.10559C12.4363 3.24453 12.4262 3.28226 12.4262 3.31935C12.4306 5.44624 12.4319 7.57313 12.4501 9.70003C12.4514 9.84463 12.5451 10.0181 12.6488 10.1282C13.9464 11.5101 15.2548 12.8819 16.5574 14.2587C17.4194 15.1697 18.2763 16.0857 19.1357 16.9992V16.9999Z" fill="white"/>
</g>
<defs>
<radialGradient id="paint0_radial_2370_2997" cx="0" cy="0" r="1" gradientUnits="userSpaceOnUse" gradientTransform="translate(11.999 12) scale(12)">
<stop stop-color="#313131"/>
<stop offset="1" stop-color="#202020"/>
</radialGradient>
<clipPath id="clip0_2370_2997">
<rect width="24" height="24" fill="white" transform="translate(-0.000976562)"/>
</clipPath>
</defs>
</svg>
