<svg width="24" height="24" viewBox="0 0 24 24" fill="none" xmlns="http://www.w3.org/2000/svg">
<rect x="-0.000976562" width="24" height="24" rx="4" fill="#282D4B"/>
<g filter="url(#filter0_i_2370_3089)">
<path d="M4.6748 10.6484C4.6748 8.4393 6.46567 6.64844 8.6748 6.64844H23.9995V19.9991C23.9995 22.2082 22.2086 23.9991 19.9995 23.9991H4.6748V10.6484Z" fill="url(#paint0_radial_2370_3089)"/>
</g>
<path d="M8.6025 15.2852H10.5276V16.2078H7.43066V10.4062H8.6025V15.2852ZM11.6575 11.0545C11.451 11.0545 11.278 10.9908 11.1385 10.8634C11.0046 10.7304 10.9377 10.5669 10.9377 10.373C10.9377 10.179 11.0046 10.0183 11.1385 9.89089C11.278 9.7579 11.451 9.69141 11.6575 9.69141C11.864 9.69141 12.0342 9.7579 12.1681 9.89089C12.3076 10.0183 12.3773 10.179 12.3773 10.373C12.3773 10.5669 12.3076 10.7304 12.1681 10.8634C12.0342 10.9908 11.864 11.0545 11.6575 11.0545ZM12.235 11.6031V16.2078H11.0632V11.6031H12.235ZM15.3096 12.5589H14.4977V16.2078H13.3091V12.5589H12.7818V11.6031H13.3091V11.3704C13.3091 10.8052 13.4709 10.3896 13.7946 10.1236C14.1182 9.85764 14.6065 9.73296 15.2594 9.74959V10.7304C14.9748 10.7248 14.7767 10.7719 14.6651 10.8717C14.5535 10.9714 14.4977 11.1515 14.4977 11.4119V11.6031H15.3096V12.5589ZM20.1704 13.8057C20.1704 13.9719 20.1592 14.1215 20.1369 14.2545H16.747C16.7749 14.587 16.8921 14.8474 17.0985 15.0358C17.305 15.2242 17.5589 15.3184 17.8602 15.3184C18.2955 15.3184 18.6052 15.1328 18.7893 14.7615H20.0532C19.9193 15.2048 19.6626 15.5705 19.2832 15.8587C18.9037 16.1413 18.4378 16.2826 17.8853 16.2826C17.4389 16.2826 17.0371 16.1856 16.68 15.9917C16.3285 15.7922 16.0523 15.5124 15.8514 15.1522C15.6561 14.792 15.5584 14.3764 15.5584 13.9054C15.5584 13.4289 15.6561 13.0105 15.8514 12.6504C16.0467 12.2902 16.3201 12.0131 16.6717 11.8192C17.0232 11.6253 17.4278 11.5283 17.8853 11.5283C18.3262 11.5283 18.7196 11.6225 19.0655 11.8109C19.4171 11.9993 19.6877 12.268 19.8775 12.6171C20.0728 12.9607 20.1704 13.3569 20.1704 13.8057ZM18.9567 13.4732C18.9511 13.174 18.8423 12.9357 18.6303 12.7584C18.4182 12.5756 18.1588 12.4841 17.8519 12.4841C17.5617 12.4841 17.3162 12.5728 17.1153 12.7501C16.92 12.9219 16.8 13.1629 16.7554 13.4732H18.9567ZM21.3354 16.266C21.1234 16.266 20.9476 16.2022 20.8081 16.0748C20.6742 15.9418 20.6072 15.7783 20.6072 15.5844C20.6072 15.3905 20.6742 15.2298 20.8081 15.1023C20.9476 14.9693 21.1234 14.9028 21.3354 14.9028C21.5419 14.9028 21.7121 14.9693 21.846 15.1023C21.9799 15.2298 22.0469 15.3905 22.0469 15.5844C22.0469 15.7783 21.9799 15.9418 21.846 16.0748C21.7121 16.2022 21.5419 16.266 21.3354 16.266Z" fill="white"/>
<defs>
<filter id="filter0_i_2370_3089" x="4.6748" y="6.64844" width="19.8242" height="17.3516" filterUnits="userSpaceOnUse" color-interpolation-filters="sRGB">
<feFlood flood-opacity="0" result="BackgroundImageFix"/>
<feBlend mode="normal" in="SourceGraphic" in2="BackgroundImageFix" result="shape"/>
<feColorMatrix in="SourceAlpha" type="matrix" values="0 0 0 0 0 0 0 0 0 0 0 0 0 0 0 0 0 0 127 0" result="hardAlpha"/>
<feOffset dx="0.5"/>
<feGaussianBlur stdDeviation="0.25"/>
<feComposite in2="hardAlpha" operator="arithmetic" k2="-1" k3="1"/>
<feColorMatrix type="matrix" values="0 0 0 0 0.345098 0 0 0 0 0.364706 0 0 0 0 0.623529 0 0 0 1 0"/>
<feBlend mode="normal" in2="shape" result="effect1_innerShadow_2370_3089"/>
</filter>
<radialGradient id="paint0_radial_2370_3089" cx="0" cy="0" r="1" gradientUnits="userSpaceOnUse" gradientTransform="translate(20.467 19.0488) rotate(180) scale(15.7922 15.6576)">
<stop offset="0.444754" stop-color="#6B5EC8"/>
<stop offset="1" stop-color="#3F519B"/>
</radialGradient>
</defs>
</svg>
