<svg width="24" height="24" viewBox="0 0 24 24" fill="none" xmlns="http://www.w3.org/2000/svg">
<path fill-rule="evenodd" clip-rule="evenodd" d="M1.1399 13.4532C1.1399 14.3028 1.63465 15.1074 2.63915 15.902L13.9634 4.57769C14.5981 3.89304 14.843 3.12842 14.693 2.27885C14.5137 1.3765 14.0174 0.568131 13.2938 0L1.9395 11.3543C1.67485 11.6344 1.46802 11.964 1.33082 12.3241C1.19362 12.6843 1.12874 13.068 1.1399 13.4532ZM6.677 19.9408C5.68251 19.1562 5.17776 18.3416 5.18775 17.502C5.17659 17.1168 5.24147 16.7332 5.37867 16.373C5.51587 16.0128 5.72271 15.6833 5.98735 15.4031L17.3416 4.04883C18.0623 4.61653 18.5568 5.42286 18.7359 6.32268C18.8859 7.17225 18.641 7.93688 18.0063 8.62151L6.677 19.9408ZM10.7249 23.9868C9.72043 23.1922 9.22571 22.3876 9.23072 21.543C9.21956 21.1578 9.28444 20.7742 9.42162 20.414C9.5588 20.0539 9.76566 19.7243 10.0303 19.4441L21.3846 8.08984C22.1053 8.65751 22.5997 9.46384 22.7788 10.3637C22.9288 11.2133 22.6839 11.9779 22.0493 12.6625L10.7249 23.9868Z" fill="url(#paint0_linear_720_13479)"/>
<defs>
<linearGradient id="paint0_linear_720_13479" x1="3.73486" y1="13.1616" x2="13.9582" y2="21.515" gradientUnits="userSpaceOnUse">
<stop stop-color="#7EB5FF"/>
<stop offset="0.9997" stop-color="#1A38F8"/>
</linearGradient>
</defs>
</svg>
