<svg width="25" height="24" viewBox="0 0 25 24" fill="none" xmlns="http://www.w3.org/2000/svg">
<g clip-path="url(#clip0_944_926)">
<path d="M16.231 4.77539C16.7367 5.24094 17.2183 5.67439 17.724 6.13994C17.5715 6.32455 17.443 6.49312 17.3066 6.64562C15.9581 8.11452 14.6096 9.57539 13.2691 11.0443C12.8758 11.4777 12.3862 11.6543 11.8564 11.4536C10.6444 10.9961 9.82564 11.4456 9.04705 12.3928C8.06778 13.5968 6.96812 14.6965 5.92464 15.8443C5.86845 15.9005 5.80424 15.9486 5.71594 16.0289C5.21026 15.5633 4.7126 15.1138 4.1748 14.6242C4.48785 14.2871 4.77681 13.958 5.0738 13.6369C5.77213 12.8824 6.47046 12.1279 7.16076 11.3573C7.54604 10.9319 8.01159 10.8195 8.56544 10.8677C9.10323 10.9159 9.67313 10.9801 10.1868 10.8516C10.5802 10.7553 10.9654 10.4423 11.2624 10.1373C12.8517 8.44362 14.4089 6.71787 15.9822 5.00014C16.0384 4.93593 16.1106 4.87974 16.231 4.77539Z" fill="url(#paint0_linear_944_926)"/>
<path d="M23.1815 11.1973C23.6872 11.6548 24.1608 12.0882 24.6825 12.5538C24.1688 13.0755 23.7193 13.6133 23.1895 14.0468C22.9648 14.2234 22.5715 14.2394 22.2584 14.2394C21.9615 14.2394 21.6564 14.1351 21.3594 14.0548C20.7735 13.8943 20.3079 14.103 19.9227 14.5284C17.6912 16.9605 15.4598 19.4006 13.2364 21.8327C13.0678 22.0173 12.8912 22.2019 12.6986 22.4106C12.1768 21.929 11.6792 21.4715 11.1494 20.9899C11.6872 20.404 12.1929 19.8421 12.7066 19.2802C14.2558 17.5866 15.821 15.8929 17.3621 14.1912C17.7715 13.7417 18.237 13.5652 18.831 13.6535C19.0718 13.6936 19.3126 13.6936 19.5454 13.7257C20.3561 13.8381 21.0063 13.5652 21.5441 12.9471C21.9775 12.4494 22.419 11.9759 22.8605 11.4943C22.9407 11.414 23.0451 11.3257 23.1815 11.1973Z" fill="url(#paint1_linear_944_926)"/>
<path d="M19.6986 7.99414C20.14 8.39548 20.5815 8.78076 20.9989 9.19013C21.0551 9.24631 21.031 9.49514 20.9588 9.57541C20.4049 10.1854 19.819 10.7634 19.2571 11.3734C18.9521 11.7025 18.6711 12.0637 18.3822 12.4089C18.0049 12.8584 17.4912 13.0189 16.9695 12.8343C15.8216 12.4249 15.027 12.7781 14.2484 13.7012C12.6751 15.5553 10.9815 17.3052 9.33601 19.0951C9.3039 19.1353 9.25574 19.1594 9.1835 19.2155C8.67782 18.75 8.18016 18.3005 7.65039 17.8109C8.20424 17.2008 8.72598 16.6229 9.25574 16.045C10.2511 14.9614 11.2464 13.8778 12.2337 12.7941C12.5708 12.4249 12.9561 12.2162 13.4698 12.2724C13.8551 12.3125 14.2404 12.3446 14.6256 12.3687C15.3159 12.4089 15.8778 12.1359 16.3353 11.6383C17.4109 10.4664 18.4705 9.28645 19.546 8.11454C19.5862 8.06638 19.6343 8.0423 19.6986 7.99414Z" fill="url(#paint2_linear_944_926)"/>
<path d="M2.24817 12.8269C1.72643 12.3533 1.24482 11.9038 0.707031 11.4142C1.26088 10.8282 1.77459 10.2583 2.33646 9.72853C2.65753 9.42352 3.099 9.46365 3.5164 9.51181C4.09432 9.57603 4.69633 9.73656 5.25017 9.43957C5.57125 9.26298 5.89232 9.03823 6.13312 8.77335C8.27626 6.46165 10.3953 4.12587 12.5224 1.80614C12.5786 1.74995 12.6348 1.69376 12.7311 1.60547C13.2207 2.05497 13.7104 2.49644 14.2321 2.97804C13.7184 3.53991 13.2288 4.07771 12.7391 4.6155C11.206 6.29309 9.67292 7.96265 8.13981 9.64024C7.75452 10.0657 7.27292 10.2744 6.73512 10.0657C5.57927 9.63221 4.72041 9.9292 3.98195 10.9165C3.48429 11.5907 2.85018 12.1767 2.24817 12.8269Z" fill="url(#paint3_linear_944_926)"/>
</g>
<defs>
<linearGradient id="paint0_linear_944_926" x1="12.7253" y1="9.70314" x2="11.0891" y2="16.0648" gradientUnits="userSpaceOnUse">
<stop stop-color="#0FAE65"/>
<stop offset="1" stop-color="#15FF90"/>
</linearGradient>
<linearGradient id="paint1_linear_944_926" x1="19.6897" y1="16.1074" x2="18.0628" y2="22.4483" gradientUnits="userSpaceOnUse">
<stop stop-color="#0FAE65"/>
<stop offset="1" stop-color="#15FF90"/>
</linearGradient>
<linearGradient id="paint2_linear_944_926" x1="16.0938" y1="12.9078" x2="14.4484" y2="19.2436" gradientUnits="userSpaceOnUse">
<stop stop-color="#0FAE65"/>
<stop offset="1" stop-color="#15FF90"/>
</linearGradient>
<linearGradient id="paint3_linear_944_926" x1="9.24229" y1="6.51916" x2="7.61236" y2="12.8635" gradientUnits="userSpaceOnUse">
<stop stop-color="#0FAE65"/>
<stop offset="1" stop-color="#15FF90"/>
</linearGradient>
<clipPath id="clip0_944_926">
<rect width="24" height="24" fill="white" transform="translate(0.707031)"/>
</clipPath>
</defs>
</svg>
