<svg width="25" height="25" viewBox="0 0 25 25" fill="none" xmlns="http://www.w3.org/2000/svg">
<path d="M8.59705 17.2085C8.16614 17.1962 7.95684 16.9623 8.00609 16.5683C8.0184 16.4452 8.05534 16.3344 8.09227 16.2112C8.58474 14.4507 9.07721 12.7024 9.54505 10.9419C9.65585 10.5356 9.85284 10.3386 10.2714 10.2278C11.9951 9.79687 13.7187 9.32903 15.4423 8.88581C16.3042 8.6642 16.5504 8.92274 16.3165 9.78456C15.8609 11.5082 15.4054 13.2318 14.9622 14.9555C14.876 15.2879 14.7529 15.5341 14.3712 15.6449C12.5491 16.1374 10.7393 16.6545 8.92947 17.1469C8.80635 17.1716 8.68323 17.1839 8.59705 17.2085Z" fill="#106CFF"/>
<path d="M11.6748 1.17798C11.6502 1.36265 11.6379 1.55964 11.5887 1.74431C10.8623 4.39132 10.1236 7.03833 9.39719 9.68534C9.32332 9.9685 9.22482 10.2024 8.8801 10.2886C6.08535 11.015 3.2906 11.7414 0.49585 12.4678C0.458915 12.4801 0.409668 12.4678 0.237305 12.4431C0.42198 12.2092 0.545096 11.9999 0.705148 11.8276C3.03205 9.48835 5.35896 7.14913 7.69818 4.82223C8.79391 3.71418 9.90196 2.61844 10.9977 1.52271C11.1454 1.37497 11.3178 1.23954 11.4779 1.0918C11.5517 1.11642 11.6133 1.15336 11.6748 1.17798Z" fill="#559AFF"/>
<path d="M23.7896 13.6875C20.1454 17.3194 16.4765 20.9637 12.8076 24.6203C12.8199 24.6572 12.8446 24.6941 12.8569 24.7311C12.8569 24.6203 12.8322 24.5095 12.8569 24.411C13.5463 21.7886 14.2358 19.1785 14.9252 16.5561C15.0237 16.1991 15.2084 15.9898 15.5654 15.8913C18.2001 15.1649 20.8225 14.4385 23.4449 13.7121C23.5803 13.6875 23.7158 13.6998 23.7896 13.6875Z" fill="#0026B2"/>
<path d="M0.298863 12.8374C3.19211 12.0741 6.08535 11.3231 9.0894 10.5352C9.02784 10.8553 8.9909 11.0522 8.94166 11.2369C8.48612 12.8744 8.0429 14.5118 7.57506 16.1493C7.3042 17.1096 6.84867 17.2943 5.99917 16.7649C4.27553 15.6937 2.56421 14.6226 0.852888 13.5392C0.631278 13.4038 0.446603 13.1945 0.237305 13.0221C0.261928 12.9606 0.27424 12.899 0.298863 12.8374Z" fill="#3679FF"/>
<path d="M9.80371 9.95704C10.6286 6.9653 11.4535 4.03512 12.2907 0.994141C12.463 1.17882 12.5861 1.265 12.6477 1.36349C13.8173 3.3826 14.9992 5.40172 16.1565 7.42083C16.4766 7.97486 16.3658 8.30727 15.7995 8.45501C13.9035 8.9721 11.9952 9.45226 10.0992 9.94472C10.0499 9.96935 9.98839 9.95704 9.80371 9.95704Z" fill="#71A8FF"/>
<path d="M14.5803 16.1992C13.8047 19.1294 13.0537 21.9734 12.2658 24.9651C12.0195 24.6943 11.8472 24.5588 11.7364 24.3865C10.6406 22.6382 9.53257 20.89 8.44914 19.1294C8.00592 18.403 8.17828 17.9352 8.99085 17.7012C10.7022 17.2088 12.4135 16.7409 14.1371 16.2608C14.2356 16.2362 14.3464 16.2362 14.5803 16.1992Z" fill="#0038D6"/>
<path d="M24.0239 12.935C21.1307 13.7352 18.2498 14.5478 15.2334 15.385C15.2826 15.0772 15.3073 14.8802 15.3565 14.6955C15.7751 13.1073 16.1814 11.5191 16.6123 9.94324C16.8585 9.00756 17.3141 8.82288 18.1513 9.30304C19.9857 10.3618 21.8078 11.4206 23.6299 12.4918C23.7654 12.5656 23.8885 12.6764 24.0239 12.7626C24.0239 12.8119 24.0239 12.8734 24.0239 12.935Z" fill="#2C50FF"/>
<path d="M23.7772 12.1598C21.8196 11.0025 19.7759 9.85749 17.806 8.6017C17.2274 8.23235 16.7226 7.64139 16.3532 7.03812C15.2575 5.26524 14.2356 3.4308 13.1891 1.62099C13.1522 1.54712 13.1276 1.47325 13.0537 1.46094C16.6364 5.04363 20.2191 8.61401 23.7772 12.1598Z" fill="#0038D6"/>
<path d="M11.047 24.3249C7.68593 20.9761 4.25098 17.5658 0.803711 14.1309C0.939139 14.2047 1.08688 14.254 1.22231 14.3402C2.52734 15.1527 3.83238 15.9653 5.12511 16.7902C6.40552 17.6027 7.47663 18.6246 8.30152 19.905C9.21258 21.3209 10.0867 22.749 10.9731 24.1772C11.0224 24.2634 11.0593 24.3495 11.047 24.3249Z" fill="#559AFF"/>
</svg>
