<svg width="25" height="24" viewBox="0 0 25 24" fill="none" xmlns="http://www.w3.org/2000/svg">
<g clip-path="url(#clip0_720_13502)">
<path fill-rule="evenodd" clip-rule="evenodd" d="M13.4756 15.4753L15.2827 16.5061L22.6115 11.0866C23.6865 10.2914 24.3162 9.04608 24.3391 7.66979C24.3621 6.29363 23.7742 5.02616 22.7265 4.19279L18.6644 0.960938L13.7444 4.49664L15.3684 5.67462L18.6092 3.34558L21.6068 5.73048C22.1811 6.18739 22.5033 6.88186 22.4907 7.63617C22.4782 8.39048 22.1331 9.07306 21.5438 9.50886L13.4756 15.4753Z" fill="#038199"/>
<path fill-rule="evenodd" clip-rule="evenodd" d="M11.3791 8.54111L9.65964 7.43164L2.14226 12.8344C1.03989 13.6268 0.377198 14.9346 0.369209 16.3332C0.36148 17.7316 1.0096 19.0474 2.10308 19.8532L6.43687 23.0469L11.3791 19.3922L9.6088 18.3341L6.43505 20.6812L3.16815 18.2737C2.55999 17.8254 2.21353 17.1222 2.21788 16.3443C2.22224 15.5665 2.57643 14.8674 3.18967 14.4268L11.3791 8.54111Z" fill="#018294"/>
<path fill-rule="evenodd" clip-rule="evenodd" d="M3.16515 9.50886C2.57591 9.07306 2.23072 8.39048 2.21827 7.63617C2.20563 6.88186 2.52785 6.18739 3.10216 5.73049L6.09968 3.34559L18.1587 12.0123L19.7669 10.823L6.04472 0.960938L1.9825 4.19279C0.93472 5.02616 0.346932 6.29363 0.369783 7.66979C0.392755 9.04608 1.02244 10.2914 2.09748 11.0866L3.31864 11.9896L4.94205 10.8228L3.16515 9.50886Z" fill="#4DBEC8"/>
<path fill-rule="evenodd" clip-rule="evenodd" d="M22.5665 12.8356L21.3902 11.9902L19.7819 13.1795L21.519 14.428C22.1323 14.8688 22.4865 15.5677 22.491 16.3456C22.4954 17.1235 22.149 17.8267 21.5407 18.2749L18.2738 20.6824L6.55017 12.0127L4.92676 13.1795L18.272 23.0482L22.6058 19.8545C23.6993 19.0486 24.3474 17.7329 24.3395 16.3345C24.3317 14.9359 23.6688 13.628 22.5665 12.8356Z" fill="#4DBEC8"/>
</g>
<defs>
<clipPath id="clip0_720_13502">
<rect width="24" height="24" fill="white" transform="translate(0.369141)"/>
</clipPath>
</defs>
</svg>
