<svg width="24" height="24" viewBox="0 0 24 24" fill="none" xmlns="http://www.w3.org/2000/svg">
<g clip-path="url(#clip0_2563_2567)">
<path d="M10.2897 21.5442C15.9628 21.5442 20.5618 16.9452 20.5618 11.2721C20.5618 5.59898 15.9628 1 10.2897 1C4.61655 1 0.0175781 5.59898 0.0175781 11.2721C0.0175781 16.9452 4.61655 21.5442 10.2897 21.5442Z" fill="#2EB6EA"/>
<path d="M10.2335 21.5436C0.0172151 21.5436 -4.01483 8.10351 5.00921 2.43945C3.93604 13.6726 9.64489 13.9211 14.9425 13.6726C23.8195 13.2563 23.8254 21.5436 23.8254 21.5436H10.2335Z" fill="#1542CD"/>
<path fill-rule="evenodd" clip-rule="evenodd" d="M19.9991 14.6328C18.4537 18.5937 14.6533 21.4261 10.1758 21.5522C10.281 21.5551 10.3869 21.5566 10.4935 21.5566H24.0001C24.0001 21.5566 23.9966 16.6992 19.9991 14.6328Z" fill="#745DDF"/>
</g>
<defs>
<clipPath id="clip0_2563_2567">
<rect width="24" height="24" fill="white"/>
</clipPath>
</defs>
</svg>
