<svg width="24" height="24" viewBox="0 0 24 24" fill="none" xmlns="http://www.w3.org/2000/svg">
<path d="M14.4203 2.20304L12.1519 4.47139L12.6177 4.93722C12.6799 5.00029 12.754 5.05037 12.8357 5.08456C12.9174 5.11874 13.0051 5.13635 13.0937 5.13635C13.1822 5.13635 13.2699 5.11874 13.3516 5.08456C13.4333 5.05037 13.5074 5.00029 13.5696 4.93722L15.838 2.66886L15.3722 2.20304C15.31 2.13997 15.2359 2.08988 15.1542 2.0557C15.0725 2.02151 14.9848 2.00391 14.8962 2.00391C14.8076 2.00391 14.7199 2.02151 14.6382 2.0557C14.5565 2.08988 14.4824 2.13997 14.4203 2.20304ZM8.6481 2.20304L8.10127 2.66886L10.4709 4.93722C10.5313 4.99969 10.6037 5.04937 10.6837 5.0833C10.7638 5.11723 10.8498 5.13471 10.9367 5.13471C11.0236 5.13471 11.1097 5.11723 11.1897 5.0833C11.2697 5.04937 11.3421 4.99969 11.4025 4.93722L11.8684 4.47139L9.57975 2.20304C9.51931 2.14056 9.44693 2.09088 9.3669 2.05695C9.28688 2.02303 9.20085 2.00554 9.11392 2.00554C9.027 2.00554 8.94097 2.02303 8.86094 2.05695C8.78092 2.09088 8.70854 2.14056 8.6481 2.20304ZM16.5671 5.18025L12.2532 9.49418L13.1241 10.3853C13.3624 10.6179 13.6822 10.7481 14.0152 10.7481C14.3482 10.7481 14.668 10.6179 14.9063 10.3853L19.2203 6.05114L18.3494 5.18025C18.1145 4.94896 17.798 4.81931 17.4684 4.81931C17.1387 4.81931 16.8222 4.94896 16.5873 5.18025H16.5671ZM5.65063 5.18025L4.77975 6.05114L9.09367 10.3651C9.20896 10.4851 9.34733 10.5807 9.50047 10.6459C9.6536 10.7112 9.81835 10.7448 9.98481 10.7448C10.1513 10.7448 10.316 10.7112 10.4692 10.6459C10.6223 10.5807 10.7607 10.4851 10.8759 10.3651L11.7468 9.49418L7.43291 5.18025C7.19458 4.94768 6.87477 4.81749 6.54177 4.81749C6.20877 4.81749 5.88896 4.94768 5.65063 5.18025ZM11.5241 5.07899L11.0785 5.54481L12.0101 6.47646L12.9418 5.54481L12.4759 5.07899C12.4155 5.01651 12.3431 4.96683 12.2631 4.9329C12.1831 4.89898 12.097 4.88149 12.0101 4.88149C11.9232 4.88149 11.8372 4.89898 11.7571 4.9329C11.6771 4.96683 11.6047 5.01651 11.5443 5.07899H11.5241ZM19.6253 9.39291L12.4354 16.5625L13.8734 18.0208C14.0629 18.2231 14.2918 18.3844 14.5461 18.4947C14.8005 18.605 15.0747 18.6619 15.3519 18.6619C15.6291 18.6619 15.9033 18.605 16.1576 18.4947C16.412 18.3844 16.6409 18.2231 16.8304 18.0208L24 10.8511L22.562 9.39291C22.3726 9.19056 22.1436 9.02925 21.8893 8.91897C21.635 8.80869 21.3607 8.75179 21.0835 8.75179C20.8064 8.75179 20.5321 8.80869 20.2778 8.91897C20.0235 9.02925 19.7945 9.19056 19.6051 9.39291H19.6253ZM1.39747 9.39291L0 10.8309L7.16962 18.0208C7.35907 18.2231 7.58804 18.3844 7.84235 18.4947C8.09666 18.605 8.37091 18.6619 8.6481 18.6619C8.9253 18.6619 9.19954 18.605 9.45385 18.4947C9.70817 18.3844 9.93713 18.2231 10.1266 18.0208L11.5848 16.5625L4.41519 9.39291C4.22574 9.19056 3.99677 9.02925 3.74246 8.91897C3.48815 8.80869 3.2139 8.75179 2.93671 8.75179C2.65951 8.75179 2.38527 8.80869 2.13096 8.91897C1.87664 9.02925 1.64768 9.19056 1.45823 9.39291H1.39747ZM11.0582 10.6486L10.1873 11.5195L11.9494 13.2815L13.7722 11.5195L12.9013 10.6486C12.7845 10.531 12.6457 10.4377 12.4928 10.374C12.3398 10.3104 12.1758 10.2776 12.0101 10.2776C11.8445 10.2776 11.6804 10.3104 11.5275 10.374C11.3745 10.4377 11.2357 10.531 11.119 10.6486H11.0582ZM10.5316 18.4663L9.07342 19.9043L12.0101 22.841L14.9266 19.9043L13.4886 18.4663C13.2992 18.264 13.0702 18.1027 12.8159 17.9924C12.5616 17.8821 12.2873 17.8252 12.0101 17.8252C11.7329 17.8252 11.4587 17.8821 11.2044 17.9924C10.9501 18.1027 10.7211 18.264 10.5316 18.4663Z" fill="url(#paint0_linear_720_13524)"/>
<defs>
<linearGradient id="paint0_linear_720_13524" x1="8.90633" y1="14.1384" x2="28.8263" y2="14.1384" gradientUnits="userSpaceOnUse">
<stop stop-color="#7CB7FF"/>
<stop offset="1" stop-color="#BA6DF6"/>
</linearGradient>
</defs>
</svg>
