<svg width="24" height="24" viewBox="0 0 24 24" fill="none" xmlns="http://www.w3.org/2000/svg">
<g clip-path="url(#clip0_2736_2525)">
<path d="M23.5204 15.3695C22.2532 19.7375 18.6148 23.0207 14.1412 23.8271V20.4095C14.9476 20.1023 15.6772 19.6127 16.2724 18.9791C16.5988 18.6239 16.8868 18.2303 17.1076 17.8079C17.53 17.0015 17.7604 16.1087 17.7604 15.1967C17.7604 15.1871 17.7604 15.1775 17.7604 15.1679C17.7604 12.1535 15.5812 10.9439 13.5364 10.0511L12.4996 9.5903C11.3956 9.0911 10.5508 8.6495 10.5508 7.9007C10.5508 6.8543 11.4628 6.2975 12.3172 6.2975C13.2292 6.2975 13.7476 6.6335 14.2948 7.5839L14.7172 8.3231L17.4532 6.5663L17.098 5.9039C16.474 4.7135 15.4084 3.7919 14.1412 3.3503V0.220703C14.41 0.268703 14.6692 0.326303 14.938 0.393503C14.9668 0.403103 14.9956 0.403103 15.0244 0.412703C15.0532 0.422303 15.082 0.422303 15.1108 0.431903C15.1204 0.431903 15.13 0.431903 15.1396 0.441503C15.2068 0.460703 15.2836 0.479903 15.3604 0.499103C20.4868 1.9871 24.01 6.6815 24.01 12.0191C24.01 13.1519 23.8468 14.2847 23.53 15.3695H23.5204Z" fill="#745DDF"/>
<path d="M14.4 15.3312C14.4 16.704 13.1616 17.5584 12.0096 17.5584C10.6272 17.5584 9.84 16.416 9.6864 15.36L9.552 14.4384L6.24 15.3696L6.3936 16.1088C6.864 18.4416 8.4576 20.1216 10.6272 20.6208V23.9232C10.0416 23.856 9.456 23.7408 8.8896 23.5872C8.8128 23.568 8.7264 23.5488 8.6496 23.52C3.5328 22.032 0 17.3376 0 12V0.4704C0 0.2112 0.2112 0 0.4704 0H10.6272V3.3024C9.4368 3.648 8.4288 4.4352 7.7952 5.4912C7.392 6.192 7.1808 6.9792 7.1808 7.7856C7.1808 7.7952 7.1808 7.8048 7.1808 7.8144V7.8816C7.2096 10.5696 9.1872 11.7024 11.0592 12.5472L11.9904 12.9504L12.0672 12.9888C13.5456 13.6704 14.3808 14.112 14.3808 15.3216L14.4 15.3312Z" fill="#2EB6EA"/>
<path d="M17.7505 15.1672C17.7505 15.1768 17.7505 15.1864 17.7505 15.196C17.7505 16.108 17.5297 17.0008 17.0977 17.8072C16.8769 18.2296 16.5889 18.6328 16.2625 18.9784C15.6673 19.612 14.9377 20.1016 14.1313 20.4088V23.836L13.1713 23.9224C13.1713 23.9224 11.1169 23.98 10.6273 23.9224L10.6177 20.6296C8.45767 20.1208 6.86407 18.4504 6.38407 16.1176L6.23047 15.3784L9.54247 14.4472L9.67687 15.3688C9.83047 16.4248 10.6177 17.5672 12.0001 17.5672C13.1521 17.5672 14.3905 16.7128 14.3905 15.34C14.3905 14.1304 13.5553 13.6888 12.0673 13.0072L11.9905 12.9688L11.0593 12.5656C9.18727 11.7208 7.20967 10.5976 7.18087 7.90001V7.83281C7.18087 7.82321 7.18087 7.81361 7.18087 7.80401C7.18087 6.99761 7.39207 6.21041 7.79527 5.50961C8.42887 4.44401 9.43687 3.65681 10.6273 3.32081V0.0184073C12.7873 -0.000792705 12.9601 0.0088073 14.1409 0.220007V3.35921C15.4177 3.80081 16.4737 4.71281 17.0977 5.91281L17.4529 6.57521L14.7169 8.33201L14.2945 7.59281C13.7473 6.64241 13.2289 6.30641 12.3169 6.30641C11.4529 6.30641 10.5505 6.86321 10.5505 7.90961C10.5505 8.66801 11.3953 9.10961 12.4993 9.59921L13.5361 10.06C15.5809 10.9528 17.7601 12.1624 17.7601 15.1768L17.7505 15.1672Z" fill="white"/>
</g>
<defs>
<clipPath id="clip0_2736_2525">
<rect width="24" height="24" fill="white"/>
</clipPath>
</defs>
</svg>
