<svg width="24" height="24" viewBox="0 0 24 24" fill="none" xmlns="http://www.w3.org/2000/svg">
<g clip-path="url(#clip0_720_13307)">
<path d="M12 24C18.6274 24 24 18.6274 24 12C24 5.37258 18.6274 0 12 0C5.37258 0 0 5.37258 0 12C0 18.6274 5.37258 24 12 24Z" fill="url(#paint0_linear_720_13307)"/>
<path fill-rule="evenodd" clip-rule="evenodd" d="M8.50195 7.80078V16.8008H16.002L8.50195 7.80078Z" fill="url(#paint1_linear_720_13307)"/>
<path fill-rule="evenodd" clip-rule="evenodd" d="M1.00195 16.8008H8.50195V7.80078L1.00195 16.8008Z" fill="white"/>
<path fill-rule="evenodd" clip-rule="evenodd" d="M2.40039 19.1992C3.08439 20.1052 3.89439 20.9152 4.80039 21.5992H19.2004C20.1064 20.9152 20.9164 20.1052 21.6004 19.1992H2.40039Z" fill="#FC9965"/>
<path fill-rule="evenodd" clip-rule="evenodd" d="M4.7998 21.5996C6.8038 23.1056 9.2998 23.9996 11.9998 23.9996C14.6998 23.9996 17.1958 23.1056 19.1998 21.5996H4.7998Z" fill="#FF2D55"/>
<path fill-rule="evenodd" clip-rule="evenodd" d="M16.0977 12.5996V19.1996H21.5996L16.0977 12.5996Z" fill="url(#paint2_linear_720_13307)"/>
<path fill-rule="evenodd" clip-rule="evenodd" d="M16.098 16.8008H1.00195C1.37395 17.6588 1.84795 18.4628 2.39995 19.2008H16.104V16.8008H16.098Z" fill="#FFBC5B"/>
<path fill-rule="evenodd" clip-rule="evenodd" d="M10.6016 19.1996H16.0975V12.5996L10.6016 19.1996Z" fill="white"/>
<path d="M16.0977 10.8008C17.7545 10.8008 19.0977 9.45763 19.0977 7.80078C19.0977 6.14393 17.7545 4.80078 16.0977 4.80078C14.4408 4.80078 13.0977 6.14393 13.0977 7.80078C13.0977 9.45763 14.4408 10.8008 16.0977 10.8008Z" fill="#FFC95B"/>
<path d="M8.50196 6C9.33039 6 10.002 5.32843 10.002 4.5C10.002 3.67157 9.33039 3 8.50196 3C7.67353 3 7.00195 3.67157 7.00195 4.5C7.00195 5.32843 7.67353 6 8.50196 6Z" fill="#FFC95B"/>
</g>
<defs>
<linearGradient id="paint0_linear_720_13307" x1="20.4852" y1="3.5148" x2="3.5148" y2="20.4852" gradientUnits="userSpaceOnUse">
<stop stop-color="#FF2D55"/>
<stop offset="1" stop-color="#FFBC5B"/>
</linearGradient>
<linearGradient id="paint1_linear_720_13307" x1="12.2494" y1="7.80078" x2="12.2494" y2="16.8008" gradientUnits="userSpaceOnUse">
<stop stop-color="#A524B3"/>
<stop offset="1" stop-color="#FF2D55"/>
</linearGradient>
<linearGradient id="paint2_linear_720_13307" x1="18.8468" y1="12.5996" x2="18.8468" y2="19.1996" gradientUnits="userSpaceOnUse">
<stop stop-color="#A524B3"/>
<stop offset="1" stop-color="#FF2D55"/>
</linearGradient>
<clipPath id="clip0_720_13307">
<rect width="24" height="24" fill="white"/>
</clipPath>
</defs>
</svg>
