<svg width="24" height="24" viewBox="0 0 24 24" fill="none" xmlns="http://www.w3.org/2000/svg">
<path d="M22.875 11.0472C22.8612 10.5039 22.8461 9.99086 22.8461 9.48006V0H3.22702L7.03292 2.0611H20.786V9.47974C20.786 10.0195 20.8011 10.5706 20.8159 11.1027C20.8704 13.1234 20.9265 15.2127 20.1738 16.9608C18.871 19.9843 15.9034 21.939 12.6171 21.939C8.61382 21.939 5.27073 19.3665 4.29814 15.5376C4.00843 14.3942 4.04653 13.2137 4.08792 11.9619C4.10171 11.5205 4.11551 11.0646 4.11551 10.6067V5.6903L2.05539 4.60045V10.6074C2.05539 11.0318 2.04028 11.4712 2.0278 11.8956C1.98412 13.2341 1.9401 14.6189 2.30141 16.0454C3.50819 20.8028 7.65601 24 12.6168 24C16.7278 24 20.4368 21.557 22.065 17.7764C22.9995 15.6122 22.9361 13.2912 22.875 11.0472Z" fill="#34D399"/>
<path d="M6.35938 13.9271C6.35938 13.9666 6.36167 14.005 6.36628 14.0444C6.58569 15.9905 8.15246 19.6752 12.5128 19.6752C16.9378 19.6752 18.2057 15.9337 18.2589 13.955C18.2589 13.9458 18.2602 13.937 18.2602 13.9271V4.88718C18.2602 4.3176 17.7984 3.85547 17.2289 3.85547H10.3456L14.1505 5.91723H16.1991V13.9097C16.1804 14.3295 15.938 17.6138 12.5132 17.6138C9.10662 17.6138 8.50157 14.4372 8.4195 13.8608V7.96878L6.37909 6.88819C6.36758 6.95057 6.35938 7.0143 6.35938 7.08066V13.9271Z" fill="#34D399"/>
</svg>
