<svg width="25" height="24" viewBox="0 0 25 24" fill="none" xmlns="http://www.w3.org/2000/svg">
<g clip-path="url(#clip0_720_13319)">
<circle cx="12.6367" cy="12" r="12" fill="#1C68F3"/>
<path fill-rule="evenodd" clip-rule="evenodd" d="M19.8365 6.24078C19.8365 5.44549 19.1918 4.80078 18.3965 4.80078H6.87652C6.08123 4.80078 5.43652 5.44549 5.43652 6.24078V8.00078H19.8365V6.24078ZM19.8365 9.20117V13.2012H7.83652V13.2012L7.32023 13.2012C7.86668 15.6283 10.0353 17.4412 12.6274 17.4412C14.7704 17.4412 16.624 16.2021 17.5107 14.4012L19.8365 14.4012V17.7612C19.8365 18.5565 19.1918 19.2012 18.3965 19.2012H6.87652C6.08123 19.2012 5.43652 18.5565 5.43652 17.7612V9.20117H19.8365ZM16.1293 14.4004C15.3656 15.5169 14.082 16.2496 12.6272 16.2496C11.1723 16.2496 9.88867 15.5169 9.125 14.4004H16.1293ZM7.33887 12.0802C7.49413 10.9946 8.42771 10.1602 9.55619 10.1602C10.6847 10.1602 11.6182 10.9946 11.7735 12.0802L10.546 12.0802C10.4111 11.6624 10.0189 11.3602 9.55619 11.3602C9.09345 11.3602 8.7013 11.6624 8.56634 12.0802L7.33887 12.0802ZM15.7163 10.1602C14.5879 10.1602 13.6543 10.9946 13.499 12.0802L14.7265 12.0802C14.8615 11.6624 15.2536 11.3602 15.7163 11.3602C16.1791 11.3602 16.5712 11.6624 16.7062 12.0802L17.9337 12.0802C17.7784 10.9946 16.8448 10.1602 15.7163 10.1602Z" fill="white"/>
</g>
<defs>
<clipPath id="clip0_720_13319">
<rect width="24" height="24" fill="white" transform="translate(0.636719)"/>
</clipPath>
</defs>
</svg>
