<svg width="25" height="24" viewBox="0 0 25 24" fill="none" xmlns="http://www.w3.org/2000/svg">
<g clip-path="url(#clip0_720_13339)">
<path fill-rule="evenodd" clip-rule="evenodd" d="M4.3961 4.88135C4.24043 4.75845 4.06826 4.65733 3.88428 4.58113C3.62221 4.47258 3.34133 4.41671 3.05768 4.41671C2.4845 4.41671 1.93479 4.64441 1.52948 5.04971C1.12418 5.45501 0.896484 6.00472 0.896484 6.57791C0.896484 7.1511 1.12418 7.70081 1.52948 8.10611C1.71017 8.28679 1.91955 8.43218 2.14691 8.53783V15.424C1.91955 15.5296 1.71017 15.675 1.52948 15.8557C1.12418 16.261 0.896484 16.8107 0.896484 17.3839C0.896484 17.9571 1.12418 18.5068 1.52948 18.9121C1.93479 19.3174 2.4845 19.5452 3.05768 19.5452C3.56055 19.5452 4.03319 19.3736 4.40756 19.0857L12.7261 23.7523C12.7722 23.7679 12.8267 23.775 12.884 23.7727C12.9435 23.775 13.0052 23.7679 13.0669 23.7523L21.3958 19.0799C21.7754 19.3797 22.2469 19.5452 22.7354 19.5452C23.3085 19.5452 23.8581 19.3174 24.2635 18.9121C24.6689 18.5068 24.8965 17.9571 24.8965 17.3839C24.8965 16.8107 24.6689 16.261 24.2635 15.8557C24.0978 15.6901 23.9081 15.5541 23.7025 15.4512V8.51061C23.9081 8.40772 24.0978 8.27174 24.2635 8.10611C24.6689 7.70081 24.8965 7.1511 24.8965 6.57791C24.8965 6.00472 24.6689 5.45501 24.2635 5.04971C23.8581 4.64441 23.3085 4.41671 22.7354 4.41671C22.2454 4.41671 21.7725 4.58311 21.3923 4.8846L13.2489 0.363903C13.1166 0.196517 12.8768 0.157373 12.7261 0.208307L4.3961 4.88135ZM5.21434 6.82228C5.22047 6.74169 5.22169 6.65975 5.21768 6.57671C5.21768 6.29306 5.16181 6.01217 5.05327 5.75012C5.02525 5.68247 4.99386 5.61642 4.95927 5.55221L12.4405 1.35533V6.91871C12.4395 6.97886 12.4506 7.03858 12.4732 7.09436C12.4958 7.15013 12.5293 7.20077 12.5719 7.24331C12.6144 7.28586 12.6651 7.3194 12.7208 7.34197C12.7766 7.36455 12.8363 7.37567 12.8965 7.37471C13.1809 7.37471 13.3525 7.14671 13.3525 6.91871V1.35531L20.8332 5.55189C20.6646 5.86434 20.574 6.21646 20.574 6.57791C20.574 6.66072 20.5788 6.74303 20.5882 6.82449L14.0612 10.2967C13.9421 10.2144 13.8144 10.1446 13.6799 10.0889C13.4315 9.98606 13.1653 9.93311 12.8965 9.93311C12.486 9.93311 12.0883 10.0564 11.7528 10.2824L5.21434 6.82228ZM4.08131 8.48782C4.10581 8.47505 4.13003 8.46183 4.15398 8.44819L10.8493 11.9909C10.8521 12.53 11.0675 13.0465 11.4489 13.4279C11.8328 13.8118 12.3535 14.0275 12.8965 14.0275C13.1653 14.0275 13.4315 13.9746 13.6799 13.8717C13.9283 13.7688 14.154 13.618 14.3441 13.4279C14.5342 13.2378 14.685 13.0121 14.7879 12.7637C14.886 12.5267 14.9387 12.2735 14.9434 12.0172L21.6523 8.44816C21.6902 8.47015 21.7289 8.49096 21.768 8.51057V15.4513C21.5624 15.5541 21.3727 15.6901 21.207 15.8557C20.8019 16.261 20.574 16.8107 20.574 17.3839C20.574 17.745 20.6645 18.0968 20.8327 18.409L13.3525 22.6053V17.0431C13.3525 16.7575 13.1245 16.5871 12.8965 16.5871C12.6121 16.5871 12.4405 16.8139 12.4405 17.0419V22.6053L4.97952 18.4198C5.14697 18.112 5.2358 17.7586 5.21768 17.3827C5.21768 17.0991 5.16181 16.8182 5.05327 16.5561C4.94472 16.294 4.78561 16.0559 4.58504 15.8554C4.43599 15.7063 4.26623 15.5802 4.08131 15.4807V8.48782Z" fill="#AED7FD"/>
<circle cx="3.39648" cy="6.5" r="2.5" fill="#5D9BEC"/>
<circle cx="3.39648" cy="17.5" r="2.5" fill="#5D9BEC"/>
<circle cx="12.8965" cy="12" r="3" fill="#5D9BEC"/>
<circle cx="22.3965" cy="6.5" r="2.5" fill="#5D9BEC"/>
<circle cx="22.3965" cy="17.5" r="2.5" fill="#5D9BEC"/>
</g>
<defs>
<clipPath id="clip0_720_13339">
<rect width="24" height="24" fill="white" transform="translate(0.896484)"/>
</clipPath>
</defs>
</svg>
