<svg width="24" height="24" viewBox="0 0 24 24" fill="none" xmlns="http://www.w3.org/2000/svg">
<rect width="16.4819" height="16.4819" transform="matrix(-1 0 0 1 20.2412 3.75977)" fill="#F19D00"/>
<path fill-rule="evenodd" clip-rule="evenodd" d="M7.51783 1.87891H18.3612V3.75842H7.51783V1.87891ZM5.63831 5.63794V3.75842H7.51783V5.63794H5.63831ZM5.63831 18.3608H3.75879V5.63794H5.63831V18.3608ZM7.51783 20.2404H5.63831V18.3608H7.51783V20.2404ZM18.3612 20.2404V22.1199H7.51783V20.2404H18.3612ZM20.2407 18.3608H18.3612V20.2404H20.2407V18.3608ZM20.2407 5.63794H18.3612V3.75842H20.2407V5.63794ZM20.2407 5.63794V18.3608H22.1202V5.63794H20.2407Z" fill="#FFE84F"/>
<path fill-rule="evenodd" clip-rule="evenodd" d="M5.63892 1.87891H7.51844V3.75842H5.63892V1.87891ZM3.7594 5.63794V3.75842H5.63892V5.63794H3.7594ZM3.7594 18.3608H1.87988V5.63794H3.7594V18.3608ZM5.63892 20.2404H3.7594V18.3608H5.63892V20.2404ZM5.63892 20.2404H7.51844V22.1199H5.63892V20.2404ZM13.0124 9.2524H10.9883V7.37288H9.39796H7.51844V16.6259H9.39796V12.7223H10.9883V14.6018H13.0124V12.7223H14.6028V16.6259H16.4823V7.37288H14.6028H13.0124V9.2524ZM18.3618 3.75842H16.4823V5.63794H18.3618V18.3608H16.4823V20.2404H18.3618V18.3608H20.2413V5.63794H18.3618V3.75842Z" fill="#A1472A"/>
<path fill-rule="evenodd" clip-rule="evenodd" d="M18.3614 0H5.63855V1.87952H3.75904V3.75904H1.87952V5.63855H0V18.3614H1.87952V20.241H3.75904V22.1205H5.63855V24H18.3614V22.1205H20.241V20.241H22.1205V18.3614H24V5.63855H22.1205V3.75904H20.241V1.87952H18.3614V0ZM18.3614 1.87952V3.75904H20.241V5.63855H22.1205V18.3614H20.241V20.241H18.3614V22.1205H5.63855V20.241H3.75904V18.3614H1.87952V5.63855H3.75904V3.75904H5.63855V1.87952H18.3614Z" fill="#451834"/>
</svg>
