<svg width="24" height="24" viewBox="0 0 24 24" fill="none" xmlns="http://www.w3.org/2000/svg">
<path d="M23.9974 12.0433C23.8569 5.19215 18.2873 -0.229143 11.5836 0.00745984C5.04055 0.233775 -0.137703 5.85052 0.00279258 12.568C0.103147 17.5264 3.06358 21.744 7.22825 23.5957C7.82033 22.8242 8.31209 21.4457 8.55293 20.6742C8.79377 20.0467 9.05471 19.4294 9.32567 18.8328C10.54 19.2648 12.1757 18.8534 13.0789 17.8555L13.119 17.8144C12.0352 17.3309 10.54 17.5778 9.55649 18.3596C9.88763 17.6498 10.2489 16.9606 10.6202 16.2919C11.8144 16.7857 13.4703 16.4462 14.4036 15.4998L14.4437 15.4586C13.4 14.934 11.9248 15.0986 10.9112 15.7981C11.2826 15.1706 11.6639 14.5534 12.0653 13.9773C13.3097 14.3682 14.9454 13.8847 15.7985 12.8457L15.8286 12.8046C14.815 12.4034 13.4903 12.64 12.547 13.3189C12.5771 13.2778 12.6173 13.2264 12.6474 13.1852C12.8882 12.8663 13.1391 12.5474 13.39 12.2388C14.8551 11.817 16.1597 10.2842 16.3705 8.70004L16.3805 8.63829H16.3705C14.8551 8.94692 13.4502 10.4797 13.1692 12.0948C12.9284 12.3931 12.6875 12.6915 12.4567 13C12.8381 11.9508 12.7678 10.6649 12.2159 9.78019L12.1858 9.82133C11.3528 10.9015 11.2223 12.6606 11.8646 13.8333C11.4833 14.3888 11.1119 14.9546 10.7607 15.5512C10.9815 14.3579 10.6102 12.9692 9.78731 12.1874L9.76721 12.2388C9.22529 13.4835 9.51635 15.2015 10.4095 16.1787C10.0582 16.8063 9.72707 17.4543 9.40595 18.123C9.59663 16.8783 9.16511 15.4381 8.30207 14.6666L8.28197 14.718C7.79027 16.0245 8.17157 17.7938 9.12497 18.7402C8.91419 19.2032 8.71349 19.666 8.52281 20.1495C8.47265 20.0981 8.41241 20.0672 8.34221 20.0364C8.09129 19.9644 7.75013 19.8306 7.36877 19.5941C7.11785 19.4398 6.84689 19.3163 6.57593 19.2237C5.49214 18.8636 5.65271 18.3287 5.09073 17.2486C5.05059 17.1766 4.60903 16.7034 4.50868 16.6108C4.48861 16.5902 4.19758 16.4153 4.05708 16.1068C3.92662 15.8187 3.84634 15.5512 3.82627 15.294C3.78613 14.9443 3.64563 14.718 3.31447 14.5945C1.71884 14.0288 2.43135 11.9096 2.49156 11.6319C2.54174 11.3952 2.331 10.8706 2.26075 10.5826C2.25072 10.5517 2.24068 10.5106 2.23065 10.4489C2.12026 9.88302 2.37114 9.39953 2.56181 9.20413C2.75249 9.00867 3.41482 8.68977 3.55531 8.50458C3.69581 8.31945 3.79617 8.11365 3.93666 7.93879C4.12733 7.70219 4.68931 7.2393 5.46204 6.8175C5.92366 6.56035 6.00395 5.90194 6.18461 5.69621C6.48563 5.34645 6.94727 5.34645 7.28849 5.03784C7.45907 4.88354 7.70993 4.80124 7.87055 4.63664C8.66333 3.80339 9.71705 3.4742 10.7607 3.26846C11.4632 3.13473 12.2459 3.34047 12.9885 3.4742C13.0989 3.49478 13.1993 3.51536 13.2996 3.54621C14.9555 3.60794 16.9425 3.9577 17.6651 4.67779C18.1166 5.13042 18.3374 5.61392 18.4378 5.95342C18.5582 6.33401 18.7188 6.69406 18.9195 7.02323L19.361 7.76394C19.642 8.22682 19.7324 8.7926 19.6119 9.32757C19.5417 9.63614 19.5116 9.95505 19.5918 10.13C19.7324 10.4077 20.1538 10.8603 20.4047 11.1175C20.5251 11.2409 20.6657 11.3541 20.8061 11.4467C21.1473 11.6627 21.7896 12.0948 21.7896 12.1256C21.7896 12.1771 21.8398 12.3828 21.5588 12.64C21.2778 12.8972 20.7359 13.2984 20.7359 13.2984C20.7359 13.2984 20.766 13.4835 20.8362 13.6276C20.9165 13.7715 21.0972 13.9979 21.0369 14.1933C20.9767 14.3888 20.5853 14.5534 20.6957 14.7694C20.8061 14.9957 21.0871 15.0574 21.0068 15.2632C20.9265 15.4586 20.5352 15.8084 20.5753 15.9524C20.6154 16.0964 20.9366 17.4749 20.1939 17.7115C19.642 17.8967 18.1166 17.9893 17.4041 18.0304C17.093 18.051 16.8221 18.2258 16.6715 18.5036C16.5612 18.7094 16.4508 18.9974 16.4006 19.378C16.2601 20.345 15.3268 22.5773 15.3268 22.5773C15.3268 22.5773 15.2967 22.639 15.2565 22.7316C15.1763 22.9374 15.0558 23.246 15.0759 23.3797C15.086 23.462 15.1964 23.6266 15.3569 23.822C15.4874 23.9764 15.6981 24.0381 15.8888 23.9764C20.6957 22.2481 24.1077 17.5264 23.9974 12.0433Z" fill="#00DACC"/>
</svg>
