<svg width="24" height="24" viewBox="0 0 24 24" fill="none" xmlns="http://www.w3.org/2000/svg">
<path fill-rule="evenodd" clip-rule="evenodd" d="M2.18499 5.4383C2.28773 5.4383 2.38938 5.4454 2.4883 5.45905C3.04408 5.46233 3.59768 5.67578 4.02121 6.09888L9.41181 11.4834L20.2673 0.63956C21.121 -0.213187 22.5052 -0.213187 23.3588 0.63956C24.1841 1.46392 24.2114 2.78344 23.4414 3.64055L23.3594 3.7279L9.41181 17.6601L4.37096 12.625V21.8163C4.37096 23.0228 3.39274 24 2.18499 24C0.977245 24 -0.000976562 23.0228 -0.000976562 21.8163V7.62203C-0.000976562 6.41552 0.977245 5.4383 2.18499 5.4383ZM16.3938 19.6325C17.6015 19.6325 18.5798 20.6098 18.5798 21.8163C18.5798 23.0228 17.6015 24 16.3938 24C15.1861 24 14.2078 23.0228 14.2078 21.8163C14.2078 20.6098 15.1861 19.6325 16.3938 19.6325ZM16.3938 14.1732C17.6015 14.1732 18.5798 15.1504 18.5798 16.3569C18.5798 17.5635 17.6015 18.5407 16.3938 18.5407C15.1861 18.5407 14.2078 17.5635 14.2078 16.3569C14.2078 15.1504 15.1861 14.1732 16.3938 14.1732Z" fill="#64FFA1"/>
</svg>
