<svg width="25" height="24" viewBox="0 0 25 24" fill="none" xmlns="http://www.w3.org/2000/svg">
<g clip-path="url(#clip0_720_13380)">
<path d="M2.26294 18V8.58276L9.58841 13.9577V18H11.4581V13.5782C11.4577 13.4139 11.4183 13.2519 11.343 13.1049C11.2676 12.9579 11.1583 12.83 11.0237 12.7311L2.1398 6.21044C1.97731 6.09278 1.78453 6.02135 1.5829 6.00409C1.38127 5.98683 1.17867 6.02441 0.997634 6.11266C0.816594 6.20091 0.664199 6.33637 0.557386 6.50398C0.450572 6.6716 0.393523 6.8648 0.392578 7.06213V18H2.26294ZM22.5222 18V8.58276L15.1968 13.9577V18H13.3271V13.5782C13.3274 13.4139 13.3668 13.2519 13.4422 13.1049C13.5176 12.9579 13.6269 12.83 13.7615 12.7311L22.6454 6.21311C22.8077 6.09558 23.0002 6.02418 23.2016 6.00681C23.403 5.98944 23.6054 6.02679 23.7863 6.11472C23.9673 6.20264 24.1197 6.33771 24.2267 6.50494C24.3337 6.67217 24.3911 6.86503 24.3926 7.06213V18H22.5222Z" fill="url(#paint0_linear_720_13380)"/>
</g>
<defs>
<linearGradient id="paint0_linear_720_13380" x1="12.3926" y1="6" x2="12.3926" y2="18" gradientUnits="userSpaceOnUse">
<stop stop-color="#4FA89B"/>
<stop offset="1" stop-color="#6ACEBB"/>
</linearGradient>
<clipPath id="clip0_720_13380">
<rect width="24" height="24" fill="white" transform="translate(0.392578)"/>
</clipPath>
</defs>
</svg>
