<svg width="25" height="24" viewBox="0 0 25 24" fill="none" xmlns="http://www.w3.org/2000/svg">
<rect x="0.285156" width="24" height="24" rx="4" fill="#030303"/>
<path d="M6.79996 9.21741L3.97091 7.77734C3.75132 8.21141 3.56238 8.66589 3.40918 9.13059L6.42718 10.106C6.52421 9.79956 6.65187 9.50338 6.79486 9.21741H6.79996Z" fill="white"/>
<path d="M9.20133 6.67909L10.7691 9.38049C10.9989 9.24771 11.244 9.14558 11.4993 9.0792L10.6874 6.0663C10.8916 6.01013 11.101 5.96417 11.3155 5.93353L10.815 2.79297C10.335 2.86957 9.85498 2.98702 9.39028 3.13511L10.3605 6.10205C10.0541 6.20418 9.75284 6.32674 9.46177 6.47483L8.03703 3.69684C7.60297 3.91642 7.18422 4.17686 6.79102 4.46283L8.66003 7.02634C8.83366 6.89868 9.01239 6.78633 9.19623 6.67909H9.20133Z" fill="white"/>
<path d="M17.6064 8.91422L14.9102 10.4819C15.0429 10.7117 15.1451 10.9569 15.2114 11.2122L18.2243 10.4002C18.2805 10.6045 18.3265 10.8139 18.3571 11.0284L21.4926 10.5279C21.416 10.0479 21.2985 9.56787 21.1504 9.10317L18.1835 10.0734C18.0814 9.76702 17.9588 9.46574 17.8107 9.17466L20.5887 7.74992C20.3691 7.31586 20.1087 6.89711 19.8227 6.50391L17.2592 8.37803C17.3869 8.55165 17.4992 8.73039 17.6064 8.91422Z" fill="white"/>
<path d="M16.5073 3.68162C16.0733 3.46204 15.6188 3.27309 15.1541 3.125L14.1787 6.143C14.4851 6.24003 14.7813 6.36769 15.0724 6.51068L16.5124 3.68162H16.5073Z" fill="white"/>
<path d="M15.3799 6.62388L13.7969 9.37123C14.0267 9.504 14.236 9.66741 14.425 9.85125L18.8677 5.39319C18.5256 5.05105 18.1477 4.72933 17.7545 4.44336L15.9212 6.97113C15.7476 6.84346 15.5638 6.72601 15.3799 6.61877V6.62388Z" fill="white"/>
<path d="M6.90784 8.90383L9.65519 10.492C9.78796 10.2622 9.95137 10.0528 10.1352 9.86387L5.68225 5.41602C5.34011 5.76326 5.01839 6.13605 4.73242 6.52926L7.26019 8.36253C7.13253 8.53615 7.01507 8.71999 6.90784 8.90383Z" fill="white"/>
<path d="M13.2503 5.87251L13.7303 2.78813C13.2554 2.71663 12.7703 2.67578 12.2903 2.67578H12.2852V8.97222H12.2903C12.5558 8.97222 12.8162 9.00797 13.0716 9.07435L13.8835 6.00529C13.6742 5.94911 13.4648 5.90826 13.2503 5.87251Z" fill="white"/>
<path d="M9.35853 11.2194L6.28947 10.4023C6.23329 10.6117 6.19244 10.8211 6.15669 11.0356L3.07231 10.5555C2.99571 11.0305 2.95996 11.5156 2.95996 12.0007H9.2564C9.2564 11.7352 9.29215 11.4696 9.35853 11.2194Z" fill="white"/>
<path d="M17.7744 14.787L20.6035 16.227C20.8231 15.793 21.012 15.3385 21.1652 14.8738L18.1472 13.8984C18.0502 14.2048 17.9225 14.501 17.7795 14.787H17.7744Z" fill="white"/>
<path d="M15.3693 17.3264L13.8015 14.625C13.5717 14.7578 13.3266 14.8599 13.0713 14.9263L13.8832 17.9392C13.679 17.9954 13.4696 18.0413 13.2551 18.072L13.7556 21.2074C14.2356 21.1308 14.7156 21.0134 15.1803 20.8653L14.2101 17.8983C14.5165 17.7962 14.8177 17.6736 15.1088 17.5256L16.5336 20.3035C16.9676 20.084 17.3864 19.8235 17.7796 19.5376L15.9106 16.974C15.7369 17.1017 15.5582 17.214 15.3744 17.3213L15.3693 17.3264Z" fill="white"/>
<path d="M6.96425 15.089L9.66054 13.5213C9.52776 13.2915 9.42563 13.0463 9.35925 12.791L6.34635 13.603C6.29018 13.3987 6.24422 13.1893 6.21358 12.9749L3.07812 13.4753C3.15472 13.9553 3.27218 14.4353 3.42027 14.9L6.3872 13.9298C6.48934 14.2362 6.61189 14.5375 6.75999 14.8285L3.98199 16.2533C4.20158 16.6874 4.46201 17.1061 4.74798 17.4993L7.3115 15.6252C7.18383 15.4516 7.07149 15.2728 6.96425 15.089Z" fill="white"/>
<path d="M8.06663 20.3173C8.50069 20.5369 8.95518 20.7259 9.41988 20.874L10.3952 17.856C10.0888 17.7589 9.79266 17.6313 9.50159 17.4883L8.06152 20.3173H8.06663Z" fill="white"/>
<path d="M9.18996 17.3817L10.773 14.6343C10.5432 14.5015 10.3338 14.3381 10.1449 14.1543L5.70215 18.6124C6.0494 18.9545 6.42218 19.2762 6.81539 19.5622L8.64866 17.0344C8.82228 17.1621 9.00612 17.2795 9.18996 17.3868V17.3817Z" fill="white"/>
<path d="M17.6619 15.0999L14.9146 13.5117C14.7818 13.7415 14.6184 13.9509 14.4346 14.1398L18.8926 18.5877C19.2348 18.2455 19.5565 17.8677 19.8425 17.4744L17.3147 15.6412C17.4424 15.4675 17.5598 15.2837 17.667 15.0999H17.6619Z" fill="white"/>
<path d="M11.5034 14.9316L10.6914 18.0007C10.9008 18.0569 11.1101 18.0977 11.3246 18.1335L10.8446 21.2179C11.3195 21.2894 11.8046 21.3302 12.2847 21.3302H12.2898V15.0338H12.2847C12.0191 15.0338 11.7587 14.998 11.5034 14.9316Z" fill="white"/>
<path d="M15.3189 12C15.3189 12.2655 15.2832 12.5311 15.2168 12.7813L18.2859 13.5984C18.342 13.389 18.3829 13.1796 18.4186 12.9651L21.503 13.4452C21.5796 12.9703 21.6154 12.4851 21.6154 12H15.3189Z" fill="white"/>
</svg>
