<svg width="24" height="24" viewBox="0 0 24 24" fill="none" xmlns="http://www.w3.org/2000/svg">
<g clip-path="url(#clip0_2351_16722)">
<circle cx="12" cy="12" r="12" fill="url(#paint0_linear_2351_16722)"/>
<path fill-rule="evenodd" clip-rule="evenodd" d="M20.4241 14.2397C20.6137 13.5248 20.7147 12.774 20.7147 11.9994C20.7147 7.18666 16.8132 3.28516 12.0004 3.28516C7.18764 3.28516 3.28613 7.18666 3.28613 11.9994C3.28613 13.0271 3.46401 14.0131 3.7906 14.9286L9.92997 9.18945C10.1352 8.99777 10.4492 8.98354 10.671 9.15597L14.7861 12.3566L15.4587 11.1557C15.6304 10.8488 16.036 10.7684 16.3118 10.9866L20.4241 14.2397ZM20.1522 15.0862L16.0004 11.3566C16.0718 11.7374 16.1498 12.5611 15.8576 12.9994C15.6542 13.3044 15.5353 13.5734 15.5008 13.7545C15.4869 13.8278 15.4867 13.8867 15.5004 13.928L10.5718 9.57087C10.9051 10.1186 11.3433 11.5566 10.429 12.928C9.28613 14.6423 8.78613 15.4994 9.2147 17.0709C9.47656 17.8803 10.6004 19.3566 13.0004 18.7852C13.0004 18.7852 14.1433 18.3566 13.0004 17.4994C12.0861 16.8136 13.1433 16.4043 13.7861 16.2852C15.2623 16.1423 17.9432 15.7709 16.8576 15.428C15.7719 15.0851 16.2861 14.8566 16.7147 14.8566H17.7861L18.8576 14.928C18.1433 14.9043 16.5004 15.0566 17.6433 15.2852C18.7861 15.5137 18.1194 15.9043 17.6433 16.0709C16.3814 16.2614 14.0718 16.7567 14.929 17.2137C15.5993 17.5711 16.8816 18.2578 17.6134 18.6655C18.7393 17.7165 19.6212 16.4877 20.1522 15.0862Z" fill="white"/>
</g>
<defs>
<linearGradient id="paint0_linear_2351_16722" x1="12" y1="0" x2="12" y2="24" gradientUnits="userSpaceOnUse">
<stop stop-color="#138DE3"/>
<stop offset="1" stop-color="#06319B"/>
</linearGradient>
<clipPath id="clip0_2351_16722">
<rect width="24" height="24" fill="white"/>
</clipPath>
</defs>
</svg>
