<svg width="24" height="24" viewBox="0 0 24 24" fill="none" xmlns="http://www.w3.org/2000/svg">
<circle cx="12" cy="12" r="12" fill="#3D3D3D"/>
<path fill-rule="evenodd" clip-rule="evenodd" d="M6.59178 5.01705C6.59178 5.02673 6.56203 5.04149 6.52273 5.05131C6.48473 5.06078 6.43794 5.07945 6.41873 5.09276C6.39952 5.10607 6.37824 5.11697 6.37145 5.11697C6.35129 5.11697 6.22962 5.23801 6.18885 5.29865C6.1423 5.36787 6.14188 5.36863 6.10343 5.44843L6.07214 5.51343L6.06525 7.15115C6.06147 8.05192 6.05702 8.79036 6.05538 8.79213C6.05373 8.79393 5.87036 8.79548 5.64786 8.79562C5.18887 8.79586 5.01726 8.80869 4.95374 8.84748C4.9304 8.86173 4.90478 8.87338 4.89681 8.87338C4.85117 8.87338 4.64015 9.05873 4.62343 9.11346C4.61902 9.12798 4.60495 9.15153 4.59221 9.16584C4.57947 9.18012 4.5618 9.22255 4.55295 9.26006C4.54297 9.30234 4.52982 9.32831 4.51841 9.32831C4.5028 9.32831 4.5 9.47895 4.5 10.3226C4.5 11.1559 4.5029 11.317 4.51802 11.317C4.52943 11.317 4.54161 11.3444 4.55123 11.3917C4.55956 11.4328 4.57797 11.4811 4.59211 11.499C4.60624 11.5168 4.61797 11.5363 4.61811 11.5421C4.61944 11.5907 4.88669 11.8101 4.94597 11.8113C4.95756 11.8116 4.99959 11.8231 5.03941 11.8369C5.10562 11.8599 5.15139 11.8621 5.58067 11.8625C5.99585 11.8629 6.05051 11.8652 6.05758 11.8835C6.06948 11.9141 6.06682 13.3616 6.05485 13.3802C6.04705 13.3923 5.92569 13.3973 5.55842 13.4005C5.0343 13.405 5.06688 13.4013 4.90125 13.4759C4.7984 13.5223 4.66836 13.6324 4.63144 13.7043C4.62105 13.7245 4.60236 13.7546 4.5899 13.7711C4.57748 13.7877 4.56009 13.833 4.5513 13.8719C4.54164 13.9144 4.52828 13.9426 4.51764 13.9426C4.50304 13.9426 4.5 14.1131 4.5 14.9304C4.5 15.7477 4.50304 15.9182 4.51764 15.9182C4.52824 15.9182 4.54157 15.946 4.55102 15.9877C4.56999 16.0715 4.6783 16.2387 4.74759 16.2911C4.80858 16.3373 4.88095 16.3862 4.8883 16.3862C4.89138 16.3862 4.92813 16.4023 4.96994 16.4219L5.04599 16.4577L5.54918 16.4617C5.82595 16.464 6.05356 16.4669 6.05496 16.4682C6.05636 16.4696 6.06112 16.6988 6.06553 16.9776L6.07354 17.4845L6.10972 17.5662C6.19616 17.7614 6.36116 17.9203 6.51045 17.9521C6.53446 17.9572 6.55731 17.9696 6.56119 17.9796C6.57134 18.0058 8.69675 18.0073 8.69675 17.9811C8.69675 17.9719 8.72282 17.9574 8.75473 17.949C8.91756 17.906 9.11514 17.6972 9.15836 17.5225C9.16704 17.4873 9.18069 17.4503 9.1887 17.4403C9.1992 17.4271 9.20424 16.6088 9.2068 14.4966C9.20872 12.8877 9.21498 11.5666 9.22072 11.561C9.22923 11.5526 10.1966 12.5016 11.5527 13.8486C11.6841 13.9792 11.8161 14.1032 11.846 14.1242C12.0966 14.3006 12.4058 14.3081 12.6633 14.1439C12.6944 14.1241 18.2798 8.61054 18.3449 8.53545C18.3957 8.47674 18.4436 8.34204 18.4581 8.21684C18.4798 8.02931 18.4699 5.58901 18.4471 5.50693C18.4065 5.36092 18.2277 5.11728 18.1609 5.11703C18.1529 5.117 18.1311 5.10518 18.1125 5.09072C18.0939 5.07627 18.0457 5.05791 18.0054 5.04993C17.9596 5.04083 17.9322 5.02877 17.9322 5.0177C17.9322 5.0037 17.8977 5 17.7677 5C17.6398 5 17.6033 5.00384 17.6033 5.01725C17.6033 5.02724 17.5764 5.04066 17.5395 5.0491C17.4238 5.07548 17.2841 5.19707 16.7241 5.7586C16.6324 5.85053 16.5111 5.97044 16.4545 6.02503C16.3978 6.07966 16.2883 6.1876 16.2111 6.26498C15.9728 6.50368 15.9373 6.5387 15.8847 6.58776C15.8567 6.6139 15.4613 7.00435 15.006 7.45544C14.5506 7.90654 14.1569 8.2955 14.1311 8.31981C14.1052 8.34411 13.8345 8.61168 13.5293 8.91438C13.2242 9.21712 12.94 9.49803 12.8979 9.53869C12.8557 9.57932 12.7342 9.69922 12.628 9.80513C12.3868 10.0455 12.3151 10.1131 12.2817 10.1315C12.258 10.1446 12.0112 9.90473 9.70946 7.63146C8.30918 6.24848 7.154 5.11697 7.14239 5.11697C7.13077 5.11697 7.11369 5.10798 7.10445 5.09698C7.09521 5.08599 7.05304 5.06749 7.01073 5.05587C6.96601 5.04356 6.93385 5.02745 6.93385 5.01736C6.93385 5.00377 6.89676 5 6.76283 5C6.63052 5 6.59178 5.00387 6.59178 5.01705ZM17.6559 11.3298C17.5705 11.3509 17.4767 11.3892 17.4395 11.4182C17.4191 11.434 17.3966 11.447 17.3896 11.447C17.3825 11.447 17.1459 11.6736 16.8639 11.9506C16.2251 12.578 15.5377 13.2579 15.5115 13.2883C15.4797 13.3252 15.4194 13.4224 15.4194 13.4366C15.4194 13.4438 15.4061 13.4743 15.3898 13.5044L15.3602 13.5591V15.5153V17.4715L15.3898 17.5262C15.4061 17.5563 15.4194 17.5879 15.4194 17.5964C15.4194 17.6829 15.6565 17.9086 15.7884 17.9477C15.8185 17.9566 15.8461 17.9715 15.8497 17.9809C15.8593 18.0054 17.9787 18.0062 17.9885 17.9817C17.992 17.9727 18.0189 17.9582 18.0482 17.9494C18.1085 17.9312 18.1884 17.882 18.286 17.803C18.3407 17.7586 18.4424 17.5852 18.4533 17.5175C18.4582 17.4874 18.4702 17.4597 18.48 17.456C18.5063 17.446 18.5068 11.869 18.4805 11.8591C18.471 11.8555 18.4557 11.8191 18.4464 11.7783C18.4198 11.6609 18.2907 11.4921 18.1821 11.4329C18.1568 11.419 18.1272 11.4026 18.1164 11.3963C18.0077 11.3339 17.7752 11.3002 17.6559 11.3298Z" fill="#24DCDC"/>
</svg>
