<svg width="24" height="24" viewBox="0 0 24 24" fill="none" xmlns="http://www.w3.org/2000/svg">
<circle cx="12" cy="12" r="12" fill="#370000"/>
<path d="M5.94043 4.78659L6.56275 5.54701L6.80443 5.15207L7.01159 4.54407L7.39222 3.05859L6.11306 3.99165L5.94043 4.78659Z" fill="url(#paint0_linear_2279_2664)"/>
<path d="M8.60132 8.51758C8.60132 8.51758 8.39416 9.00179 8.42869 9.38158C8.46321 9.76137 8.60132 10.0039 8.60132 10.0039C8.60132 10.0039 9.32721 9.24347 9.84511 8.93274L10.3638 8.622L8.60132 8.51842V8.51758Z" fill="url(#paint1_linear_2279_2664)"/>
<path d="M12.8408 2.60185C12.8408 2.83427 13.0295 3.02206 13.261 3.02206C13.4926 3.02206 13.6812 2.83343 13.6812 2.60185C13.6812 2.37027 13.4926 2.18164 13.261 2.18164C13.0295 2.18164 12.8408 2.37027 12.8408 2.60185Z" fill="#FFFF71"/>
<path d="M16.1007 3.5179C16.1007 3.5179 16.4232 3.46064 16.435 3.27622C16.4468 3.0918 16.6539 3.39159 16.6657 3.70233L16.6775 4.01306C16.6775 4.01306 17.1382 3.49433 17.0691 3.0219C17.0001 2.54948 16.0434 1.84717 15.4102 1.78906C15.4102 1.78906 16.0089 2.53769 16.1015 3.0219C16.1942 3.50611 16.1015 3.51706 16.1015 3.51706L16.1007 3.5179Z" fill="url(#paint2_linear_2279_2664)"/>
<path d="M15.7559 7.46403C15.7559 7.46403 16.8447 7.30824 16.8961 7.17014C16.9474 7.03203 17.0763 6.06445 17.0763 6.06445C17.0763 6.06445 16.8792 6.32382 16.5971 6.70361C16.315 7.0834 15.7559 7.46403 15.7559 7.46403Z" fill="url(#paint3_linear_2279_2664)"/>
<path d="M8.42483 7.4693C9.14651 8.18341 10.6522 8.22972 11.965 8.32151C13.2787 8.4133 14.2918 9.26046 14.2918 9.26046C14.2918 9.26046 14.8627 9.48867 15.1339 9.90383C15.8682 11.5948 15.6905 11.7245 15.6956 12.5767C15.944 12.0116 16.0164 11.4727 15.8631 10.9186C16.0871 10.7459 16.3246 10.6129 16.4088 10.3148C16.3086 10.3232 16.2278 10.3341 16.1461 10.3358C15.8749 10.3434 15.6274 10.1741 15.5642 9.94256C15.4909 9.67225 15.5852 9.44067 15.8362 9.27562C16.056 9.13162 16.3608 9.15688 16.5789 9.34046C16.6446 9.3952 16.7052 9.45667 16.7996 9.54425C16.8594 9.10383 16.6076 8.91941 16.2985 8.75688C16.3937 8.61288 16.4821 8.47983 16.5789 8.33246C16.4029 8.39393 16.2446 8.47056 16.1023 8.55899C16.1217 8.54551 16.1402 8.5312 16.1562 8.51688C16.4324 8.2752 16.536 7.74467 16.536 7.74467C16.536 7.74467 16.0863 7.92909 15.3722 8.18256C14.6581 8.43604 14.1166 8.29793 14.2429 8.25162C14.3692 8.2053 14.6581 7.79099 14.6581 7.79099L13.6669 8.07899C12.6758 8.36699 11.2012 7.46846 11.2012 7.46846C11.2012 7.46846 11.8581 7.51478 12.5722 7.19225C13.2863 6.86972 13.3554 5.93667 13.16 5.38341C12.9638 4.83014 12.1579 4.58846 11.6391 5.09541C11.1204 5.60235 12.0425 6.2592 12.0425 6.2592C12.0425 6.2592 11.2248 6.91604 10.3608 5.69499C9.49683 4.47393 10.4989 3.86341 10.4989 3.86341C10.4989 3.86341 10.3263 4.12867 10.3027 4.50846C10.28 4.88825 10.8097 5.66046 10.717 5.47604C10.6252 5.29162 10.8088 4.76193 11.0741 4.52025C11.3394 4.27857 12.3179 3.95604 13.5052 4.85457C14.6918 5.75309 13.1137 7.64278 13.1137 7.64278C13.1137 7.64278 13.3444 7.6773 13.7124 7.64278C14.0812 7.60825 14.7036 6.69793 14.7036 6.69793C14.7036 6.69793 14.7036 6.78972 14.6463 6.99772C14.589 7.20488 14.4846 7.34299 14.4846 7.34299C14.4846 7.34299 15.6939 6.80151 16.3162 5.96025C16.9385 5.11899 16.3162 3.86341 16.3162 3.86341C16.3162 3.86341 16.3044 4.15141 16.1899 4.4512C16.0745 4.75099 15.4985 5.29246 15.4985 5.29246C15.4985 5.29246 15.7865 4.31309 15.5903 3.51814C15.3941 2.7232 14.7608 2.41246 14.1621 2.35435C14.8644 3.67899 12.3187 4.18593 12.2379 2.79983C12.157 1.41372 14.0577 1.61667 14.0577 1.61667C14.0577 1.61667 13.5735 1.17878 12.4332 1.09793C11.293 1.01709 10.3709 2.13457 10.3709 2.13457C10.3709 2.13457 10.3709 2.0773 10.4627 1.8693C10.5596 1.66299 11.1819 1.09878 11.1819 1.09878C11.1819 1.09878 9.85725 1.16783 9.30398 1.54846C8.75072 1.92825 8.11746 2.95393 8.23282 2.7813C8.34819 2.60867 8.95872 2.43604 8.95872 2.43604C8.55535 2.60867 8.11746 3.41541 8.11746 4.30214C8.11746 5.18888 8.42483 5.54593 8.42483 5.54593C8.42483 5.54593 8.21009 5.51141 8.0484 5.28067C7.88672 5.04993 7.77219 4.61288 7.77219 4.61288C7.77219 4.61288 7.63409 5.2352 7.65683 5.54593C7.67956 5.85667 7.70314 6.7552 8.42483 7.47014V7.4693Z" fill="url(#paint4_linear_2279_2664)"/>
<path d="M2.22756 10.4471C2.26799 10.5229 2.33283 10.608 2.40693 10.64C2.69999 10.7655 3.00146 10.8724 3.30041 10.9853C3.30799 10.9718 3.31556 10.9575 3.3223 10.944C3.43767 11.0711 3.55388 11.1983 3.66504 11.3204C3.62714 11.4173 3.59935 11.4871 3.57072 11.5613C3.83177 12.0775 4.08609 12.592 4.35556 13.0989C4.39767 13.1773 4.50462 13.221 4.58209 13.2808C4.60146 13.2648 4.62083 13.2488 4.63935 13.232C4.6343 13.1293 4.63346 13.0257 4.62335 12.9238C4.58714 12.5406 4.5442 12.1575 4.5122 11.7735C4.5063 11.7002 4.53493 11.6244 4.54841 11.5503C4.58377 11.552 4.6183 11.5528 4.65367 11.5545C4.72693 12.1693 4.8002 12.7831 4.87346 13.3979C4.8962 13.3996 4.91893 13.4021 4.94083 13.4038C4.96525 13.3381 4.98377 13.269 5.01577 13.2067C5.05535 13.1309 5.1042 13.0594 5.1522 12.9878C5.22125 12.8842 5.33072 12.7899 5.35598 12.677C5.41998 12.384 5.43009 12.0783 5.49493 11.7853C5.54883 11.5385 5.64904 11.3019 5.73325 11.0484C5.85872 11.1023 5.93367 11.1343 6.05746 11.1874C6.2722 10.9389 6.4903 10.6863 6.70588 10.4379C6.84904 10.4589 6.97198 10.4775 7.11514 10.4977C7.25662 10.2888 7.39641 10.0825 7.50083 9.92841C7.43767 9.63536 7.33493 9.40125 7.34925 9.17557C7.38041 8.7023 7.1623 8.3082 7.01746 7.88462C6.99725 8.22651 6.97788 8.56841 6.95683 8.92462C6.59556 8.78146 6.53493 8.68883 6.55177 8.38146C6.56188 8.19283 6.56777 8.00336 6.56946 7.81473C6.57198 7.45178 6.56946 7.08883 6.56946 6.73094C6.37662 6.61894 6.2562 6.48336 6.26462 6.26778C6.26883 6.16251 6.26209 6.05725 6.26967 5.95283C6.29662 5.5882 6.03809 5.3642 5.83262 5.09051C5.71893 5.45599 5.60609 5.82146 5.49241 6.18694C5.44777 5.75157 5.43598 5.32715 5.45535 4.90357C5.46041 4.78904 5.5463 4.66862 5.61788 4.56757C5.73998 4.39494 6.27809 3.32294 6.26967 3.31115C6.33788 3.13009 6.40609 2.94904 6.48272 2.74609C6.26714 2.86315 6.04988 2.94062 5.8823 3.07873C5.39051 3.48378 4.91725 3.90988 4.44146 4.3343C4.3783 4.39073 4.32356 4.4783 4.30672 4.55999C4.24525 4.85304 4.18209 5.13936 3.86546 5.30188C3.7922 6.35115 3.71977 7.39704 3.64567 8.46146C3.50756 8.50357 3.37872 8.5423 3.21956 8.59115C3.17999 7.89978 3.14209 7.24462 3.1042 6.60041C2.96525 6.67873 2.85409 6.72841 2.75641 6.7983C2.65451 6.87157 2.52735 6.94483 2.47935 7.04925C2.26293 7.51999 2.0642 7.99915 1.87388 8.48083C1.8402 8.56588 1.85199 8.68883 1.88567 8.77809C2.02967 9.15788 2.19135 9.53094 2.34377 9.90736C2.36399 9.95788 2.37156 10.0135 2.38504 10.0674C2.36651 10.0733 2.34799 10.08 2.32946 10.0859C2.14335 9.68251 1.95809 9.27915 1.75851 8.84799C1.60777 9.06694 1.58335 9.2303 1.69199 9.42315C1.88062 9.7583 2.04399 10.1086 2.22672 10.448L2.22756 10.4471Z" fill="url(#paint5_linear_2279_2664)"/>
<path d="M13.4828 17.7378C12.9127 17.4338 12.3409 17.4127 11.7758 17.7175C11.2916 17.9794 11.0516 18.403 11.0735 18.9613C11.0954 19.5163 11.4668 19.9314 11.9813 19.9727C12.1977 19.9895 12.3821 19.9289 12.5059 19.7344C12.6297 19.5399 12.6988 19.3445 12.543 19.1314C12.5152 19.0935 12.4874 19.0371 12.495 18.9959C12.5127 18.8999 12.5253 18.771 12.5893 18.7255C12.655 18.6784 12.8057 18.6767 12.8722 18.7222C12.9809 18.7971 13.0811 18.9142 13.1341 19.0354C13.3278 19.4843 13.1232 20.0333 12.6886 20.2834C12.1059 20.6186 11.2722 20.451 10.8849 19.886C10.5059 19.3335 10.3964 18.7213 10.5825 18.0645C10.7939 17.3192 11.2731 16.7862 11.8836 16.3399C12.4453 15.9298 13.0903 15.7613 13.7548 15.6443C14.1076 15.582 14.4343 15.4742 14.6937 15.2156C14.927 14.9832 15.0196 14.5554 14.8924 14.291C13.5821 15.6695 12.0419 15.9575 10.2684 15.283C10.3476 15.3698 10.4284 15.4548 10.5051 15.5441C10.8655 15.9601 10.8958 16.3087 10.5952 16.7651C10.4495 16.9866 10.287 17.198 10.1211 17.4051C9.67644 17.9601 9.27055 18.5319 9.09202 19.2392C8.89665 20.0106 8.94297 20.7559 9.29581 21.4691C9.6857 22.2565 10.3661 22.6716 11.1973 22.8535C11.9998 23.0287 12.7804 22.9765 13.4575 22.4561C13.7093 22.2624 13.9249 22.0131 14.1278 21.7655C14.9977 20.7062 15.0348 18.5672 13.4819 17.7386L13.4828 17.7378ZM10.6726 21.8893C10.3653 21.8868 10.1202 21.6199 10.1278 21.2948C10.1345 20.9815 10.3661 20.7584 10.6794 20.7634C10.9935 20.7676 11.2259 21.0093 11.2251 21.3302C11.2251 21.6443 10.98 21.8919 10.6726 21.8893Z" fill="url(#paint6_linear_2279_2664)"/>
<path d="M18.707 8.02668C18.6952 8.04099 18.6901 8.0612 18.6783 8.08563C18.7373 8.07299 18.7887 8.06205 18.819 8.05615C18.723 8.24394 18.6135 8.42247 18.536 8.61447C18.3381 9.10541 18.4948 9.63931 18.9167 9.9652C19.2956 10.2574 19.9221 10.27 20.3204 9.99215C20.5739 9.81531 20.6691 9.46584 20.5167 9.24184C20.451 9.27636 20.3861 9.31594 20.3162 9.34541C20.0299 9.46499 19.7276 9.34457 19.6181 9.0692C19.5061 8.78963 19.6316 8.49741 19.9196 8.38373C20.2177 8.26584 20.5049 8.3231 20.7609 8.49152C21.3798 8.8991 21.4101 9.99636 20.8215 10.5042C20.4628 10.814 20.0459 10.8671 19.5979 10.7534C19.1238 10.6338 18.6556 10.4486 18.1748 10.409C17.1103 10.3214 16.1226 11.081 16.5133 12.3568C16.5562 12.4966 16.6287 12.6279 16.7061 12.8056C16.744 12.7029 16.7592 12.6608 16.7811 12.5993C16.8855 12.8225 16.9823 13.022 17.0716 13.2242C17.1171 13.326 17.1541 13.433 17.1861 13.5399C17.3318 14.0309 17.1053 14.4427 16.6632 14.4957C16.371 14.5311 16.1377 14.414 16.0788 14.2027C16.0122 13.9669 16.115 13.7993 16.4106 13.6587C16.4223 13.6528 16.4316 13.641 16.4417 13.6326C16.2716 13.4507 16.0198 13.4355 15.8261 13.5922C15.4564 13.8911 15.5028 14.5387 15.9154 14.8351C16.4501 15.2191 17.2956 15.2242 17.8379 14.8435C18.0619 14.686 18.1967 14.4898 18.1815 14.1917C18.168 13.9374 18.1082 13.7134 17.9684 13.5012C17.7461 13.1644 17.6501 12.809 17.8009 12.4073C18.0308 11.7943 18.8198 11.3505 19.5634 11.454C19.3941 11.5189 19.2501 11.5745 19.1061 11.63C19.1103 11.6486 19.1146 11.6671 19.1188 11.6856C19.8026 11.7976 20.4872 11.8566 21.1558 11.5905C21.3554 11.5113 21.5592 11.4128 21.7234 11.278C22.3053 10.7989 22.5419 10.1606 22.5023 9.41699C22.4628 8.67089 22.0333 7.74289 21.1103 7.46078C20.1074 7.15426 19.3015 7.31341 18.7061 8.02752L18.707 8.02668Z" fill="url(#paint7_radial_2279_2664)"/>
<path d="M3.47414 15.4496C3.48678 15.4226 3.49941 15.3965 3.5112 15.3696C3.19625 15.0597 2.88214 14.7489 2.55372 14.4256C2.60341 14.4012 2.64635 14.3666 2.65983 14.3759C3.5272 14.946 4.47035 15.4294 4.92593 16.3978C5.26362 16.4407 5.27541 16.4399 5.47162 16.2546C5.71078 16.0289 5.94657 15.7991 6.18151 15.5683C6.34993 15.4033 6.5133 15.2332 6.66151 15.0833C6.57393 14.61 7.03878 14.1839 7.72846 14.0685C7.8413 14.1729 7.96257 14.2858 8.08804 14.4012C8.05183 14.5073 8.02151 14.5974 7.97857 14.7237C8.55878 14.7919 9.11962 14.8567 9.6813 14.9224L9.70993 14.8719C8.34741 13.7191 8.02067 12.2765 8.5293 10.5527C8.3373 10.6892 8.19836 10.7885 8.05857 10.8879C8.12088 11.266 7.93478 11.4908 7.63835 11.6449C7.60467 11.9464 7.57267 12.2369 7.54067 12.5283L7.48678 12.5325C7.32593 12.3127 7.16425 12.0929 7.00341 11.8732C6.99583 12.1603 6.81225 12.2007 6.63541 12.2033C6.47372 12.3144 6.41983 12.4424 6.47204 12.6024C6.57814 12.9249 6.51499 13.2012 6.27667 13.4454C6.19414 13.5296 6.13604 13.6374 6.06362 13.7317C6.03499 13.7687 5.99457 13.7974 5.96004 13.8294C5.95078 13.7654 5.97014 13.7292 5.98699 13.6921C6.00635 13.6517 6.02404 13.6113 6.04257 13.57C5.4792 13.9212 5.35625 14.5856 4.94278 15.0698C4.74825 14.9014 4.54951 14.7464 4.37351 14.5696C4.25309 14.4483 4.13857 14.3077 4.06614 14.1544C3.77057 13.527 3.47751 12.898 3.21309 12.258C3.05814 11.8824 2.72551 11.8235 2.41393 11.682C2.35751 11.8294 2.3112 11.9489 2.2632 12.0727C2.02741 12.0121 1.86404 11.906 1.77141 11.6921C1.67541 11.4706 1.55751 11.2584 1.4253 10.994C1.40341 11.0883 1.38825 11.1262 1.38741 11.1641C1.37225 11.8016 1.33099 12.4399 1.35709 13.0748C1.37141 13.4108 1.49941 13.7435 1.58699 14.0753C1.60299 14.1359 1.66109 14.1957 1.71414 14.2361C2.23288 14.6294 2.75414 15.0201 3.27878 15.4058C3.32846 15.442 3.4093 15.4369 3.47583 15.4513L3.47414 15.4496Z" fill="url(#paint8_radial_2279_2664)"/>
<path d="M21.042 14.4249C21.383 13.9702 21.3645 13.2241 21.0386 12.7592C20.7102 12.291 20.1755 12.1074 19.5658 12.2548C18.9367 12.4064 18.5544 13.0843 18.7843 13.6502C18.8197 13.6376 18.855 13.6249 18.8921 13.6114C18.9367 14.0401 19.1052 14.2523 19.4092 14.2725C19.6778 14.2902 19.7713 14.142 19.6668 13.9298C19.5599 13.838 19.458 13.7858 19.41 13.7024C19.3064 13.5213 19.4605 13.2957 19.703 13.246C20.1864 13.1475 20.6176 13.6047 20.5073 14.1234C20.402 14.6178 20.1308 15.0085 19.6854 15.2645C18.8946 15.7201 18.039 15.7874 17.1599 15.6637C16.7936 15.6123 16.4357 15.5037 16.071 15.438C15.682 15.3681 15.314 15.4228 15.0125 15.7066C14.7961 15.9096 14.7161 16.2683 14.8273 16.5083C14.8694 16.451 14.9106 16.3946 14.9772 16.3053C14.9772 16.4072 14.9746 16.4628 14.9772 16.5176C14.9932 16.8089 15.1329 17.0228 15.3915 17.1533C15.6483 17.283 15.9969 17.2081 16.2007 16.9891C16.3759 16.8013 16.3759 16.6371 16.2016 16.3239C16.1881 16.3003 16.1822 16.2717 16.1738 16.2489C16.1982 16.0957 16.2993 16.0308 16.4298 16.0603C16.9039 16.1681 17.3746 16.2902 17.847 16.4064C17.8445 16.4232 17.842 16.4401 17.8403 16.4569H17.5649C18.2302 16.7432 18.9005 16.8771 19.5868 16.5529C19.9414 16.3853 20.4887 15.6898 20.5174 15.3799C20.4062 15.4178 20.2959 15.4548 20.1847 15.4927C20.1763 15.4809 20.167 15.4683 20.1586 15.4565C20.1746 15.4355 20.1898 15.4136 20.2066 15.3933C20.4862 15.0717 20.7852 14.7643 21.0395 14.4241L21.042 14.4249Z" fill="url(#paint9_linear_2279_2664)"/>
<path d="M16.3288 17.8544C16.0711 17.7921 15.8042 17.7694 15.5414 17.7264C15.4311 17.7079 15.3208 17.6877 15.2122 17.6607C14.6808 17.5268 14.4484 17.254 14.3962 16.7066C14.3532 16.2603 14.1107 16.0279 13.73 16.0691C13.4479 16.0995 13.2248 16.2704 13.1625 16.5272C13.0892 16.8296 13.1962 17.0856 13.4286 17.2759C13.5566 17.3803 13.7157 17.4477 13.8639 17.526C14.7271 17.9816 15.2686 18.6611 15.357 19.659C15.3637 19.7323 15.3747 19.8047 15.3924 19.942C15.4656 19.8409 15.5178 19.7929 15.5389 19.734C15.6147 19.5251 15.6888 19.3155 15.7469 19.1007C15.8168 18.8422 15.9844 18.6898 16.2345 18.6342C16.4728 18.5811 16.6799 18.6527 16.829 18.8531C17.0791 19.1908 16.9199 19.7222 16.5258 19.8704C16.4416 19.9024 16.354 19.9243 16.2437 19.958C16.258 20.0405 16.2656 20.102 16.2799 20.1618C16.3658 20.5256 16.3178 20.8725 16.1418 21.2001C15.8968 21.6548 15.5877 21.8814 15.0454 21.6296C14.9048 21.5639 14.6926 21.6447 14.6084 21.7887C14.5157 21.9479 14.5292 22.1138 14.6749 22.2232C14.7743 22.2982 14.9157 22.363 15.0345 22.3571C15.2686 22.3454 15.506 22.3016 15.7317 22.2342C16.9326 21.8788 17.7612 20.9121 17.6888 19.5462C17.6433 18.6788 17.1743 18.059 16.3271 17.8544H16.3288Z" fill="url(#paint10_linear_2279_2664)"/>
<path d="M17.9483 9.50995C17.9836 9.45942 17.9811 9.43921 17.9735 9.42153C17.6081 8.53395 17.971 7.50827 18.8401 7.1049C19.7125 6.69984 20.6127 6.62069 21.5129 7.05016C21.5213 7.05437 21.5373 7.04174 21.5651 7.03163C21.3495 6.55416 20.9689 6.30405 20.4468 6.23584C20.4561 6.21732 20.4653 6.19879 20.4746 6.18111H20.8535C20.7769 6.09269 20.691 6.03542 20.5992 5.99332C20.2329 5.82321 19.8481 5.739 19.4759 5.77353C19.3748 5.34153 19.3116 4.92048 19.1744 4.52469C19.0295 4.10532 18.718 3.79963 18.3239 3.57227C18.3912 3.78784 18.462 3.97395 18.5057 4.16595C18.5411 4.3209 18.5352 4.48342 18.5605 4.6409C18.6262 5.04763 18.6615 5.46111 18.4645 5.83332C18.2396 6.25858 17.9601 6.65437 17.7175 7.07037C17.3293 7.73732 17.2375 8.42448 17.6401 9.1209C17.7217 9.26237 17.8439 9.38111 17.9474 9.51079L17.9483 9.50995Z" fill="url(#paint11_linear_2279_2664)"/>
<path d="M8.25744 19.6752C8.35934 19.3906 8.44018 19.1236 8.54881 18.8693C8.65913 18.6125 8.79639 18.3674 8.93365 18.0938C8.15302 18.2748 7.13155 18.9055 6.70629 19.5085C6.53786 19.7476 6.39639 20.0356 6.34418 20.3203C6.16734 21.2744 7.09197 22.1173 7.99302 21.8546C8.3686 21.7451 8.63808 21.3923 8.63471 21.015C8.63134 20.6554 8.48481 20.5089 8.0545 20.3632C7.95597 20.3295 7.83302 20.2041 7.8246 20.1114C7.81534 20.0053 7.89955 19.8681 7.98208 19.7822C8.04692 19.7148 8.17155 19.7055 8.25744 19.6752ZM7.94923 21.0622C7.93408 21.218 7.8406 21.2954 7.68565 21.2988C7.53323 21.2895 7.45071 21.2112 7.4566 21.0588C7.4625 20.9022 7.54923 20.8146 7.70671 20.8087C7.84818 20.8036 7.96271 20.9215 7.94923 21.0622Z" fill="url(#paint12_linear_2279_2664)"/>
<path d="M20.9894 16.4637C20.9666 16.4882 20.9439 16.5126 20.9228 16.5378C20.106 17.4768 18.9565 17.6882 17.855 17.1063C17.77 17.0616 17.6748 17.0237 17.5805 17.0103C17.3826 16.9816 17.1923 17.1046 17.1308 17.2806C17.0618 17.4776 17.1384 17.7168 17.3725 17.8263C17.5814 17.9239 17.8239 17.9955 18.0521 17.9955C18.3847 17.9955 18.7165 17.9147 19.0492 17.881C19.2319 17.8625 19.4433 17.8119 19.5443 18.0385C19.6134 18.1926 19.4997 18.3231 19.2235 18.4553C18.9237 18.5993 18.6441 18.7694 18.4774 19.0743C18.3064 19.3867 18.3906 19.7757 18.6803 20.0208C18.9161 20.2204 19.354 20.233 19.5814 20.0469C19.8769 19.806 19.919 19.4869 19.7077 19.1079C19.6883 19.0734 19.6799 19.0322 19.6563 18.9648C20.4437 18.7063 20.6609 18.1387 20.506 17.4254C20.7056 17.0995 20.8849 16.8056 21.0635 16.5126C21.039 16.4957 21.0138 16.4789 20.9894 16.4629V16.4637Z" fill="url(#paint13_linear_2279_2664)"/>
<path d="M6.88907 18.3773C6.91938 18.3976 6.9497 18.4178 6.97917 18.438C7.11812 18.2468 7.25707 18.0565 7.40359 17.8552C7.50465 17.9613 7.54675 18.006 7.62928 18.0936C7.70423 18.0136 7.77917 17.9555 7.82549 17.8788C8.18844 17.2776 8.5118 16.6611 8.5438 15.9344C8.55307 15.723 8.60359 15.5133 8.63559 15.3028L8.58254 15.2422C8.32401 15.3432 8.06465 15.4443 7.83138 15.5361C7.71349 16.0422 7.30086 16.262 6.9438 16.054C6.53791 16.2266 6.17244 16.4498 5.91728 16.8228C5.85412 16.9146 5.77159 16.9929 5.70338 17.0813C5.59728 17.2211 5.47433 17.2439 5.3177 17.1664C5.16696 17.0923 5.00865 17.035 4.8537 16.9702C4.83602 16.9904 4.81749 17.0098 4.7998 17.03C4.88654 17.1908 4.9337 17.4123 5.06759 17.499C5.2958 17.6464 5.57959 17.7096 5.80528 17.7955C6.23812 17.4982 6.63559 17.2253 7.03307 16.9525C7.06001 16.9693 7.0878 16.987 7.11559 17.0039C6.66086 17.4232 6.8217 17.9049 6.89075 18.3773H6.88907Z" fill="url(#paint14_linear_2279_2664)"/>
<path d="M6.30711 19.0178C6.16227 18.8654 5.98122 18.8511 5.7909 18.9159C5.76227 18.9673 5.73869 19.0094 5.71427 19.0515C5.47511 19.4633 5.06164 19.4683 4.84437 19.0431C4.75258 18.8629 4.73406 18.6439 4.68774 18.4418C4.66837 18.3559 4.66248 18.2675 4.64564 18.1479C4.14543 18.1134 3.66206 18.0806 3.17785 18.0469C3.16353 18.073 3.15006 18.0999 3.13574 18.126C3.26711 18.377 3.35974 18.6633 3.54164 18.8705C3.72858 19.0827 4.00143 19.2208 4.24227 19.3841C4.3349 19.4473 4.46627 19.4692 4.53532 19.5483C4.75848 19.801 5.03216 19.95 5.35637 20.0199C5.73701 20.1025 6.14543 19.918 6.33237 19.5745C6.42585 19.4027 6.42332 19.1416 6.30543 19.0178H6.30711Z" fill="url(#paint15_linear_2279_2664)"/>
<path d="M22.5075 12.9423C22.3138 12.661 22.2591 12.3688 22.3652 12.0471C22.4384 11.8248 22.5193 11.605 22.6077 11.3516C22.3037 11.5444 22.078 11.7751 21.8919 12.0463C21.6123 12.4522 21.6115 12.7562 21.8852 13.1688C22.158 13.5798 22.0949 14.0059 21.726 14.3309C21.5963 14.4455 21.4667 14.5692 21.374 14.7132C21.2073 14.9718 21.2662 15.2429 21.5433 15.4972C21.5147 15.1697 21.6797 14.9903 21.8944 14.8354C22.0477 14.725 22.1984 14.6105 22.3366 14.4825C22.7837 14.0674 22.8553 13.4467 22.5083 12.9431L22.5075 12.9423Z" fill="#C5FF03"/>
<path d="M3.64769 16.9529C3.81191 17.0363 3.99043 17.091 4.21527 17.1794C4.08475 16.8055 4.04012 16.4746 3.69064 16.2826C3.11548 15.9659 2.56054 15.6139 1.99548 15.2779C1.93991 15.2451 1.87675 15.2249 1.77148 15.1777C1.89191 15.667 1.9618 16.1158 2.30285 16.4662C2.44685 16.4897 2.59675 16.5142 2.79043 16.5453C2.68685 16.6346 2.63127 16.6826 2.54706 16.755C2.61275 16.819 2.6658 16.8712 2.70622 16.9099C2.78454 16.8998 2.82917 16.904 2.86538 16.888C3.13906 16.7659 3.39169 16.8224 3.64685 16.952L3.64769 16.9529Z" fill="url(#paint16_radial_2279_2664)"/>
<path d="M9.21144 15.4576C8.96723 15.5713 8.84681 15.834 8.92512 16.0647C9.0026 16.2946 9.22323 16.4134 9.49017 16.3679C9.67544 16.3367 9.78407 16.4151 9.81102 16.6037C9.81944 16.6626 9.81944 16.7224 9.82533 16.8092C10.0485 16.6407 10.1428 16.4311 10.1874 16.1953C10.2346 15.9477 10.2026 15.7102 9.98365 15.5536C9.74954 15.3852 9.48596 15.3287 9.21059 15.4567L9.21144 15.4576Z" fill="url(#paint17_linear_2279_2664)"/>
<path d="M4.99124 18.4904C4.99377 18.6512 5.12513 18.7851 5.28429 18.7877C5.45861 18.7902 5.60934 18.6462 5.61271 18.4744C5.61608 18.2925 5.49566 18.1485 5.33398 18.1409C5.15377 18.1325 4.98871 18.3009 4.99124 18.4904Z" fill="#4BFFFF"/>
<path fill-rule="evenodd" clip-rule="evenodd" d="M10.695 12.7543C11.1479 12.7543 11.4887 12.4025 11.4887 12.0006C11.4887 11.5986 11.1479 11.2468 10.695 11.2468C10.2421 11.2468 9.90137 11.5986 9.90137 12.0006C9.90137 12.4025 10.2421 12.7543 10.695 12.7543ZM10.695 13.3058C11.4392 13.3058 12.0424 12.7215 12.0424 12.0006C12.0424 11.2797 11.4392 10.6953 10.695 10.6953C9.95089 10.6953 9.34766 11.2797 9.34766 12.0006C9.34766 12.7215 9.95089 13.3058 10.695 13.3058Z" fill="url(#paint18_linear_2279_2664)"/>
<path fill-rule="evenodd" clip-rule="evenodd" d="M13.221 11.2457C12.7681 11.2457 12.4273 11.5975 12.4273 11.9994C12.4273 12.4014 12.7681 12.7532 13.221 12.7532C13.6739 12.7532 14.0146 12.4014 14.0146 11.9994C14.0146 11.5975 13.6739 11.2457 13.221 11.2457ZM13.221 10.6942C12.4769 10.6942 11.8736 11.2785 11.8736 11.9994C11.8736 12.7203 12.4769 13.3047 13.221 13.3047C13.9651 13.3047 14.5684 12.7203 14.5684 11.9994C14.5684 11.2785 13.9651 10.6942 13.221 10.6942Z" fill="url(#paint19_linear_2279_2664)"/>
<defs>
<linearGradient id="paint0_linear_2279_2664" x1="7.74758" y1="3.57981" x2="5.97916" y2="4.46402" gradientUnits="userSpaceOnUse">
<stop stop-color="#FDC256"/>
<stop offset="1" stop-color="#FC762A"/>
</linearGradient>
<linearGradient id="paint1_linear_2279_2664" x1="9.13689" y1="8.79965" x2="8.12637" y2="9.43123" gradientUnits="userSpaceOnUse">
<stop stop-color="#F6190D"/>
<stop offset="1" stop-color="#FEBE11"/>
</linearGradient>
<linearGradient id="paint2_linear_2279_2664" x1="16.2432" y1="1.78906" x2="16.2432" y2="4.01306" gradientUnits="userSpaceOnUse">
<stop stop-color="#FFFF71"/>
<stop offset="1" stop-color="#FA6F32"/>
</linearGradient>
<linearGradient id="paint3_linear_2279_2664" x1="16" y1="7" x2="17" y2="7.5" gradientUnits="userSpaceOnUse">
<stop stop-color="#CE7C08"/>
<stop offset="1" stop-color="#95D013"/>
</linearGradient>
<linearGradient id="paint4_linear_2279_2664" x1="11.7469" y1="1.26299" x2="15.7469" y2="10.3156" gradientUnits="userSpaceOnUse">
<stop offset="0.0793904" stop-color="#FFFF70"/>
<stop offset="0.235207" stop-color="#F6180C"/>
<stop offset="1" stop-color="#A7DA03"/>
</linearGradient>
<linearGradient id="paint5_linear_2279_2664" x1="7.32648" y1="8.08425" x2="5.81069" y2="8.92636" gradientUnits="userSpaceOnUse">
<stop stop-color="#FC7529"/>
<stop offset="1" stop-color="#FFF000"/>
</linearGradient>
<linearGradient id="paint6_linear_2279_2664" x1="15.3682" y1="14.19" x2="11.9577" y2="22.4848" gradientUnits="userSpaceOnUse">
<stop stop-color="#0FFF51"/>
<stop offset="0.547619" stop-color="#4AFFFF"/>
<stop offset="1" stop-color="white"/>
</linearGradient>
<radialGradient id="paint7_radial_2279_2664" cx="0" cy="0" r="1" gradientUnits="userSpaceOnUse" gradientTransform="translate(20.8004 11.2005) rotate(114.143) scale(4.30188 3.81618)">
<stop stop-color="#CAFF00"/>
<stop offset="1" stop-color="#4AFF0C"/>
</radialGradient>
<radialGradient id="paint8_radial_2279_2664" cx="0" cy="0" r="1" gradientUnits="userSpaceOnUse" gradientTransform="translate(3.07413 12.7994) rotate(45.9392) scale(5.44918 7.76422)">
<stop stop-color="#FFF001"/>
<stop offset="0.569484" stop-color="#F2AF01"/>
<stop offset="1" stop-color="#B3E5B9"/>
</radialGradient>
<linearGradient id="paint9_linear_2279_2664" x1="20.7582" y1="12.3786" x2="15.2424" y2="16.8839" gradientUnits="userSpaceOnUse">
<stop stop-color="#CBFF00"/>
<stop offset="1" stop-color="#20FF3B"/>
</linearGradient>
<linearGradient id="paint10_linear_2279_2664" x1="18.0123" y1="15.991" x2="15.6152" y2="22.1032" gradientUnits="userSpaceOnUse">
<stop stop-color="#0FFF51"/>
<stop offset="0.547619" stop-color="#4AFFFF"/>
<stop offset="1" stop-color="white"/>
</linearGradient>
<linearGradient id="paint11_linear_2279_2664" x1="19.472" y1="3.57227" x2="17.3478" y2="9.26322" gradientUnits="userSpaceOnUse">
<stop stop-color="#3FFF37"/>
<stop offset="1" stop-color="#B3BE05"/>
</linearGradient>
<linearGradient id="paint12_linear_2279_2664" x1="7.34922" y1="19.903" x2="7.62908" y2="21.7005" gradientUnits="userSpaceOnUse">
<stop stop-color="#4AFFFF"/>
<stop offset="1" stop-color="white"/>
</linearGradient>
<linearGradient id="paint13_linear_2279_2664" x1="19.7893" y1="16.505" x2="20.1459" y2="18.7086" gradientUnits="userSpaceOnUse">
<stop stop-color="#0FFF51"/>
<stop offset="1" stop-color="#4AFFFF"/>
</linearGradient>
<linearGradient id="paint14_linear_2279_2664" x1="6.69454" y1="16.1558" x2="8.21033" y2="18.219" gradientUnits="userSpaceOnUse">
<stop stop-color="#B7E2AE"/>
<stop offset="1" stop-color="#4BFFFF"/>
</linearGradient>
<linearGradient id="paint15_linear_2279_2664" x1="3.7892" y1="18.0215" x2="4.43662" y2="19.2271" gradientUnits="userSpaceOnUse">
<stop stop-color="#B7E2AE"/>
<stop offset="1" stop-color="#4BFFFF"/>
</linearGradient>
<radialGradient id="paint16_radial_2279_2664" cx="0" cy="0" r="1" gradientUnits="userSpaceOnUse" gradientTransform="translate(4.21022 17.1786) rotate(-144.09) scale(3.01516 3.68111)">
<stop stop-color="#CEED7F"/>
<stop offset="1" stop-color="#FCDF02"/>
</radialGradient>
<linearGradient id="paint17_linear_2279_2664" x1="9.38911" y1="15.242" x2="9.87004" y2="15.9592" gradientUnits="userSpaceOnUse">
<stop stop-color="#B7E2AE"/>
<stop offset="1" stop-color="#4BFFFF"/>
</linearGradient>
<linearGradient id="paint18_linear_2279_2664" x1="12.0424" y1="12.0427" x2="8.9266" y2="12.0427" gradientUnits="userSpaceOnUse">
<stop offset="0.0156157" stop-color="white"/>
<stop offset="1" stop-color="#D7C751"/>
</linearGradient>
<linearGradient id="paint19_linear_2279_2664" x1="11.8736" y1="12.0415" x2="14.7368" y2="12.0415" gradientUnits="userSpaceOnUse">
<stop stop-color="white"/>
<stop offset="1" stop-color="#A7DA04"/>
</linearGradient>
</defs>
</svg>
