<svg width="24" height="24" viewBox="0 0 24 24" fill="none" xmlns="http://www.w3.org/2000/svg">
<g clip-path="url(#clip0_2351_16748)">
<path d="M23.6128 15.4088L18.4231 6.40674C17.2854 4.53048 14.5109 4.51052 13.4131 6.48657L7.96403 15.8479C6.94601 17.5645 8.2035 19.7202 10.2395 19.7202H21.1577C23.2136 19.7202 24.7505 17.5046 23.6128 15.4088Z" fill="#00B897"/>
<path d="M16.1279 16.1085L15.8086 15.5496C15.5092 15.0306 14.8505 13.9128 14.8505 13.9128L10.4593 6.28806C9.32153 4.59144 6.62693 4.45172 5.48919 6.58746L0.379393 15.4298C-0.678496 17.2861 0.578994 19.7013 2.87442 19.7213H13.7327H18.3635H21.118C18.3036 19.7412 17.4055 18.2841 16.1279 16.1085Z" fill="#76FCB2"/>
<path d="M16.1281 16.1095L15.8088 15.5506C15.5094 15.0317 14.8507 13.9139 14.8507 13.9139L12.0163 8.92383L7.94444 15.87C6.92654 17.5865 8.18399 19.7422 10.22 19.7422H13.7129H18.3437H21.1182C18.2839 19.7223 17.4056 18.2852 16.1281 16.1095Z" fill="url(#paint0_linear_2351_16748)"/>
</g>
<defs>
<linearGradient id="paint0_linear_2351_16748" x1="6.49531" y1="12.7138" x2="19.1098" y2="17.3754" gradientUnits="userSpaceOnUse">
<stop stop-color="#66F1A2"/>
<stop offset="1" stop-color="#0BAB75"/>
</linearGradient>
<clipPath id="clip0_2351_16748">
<rect width="24" height="24" fill="white"/>
</clipPath>
</defs>
</svg>
