<svg width="24" height="24" viewBox="0 0 24 24" fill="none" xmlns="http://www.w3.org/2000/svg">
<g clip-path="url(#clip0_2351_16829)">
<path d="M12 0C18.6274 0 24 5.37259 24 12C24 18.6274 18.6274 24 12 24C5.3726 24 0 18.6274 0 12C0 5.37259 5.3726 0 12 0Z" fill="white"/>
<path fill-rule="evenodd" clip-rule="evenodd" d="M24 12C24 5.37259 18.6274 0 12 0C5.3726 0 0 5.37259 0 12C0 18.6274 5.3726 24 12 24C16.5002 24 20.4219 21.5228 22.4757 17.8576L21.0767 17.9575C17.3328 18.2248 14.3456 14.7617 15.0091 10.9234C15.2296 9.64767 14.435 8.40462 13.2056 8.11975C11.8967 7.81647 10.6058 8.69995 10.358 10.0551L9.21946 16.2807L9.16615 16.5888C9.15897 16.6303 9.15046 16.6713 9.14066 16.7116L8.89548 18.0522C8.71888 19.0179 7.82243 19.6519 6.8932 19.4684C5.96396 19.2849 5.35383 18.3533 5.53043 17.3877L5.85123 15.6335L7.50756 6.05921C7.67492 5.0918 8.56527 4.44854 9.49621 4.62246C9.81071 4.68121 10.0896 4.82571 10.3146 5.02862C11.4167 4.51457 12.6823 4.35161 13.951 4.64559C16.9606 5.34295 18.9278 8.38629 18.3804 11.5528C18.1112 13.1099 19.3231 14.5148 20.842 14.4064L22.6699 14.2759C23.0576 14.2482 23.4241 14.3569 23.7258 14.5626C23.9054 13.7369 24 12.8795 24 12Z" fill="url(#paint0_linear_2351_16829)"/>
</g>
<defs>
<linearGradient id="paint0_linear_2351_16829" x1="20.1724" y1="4.14214" x2="4.72811" y2="19.7779" gradientUnits="userSpaceOnUse">
<stop stop-color="#2AC5FE"/>
<stop offset="0.11" stop-color="#4B9DFC"/>
<stop offset="0.24" stop-color="#6C74FB"/>
<stop offset="0.35" stop-color="#935BF0"/>
<stop offset="0.46" stop-color="#BB42E5"/>
<stop offset="0.59" stop-color="#D73DCF"/>
<stop offset="0.71" stop-color="#F338B9"/>
<stop offset="0.86" stop-color="#F87C8B"/>
<stop offset="1" stop-color="#FCC15D"/>
</linearGradient>
<clipPath id="clip0_2351_16829">
<rect width="24" height="24" fill="white"/>
</clipPath>
</defs>
</svg>
