<svg width="26" height="25" viewBox="0 0 26 25" fill="none" xmlns="http://www.w3.org/2000/svg">
<path d="M20.2485 1.22678L15.2347 8.66747C14.888 9.17418 15.5548 9.78757 16.0348 9.36087L20.9686 5.06714C21.1019 4.96046 21.2886 5.04047 21.2886 5.22715V18.6417C21.2886 18.8284 21.0486 18.9084 20.9419 18.7751L6.00721 0.906751C5.52716 0.32003 4.83376 0 4.06036 0H3.52698C2.14018 0 0.993408 1.14677 0.993408 2.56024V21.442C0.993408 22.8554 2.14018 24.0022 3.55365 24.0022C4.43373 24.0022 5.26047 23.5488 5.74051 22.7754L10.7543 15.3348C11.101 14.828 10.4343 14.2146 9.95424 14.6414L5.02045 18.9084C4.8871 19.0151 4.70042 18.9351 4.70042 18.7484V5.3605C4.70042 5.17381 4.94044 5.0938 5.04712 5.22715L19.9818 23.0955C20.4619 23.6822 21.1819 24.0022 21.9287 24.0022H22.4621C23.8755 24.0022 25.0223 22.8554 25.0223 21.442V2.56024C25.0223 1.14677 23.8755 0 22.4621 0C21.5553 0 20.7286 0.453375 20.2485 1.22678Z" fill="black"/>
</svg>
