<svg width="24" height="24" viewBox="0 0 24 24" fill="none" xmlns="http://www.w3.org/2000/svg">
<path d="M0 0H24V24H0V0Z" fill="#141A2E"/>
<path fill-rule="evenodd" clip-rule="evenodd" d="M23.1144 0.885622H0.885622V23.1144H23.1144V0.885622ZM0 0V24H24V0H0Z" fill="#00E599"/>
<path d="M11.664 8.13497V15.864H10.2525L6.88995 10.9994H6.83334V15.864H5.19922V8.13497H6.63332L9.9695 12.9958H10.0374V8.13497H11.664Z" fill="#00E599"/>
<path d="M15.8257 15.9697C15.2622 15.9697 14.7602 15.8728 14.3199 15.6791C13.8821 15.4829 13.5362 15.2137 13.2821 14.8715C13.0305 14.5268 12.9009 14.1293 12.8934 13.6789H14.5388C14.5489 13.8676 14.6105 14.0337 14.7237 14.1771C14.8395 14.318 14.9929 14.4274 15.1842 14.5054C15.3754 14.5834 15.5905 14.6224 15.8295 14.6224C16.0786 14.6224 16.2987 14.5784 16.49 14.4903C16.6812 14.4023 16.8309 14.2802 16.9391 14.1242C17.0472 13.9682 17.1013 13.7884 17.1013 13.5846C17.1013 13.3782 17.0435 13.1958 16.9277 13.0373C16.8145 12.8763 16.651 12.7505 16.4371 12.6599C16.2258 12.5694 15.9742 12.5241 15.6823 12.5241H14.9615V11.324H15.6823C15.9289 11.324 16.1465 11.2812 16.3352 11.1956C16.5264 11.1101 16.6749 10.9919 16.7805 10.8409C16.8862 10.6874 16.9391 10.5088 16.9391 10.305C16.9391 10.1113 16.8925 9.94143 16.7994 9.79551C16.7088 9.64707 16.5805 9.53133 16.4145 9.4483C16.2509 9.36528 16.0597 9.32376 15.8408 9.32376C15.6194 9.32376 15.4169 9.36402 15.2332 9.44453C15.0496 9.52252 14.9024 9.63449 14.7917 9.78041C14.681 9.92634 14.6218 10.0974 14.6143 10.2937H13.0481C13.0557 9.84834 13.1827 9.45585 13.4293 9.1162C13.6758 8.77654 14.0079 8.51111 14.4256 8.31989C14.8458 8.12616 15.32 8.0293 15.8484 8.0293C16.3818 8.0293 16.8485 8.12616 17.2485 8.31989C17.6486 8.51362 17.9593 8.77528 18.1807 9.10487C18.4046 9.43195 18.5153 9.79928 18.5128 10.2069C18.5153 10.6396 18.3807 11.0007 18.109 11.29C17.8398 11.5793 17.4888 11.763 17.056 11.841V11.9014C17.6247 11.9743 18.0574 12.1718 18.3543 12.4939C18.6537 12.8134 18.8021 13.2135 18.7996 13.694C18.8021 14.1343 18.6751 14.5255 18.4184 14.8677C18.1643 15.2099 17.8134 15.4791 17.3655 15.6753C16.9177 15.8716 16.4044 15.9697 15.8257 15.9697Z" fill="#00E599"/>
</svg>
