<svg width="24" height="24" viewBox="0 0 24 24" fill="none" xmlns="http://www.w3.org/2000/svg">
<path d="M6.22797 2.13634L17.9951 8.92696V15.8534L0 5.46374L5.76718 2.13634C5.83796 2.09813 5.91714 2.07812 5.99757 2.07812C6.07801 2.07812 6.15719 2.09813 6.22797 2.13634Z" fill="#3CA9E5"/>
<path d="M17.9951 2L11.9951 5.46322L17.9951 8.92643V2Z" fill="#2853C3"/>
<path d="M17.9951 2L23.7671 5.32741C23.8366 5.36964 23.8943 5.42863 23.935 5.49898C23.9756 5.56932 23.998 5.64876 24 5.72999V19.3112L17.9951 15.8529V2Z" fill="#1A4199"/>
<path d="M23.995 19.3154L18.2278 22.6428C18.1541 22.6853 18.0705 22.7078 17.9853 22.7078C17.9002 22.7078 17.8165 22.6853 17.7428 22.6428L5.98047 15.8521V8.91602L23.995 19.3154Z" fill="#2853C3"/>
<path d="M8.22662e-06 5.46289V19.0441C-0.000479262 19.1278 0.0207065 19.2103 0.0615048 19.2834C0.102303 19.3565 0.161325 19.4177 0.23283 19.4613L6.00001 22.7887V8.91641L8.22662e-06 5.46289Z" fill="#60BEFF"/>
<path d="M6 22.778L11.9952 19.3148L6 15.8516V22.778Z" fill="#3CA9E5"/>
</svg>
