<svg width="24" height="24" viewBox="0 0 24 24" fill="none" xmlns="http://www.w3.org/2000/svg">
<path d="M0 5.35547V18.5204C0.000237692 18.5995 0.0216439 18.6771 0.0621258 18.7458C0.102608 18.8144 0.16078 18.8717 0.230956 18.912L6.00487 22.138V8.70266L0 5.35547Z" fill="#60BEFF"/>
<path d="M17.9951 2L23.7691 5.22598C23.8392 5.26631 23.8974 5.3236 23.9379 5.39223C23.9784 5.46087 23.9997 5.53851 24 5.61757V18.7825L17.9951 15.426V2Z" fill="#1A4199"/>
<path d="M5.99512 22.1388L12 18.7823L5.99512 15.4258V22.1388Z" fill="#3CA9E5"/>
<path d="M6.22617 2.1305L17.9953 8.71297V15.426L0 5.35648L5.77389 2.1305C5.84232 2.09111 5.92044 2.07031 6.00006 2.07031C6.07962 2.07031 6.15778 2.09111 6.22617 2.1305Z" fill="#3CA9E5"/>
<path d="M17.9952 2L12 5.35651L17.9952 8.71299V2Z" fill="#2853C3"/>
<path d="M24.0001 18.7819L18.2262 22.0079C18.1551 22.0447 18.0757 22.0639 17.9952 22.0639C17.9147 22.0639 17.8353 22.0447 17.7643 22.0079L5.99512 15.4254V8.70312L24.0001 18.7819Z" fill="#2853C3"/>
</svg>
