<svg width="24" height="24" viewBox="0 0 24 24" fill="none" xmlns="http://www.w3.org/2000/svg">
<g clip-path="url(#clip0_720_16673)">
<path d="M12 23.6418C18.6274 23.6418 24 18.3494 24 11.8209C24 5.29239 18.6274 0 12 0C5.3726 0 0 5.29239 0 11.8209C0 18.3494 5.3726 23.6418 12 23.6418Z" fill="#82BD39"/>
<path d="M10.403 15.36L12 17.464V22L6 19.337V7.61901C6 7.44601 6.07699 7.28102 6.21201 7.16601L6.895 6.58099C6.96081 6.52412 7.03756 6.48131 7.12057 6.45522C7.20353 6.42919 7.29098 6.42046 7.37753 6.42953C7.46402 6.43864 7.54775 6.46536 7.6235 6.50812C7.6993 6.55084 7.76549 6.60868 7.81798 6.67801L13.283 13.842L16.302 15.688V5.808L13.634 4.47699L13.504 10.673L12.092 8.8L12.028 2L18 4.77901V16.443L16.643 17.561L12.369 15.174L7.62498 8.95098L7.56002 18.405L10.385 19.852L10.403 15.36Z" fill="white"/>
</g>
<defs>
<clipPath id="clip0_720_16673">
<rect width="24" height="24" fill="white"/>
</clipPath>
</defs>
</svg>
