<svg width="24" height="24" viewBox="0 0 24 24" fill="none" xmlns="http://www.w3.org/2000/svg">
<g clip-path="url(#clip0_1615_776)">
<path d="M23.982 11.343C23.9383 10.53 23.8137 9.73833 23.6157 8.97633C23.4985 8.52373 23.3544 8.07849 23.1843 7.643C22.3357 5.46533 20.869 3.59633 19 2.25233C17.775 1.37067 16.377 0.714667 14.8667 0.344667C13.948 0.119333 12.988 0 12 0C11.012 0 10.052 0.119333 9.13333 0.344667C7.623 0.714667 6.225 1.371 5 2.25233C3.131 3.59667 1.66433 5.46533 0.815667 7.643C0.647 8.07567 0.502333 8.52067 0.384333 8.97633C0.186333 9.73833 0.0616667 10.53 0.018 11.343C0.006 11.5607 0 11.7797 0 12C0 12.227 0.00633333 12.4523 0.019 12.6763C0.0626667 13.4657 0.182667 14.235 0.372 14.9763C0.488333 15.4317 0.630667 15.8767 0.797667 16.3097C1.64333 18.5077 3.11733 20.3937 5 21.7477C6.225 22.629 7.623 23.2853 9.13333 23.6553C10.052 23.8807 11.012 24 12 24C12.988 24 13.948 23.8807 14.8667 23.6553C16.377 23.2853 17.775 22.6293 19 21.7477C20.8827 20.3937 22.3567 18.5077 23.2027 16.3097C23.3697 15.8767 23.5117 15.4317 23.628 14.9763C23.8173 14.235 23.9373 13.4657 23.981 12.6763C23.9937 12.4523 24 12.227 24 12C24 11.7797 23.994 11.5607 23.982 11.343Z" fill="#FF0420"/>
<path d="M7.02963 16C6.13944 16 5.41009 15.7926 4.84156 15.3778C4.28052 14.9556 4 14.3556 4 13.5778C4 13.4148 4.0187 13.2148 4.0561 12.9778C4.15335 12.4444 4.29174 11.8037 4.47128 11.0556C4.97996 9.01852 6.2928 8 8.4098 8C8.9858 8 9.50196 8.0963 9.95828 8.28889C10.4146 8.47408 10.7736 8.75556 11.0355 9.13333C11.2973 9.5037 11.4282 9.94815 11.4282 10.4667C11.4282 10.6222 11.4095 10.8185 11.3721 11.0556C11.2599 11.7148 11.1252 12.3556 10.9682 12.9778C10.7063 13.9926 10.2538 14.7518 9.61044 15.2556C8.96708 15.7518 8.10684 16 7.02963 16ZM7.18672 14.4C7.60564 14.4 7.96096 14.2778 8.25272 14.0333C8.55192 13.7889 8.76512 13.4148 8.89228 12.9111C9.06436 12.2148 9.19524 11.6074 9.28504 11.0889C9.31496 10.9333 9.32992 10.7741 9.32992 10.6111C9.32992 9.93704 8.97456 9.6 8.26392 9.6C7.84501 9.6 7.48594 9.72222 7.18672 9.96667C6.89498 10.2111 6.68552 10.5852 6.55836 11.0889C6.4237 11.5852 6.28906 12.1926 6.1544 12.9111C6.12448 13.0592 6.10952 13.2148 6.10952 13.3778C6.10952 14.0592 6.46859 14.4 7.18672 14.4Z" fill="white"/>
<path d="M12.5668 15.8891C12.4845 15.8891 12.4209 15.8632 12.376 15.8113C12.3386 15.7521 12.3274 15.6854 12.3423 15.6113L13.8908 8.38911C13.9058 8.30762 13.9469 8.24096 14.0143 8.18911C14.0816 8.13725 14.1527 8.11133 14.2275 8.11133H17.2122C18.0425 8.11133 18.7083 8.2817 19.2095 8.62244C19.7182 8.96318 19.9725 9.45577 19.9725 10.1002C19.9725 10.2854 19.9501 10.478 19.9052 10.678C19.7182 11.5298 19.3404 12.1595 18.7719 12.5669C18.2109 12.9743 17.4403 13.178 16.4604 13.178H14.9456L14.4294 15.6113C14.4145 15.6928 14.3733 15.7595 14.306 15.8113C14.2387 15.8632 14.1676 15.8891 14.0928 15.8891H12.5668ZM16.5389 11.6447C16.8531 11.6447 17.1262 11.5595 17.3581 11.3891C17.5975 11.2187 17.7545 10.9743 17.8293 10.6558C17.8518 10.5298 17.863 10.4187 17.863 10.3224C17.863 10.1076 17.7994 9.94466 17.6723 9.83355C17.5451 9.71503 17.3281 9.65577 17.0215 9.65577H15.6749L15.2485 11.6447H16.5389Z" fill="white"/>
</g>
<defs>
<clipPath id="clip0_1615_776">
<rect width="24" height="24" fill="white"/>
</clipPath>
</defs>
</svg>
