<svg width="24" height="24" viewBox="0 0 24 24" fill="none" xmlns="http://www.w3.org/2000/svg">
<rect x="-0.000488281" width="24" height="24" rx="2" fill="#000005"/>
<path d="M3.00448 11.9856V7.49057C2.99599 7.31427 3.03868 7.13928 3.12739 6.98669C3.21611 6.8341 3.34707 6.71042 3.50448 6.63057L8.43448 3.79057C9.37448 3.25057 10.3195 2.71057 11.2595 2.16057C11.4196 2.05703 11.6063 2.00195 11.797 2.00195C11.9877 2.00195 12.1743 2.05703 12.3345 2.16057L20.0845 6.62557C20.2074 6.6863 20.3155 6.77332 20.401 6.88047C20.4865 6.98761 20.5475 7.11226 20.5795 7.24557C20.5945 7.31057 20.5995 7.38057 20.5995 7.44557V16.5456C20.6035 16.7082 20.5622 16.8688 20.48 17.0092C20.3979 17.1496 20.2782 17.2644 20.1345 17.3406L18.5695 18.2406L12.3945 21.7956C12.2845 21.8656 12.1695 21.9206 12.0495 21.9606C11.9247 21.9993 11.793 22.0105 11.6635 21.9932C11.5339 21.9759 11.4097 21.9307 11.2995 21.8606L9.21448 20.6506C8.79948 20.4156 8.39448 20.1756 7.97948 19.9456C7.81473 19.8623 7.67782 19.7328 7.58547 19.573C7.49312 19.4132 7.44934 19.2299 7.45948 19.0456V16.4456C7.44804 16.2201 7.52033 15.9984 7.66247 15.8231C7.80461 15.6477 8.00655 15.5311 8.22948 15.4956C8.45948 15.4656 8.68948 15.5156 8.87948 15.6356L10.7895 16.7356C11.0645 16.8956 11.3395 17.0506 11.6095 17.2156C11.6633 17.2546 11.728 17.2756 11.7945 17.2756C11.8609 17.2756 11.9257 17.2546 11.9795 17.2156C13.1195 16.5506 14.2695 15.8906 15.4145 15.2306C15.6995 15.0706 15.9745 14.9056 16.2595 14.7506C16.3088 14.7282 16.35 14.6914 16.3778 14.6449C16.4055 14.5984 16.4183 14.5446 16.4145 14.4906V9.51057C16.4198 9.45634 16.4082 9.4018 16.3813 9.35438C16.3545 9.30696 16.3137 9.26896 16.2645 9.24557L11.9495 6.76057C11.9025 6.72971 11.8474 6.71368 11.7912 6.71457C11.735 6.71546 11.6804 6.73323 11.6345 6.76557C10.2045 7.59557 8.76948 8.41557 7.33448 9.24057C7.27882 9.26911 7.23347 9.31434 7.20478 9.36993C7.1761 9.42551 7.1655 9.48867 7.17448 9.55057V17.7906C7.17448 17.8906 7.17448 17.9906 7.15448 18.0856C7.12564 18.2246 7.06469 18.3549 6.9765 18.4661C6.88831 18.5773 6.77532 18.6664 6.64657 18.7261C6.51782 18.7859 6.37687 18.8147 6.23499 18.8103C6.09311 18.8058 5.95424 18.7683 5.82948 18.7006C5.60948 18.5856 5.39448 18.4556 5.17948 18.3306C4.61288 18.0038 4.04622 17.6771 3.47948 17.3506C3.32274 17.2642 3.19295 17.1361 3.10448 16.9806C3.03451 16.8483 3.00006 16.7001 3.00448 16.5506V11.9856ZM6.26948 17.9006V9.50057C6.25797 9.28773 6.30855 9.07612 6.41507 8.89149C6.52159 8.70686 6.67945 8.55715 6.86948 8.46057C8.31948 7.63057 9.76448 6.80057 11.2095 5.96057C11.3858 5.84849 11.5905 5.78896 11.7995 5.78896C12.0085 5.78896 12.2131 5.84849 12.3895 5.96057L16.7345 8.46057C16.9245 8.55982 17.082 8.71151 17.1884 8.89763C17.2947 9.08375 17.3454 9.29649 17.3345 9.51057V14.4756C17.3462 14.693 17.2949 14.9092 17.1867 15.0981C17.0784 15.287 16.918 15.4407 16.7245 15.5406L12.3745 18.0406C12.2029 18.1502 12.0038 18.2089 11.8002 18.2098C11.5966 18.2107 11.397 18.1537 11.2245 18.0456L8.56948 16.5156L8.38448 16.4156V16.6156L8.37948 18.9556C8.37519 19.0077 8.38735 19.0599 8.41426 19.1047C8.44117 19.1495 8.48147 19.1848 8.52948 19.2056C9.56948 19.8056 10.6045 20.4006 11.6395 21.0056C11.6854 21.0385 11.7405 21.0563 11.797 21.0563C11.8535 21.0563 11.9086 21.0385 11.9545 21.0056C14.4795 19.5456 17.0095 18.0856 19.5445 16.6356C19.595 16.611 19.6365 16.5713 19.6634 16.522C19.6903 16.4728 19.7012 16.4163 19.6945 16.3606V7.63057C19.6993 7.57451 19.6864 7.51835 19.6577 7.46994C19.629 7.42153 19.586 7.38329 19.5345 7.36057L11.9745 3.01057L11.7945 2.91057L3.91948 7.45057V16.5506L6.26948 17.9006Z" fill="white"/>
<path d="M8.89938 11.9893C8.89938 11.5593 8.90938 11.1243 8.89938 10.6893C8.89131 10.5761 8.91752 10.4631 8.97459 10.365C9.03167 10.2669 9.11697 10.1882 9.21938 10.1393L11.4894 8.8393C11.581 8.77812 11.6885 8.74505 11.7986 8.74416C11.9088 8.74327 12.0168 8.7746 12.1094 8.8343C12.8694 9.2793 13.6394 9.7193 14.4094 10.1593C14.5013 10.2078 14.5775 10.2816 14.6289 10.3719C14.6802 10.4623 14.7047 10.5655 14.6994 10.6693V13.3193C14.7061 13.4265 14.6813 13.5334 14.628 13.6267C14.5747 13.72 14.4952 13.7957 14.3994 13.8443L12.1094 15.1593C12.0173 15.2197 11.9095 15.2519 11.7994 15.2519C11.6892 15.2519 11.5815 15.2197 11.4894 15.1593L9.20938 13.8443C9.11047 13.7959 9.02818 13.7192 8.97298 13.624C8.91777 13.5287 8.89216 13.4192 8.89938 13.3093C8.90938 12.8693 8.89938 12.4293 8.89938 11.9893ZM11.7994 9.2393C11.7823 9.24669 11.7656 9.25503 11.7494 9.2643L9.49938 10.5593C9.46371 10.5778 9.43481 10.6071 9.41684 10.643C9.39888 10.679 9.39276 10.7197 9.39938 10.7593V13.2393C9.39577 13.2842 9.40638 13.3292 9.42971 13.3678C9.45304 13.4063 9.48791 13.4366 9.52938 13.4543C10.0144 13.7243 10.4894 14.0043 10.9694 14.2793L11.7994 14.7543L11.9544 14.6693C12.6544 14.2693 13.3544 13.8593 14.0544 13.4643C14.1019 13.4434 14.1416 13.4079 14.1677 13.363C14.1937 13.318 14.2048 13.266 14.1994 13.2143V10.7743C14.2057 10.7225 14.1949 10.6701 14.1687 10.625C14.1426 10.5799 14.1024 10.5446 14.0544 10.5243C13.3444 10.1243 12.6344 9.7143 11.9244 9.3043L11.8044 9.2393H11.7994Z" fill="white"/>
</svg>
