<svg width="24" height="24" viewBox="0 0 24 24" fill="none" xmlns="http://www.w3.org/2000/svg">
<path d="M9.93831 2.09375C7.30307 2.09512 4.77622 3.14292 2.91331 5.0068C1.05039 6.87068 0.0039059 9.39805 0.00390625 12.0333C0.00390624 14.6693 1.051 17.1973 2.91484 19.0613C4.77868 20.9253 7.30662 21.9726 9.94261 21.9729C15.436 21.9729 19.6032 17.4065 19.8822 12.0333C20.162 6.55108 15.4282 2.09375 9.93831 2.09375ZM9.93831 17.8013C9.18032 17.8013 8.42976 17.652 7.72948 17.3619C7.02919 17.0718 6.39291 16.6466 5.85697 16.1106C5.32103 15.5746 4.89592 14.9382 4.60593 14.2379C4.31594 13.5376 4.16673 12.787 4.16685 12.029C4.16673 11.271 4.31594 10.5204 4.60593 9.8201C4.89592 9.11977 5.32103 8.48343 5.85697 7.9474C6.39291 7.41138 7.02919 6.98618 7.72948 6.69609C8.42976 6.40599 9.18032 6.25669 9.93831 6.25669C11.4692 6.25669 12.9374 6.86484 14.02 7.94736C15.1025 9.02988 15.7106 10.4981 15.7106 12.029C15.7112 12.7874 15.5623 13.5385 15.2725 14.2393C14.9826 14.9401 14.5575 15.577 14.0215 16.1134C13.4854 16.6499 12.8489 17.0755 12.1483 17.3658C11.4477 17.6562 10.6967 17.8056 9.93831 17.8056V17.8013Z" fill="url(#paint0_linear_720_13133)"/>
<path d="M8.04251 2.92189C6.67785 2.91944 5.33638 3.27456 4.15167 3.95189C2.17938 5.36362 0.791291 7.44774 0.248812 9.81177C0.209815 10.1307 0.190308 10.4518 0.19043 10.7731C0.19043 12.8556 1.01771 14.8528 2.49026 16.3254C3.96281 17.7979 5.96001 18.6252 8.04251 18.6252C9.70366 18.6281 11.3225 18.1013 12.6638 17.1214C11.8263 17.5725 10.8899 17.8085 9.93859 17.808C9.18059 17.808 8.43003 17.6587 7.72975 17.3686C7.02947 17.0786 6.39319 16.6534 5.85725 16.1173C5.3213 15.5813 4.89619 14.945 4.6062 14.2446C4.31621 13.5443 4.16701 12.7937 4.16712 12.0357C4.16701 11.2777 4.31621 10.5271 4.6062 9.82682C4.89619 9.12649 5.3213 8.49015 5.85725 7.95413C6.39319 7.41811 7.02947 6.99291 7.72975 6.70281C8.43003 6.41271 9.18059 6.26339 9.93859 6.26339C11.4695 6.26339 12.9377 6.87154 14.0202 7.95406C15.1028 9.03658 15.7109 10.5048 15.7109 12.0357C15.7109 12.2228 15.7015 12.4065 15.6843 12.5893C15.8243 11.9952 15.8949 11.3869 15.8946 10.7765C15.8949 9.74518 15.6921 8.72385 15.2976 7.77089C14.9032 6.81794 14.3248 5.95202 13.5957 5.22262C12.8665 4.49321 12.0008 3.9146 11.048 3.51983C10.0951 3.12507 9.07388 2.92189 8.04251 2.92189Z" fill="url(#paint1_linear_720_13133)"/>
<path d="M20.0248 5.36208C21.2293 5.36208 22.2058 4.38559 22.2058 3.18104C22.2058 1.97648 21.2293 1 20.0248 1C18.8202 1 17.8438 1.97648 17.8438 3.18104C17.8438 4.38559 18.8202 5.36208 20.0248 5.36208Z" fill="url(#paint2_linear_720_13133)"/>
<path d="M20.9472 6.91409C20.4752 7.17159 20.0031 7.4291 19.5576 7.73381C18.998 8.1132 18.4306 8.52864 17.9886 9.04707C17.6912 9.38498 17.4233 9.74765 17.1877 10.1311C17.0461 10.3715 16.9208 10.6221 16.8032 10.8753C16.4839 11.562 16.1869 12.265 15.8959 12.9662C15.6247 13.6186 15.3635 14.2749 15.1123 14.9353C15.0242 15.1977 15.0076 15.4789 15.0642 15.7498C15.0722 16.0204 15.1525 16.2839 15.2968 16.5129C15.416 16.7474 15.5933 16.9475 15.8118 17.094C16.0047 17.2759 16.2412 17.405 16.4985 17.4691L17.0401 17.5498C17.4028 17.5555 17.7605 17.4643 18.0761 17.2854L18.4941 16.9712C18.7516 16.7197 18.6297 16.452 18.7319 16.1069C18.9344 15.0168 19.7069 13.852 19.7739 13.6538C20.0374 13.0529 20.8537 11.9465 20.7455 12.083C21.0185 11.7501 21.3316 11.4523 21.6777 11.1963L21.2597 11.5096C21.7994 11.1241 22.3659 10.7776 22.9549 10.4728C23.189 10.3532 23.3887 10.176 23.5351 9.95776C23.7176 9.76515 23.8471 9.52859 23.9111 9.27109C23.9993 9.00866 24.0156 8.72739 23.9583 8.45652C23.9503 8.18609 23.8703 7.92269 23.7265 7.69347L23.4124 7.27545C23.1663 7.02113 22.858 6.8356 22.518 6.73727L21.9755 6.65659C21.616 6.65 21.2612 6.73885 20.9472 6.91409Z" fill="url(#paint3_linear_720_13133)"/>
<path d="M17.4531 8.72262C17.1589 9.05339 16.8846 9.40133 16.6317 9.76463C16.4713 9.99255 16.3333 10.2354 16.2197 10.4899C16.0309 10.9191 15.8583 11.3251 15.7725 11.7817C15.6867 12.2384 15.6386 12.7207 15.5768 13.1902L15.6498 12.6469C15.5639 13.2658 15.3107 14.0872 15.3794 13.925C15.2532 14.2228 15.127 14.5533 14.9296 14.8108L15.2498 14.3971C15.1743 14.4746 15.1035 14.5566 15.0378 14.6426C14.8464 14.9584 14.8481 15.2751 14.7648 15.5284C14.6369 15.7721 14.4283 15.8065 14.4395 16.088C14.4255 16.361 14.4848 16.6327 14.6112 16.8751C14.6926 17.1274 14.8381 17.3542 15.0335 17.5334C15.4232 17.8905 15.9347 18.1566 16.4789 18.1343L17.0223 18.0613C17.3635 17.9675 17.6744 17.7865 17.9244 17.536C18.5793 16.8494 19.0127 16.0245 19.2977 15.1206C19.5406 14.3481 19.6119 13.5379 19.7192 12.7405L19.6462 13.2838C19.6907 12.8779 19.7885 12.4796 19.9372 12.0993L19.7312 12.5877C19.8873 12.2371 20.0859 11.9071 20.3226 11.6049L20.0033 12.0186C20.1108 11.8807 20.223 11.7465 20.3397 11.6161C20.5349 11.4367 20.6804 11.2099 20.762 10.9577C20.8879 10.7151 20.9471 10.4436 20.9337 10.1706C20.9472 9.8974 20.888 9.6255 20.762 9.38267C20.6804 9.13074 20.5349 8.90425 20.3397 8.72519C19.95 8.36727 19.4385 8.10204 18.8943 8.12436L18.351 8.1973C18.0098 8.29179 17.699 8.47308 17.4488 8.72348L17.4531 8.72262Z" fill="url(#paint4_linear_720_13133)"/>
<path d="M16.6966 13.9222C16.3795 13.9217 16.0664 13.9932 15.7811 14.1315C15.4957 14.2698 15.2455 14.4712 15.0495 14.7205C14.9311 14.8689 14.8338 15.033 14.7602 15.208C14.2317 16.0099 13.512 16.6677 12.6659 17.1221C11.3246 18.102 9.70573 18.6288 8.04458 18.6259C5.96208 18.6259 3.96488 17.7986 2.49233 16.3261C1.01978 14.8535 0.192505 12.8563 0.192505 10.7738C0.192383 10.4525 0.211869 10.1315 0.250866 9.8125C0.0848405 10.541 0.00135049 11.2858 0.0019564 12.033C0.00195639 14.669 1.04905 17.197 2.91289 19.061C4.77673 20.925 7.30467 21.9723 9.94066 21.9726C11.6484 21.9738 13.3276 21.5348 14.8161 20.6977C16.3046 19.8607 17.5521 18.654 18.4382 17.1942C18.4385 17.1919 18.4385 17.1896 18.4382 17.1873C18.4814 17.1237 18.5206 17.0575 18.5558 16.9891C18.7118 16.6902 18.7931 16.358 18.7927 16.0208C18.7927 15.4647 18.5719 14.9313 18.1789 14.5378C17.7859 14.1443 17.2528 13.9229 16.6966 13.9222Z" fill="url(#paint5_linear_720_13133)"/>
<defs>
<linearGradient id="paint0_linear_720_13133" x1="-0.000385441" y1="12.0333" x2="19.8899" y2="12.0333" gradientUnits="userSpaceOnUse">
<stop stop-color="#2CA2E2"/>
<stop offset="1" stop-color="#73C1D8"/>
</linearGradient>
<linearGradient id="paint1_linear_720_13133" x1="0.19043" y1="10.774" x2="15.8946" y2="10.774" gradientUnits="userSpaceOnUse">
<stop stop-color="#92D1D8"/>
<stop offset="1" stop-color="#386BAD"/>
</linearGradient>
<linearGradient id="paint2_linear_720_13133" x1="17.8438" y1="3.18104" x2="22.2058" y2="3.18104" gradientUnits="userSpaceOnUse">
<stop stop-color="#634090"/>
<stop offset="1" stop-color="#B25697"/>
</linearGradient>
<linearGradient id="paint3_linear_720_13133" x1="16.7265" y1="12.0506" x2="22.094" y2="12.1255" gradientUnits="userSpaceOnUse">
<stop stop-color="#F5C690"/>
<stop offset="0.46" stop-color="#F5C38D"/>
<stop offset="1" stop-color="#F67E42"/>
</linearGradient>
<linearGradient id="paint4_linear_720_13133" x1="16.1879" y1="13.1276" x2="19.2033" y2="13.1276" gradientUnits="userSpaceOnUse">
<stop stop-color="#5A388F"/>
<stop offset="1" stop-color="#C663A3"/>
</linearGradient>
<linearGradient id="paint5_linear_720_13133" x1="5.05843" y1="15.893" x2="13.7671" y2="15.893" gradientUnits="userSpaceOnUse">
<stop stop-color="#29A8EB"/>
<stop offset="1" stop-color="#FF7815"/>
</linearGradient>
</defs>
</svg>
