<svg width="24" height="24" viewBox="0 0 24 24" fill="none" xmlns="http://www.w3.org/2000/svg">
<g clip-path="url(#clip0_2134_1784)">
<path d="M22.9122 4.24118C22.671 3.3 21.8828 2.35882 20.471 1.31176C19.3357 0.476471 18.1357 0 17.1769 0C16.9828 0 16.8122 0.0176471 16.6357 0.0529412C16.2004 0.141176 15.8181 0.458824 15.571 0.941176C15.2769 1.51176 15.2063 2.27059 15.3946 2.73529C15.4652 2.87647 15.5534 3.05294 15.6534 3.21176C14.7299 3.78235 14.2063 3.94118 14.1357 3.95882C16.5416 4.77647 18.5475 6.48235 19.8004 8.7L19.8181 8.48823C19.871 7.9 20.0475 7.22941 20.2887 6.53529C20.5299 6.60588 20.7769 6.64118 21.0181 6.64118C21.6652 6.64118 22.2181 6.37647 22.571 5.89412C22.9181 5.41765 23.0593 4.77647 22.9004 4.24118H22.9122Z" fill="#5E12A0"/>
<path d="M20.4 6.01772C21.9882 6.45889 22.6294 5.21772 22.4235 4.38242C22.1941 3.54713 21.4647 2.69419 20.1764 1.73536C18.8882 0.77654 17.5764 0.388305 16.7412 0.564775C15.9059 0.741246 15.6588 2.03536 15.8706 2.53536C15.9588 2.72948 16.147 3.01183 16.4117 3.33536C16.0823 3.56478 15.7647 3.74125 15.5059 3.90595C17.1117 4.63536 18.5059 5.77066 19.5529 7.18831C19.6764 6.71183 19.847 6.28242 20.0059 5.91183C20.1294 5.92948 20.2647 5.96478 20.4059 6.01772H20.4Z" fill="url(#paint0_radial_2134_1784)"/>
<path d="M11.3173 23.4115C16.6997 23.4115 21.0644 18.9703 21.0644 13.488C21.0644 8.00561 16.6997 3.57031 11.3173 3.57031C5.935 3.57031 1.57617 8.01149 1.57617 13.488C1.57617 18.9644 5.94088 23.4115 11.3232 23.4115H11.3173Z" fill="url(#paint1_radial_2134_1784)"/>
<path opacity="0.6" d="M21.6237 3.57013C20.3001 2.15249 19.1825 1.77602 17.8413 1.47602C16.7943 1.22896 17.0766 0.623075 18.3472 0.746604C17.7354 0.53484 17.159 0.481899 16.7413 0.570134C15.906 0.746604 15.659 2.04072 15.8707 2.54072C15.959 2.73484 16.1472 3.01719 16.4119 3.34072C15.9413 3.65837 15.5413 3.89366 15.2119 4.07013C15.3707 4.14072 15.559 4.22896 15.7884 4.35249C16.3825 4.67013 17.0237 5.20543 17.0237 5.20543C16.0472 4.35249 16.259 3.96425 17.6001 3.00543C18.0178 2.70543 18.7884 2.74072 19.5001 3.11131C20.2178 3.4819 21.0531 4.42308 21.0531 4.42308L20.2531 5.98778C20.306 6.00543 20.359 6.02308 20.4119 6.04072C20.9178 6.1819 21.3178 6.1466 21.6296 6.02307C21.9943 5.79366 22.9531 5.01131 21.6296 3.57602L21.6237 3.57013Z" fill="#A98698"/>
<path d="M17.8238 2.32294C18.1709 2.46411 18.6238 2.71117 19.1826 3.08764C19.8473 3.52882 20.4179 4.02882 20.7885 4.41705C20.1767 5.2347 19.7767 6.35235 19.5356 7.1347C19.6591 7.31117 19.7944 7.48764 19.9179 7.67C20.0415 7.22882 20.2473 6.57 20.5297 5.91117C20.6003 5.92882 20.6885 5.92882 20.7709 5.92882C20.9826 5.92882 21.2238 5.89352 21.4179 5.7347C21.5591 5.62882 21.712 5.4347 21.6944 5.07588C21.6944 4.74058 21.4356 4.31117 20.8944 3.79941C20.512 3.42882 19.9885 3.01705 19.465 2.64647C17.965 1.6347 16.9179 1.35235 16.4473 1.82882C16.1356 2.14647 16.1709 2.54058 16.2709 2.82294C15.712 3.19352 15.2415 3.46411 14.9297 3.64058C15.1415 3.71117 15.3297 3.79941 15.5415 3.88764C16.1003 3.58764 16.9003 3.07 17.8238 2.32294V2.32294ZM21.1179 4.86411C21.1709 4.95235 21.1885 5.04058 21.1885 5.09352C21.1885 5.25235 21.1356 5.30529 21.1003 5.34058C21.0297 5.39352 20.8885 5.42882 20.7709 5.42882C20.8767 5.21705 21.0003 5.04058 21.1179 4.85823V4.86411ZM16.812 2.21705C16.865 2.16411 17.0062 2.12882 17.2297 2.16411C17.0532 2.30529 16.8826 2.42882 16.7062 2.55235C16.6885 2.42882 16.7062 2.30529 16.812 2.21705V2.21705Z" fill="#5E12A0"/>
<path d="M11.3176 2.98242C5.61765 2.98242 1 7.6883 1 13.4883C1 19.2883 5.61765 24.0001 11.3176 24.0001C17.0176 24.0001 21.6353 19.2942 21.6353 13.4883C21.6353 7.68242 17 2.98242 11.3176 2.98242ZM11.3176 23.4118C5.9353 23.4118 1.57647 18.9765 1.57647 13.4883C1.57647 8.00007 5.9353 3.57066 11.3176 3.57066C16.7 3.57066 21.0647 8.00595 21.0647 13.4942C21.0647 18.9824 16.6882 23.4177 11.3176 23.4177V23.4118Z" fill="#5E12A0"/>
<path opacity="0.6" d="M11.3173 23.4115C16.6997 23.4115 21.0644 18.9703 21.0644 13.488C21.0644 8.00561 16.6997 3.57031 11.3173 3.57031C5.935 3.57031 1.57617 8.01149 1.57617 13.488C1.57617 18.9644 5.94088 23.4115 11.3232 23.4115H11.3173Z" fill="url(#paint2_linear_2134_1784)"/>
<path opacity="0.6" d="M11.253 22.2062C5.93539 21.3356 2.32951 16.2415 3.2001 10.8297C3.58245 8.43562 4.77069 6.39444 6.44128 4.91797C4.0001 6.35326 2.18834 8.85915 1.7001 11.9121C0.847159 17.3239 4.45304 22.4238 9.75304 23.2886C12.7177 23.7827 15.5766 22.8474 17.6825 21.0003C15.8177 22.1003 13.553 22.5827 11.2472 22.2062H11.253Z" fill="#A98698"/>
<path d="M20.5763 13.4004C20.5763 18.6004 16.4292 22.8239 11.3175 22.8239C6.2057 22.8239 2.04688 18.6063 2.04688 13.4004H20.5763Z" fill="url(#paint3_linear_2134_1784)"/>
<path opacity="0.6" d="M19.8472 13.4004C19.8472 18.4769 15.906 22.6298 10.959 22.8239H11.3237C16.4296 22.8239 20.5825 18.6004 20.5825 13.4004H19.8531H19.8472Z" fill="url(#paint4_linear_2134_1784)"/>
<path opacity="0.7" d="M3.35276 13.4004H2.04688C2.04688 18.6004 6.19393 22.8239 11.3057 22.8239C11.5351 22.8239 11.741 22.8239 11.9528 22.8063C7.15864 22.4533 3.35864 18.371 3.35864 13.4004H3.35276Z" fill="url(#paint5_linear_2134_1784)"/>
<path d="M20.5586 13.4886C20.5586 12.4062 18.7116 11.7827 16.2528 11.5709C14.4763 11.4298 12.6763 11.6062 10.6233 12.2474C8.84688 12.7827 7.24099 12.6886 6.07629 12.5474C3.47629 12.2474 2.04688 12.2121 2.04688 13.4886C2.04688 15.3357 5.74099 17.6415 11.2881 16.8415C14.0939 16.4357 15.541 15.6004 17.1998 15.0298C18.9939 14.4239 20.5645 14.4415 20.5645 13.4827L20.5586 13.4886Z" fill="url(#paint6_linear_2134_1784)"/>
<path d="M14.3528 9.01836C15.2175 9.01836 15.9234 8.30071 15.9234 7.41836C15.9234 6.53601 15.2234 5.81836 14.3528 5.81836C13.4822 5.81836 12.7822 6.53601 12.7822 7.41836C12.7822 8.30071 13.4822 9.01836 14.3528 9.01836V9.01836Z" fill="white"/>
<path d="M16.9176 10.2065C17.2823 10.2065 17.5823 9.90646 17.5823 9.52999C17.5823 9.15352 17.2882 8.85352 16.9176 8.85352C16.547 8.85352 16.2529 9.15352 16.2529 9.52999C16.2529 9.90646 16.547 10.2065 16.9176 10.2065Z" fill="white"/>
<path opacity="0.6" d="M19.2886 6.14037H19.2533C19.1474 6.12273 19.0769 6.01684 19.0945 5.89331C19.2533 5.07567 19.9121 4.29331 19.9474 4.25802C20.018 4.16978 20.1592 4.16978 20.2239 4.24037C20.3121 4.31096 20.3121 4.45214 20.2416 4.52273C20.2239 4.54037 19.6121 5.26978 19.4769 5.97567C19.4592 6.08155 19.371 6.13449 19.2827 6.13449L19.2886 6.14037Z" fill="url(#paint7_linear_2134_1784)"/>
<path opacity="0.2" d="M10.6767 20.8945C10.9473 20.8945 11.1649 20.671 11.1649 20.4004C11.1649 20.1298 10.9473 19.9004 10.6767 19.9004C10.4061 19.9004 10.1885 20.1239 10.1885 20.4004C10.1885 20.6769 10.4061 20.8945 10.6767 20.8945Z" fill="white"/>
<path opacity="0.6" d="M10.3939 20.718C10.1998 20.5239 10.1998 20.2003 10.3939 20.0062C10.4292 19.9709 10.4645 19.9533 10.4998 19.918C10.4292 19.9356 10.3763 19.9709 10.3233 20.0239C10.1292 20.218 10.1292 20.5415 10.3233 20.7356C10.4821 20.8944 10.7233 20.9297 10.9174 20.8239C10.741 20.8944 10.5351 20.8591 10.3939 20.718V20.718Z" fill="url(#paint8_linear_2134_1784)"/>
<path opacity="0.3" d="M10.8471 20.2528C10.9059 20.2528 10.953 20.2057 10.953 20.1469C10.953 20.0881 10.9059 20.041 10.8471 20.041C10.7883 20.041 10.7412 20.0881 10.7412 20.1469C10.7412 20.2057 10.7883 20.2528 10.8471 20.2528Z" fill="white"/>
<path opacity="0.2" d="M13.2236 20.6465C13.4942 20.6465 13.7118 20.4229 13.7118 20.1523C13.7118 19.8818 13.4942 19.6523 13.2236 19.6523C12.953 19.6523 12.7354 19.8759 12.7354 20.1523C12.7354 20.4288 12.953 20.6465 13.2236 20.6465Z" fill="white"/>
<path opacity="0.6" d="M12.9408 20.4699C12.7467 20.2758 12.7467 19.9523 12.9408 19.7582C12.9761 19.7229 13.0114 19.7052 13.0467 19.6699C12.9761 19.6876 12.9231 19.7229 12.8702 19.7758C12.6761 19.9699 12.6761 20.2935 12.8702 20.4876C13.029 20.6464 13.2702 20.6817 13.4643 20.5758C13.2878 20.6464 13.082 20.6111 12.9408 20.4699Z" fill="url(#paint9_linear_2134_1784)"/>
<path opacity="0.3" d="M13.394 20.0067C13.4528 20.0067 13.4999 19.9596 13.4999 19.9008C13.4999 19.842 13.4528 19.7949 13.394 19.7949C13.3351 19.7949 13.2881 19.842 13.2881 19.9008C13.2881 19.9596 13.3351 20.0067 13.394 20.0067Z" fill="white"/>
<path opacity="0.2" d="M11.9643 21.7998C12.1643 21.7998 12.329 21.6351 12.329 21.4292C12.329 21.2233 12.1643 21.0586 11.9643 21.0586C11.7643 21.0586 11.5996 21.2233 11.5996 21.4292C11.5996 21.6351 11.7643 21.7998 11.9643 21.7998Z" fill="white"/>
<path opacity="0.6" d="M11.7526 21.6585C11.6114 21.5174 11.6114 21.2703 11.7526 21.1233C11.7702 21.1056 11.8055 21.088 11.8232 21.0703C11.7702 21.088 11.7349 21.1233 11.6996 21.1585C11.5585 21.2997 11.5585 21.5468 11.6996 21.6938C11.8232 21.8174 11.9937 21.835 12.1526 21.7468C12.0114 21.7997 11.8585 21.7644 11.7526 21.6585Z" fill="url(#paint10_linear_2134_1784)"/>
<path opacity="0.3" d="M12.0882 21.2994C12.1293 21.2994 12.1588 21.27 12.1588 21.2288C12.1588 21.1876 12.1293 21.1582 12.0882 21.1582C12.047 21.1582 12.0176 21.1876 12.0176 21.2288C12.0176 21.27 12.047 21.2994 12.0882 21.2994Z" fill="white"/>
<path opacity="0.2" d="M14.2114 21.5361C14.4114 21.5361 14.5761 21.3714 14.5761 21.1655C14.5761 20.9596 14.4114 20.7949 14.2114 20.7949C14.0114 20.7949 13.8467 20.9596 13.8467 21.1655C13.8467 21.3714 14.0114 21.5361 14.2114 21.5361Z" fill="white"/>
<path opacity="0.6" d="M14.0055 21.389C13.8643 21.2478 13.8643 21.0008 14.0055 20.8537C14.0232 20.8361 14.0584 20.8184 14.0761 20.8008C14.0231 20.8184 13.9879 20.8537 13.9526 20.889C13.8114 21.0302 13.8114 21.2773 13.9526 21.4243C14.0761 21.5478 14.2467 21.5655 14.4055 21.4773C14.2643 21.5302 14.1114 21.4949 14.0055 21.389Z" fill="url(#paint11_linear_2134_1784)"/>
<path opacity="0.3" d="M14.3352 21.0357C14.3764 21.0357 14.4058 21.0063 14.4058 20.9651C14.4058 20.9239 14.3764 20.8945 14.3352 20.8945C14.2941 20.8945 14.2646 20.9239 14.2646 20.9651C14.2646 21.0063 14.2941 21.0357 14.3352 21.0357Z" fill="white"/>
<path opacity="0.2" d="M8.5998 20.7173C9.04098 20.7173 9.3998 20.3526 9.3998 19.8997C9.3998 19.4467 9.04098 19.082 8.5998 19.082C8.15863 19.082 7.7998 19.4467 7.7998 19.8997C7.7998 20.3526 8.15863 20.7173 8.5998 20.7173Z" fill="white"/>
<path opacity="0.6" d="M8.1473 20.4112C7.83554 20.0936 7.83554 19.5759 8.1473 19.2583C8.20024 19.2054 8.25318 19.1701 8.32377 19.1348C8.21789 19.1701 8.12965 19.2406 8.0473 19.3112C7.73554 19.6289 7.73554 20.1465 8.0473 20.4642C8.30612 20.7289 8.71201 20.7818 9.02377 20.5877C8.72965 20.7112 8.37671 20.6583 8.15318 20.4112H8.1473Z" fill="url(#paint12_linear_2134_1784)"/>
<path opacity="0.3" d="M8.88252 19.6537C8.97664 19.6537 9.059 19.5714 9.059 19.4773C9.059 19.3831 8.98252 19.3008 8.88252 19.3008C8.78252 19.3008 8.70605 19.3831 8.70605 19.4773C8.70605 19.5714 8.78252 19.6537 8.88252 19.6537Z" fill="white"/>
<path opacity="0.2" d="M15.7648 18.7115C16.206 18.7115 16.5648 18.3468 16.5648 17.8938C16.5648 17.4409 16.206 17.0762 15.7648 17.0762C15.3237 17.0762 14.9648 17.4409 14.9648 17.8938C14.9648 18.3468 15.3237 18.7115 15.7648 18.7115Z" fill="white"/>
<path opacity="0.6" d="M15.2938 18.4054C14.982 18.0877 14.982 17.5701 15.2938 17.2524C15.3467 17.1995 15.3997 17.1642 15.4703 17.1289C15.3644 17.1642 15.2761 17.2348 15.1938 17.3054C14.882 17.623 14.882 18.1407 15.1938 18.4583C15.4526 18.723 15.8585 18.776 16.1703 18.5818C15.8761 18.7054 15.5408 18.6524 15.2997 18.4054H15.2938Z" fill="url(#paint13_linear_2134_1784)"/>
<path opacity="0.3" d="M16.0407 17.6479C16.1348 17.6479 16.2172 17.5655 16.2172 17.4714C16.2172 17.3773 16.1407 17.2949 16.0407 17.2949C15.9407 17.2949 15.8643 17.3773 15.8643 17.4714C15.8643 17.5655 15.9407 17.6479 16.0407 17.6479Z" fill="white"/>
</g>
<defs>
<radialGradient id="paint0_radial_2134_1784" cx="0" cy="0" r="1" gradientUnits="userSpaceOnUse" gradientTransform="translate(20.5544 2.61248) scale(7.79412 7.93529)">
<stop stop-color="#FFEAFF" stop-opacity="0.6"/>
<stop offset="0.68" stop-color="#A087C9"/>
<stop offset="1" stop-color="#10002F"/>
</radialGradient>
<radialGradient id="paint1_radial_2134_1784" cx="0" cy="0" r="1" gradientUnits="userSpaceOnUse" gradientTransform="translate(16.3533 6.42914) scale(19.0647 19.4118)">
<stop stop-color="#FFEAFF" stop-opacity="0.6"/>
<stop offset="0.68" stop-color="#A087C9"/>
<stop offset="1" stop-color="#10002F"/>
</radialGradient>
<linearGradient id="paint2_linear_2134_1784" x1="9.70558" y1="23.2762" x2="12.935" y2="3.69972" gradientUnits="userSpaceOnUse">
<stop stop-color="#81FFFF"/>
<stop offset="0.62" stop-color="white" stop-opacity="0"/>
</linearGradient>
<linearGradient id="paint3_linear_2134_1784" x1="2.04688" y1="18.1122" x2="20.5763" y2="18.1122" gradientUnits="userSpaceOnUse">
<stop stop-color="#0002E9"/>
<stop offset="1" stop-color="#FF00C7"/>
</linearGradient>
<linearGradient id="paint4_linear_2134_1784" x1="21.5002" y1="14.2827" x2="11.2472" y2="23.8004" gradientUnits="userSpaceOnUse">
<stop offset="0.29" stop-color="white"/>
<stop offset="0.78" stop-color="white" stop-opacity="0"/>
</linearGradient>
<linearGradient id="paint5_linear_2134_1784" x1="2.04688" y1="18.1122" x2="11.9469" y2="18.1122" gradientUnits="userSpaceOnUse">
<stop stop-color="#000292"/>
<stop offset="1" stop-color="#7D00C7"/>
</linearGradient>
<linearGradient id="paint6_linear_2134_1784" x1="2.06452" y1="14.2651" x2="20.5586" y2="14.2651" gradientUnits="userSpaceOnUse">
<stop stop-color="#000292"/>
<stop offset="1" stop-color="#BE00C7"/>
</linearGradient>
<linearGradient id="paint7_linear_2134_1784" x1="20.2827" y1="4.18743" x2="18.918" y2="6.3639" gradientUnits="userSpaceOnUse">
<stop offset="0.29" stop-color="white"/>
<stop offset="0.78" stop-color="white" stop-opacity="0"/>
</linearGradient>
<linearGradient id="paint8_linear_2134_1784" x1="10.1821" y1="20.4003" x2="10.9174" y2="20.4003" gradientUnits="userSpaceOnUse">
<stop offset="0.29" stop-color="white"/>
<stop offset="0.78" stop-color="white" stop-opacity="0"/>
</linearGradient>
<linearGradient id="paint9_linear_2134_1784" x1="12.7231" y1="20.1523" x2="13.4643" y2="20.1523" gradientUnits="userSpaceOnUse">
<stop offset="0.29" stop-color="white"/>
<stop offset="0.78" stop-color="white" stop-opacity="0"/>
</linearGradient>
<linearGradient id="paint10_linear_2134_1784" x1="11.5938" y1="21.435" x2="12.1526" y2="21.435" gradientUnits="userSpaceOnUse">
<stop offset="0.29" stop-color="white"/>
<stop offset="0.78" stop-color="white" stop-opacity="0"/>
</linearGradient>
<linearGradient id="paint11_linear_2134_1784" x1="13.8349" y1="21.1714" x2="14.3937" y2="21.1714" gradientUnits="userSpaceOnUse">
<stop offset="0.29" stop-color="white"/>
<stop offset="0.78" stop-color="white" stop-opacity="0"/>
</linearGradient>
<linearGradient id="paint12_linear_2134_1784" x1="7.80024" y1="19.923" x2="9.00612" y2="19.923" gradientUnits="userSpaceOnUse">
<stop offset="0.29" stop-color="white"/>
<stop offset="0.78" stop-color="white" stop-opacity="0"/>
</linearGradient>
<linearGradient id="paint13_linear_2134_1784" x1="14.9526" y1="17.9171" x2="16.1585" y2="17.9171" gradientUnits="userSpaceOnUse">
<stop offset="0.29" stop-color="white"/>
<stop offset="0.78" stop-color="white" stop-opacity="0"/>
</linearGradient>
<clipPath id="clip0_2134_1784">
<rect width="24" height="24" fill="white"/>
</clipPath>
</defs>
</svg>
