<svg width="24" height="24" viewBox="0 0 24 24" fill="none" xmlns="http://www.w3.org/2000/svg">
<g clip-path="url(#clip0_2026_1803)">
<path d="M12.0401 23.9598C18.6454 23.9377 23.9821 18.5651 23.9599 11.9598C23.9378 5.35456 18.5652 0.0178653 11.9599 0.0399999C5.35464 0.0621345 0.0179436 5.43472 0.0400782 12.04C0.0622128 18.6453 5.4348 23.982 12.0401 23.9598Z" fill="#1E313F"/>
<path opacity="0.2" d="M19.4792 19.4303C23.5818 15.298 23.562 8.63253 19.4295 4.53006C15.2972 0.427592 8.63194 0.44742 4.5293 4.57972L19.4792 19.4303Z" fill="white"/>
<path d="M13.1216 10.928C13.0025 10.9083 12.8932 10.8785 12.784 10.8587C11.3139 10.5606 10.2509 10.352 10.2509 9.32884C10.2509 8.69314 10.8768 8.18658 11.9992 8.18658C13.0025 8.18658 13.7972 8.59383 14.3137 9.35867L14.393 9.37849L15.9925 7.73951L15.9825 7.67985C15.3468 6.92501 14.5422 6.39845 13.6184 6.12035C13.4892 6.08069 13.3701 6.05086 13.2408 6.02104H13.231C13.1813 6.01104 13.1416 6.00121 13.092 5.99121V4.54102H10.9066V5.99121C10.837 6.00121 10.7675 6.02104 10.698 6.03086H10.688C9.65487 6.27932 8.75106 6.8157 8.04571 7.6402C7.74777 8.13675 7.59863 8.7328 7.59863 9.41832C7.59863 11.7625 9.36693 12.5075 11.0952 12.9247C11.4132 13.0042 11.7311 13.0639 12.039 13.1135C13.1218 13.3122 14.0554 13.4811 14.0554 14.4546C14.0554 15.0605 13.3899 15.8155 11.9992 15.8155C11.1747 15.8155 10.4992 15.5372 10.0026 15.0306C9.9728 15.0008 9.93315 14.9712 9.90332 14.9413L8.01588 16.2526V16.322C8.28416 16.64 8.58209 16.9181 8.90003 17.1565C9.00934 17.2358 9.11848 17.3055 9.22779 17.375H9.23779C9.34693 17.4445 9.46624 17.5041 9.57538 17.5638C9.57538 17.5638 9.58538 17.5638 9.58538 17.5736C9.70452 17.6333 9.81384 17.6829 9.93315 17.7326C9.94298 17.7326 9.94298 17.7326 9.95298 17.7426C10.0721 17.7922 10.1913 17.8319 10.3106 17.8717C10.3204 17.8717 10.3304 17.8717 10.3304 17.8815C10.39 17.9014 10.4397 17.9114 10.4994 17.9312H10.5192C10.5787 17.951 10.6383 17.961 10.7078 17.9809C10.7178 17.9809 10.7278 17.9809 10.7376 17.9909C10.7873 18.0009 10.847 18.0107 10.8966 18.0207V19.4709H13.082V18.0207C13.1216 18.0107 13.1613 18.0107 13.2011 18.0009H13.2211C13.3701 17.971 13.5191 17.9312 13.668 17.8815C13.7375 17.8617 13.817 17.8319 13.8866 17.8121C14.6911 17.5139 15.3965 17.0172 15.9725 16.3419C16.1912 16.0836 16.3798 15.8155 16.5488 15.5174C16.6381 15.1996 16.6781 14.842 16.6781 14.4644C16.6877 11.9413 14.7806 11.2559 13.1216 10.9282V10.928Z" fill="#FAFBFC"/>
<path d="M8.02556 16.3124C7.91625 16.1832 7.81694 16.0541 7.72745 15.9151C7.6878 15.8555 7.64814 15.7958 7.60849 15.7461C7.59831 15.7363 7.58848 15.7163 7.57848 15.7065C7.54866 15.6568 7.509 15.5972 7.47917 15.5375L7.44935 15.478C7.41952 15.4284 7.38986 15.3687 7.36003 15.3191L7.33021 15.2594C7.30038 15.2098 7.27055 15.1503 7.25072 15.0904C7.24072 15.0708 7.23089 15.041 7.22089 15.0211C7.19107 14.9615 7.17124 14.9118 7.14158 14.8522C7.13158 14.8323 7.12158 14.8125 7.11158 14.7827C7.09175 14.723 7.06193 14.6634 7.0421 14.6039C7.0421 14.5939 7.0321 14.5741 7.0321 14.5642C6.98244 14.4251 6.93279 14.286 6.89313 14.147C6.89313 14.137 6.88313 14.127 6.88313 14.1073C6.8733 14.0575 6.8533 14.0078 6.84347 13.9582L6.81365 13.8391C6.80365 13.7894 6.79382 13.7496 6.78382 13.6999C6.77399 13.6603 6.76399 13.6106 6.75399 13.5708C6.74416 13.5211 6.73416 13.4815 6.72416 13.4316L6.69451 13.2827C6.68451 13.243 6.68451 13.1934 6.67451 13.1535C6.66468 13.1039 6.65468 13.0542 6.65468 12.9946C6.64485 12.9549 6.64485 12.9152 6.63485 12.8656C6.62485 12.8059 6.62485 12.7563 6.61502 12.6966C6.61502 12.657 6.60502 12.6173 6.60502 12.5775C6.60502 12.5078 6.5952 12.4482 6.5952 12.3787C6.5952 12.349 6.5952 12.3192 6.5852 12.2794C6.5852 12.1801 6.5752 12.0808 6.5752 11.9814C6.5752 11.8821 6.5752 11.7926 6.5852 11.6935V11.6039C6.5852 11.5344 6.5952 11.4749 6.5952 11.4052C6.5952 11.3756 6.60502 11.3357 6.60502 11.3059C6.61502 11.2464 6.61502 11.1768 6.62485 11.1173C6.62485 11.0875 6.63485 11.0576 6.63485 11.0278C6.64485 10.9485 6.65468 10.8788 6.66468 10.8094C6.66468 10.7894 6.66468 10.7697 6.67451 10.7597C6.68451 10.6702 6.70433 10.5807 6.72416 10.4914C6.73416 10.4616 6.73416 10.4318 6.74416 10.4121C6.75399 10.3523 6.77399 10.2928 6.78382 10.2331C6.79382 10.2033 6.80365 10.1637 6.80365 10.1338C6.81365 10.0742 6.83347 10.0245 6.8433 9.96486C6.8533 9.93521 6.8633 9.89538 6.8733 9.86555C6.89313 9.80607 6.91296 9.74641 6.92296 9.68676C6.93279 9.65693 6.94279 9.6371 6.95279 9.60744L7.0421 9.36899C7.0521 9.33917 7.06193 9.31934 7.07193 9.28951C7.09175 9.22985 7.11158 9.1802 7.14141 9.12054C7.15141 9.09089 7.17124 9.06106 7.18107 9.02123C7.20107 8.97157 7.22089 8.93192 7.25072 8.88226C7.27055 8.85243 7.28055 8.81261 7.30038 8.78295C7.32021 8.73312 7.35003 8.69347 7.36986 8.64381C7.38986 8.61398 7.39969 8.58415 7.41952 8.55433L7.53883 8.3457C7.44935 8.67364 7.40952 9.03123 7.40952 9.40865C7.40952 10.7 7.95608 11.6835 9.03885 12.349C9.09833 13.5111 9.4361 14.4249 10.0121 15.0111L8.02556 16.3124Z" fill="url(#paint0_linear_2026_1803)"/>
<path d="M14.3232 9.35886C14.6608 9.86542 14.8795 10.5013 14.9589 11.2661C15.237 11.3953 15.4755 11.5442 15.694 11.713C16.4986 12.3389 16.9059 13.2527 16.9059 14.415C16.9059 14.5541 16.8959 14.6931 16.886 14.8322V14.8222C16.9257 14.7329 16.9653 14.6336 16.9953 14.5343C17.0052 14.5044 17.0152 14.4844 17.025 14.4548C17.045 14.3851 17.0747 14.3157 17.0947 14.2462C17.1045 14.2163 17.1145 14.1765 17.1243 14.1469C17.1343 14.1072 17.1541 14.0574 17.164 14.0175C17.184 13.9581 17.194 13.9084 17.2138 13.8487C17.2238 13.8091 17.2336 13.7594 17.2436 13.7196L17.2735 13.5706C17.2833 13.5408 17.2833 13.5012 17.2933 13.4713C17.3033 13.4018 17.3231 13.3224 17.3329 13.2527C17.3329 13.2231 17.3429 13.1932 17.3429 13.1634L17.3728 12.9249C17.3728 12.9051 17.3728 12.8951 17.3826 12.8753C17.3926 12.796 17.4026 12.7263 17.4026 12.6468C17.4026 12.627 17.4026 12.6072 17.4124 12.5872C17.4224 12.4979 17.4224 12.4084 17.4323 12.3191V12.2594C17.4323 12.1701 17.4422 12.0706 17.4422 11.9813C17.4422 11.882 17.4423 11.7827 17.4323 11.6734C17.4323 11.6435 17.4323 11.6137 17.4224 11.5741C17.4224 11.5046 17.4124 11.4349 17.4124 11.3754C17.4124 11.3358 17.4026 11.296 17.4026 11.2561C17.3926 11.1966 17.3926 11.137 17.3826 11.0773C17.3826 11.0377 17.3728 10.998 17.3628 10.9482C17.3529 10.8885 17.3529 10.8389 17.3429 10.7792C17.3329 10.7396 17.3329 10.6899 17.3231 10.6503C17.3131 10.6006 17.3033 10.5409 17.2933 10.4913C17.2833 10.4516 17.2735 10.4018 17.2635 10.3622L17.2336 10.2132C17.2238 10.1735 17.2138 10.1237 17.2038 10.0839C17.194 10.0344 17.1741 9.98473 17.1641 9.93508C17.1541 9.89542 17.1443 9.84559 17.1245 9.80576C17.1145 9.75628 17.0947 9.71645 17.0847 9.6668C17.0747 9.62714 17.0548 9.57749 17.045 9.53766C17.025 9.488 17.0152 9.44835 16.9953 9.40852C16.9753 9.36886 16.9655 9.31921 16.9455 9.27938C16.9257 9.23972 16.9159 9.19007 16.8959 9.15024C16.876 9.11058 16.8562 9.06093 16.8462 9.0211L16.7867 8.90196C16.7667 8.8623 16.7471 8.82248 16.7271 8.77265L16.6674 8.65368C16.6476 8.61402 16.6278 8.5742 16.5979 8.53437C16.5781 8.49471 16.5583 8.45506 16.5284 8.42506C16.5084 8.3854 16.4788 8.34574 16.4588 8.30609C16.439 8.26626 16.4091 8.23643 16.3893 8.19661C16.3198 8.08747 16.2403 7.97815 16.1609 7.86901C16.1012 7.78936 16.0417 7.71987 15.9821 7.65039L14.3232 9.35903V9.35886Z" fill="url(#paint1_linear_2026_1803)"/>
<mask id="mask0_2026_1803" style="mask-type:alpha" maskUnits="userSpaceOnUse" x="16" y="0" width="6" height="5">
<path d="M16.5029 0.255859H21.0952V4.84816H16.5029V0.255859Z" fill="white"/>
</mask>
<g mask="url(#mask0_2026_1803)">
<path fill-rule="evenodd" clip-rule="evenodd" d="M21.0952 2.55192C19.4197 2.55192 18.7992 3.09814 18.7992 4.84834C18.7992 3.09831 18.1785 2.55192 16.5029 2.55192C18.1785 2.55192 18.7992 2.00588 18.7992 0.255859C18.7992 2.00588 19.4199 2.55192 21.0952 2.55192Z" fill="white"/>
</g>
</g>
<defs>
<linearGradient id="paint0_linear_2026_1803" x1="8.32453" y1="14.6846" x2="6.59057" y2="7.74881" gradientUnits="userSpaceOnUse">
<stop offset="0.00058" stop-color="white"/>
<stop offset="1" stop-color="#1E313F"/>
</linearGradient>
<linearGradient id="paint1_linear_2026_1803" x1="15.8233" y1="8.9401" x2="17.3887" y2="15.4107" gradientUnits="userSpaceOnUse">
<stop offset="0.00058" stop-color="white"/>
<stop offset="0.9967" stop-color="#4E5A64"/>
</linearGradient>
<clipPath id="clip0_2026_1803">
<rect width="24" height="24" fill="white"/>
</clipPath>
</defs>
</svg>
