<svg width="24" height="24" viewBox="0 0 24 24" fill="none" xmlns="http://www.w3.org/2000/svg">
<g clip-path="url(#clip0_2564_2767)">
<circle cx="12" cy="12" r="12" fill="url(#paint0_radial_2564_2767)"/>
<path d="M6.41875 8.77753C6.3053 4.04555 10.4942 4.55042 11.8773 5.53277C11.9175 5.56137 11.9717 5.56256 12.0144 5.53762C16.0489 3.17851 17.8957 7.21482 17.5009 8.75563C17.4833 8.82402 17.5241 8.89754 17.5917 8.9177C21.7518 10.1575 19.354 14.4473 18.0383 15.3364C18.0135 15.3531 17.9967 15.3767 17.9886 15.4055C17.4384 17.3699 15.9436 19.2606 11.9419 19.2606C7.92988 19.2606 6.43669 17.2411 5.77175 15.4474C5.76518 15.4297 5.75408 15.4134 5.74028 15.4004C2.40817 12.2815 4.43494 9.39833 6.32491 8.90387C6.38106 8.88918 6.42014 8.83556 6.41875 8.77753Z" fill="#FFA62F"/>
<path fill-rule="evenodd" clip-rule="evenodd" d="M10.2711 10.1248C11.1354 9.89324 11.6065 8.84925 11.3235 7.79299C11.0405 6.73672 10.1104 6.06818 9.24622 6.29974C8.382 6.53131 7.91085 7.5753 8.19388 8.63156C8.4769 9.68782 9.40692 10.3564 10.2711 10.1248ZM13.5662 10.1248C12.702 9.89324 12.2309 8.84925 12.5139 7.79299C12.7969 6.73672 13.7269 6.06818 14.5911 6.29974C15.4554 6.53131 15.9265 7.5753 15.6435 8.63156C15.3605 9.68782 14.4304 10.3564 13.5662 10.1248ZM8.37251 10.8805C9.14575 11.6537 9.25972 12.7934 8.62707 13.4261C7.99442 14.0587 6.85473 13.9448 6.08149 13.1715C5.30825 12.3983 5.19428 11.2586 5.82693 10.6259C6.45958 9.99329 7.59928 10.1073 8.37251 10.8805ZM15.2103 13.4261C14.5776 12.7934 14.6916 11.6537 15.4649 10.8805C16.2381 10.1073 17.3778 9.99329 18.0104 10.6259C18.6431 11.2586 18.5291 12.3983 17.7559 13.1715C16.9826 13.9448 15.8429 14.0587 15.2103 13.4261Z" fill="#FF7C0C"/>
<mask id="mask0_2564_2767" style="mask-type:alpha" maskUnits="userSpaceOnUse" x="5" y="6" width="14" height="8">
<path fill-rule="evenodd" clip-rule="evenodd" d="M10.2702 10.1248C11.1344 9.89324 11.6055 8.84925 11.3225 7.79299C11.0395 6.73672 10.1095 6.06818 9.24524 6.29974C8.38102 6.53131 7.90988 7.5753 8.1929 8.63156C8.47593 9.68782 9.40595 10.3564 10.2702 10.1248ZM13.5652 10.1248C12.701 9.89324 12.2299 8.84925 12.5129 7.79299C12.7959 6.73672 13.726 6.06818 14.5902 6.29974C15.4544 6.53131 15.9255 7.5753 15.6425 8.63156C15.3595 9.68782 14.4295 10.3564 13.5652 10.1248ZM8.37154 10.8805C9.14478 11.6537 9.25874 12.7934 8.6261 13.4261C7.99345 14.0587 6.85375 13.9448 6.08051 13.1715C5.30727 12.3983 5.1933 11.2586 5.82595 10.6259C6.4586 9.99329 7.5983 10.1073 8.37154 10.8805ZM15.2093 13.4261C14.5767 12.7934 14.6906 11.6537 15.4639 10.8805C16.2371 10.1073 17.3768 9.99329 18.0095 10.6259C18.6421 11.2586 18.5281 12.3983 17.7549 13.1715C16.9817 13.9448 15.842 14.0587 15.2093 13.4261Z" fill="#FF7C0C"/>
</mask>
<g mask="url(#mask0_2564_2767)">
<path d="M5.87988 13.5014C6.73988 13.3214 8.47188 12.4694 8.51988 10.5014C8.23991 9.42816 7.89946 9.13741 7.75208 9.12203C7.748 9.12182 7.74393 9.1216 7.73988 9.12138C7.74379 9.12138 7.74785 9.12159 7.75208 9.12203C8.83686 9.17838 11.0895 8.77764 11.5199 6.72138C11.5199 6.60138 12.2999 8.88138 16.1399 8.64138L15.6599 10.2615C15.9399 11.1015 17.0159 12.7575 19.0799 12.6615C19.0319 13.0935 16.9799 14.1615 15.9599 14.6415L14.0999 12.6615L13.1999 10.5014L11.8199 9.90148L10.4399 10.5014L9.47988 12.6615L7.73988 14.8215L5.87988 13.5014Z" fill="#D55F11"/>
</g>
<path fill-rule="evenodd" clip-rule="evenodd" d="M10.9757 7.88616C11.2257 8.81888 10.7881 9.61358 10.178 9.77707C9.56779 9.94057 8.79153 9.4711 8.54161 8.53839C8.29169 7.60567 8.72921 6.81097 9.33939 6.64747C9.94957 6.48398 10.7258 6.95345 10.9757 7.88616ZM11.3235 7.79299C11.6065 8.84925 11.1354 9.89324 10.2711 10.1248C9.40692 10.3564 8.4769 9.68782 8.19388 8.63156C7.91085 7.5753 8.382 6.53131 9.24622 6.29974C10.1104 6.06818 11.0405 6.73672 11.3235 7.79299ZM12.8616 7.88616C12.6117 8.81888 13.0492 9.61358 13.6594 9.77707C14.2696 9.94057 15.0458 9.4711 15.2958 8.53839C15.5457 7.60567 15.1082 6.81097 14.498 6.64747C13.8878 6.48398 13.1115 6.95345 12.8616 7.88616ZM12.5139 7.79299C12.2309 8.84925 12.702 9.89324 13.5662 10.1248C14.4304 10.3564 15.3605 9.68782 15.6435 8.63156C15.9265 7.5753 15.4554 6.53131 14.5911 6.29974C13.7269 6.06818 12.7969 6.73672 12.5139 7.79299ZM8.37251 13.1715C8.81919 12.7248 8.80075 11.8178 8.11796 11.1351C7.43516 10.4523 6.52817 10.4338 6.08149 10.8805C5.63481 11.3272 5.65325 12.2342 6.33605 12.917C7.01884 13.5998 7.92583 13.6182 8.37251 13.1715ZM8.62707 13.4261C9.25972 12.7934 9.14575 11.6537 8.37251 10.8805C7.59928 10.1073 6.45958 9.99329 5.82693 10.6259C5.19428 11.2586 5.30825 12.3983 6.08149 13.1715C6.85473 13.9448 7.99442 14.0587 8.62707 13.4261ZM15.7194 11.1351C15.0366 11.8178 15.0182 12.7248 15.4649 13.1715C15.9115 13.6182 16.8185 13.5998 17.5013 12.917C18.1841 12.2342 18.2026 11.3272 17.7559 10.8805C17.3092 10.4338 16.4022 10.4523 15.7194 11.1351ZM15.4649 10.8805C14.6916 11.6537 14.5776 12.7934 15.2103 13.4261C15.8429 14.0587 16.9826 13.9448 17.7559 13.1715C18.5291 12.3983 18.6431 11.2586 18.0104 10.6259C17.3778 9.99329 16.2381 10.1073 15.4649 10.8805Z" fill="black"/>
<mask id="mask1_2564_2767" style="mask-type:alpha" maskUnits="userSpaceOnUse" x="3" y="4" width="17" height="16">
<path d="M6.41875 8.77753C6.3053 4.04555 10.4942 4.55042 11.8773 5.53277C11.9175 5.56137 11.9717 5.56256 12.0144 5.53762C16.0489 3.17851 17.8957 7.21482 17.5009 8.75563C17.4833 8.82402 17.5241 8.89754 17.5917 8.9177C21.7518 10.1575 19.354 14.4473 18.0383 15.3364C18.0135 15.3531 17.9967 15.3767 17.9886 15.4055C17.4384 17.3699 15.9436 19.2606 11.9419 19.2606C7.92988 19.2606 6.43669 17.2411 5.77175 15.4474C5.76518 15.4297 5.75408 15.4134 5.74028 15.4004C2.40817 12.2815 4.43494 9.39833 6.32491 8.90387C6.38106 8.88918 6.42014 8.83556 6.41875 8.77753Z" fill="#FFA62F"/>
</mask>
<g mask="url(#mask1_2564_2767)">
<path d="M3.72118 12.9607C3.7113 12.8758 3.7077 12.781 3.71212 12.6786L3.37427 2.14963C3.36671 1.91405 3.53132 1.70784 3.76272 1.663L12.8148 -0.0908457C12.9101 -0.10931 13.0088 -0.0984466 13.0978 -0.0596899L20.1486 3.01082C20.305 3.07894 20.4135 3.22495 20.4336 3.39435L21.2358 10.156C21.2394 10.1858 21.2402 10.2152 21.238 10.2451C21.1356 11.6624 20.7696 14.0918 20.0854 13.0334C20.0557 12.9873 20.036 12.9319 20.0255 12.878C19.5883 10.6257 18.4289 9.85278 17.5886 9.68635C17.303 9.62979 17.0451 9.39828 17.0303 9.10751C16.8183 4.9436 13.6893 5.36178 12.2343 6.41788C12.0536 6.54902 11.8095 6.5721 11.6167 6.45952C8.44894 4.60954 7.06052 7.23457 7.10366 9.20418C7.10927 9.46079 6.94088 9.6975 6.69239 9.76176C4.37919 10.36 3.7501 11.7993 3.71212 12.6786L3.72118 12.9607Z" fill="#FFD7A7"/>
<path d="M5.67713 14.2279C4.53159 13.6976 3.5387 12.4079 3.12109 11.7012L4.68109 21.3012C7.82109 21.3412 14.1611 21.3972 14.4011 21.3012C14.6411 21.2052 17.5011 20.1812 18.9011 19.6812C19.8411 16.4812 21.4931 10.5252 20.5811 12.3012C19.876 13.6742 18.5757 14.2272 17.6338 14.3982C17.2154 14.4742 16.8403 14.7445 16.6562 15.1278C15.5714 17.3873 13.2387 17.8761 12.1211 17.8212C9.28739 17.8212 7.69822 16.2293 6.99176 15.2367C6.69825 14.8243 6.1365 14.4405 5.67713 14.2279Z" fill="#CF892F"/>
</g>
<path fill-rule="evenodd" clip-rule="evenodd" d="M17.685 8.7583C18.7329 9.07902 19.3939 9.59779 19.7571 10.2292C20.124 10.867 20.1721 11.5937 20.045 12.2911C19.918 12.9882 19.6143 13.668 19.2603 14.2291C18.9136 14.7787 18.5087 15.2299 18.1559 15.474C17.8721 16.476 17.3438 17.4699 16.3682 18.2132C15.3863 18.9612 13.9706 19.4409 11.9414 19.4409C9.90395 19.4409 8.4872 18.9275 7.49217 18.1702C6.50325 17.4175 5.94772 16.4366 5.60734 15.5233C3.91355 13.9334 3.5523 12.3705 3.90043 11.12C4.24013 9.89988 5.24676 9.01725 6.23744 8.74124C6.21492 7.55326 6.45945 6.67142 6.87864 6.03717C7.30388 5.39375 7.89859 5.0208 8.53716 4.83944C9.17294 4.65888 9.85186 4.66789 10.4581 4.7834C11.0475 4.89568 11.5814 5.11114 11.9517 5.36587C12.9729 4.77475 13.8728 4.57519 14.646 4.64966C15.4274 4.72492 16.0614 5.07835 16.5447 5.55651C17.0265 6.03315 17.3602 6.63465 17.5483 7.21594C17.7292 7.77485 17.7814 8.33381 17.685 8.7583ZM14.6115 5.00801C13.9233 4.94172 13.089 5.11783 12.1048 5.69333C12.0042 5.75213 11.8734 5.75149 11.7726 5.67984C11.4522 5.45229 10.9566 5.24484 10.3908 5.13704C9.82619 5.02948 9.20566 5.02383 8.63551 5.18575C8.06815 5.34688 7.55046 5.67357 7.17897 6.23566C6.80622 6.79965 6.57047 7.61623 6.59821 8.77354C6.60154 8.91215 6.50964 9.04179 6.36999 9.07833C5.48393 9.31015 4.55565 10.1088 4.24724 11.2166C3.94316 12.3088 4.23259 13.7435 5.86281 15.2694C5.89595 15.3004 5.92328 15.3399 5.94004 15.3851C6.26504 16.2618 6.788 17.1818 7.7102 17.8837C8.631 18.5845 9.96684 19.0809 11.9414 19.0809C13.9139 19.0809 15.2464 18.6152 16.15 17.9268C17.0534 17.2385 17.5471 16.313 17.8148 15.3573C17.8342 15.2881 17.8763 15.2285 17.937 15.1876C18.238 14.9841 18.6187 14.5714 18.9559 14.037C19.2915 13.505 19.574 12.8681 19.6909 12.2266C19.8077 11.5855 19.7575 10.9517 19.4451 10.4087C19.1339 9.86778 18.5474 9.39082 17.5398 9.09053C17.3777 9.04219 17.285 8.87145 17.326 8.71127L17.5004 8.75595L17.326 8.71127C17.4134 8.37013 17.3801 7.86553 17.2058 7.32678C17.0326 6.79164 16.7264 6.24261 16.2915 5.81245C15.8583 5.38382 15.2988 5.0742 14.6115 5.00801Z" fill="black"/>
<path d="M10.5328 11.1802C11.0208 9.98682 12.7107 9.98682 13.1986 11.1802L13.7762 12.5928C13.8255 12.7133 13.8909 12.8266 13.9707 12.9296L14.9052 14.1361C15.6947 15.1553 14.8498 16.6188 13.5723 16.4447L12.0602 16.2386C11.9311 16.221 11.8003 16.221 11.6713 16.2386L10.1591 16.4447C8.88167 16.6188 8.03673 15.1553 8.82622 14.1361L9.76078 12.9296C9.84054 12.8266 9.90596 12.7133 9.95525 12.5928L10.5328 11.1802Z" fill="#FF7C0C"/>
<mask id="mask2_2564_2767" style="mask-type:alpha" maskUnits="userSpaceOnUse" x="8" y="10" width="8" height="7">
<path d="M10.5328 11.1802C11.0208 9.98682 12.7107 9.98682 13.1986 11.1802L13.7762 12.5928C13.8255 12.7133 13.8909 12.8266 13.9707 12.9296L14.9052 14.1361C15.6947 15.1553 14.8498 16.6188 13.5723 16.4447L12.0602 16.2386C11.9311 16.221 11.8003 16.221 11.6713 16.2386L10.1591 16.4447C8.88167 16.6188 8.03673 15.1553 8.82622 14.1361L9.76078 12.9296C9.84054 12.8266 9.90596 12.7133 9.95525 12.5928L10.5328 11.1802Z" fill="#FF7C0C"/>
</mask>
<g mask="url(#mask2_2564_2767)">
<path d="M9.96078 15.1807C8.71278 15.4207 8.24078 14.6407 8.16078 14.2207L7.80078 14.4607L8.16078 17.5207L13.7408 18.4807L16.0208 15.5407C16.1808 14.9807 16.2848 14.0167 15.4208 14.6407C14.5568 15.2647 13.9808 15.2131 13.7408 15.1807C13.0008 15.0807 11.2088 14.9407 9.96078 15.1807Z" fill="#D45F11"/>
</g>
<path fill-rule="evenodd" clip-rule="evenodd" d="M13.443 12.729L12.8654 11.3164C12.4994 10.4214 11.232 10.4214 10.8661 11.3164L10.2885 12.729C10.2269 12.8797 10.1451 13.0213 10.0454 13.15L9.11083 14.3566C8.5187 15.121 9.15242 16.2186 10.1105 16.088L11.6226 15.8819C11.7839 15.8599 11.9475 15.8599 12.1088 15.8819L13.621 16.088C14.579 16.2186 15.2127 15.121 14.6206 14.3566L13.6861 13.15C13.5864 13.0213 13.5046 12.8797 13.443 12.729ZM13.1986 11.1802C12.7107 9.98682 11.0208 9.98682 10.5328 11.1802L9.95525 12.5928C9.90596 12.7133 9.84054 12.8266 9.76078 12.9296L8.82622 14.1361C8.03673 15.1553 8.88167 16.6188 10.1591 16.4447L11.6713 16.2386C11.8003 16.221 11.9311 16.221 12.0602 16.2386L13.5723 16.4447C14.8498 16.6188 15.6947 15.1553 14.9052 14.1361L13.9707 12.9296C13.8909 12.8266 13.8255 12.7133 13.7762 12.5928L13.1986 11.1802Z" fill="black"/>
</g>
<defs>
<radialGradient id="paint0_radial_2564_2767" cx="0" cy="0" r="1" gradientUnits="userSpaceOnUse" gradientTransform="translate(12 12) rotate(90) scale(12)">
<stop offset="0.280584" stop-color="#FF6E6C"/>
<stop offset="1" stop-color="#F5302E"/>
</radialGradient>
<clipPath id="clip0_2564_2767">
<rect width="24" height="24" fill="white"/>
</clipPath>
</defs>
</svg>
