<svg width="24" height="24" viewBox="0 0 24 24" fill="none" xmlns="http://www.w3.org/2000/svg">
<path d="M12 24C18.6274 24 24 18.6274 24 12C24 5.37258 18.6274 0 12 0C5.37258 0 0 5.37258 0 12C0 18.6274 5.37258 24 12 24Z" fill="#F7F8FA"/>
<path fill-rule="evenodd" clip-rule="evenodd" d="M2.08105 18.7567C4.22404 21.8965 7.81898 23.9663 11.8993 23.9997C12.6163 23.9939 13.3182 23.9245 13.9996 23.797C13.9857 20.1621 11.2131 17.1772 7.66556 16.8252V0.806641C7.05316 1.04392 6.46508 1.33001 5.9061 1.66013V16.8691C4.43155 17.0907 3.10682 17.7696 2.08105 18.7567Z" fill="#173F88"/>
</svg>
