<svg width="24" height="24" fill="none" xmlns="http://www.w3.org/2000/svg"><g clip-path="url(#a)"><rect width="24" height="24" rx="12" fill="#F7F8FA"/><path d="M.28 19.4v-.3c.49.01 1.03.39 1.42-.22.33-.08.7-.12.73-.58l.87-.53.57-.4.97-.8.1-.02c.12-.1.24-.2.36-.28l.03-.08.18-.17.74-.7.45-.22.28-.18.01-.28.3-.01.19-.12.12-.33h.14l.33-.18c.03 0 .05-.02.05-.05l.33-.24.6-.3.18.3c.57-.5 1.42-.7 1.59-1.65.09-.48-.2-.6-.43-.82v-.37l-.57-.67-.1-.26-.25-.22c-.04 0-.07-.02-.1-.03V8.79c.38-.69 1.58-.15 1.79-1.15l.06-.24c.07-.16.15-.33.21-.5l.75-.56c.03 0 .04.02.04.05-.08 1.07.54 1.67 1.4 2.12h.01l.36.39.2.16v.21c-.71.42-1.5.75-1.66 1.7-.1.58.57.04.62.4-.13.13-.26.26-.4.37l-.56.66v.09c-1.3.22-1.9 1.37-2.84 2.08l-.1.1c-.85.48-1.71.96-2.16 1.9l.18.46-.22.26a.28.28 0 0 0-.09.02c-.93-.18-1.12.53-1.38 1.15l-.58.46-.18.1-.38.38-1.05.79c-.86-.3-1.7-.23-2.53.14l-.03-.46c.38-.84-.51-.15-.55-.48Zm2.65.28c.09.08.12.13.16.14.04.01.09-.04.14-.06l-.1-.13c-.04-.02-.1.02-.2.05ZM16.17.28h.56l.08.6v.56l-.07.54c.68.75.81 1.7.82 2.66l-.16-.01-.46.2-.2-.02-.14-.43-.08-.32-.1-.29-.1-.09.04-.2-.28-.57-.24-.16v-.13l-.07-.09h-.03v-.04l-.25-.25a5.48 5.48 0 0 1-.22-.05l-.92-.3-.27-.07c-.58-.2-1.08-.13-1.38.5l-.05.1-.46.3-.34-.2.1.4-.28.54.15 1.62-.54.49.01-.03-.13-.27-.22-.58-.02-.28.02.01h.03c0-.07 0-.13-.02-.2l.17-1.32.15-.86v-.27l-.05-.2.03-.1-.03-.8-.07-.42h.75l.06.14.02.62c-.05 1.36.83.3 1.24.47.1-.07.2-.13.28-.2l.93-.55 1.19.49.23.08.2.22.03-.55c0-.21 0-.41-.02-.63.05 0 .08-.03.1-.06ZM.28 5.95c0-1.89-.74-4.52.2-5.47.95-.95 3.58-.21 5.47-.21h2.09L8 .93l-.08 1.23h-.17L7.39.98l-.1.61-.04.76c-.14-.11-.36-.2-.4-.34-.15-.5.48-1.47-.81-1.16L5.39.7c-.13 0-.25 0-.38-.02-.1 0-.19-.02-.28-.03L2.28.65c-.39-.05-.89-.37-.95.39v.55l-.05.07c-.08.12-.21.25-.21.37a280.9 280.9 0 0 0 0 4.03l-.8-.1Z" fill="#23150D"/><path d="M15.03 23.94h-.85v-.18h.1l.2-.09c-.16-.6.92-.65.56-1.32v-.28H15.5c.1-.08.27-.2.25-.24-.03-.12-.16-.22-.25-.33l.05-.5c-.08 0-.24-.03-.25 0-.07.17-.12.34-.17.51l-.83.62.43.05c0 .06 0 .12.02.19l-.3.29c-.12.05-.55-.19-.27.27l-.1.2h-.38c-.61.16-.2-.69-.65-.67l-.3-.19c-.01-.2.54-.29.11-.56l.28-.19c.08.05.15.1.23.13l.09-.14a1.92 1.92 0 0 1-.2-.1l-.01-.17c.22-.26.41.6.65.01l.21-.2.51.13-.15-.42c.15-.11.3-.24.47-.35l-.28-.13v-.17h.02c.23-.24.78.44.83-.3.5.08 0 1.67 1.14.76l.65 1.04-.4.27.32.21v.08l-.94.68h-.08c-.57-.13-.87.07-.86.67-.12.12-.22.27-.32.42ZM23.92 15.6v.2l-.55.29c-.23.09-.54.14-.2.47-.12.12-.24.25-.38.37l.02-.49c-.1.1-.2.2-.3.27-.12.08-.26.18-.37.17-.09-.01-.24-.2-.21-.27.05-.17.16-.37.3-.42.45-.2.5-.94.47-.94-1.07.06-.3-.49-.27-.77.18-.4.08-.68-.39-.76-.27-.16-.19-1.1-.85-.38l-.47-.1.95-.93.17-.01.16.44.32-.82.56-.29c-.18.38-.35.76 0 1.14-.1.23-.21.46-.29.7-.03.08.06.3.09.29.81-.05.3-.64.39-1 0-.28-.27-.64.18-.84l.67.38v.19l-.11.1c.04.02.08.06.11.1v2.54l-.23.13c.09.08.17.16.23.25Zm-1.13-1.03.06.4c.08-.03.15-.08.23-.12l.61-.17c-.2-.15-.39-.3-.6-.41-.04-.02-.2.2-.3.3Zm.96-1.2c-.05-.06-.09-.14-.11-.14-.04 0-.13.06-.13.08.01.06.06.12.09.17l.15-.12Z" fill="#D7BA7A"/><path d="M.28 8.42v-.2l2.06-.01c1.43.19 2.55.87 3.33 2.09l-.8.1h-.1l-1-.06H3.1l-.35-.07a1.87 1.87 0 0 0-.2-.05l-.85-.03c-.42-.64-.04-1.92-1.42-1.77Z" fill="#E1D298"/><path d="M.28 18.45v-7.29l.18-.1 3.04.08-1.43.32-.28.07-.18-.25-.22.25c-.22.05-.45.1-.67.13l.67.07c.25.28.5.27.76.01h.66c.57.29 1.14.28 1.71.01l.47-.03.2.02H6.32l.66.09.17.28-.66.02-.26.08-1.05.02H1.52c-.17 0-.34 0-.5.02v.05l-.29.2c-.54 1.46-.18 2.96-.16 4.44-.17.48.3 1.1-.3 1.51ZM.28 8.03v-.66l.58-.05 6.23.1.1.04.2.35.07-.34.84-.04c.13.16.25.34.39.5l-.93.23-.52-.07-1.68.01-.37-.06H.28ZM23.92 7.47v.66c-.1 0-.19 0-.28-.02l-1.47-.5c0 .06-.01.17.02.18.26.16.55.3.83.44l.2.2.06.08.46.14.17.06v1.7l-.65-.58v-.18l-.37-.39-.35-.32-.15-.33-.35-.4-.56-.75-.01-.09-.2-.36-.28-.3-.47-.66.1-.67.94.57.5.3-.03.2-.2.2.32.2.08.23.02.13.36.29h.19l.1-.07 1.02.04Z" fill="#23150D"/><path d="M10.78 23.94h-.85c.28-.68-.47-.8-.66-1.24v-.48c.1-.04.19-.08.27-.13l.13-.16a.22.22 0 0 0-.07-.05l-.17.17a2.24 2.24 0 0 0-.27-.1l.1-.24.72-.48.23.18c.02-.13.06-.25.1-.38l1.96-1.5c-.04.26-.06.73-.13.74-.83.11-1.18.52-1 1.36-.02 0-.05 0-.08.02l-.41.32c.17 0 .33-.03.5-.03l.19.3-.66.28v.2l.1 1.22Zm-.8-.97.2.25c.08-.12.19-.23.24-.36.02-.05-.12-.15-.19-.22-.06.1-.14.2-.25.33Z" fill="#927341"/><path d="M21.19 23.94h-.2c.22-.29.51-.56.6-.88.09-.3-.17-.33-.4-.16l-1.14-.38-.1-.2.88-.67.64-.08.37.01c.06.77.85.32 1.14.68.39-.4-.35-.43-.25-.7.12-.28-.07-.8.52-.75-.34.95.3.51.67.48v1.42L22.7 23c-.04-.34-.16-.5-.47-.2l-1.03 1.14Zm2.45-2.18-.16.23.06.05c.04-.09.08-.18.1-.28l.02-.07a.66.66 0 0 1-.02.07Z" fill="#C19B5D"/><path d="M16.19 22.8h.64l.28.14.05-.11-.32-.03.36-.67.01-.08.4-.46.35-.1c.44.34-.85.48-.08.85-.03.13-.13.33-.07.38.08.09.27.09.41.13l-.09-.5.31-.1.77-.49-.01.2.09-.2 1.62-1.2.42.46c0 .07-.02.13-.04.2l-.48.26c-.55-.18-.77.34-1.13.57l-.38.3.19.65c-.1.1-.3.25-.29.27.1.17-.9.36.01.48l.1.2h-1.04c.15-.2.3-.4.47-.58l-.05-.46-.8.55-.3-.18-1.5-.2c.02-.09.06-.18.1-.27Z" fill="#C19B5D"/><path d="m3.5 11.14-3.04-.08-.18-.09v-.29h1.99l.94-.01.2-.01h1.05c.16-.02.3-.06.46-.1l-.14-.17h.1l-.01.04h.04a.88.88 0 0 0-.08.13l.18.08.76.03h1.88l.68.02.02.75h-.11l-.18-.29-1.35-.01-2.75-.01H3.5Z" fill="#DEC88B"/><path d="M23.92 2.27v2.08c-.33.1-.74.13-.47.66l-.86.09-.29-1.8.01-.18c.99.56.94-.84 1.61-.85Z" fill="#D7BA7A"/><path d="M19.1.28h.76V.8l-.06.4-.01.2-.01.17c0 .23 0 .46.02.7l.24.32v.08l-.13-.09-.06.34.02.66-.05.56.01.2.02.29-.08.19-.46.37-.1-.93v-.3c0-.1 0-.18.02-.27l-.06-2.1-.02-.17-.06-.64.02-.13c-.02-.13 0-.26 0-.38Z" fill="#23150D"/><path d="M23.92 2.27c-.68.01-.62 1.42-1.6.85 0-.3.04-.63-.41-.67 0-.1 0-.2.02-.28l.03-.18.02-.36.83-.29 1.12-.1v1.03Z" fill="#DBAE5A"/><path d="M5.2 23.94H3c.24-.44.01-.52-.36-.48h-.16l-.26-.13.7-.38 1.12-.69 1.14 1.68Z" fill="#23150D"/><path d="m.28 5.95.77.1 6.22.18c0 .08.03.15.04.23l-4.1-.04h-1.5l-.37.01-.28.01H.3C.28 6.26.28 6.1.28 5.94Z" fill="#492E19"/><path d="M20.14.28c1.13 0 2.28.02 3.4-.01.34-.01.46.07.38.38a.87.87 0 0 1-.1.09l-.1.08-.44-.01-.49-.04-.66.07-.18.01c-.45.07-.94.09-.86.76l-.1.2-.24-.02-.06-.36v-.38L20.6.92l-.07.13h-.01l-.39.18-.07-.36c.04-.2.06-.4.08-.6Z" fill="#23150D"/><path d="M11.34 22.24c-.06-.1-.13-.19-.18-.3l-.1-.27.09-.02 1.52.2-.13.44.22-.05.29.2c-1.16.13-.28 1.04-.58 1.51h-.85l-.39-1.14.29-.28.37-.29.13-.11-.12-.08-.38.1c-.06.02-.11.05-.18.1Z" fill="#C19B5D"/><path d="M9.26 22.7c.2.43.95.56.66 1.24h-.67l.12-.48-.68.2c-.13.09-.25.19-.38.27h-1.6l.02-.14.09-.02.31-.26.6-.42.33-.2c.48.44.8-.2 1.2-.19Z" fill="#795B32"/><path d="M.28 8.42c1.4-.14 1 1.13 1.42 1.78l-.04.07-.7.07c-.08 0-.15 0-.22.02l-.27-.06c-.07-.03-.12-.06-.2-.08v-1.8Z" fill="#D7BA7A"/><path d="m17.87 23.46.8-.55.05.46c-.36.07-.78.06-.84.57h-2.85l.3-.45.74-.41 1.5.2.3.18ZM21.19 23.94l1.03-1.13.01.3.17.2.1-.3h.2l1.22-.3c.33 1.33-.49 1.35-1.42 1.23l-.16-.32-.12.32h-.28c-.07-.08-.15-.15-.21-.24l-.17.24h-.37Zm1.86-.43.28-.24c-.07-.05-.16-.15-.2-.13-.09.03-.15.13-.2.22 0 0 .07.07.12.15Z" fill="#AA8851"/><path d="m22.05 6.25-.49-.3.1-.35.32-.2c.66 0 1.3-.02 1.95-.03v.1l-.02.03.02.07v.85l-1.5.02-.09-.3-.12.1h-.17Zm.72.02-.04-.01v.05l.03-.01.01-.03Z" fill="#311D12"/><path d="m11.23.7.03.8c-.74-.6-1.5-.67-2.32-.16L9.08.28h1.8l.35.42Z" fill="#795B32"/><path d="M.28 18.45c.6-.41.13-1.03.29-1.52.3 1.05 1.05 1.02 1.89.77h.2l.65.08c-.29.17-.58.34-.87.53l-.16-.07-.16-.23-.13.2-.34.36c-.17.03-.34.08-.5.12l-.49.02-.37.02-.01-.28Z" fill="#311D12"/><path d="M.28 7.1v-.48l.28.02.97.06h.33l.21.02c.54 0 1.07.02 1.6.04h.22c.28 0 .56 0 .84.02l2.37.12v.14l-6.24.05H.28Z" fill="#23150D"/><path d="M6.73 23.79c0 .05-.02.1-.03.14h-.56v-.19c.07-.04.14-.08.22-.1l-.12-.12c-.04.08-.08.14-.1.22l-.53-.75.34-.1.16-.02c-.06-.09-.1-.18-.17-.27a5 5 0 0 0 .2-.3l.01-.07.16-.38v-.17l.2-.1.28-.02c.56.77-.68 1.47-.06 2.23Z" fill="#B39467"/><path d="m23.27 9.83.65.58v.47c-.27.42-.69-.58-.94.08h-.23a7.86 7.86 0 0 0-.2-.4l-.13-.3.07-.81v-.19l.06-.34.35.32c-.12.36.07.42.36.39l.01.2c-.05.1-.1.21-.14.33l.14.06v-.39Z" fill="#795B32"/><path d="M19.2 23.75c-.9-.12.1-.3 0-.48-.03-.03.18-.18.28-.27h.28l.11.21.18-.22.37.1v.19l-.23.29c.1.02.24.11.27.08.1-.11.18-.26.27-.4v-.15l.46-.11.14.07.02-.04-.16-.03v-.09c.24-.16.5-.15.41.16-.1.32-.4.58-.6.88h-1.22l.07-.42a50 50 0 0 0-.65.23Z" fill="#AA8851"/><path d="m9.07.28-.14 1.06-.1 1.2-.13.01h-.37l-.08-1.49-.03-.78h.85Z" fill="#311D12"/><path d="M12.48 23.94c.3-.46-.59-1.38.58-1.52.46-.02.03.84.65.67l-.95.85h-.28Z" fill="#C9AB74"/><path d="m15.64 1.24-1.2-.5c-.44-.21-.93.73-1.37-.03l.83-.44h.38l1.01.49.31.28.04.2Z" fill="#311D12"/><path d="m22.8 16.93.37-.37.5.1-.3-.56.55-.29v1.13l-.56.48-.39.09-.37-.28.2-.3Z" fill="#E1D298"/><path d="M.28 20.81v-.29H.8c0 .08.03.16.04.23-.19.85.37 1.5.61 2.23l-.47-.21-.25-.07-.46-1.89ZM23.92 19.2v1.43l-.44-.1-.23-1.13-.26-.28.55-.2.38.29Z" fill="#C9AB74"/><path d="m11.34 22.24.19-.1.01.38-.29.28.39 1.14h-.86l-.08-1.2c.03-.06.06-.1.1-.14l-.11-.07.65-.29Z" fill="#AA8851"/><path d="m5.2 23.94-1.15-1.68a.72.72 0 0 1 .07-.11l.17-.01 1.37 1.8H5.2Z" fill="#795B32"/><path d="M2.23 23.33c.08.05.17.1.26.13l-2.21.1v-.29a1665124.88 1665124.88 0 0 1 1.35-.09c.06 0 .12 0 .17-.02l.43.17Z" fill="#B39467"/><path d="M22.42 6.44c.5 0 1 0 1.5-.02v.47c-.27 0-.54 0-.82-.02-.2 0-.4 0-.59-.02a1.36 1.36 0 0 1-.19-.03l-.18.02-.33-.2.21-.2h.4Z" fill="#C9AB74"/><path d="m5.66 23.94-1.38-1.8.15-.17.51.33.24.22.44.48.52.75v.2h-.48Z" fill="#492E19"/><path d="M.28 8.04h3.88v.1l-1.82.07c-.69 0-1.38 0-2.06.02v-.2Z" fill="#B39467"/><path d="m22.98 17.5.39-.09.56-.19v.76l-.85.29-.1-.52v-.25Z" fill="#D7BA7A"/><path d="M22.98 10.96c.25-.66.67.34.94-.08v1.03c-.3-.24-.58-.48-.88-.7v-.04l-.06-.2Z" fill="#60432A"/><path d="m.28 23.56 2.2-.1h.17l-.1.48c-.73-.26-1.65.5-2.27-.38Z" fill="#492E19"/><path d="M19.1.28v.38l-2.23.01.06-.4h2.18Z" fill="#60432A"/><path d="m15.64 1.24-.04-.2c.04-.12.12-.24.1-.36 0-.07-.13-.12-.2-.2l-.2.29-1.02-.5h1.51l.05.16.05-.15h.19l.01.1c0 .2 0 .4.02.62l-.23.33-.24-.1Z" fill="#795B32"/><path d="M.28 20.81c.15.64.3 1.26.47 1.9l-.1.1c-.12.04-.25.06-.37.09V20.8Z" fill="#DBAE5A"/><path d="m12.77 23.94.95-.85h.38l.08.1-.01.18c-.21.04-.5.03-.36.39v.18h-1.04Z" fill="#C19B5D"/><path d="m23.92 5.38-1.94.03-.01-.3.43-.01h.18l.86-.09h.47l.01.37Z" fill="#C9AB74"/><path d="m.47 10.29.27.06.21-.02.71-.07.16.13-.02.3H.28v-.3l.2-.1Z" fill="#492E19"/><path d="m13.9.28-.83.44-.24-.05-.43-.1v-.3h1.5Z" fill="#927341"/><path d="m23.08 18.26.85-.29v.86c-.12.02-.25.06-.38.1.08-.49-.38-.33-.58-.49l.1-.18Z" fill="#DEC88B"/><path d="m.28 22.9.37-.08.13.22.21-.27.47.21h.34v.18l-.18.02-.4.03-.95.06v-.38Z" fill="#60432A"/><path d="m23.29.8.43.01.21.13v.29l-1.12.1-.04-.04.52-.49Z" fill="#AA8851"/><path d="m23.04 11.2.88.71v.38l-.67-.38-.2-.7Z" fill="#B39467"/><path d="M23.92 21.3c-.36.02-1.01.46-.67-.49l.2-.08.47.37v.2Z" fill="#C9AB74"/><path d="m.28 18.73.37-.02c.17 0 .33 0 .48-.02l.51-.12.03.24-1.4.2v-.28Z" fill="#E1D298"/><path d="M.8 20.52H.29v-.66h.56l.03.45-.06.21Z" fill="#492E19"/><path d="m.83 19.86-.56.01v-.47c.05.32.94-.37.56.46Z" fill="#B39467"/><path d="M23.92 5.01h-.47c-.28-.53.14-.57.47-.66V5Z" fill="#DBAE5A"/><path d="m23.92 7.47-1.03-.03V7.2l.17-.05.86.03v.29Z" fill="#E6E2A9"/><path d="m23.92 7.18-.86-.03c0-.1.03-.18.04-.28l.82.02v.29Z" fill="#795B32"/><path d="m.28 19.02 1.4-.2c.03.01.03.04.02.07-.4.6-.93.23-1.42.22v-.1Z" fill="#AA8851"/><path d="m23.92 8.7-.17-.06-.46-.14-.06-.08.03-.26.38-.06.28.02v.58Z" fill="#E6E2A9"/><path d="M17.88 23.94c.06-.5.48-.5.84-.57-.15.19-.3.38-.47.57h-.37ZM19.2 23.75l.64-.23-.07.42h-.47l-.1-.19Z" fill="#C9AB74"/><path d="m2.54 23.94.11-.48c.38-.04.61.04.37.48h-.48Z" fill="#311D12"/><path d="m8.69 23.65.68-.19-.12.48h-.28l-.07-.08-.03.08h-.2c.03-.1.02-.2.02-.29Z" fill="#927341"/><path d="m8.22.28.03.78C8.16 1.03 8.08.98 8 .94l.03-.66h.19Z" fill="#795B32"/><path d="m23.92 17.22-.56.2.56-.49v.3Z" fill="#C9AB74"/><path d="m23.92 21.1-.47-.37.03-.19.44.1v.46Z" fill="#DEC88B"/><path d="m20.14.28-.07.6C20 .84 19.93.81 19.85.8V.28h.3Z" fill="#795B32"/><path d="M.28 7.1h.57l.01.23-.57.05-.01-.29Z" fill="#B39467"/><path d="m12.38.28.01.29-.02.17-.4-.32-.07-.14h.48Z" fill="#492E19"/><path d="m23.55 18.93.38-.1v.38l-.38-.28Z" fill="#D7BA7A"/><path d="m22.22 23.94.12-.32.16.32h-.28Z" fill="#C19B5D"/><path d="m16.93.28-.06.4c0 .06 0 .13.02.2a.1.1 0 0 1-.08 0l-.08-.6h.2Z" fill="#311D12"/><path d="m.55 6.64-.28-.02v-.19l.57.01-.19.15-.1.05Z" fill="#B39467"/><path d="m23.92 15.6-.23-.25.23-.13v.39Z" fill="#C9AB74"/><path d="M21.56 23.94c.06-.08.12-.15.17-.24.06.08.14.15.2.24h-.37Z" fill="#C19B5D"/><path d="m11.23.7-.35-.42h.28l.07.42Z" fill="#311D12"/><path d="M8.69 23.65v.28h-.37l.37-.28Z" fill="#60432A"/><path d="M13.8 23.94v-.18h.37l.01.18h-.37Z" fill="#AA8851"/><path d="m23.92 12.67-.11-.1c.04-.02.08-.06.11-.1v.2Z" fill="#B39467"/><path d="m23.92.94-.2-.12a.8.8 0 0 0 .1-.08.3.3 0 0 0 .1 0v.2ZM.28 10.97l.18.09-.18.1v-.19ZM.47 10.29c-.07.04-.12.08-.2.1v-.19a.7.7 0 0 0 .2.09Z" fill="#795B32"/><path d="m15.89.28-.05.15-.05-.15h.1Z" fill="#311D12"/><path d="m8.88 23.94.03-.07.07.07h-.1Z" fill="#795B32"/><path d="M23.92 5.58a.18.18 0 0 1-.02-.07l.02-.03v.1Z" fill="#492E19"/><path d="m23.92.75-.1-.01.1-.09v.1ZM16.08.36v-.1h.09c-.03.05-.06.07-.09.1Z" fill="#311D12"/><path d="m5.5 16.04-.18.16-.5.26-.76.19c-.07-.16-.12-.32-.2-.47.13-.1.27-.16.37-.26.03-.03-.04-.17-.06-.25l-.31.13-.36.09c-.18.06-.48.1-.51.2-.25.75.77.32.8.84l-.3.38c-.67-.25-1.51.08-2.07-.58l.04-1.31c.7-.17 0-.68.24-.95.27.06.58.26.79.19.57-.22.27-.64-.02-.78-.39-.2-.76 0-.86.49-.05 0-.1 0-.15-.02l-.02-1.12c.06-.06.1-.13.16-.18.59.16 1.17.42 1.73-.07l.73-.02c.36.53-1 .84-.17 1.43l-.01.27-.82-.36c.05.38.08.74.16 1.1 0 .07.31.15.32.13.14-.25.24-.52.36-.78l.33-.05-.33-.32c.11-.07.25-.2.32-.17.4.12.4.93 1.07.64-.21.21-.49.4-.63.65-.15.27-.44.84.34.44.15-.08.21-.28.32-.42l.18.52Zm-3.22.37c.1-.1.16-.14.22-.19l-.45-.37-.2.26c.14.08.27.19.43.3Z" fill="#C19B5D"/><path d="M13.15 11.36c-.06-.37-.73.17-.62-.42.16-.94.96-1.27 1.66-1.69l.18-.19.1-.13.96-.7.27-.11a8.23 8.23 0 0 1 .34-.29l.13-.11c0-.04 0-.09.02-.13l.56-.4.16-.02c.56.22.4-.26.5-.5.06-.03.13-.05.19-.06.1.44.62.77.28 1.3l-.56.42-.28.1-.23.22-.6.35-.3.2v-.02l.02.02c-.08.07-.15.16-.22.24l-.5.47-.78.78c-.02-.02-.04-.02-.06-.02l-.18.16-.03.03-.16.16c-.03 0-.06.03-.09.04-.06.03-.11.06-.18.08l-.2.11-.17.12-.2-.01Z" fill="#311D12"/><path d="m.8 20.52.07-.2a3.25 3.25 0 0 1 2.53-.14l.63.45c.42.44.2.87-.02 1.31l-.55.31-.23.13c-.1.03-.2.06-.28.1-.08-.6-.43-.4-.76-.27l-.14-.04-.03-.33.52-.33.5-.23.37-.18.27-.04-.02-.1-.26.07-.38.23-.51.03-.7.29c-.36-.08-.45-.26-.25-.57l.25-.16c.05-.04.1-.08.16-.1-.07 0-.14.02-.2.03l-.3.09h-.43l-.19-.1-.04-.25Z" fill="#ECE1C8"/><path d="M5.5 16.04c-.07-.17-.12-.34-.2-.52-.1.15-.17.35-.3.42-.78.4-.5-.17-.35-.44.14-.26.4-.44.63-.65.28-.8-.54-.65-.84-.96l-.01-.27.11-.66c.09 0 .17.02.26.04h.4l.95-.01-.06.93c-.17 0-.33.02-.5.04l.31 1 .2-.47c.04.28.1.57.13.86l-.73.7Z" fill="#AA8851"/><path d="m4.02 20.64-.63-.45 1.05-.79.38-.37.18-.1.58-.47 1.38-1.15.09-.02.3.21.02.13-.66.72v.01c-1.12.08-1.06 1.22-1.63 1.8-.36.15-.7.32-1.06.48ZM6.1 13.9l.06-.92.47-.5.11-.2.25 2.37-.01.28c-.1.05-.18.12-.28.18l-.45.22c-.05-.29-.1-.58-.13-.86l-.02-.56Z" fill="#60432A"/><path d="M9.36 14.56c.93-.72 1.54-1.86 2.83-2.08.09.35-1.11.25-.3.86h.07l.03.27-.34.06c-.76-.2-1.03.24-1.16.88-.38-.03-.76.55-1.13.01Z" fill="#311D12"/><path d="m11.43 6.9-.2.5-.28.03-.28.12-.56.01.7-.42c.22-.13.73-.42.21-.55-2.08-.5-.2-1.25-.18-1.87l.4.97.07.26-.1.08.1.11c.07.25.1.51.12.76Z" fill="#D7BA7A"/><path d="m6.7 11.13 1.35.02.02.28-.04.39-.17-.02-.08-.39-.02.42-.02.38v.17l.02.84v.69l-.02.27H7.6l-.04-.95c-.13-.52.36-1.14-.25-1.58-.1.06-.21.1-.31.17l-.66-.09v-.2h-.27l-.58-.27 1.21-.13ZM7.1 16.57c.45-.94 1.3-1.42 2.16-1.9l-.02.8H9.2c-.08.07-.16.15-.22.23l-.22.25-.16.04c-.7-.34-.9.7-1.52.58ZM10.39 11.24c.23.22.52.34.43.82-.16.96-1.02 1.15-1.6 1.66l-.18-.31.03-.13.73-.63.21-.45c.82-.05-.23-.83.38-.96ZM11.33 5.95l-.08-.26.04-.1.54-.5c1.25-.32.1.52.32.68l.03.3v.27l-.75.57c-.02-.25-.06-.5-.1-.76v-.2Z" fill="#311D12"/><path d="m6.99 14.66-.25-2.37-.12-.04-.11-.13.66-.01h.09l.1 1.21-.03 1.12-.02.21h-.32ZM13.62 8.5c-.87-.44-1.49-1.05-1.4-2.12l.45.43c.02.38.01.8.5.94l.02.08c-.24.27-.04.27.16.28.08.04.17.08.24.13l.03.25ZM11.15 7.64c-.2 1-1.4.46-1.8 1.15l-.11.1.12.1c-.14.05-.28.1-.42.17V8.8L9 8.64l.2-.23.24-.15.1-.03 1.35-.53.06-.09.19.03Z" fill="#311D12"/><path d="m12.66 6.8-.45-.42c0-.02 0-.04-.04-.05v-.27L12.3 6c.03.05.06.1.1.13l.24.11.2.13.57.5.21.64-.03.03-.26.16-.08.17-.01-.04h-.04l-.03-.1c-.17-.29-.34-.6-.5-.92Z" fill="#C9AB74"/><path d="M6.97 17.3c-.46.4-.92.78-1.38 1.16.26-.62.44-1.33 1.38-1.15Z" fill="#311D12"/><path d="M10.39 11.24c-.6.14.44.9-.38.95l-.19-1.31h.58l-.01.36Z" fill="#492E19"/><path d="m3.49 17.32.28-.38.3-.3.75-.18.01.13-.97.8-.58.18.2-.25Z" fill="#B39467"/><path d="M10.4 10.88h-.58l-.27-.11-.17-.12-.12-.06-.3-.38c0-.06 0-.14.02-.2l.83.2.59.67Z" fill="#311D12"/><path d="M7.1 16.57c.62.12.8-.91 1.5-.58l-.1.19H8.3l-.24.23-.18.26-.11.08-.48.27-.19-.45ZM9.24 15.47l.02-.8.1-.1c.37.54.76-.04 1.13 0l.04.04-.5.46-.8.4Z" fill="#492E19"/><path d="m9.07 13.29-.03.12-.6.3h-.08l-.13-.34.36-.05.18-.26-.3-.1a3.8 3.8 0 0 1-.08-.32h.03l.02.01.43.09.2.55Z" fill="#60432A"/><path d="M1.7 18.9c0-.04 0-.06-.03-.08l-.03-.24.34-.36.28.02.16.07c-.04.45-.4.5-.73.58Z" fill="#ECE1C8"/><path d="M13.62 8.5c0-.1-.02-.18-.03-.26l.24-.01c.21.1.43.19.64.27v.43l-.1.13c-.07 0-.12 0-.17-.02-.07-.06-.15-.1-.21-.16l-.36-.4v.02Z" fill="#927341"/><path d="M11.88 13.34c-.8-.61.39-.5.31-.86l.01-.09.2.01c-.18.3-.35.63-.52.94Z" fill="#492E19"/><path d="m7.77 13.92-.01-.7.1-.09.17.01.1.28v.53c0 .03-.03.05-.06.05l-.3-.08Z" fill="#60432A"/><path d="m3.28 17.57.58-.18-.57.4-.66-.09c.22-.05.44-.1.65-.13Z" fill="#492E19"/><path d="m7.28 17.03.48-.27V17l-.4.51-.3-.21c.06-.09.14-.17.22-.26Z" fill="#795B32"/><path d="m7.32 14.44.02-1.12.22-.08.04.95-.12.33-.16-.08Z" fill="#B39467"/><path d="m8.94 9.16.42-.18v.71l-.18.05-.04-.08-.25-.4-.04-.08.04-.01.05-.01Z" fill="#492E19"/><path d="m9.19 9.73.18-.04c.04 0 .07.02.1.03.1.07.17.15.26.22l.1.26L9 10v-.08l.19-.19Z" fill="#795B32"/><path d="M12.38 12.4c-.06 0-.12 0-.19-.02l.57-.66v.38l-.1.1c-.08.07-.18.13-.28.2Z" fill="#311D12"/><path d="M12.77 12.1v-.37c.12-.12.26-.25.4-.36h.18l-.58.73Z" fill="#492E19"/><path d="m4.82 19.02-.38.37.38-.37Z" fill="#311D12"/><path d="m13.63 8.5.36.39-.36-.4Z" fill="#492E19"/><path d="M2.93 19.68c.1-.03.15-.07.2-.05.04.02.07.08.1.13-.05.03-.1.07-.14.06-.04 0-.07-.06-.16-.14Z" fill="#311D12"/><path d="m4.84 16.59-.01-.13.5-.26-.03.09c-.13.1-.24.2-.37.28a.28.28 0 0 0-.1.02Z" fill="#927341"/><path d="m11.15 7.64-.19-.03v-.18l.26-.03-.07.24Z" fill="#C19B5D"/><path d="m7.77 13.92.3.09-.33.18.03-.27Z" fill="#795B32"/><path d="M4.93 16.57c.13-.1.24-.2.37-.28l-.37.28ZM9.72 9.95c-.1-.07-.17-.15-.25-.22l.25.22ZM6.7 15.12l.28-.18-.28.18Z" fill="#492E19"/><path d="m8.13 13.96.01-.24h.32c-.12.07-.22.16-.33.24Z" fill="#B39467"/><path d="m7.32 14.44.16.08-.18.13c0-.07 0-.15.02-.21Z" fill="#60432A"/><path d="m5 18.92-.18.1.18-.1Z" fill="#311D12"/><path d="m14.2 9.05.16.02-.18.2.02-.22ZM9.36 8.98a4.69 4.69 0 0 1-.12-.1l.11-.09.01.2Z" fill="#492E19"/><path d="m19.21 4.26.09.93-.09.13-1.23.93-.47-.01-.18.17-.02.04a6.5 6.5 0 0 1-.18-.12l-.1-.19-.03-.39.04-.26.28.09a.56.56 0 0 0 .02-.13l-.22-.28v-.22c.04 0 .06-.02.07-.03l.23.1.15-.38c-.01-.97-.14-1.9-.82-2.66l.25-.03c.39.12.76.21 1.07-.16H18.54v.01l.56.38.12 1.53v.55ZM17.88 5.3l.2-.08c-.03-.05-.08-.13-.1-.13-.08.03-.13.07-.2.11l-.09.24.19-.14Zm.96-.29-.19-.16c-.07.11-.17.22-.24.34 0 .02.09.09.13.14l.3-.32ZM17.83 2.7c-.05-.03-.09-.08-.12-.07-.03 0-.05.05-.08.08.03.03.08.05.12.1.02-.05.05-.07.08-.11Z" fill="#E1D298"/><path d="M10.86 4.72c-.02.62-1.91 1.37.18 1.87.5.13.01.42-.22.55-.23.14-.46.29-.7.42l-.36-.08-.6-.21a4.5 4.5 0 0 1-.04-.36l.15-.4c-.02-.16-.05-.32-.1-.47v-.09c.41-.44.17-.88 0-1.32V3.59c.15-.3.32-.62-.09-.86v-.18c.54-.7 1.27-.16 1.9-.29l-.12.57-.22.12c.05.05.1.11.14.18 0 .18 0 .37-.02.55-.2.07-.53.08-.6.22-.08.17.04.45.05.68l.56-.5.15.37.01.28c-.01-.03-.04-.02-.07 0Z" fill="#DEC88B"/><path d="m9.25 6.53-.15.4-.13-.02-.1-.76v-.19l.01-.29V3.6l-.09-.65.03-.4.1-1.2c.81-.5 1.6-.45 2.32.17l-.03.1c-.67.4-2.12-.95-2.15.93v.19l.1.85-.01 1.04V6.03c.05.17.08.33.1.5Z" fill="#C19B5D"/><path d="M15.85 2.63v.13l.47.93.1.1v.27c-.12.1-.23.2-.36.28l-.22-.04.03-.24-.23-.3-.12-.11-.03-.1-1.03-1.48.81.13c.02 0 .04 0 .05.03l.27.2.15.07v.03l.03.01.08.09Z" fill="#DEC88B"/><path d="M16.81.88h.08l2.18-.1.06.64-2.2.08-.12-.06c.01-.18 0-.37 0-.56Z" fill="#AA8851"/><path d="M9.08 2.54c.03-1.88 1.47-.53 2.15-.94l.04.2a.09.09 0 0 0-.07.03l-.1.02-.24.15.19.06-.08.2c-.63.13-1.36-.42-1.89.28Z" fill="#D7BA7A"/><path d="m12.83.67.24.05c.44.76.93-.18 1.38.04l-.93.56c-.1.06-.2.12-.28.19-.4-.18-1.29.89-1.24-.47l.4-.1c.13-.1.27-.18.43-.27Zm-.37.72-.04-.07c-.02.02-.04.03-.05.06l.02.07.07-.06Z" fill="#492E19"/><path d="M12.15 5.76c-.23-.16.92-1-.32-.67l-.15-1.62.51 1.14.4.08.17.03.1.45c-.13.19-.25.37-.39.55l.01.02-.2.03a.3.3 0 0 1-.13-.01Z" fill="#60432A"/><path d="m14.47 2.08 1.03 1.48-.26.01-.2-.04L13.7 2.1l.2-.18.18-.08.27.07.1.18Z" fill="#E6E2A9"/><path d="m17 5.75.03.4-.66-.02-.1-.54.33-1.2.14.43c.1.3-.29.75.26.93Z" fill="#B39467"/><path d="m12.18 4.62-.5-1.14c.09-.18.19-.35.27-.53l.21-.06.1.8-.02.75-.06.18Z" fill="#AA8851"/><path d="m16.6 4.39-.32 1.2-.13-.01L16 5.2l.08-.85c.13-.1.24-.2.37-.28l.1.01c0 .09.03.2.06.3Z" fill="#E1D298"/><path d="m12.66 2.45.05-.12.59-.2.2.02-.73 1.15-.02-.1v-.27c.29-.16.25-.3-.03-.4l-.06-.08Z" fill="#E6E2A9"/><path d="m10.96 2.26.08-.19h.08l.06.01-.06.85c-.06.44-.1.88-.17 1.32l.02.2h-.05l-.15-.38v-.39l.01-.55.08-.29.1-.58Z" fill="#B39467"/><path d="m12.66 2.45.07.08-.07.3c-.03.06-.05.12-.1.18l-.3.69-.1-.8.03-.16.47-.3Z" fill="#C9AB74"/><path d="m13.3 2.12-.59.21c.3-.62.8-.69 1.38-.49l-.18.08-.61.2Z" fill="#492E19"/><path d="M17 5.75c-.55-.18-.16-.63-.26-.94.07 0 .14 0 .2.02l.04.1.01.23.04.33c0 .09-.02.17-.03.26Z" fill="#795B32"/><path d="M10.86 4.72a.13.13 0 0 1 .08 0l.23.58.13.27-.01.03c0 .03-.03.06-.04.1l-.4-.98ZM14.47 2.08c-.04-.05-.07-.11-.1-.18l.91.3-.81-.12ZM16.33 3.7l-.47-.94.24.16.28.57-.05.2Z" fill="#B39467"/><path d="m12.2 2.73-.03.16-.2.06c-.05-.14-.08-.27-.11-.4.1.06.22.13.34.18ZM11.12 2.93l.06-.85h.08l-.14.85Z" fill="#311D12"/><path d="m12.38.93-.39.1-.02-.62.4.32.01.2Z" fill="#795B32"/><path d="m15.86 1.32.23-.33-.03.55-.2-.22ZM16.98 4.94l-.05-.1.47-.2v.14l-.22.15a.09.09 0 0 1-.06.03.57.57 0 0 0-.14-.02ZM16.82 1.44l.12.06v.1l.06.34-.25.03.07-.53Z" fill="#B39467"/><path d="m16.38 3.5-.28-.58.28.57Z" fill="#492E19"/><path d="M17.4 4.77v-.14h.16l-.15.4-.01-.26Z" fill="#927341"/><path d="m16.53 4.07-.1-.01v-.28l.1.29Z" fill="#492E19"/><path d="M13.23 1.5c.1-.07.2-.13.28-.2l-.28.2Z" fill="#311D12"/><path d="m15.75 2.52-.15-.07-.1-.18.25.25Z" fill="#492E19"/><path d="m15.5 2.27.1.18-.27-.21c.06 0 .12.02.17.03Z" fill="#B39467"/><path d="m11.3 5.56-.14-.27.14.27Z" fill="#311D12"/><path d="M11.27 2.07h-.14l.04-.24h.03a.09.09 0 0 1 .07-.04v.28Z" fill="#795B32"/><path d="M10.97 4.43c0-.06 0-.12-.02-.19l.02.2Z" fill="#311D12"/><path d="m15.85 2.63-.07-.09.07.09Z" fill="#492E19"/><path d="m7.26 6.23-6.22-.17V2.03c0-.12.13-.24.2-.37l.07 3.44c.18.52.54.24.85.18l.66-.04L5 5.26l1.05.03c.03 0 .06.03.09.04l.44.15c.04-1.02.1-2.04.08-3.06 0-.3-.07-.7-.56-.64l-.1-.5.01-.22.02-.22c1.29-.31.66.68.8 1.16.04.14.27.23.4.34.04 1.23.07 2.45.09 3.68l-.05.21Z" fill="#311D12"/><path d="m6 1.29.1.5-.06.1-.27-.1c-1.07-.83-2.19-.23-3.3-.1-.33.04-.89.03-.79.5.2 1.07-.8 2.65 1.15 3.06l-.66.04-.85-.18-.06-3.44.06-.07c1.54-.4 3.1-.46 4.68-.31Z" fill="#C19B5D"/><path d="M6 1.28a13.56 13.56 0 0 0-4.7.32v-.37l.48-.19 4.09.01H6L6 1.28Z" fill="#927341"/><path d="m7.32 6.03-.08-3.68c0-.25.03-.5.04-.76l.23.58v.47c.03.47.04.95.06 1.42l.01.99.01.47.01.18-.08.34-.2-.01Z" fill="#AA8851"/><path d="M5.87 1.06 1.8 1.04l.46-.39h2.45L5 .66l.38.02.49.37Z" fill="#795B32"/><path d="m7.58 5.05-.01-1-.05-1.41-.01-.47H7.93l.09.65-.03 1.53-.4.7Z" fill="#311D12"/><path d="m8 2.82-.08-.65L8 .94c.08.04.16.09.25.12l.08 1.5c-.02 0-.04 0-.05-.02v.1l-.01.2L8 2.81Z" fill="#D7BA7A"/><path d="M7.75 2.17H7.5l-.23-.58.1-.61.38 1.19Z" fill="#492E19"/><path d="m2.27.65-.46.39H1.8l-.48-.01c.05-.75.55-.43.95-.38ZM5.87 1.05C5.7.93 5.54.8 5.37.7l.66.16-.02.21h-.14Z" fill="#60432A"/><path d="M1.3 1.04h.49l-.47.19-.01-.2Z" fill="#795B32"/><path d="M5 .67c-.1 0-.19-.02-.28-.03L5 .67Z" fill="#60432A"/><path d="m12.67 21.86-1.52-.21c-.19-.84.16-1.25 1-1.36.06 0 .08-.48.12-.74v.03c.87.52 1.54.36 2-.55l.39.28c-.55.26-.24.51 0 .76v.01l-.96.54c-.23.13-.8 0-.45.58v.19l-.1.1c-.1.05-.19.12-.29.18l-.19.19Z" fill="#AA8851"/><path d="m17.97 21.48-.35.1-.32-.02-.65-1.04c-.2-.31-.38-.63-.57-.95l.38-.28.85-.1.2.28c.25.26 1.08-.18.84.69l.48-.02.19-.01.2.3-.13.28-.46.27-.48.37c-.06.06-.12.1-.18.13Zm-.99-1.63c-.17-.08-.24-.15-.31-.15-.08 0-.17.06-.24.1.05.05.1.15.17.16.09 0 .2-.06.38-.1Z" fill="#E1D298"/><path d="m16.07 19.58.57.95c-1.15.9-.65-.68-1.14-.75a1.79 1.79 0 0 0-.1-.2c.24-.18.45-.34.67 0Z" fill="#DEC88B"/><path d="M14.17 23.75h-.36c-.15-.36.14-.35.35-.4l.17-.01-.16-.17a.67.67 0 0 1-.08-.1l.1-.18c.36.18.35-.02.28-.28l.29-.29h.3c.35.66-.73.73-.57 1.32l-.2.08c-.05.03-.08.03-.12.03ZM15.42 19.58l.1.2c-.06.73-.61.05-.84.28-.25-.25-.56-.5-.01-.76h.28l.47.28ZM15.51 22.04H15.03l-.3.1-.44-.05.84-.62h.28l.1.57ZM13.25 21.2c-.36-.6.22-.46.45-.6l.02.03.16.35.02.23c-.23.59-.42-.27-.65-.02Z" fill="#C9AB74"/><path d="m16.07 23.08-.75.41c0-.6.3-.8.86-.67l-.1.26Z" fill="#DEC88B"/><path d="m17.2 22.13-.36.67h-.56l.92-.67Z" fill="#AA8851"/><path d="M15.42 21.48h-.28c.06-.17.1-.35.17-.5.02-.04.17-.01.25-.01l-.06.5-.08.01ZM17.29 21.57l.32.02-.4.46-.32-.21.4-.27Z" fill="#DEC88B"/><path d="m13.7 20.62.96-.54v.17l-.95.39-.01-.02ZM12.67 21.86l.2-.18c.43.27-.12.36-.1.56l-.22.05c.04-.14.07-.29.12-.43ZM14.47 20.72l.15.41-.5-.13-.03-.02.38-.26Z" fill="#C9AB74"/><path d="M15.42 21.48h.08c.1.1.22.2.26.32.02.05-.16.15-.25.24l-.1-.56Z" fill="#C19B5D"/><path d="M14.66 20.25c.1.03.18.07.28.12l-.47.36.19-.48Z" fill="#C9AB74"/><path d="M14.47 22.62c.07.26.08.46-.28.27-.28-.46.15-.2.28-.27Z" fill="#C19B5D"/><path d="M13.14 21.48c.04-.02.08-.06.12-.1l.2.1-.09.14-.23-.14Z" fill="#C9AB74"/><path d="m14.74 22.15.3-.1.01.28h-.3l-.01-.18ZM13.9 21.21c0-.07 0-.15-.02-.23h.21l.02.02-.2.21ZM14.28 23.75l.2-.09-.2.09Z" fill="#C19B5D"/><path d="m20.7 13.25.48.1c.17.38.3.86.85.37.46.08.56.35.39.76-.92-.64-.4.8-.96.67l-.38.09c-.38.14-1.34-.01-.38.8.53.43 1.02.91 1.52 1.37l.3.47c0 .06 0 .12-.02.18v.13c-.06.06-.13.1-.19.17l-.09-.01c-.32-.14-.82-.48-.95-.38-.51.43-.2.99.01 1.49h-.19l-.84-1.4-.2-.2c-.23-.32-.18-.94-.84-.85v-.18l.1-.13-.2-.06-.3-.67-.09-.1c-.04-.1-.08-.2-.1-.3l.67-1.11c.7.2 1.02-.51 1.58-.67l-.16-.54Z" fill="#E1D298"/><path d="M21.47 15.15c.55.12.03-1.3.96-.67-.03.28-.8.83.26.77.04 0-.01.72-.47.93-.14.07-.24.27-.3.43-.01.05.14.26.22.27.11 0 .25-.1.36-.17.12-.07.21-.17.31-.27l-.02.5c-.07.09-.12.2-.2.3l-.37.17c-.5-.46-1-.94-1.52-1.38-.96-.8 0-.65.38-.8l.21.26.18-.34Z" fill="#DEC88B"/><path d="m21.66 12.3-.95.94-1.33.56 2.09-1.78.19.28Z" fill="#E1D298"/><path d="m21.66 12.3-.2-.3c.16-.12.32-.24.48-.38h.1l.56-.38.3-.02c0 .14-.01.26-.03.4l-.56.28-.48.38c-.05.02-.1.02-.17.02ZM22.03 13.72c-.55.49-.68 0-.85-.38.66-.73.58.21.85.38ZM23.07 12.77c-.09.35.41.94-.4.99-.02 0-.1-.22-.08-.3.08-.23.2-.46.3-.7a.58.58 0 0 1 .18 0Z" fill="#DEC88B"/><path d="m23.07 12.77-.18-.01c-.36-.38-.19-.75-.01-1.14 0-.13.02-.25.04-.39l.12-.07.01.03.21.72c-.46.2-.17.56-.2.86ZM22.8 14.57c.1-.1.25-.32.29-.3.22.1.41.26.6.4-.2.07-.4.12-.61.18l-.29-.28ZM21.84 12.29l.48-.38-.32.82-.16-.44Z" fill="#C9AB74"/><path d="m23.37 16.09.3.55c-.16-.02-.32-.05-.5-.1-.34-.3-.03-.37.2-.45ZM22.8 14.57l.28.28-.23.13-.06-.4Z" fill="#DEC88B"/><path d="m23.75 13.36-.15.12c-.03-.06-.09-.1-.09-.17 0-.02.09-.08.13-.08.03 0 .06.08.11.13Z" fill="#C9AB74"/><path d="m2.34 8.2 1.82-.07H5.2l.37-.03h1.68l.32.13.37.38-.85 1.6-.48.1-.28-.02-.19.01h-.47a4.48 4.48 0 0 0-3.33-2.1Z" fill="#E6E2A9"/><path d="M5.67 10.3h.47v.1l-.38.28-.76-.03-.1-.2-.03-.01v-.04l.8-.1Z" fill="#795B32"/><path d="m3.2 10.67-.93.01-.03-.28.27-.08.24-.06.35.08.1.33Z" fill="#311D12"/><path d="M4.46 10.67H3.4v-.32l.36-.01.7.33Z" fill="#492E19"/><path d="m4.45 10.67-.69-.34 1 .07.14.18-.45.1ZM2.5 10.32l-.26.08-.43-.01-.16-.13a.29.29 0 0 1 .04-.07l.85.02c0 .04-.02.07-.03.11ZM3.4 10.34v.31l-.2.01-.1-.32h.3Z" fill="#795B32"/><path d="m2.5 10.32.04-.1.2.04-.23.06Z" fill="#D7BA7A"/><path d="m1.43 13.25.02 1.12v1.07c0 .44-.02.87-.04 1.31-.28 1 .51.84 1.04.95-.84.25-1.59.27-1.9-.77-.01-1.48-.37-2.97.17-4.44l.3.19.14.13.22.17.05.27Z" fill="#492E19"/><path d="M6.62 12.49c-.15.16-.3.34-.47.5H4.8l-.27-.03-.1-.1c.16-.72-.76-.12-.76-.64h1.5l1.14.07h.19c.06.07.1.13.12.2Z" fill="#E1D298"/><path d="M3.68 12.22c0 .52.92-.08.76.63l-.4.12-.73.02-.77-.05v-.7l1.14-.02Z" fill="#DEC88B"/><path d="M2.54 12.24v.7H1.7c-.12-.35-.29-.4-.54-.13l-.14-.14v-.4L1 12.24l.5-.02c.34.02.69.02 1.03.03Z" fill="#E6E2A9"/><path d="M3.5 11.13h.46c.35.04.7.1 1.05.13l.18.18h.11l-.3.1H2.17l-.09-.08 1.42-.33Zm-1.1.28h.03l-.02-.04-.03.01.01.03Z" fill="#311D12"/><path d="M2.17 11.55H5v.17l-.47.03h-1.7c-.23 0-.45 0-.67-.02l.01-.18Z" fill="#60432A"/><path d="M2.17 11.55v.19h-.76l-.67-.07c.22-.05.45-.1.67-.13h.39l.28-.07c.03.01.06.05.1.08Z" fill="#492E19"/><path d="m2.83 11.74 1.71.01c-.57.27-1.14.28-1.7-.01Z" fill="#311D12"/><path d="M5 11.72v-.17l.3-.1.18-.19.58.27h.27v.2H5Z" fill="#492E19"/><path d="m6.33 12.29-1.14-.07c.35 0 .7 0 1.05-.02l.09.09Z" fill="#B39467"/><path d="m1.41 11.74.76.01c-.26.25-.52.27-.76-.01ZM1.8 11.53H1.4c.07-.09.15-.16.21-.25l.18.25Z" fill="#311D12"/><path d="m1.5 12.22-.5.02.5-.02Z" fill="#60432A"/><path d="M1.02 12.29v.4c-.1-.08-.2-.13-.3-.2a8 8 0 0 0 .3-.2Z" fill="#C9AB74"/><path d="m7.26 12.12-.09-.01-.17-.3c.1-.05.21-.1.3-.16l-.04.47Z" fill="#492E19"/><path d="m6.33 12.29-.09-.09.26-.07.11.12a.45.45 0 0 1-.1.05l-.18-.01Z" fill="#60432A"/><path d="M5.2 11.73h.28-.29Z" fill="#311D12"/><path d="m.86 7.32-.02-.24 6.24-.05.1.07-.1.3-6.22-.08Z" fill="#E1D298"/><path d="M8.88 5.67v.48l.09.76-.08.47-.1.5-.1.07-.4-.5.06-.14c.38-.15.23-.32.03-.5v-.18l-.05-.48-.05-.18.03-2.65.42-.38h.05l.08.66.01.38v1.23l.01.46Z" fill="#311D12"/><path d="m8.7 7.94.1-.08.2-.28h.1l.09.32-.25.3-.25.27-.14.11-.15.21-.09.39.67 1.04.3.38-.36.08-.3-.2-.96-.33c.82-.38.02-1.06.29-1.53a14.3 14.3 0 0 1-.37-.38l.2-.06c.3-.09.6-.16.92-.24Z" fill="#DEC88B"/><path d="m8.36 7.3-.06.14c-.27 0-.55.02-.83.04l-.28-.01a.45.45 0 0 0-.1-.05l.1-.3c.03-.03.07-.05.1-.06.28-.07.83.31.72-.43L8 6.43v-.36l.05-.1h.24l.05.17.05.48v.19l-.03.49Z" fill="#C9AB74"/><path d="M7.18 7.47h.28l-.08.35-.2-.35Z" fill="#311D12"/><path d="M5.2 8.12H4.7v-.08h.48a.1.1 0 0 0 0 .08Z" fill="#492E19"/><path d="m7.77 8.17-.2.06-.32-.14.52.08Z" fill="#795B32"/><path d="M4.53 8.13h-.38v-.08h.38v.08Z" fill="#492E19"/><path d="M5.2 8.12a.1.1 0 0 1 0-.08l.36.06-.37.02ZM4.53 8.13v-.08h.18v.08a.58.58 0 0 0-.18 0Z" fill="#B39467"/><path d="m22.5 9.46-.07.8h-.15l-.33-.32-.36-.16-.12.53v.1c-.3-.02-.57-.06-.86-.1v-.07c.16-.31.2-.57-.28-.58h-.03l.1-.18c.01-.49-.1-1.01.51-1.26l.28.23c.54.8.6-.06.86-.24l.35.4.15.33-.07.34-.37.01c-.02 0-.02.1-.03.17h.42Z" fill="#927341"/><path d="m19.2 5.32.09-.13.46-.37h.2l.28.08.3.28.08.08v.12c-.05.22-.08.45-.11.67-.16.05-.31.11-.47.18l-.2.48-.65.29c-.64.24-1.06 0-1.34-.6l.11-.07c.67-.04 1.14-.31 1.25-1.01Z" fill="#311D12"/><path d="m19.86 6.71.2-.48.94.48.27.3.2.36c.02.03.02.06.02.09-.8.11.02.72-.3.99l-.28-.23-.17-.2c-.4-.08-.22-1.42-1.09-.5l-.6.36-.43-.14c.2-.25.39-.5.6-.74l.64-.29Z" fill="#60432A"/><path d="m20.62 5.38.01-.11.17-1.68.27-.01.12.48.03.56c.14.32.28.66.44.99l-.1.35-.94-.58Z" fill="#492E19"/><path d="M21.18 8.45c.32-.26-.5-.87.3-1l.56.76c-.25.18-.32 1.04-.86.24Z" fill="#795B32"/><path d="m23.64 8.11-.38.06-.23.06c-.28-.15-.57-.28-.83-.44-.03-.02-.02-.12-.02-.19l1.46.51Z" fill="#311D12"/><path d="M20.99 6.7c-.32-.15-.63-.3-.95-.47l.48-.18.47.66Z" fill="#492E19"/><path d="M22.89 7.2v.24l-.1.07h-.2c-.1-.1-.23-.2-.35-.3l.27-.07.38.06Z" fill="#E1D298"/><path d="M23.27 9.65c-.28.03-.48-.03-.36-.39l.36.39Z" fill="#60432A"/><path d="m22.4 8.6-.34-.4c.1.14.23.28.35.4Z" fill="#795B32"/><path d="m22.51 7.13-.27.08c0-.04 0-.09-.02-.13l.1-.26.2.04v.27Z" fill="#492E19"/><path d="m23.29 8.51.46.14-.46-.14ZM23.03 8.23l.23-.06-.03.26-.2-.2Z" fill="#B39467"/><path d="m21.47 7.37-.2-.36.2.36Z" fill="#492E19"/><path d="m22.32 6.82-.1.26-.08-.23.18-.03Z" fill="#795B32"/><path d="M22.23 6.46h-.2l.02-.2h.16l.02.2Z" fill="#492E19"/><path d="m9.98 21.23-.72.48v-1.09c.03 0 .06 0 .1-.02.64-.09 1.04-.55 1.41-1.03l.77-.2-.3-.28v-.19c.74.28 1.3.1 1.6-.66v-.2h.28c.17-.12.34-.22.47-.37l1.43-1.5-.04.94.03.06-.98.76-1.77 1.63-.01-.02-1.97 1.5c-.08.07-.19.14-.3.2Z" fill="#E1D298"/><path d="M10.77 19.58c-.37.48-.77.94-1.42 1.03l.09-.41c-.12.06-.25.1-.33.2-.08.08-.1.23-.15.34l.3-.11v1.1l-.1.22a.62.62 0 0 1-.09.08l-.62.41-.09.01-.43-.11-.28-.01-.1-.85.66-.1-.09-.29v-.4l.39-.64a.28.28 0 0 0 .02-.08c.61.24.88-.22 1.19-.59.19.98.75-.14 1.05.2Z" fill="#D7BA7A"/><path d="M8.37 22.45h.09l.63-.33.18.1v.48c-.4-.03-.72.63-1.2.19v-.13l.3-.3Z" fill="#60432A"/><path d="m9.98 22.97.26-.33c.07.07.2.17.19.22-.05.13-.16.25-.24.36a4.36 4.36 0 0 1-.2-.25Z" fill="#795B32"/><path d="m11.06 21.67.1.27-.51.04.41-.31Z" fill="#AA8851"/><path d="m9.98 21.23.32-.19-.1.38a2.03 2.03 0 0 1-.22-.19Z" fill="#795B32"/><path d="m9.27 22.22-.19-.1c0-.03 0-.06-.02-.09.03-.03.06-.06.09-.07l.27.1.11.04c-.08.04-.17.09-.26.12Z" fill="#B39467"/><path d="m9.54 22.1-.11-.04.17-.17.07.04-.13.17Z" fill="#60432A"/><path d="m10.68 22.53.11.07-.1.13-.01-.2Z" fill="#795B32"/><path d="m23.48 20.53-.03.19-.2.08c-.6-.05-.4.47-.52.75-.1.26.64.29.25.7-.3-.36-1.08.09-1.14-.68 0-.18.03-.38-.02-.55-.14-.48-.33-.04-.5 0l-.42-.48v-.2H21l.92.1-.16.05.16.04c.18.04.49.18.53.11 1.01-1.3-.49-.42-.64-.72l.2-.13c.26-.2.53-.38.8-.57l.14.02c.09.06.19.1.27.16.1.38.18.76.25 1.13Z" fill="#AA8851"/><path d="m21.19 22.9-.01.1-.46.1h-.31l-.36-.1H19.48l-.2-.65.76.17 1.15.38Z" fill="#C9AB74"/><path d="M19.68 22.04c.36-.23.57-.74 1.13-.57l.03.18-.88.67c-.1-.1-.2-.18-.28-.28Z" fill="#D7BA7A"/><path d="M21.33 21.02c.17-.05.36-.48.5.01.05.17.02.37.02.55l-.37-.01-.18-.37.03-.18Z" fill="#927341"/><path d="m21.3 21.21.17.37-.64.08-.03-.18.5-.27ZM19.68 22.04l.28.28.1.2-.75-.17.37-.3Z" fill="#AA8851"/><path d="M22.23 23.1v-.3c.3-.32.42-.14.46.2h-.19l-.27.1Z" fill="#927341"/><path d="m23.65 21.77-.1.28c-.01-.02-.06-.04-.05-.05a.93.93 0 0 1 .15-.23s-.01 0 0 0Z" fill="#AA8851"/><path d="m23.64 21.76.02-.07a.66.66 0 0 1-.02.07c0 .01 0 0 0 0Z" fill="#C9AB74"/><path d="M20.9 20.34v.2l-1.61 1.21h-.09l-.77.48c.2-.38.45-.8-.3-.86l.48-.37.2.11.16.12c.04-.07.09-.14.12-.22l.1-.26.3-.3.36-.2h.2l.2.4.27-.3h.39Z" fill="#D7BA7A"/><path d="M18.14 21.37c.75.07.48.48.3.86l-.3.1h-.25c-.77-.37.52-.52.08-.85l.17-.11Z" fill="#C9AB74"/><path d="M17.88 22.33h.25l.1.5c-.15-.03-.34-.03-.42-.12-.05-.05.04-.25.07-.38Z" fill="#D7BA7A"/><path d="m16.83 22.8.33.03-.06.11c-.08-.05-.17-.1-.27-.14Z" fill="#AA8851"/><path d="m17.87 23.46-.3-.18.3.18ZM19.2 21.76h.09l-.09.2v-.2Z" fill="#C9AB74"/><path d="m8.62 10.46.3.21-.02.77-.3.21.28.09.03.85-.04.19-.43-.09-.1-1.23-.02-.75c.1-.1.2-.17.3-.25Z" fill="#311D12"/><path d="m5.47 11.26-.18.18h-.1L5 11.26l-1.05-.13 2.75.01-1.23.12Z" fill="#23150D"/><path d="m8.62 10.46-.3.24c-.23 0-.45-.02-.68-.03l-.1-.38.11-.14.97.31Z" fill="#927341"/><path d="m8.34 11.45.1 1.23-.02-.02-.03.01h-.26c-.02-.06-.04-.12-.07-.16l-.02-.68.04-.39h.16l.1.01Z" fill="#D7BA7A"/><path d="m7.55 10.3.1.38h-.76l.01-.26.2-.12h.45Z" fill="#492E19"/><path d="M6.9 10.42v.26h-.48l-.1-.3v-.09l.3.02.28.1Z" fill="#795B32"/><path d="m6.33 10.39.1.3h-.67l.38-.3h.19Z" fill="#492E19"/><path d="M1.82 10.39h.42l.03.3H1.8c0-.1 0-.2.02-.3Z" fill="#60432A"/><path d="M8.23 11.44h-.16c0-.1-.02-.19-.03-.28l.19.28Z" fill="#E6E2A9"/><path d="m4.9 10.44.1.2-.19-.07a.37.37 0 0 0 .09-.13Z" fill="#492E19"/><path d="M22.59 5.1h-.18c-.15-.3-.3-.58-.43-.87l-.02-.92c.1-.42.23-.05.35-.02l.28 1.8Z" fill="#DBAE5A"/><path d="M22.3 3.3c-.11-.05-.25-.41-.35.01-.04-.29-.08-.57-.1-.85l.03-.01h.04c.44.04.4.36.4.67 0 .06 0 .11-.02.17Z" fill="#AA8851"/><path d="M20.04 2.68V2.6a77 77 0 0 1 .11-.62h.36v2.19l-.39.45V3.6c-.02-.22-.02-.45-.03-.67l-.05-.25Z" fill="#60432A"/><path d="M16.94 1.6v-.1l2.2-.08.02.16-.08.01-.53.2-.01-.01-.07-.12-.12.1h-.28c-.38-.04-.75-.1-1.13-.17Z" fill="#DBAE5A"/><path d="M19.07.78c-.73.03-1.45.05-2.18.1l-.02-.2L19.1.65l-.03.12Z" fill="#795B32"/><path d="M19.08 1.6c.03-.02.05-.02.08-.02l.06 2.1-.11-1.52a5.46 5.46 0 0 1-.03-.57Z" fill="#AA8851"/><path d="m20.1 3.59.01 1.02c-.03-.01-.04 0-.06.03l-.2-.01-.03-.28v-.21l.04-.56.24.01ZM20.16 1.98l-.11.62-.24-.33.07-.68h.22c.01.14.03.26.06.39Z" fill="#E6E2A9"/><path d="M20.1 3.59h-.23c0-.22 0-.44-.02-.66l.24-.01.01.67Z" fill="#DEC88B"/><path d="m19.85.8.22.07.07.36-.05.19-.22-.16-.07-.03.05-.43Z" fill="#C9AB74"/><path d="m19.87 1.6-.07.68-.02-.69.1.01Z" fill="#60432A"/><path d="m19.87 1.6-.1-.02.02-.17.08-.16c.08.06.16.1.22.16v.2h-.22Z" fill="#DEC88B"/><path d="m19.87 1.25-.08.16v-.2l.08.04Z" fill="#60432A"/><path d="M20.08 2.92h-.24l.06-.33.13.09.05.24Z" fill="#E6E2A9"/><path d="M19.84 4.63h.2l-.08.19h-.2l.08-.2ZM19.82 4.15l.01.2v-.2Z" fill="#60432A"/><path d="M21.92 2.45h-.08c-1.07.19-.27 1.14-.65 1.6l-.12-.47.02-1.03c.1-.5.3-.94.82-1.16l.04.04.02.2-.03.35-.02.18v.29Z" fill="#795B32"/><path d="m21.98 1.62-.01-.2.8-.13.04.04-.82.3ZM21.93 2.17l.02-.18-.02.18Z" fill="#AA8851"/><path d="m2.05 22.17.14.04.36.5.38.23-.7.38-.44-.16v-.19l-.09-.56h.08l.18-.18c.04 0 .06-.04.09-.06Z" fill="#311D12"/><path d="m2.93 22.94-.38-.23c.14-.07.26-.15.4-.24l.28-.1.23-.13.55-.3.1.19a.72.72 0 0 1-.06.11c-.37.25-.75.47-1.12.7Z" fill="#927341"/><path d="m4.72 6.77-.84-.02h-.21l-1.6-.04-.22-.01-.33-.01-.5-.09v-.17h.3l.36-.02h1.51l4.09.04.19.14-.02.12c-.9.03-1.81.04-2.73.06Z" fill="#E1D298"/><path d="m7.49 6.61-.2-.14c0-.08-.02-.15-.03-.23l.06-.2h.2l-.03.57Z" fill="#795B32"/><path d="M3.2 6.42h-.55.56ZM1.03 6.44v.17L.66 6.6l.19-.16h.18ZM1.69 6.42l-.36.01h.36Z" fill="#C9AB74"/><path d="m20.52 4.16-.01-2.2v-.45l.19-.09.06.36.04 1.81-.17 1.68-.09-.08-.01-.37-.01-.66Z" fill="#927341"/><path d="m20.8 3.59-.04-1.8H21c.02.25.06.5.1.75l-.03 1.03-.28.02Z" fill="#311D12"/><path d="M22.77 1.29c-.27.04-.54.1-.8.13l-.04-.04v-.17c0-.13.02-.24.03-.37h.18l.66-.08c.16 0 .33.03.49.04l-.52.49Z" fill="#795B32"/><path d="M21.92 1.2v.18c-.52.22-.72.65-.82 1.16L21 1.8l.1-.19.82-.4Z" fill="#492E19"/><path d="m21.92 1.2-.83.4c-.08-.67.4-.69.86-.76l-.03.37Z" fill="#311D12"/><path d="m20.52 1.5-.01.47h-.36l-.06-.38V1.4l.05-.2.39-.16-.01.47ZM22.8.76l-.66.07.66-.07Z" fill="#492E19"/><path d="M20.52 1.5v-.45H20.7v.38l-.18.08Z" fill="#60432A"/><path d="M20.7 1.04h-.16L20.6.9l.09.13Z" fill="#492E19"/><path d="M11.53 22.52v-.38l.37-.1v.18l-.37.3ZM11.25 22.8l.29-.28-.29.28Z" fill="#927341"/><path d="M11.9 22.23v-.18l.12.08-.12.1Z" fill="#AA8851"/><path d="m8.37 22.45-.3.32-.32.32-.6.42-.32.26-.09.02c-.62-.76.6-1.47.07-2.23l.29-.25.83-.6h.2v.4c-.07.02-.13.06-.19.09l-.37.28c.02.28.06.57.1.85.01.09.04.17.06.26l.21-.25.43.11Z" fill="#C9AB74"/><path d="m7.75 23.09.32-.32v.12l-.32.2Z" fill="#927341"/><path d="m6.82 23.77.31-.26-.31.26Z" fill="#B39467"/><path d="M.95 10.34c-.07 0-.14 0-.21.02l.21-.02Z" fill="#795B32"/><path d="M23.05 23.5c-.06-.06-.12-.13-.11-.15a.55.55 0 0 1 .19-.22c.04-.02.13.08.2.13l-.28.25ZM22.23 23.1l.27-.1-.1.32c-.06-.07-.1-.15-.17-.21Z" fill="#C19B5D"/><path d="m21.66 5.6-.44-.98.72-.19c0 .14.03.27.04.42l-.01.05v.52l-.31.18Z" fill="#795B32"/><path d="M22.23 6.46c0-.07 0-.14-.02-.21l.12-.12.09.31-.19.02ZM22.77 6.27v.03h-.04l.01-.04h.03Z" fill="#23150D"/><path d="M2.45 17.7c-.53-.12-1.32.04-1.04-.95.56.66 1.4.32 2.08.58l-.2.25-.65.12h-.2Z" fill="#AA8851"/><path d="M1.13 18.69c-.16 0-.32 0-.48.02l.48-.02Z" fill="#60432A"/><path d="m2.27 18.24-.28-.02.13-.2.15.22Z" fill="#23150D"/><path d="m4.72 6.77 2.75-.04-.2.16-.18.01c-.8-.05-1.58-.1-2.37-.13Z" fill="#795B32"/><path d="m.66 6.58.37.02.49.09-.97-.06c.04 0 .07-.03.11-.05Z" fill="#60432A"/><path d="M7.1 6.9c.06 0 .12 0 .19-.02v.16l-.1.05-.1-.07v-.13Z" fill="#492E19"/><path d="m1.86 6.7.21.02-.2-.01Z" fill="#795B32"/><path d="m6.32 21.87-.16.38-.5-.3v-.13c.25-.36.2-.57-.3-.52h-.18l-.1-.79c0-.05 0-.11.02-.18l2.62-2.45.11.18c-.61.86-1.22 1.73-1.84 2.58-.09.12-.23.22-.33.33l.5.1.64.39-.27.12-.2.1v-.04l-.07-.12c-.04.04-.08.08-.1.12l-.12.11.28.12ZM5.62 23l-.44-.48.96-.2-.19.3.01.3-.34.08Z" fill="#927341"/><path d="m6.14 22.33-.96.2a5.02 5.02 0 0 0-.24-.23l.73-.34.5.3a.09.09 0 0 0-.03.07Z" fill="#795B32"/><path d="M5.96 22.9v-.3l.16.28c-.06 0-.11.02-.16.03Z" fill="#AA8851"/><path d="m6.14 23.75.11-.22.12.11-.23.11Z" fill="#C9AB74"/><path d="m6.32 21.87-.28-.1.11-.11h.18v.03l-.01.18ZM6.52 21.59l.27-.13v.1a1.3 1.3 0 0 1-.27.03Z" fill="#AA8851"/><path d="m22.54 10.58.21.4-.16.17-.43.15c-.57-.17.1-.41-.03-.62l.41-.1Z" fill="#E6E2A9"/><path d="m22.54 10.58-.42.1-.18-.27.33-.16.15.01.12.32Z" fill="#DEC88B"/><path d="M22.5 9.45h-.41c0-.05 0-.16.03-.16.12-.02.25 0 .37 0l.01.16Z" fill="#AA8851"/><path d="M23.27 9.83v.4a2.73 2.73 0 0 1-.14-.07l.14-.33Z" fill="#60432A"/><path d="m22.59 11.15.16-.19h.23l.05.21-.12.06-.31.02-.01-.1Z" fill="#B39467"/><path d="M20.73 23.26c-.09.13-.16.28-.27.4-.03.02-.17-.06-.27-.1l.24-.28.3-.02Z" fill="#C9AB74"/><path d="M19.76 22.99h.29a3.7 3.7 0 0 1-.19.22l-.1-.22ZM20.73 23.26l-.3.02v-.18h.3v.16ZM21.18 22.99l.16.03s0 .03-.02.04l-.14-.07Z" fill="#C19B5D"/><path d="m8.75 2.92-.42.38c-.02-.15-.03-.32-.06-.47V2.54c.03.02.04.02.06.01h.37l.05.37Z" fill="#23150D"/><path d="m8.75 2.92-.05-.38h.13l-.03.39-.05-.01Z" fill="#492E19"/><path d="m15.3.77.2-.27c.07.07.2.12.2.19.02.12-.06.24-.1.36l-.3-.28Z" fill="#AA8851"/><path d="M22.22 17.41c.13-.05.25-.12.38-.18l.37.28v.24l-.27.05c-.06.03-.13.05-.19.1l-.29-.49Z" fill="#E6E2A9"/><path d="m1.7 22.41.09.57-.34.01c-.24-.73-.8-1.38-.61-2.23.05.04.12.07.18.1l.68 1.38v.17Z" fill="#23150D"/><path d="m.99 22.78-.21.27-.13-.22.1-.12.24.07Z" fill="#AA8851"/><path d="m22.98 19.24-.14-.02-.05-.2v-.57h.18c.19.15.65 0 .58.47l-.55.2c0 .04 0 .08-.02.12Z" fill="#D7BA7A"/><path d="m22.98 19.24.01-.12.26.28c-.08-.06-.17-.1-.27-.16Z" fill="#B39467"/><path d="m5.1 20.34-.01.18-.47.2-.1.3c.04.05.07.12.1.18.07.2.12.41.18.62l-.45.05-.06.27h-.17l-.1-.18c.2-.44.43-.88.01-1.32l1.06-.48c0 .06 0 .13.02.18Z" fill="#492E19"/><path d="m4.3 22.14.05-.27.08.1c-.05.05-.1.1-.14.17Z" fill="#927341"/><path d="m1.22 23.22.4-.03-.4.03ZM22.51 7.13v-.27l.59.02-.04.28-.17.05-.38-.08Z" fill="#311D12"/><path d="m4.43 21.96-.08-.1.45-.04.59-.04.28.04v.13l-.73.34-.51-.33Z" fill="#AA8851"/><path d="m22.97 18.44-.18.01-.3-.25.01-.13.2-.27.27-.05.1.52-.1.17Z" fill="#C9AB74"/><path d="m14.17 23.18.16.17c-.05 0-.11 0-.17.02l.01-.19Z" fill="#D7BA7A"/><path d="M21.98 5.12v-.23h.04c0-.02-.03-.03-.04-.05l-.03-.42.03-.2.43.87-.43.03Z" fill="#AA8851"/><path d="m12.38.93-.01-.2.02-.16.43.1-.44.26Z" fill="#B39467"/><path d="m4.05 12.97.4-.12.1.1-.11.67-.16.23.17.05c.3.3 1.1.14.84.96-.66.29-.66-.52-1.07-.64-.08-.03-.22.11-.32.17h-.01c-.84-.58.5-.9.16-1.42ZM3.88 14.75c-.12.26-.22.53-.36.78 0 .02-.3-.06-.32-.12-.08-.37-.1-.74-.16-1.1.27.1.55.23.82.35l.02.1Z" fill="#DBAE5A"/><path d="M1.6 14.38c.1-.5.47-.67.86-.49.29.14.6.57.02.78-.21.08-.52-.12-.79-.2l-.09-.09Z" fill="#AA8851"/><path d="M4.06 16.65c-.1.1-.2.19-.29.3-.02-.54-1.04-.1-.8-.84.04-.12.35-.15.52-.21-.04.3.1.37.37.27v.01c.08.15.13.31.2.47ZM1.71 12.93h.83l.78.06c-.55.49-1.14.24-1.73.06v-.07l.12-.05Z" fill="#DBAE5A"/><path d="m2.28 16.4-.43-.3.2-.26.45.37-.22.2Z" fill="#AA8851"/><path d="m1.6 14.38.1.1c-.24.28.46.8-.24.96v-1.07l.14.01ZM3.86 15.8l.3-.13c.04.08.1.2.07.25-.1.1-.24.17-.36.25h-.01v-.37Z" fill="#DBAE5A"/><path d="m3.88 14.76-.02-.1v-.27h.02l.33.3-.33.07ZM3.86 15.8v.37c-.26.1-.4.02-.36-.28l.36-.09ZM1.58 12.98l.01.08-.16.18c0-.09-.03-.18-.04-.27h.2Z" fill="#AA8851"/><path d="m12.77 12.1.58-.73.17-.12.19-.1.18-.1.2.67-.18.12-.3.26-1.64 1.24-.04.01h-.03l.5-.95.28-.2a.39.39 0 0 1 .09-.1Z" fill="#60432A"/><path d="M19.2 7c-.2.26-.38.5-.59.75l-.47.19-.18.03-.1-.05c.34-.53-.18-.86-.28-1.3v-.07l.28-.13c.27.58.7.83 1.34.59Z" fill="#492E19"/><path d="M16.14 5.57h.13l.1.55.38.6v.47l-.57.4-.2-.4V5.68l.16-.11Z" fill="#D7BA7A"/><path d="m16.2 9 .6-.35-.15.81c-.44-.26-.62.12-.82.36-.09.1-.08.29-.1.44l-.23.24-.31-.6.49-.46c.07-.08.14-.17.22-.24l-.02-.02v.02l.33-.2ZM14.07 11.72l-.19-.66.09-.04.16-.16.03-.03c.06-.05.13-.1.18-.16.02 0 .04 0 .06.02l.84.02-.03.33-.88.57-.26.11Z" fill="#927341"/><path d="m16.65 9.46.15-.82.23-.21.16.13.12-.23.56-.42.1.05c-.27.27-.35.56-.12.9l-.74.3-.46.3Z" fill="#795B32"/><path d="M15.26 10.71c-.28 0-.57 0-.85-.02l.79-.78.31.6c-.02.06-.05.12-.1.18l-.15.02Z" fill="#AA8851"/><path d="M14.48 8.94v-.42c.2-.11.4-.23.61-.33l.15-.05.18.04v.06l-.94.7Z" fill="#DEC88B"/><path d="m15.98 7.19.2.4-.02.13-.13.11a.05.05 0 0 0-.05.03c-.02 0-.06 0-.1-.02l-.48-.52-.17-.24v-.11h.19l.18.16.38.06Z" fill="#B39467"/><path d="m15.4 7.32.49.52-.2.28c-.08.04-.18.08-.26.1l-.01-.05-.2-.62-.1-.05-.18-.04.46-.14Z" fill="#D7BA7A"/><path d="m16.74 7.19.01-.47.37-.4.18.12.3.09-.01.07-.18.05-.51.51a.43.43 0 0 1-.16.03Z" fill="#B39467"/><path d="m16.9 7.17.5-.5c-.08.24.06.72-.5.5Z" fill="#492E19"/><path d="m17.31 8.33-.12.23-.16-.13.28-.1Z" fill="#927341"/><path d="m15.69 8.12.19-.28.1.02a3.9 3.9 0 0 1-.3.26ZM15.9 9.2l-.21.24c.07-.08.14-.17.22-.24ZM16.2 9l-.3.2.3-.2ZM13.71 11.14l-.2.11.2-.1Z" fill="#492E19"/><path d="m14.34 10.67-.18.16c.07-.05.13-.1.18-.16ZM14.13 10.86l-.16.16.16-.16Z" fill="#60432A"/><path d="m16.03 7.83.13-.11-.13.11Z" fill="#492E19"/><path d="m1.7 22.24-.67-1.37h.44l.09.13c-.2.31-.11.5.24.57l.22.27.02.33-.07.07H1.7Z" fill="#311D12"/><path d="m2.95 22.48-.4.24c-.12-.16-.25-.33-.36-.5.32-.12.67-.33.76.26ZM2.02 21.85l-.21-.27.7-.29c0 .08.03.16.03.23l-.52.33Z" fill="#DEC88B"/><path d="m2.54 21.52-.03-.23.51-.03.02.02c-.16.09-.33.17-.5.24Z" fill="#B39467"/><path d="M3.4 21.1c-.12.06-.23.13-.36.18l-.02-.02.38-.23v.07Z" fill="#DEC88B"/><path d="M3.4 21.1v-.07l.26-.07c0 .04 0 .06.02.1l-.27.04ZM1.56 21l-.09-.13.29-.09a.3.3 0 0 1 .05.07l-.25.15Z" fill="#C9AB74"/><path d="m3.46 22.26-.23.14.23-.14Z" fill="#DEC88B"/><path d="M1.76 20.78c.07 0 .13-.03.2-.04l-.15.11-.05-.07Z" fill="#C9AB74"/><path d="M6.1 13.91c0 .18 0 .37.02.56l-.2.47-.31-1 .49-.03ZM4.44 13.9l-.17-.05.16-.23v.28Z" fill="#C19B5D"/><path d="m5.1 20.34-.02-.18c.57-.58.5-1.72 1.62-1.8l.03.02-.02-.03.66-.73 1.44-1.02.35-.03c.04.1.08.18.1.28h-.13c-.49.25-1.07.36-1.26.99l-.15.06-2.61 2.44Z" fill="#795B32"/><path d="M8.81 16.59 7.37 17.6l-.03-.12.4-.5.94-.44.13.04Z" fill="#492E19"/><path d="M6.52 12.3a.45.45 0 0 1 .1-.05c.03 0 .07.03.11.04-.04.06-.08.13-.1.2l-.11-.2Z" fill="#B39467"/><path d="m11.66 13.68.33-.06.41.32.09.36-.18.2c-.13-.05-.25-.11-.38-.13-.03-.01-.1.1-.13.17l.41.06c.3.76-.36 1.23-.6 1.78-.2.42-.83.51-1.3.1 0-.1 0-.2-.02-.3v-.26l.48-1.35h.01l.83.29-.35-.76c.12-.15.25-.29.4-.42Z" fill="#927341"/><path d="m12.4 13.93-.42-.32c0-.1-.02-.18-.03-.28.55-.4 1.1-.83 1.64-1.24.1-.1.2-.18.3-.26l.17-.12.26-.1.22.22.3.08.17.01.3.37-.2.1-.54.1c-.06-.62-.47-.09-.69-.18l-.08.27-.39.5-.22.32-.8.53Z" fill="#B39467"/><path d="m11.65 13.68-.4.4-.48.46-.24.05-.04-.04c.12-.63.4-1.07 1.16-.87Z" fill="#492E19"/><path d="m9.74 7.48.37.08.56-.01v.1c-.4.06-.82.12-1.23.16l.3-.33Z" fill="#C19B5D"/><path d="m10.68 7.65-.01-.1.28-.12.01.18-.06.09-.22-.05ZM11.33 5.95v.2l-.1-.12.1-.08Z" fill="#B39467"/><path d="m7.26 12.12.05-.46c.62.45.13 1.06.25 1.58l-.22.08-.08-1.2Z" fill="#927341"/><path d="M8.03 11.82c0 .23.02.45.03.68l-.31-.1-.01-.18.08-.38.04-.04.17.02Z" fill="#60432A"/><path d="m7.75 12.4.3.1.07.16-.08.01-.19.46-.1.1v-.84Z" fill="#795B32"/><path d="M7.77 11.84c0-.14 0-.28.02-.42l.08.39-.04.04-.06-.01Z" fill="#60432A"/><path d="m6.33 11.55-.27-.01h.27Z" fill="#23150D"/><path d="M7.77 11.84h.06l-.08.38c0-.12 0-.26.02-.38ZM9.24 15.47l.77-.4.01.23-.55.6-.3.16-.37.14-.03-.24.22-.26.22-.23h.03Z" fill="#927341"/><path d="m8.76 15.96.03.24-.06.08-.22-.1c.02-.06.06-.13.1-.19.04-.02.1-.03.15-.03Z" fill="#795B32"/><path d="M9.2 15.46 9 15.7l.22-.24Z" fill="#492E19"/><path d="m8.87 12.77.04-.18c.1-.57.43-.33.72-.2l.14.13v.05l.03.08-.73.64-.2-.52Z" fill="#DEC88B"/><path d="M9.8 12.65c0-.03-.02-.05-.03-.08v-.05l-.25-.8-.04-.54.07-.42.27.1.2 1.32-.22.47Z" fill="#795B32"/><path d="M12.15 5.76c.05 0 .1.02.14.03V6h.02l-.13.07-.03-.31Z" fill="#E1D298"/><path d="m12.66 6.8.5.95c-.49-.15-.48-.55-.5-.95Z" fill="#60432A"/><path d="M13.83 8.24h-.24l-.24-.12c-.03-.08-.07-.15-.12-.23l.08-.16c.08-.06.18-.1.27-.17l.02-.02c.02 0 .04.01.05.03l.03.28c.05.1.1.21.14.33.02 0 .02.03.01.06Z" fill="#AA8851"/><path d="m13.23 7.89.12.23c-.2 0-.4-.02-.16-.28l.04.01v.04Z" fill="#492E19"/><path d="m10.68 7.65.22.04-1.36.53.05-.16-.14.2-.23.14h-.24l-.04-.21.25-.3.25-.08c.41-.04.82-.1 1.24-.16Z" fill="#795B32"/><path d="m8.94 9.16-.04-.01h-.04l-.22.16-.07-.12.06-.43c.03 0 .05 0 .07-.03l.25.06-.01.37Z" fill="#D7BA7A"/><path d="m8.94 8.8-.25-.06v-.28l.25-.26c0 .06.03.14.04.2 0 .09.02.16.03.24l-.07.16Z" fill="#AA8851"/><path d="m9 8.64-.02-.23h.24L9 8.64Z" fill="#C9AB74"/><path d="m9.46 8.26.14-.19-.05.16c-.04 0-.06.02-.1.03Z" fill="#AA8851"/><path d="M12.3 6h-.01l.18-.24v-.02l.09.09.27-.19c1.43-1.1.22.68.68.63l-.09.26-.6-.14-.2-.13-.24-.1c-.01-.06-.05-.1-.08-.15Z" fill="#ECE1C8"/><path d="M13.66 7.56c-.02 0-.04-.01-.05-.03l-.2-.65.03-.1.37.05.1.4c-.08.12-.16.23-.25.33Z" fill="#B39467"/><path d="m13.45 6.79-.04.1-.57-.5.6.14.01.26Z" fill="#E1D298"/><path d="m13.58 7.55-.26.17c.08-.05.18-.1.26-.17Z" fill="#B39467"/><path d="m12.4 6.15.24.1-.25-.1Z" fill="#E1D298"/><path d="m9.49 11.2.04.53.1.66c-.3-.14-.61-.37-.72.2l-.03-.86.02-.3.02-.77.35-.08.12.07.1.54Z" fill="#D7BA7A"/><path d="m8.57 9.2.07.12.16.15.1.27.1.19V10l-.01.21-.67-1.04.25.03Z" fill="#492E19"/><path d="m9.49 11.2-.1-.55.17.12c-.03.14-.06.28-.07.42Z" fill="#AA8851"/><path d="m8.5 16.18.23.1-.04.28-.93.43v-.23l.11-.09.36-.3.06-.18.22-.01Z" fill="#927341"/><path d="m8.22 16.37-.36.3.18-.26.18-.04Z" fill="#795B32"/><path d="M8.22 16.37c-.06 0-.13.02-.18.04.07-.08.16-.15.24-.22l-.06.18Z" fill="#311D12"/><path d="M10.01 15.3v-.24l.5-.46.23-.05-.48 1.35h-.18l-.08-.2c.02-.13.02-.27.01-.4Z" fill="#795B32"/><path d="M8.12 12.66h.26l.08.32.13.35-.36.05-.1.05-.1-.28v-.47c.03 0 .06 0 .1-.02Z" fill="#B39467"/><path d="m8.6 13.33-.13-.35.3.1-.17.25Z" fill="#23150D"/><path d="m8.13 13.43.1-.05.14.34h-.23v-.3Z" fill="#DEC88B"/><path d="M13.83 8.24a.08.08 0 0 0 0-.07l.3-.2.24-.03.44-.07.28.05v.28l-.62.32c-.21-.1-.42-.2-.64-.28ZM8.04 12.67l-.01.47h-.18l.19-.47Z" fill="#492E19"/><path d="m8.88 9.73-.09-.27.11-.2.25.39-.27.08Z" fill="#927341"/><path d="m8.88 9.73.26-.08.04.08-.2.19c-.02-.06-.06-.12-.1-.19Z" fill="#B39467"/><path d="m8.9 9.25-.1.2-.17-.14.22-.15.05.1Z" fill="#AA8851"/><path d="m12.66 12.2-.28.2c.1-.07.2-.13.28-.2ZM19.2 5.32c-.1.7-.58.97-1.23 1.02v-.09l1.23-.93Z" fill="#492E19"/><path d="m16.94 1.6 1.12.17c-.3.38-.68.3-1.07.17 0-.1-.03-.22-.05-.35Z" fill="#DEC88B"/><path d="m17.13 6.32-.37.4-.38-.59.66.01.09.18Z" fill="#C9AB74"/><path d="m19.08 1.6.01.56-.55-.38c.18-.05.35-.12.54-.19Z" fill="#DEC88B"/><path d="m18.84 5-.3.32c-.04-.05-.13-.12-.12-.14.07-.12.16-.23.24-.34.04.05.1.1.18.16Z" fill="#E6E2A9"/><path d="M17.97 6.25v.08l-.11.08-.27.13-.3-.1.02-.03.18-.17h.48Z" fill="#DEC88B"/><path d="M17.04 5.49c0-.1-.03-.22-.04-.33l.13.01c.07.1.14.2.22.28a.56.56 0 0 0-.02.13l-.29-.09Z" fill="#B39467"/><path d="M17.78 5.2c.07-.05.13-.1.2-.12.02-.01.06.08.1.13l-.2.08a.46.46 0 0 1-.1-.1Z" fill="#E6E2A9"/><path d="m17.78 5.2.1.09-.19.14.09-.24ZM17.83 2.69l-.08.1c-.04-.03-.09-.05-.12-.1.02-.02.05-.07.08-.07s.07.03.12.07ZM17.12 5.17h-.13v-.24l.13.02v.22Z" fill="#DEC88B"/><path d="m17.5 6.24-.18.17.18-.17Z" fill="#ECE1C8"/><path d="m18.35 1.78.12-.11.07.12-.2-.01Z" fill="#DEC88B"/><path d="M17.4 4.77v.25l-.22-.1c.08-.04.15-.1.22-.15Z" fill="#795B32"/><path d="M17.31 5.58a.56.56 0 0 0 .02-.13l-.02.13Z" fill="#C9AB74"/><path d="m10.76 3.68.01.38-.55.5c-.03-.23-.15-.51-.05-.68.06-.14.38-.14.6-.2ZM9.45 7.82l-.25.07-.1-.33.06-.3.6.22-.31.34ZM9.17 5.95l-.01-1.32c.16.44.41.88 0 1.32ZM9.17 3.59l-.1-.86c.4.24.24.55.1.86Z" fill="#D7BA7A"/><path d="m9.15 7.28-.06.3H9l-.1-.2.08-.48.13.01.05.37Z" fill="#795B32"/><path d="M9.26 6.53ZM10.86 2.82l-.08.29c-.05-.06-.1-.11-.14-.18l.22-.1Z" fill="#D7BA7A"/><path d="M8.88 5.67V5.2v.47ZM8.88 3.96v-.38.38Z" fill="#795B32"/><path d="M16.07 4.35 16 5.2l-.58-.4.1-.26c.1-.08.22-.15.34-.23l.22.04Z" fill="#E6E2A9"/><path d="M15.24 3.57h.26l.03.09-.03.11.1.3c-.07.12-.12.26-.18.38h-.1v-.22l-.3-.19.22-.47Z" fill="#927341"/><path d="m15.42 4.44.17-.38h.28l-.03.24-.35.23-.07-.09Z" fill="#B39467"/><path d="M15.88 4.07h-.28l-.09-.3.15.01.22.29Z" fill="#C9AB74"/><path d="M15.65 3.77h-.15l.03-.12.12.12Z" fill="#AA8851"/><path d="M11.05 2.07c-.07-.02-.12-.05-.2-.06l.26-.15-.02.01-.03.2h-.01Z" fill="#DEC88B"/><path d="m11.2 1.83-.03.01-.1.03h.03c.04-.03.07-.03.1-.04Z" fill="#C19B5D"/><path d="m12.46 1.4-.06.04-.03-.07.06-.06.03.08Z" fill="#311D12"/><path d="M13.52 6.27c-.46.05.75-1.73-.68-.63l-.27.19-.1-.09.4-.55a7 7 0 0 0 .27-.2l.2-.17.33-.01.03 1.14-.03.03.04.04.09.03-.28.22Z" fill="#B39467"/><path d="m13.33 4.82-.2.17-.38-.25c-.06 0-.12-.02-.17-.03l-.01-.26c.02-.03.02-.04 0-.07l.35-.1.21-.02h.47l.01.37c-.1.04-.46-.26-.28.19Z" fill="#23150D"/><path d="m12.76 4.74.38.25a7 7 0 0 0-.28.2l-.1-.45ZM12.58 4.44v.26l-.39-.08.06-.18h.33Z" fill="#492E19"/><path d="M12.47 5.76 12.3 6l-.01-.21.2-.03Z" fill="#C9AB74"/><path d="m12.93 4.27-.34.1c.05-.36.12-.71.18-1.07l.74-1.15.2-.05 1.32 1.44-.74.35c-.08 0-.15 0-.23.02v-.08l-.02.09-.1.13-.32.2h-.48l-.2.02Z" fill="#ECE1C8"/><path d="m14.29 3.89.74-.35.2.04-.2.47-.19.02-.38.3-.17-.48Z" fill="#492E19"/><path d="m13.71 2.1-.2.05-.21-.03.61-.2-.2.18Z" fill="#B39467"/><path d="M12.77 3.3c-.06.36-.13.71-.18 1.07l-.01.07h-.34l.02-.75.3-.69.19.2c0 .04 0 .07.02.1Z" fill="#DEC88B"/><path d="M13.62 4.62v-.37h.44l.08.3c-.1.49.25.24.43.26.04.03.08.05.1.08.1.28.22.27.35.03l.39-.13.58.41.15.37-.16.1-.56 1.3-.2-.01-.37-.44c0-.1-.03-.2-.04-.29.03-.41-.2-.3-.44-.23-.19 0-.37.03-.56.04L13.7 6l-.01-.07-.03-1.14-.05-.18Z" fill="#ECE1C8"/><path d="m12.66 2.83.07-.3c.28.1.32.23.04.4l-.1-.1ZM12.76 3.22a3.72 3.72 0 0 1-.2-.2H12.77v.2Z" fill="#E1D298"/><path d="M12.76 3.01h-.18c.03-.06.05-.12.1-.19l.1.1c-.02.04-.02.07-.02.1Z" fill="#DEC88B"/><path d="M11.09 1.87c.03 0 .06 0 .08-.03l-.04.23h-.07c0-.07.02-.14.03-.2Z" fill="#D7BA7A"/><path d="M2.83 5.25c-1.95-.41-.95-1.99-1.16-3.06-.1-.48.46-.47.8-.51 1.1-.14 2.22-.72 3.3.1-.34.17-.13.32 0 .47-.3.38-.24.72.1 1.05l.16.57v.76c-.34.2-.68.43-1.02.64l-2.18-.02ZM4 1.83c-.2-.12-.34-.25-.39-.23-.17.09-.3.23-.46.36.1.06.22.19.32.18.14-.03.27-.15.53-.3Z" fill="#DBAE5A"/><path d="m6.04 1.9.06-.11c.49-.05.56.35.56.64.01 1.02-.04 2.04-.08 3.06l-.44-.15-.06-2.14-.01-.36.29-.18a5.44 5.44 0 0 0-.27-.22l-.05-.18v-.37Z" fill="#492E19"/><path d="m5 5.27 1.02-.64.03.66L5 5.27Z" fill="#C9AB74"/><path d="m6.05 5.3-.03-.66v-.76L6 3.32l.06-.11.05 2.14a.2.2 0 0 0-.07-.05Z" fill="#795B32"/><path d="m1.32 5.1.85.18c-.3.06-.67.34-.85-.18Z" fill="#60432A"/><path d="M6.04 1.9v.37h-.26c-.13-.16-.34-.31-.01-.48l.27.1Z" fill="#D7BA7A"/><path d="m8.06 5.95-.06.1-.25-.27-.16-.26v-.47l.4-.7.06.1v1.5Z" fill="#492E19"/><path d="m7.75 5.77.25.28v.35l-.15-.17c-.02.05-.07.1-.06.12.05.1.14.18.2.26.11.74-.43.36-.71.43v-.16l.19-.16c0-.04 0-.08.02-.12 0-.19.02-.38.03-.56l.08-.34.15.07Z" fill="#311D12"/><path d="M7.5 2.64c.03.47.04.95.06 1.42L7.5 2.64Z" fill="#492E19"/><path d="M7.75 5.77 7.6 5.7v-.18c.04.09.09.17.15.25Z" fill="#60432A"/><path d="m8.06 5.95-.01-1.32.1-.07-.11-.12-.06-.1L8 2.83l.25.01.06.47c0 .89-.02 1.77-.03 2.65h-.23Z" fill="#E1D298"/><path d="m12.28 19.57 1.77-1.63.4.78-.26-.1-.23-.24-.06.54.2-.09.18.19c-.47.9-1.14 1.07-2 .55Z" fill="#927341"/><path d="m14.19 18.62.27.1c.25.12.08-1.08.57-.18v.65l-.1.1c-.09 0-.17 0-.27.02l-.4-.3-.18-.17.11-.22Z" fill="#C19B5D"/><path d="M20.25 18.07c.27.47.56.94.84 1.4l-.57.12-.68.37h-.08c-.17.02-.33.03-.5.03l.22.27-.2.18h-.07l-.2-.29-.1-.26c-.04.09-.07.18-.08.27-.17 0-.33 0-.48.02.24-.88-.59-.42-.85-.7l.1-.37.29-.19.27.18-.02.02.02-.02.28-.1.67.1v.19l.02.42.27-.42.7.1-.42-.57.57-.75ZM17.31 19.2c-.29.04-.57.08-.85.1l-.67-.56.1-.09c.62-.03 1.36-.52 1.7.47-.1.02-.2.05-.28.09Z" fill="#DEC88B"/><path d="M15.8 18.73c.21.2.43.38.66.56l-.38.3c-.22-.35-.44-.19-.66 0l-.47-.3.08-.1.76-.46Z" fill="#D7BA7A"/><path d="M16.98 19.85c-.2.06-.3.1-.39.1-.07-.01-.12-.1-.17-.16.07-.03.16-.1.24-.1.08 0 .16.08.32.16Z" fill="#DEC88B"/><path d="m19.2 20.73-.1.27-.27.1-.2-.1.46-.28h.11Z" fill="#C9AB74"/><path d="m18.82 20.16.07-.27.1.26h-.17ZM17.31 19.2c.1-.02.2-.06.29-.09l-.1.38-.19-.28Z" fill="#D7BA7A"/><path d="m19.2 20.73-.11-.01c.03-.1.08-.19.13-.28l.08-.01h.2l-.3.3Z" fill="#AA8851"/><path d="M14.08 20.99h-.2c-.07-.11-.11-.23-.17-.35l.94-.38-.2.47-.37.26ZM17.59 19.11c-.34-.99-1.09-.5-1.7-.47l-.01-.37c.66-.2 1.32-.38 1.99-.57v-.1l.1-.38.28-.38c.3-.02.7.07.48-.47v-.18l.09-.19.28.66.11.2v.18c.47.65-.55.46-.5.87-.64-.08-.17.48-.37.66-.16.12-.31.24-.46.38-.1.04-.2.1-.3.16Z" fill="#D7BA7A"/><path d="m19.29 14.48-.67 1.11c-.01.02 0 .05 0 .07-.06 0-.12 0-.19.02-.02-.01-.04 0-.04.02-.2-.22-.42-.42-.63-.63l-.1-.9c.39-.3.77-.62 1.16-.94l.46.57v.68ZM22.8 19.02l.05.2-.8.56c-.19-.2-.46-.38-.54-.61-.16-.58 0-.97.71-.82l.1.01.48.66Z" fill="#ECE1C8"/><path d="m19.11 19.11-.67-.1.39-.38.28-.27.19-.39.76-.1.19.2c-.2.26-.39.5-.58.77-.2.08-.37.18-.56.27ZM19.29 14.48l-.02-.67h.1l1.33-.56.16.55c-.54.17-.86.87-1.57.68Z" fill="#D7BA7A"/><path d="M22.23 18.36c-.73-.16-.89.24-.72.81.07.24.35.41.53.62l-.19.13-.27-.06-.29-.28v-.1c-.22-.5-.52-1.06 0-1.49.1-.11.6.22.94.37Z" fill="#E6E2A9"/><path d="m20.05 17.87-.75.1-.48.01-.1-.09c-.05-.41.97-.22.5-.87.65-.1.6.53.83.85Z" fill="#DEC88B"/><path d="M21.28 19.47v.1l-.17.4a.3.3 0 0 1-.08.03l-.5-.4.57-.12.18-.01Z" fill="#C9AB74"/><path d="m22.8 19.02-.48-.66c.06-.05.13-.1.18-.16l.3.25v.57Z" fill="#E6E2A9"/><path d="M21.47 15.15c-.06.11-.1.23-.17.34l-.2-.26.37-.08ZM18.62 15.66v-.07l.1.3-.1.02v-.25Z" fill="#D7BA7A"/><path d="M18.63 15.9h.1l.1.1-.1.18-.1-.27Z" fill="#C19B5D"/><path d="m19.21 16.85-.1-.2.2.07-.1.13ZM22.7 17.79l-.2.27.01-.18c.07-.03.13-.05.2-.1Z" fill="#DEC88B"/><path d="M19.38 13.8h-.1l-.46-.57.38-1.03c.1-.08.28-.15.27-.23-.05-.88.36-.6.88-.45.39.1.86-.1 1.29-.12.1 0 .2.16.3.23-.16.13-.32.25-.47.39l-2.09 1.78Z" fill="#E6E2A9"/><path d="M21.95 11.63c-.1-.07-.2-.24-.3-.23-.43.03-.9.23-1.29.12-.52-.14-.94-.43-.88.45 0 .07-.17.15-.27.23l-.38-.48.19-.36.55-.5h.12l.28-.3.18.03.48.35c.55.23.85.08.84-.54v-.1l.37-.02.1.12.18.27c.13.2-.54.44.03.61l-.12.35h-.08Z" fill="#E1D298"/><path d="m22.04 11.63.12-.34.43-.14c0 .04 0 .07.02.11-.2.12-.39.24-.57.37Z" fill="#D7BA7A"/><path d="M7.55 10.29h-.46v-.09c.3-.53.57-1.06.86-1.6-.26.49.54 1.16-.29 1.54l-.11.15Z" fill="#E1D298"/><path d="M7.09 10.2v.1l-.2.11-.28-.1.48-.1ZM6.33 10.39h-.19v-.09h.19v.09Z" fill="#D7BA7A"/><path d="M1.58 12.98H1.4l-.22-.16c.25-.26.42-.22.54.12l-.13.04Z" fill="#DEC88B"/><path d="M2.4 11.41c-.02 0-.03-.02-.03-.03l.03-.01.02.04h-.03Z" fill="#23150D"/><path d="m5.01 11.26.18.18-.18-.18Z" fill="#492E19"/><path d="m8.36 7.3.03-.5c.21.18.35.35-.03.5ZM8.4 6.61l-.06-.48.05.48Z" fill="#60432A"/><path d="m8.89 7.37.1.21-.19.28.09-.49Z" fill="#492E19"/><path d="m8.57 9.2-.26-.02.1-.39h.22l-.06.4Z" fill="#927341"/><path d="M8.69 8.46v.29l-.07.02-.07-.2.14-.11Z" fill="#60432A"/><path d="m8.55 8.58.07.2-.23.01.16-.2Z" fill="#AA8851"/><path d="M8 6.62c-.07-.08-.15-.16-.2-.26-.01-.02.03-.08.06-.12l.15.17v.21Z" fill="#492E19"/><path d="m20.74 8.02.17.2c-.6.25-.5.77-.5 1.26l-.35-.23c-.02-.04-.06-.06-.1-.1l-.7-.54.02-.14.58-.59c.1 0 .2 0 .3-.02l.13.52.24-.24c.06-.05.13-.08.2-.12Z" fill="#795B32"/><path d="M21.47 10.4c0 .63-.3.77-.84.55l-.2-.46v-.18h.2l.84.1Z" fill="#C19B5D"/><path d="M20.61 10.31h-.18l-.5.1-.08-.2c.14-.17.33-.34-.1-.38V9.26c.07-.03.14-.07.2-.12l.1.1c.1.14.17.27.25.4h.03l.27.6.01.07ZM21.84 10.29l-.37.01.12-.53.36.16-.11.36Z" fill="#B39467"/><path d="m20.6 10.23-.27-.58c.5 0 .44.27.27.58Z" fill="#795B32"/><path d="m21.84 10.3.1-.36.33.31-.33.16a1.02 1.02 0 0 0-.1-.12Z" fill="#C9AB74"/><path d="m20.3 9.65-.25-.4.35.22-.1.18Z" fill="#AA8851"/><path d="M20.52 4.16v.65l-.28.1c-.1-.03-.2-.06-.28-.1l.09-.17c.01-.03.03-.04.06-.03l.4-.45Z" fill="#492E19"/><path d="M20.24 4.91c.1-.02.19-.06.29-.1l.01.38-.3-.28Z" fill="#23150D"/><path d="M20.74 8.03c-.07.03-.15.06-.21.1l-.38-.29v.01l-.3-.2-.08.01-.12-.12c.87-.94.68.4 1.09.49Z" fill="#927341"/><path d="m18.15 7.93.47-.2.43.15-.15.3-.43.17-.32-.42Z" fill="#795B32"/><path d="m18.9 8.18.14-.3.6-.35.12.12-.75.7a1.02 1.02 0 0 0-.09-.1c0-.02 0-.04-.03-.07Z" fill="#AA8851"/><path d="m21.97 4.23-.02.2-.72.19-.03-.56c.37-.47-.43-1.42.65-1.6.04.29.08.56.1.85l.02.92Z" fill="#927341"/><path d="m13.14 18.07-.28-.01c-.1-.16-.2-.31-.28-.47l-.31-.5.3-.26c.27-.18.52-.38.77-.56.06-.07.13-.12.19-.2l.47-.28.2-.16.2-.2c.04-.05.08-.1.12-.18h.16l.3-.27.56-.3c.27.17-.38.55.16.65l.02.27c-1.39.28-2.27 1.07-2.58 2.47Z" fill="#C9AB74"/><path d="M13.14 18.07c.31-1.4 1.2-2.2 2.58-2.48h.25c.17 0 .33 0 .5.02l.2.14c-.03.08-.08.16-.12.23l-.25.28-.34.05-.45-.23-.27.1h-.2l-1.42 1.5c-.15.15-.32.26-.48.39ZM12.85 18.26c-.3.78-.86.94-1.6.66l-.28.18v.01l-.2-.18.86-1.05.27.01h.48l-.2.5c.22-.04.44-.1.67-.13Z" fill="#DEC88B"/><path d="M10.77 19.58c-.3-.35-.86.77-1.04-.2l.36-.19.4-.17c.14.1.23.43.46.1l.01-.02h.28l.3.27c-.25.08-.5.15-.77.21Z" fill="#DEC88B"/><path d="M15.03 18.55c-.49-.9-.32.3-.57.18l-.42-.78.98-.76.11.89-.1.47Z" fill="#AA8851"/><path d="m15.5 16.08.45.23-.3.41-.34.2-.31.2.03-.93h.2l.27.13v-.24Z" fill="#E6E2A9"/><path d="m12.85 18.26-.67.12.2-.5c-.02-.1-.06-.19-.1-.28h.29l.28.47v.19Z" fill="#D7BA7A"/><path d="m15 17.12.31-.2-.17 1.15c-.04-.3-.08-.59-.1-.89a.15.15 0 0 1-.04-.06Z" fill="#C19B5D"/><path d="m9.26 20.63-.3.11c.05-.11.06-.25.15-.34.09-.1.22-.14.33-.2l-.09.41-.09.02Z" fill="#C9AB74"/><path d="M11.25 19.11h-.28l.28-.18v.18Z" fill="#D7BA7A"/><path d="m6.15 21.08-.5-.1c.12-.11.25-.2.34-.33.63-.86 1.23-1.72 1.84-2.58l.52.17c.95.56-.75.42-.23.87l.4.87-.01.08-.58.38-.56.19c-.73-.71-.89.1-1.22.45Zm1.26-1c.14.07.21.15.28.14.08-.01.13-.1.2-.16-.06-.05-.11-.16-.16-.16-.09.01-.16.09-.32.17Z" fill="#AA8851"/><path d="m8.54 19.98-.4-.87 1.22-.66.48-.2h.38c.02.1.06.19.1.28l-.22.66-.36.2c-.32.37-.6.83-1.2.59Zm.44-.24a6.17 6.17 0 0 0-.13-.17c-.05.04-.1.07-.13.12-.01.02.05.1.1.11.03.02.09-.04.16-.06Zm.93-1.07a.84.84 0 0 1-.1-.06s-.05.06-.04.07l.09.08.05-.09ZM7.93 20.44l.58-.38-.4.65h-.19l.01-.27Z" fill="#C19B5D"/><path d="m7.56 21.48.37-.28.1.1.18.09-.65.1Z" fill="#B39467"/><path d="m9.07 22.03.02.09-.63.32.61-.4Z" fill="#927341"/><path d="m7.94 22.34-.21.25-.07-.26h.28Z" fill="#B39467"/><path d="m8.2 21.39-.17-.1.1-.19.08.29Z" fill="#C9AB74"/><path d="m21.03 20 .08-.02.46-.13.27.06c.15.3 1.65-.59.64.72-.04.07-.35-.07-.53-.1v-.1l-.92-.1V20Z" fill="#927341"/><path d="M21.03 20v.34h-.11l-.38.01c-.1-.36-.27-.28-.48-.1h-.19v-.28c.21-.13.43-.24.67-.37l.5.4Z" fill="#C19B5D"/><path d="M21.95 20.44v.1c-.05-.03-.1-.04-.16-.05l.16-.05Z" fill="#B39467"/><path d="M20.04 20.24c.2-.17.4-.25.48.1-.1.1-.18.2-.26.3l-.22-.4ZM19.85 19.96l.01.29-.35.19h-.21l.19-.19.28-.28.08-.01Z" fill="#C9AB74"/><path d="m18.83 21.1.27-.1-.12.21c-.06-.02-.1-.07-.15-.11Z" fill="#DEC88B"/><path d="m8.9 11.43-.02.3-.29-.09.31-.2Z" fill="#492E19"/><path d="m1.87 22.23.1.01-.18.17.08-.18Z" fill="#23150D"/><path d="m1.87 22.23-.08.18H1.7v-.17h.16Z" fill="#492E19"/><path d="M6.15 21.08c.33-.36.5-1.17 1.22-.46.14.33-.96.14-.27.7l-.3.24v-.1l-.65-.38Z" fill="#B39467"/><path d="M7.09 21.32c-.69-.55.42-.36.27-.7l.56-.18v.27l-.83.61Z" fill="#927341"/><path d="m8.13 21.1-.1.2c-.02-.04-.06-.08-.1-.1l.2-.1Z" fill="#D7BA7A"/><path d="M21.98 4.84c0 .02.02.03.03.05h-.04v-.05Z" fill="#C9AB74"/><path d="m5.39 21.78-.59.04-.17-.62.56.1.19.01v.47Z" fill="#60432A"/><path d="m5.2 21.3-.57-.1-.1-.19.09-.3.47-.19.1.78ZM5.39 21.78l-.01-.48c.49-.05.53.16.3.52-.11 0-.2-.02-.3-.04Z" fill="#795B32"/><path d="m8.35 18.24-.52-.17-.11-.19.15-.06.47.28c0 .02.01.04.03.05l-.02.09Z" fill="#60432A"/><path d="M6.33 21.66h-.18l.12-.12c0 .04.04.08.06.12Z" fill="#795B32"/><path d="m4.62 20.72-.1.3.1-.3Z" fill="#60432A"/><path d="m13.9 11.84-.3.26c.1-.1.2-.18.3-.26ZM18.15 7.93l.32.43-.6.53-.01-.03c-.24-.34-.16-.63.12-.9l.17-.03Z" fill="#927341"/><path d="m15.42 6.97.56-1.3V6.9l-.38.22-.18-.15Z" fill="#E1D298"/><path d="m15.6 7.12.38-.23v.3a2.65 2.65 0 0 1-.38-.07Z" fill="#DEC88B"/><path d="M15.73 10.26c.02-.15.01-.33.1-.44.2-.24.38-.63.82-.36l-.31.46c-.2.1-.41.22-.61.34Z" fill="#795B32"/><path d="m15.73 10.26.61-.35.12.12-.77.76-.27-.1.1-.19.2-.24Z" fill="#B39467"/><path d="m15.42 10.7.27.09.95-.5L19 9.93l.57-.27.2-.01v.2l.1.38.07.2c0 .05 0 .11.02.16l-.28.29c-.22-.16.14-1.15-.66-.47h-.48c-.18-.01-.36-.05-.54-.04-.03 0-.1.2-.09.22l.53.3-2.07 3.23-.01-.2c.07-.05.12-.12.2-.17.03-.77.2-1.47.9-1.94.18-.12.55-.68.25-.6-.81.17-1.54.7-2.31 1.1h-.09l-.29-.36.19-.9c0-.1.03-.2.04-.32l.17-.03Z" fill="#C9AB74"/><path d="m15.22 11.04-.19.9-.18-.02-.29-.08-.22-.22.88-.58Z" fill="#D7BA7A"/><path d="M19.77 9.64h-.2l-.31-.19-.26.47-2.36.38c-.02-.12.25-.42-.19-.27l-.12-.12.3-.46.47-.3.77-.08v.1c-.11.1-.25.18-.33.3-.12.18-.17.38-.25.58l.9-.79.25-.38c.34 0 .6-.05.58-.48l.27.05-.01.14c-.3.58.15.58.5.66l-.01.39Z" fill="#AA8851"/><path d="m17.88 9.08-.77.09.74-.31.02.03v.19Z" fill="#927341"/><path d="m15.1 7.91-.29-.05c.1-.1.21-.2.31-.32l.1.01.19.62-.18-.04-.14-.22Z" fill="#B39467"/><path d="m15.1 7.91.13.22-.15.05.01-.27Z" fill="#795B32"/><path d="m13.66 7.56.25-.31.17-.06.28-.02.48-.1.38.01.17.24-.47.14-.57.19-.32.1c-.12.02-.23.05-.35.1 0-.1 0-.2-.02-.29Z" fill="#492E19"/><path d="M15.23 7.08c-.13 0-.25 0-.38-.02l-.08-.14-.02-.34.1-.05.38.44a.23.23 0 0 0 0 .11Z" fill="#E1D298"/><path d="M14.36 7.65c.2-.07.38-.12.57-.2l.17.05.02.05-.3.32-.45.07v-.29Z" fill="#ECE1C8"/><path d="m15.12 7.54-.02-.05.12.05a.16.16 0 0 1-.1 0Z" fill="#DEC88B"/><path d="M8.38 18.15c-.02 0-.03-.02-.03-.04.35-.4 1.34-.03 1.18-1.01a6.38 6.38 0 0 1-.25-.27l-.1-.28.18-.35.12-.31.56-.2.08.2-.03.17-.04.01-.35.38.34.18.28-.19c.47.43 1.1.34 1.3-.1.25-.55.92-1.02.6-1.77l.1-.1.18-.19.86-.85c.88-.2.2.46.38.65-.14.26-.28.52-.4.79-.01.02.13.1.2.16.57.51.07.57-.28.71-.1.04-.17.18-.24.27l.33.26-.76.56c-.17-.54-.45-.1-.68-.08l-1.76.39-.14-.2-.11.13.23.14.08 1.04h-.37l-.24-.42-.23.62-.99-.3Z" fill="#AA8851"/><path d="M9.52 17.1c.16.98-.83.61-1.18 1l-.47-.28c.2-.63.78-.74 1.26-.98a7 7 0 0 1 .4.26Zm-.92.64c-.08-.06-.13-.12-.16-.11-.06 0-.12.06-.17.1.04.04.07.12.1.12.06-.01.13-.06.23-.11Z" fill="#927341"/><path d="m9.34 16.2-.18.36c-.12 0-.23.02-.35.03a.7.7 0 0 1-.13-.04c0-.1.03-.18.04-.28l.06-.09.37-.14c.07.06.13.12.2.16Z" fill="#311D12"/><path d="m9.52 17.1-.38-.26.13-.01.25.27ZM6.71 18.35l.02.02H6.7l.01-.02Z" fill="#60432A"/><path d="m10.76 14.55.47-.46.35.76-.82-.3ZM13.34 13.43c-.28.29-.57.58-.86.85l-.09-.36.82-.53a.7.7 0 0 0 .13.04ZM10.01 16.64l-.34-.18.35-.38-.02.3.12-.2.17-.01.02.28-.3.19ZM12.3 14.48l-.1.1-.41-.07c.05-.05.1-.17.13-.17.14.03.26.1.38.14Z" fill="#795B32"/><path d="M10.28 16.17h-.17l-.05-.11.03-.17h.18l.01.28Z" fill="#60432A"/><path d="m13.34 13.43-.13-.03c.08-.1.14-.22.22-.33.14-.05.26-.12.4-.18h.26l.37.21-.12-.45.24-.15.54-.1c.4.48.05.85-.29 1.09-.24.17-.73.14-.42.57.13.19.6.12.9.18.1.02.2.1.3.13l.02.1-.1.2-.56.29-.3.26-.16.01c-.15 0-.3 0-.45-.02l.33.2c-.07.06-.12.13-.2.19l-.2.16-.47.29-.18.2-.34-.27c.08-.1.14-.22.24-.27.35-.14.84-.2.29-.7l.29-.57.22-.18-.22-.11-.1-.09c-.17-.17.5-.83-.38-.63Z" fill="#927341"/><path d="M15.61 14.38c-.1-.05-.2-.12-.3-.13-.3-.06-.77 0-.9-.18-.3-.43.18-.4.42-.57.34-.24.7-.6.29-1.1l.2-.1.08-.01 1.15 1.44-.2.18-.28.18-.2.2-.26.09Z" fill="#AA8851"/><path d="m14.58 12.5-.24.15-.25.03-.19-.37c.21.1.6-.43.68.19ZM13.81 12.88l-.39.19.38-.5.01.07v.24Z" fill="#D7BA7A"/><path d="m14.56 11.83.3.08-.3-.08Z" fill="#C9AB74"/><path d="M13.82 12.64v-.07l.08-.27.2.37c-.1 0-.19-.02-.28-.03Z" fill="#AA8851"/><path d="m10.02 15.7-.56.2.55-.6.01.4Z" fill="#60432A"/><path d="m9.34 16.2-.18-.15.3-.15-.12.3Z" fill="#492E19"/><path d="m9.63 12.4-.1-.67.25.8-.15-.14Z" fill="#AA8851"/><path d="m13.69 7.84.35-.1.08.22-.29.2-.14-.32Z" fill="#927341"/><path d="m13.8 6.05.56-.04.02.24-.07.25-.23.2c-.02 0-.03.03-.03.06l-.24.07-.36-.03-.02-.26.09-.26.28-.23Z" fill="#60432A"/><path d="m12.57 5.83.27-.19-.27.19Z" fill="#E1D298"/><path d="m13.82 6.82.24-.07.03.43-.17.06c-.04-.14-.08-.27-.1-.42Z" fill="#C9AB74"/><path d="m14.13 7.96-.09-.21.33-.1.01.28c-.09 0-.17.02-.25.03Z" fill="#DEC88B"/><path d="m15.4 4.79-.38.13c-.11 0-.23-.03-.34-.04-.04-.02-.08-.04-.1-.07l-.12-.14.48-.22h.49l.08.09-.1.25Z" fill="#C9AB74"/><path d="m15.32 4.44-.4.01-.08-.2c.07 0 .14-.02.2-.04l.27.02.01.21Z" fill="#492E19"/><path d="M15.31 4.23c-.08 0-.18 0-.27-.02 0-.05 0-.1-.02-.16l.3.18Z" fill="#C9AB74"/><path d="m13.62 4.62.05.19h-.33c-.19-.44.18-.13.28-.2Z" fill="#492E19"/><path d="m13.7 5.95.02.07-.04-.04.02-.03Z" fill="#E1D298"/><path d="m12.93 4.27.21-.02-.2.02Z" fill="#B39467"/><path d="m14.84 4.25.09.2-.48.22-.32-.11-.08-.3c-.03-.07-.08-.12-.12-.2l.1-.12.02-.01.23-.02.18.49.38-.31v.16Z" fill="#795B32"/><path d="M13.93 4.06c.04.07.09.13.12.2h-.44l.32-.2Z" fill="#DEC88B"/><path d="m14.06 3.9-.02.02c0-.03 0-.06.02-.09v.08Z" fill="#E1D298"/><path d="M14.84 4.25v-.18h.18l.02.15-.2.03Z" fill="#AA8851"/><path d="m14.31 6.5.07-.25.43-.01.04.29-.1.05-.2.01c-.03 0-.05-.02-.08-.03-.06-.01-.1-.04-.16-.06Z" fill="#C9AB74"/><path d="M14.8 6.24h-.43c0-.07 0-.15-.02-.23.24-.09.48-.18.45.23Z" fill="#311D12"/><path d="m14.14 4.55.32.11.11.14c-.19-.01-.53.24-.43-.25ZM14.68 4.88l.34.04c-.14.23-.25.24-.34-.04Z" fill="#E6E2A9"/><path d="M5.77 2.26h.27l.05.18-.02.4v.36l-.05.11h-.15c-.34-.32-.4-.67-.1-1.05ZM4 1.83c-.25.16-.38.28-.54.3-.09.03-.21-.1-.32-.17.15-.13.29-.27.46-.36.05-.02.18.1.4.23Z" fill="#C19B5D"/><path d="m5.87 3.3.15.01v.56l-.15-.57Z" fill="#C9AB74"/><path d="m6.07 2.84.02-.4.27.22-.3.18Z" fill="#795B32"/><path d="m8.04 4.44.12.12-.1.07c-.02-.06-.02-.13-.02-.19Z" fill="#D7BA7A"/><path d="m14.19 18.62-.1.21-.2.09.06-.54.24.24Z" fill="#AA8851"/><path d="m15.13 18.07.17-1.15.35-.2c.48.21.5-.2.62-.47l.25-.28c.22.04.45.1.67.13l.12-.01.16-.01.05.27-.8.67v.18l-.08.01-.6.07.13.32c-.58.28-.64.4-.3.67v.37l-.09.09-.76.46.01-.65.1-.47ZM18.82 17.98h.48l-.19.37-.28.28-.39.39-.28.1-.27-.19.46-.38c.15-.2.3-.38.47-.57ZM19.11 19.11l.56-.28.41.58c-.23-.04-.46-.08-.69-.1h-.28a.64.64 0 0 1 0-.2Z" fill="#C9AB74"/><path d="m19.77 19.97-.28.28-.21-.26.49-.02Z" fill="#E1D298"/><path d="M19.1 19.3h.28l-.27.42v-.43Z" fill="#D7BA7A"/><path d="m18.15 19.11-.02.02.02-.02Z" fill="#C9AB74"/><path d="M16.65 17.22h.08c.17.36.33.33.48-.02.33.03-.02.93.66.5l-2 .57c-.34-.26-.28-.4.3-.67l.48-.38Z" fill="#DEC88B"/><path d="m16.73 17.03.8-.67c.09 0 .16.02.25.03l.57-.02h.38c.22.54-.2.45-.48.47a3.46 3.46 0 0 1-.2-.18l-.27.1c-.25-.3-.41-.1-.57.1-.16.04-.31.1-.48.17Z" fill="#C19B5D"/><path d="M17.21 16.85c.17-.2.33-.4.57-.1v.09l-.2.29.3.48-.01.1c-.68.42-.33-.48-.66-.5v-.36Z" fill="#C9AB74"/><path d="M18.74 16.36h-.38l-.27-.28.14-.38h.17c.01-.02.02-.03.04-.02l.18.22h.01l.11.28v.18Z" fill="#B39467"/><path d="M18.82 17.98c-.17.18-.32.37-.48.56.2-.18-.27-.74.37-.66l.1.1ZM17.88 17.6l-.3-.48h.2l.18.1-.08.39Z" fill="#C19B5D"/><path d="m17.96 17.22-.18-.09v-.28l.28-.19.2.18-.3.38Z" fill="#C9AB74"/><path d="m19.2 12.2-.38 1.03-1.16.95h-.27l-.09-.29.95-.95.95-.74Z" fill="#E1D298"/><path d="M18.4 15.7h-.18l-.62.3-.3.09h-.1v-.76c.01-.01.02-.03.01-.05l.53-.2c.23.2.44.41.65.61Z" fill="#AA8851"/><path d="m17.76 15.07-.53.2.07-.9.09-.2h.27l.1.9Z" fill="#E6E2A9"/><path d="M18.61 15.9a3.73 3.73 0 0 0-.18-.22l.2-.02c0 .07 0 .15-.02.24ZM18.82 18.63l.28-.28c-.08.1-.19.19-.28.28Z" fill="#C19B5D"/><path d="m21.57 19.85-.46.13.17-.4.3.27Z" fill="#AA8851"/><path d="m18.25 12.95-.95.95c-.41.48-1.42.34-1.4 1.29l-.21.12c-.54-.1.11-.48-.16-.64l.1-.2.27-.1.47-.28 2.08-3.22.39-.1.19.59-.2.36c-.34.36-1.27.41-.58 1.23Z" fill="#D7BA7A"/><path d="M18.25 12.95c-.7-.82.24-.88.57-1.23l.37.47-.94.76ZM19.02 10.4c.81-.68.44.31.66.47h-.11c-.19-.02-.38-.05-.56-.09v-.38Z" fill="#DEC88B"/><path d="m19 10.78.57.1-.56.48-.2-.58h.2ZM20.43 10.5l.2.45-.49-.35.29-.1Z" fill="#C9AB74"/><path d="m20.43 10.5-.29.1-.18-.02-.02-.17c.16-.02.33-.06.5-.1l-.01.18Z" fill="#AA8851"/><path d="M19.28 8.46 19 8.4v-.06l.76-.7h.08l.01.21-.58.6Z" fill="#60432A"/><path d="M19.77 9.26c-.36-.07-.8-.08-.5-.66l.7.54-.2.12Z" fill="#927341"/><path d="m20.14 7.84.38.29-.23.24a5.4 5.4 0 0 0-.15-.53Z" fill="#60432A"/><path d="M19.86 7.87v-.22l.3.2-.3.02Z" fill="#492E19"/><path d="m19.86 10.21-.1-.38c.42.04.24.22.1.38Z" fill="#DEC88B"/><path d="M17.88 9.08v-.2c.2-.16.39-.35.6-.52l.42-.17.04.06-.5.65-.38.28h-.09l-.1-.1Z" fill="#B39467"/><path d="m18.43 8.89.5-.64.09.1-.01.06c.03.42-.24.49-.58.48Z" fill="#927341"/><path d="m10.2 18.25-.08-1.04c0-.03 0-.05.02-.08l1.76-.39.37.35.3.49h-.27l-.5-.27-.27.55-.84.39-.02-.02.02.02-.39.27-.1-.27Z" fill="#B39467"/><path d="m12.26 17.1-.36-.35c.23-.02.5-.46.67.08l-.31.27Z" fill="#927341"/><path d="m14.4 15.43-.34-.2.45.02-.12.18Z" fill="#795B32"/><path d="m15.69 15.32.2-.12c.05.07.1.14.13.22l-.05.18h-.26l-.02-.28Z" fill="#C19B5D"/><path d="m14.66 15.23.3-.27-.3.27ZM13.99 15.8c.07-.07.14-.12.21-.17l-.21.16ZM13.34 16.27c.05-.07.12-.12.18-.19l-.18.2Z" fill="#AA8851"/><path d="m17.3 14.38-.07.9v.05l-.3.29-.26.13-.2-.14-.1-.2.93-1.03Z" fill="#E1D298"/><path d="m16.66 15.75.27-.13.27-.1v.58l-.67-.13c.05-.06.09-.14.13-.22ZM16.28 16.26c-.12.27-.14.68-.62.46l.28-.41.34-.05Z" fill="#C19B5D"/><path d="m16.36 15.42.1.19-.5-.02.05-.18h.35Z" fill="#D7BA7A"/><path d="M15.5 16.08v.23l-.27-.13.28-.1Z" fill="#E1D298"/><path d="M10.69 18.26c.27-.14.55-.26.84-.4l.1.01-.85 1.05-.28.09-.4.17.22-.66.37-.26Z" fill="#D7BA7A"/><path d="M11.63 17.88h-.11l.28-.55.49.27.1.28h-.2l-.29.01h-.27Z" fill="#C9AB74"/><path d="m10.5 19.02.27-.09.2.18c-.24.33-.33.01-.48-.1Z" fill="#E1D298"/><path d="M11.9 17.9c.1 0 .2 0 .3-.02l-.3.01Z" fill="#D7BA7A"/><path d="m8.38 18.15.98.3-1.23.66c-.52-.44 1.17-.31.23-.87 0-.03 0-.06.02-.09Z" fill="#B39467"/><path d="M7.41 20.07c.15-.08.23-.16.32-.17.05 0 .1.1.16.16-.07.06-.12.15-.2.16-.06 0-.13-.07-.28-.15Z" fill="#C19B5D"/><path d="m9.36 18.45.23-.62.24.43-.47.19Z" fill="#B39467"/><path d="M8.98 19.74c-.07.04-.13.08-.17.07-.03 0-.1-.1-.1-.11.03-.05.1-.08.14-.12l.13.16Z" fill="#927341"/><path d="m9.9 18.67-.05.09a.33.33 0 0 1-.09-.08l.04-.07.1.06Z" fill="#AA8851"/><path d="M16.46 10.03c.42-.15.16.15.18.27l-.95.49.77-.76Z" fill="#927341"/><path d="m16.55 13.72-1.15-1.44c.77-.4 1.5-.92 2.31-1.1.3-.07-.08.48-.25.6-.7.48-.87 1.17-.9 1.94Z" fill="#B39467"/><path d="m18.44 10.88-.53-.31c0-.01.06-.21.09-.22.18 0 .36.03.54.05v.17l-.1.3Z" fill="#D7BA7A"/><path d="m19 9.93.26-.47.31.19c-.19.08-.38.18-.57.28ZM18.55 10.58l-.01-.17.48-.01-.01.39h-.2a2.9 2.9 0 0 0-.26-.21ZM16.07 14.08c.1-.05.2-.11.29-.18v.2c-.1 0-.2 0-.29-.02Z" fill="#B39467"/><path d="M17.97 9.17h.09l.12.1c-.3.26-.6.52-.89.8.09-.2.14-.41.25-.6.08-.11.22-.19.34-.28l.1-.02Z" fill="#795B32"/><path d="m18.18 9.27-.12-.1c.12-.1.25-.2.38-.28l-.26.38ZM17.97 9.17a.27.27 0 0 1-.08 0l-.01-.1c.02.04.06.07.1.1Z" fill="#927341"/><path d="m14.1 7.18-.05-.43.03-.06c.07 0 .13.02.2.04l.1.15c.03.06.06.12.1.16l-.1.12-.29.02Z" fill="#DEC88B"/><path d="m14.37 7.17.1-.12.3-.13h.01l.08.14-.49.11Z" fill="#B39467"/><path d="m14.54 6.6.2-.02.04.34h-.02c-.08-.1-.15-.22-.22-.33Z" fill="#E6E2A9"/><path d="m13.8 14.48-.28.56c-.08-.06-.22-.14-.21-.16.12-.27.26-.53.4-.79l.1.09v.3Z" fill="#B39467"/><path d="m10.14 17.14-.02.08-.23-.14.11-.14.14.2ZM10.01 16.64l.28-.19c-.08.07-.18.13-.28.19ZM10.06 16.07l.05.12-.12.2.02-.3a.16.16 0 0 1 .05-.02Z" fill="#927341"/><path d="M8.6 17.74c-.1.05-.16.1-.23.1-.03 0-.06-.07-.1-.11.05-.04.1-.1.17-.1.03-.02.08.05.16.1Z" fill="#795B32"/><path d="M14.08 12.67c.09 0 .18-.02.25-.03l.12.45-.37-.22a.7.7 0 0 0 0-.2ZM13.8 14.48l.02-.3.2.11a3.7 3.7 0 0 1-.21.19Z" fill="#AA8851"/><path d="M14.1 12.67v.21l-.28.01.01-.24.26.02Z" fill="#C9AB74"/><path d="M15.89 14.38c-.09.04-.18.08-.27.1l-.02-.1.27-.1.02.1Z" fill="#B39467"/><path d="m15.89 14.38-.01-.1.2-.2.29.02-.48.28Z" fill="#C9AB74"/><path d="M14.27 6.73a1.36 1.36 0 0 1-.2-.04l.23-.2.16.07-.06.12c-.04.03-.09.04-.13.05Z" fill="#B39467"/><path d="m14.41 6.7.06-.13c.03 0 .06.02.07.03l.22.32-.3.14a.91.91 0 0 0-.1-.17l.05-.2Z" fill="#E1D298"/><path d="m17.6 16 .62-.3-.14.38-.31.3-.25-.03a2.63 2.63 0 0 1-.05-.27l.13-.09Z" fill="#927341"/><path d="m17.21 16.85.01.35c-.15.35-.31.37-.48.01v-.18l.47-.18ZM16.65 17.22l-.47.38-.14-.32.6-.06Z" fill="#D7BA7A"/><path d="m17.6 16-.13.08h-.16c.1-.02.2-.06.29-.09Z" fill="#C19B5D"/><path d="m17.78 16.38.3-.3c.1.1.18.2.28.28l-.58.02Z" fill="#AA8851"/><path d="m18.06 16.65-.28.19v-.09l.28-.1Z" fill="#D7BA7A"/><path d="M17.78 16.84v.29h-.2c.08-.1.13-.2.2-.3Z" fill="#D7BA7A"/><path d="M16.36 15.42 16 15.4c-.03-.08-.08-.15-.12-.22-.02-.96.99-.81 1.4-1.29l.09.29-.09.19c-.3.35-.61.7-.93 1.04ZM17.2 15.51l-.27.1.28-.28v.18Z" fill="#DEC88B"/><path d="m18.55 10.58.27.2-.39.1.12-.3Z" fill="#C9AB74"/><path d="m10.69 18.26-.02-.02.02.02Z" fill="#D7BA7A"/><path d="M14.41 6.69c0 .07-.03.13-.04.2l-.1-.16a.8.8 0 0 0 .14-.04Z" fill="#C9AB74"/></g><defs><clipPath id="a"><rect width="24" height="24" rx="12" fill="#fff"/></clipPath></defs></svg>