<svg width="24" height="24" viewBox="0 0 24 24" fill="none" xmlns="http://www.w3.org/2000/svg">
<path d="M24 12C24 5.37258 18.6274 0 12 0C5.37258 0 0 5.37258 0 12C0 18.6274 5.37258 24 12 24C18.6274 24 24 18.6274 24 12Z" fill="#159615"/>
<path fill-rule="evenodd" clip-rule="evenodd" d="M9.59961 9.67937L10.3996 9.99937L10.8796 10.3994L12.3996 10.8794L13.0396 10.9594L14.2396 10.7194V10.6394L13.9196 9.67937L13.5196 9.35938L12.3196 9.43937H10.7196L9.91961 9.51937L9.59961 9.67937ZM15.8396 9.35938L15.1996 9.99937L14.9596 10.6394L15.4396 10.7994L16.8796 10.8794L17.4396 10.7994L17.9996 10.4794L18.3196 9.99937L17.1196 9.51937L15.8396 9.35938Z" fill="#D9D9D9"/>
<path d="M9.12047 13.8402L8.56047 13.3602L8.48047 13.2002V12.9602L8.64047 12.7202H8.96047L9.60047 12.8802L10.4805 13.2002L11.2805 13.2802L12.6405 13.6002L13.6005 13.7602H14.4805L15.2805 13.8402H16.2405H16.8805L17.5205 13.6802L17.8405 13.4402L18.2405 12.8002L18.4005 12.2402L18.5605 12.3202L18.8005 12.8002L18.7205 13.0402L18.3205 13.5202L18.1605 13.8402L18.2405 14.0802V14.4802L17.8405 14.9602L17.1205 15.3602H16.3205L14.6405 15.4402L13.4405 15.3602L12.8005 15.2802L12.0005 15.2002L11.2005 14.8802L10.1605 14.3202L9.12047 13.8402Z" fill="#964015"/>
<path d="M7.2802 6.24008L7.2002 5.84008L7.3602 5.04008L7.6002 4.40008L8.0002 3.84008L8.4802 3.44008L9.1202 3.12008L9.3602 2.72008L9.8402 2.48008L10.4002 2.40008H10.8802L11.1202 2.56008L12.2402 2.40008L13.7602 2.08008L14.5602 2.16008L15.5202 2.24008L16.4002 2.56008L16.9602 2.96008L17.4402 3.60008L17.6802 5.20008L17.7602 6.64008L18.8002 7.04008L19.6002 7.52008L20.2402 8.00008L20.3202 8.32008L20.2402 8.56008H20.0802L19.7602 8.48008L18.6402 8.00008L17.9202 7.84008L17.4402 7.92008L16.8802 7.36008L15.6802 7.28008L14.2402 7.44008L12.6402 7.60008L10.9602 7.76008L10.2402 7.68008L9.2002 7.28008L8.6402 6.80008L7.9202 6.56008L7.2802 6.24008Z" fill="#EC1515"/>
<path fill-rule="evenodd" clip-rule="evenodd" d="M13.7816 2.06027L13.6965 2.04895C13.6493 2.04329 14.0121 2.03764 14.4996 2.03764C14.9889 2.03764 15.3461 2.04329 15.2932 2.04895L15.1987 2.06216L15.2837 2.06404C15.4368 2.0697 15.7221 2.1508 16.1661 2.31113C16.3758 2.38846 16.4439 2.4243 16.5856 2.53746C16.6517 2.59028 16.7122 2.63366 16.7197 2.63366C16.7745 2.63366 17.2507 3.1316 17.3149 3.25608C17.3319 3.28815 17.3527 3.3089 17.3622 3.30324C17.3735 3.29758 17.3754 3.30512 17.3697 3.32021C17.3565 3.35416 17.4699 3.5258 17.4944 3.51071C17.5039 3.50505 17.5246 3.5258 17.5417 3.55598C17.5832 3.63897 17.5757 3.65406 17.5303 3.57673C17.5095 3.54089 17.4982 3.52769 17.5058 3.54844C17.5587 3.7031 17.5776 3.80307 17.6267 4.16143L17.6464 4.29853C17.673 4.48314 17.6996 4.66771 17.7117 4.74614C17.7268 4.84422 17.7476 5.11205 17.7589 5.34027C17.7684 5.5685 17.7892 5.84387 17.8043 5.95327C17.8194 6.06267 17.8421 6.25317 17.8534 6.37765C17.8648 6.50214 17.8799 6.60965 17.8874 6.61531C17.9025 6.62851 18.271 6.76431 18.4014 6.80392C18.4486 6.81901 18.5506 6.86239 18.6281 6.902C18.7056 6.94161 18.783 6.9699 18.8019 6.96613C18.8208 6.96047 18.8322 6.96424 18.8265 6.97179C18.8114 6.99442 18.8889 7.03403 18.9153 7.01705C18.9267 7.00951 18.9304 7.0114 18.9229 7.0246C18.9153 7.03592 18.9626 7.07364 19.0381 7.11702C19.1099 7.15474 19.2346 7.23019 19.3178 7.28111C19.5124 7.40183 19.7788 7.55649 19.792 7.55649C19.7931 7.55649 19.7939 7.55607 19.7945 7.5553L19.7902 7.55083L19.795 7.55419C19.7961 7.55023 19.7933 7.5416 19.7864 7.53197C19.7788 7.52065 19.809 7.53763 19.8525 7.57158C19.896 7.60742 19.9281 7.64325 19.9224 7.65268C19.9149 7.66212 19.9564 7.68852 20.0112 7.71304C20.1133 7.75831 20.2096 7.85073 20.2625 7.95258C20.2795 7.98465 20.3003 8.00539 20.3098 7.99974C20.3211 7.99219 20.323 8.00162 20.3154 8.02048C20.3098 8.03934 20.3117 8.04877 20.3211 8.04312C20.34 8.02991 20.3419 8.045 20.3589 8.27888C20.3721 8.4675 20.3551 8.53163 20.2682 8.6033C20.2191 8.6448 20.1945 8.65045 20.0698 8.65045C19.9564 8.65045 19.9092 8.64102 19.8393 8.60519C19.5955 8.47693 19.2441 8.32981 19.1723 8.32415C19.1553 8.32227 19.1421 8.31283 19.1439 8.3034C19.1477 8.28266 18.6281 8.09781 18.4203 8.045C18.3428 8.02614 18.2464 7.99596 18.203 7.97899C18.1463 7.95447 18.0499 7.94504 17.827 7.93749L17.5265 7.92995L17.5832 8.01105C17.6153 8.05632 17.6626 8.13931 17.6909 8.19401C17.7249 8.26002 17.7589 8.29963 17.793 8.31283C17.8515 8.33358 18.1217 8.50522 18.2937 8.63159C18.4222 8.7259 18.5336 8.87302 18.5336 8.95035C18.5336 9.03146 18.4902 9.09181 18.4297 9.10313L18.373 9.11256L18.3787 9.24648C18.3825 9.31815 18.3768 9.45772 18.3655 9.5558C18.3485 9.69915 18.3485 9.77648 18.3711 9.94246C18.4108 10.2329 18.3711 10.5159 18.2634 10.7346C18.1916 10.8799 17.9951 11.1402 17.9196 11.1892C17.8421 11.2401 17.861 11.2873 18.0329 11.4684C18.1217 11.5608 18.1935 11.6456 18.1935 11.6589C18.1935 11.6721 18.2068 11.6928 18.2219 11.706C18.2653 11.7418 18.3749 11.9474 18.4033 12.0455C18.4203 12.1002 18.4618 12.1625 18.5299 12.2341C18.6262 12.3322 18.7453 12.5453 18.8171 12.7453C18.8756 12.9094 18.7585 13.1602 18.5034 13.4224C18.3409 13.5884 18.1935 13.7808 18.1935 13.8279C18.1935 13.843 18.2049 13.8619 18.22 13.8694C18.2332 13.877 18.2672 13.9279 18.2956 13.9826C18.3825 14.1542 18.3504 14.4013 18.2219 14.5597C18.1954 14.5918 18.135 14.6654 18.0896 14.7219C18.0424 14.7785 17.9819 14.8578 17.9536 14.8974C17.9063 14.969 17.9044 14.9766 17.9271 15.0501C17.9649 15.1652 17.9743 15.3972 17.9479 15.516C17.8988 15.7348 17.7835 15.9291 17.553 16.1762C17.5001 16.2327 17.4566 16.2931 17.4566 16.3082C17.4566 16.3459 17.5133 16.4346 17.5908 16.5176C17.6267 16.5534 17.7571 16.6383 17.8818 16.7043C18.4259 16.991 18.8208 17.3116 19.1005 17.6945C19.178 17.7982 19.2951 17.9435 19.365 18.017C19.5275 18.1925 19.6465 18.3735 19.7335 18.5772C19.7731 18.6678 19.8317 18.779 19.8657 18.8224C20.0622 19.0808 20.3664 19.7655 20.3702 19.9522C20.3721 20.0465 20.2871 20.2144 20.2058 20.2823C20.1057 20.3672 19.9772 20.4577 19.9602 20.4577C19.9508 20.4577 19.8884 20.4917 19.8204 20.5332C19.5842 20.6746 19.3272 20.7746 19.0249 20.8425C18.9682 20.8557 18.8737 20.8802 18.8171 20.8972C18.5469 20.9745 18.4618 20.9877 18.1652 20.9915C17.5379 20.999 16.5931 20.9443 16.2946 20.8802C16.2228 20.8651 16.1453 20.8538 16.1226 20.8538C16.0017 20.8538 15.6257 20.6558 15.2856 20.4124C15.0589 20.2502 15.0116 20.2201 14.6545 20.0107C14.5657 19.9579 14.5241 19.8956 14.4372 19.6787C14.4032 19.5976 14.356 19.6165 14.2728 19.7466C14.2313 19.8108 14.167 19.8919 14.1311 19.9277C14.0725 19.9843 13.825 20.1182 13.7778 20.1182C13.7589 20.1182 13.6247 20.171 13.517 20.2219C13.4868 20.237 13.3545 20.2748 13.2242 20.3049C12.9993 20.3615 12.9672 20.3634 12.595 20.3634C12.3777 20.3634 12.2057 20.3691 12.2095 20.3766C12.2152 20.386 11.8902 20.3936 11.4896 20.3955C10.781 20.3974 10.5713 20.4068 10.1348 20.4615C9.73238 20.5105 8.30392 20.4841 7.82966 20.42C7.74652 20.4087 7.64826 20.3955 7.61236 20.3917C7.54245 20.3823 7.32705 20.3483 7.26281 20.3351C7.24202 20.3313 7.15322 20.3181 7.06441 20.3068C6.9756 20.2955 6.81122 20.2578 6.69596 20.2238C6.58259 20.188 6.4541 20.1522 6.41254 20.1408C6.32373 20.1182 6.08943 20.0446 5.90237 19.9805C5.83057 19.9541 5.66807 19.8824 5.54337 19.8183C5.41866 19.7542 5.27884 19.6882 5.2316 19.6712C5.13713 19.6372 4.97463 19.5448 4.81591 19.4392C4.75923 19.4015 4.69121 19.3619 4.66664 19.3543C4.60429 19.3355 4.36243 19.0997 4.23395 18.9337C4.11491 18.7809 3.92974 18.4829 3.92785 18.4414C3.92785 18.4282 3.89006 18.3264 3.84471 18.2151C3.74268 17.9661 3.68411 17.7794 3.66899 17.6549C3.65576 17.5342 3.63309 17.4927 3.60664 17.5342C3.5953 17.5512 3.58774 17.5531 3.58774 17.5398C3.58774 17.5285 3.59719 17.5116 3.60853 17.504C3.61986 17.4965 3.62553 17.4644 3.61797 17.4229C3.56507 17.074 3.56696 16.8778 3.62742 16.5628C3.64065 16.5006 3.65199 16.4119 3.65387 16.3648C3.65576 16.3176 3.66332 16.2535 3.67088 16.2195C3.67844 16.1875 3.69166 16.0517 3.70111 15.9178C3.72568 15.5839 3.75402 15.2708 3.77858 15.0822C3.7864 15.0089 3.79939 14.9032 3.80899 14.8252L3.80899 14.8251L3.81448 14.7804C3.82582 14.7031 3.84093 14.6201 3.85227 14.5956C3.86172 14.5729 3.87872 14.4579 3.89006 14.3409C3.9014 14.2259 3.9184 14.1033 3.92785 14.0731C3.95241 13.9882 3.98454 13.794 4.00532 13.5921C4.02799 13.362 4.07901 13.0527 4.11869 12.8943C4.16404 12.7132 4.24718 12.4473 4.28308 12.3662C4.30386 12.319 4.32842 12.2379 4.33976 12.187C4.37377 12.0304 4.45502 11.8003 4.53249 11.64C4.57217 11.557 4.62885 11.4344 4.65531 11.3665C4.71766 11.2118 4.99919 10.6384 5.04265 10.5743C5.08233 10.5177 5.47724 9.73687 5.47724 9.71801C5.47724 9.71047 5.54148 9.59541 5.61895 9.4615C5.69642 9.32947 5.79656 9.14274 5.8438 9.05032C5.88915 8.95601 5.94205 8.85604 5.96284 8.82587C5.98362 8.79757 6.05164 8.67497 6.11211 8.55615C6.17257 8.43732 6.25193 8.29586 6.28972 8.24493C6.29969 8.23027 6.30995 8.21531 6.31978 8.20098L6.32005 8.20058L6.32008 8.20054L6.32015 8.20044C6.34555 8.16342 6.36796 8.13076 6.37475 8.11856C6.4012 8.07707 6.52402 7.88657 6.64494 7.70361C6.69974 7.61873 6.75453 7.5414 6.76965 7.53009C6.78288 7.51877 6.80744 7.49048 6.82256 7.46784C6.83767 7.44521 6.93215 7.34147 7.03229 7.23585C7.13243 7.13211 7.23824 7.00574 7.26659 6.9567C7.29493 6.90766 7.38374 6.79638 7.46498 6.70773L7.61047 6.54741L7.47443 6.45876C7.33461 6.36633 7.29871 6.35125 7.32138 6.39085C7.32894 6.40406 7.30627 6.38897 7.27414 6.35879C7.2099 6.30032 7.1022 6.15697 7.1022 6.12868C7.1022 6.12114 7.13054 6.15697 7.16644 6.2079C7.20045 6.26071 7.24958 6.31918 7.27414 6.33993C7.31382 6.37388 7.31382 6.37011 7.27037 6.32107C7.24202 6.289 7.19668 6.22865 7.16833 6.18527C7.11921 6.10982 7.11732 6.09473 7.12487 5.95893C7.13054 5.87782 7.17022 5.6628 7.21368 5.48173C7.24564 5.34859 7.28066 5.20015 7.30372 5.1024C7.31202 5.06722 7.31877 5.0386 7.32327 5.01963C7.35728 4.86874 7.48955 4.46133 7.53301 4.37834C7.54812 4.34628 7.58591 4.28969 7.61803 4.2482C7.65015 4.20859 7.67661 4.16143 7.6785 4.14257C7.68039 4.10485 7.75219 3.99357 7.82966 3.90681L7.88067 3.85022L7.84099 3.90681C7.82966 3.92189 7.81312 3.945 7.79541 3.96976C7.77769 3.99451 7.7588 4.02092 7.74274 4.04261C7.64826 4.17652 7.69361 4.13314 7.8032 3.98791C7.97893 3.75214 8.01672 3.6899 7.96759 3.72008C7.92035 3.75025 7.97704 3.68801 8.06962 3.61068C8.12442 3.5673 8.16221 3.54089 8.15276 3.55221C8.1452 3.56541 8.14331 3.57673 8.14709 3.57673C8.1641 3.57673 8.35493 3.44281 8.41918 3.38811C8.45319 3.35794 8.50798 3.31833 8.53822 3.30324C8.57034 3.28626 8.59112 3.26552 8.58545 3.25608C8.57978 3.24477 8.58734 3.24288 8.60246 3.24854C8.61757 3.2542 8.65347 3.24665 8.68371 3.23157C8.71205 3.21648 8.80841 3.18441 8.89533 3.15989C8.98036 3.13726 9.05405 3.10896 9.05783 3.09765C9.08806 2.98637 9.13907 2.8864 9.20521 2.81096C9.25811 2.7506 9.26945 2.72985 9.24111 2.74494C9.18442 2.77512 9.1882 2.75814 9.24867 2.71853C9.27701 2.70156 9.29212 2.6959 9.28646 2.70722C9.2789 2.71853 9.27512 2.72796 9.2789 2.72796C9.30535 2.72608 9.79473 2.4639 9.79095 2.4507C9.78906 2.44316 9.80607 2.43373 9.82874 2.43184C9.85141 2.42995 9.96856 2.40166 10.0876 2.3696C10.286 2.3149 10.3313 2.30924 10.5978 2.30547C10.8699 2.30358 10.8963 2.30736 10.9624 2.34508C11.0191 2.37853 11.0433 2.39092 11.047 2.38464L11.0418 2.37903L11.0472 2.38414C11.0484 2.38096 11.0456 2.37416 11.0399 2.36394C11.0323 2.35262 11.0645 2.37526 11.1098 2.41675C11.1571 2.45825 11.193 2.49597 11.1892 2.49974C11.1854 2.5054 11.1514 2.47899 11.1117 2.44504L11.0472 2.38414C11.0471 2.38432 11.0471 2.38448 11.047 2.38464L11.1079 2.4507L11.1741 2.52049L11.3819 2.47334L11.4174 2.46569L11.4174 2.46568C11.6481 2.41596 11.6977 2.40525 12.3172 2.28661C12.7971 2.19607 13.381 2.10176 13.6776 2.0697L13.7816 2.06027ZM19.795 7.55419L19.8525 7.59421C19.8865 7.61685 19.9111 7.64137 19.9035 7.64703C19.8979 7.65268 19.8695 7.63382 19.8412 7.60365L19.7945 7.5553L19.7947 7.55489C19.7948 7.55467 19.7949 7.55444 19.795 7.55419ZM16.1963 2.48088C15.8978 2.36205 15.5463 2.25643 15.3404 2.22059C15.1722 2.1923 14.9965 2.18287 14.5563 2.17533C14.0007 2.16589 13.8099 2.17344 13.6021 2.21682C13.5454 2.22814 13.4131 2.24511 13.3092 2.25454C13.1259 2.27152 12.6686 2.34885 12.5156 2.38846C12.474 2.39978 12.3342 2.42995 12.2038 2.45447C11.7069 2.54878 11.2912 2.63743 11.1835 2.66761C11.1476 2.67892 11.0456 2.70722 10.9568 2.72985C10.8113 2.76757 10.6488 2.81096 10.097 2.96373C9.99313 2.99391 9.87787 3.0222 9.84197 3.02975C9.63034 3.07313 9.14852 3.20893 9.01059 3.26363C8.92178 3.29947 8.8292 3.3353 8.80274 3.34096C8.71961 3.36548 8.60624 3.42772 8.51932 3.4994C8.47208 3.53712 8.36816 3.61068 8.28691 3.65972C8.19244 3.71819 8.12064 3.78043 8.08474 3.83324C8.05262 3.87663 8.02805 3.92001 8.02805 3.92755C8.02805 3.9351 7.98648 3.98979 7.93736 4.04638C7.74274 4.27083 7.6596 4.42549 7.55946 4.74237C7.40641 5.22522 7.27225 5.81181 7.27225 5.98911C7.27225 6.13057 7.37429 6.24751 7.63693 6.40406C7.67472 6.42858 7.7862 6.4663 7.88256 6.49082C7.97704 6.51345 8.14142 6.56627 8.24534 6.60399C8.34927 6.6436 8.47397 6.68321 8.5231 6.69075C8.62702 6.70773 8.67804 6.74168 8.74984 6.84164C8.85187 6.9831 9.13152 7.16229 9.49241 7.31507C10.2992 7.65834 10.8132 7.74133 11.5897 7.66023C11.7466 7.64325 11.9676 7.62251 12.081 7.61308C12.1963 7.60553 12.3191 7.58856 12.355 7.57724C12.3909 7.56592 12.5326 7.55083 12.6668 7.54517C12.8028 7.53952 12.9634 7.52065 13.0258 7.50557C13.0881 7.49048 13.2846 7.46596 13.4622 7.45275C13.6398 7.43766 13.9082 7.4056 14.0574 7.37919C14.4826 7.30563 14.8208 7.26791 15.0664 7.26603C15.1911 7.26414 15.5709 7.25282 15.9091 7.23773C16.4571 7.2151 16.5516 7.2151 16.7594 7.24151C16.8879 7.25848 17.0957 7.27546 17.2204 7.283C17.3451 7.28866 17.4944 7.30186 17.5511 7.31129C17.5936 7.31837 17.6808 7.33182 17.768 7.34526L17.8534 7.35845C18.2105 7.40937 18.7301 7.53763 18.9304 7.62062C18.9871 7.64514 19.0703 7.67721 19.1156 7.69041C19.1874 7.71115 19.5313 7.89977 19.6371 7.9771C19.6806 8.00728 19.6654 8.06575 19.6144 8.06575C19.5955 8.06575 19.5294 8.03557 19.467 7.99785C19.2989 7.896 19.1591 7.8281 19.0514 7.79603C18.9985 7.78094 18.9134 7.74699 18.8624 7.72059C18.7169 7.64703 18.1482 7.50368 17.7967 7.45087C17.5719 7.41692 17.0882 7.38674 17.0277 7.40371C16.9824 7.41503 16.9843 7.41692 17.0636 7.47539C17.1675 7.55272 17.2809 7.66023 17.3527 7.75265L17.4113 7.82621L17.5341 7.80358C17.7363 7.76585 18.1406 7.80169 18.3541 7.87714L18.3811 7.88628L18.4556 7.91165C18.5257 7.93556 18.596 7.95949 18.6376 7.97333C18.9115 8.06009 19.1402 8.1412 19.2838 8.20533C19.3688 8.24305 19.4425 8.27323 19.45 8.27323C19.467 8.27323 19.7297 8.38828 19.8827 8.46373C20.0188 8.52974 20.1359 8.53729 20.1869 8.4807C20.2417 8.42034 20.2474 8.24305 20.2002 8.13554C20.1454 8.01105 20.0547 7.90543 19.9432 7.83564C19.8903 7.80169 19.8128 7.74888 19.7713 7.71493C19.6617 7.63005 19.3518 7.46784 19.1931 7.41503C19.1175 7.38862 18.9455 7.35467 18.8095 7.3377C18.6735 7.32072 18.4977 7.28866 18.4203 7.26603C18.2238 7.20567 18.1236 7.18303 17.8723 7.14154C17.7533 7.12268 17.5832 7.09439 17.4944 7.07741C17.0202 6.99065 16.7783 6.9699 16.0981 6.94727C15.5482 6.93029 15.3328 6.93218 15.0305 6.95104C14.8208 6.96613 14.5619 6.97745 14.4523 6.97933C14.269 6.98122 14.0518 7.00574 13.6115 7.07741C13.5189 7.0925 13.3432 7.11702 13.2242 7.13211C13.1051 7.14909 12.9067 7.17926 12.7839 7.20001C12.6592 7.22264 12.5326 7.23396 12.4967 7.2283C12.4627 7.22076 12.3928 7.22642 12.3418 7.23773C12.1944 7.27168 11.9261 7.30941 11.6937 7.33015C10.9209 7.39617 10.919 7.39617 10.6072 7.36599C10.1141 7.31507 9.55476 7.13022 9.26378 6.91897C9.16742 6.8473 9.13341 6.78695 9.1712 6.74734C9.19387 6.7247 9.22221 6.72847 9.37337 6.77374C9.53398 6.82278 9.58122 6.82844 9.90243 6.83598C10.32 6.84353 10.6072 6.81335 11.0059 6.71527C11.1533 6.67943 11.4216 6.62097 11.6011 6.58701C11.7825 6.55118 12.0338 6.49648 12.1604 6.46441C12.2851 6.43235 12.4268 6.40594 12.4721 6.40594C12.5458 6.40594 12.8349 6.36068 12.9029 6.33993C12.9464 6.32673 13.2109 6.29278 13.4131 6.27391C13.5114 6.26448 13.6776 6.24374 13.7816 6.22676C13.9346 6.20224 14.1708 6.1947 15.0192 6.18715C16.2285 6.17772 16.321 6.18527 16.9238 6.33427C17.0504 6.36445 17.1997 6.39651 17.2544 6.40594C17.4453 6.43424 17.5794 6.4663 17.6323 6.49459C17.7174 6.53797 17.7287 6.50968 17.7041 6.3173C17.6758 6.08719 17.6305 5.57038 17.6172 5.32141C17.6021 5.03283 17.5927 4.94041 17.5511 4.67069C17.5322 4.54055 17.5095 4.37457 17.5039 4.30289C17.4793 4.04261 17.4169 3.7031 17.3773 3.62577C17.1392 3.16178 16.6064 2.64309 16.1963 2.48088ZM10.9058 2.62988C11.0569 2.58839 11.072 2.54878 10.9587 2.48654C10.8925 2.44881 10.8604 2.44504 10.6431 2.44693C10.2123 2.4507 9.98746 2.50351 9.63223 2.68458C9.44139 2.78266 9.36581 2.8317 9.30157 2.90338C9.25622 2.9543 9.21843 3.01277 9.21843 3.03352C9.21843 3.06747 9.22599 3.07124 9.28079 3.05993C9.43572 3.02975 9.67002 2.96939 9.96478 2.88263C10.1424 2.8317 10.337 2.777 10.3994 2.76192L10.4829 2.74046L10.483 2.74043L10.483 2.74042C10.6379 2.70062 10.7888 2.66187 10.9058 2.62988ZM8.03939 3.67292C8.07151 3.65217 8.1093 3.622 8.12253 3.60502C8.16032 3.55787 8.13764 3.57296 8.0564 3.64463C7.99782 3.69556 7.99404 3.7031 8.03939 3.67292ZM16.8407 6.43801C16.6082 6.38142 16.4212 6.33804 16.2851 6.31352C16.2209 6.30221 15.826 6.29466 15.2554 6.29843C14.3163 6.30221 13.9252 6.31541 13.6871 6.34936C13.6195 6.36001 13.4565 6.37902 13.3162 6.39538L13.2903 6.3984C13.1448 6.41349 12.9842 6.43424 12.9313 6.44367C12.9036 6.44777 12.848 6.45743 12.783 6.46873L12.7828 6.46875L12.7828 6.46876L12.7824 6.46883L12.7816 6.46896C12.7273 6.4784 12.6666 6.48897 12.6101 6.49836C12.2397 6.56438 12.1075 6.59079 11.9601 6.63039C11.8845 6.65303 11.6767 6.69452 11.4972 6.72659C11.3196 6.75865 11.0871 6.80958 10.9832 6.83976C10.6431 6.93784 10.4428 6.96236 9.99879 6.96236C9.77772 6.96236 9.59633 6.96613 9.59633 6.97179C9.59633 6.98499 9.9081 7.12268 9.93644 7.12268C9.94967 7.12268 10.0876 7.15474 10.2463 7.19247L10.5316 7.26225L11.0229 7.26037C11.431 7.26037 11.5576 7.25282 11.7692 7.22076L11.8518 7.20738C11.9785 7.18683 12.1238 7.16326 12.2038 7.15097C12.3021 7.13588 12.4854 7.11513 12.6101 7.10382C12.8727 7.08307 13.3224 7.02271 13.5265 6.98122C13.6039 6.96613 13.7457 6.94349 13.8382 6.93406C13.9327 6.92275 14.0612 6.90577 14.1236 6.89634C14.1878 6.88503 14.3276 6.87748 14.4353 6.87748C14.543 6.87559 14.7169 6.86805 14.8208 6.85673C15.2761 6.81335 16.3777 6.82278 16.8709 6.87748C17.3225 6.92652 17.4321 6.94161 17.6456 6.98499C17.7759 7.0114 17.9422 7.04346 18.0178 7.05666C18.0915 7.07175 18.271 7.11136 18.4146 7.1472C18.7056 7.22076 18.9096 7.25848 18.9323 7.24339C18.9682 7.22264 18.9455 7.19624 18.8511 7.14909C18.7169 7.08118 18.4127 6.95858 18.339 6.94349C18.2427 6.92275 17.7457 6.72093 17.5757 6.63417C17.4604 6.57381 17.3735 6.54552 17.2261 6.51911C17.1165 6.50025 16.9446 6.46253 16.8407 6.43801ZM8.2888 6.76242C8.20189 6.73036 8.06017 6.67943 7.97326 6.64926C7.88445 6.61908 7.79942 6.59456 7.78053 6.59456C7.75219 6.59456 7.66149 6.68321 7.48955 6.87937C7.45932 6.9152 7.4083 6.98122 7.37996 7.02837C7.34972 7.07553 7.29682 7.14343 7.26281 7.17926C6.98505 7.46973 6.78099 7.70361 6.78099 7.73002C6.78099 7.73756 6.75642 7.78094 6.72619 7.82432C6.40876 8.29775 6.33507 8.41657 6.17824 8.71458C6.13478 8.79569 6.07998 8.89188 6.05353 8.9296C6.02708 8.96733 6.00629 9.00505 6.00629 9.01259C6.00629 9.04089 5.8608 9.32381 5.79278 9.42943C5.71342 9.55203 5.68319 9.60861 5.51503 9.94812C5.45267 10.0745 5.40166 10.1895 5.40166 10.2009C5.40166 10.2122 5.39032 10.2367 5.3752 10.2518C5.32986 10.3027 4.83481 11.2684 4.83481 11.3061C4.83481 11.3193 4.8178 11.3627 4.79891 11.4005C4.68743 11.6155 4.56461 11.8965 4.5306 12.0172C4.52491 12.0354 4.51443 12.0734 4.50246 12.1168C4.49454 12.1455 4.48597 12.1766 4.47769 12.2058C4.4588 12.2775 4.41912 12.3963 4.39267 12.4699C4.36432 12.5416 4.33409 12.6321 4.32464 12.6679C4.3152 12.7038 4.29441 12.7811 4.27741 12.8377C4.2434 12.9546 4.17349 13.3168 4.16404 13.4318C4.14514 13.6393 4.13003 13.743 4.10735 13.8468C4.09413 13.909 4.07145 14.0448 4.06012 14.1486C4.04689 14.2523 4.02044 14.4221 3.99965 14.5258C3.98076 14.6295 3.9543 14.7861 3.94486 14.8747C3.93352 14.9634 3.9184 15.0652 3.90896 15.1011C3.89762 15.1369 3.89006 15.2218 3.89006 15.2897C3.89006 15.3576 3.88061 15.4877 3.86928 15.582C3.85983 15.6745 3.84849 15.8103 3.84471 15.8838C3.83905 15.997 3.79181 16.41 3.76724 16.5534C3.76347 16.5798 3.75024 16.676 3.7389 16.7684C3.72756 16.8608 3.71623 16.9419 3.71056 16.9495C3.703 16.9627 3.75969 17.4116 3.79559 17.6191C3.80692 17.6813 3.83338 17.7775 3.85227 17.8322C3.87306 17.8869 3.89006 17.9454 3.89006 17.9642C3.89006 18.0416 4.14892 18.6131 4.22072 18.6942C4.24907 18.7243 4.29252 18.7847 4.31898 18.8262C4.36621 18.9016 4.66286 19.2129 4.68743 19.2129C4.6931 19.2129 4.8008 19.2751 4.92361 19.3524C5.04832 19.4298 5.20326 19.5146 5.27128 19.5429C5.33741 19.5712 5.40166 19.5995 5.4111 19.6071C5.42244 19.6165 5.46779 19.6372 5.51503 19.6542C5.56226 19.6731 5.63973 19.7108 5.68697 19.741C5.7361 19.7712 5.82868 19.8108 5.89481 19.8334C5.96095 19.8541 6.07621 19.8919 6.14801 19.9164C6.2217 19.9428 6.32751 19.9749 6.38419 19.9918C6.44088 20.0069 6.58637 20.0503 6.70541 20.088C6.82633 20.1257 6.95293 20.1559 6.98883 20.1578C7.02473 20.1578 7.11921 20.171 7.19668 20.1861C7.33461 20.2125 7.69928 20.2672 7.81076 20.2785C7.82665 20.2795 7.85549 20.2822 7.88927 20.2855C7.92378 20.2888 7.96343 20.2926 7.99971 20.2955C8.50043 20.3464 9.73804 20.3785 9.8892 20.3445C10.1594 20.2861 10.4031 20.2729 11.7881 20.2502C12.799 20.2333 12.9332 20.2276 13.1089 20.1937C13.2166 20.171 13.3205 20.1465 13.3394 20.1371C13.3583 20.1257 13.3904 20.1182 13.4112 20.1182C13.4339 20.1182 13.4509 20.1107 13.4509 20.1012C13.4509 20.0918 13.4755 20.0805 13.5076 20.0748C13.5378 20.0673 13.6002 20.0446 13.6436 20.0239C13.6871 20.0032 13.7324 19.9862 13.7457 19.9862C13.7589 19.9862 13.8326 19.9579 13.9082 19.9239C14.0291 19.8673 14.0555 19.8466 14.1217 19.7485C14.1632 19.6882 14.2294 19.5976 14.2709 19.5486L14.3446 19.4581L14.3503 19.1808C14.356 18.7753 14.3503 18.7413 14.2369 18.5735C14.1821 18.4942 14.116 18.3867 14.0858 18.3358C14.0555 18.283 13.9516 18.1623 13.8534 18.0642C13.6814 17.8888 13.5756 17.736 13.5265 17.5851C13.5095 17.5304 13.5095 17.4851 13.5265 17.3833C13.5473 17.2588 13.5529 17.2475 13.6587 17.1513C13.8175 17.0023 13.9365 16.9495 14.1009 16.9495C14.2747 16.9495 14.3994 16.9948 14.4826 17.0872L14.5487 17.1588L14.5997 17.1041C14.6281 17.0759 14.6942 17.0268 14.7452 16.9966C14.9682 16.8722 15.0834 16.7816 15.3498 16.5251C15.5029 16.378 15.7277 16.1988 15.8562 16.1215C15.8959 16.0969 15.9394 16.0668 15.9545 16.0517C16.0093 15.9951 16.4287 15.8197 16.5572 15.7971C16.8142 15.7537 16.8936 15.7838 17.1959 16.0385C17.2847 16.1139 17.3659 16.1762 17.3754 16.1762C17.3848 16.1762 17.4472 16.112 17.5133 16.0328C17.5692 15.9661 17.6226 15.9046 17.6461 15.8774L17.6569 15.865C17.6909 15.8329 17.7589 15.6895 17.7986 15.5745C17.8364 15.4651 17.8496 15.1501 17.8156 15.1294C17.8062 15.1237 17.7457 15.1576 17.6834 15.2029C17.5284 15.3161 17.3659 15.3934 17.1789 15.4406C17.0334 15.4783 17.005 15.4783 16.6215 15.4594C16.2209 15.4387 16.1869 15.4406 15.3763 15.4972C15.0532 15.5217 14.5015 15.5198 14.3295 15.4972C14.2577 15.4858 13.963 15.4726 13.6776 15.467C13.2336 15.4557 13.1448 15.45 13.0636 15.4179C12.9502 15.3764 12.6857 15.3274 12.5666 15.3274C12.5213 15.3274 12.4514 15.3199 12.4136 15.3085C12.3758 15.2991 12.2397 15.2765 12.1094 15.2595C11.7541 15.2123 11.6691 15.1803 10.9473 14.8257C10.7697 14.7389 10.6185 14.6673 10.6091 14.6673C10.5713 14.6673 10.0611 14.4051 9.86275 14.2844C9.74371 14.2127 9.61523 14.1429 9.57933 14.1297C9.45273 14.0863 9.05783 13.8713 8.93879 13.7827C8.5231 13.4752 8.46641 13.4167 8.41351 13.2432C8.35682 13.0527 8.45508 12.749 8.59679 12.6755C8.75362 12.5963 9.16931 12.6774 9.97423 12.9433C10.2161 13.0244 10.4768 13.0961 10.6167 13.1206C11.1646 13.2149 11.2289 13.2281 11.4575 13.2809C11.6578 13.3281 12.0111 13.4035 12.3928 13.479C12.491 13.4978 12.6611 13.5242 12.7707 13.5356C12.8803 13.5469 13.0409 13.5676 13.1297 13.5827C13.4263 13.6355 13.7778 13.6714 14.1406 13.6865C14.4901 13.7015 15.0267 13.7393 15.5199 13.7827C15.8165 13.8091 16.6555 13.7902 16.8917 13.7525C17.3357 13.6827 17.5039 13.6223 17.6815 13.4658C17.8648 13.3055 18.0745 12.9961 18.1935 12.7057C18.2748 12.5114 18.2767 12.5038 18.2767 12.2813C18.2786 12.0681 18.2748 12.0474 18.2238 11.9418C18.1935 11.8795 18.1463 11.8022 18.1198 11.7701C18.1158 11.765 18.1116 11.7596 18.1072 11.7541C18.0996 11.7445 18.0917 11.7347 18.084 11.7251L18.084 11.725L18.084 11.725C18.067 11.7039 18.0512 11.6841 18.0424 11.6721C18.0046 11.6211 17.8402 11.4476 17.8175 11.4325C17.8062 11.4269 17.7854 11.4457 17.7703 11.4759C17.7212 11.5702 17.5511 11.7211 17.4585 11.7532C17.347 11.7909 17.0296 11.8116 16.9616 11.7833C16.9238 11.7701 16.9087 11.7494 16.9087 11.7173C16.9087 11.6494 16.9597 11.6306 17.1505 11.6306C17.3622 11.6306 17.4623 11.5966 17.5568 11.4948C17.5946 11.4533 17.6267 11.4137 17.6267 11.4061C17.6267 11.4005 17.5133 11.3967 17.3773 11.4005C17.0731 11.4061 16.9805 11.374 17.0447 11.2854C17.0655 11.2571 17.109 11.2514 17.3338 11.2477C17.5832 11.2439 17.604 11.2401 17.6928 11.1911C17.7457 11.1628 17.8137 11.1156 17.844 11.0874C18.0084 10.9421 18.1973 10.6403 18.2219 10.4838C18.2294 10.4461 18.2389 10.3914 18.2427 10.3612C18.2578 10.282 18.2124 10.2989 18.1368 10.3989C17.9517 10.6441 17.7136 10.812 17.4566 10.878C17.1524 10.9553 16.7537 10.9666 15.9639 10.9233C15.4745 10.895 15.3479 10.8818 15.2402 10.8403C15.21 10.8289 15.1703 10.8195 15.1496 10.8195C15.1288 10.8195 15.0664 10.7988 15.0116 10.7724C14.8983 10.7196 14.8567 10.6517 14.8642 10.5366C14.8812 10.3291 15.0097 10.1028 15.261 9.84816C15.3423 9.76517 15.4443 9.64634 15.4859 9.5841C15.586 9.43509 15.707 9.32569 15.9356 9.17669C16.2644 8.96167 16.27 8.95978 16.5213 8.93149C17.0523 8.8749 17.5794 8.92395 17.8043 9.0522C17.8761 9.09181 18.1142 9.38605 18.1161 9.43698C18.1179 9.45018 18.1255 9.4615 18.1331 9.4615C18.1406 9.4615 18.1633 9.4879 18.1822 9.51808C18.1992 9.55014 18.2238 9.57089 18.2332 9.56523C18.2804 9.53506 18.2351 9.03334 18.1784 8.96733C18.1633 8.95035 18.0858 8.90131 18.0046 8.85982C17.895 8.80323 17.8213 8.77871 17.7193 8.76551C17.3055 8.7127 17.1279 8.70138 16.767 8.70138C16.4231 8.70138 16.3513 8.70704 16.2209 8.74288C15.9488 8.81455 15.5898 9.03146 15.4084 9.2295C15.312 9.33701 15.2761 9.35587 15.227 9.32947C15.1552 9.29174 15.1817 9.23327 15.3404 9.07861C15.5671 8.85982 15.8865 8.6712 16.1396 8.60519C16.4306 8.52974 16.869 8.52408 17.5039 8.58633C17.9177 8.62593 18.1312 8.69949 18.3012 8.86359C18.3352 8.89565 18.3693 8.9164 18.3768 8.90886C18.3957 8.88999 18.2956 8.79192 18.1746 8.71081C18.1179 8.67309 18.0367 8.61462 17.9951 8.58255C17.9063 8.51465 17.7589 8.43543 17.6645 8.40714C17.4755 8.35056 16.8841 8.33358 16.5119 8.37696C16.2133 8.40903 16.1245 8.42978 15.9696 8.49956C15.7901 8.58067 15.7221 8.57124 15.7504 8.46561C15.7599 8.42789 15.9205 8.33924 16.0792 8.28643C16.2851 8.21664 17.0239 8.1676 17.3206 8.20155C17.4377 8.21664 17.5398 8.22041 17.5454 8.21098C17.5776 8.15817 17.1638 7.67343 16.9937 7.56592C16.9616 7.54517 16.903 7.50179 16.8614 7.46973C16.8523 7.46255 16.8439 7.45577 16.836 7.44937L16.8359 7.44935C16.8086 7.42732 16.7868 7.40982 16.7629 7.39609C16.6706 7.34307 16.5459 7.34624 15.9403 7.36167H15.9403L15.9376 7.36174C15.8852 7.36308 15.8292 7.3645 15.7693 7.36599C15.1666 7.38108 14.8378 7.39806 14.7414 7.41692C14.664 7.43201 14.5355 7.44332 14.4561 7.44332C14.3654 7.44332 14.2313 7.46218 14.1009 7.49236L13.8893 7.5414L13.9913 7.70927C14.048 7.80169 14.0933 7.88091 14.0933 7.88657C14.0933 7.89411 14.1198 7.93561 14.1519 7.98276C14.2218 8.0865 14.3087 8.29397 14.3257 8.3996C14.3333 8.44487 14.3295 8.51654 14.3163 8.56369C14.2955 8.6448 14.2955 8.65234 14.3427 8.70138C14.3692 8.72967 14.4467 8.81266 14.5128 8.88622C14.715 9.10313 14.7528 9.20875 14.7679 9.57655C14.7792 9.8689 14.7717 9.93303 14.7187 9.93303C14.6432 9.93303 14.6224 9.88399 14.6224 9.70104C14.6224 9.26534 14.5638 9.13708 14.2048 8.78437C13.7287 8.31472 13.7003 8.29586 13.3999 8.277C13.0787 8.25625 12.7083 8.26002 12.7008 8.28454C12.697 8.29775 12.7726 8.33735 12.8784 8.37696C13.2279 8.51088 13.3092 8.56558 13.5737 8.83907C13.6474 8.91451 13.7664 9.02202 13.8382 9.08049C13.9818 9.19555 14.4315 9.63879 14.5109 9.74442C14.5978 9.85947 14.6621 10.0085 14.6904 10.1537C14.7244 10.3329 14.7244 10.3763 14.6866 10.4121C14.6224 10.4781 14.5846 10.4329 14.5525 10.2518C14.5071 9.98773 14.4467 9.88776 14.1425 9.57655C13.9951 9.42755 13.8288 9.271 13.7721 9.2295C13.7154 9.18612 13.5699 9.05409 13.4509 8.93338C13.1618 8.6448 13.1335 8.62782 12.4967 8.39583C12.1463 8.26744 12.1434 8.26754 11.6609 8.28386L11.6408 8.28454C11.3951 8.29209 10.9983 8.29775 10.7584 8.29397C10.3446 8.2902 10.3143 8.29397 10.1348 8.33924C9.90621 8.39771 9.7645 8.44864 9.66057 8.50899C9.57555 8.55803 9.00303 9.13896 8.96335 9.2163C8.94068 9.25968 8.92556 9.36719 8.93312 9.45018C8.93501 9.48036 8.94635 9.48413 9.02382 9.47281C9.12963 9.45961 9.15419 9.43886 9.2959 9.24082C9.50564 8.95224 9.67947 8.8353 10.097 8.69761C10.5505 8.55049 11.4121 8.45241 11.8467 8.49956C12.1887 8.53729 12.3588 8.60519 12.7669 8.8749C12.9067 8.96733 13.0995 9.07295 13.2582 9.14274C13.3999 9.20498 13.5529 9.27854 13.5983 9.30495C13.7305 9.38039 13.9403 9.57278 14.0083 9.67652C14.0763 9.78403 14.3579 10.4725 14.3579 10.5328C14.3579 10.5555 14.3749 10.5743 14.4032 10.5819C14.4259 10.5875 14.4826 10.6252 14.5279 10.6649C14.6054 10.7328 14.611 10.7441 14.6186 10.8535C14.6262 10.9572 14.6205 10.9798 14.577 11.0459C14.5204 11.1326 14.3049 11.2892 14.1406 11.3665C14.0555 11.4042 13.9818 11.4646 13.8439 11.6042C13.7438 11.7079 13.6266 11.8343 13.5832 11.889C13.5114 11.9795 13.3678 12.104 13.1713 12.2454C13.0749 12.3152 12.8217 12.4209 12.4684 12.5416C12.3285 12.5887 12.1377 12.6604 12.0432 12.6981C11.8977 12.7585 11.8486 12.7717 11.7012 12.7773C11.5406 12.7849 11.5274 12.7811 11.5179 12.7453C11.5009 12.6755 11.5444 12.6453 11.6956 12.6302C11.8524 12.6132 11.911 12.5944 12.3078 12.4227C12.3285 12.4152 12.457 12.3718 12.5912 12.3284C12.8784 12.236 13.0201 12.17 13.175 12.0493C13.3111 11.9418 13.7343 11.5136 13.723 11.4948C13.7173 11.4872 13.6946 11.4816 13.672 11.4816C13.5284 11.4853 12.6573 11.4382 12.6006 11.4231C12.5628 11.4137 12.3928 11.3948 12.2208 11.3854C12.0508 11.374 11.8524 11.3571 11.7787 11.3476C11.3044 11.2911 11.1722 11.2684 11.0475 11.225C10.9719 11.1967 10.8812 11.1666 10.8472 11.1553C10.7489 11.127 10.5808 11.0157 10.4561 10.895C10.2482 10.6969 9.94967 10.4423 9.92321 10.4423C9.88165 10.4423 9.84952 10.3555 9.87976 10.3197C9.94589 10.2405 10.08 10.3272 10.4749 10.7064C10.7754 10.9949 11.0229 11.0968 11.5897 11.1685C11.7881 11.193 12.0886 11.2232 12.2605 11.2345C12.4325 11.2458 12.6101 11.2646 12.6573 11.276C12.7045 11.2873 12.8746 11.2986 13.0352 11.3005C13.1958 11.3043 13.4339 11.3118 13.5643 11.3193C13.7797 11.3326 13.8099 11.3288 13.9025 11.2929C14.1557 11.1911 14.2898 11.1156 14.4108 11.0025C14.4901 10.9251 14.492 10.8478 14.4164 10.7743L14.3616 10.7214L14.3049 10.7629C14.2728 10.7875 14.2105 10.8082 14.1576 10.8139C14.1066 10.8195 13.9554 10.8648 13.8193 10.9157C13.5964 10.9987 13.551 11.0081 13.3243 11.027C13.1183 11.044 13.0295 11.044 12.8141 11.0176C12.3531 10.9648 12.0999 10.9119 11.7617 10.7931C11.6578 10.7554 11.5123 10.7139 11.4405 10.6969C11.3668 10.6799 11.1854 10.6158 11.038 10.5555C10.7773 10.4498 10.7621 10.4404 10.5789 10.2744C10.3672 10.082 10.2784 10.0311 9.99502 9.93869C9.88542 9.90474 9.71537 9.83684 9.61523 9.7878C9.51697 9.74064 9.40171 9.68972 9.36015 9.67652C9.32047 9.66143 9.27134 9.63502 9.25244 9.61805C9.2241 9.59353 9.2071 9.59164 9.1353 9.6105C8.94068 9.65954 8.86321 9.63313 8.79141 9.49733C8.76496 9.44452 8.76307 9.41811 8.78196 9.3106C8.80463 9.16349 8.84242 9.08427 8.91234 9.02391C8.94068 8.99939 9.05972 8.87679 9.17686 8.75042C9.4754 8.43355 9.57555 8.35622 9.8004 8.277C10.1481 8.1544 10.1688 8.15251 10.6828 8.15063C10.9435 8.14874 11.4102 8.13931 11.722 8.12988C12.4306 8.10536 13.466 8.11102 13.6039 8.13931C13.7438 8.1676 13.8704 8.24493 14.0253 8.39583C14.1613 8.52786 14.1972 8.53163 14.1746 8.41469C14.1613 8.34301 14.0688 8.13742 14.0196 8.06952C13.9989 8.03934 13.9573 7.96956 13.9271 7.91297C13.8212 7.71493 13.7853 7.65457 13.7457 7.60553L13.706 7.5546L13.432 7.57535C13.2808 7.58667 13.1089 7.6093 13.0484 7.62439C12.988 7.63948 12.8387 7.65646 12.7178 7.66212C12.5968 7.66777 12.4362 7.68475 12.3607 7.69984C12.2851 7.71493 12.1717 7.72624 12.1056 7.72624C12.0394 7.72813 11.9488 7.73568 11.9015 7.74699C11.3139 7.87336 10.2671 7.79603 9.86086 7.59421C9.82496 7.57535 9.7645 7.5546 9.7286 7.54895C9.66057 7.53386 9.38093 7.41315 9.1523 7.2962C9.00492 7.22076 8.80841 7.07175 8.65725 6.92086C8.58167 6.84353 8.54577 6.8209 8.50232 6.8209C8.47019 6.8209 8.37383 6.79449 8.2888 6.76242ZM12.6422 8.98242C12.3626 8.79192 12.2057 8.72024 11.9676 8.66932C11.7522 8.62405 11.3309 8.63537 10.8623 8.69572C10.4938 8.74476 10.3616 8.77305 10.0914 8.86736C9.82118 8.95978 9.67947 9.04089 9.54721 9.18235C9.4584 9.27665 9.3318 9.44829 9.3318 9.47658C9.3318 9.48602 9.37904 9.51431 9.43572 9.53694L9.53965 9.58032L9.64924 9.53128C9.97045 9.38982 11.1268 9.30306 12.1377 9.34644C12.3701 9.35587 13.005 9.33135 13.1769 9.30683C13.2015 9.30306 13.1505 9.26911 13.0352 9.21441C12.937 9.16726 12.7593 9.06352 12.6422 8.98242ZM18.1501 9.72367C18.0972 9.67086 17.8969 9.39737 17.8251 9.27854C17.7608 9.17103 17.5983 9.11633 17.2318 9.07672C17.0825 9.05975 16.9502 9.04843 16.9389 9.05032C16.9292 9.05193 16.8959 9.05493 16.8605 9.05813L16.8425 9.05975C16.5232 9.08427 16.3475 9.10879 16.2965 9.13519C16.2058 9.18046 15.9639 9.33701 15.9639 9.35021C15.9639 9.35776 16.0773 9.36719 16.2152 9.37473C17.2299 9.42566 17.3017 9.43886 17.5643 9.60484C17.6739 9.67463 18.0027 9.82929 18.0839 9.84816C18.1123 9.8557 18.1444 9.87267 18.1576 9.88776C18.169 9.90285 18.1916 9.91417 18.2086 9.91417C18.2578 9.91417 18.2219 9.79346 18.1501 9.72367ZM13.9233 9.83684C13.8798 9.75196 13.7287 9.5841 13.6323 9.51431C13.5605 9.46338 13.5529 9.4615 13.3111 9.46338C13.175 9.46338 13.056 9.46715 13.0447 9.47093C13.0352 9.4747 12.9426 9.48413 12.8425 9.48979L12.6592 9.50299L12.7329 9.59541C12.7745 9.64822 12.816 9.72178 12.8274 9.75951C12.8519 9.85193 12.8519 10.1726 12.8255 10.3272C12.8028 10.4593 12.6857 10.7365 12.6327 10.7799C12.6157 10.7931 12.6006 10.812 12.6006 10.8195C12.6006 10.8308 12.714 10.8497 13.0069 10.8855C13.1391 10.9006 13.534 10.8535 13.6587 10.8063C14.0045 10.6762 14.0839 10.6498 14.1443 10.6498H14.2105L14.201 10.5687C14.1972 10.5253 14.1613 10.4178 14.1236 10.3291C14.0839 10.2405 14.031 10.1084 14.0045 10.0368C13.9781 9.96321 13.9403 9.87456 13.9233 9.83684ZM10.8736 9.59353C10.9095 9.5558 10.9379 9.51997 10.9379 9.51242C10.9379 9.50488 10.9265 9.50111 10.9152 9.50111C10.9074 9.50222 10.868 9.5053 10.8133 9.50959L10.8132 9.5096L10.8129 9.50962C10.775 9.51258 10.7298 9.51612 10.6828 9.51997C10.4655 9.53506 9.83441 9.61993 9.77961 9.64257C9.76261 9.64822 9.74749 9.65954 9.74749 9.66709C9.74749 9.68217 9.93833 9.75951 10.1443 9.82929C10.3295 9.89154 10.5071 9.98396 10.5543 10.0405C10.577 10.0688 10.5997 10.0877 10.6034 10.0839L10.6051 10.0792C10.6104 10.064 10.6265 10.0176 10.6412 9.96698C10.6771 9.85193 10.7716 9.70104 10.8736 9.59353ZM17.5605 9.78403C17.4982 9.74819 17.3999 9.69538 17.3433 9.6652C17.2866 9.63691 17.1978 9.60673 17.1449 9.60107C17.0542 9.58787 17.0523 9.58975 17.0806 9.6237C17.2733 9.85004 17.3451 10.2574 17.2356 10.5064C17.2091 10.5687 17.1619 10.6535 17.1316 10.6913C17.1033 10.729 17.0844 10.7648 17.0938 10.7705C17.1014 10.7743 17.194 10.7629 17.2979 10.7441C17.5152 10.7064 17.6682 10.6366 17.81 10.514C17.9498 10.3933 18.1557 10.1481 18.1557 10.1028C18.1557 10.0726 18.1293 10.0519 18.048 10.016C17.8137 9.91417 17.6701 9.84627 17.5605 9.78403ZM11.431 9.71047C11.431 9.69726 11.4008 9.67086 11.3687 9.65011L11.3619 9.64598C11.3276 9.62526 11.3119 9.61577 11.2964 9.616C11.2833 9.6162 11.2703 9.62334 11.2463 9.6365L11.2421 9.63879C11.1967 9.66331 11.1476 9.73499 11.1457 9.7746C11.1457 9.81798 11.2383 9.89531 11.2931 9.89531C11.3781 9.89531 11.4405 9.81043 11.431 9.71047ZM16.0565 9.9783C16.1075 9.91228 16.1075 9.8557 16.0527 9.80477C15.9942 9.75008 15.9375 9.75196 15.8902 9.81232C15.843 9.87267 15.8392 9.92737 15.8808 9.98584C15.9224 10.0443 16.0074 10.0405 16.0565 9.9783ZM15.5102 9.90798L15.5218 9.88022C15.5388 9.83684 15.5501 9.79723 15.5445 9.79157C15.5161 9.76328 15.1496 10.2028 15.0721 10.3574C15.0267 10.4461 15.0116 10.5838 15.0456 10.6102C15.0721 10.6328 15.4141 10.7328 15.4254 10.7214C15.4292 10.7177 15.4179 10.6554 15.4009 10.5838C15.3744 10.463 15.3744 10.4366 15.4027 10.2688C15.4216 10.1669 15.4481 10.0556 15.4613 10.0236C15.4735 9.99618 15.4931 9.94915 15.5101 9.90823L15.5101 9.90817L15.5102 9.90798ZM12.4703 10.0613C12.4759 9.94246 12.4381 9.89342 12.2983 9.84438C12.2922 9.84219 12.2866 9.84015 12.2814 9.83829C12.2585 9.82993 12.2448 9.82495 12.2309 9.82421C12.2104 9.82313 12.1895 9.83128 12.1376 9.85145L12.1376 9.85145L12.1169 9.85947C11.9488 9.9236 11.8581 10.0651 11.9091 10.1858C11.9544 10.2952 12.03 10.348 12.1396 10.348C12.3361 10.348 12.4627 10.2405 12.4703 10.0613ZM16.9786 10.216C16.9899 10.1141 16.9635 10.0387 16.9049 10.0028C16.8803 9.98773 16.818 9.96887 16.7651 9.96321C16.6782 9.95189 16.6668 9.95567 16.6196 10.0047C16.5119 10.116 16.544 10.3367 16.6744 10.3857C16.8236 10.4423 16.9616 10.365 16.9786 10.216ZM11.448 10.3103C11.4915 10.2669 11.5009 10.1443 11.4632 10.1066C11.4291 10.0726 11.3498 10.0802 11.2931 10.1235C11.2232 10.1745 11.2213 10.2556 11.2893 10.3084C11.3517 10.3574 11.3989 10.3593 11.448 10.3103ZM16.0055 10.5177C16.0849 10.5177 16.1359 10.4197 16.0943 10.3461C16.0735 10.3046 15.9488 10.2952 15.911 10.3329C15.8487 10.3951 15.911 10.5177 16.0055 10.5177ZM18.6867 12.9433C18.7226 12.8094 18.6942 12.7113 18.5317 12.4246C18.4864 12.3435 18.4392 12.3228 18.4392 12.3812C18.4392 12.5359 18.2521 12.9942 18.1047 13.1961C17.8969 13.4865 17.7571 13.6242 17.5776 13.7242C17.4302 13.8034 17.3527 13.826 16.9332 13.9034C16.7367 13.9392 15.8392 13.9581 15.5293 13.9317C14.8265 13.8751 14.4863 13.8524 14.1406 13.8392C13.9327 13.8317 13.7494 13.8204 13.7343 13.8128C13.7192 13.8072 13.6172 13.7921 13.5076 13.7808C13.398 13.7694 13.2544 13.7525 13.1864 13.743C13.1183 13.7336 12.9615 13.7129 12.8368 13.6978C12.4835 13.6525 12.3739 13.6355 12.2322 13.6016C12.2117 13.5973 12.1888 13.5924 12.1653 13.5873L12.1653 13.5873L12.1652 13.5873C12.1062 13.5747 12.0433 13.5612 12.0054 13.5544C11.9544 13.545 11.8524 13.5242 11.7787 13.5073C11.7354 13.497 11.6748 13.4833 11.6174 13.4704L11.617 13.4703C11.5794 13.4618 11.5433 13.4536 11.5142 13.4469C11.4424 13.4318 11.3479 13.4111 11.3063 13.4016C11.1741 13.3696 10.9511 13.3281 10.8245 13.3092C10.5392 13.2696 10.3125 13.2149 9.96478 13.1018C9.64168 12.998 9.25433 12.8792 9.19954 12.8679L9.18285 12.8643C8.80323 12.7842 8.75288 12.7736 8.71452 12.7904C8.70866 12.793 8.70307 12.7962 8.69663 12.7999L8.69315 12.8019C8.6138 12.8452 8.559 12.9622 8.55333 13.0961C8.54766 13.2545 8.61191 13.3583 8.80274 13.4941L8.8028 13.4941L8.80282 13.4941C8.88027 13.5488 8.95769 13.6035 8.9728 13.6167C9.08239 13.7053 9.16175 13.7544 9.37337 13.8638C9.50375 13.9317 9.62279 13.9882 9.6379 13.9882C9.65113 13.9882 9.7645 14.0505 9.8892 14.1259C10.0876 14.2485 10.6828 14.5541 10.7206 14.5541C10.7338 14.5541 11.2496 14.8031 11.4669 14.9125C11.7466 15.0558 12.0054 15.1162 12.6006 15.1746C12.8009 15.1954 13.0144 15.2312 13.0636 15.2538C13.0843 15.2633 13.1316 15.2821 13.1675 15.2935C13.2393 15.318 14.1273 15.3481 14.8302 15.3519C15.227 15.3538 15.9394 15.3236 16.1 15.2972C16.1396 15.2916 16.3607 15.2972 16.5912 15.3085C16.9918 15.3293 17.0202 15.3293 17.1467 15.2935C17.3395 15.2406 17.4377 15.1935 17.604 15.0747C17.7419 14.9766 17.8213 14.8955 17.8969 14.7748C17.9139 14.7465 17.9536 14.6974 17.9819 14.6691C18.1538 14.4937 18.2124 14.3768 18.2124 14.2108C18.2124 14.1052 18.203 14.0675 18.1633 14.0052L18.157 13.9951C18.1378 13.9641 18.127 13.9467 18.1133 13.9439C18.0957 13.9404 18.0733 13.9609 18.0221 14.0078L18.0065 14.0222C17.9914 14.0373 17.9498 14.0675 17.912 14.092C17.8742 14.1165 17.7967 14.1787 17.74 14.2334C17.4944 14.4635 17.4151 14.4918 16.937 14.522C16.4552 14.5522 14.9398 14.5522 14.6318 14.522L14.5465 14.5148L14.5464 14.5148L14.5459 14.5147C14.4106 14.5032 14.23 14.4878 14.1028 14.4786C13.9478 14.4673 13.7948 14.4503 13.7627 14.4409C13.7324 14.4315 13.6682 14.4183 13.621 14.4126C13.5737 14.4051 13.4887 14.3862 13.432 14.373C13.2525 14.3259 13.0862 14.2881 12.988 14.2712C12.9511 14.2657 12.8894 14.2553 12.8324 14.2457C12.8106 14.242 12.7895 14.2385 12.7707 14.2353C12.7027 14.224 12.4778 14.2146 12.27 14.2146C11.9147 14.2146 11.7636 14.1995 11.5028 14.141C11.4575 14.1316 11.3649 14.1127 11.2969 14.1014C11.1174 14.0693 10.987 14.0316 10.8056 13.9618C10.7168 13.926 10.5978 13.8845 10.5411 13.8656C10.439 13.8355 10.3994 13.8204 10.286 13.7713C10.1821 13.7261 10.1159 13.7053 10.0309 13.6883C9.98368 13.6789 9.89487 13.6563 9.83252 13.6393C9.77017 13.6204 9.69836 13.6016 9.67191 13.5959C9.64546 13.5903 9.6209 13.5808 9.61523 13.5752C9.60956 13.5676 9.58499 13.5525 9.55854 13.5393C9.42628 13.4752 9.32613 13.4054 9.19765 13.2885C9.11451 13.2111 9.10128 13.1602 9.16742 13.1565C9.243 13.1527 9.26189 13.1602 9.39605 13.2602C9.46974 13.3149 9.55098 13.3734 9.57744 13.3903C9.62656 13.4243 9.83441 13.4903 10.0593 13.545C10.1329 13.562 10.2293 13.5921 10.2766 13.611C10.388 13.6563 10.5997 13.7317 10.7262 13.7694C10.781 13.7864 10.8699 13.8204 10.9246 13.8449C11.038 13.8958 11.2251 13.9449 11.4386 13.9788C11.5217 13.992 11.6502 14.0165 11.722 14.0316C11.8108 14.0505 12.0224 14.0637 12.3588 14.0693C12.6422 14.075 12.8765 14.0882 12.8973 14.0995C12.9162 14.1108 12.9785 14.1259 13.0352 14.1354C13.0919 14.1448 13.2582 14.1787 13.4037 14.2127C13.8099 14.307 13.8231 14.3089 14.065 14.3277C14.1897 14.3372 14.3862 14.356 14.4996 14.3692C14.6999 14.3919 14.8094 14.3938 15.3593 14.3862C15.4991 14.3843 15.7334 14.3938 15.8789 14.4051C16.0849 14.4221 16.2039 14.4221 16.4174 14.4032C16.5686 14.39 16.8236 14.3749 16.9843 14.3674C17.1449 14.3598 17.2941 14.3466 17.3149 14.3372C17.4566 14.2806 17.5152 14.2429 17.6078 14.1542C17.6664 14.0995 17.7419 14.0335 17.7778 14.0071C17.9668 13.8675 18.0499 13.7845 18.2068 13.5827C18.271 13.4997 18.3674 13.3884 18.4222 13.3375C18.5412 13.2225 18.6583 13.0471 18.6867 12.9433ZM17.3565 16.41C17.3281 16.3553 17.16 16.2026 16.9257 16.0177C16.8577 15.9649 16.8123 15.9442 16.7537 15.9385C16.6385 15.931 16.4835 15.9611 16.3721 16.014C16.3442 16.0269 16.3059 16.045 16.2676 16.0631C16.2331 16.0794 16.1986 16.0958 16.1718 16.1083C16.0357 16.1705 15.7315 16.3855 15.5917 16.5157L15.4812 16.6192L15.3177 16.7722L15.1533 16.925L15.227 16.9665C15.3706 17.0476 15.5104 17.223 15.5104 17.3248C15.5104 17.4418 15.278 17.6945 15.1911 17.6719C15.1496 17.6606 15.125 17.6115 15.142 17.57C15.1477 17.5549 15.1817 17.5248 15.2195 17.5002C15.2837 17.4587 15.3593 17.3588 15.3593 17.3135C15.3593 17.2682 15.227 17.1438 15.1174 17.0853L15.0078 17.0268L14.8661 17.106C14.7074 17.1966 14.6753 17.2437 14.6658 17.4022C14.6564 17.5436 14.6999 17.6247 14.8113 17.6794C15.0135 17.7775 15.3328 17.7832 15.5104 17.6945C15.6352 17.6304 16.1812 17.2343 16.2285 17.172C16.2341 17.1664 16.2851 17.1362 16.3418 17.106C16.4325 17.0608 16.4665 17.0532 16.6064 17.0532C16.818 17.0532 17.0107 17.1041 17.1543 17.1966C17.2431 17.2532 17.2677 17.2796 17.2677 17.3173C17.2677 17.3512 17.2544 17.3701 17.2204 17.3833C17.1921 17.3946 17.1732 17.4154 17.1732 17.438C17.1732 17.4851 17.0957 17.6474 17.0749 17.6474C17.0674 17.6474 17.0598 17.6549 17.0598 17.6662C17.0598 17.7096 17.1241 17.6794 17.228 17.5851C17.3489 17.4795 17.485 17.372 17.6323 17.2701C17.7344 17.1985 17.7816 17.206 17.793 17.2928C17.7986 17.3343 17.7722 17.3607 17.604 17.4833C17.4963 17.5606 17.381 17.653 17.3451 17.6889C17.2582 17.7737 17.1052 17.885 17.0088 17.9303C16.9672 17.951 16.8728 18.0038 16.801 18.0472C16.7311 18.0906 16.6045 18.1566 16.5213 18.1962C16.3399 18.2811 16.2436 18.3754 16.0792 18.6282C16.0017 18.7489 15.9639 18.8243 15.9639 18.8639C15.9639 19.0073 16.1793 19.2902 16.3834 19.4128C16.5157 19.4939 16.7008 19.5373 16.8312 19.5203L16.9143 19.509L16.9956 19.3373C17.0409 19.243 17.126 19.1016 17.1826 19.0242C17.2393 18.9469 17.296 18.8639 17.3055 18.8394C17.3376 18.7658 17.4944 18.6112 17.6305 18.5225C17.7004 18.4754 17.7627 18.4301 17.7684 18.4188C17.7873 18.3924 17.8648 18.398 17.8912 18.4301C17.9271 18.4735 17.8893 18.532 17.7854 18.598C17.6456 18.6866 17.502 18.83 17.4056 18.9733C17.3565 19.0488 17.296 19.1336 17.2715 19.1657C17.245 19.1959 17.1864 19.3034 17.1392 19.4015C17.0655 19.5599 17.0579 19.592 17.0674 19.6731C17.0731 19.724 17.0957 19.7938 17.1203 19.8277C17.1694 19.8975 17.1997 19.9051 17.5568 19.922C17.8156 19.9352 17.8666 19.922 17.9196 19.8202C17.9403 19.7825 18.0291 19.6787 18.1179 19.5901C18.2068 19.5014 18.3825 19.3166 18.511 19.1789C18.6394 19.0431 18.7585 18.9299 18.7774 18.9299C18.8171 18.9299 18.8549 18.9658 18.8549 19.0035C18.8549 19.0205 18.7963 19.0921 18.7264 19.1657C18.6565 19.2374 18.5865 19.3166 18.5695 19.3392C18.5374 19.3883 18.322 19.6108 18.1765 19.7447C18.0669 19.8485 18.0461 19.9013 18.0858 19.9899C18.1009 20.0239 18.1198 20.0748 18.1255 20.1031C18.1425 20.1748 18.2219 20.2106 18.3674 20.2144C18.4543 20.2163 18.5147 20.205 18.5771 20.1786C18.6772 20.1352 18.8567 19.9541 19.0268 19.724C19.0891 19.6391 19.1553 19.5618 19.1723 19.5486C19.1893 19.5354 19.2365 19.4845 19.2762 19.4354C19.3537 19.3392 19.4236 19.3072 19.4689 19.3449C19.5124 19.3807 19.5029 19.4222 19.4406 19.4845C19.3461 19.5844 19.1874 19.7617 19.1477 19.8164C19.1373 19.8306 19.1236 19.8495 19.1099 19.8684C19.0962 19.8872 19.0825 19.906 19.0721 19.9202C19.0514 19.9485 18.9644 20.0428 18.8794 20.1276C18.7585 20.2502 18.7018 20.2936 18.6187 20.3238C18.4845 20.3747 18.2483 20.3785 18.1538 20.3332C18.0688 20.2917 17.9876 20.1974 17.9743 20.122C17.9668 20.088 17.9555 20.0578 17.9479 20.0522C17.9403 20.0465 17.8893 20.056 17.8345 20.0729C17.7174 20.1069 17.4302 20.0956 17.2242 20.0484C17.0617 20.0107 16.9786 19.9334 16.9332 19.7787L16.9011 19.675L16.7594 19.6731C16.68 19.6731 16.5705 19.6618 16.5157 19.6486C16.3985 19.6203 16.1585 19.4656 16.0886 19.3732C16.0622 19.3411 15.9583 19.2506 15.8581 19.1732C15.6597 19.0224 15.4519 18.8281 15.3744 18.7225C15.2988 18.6187 15.2629 18.4999 15.2459 18.3169C15.2384 18.2226 15.2157 18.0944 15.1968 18.0302C15.1609 17.9133 15.159 17.9114 15.0948 17.9114C15.0022 17.9114 14.8302 17.8643 14.7414 17.8171C14.5959 17.736 14.5185 17.6172 14.4977 17.4437C14.4882 17.3456 14.4731 17.3097 14.4202 17.2456C14.3409 17.1494 14.2331 17.1023 14.0914 17.1023C13.9951 17.1004 13.9724 17.1079 13.8647 17.1815C13.706 17.2909 13.6701 17.3418 13.672 17.4569C13.672 17.604 13.7532 17.7379 13.9894 17.9869C14.1047 18.1076 14.2143 18.2396 14.235 18.2792C14.2558 18.3207 14.3163 18.4169 14.3711 18.4923C14.492 18.6621 14.5185 18.7677 14.5033 19.0356C14.4882 19.3072 14.5147 19.5335 14.5808 19.7014C14.611 19.7768 14.6488 19.8523 14.6621 19.8673C14.6772 19.8824 14.8208 19.9749 14.9814 20.0748C15.142 20.1729 15.3083 20.2804 15.3498 20.3144C15.4689 20.4087 15.7391 20.5803 15.8411 20.6256C16.0376 20.7142 16.1548 20.7387 16.5875 20.7878C16.8822 20.8217 16.9975 20.8293 17.655 20.8557C18.2691 20.8802 18.4864 20.867 18.7982 20.7784C18.9078 20.7482 19.0608 20.7105 19.1383 20.6954C19.2157 20.6803 19.3064 20.6558 19.3367 20.6388C19.3688 20.6218 19.4047 20.6086 19.4179 20.6086C19.4444 20.6086 19.6995 20.4747 19.7996 20.4068C19.8355 20.3823 19.8752 20.3634 19.8884 20.3634C19.9016 20.3634 19.9394 20.3389 19.9734 20.3087C20.0074 20.2804 20.0585 20.2446 20.0868 20.2295C20.1586 20.1918 20.2342 20.0729 20.2342 19.9937C20.2342 19.9579 20.221 19.8975 20.2058 19.8598C20.1907 19.824 20.1775 19.773 20.1775 19.7485C20.1775 19.724 20.1492 19.641 20.1133 19.5656C20.0792 19.4901 20.0433 19.409 20.0358 19.3826C20.0282 19.3581 19.9753 19.2468 19.9205 19.1393C19.8638 19.0299 19.8185 18.9318 19.8185 18.9186C19.8185 18.9073 19.8015 18.8922 19.7826 18.8866C19.7618 18.8828 19.7221 18.8319 19.6938 18.7772C19.6673 18.7206 19.6371 18.6715 19.6295 18.6659C19.622 18.6602 19.6106 18.63 19.6031 18.5999C19.5861 18.5338 19.4576 18.3075 19.4368 18.3075C19.4293 18.3075 19.4217 18.2962 19.4217 18.283C19.4217 18.2698 19.3764 18.2132 19.3197 18.1566C19.263 18.1 19.2214 18.0472 19.2252 18.0416C19.229 18.034 19.2214 18.0246 19.2082 18.0189C19.1931 18.0133 19.1099 17.9114 19.0192 17.7926C18.783 17.4795 18.5828 17.2946 18.2124 17.0419C18.082 16.9551 18.0632 16.9438 17.929 16.874C17.8818 16.8495 17.8213 16.8137 17.793 16.7948C17.7665 16.776 17.7306 16.7609 17.7136 16.7609C17.6966 16.7609 17.6834 16.7533 17.6834 16.7439C17.6834 16.7345 17.6645 16.7231 17.6418 16.7156C17.5681 16.6967 17.4264 16.544 17.3565 16.41ZM16.2965 17.6945C16.5213 17.4719 16.7084 17.2418 16.6895 17.2098C16.6838 17.2022 16.6404 17.1947 16.5912 17.1947C16.4798 17.1966 16.3947 17.2418 16.1888 17.4059C15.7863 17.7285 15.5539 17.8718 15.3933 17.9001C15.3536 17.9076 15.3215 17.9171 15.3215 17.9227C15.3215 17.9265 15.3347 17.9623 15.3498 18.0001C15.365 18.0359 15.3839 18.151 15.3895 18.2528C15.3971 18.3528 15.4084 18.4471 15.416 18.4603C15.4424 18.5018 15.7353 18.2472 16.2965 17.6945ZM17.022 17.3569C17.022 17.3022 17.0126 17.289 16.9635 17.272C16.9295 17.2607 16.8936 17.2513 16.8822 17.2513C16.8709 17.2532 16.8274 17.3097 16.7859 17.3776C16.6933 17.5304 16.0319 18.1962 15.7183 18.4509C15.6049 18.5433 15.5123 18.6263 15.5123 18.6338C15.5104 18.6546 15.7806 18.9299 15.792 18.9186C15.7977 18.913 15.8052 18.8752 15.8071 18.8337C15.8203 18.6451 16.2303 18.1132 16.3947 18.0717C16.4968 18.0472 16.6423 17.9473 16.7065 17.8586C16.7424 17.8077 16.8104 17.7209 16.8595 17.6643C16.9956 17.5059 17.022 17.4569 17.022 17.3569ZM8.56477 11.8463C8.62145 11.818 8.7386 11.7841 8.82552 11.7709C8.91243 11.7577 9.03336 11.7482 9.09571 11.7482C9.20531 11.752 9.20908 11.7539 9.21475 11.8067C9.2242 11.8765 9.20153 11.8878 9.02958 11.9029C8.84063 11.9199 8.73482 11.9444 8.63657 11.9897C8.52887 12.0425 8.46273 12.0274 8.46273 11.9519C8.46273 11.9029 8.47596 11.8897 8.56477 11.8463ZM8.98264 12.3121C8.63686 12.3442 8.40446 12.4329 8.21551 12.6064C8.036 12.7743 7.97554 12.9346 8.08702 12.9478C8.13048 12.9534 8.14937 12.9365 8.2174 12.8403C8.26274 12.778 8.3251 12.7064 8.35722 12.6818C8.53672 12.5441 8.80125 12.4725 9.2056 12.4498C9.41911 12.4385 9.44557 12.4329 9.4569 12.4008C9.46257 12.3782 9.45501 12.3499 9.43423 12.3272C9.39833 12.2876 9.28118 12.2839 8.98264 12.3121ZM15.3302 11.3839C15.1073 11.2821 15.0544 11.2255 15.1167 11.1633C15.1489 11.1312 15.1545 11.1331 15.3378 11.2048C15.7459 11.3689 16.1484 11.4292 16.4299 11.3707C16.5773 11.3406 16.6245 11.3538 16.6245 11.4254C16.6245 11.5103 16.3732 11.565 16.0671 11.5462L15.8612 11.5348L15.9065 11.5782C15.95 11.6178 16.0709 11.7574 16.3506 12.0837C16.5206 12.2818 16.5716 12.4194 16.4885 12.4628C16.4413 12.4873 16.4318 12.4779 16.3033 12.2818C16.2637 12.2195 16.1881 12.1252 16.1352 12.0724C16.0842 12.0196 15.9972 11.9215 15.9424 11.8555C15.8121 11.6952 15.6382 11.5367 15.5948 11.5367C15.5891 11.5367 15.5551 11.516 15.523 11.4915C15.489 11.4651 15.4039 11.4179 15.3302 11.3839Z" fill="#151515"/>
</svg>
