<svg width="24" height="24" viewBox="0 0 24 24" fill="none" xmlns="http://www.w3.org/2000/svg">
<path d="M16.0716 14.3825C16.7625 13.6908 17.8834 13.6901 18.5751 14.3811C19.2599 15.0651 19.2674 16.1705 18.5971 16.8638L18.5765 16.8846L13.2522 22.2148C12.5613 22.9066 11.4404 22.9072 10.7487 22.2162C10.0639 21.5322 10.0564 20.4268 10.7268 19.7336L10.7473 19.7127L16.0716 14.3825Z" fill="#2E5B70"/>
<path fill-rule="evenodd" clip-rule="evenodd" d="M8.50172 6.80913L13.135 2.18177C13.8264 1.49118 14.9467 1.49154 15.6377 2.18256L23.2084 9.75324C23.9001 10.4449 23.8997 11.5664 23.2076 12.2576L18.5743 16.8849C17.8829 17.5755 16.7626 17.5752 16.0716 16.8841L8.50092 9.31348C7.80928 8.62183 7.80963 7.50034 8.50172 6.80913ZM19.4521 11.0046L14.3849 5.9375L12.2568 8.0629L17.3239 13.13L19.4521 11.0046Z" fill="#2E5B70"/>
<path d="M5.42545 14.3811C6.11026 13.697 7.21568 13.6908 7.90815 14.3619L7.92901 14.3825L13.2533 19.7127C13.9442 20.4045 13.9436 21.5253 13.2519 22.2163C12.5671 22.9003 11.4617 22.9066 10.7692 22.2354L10.7483 22.2149L5.42405 16.8846C4.7331 16.1929 4.73373 15.072 5.42545 14.3811Z" fill="#74E1AC"/>
<path fill-rule="evenodd" clip-rule="evenodd" d="M0.791937 9.75381L8.61509 1.93062C9.30611 1.23959 10.4264 1.23923 11.1178 1.9298L15.7511 6.55711C16.4432 7.24832 16.4436 8.36982 15.7519 9.06148L7.92878 16.8846C7.23776 17.5757 6.11751 17.576 5.42604 16.8854L0.792753 12.2582C0.100651 11.567 0.100286 10.4455 0.791937 9.75381ZM11.9956 7.81092L9.86745 5.68555L4.54785 11.0052L6.67596 13.1305L11.9956 7.81092Z" fill="#74E1AC"/>
<path fill-rule="evenodd" clip-rule="evenodd" d="M11.8649 7.67188L13.1166 8.92364L10.6131 11.4272L9.36133 10.1755L11.8649 7.67188ZM16.0718 16.8859L10.6133 11.4274L13.1168 8.92383L18.5753 14.3823L16.0718 16.8859Z" fill="#2E5B70"/>
<path d="M16.0713 16.8845C16.7626 17.5757 17.8835 17.5757 18.5748 16.8845C19.2662 16.1931 19.2662 15.0722 18.5748 14.3809L16.0713 16.8845Z" fill="#2E5B70"/>
<path d="M16.0716 14.3825C16.7625 13.6908 17.8834 13.6901 18.5751 14.3811C19.2599 15.0651 19.2674 16.1705 18.5971 16.8638L18.5765 16.8846L13.2522 22.2148C12.5613 22.9066 11.4404 22.9072 10.7487 22.2162C10.0639 21.5322 10.0564 20.4268 10.7268 19.7336L10.7473 19.7127L16.0716 14.3825Z" fill="#2E5B70"/>
</svg>
