<svg width="24" height="24" viewBox="0 0 24 24" fill="none" xmlns="http://www.w3.org/2000/svg">
<path fill-rule="evenodd" clip-rule="evenodd" d="M21.6845 8.9673C24.4527 4.779 24.71 1.76246 22.3528 1.13295C21.0846 0.794266 18.9584 1.30949 16.4673 2.55913C15.9284 2.82948 15.8017 2.9039 15.6874 2.88822C15.6335 2.88083 15.5824 2.85345 15.4922 2.81713C7.76851 -0.29473 -0.194216 6.85303 2.10003 14.8387C2.16002 15.0475 2.19284 15.1617 2.18152 15.2714C2.16786 15.4038 2.08986 15.5296 1.91768 15.8072C-2.12276 22.3217 0.471633 25.1507 7.35325 21.7342C7.76886 21.5278 7.92428 21.4507 8.07764 21.4546C8.16925 21.4569 8.26012 21.4882 8.40527 21.5381C15.8319 24.0932 23.194 17.5527 21.484 9.91913C21.3755 9.43487 21.3755 9.43487 21.6845 8.9673ZM18.7309 4.03203C19.5008 3.64482 20.0108 3.44357 20.4492 3.35393C22.41 2.95292 21.8632 4.92625 19.066 8.34554C18.8348 8.62811 18.6126 8.9001 18.5721 8.94997C18.547 8.98088 18.5305 9.00125 18.5236 9.02448C18.5103 9.06936 18.5332 9.12491 18.6001 9.28782C20.1763 13.1247 18.1961 17.6421 14.3207 19.0506C14.1829 19.1007 14.0361 19.1554 13.9944 19.1722C13.2271 19.482 11.5617 19.61 10.5802 19.4345C10.2183 19.3698 10.0123 19.3559 9.89542 19.2466C9.71947 19.0821 9.74522 18.7019 9.74522 17.6084C9.74522 16.2999 9.7539 15.9607 9.78697 15.9749C9.80994 15.9848 9.979 16.0609 10.1627 16.1439C14.1251 17.9358 18.1705 13.7311 16.2217 9.84643C14.3745 6.1641 8.98716 6.56371 7.67497 10.4804C7.63617 10.5962 7.6038 10.692 7.57679 10.7892C7.43952 11.2836 7.44078 11.8164 7.44078 15.2136C7.44078 17.8673 7.49572 18.5939 7.16137 18.9998C6.98241 19.2171 6.69192 19.3426 6.22177 19.6225C2.5323 21.8195 1.26252 21.1019 3.30909 17.9763C3.4662 17.7364 3.46683 17.736 3.54144 17.8624C3.57223 17.9145 3.70272 18.0894 3.83143 18.2512C4.78731 19.4524 5.05215 19.5343 6.03251 18.932C6.97308 18.3541 7.03146 17.9599 6.29374 17.1673C2.20818 12.7776 4.63184 5.80361 10.6136 4.73706C11.0094 4.66649 12.5127 4.67768 12.9176 4.75422C15.1333 5.17306 16.9682 6.40944 18.0478 8.21104C18.1375 8.36076 18.2261 8.47829 18.2446 8.47225C18.291 8.45712 19.3017 7.24846 19.6539 6.78694C19.8121 6.57967 19.8976 6.48771 19.9002 6.39347C19.9031 6.28687 19.7998 6.17737 19.5755 5.89478C19.1936 5.41383 18.7971 4.99816 18.2449 4.49993C18.1878 4.4484 18.1476 4.41714 18.1465 4.38464C18.1445 4.3223 18.2868 4.25536 18.7309 4.03203ZM10.4425 13.5629C9.10529 12.2286 9.84234 9.92374 11.699 9.63352C11.8811 9.60505 11.9618 9.59165 12.0427 9.59102C12.116 9.59045 12.1893 9.60036 12.3383 9.61905C13.5245 9.76777 14.397 10.7367 14.3982 11.9063C14.4003 14.0012 11.9219 15.0391 10.4425 13.5629Z" fill="url(#paint0_linear_2959_2849)"/>
<path fill-rule="evenodd" clip-rule="evenodd" d="M18.1499 4.34495C18.1959 4.29345 18.3361 4.22304 18.6321 4.07439C18.6589 4.06094 18.687 4.04686 18.7164 4.03208C19.4863 3.64487 19.9963 3.44362 20.4347 3.35398C22.3955 2.95297 21.8487 4.9263 19.0515 8.34559C18.8203 8.62816 18.5981 8.90016 18.5576 8.95002C18.5325 8.98093 18.516 9.0013 18.5091 9.02453C18.4958 9.06941 18.5187 9.12496 18.5856 9.28787C18.608 9.34233 18.6296 9.39693 18.6506 9.45165C18.8918 9.99835 19.1699 10.9694 19.139 12.2362C19.6071 11.7818 20.479 10.7818 21.4111 9.44731C21.4338 9.32467 21.511 9.20788 21.67 8.96736C24.5472 4.83863 24.7523 1.74602 22.3263 1.09815C21.0581 0.759463 18.9439 1.30954 16.4528 2.55918C16.3853 2.59306 16.3242 2.62386 16.2688 2.65179C15.9892 2.79284 15.8546 2.86075 15.7637 2.88233C16.3145 3.06862 17.1311 3.42701 18.1499 4.34495Z" fill="url(#paint1_linear_2959_2849)"/>
<path fill-rule="evenodd" clip-rule="evenodd" d="M8.07216 21.452C7.92055 21.4501 7.76391 21.5278 7.35325 21.7317C0.471632 25.1482 -2.12276 22.3193 1.91768 15.8048C2.08985 15.5271 2.16786 15.4014 2.18152 15.2689C2.18412 15.2437 2.18439 15.2182 2.18253 15.1914C2.4197 15.9026 2.83937 16.8752 3.45443 17.7804C3.42548 17.7962 3.38607 17.8563 3.30909 17.9738C1.26252 21.0994 2.5323 21.8171 6.22177 19.62C6.3409 19.5491 6.44849 19.4881 6.54566 19.433C6.8064 19.2851 6.99207 19.1798 7.12407 19.0397L7.28068 18.8317L7.46437 18.8965L8.07216 21.452Z" fill="url(#paint2_linear_2959_2849)"/>
<path fill-rule="evenodd" clip-rule="evenodd" d="M13.0337 21.9917C13.0411 21.9883 13.0484 21.985 13.0557 21.9817C12.2152 22.0095 10.4697 21.6751 9.86853 19.4174C9.77228 19.0559 9.74076 18.7596 9.75983 18.5181C9.75711 18.3636 9.75769 18.1782 9.75838 17.9549C9.75874 17.8417 9.75912 17.7187 9.75912 17.5852C9.75912 16.2766 9.76781 15.9374 9.80087 15.9516C9.82385 15.9615 9.99291 16.0376 10.1766 16.1206C14.139 17.9125 18.1844 13.7079 16.2356 9.82314C14.3884 6.14082 9.00106 6.54043 7.68887 10.4571L7.68347 10.4732C7.64706 10.5819 7.61644 10.6732 7.5907 10.766C7.45467 11.2558 7.45467 11.7834 7.45468 15.0985L7.45468 15.1903C7.45468 15.5503 7.4557 15.8748 7.45661 16.1679C7.46201 17.903 7.46398 18.5356 7.23242 18.898C7.31293 19.6782 7.58327 20.6826 8.06395 21.4315C8.07319 21.4311 8.08237 21.4311 8.09154 21.4313C8.18315 21.4336 8.27402 21.4649 8.41918 21.5149C9.98855 22.0548 11.555 22.1886 13.0337 21.9917ZM11.7129 9.61023C9.85624 9.90046 9.11919 12.2054 10.4564 13.5396C11.9358 15.0158 14.4142 13.9779 14.4121 11.883C14.4109 10.7134 13.5384 9.74449 12.3522 9.59577C12.3424 9.59454 12.3329 9.59334 12.3237 9.59218C12.1935 9.57582 12.125 9.5672 12.0566 9.56774C11.9805 9.56833 11.9045 9.58023 11.7441 9.60534C11.7341 9.60692 11.7236 9.60855 11.7129 9.61023Z" fill="url(#paint3_linear_2959_2849)"/>
<defs>
<linearGradient id="paint0_linear_2959_2849" x1="16.7656" y1="2.36715" x2="5.72769" y2="23.2073" gradientUnits="userSpaceOnUse">
<stop stop-color="#0044FD"/>
<stop offset="0.254267" stop-color="#0157FA"/>
<stop offset="0.435563" stop-color="#019FE3"/>
<stop offset="0.65706" stop-color="#01DCD0"/>
<stop offset="0.870028" stop-color="#00EDAC"/>
<stop offset="1" stop-color="#01FF8F"/>
</linearGradient>
<linearGradient id="paint1_linear_2959_2849" x1="17.9011" y1="9.54777" x2="24.2698" y2="1.72923" gradientUnits="userSpaceOnUse">
<stop offset="0.0214648" stop-color="#01DCD0"/>
<stop offset="0.667412" stop-color="#00EDAC"/>
<stop offset="1" stop-color="#01FF8F"/>
</linearGradient>
<linearGradient id="paint2_linear_2959_2849" x1="7.83174" y1="18.815" x2="-0.484265" y2="23.2068" gradientUnits="userSpaceOnUse">
<stop stop-color="#02BCDB"/>
<stop offset="0.538398" stop-color="#0276F1"/>
<stop offset="1" stop-color="#014BFC"/>
</linearGradient>
<linearGradient id="paint3_linear_2959_2849" x1="11.9866" y1="7.27734" x2="11.9866" y2="22.0777" gradientUnits="userSpaceOnUse">
<stop stop-color="#014BFC"/>
<stop offset="0.660294" stop-color="#01E5BD"/>
<stop offset="0.981523" stop-color="#01FF8D"/>
</linearGradient>
</defs>
</svg>
