<svg width="24" height="24" viewBox="0 0 24 24" fill="none" xmlns="http://www.w3.org/2000/svg">
<g clip-path="url(#clip0_3327_2507)">
<mask id="mask0_3327_2507" style="mask-type:luminance" maskUnits="userSpaceOnUse" x="0" y="0" width="24" height="24">
<path d="M12 24C18.6274 24 24 18.6274 24 12C24 5.37258 18.6274 0 12 0C5.37258 0 0 5.37258 0 12C0 18.6274 5.37258 24 12 24Z" fill="white"/>
</mask>
<g mask="url(#mask0_3327_2507)">
<path d="M25.1368 -1.13672H-1.13574V25.1358H25.1368V-1.13672Z" fill="url(#paint0_linear_3327_2507)"/>
<path d="M15.4708 14.5903L18.8659 12.6299C19.0457 12.526 19.1569 12.3329 19.1569 12.1252V8.2049C19.1569 7.99764 19.0452 7.8041 18.8659 7.70023L15.4708 5.73983C15.291 5.63596 15.0681 5.63645 14.8883 5.73983L11.4932 7.70023C11.3134 7.8041 11.2022 7.99764 11.2022 8.2049V15.2111L8.82137 16.5854L6.44058 15.2111V12.4618L8.82137 11.0874L10.3917 11.9939V10.1496L9.11242 9.41122C9.02422 9.36026 8.92329 9.33332 8.82088 9.33332C8.71848 9.33332 8.61754 9.36026 8.52984 9.41122L5.1348 11.3716C4.95497 11.4755 4.84375 11.6685 4.84375 11.8763V15.7966C4.84375 16.0038 4.95546 16.1974 5.1348 16.3013L8.52984 18.2617C8.70917 18.365 8.9326 18.365 9.11242 18.2617L12.5075 16.3018C12.6873 16.1979 12.7985 16.0043 12.7985 15.7971V8.79091L12.8416 8.76641L15.1793 7.41653L17.5601 8.79091V11.5402L15.1793 12.9145L13.6114 12.0091V13.8533L14.8883 14.5908C15.0681 14.6941 15.291 14.6941 15.4708 14.5908V14.5903Z" fill="white"/>
</g>
</g>
<defs>
<linearGradient id="paint0_linear_3327_2507" x1="-5.93702" y1="1.0226" x2="21.1851" y2="17.62" gradientUnits="userSpaceOnUse">
<stop stop-color="#A229C5"/>
<stop offset="1" stop-color="#7B3FE4"/>
</linearGradient>
<clipPath id="clip0_3327_2507">
<rect width="24" height="24" fill="white"/>
</clipPath>
</defs>
</svg>
