<svg width="24" height="24" viewBox="0 0 24 24" fill="none" xmlns="http://www.w3.org/2000/svg">
<g clip-path="url(#clip0_2068_1917)">
<path fill-rule="evenodd" clip-rule="evenodd" d="M12 24C5.4 24 0 18.6001 0 11.9402C0.06 5.34039 5.4 -0.0595034 12.06 0.000495202C18.66 0.0604941 24 5.40039 24 12.1202C23.94 18.6601 18.6 24 12 24Z" fill="white"/>
<path fill-rule="evenodd" clip-rule="evenodd" d="M15.1428 2.56641C17.1237 2.56641 18.7657 3.21793 20.0537 4.52099C21.3492 5.82404 22.0007 7.47357 22.0007 9.46958C22.0007 11.4731 21.3492 13.1189 20.0612 14.4219C18.7732 15.725 17.1312 16.3765 15.1503 16.3765H11.4332V21.6716H7.01562V18.7755C8.78943 18.2144 10.0737 16.5535 10.0737 14.5952C10.0737 12.6368 8.78943 10.976 7.01562 10.4149V7.68447V2.56641H15.1428ZM14.4575 12.7853C15.3538 12.7853 16.0844 12.4728 16.6568 11.8551C17.2293 11.2375 17.5193 10.4466 17.5155 9.48251C17.5155 8.5184 17.2293 7.72753 16.6568 7.1099C16.0806 6.49227 15.3462 6.17969 14.4575 6.17969H11.4258V12.7853H14.4575Z" fill="black"/>
<path d="M4.73337 17.83C6.50341 17.83 7.93451 16.3952 7.93451 14.6289C7.93451 12.8588 6.49965 11.4277 4.73337 11.4277C2.96709 11.4277 1.53223 12.8626 1.53223 14.6289C1.53223 16.3989 2.96709 17.83 4.73337 17.83Z" fill="#FF3465"/>
</g>
<defs>
<clipPath id="clip0_2068_1917">
<rect width="24" height="24" fill="white"/>
</clipPath>
</defs>
</svg>
