<svg width="25" height="24" viewBox="0 0 25 24" fill="none" xmlns="http://www.w3.org/2000/svg">
<rect x="0.93457" width="24" height="24" rx="5" fill="#0F0F0F"/>
<path fill-rule="evenodd" clip-rule="evenodd" d="M8.97211 3.87109L4.03125 10.2261L5.7946 18.1507L12.9346 21.6775L20.0744 18.1507L21.8377 10.2261L16.8967 3.87109H8.97211ZM10.4027 5.0183H15.4662L12.9346 8.27464L10.4027 5.0183ZM5.53524 10.1315L9.24144 5.36464L12.2192 9.1947L10.0019 12.0465L5.53524 10.1315ZM16.9143 5.73358L20.2292 9.99728L15.7515 10.9591L16.9143 5.73358ZM13.6497 9.1947L15.537 6.76721L14.6973 10.5419L13.6497 9.1947ZM12.9346 10.1146L13.9001 11.3567L11.5817 11.8547L12.9346 10.1146ZM15.907 12.0978L20.4932 11.1127L19.3022 16.4647L15.907 12.0978ZM5.42338 11.327L9.27688 12.9791L6.56676 16.4647L5.42338 11.327ZM7.1543 17.5491L10.4875 13.2619L14.2728 12.4487L12.5454 20.212L7.1543 17.5491ZM15.2708 13.1195L18.7145 17.5491L13.7381 20.0072L15.2708 13.1195Z" fill="#FDFDFD"/>
</svg>
