<svg width="24" height="24" viewBox="0 0 24 24" fill="none" xmlns="http://www.w3.org/2000/svg">
<g clip-path="url(#clip0_2362_1701)">
<path d="M24 12C24 18.6274 18.6274 24 12 24C5.37258 24 0 18.6274 0 12C0 5.37258 5.37258 0 12 0C18.6274 0 24 5.37258 24 12Z" fill="#F2F5FF"/>
<path fill-rule="evenodd" clip-rule="evenodd" d="M3.63574 8.83991C3.69194 8.82407 3.73647 8.81324 3.76298 8.89344C3.79483 8.99017 3.83769 9.08789 3.89672 9.17027C3.91024 9.18906 3.92293 9.21255 3.93587 9.2365C3.97207 9.30351 4.01018 9.37408 4.07382 9.35503C4.11249 9.34348 4.07966 9.27526 4.04808 9.20964C4.03498 9.18243 4.0221 9.15567 4.01462 9.13358C3.6174 7.95307 4.39234 6.75673 5.63604 6.64133C6.00308 6.60715 6.36695 6.63 6.72533 6.72121C6.76772 6.73221 6.81193 6.73628 6.85611 6.74035C6.87622 6.7422 6.89633 6.74406 6.91626 6.74656C6.89586 6.69284 6.85068 6.67586 6.80552 6.65888C6.78381 6.65072 6.76211 6.64256 6.74317 6.63033C6.73491 6.62503 6.72597 6.62104 6.71701 6.61704L6.71701 6.61704L6.717 6.61704C6.70878 6.61337 6.70053 6.60969 6.69278 6.60498C6.65244 6.58029 6.60609 6.56882 6.55974 6.55736C6.48903 6.53986 6.41831 6.52237 6.36895 6.4579C6.47232 6.38884 6.58606 6.40409 6.69511 6.41871L6.69511 6.41871L6.69512 6.41871L6.69513 6.41871C6.71801 6.42178 6.74068 6.42482 6.76301 6.42705C7.64699 6.51593 8.35656 6.93917 8.93924 7.59287C8.97393 7.63189 9.01962 7.69993 9.00677 7.73478C8.98221 7.8017 8.93055 7.78385 8.88107 7.76675C8.86668 7.76178 8.85247 7.75687 8.83917 7.75413C8.48448 7.68075 8.13194 7.69776 7.78058 7.77714C7.7711 7.7793 7.7607 7.7804 7.75024 7.78151H7.75024L7.75023 7.78151C7.71377 7.78538 7.67657 7.78932 7.67502 7.83817C7.67469 7.84782 7.70093 7.85804 7.72805 7.8686L7.72806 7.8686L7.72806 7.8686L7.72807 7.8686L7.72808 7.86861C7.74222 7.87411 7.7566 7.87971 7.76757 7.88537C7.81068 7.90753 7.86108 7.92525 7.91168 7.94304C8.04193 7.98885 8.17348 8.0351 8.18515 8.15869C8.19072 8.21702 8.08886 8.23295 7.97654 8.25053C7.90421 8.26184 7.82755 8.27384 7.77242 8.29827C7.76447 8.30185 7.75592 8.30412 7.74737 8.30639C7.7376 8.30898 7.72785 8.31157 7.71904 8.31611C7.68047 8.33635 7.63955 8.35252 7.59863 8.3687C7.50333 8.40637 7.40802 8.44404 7.34234 8.53306C7.41671 8.57421 7.49488 8.56852 7.57307 8.56282C7.62198 8.55926 7.67089 8.55569 7.71889 8.56359C7.73307 8.56593 7.74885 8.56557 7.76467 8.56521C7.80723 8.56425 7.85007 8.56327 7.86295 8.61494C7.87586 8.66642 7.83225 8.67501 7.79423 8.6825C7.78506 8.6843 7.77622 8.68604 7.76857 8.68831C7.28098 8.8334 6.96761 9.19093 6.68245 9.58015C6.48769 9.8458 6.27473 10.093 6.01692 10.2996C5.98941 10.3216 5.94438 10.3704 5.94738 10.3744C5.97913 10.4134 6.00905 10.3949 6.03803 10.377C6.04816 10.3707 6.05817 10.3646 6.06811 10.3609C6.33576 10.2632 6.56105 10.0976 6.77985 9.91917C6.79685 9.90524 6.81315 9.88434 6.8297 9.86313C6.8708 9.81046 6.91341 9.75586 6.97178 9.80128C7.04404 9.85772 6.995 9.9258 6.9503 9.98784C6.93662 10.0068 6.92335 10.0252 6.91409 10.0426C6.71397 10.4206 6.38279 10.6634 6.02726 10.8797L5.90459 10.9542C5.67342 11.0944 5.44215 11.2346 5.2163 11.383C4.94748 11.5591 4.71335 11.7729 4.55493 12.0594C4.55052 12.0673 4.54645 12.0765 4.54226 12.086C4.52398 12.1273 4.50358 12.1735 4.44386 12.1399C4.42485 12.1291 4.43136 12.0529 4.4427 12.0113C4.4994 11.8021 4.57811 11.5991 4.70985 11.4267C4.79456 11.3163 4.77739 11.2614 4.66399 11.1919C4.47121 11.0735 4.31229 10.9122 4.16421 10.7423C4.15705 10.734 4.1485 10.7259 4.13978 10.7176C4.10238 10.6819 4.06167 10.6431 4.11251 10.5782L4.11261 10.5781C4.20324 10.4628 4.20903 10.4554 4.09784 10.3571C3.93495 10.213 3.85011 10.0244 3.76531 9.83601C3.72492 9.74626 3.68454 9.65654 3.63574 9.57164V8.83991ZM20.3631 9.34609C20.2661 9.79268 20.1058 10.2049 19.7306 10.4992C19.7238 10.5045 19.7151 10.5106 19.7063 10.5166C19.6863 10.5304 19.6662 10.5442 19.6682 10.5503C19.6837 10.5935 19.7241 10.5845 19.7599 10.5765L19.7601 10.5764C19.9434 10.5356 19.911 10.6163 19.8366 10.715C19.7059 10.889 19.5488 11.0392 19.3664 11.1549C19.2247 11.2452 19.1811 11.3144 19.2952 11.4718C19.3717 11.5776 19.4205 11.704 19.469 11.8297C19.4851 11.8713 19.5011 11.9129 19.5182 11.9536C19.5305 11.9829 19.5265 12.0421 19.5068 12.0566C19.456 12.0946 19.424 12.0428 19.4013 12.0062L19.4012 12.0061C19.1324 11.5717 18.7142 11.3265 18.2969 11.0818C18.1903 11.0193 18.0837 10.9569 17.9798 10.8913C17.6107 10.6585 17.2677 10.4042 17.0607 10.008C17.0549 9.99682 17.0463 9.98492 17.0373 9.97252C17.0067 9.93006 16.9717 9.88172 17.0272 9.8372C17.0834 9.79209 17.1158 9.83433 17.1462 9.87382C17.1574 9.88848 17.1684 9.90277 17.1802 9.91207C17.3866 10.0752 17.5994 10.2279 17.8402 10.3362C17.8659 10.3478 17.8974 10.3464 17.929 10.345C17.9435 10.3443 17.9581 10.3437 17.9721 10.3443C17.9645 10.3329 17.9575 10.3207 17.9505 10.3086C17.9351 10.2819 17.9197 10.2552 17.8977 10.2361C17.6696 10.038 17.4863 9.80191 17.3028 9.56568C17.2393 9.48398 17.1758 9.40226 17.1105 9.32208C16.877 9.03525 16.6008 8.79877 16.2336 8.69289C16.2256 8.69057 16.2167 8.6887 16.2075 8.68677C16.1691 8.67871 16.1265 8.66977 16.1297 8.62401C16.1337 8.56952 16.1938 8.56784 16.2408 8.56653L16.2421 8.56649L16.2576 8.5664L16.2709 8.56658C16.2897 8.56688 16.3083 8.56718 16.3265 8.56464C16.369 8.5587 16.4257 8.56173 16.479 8.56458C16.5618 8.569 16.6362 8.57297 16.6354 8.54214C16.6331 8.44485 16.5311 8.4109 16.4369 8.37958C16.4107 8.37086 16.385 8.36233 16.3624 8.3527C16.2527 8.30619 16.1354 8.2775 16.0181 8.24884C15.9803 8.23957 15.9424 8.23031 15.9048 8.22045C15.8942 8.21767 15.8823 8.21616 15.8704 8.21465C15.8333 8.20994 15.7959 8.20519 15.7954 8.16109C15.7951 8.12674 15.8367 8.07987 15.8718 8.05953C15.9275 8.02693 15.9858 7.99884 16.044 7.97075L16.0441 7.97074C16.0865 7.95028 16.129 7.92982 16.1704 7.90761C16.184 7.90027 16.202 7.897 16.2199 7.89372C16.2597 7.88645 16.2996 7.87917 16.2922 7.82707C16.2851 7.77822 16.2403 7.7755 16.1966 7.77285C16.1803 7.77186 16.1642 7.77088 16.1502 7.76753C15.8172 7.68749 15.4827 7.67515 15.1463 7.74719C15.104 7.75619 15.0343 7.7652 15.0183 7.74369C14.9829 7.69583 15.0101 7.63863 15.0511 7.5931C15.7015 6.87186 16.4888 6.43345 17.4812 6.41994C17.5155 6.41944 17.5782 6.42895 17.5797 6.44012C17.5865 6.49198 17.5422 6.50951 17.5035 6.5248L17.4922 6.52934C17.4421 6.54995 17.3913 6.56905 17.3406 6.58814L17.3406 6.58815C17.2686 6.61526 17.1966 6.64235 17.1265 6.67375C17.0863 6.6916 17.0503 6.71896 17.0144 6.7463C16.9986 6.7583 16.9828 6.77029 16.9667 6.78148C17.0142 6.81802 17.0554 6.79663 17.0952 6.77599C17.1111 6.76771 17.1268 6.75955 17.1426 6.7553C17.527 6.65324 17.9146 6.60738 18.3128 6.6409C19.6342 6.75246 20.4195 8.03435 19.9162 9.26086C19.9108 9.2743 19.9019 9.28704 19.8929 9.29987C19.8706 9.33196 19.8478 9.36461 19.8777 9.41012C19.8903 9.39832 19.9033 9.38685 19.9163 9.37537L19.9163 9.37536L19.9163 9.37534C19.9452 9.34987 19.974 9.32442 19.9988 9.29555C20.1095 9.16616 20.1965 9.02189 20.2404 8.85647C20.2709 8.74193 20.3129 8.77726 20.3631 8.83948V9.34609ZM11.6503 19.2433C11.7386 19.2651 11.8268 19.2868 11.9152 19.3078H12.1405C12.1776 19.2642 12.2253 19.2641 12.2733 19.264C12.2902 19.264 12.3072 19.264 12.3237 19.262C13.0865 19.1728 13.7861 18.943 14.3177 18.3515C14.3302 18.3376 14.348 18.324 14.3662 18.31L14.3662 18.31C14.4141 18.2733 14.4648 18.2344 14.4294 18.1837C14.3862 18.1216 14.3364 18.1623 14.2897 18.2005C14.273 18.2142 14.2566 18.2276 14.2411 18.2358C13.7455 18.4974 13.2202 18.656 12.6606 18.6948L12.6559 18.6952C12.5736 18.7009 12.4269 18.7112 12.4301 18.6683C12.436 18.5928 12.5146 18.5944 12.5837 18.5959H12.5837H12.5837C12.6043 18.5964 12.624 18.5968 12.6408 18.5951C13.0813 18.5518 13.4265 18.3672 13.6478 17.9723C13.654 17.9613 13.6598 17.9481 13.6658 17.9345C13.6878 17.8846 13.7128 17.8279 13.7707 17.8449C13.8337 17.8633 13.8314 17.919 13.829 17.9749C13.828 17.998 13.8271 18.0211 13.8307 18.0417C13.8347 18.0638 13.8252 18.0886 13.8159 18.1127C13.8001 18.154 13.785 18.1934 13.8387 18.2144C13.8934 18.2357 13.9289 18.1807 13.9594 18.1334C13.9667 18.1221 13.9737 18.1113 13.9807 18.102C14.0417 18.0206 14.1031 17.9332 14.1368 17.8387C14.2868 17.4161 14.073 17.1245 13.6308 17.1163C13.3992 17.1121 13.1836 17.1748 12.9723 17.2455C12.3532 17.4528 11.7401 17.447 11.1239 17.2385C10.8928 17.1605 10.6575 17.1051 10.4078 17.1168C10.1255 17.1301 9.96223 17.2781 9.94289 17.562C9.92854 17.7712 10.0096 17.9472 10.1375 18.1035C10.177 18.1519 10.2486 18.2267 10.2831 18.2161C10.3437 18.1977 10.327 18.1597 10.3094 18.1197C10.2996 18.0973 10.2895 18.0744 10.2924 18.0538C10.2954 18.0333 10.2937 18.01 10.292 17.9867C10.2879 17.9301 10.2839 17.8733 10.3466 17.8565C10.4131 17.8389 10.4471 17.9043 10.4767 17.961C10.4835 17.9742 10.4901 17.9869 10.4969 17.998C10.6758 18.2933 10.9193 18.4916 11.2658 18.5609C11.3168 18.5711 11.3693 18.5744 11.4217 18.5776C11.5257 18.584 11.6298 18.5905 11.7231 18.651C11.5706 18.7298 11.414 18.7032 11.2594 18.677C11.2364 18.6731 11.2135 18.6692 11.1906 18.6656C10.6957 18.5891 10.2239 18.4422 9.79214 18.1809C9.78451 18.1763 9.77648 18.1705 9.76819 18.1646C9.72969 18.1372 9.68547 18.1058 9.64939 18.162C9.6268 18.1975 9.65758 18.219 9.68758 18.2399C9.69944 18.2482 9.71117 18.2563 9.71944 18.2653C10.0873 18.6633 10.4992 18.989 11.0483 19.1031C11.25 19.1448 11.4501 19.1941 11.6502 19.2433L11.6503 19.2433L11.6503 19.2433ZM15.4561 16.297C15.4361 15.8632 15.3432 15.3102 14.9067 14.8764C14.9016 14.8713 14.8964 14.8653 14.8911 14.8591C14.8674 14.8314 14.8402 14.7996 14.7979 14.8317C14.7897 14.8379 14.8114 14.8871 14.8256 14.9192L14.8286 14.926C14.8372 14.9456 14.8474 14.9646 14.8575 14.9836C14.874 15.0146 14.8905 15.0455 14.9001 15.0785L14.9061 15.0988C14.9474 15.2396 14.9986 15.4144 14.884 15.4962C14.8348 15.5312 14.7883 15.4493 14.7408 15.3657L14.7408 15.3657C14.7179 15.3252 14.6947 15.2844 14.6709 15.2562C14.394 14.9302 14.0525 14.6842 13.6881 14.4701C13.5435 14.3851 13.4395 14.2762 13.3724 14.1271C13.3209 14.0127 13.2857 13.8856 13.3598 13.7786C13.4112 13.7042 13.4697 13.7357 13.5282 13.7674C13.5563 13.7826 13.5845 13.7978 13.6119 13.8012C13.8811 13.8343 14.1094 13.7289 14.3295 13.6033C14.573 13.4645 14.8138 13.3208 15.0546 13.1771L15.0546 13.177L15.055 13.1768C15.1758 13.1047 15.2966 13.0326 15.4178 12.9611C15.8123 12.7281 16.2259 12.5927 16.698 12.6134C17.1357 12.6324 17.4529 13.1439 17.4903 13.5391C17.4976 13.6155 17.4561 13.6445 17.3927 13.584C17.3762 13.5683 17.3635 13.5487 17.3507 13.529L17.3507 13.5289C17.3378 13.5089 17.3248 13.4889 17.3078 13.4731C17.2819 13.4488 17.2568 13.4116 17.2325 13.3755C17.1877 13.309 17.1453 13.2461 17.1041 13.2738C17.0212 13.3295 17.0982 13.4966 17.1578 13.5633C17.403 13.8386 17.2928 14.0778 17.1828 14.3165C17.1323 14.426 17.0819 14.5355 17.066 14.6482C17.0601 14.6906 17.0331 14.742 17.0088 14.7883C16.9767 14.8494 16.9493 14.9015 16.9811 14.9124C17.0613 14.9397 17.1256 14.8547 17.1847 14.7766C17.1992 14.7575 17.2134 14.7387 17.2275 14.7221C17.3244 14.6075 17.4102 14.4878 17.4583 14.3409C17.4623 14.3287 17.4643 14.313 17.4664 14.2965C17.4729 14.2454 17.4805 14.1862 17.5506 14.1984C17.6101 14.2087 17.6119 14.2685 17.6135 14.3226C17.6139 14.3386 17.6144 14.3541 17.6163 14.3677C17.7359 15.2292 17.2876 16.0705 16.4884 16.4841C16.2803 16.5918 16.0643 16.6807 15.8378 16.7456L15.8285 16.7482C15.6391 16.8024 15.5367 16.8317 15.4851 16.7931C15.4243 16.7475 15.4342 16.6076 15.4557 16.3028L15.4561 16.297ZM6.40032 14.4363C6.39606 14.5075 6.3921 14.5736 6.38867 14.6293C6.39636 14.7144 6.39752 14.7942 6.39863 14.8706C6.40058 15.0047 6.40239 15.1287 6.43903 15.254C6.71386 16.1927 7.61119 16.6346 8.40713 16.8215C8.5337 16.8514 8.54022 16.7797 8.53406 16.6774C8.52355 16.5 8.51419 16.3204 8.53021 16.144C8.57391 15.6682 8.70881 15.2254 9.05783 14.8754C9.08088 14.8523 9.11473 14.84 9.14864 14.8277C9.16477 14.8218 9.18091 14.8159 9.19591 14.8089C9.19069 14.8216 9.18588 14.8346 9.18106 14.8476C9.17032 14.8766 9.15957 14.9056 9.14438 14.9319C9.05801 15.0826 9.01666 15.2436 9.03048 15.4169C9.03301 15.4504 9.04348 15.4954 9.06684 15.513C9.10538 15.542 9.13889 15.5016 9.15538 15.4712C9.37264 15.0748 9.72834 14.8349 10.0842 14.595C10.1704 14.5369 10.2565 14.4788 10.3407 14.4185C10.4743 14.3229 10.5707 14.1894 10.6036 14.0303C10.6364 13.8712 10.6664 13.6829 10.3837 13.8003C10.256 13.8533 10.122 13.8081 9.99995 13.7669L9.99822 13.7663C9.74038 13.6793 9.50872 13.5387 9.27742 13.3984C9.24438 13.3783 9.21134 13.3583 9.17824 13.3384C9.10176 13.2924 9.02581 13.2452 8.94985 13.1981C8.59576 12.9783 8.24138 12.7583 7.83015 12.6527C7.11274 12.4686 6.62514 12.7692 6.50174 13.4658C6.49938 13.479 6.494 13.4934 6.48853 13.5081C6.4731 13.5494 6.45699 13.5925 6.50624 13.616C6.55477 13.6392 6.57418 13.6022 6.59342 13.5656C6.60161 13.55 6.60977 13.5345 6.62013 13.5237C6.64511 13.4974 6.66685 13.4676 6.68857 13.4378C6.74155 13.3653 6.79447 13.2928 6.89428 13.271C6.88616 13.3038 6.87821 13.3366 6.87026 13.3694C6.84784 13.4619 6.82542 13.5544 6.79908 13.6459C6.79078 13.6744 6.76925 13.7001 6.74861 13.7247C6.74474 13.7293 6.7409 13.7339 6.73719 13.7384C6.58811 13.9185 6.58679 14.1005 6.74887 14.2669C6.82124 14.3413 6.84375 14.427 6.86094 14.5174C6.87268 14.579 6.90051 14.6351 6.92828 14.691C6.96603 14.7669 7.00367 14.8427 7.00069 14.9321C6.85161 14.869 6.75849 14.747 6.66553 14.6253C6.6519 14.6074 6.63827 14.5896 6.62447 14.5719C6.59069 14.5285 6.56895 14.4777 6.54719 14.4268C6.51524 14.352 6.48324 14.2772 6.41302 14.2257C6.40864 14.2974 6.40435 14.3691 6.40032 14.4363Z" fill="black"/>
<path d="M12.8572 6.38085C12.8424 6.53878 12.9018 6.67069 12.9876 6.79976C13.1284 7.01071 13.2453 7.2335 13.2852 7.48998C13.303 7.60371 13.3263 7.73178 13.268 7.82117C12.9418 8.31845 12.822 8.94682 12.3238 9.33284C12.0873 9.51629 11.844 9.33751 11.7359 9.19893C11.615 9.04386 11.4366 8.94963 11.3429 8.77936C11.1711 8.46838 11.0576 8.12968 10.8729 7.82267C10.7932 7.69026 10.8343 7.51183 10.8848 7.35624C11.0722 6.77825 11.4796 6.3335 11.8257 5.85723C12.0009 5.61626 12.3184 5.52821 12.6169 5.46651C12.659 5.45767 12.7148 5.43266 12.7365 5.48769C12.7447 5.50836 12.7058 5.54822 12.6871 5.57874C12.6338 5.66629 12.5766 5.75184 12.5275 5.84172C12.502 5.88824 12.4507 5.95062 12.4965 5.99447C12.5514 6.04683 12.5836 5.95928 12.6288 5.94011C12.7073 5.90709 12.7463 5.89825 12.7375 6.01448C12.7328 6.07852 12.5259 6.27463 12.8352 6.2161C12.9041 6.20325 12.8402 6.32432 12.8572 6.38085Z" fill="#0F75FC"/>
</g>
<defs>
<clipPath id="clip0_2362_1701">
<rect width="24" height="24" fill="white"/>
</clipPath>
</defs>
</svg>
