<svg width="24" height="24" viewBox="0 0 24 24" fill="none" xmlns="http://www.w3.org/2000/svg">
<path fill-rule="evenodd" clip-rule="evenodd" d="M20.6966 3.56724L3.56688 20.6966C1.36388 18.5029 0 15.4669 0 12.1126C0 5.42326 5.4229 0 12.1126 0C15.4672 0 18.5033 1.36424 20.6966 3.56724Z" fill="#5900F7"/>
<path fill-rule="evenodd" clip-rule="evenodd" d="M3.30361 20.4333L20.4333 3.30361C22.6364 5.49703 24 8.533 24 11.8874C24 18.577 18.577 24 11.8874 24C8.533 24 5.49703 22.6364 3.30361 20.4333Z" fill="#333333"/>
<path d="M16.3287 7.5402L16.2816 7.49274C16.258 7.46904 16.258 7.46904 16.2348 7.44531L13.8346 9.8657C13.8582 9.88943 13.8582 9.88943 13.8817 9.91316L13.9289 9.96063C16.6346 12.7133 17.1757 15.632 16.3758 16.4388C16.0934 16.7236 15.5994 16.7948 15.2464 16.771C13.7168 16.7473 11.6462 15.6557 9.95205 13.9709L9.90493 13.9235C9.88172 13.8997 9.88172 13.8997 9.85816 13.876L7.45801 16.2964C7.48157 16.3202 7.48157 16.3202 7.50512 16.3439L7.55224 16.3914C9.90493 18.7406 12.7523 20.1644 15.1757 20.1881C15.1993 20.1881 15.2464 20.1881 15.2699 20.1881C16.6817 20.1881 17.8818 19.7135 18.7524 18.8355C20.0463 17.5304 20.4229 15.5371 19.7876 13.2353C19.27 11.2895 18.0228 9.24875 16.3287 7.5402Z" fill="url(#paint0_linear_2276_1776)"/>
<path d="M7.08301 8.53571C7.08301 8.17977 7.13013 7.68145 7.41248 7.39667C7.64771 7.15939 8.02395 7.06447 8.49476 7.06447C8.84779 7.06447 9.24759 7.13566 9.67129 7.25432C11.0359 7.63398 12.5419 8.58317 13.8359 9.88829L16.236 7.46786C14.5184 5.75935 12.5183 4.5254 10.589 3.97962C8.3063 3.33892 6.32984 3.69487 5.01232 5.02371C4.11815 5.92543 3.6709 7.15939 3.6709 8.63063C3.71801 11.0985 5.10656 13.9698 7.43569 16.3427L9.8594 13.8511C8.18886 12.1663 7.10657 10.0781 7.08301 8.53571Z" fill="url(#paint1_linear_2276_1776)"/>
<defs>
<linearGradient id="paint0_linear_2276_1776" x1="12.2212" y1="18.1001" x2="21.5333" y2="9.48627" gradientUnits="userSpaceOnUse">
<stop stop-color="#00FFFF"/>
<stop offset="1" stop-color="#5900F7" stop-opacity="0"/>
</linearGradient>
<linearGradient id="paint1_linear_2276_1776" x1="0.8124" y1="15.1969" x2="12.4841" y2="5.51348" gradientUnits="userSpaceOnUse">
<stop stop-color="#5900F7" stop-opacity="0"/>
<stop offset="1" stop-color="white"/>
</linearGradient>
</defs>
</svg>
