<svg width="25" height="24" viewBox="0 0 25 24" fill="none" xmlns="http://www.w3.org/2000/svg">
<circle cx="12.0234" cy="12" r="12" fill="white"/>
<path fill-rule="evenodd" clip-rule="evenodd" d="M16.3226 5.906H11.3437L11.3442 0C5.33218 0.327826 0.352801 5.24983 0.0234375 11.2962H5.80138V7.73363H5.14368V5.10846H7.77397V7.73363H7.11627V16.2658H7.72736V16.9215H16.3231V16.2653H16.9808V12.7028L11.3442 12.6561V7.21833H16.3231V8.01536H18.9534V5.10897H16.3226V5.906ZM5.09655 18.8908V16.2657L5.80138 16.219V12.6565H0.0234375C0.352288 18.7039 5.28454 23.6725 11.3437 24.0003V18.2347H7.72685V18.8908H5.09655ZM16.2765 18.8903V18.2347H12.6591V24.0003C18.7188 23.672 23.6976 18.75 24.027 12.7031H18.249V16.2657H18.9067V18.8903H16.2765Z" fill="#0069E3"/>
</svg>
