<svg width="24" height="24" viewBox="0 0 24 24" fill="none" xmlns="http://www.w3.org/2000/svg">
<path d="M16.3932 7.93164C17.2149 8.73706 17.581 9.67266 17.8414 10.6896C18.2807 12.4062 17.76 13.9032 16.8977 15.335C15.9295 16.9377 14.7661 18.4021 13.4726 19.7608C12.4719 20.8184 11.8129 22.0632 11.4875 23.4788C11.4549 23.6252 11.4143 23.7635 11.3736 23.9099C11.3654 23.9262 11.3329 23.9425 11.2353 23.9994C11.1946 23.6496 11.1783 23.3323 11.1214 23.0313C10.8041 21.4774 11.3573 20.1025 12.0977 18.8089C12.8787 17.434 13.7573 16.1079 14.5709 14.7493C14.7499 14.4483 14.8556 14.1147 15.0183 13.7405C14.0746 14.4727 13.2366 15.1642 12.3499 15.7988C11.821 16.173 11.2109 16.4252 10.6658 16.775C9.76273 17.3527 9.09561 18.1337 8.78646 19.1832C8.72138 19.411 8.69697 19.6469 8.64002 19.9967C8.29833 19.5249 8.3146 19.0774 8.34714 18.6462C8.40409 17.7432 8.84341 16.9947 9.35595 16.2869C10.3322 14.9527 11.5932 13.9032 12.838 12.8293C13.5051 12.2516 14.1966 11.7066 14.8068 11.072C15.5309 10.3154 15.9783 9.38791 16.2387 8.37096C16.2631 8.24079 16.32 8.11876 16.3932 7.93164Z" fill="url(#paint0_linear_852_290)"/>
<path d="M7.55023 16.0515C6.7204 15.2298 6.3543 14.2861 6.08583 13.2529C5.63023 11.4468 6.26481 9.91729 7.17599 8.45288C8.13599 6.90712 9.26684 5.49153 10.536 4.18169C11.5367 3.14847 12.1143 1.88746 12.456 0.512542C12.4967 0.341695 12.5292 0.178983 12.5699 0.00813559C12.6106 0.00813559 12.6512 0 12.6919 0C12.7489 0.48 12.814 0.96 12.8628 1.44C13.0255 3.05085 12.2851 4.39322 11.5367 5.71119C10.9102 6.81763 10.178 7.86712 9.51905 8.95729C9.28311 9.3478 9.11227 9.78712 8.90888 10.202C8.95769 10.2264 8.99837 10.259 9.04718 10.2834C9.16108 10.1614 9.25057 10.0231 9.38074 9.92542C10.3733 9.18508 11.3333 8.37966 12.3909 7.73695C13.5868 7.01288 14.6933 6.26441 15.1326 4.84068C15.1733 4.71051 15.1896 4.58034 15.214 4.44203C15.2384 4.31186 15.2628 4.18983 15.3035 3.94576C15.6126 4.44203 15.6289 4.88949 15.5963 5.32068C15.5312 6.24814 15.0919 7.02915 14.555 7.75322C13.5462 9.11186 12.2363 10.1695 10.9509 11.2597C10.1211 11.9675 9.16108 12.5695 8.62413 13.5539C8.26616 14.2047 8.01396 14.9044 7.71294 15.5797C7.65599 15.718 7.61532 15.8563 7.55023 16.0515Z" fill="url(#paint1_linear_852_290)"/>
<defs>
<linearGradient id="paint0_linear_852_290" x1="13.1658" y1="7.93164" x2="13.1658" y2="23.9994" gradientUnits="userSpaceOnUse">
<stop stop-color="#FFB020"/>
<stop offset="1" stop-color="#F56035"/>
</linearGradient>
<linearGradient id="paint1_linear_852_290" x1="10.7713" y1="0" x2="10.7713" y2="16.0515" gradientUnits="userSpaceOnUse">
<stop stop-color="#F6C119"/>
<stop offset="1" stop-color="#EE8B26"/>
</linearGradient>
</defs>
</svg>
