<svg width="25" height="24" viewBox="0 0 25 24" fill="none" xmlns="http://www.w3.org/2000/svg">
<g clip-path="url(#clip0_3032_2260)">
<path d="M12.2849 23.9995C18.9122 23.9995 24.2847 18.6271 24.2847 11.9998C24.2847 5.37248 18.9122 0 12.2849 0C5.65763 0 0.285156 5.37248 0.285156 11.9998C0.285156 18.6271 5.65763 23.9995 12.2849 23.9995Z" fill="#0975D8"/>
<path d="M12.1616 18.4931C12.1348 18.6587 12.109 18.8233 12.019 18.9678C11.8191 19.2882 11.5302 19.4626 11.1502 19.4641C10.1108 19.4673 9.07132 19.4655 8.03233 19.4655C7.88598 19.4655 7.73916 19.4725 7.59469 19.4392C7.41879 19.3984 7.26728 19.3163 7.13781 19.1887C6.86106 18.9176 6.78648 18.5921 6.8484 18.2173C6.90187 17.8941 7.65285 12.9913 7.76824 12.2516C7.78794 12.1264 7.80389 12.0007 7.82875 11.8768C7.84376 11.8013 7.81796 11.7807 7.7462 11.7811C7.36015 11.783 6.97411 11.783 6.58853 11.7811C6.25737 11.7797 5.98859 11.5771 5.89337 11.2609C5.75781 10.8106 6.09741 10.3439 6.5693 10.3392C7.03321 10.3345 7.49665 10.335 7.96056 10.3388C8.04828 10.3397 8.07783 10.3097 8.09003 10.2257C8.15194 9.81292 8.21902 9.40108 8.28563 8.98924C8.30767 8.85321 8.30439 8.84664 8.16602 8.84664C7.79451 8.84664 7.42301 8.84945 7.0515 8.84523C6.74755 8.84148 6.51582 8.70451 6.39246 8.42494C6.17153 7.92445 6.51864 7.4005 7.06651 7.39862C7.52433 7.39721 7.98261 7.39862 8.44042 7.40331C8.5136 7.40425 8.5394 7.38361 8.55065 7.31137C8.64681 6.6739 8.74344 6.03644 8.8457 5.39991C8.9306 4.87408 9.33682 4.53541 9.86921 4.53588C11.3468 4.53588 12.8244 4.53353 14.3019 4.53729C15.3283 4.53963 16.2706 4.82764 17.1295 5.39006C17.6858 5.75406 18.1558 6.20718 18.532 6.75412C19.0039 7.4399 19.2928 8.19604 19.3857 9.02582C19.4955 10.0081 19.3313 10.9434 18.8969 11.8281C18.5259 12.5833 17.9926 13.2067 17.3082 13.6982C16.6065 14.2025 15.8245 14.5036 14.9675 14.6106C14.8048 14.6307 14.6411 14.6439 14.4764 14.6439C13.9464 14.6439 13.4163 14.6453 12.8863 14.6425C12.8117 14.6425 12.7798 14.6636 12.769 14.7396C12.7268 15.0299 12.277 17.7801 12.162 18.4926L12.1616 18.4931ZM8.35317 17.9227C8.34004 17.9987 8.35317 18.0268 8.44089 18.0264C9.18671 18.0226 9.93254 18.0231 10.6779 18.0264C10.7633 18.0264 10.797 18.002 10.8008 17.9175C10.8036 17.8547 10.821 17.7928 10.8308 17.7304C10.9237 17.1412 11.411 13.9952 11.4931 13.7541L11.4917 13.7564C11.5382 13.6232 11.5729 13.4787 11.731 13.3511C11.8989 13.1832 12.2235 13.2113 12.2305 13.2067C12.3825 13.2038 12.5345 13.1982 12.6864 13.1982C13.232 13.1973 13.7775 13.1987 14.323 13.1968C14.6955 13.2165 15.2813 13.1189 15.6829 12.9276C16.3293 12.6198 16.8921 12.2324 17.3068 11.6446C17.8645 10.8538 18.0728 9.97616 17.9208 9.02395C17.7787 8.13459 17.3546 7.39627 16.6585 6.81838C15.9925 6.26534 15.2241 5.98859 14.3601 5.98625C13.0092 5.98202 11.6582 5.98578 10.3078 5.98343C10.2402 5.98343 10.2173 6.00829 10.2079 6.06974C10.146 6.47643 10.0817 6.88311 10.0188 7.28979C10.0001 7.41175 10.001 7.41175 10.1244 7.41175C11.5096 7.41457 12.8952 7.40894 14.2804 7.42301C15.0487 7.43052 15.6641 7.76918 16.0797 8.41228C16.522 9.09712 16.5722 9.83544 16.2059 10.5663C15.8142 11.3477 15.1556 11.761 14.2799 11.7783C13.3933 11.7962 12.5059 11.7816 11.6184 11.7816C10.8866 11.7816 10.1553 11.7816 9.42359 11.7811C9.35745 11.7811 9.30961 11.7858 9.29694 11.8703M11.9552 10.3373V10.3364C12.7183 10.3364 13.4815 10.3373 14.2447 10.3364C14.5613 10.3359 14.8367 10.1464 14.9417 9.86218C15.1242 9.36778 14.7705 8.86916 14.2316 8.86728C12.7887 8.86212 11.3463 8.85977 9.90345 8.85649C9.7693 8.85649 9.7693 8.85649 9.74819 8.99018C9.74631 9.00143 9.74585 9.01316 9.74397 9.02442C9.68111 9.425 9.6192 9.82606 9.55446 10.2266C9.53664 10.3364 9.53476 10.3373 9.64828 10.3373C10.4171 10.3373 11.1859 10.3373 11.9547 10.3373H11.9552Z" fill="#FCFDFE"/>
</g>
<defs>
<clipPath id="clip0_3032_2260">
<rect width="24" height="24" fill="white" transform="translate(0.285156)"/>
</clipPath>
</defs>
</svg>
