<svg width="24" height="24" viewBox="0 0 24 24" fill="none" xmlns="http://www.w3.org/2000/svg">
<g clip-path="url(#clip0_875_333)">
<path d="M12 24C18.6274 24 24 18.6274 24 12C24 5.37258 18.6274 0 12 0C5.37259 0 0 5.37258 0 12C0 18.6274 5.37259 24 12 24Z" fill="white"/>
<path d="M19.6894 10.541H16.9121V17.4884H19.6894V10.541Z" fill="black"/>
<path d="M16.9121 9.69249L19.3898 8.61557C19.5761 8.53459 19.6894 8.35646 19.6894 8.15403V6.93945L17.3494 7.9597C17.0902 8.07306 16.9283 8.32407 16.9283 8.59937L16.9121 9.69249Z" fill="#00B3ED"/>
<path d="M5.36511 10.5012C5.77806 8.42026 7.80236 7.06804 9.88333 7.48099C11.7133 7.84537 13.0169 9.4648 12.9764 11.3272C12.9764 11.562 12.9522 11.7968 12.9036 12.0316L14.191 14.8332C16.1667 12.0073 15.4785 8.12067 12.6526 6.14496C9.82665 4.16925 5.94001 4.85751 3.9643 7.68342C1.98859 10.5093 2.67684 14.396 5.50276 16.3717C6.85499 17.311 8.51491 17.6834 10.1424 17.4081L9.13839 15.1814C7.01693 15.1895 5.29223 13.481 5.28413 11.3595C5.26794 11.0761 5.30033 10.7846 5.36511 10.5012Z" fill="black"/>
<path d="M14.223 17.4897H11.3404L9.51855 13.4492H12.4011L14.223 17.4897Z" fill="#00B3ED"/>
</g>
<defs>
<clipPath id="clip0_875_333">
<rect width="24" height="24" fill="white"/>
</clipPath>
</defs>
</svg>
