<svg width="24" height="24" viewBox="0 0 24 24" fill="none" xmlns="http://www.w3.org/2000/svg">
<g clip-path="url(#clip0_2376_7093)">
<circle cx="12" cy="12" r="12" fill="#2B5CF9"/>
<mask id="mask0_2376_7093" style="mask-type:alpha" maskUnits="userSpaceOnUse" x="0" y="0" width="24" height="24">
<circle cx="12" cy="12" r="12" fill="#2B5CF9"/>
</mask>
<g mask="url(#mask0_2376_7093)">
<path fill-rule="evenodd" clip-rule="evenodd" d="M11.9991 3.69475C11.8316 3.49771 11.3252 3.145 10.6395 3.31052C10.6158 3.28687 10.7675 3.79328 10.8464 4.04944C10.5902 3.8721 9.85326 3.55287 8.95474 3.69475C8.97839 3.69475 9.37839 4.69969 9.57543 5.20215L5.34883 6.14797C4.71829 6.91644 3.51041 9.51743 3.72321 13.7736C3.72321 13.7753 3.72383 13.7828 3.72487 13.7954C3.74131 13.9955 3.86444 15.4937 3.35823 16.2007C3.34022 16.2119 3.33299 16.2208 3.33898 16.2268C3.3455 16.2182 3.35191 16.2095 3.35823 16.2007C3.48233 16.1235 4.11799 15.9372 4.46213 15.8426L4.16658 16.9953L5.20106 16.1086V16.7293L5.99909 16.4337C6.15673 16.749 6.21781 17.5509 5.20106 18.2366C5.57521 18.2465 6.5063 18.1127 7.2391 17.4989C7.22503 17.5298 7.39039 18.1757 7.47692 18.5027L7.89071 17.9115C7.98924 18.1381 8.12717 18.7273 7.89071 19.2711C8.0582 19.2711 8.45229 19.0642 8.68874 18.2366L8.9252 18.68L9.30943 18.3549L9.57543 19.2711L10.1075 18.2366V19.0938L10.669 17.9115L10.9646 18.5027L11.4375 17.4977C11.4572 17.9411 11.5971 18.8396 11.9991 18.8869V3.69475ZM11.9991 3.69475C12.1666 3.49771 12.673 3.145 13.3587 3.31052C13.3824 3.28687 13.2306 3.79328 13.1518 4.04944C13.408 3.8721 14.1449 3.55287 15.0434 3.69475C15.0198 3.69475 14.6198 4.69969 14.4227 5.20215L18.6493 6.14797C19.2799 6.91644 20.4878 9.51743 20.275 13.7736C20.275 13.7753 20.2743 13.7828 20.2733 13.7954C20.2569 13.9955 20.1337 15.4937 20.6399 16.2007C20.5158 16.1235 19.8802 15.9372 19.536 15.8426L19.8316 16.9953L18.7971 16.1086V16.7293L17.9991 16.4337C17.8414 16.749 17.7804 17.5509 18.7971 18.2366C18.423 18.2465 17.4919 18.1127 16.7591 17.4989C16.7731 17.5298 16.6078 18.1757 16.5213 18.5027L16.1075 17.9115C16.0089 18.1381 15.871 18.7273 16.1075 19.2711C15.94 19.2711 15.5459 19.0642 15.3094 18.2366L15.073 18.68L14.6887 18.3549L14.4227 19.2711L13.8907 18.2366V19.0938L13.3291 17.9115L13.0336 18.5027L12.5607 17.4977C12.541 17.9411 12.4011 18.8396 11.9991 18.8869V3.69475ZM20.6592 16.2268C20.6652 16.2208 20.658 16.2119 20.6399 16.2007C20.6463 16.2095 20.6527 16.2182 20.6592 16.2268Z" fill="#543314"/>
<path fill-rule="evenodd" clip-rule="evenodd" d="M11.9992 12.9893C10.788 12.1621 7.77528 11.3113 5.76542 12.8691C5.76369 12.8694 5.76279 12.8701 5.76279 12.8711L5.76542 12.8691C5.8018 12.8629 6.20615 13.023 6.41304 13.1076C6.06821 13.1274 5.26624 13.285 4.81698 13.7579C4.84062 13.7815 5.67412 13.8663 6.08791 13.9057C5.7825 14.1815 4.97658 14.7392 4.19629 14.7628C4.65934 14.8613 5.69777 14.9993 6.14703 14.7628C6.40319 14.7234 6.85639 14.6919 6.61993 14.881C6.32437 15.1175 5.91057 15.5609 5.88102 16.1815L7.41796 15.4722C7.28003 15.7579 6.99826 16.4239 6.97461 16.8022C7.55589 16.5461 8.76575 15.9451 8.95491 15.5904C8.95491 16.1219 9.0139 17.2787 9.24976 17.6582C9.24931 17.6599 9.24953 17.6603 9.25048 17.6594L9.24976 17.6582C9.26073 17.6179 9.66309 16.8448 9.87117 16.4476C9.98939 17.1865 10.1904 18.7825 10.0485 19.2554C9.90663 19.7283 10.4623 18.7234 10.7579 18.1618L11.0239 18.753L11.3786 17.6594C11.3983 17.9746 11.6209 18.7352 11.9992 19.2554C12.3776 18.7352 12.6002 17.9746 12.6199 17.6594L12.9746 18.753L13.2406 18.1618C13.5362 18.7234 14.0919 19.7283 13.95 19.2554C13.8081 18.7825 14.0091 17.1865 14.1273 16.4476C14.3354 16.8448 14.7378 17.6179 14.7487 17.6582L14.748 17.6594C14.749 17.6603 14.7492 17.6599 14.7487 17.6582C14.9846 17.2787 15.0436 16.1219 15.0436 15.5904C15.2327 15.9451 16.4426 16.5461 17.0239 16.8022C17.0002 16.4239 16.7185 15.7579 16.5805 15.4722L18.1175 16.1815C18.0879 15.5609 17.6741 15.1175 17.3786 14.881C17.1421 14.6919 17.5953 14.7234 17.8515 14.7628C18.3007 14.9993 19.3391 14.8613 19.8022 14.7628C19.0219 14.7392 18.216 14.1815 17.9106 13.9057C18.3244 13.8663 19.1579 13.7815 19.1815 13.7579C18.7322 13.285 17.9303 13.1274 17.5855 13.1076C17.7923 13.023 18.1967 12.8629 18.2331 12.8691L18.2357 12.8711C18.2357 12.8701 18.2348 12.8694 18.2331 12.8691C16.2232 11.3113 13.2105 12.1621 11.9992 12.9893Z" fill="#A26A2F"/>
<path fill-rule="evenodd" clip-rule="evenodd" d="M12.0033 7.36275C11.9769 6.48266 11.8072 5.25615 11.2606 4.72837C11.2842 4.75202 11.1325 4.99438 11.0537 5.11261C10.9158 4.81704 10.4448 4.19635 9.66452 4.07812L9.93053 4.72837C9.55615 4.51162 8.57092 4.07812 7.62511 4.07812C7.6724 4.07812 7.72363 4.33428 7.74334 4.46236C7.14235 4.42295 5.82216 4.42098 5.34925 4.72837L6.2655 5.11261C5.43792 5.14216 3.77092 5.28995 3.72363 5.64463C3.78275 5.64463 4.81723 5.7333 5.34925 6.32443C5.34925 6.27714 6.72856 7.01409 7.41821 7.38847C7.34925 8.35399 7.48324 10.687 8.57092 12.2949C8.54728 12.3185 8.38373 12.5215 8.30491 12.62L8.57092 12.7678L8.30491 13.418L8.63004 13.3294L8.30491 13.95H9.07339L8.77782 14.8367L9.66452 14.1865V14.8367C10.0882 14.2358 11.1483 13.0456 11.9995 13.0929V7.95005C12.001 7.92024 12.0023 7.8891 12.0033 7.85671C12.0044 7.8891 12.0057 7.92024 12.0072 7.95005V13.0929C12.8584 13.0456 13.9185 14.2358 14.3421 14.8367V14.1865L15.2288 14.8367L14.9333 13.95H15.7018L15.3766 13.3294L15.7018 13.418L15.4357 12.7678L15.7018 12.62C15.6229 12.5215 15.4594 12.3185 15.4357 12.2949C16.5234 10.687 16.6574 8.35399 16.5885 7.38847C17.2781 7.01409 18.6574 6.27714 18.6574 6.32443C19.1894 5.7333 20.2239 5.64463 20.283 5.64463C20.2357 5.28995 18.5687 5.14216 17.7412 5.11261L18.6574 4.72837C18.1845 4.42098 16.8643 4.42295 16.2633 4.46236C16.283 4.33428 16.3343 4.07812 16.3816 4.07812C15.4357 4.07812 14.4505 4.51162 14.0761 4.72837L14.3421 4.07812C13.5619 4.19635 13.0909 4.81704 12.953 5.11261C12.8742 4.99438 12.7224 4.75202 12.7461 4.72837C12.1995 5.25615 12.0297 6.48266 12.0033 7.36275Z" fill="#E49D51"/>
<path fill-rule="evenodd" clip-rule="evenodd" d="M11.9991 5.4082L11.4079 6.47224L11.0828 6.11756L10.669 7.21116L10.4917 6.82692L10.3143 7.77273L9.87097 7.3885V7.77273C9.70349 7.57569 9.25028 7.16387 8.77738 7.09293L8.86605 7.3885C8.53107 7.1619 7.75472 6.73234 7.3291 6.82692C7.35275 6.82692 7.45718 7.37864 7.50644 7.65451L9.7823 9.69391C9.60496 10.5511 9.80004 12.153 11.9991 11.7038C14.1981 12.153 14.3931 10.5511 14.2158 9.69391L16.4917 7.65451C16.5409 7.37864 16.6454 6.82692 16.669 6.82692C16.2434 6.73234 15.467 7.1619 15.1321 7.3885L15.2207 7.09293C14.7478 7.16387 14.2946 7.57569 14.1271 7.77273V7.3885L13.6838 7.77273L13.5064 6.82692L13.3291 7.21116L12.9153 6.11756L12.5902 6.47224L11.9991 5.4082Z" fill="#864821"/>
<path fill-rule="evenodd" clip-rule="evenodd" d="M11.9993 8.00977C12.6791 8.00971 13.8614 8.58862 13.6249 11.7335C13.6204 11.7934 13.6777 11.8261 13.7318 11.7999L14.4054 11.4733C14.5199 11.4178 14.6575 11.4475 14.7389 11.5452C14.8285 11.6527 14.9842 11.6765 15.1018 11.6006L15.5295 11.3247C15.6233 11.2641 15.741 11.3555 15.7057 11.4614L15.5401 11.9583C15.4736 12.1578 15.283 12.2863 15.0737 12.3074C14.259 12.3896 13.0512 12.857 12.8269 14.3049C12.5668 15.9838 12.1766 16.7187 11.9993 16.8764V16.8754C11.8219 16.7178 11.4022 15.9828 11.1421 14.304C10.9178 12.8561 9.70998 12.3887 8.8953 12.3065C8.68601 12.2854 8.49539 12.1569 8.42887 11.9573L8.26325 11.4605C8.22794 11.3545 8.34566 11.2632 8.4395 11.3237L8.86723 11.5997C8.9848 11.6755 9.14048 11.6517 9.23007 11.5442C9.31153 11.4465 9.44912 11.4169 9.56361 11.4724L10.2372 11.7989C10.2913 11.8252 10.3486 11.7925 10.3441 11.7325C10.1076 8.58767 11.3195 8.00972 11.9993 8.00977Z" fill="url(#paint0_linear_2376_7093)"/>
<path fill-rule="evenodd" clip-rule="evenodd" d="M10.8466 10.8177C10.8956 10.8177 10.9353 10.6854 10.9353 10.5221C10.9353 10.3589 10.8956 10.2266 10.8466 10.2266C10.7977 10.2266 10.758 10.3589 10.758 10.5221C10.758 10.6854 10.7977 10.8177 10.8466 10.8177ZM13.1521 10.8177C13.1031 10.8177 13.0634 10.6854 13.0634 10.5221C13.0634 10.3589 13.1031 10.2266 13.1521 10.2266C13.201 10.2266 13.2407 10.3589 13.2407 10.5221C13.2407 10.6854 13.201 10.8177 13.1521 10.8177ZM8.71049 11.7044C8.75501 11.7044 8.7911 11.7397 8.7911 11.7832C8.7911 11.8154 8.80475 11.86 8.87415 11.8962C8.94937 11.9354 9.09186 11.965 9.34772 11.9412C9.93795 11.8862 10.2434 12.2252 10.3692 12.3993C10.3948 12.4349 10.3207 12.3362 10.3692 12.3993C10.3207 12.3362 10.3207 12.3362 10.3692 12.3993C10.2799 12.2757 9.90129 12.048 9.363 12.0981C9.09427 12.1231 8.91432 12.0958 8.79826 12.0353C8.67636 11.9717 8.62988 11.8736 8.62988 11.7832C8.62988 11.7397 8.66597 11.7044 8.71049 11.7044ZM15.2076 11.7832C15.2076 11.7397 15.2437 11.7044 15.2882 11.7044C15.3327 11.7044 15.3688 11.7397 15.3688 11.7832C15.3688 11.8736 15.3223 11.9717 15.2004 12.0353C15.0844 12.0958 14.9044 12.1231 14.6357 12.0981C14.0974 12.048 13.7438 12.2873 13.6545 12.4109C13.6288 12.4465 13.6447 12.4245 13.6545 12.4109C13.6463 12.4223 13.6288 12.4465 13.6545 12.4109C13.7802 12.2368 14.0607 11.8862 14.651 11.9412C14.9068 11.965 15.0493 11.9354 15.1245 11.8962C15.1939 11.86 15.2076 11.8154 15.2076 11.7832Z" fill="#A26A2F"/>
<path d="M6.16443 8.10387L6.24323 7.05971C6.25454 6.90992 6.40144 6.80849 6.5442 6.85524C8.63717 7.54061 9.57451 8.74644 9.87083 9.47544C9.92762 9.61516 9.81722 9.75426 9.66639 9.75426H9.1694C9.11852 9.75426 8.98914 9.81518 8.95407 9.85204C7.66604 11.2061 6.798 9.757 6.48127 8.73439C6.45446 8.64783 6.4067 8.56933 6.33935 8.50871L6.31964 8.49097C6.21073 8.39295 6.1534 8.24998 6.16443 8.10387Z" fill="#330A14"/>
<path d="M17.6129 8.10387L17.5341 7.05971C17.5228 6.90992 17.3759 6.80849 17.2331 6.85524C15.1402 7.54061 14.2028 8.74644 13.9065 9.47544C13.8497 9.61516 13.9601 9.75426 14.1109 9.75426H14.6079C14.6588 9.75426 14.7882 9.81518 14.8233 9.85204C16.1113 11.2061 16.9793 9.757 17.2961 8.73439C17.3229 8.64783 17.3706 8.56933 17.438 8.50871L17.4577 8.49097C17.5666 8.39295 17.6239 8.24998 17.6129 8.10387Z" fill="#330A14"/>
<path d="M9.51627 8.98616C9.51627 9.835 8.82816 10.5231 7.97933 10.5231C7.1305 10.5231 6.44238 9.835 6.44238 8.98616C6.44238 8.13733 7.1305 7.44922 7.97933 7.44922C8.82816 7.44922 9.51627 8.13733 9.51627 8.98616Z" fill="url(#paint1_radial_2376_7093)"/>
<path d="M11.822 8.867C11.822 10.2055 10.0884 11.2906 7.95005 11.2906C5.81164 11.2906 4.07812 10.2055 4.07812 8.867C4.07812 7.52846 5.81164 6.44336 7.95005 6.44336C10.0884 6.44336 11.822 7.52846 11.822 8.867Z" fill="url(#paint2_radial_2376_7093)"/>
<path d="M19.5661 8.867C19.5661 10.2055 17.8326 11.2906 15.6942 11.2906C13.5558 11.2906 11.8223 10.2055 11.8223 8.867C11.8223 7.52846 13.5558 6.44336 15.6942 6.44336C17.8326 6.44336 19.5661 7.52846 19.5661 8.867Z" fill="url(#paint3_radial_2376_7093)"/>
<path d="M14.2611 8.98616C14.2611 9.835 14.9492 10.5231 15.798 10.5231C16.6468 10.5231 17.335 9.835 17.335 8.98616C17.335 8.13733 16.6468 7.44922 15.798 7.44922C14.9492 7.44922 14.2611 8.13733 14.2611 8.98616Z" fill="url(#paint4_radial_2376_7093)"/>
<path d="M8.80752 8.98579C8.80752 9.44285 8.43699 9.81338 7.97993 9.81338C7.52287 9.81338 7.15234 9.44285 7.15234 8.98579C7.15234 8.52873 7.52287 8.1582 7.97993 8.1582C8.43699 8.1582 8.80752 8.52873 8.80752 8.98579Z" fill="url(#paint5_radial_2376_7093)"/>
<path d="M14.9698 8.98579C14.9698 9.44285 15.3404 9.81338 15.7974 9.81338C16.2545 9.81338 16.625 9.44285 16.625 8.98579C16.625 8.52873 16.2545 8.1582 15.7974 8.1582C15.3404 8.1582 14.9698 8.52873 14.9698 8.98579Z" fill="url(#paint6_radial_2376_7093)"/>
<path d="M6.9812 9.81407C7.15647 9.64596 7.43124 9.63996 7.61368 9.80026V9.80026C7.8006 9.96449 7.82622 10.2463 7.67199 10.4416L2.66883 16.7751C2.49917 16.9899 2.18316 17.0162 1.98029 16.8325L1.16482 16.094C0.961537 15.9098 0.956992 15.592 1.15493 15.4021L6.9812 9.81407Z" fill="url(#paint7_radial_2376_7093)"/>
<path d="M14.3512 10.1678C14.5545 9.92498 14.9106 9.87995 15.1679 10.0645L15.6296 10.3956C15.8925 10.5841 15.9607 10.946 15.7844 11.2172L5.4977 27.0473C5.30741 27.3402 4.90943 27.4116 4.62917 27.2033L2.34423 25.5045C2.06498 25.2969 2.01791 24.8971 2.2413 24.6303L14.3512 10.1678Z" fill="url(#paint8_radial_2376_7093)"/>
<path d="M6.45796 10.1555C6.69572 9.9275 7.06846 9.91937 7.31595 10.1368V10.1368C7.56951 10.3596 7.60427 10.7419 7.39504 11.0068L0.608003 19.5986C0.377846 19.8899 -0.0508356 19.9256 -0.326043 19.6764L-1.43226 18.6745C-1.70803 18.4248 -1.7142 17.9936 -1.44568 17.736L6.45796 10.1555Z" fill="url(#paint9_radial_2376_7093)"/>
<path d="M14.5207 10.4588C14.6947 10.2376 15.012 10.1926 15.2407 10.3566V10.3566C15.4722 10.5227 15.5295 10.8429 15.3698 11.0789L4.75847 26.762C4.56369 27.0499 4.167 27.1149 3.8905 26.9043L2.93414 26.1758C2.6653 25.971 2.61629 25.5857 2.8253 25.3201L14.5207 10.4588Z" fill="url(#paint10_radial_2376_7093)"/>
<path d="M7.25664 9.59537C7.41145 9.43499 7.66506 9.42486 7.83217 9.57237V9.57237C8.00138 9.72173 8.02091 9.97866 7.87623 10.1519L-1.62876 21.5316C-1.86496 21.8144 -2.29028 21.8405 -2.55936 21.5888L-3.00923 21.168C-3.27087 20.9233 -3.28137 20.5117 -3.03255 20.254L7.25664 9.59537Z" fill="url(#paint11_radial_2376_7093)"/>
</g>
</g>
<defs>
<linearGradient id="paint0_linear_2376_7093" x1="11.9845" y1="8.00977" x2="11.9845" y2="16.8764" gradientUnits="userSpaceOnUse">
<stop stop-color="#FFD668"/>
<stop offset="1" stop-color="#FFFBF3"/>
</linearGradient>
<radialGradient id="paint1_radial_2376_7093" cx="0" cy="0" r="1" gradientUnits="userSpaceOnUse" gradientTransform="translate(7.97933 8.98616) rotate(90) scale(1.53695)">
<stop stop-color="#E6382F"/>
<stop offset="1" stop-color="#E6382F" stop-opacity="0"/>
</radialGradient>
<radialGradient id="paint2_radial_2376_7093" cx="0" cy="0" r="1" gradientUnits="userSpaceOnUse" gradientTransform="translate(7.95005 8.867) rotate(90) scale(2.42365 3.87192)">
<stop stop-color="#E6382F"/>
<stop offset="1" stop-color="#E6382F" stop-opacity="0"/>
</radialGradient>
<radialGradient id="paint3_radial_2376_7093" cx="0" cy="0" r="1" gradientUnits="userSpaceOnUse" gradientTransform="translate(15.6942 8.867) rotate(90) scale(2.42365 3.87192)">
<stop stop-color="#E6382F"/>
<stop offset="1" stop-color="#E6382F" stop-opacity="0"/>
</radialGradient>
<radialGradient id="paint4_radial_2376_7093" cx="0" cy="0" r="1" gradientUnits="userSpaceOnUse" gradientTransform="translate(15.798 8.98616) rotate(90) scale(1.53695)">
<stop stop-color="#E6382F"/>
<stop offset="1" stop-color="#E6382F" stop-opacity="0"/>
</radialGradient>
<radialGradient id="paint5_radial_2376_7093" cx="0" cy="0" r="1" gradientUnits="userSpaceOnUse" gradientTransform="translate(7.97993 8.98579) rotate(90) scale(0.827586)">
<stop stop-color="white"/>
<stop offset="1" stop-color="white" stop-opacity="0"/>
</radialGradient>
<radialGradient id="paint6_radial_2376_7093" cx="0" cy="0" r="1" gradientUnits="userSpaceOnUse" gradientTransform="translate(15.7974 8.98579) rotate(90) scale(0.827586)">
<stop stop-color="white"/>
<stop offset="1" stop-color="white" stop-opacity="0"/>
</radialGradient>
<radialGradient id="paint7_radial_2376_7093" cx="0" cy="0" r="1" gradientUnits="userSpaceOnUse" gradientTransform="translate(4.5346 13.0909) rotate(131.548) scale(4.97929 1.16802)">
<stop stop-color="#E6382F"/>
<stop offset="1" stop-color="#E6382F" stop-opacity="0"/>
</radialGradient>
<radialGradient id="paint8_radial_2376_7093" cx="0" cy="0" r="1" gradientUnits="userSpaceOnUse" gradientTransform="translate(9.3186 18.2247) rotate(125.861) scale(11.0988 2.28408)">
<stop stop-color="#E6382F"/>
<stop offset="1" stop-color="#E6382F" stop-opacity="0"/>
</radialGradient>
<radialGradient id="paint9_radial_2376_7093" cx="0" cy="0" r="1" gradientUnits="userSpaceOnUse" gradientTransform="translate(3.13902 14.6008) rotate(131.548) scale(6.75466 1.58448)">
<stop stop-color="#E6382F"/>
<stop offset="1" stop-color="#E6382F" stop-opacity="0"/>
</radialGradient>
<radialGradient id="paint10_radial_2376_7093" cx="0" cy="0" r="1" gradientUnits="userSpaceOnUse" gradientTransform="translate(9.25292 18.4176) rotate(124.627) scale(8.65868 1.05912)">
<stop stop-color="white"/>
<stop offset="1" stop-color="#E6382F" stop-opacity="0"/>
</radialGradient>
<radialGradient id="paint11_radial_2376_7093" cx="0" cy="0" r="1" gradientUnits="userSpaceOnUse" gradientTransform="translate(2.46967 15.4466) rotate(130.415) scale(6.85838 0.838909)">
<stop stop-color="white"/>
<stop offset="1" stop-color="#E6382F" stop-opacity="0"/>
</radialGradient>
<clipPath id="clip0_2376_7093">
<rect width="24" height="24" fill="white"/>
</clipPath>
</defs>
</svg>
