<svg width="23" height="24" viewBox="0 0 23 24" fill="none" xmlns="http://www.w3.org/2000/svg">
<g clip-path="url(#clip0_944_917)">
<circle cx="12" cy="13" r="11" fill="white"/>
<path d="M3.13439 11.3247C3.13439 11.3647 3.1384 11.4047 3.1384 11.4448C3.15841 11.685 3.17042 11.9252 3.20645 12.1654C3.22247 12.2655 3.23848 12.4176 3.40262 12.3856C3.53873 12.3575 3.67484 12.2975 3.66684 12.1133C3.67885 12.1013 3.69486 12.0893 3.70687 12.0773C3.79895 12.0933 3.89102 12.1053 3.9831 12.1213C4.16725 12.2935 4.3434 12.4776 4.54357 12.6298C5.04398 13.0061 5.62446 13.1942 6.22897 13.3183C6.39711 13.3544 6.57325 13.3624 6.80144 13.3864C6.71737 13.2863 6.66933 13.2263 6.62129 13.1702C6.35307 12.8539 6.32505 12.4216 6.72538 12.1774C7.18176 11.9012 7.68218 11.7811 8.20261 11.765C8.97125 11.741 9.73989 11.745 10.4965 11.9452C11.065 12.0933 11.6215 12.2454 12.1219 12.5617C12.326 12.87 12.5542 13.1662 12.7344 13.4905C12.8465 13.6946 12.8905 13.9388 12.9666 14.163C12.9666 14.3792 12.9666 14.5914 12.9666 14.8076C12.9265 14.9557 12.8985 15.1038 12.8505 15.2439C12.6103 15.9725 12.1619 16.549 11.5694 17.0334C10.4885 17.9142 9.23547 18.3225 7.86633 18.4106C7.45799 18.4346 7.04565 18.3946 6.6333 18.3825C6.59327 18.3785 6.55324 18.3785 6.5132 18.3745C6.35707 18.3425 6.20094 18.3145 6.04882 18.2785C5.27217 18.0863 4.53156 17.8021 3.85099 17.3697C2.93823 16.7932 2.1776 16.0566 1.55308 15.1799C1.32489 14.8556 1.1047 14.5273 0.880517 14.1991C0.856497 14.131 0.832477 14.063 0.804453 13.9989C0.616297 13.5986 0.424137 13.2022 0.23598 12.8019C0.23598 12.6338 0.227974 12.4656 0.23598 12.2975C0.255997 11.9812 0.288024 11.665 0.30804 11.3487C0.312044 11.3007 0.28402 11.2486 0.27201 11.2006C0.27201 11.1605 0.276014 11.1205 0.276014 11.0845C0.312044 11.0284 0.372094 10.9764 0.388107 10.9163C0.45216 10.6281 0.496197 10.3358 0.56025 10.0476C0.58427 9.92751 0.616297 9.7994 0.672344 9.69131C0.780433 9.49115 0.816463 9.28297 0.77643 9.06279C0.784437 9.03076 0.792444 8.99874 0.80045 8.96271C0.840483 8.93068 0.89653 8.90666 0.916547 8.86663C1.00462 8.66646 1.09269 8.46229 1.16475 8.25412C1.19278 8.17405 1.18477 8.08598 1.19278 7.9979C1.19278 7.96988 1.19278 7.94586 1.19678 7.91784C1.20879 7.91784 1.2168 7.91383 1.22881 7.91383C1.27284 7.88981 1.3369 7.8778 1.36092 7.84177C1.54107 7.56154 1.64515 7.24528 1.85333 6.97705C2.02947 6.74886 2.13356 6.47263 2.3017 6.23644C2.46984 5.99624 2.67401 5.78006 2.87017 5.55587C3.15441 5.2316 3.44665 4.91133 3.73089 4.58706C3.81496 4.49098 3.88302 4.37889 3.95908 4.2748C4.04315 4.23877 4.13523 4.21475 4.20328 4.16271C4.38744 4.01859 4.56358 3.85845 4.74373 3.70633C4.77976 3.6743 4.83181 3.63827 4.87584 3.63827C5.02797 3.63827 5.05599 3.5542 5.03998 3.4301C5.064 3.41008 5.09202 3.39407 5.11604 3.37405C5.15207 3.35003 5.19211 3.32601 5.22814 3.30199C5.24815 3.306 5.27217 3.314 5.28819 3.30599C5.59644 3.14987 5.90069 2.99373 6.20495 2.8296C6.273 2.79357 6.32104 2.7175 6.3931 2.68548C6.64531 2.56137 6.90153 2.44528 7.16174 2.33318C7.40995 2.22509 7.65816 2.12101 7.91437 2.03293C8.13856 1.95687 8.37075 1.92084 8.59494 1.84878C8.85515 1.76471 9.12738 1.78473 9.39961 1.68865C9.79994 1.54853 10.2563 1.53252 10.6887 1.5165C11.5974 1.48448 12.5102 1.48448 13.4109 1.65262C13.531 1.67664 13.6431 1.72868 13.7632 1.76871C13.8753 1.80474 13.9834 1.84878 14.0955 1.8688C14.2837 1.90483 14.4758 1.91283 14.66 1.95287C14.7881 1.97689 14.9082 2.03294 15.0323 2.07697C15.1444 2.113 15.1684 2.19707 15.0963 2.27714C14.9082 2.48932 14.712 2.68948 14.5079 2.88565C14.2997 3.08982 14.0875 3.28998 13.8673 3.47414C13.5391 3.74636 13.2028 4.01058 12.8585 4.2668C12.7304 4.36288 12.6543 4.31083 12.6463 4.1467C12.6423 4.04661 12.6543 3.94252 12.6223 3.85045C12.5502 3.64228 12.4501 3.43811 12.3621 3.23394C12.4421 3.13786 12.5262 3.06179 12.6743 3.06179C12.7504 3.06179 12.8345 2.97772 12.8985 2.91767C13.0106 2.80558 12.9706 2.64544 12.8185 2.60941C12.6303 2.56538 12.4341 2.54536 12.242 2.51333C12.0138 2.51333 11.7896 2.51333 11.5614 2.51333C11.1731 2.52534 10.7888 2.53735 10.4004 2.55337C10.3724 2.55337 10.3484 2.55337 10.3204 2.55337C10.2803 2.55337 10.2403 2.55337 10.2003 2.55337C10.1202 2.57739 10.0361 2.60541 9.95607 2.62943C9.91604 2.62943 9.876 2.62943 9.83597 2.62943C9.80795 2.64144 9.77992 2.65745 9.7559 2.66946C9.52771 2.7095 9.30353 2.74953 9.07534 2.78956C8.87517 2.84161 8.675 2.89365 8.47484 2.9457C8.44681 2.9457 8.42279 2.9497 8.39477 2.9497C8.30269 2.98973 8.20661 3.02977 8.11454 3.06579C8.03447 3.09782 7.95841 3.13786 7.87834 3.16188C7.21379 3.34603 6.61729 3.68231 6.03681 4.04261C5.08001 4.6351 4.23931 5.36771 3.53473 6.24044C3.23448 6.61275 2.98627 7.0331 2.71805 7.42943C2.69002 7.46946 2.666 7.5095 2.63798 7.54953C2.58193 7.65362 2.52989 7.76171 2.47384 7.86579C2.33773 8.14202 2.18961 8.41025 2.0655 8.69448C1.98544 8.87864 1.9374 9.0788 1.87334 9.27096C1.76525 9.59123 1.66117 9.9115 1.55308 10.2318C1.51304 10.3799 1.47301 10.524 1.43298 10.6721C1.42097 10.7002 1.40896 10.7242 1.39294 10.7522C1.38093 10.9003 1.36492 11.0444 1.35291 11.1926C1.32489 11.2526 1.28485 11.3127 1.27685 11.3807C1.26083 11.4928 1.26484 11.6049 1.26484 11.721C1.26884 12.0373 1.26484 12.3535 1.28085 12.6698C1.28485 12.7859 1.38093 12.8259 1.48502 12.7859C1.54507 12.7619 1.60112 12.7218 1.64916 12.6778C1.88936 12.4536 2.12155 12.2214 2.36175 12.0012C2.50187 11.8731 2.662 11.769 2.79811 11.6409C2.9022 11.5449 2.98227 11.4208 3.07434 11.3127C3.09436 11.3167 3.11438 11.3207 3.13439 11.3247Z" fill="#4089C7"/>
<path d="M12.1223 12.5631C11.6219 12.2469 11.0654 12.0947 10.4969 11.9466C9.73629 11.7504 8.97165 11.7424 8.20301 11.7665C7.68258 11.7825 7.17816 11.9026 6.72578 12.1788C6.32545 12.423 6.35347 12.8554 6.62169 13.1716C6.66973 13.2277 6.71777 13.2877 6.80185 13.3878C6.57365 13.3598 6.39751 13.3518 6.22937 13.3198C5.62486 13.1956 5.04438 13.0075 4.54396 12.6312C4.3438 12.479 4.17165 12.2949 3.9835 12.1228C3.9835 12.0947 3.97949 12.0667 3.97949 12.0347C4.01552 11.9946 4.04355 11.9386 4.08758 11.9106C4.29576 11.7945 4.50793 11.6864 4.71611 11.5703C5.32862 11.234 5.98917 11.0338 6.66173 10.8937C7.13012 10.7936 7.62253 10.7816 8.10293 10.7656C8.4232 10.7576 8.74346 10.8097 9.06373 10.8377C9.45205 10.8737 9.84839 10.8857 10.2247 10.9698C10.8092 11.1019 11.3857 11.282 11.9621 11.4462C12.0502 11.4702 12.1303 11.5303 12.2184 11.5503C12.2664 11.5623 12.3345 11.5303 12.3705 11.4982C12.3865 11.4822 12.3585 11.4021 12.3345 11.3621C12.2224 11.186 12.1063 11.0138 11.9942 10.8497C12.0782 10.8097 12.1343 10.7856 12.1903 10.7576C12.2384 10.7496 12.2864 10.7416 12.3425 10.7336C12.2944 10.4534 12.1703 10.2532 11.9061 10.1571C11.8541 10.1011 11.802 10.049 11.75 9.99297C11.758 9.82083 11.8461 9.7808 12.0102 9.81683C12.5506 9.92892 13.0991 10.009 13.6195 10.2052C13.7757 10.2652 13.9398 10.2972 14.0919 10.3653C14.3601 10.4934 14.6244 10.6295 14.8806 10.7776C15.2289 10.9778 15.5932 11.166 15.9014 11.4142C16.3218 11.7544 16.7141 12.1348 17.0984 12.5191C17.6429 13.0675 18.0512 13.7161 18.3675 14.4207C18.5997 14.9291 18.8319 15.4375 18.932 15.99C19.016 16.4504 19.1201 16.9107 19.1481 17.3751C19.2002 18.2599 19.0921 19.1286 18.7558 19.9613C18.5757 20.4057 18.4115 20.862 18.1033 21.2424C18.0672 21.2864 18.0833 21.3745 18.0752 21.4385C18.0632 21.4505 18.0552 21.4625 18.0432 21.4746C18.0232 21.4786 18.0072 21.4786 17.9872 21.4826C17.9511 21.5386 17.9151 21.5947 17.8751 21.6507C17.839 21.7027 17.811 21.7628 17.763 21.8068C16.9463 22.5675 16.0095 23.1159 14.9486 23.4602C13.6275 23.8886 12.2744 24.0287 10.8973 23.9726C9.36799 23.9086 7.90677 23.5323 6.52561 22.8757C5.74897 22.5074 5.02837 22.039 4.35581 21.4986C4.33579 21.4826 4.32378 21.4585 4.30777 21.4385C4.53596 21.5586 4.75614 21.6867 4.99234 21.7948C5.52078 22.039 6.04521 22.3032 6.62169 22.4233C6.95397 22.4954 7.28625 22.5715 7.61853 22.6435C7.73863 22.6675 7.85873 22.6956 7.98283 22.7196C8.17099 22.7196 8.35514 22.7196 8.5433 22.7196C9.20785 22.7676 9.85639 22.6475 10.5049 22.5194C10.545 22.4914 10.585 22.4674 10.625 22.4394C10.6931 22.4394 10.7571 22.4394 10.8252 22.4394C11.6939 22.2272 12.4946 21.8429 13.2312 21.3545C13.8037 20.9701 14.3401 20.5258 14.7765 19.9653C15.0968 19.557 15.393 19.1406 15.6172 18.6762C16.0175 17.8395 16.1817 16.9708 15.9935 16.05C15.9255 15.7097 15.8294 15.3815 15.6492 15.0452C15.5611 15.2494 15.5011 15.4295 15.417 15.5936C15.3009 15.8138 15.1608 16.022 15.0327 16.2382C14.9126 16.3463 14.7925 16.4504 14.6724 16.5585C14.6044 16.6105 14.5403 16.6665 14.4722 16.7186C14.3521 16.7987 14.232 16.8787 14.1119 16.9588C14.0839 16.9708 14.0599 16.9868 14.0319 16.9988C14.0038 16.9308 13.9798 16.8667 13.9518 16.7987C13.9638 16.7306 13.9798 16.6665 13.9918 16.5985C14.0038 16.5705 14.0199 16.5464 14.0319 16.5184C14.0439 16.4384 14.0599 16.3583 14.0719 16.2782C14.0839 16.1982 14.0999 16.1181 14.1119 16.038C14.0839 15.6897 14.0839 15.3374 14.0239 14.9931C13.9678 14.6809 13.8958 14.3526 13.7476 14.0764C13.5395 13.6921 13.2632 13.3478 12.9109 13.0755C12.7508 12.9314 12.5987 12.7753 12.4265 12.6512C12.3505 12.5991 12.2264 12.5951 12.1223 12.5631Z" fill="#252F71"/>
<path d="M7.6297 22.6546C7.29742 22.5826 6.96514 22.5065 6.63287 22.4344C6.05639 22.3103 5.53195 22.0501 5.00351 21.8059C4.77132 21.6978 4.54713 21.5697 4.31894 21.4496L4.31093 21.4416C4.2709 21.4056 4.22686 21.3695 4.18683 21.3335C4.1468 21.2975 4.10676 21.2655 4.07073 21.2294C4.01469 21.1854 3.96264 21.1373 3.9066 21.0933C3.26606 20.5409 2.7136 19.9163 2.2252 19.2318C1.59267 18.347 1.10026 17.3862 0.75197 16.3574C0.611853 15.941 0.515773 15.5087 0.399677 15.0843C0.41569 15.0723 0.431703 15.0563 0.45172 15.0443C0.435707 15.0323 0.41569 15.0203 0.399677 15.0082C0.35564 14.7801 0.315607 14.5519 0.27157 14.3237C0.27157 14.2836 0.267567 14.2436 0.267567 14.2076C0.25956 14.1515 0.24755 14.0955 0.239543 14.0434C0.231537 14.0034 0.227533 13.9674 0.219527 13.9273C0.207517 13.8192 0.19951 13.7112 0.1875 13.6031C0.21152 13.475 0.23554 13.3509 0.255557 13.2188C0.375657 13.4549 0.471737 13.6831 0.599843 13.8953C0.6679 14.0114 0.783997 14.0955 0.876073 14.1956C0.864063 14.2676 0.856057 14.3397 0.852053 14.3717C0.98016 14.5479 1.09225 14.704 1.19634 14.8601C1.36848 15.1123 1.53262 15.3765 1.71277 15.6248C1.81285 15.7649 1.94496 15.881 2.05706 16.0131C2.16915 16.1452 2.25322 16.3053 2.38133 16.4174C2.84171 16.8298 3.33012 17.2061 3.86656 17.5143C4.16681 17.6865 4.48308 17.8306 4.79534 17.9827C4.95547 18.0588 5.1116 18.1469 5.27974 18.1989C5.48391 18.267 5.70009 18.323 5.91227 18.351C6.10843 18.379 6.3126 18.363 6.51277 18.367C6.5528 18.371 6.59283 18.371 6.63287 18.375C6.75297 18.4231 6.86906 18.4992 6.99317 18.5192C7.30943 18.5632 7.6377 18.4671 7.95397 18.5952C8.04204 18.6313 8.18616 18.6032 8.27824 18.5552C8.45038 18.4591 8.61852 18.3991 8.82269 18.3991C8.99483 18.3991 9.17098 18.347 9.33512 18.291C9.56731 18.2109 9.7915 18.1068 10.0237 18.0188C10.364 17.8866 10.7123 17.7625 11.0525 17.6304C11.1006 17.6104 11.1406 17.5704 11.1807 17.5383C11.3168 17.4182 11.4489 17.2941 11.585 17.174C11.8252 16.9619 12.0974 16.7777 12.2976 16.5295C12.5138 16.2613 12.6659 15.945 12.834 15.6408C12.9741 15.3806 13.0382 15.1003 12.9621 14.8041C12.9621 14.5879 12.9621 14.3757 12.9621 14.1595C12.9621 13.9954 12.9621 13.8313 12.9621 13.6511C12.9822 13.6551 13.0502 13.6551 13.0582 13.6751C13.1503 13.9073 13.2464 14.1355 13.3104 14.3757C13.3585 14.5599 13.3665 14.756 13.3825 14.9442C13.4185 15.4006 13.3865 15.8489 13.2304 16.2853C13.1983 16.3734 13.2304 16.5255 13.2944 16.5976C13.3785 16.6936 13.5066 16.6576 13.5867 16.5495C13.6627 16.4494 13.7268 16.3454 13.7948 16.2413C13.8229 16.2413 13.8469 16.2413 13.8749 16.2413C13.943 16.2533 14.007 16.2693 14.0751 16.2813C14.0631 16.3614 14.047 16.4414 14.035 16.5215C14.023 16.5495 14.007 16.5735 13.995 16.6016C13.983 16.6696 13.967 16.7337 13.955 16.8017C13.9349 16.8858 13.9109 16.9659 13.8909 17.0499C13.9389 17.0339 13.987 17.0179 14.035 17.0019C14.0631 16.9899 14.0871 16.9739 14.1151 16.9619C14.2832 16.9579 14.4474 16.9378 14.4754 16.7217C14.5435 16.6696 14.6075 16.6136 14.6756 16.5615C14.8757 16.4695 14.9638 16.5735 15.0279 16.7457C15.0719 16.8618 15.1399 16.9699 15.196 17.082C15.196 17.2421 15.196 17.4022 15.196 17.5624C15.156 17.5824 15.0959 17.5904 15.0839 17.6184C15.0078 17.8626 14.9438 18.1068 14.8757 18.351C14.8437 18.4631 14.8357 18.6032 14.7636 18.6793C14.5795 18.8755 14.4954 19.1117 14.4354 19.3639C14.3793 19.4079 14.3153 19.4399 14.2752 19.492C14.1791 19.6081 14.1151 19.7682 13.999 19.8443C13.7668 19.9924 13.6347 20.1886 13.5586 20.4408C13.5066 20.4808 13.4505 20.5208 13.3985 20.5609C13.3585 20.5809 13.3144 20.5969 13.2784 20.6209C13.0302 20.7971 12.798 21.0012 12.5298 21.1373C12.3536 21.2294 12.2575 21.3295 12.2375 21.5177C12.1855 21.5337 12.1294 21.5457 12.0774 21.5617C12.0133 21.6017 11.9493 21.6498 11.8812 21.6778C11.7571 21.7338 11.625 21.7739 11.5009 21.8299C11.2047 21.962 10.9084 22.1022 10.6082 22.2303C10.368 22.3303 10.0597 22.2423 9.87957 22.5105C9.86756 22.5305 9.80351 22.5185 9.76347 22.5225C9.38316 22.5625 9.00684 22.6026 8.62653 22.6466C8.5985 22.6506 8.57849 22.6946 8.55046 22.7227C8.36231 22.7227 8.17815 22.7227 7.99 22.7227C7.89792 22.5785 7.7498 22.6866 7.6297 22.6546Z" fill="#151D41"/>
<path d="M20.233 5.6415C20.265 5.68153 20.297 5.71756 20.329 5.75759L20.317 5.7656C20.313 5.7696 20.305 5.77361 20.305 5.77761C20.309 5.78562 20.317 5.79362 20.321 5.80163C20.337 5.82965 20.3491 5.85367 20.3651 5.8817C20.3571 6.0018 20.3811 6.10188 20.5252 6.1219C20.5212 6.23799 20.5732 6.29804 20.6933 6.27402H20.6973C20.6933 6.29004 20.6893 6.30605 20.6853 6.32206C20.7053 6.33407 20.7254 6.34608 20.7494 6.35409C20.7614 6.35409 20.7694 6.35809 20.7774 6.3661H20.7734C20.8014 6.41414 20.8335 6.46618 20.8615 6.51422C20.8415 6.59829 20.8254 6.68236 20.8054 6.76243C20.7414 6.77044 20.6813 6.77844 20.6173 6.78645C20.6293 6.82648 20.6333 6.87452 20.6573 6.90655C20.6773 6.93057 20.7214 6.93057 20.7574 6.94258C20.7734 6.88253 20.7894 6.82248 20.8094 6.76643C20.8815 6.76643 20.9496 6.76243 21.0216 6.76243C21.0416 6.79446 21.0656 6.82648 21.0857 6.85851C21.0857 6.87052 21.0897 6.88253 21.0897 6.89454C21.0376 7.06268 21.2418 7.46702 21.45 7.60713C21.49 7.69921 21.53 7.79529 21.5701 7.88737C21.5621 8.05951 21.6181 8.19562 21.7702 8.2917C21.7702 8.30371 21.7702 8.31572 21.7702 8.32773C21.7662 8.49187 21.7903 8.63999 21.9824 8.68803L21.9864 8.70405C21.9944 8.79212 21.9864 8.8882 22.0104 8.97227C22.1105 9.29254 22.2226 9.6088 22.3307 9.92907C22.3307 9.94108 22.3307 9.95709 22.3307 9.9691C22.3027 10.0211 22.2586 10.0772 22.2546 10.1332C22.2306 10.3494 22.3547 10.5015 22.4908 10.6497C22.4908 10.6897 22.4948 10.7297 22.4948 10.7698C22.5349 11.09 22.5749 11.4103 22.6149 11.7306C22.6149 11.8627 22.6149 11.9948 22.6189 12.1269C22.6189 12.4632 22.6189 12.7995 22.6189 13.1357C22.6189 13.2398 22.6189 13.3439 22.6189 13.448C22.6189 13.464 22.6189 13.48 22.6189 13.492C22.6189 13.5441 22.6189 13.5961 22.6149 13.6482C22.5829 13.7442 22.5389 13.8403 22.5189 13.9444C22.4988 14.0445 22.5028 14.1486 22.4948 14.2527C22.4948 14.2927 22.4948 14.3287 22.4948 14.3688C22.4948 14.4368 22.4948 14.5049 22.4948 14.5729C22.4948 14.625 22.4908 14.677 22.4908 14.7291C22.4228 14.7691 22.3587 14.8091 22.2907 14.8492C22.2586 14.7411 22.2266 14.633 22.1986 14.5249C22.1906 14.4849 22.1786 14.4488 22.1706 14.4088C22.1586 14.3568 22.1466 14.3007 22.1345 14.2487C22.1305 14.2246 22.1305 14.1966 22.1265 14.1726C22.1185 14.0565 22.1105 13.9444 22.1025 13.8283C22.0865 13.8323 22.0705 13.8403 22.0505 13.8443C22.0385 13.8403 22.0265 13.8403 22.0144 13.8403C22.0144 13.8163 22.0144 13.7923 22.0144 13.7683C22.0265 13.7282 22.0585 13.6882 22.0505 13.6522C21.9864 13.4 21.9264 13.1397 21.8383 12.8955C21.7542 12.6593 21.6341 12.4312 21.53 12.203C21.47 12.0668 21.4059 11.9347 21.3419 11.7986C21.3579 11.7866 21.3739 11.7746 21.3899 11.7666C21.3018 11.7266 21.2138 11.6905 21.1217 11.6505C21.1097 11.6505 21.0977 11.6465 21.0857 11.6505C21.0857 11.6265 21.0817 11.6065 21.0817 11.5824C21.0737 11.5104 21.0937 11.4223 21.0576 11.3703C20.9055 11.1341 20.7454 10.8979 20.5692 10.6777C20.3531 10.4095 20.1169 10.1573 19.8807 9.90505C19.7726 9.78895 19.6365 9.70088 19.5164 9.59679C19.4763 9.56076 19.4483 9.50872 19.4123 9.46468C19.4643 9.43666 19.5244 9.37661 19.5724 9.38461C19.8246 9.42865 20.0768 9.4847 20.329 9.55275C20.6973 9.65284 21.0616 9.76893 21.4259 9.88103C21.6061 9.9651 21.7862 10.0452 21.9664 10.1292C21.9704 10.1172 21.9744 10.1052 21.9784 10.0972C21.9224 10.0492 21.8623 10.0011 21.8063 9.95309C21.7943 9.90905 21.7782 9.86101 21.7662 9.81697C21.7742 9.70088 21.7222 9.64883 21.6061 9.65684C21.5941 9.64483 21.5781 9.63282 21.5661 9.61681C21.546 9.55275 21.526 9.4887 21.502 9.42465C21.47 9.44466 21.438 9.46468 21.4059 9.4847C21.3619 9.43666 21.3139 9.38862 21.2698 9.33657C21.3058 9.20446 21.1537 9.04833 20.9856 9.04033L20.9736 9.02832C21.0176 8.8882 20.9496 8.8842 20.8455 8.92423C20.8335 8.91222 20.8174 8.90021 20.8054 8.8882C20.8655 8.78011 20.8094 8.72006 20.7174 8.66401C20.2049 8.35175 19.8406 7.83532 19.2601 7.61914C19.2401 7.61114 19.2321 7.5671 19.2121 7.55909C19.036 7.48303 18.8558 7.41097 18.6757 7.33491L18.6797 7.3229L18.6757 7.33491C18.6917 7.23482 18.7077 7.13074 18.7197 7.04266C18.5796 7.05067 18.4395 7.09871 18.3394 7.05868C17.943 6.89054 17.6348 6.53424 17.1584 6.53824C17.1224 6.53824 17.0903 6.49421 17.0543 6.4822C16.7701 6.39813 16.4858 6.31806 16.2056 6.23799C16.1496 6.21397 16.0975 6.18995 16.0415 6.16593C16.0295 6.16593 16.0174 6.16593 16.0014 6.16593C15.9454 6.14191 15.8933 6.11389 15.8373 6.08987C15.8093 6.08987 15.7852 6.08987 15.7572 6.08987C15.521 6.02181 15.2888 5.94575 15.0486 5.89371C14.8485 5.84967 14.6403 5.83366 14.4361 5.80964C14.4161 5.7696 14.3921 5.72957 14.3721 5.69354C14.4481 5.65351 14.5322 5.62548 14.5963 5.56944C14.7644 5.42532 14.9646 5.30121 14.9966 5.049C15.1687 5.05301 15.2088 4.95292 15.1968 4.8048C15.2088 4.79279 15.2208 4.78078 15.2328 4.76477C15.3008 4.72073 15.3889 4.6887 15.437 4.62465C15.5491 4.46852 15.6291 4.28837 15.7492 4.14025C15.8413 4.03216 15.9053 3.93207 15.8733 3.78795C15.8693 3.77995 15.8693 3.77194 15.8773 3.76393C16.0094 3.70388 16.2536 3.19546 16.2136 3.05534C16.2136 3.05134 16.2056 3.04734 16.1976 3.04333C16.2136 3.0033 16.2256 2.96327 16.2416 2.92323C16.3817 2.84717 16.5299 2.85117 16.67 2.91923C16.8301 2.99529 16.9862 3.07536 17.1424 3.15142C17.1904 3.17544 17.2745 3.17144 17.2825 3.20347C17.3425 3.37961 17.4707 3.35159 17.6028 3.32357C17.6148 3.32357 17.6268 3.32757 17.6428 3.32757C17.7309 3.42765 17.7549 3.63182 17.9671 3.52373C17.9791 3.52373 17.9911 3.52774 17.9991 3.53975C17.9991 3.55976 18.0031 3.58378 18.0031 3.6038C18.0431 3.63182 18.0832 3.65985 18.1192 3.68787C18.2033 3.81998 18.3033 3.92807 18.4755 3.92807C18.4915 3.95209 18.5075 3.98011 18.5235 4.00413C18.5395 4.02415 18.5516 4.04817 18.5676 4.06819C18.5836 4.05217 18.5996 4.03616 18.6156 4.02415C18.6476 4.04817 18.6837 4.07219 18.7157 4.10021C18.7157 4.12423 18.7197 4.14425 18.7197 4.16827C18.7757 4.27636 18.7918 4.4405 18.9839 4.38045L18.9799 4.38445C19.0119 4.40847 19.044 4.42849 19.072 4.45251C19.088 4.47653 19.104 4.50455 19.12 4.52857C19.116 4.66468 19.1841 4.73274 19.3202 4.72874C19.3482 4.75676 19.3722 4.78078 19.4003 4.8088C19.3923 4.9249 19.4443 4.98095 19.5604 4.96894C19.5884 4.99696 19.6124 5.02098 19.6405 5.049C19.6605 5.23716 19.7606 5.33724 19.9407 5.34525L19.9447 5.34925C19.9807 5.38128 20.0168 5.41331 20.0528 5.44533C20.0608 5.45734 20.0728 5.46935 20.0808 5.48537C20.0928 5.5254 20.1089 5.56944 20.1209 5.60947C20.1609 5.61347 20.1969 5.62548 20.233 5.6415Z" fill="#4089C7"/>
<path d="M18.0826 21.4531C18.0906 21.3851 18.0746 21.301 18.1106 21.257C18.4189 20.8726 18.583 20.4203 18.7631 19.9759C19.0994 19.1432 19.2075 18.2745 19.1555 17.3897C19.1274 16.9254 19.0234 16.465 18.9393 16.0046C18.8392 15.4521 18.603 14.9437 18.3748 14.4353C18.0545 13.7307 17.6502 13.0822 17.1058 12.5337C16.7254 12.1494 16.3331 11.7651 15.9088 11.4288C15.5965 11.1806 15.2322 10.9924 14.8879 10.7922C14.6317 10.6441 14.3675 10.508 14.0992 10.3799C13.9511 10.3118 13.783 10.2798 13.6268 10.2198C13.1064 10.0236 12.5579 9.94354 12.0175 9.83144C11.8534 9.79541 11.7693 9.83545 11.7573 10.0076C11.7453 9.99558 11.7293 9.97957 11.7172 9.96756C11.6892 9.94354 11.6612 9.91952 11.6292 9.89149C11.6692 9.69933 11.5971 9.60325 11.401 9.55922C11.2809 9.53119 11.1688 9.43912 11.0647 9.35905C11.0287 9.33103 11.0127 9.24696 11.0287 9.20292C11.0407 9.16689 11.1087 9.13086 11.1528 9.13086C11.477 9.13486 11.8013 9.14687 12.1256 9.16289C12.2857 9.17089 12.4459 9.19491 12.602 9.21493C12.7461 9.23495 12.8942 9.25096 13.0384 9.29099C13.1705 9.32702 13.2906 9.39508 13.4187 9.43912C13.6308 9.50717 13.851 9.56722 14.0632 9.63128C14.1833 9.66731 14.2994 9.71535 14.4195 9.75938C14.6637 9.85146 14.9239 9.91952 15.1481 10.0436C15.5004 10.2398 15.8407 10.464 16.173 10.6922C16.3771 10.8323 16.5613 11.0044 16.7615 11.1565C16.8936 11.2566 17.0377 11.3447 17.1738 11.4368C17.1858 11.4488 17.1978 11.4568 17.2058 11.4688C17.2499 11.5649 17.2739 11.673 17.3339 11.753C17.4941 11.9572 17.6862 12.1374 17.8424 12.3455C18.0666 12.6458 18.2947 12.946 18.4749 13.2743C18.7031 13.6907 18.8872 14.127 19.0754 14.5634C19.1795 14.8076 19.2796 15.0598 19.3396 15.32C19.4317 15.7204 19.4877 16.1247 19.5598 16.529C19.5438 16.5771 19.5198 16.6251 19.5198 16.6731C19.5158 17.0174 19.5158 17.3617 19.5198 17.71C19.5198 17.758 19.5478 17.8061 19.5598 17.8541C19.5358 17.8982 19.4958 17.9422 19.4877 17.9902C19.4277 18.2905 19.3716 18.5947 19.3236 18.899C19.3036 19.0271 19.3076 19.1592 19.2996 19.2873C19.2956 19.3153 19.2916 19.3434 19.2876 19.3714C19.2435 19.4154 19.1875 19.4515 19.1595 19.5035C18.9673 19.8958 18.7832 20.2922 18.587 20.6845C18.4949 20.8686 18.3828 21.0448 18.2787 21.2249C18.2787 21.241 18.2707 21.249 18.2587 21.249C18.2227 21.289 18.1907 21.329 18.1546 21.3691C18.1346 21.3971 18.1066 21.4251 18.0826 21.4531Z" fill="#182043"/>
<path d="M9.83563 2.63466C9.87567 2.63466 9.9157 2.63466 9.95573 2.63466C10.0358 2.61064 10.1199 2.58261 10.1999 2.55859C10.24 2.55859 10.28 2.55859 10.32 2.55859C10.3481 2.5706 10.3721 2.58261 10.4001 2.59863C10.5803 2.63866 10.6083 2.6907 10.4882 2.8068C10.316 2.96693 10.1319 3.11506 9.95173 3.26718C9.90769 3.30722 9.85565 3.33524 9.81161 3.37527C9.39126 3.74758 8.97091 4.1239 8.55457 4.49621C8.49051 4.55225 8.43847 4.62031 8.37442 4.67636C8.27433 4.76443 8.16624 4.8485 8.05815 4.92857C7.9901 4.97661 7.89802 5.00063 7.84598 5.06468C7.59377 5.36093 7.32955 5.63716 6.97325 5.8133C6.9132 5.84133 6.86116 5.88536 6.81312 5.9294C6.38075 6.31772 5.94839 6.70605 5.52004 7.09837C5.39593 7.21047 5.27183 7.33057 5.17175 7.46268C5.09568 7.56276 5.08367 7.71489 4.90352 7.70288C4.88351 7.70288 4.85548 7.79495 4.83146 7.847C4.67133 7.855 4.59527 7.95108 4.55123 8.0912C4.55123 8.11522 4.55123 8.13524 4.55123 8.15926C4.49919 8.20329 4.45115 8.24733 4.39911 8.29137C4.35107 8.27535 4.30703 8.26334 4.22296 8.23532C4.24698 8.31939 4.25899 8.36343 4.275 8.41147C4.21095 8.47952 4.14689 8.54358 4.08684 8.61163C3.96674 8.62364 3.84664 8.63165 3.75857 8.63966C3.75857 8.76776 3.75857 8.89186 3.75857 9.01597C3.75857 9.02798 3.75056 9.03598 3.74256 9.04399C3.62246 9.056 3.50636 9.06801 3.37825 9.08002C3.37825 9.07602 3.38626 9.12006 3.39427 9.16409C3.18609 9.08002 3.06599 9.10804 3.04998 9.27618C3.02196 9.52439 2.92187 9.62448 2.69769 9.5404C2.63764 9.61246 2.60161 9.69654 2.54556 9.71255C2.26132 9.80062 2.07717 10.0128 1.88901 10.217C1.74089 10.3851 1.68885 10.3971 1.55273 10.241C1.66082 9.92072 1.76491 9.60045 1.873 9.28019C2.00111 9.18811 2.13322 9.10004 2.24931 8.99996C2.36141 8.90387 2.45348 8.77977 2.56958 8.68369C2.65765 8.61163 2.77375 8.5756 2.86583 8.50354C2.99794 8.40346 3.11403 8.28736 3.23814 8.17127C3.54639 7.88303 3.85065 7.59078 4.1549 7.30254C4.20294 7.25851 4.25899 7.22248 4.31103 7.18244C4.43513 7.08636 4.56324 6.99429 4.68334 6.8902C4.90753 6.69404 5.1157 6.48586 5.33989 6.2897C5.57208 6.08553 5.80828 5.88937 6.04448 5.6892C6.0805 5.66118 6.11653 5.62915 6.15257 5.60113C6.46082 5.36493 6.77308 5.12873 7.08534 4.89254C7.11737 4.86852 7.14139 4.83249 7.16941 4.80847C7.2735 4.71239 7.37358 4.6123 7.47767 4.52423C7.58576 4.42815 7.70586 4.34408 7.81395 4.252C7.90603 4.16793 7.98609 4.07586 8.07817 3.99179C8.16624 3.91172 8.25432 3.83165 8.34639 3.75959C8.53855 3.61147 8.73071 3.46335 8.92688 3.32323C9.09101 3.20713 9.3112 3.14308 9.25915 2.87085C9.1991 2.84683 9.13905 2.82682 9.079 2.8028C9.30719 2.76276 9.53138 2.72273 9.75957 2.6827C9.77959 2.65868 9.80761 2.64667 9.83563 2.63466Z" fill="#6E9DD2"/>
<path d="M16.2378 2.91402C16.2217 2.95406 16.2097 2.99409 16.1937 3.03412C16.0856 3.27432 15.9775 3.51452 15.8694 3.75472C15.8614 3.76273 15.8614 3.77074 15.8654 3.77874C15.6533 4.10301 15.4371 4.43129 15.2249 4.75556C15.2129 4.76757 15.2009 4.77958 15.1889 4.79559C15.1208 4.87566 15.0568 4.95572 14.9887 5.03979C14.7165 5.30401 14.4403 5.56423 14.168 5.82845C14.136 5.84446 14.104 5.86048 14.072 5.88049C13.5675 6.19275 13.0671 6.50101 12.5627 6.81327C12.3385 6.88533 12.1143 6.96139 11.8821 7.03746C11.8821 7.02144 11.8741 6.9734 11.8701 6.92536C12.0062 6.69717 12.1463 6.47299 12.2825 6.2448C12.3105 6.19275 12.3345 6.14071 12.3625 6.08466C12.3825 6.03262 12.4066 5.97657 12.4266 5.92453C12.4546 5.85247 12.4786 5.78441 12.5066 5.71235C12.5667 5.68433 12.6267 5.65631 12.6868 5.63229C12.8149 5.57624 12.947 5.52019 13.0751 5.46815C13.0911 5.45614 13.1071 5.44413 13.1232 5.42812C13.1752 5.4041 13.2232 5.38008 13.2753 5.35606C13.4074 5.27999 13.5395 5.19993 13.6716 5.12386C13.6996 5.10385 13.7277 5.08783 13.7557 5.06782C13.8197 5.01978 13.8878 4.97174 13.9519 4.9237C13.9799 4.90368 14.0079 4.88767 14.0359 4.86765C14.0479 4.85964 14.0599 4.85164 14.072 4.83963C14.112 4.8076 14.156 4.77157 14.1961 4.73954C14.1961 4.72353 14.2081 4.71552 14.2201 4.71552C14.2641 4.67949 14.3081 4.64747 14.3562 4.61144C14.4643 4.51536 14.5724 4.41527 14.6765 4.31919C14.7005 4.29117 14.7285 4.26715 14.7525 4.23913C14.8926 4.091 15.0368 3.94688 15.1769 3.79876C15.2089 3.75873 15.2409 3.71469 15.2689 3.67466C15.345 3.58258 15.4171 3.4905 15.4931 3.39843C15.5252 3.35439 15.5572 3.31436 15.5892 3.27032C15.6092 3.2463 15.6292 3.22228 15.6493 3.19826C15.6653 3.16623 15.6813 3.13421 15.6973 3.10218C15.6613 3.10618 15.6252 3.11419 15.5892 3.11819C15.5132 3.14622 15.4371 3.17424 15.361 3.20226C15.289 3.20627 15.2209 3.21427 15.1488 3.21828C15.0928 3.22228 15.0368 3.22228 14.9807 3.22228C15.0448 3.14622 15.1128 3.07416 15.1769 2.99809C15.2089 2.95406 15.2369 2.91402 15.2689 2.86999C15.345 2.7659 15.4251 2.66181 15.5011 2.55773C15.5292 2.50969 15.5572 2.46565 15.5812 2.41761C15.6172 2.36957 15.6533 2.32153 15.6893 2.27349C15.7093 2.24547 15.7253 2.21344 15.7453 2.18542C15.7974 2.09334 15.8494 2.00527 15.9015 1.91319C15.9255 1.86515 15.9535 1.81711 15.9775 1.76507C15.9896 1.74906 16.0056 1.72904 16.0176 1.71303C16.0376 1.677 16.0536 1.64097 16.0736 1.60093C16.0936 1.5569 16.1137 1.51286 16.1297 1.47283C16.1457 1.4368 16.1617 1.40077 16.1777 1.36474C16.1937 1.33271 16.2097 1.30469 16.2257 1.27266C16.2818 1.14055 16.3378 1.01244 16.3939 0.880333C16.4059 0.85231 16.4179 0.820283 16.4259 0.79226C16.4459 0.740216 16.4619 0.688173 16.482 0.632126C16.49 0.604103 16.498 0.580083 16.502 0.55206C16.5981 0.536047 16.6341 0.580083 16.6261 0.67216C16.6141 0.81628 16.6101 0.956396 16.6061 1.10052C16.6021 1.1966 16.5981 1.28867 16.5941 1.38475C16.554 1.55289 16.514 1.72103 16.478 1.89318C16.478 1.91319 16.474 1.92921 16.474 1.94922C16.4539 2.0413 16.4299 2.13338 16.4099 2.22545C16.4019 2.26549 16.3979 2.30952 16.3899 2.34956C16.3779 2.37758 16.3619 2.4056 16.3499 2.43363C16.3579 2.48567 16.3619 2.53371 16.3699 2.58575C16.3338 2.69384 16.2858 2.80193 16.2378 2.91402Z" fill="#1A2243"/>
<path d="M12.194 10.7616C12.1379 10.7896 12.0819 10.8136 11.9978 10.8536C12.1059 11.0178 12.226 11.1899 12.3381 11.3661C12.3621 11.4061 12.3901 11.4862 12.3741 11.5022C12.3381 11.5382 12.266 11.5662 12.222 11.5542C12.1339 11.5342 12.0538 11.4741 11.9658 11.4501C11.3893 11.286 10.8128 11.1058 10.2283 10.9737C9.848 10.8897 9.45567 10.8777 9.06735 10.8416C8.74708 10.8096 8.42681 10.7576 8.10654 10.7696C7.62614 10.7856 7.13373 10.7976 6.66534 10.8977C5.99278 11.0378 5.32822 11.242 4.71972 11.5742C4.51154 11.6903 4.29937 11.7944 4.09119 11.9145C4.04715 11.9385 4.01913 11.9946 3.9831 12.0386C3.97509 11.9866 3.96308 11.9385 3.95508 11.8865C3.99511 11.8585 4.03915 11.8304 4.07918 11.8024C4.10721 11.7864 4.13123 11.7704 4.15925 11.7544C4.29937 11.6623 4.44349 11.5702 4.5836 11.4782C4.61563 11.4621 4.64766 11.4461 4.67968 11.4261C4.69169 11.4181 4.7037 11.4101 4.71571 11.4021C4.74374 11.3861 4.77176 11.3741 4.79978 11.3581C4.8198 11.342 4.83982 11.33 4.85983 11.314C4.90387 11.306 4.95191 11.298 4.99194 11.282C5.34424 11.1459 5.69653 11.0058 6.05283 10.8777C6.24099 10.8096 6.43715 10.7656 6.63331 10.7095C6.94558 10.6214 7.25784 10.4933 7.5781 10.4493C8.0545 10.3853 8.53891 10.3732 9.01931 10.3612C9.45167 10.3532 9.88403 10.3732 10.3164 10.3812C10.3965 10.3812 10.4805 10.3853 10.5606 10.3853C10.7367 10.4653 10.9129 10.5494 11.089 10.6254C11.1131 10.6375 11.1531 10.6094 11.1851 10.6094C11.2892 10.6054 11.3973 10.5894 11.5014 10.6054C11.7256 10.6535 11.9578 10.7095 12.194 10.7616Z" fill="#1A2243"/>
<path d="M12.3537 3.23432C12.4417 3.43849 12.5378 3.63866 12.6139 3.85084C12.6459 3.93891 12.6299 4.047 12.6379 4.14708C12.6459 4.31522 12.722 4.36326 12.8501 4.26718C13.1904 4.01097 13.5307 3.74675 13.8589 3.47452C14.0831 3.29037 14.2913 3.0862 14.4995 2.88603C14.7036 2.68987 14.8998 2.4857 15.0879 2.27753C15.156 2.20146 15.136 2.11739 15.0239 2.07736C14.8998 2.03733 14.7797 1.98128 14.6516 1.95326C14.4674 1.91723 14.2753 1.90522 14.0871 1.86919C13.975 1.84917 13.8629 1.80513 13.7548 1.7691C13.6387 1.73307 13.5226 1.67703 13.4025 1.65301C12.5018 1.48487 11.589 1.48487 10.6803 1.51689C10.2479 1.53291 9.79154 1.54492 9.3912 1.68904C9.11898 1.78512 8.84675 1.7651 8.58653 1.84917C8.36235 1.92123 8.13015 1.95726 7.90597 2.03332C7.64975 2.1214 7.40154 2.22548 7.15334 2.33357C6.89312 2.44567 6.63691 2.56176 6.3847 2.68587C6.31664 2.71789 6.2646 2.79396 6.19654 2.82999C5.89229 2.99412 5.58803 3.15025 5.27978 3.30638C5.26376 3.31439 5.23974 3.30238 5.21973 3.30238C5.22773 3.28236 5.23174 3.26235 5.23974 3.24633C5.27978 3.22231 5.31981 3.19429 5.36385 3.17027C5.49596 3.0862 5.62807 3.00213 5.76018 2.91806C5.84425 2.87002 5.92431 2.82198 6.00838 2.77394C6.07244 2.74191 6.14049 2.70989 6.20455 2.67786C6.2726 2.64183 6.34066 2.6058 6.40872 2.56977C6.58086 2.4857 6.749 2.40563 6.92114 2.32156C7.38953 2.15743 7.84992 1.97327 8.32632 1.82915C9.03491 1.62098 9.75551 1.47286 10.4961 1.44483C10.9005 1.42882 11.3088 1.39279 11.7131 1.39679C12.5939 1.4088 13.4626 1.5289 14.3113 1.7651C14.6116 1.84917 14.9078 1.94525 15.204 2.03733C15.3442 2.07736 15.3522 2.13341 15.2601 2.2455C14.5515 3.11022 13.7108 3.82281 12.79 4.43933C12.738 4.47536 12.6739 4.49137 12.6139 4.51539C12.5538 4.27519 12.5138 4.051 12.4457 3.83883C12.3777 3.62665 12.2816 3.42648 12.2096 3.25434C11.9013 3.57461 11.6291 3.90288 11.3168 4.17911C10.7924 4.63949 10.1679 4.93974 9.53132 5.21998C9.20705 5.3601 8.87878 5.4802 8.5505 5.61631C8.0621 5.81648 7.65776 6.12073 7.52965 6.65718C7.47761 6.87336 7.54166 7.12156 7.54967 7.35376C7.47361 7.29771 7.3495 7.25367 7.33749 7.18562C7.29345 6.99346 7.29746 6.79329 7.28144 6.59312C7.42556 6.38495 7.56568 6.17678 7.72181 5.95259C7.74183 5.94458 7.80989 5.94058 7.85793 5.90455C8.04208 5.76443 8.21823 5.61631 8.39838 5.47219C8.53449 5.44817 8.67461 5.44016 8.80672 5.39613C9.13499 5.28403 9.45526 5.15192 9.77953 5.02382C9.82356 5.0078 9.84758 4.95176 9.88361 4.91172C9.89562 4.91172 9.91564 4.91572 9.92365 4.90772C10.1238 4.73958 10.4561 4.7636 10.5762 4.47135C10.5842 4.45134 10.6162 4.43132 10.6362 4.43132C10.9685 4.41531 11.1527 4.15109 11.3929 3.98695C11.517 3.90288 11.6291 3.78678 11.7171 3.66268C11.8573 3.46652 11.9774 3.25034 12.1135 3.03416C12.2136 3.12623 12.2856 3.18228 12.3537 3.23432Z" fill="#6B98BA"/>
<path d="M17.166 7.95524C17.2061 7.95924 17.2421 7.96324 17.2821 7.96725C17.3061 7.97926 17.3342 7.98726 17.3582 7.99927C17.4182 8.02329 17.4823 8.05132 17.5423 8.07534C17.6344 8.09936 17.7265 8.12738 17.8146 8.1514C17.9427 8.19544 18.0708 8.23947 18.1989 8.28351C18.291 8.32354 18.383 8.35958 18.4751 8.39961C18.5432 8.42763 18.6112 8.45565 18.6793 8.48368C18.7073 8.49569 18.7313 8.5077 18.7594 8.51971C18.8194 8.54373 18.8755 8.57175 18.9355 8.59577L18.9275 8.58777C18.9515 8.60378 18.9755 8.6238 18.9996 8.63981C19.0316 8.64782 19.0676 8.65983 19.0996 8.66783C19.0996 8.64381 19.0996 8.6238 19.0996 8.59978C18.9876 8.41963 18.8715 8.23947 18.7594 8.05532C19.7242 8.45966 20.5889 9.01212 21.4096 9.63264C21.4496 9.68468 21.4896 9.73672 21.5297 9.78877C21.4936 9.80478 21.4536 9.81679 21.4176 9.8328C21.4016 9.82079 21.3855 9.80478 21.3695 9.79677C20.8651 9.63664 20.3647 9.46049 19.8523 9.32838C19.548 9.25232 19.2278 9.24832 18.9115 9.20828C18.4791 8.95207 18.0468 8.69185 17.6104 8.44364C17.4783 8.36758 17.3382 8.31154 17.1981 8.24748C17.162 8.23147 17.13 8.21546 17.094 8.19944C16.9539 8.1474 16.8137 8.09936 16.6776 8.04731C16.6536 8.0353 16.6256 8.02329 16.6016 8.00728C16.5735 8.00328 16.5455 7.99927 16.5175 7.99527C16.4014 7.95524 16.2893 7.9152 16.1732 7.87917C16.1412 7.87517 16.1051 7.87117 16.0731 7.86716C16.0211 7.81512 15.969 7.76308 15.917 7.70703C15.969 7.70703 16.0211 7.71103 16.0771 7.71103C16.1572 7.72705 16.2373 7.74306 16.3173 7.75907C16.3453 7.75907 16.3734 7.75907 16.4014 7.75907C16.4614 7.77909 16.5215 7.80311 16.5815 7.82313C16.6416 7.82713 16.7016 7.83113 16.7617 7.83514C16.7897 7.84715 16.8177 7.85515 16.8458 7.86716C16.9218 7.88318 17.0019 7.89519 17.078 7.9112C17.11 7.93522 17.138 7.94323 17.166 7.95524Z" fill="#1C2545"/>
<path d="M7.27409 6.59766C7.29011 6.79382 7.28611 6.99799 7.33014 7.19015C7.34616 7.2582 7.47026 7.30224 7.54232 7.35829C7.55433 7.36629 7.55833 7.3783 7.55833 7.39031C7.57034 7.43435 7.58235 7.47438 7.59436 7.51842C7.54232 7.55445 7.49027 7.6185 7.44223 7.6145C7.23806 7.60249 7.14999 7.67455 7.13398 7.89473C7.0419 7.87071 6.94982 7.84269 6.86175 7.81867C6.84574 7.91875 6.82172 8.01483 6.81371 8.11091C6.81371 8.12292 6.85775 8.14294 6.88577 8.15895C6.84173 8.19898 6.8017 8.23501 6.75766 8.27505C6.61755 8.21099 6.51346 8.25503 6.40537 8.35511C6.3253 8.43117 6.23723 8.51124 6.13314 8.54727C5.965 8.60332 5.76884 8.59131 5.61671 8.67137C5.42055 8.77546 5.28444 8.71941 5.13631 8.60332C5.10829 8.5793 5.06425 8.57129 5.03223 8.55528C5.03223 8.48722 5.03223 8.42317 5.03223 8.35511C5.06025 8.33109 5.08827 8.31107 5.11229 8.28305C5.2364 8.14694 5.33648 7.94677 5.48861 7.89873C5.61271 7.8587 5.70479 7.82267 5.80087 7.7346C6.19319 7.38231 6.58952 7.03402 6.99386 6.69774C7.06592 6.64169 7.17801 6.63369 7.27409 6.59766Z" fill="#5391CD"/>
<path d="M10.5202 5.9764C10.8045 5.81627 11.0887 5.65613 11.369 5.5C11.0767 6.8131 10.1079 7.48967 8.67871 7.42162C8.82283 7.37358 8.96295 7.32954 9.10707 7.2815C9.73159 7.06532 10.22 6.70902 10.3961 6.03245C10.4242 6.01643 10.4482 6.00442 10.4762 5.98841C10.4882 5.98441 10.5042 5.9804 10.5202 5.9764Z" fill="#1C2545"/>
<path d="M17.1745 11.4371C17.0384 11.3451 16.8943 11.257 16.7622 11.1569C16.562 11.0048 16.3819 10.8326 16.1737 10.6925C15.8414 10.4643 15.5011 10.2361 15.1488 10.044C14.9206 9.91988 14.6644 9.85182 14.4202 9.75974C14.3041 9.71571 14.184 9.66767 14.0639 9.63164C13.8477 9.56358 13.6316 9.50753 13.4194 9.43947C13.2913 9.39544 13.1712 9.32738 13.0391 9.29135C12.899 9.25132 12.7508 9.2353 12.6027 9.21529C12.4426 9.19527 12.2824 9.17125 12.1263 9.16324C11.802 9.14723 11.4778 9.13522 11.1535 9.13122C11.1095 9.13122 11.0374 9.16725 11.0294 9.20328C11.0174 9.25132 11.0294 9.33138 11.0654 9.35941C11.1695 9.43947 11.2816 9.53155 11.4017 9.55957C11.6019 9.60361 11.6739 9.69969 11.6299 9.89185C11.2336 9.62363 10.8372 9.3514 10.3809 9.04314C10.7412 9.03914 11.0614 9.01912 11.3777 9.03113C11.71 9.04715 12.0382 9.08718 12.3665 9.12321C13.7317 9.28735 14.9847 9.74773 16.1056 10.5484C16.4819 10.8166 16.8182 11.1369 17.1745 11.4371Z" fill="#323749"/>
<path d="M10.3968 6.0332C10.2207 6.71377 9.72826 7.06606 9.10774 7.28224C8.96762 7.33028 8.8235 7.37432 8.67938 7.42236C8.65536 7.37432 8.61133 7.32628 8.61133 7.28224C8.61533 6.94596 8.8155 6.70977 9.08372 6.57766C9.50808 6.36948 9.95645 6.21335 10.3968 6.0332Z" fill="#5589B7"/>
<path d="M19.5678 16.5251C19.4958 16.1207 19.4397 15.7124 19.3476 15.3161C19.2876 15.0558 19.1875 14.8036 19.0834 14.5594C18.8953 14.1231 18.7111 13.6867 18.4829 13.2703C18.3028 12.9421 18.0746 12.6418 17.8504 12.3416C17.6943 12.1334 17.5021 11.9533 17.342 11.7491C17.2779 11.669 17.2539 11.5609 17.2139 11.4648C17.6903 11.8892 18.0666 12.3976 18.4029 12.9301C18.8152 13.5826 19.1435 14.2792 19.3396 15.0278C19.4437 15.4161 19.5038 15.8165 19.5798 16.2128C19.5999 16.3169 19.6079 16.421 19.6239 16.5251C19.6039 16.5251 19.5838 16.5251 19.5678 16.5251Z" fill="#323749"/>
<path d="M10.3081 10.3809C9.87575 10.3729 9.44339 10.3529 9.01103 10.3609C8.53063 10.3729 8.04622 10.3849 7.56983 10.449C7.24956 10.489 6.9413 10.6171 6.62504 10.7092C6.43288 10.7652 6.23672 10.8093 6.04456 10.8773C5.68826 11.0054 5.33597 11.1496 4.98367 11.2817C4.93964 11.2977 4.8956 11.3017 4.85156 11.3137C5.35999 11.0935 5.8524 10.8373 6.37283 10.6611C7.24155 10.3609 8.15431 10.2848 9.06707 10.2648C9.41136 10.2568 9.75565 10.2928 10.0999 10.3169C10.172 10.3169 10.2401 10.3569 10.3081 10.3809Z" fill="#323749"/>
<path d="M18.9111 9.21484C19.2234 9.25087 19.5477 9.25488 19.8519 9.33494C20.3643 9.46705 20.8648 9.6432 21.3692 9.80333C21.3852 9.80734 21.4012 9.82735 21.4172 9.83936C21.4132 9.85137 21.4172 9.86338 21.4212 9.87539C21.0569 9.7673 20.6926 9.6472 20.3243 9.54712C20.0761 9.47906 19.8239 9.42302 19.5677 9.37898C19.5196 9.37097 19.4596 9.43102 19.4075 9.45905C19.4436 9.50308 19.4676 9.55513 19.5116 9.59116C19.6317 9.69524 19.7678 9.78732 19.8759 9.89941C20.1121 10.1476 20.3483 10.4038 20.5645 10.6721C20.7407 10.8922 20.9008 11.1284 21.0529 11.3646C21.0889 11.4167 21.0689 11.5048 21.0769 11.5768C21.0289 11.5168 20.9769 11.4607 20.9288 11.4007C20.8487 11.2806 20.7687 11.1605 20.6846 11.0404C20.4004 10.7121 20.1201 10.3798 19.8359 10.0515C19.7879 10.0075 19.7438 9.96347 19.6958 9.91543C19.6758 9.89541 19.6558 9.87139 19.6357 9.85137C19.6117 9.83136 19.5877 9.81134 19.5637 9.78732C19.3595 9.61918 19.1593 9.45104 18.9552 9.2829C18.9432 9.25888 18.9271 9.23886 18.9111 9.21484Z" fill="#5589B7"/>
<path d="M3.94707 4.27148C3.87101 4.37557 3.80295 4.48766 3.71888 4.58374C3.43464 4.90801 3.1424 5.22828 2.85816 5.55255C2.662 5.77674 2.46183 5.99292 2.28969 6.23312C2.12155 6.46932 2.01746 6.74555 1.84132 6.97374C1.63314 7.24196 1.52505 7.55822 1.34891 7.83846C1.32489 7.87449 1.26083 7.8865 1.2168 7.91052C1.2208 7.87048 1.22881 7.83445 1.23281 7.79442C1.39294 7.50218 1.55308 7.20993 1.70921 6.91369C1.72522 6.88566 1.73723 6.86164 1.75324 6.83362C1.80529 6.75355 1.85733 6.67349 1.90937 6.59342C1.98944 6.47332 2.0655 6.35722 2.14557 6.23712C2.15758 6.22111 2.16959 6.2051 2.1816 6.18908C2.19761 6.16506 2.21363 6.13704 2.22564 6.11302C2.26567 6.06098 2.3057 6.00893 2.34574 5.95289C2.46183 5.80476 2.57793 5.65664 2.69803 5.50852C2.76609 5.42845 2.83014 5.34838 2.8982 5.26832C2.95424 5.20426 3.01029 5.14021 3.06634 5.08016C3.16642 4.98408 3.2625 4.88399 3.36258 4.79192C3.56275 4.62378 3.75491 4.44763 3.94707 4.27148Z" fill="#6B98BA"/>
<path d="M16.201 6.22852C16.4852 6.30858 16.7695 6.38865 17.0497 6.47272C17.0857 6.48473 17.1178 6.52877 17.1538 6.52877C17.6302 6.52476 17.9385 6.88106 18.3348 7.0492C18.4349 7.09324 18.575 7.04119 18.7151 7.03319C18.7031 7.12126 18.6871 7.22134 18.6711 7.32543C18.3428 7.1693 18.0185 6.99716 17.6822 6.85704C17.2178 6.66488 16.7415 6.50074 16.2731 6.3246C16.245 6.31259 16.225 6.28456 16.201 6.26054C16.201 6.25254 16.197 6.24053 16.201 6.22852Z" fill="#6B98BA"/>
<path d="M18.6709 7.33008C18.851 7.40614 19.0312 7.4782 19.2073 7.55426C19.2274 7.56227 19.2354 7.60631 19.2554 7.61431C19.8359 7.83049 20.2002 8.34693 20.7126 8.65919C20.8047 8.71523 20.8607 8.77528 20.8007 8.88337C20.5124 8.65118 20.2322 8.40698 19.9319 8.1908C19.5837 7.93859 19.2153 7.7104 18.8591 7.47019C18.795 7.42616 18.735 7.37411 18.6709 7.33008Z" fill="#6B98BA"/>
<path d="M3.39048 9.15916C3.38248 9.11513 3.37447 9.07109 3.37447 9.07509C3.50258 9.06308 3.61867 9.05107 3.73877 9.03906C3.6547 9.19519 3.56263 9.35132 3.48656 9.50745C3.25837 9.96784 3.13827 10.4522 3.15028 10.9647C3.15429 11.0848 3.14228 11.2049 3.13427 11.325C3.11425 11.321 3.09424 11.317 3.07422 11.313C3.08623 10.8766 3.09824 10.4362 3.11025 9.99986C3.19832 9.83573 3.30241 9.6796 3.36646 9.50745C3.40249 9.40337 3.38248 9.27526 3.39048 9.15916Z" fill="#78A3D6"/>
<path d="M5.11629 9.76004C5.11629 9.85612 5.11629 9.9522 5.11629 10.0963C4.90011 9.8281 4.79602 9.80808 4.5318 9.94019C4.45974 9.97622 4.39168 10.0082 4.31962 10.0443C4.30361 10.0163 4.28759 9.98823 4.26758 9.96021C4.36366 9.85612 4.45173 9.73602 4.56382 9.64394C4.81203 9.43176 4.98818 9.47179 5.11629 9.76004Z" fill="#5589B7"/>
<path d="M22.4862 14.3639C22.4862 14.3239 22.4862 14.2878 22.4862 14.2478C22.5263 14.1797 22.5903 14.1157 22.5983 14.0436C22.6184 13.9115 22.6023 13.7794 22.6023 13.6473C22.6023 13.5952 22.6023 13.5432 22.6063 13.4912C22.6063 13.4751 22.6063 13.4591 22.6063 13.4471C22.6063 13.343 22.6063 13.2389 22.6063 13.1349C22.6384 13.1349 22.6704 13.1309 22.7024 13.1309C22.6744 13.5312 22.6664 13.9355 22.6184 14.3319C22.5623 14.7562 22.4662 15.1726 22.3901 15.5929C22.214 15.6329 22.3221 15.4528 22.25 15.4128C22.254 15.3607 22.254 15.3047 22.258 15.2526C22.3061 15.2206 22.3821 15.1966 22.3981 15.1525C22.4382 15.0164 22.4582 14.8723 22.4862 14.7322C22.4862 14.6802 22.4902 14.6281 22.4902 14.5761C22.4862 14.5 22.4862 14.4319 22.4862 14.3639Z" fill="#6B98BA"/>
<path d="M12.1941 10.7605C11.9619 10.7084 11.7297 10.6484 11.4935 10.6083C11.3934 10.5923 11.2853 10.6083 11.1773 10.6123C11.1452 10.6123 11.1052 10.6404 11.0812 10.6284C10.905 10.5523 10.7289 10.4682 10.5527 10.3882C10.9531 10.4562 11.3534 10.5243 11.7537 10.6003C11.9259 10.6324 12.094 10.6804 12.2902 10.6804C12.1621 10.5083 12.038 10.3401 11.9099 10.168C12.1741 10.264 12.2982 10.4642 12.3462 10.7444C12.2902 10.7485 12.2421 10.7565 12.1941 10.7605Z" fill="#323749"/>
<path d="M5.03223 8.56005C5.06826 8.57606 5.10829 8.58407 5.13631 8.60809C5.28444 8.72819 5.41655 8.78024 5.61671 8.67615C5.76884 8.59608 5.965 8.60809 6.13314 8.55204C6.23323 8.51601 6.3253 8.43595 6.40537 8.35988C6.50946 8.2598 6.61755 8.21176 6.75767 8.27982C6.72164 8.30784 6.68561 8.33586 6.64958 8.36389C6.61755 8.38791 6.58552 8.40792 6.5575 8.43194C6.46942 8.48799 6.38135 8.54804 6.29328 8.60409C6.26125 8.6241 6.22922 8.64012 6.2012 8.66014C6.17718 8.66814 6.15316 8.67615 6.13314 8.68416C6.10112 8.70017 6.07309 8.71618 6.04107 8.7322C5.88093 8.77623 5.7208 8.82427 5.55666 8.86831C5.4806 8.86831 5.40053 8.86831 5.32447 8.86831C5.23239 8.81627 5.13631 8.76422 5.04424 8.71218C5.03223 8.66414 5.03223 8.6121 5.03223 8.56005Z" fill="#5589B7"/>
<path d="M5.11648 9.75918C4.98837 9.46694 4.81222 9.4269 4.56402 9.64308C4.45593 9.73516 4.36786 9.85125 4.26777 9.95934C4.26377 9.90329 4.26377 9.84324 4.25977 9.7872C4.35985 9.55901 4.52799 9.39488 4.75217 9.29079C4.99638 9.1787 5.16051 9.28279 5.16051 9.543C5.16452 9.61506 5.13249 9.68712 5.11648 9.75918Z" fill="#1C2545"/>
<path d="M0.876457 14.1966C0.784381 14.0965 0.668284 14.0084 0.600227 13.8963C0.47212 13.6842 0.37604 13.456 0.25594 13.2198C0.231919 13.3519 0.207899 13.476 0.187883 13.6041C0.167866 13.3279 0.151853 13.0516 0.131836 12.7754C0.163863 12.7834 0.199893 12.7954 0.231919 12.8034C0.420077 13.1998 0.612237 13.6001 0.800394 14.0004C0.828417 14.0605 0.848434 14.1325 0.876457 14.1966Z" fill="#112A59"/>
<path d="M21.1211 11.6465C21.2092 11.6865 21.2972 11.7225 21.3893 11.7626C21.3733 11.7746 21.3573 11.7866 21.3413 11.7946C21.4053 11.9307 21.4654 12.0628 21.5294 12.1989C21.6335 12.4311 21.7496 12.6553 21.8377 12.8915C21.9257 13.1357 21.9858 13.3959 22.0498 13.6482C22.0578 13.6802 22.0258 13.7242 22.0138 13.7642C22.0058 13.7683 21.9978 13.7723 21.9898 13.7723C21.9698 13.7042 21.9497 13.6361 21.9297 13.5641C21.9257 13.5401 21.9217 13.512 21.9177 13.488C21.8977 13.432 21.8777 13.3799 21.8577 13.3239C21.8537 13.2999 21.8497 13.2718 21.8457 13.2478C21.8257 13.2118 21.8096 13.1758 21.7896 13.1437C21.7856 13.1117 21.7776 13.0797 21.7736 13.0477C21.7616 13.0196 21.7456 12.9956 21.7336 12.9676C21.7216 12.9276 21.7056 12.8875 21.6935 12.8475C21.6695 12.7914 21.6415 12.7394 21.6175 12.6833C21.6175 12.6713 21.6135 12.6593 21.6055 12.6513C21.5815 12.5953 21.5614 12.5432 21.5374 12.4872C21.5254 12.4592 21.5134 12.4311 21.5054 12.4031C21.4413 12.279 21.3733 12.1509 21.3092 12.0268C21.2932 11.9908 21.2772 11.9587 21.2612 11.9227C21.2452 11.8987 21.2292 11.8707 21.2132 11.8467C21.1891 11.8066 21.1611 11.7666 21.1371 11.7266C21.1251 11.6985 21.1211 11.6705 21.1211 11.6465Z" fill="#5589B7"/>
<path d="M16.2373 2.9145C16.2853 2.80641 16.3294 2.69432 16.3774 2.58623L16.3814 2.57422H16.3934C16.4535 2.60224 16.5175 2.63427 16.5776 2.66229C16.5976 2.6703 16.6176 2.6783 16.6376 2.68631C16.6817 2.71033 16.7257 2.73435 16.7697 2.75837C16.7817 2.75837 16.7898 2.76638 16.7938 2.77438C16.8258 2.7904 16.8578 2.80641 16.8938 2.82242C16.9539 2.85445 17.0179 2.89048 17.078 2.92251C17.138 2.95854 17.1981 2.99857 17.2621 3.0346L17.2781 3.04261C17.3342 3.07463 17.3942 3.11066 17.4503 3.14269C17.4983 3.17471 17.5504 3.21074 17.5984 3.24277C17.5984 3.26279 17.6024 3.2828 17.6024 3.30282C17.4703 3.33084 17.3422 3.35887 17.2822 3.18272C17.2701 3.1547 17.1861 3.1547 17.142 3.13068C16.9819 3.05462 16.8258 2.97455 16.6697 2.89849C16.5255 2.84244 16.3814 2.83844 16.2373 2.9145Z" fill="#5589B7"/>
<path d="M0.768578 9.05859C0.808611 9.27878 0.772581 9.48695 0.664491 9.68712C0.608445 9.79521 0.576418 9.91931 0.552398 10.0434C0.492348 10.3317 0.444308 10.6239 0.380254 10.9121C0.368244 10.9722 0.308194 11.0242 0.268161 11.0803C0.260154 11.0643 0.252147 11.0483 0.244141 11.0362C0.256151 10.9762 0.264157 10.9161 0.272164 10.8561C0.280171 10.8361 0.292181 10.8161 0.300187 10.8C0.304191 10.72 0.308194 10.6439 0.316201 10.5638C0.332214 10.5078 0.352231 10.4518 0.368244 10.3957C0.376251 10.3437 0.384258 10.2916 0.392264 10.2436C0.416284 10.1475 0.436301 10.0554 0.460321 9.95934C0.480338 9.87928 0.496351 9.80321 0.516368 9.72315C0.528378 9.69512 0.540388 9.6711 0.552398 9.64308C0.564408 9.59104 0.576418 9.53499 0.584424 9.48295C0.600438 9.45492 0.612448 9.4309 0.628461 9.40288C0.644475 9.33883 0.660488 9.27878 0.676501 9.21472C0.704525 9.16268 0.736551 9.11064 0.768578 9.05859Z" fill="#6B98BA"/>
<path d="M14.1758 5.82577C14.448 5.56155 14.7242 5.30133 14.9965 5.03711C14.9644 5.28932 14.7643 5.41342 14.5961 5.55754C14.5321 5.61359 14.448 5.64161 14.3719 5.68165C14.392 5.72168 14.416 5.76171 14.436 5.79774C14.6402 5.82577 14.8483 5.83778 15.0485 5.88181C15.2887 5.93386 15.5209 6.01392 15.7571 6.07798C15.641 6.07397 15.5209 6.06597 15.4048 6.06196C15.3648 6.05796 15.3207 6.05396 15.2807 6.04995C15.2006 6.02994 15.1206 6.00592 15.0445 5.9859C14.9925 5.9819 14.9364 5.9819 14.8844 5.9819C14.8163 5.94987 14.7563 5.89783 14.6842 5.88582C14.5161 5.85379 14.3439 5.84178 14.1758 5.82577Z" fill="#5589B7"/>
<path d="M7.12988 7.8978C7.1459 7.67761 7.23397 7.60555 7.43814 7.61756C7.48617 7.62157 7.53822 7.55351 7.59026 7.52148H7.61028H7.63029C7.84247 7.64158 8.05464 7.76569 8.27082 7.88979C8.15072 7.97786 7.99459 7.96985 7.83446 7.93382C7.78642 7.91781 7.74238 7.9058 7.69434 7.88979C7.65832 7.88178 7.62629 7.87778 7.59026 7.86977C7.55423 7.84976 7.5222 7.82974 7.48617 7.81373C7.45415 7.78971 7.41812 7.76569 7.38609 7.74167C7.25799 7.6616 7.24998 7.76168 7.22996 7.84175C7.19794 7.85776 7.16591 7.87778 7.12988 7.8978Z" fill="#5589B7"/>
<path d="M18.2871 21.2266C18.3912 21.0464 18.5033 20.8703 18.5954 20.6861C18.7915 20.2938 18.9757 19.8975 19.1678 19.5052C19.1919 19.4531 19.2519 19.4171 19.296 19.373C19.0758 20.0536 18.7515 20.6781 18.2871 21.2266Z" fill="#323749"/>
<path d="M22.3268 9.92033C22.2186 9.60407 22.1065 9.2838 22.0064 8.96354C21.9784 8.87947 21.9904 8.78339 21.9824 8.69531C22.0785 8.95153 22.1906 9.20374 22.2667 9.46796C22.3588 9.78822 22.4268 10.1165 22.5029 10.4408C22.4429 10.2806 22.3868 10.1205 22.3268 9.96037C22.3308 9.95636 22.3428 9.95236 22.3428 9.94836C22.3388 9.94035 22.3308 9.92834 22.3268 9.92033Z" fill="#6B98BA"/>
<path d="M19.3037 19.2849C19.3117 19.1567 19.3077 19.0246 19.3277 18.8965C19.3758 18.5923 19.4318 18.292 19.4919 17.9878C19.4999 17.9397 19.5399 17.8957 19.5639 17.8517C19.5799 17.8517 19.6 17.8477 19.616 17.8477C19.5319 18.292 19.4478 18.7404 19.3638 19.1848C19.3598 19.2208 19.3237 19.2528 19.3037 19.2849Z" fill="#323749"/>
<path d="M5.03225 8.55895C5.03225 8.61099 5.03225 8.65903 5.03626 8.71108C4.88413 8.56295 4.87212 8.3828 4.90815 8.18664C4.92817 8.09056 4.94818 7.99848 4.92817 7.87438C4.82808 7.94244 4.732 8.01049 4.63192 8.07855C4.6039 8.07855 4.57587 8.07855 4.54785 8.08255C4.59189 7.94244 4.66795 7.84235 4.82808 7.83835C5.0923 7.81433 5.14835 7.88639 5.07229 8.13059C5.04827 8.20265 5.04026 8.28272 5.02825 8.35878C5.03225 8.42684 5.03225 8.49089 5.03225 8.55895Z" fill="#6B98BA"/>
<path d="M19.6205 17.8465C19.6044 17.8465 19.5844 17.8505 19.5684 17.8505C19.5524 17.8025 19.5284 17.7544 19.5284 17.7064C19.5244 17.3621 19.5244 17.0178 19.5284 16.6695C19.5284 16.6215 19.5564 16.5734 19.5684 16.5254C19.5884 16.5254 19.6044 16.5294 19.6245 16.5294C19.6205 16.9698 19.6205 17.4061 19.6205 17.8465Z" fill="#151D41"/>
<path d="M19.8402 10.0488C20.1245 10.3771 20.4047 10.7094 20.6889 11.0377C20.5969 10.9816 20.5008 10.9336 20.4167 10.8695C20.3166 10.7894 20.2286 10.6894 20.1205 10.5853C20.1725 10.3771 19.9643 10.3251 19.8242 10.221C19.8282 10.1649 19.8322 10.1049 19.8402 10.0488Z" fill="#DBEEF5"/>
<path d="M3.66321 12.1139C3.67522 12.298 3.53911 12.3581 3.39899 12.3861C3.23485 12.4181 3.21884 12.266 3.20282 12.1659C3.16679 11.9297 3.15478 11.6855 3.13477 11.4453C3.1788 11.6455 3.22284 11.8497 3.26688 12.0498C3.28689 12.1299 3.31091 12.206 3.33894 12.302C3.46705 12.23 3.56313 12.1739 3.66321 12.1139Z" fill="#78A3D6"/>
<path d="M0.228013 12.8025C0.195986 12.7945 0.159956 12.7825 0.12793 12.7745C0.135936 12.5463 0.143943 12.3141 0.147946 12.0859C0.155953 11.9498 0.16396 11.8177 0.171966 11.6816C0.17597 11.6015 0.183976 11.5254 0.18798 11.4454C0.212 11.3653 0.23602 11.2852 0.264043 11.2012C0.276053 11.2492 0.304077 11.3013 0.300073 11.3493C0.280056 11.6656 0.24803 11.9818 0.228013 12.2981C0.220006 12.4662 0.228013 12.6344 0.228013 12.8025Z" fill="#6B98BA"/>
<path d="M16.6177 1.10492C16.6258 0.960801 16.6298 0.820684 16.6378 0.676564C16.6458 0.580484 16.6097 0.54045 16.5137 0.556464C16.5697 0.37231 16.6258 0.188157 16.6778 0C16.6978 0.00400334 16.7218 0.00800667 16.7418 0.01201C16.7018 0.376314 16.6618 0.740617 16.6177 1.10492Z" fill="#323749"/>
<path d="M22.6106 12.1187C22.6106 11.9866 22.6106 11.8545 22.6066 11.7224C22.5665 11.4021 22.5265 11.0819 22.4864 10.7616C22.4864 10.7216 22.4824 10.6815 22.4824 10.6415C22.4944 10.6295 22.5024 10.6175 22.5145 10.6055C22.5585 10.8016 22.6186 10.9978 22.6386 11.198C22.6746 11.5062 22.6826 11.8145 22.7067 12.1267C22.6746 12.1227 22.6426 12.1227 22.6106 12.1187Z" fill="#6B98BA"/>
<path d="M3.94727 4.27615C3.9873 4.22411 4.03134 4.17206 4.07137 4.12002C4.08338 4.10801 4.09939 4.1 4.1114 4.08799C4.17546 4.03195 4.24351 3.9759 4.30757 3.91985C4.3476 3.89183 4.38764 3.86381 4.42367 3.83578C4.47971 3.79175 4.53576 3.74371 4.5878 3.69967C4.62784 3.67165 4.66787 3.64362 4.71191 3.6116C4.73993 3.58758 4.76795 3.56356 4.79598 3.53954L4.80398 3.53553C4.87604 3.50351 4.94811 3.47148 5.02017 3.43945C5.03618 3.56356 5.00816 3.64763 4.85603 3.64763C4.81199 3.64763 4.76395 3.68366 4.72392 3.71568C4.54377 3.86781 4.37162 4.02794 4.18346 4.17206C4.12341 4.2161 4.03134 4.24012 3.94727 4.27615Z" fill="#6B98BA"/>
<path d="M11.8778 6.91874C11.8818 6.96678 11.8898 7.01482 11.8898 7.03084C12.126 6.95477 12.3502 6.8787 12.5704 6.80664C12.2621 6.95077 11.9579 7.09489 11.6496 7.24302C11.6336 7.219 11.6176 7.19498 11.6016 7.17096C11.6936 7.08688 11.7857 7.00281 11.8778 6.91874Z" fill="#323749"/>
<path d="M22.6104 12.1172C22.6424 12.1172 22.6744 12.1212 22.7065 12.1212C22.7065 12.4535 22.7065 12.7857 22.7065 13.118C22.6744 13.118 22.6424 13.122 22.6104 13.122C22.6104 12.7897 22.6104 12.4535 22.6104 12.1172Z" fill="#5589B7"/>
<path d="M1.18442 7.99805C1.17641 8.08212 1.18442 8.17419 1.15639 8.25426C1.08033 8.46243 0.996259 8.6666 0.908186 8.86677C0.888169 8.9068 0.832123 8.93082 0.792089 8.96285C0.792089 8.93483 0.788086 8.9068 0.788086 8.88278C0.820113 8.80672 0.852139 8.72665 0.884166 8.65059C0.920196 8.55451 0.952223 8.45843 0.988253 8.36635C1.00026 8.33833 1.01227 8.31031 1.02428 8.28228C1.02829 8.26227 1.03229 8.24225 1.03629 8.22223C1.05231 8.20222 1.07232 8.1782 1.08834 8.15818C1.09634 8.13416 1.10435 8.11014 1.10835 8.08212C1.13638 8.05409 1.1604 8.02607 1.18442 7.99805Z" fill="#6B98BA"/>
<path d="M18.96 9.2832C19.1642 9.45134 19.3643 9.61948 19.5685 9.78762C19.4124 9.82365 19.2282 9.71556 19.2162 9.58345C19.02 9.59946 18.9079 9.47136 18.96 9.2832Z" fill="#DBEEF5"/>
<path d="M21.4456 7.59746C21.2414 7.45734 21.0332 7.053 21.0852 6.88486L21.1013 6.88086C21.1333 6.93691 21.1693 6.99295 21.2013 7.045C21.2454 7.12106 21.2894 7.20113 21.3335 7.27719C21.3735 7.35325 21.4135 7.42531 21.4536 7.50138C21.4496 7.5334 21.4456 7.56543 21.4456 7.59746Z" fill="#5589B7"/>
<path d="M22.4826 14.7246C22.4546 14.8647 22.4386 15.0088 22.3946 15.145C22.3826 15.189 22.3025 15.213 22.2545 15.245C22.2465 15.141 22.2385 15.0329 22.2305 14.9288C22.2345 14.9008 22.2385 14.8727 22.2385 14.8447C22.2505 14.8447 22.2665 14.8447 22.2785 14.8447C22.3505 14.8047 22.4186 14.7646 22.4826 14.7246Z" fill="#5589B7"/>
<path d="M22.5143 10.6055C22.5023 10.6175 22.4943 10.6295 22.4823 10.6415C22.3502 10.4934 22.2221 10.3373 22.2461 10.1251C22.2541 10.069 22.2981 10.017 22.3221 9.96094C22.3822 10.1211 22.4382 10.2812 22.4983 10.4413C22.5063 10.4974 22.5103 10.5534 22.5143 10.6055Z" fill="#5589B7"/>
<path d="M3.75488 9.01177C3.75488 8.88767 3.75488 8.76356 3.75488 8.63545C3.84296 8.62744 3.96306 8.61543 4.08316 8.60742C3.97106 8.73954 3.86297 8.87566 3.75488 9.01177Z" fill="#78A3D6"/>
<path d="M19.6446 5.03673C19.6166 5.0087 19.5926 4.98468 19.5646 4.95666C19.5125 4.90462 19.4565 4.84857 19.4044 4.79653C19.3764 4.7685 19.3524 4.74448 19.3244 4.71646C19.2563 4.6484 19.1923 4.58435 19.1242 4.51629C19.1082 4.49227 19.0922 4.46425 19.0762 4.44023C19.0802 4.42822 19.0802 4.41621 19.0802 4.4082C19.2924 4.62038 19.5005 4.82855 19.7127 5.04073C19.6927 5.03673 19.6687 5.03673 19.6446 5.03673Z" fill="#6B98BA"/>
<path d="M15.9208 7.71425C15.9729 7.76629 16.0249 7.81834 16.077 7.87438C15.8648 7.83435 15.6526 7.79031 15.4404 7.75028C15.4805 7.71825 15.5245 7.69023 15.5645 7.6582C15.6846 7.67422 15.8007 7.69423 15.9208 7.71425Z" fill="#323749"/>
<path d="M15.5652 7.6578C15.5252 7.68982 15.4812 7.71784 15.4411 7.74987C15.297 7.72985 15.1529 7.71384 15.0088 7.69783C15.0088 7.67781 15.0088 7.6618 15.0128 7.64178C15.1929 7.58574 15.3811 7.58574 15.5652 7.6578Z" fill="#6B98BA"/>
<path d="M14.1752 5.82422C14.3433 5.84424 14.5115 5.85625 14.6796 5.88427C14.7477 5.89628 14.8117 5.94832 14.8798 5.98035C14.6115 5.94432 14.3473 5.90829 14.0791 5.87226C14.1111 5.85625 14.1432 5.84023 14.1752 5.82422Z" fill="#6B98BA"/>
<path d="M6.88163 8.16256C6.85761 8.14655 6.80957 8.12653 6.80957 8.11452C6.82158 8.01844 6.8416 7.92235 6.85761 7.82227C6.94569 7.84629 7.03777 7.87031 7.12985 7.89833C7.08181 7.95839 7.03777 8.01844 6.98973 8.07849C6.9617 8.10251 6.93768 8.12653 6.90966 8.15055C6.90165 8.15856 6.89364 8.16256 6.88163 8.16256Z" fill="#5589B7"/>
<path d="M15.4043 6.06055C15.5204 6.06455 15.6405 6.07256 15.7566 6.07656C15.7846 6.07656 15.8086 6.07656 15.8366 6.07656C15.8927 6.10058 15.9447 6.1286 16.0008 6.15262C16.0128 6.15262 16.0248 6.15262 16.0408 6.15262C16.0568 6.18065 16.0688 6.21267 16.0848 6.2407C15.8567 6.18465 15.6285 6.1246 15.4043 6.06055Z" fill="#6B98BA"/>
<path d="M4.26364 9.78906C4.26765 9.84511 4.26765 9.90516 4.27165 9.96121C4.28766 9.98923 4.30368 10.0173 4.32369 10.0453C4.25564 10.1133 4.18358 10.1814 4.11552 10.2494C4.09951 10.2374 4.07949 10.2214 4.06348 10.2094C4.12753 10.0693 4.19559 9.92918 4.26364 9.78906Z" fill="#323749"/>
<path d="M21.5303 9.79558C21.4902 9.74353 21.4502 9.69149 21.4102 9.63944C21.4182 9.60341 21.4262 9.56338 21.4382 9.52734C21.4822 9.55136 21.5223 9.57939 21.5663 9.60341C21.5783 9.61542 21.5943 9.62743 21.6063 9.64344C21.6584 9.69549 21.7144 9.75154 21.7665 9.80358C21.7785 9.84762 21.7945 9.89566 21.8065 9.9397C21.7104 9.89166 21.6223 9.84362 21.5303 9.79558Z" fill="#81A8D9"/>
<path d="M21.2974 12.0215C21.3614 12.1456 21.4294 12.2737 21.4935 12.3978C21.2373 12.3898 21.2133 12.3377 21.2974 12.0215Z" fill="#DBEEF5"/>
<path d="M19.6445 5.03711C19.6686 5.03711 19.6926 5.04111 19.7126 5.04111C19.7566 5.08915 19.8007 5.13719 19.8447 5.18523L19.8527 5.19324C19.8847 5.24128 19.9128 5.28532 19.9448 5.32935C19.7646 5.32135 19.6645 5.22126 19.6445 5.03711Z" fill="#5589B7"/>
<path d="M20.6895 11.0371C20.7695 11.1572 20.8496 11.2773 20.9337 11.3974C20.6414 11.4214 20.7135 11.1972 20.6895 11.0371Z" fill="#DBEEF5"/>
<path d="M21.7619 8.28324C21.6138 8.19117 21.5577 8.05105 21.5617 7.87891C21.5937 7.89492 21.6218 7.90693 21.6538 7.92294C21.6778 7.98299 21.7058 8.04304 21.7298 8.10309C21.7418 8.16314 21.7538 8.22319 21.7619 8.28324Z" fill="#5589B7"/>
<path d="M14.9919 3.21924C15.0479 3.21924 15.104 3.21924 15.16 3.21523C15.2321 3.21123 15.3001 3.20322 15.3722 3.19922C15.2281 3.24726 15.088 3.2993 14.9438 3.34734C14.9358 3.33133 14.9278 3.31932 14.9238 3.30331C14.9438 3.27528 14.9679 3.24726 14.9919 3.21924Z" fill="#323749"/>
<path d="M22.2503 15.4043C22.3224 15.4443 22.2143 15.6245 22.3904 15.5844C22.3504 15.6405 22.3144 15.6965 22.2744 15.7526C22.2503 15.6965 22.2143 15.6445 22.2103 15.5844C22.2063 15.5244 22.2383 15.4643 22.2503 15.4043Z" fill="#DBEEF5"/>
<path d="M16.4893 1.8971C16.5293 1.72896 16.5693 1.56082 16.6054 1.38867C16.5693 1.55681 16.5293 1.72896 16.4893 1.8971Z" fill="#323749"/>
<path d="M3.94732 11.8867C3.95533 11.9388 3.96734 11.9868 3.97534 12.0388C3.97534 12.0669 3.97935 12.0949 3.97935 12.1269C3.88727 12.1109 3.7952 12.0989 3.70312 12.0829C3.78319 12.0148 3.86726 11.9508 3.94732 11.8867Z" fill="#78A3D6"/>
<path d="M22.2466 14.8447C22.2426 14.8727 22.2385 14.9007 22.2385 14.9287C22.1225 14.8246 22.0584 14.5244 22.1265 14.4043C22.1385 14.4043 22.1545 14.4043 22.1665 14.4043C22.1745 14.4443 22.1865 14.4804 22.1945 14.5204C22.2105 14.6285 22.2265 14.7366 22.2466 14.8447Z" fill="#DBEEF5"/>
<path d="M20.9854 9.03125C21.1535 9.03926 21.3056 9.19539 21.2696 9.3275C21.1735 9.22741 21.0814 9.13133 20.9854 9.03125Z" fill="#6B98BA"/>
<path d="M20.8057 6.75796C20.8257 6.67389 20.8417 6.58983 20.8617 6.50977C20.9138 6.58983 20.9658 6.67389 21.0178 6.75395C20.9458 6.75395 20.8737 6.75796 20.8057 6.75796Z" fill="#5589B7"/>
<path d="M17.9668 3.51471C17.7547 3.6228 17.7266 3.41864 17.6426 3.31855C17.6586 3.31455 17.6746 3.31455 17.6906 3.31055C17.7827 3.3786 17.8748 3.44666 17.9668 3.51471Z" fill="#5589B7"/>
<path d="M21.6574 7.9223C21.6254 7.90629 21.5974 7.89428 21.5654 7.87827C21.5254 7.78619 21.4853 7.69011 21.4453 7.59803C21.4493 7.56601 21.4493 7.53398 21.4533 7.50195C21.5214 7.64207 21.5894 7.78219 21.6574 7.9223Z" fill="#6B98BA"/>
<path d="M16.4054 0.884766C16.3494 1.01688 16.2933 1.14498 16.2373 1.27709C16.2893 1.14498 16.3494 1.01287 16.4054 0.884766Z" fill="#323749"/>
<path d="M18.9879 4.36843C18.7957 4.42848 18.7837 4.26434 18.7236 4.15625C18.7517 4.15625 18.7757 4.15625 18.8037 4.15625C18.8637 4.22831 18.9238 4.29637 18.9879 4.36843Z" fill="#5589B7"/>
<path d="M18.4754 3.91998C18.3033 3.91598 18.2032 3.81189 18.1191 3.67978L18.1231 3.67578C18.1472 3.67578 18.1752 3.67578 18.1992 3.67978C18.2913 3.75184 18.3874 3.8239 18.4794 3.89596C18.4794 3.89997 18.4754 3.90797 18.4754 3.91998Z" fill="#5589B7"/>
<path d="M21.9782 8.67866C21.786 8.63062 21.762 8.4825 21.766 8.31836C21.794 8.33037 21.8221 8.34638 21.8461 8.35839C21.8621 8.40243 21.8781 8.45047 21.8981 8.49451C21.9221 8.54255 21.9462 8.59059 21.9662 8.63863C21.9702 8.65064 21.9742 8.66665 21.9782 8.67866Z" fill="#5589B7"/>
<path d="M13.0788 5.46094C12.9506 5.51698 12.8225 5.57303 12.6904 5.62507C12.8225 5.57303 12.9506 5.51698 13.0788 5.46094Z" fill="#323749"/>
<path d="M22.0463 13.8402C22.0623 13.8362 22.0783 13.8282 22.0983 13.8242C22.1063 13.9403 22.1143 14.0524 22.1223 14.1685C22.1063 14.1565 22.0943 14.1405 22.0783 14.1285C22.0703 14.1004 22.0583 14.0724 22.0503 14.0444C22.0423 13.9924 22.0383 13.9403 22.0303 13.8843C22.0343 13.8723 22.0423 13.8562 22.0463 13.8402Z" fill="#6B98BA"/>
<path d="M16.4219 2.22545C16.4419 2.13337 16.4659 2.0413 16.4859 1.94922C16.4659 2.0413 16.4419 2.13337 16.4219 2.22545Z" fill="#323749"/>
<path d="M20.5247 6.11717C20.3845 6.09315 20.3565 5.99706 20.3645 5.87695C20.3885 5.88896 20.4166 5.90498 20.4406 5.91699C20.4686 5.95302 20.4966 5.98905 20.5287 6.02909C20.5287 6.05711 20.5247 6.08514 20.5247 6.11717Z" fill="#5589B7"/>
<path d="M21.5615 9.60414C21.5175 9.58013 21.4774 9.55211 21.4334 9.52809C21.4254 9.51208 21.4134 9.49207 21.4014 9.47606C21.4334 9.45604 21.4654 9.43603 21.4974 9.41602C21.5215 9.47606 21.5415 9.5401 21.5615 9.60414Z" fill="#6B98BA"/>
<path d="M16.1816 7.88672C16.2977 7.92675 16.4098 7.96679 16.5259 8.00282C16.4098 7.96278 16.2937 7.92675 16.1816 7.88672Z" fill="#323749"/>
<path d="M17.8142 8.15419C17.7221 8.13017 17.6301 8.10215 17.542 8.07812C17.6341 8.10215 17.7261 8.12616 17.8142 8.15419Z" fill="#323749"/>
<path d="M15.0439 5.98438C15.124 6.0044 15.2041 6.02842 15.2801 6.04844C15.2001 6.02842 15.12 6.0044 15.0439 5.98438Z" fill="#6B98BA"/>
<path d="M18.4794 8.3993C18.3873 8.35927 18.2952 8.32324 18.2031 8.2832C18.2952 8.32324 18.3873 8.36327 18.4794 8.3993Z" fill="#323749"/>
<path d="M21.3333 7.28297C21.2892 7.20691 21.2452 7.12684 21.2012 7.05078C21.2452 7.12684 21.2892 7.20291 21.3333 7.28297Z" fill="#6B98BA"/>
<path d="M16.3173 7.76679C16.2373 7.75078 16.1572 7.73476 16.0771 7.71875C16.1572 7.73476 16.2373 7.75078 16.3173 7.76679Z" fill="#323749"/>
<path d="M7.2334 7.83887C7.25342 7.75481 7.26543 7.65473 7.38953 7.7388C7.33749 7.77082 7.28544 7.80685 7.2334 7.83887Z" fill="#6B98BA"/>
<path d="M4.27177 8.40662C4.25976 8.35858 4.24375 8.31454 4.21973 8.23047C4.3038 8.25449 4.35184 8.2705 4.39588 8.28652C4.35585 8.32255 4.31581 8.36258 4.27177 8.40662Z" fill="#6B98BA"/>
<path d="M12.5146 5.70898C12.4866 5.78104 12.4626 5.8491 12.4346 5.92116C12.4586 5.8491 12.4866 5.77704 12.5146 5.70898Z" fill="#323749"/>
<path d="M20.6928 6.2693C20.5687 6.29331 20.5206 6.23327 20.5246 6.11719H20.5286C20.5567 6.1292 20.5847 6.14521 20.6167 6.15722C20.6367 6.19324 20.6648 6.23327 20.6928 6.2693Z" fill="#5589B7"/>
<path d="M21.9258 13.5625C21.9458 13.6305 21.9658 13.6986 21.9858 13.7706C21.9658 13.7026 21.9458 13.6305 21.9258 13.5625Z" fill="#DBEEF5"/>
<path d="M21.8465 8.35971C21.8184 8.34771 21.7904 8.33169 21.7664 8.31968C21.7664 8.30767 21.7664 8.29566 21.7664 8.28366C21.7544 8.22361 21.7464 8.16356 21.7344 8.10352C21.7704 8.18758 21.8104 8.27565 21.8465 8.35971Z" fill="#6B98BA"/>
<path d="M16.0811 6.24432C16.0651 6.2163 16.0531 6.18427 16.0371 6.15625C16.0931 6.18027 16.1452 6.20429 16.2012 6.22831C16.1972 6.24032 16.2012 6.25233 16.2012 6.26434C16.1612 6.25633 16.1212 6.25233 16.0811 6.24432Z" fill="#5589B7"/>
<path d="M21.5253 12.4824C21.5493 12.5385 21.5693 12.5905 21.5933 12.6466C21.4693 12.6345 21.4533 12.5785 21.5253 12.4824Z" fill="#DBEEF5"/>
<path d="M3.90723 21.0977C3.96327 21.1417 4.01532 21.1897 4.07136 21.2338C4.01532 21.1857 3.95927 21.1417 3.90723 21.0977Z" fill="#252F71"/>
<path d="M12.3662 6.08203C12.3382 6.13407 12.3142 6.18612 12.2861 6.24216C12.3142 6.18612 12.3422 6.13407 12.3662 6.08203Z" fill="#323749"/>
<path d="M16.4936 0.636719C16.4735 0.688761 16.4575 0.740804 16.4375 0.79685C16.4575 0.740804 16.4735 0.688761 16.4936 0.636719Z" fill="#323749"/>
<path d="M20.8457 8.92039C20.9498 8.88035 21.0138 8.88435 20.9738 9.02448C20.9298 8.98845 20.8897 8.95242 20.8457 8.92039Z" fill="#6B98BA"/>
<path d="M21.8544 13.3223C21.8744 13.3783 21.8944 13.4304 21.9145 13.4864C21.8264 13.4544 21.7583 13.4184 21.8544 13.3223Z" fill="#DBEEF5"/>
<path d="M17.2623 3.04178C17.2022 3.00575 17.1422 2.96572 17.0781 2.92969C17.1382 2.96572 17.2022 3.00175 17.2623 3.04178Z" fill="#6B98BA"/>
<path d="M15.6006 3.11367C15.6366 3.10967 15.6726 3.10166 15.7087 3.09766C15.6927 3.12968 15.6766 3.16171 15.6606 3.19374C15.6366 3.16972 15.6166 3.14169 15.6006 3.11367Z" fill="#323749"/>
<path d="M20.4405 5.91609C20.4165 5.90408 20.3885 5.88807 20.3644 5.87606C20.3484 5.84803 20.3364 5.82401 20.3204 5.79599C20.3204 5.78398 20.3204 5.77197 20.3164 5.75996L20.3284 5.75195C20.3644 5.808 20.4045 5.86405 20.4405 5.91609Z" fill="#6B98BA"/>
<path d="M17.8828 21.6662C17.9188 21.6101 17.9549 21.5541 17.9949 21.498C17.9949 21.5141 17.9989 21.5341 17.9989 21.5501C17.9629 21.5901 17.9228 21.6302 17.8828 21.6662Z" fill="#182043"/>
<path d="M16.5815 7.82968C16.5215 7.80966 16.4614 7.78564 16.4014 7.76562C16.4614 7.78564 16.5215 7.80966 16.5815 7.82968Z" fill="#323749"/>
<path d="M17.4505 3.15086C17.3944 3.11884 17.3344 3.08281 17.2783 3.05078C17.3344 3.08281 17.3904 3.11884 17.4505 3.15086Z" fill="#6B98BA"/>
<path d="M16.5816 2.6662C16.5216 2.63817 16.4575 2.60615 16.3975 2.57812C16.4575 2.60615 16.5176 2.63417 16.5816 2.6662Z" fill="#6B98BA"/>
<path d="M15.2766 2.87109C15.2446 2.91513 15.2166 2.95516 15.1846 2.9992C15.2166 2.95516 15.2486 2.91113 15.2766 2.87109Z" fill="#323749"/>
<path d="M15.9891 1.76953C15.9651 1.81757 15.9371 1.86561 15.9131 1.91765C15.9371 1.86561 15.9651 1.81757 15.9891 1.76953Z" fill="#323749"/>
<path d="M15.2766 3.67578C15.2446 3.71581 15.2126 3.75985 15.1846 3.79988C15.2166 3.75585 15.2486 3.71581 15.2766 3.67578Z" fill="#323749"/>
<path d="M18.1631 21.374C18.1991 21.334 18.2311 21.2939 18.2672 21.2539C18.2311 21.2899 18.1991 21.334 18.1631 21.374Z" fill="#323749"/>
<path d="M15.5928 2.41797C15.5647 2.46601 15.5367 2.51005 15.5127 2.55809C15.5367 2.51005 15.5647 2.46201 15.5928 2.41797Z" fill="#323749"/>
<path d="M18.4756 3.91865C18.4796 3.91064 18.4796 3.89863 18.4796 3.89062C18.5236 3.92665 18.5637 3.95868 18.6077 3.99471C18.5797 3.99471 18.5517 3.99471 18.5236 3.99471C18.5076 3.96669 18.4916 3.94267 18.4756 3.91865Z" fill="#6B98BA"/>
<path d="M4.1875 21.334C4.22753 21.37 4.27156 21.406 4.3116 21.4421C4.27156 21.406 4.23153 21.37 4.1875 21.334Z" fill="#252F71"/>
<path d="M20.2331 5.63992C20.197 5.62391 20.161 5.6119 20.125 5.59589C20.125 5.56786 20.125 5.53984 20.129 5.50781C20.161 5.55185 20.197 5.59589 20.2331 5.63992Z" fill="#6B98BA"/>
<path d="M14.3597 4.60742C14.3157 4.64345 14.2717 4.67548 14.2236 4.71151C14.2717 4.67548 14.3157 4.64345 14.3597 4.60742Z" fill="#323749"/>
<path d="M13.2791 5.34766C13.227 5.37168 13.179 5.3957 13.127 5.41972C13.179 5.3957 13.231 5.37168 13.2791 5.34766Z" fill="#323749"/>
<path d="M14.1993 4.73242C14.1593 4.76445 14.1152 4.80047 14.0752 4.8325C14.1152 4.80047 14.1593 4.76845 14.1993 4.73242Z" fill="#323749"/>
<path d="M15.5971 3.27148C15.565 3.31552 15.533 3.35555 15.501 3.39959C15.533 3.35555 15.565 3.31152 15.5971 3.27148Z" fill="#323749"/>
<path d="M16.0853 1.60547C16.0653 1.6415 16.0493 1.67753 16.0293 1.71756C16.0453 1.67753 16.0653 1.6415 16.0853 1.60547Z" fill="#323749"/>
<path d="M0.263672 14.2031C0.263672 14.2432 0.267675 14.2832 0.267675 14.3192C0.267675 14.2832 0.263672 14.2432 0.263672 14.2031Z" fill="#112A59"/>
<path d="M19.1001 8.60742C19.1001 8.63144 19.1001 8.65146 19.1001 8.67548C19.0681 8.66747 19.032 8.65546 19 8.64746C19.036 8.63144 19.0681 8.61943 19.1001 8.60742Z" fill="#323749"/>
<path d="M18.119 3.67986C18.079 3.65184 18.039 3.62382 18.0029 3.5958C18.031 3.5958 18.063 3.5918 18.091 3.5918C18.103 3.60381 18.115 3.61181 18.127 3.62382C18.127 3.63983 18.123 3.65584 18.119 3.67986Z" fill="#5589B7"/>
<path d="M16.7737 2.76151C16.7297 2.73749 16.6856 2.71347 16.6416 2.68945C16.6816 2.71347 16.7297 2.73749 16.7737 2.76151Z" fill="#6B98BA"/>
<path d="M20.0563 5.43202C20.0203 5.39999 19.9843 5.36796 19.9482 5.33594C19.9843 5.36796 20.0203 5.39999 20.0563 5.43202Z" fill="#5589B7"/>
<path d="M21.6055 12.6777C21.6295 12.7338 21.6575 12.7858 21.6815 12.8419C21.6575 12.7898 21.6335 12.7338 21.6055 12.6777Z" fill="#DBEEF5"/>
<path d="M0.21582 13.9277C0.223827 13.9678 0.22783 14.0038 0.235837 14.0438C0.22783 14.0038 0.223827 13.9638 0.21582 13.9277Z" fill="#112A59"/>
<path d="M7.69434 7.88672C7.74238 7.90273 7.78641 7.91474 7.83445 7.93076C7.78641 7.91474 7.74238 7.90273 7.69434 7.88672Z" fill="#6B98BA"/>
<path d="M7.62977 7.51873H7.60976H7.58974C7.57773 7.4747 7.56572 7.43466 7.55371 7.39062C7.58173 7.43466 7.60575 7.4787 7.62977 7.51873Z" fill="#6B98BA"/>
<path d="M20.1241 5.50869C20.1241 5.53671 20.1241 5.56473 20.1201 5.59676C20.1081 5.55673 20.0921 5.51269 20.0801 5.47266C20.0961 5.48467 20.1121 5.49668 20.1241 5.50869Z" fill="#5589B7"/>
<path d="M20.6125 6.1574C20.5845 6.14539 20.5565 6.12938 20.5244 6.11737C20.5244 6.08935 20.5244 6.05732 20.5284 6.0293C20.5565 6.07333 20.5845 6.11337 20.6125 6.1574Z" fill="#6B98BA"/>
<path d="M21.9666 8.63825C21.9425 8.59021 21.9185 8.54218 21.8984 8.49414C21.9225 8.54218 21.9465 8.59021 21.9666 8.63825Z" fill="#6B98BA"/>
<path d="M6.54883 8.43134C6.58085 8.40732 6.61288 8.3873 6.6409 8.36328C6.60888 8.3873 6.58085 8.41132 6.54883 8.43134Z" fill="#6B98BA"/>
<path d="M18.7637 8.51845C18.7356 8.50644 18.7116 8.49443 18.6836 8.48242C18.7076 8.49443 18.7356 8.50644 18.7637 8.51845Z" fill="#323749"/>
<path d="M7.49023 7.81055C7.52626 7.83056 7.55829 7.85058 7.59432 7.86659C7.55829 7.84658 7.52626 7.82656 7.49023 7.81055Z" fill="#6B98BA"/>
<path d="M6.18945 8.65956C6.22148 8.63955 6.25351 8.62353 6.28153 8.60352C6.25351 8.62353 6.22148 8.64355 6.18945 8.65956Z" fill="#6B98BA"/>
<path d="M6.0293 8.73165C6.06132 8.71563 6.08934 8.69961 6.12136 8.68359C6.08934 8.69961 6.06132 8.71563 6.0293 8.73165Z" fill="#6B98BA"/>
<path d="M4.79208 11.3574C4.76405 11.3734 4.73603 11.3854 4.70801 11.4015C4.73603 11.3854 4.76405 11.3734 4.79208 11.3574Z" fill="#323749"/>
<path d="M4.67127 11.4258C4.63924 11.4418 4.60722 11.4578 4.5752 11.4778C4.60722 11.4618 4.63924 11.4418 4.67127 11.4258Z" fill="#323749"/>
<path d="M21.121 11.6466C21.125 11.6706 21.125 11.6986 21.129 11.7226C21.113 11.6946 21.101 11.6706 21.085 11.6426C21.093 11.6426 21.109 11.6426 21.121 11.6466Z" fill="#DBEEF5"/>
<path d="M4.15136 11.7539C4.12333 11.7699 4.09931 11.7859 4.07129 11.8019C4.09931 11.7859 4.12333 11.7699 4.15136 11.7539Z" fill="#323749"/>
<path d="M13.7589 5.06055C13.7309 5.08056 13.7028 5.09658 13.6748 5.11659C13.7028 5.09658 13.7309 5.07656 13.7589 5.06055Z" fill="#323749"/>
<path d="M21.2012 11.8418C21.2172 11.8658 21.2332 11.8938 21.2492 11.9179C21.2332 11.8938 21.2172 11.8698 21.2012 11.8418Z" fill="#DBEEF5"/>
<path d="M14.0391 4.85938C14.0111 4.87939 13.9831 4.8954 13.9551 4.91542C13.9831 4.8954 14.0111 4.87939 14.0391 4.85938Z" fill="#323749"/>
<path d="M16.1896 1.36523C16.1736 1.40126 16.1576 1.43729 16.1416 1.47332C16.1576 1.43729 16.1736 1.40126 16.1896 1.36523Z" fill="#323749"/>
<path d="M21.7256 12.9629C21.7376 12.9909 21.7536 13.0149 21.7656 13.043C21.7496 13.0189 21.7376 12.9909 21.7256 12.9629Z" fill="#DBEEF5"/>
<path d="M21.7822 13.1387C21.8023 13.1747 21.8183 13.2107 21.8383 13.2427C21.8183 13.2107 21.8023 13.1747 21.7822 13.1387Z" fill="#DBEEF5"/>
<path d="M14.7597 4.23633C14.7356 4.26435 14.7076 4.28838 14.6836 4.3164C14.7076 4.29238 14.7316 4.26435 14.7597 4.23633Z" fill="#323749"/>
<path d="M17.3583 7.99882C17.3343 7.98681 17.3062 7.97881 17.2822 7.9668C17.3102 7.97881 17.3343 7.99082 17.3583 7.99882Z" fill="#323749"/>
<path d="M22.0498 14.043C22.0578 14.071 22.0699 14.099 22.0779 14.127C22.0699 14.099 22.0578 14.071 22.0498 14.043Z" fill="#DBEEF5"/>
<path d="M22.1621 14.4082C22.1501 14.4082 22.1341 14.4082 22.1221 14.4082C22.1221 14.3562 22.1261 14.3001 22.1261 14.248C22.1381 14.3001 22.1501 14.3522 22.1621 14.4082Z" fill="#6B98BA"/>
<path d="M18.5234 3.99609C18.5515 3.99609 18.5795 3.99609 18.6075 3.99609C18.6155 4.0001 18.6195 4.0041 18.6195 4.01611C18.6035 4.03212 18.5875 4.04814 18.5715 4.06015C18.5515 4.03613 18.5354 4.01611 18.5234 3.99609Z" fill="#5589B7"/>
<path d="M11.6299 9.88867C11.6579 9.91269 11.6859 9.93671 11.718 9.96474C11.6859 9.93671 11.6579 9.91269 11.6299 9.88867Z" fill="#323749"/>
<path d="M0.396484 15.0078C0.412498 15.0198 0.432514 15.0318 0.448528 15.0438C0.432514 15.0559 0.416501 15.0719 0.396484 15.0839C0.396484 15.0599 0.396484 15.0318 0.396484 15.0078Z" fill="#112A59"/>
<path d="M18.0911 3.5913C18.0631 3.5913 18.0311 3.5953 18.003 3.5953C18.003 3.57529 17.999 3.55127 17.999 3.53125C18.027 3.55127 18.0591 3.57128 18.0911 3.5913Z" fill="#6B98BA"/>
<path d="M4.79989 3.53125C4.77187 3.55527 4.74384 3.57929 4.71582 3.60331C4.74384 3.58329 4.77187 3.55927 4.79989 3.53125Z" fill="#DBEEF5"/>
<path d="M18.8038 4.15595C18.7758 4.15595 18.7518 4.15595 18.7237 4.15595C18.7237 4.13193 18.7197 4.11191 18.7197 4.08789C18.7437 4.11191 18.7758 4.13193 18.8038 4.15595Z" fill="#6B98BA"/>
<path d="M17.6907 3.30995C17.6747 3.31396 17.6587 3.31396 17.6427 3.31796C17.6307 3.31796 17.6186 3.31396 17.6026 3.31396C17.6026 3.29394 17.5986 3.27392 17.5986 3.25391C17.6307 3.26992 17.6587 3.28994 17.6907 3.30995Z" fill="#6B98BA"/>
<path d="M15.7572 2.18555C15.7372 2.21357 15.7212 2.2456 15.7012 2.27362C15.7172 2.2456 15.7372 2.21757 15.7572 2.18555Z" fill="#323749"/>
<path d="M17.1662 7.954C17.1382 7.94199 17.1061 7.92998 17.0781 7.91797C17.1102 7.93398 17.1382 7.94199 17.1662 7.954Z" fill="#323749"/>
<path d="M16.3613 2.43368C16.3733 2.40565 16.3894 2.37763 16.4014 2.34961C16.3894 2.37763 16.3733 2.40565 16.3613 2.43368Z" fill="#323749"/>
<path d="M16.894 2.82538C16.862 2.80937 16.83 2.79336 16.7939 2.77734C16.83 2.79336 16.862 2.80937 16.894 2.82538Z" fill="#6B98BA"/>
<path d="M16.6055 8.01562C16.6295 8.02764 16.6575 8.03965 16.6815 8.05566C16.6575 8.04365 16.6335 8.03164 16.6055 8.01562Z" fill="#323749"/>
<path d="M0.552632 9.64453C0.540622 9.67255 0.528612 9.69658 0.516602 9.7246C0.528612 9.69658 0.540622 9.66855 0.552632 9.64453Z" fill="#DBEEF5"/>
<path d="M4.55158 8.08213C4.57961 8.08213 4.60763 8.08213 4.63566 8.07812C4.60763 8.10215 4.57961 8.12618 4.55158 8.1502C4.54758 8.13018 4.55158 8.10615 4.55158 8.08213Z" fill="#78A3D6"/>
<path d="M6.90918 8.1502C6.9372 8.12618 6.96122 8.10215 6.98925 8.07812C6.96122 8.10215 6.9372 8.12618 6.90918 8.1502Z" fill="#6B98BA"/>
<path d="M17.1025 8.20703C17.1386 8.22304 17.1706 8.23906 17.2066 8.25507C17.1706 8.23906 17.1346 8.22304 17.1025 8.20703Z" fill="#323749"/>
<path d="M17.9991 21.5542C17.9991 21.5382 17.9951 21.5182 17.9951 21.5021C18.0151 21.4981 18.0311 21.4981 18.0512 21.4941C18.0351 21.5142 18.0151 21.5342 17.9991 21.5542Z" fill="#323749"/>
<path d="M16.8458 7.87773C16.8178 7.86572 16.7897 7.85771 16.7617 7.8457C16.7897 7.85371 16.8178 7.86572 16.8458 7.87773Z" fill="#323749"/>
<path d="M19.0796 4.40322C19.0796 4.41523 19.0756 4.42724 19.0756 4.43525C19.0435 4.41123 19.0115 4.39121 18.9795 4.36719C19.0155 4.3832 19.0475 4.39121 19.0796 4.40322Z" fill="#5589B7"/>
<path d="M1.08915 8.1543C1.07314 8.17432 1.05312 8.19834 1.03711 8.21837C1.05713 8.19834 1.07314 8.17832 1.08915 8.1543Z" fill="#DBEEF5"/>
<path d="M0.62802 9.40039C0.612007 9.42841 0.599997 9.45242 0.583984 9.48044C0.599997 9.45643 0.61601 9.42841 0.62802 9.40039Z" fill="#DBEEF5"/>
<path d="M1.02431 8.2793C1.0123 8.30732 1.00029 8.33534 0.988281 8.36337C1.00029 8.33534 1.0123 8.30732 1.02431 8.2793Z" fill="#DBEEF5"/>
<path d="M19.6406 9.85156C19.6607 9.87158 19.6807 9.89561 19.7007 9.91563C19.6807 9.8916 19.6607 9.87158 19.6406 9.85156Z" fill="#DBEEF5"/>
<path d="M18.123 3.67509C18.123 3.65908 18.127 3.64306 18.127 3.62305C18.1511 3.63906 18.1751 3.65908 18.1991 3.67509C18.1751 3.67509 18.1471 3.67509 18.123 3.67509Z" fill="#6B98BA"/>
<path d="M20.6846 6.31757C20.6886 6.30156 20.6926 6.28554 20.6966 6.26953C20.7086 6.28554 20.7247 6.30156 20.7367 6.31357C20.7166 6.31357 20.7006 6.31757 20.6846 6.31757Z" fill="#6B98BA"/>
<path d="M18.9277 8.5918L18.9358 8.5998C18.9358 8.5958 18.9277 8.5918 18.9277 8.5918Z" fill="#323749"/>
<path d="M0.304391 10.8008C0.296384 10.8208 0.284374 10.8408 0.276367 10.8568C0.284374 10.8408 0.292381 10.8208 0.304391 10.8008Z" fill="#DBEEF5"/>
<path d="M19.8527 5.1917L19.8447 5.18369L19.8567 5.17969L19.8527 5.1917Z" fill="#6B98BA"/>
<path d="M20.6846 6.31641C20.7006 6.31641 20.7166 6.31641 20.7366 6.31641C20.7446 6.32842 20.7486 6.34043 20.7486 6.35244C20.7246 6.33642 20.7046 6.32842 20.6846 6.31641Z" fill="#5589B7"/>
<path d="M10.5206 5.97656C10.5046 5.98057 10.4886 5.98457 10.4766 5.99258C10.4886 5.98457 10.5046 5.98057 10.5206 5.97656Z" fill="#5589B7"/>
<path d="M21.101 6.88164L21.085 6.88564C21.0811 6.87363 21.0811 6.86162 21.0811 6.84961C21.085 6.86162 21.093 6.86963 21.101 6.88164Z" fill="#6B98BA"/>
<path d="M20.7695 6.36162H20.7735V6.34961L20.7695 6.36162Z" fill="#6B98BA"/>
<path d="M22.0459 13.8399C22.0418 13.856 22.0338 13.868 22.0298 13.884C22.0218 13.868 22.0178 13.852 22.0098 13.8359C22.0218 13.8359 22.0338 13.8359 22.0459 13.8399Z" fill="#DBEEF5"/>
<path d="M2.18935 6.19727C2.17734 6.21327 2.16533 6.22928 2.15332 6.24529C2.16533 6.23328 2.17734 6.21327 2.18935 6.19727Z" fill="#DBEEF5"/>
<path d="M9.07515 2.79492C9.1352 2.81894 9.19525 2.83896 9.2553 2.86298C9.30734 3.1312 9.08716 3.19926 8.92302 3.31536C8.72285 3.45547 8.5347 3.6036 8.34254 3.75172C8.25046 3.82378 8.15838 3.90385 8.07431 3.98392C7.98224 4.06799 7.90217 4.16407 7.81009 4.24413C7.702 4.34021 7.5819 4.42428 7.47381 4.51636C7.36572 4.60844 7.26564 4.70452 7.16556 4.8006C7.13753 4.82862 7.11351 4.86065 7.08149 4.88467C6.77323 5.12087 6.46097 5.35706 6.14871 5.59326C6.11268 5.62128 6.07665 5.65331 6.04062 5.68133C5.80442 5.8815 5.56422 6.07766 5.33603 6.28184C5.11184 6.478 4.90367 6.68617 4.67948 6.88234C4.56339 6.98642 4.43128 7.0785 4.30717 7.17458C4.25513 7.21462 4.19908 7.25065 4.15104 7.29468C3.84279 7.58292 3.53853 7.87517 3.23428 8.16341C3.11418 8.2755 2.99408 8.3916 2.86197 8.49569C2.76989 8.56775 2.65379 8.60378 2.56572 8.67584C2.44962 8.77192 2.35755 8.89602 2.24545 8.9921C2.12535 9.09619 1.99324 9.18026 1.86914 9.27234C1.93319 9.08017 1.98123 8.88001 2.0613 8.69585C2.1854 8.41562 2.33353 8.14339 2.46964 7.86716C2.47364 7.92721 2.48165 7.98726 2.48565 8.06332C2.64579 7.87116 2.78991 7.70703 2.91802 7.5509C3.07815 7.48684 3.33436 7.46683 3.3744 7.35874C3.4945 7.05448 3.77873 6.97041 3.9789 6.77825C4.01093 6.74622 4.04295 6.71019 4.07898 6.67817C4.30317 6.474 4.52335 6.26582 4.75154 6.06565C5.02377 5.83346 5.29199 5.59326 5.57623 5.38108C5.96856 5.08884 6.24479 4.66849 6.66114 4.40827C6.76923 4.34021 6.88132 4.28016 6.9814 4.2081C7.22561 4.02395 7.46981 3.83579 7.71001 3.63963C7.89817 3.4875 8.14237 3.3674 8.11034 3.05914C8.20242 3.01911 8.2985 2.97908 8.39058 2.94305C8.4186 2.94305 8.44262 2.93904 8.47064 2.93904C8.67482 2.89901 8.87498 2.84697 9.07515 2.79492Z" fill="#78A3D6"/>
<path d="M5.02829 8.35863C5.0443 8.28257 5.05231 8.2025 5.07233 8.13044C5.14839 7.88624 5.09234 7.81418 4.82812 7.8382C4.85214 7.79016 4.88017 7.69408 4.90019 7.69408C5.08033 7.70609 5.09235 7.55396 5.16841 7.45388C5.26849 7.31776 5.39259 7.20167 5.5167 7.08957C5.94505 6.69725 6.37741 6.30892 6.80977 5.9206C6.85781 5.87656 6.90986 5.83253 6.96991 5.80451C7.3262 5.62836 7.59443 5.35213 7.84263 5.05588C7.89468 4.99583 7.98675 4.97181 8.05481 4.91977C8.1629 4.8397 8.26699 4.75563 8.37107 4.66756C8.43513 4.61151 8.48717 4.54346 8.55122 4.48741C8.96757 4.1111 9.38792 3.73879 9.80827 3.36648C9.85231 3.32644 9.90435 3.29442 9.94839 3.25839C10.1285 3.10626 10.3127 2.95814 10.4848 2.79801C10.6049 2.68591 10.5769 2.63387 10.3968 2.58983C10.3968 2.57782 10.3968 2.56181 10.3968 2.5498C10.7851 2.53779 11.1694 2.52578 11.5577 2.50977C11.5497 2.54179 11.5537 2.58583 11.5377 2.60184C11.3576 2.76998 11.1814 2.93812 10.9893 3.09425C10.637 3.38249 10.4288 3.83487 9.9684 3.999C9.95639 4.00301 9.94839 4.01502 9.94038 4.02703C9.65214 4.30326 9.39993 4.62753 8.97958 4.72761C8.95556 4.73161 8.94355 4.77965 8.92353 4.80367C8.86749 4.85572 8.81945 4.92377 8.75539 4.94779C8.62328 4.99583 8.45514 5.24404 8.49518 5.38015C8.43913 5.38015 8.38709 5.38015 8.32303 5.38015C8.35906 5.42019 8.37908 5.44421 8.4031 5.47223C8.22295 5.61635 8.0468 5.76447 7.86265 5.90459C7.81461 5.94062 7.74655 5.94863 7.72654 5.95263C7.57041 6.17681 7.43029 6.38499 7.28617 6.59316C7.19009 6.62919 7.078 6.6372 7.00594 6.70125C6.6016 7.04153 6.20527 7.38582 5.81294 7.73811C5.71686 7.82619 5.62479 7.86222 5.50068 7.90225C5.34856 7.95029 5.24847 8.15046 5.12437 8.28657C5.08834 8.31459 5.05631 8.33461 5.02829 8.35863Z" fill="#6397D0"/>
<path d="M8.11433 3.07422C8.14235 3.37847 7.90215 3.50257 7.714 3.6547C7.4738 3.84686 7.2336 4.03502 6.98539 4.22317C6.88531 4.29924 6.77321 4.35929 6.66512 4.42334C6.24477 4.68355 5.97255 5.1039 5.58022 5.39615C5.29198 5.60832 5.02376 5.84452 4.75553 6.08071C4.52734 6.28088 4.30716 6.48905 4.08297 6.69322C4.04694 6.72525 4.01892 6.76128 3.98289 6.79331C3.78272 6.98547 3.49849 7.06954 3.37839 7.37379C3.33435 7.48188 3.08214 7.5059 2.92201 7.56595C2.7939 7.71807 2.64978 7.88621 2.48965 8.07837C2.48164 8.00631 2.47764 7.94226 2.47363 7.88221C2.52968 7.77812 2.58172 7.67003 2.63777 7.56595C2.66579 7.52591 2.68981 7.48588 2.71784 7.44585C2.99006 7.04952 3.23427 6.62917 3.53452 6.25686C4.2391 5.38013 5.0798 4.65153 6.0366 4.05904C6.62109 3.69874 7.21358 3.36246 7.87813 3.17831C7.9582 3.14628 8.03426 3.10625 8.11433 3.07422Z" fill="#81A8D9"/>
<path d="M3.11064 9.99986C3.09863 10.4362 3.08662 10.8766 3.07461 11.313C2.98253 11.4251 2.90246 11.5452 2.79838 11.6412C2.66226 11.7693 2.50213 11.8774 2.36201 12.0015C2.12181 12.2217 1.88561 12.4539 1.64941 12.6781C1.60137 12.7221 1.54533 12.7622 1.48528 12.7862C1.38119 12.8262 1.28511 12.7862 1.28111 12.6701C1.26509 12.3538 1.2691 12.0376 1.26509 11.7213C1.26509 11.6092 1.26109 11.4931 1.2771 11.381C1.28511 11.317 1.32915 11.2569 1.35317 11.1929C1.42523 11.309 1.48928 11.325 1.61338 11.2289C1.97769 10.9366 2.35801 10.6684 2.72632 10.3802C2.79437 10.3241 2.85843 10.22 2.86643 10.132C2.87844 9.94781 2.96251 9.9318 3.11064 9.99986Z" fill="#5391CD"/>
<path d="M8.39452 5.47614C8.3745 5.45212 8.35048 5.4281 8.31445 5.38406C8.37851 5.38406 8.43055 5.38406 8.4866 5.38406C8.44656 5.24395 8.6147 4.99974 8.74681 4.9517C8.81087 4.92768 8.86291 4.85963 8.91495 4.80758C8.93897 4.78757 8.94698 4.73953 8.971 4.73152C9.39135 4.63144 9.64356 4.31117 9.9318 4.03094C9.93981 4.02293 9.94782 4.00692 9.95983 4.00291C10.4242 3.83878 10.6284 3.3864 10.9807 3.09816C11.1688 2.94203 11.349 2.77389 11.5291 2.60575C11.5492 2.58573 11.5452 2.5457 11.5492 2.51367C11.7773 2.51367 12.0015 2.51367 12.2297 2.51367C12.2577 2.69382 12.1537 2.79391 12.0175 2.88198C11.8974 2.96205 11.7733 3.04211 11.6693 3.1422C11.5452 3.2663 11.4491 3.42243 11.321 3.54253C11.2129 3.64261 11.1328 3.76271 10.9887 3.83878C10.7925 3.93886 10.6324 4.11901 10.4602 4.26313C10.2361 4.45129 10.0119 4.63544 9.77968 4.8276C9.79969 4.84361 9.83572 4.87964 9.87175 4.91567C9.83973 4.95571 9.8117 5.01175 9.76767 5.02777C9.4474 5.15587 9.12313 5.28798 8.79485 5.40008C8.67075 5.44812 8.53063 5.45212 8.39452 5.47614Z" fill="#5993CD"/>
<path d="M3.1101 9.9998C2.96198 9.92774 2.87791 9.94375 2.8619 10.1399C2.85389 10.228 2.79384 10.3321 2.72178 10.3881C2.35748 10.6764 1.97315 10.9446 1.60885 11.2368C1.48475 11.3369 1.42069 11.3169 1.34863 11.2008C1.36064 11.0527 1.37666 10.9086 1.38867 10.7604C1.40068 10.7324 1.41269 10.7084 1.4287 10.6804C1.46873 10.5322 1.50877 10.3881 1.5488 10.24C1.68491 10.3921 1.73696 10.3841 1.88508 10.216C2.06923 10.0078 2.25739 9.79963 2.54163 9.71156C2.59768 9.69554 2.63371 9.61147 2.69376 9.53941C2.91794 9.61948 3.01803 9.5234 3.04605 9.27519C3.06206 9.10705 3.18216 9.07902 3.39034 9.16309C3.38633 9.27919 3.40635 9.4073 3.36632 9.51139C3.30226 9.67953 3.19818 9.83966 3.1101 9.9998Z" fill="#6397D0"/>
<path d="M9.87626 4.91958C9.84023 4.88355 9.80019 4.84752 9.78418 4.83151C10.0164 4.63935 10.2406 4.45519 10.4647 4.26704C10.6409 4.12292 10.797 3.94277 10.9932 3.84268C11.1413 3.76662 11.2214 3.64652 11.3255 3.54644C11.4536 3.42634 11.5456 3.27021 11.6738 3.1461C11.7778 3.04602 11.9019 2.96595 12.022 2.88588C12.1582 2.79781 12.2662 2.69773 12.2342 2.51758C12.4264 2.5496 12.6185 2.56962 12.8107 2.61366C12.9628 2.64969 13.0029 2.80982 12.8908 2.92192C12.8267 2.98597 12.7426 3.06604 12.6666 3.06604C12.5185 3.07004 12.4384 3.1421 12.3543 3.23818C12.2823 3.18213 12.2142 3.13009 12.1021 3.04202C11.966 3.2622 11.8499 3.47438 11.7058 3.67054C11.6177 3.79464 11.5056 3.91074 11.3815 3.99481C11.1373 4.15895 10.9532 4.42717 10.6249 4.43918C10.6049 4.43918 10.5728 4.4592 10.5648 4.47921C10.4447 4.77146 10.1165 4.74744 9.91229 4.91558C9.90828 4.92358 9.88827 4.91558 9.87626 4.91958ZM11.3895 3.79064C11.3655 3.77863 11.3455 3.75861 11.3375 3.76262C11.3215 3.77062 11.3095 3.79064 11.2974 3.80665C11.3135 3.81466 11.3295 3.82667 11.3455 3.82267C11.3575 3.82267 11.3695 3.80665 11.3895 3.79064Z" fill="#5391CD"/>
<path d="M12.9631 14.8086C13.0391 15.1048 12.9751 15.3851 12.835 15.6453C12.6708 15.9495 12.5147 16.2658 12.2985 16.534C12.0984 16.7782 11.8261 16.9664 11.5859 17.1786C11.4498 17.2987 11.3177 17.4228 11.1816 17.5429C11.1416 17.5789 11.1015 17.6189 11.0535 17.6349C10.7132 17.7671 10.3689 17.8912 10.0246 18.0233C9.79243 18.1113 9.56824 18.2194 9.33605 18.2955C9.17191 18.3515 8.99576 18.4036 8.82362 18.4036C8.61945 18.4036 8.45531 18.4676 8.27916 18.5597C8.18709 18.6118 8.04297 18.6398 7.95489 18.5997C7.63863 18.4716 7.31035 18.5677 6.99409 18.5237C6.86999 18.5077 6.75389 18.4316 6.63379 18.3796C7.04613 18.3916 7.45848 18.4356 7.86682 18.4076C9.23596 18.3235 10.489 17.9112 11.5699 17.0304C12.1624 16.55 12.6108 15.9736 12.851 15.241C12.895 15.1048 12.927 14.9527 12.9631 14.8086Z" fill="#112A59"/>
<path d="M6.50935 18.3746C6.30919 18.3706 6.10502 18.3826 5.90885 18.3586C5.69267 18.3306 5.4805 18.2745 5.27633 18.2065C5.10819 18.1504 4.95205 18.0663 4.79192 17.9903C4.47966 17.8382 4.1634 17.694 3.86315 17.5219C3.3267 17.2136 2.83829 16.8333 2.37791 16.425C2.2498 16.3129 2.16573 16.1528 2.05364 16.0206C1.94154 15.8885 1.80943 15.7724 1.70935 15.6323C1.5292 15.3841 1.36506 15.1239 1.19292 14.8677C1.08483 14.7115 0.972736 14.5554 0.848633 14.3793C0.852636 14.3472 0.864646 14.2752 0.872653 14.2031C1.09684 14.5314 1.31702 14.8597 1.54521 15.1839C2.16973 16.0607 2.93037 16.7973 3.84313 17.3738C4.5277 17.8061 5.26432 18.0864 6.04096 18.2825C6.19709 18.3146 6.35322 18.3426 6.50935 18.3746Z" fill="#112A59"/>
<path d="M13.7994 16.2495C13.7314 16.3536 13.6633 16.4577 13.5913 16.5578C13.5112 16.6618 13.3831 16.7019 13.299 16.6058C13.235 16.5337 13.203 16.3816 13.235 16.2935C13.3911 15.8572 13.4231 15.4088 13.3871 14.9524C13.3711 14.7603 13.3631 14.5681 13.315 14.3839C13.251 14.1437 13.1549 13.9155 13.0628 13.6833C13.0548 13.6633 12.9868 13.6633 12.9668 13.6593C12.9668 13.8395 12.9668 14.0036 12.9668 14.1678C12.8907 13.9436 12.8507 13.6994 12.7346 13.4952C12.5544 13.1709 12.3302 12.8747 12.1221 12.5664C12.2262 12.5984 12.3503 12.6024 12.4343 12.6625C12.6065 12.7866 12.7586 12.9427 12.9187 13.0868C12.9668 13.227 13.0068 13.3711 13.0668 13.5072C13.1829 13.7634 13.3511 13.9996 13.4231 14.2678C13.5552 14.7482 13.5873 15.2487 13.5112 15.7451C13.4832 15.9172 13.4151 16.0854 13.3751 16.2575C13.3591 16.3216 13.3791 16.3896 13.3831 16.4577C13.4431 16.4337 13.5112 16.4176 13.5672 16.3896C13.6473 16.3416 13.7234 16.2935 13.7994 16.2495Z" fill="#112A59"/>
<path d="M10.1964 2.55859C10.1163 2.58261 10.0322 2.61064 9.95215 2.63466C10.0322 2.60663 10.1163 2.58261 10.1964 2.55859Z" fill="#5993CD"/>
<path d="M2.70995 7.4375C2.68193 7.47754 2.65791 7.51758 2.62988 7.55762C2.6539 7.51758 2.68193 7.47754 2.70995 7.4375Z" fill="#78A3D6"/>
<path d="M1.4248 10.6816C1.41279 10.7097 1.40078 10.7337 1.38477 10.7617C1.40078 10.7377 1.41279 10.7097 1.4248 10.6816Z" fill="#5391CD"/>
<path d="M8.47457 2.95117C8.44655 2.95117 8.42254 2.95518 8.39453 2.95518C8.41854 2.95518 8.44655 2.95518 8.47457 2.95117Z" fill="#6397D0"/>
<path d="M10.3965 2.55469C10.3965 2.5667 10.3965 2.58271 10.3965 2.59472C10.3684 2.58271 10.3444 2.5707 10.3164 2.55469C10.3404 2.55469 10.3684 2.55469 10.3965 2.55469Z" fill="#5993CD"/>
<path d="M9.83593 2.63477C9.8079 2.64678 9.77988 2.66279 9.75586 2.6748C9.77988 2.65879 9.8079 2.64678 9.83593 2.63477Z" fill="#5993CD"/>
<path d="M5.02832 3.43105C5.05234 3.41103 5.08037 3.39502 5.10439 3.375C5.07637 3.39502 5.05234 3.41103 5.02832 3.43105Z" fill="#6B98BA"/>
<path d="M15.1968 17.5668C15.1968 17.4067 15.1968 17.2466 15.1968 17.0864C15.1968 16.9023 15.2169 16.7141 15.1888 16.534C15.1728 16.4339 15.0887 16.3418 15.0327 16.2457C15.1608 16.0336 15.3009 15.8214 15.417 15.6012C15.5051 15.4371 15.5651 15.2609 15.6492 15.0527C15.8294 15.389 15.9254 15.7173 15.9935 16.0576C16.1817 16.9783 16.0175 17.8471 15.6172 18.6838C15.393 19.1522 15.0968 19.5645 14.7765 19.9728C14.3401 20.5333 13.8037 20.9777 13.2312 21.362C12.4986 21.8544 11.6939 22.2347 10.8252 22.4469C10.9333 22.3428 11.0294 22.1787 11.1575 22.1466C11.3496 22.0986 11.5098 22.0265 11.6659 21.9104C11.746 21.8504 11.8541 21.8224 11.9341 21.7623C11.9942 21.7143 12.0222 21.6342 12.0662 21.5702C12.1183 21.5542 12.1743 21.5421 12.2264 21.5261C12.2544 21.5261 12.2784 21.5261 12.3064 21.5261C12.5306 21.398 12.7588 21.2699 12.975 21.1338C13.023 21.1058 13.035 21.0257 13.0671 20.9657C13.0791 20.9537 13.0951 20.9376 13.1071 20.9256C13.3833 20.8816 13.5194 20.6974 13.5875 20.4452C13.6155 20.4452 13.6395 20.4452 13.6676 20.4452C13.7636 20.3572 13.8677 20.2811 13.9478 20.181C14.132 19.9608 14.3161 19.7366 14.4802 19.5004C14.6364 19.2763 14.7725 19.0361 14.8966 18.7919C14.9406 18.7038 14.9326 18.5877 14.9486 18.4876C14.9486 18.4596 14.9486 18.4356 14.9486 18.4075C14.9967 18.3675 15.0687 18.3355 15.0847 18.2834C15.1328 18.1273 15.1568 17.9632 15.1888 17.803C15.1968 17.727 15.1968 17.6469 15.1968 17.5668Z" fill="#0E1F64"/>
<path d="M13.7996 16.2487C13.7235 16.2927 13.6515 16.3448 13.5714 16.3848C13.5113 16.4128 13.4473 16.4328 13.3872 16.4528C13.3832 16.3848 13.3672 16.3167 13.3792 16.2527C13.4193 16.0805 13.4873 15.9124 13.5153 15.7402C13.5954 15.2438 13.5594 14.7434 13.4273 14.263C13.3552 13.9988 13.1871 13.7586 13.071 13.5024C13.0109 13.3663 12.9709 13.2221 12.9229 13.082C13.2751 13.3543 13.5554 13.7025 13.7595 14.0829C13.9077 14.3591 13.9797 14.6874 14.0358 14.9996C14.0958 15.3439 14.0958 15.6962 14.1239 16.0445C14.0438 16.1126 13.9637 16.1766 13.8837 16.2447C13.8516 16.2447 13.8236 16.2447 13.7996 16.2487Z" fill="#0E1F64"/>
<path d="M12.0776 21.5742C12.0336 21.6383 12.0016 21.7183 11.9455 21.7664C11.8654 21.8304 11.7574 21.8544 11.6773 21.9145C11.5212 22.0306 11.361 22.1027 11.1689 22.1507C11.0408 22.1827 10.9487 22.3469 10.8366 22.4509C10.7685 22.4509 10.7045 22.4509 10.6364 22.4509C10.5964 22.479 10.5564 22.503 10.5163 22.531C9.86778 22.6591 9.21924 22.7792 8.55469 22.7312C8.57871 22.7071 8.60273 22.6591 8.63075 22.6551C9.01107 22.6111 9.38738 22.571 9.7677 22.531C9.80773 22.527 9.86778 22.539 9.88379 22.519C10.0639 22.2508 10.3722 22.3428 10.6124 22.2388C10.9127 22.1107 11.2049 21.9705 11.5051 21.8384C11.6292 21.7824 11.7614 21.7424 11.8855 21.6863C11.9495 21.6583 12.0096 21.6143 12.0776 21.5742Z" fill="#112A59"/>
<path d="M15.036 16.2461C15.088 16.3422 15.1761 16.4343 15.1921 16.5343C15.2162 16.7145 15.2001 16.9026 15.2001 17.0868C15.1441 16.9747 15.076 16.8666 15.032 16.7505C14.9679 16.5784 14.8759 16.4743 14.6797 16.5664C14.7958 16.4583 14.9159 16.3542 15.036 16.2461Z" fill="#112A59"/>
<path d="M13.8789 16.2451C13.959 16.177 14.039 16.113 14.1191 16.0449C14.1071 16.125 14.0911 16.2051 14.0791 16.2851C14.011 16.2731 13.943 16.2611 13.8789 16.2451Z" fill="#112A59"/>
<path d="M14.4755 16.7266C14.4475 16.9427 14.2874 16.9628 14.1152 16.9668C14.2393 16.8867 14.3594 16.8066 14.4755 16.7266Z" fill="#112A59"/>
<path d="M7.62988 22.6539C7.74998 22.6859 7.89811 22.5738 7.99419 22.73C7.87008 22.7059 7.74998 22.6819 7.62988 22.6539Z" fill="#112A59"/>
<path d="M14.0396 17.0107C13.9916 17.0267 13.9435 17.0427 13.8955 17.0588C13.9155 16.9747 13.9395 16.8946 13.9596 16.8105C13.9836 16.8746 14.0116 16.9427 14.0396 17.0107Z" fill="#112A59"/>
<path d="M10.5127 22.5351C10.5527 22.5071 10.5928 22.4831 10.6328 22.4551C10.5968 22.4791 10.5567 22.5071 10.5127 22.5351Z" fill="#0E1F64"/>
<path d="M13.999 16.6055C14.011 16.5774 14.027 16.5534 14.0391 16.5254C14.023 16.5534 14.011 16.5814 13.999 16.6055Z" fill="#112A59"/>
<path d="M14.9599 18.4071C14.9599 18.4351 14.9599 18.4591 14.9599 18.4872C14.8318 18.7474 14.7037 19.0076 14.5676 19.2638C14.5435 19.3079 14.4835 19.3319 14.4395 19.3679C14.4995 19.1157 14.5836 18.8795 14.7677 18.6833C14.8398 18.6073 14.8478 18.4672 14.8798 18.3551C14.9479 18.1109 15.0119 17.8627 15.088 17.6225C15.096 17.5944 15.1601 17.5864 15.2001 17.5664C15.2001 17.6465 15.2001 17.7265 15.2001 17.8066C15.152 17.8707 15.08 17.9227 15.056 17.9948C15.0079 18.1269 14.9879 18.271 14.9599 18.4071Z" fill="#182043"/>
<path d="M13.119 20.9286C13.107 20.9406 13.091 20.9566 13.079 20.9686C12.8508 21.1087 12.6186 21.2488 12.3944 21.397C12.3544 21.421 12.3424 21.485 12.3183 21.5291C12.2903 21.5291 12.2663 21.5291 12.2383 21.5291C12.2583 21.3409 12.3544 21.2408 12.5305 21.1487C12.7987 21.0086 13.0309 20.8045 13.2791 20.6323C13.3152 20.6083 13.3592 20.5923 13.3993 20.5723C13.3552 20.6363 13.3152 20.7004 13.2671 20.7604C13.2191 20.8205 13.1671 20.8725 13.119 20.9286Z" fill="#182043"/>
<path d="M13.6797 20.4499C13.6516 20.4499 13.6276 20.4499 13.5996 20.4499C13.5876 20.4499 13.5716 20.4499 13.5596 20.4499C13.6356 20.1977 13.7677 20.0016 13.9999 19.8534C14.12 19.7774 14.1801 19.6173 14.2762 19.5012C14.3202 19.4491 14.3843 19.4131 14.4363 19.373C14.3002 19.5812 14.1881 19.8134 14.02 19.9856C13.8798 20.1297 13.7397 20.2578 13.6797 20.4499Z" fill="#182043"/>
<path d="M13.5595 20.4492C13.5715 20.4492 13.5875 20.4492 13.5995 20.4492C13.5275 20.6974 13.3954 20.8856 13.1191 20.9296C13.1672 20.8736 13.2232 20.8175 13.2673 20.7615C13.3153 20.7014 13.3553 20.6334 13.3994 20.5733C13.4514 20.5333 13.5035 20.4893 13.5595 20.4492Z" fill="#112A59"/>
<path d="M15.2324 4.75221C15.4446 4.42794 15.6608 4.09966 15.873 3.77539C15.905 3.91951 15.8409 4.01559 15.7489 4.12769C15.6288 4.27581 15.5487 4.45596 15.4366 4.61209C15.3886 4.67615 15.3005 4.70817 15.2324 4.75221Z" fill="#5589B7"/>
<path d="M15.873 3.75576C15.9811 3.51556 16.0892 3.27536 16.1973 3.03516C16.2013 3.03916 16.2093 3.04316 16.2133 3.04717C16.2493 3.18328 16.0052 3.69571 15.873 3.75576Z" fill="#5589B7"/>
<path d="M21.5301 9.79688C21.6221 9.84492 21.7102 9.89296 21.8023 9.941C21.8583 9.98904 21.9184 10.0371 21.9744 10.0851C21.9704 10.0971 21.9664 10.1091 21.9624 10.1171C21.7823 10.0331 21.6021 9.95301 21.422 9.86894C21.418 9.85693 21.418 9.84492 21.418 9.83291C21.458 9.8249 21.494 9.80889 21.5301 9.79688Z" fill="#252F71"/>
<path d="M22.4863 10.7617C22.5264 11.082 22.5664 11.4023 22.6064 11.7225C22.5664 11.4023 22.5264 11.082 22.4863 10.7617Z" fill="#5589B7"/>
<path d="M22.6064 13.6426C22.6064 13.7747 22.6184 13.9108 22.6024 14.0389C22.5904 14.111 22.5303 14.175 22.4902 14.2431C22.4982 14.139 22.4942 14.0349 22.5143 13.9348C22.5303 13.8387 22.5744 13.7427 22.6064 13.6426Z" fill="#5589B7"/>
<path d="M20.8054 6.75781C20.7894 6.81786 20.7734 6.87791 20.7534 6.93396C20.7214 6.92195 20.6733 6.92195 20.6533 6.89793C20.6293 6.8659 20.6253 6.81786 20.6133 6.77783C20.6813 6.77383 20.7414 6.76582 20.8054 6.75781Z" fill="#5589B7"/>
<path d="M22.2464 14.8438C22.2304 14.7357 22.2103 14.6276 22.1943 14.5195C22.2264 14.6276 22.2584 14.7357 22.2864 14.8438C22.2704 14.8438 22.2584 14.8438 22.2464 14.8438Z" fill="#6B98BA"/>
<path d="M14.9961 5.03717C15.0642 4.9571 15.1282 4.87704 15.1963 4.79297C15.2083 4.93709 15.1682 5.04117 14.9961 5.03717Z" fill="#5589B7"/>
<path d="M21.4453 7.59766C21.4853 7.68973 21.5254 7.78581 21.5654 7.87789C21.5254 7.78581 21.4853 7.68973 21.4453 7.59766Z" fill="#5589B7"/>
<path d="M19.1242 4.51562C19.1923 4.58368 19.2563 4.64773 19.3244 4.71579C19.1882 4.71979 19.1202 4.65174 19.1242 4.51562Z" fill="#5589B7"/>
<path d="M19.4041 4.79688C19.4562 4.84892 19.5122 4.90497 19.5643 4.95701C19.4482 4.96502 19.3961 4.91297 19.4041 4.79688Z" fill="#5589B7"/>
<path d="M21.7617 9.8044C21.7096 9.75236 21.6536 9.69631 21.6016 9.64426C21.7177 9.63225 21.7737 9.6843 21.7617 9.8044Z" fill="#6B98BA"/>
<path d="M16.0011 6.1581C15.945 6.13408 15.893 6.10605 15.8369 6.08203C15.893 6.10605 15.945 6.13007 16.0011 6.1581Z" fill="#5589B7"/>
<path d="M20.3128 5.76172C20.3168 5.77373 20.3208 5.78574 20.3168 5.79775C20.3128 5.78974 20.3048 5.78174 20.3008 5.77373C20.3008 5.77373 20.3088 5.76572 20.3128 5.76172Z" fill="#5589B7"/>
<path d="M22.3262 9.91992C22.3302 9.92793 22.3382 9.93995 22.3422 9.94796C22.3422 9.94796 22.3342 9.95597 22.3262 9.95997C22.3262 9.94796 22.3262 9.93194 22.3262 9.91992Z" fill="#5589B7"/>
<path d="M11.389 3.79148C11.3689 3.8075 11.3569 3.82351 11.3449 3.82751C11.3289 3.82751 11.3129 3.8155 11.2969 3.8115C11.3089 3.79549 11.3209 3.77547 11.3369 3.76746C11.3449 3.75946 11.3649 3.77947 11.389 3.79148Z" fill="#5993CD"/>
<path d="M13.6797 20.4498C13.7437 20.2537 13.8799 20.1255 14.024 19.9854C14.1961 19.8133 14.3042 19.5771 14.4403 19.3729C14.4844 19.3369 14.5444 19.3129 14.5684 19.2688C14.7045 19.0126 14.8326 18.7524 14.9608 18.4922C14.9447 18.5963 14.9527 18.7124 14.9087 18.7964C14.7846 19.0406 14.6485 19.2808 14.4924 19.505C14.3282 19.7412 14.1441 19.9654 13.9599 20.1856C13.8759 20.2857 13.7718 20.3657 13.6797 20.4498Z" fill="#112A59"/>
<path d="M12.3145 21.5292C12.3385 21.4852 12.3545 21.4211 12.3905 21.3971C12.6147 21.249 12.8469 21.1089 13.0751 20.9688C13.047 21.0248 13.031 21.1049 12.983 21.1369C12.7668 21.277 12.5386 21.4011 12.3145 21.5292Z" fill="#112A59"/>
<path d="M14.96 18.4071C14.988 18.267 15.008 18.1269 15.056 17.9948C15.0801 17.9227 15.1521 17.8707 15.2002 17.8066C15.1681 17.9668 15.1441 18.1309 15.0961 18.287C15.0801 18.3351 15.004 18.3671 14.96 18.4071Z" fill="#112A59"/>
</g>
<defs>
<clipPath id="clip0_944_917">
<rect width="22.7069" height="24" fill="white"/>
</clipPath>
</defs>
</svg>
