<svg width="24" height="24" viewBox="0 0 24 24" fill="none" xmlns="http://www.w3.org/2000/svg">
<circle cx="12" cy="12" r="12" fill="black"/>
<path d="M17.6282 12.8863C17.6282 12.8646 17.6315 12.8434 17.6337 12.8217C17.0636 12.3735 16.351 12.1538 15.6315 12.2044C14.9121 12.255 14.2361 12.5724 13.7324 13.0961C13.2289 13.6198 12.9326 14.3132 12.9004 15.0441C12.8682 15.7751 13.1021 16.4926 13.5576 17.0598C15.7486 16.3912 17.4228 14.7756 17.6282 12.8863Z" fill="#F3C558"/>
<path fill-rule="evenodd" clip-rule="evenodd" d="M10.3926 13.3789C10.3917 14.0109 10.5146 14.6366 10.7539 15.22C10.9932 15.8033 11.3443 16.3328 11.7868 16.7775C12.0944 16.848 12.4083 16.8863 12.7235 16.8917C12.2095 16.2045 11.9605 15.3504 12.0236 14.4901C12.0867 13.6297 12.4575 12.8224 13.0662 12.2201C13.6749 11.6176 14.4796 11.2617 15.3289 11.2191C16.1781 11.1765 17.0135 11.4503 17.6777 11.9888C17.6684 10.7682 17.3559 9.87173 17.0638 9.29339C16.9929 9.15416 16.921 9.02877 16.8502 8.91511C16.1333 8.63105 15.359 8.5286 14.5943 8.61648C13.8296 8.70444 13.0976 8.98018 12.4616 9.41982C11.8255 9.85941 11.3048 10.4497 10.9442 11.1396C10.5837 11.8295 10.3944 12.5981 10.3926 13.3789Z" fill="#F3C558"/>
<path fill-rule="evenodd" clip-rule="evenodd" d="M7.47931 8.06792C6.43719 8.7604 5.64438 9.77689 5.21971 10.9651C5.12425 11.2455 5.05084 11.5331 5.00002 11.8253C5.00002 11.881 5.00002 11.9367 5.00002 11.9924C4.9966 13.5459 5.44217 15.0663 6.28166 16.3654C6.82312 16.6852 8.34199 17.381 11.3336 17.3906C12.1275 17.3934 12.9171 17.271 13.6739 17.0279C13.4052 17.0699 13.1337 17.0906 12.8618 17.0897C11.5912 17.0865 10.3688 16.5954 9.44045 15.7151C8.51218 14.8349 7.9467 13.6307 7.85772 12.3447C7.76875 11.0587 8.1629 9.78608 8.96094 8.78289C9.75897 7.77969 10.9017 7.12019 12.1594 6.93696C12.0716 6.93696 11.9799 6.93359 11.8849 6.93359C10.6477 6.93359 8.88284 7.13082 7.47931 8.06792Z" fill="#F3C558"/>
<path fill-rule="evenodd" clip-rule="evenodd" d="M8.25672 5.5089C5.53039 7.55139 5.09161 10.293 5.02246 11.2402C5.102 10.9788 5.19866 10.723 5.31184 10.4747C5.48251 10.0785 5.70191 9.70581 5.96474 9.36542C6.36928 8.82295 6.86304 8.35531 7.42426 7.98317C7.6344 7.84378 7.85343 7.7187 8.07992 7.60876C9.22868 7.01763 10.4961 6.8544 11.5613 6.83878C12.0856 6.82322 12.6103 6.84371 13.1318 6.90006C13.5162 6.9313 13.7995 6.95857 13.9242 6.94019C14.6897 6.82875 15.3245 6.30393 15.3245 5.51947C15.3245 4.76902 14.6397 4.18234 14.0176 4.07593C13.666 4.02306 13.3109 3.99772 12.9555 4.00016C11.7919 4.00016 9.94254 4.24586 8.25672 5.5089Z" fill="#F3C558"/>
<path fill-rule="evenodd" clip-rule="evenodd" d="M18.018 12.9313C17.8758 14.2389 17.1081 15.4618 15.8567 16.375C14.6052 17.2881 13.0128 17.7851 11.3539 17.7851H11.3269C9.05798 17.7778 7.60723 17.3901 6.7627 17.0436C8.3551 19.1172 11.5439 20.5368 14.4987 19.8053C19.9965 18.4436 20.6296 13.1547 19.1113 10.8124C18.6873 10.1618 18.1242 9.61641 17.4639 9.2168C17.8664 10.0503 18.197 11.2744 18.018 12.9313Z" fill="#F3C558"/>
</svg>
