<svg width="24" height="24" viewBox="0 0 24 24" fill="none" xmlns="http://www.w3.org/2000/svg">
<g clip-path="url(#clip0_934_934)">
<circle cx="12" cy="12" r="12" fill="#A60BE8"/>
<path d="M10.0268 12.1803C10.4136 12.2264 10.8057 12.1995 11.1826 12.101C12.7968 11.6602 13.9197 10.6538 14.5478 9.10773C14.7943 8.5136 14.8236 7.85167 14.6307 7.23809C14.4145 6.53628 13.9225 6.07238 13.2551 5.83938C11.6718 5.28775 10.1215 5.42881 8.64488 6.21134C7.95359 6.57698 7.49741 7.19388 7.10791 7.85709C6.8335 8.3245 6.59769 8.81717 6.21309 9.2144C5.8285 9.61163 5.38075 9.66426 4.88807 9.52811C4.52383 9.42705 4.3561 9.14773 4.32171 8.78489C4.26626 8.21502 4.46698 7.71322 4.76806 7.25002C5.49514 6.13133 6.5226 5.36706 7.71568 4.81262C9.34459 4.05396 11.0584 3.77464 12.8389 4.0294C13.9008 4.18099 14.8896 4.54664 15.7114 5.2695C16.3949 5.85216 16.8424 6.66416 16.9698 7.55321C17.2014 9.10422 16.607 10.3541 15.5451 11.4265C14.6924 12.2883 13.6734 12.9003 12.5463 13.3256C12.0789 13.5025 11.5883 13.6197 11.1054 13.7565C10.9967 13.7881 10.9454 13.8267 10.9756 13.9481C11.2205 14.9496 11.5693 15.9055 12.2199 16.7231C12.4691 17.0361 12.7344 17.3547 13.1604 17.4095C13.7653 17.4982 14.383 17.4216 14.9479 17.1877C15.6553 16.8901 16.2659 16.4634 16.7382 15.8472C16.894 15.6444 17.094 15.49 17.3698 15.4837C17.6583 15.4767 17.8429 15.6528 17.8555 15.9413C17.8716 16.3231 17.7151 16.6431 17.4695 16.9112C16.8442 17.6108 16.091 18.1844 15.2504 18.6012C14.5815 18.9275 13.8846 19.1381 13.1288 19.1282C12.4115 19.1184 11.8388 18.7956 11.3328 18.3275C10.7138 17.7548 10.2619 17.0558 9.9292 16.2922C9.59654 15.5286 9.3088 14.7307 9.00211 13.9481C8.98596 13.9067 8.96561 13.8667 8.93193 13.7853C8.87859 13.9046 8.83788 13.9853 8.8063 14.0696C8.42521 15.0865 8.05325 16.1048 7.66234 17.1203C7.45611 17.6872 7.15781 18.2162 6.77946 18.6861C6.58365 18.9205 6.37592 19.1493 6.07764 19.2539C5.4018 19.4911 4.53366 19.1837 4.65437 18.079C4.69999 17.672 4.88737 17.3239 5.07546 16.9744C5.95693 15.3602 6.82508 13.7355 7.7248 12.1318C8.24485 11.2047 8.80139 10.298 9.36915 9.39898C9.65549 8.94561 10.0008 8.52662 10.4429 8.20589C10.6654 8.04518 10.9033 7.98482 11.1447 8.14554C11.3862 8.30625 11.4486 8.58207 11.3721 8.84735C11.2509 9.27957 11.1054 9.70461 10.9363 10.1204C10.6745 10.7521 10.3805 11.369 10.1004 11.9929C10.0731 12.0434 10.0555 12.0989 10.0268 12.1803Z" fill="white"/>
<path d="M18.555 18.3076C18.5635 18.1512 18.6034 17.9982 18.6725 17.8577C18.7415 17.7171 18.8382 17.592 18.9567 17.4897C19.0753 17.3874 19.2132 17.3101 19.3623 17.2624C19.5115 17.2147 19.6687 17.1975 19.8246 17.212C20.0217 17.2299 20.206 17.3175 20.3444 17.4589C20.4828 17.6004 20.5662 17.7866 20.5797 17.984C20.6499 18.629 20.073 19.2473 19.4246 19.2332C19.3058 19.2323 19.1886 19.2073 19.0798 19.1597C18.971 19.1121 18.873 19.0429 18.7918 18.9564C18.7105 18.8699 18.6476 18.7678 18.6069 18.6562C18.5662 18.5447 18.5486 18.4261 18.555 18.3076V18.3076Z" fill="white"/>
</g>
<defs>
<clipPath id="clip0_934_934">
<rect width="24" height="24" fill="white"/>
</clipPath>
</defs>
</svg>
