<svg width="24" height="24" viewBox="0 0 24 24" fill="none" xmlns="http://www.w3.org/2000/svg">
<g clip-path="url(#clip0_2215_1806)">
<path d="M24 12C24 18.6274 18.6274 24 12 24C5.37258 24 0 18.6274 0 12C0 5.37258 5.37258 0 12 0C18.6274 0 24 5.37258 24 12Z" fill="url(#paint0_linear_2215_1806)"/>
<path d="M10.7998 14.6008C10.6998 14.6008 10.5998 14.6008 10.4998 14.5008L8.8998 12.9008C8.7998 12.8008 8.7998 12.7008 8.7998 12.6008C8.7998 12.5008 8.7998 12.4008 8.8998 12.3008L12.8998 8.40078C12.9998 8.30078 13.0998 8.30078 13.1998 8.30078C13.2998 8.30078 13.3998 8.30078 13.4998 8.40078L15.1998 10.0008C15.2998 10.0008 15.2998 10.2008 15.2998 10.3008C15.2998 10.4008 15.2998 10.5008 15.1998 10.6008L11.0998 14.5008C10.9998 14.6008 10.8998 14.6008 10.7998 14.6008Z" fill="url(#paint1_radial_2215_1806)"/>
<path d="M15.2 6.9L11.9 3.7C11.4 3.3 10.8 3 10.1 3C9.4 3 8.7 3.3 8.2 3.8C8 3.9 8 4 8 4.1C8 4.2 8 4.3 8.1 4.4L12.6 8.7C12.7 8.8 12.8 8.8 12.8 8.9C13.8 10 13.9 11.6 13 12.7L15.2 10.6C15.7 10.2 16 9.5 16 8.8C16 8.1 15.7 7.4 15.2 6.9Z" fill="url(#paint2_linear_2215_1806)"/>
<path d="M11.3002 13.8508C10.3002 12.7508 10.2002 11.1508 11.2002 10.0508L9.0002 12.1508C8.5002 12.6508 8.2002 13.3508 8.2002 14.0508C8.2002 14.7508 8.5002 15.4508 9.0002 15.9508L13.8002 20.8508C13.9002 20.9508 14.0002 20.9508 14.1002 20.9508C14.2002 20.9508 14.3002 20.9508 14.4002 20.8508C14.9002 20.3508 15.2002 19.6508 15.2002 18.9508C15.2002 18.2508 14.9002 17.5508 14.4002 17.0508L11.4002 14.0508C11.4002 13.9508 11.3002 13.9508 11.3002 13.8508Z" fill="url(#paint3_linear_2215_1806)"/>
</g>
<defs>
<linearGradient id="paint0_linear_2215_1806" x1="24" y1="7.15256e-07" x2="-7.15256e-07" y2="24" gradientUnits="userSpaceOnUse">
<stop offset="0.157218" stop-color="#805245"/>
<stop offset="0.541863" stop-color="#642B35"/>
<stop offset="0.90625" stop-color="#1E141B"/>
</linearGradient>
<radialGradient id="paint1_radial_2215_1806" cx="0" cy="0" r="1" gradientUnits="userSpaceOnUse" gradientTransform="translate(12.0662 11.4397) scale(3.2159)">
<stop stop-color="#BE4650"/>
<stop offset="1" stop-color="#9B375A"/>
</radialGradient>
<linearGradient id="paint2_linear_2215_1806" x1="8" y1="7.8865" x2="16" y2="7.8865" gradientUnits="userSpaceOnUse">
<stop stop-color="#FF3C55"/>
<stop offset="0.514" stop-color="#FF3D56"/>
<stop offset="1" stop-color="#FF8B65"/>
</linearGradient>
<linearGradient id="paint3_linear_2215_1806" x1="8.1209" y1="15.4977" x2="15.1882" y2="15.4977" gradientUnits="userSpaceOnUse">
<stop stop-color="#FF3C55"/>
<stop offset="0.514" stop-color="#FF3C55"/>
<stop offset="1" stop-color="#FF8B65"/>
</linearGradient>
<clipPath id="clip0_2215_1806">
<rect width="24" height="24" fill="white"/>
</clipPath>
</defs>
</svg>
