<svg width="24" height="24" viewBox="0 0 24 24" fill="none" xmlns="http://www.w3.org/2000/svg">
<g clip-path="url(#clip0_2372_1845)">
<path d="M22.8294 11.9992C22.8294 17.98 17.981 22.8285 12.0002 22.8285C6.01933 22.8285 1.1709 17.98 1.1709 11.9992C1.1709 6.01835 6.01933 1.16992 12.0002 1.16992C17.981 1.16992 22.8294 6.01835 22.8294 11.9992Z" fill="url(#paint0_linear_2372_1845)"/>
<path fill-rule="evenodd" clip-rule="evenodd" d="M24 12C24 18.6274 18.6274 24 12 24C5.37258 24 0 18.6274 0 12C0 5.37258 5.37258 0 12 0C18.6274 0 24 5.37258 24 12ZM12 22.8293C17.9808 22.8293 22.8293 17.9808 22.8293 12C22.8293 6.01916 17.9808 1.17073 12 1.17073C6.01916 1.17073 1.17073 6.01916 1.17073 12C1.17073 17.9808 6.01916 22.8293 12 22.8293Z" fill="#FFE2B0"/>
<path fill-rule="evenodd" clip-rule="evenodd" d="M4.06036 19.3638C3.95479 19.25 3.85164 19.134 3.75098 19.0158L6.69824 16.0685C6.78901 15.9777 6.93618 15.9777 7.02695 16.0685C7.11772 16.1593 7.11772 16.3065 7.02695 16.3972L4.06036 19.3638ZM4.72129 20.0177C4.60652 19.9135 4.494 19.8068 4.38381 19.6978L8.25961 15.822C8.35038 15.7312 8.49754 15.7312 8.58832 15.822C8.67909 15.9128 8.67909 16.0599 8.58832 16.1507L4.72129 20.0177ZM5.43862 20.6152C5.31456 20.5206 5.19261 20.4234 5.07284 20.3236L8.01307 17.3834C8.10384 17.2926 8.25101 17.2926 8.34178 17.3834C8.43255 17.4741 8.43255 17.6213 8.34178 17.7121L5.43862 20.6152Z" fill="white"/>
<path fill-rule="evenodd" clip-rule="evenodd" d="M10.5805 10.8165C12.9018 7.78102 15.8139 7.23346 16.9797 7.33911C17.0854 8.50497 16.5378 11.417 13.5023 13.7383L13.1903 15.2677L11.6875 16.527L11.3413 14.9254L10.2735 14.6946L9.77132 15.1968L9.44646 14.8724L9.44669 14.8722L9.12207 14.5475L9.62427 14.0453L9.39349 12.9775L7.7918 12.6314L9.05112 11.1286L10.5805 10.8165ZM12.5094 11.8094C12.8752 12.1752 13.4682 12.1752 13.834 11.8094C14.1997 11.4436 14.1997 10.8506 13.834 10.4849C13.4682 10.1191 12.8752 10.1191 12.5094 10.4849C12.1437 10.8506 12.1437 11.4436 12.5094 11.8094Z" fill="#FF3E2F" fill-opacity="0.6"/>
<path fill-rule="evenodd" clip-rule="evenodd" d="M10.4848 10.674C12.8061 7.63845 15.7182 7.09088 16.884 7.19653C16.9897 8.3624 16.4421 11.2744 13.4066 13.5958L13.0946 15.1251L11.5918 16.3845L11.2456 14.7828L10.1778 14.552L9.67562 15.0542L9.35076 14.7298L9.35099 14.7296L9.02636 14.405L9.52857 13.9027L9.29778 12.835L7.6961 12.4888L8.95542 10.986L10.4848 10.674ZM12.4137 11.6668C12.7795 12.0326 13.3725 12.0326 13.7383 11.6668C14.104 11.3011 14.104 10.7081 13.7383 10.3423C13.3725 9.97654 12.7795 9.97654 12.4137 10.3423C12.048 10.7081 12.048 11.3011 12.4137 11.6668Z" fill="white"/>
</g>
<defs>
<linearGradient id="paint0_linear_2372_1845" x1="22.8294" y1="1.16992" x2="1.1709" y2="22.8285" gradientUnits="userSpaceOnUse">
<stop stop-color="#FF7954"/>
<stop offset="1" stop-color="#FFBF70"/>
</linearGradient>
<clipPath id="clip0_2372_1845">
<rect width="24" height="24" fill="white"/>
</clipPath>
</defs>
</svg>
