<svg width="24" height="24" viewBox="0 0 24 24" fill="none" xmlns="http://www.w3.org/2000/svg">
<path d="M0 2C0 0.89543 0.895431 0 2 0H22C23.1046 0 24 0.895431 24 2V22C24 23.1046 23.1046 24 22 24H2C0.89543 24 0 23.1046 0 22V2Z" fill="white"/>
<path d="M16.03 12.4456C15.7486 12.0279 15.0701 11.8054 14.5845 11.6744C14.5279 11.6595 14.469 11.6446 14.4064 11.629H14.4015C14.14 11.5628 13.8431 11.4897 13.6121 11.3642C13.3473 11.2193 13.2175 11.0313 13.2175 10.7896C13.2172 10.7504 13.2209 10.7113 13.2284 10.6728V10.6658C13.2322 10.6481 13.2368 10.6305 13.2423 10.6132C13.243 10.6108 13.2437 10.6085 13.2447 10.6063V10.6036C13.2789 10.5034 13.3363 10.4127 13.4121 10.3388C13.6084 10.1402 13.9215 10.0287 14.2727 10.0287H14.2836C14.5422 10.0344 14.7967 10.0942 15.0307 10.2044C15.2645 10.3106 15.4758 10.4604 15.6533 10.646L15.6576 11.1494V11.1547H16.0945V9.63876H15.6586V9.98233C15.6586 9.98484 15.658 9.98731 15.6567 9.98951C15.6555 9.99171 15.6538 9.99357 15.6516 9.99491C15.6477 9.99491 15.6424 9.99226 15.6397 9.98961C15.4551 9.84928 15.2498 9.73861 15.031 9.6616C14.7965 9.58131 14.5507 9.53863 14.3028 9.53516C14.0185 9.53516 13.7862 9.56826 13.5922 9.63148C13.4309 9.68524 13.281 9.76865 13.1503 9.8774C13.0082 9.98842 12.8941 10.1311 12.817 10.2941C12.7425 10.4512 12.7034 10.6227 12.7025 10.7966C12.7004 10.8995 12.7132 11.0022 12.7405 11.1014C12.7743 11.2113 12.8246 11.3154 12.8895 11.4102C12.8951 11.4192 12.9017 11.4278 12.9077 11.4364C12.9137 11.445 12.914 11.4447 12.917 11.449L12.9209 11.4543C13.2073 11.8498 13.8464 12.0249 14.3128 12.1537L14.3257 12.157L14.4293 12.1858L14.5415 12.2159C14.7845 12.2754 15.0223 12.3546 15.2525 12.4529C15.3726 12.5058 15.4786 12.5862 15.5619 12.6875C15.6391 12.7815 15.6913 12.8934 15.7139 13.0129C15.7358 13.132 15.7268 13.2548 15.6877 13.3694C15.642 13.5014 15.5662 13.6209 15.4663 13.7186C15.3567 13.8161 15.2281 13.8898 15.0886 13.9351C14.953 13.9788 14.812 14.0041 14.6696 14.0102C14.4416 14.0212 14.2134 13.9954 13.9937 13.9337C13.6213 13.8159 13.2814 13.5885 13.061 13.3108C13.0536 13.3018 13.0481 13.2915 13.0447 13.2804L13.0404 12.8474V12.8418H12.6035V14.4266H13.0408V13.9632C13.2234 14.1239 13.435 14.2482 13.6644 14.3293C13.9325 14.4282 14.2151 14.4821 14.5008 14.4888H14.5362C14.7788 14.4888 15.3465 14.4888 15.7917 14.1118C15.9149 14.0052 16.017 13.8763 16.0925 13.7318C16.1652 13.5928 16.2126 13.4419 16.2325 13.2863C16.2529 13.1372 16.246 12.9857 16.212 12.8391C16.18 12.6965 16.1179 12.5623 16.03 12.4456Z" fill="black"/>
<path d="M11.7159 12.4456C11.4402 12.0299 10.759 11.8064 10.2705 11.6747C10.2149 11.6601 10.1573 11.6459 10.096 11.6307C9.56644 11.4999 8.90709 11.3368 8.89948 10.7883C8.89947 10.7057 8.91695 10.624 8.95079 10.5487C8.98726 10.4695 9.03797 10.3977 9.1004 10.3368C9.29899 10.1409 9.61046 10.0283 9.95899 10.0283H9.96992C10.2283 10.0339 10.4826 10.0938 10.7163 10.2041C10.9491 10.31 11.1593 10.46 11.3353 10.6456L11.3439 11.1491V11.1547H11.7808V9.63876H11.3449V9.98233C11.3448 9.9848 11.3442 9.98723 11.3431 9.98942C11.3419 9.99161 11.3403 9.99349 11.3382 9.99491C11.3349 9.99491 11.331 9.99491 11.326 9.98961C11.1414 9.84928 10.936 9.73861 10.7173 9.6616C10.4828 9.58131 10.237 9.53863 9.98911 9.53516C9.70314 9.53516 9.47012 9.56826 9.27682 9.63148C9.11606 9.68537 8.96677 9.76877 8.83659 9.8774C8.69451 9.98842 8.58037 10.1311 8.50328 10.2941C8.42834 10.4515 8.38901 10.6236 8.3881 10.7979C8.38599 10.9007 8.39858 11.0032 8.4255 11.1024C8.45851 11.2116 8.50736 11.3153 8.57047 11.4102C8.84487 11.8379 9.51612 12.0216 10.0063 12.156L10.0179 12.1589L10.1152 12.1858L10.2178 12.2132L10.2274 12.2159C10.4705 12.2753 10.7083 12.3546 10.9384 12.4529C11.059 12.5066 11.1654 12.5875 11.2495 12.6892C11.327 12.7842 11.3795 12.8971 11.4021 13.0175C11.4237 13.1369 11.4144 13.2597 11.375 13.3744C11.3288 13.5063 11.2526 13.6256 11.1522 13.7229C11.0434 13.8202 10.9153 13.8934 10.7762 13.9377C10.6402 13.9813 10.4989 14.006 10.3562 14.0112C10.3267 14.0112 10.2959 14.0132 10.2648 14.0132C10.0653 14.0137 9.86675 13.9866 9.67467 13.9327C9.65249 13.9258 9.62999 13.9182 9.60847 13.9102H9.60516C9.56048 13.8944 9.51579 13.8771 9.47276 13.8569C9.25677 13.7623 9.05922 13.6302 8.88922 13.4667L8.88062 13.4584C8.85414 13.432 8.82733 13.4038 8.80151 13.3744L8.78165 13.3515C8.77006 13.3379 8.75881 13.3247 8.74855 13.3108C8.74142 13.3018 8.73604 13.2916 8.73266 13.2807L8.72836 12.8477V12.8421H8.28516V14.4269H8.7267V13.9635C8.9093 14.1242 9.12097 14.2485 9.3503 14.3296C9.61842 14.4285 9.90103 14.4824 10.1867 14.4891H10.2221C10.4634 14.4891 11.0284 14.4891 11.4776 14.1121C11.6008 14.0055 11.7029 13.8766 11.7785 13.7322C11.8511 13.594 11.8987 13.4441 11.9191 13.2893C11.9395 13.1402 11.9326 12.9887 11.8986 12.8421C11.8667 12.6984 11.8044 12.5632 11.7159 12.4456Z" fill="black"/>
<path d="M7.23493 14.0511L6.04071 12.2455C6.24305 12.2533 6.44445 12.2142 6.62921 12.1313C6.89037 11.999 7.10022 11.8311 7.22898 11.5829C7.33362 11.378 7.38786 11.151 7.38719 10.9209C7.38694 10.559 7.24427 10.2117 6.99 9.95407C6.71395 9.70384 6.36938 9.58203 5.93611 9.58203H3.62213V10.0815H4.11333V14.0571H3.5791V14.4748H5.12981V14.0571H4.63034V12.2528H5.4661L6.63617 14.0571H6.10459V14.4748H7.77346V14.0571H7.25148C7.24846 14.0573 7.24544 14.0568 7.24259 14.0558C7.23975 14.0548 7.23714 14.0532 7.23493 14.0511ZM4.63034 10.059H5.91029C6.30352 10.059 6.60538 10.2152 6.7583 10.4837C6.83194 10.6184 6.86937 10.77 6.86694 10.9236C6.8645 11.0771 6.82228 11.2274 6.7444 11.3598C6.58751 11.6246 6.40215 11.7709 5.99106 11.7709H4.63034V10.059Z" fill="black"/>
<path d="M20.22 13.0271C20.22 12.4276 19.9172 11.9947 19.4147 11.809C19.8407 11.5853 20.0287 11.2172 20.0287 10.8382C20.0287 9.96339 19.2949 9.5 18.338 9.5C17.8157 9.50397 17.2589 9.67774 16.8786 10.2116L17.2758 10.4708C17.4887 10.1845 17.7918 9.96339 18.338 9.96339C19.0331 9.96339 19.5263 10.2457 19.5263 10.7833C19.5263 11.2983 19.0317 11.5853 18.5253 11.5853H17.8355V12.0818H18.5654C19.2111 12.0818 19.7215 12.4296 19.7057 13.0214C19.6696 13.6503 19.1155 13.9883 18.3899 13.9883C17.9232 13.9883 17.4049 13.8413 17.018 13.4276L16.9981 13.42L16.6592 13.791L16.6751 13.795C17.1616 14.2514 17.7399 14.4874 18.3899 14.4874C19.3909 14.4854 20.22 13.9439 20.22 13.0271Z" fill="black"/>
<path d="M3.25712 11.7676H2V12.281H3.25712V11.7676Z" fill="#0B70FF"/>
<path d="M22.0003 11.7676H20.7432V12.281H22.0003V11.7676Z" fill="#0B70FF"/>
</svg>
