<svg width="24" height="24" viewBox="0 0 24 24" fill="none" xmlns="http://www.w3.org/2000/svg">
<path d="M12 0C5.37226 0 0 5.37226 0 12C0 18.6277 5.37226 24 12 24C18.6277 24 24 18.6277 24 12C24 5.37226 18.6277 0 12 0ZM19.4161 18.8818C17.7431 20.8263 14.6774 22.0058 11.9606 21.7489C10.3723 21.5985 9.1708 20.9489 8.57956 19.9197C7.90803 18.7518 7.89051 17.6759 8.52409 16.5314C9.08905 15.5109 10.0964 14.5693 11.1635 13.5723C12.0759 12.7197 13.019 11.838 13.7387 10.8526C15.0949 8.99416 15.2015 7.86131 14.9255 6.16642C14.7752 5.24234 13.8788 3.98686 13.1547 3.09781C13.0219 2.93431 13.0088 2.72263 13.1197 2.54307C13.2219 2.3781 13.3985 2.28321 13.5898 2.28321C13.6321 2.28321 13.6759 2.28759 13.7197 2.29781C17.292 3.09197 20.4029 5.66423 21.4584 8.69781C22.7431 12.3898 22.0555 15.8161 19.4175 18.8832L19.4161 18.8818Z" fill="url(#paint0_angular_2478_2941)"/>
<defs>
<radialGradient id="paint0_angular_2478_2941" cx="0" cy="0" r="1" gradientUnits="userSpaceOnUse" gradientTransform="translate(12 12) rotate(90) scale(12)">
<stop offset="0.103036" stop-color="#8AB4CF"/>
<stop offset="0.226235" stop-color="#DFFAFD"/>
<stop offset="0.308706" stop-color="#E0FDFD"/>
<stop offset="0.362781" stop-color="#A8E6EE"/>
<stop offset="0.561803" stop-color="#62DEFA"/>
<stop offset="0.702919" stop-color="#6475B4"/>
<stop offset="0.84317" stop-color="#844D9D"/>
<stop offset="0.994732" stop-color="#9E2C8B"/>
</radialGradient>
</defs>
</svg>
