<svg width="24" height="24" viewBox="0 0 24 24" fill="none" xmlns="http://www.w3.org/2000/svg">
<path d="M15.5652 8.36725C15.8686 8.54484 16.153 8.75382 16.4156 8.99167C16.9353 9.46292 17.338 10.0195 17.6125 10.6448C17.8784 11.2505 18.0131 11.8934 18.0131 12.5552C18.0131 13.8075 17.5212 14.9996 16.6279 15.9116L13.9235 18.6732C13.8685 18.7293 13.8191 18.7778 13.7723 18.8213L13.77 18.8235L13.7676 18.8257C13.1225 19.4311 12.3333 19.8532 11.4755 20.0619C11.0584 19.2618 10.8353 18.3307 10.8353 17.3536C10.8353 16.5411 10.9865 15.7677 11.2851 15.0545C11.4907 14.5629 11.7609 14.1167 12.0881 13.7282C12.3454 13.4229 13.6082 11.9581 13.7449 11.8046C14.4441 11.0197 14.8933 10.3407 15.2007 9.6034C15.3658 9.20763 15.4864 8.80076 15.5652 8.36725ZM13.1926 5.44336C13.3146 5.9422 13.3729 6.46958 13.3729 7.00425C13.3729 8.38406 12.9986 9.23173 11.9935 10.3601C11.8377 10.5351 10.5608 12.0167 10.2968 12.3297C9.82069 12.8945 9.43383 13.5348 9.14485 14.2261C8.74119 15.1905 8.52832 16.2548 8.52832 17.3539C8.52832 19.2415 9.15638 21.0259 10.2968 22.3781C10.3117 22.3959 10.3265 22.4133 10.3417 22.4308C12.1672 22.4022 13.9805 21.7264 15.3777 20.4155C15.4535 20.3447 15.5276 20.2718 15.6007 20.1973L18.3064 17.4345C19.6525 16.0601 20.3198 14.306 20.3198 12.5555C20.3198 10.6639 19.5408 8.77634 17.9977 7.37655C17.3505 6.78955 16.6223 6.3367 15.8502 6.01704C15.001 5.66503 14.0988 5.47444 13.1926 5.44336Z" fill="url(#paint0_linear_1681_942)"/>
<path d="M14.199 2.01546C14.0616 1.85246 13.9202 1.68661 13.7745 1.51758C12.0762 1.58925 10.4013 2.22128 9.07596 3.40447C8.95404 3.51356 8.83475 3.62709 8.71909 3.74538L6.01343 6.50817C3.21253 9.36768 3.35093 13.8709 6.32218 16.5661C6.99176 17.174 7.74833 17.6377 8.55038 17.9589C9.38636 18.2938 10.2718 18.4736 11.1605 18.5002C11.086 18.1194 11.0399 17.7179 11.0129 17.2939C10.9911 16.9546 11.026 16.6102 11.0972 16.2759C10.2504 16.229 9.43744 15.9813 8.72403 15.5564C8.43274 15.3839 8.15792 15.1812 7.9042 14.951C6.91564 14.0542 6.34887 12.8402 6.309 11.5333C6.2688 10.2261 6.75978 8.98238 7.69166 8.031L10.3977 5.26821C10.8876 4.76811 11.4656 4.38058 12.1158 4.1161C12.2654 4.05553 12.4169 4.00162 12.5705 3.95532C13.0634 3.80595 13.5765 3.73047 14.1008 3.73047C14.5137 3.73047 14.9199 3.77804 15.3127 3.87064C15.0376 3.19548 14.6662 2.5698 14.199 2.01546Z" fill="url(#paint1_linear_1681_942)"/>
<path d="M15.3777 20.4152C15.3971 20.4006 15.4165 20.3857 15.436 20.3705L11.8759 24C11.322 23.4786 10.832 23.0064 10.3417 22.4305C10.3265 22.4131 10.3117 22.3957 10.2968 22.3779C9.27896 21.1709 8.66935 19.6196 8.55007 17.9581C8.53557 17.758 8.52832 17.5567 8.52832 17.3537C8.52832 16.7397 8.59488 16.1366 8.72372 15.5556C8.82587 15.0967 8.96691 14.6518 9.14485 14.2259C9.43383 13.5346 9.82069 12.8943 10.2968 12.3295C10.5608 12.0165 11.8377 10.5349 11.9935 10.3598C12.9986 9.2315 13.3729 8.38383 13.3729 7.00402C13.3729 6.46934 13.3146 5.94197 13.1926 5.44313C13.0612 4.90402 12.8559 4.39884 12.5702 3.95455C12.4377 3.74841 12.2878 3.55529 12.1201 3.37833C10.9981 2.19387 9.87242 3.08023 8.69077 3.79662L9.07565 3.4037L12.412 0C12.9083 0.530232 13.359 1.03573 13.7742 1.51681C13.9199 1.68584 14.0612 1.85169 14.1987 2.01469C14.6659 2.56903 15.0373 3.19471 15.3124 3.86987C15.5872 4.54313 15.7662 5.26586 15.8502 6.01681C15.8878 6.35011 15.9065 6.68943 15.9065 7.03192C15.9065 8.13108 15.9207 8.96924 15.063 10.1318C14.0322 11.5288 12.5168 13.5381 12.1435 13.9595C11.8466 14.3607 11.3098 15.2718 11.0969 16.2752C11.0257 16.6094 10.9908 16.9538 11.0126 17.2931C11.0396 17.7171 11.0857 18.1186 11.1602 18.4995C11.3276 19.3592 11.6383 20.1124 12.1982 20.7764C12.6476 21.3095 14.1476 21.3371 15.3777 20.4152Z" fill="url(#paint2_linear_1681_942)"/>
<defs>
<linearGradient id="paint0_linear_1681_942" x1="14.2036" y1="23.0596" x2="14.6172" y2="6.61906" gradientUnits="userSpaceOnUse">
<stop stop-color="#3DD4FD"/>
<stop offset="1" stop-color="#A267FA"/>
</linearGradient>
<linearGradient id="paint1_linear_1681_942" x1="7.5" y1="19" x2="11" y2="2" gradientUnits="userSpaceOnUse">
<stop stop-color="#3DD4FD"/>
<stop offset="1" stop-color="#A267FA"/>
</linearGradient>
<linearGradient id="paint2_linear_1681_942" x1="12.2739" y1="0.206131" x2="12.1708" y2="24.06" gradientUnits="userSpaceOnUse">
<stop stop-color="#3DD4FD"/>
<stop offset="1" stop-color="#A267FA"/>
</linearGradient>
</defs>
</svg>
