<svg width="25" height="24" viewBox="0 0 25 24" fill="none" xmlns="http://www.w3.org/2000/svg">
<g clip-path="url(#clip0_720_12360)">
<circle cx="12.3689" cy="12.0008" r="11.0769" fill="white"/>
<path d="M6.36907 2.76998L8.21522 5.07767L4.52291 9.23152L3.1383 6.00075L2.67676 2.30844L3.59983 0.923828L6.36907 2.76998Z" fill="#EF8A14"/>
<path d="M17.9073 2.76998L16.0611 5.07767L19.7535 9.23152L21.1381 6.00075L21.5996 2.30844L20.6765 0.923828L17.9073 2.76998Z" fill="#EF8A14"/>
<path d="M2.82496 5.61648C2.79782 5.46873 2.77109 5.32099 2.74315 5.17344C2.71115 5.00331 2.67288 4.8342 2.64675 4.66326C2.61982 4.48722 2.60321 4.30936 2.58398 4.13231C2.57223 4.02405 2.56271 3.91558 2.55461 3.80711C2.54752 3.7135 2.54509 3.61968 2.5378 3.52607C2.52403 3.35085 2.50196 3.17624 2.49487 3.00082C2.48961 2.87119 2.50378 2.74094 2.50702 2.61111C2.51006 2.48921 2.51087 2.36711 2.51087 2.245C2.51087 2.08281 2.49791 1.9198 2.51047 1.75862C2.52727 1.5427 2.5615 1.32801 2.59147 1.1131C2.63096 0.830232 2.73343 0.564454 2.87741 0.324725C2.96935 0.171689 3.0787 -0.0149254 3.30591 0.000947987C3.45577 0.0115303 3.61089 0.0284212 3.75143 0.077466C4.01367 0.169043 4.26701 0.287077 4.5246 0.392492C4.76396 0.490582 4.96323 0.655218 5.17707 0.794619C5.3249 0.891081 5.45714 1.01217 5.59404 1.12491C5.77325 1.27265 5.95652 1.41653 6.12663 1.57445C6.32873 1.76208 6.51888 1.96294 6.7143 2.1579C6.8437 2.2914 6.97554 2.42266 7.1021 2.5586C7.54438 3.03359 7.98645 3.50897 8.42488 3.98741C8.49292 4.06169 8.54962 4.0855 8.65006 4.04623C8.86351 3.96279 9.08201 3.89095 9.30112 3.82359C10.2183 3.54194 11.1611 3.43693 12.116 3.42228C12.4058 3.4178 12.6959 3.42533 12.9853 3.43999C13.2745 3.45464 13.5645 3.47417 13.8517 3.5106C14.6236 3.60889 15.3788 3.78411 16.1118 4.04867C16.2098 4.08408 16.2657 4.0619 16.3249 3.98294C16.7471 3.41943 17.195 2.8777 17.6863 2.3728C17.7657 2.2912 17.8388 2.20308 17.9149 2.11801C17.9575 2.07365 17.9982 2.02705 18.0431 1.98513C18.1217 1.91186 18.2029 1.84165 18.2827 1.76982C18.4058 1.6587 18.5259 1.54372 18.6527 1.43668C18.7845 1.32556 18.9174 1.21404 19.0597 1.11718C19.3009 0.952946 19.5486 0.797875 19.796 0.643414C20.1247 0.438078 20.4872 0.310683 20.8505 0.183492C21.1044 0.0945605 21.3677 0.0715644 21.6311 0.0536559C21.7322 0.0467367 21.7672 0.158054 21.811 0.229078C21.8804 0.342023 21.9373 0.463719 21.9906 0.585415C22.0309 0.677603 22.0607 0.775082 22.089 0.871951C22.1135 0.955592 22.1342 1.04106 22.1484 1.12715C22.165 1.22768 22.1725 1.32984 22.1848 1.43118C22.1963 1.52541 22.2107 1.61922 22.2204 1.71365C22.2362 1.86953 22.2618 2.02603 22.2603 2.18192C22.2585 2.38359 22.231 2.58506 22.2206 2.78694C22.2154 2.8893 22.2281 2.99248 22.2239 3.09504C22.2198 3.19069 22.2049 3.28614 22.1931 3.38138C22.1814 3.47865 22.1692 3.57593 22.1546 3.6728C22.1356 3.79978 22.1117 3.92616 22.0941 4.05335C22.0759 4.18441 22.0663 4.31669 22.0455 4.44734C22.0266 4.56537 21.9955 4.68116 21.9734 4.79879C21.9274 5.043 21.8839 5.28741 21.8393 5.53182C21.8158 5.56967 21.7812 5.60447 21.7707 5.64558C21.6887 5.96386 21.6214 6.28621 21.5305 6.60165C21.311 7.36337 21.0801 8.12163 20.858 8.88253C20.8438 8.93137 20.8485 8.99996 20.8726 9.04371C21.3094 9.83453 21.6783 10.6536 21.9244 11.5265C22.1403 12.2925 22.2731 13.0721 22.3294 13.8656C22.3486 14.1356 22.3715 14.4057 22.3839 14.6759C22.3897 14.8031 22.375 14.9313 22.3697 15.0589C22.3697 14.9981 22.3652 14.9366 22.3709 14.8762C22.3782 14.7982 22.3442 14.7681 22.2707 14.7563C21.6243 14.6537 20.9754 14.6236 20.3248 14.7026C19.0125 14.8615 17.889 15.4195 16.935 16.3325C16.8506 16.4132 16.7647 16.4922 16.6705 16.5805C16.597 16.3799 16.5314 16.192 16.4595 16.0064C16.224 15.3978 15.9122 14.8326 15.4715 14.3491C14.5665 13.356 13.4211 12.9506 12.1052 13.0235C10.9121 13.0896 9.94672 13.6303 9.17638 14.5388C8.68287 15.1206 8.32767 15.784 8.02958 16.4818C8.01683 16.5115 8.00225 16.5406 7.98847 16.5699C7.97551 16.5781 7.96276 16.586 7.9498 16.5942C7.92408 16.5545 7.90362 16.5099 7.87163 16.4761C7.28476 15.8579 6.61325 15.3591 5.82287 15.0341C4.70098 14.5727 3.54163 14.5296 2.36122 14.7317C2.295 14.7431 2.27961 14.7779 2.27981 14.8359C2.28042 14.9645 2.279 15.0933 2.27839 15.2219C2.27191 15.1755 2.25794 15.1287 2.25996 15.0825C2.27029 14.8357 2.28386 14.5888 2.29763 14.3422C2.33246 13.718 2.42318 13.1014 2.55481 12.4911C2.81058 11.3049 3.22147 10.1734 3.76175 9.08889C3.79436 9.02336 3.81623 8.96617 3.78362 8.88864C3.34176 7.83489 3.07526 6.72802 2.82496 5.61648ZM3.29234 2.38115C3.27898 2.50223 3.25771 2.62311 3.25366 2.74461C3.23645 3.27047 3.25265 3.79551 3.34459 4.31465C3.40595 4.66061 3.47723 5.00535 3.55641 5.34785C3.63255 5.67753 3.71963 6.00476 3.81036 6.33058C3.89197 6.62403 3.98188 6.91545 4.07463 7.20565C4.12141 7.35217 4.18196 7.49422 4.24514 7.6613C4.28139 7.61205 4.30326 7.58437 4.3231 7.55548C4.46202 7.35177 4.59183 7.14114 4.74108 6.94537C4.93164 6.69566 5.13536 6.45573 5.33766 6.21539C5.64507 5.8499 5.98528 5.51737 6.35019 5.21008C6.37814 5.19217 6.40791 5.17629 6.43383 5.15574C6.59179 5.02957 6.74569 4.8981 6.90729 4.77641C7.06342 4.65878 7.22604 4.5499 7.38764 4.4396C7.46034 4.38995 7.47006 4.34701 7.40181 4.28067C7.14038 4.02608 6.89028 3.75929 6.62257 3.51162C6.02679 2.96012 5.40813 2.43385 4.70483 2.02522C4.37717 1.83494 4.01975 1.69655 3.6763 1.53375C3.60724 1.50099 3.56472 1.53273 3.53657 1.58992C3.41344 1.84043 3.32049 2.10092 3.29234 2.38115ZM21.1939 2.3608C21.1785 2.08484 21.0771 1.83453 20.9651 1.58768C20.9388 1.52968 20.8983 1.49875 20.8272 1.5309C20.5518 1.65585 20.2632 1.75659 20.0018 1.90555C19.6721 2.09359 19.3564 2.30951 19.0488 2.53296C18.7849 2.72466 18.5312 2.93305 18.2906 3.15365C17.8781 3.53197 17.4792 3.92514 17.0752 4.31282C17.0596 4.32768 17.0509 4.34986 17.0381 4.3696C17.0529 4.38364 17.0614 4.39422 17.0721 4.40175C17.2766 4.55011 17.4824 4.69704 17.6861 4.84661C17.8107 4.93819 17.9322 5.03404 18.0549 5.12806C18.9137 5.84969 19.6286 6.69912 20.2513 7.66761C20.2839 7.5862 20.3066 7.53838 20.3226 7.48852C20.4272 7.16332 20.5404 6.84056 20.6324 6.5117C20.778 5.99011 20.9224 5.46751 21.0417 4.93941C21.1212 4.58715 21.1706 4.22613 21.2067 3.86633C21.2407 3.52688 21.2476 3.18398 21.25 2.84229C21.2512 2.68213 21.214 2.52136 21.1939 2.3608ZM6.13797 11.3429C6.14182 11.4139 6.15012 11.4852 6.1487 11.556C6.14607 11.6913 6.19386 11.8016 6.3022 11.881C6.47879 12.0102 6.64889 12.1521 6.83783 12.2603C7.36961 12.5652 7.94818 12.7485 8.54355 12.8802C8.96557 12.9734 9.39023 13.0526 9.82562 13.0222C9.9048 13.0167 9.98458 12.9942 10.0601 12.9681C10.1318 12.9435 10.1723 12.8865 10.1419 12.8079C10.0947 12.6858 10.0547 12.5572 9.986 12.4477C9.84202 12.2182 9.6385 12.0418 9.41635 11.892C9.15613 11.7165 8.89024 11.5487 8.62111 11.3875C8.15473 11.1083 7.68471 10.8341 7.17683 10.6355C6.93159 10.5397 6.68413 10.4507 6.41398 10.4542C6.32792 10.4552 6.2779 10.4849 6.24327 10.5643C6.13453 10.8144 6.13594 11.0784 6.13797 11.3429ZM18.6873 11.139C18.6699 11.0195 18.6559 10.836 18.6142 10.6591C18.5583 10.4216 18.5034 10.3789 18.2651 10.4304C18.0194 10.4835 17.7738 10.5549 17.5425 10.6528C16.8903 10.929 16.2975 11.3154 15.702 11.695C15.4417 11.8608 15.1858 12.0361 14.9964 12.2829C14.8913 12.4199 14.8081 12.5792 14.7425 12.7398C14.6825 12.8865 14.7267 12.9592 14.8838 12.985C15.0487 13.0121 15.2202 13.0288 15.386 13.0151C16.128 12.9535 16.8421 12.7695 17.5269 12.4773C17.8979 12.3189 18.2505 12.1274 18.5403 11.8368C18.6071 11.7699 18.6551 11.6976 18.659 11.5987C18.664 11.4664 18.6748 11.3346 18.6873 11.139ZM7.53466 9.87381C8.00549 9.86546 8.37121 9.84898 8.72904 9.74397C8.93297 9.68414 9.04576 9.55044 9.07209 9.34978C9.08728 9.2346 9.09092 9.107 9.0571 8.99833C8.90441 8.51032 8.55225 8.20751 8.09216 8.02863C7.97794 7.98426 7.83801 7.97978 7.71388 7.99342C7.26492 8.04226 6.92248 8.27507 6.69446 8.66254C6.49863 8.99528 6.5037 9.33228 6.7305 9.65646C6.79814 9.75333 6.88177 9.81927 7.00206 9.82944C7.21328 9.84756 7.4249 9.86485 7.53466 9.87381ZM16.8994 9.89518C16.9006 9.88927 16.9016 9.88337 16.9028 9.87767C17.0845 9.8675 17.2673 9.86608 17.4476 9.84349C17.5508 9.83046 17.6732 9.80991 17.7463 9.74601C17.9081 9.60457 17.9929 9.41226 18.0008 9.18942C18.0117 8.87724 17.8876 8.62042 17.6762 8.40694C17.3789 8.10657 17.0245 7.94112 16.5914 7.99851C16.3048 8.03656 16.093 8.21259 15.8887 8.39636C15.7101 8.55692 15.5578 8.74476 15.5094 8.9849C15.4178 9.43912 15.5286 9.70836 15.9782 9.78142C16.2831 9.83067 16.592 9.85794 16.8994 9.89518Z" fill="#F3A228"/>
<path d="M2.82559 5.6153C3.07569 6.72684 3.34219 7.83371 3.78426 8.88848C3.81686 8.96622 3.79499 9.0234 3.76239 9.08873C3.2221 10.1734 2.81122 11.3047 2.55545 12.4909C2.42382 13.1012 2.3331 13.7179 2.29827 14.342C2.2845 14.5887 2.27093 14.8355 2.2606 15.0824C2.25858 15.1286 2.27255 15.1754 2.27903 15.2218C2.31386 15.3943 2.33877 15.5698 2.38555 15.7391C2.56821 16.3999 2.91267 16.9764 3.32457 17.5151C3.9082 18.2784 4.60644 18.9246 5.35976 19.5139C6.22811 20.1932 7.16288 20.7638 8.15294 21.2447C8.18129 21.2622 8.20802 21.2838 8.23819 21.297C8.58732 21.4499 8.93016 21.62 9.28799 21.7486C9.76003 21.9181 10.2436 22.0543 10.7223 22.2049C11.1596 22.2722 11.5958 22.3481 12.0346 22.4027C12.226 22.4265 12.4228 22.4065 12.6172 22.4065C12.6508 22.4071 12.6844 22.4094 12.718 22.4078C13.2523 22.3807 13.7784 22.2944 14.296 22.1631C16.0487 21.7187 17.6446 20.9397 19.1005 19.8668C19.5717 19.5194 20.0184 19.1425 20.4236 18.7178C20.6101 18.5133 20.8066 18.3167 20.9807 18.102C21.1462 17.8981 21.2883 17.675 21.4408 17.4605C21.9524 16.7387 22.2749 15.943 22.3701 15.0584C22.3756 14.9306 22.3902 14.8025 22.3843 14.6754C22.3717 14.4049 22.3489 14.1351 22.3298 13.865C22.2735 13.0715 22.1407 12.2919 21.9248 11.5259C21.6788 10.6529 21.3098 9.83396 20.873 9.04314C20.8489 8.99939 20.8442 8.93081 20.8584 8.88197C21.0806 8.12106 21.3114 7.3628 21.5309 6.60108C21.6219 6.28564 21.6891 5.96309 21.7711 5.64501C21.7816 5.6039 21.8163 5.5689 21.8398 5.53125C21.8653 5.59596 21.8819 5.66617 21.9179 5.72438C22.0757 5.97896 22.2513 6.22317 22.3977 6.48386C22.5799 6.80865 22.7415 7.14525 22.9094 7.47798C23.1249 7.90494 23.2895 8.35245 23.4331 8.80809C23.4865 8.97761 23.5522 9.14449 23.5912 9.31747C23.6731 9.68052 23.7417 10.0464 23.8144 10.4115C23.845 10.5654 23.88 10.719 23.8991 10.8745C23.9199 11.0467 23.9232 11.2209 23.9371 11.3938C23.9475 11.5206 23.9657 11.6468 23.9746 11.7736C23.9788 11.8324 23.9695 11.892 23.9665 11.9512C23.9651 11.9809 23.9588 12.0117 23.9637 12.0404C24.0001 12.2522 24.0104 12.4633 23.9582 12.6745C23.9515 12.7016 23.9635 12.7333 23.9677 12.7628C23.9728 12.7988 23.9849 12.8353 23.9829 12.8709C23.9718 13.0618 23.9618 13.2531 23.9422 13.4433C23.9244 13.6153 23.894 13.786 23.8705 13.9576C23.848 14.1204 23.8274 14.2834 23.8059 14.4464C23.7879 14.4712 23.7583 14.494 23.7541 14.5211C23.734 14.6452 23.721 14.7704 23.7057 14.8951C23.6854 14.9629 23.6652 15.0309 23.6451 15.0986C23.5923 15.2749 23.5366 15.4503 23.4884 15.6278C23.4705 15.6933 23.4701 15.7635 23.4618 15.8315C23.4047 16.001 23.3505 16.1715 23.2897 16.3396C23.2407 16.4752 23.1907 16.6111 23.1291 16.7411C22.9228 17.1768 22.7182 17.6136 22.4985 18.0426C22.3681 18.2973 22.2209 18.545 22.0621 18.7831C21.8888 19.043 21.6948 19.289 21.5072 19.5391C21.4068 19.6732 21.3068 19.8084 21.1958 19.9337C21.0522 20.0959 20.8979 20.2488 20.7483 20.4057C20.6227 20.5373 20.5008 20.6725 20.3708 20.7994C20.2286 20.9382 20.0836 21.0748 19.9315 21.2024C19.7226 21.3776 19.5085 21.5469 19.2912 21.7118C19.1329 21.8318 18.9708 21.948 18.802 22.0522C18.4551 22.2659 18.107 22.478 17.7514 22.6768C17.316 22.9202 16.8591 23.121 16.3879 23.2826C15.9711 23.4255 15.5519 23.5667 15.1246 23.6715C14.7138 23.7725 14.2933 23.8437 13.8731 23.8948C13.4333 23.9483 12.989 23.9715 12.5459 23.9908C11.956 24.0165 11.3671 23.9788 10.7829 23.895C10.4401 23.8457 10.0976 23.7816 9.76165 23.697C9.30217 23.5812 8.84774 23.444 8.39392 23.3066C8.23354 23.258 8.07842 23.1886 7.92613 23.1174C7.51585 22.9255 7.10355 22.7366 6.70157 22.528C6.46889 22.4073 6.251 22.2561 6.0333 22.1088C5.7824 21.9391 5.53392 21.7647 5.29334 21.5805C5.0641 21.4051 4.83973 21.2219 4.62547 21.0286C4.42661 20.8491 4.24294 20.6527 4.05461 20.4616C3.88997 20.2943 3.72088 20.1307 3.56778 19.9531C3.40841 19.7681 3.26564 19.5682 3.11599 19.3747C3.05422 19.2949 2.98861 19.2178 2.93272 19.1342C2.76261 18.8798 2.59636 18.623 2.42868 18.3669C2.38615 18.302 2.34444 18.2367 2.30232 18.1716C2.29341 18.0399 2.22293 17.9398 2.13829 17.8468C2.0909 17.752 2.04351 17.6573 1.99633 17.5625C1.99208 17.543 1.99066 17.522 1.98296 17.5039C1.83736 17.1608 1.69257 16.8173 1.54393 16.4756C1.51396 16.4066 1.46961 16.3441 1.43174 16.2786C1.3076 15.8526 1.17334 15.4291 1.06277 14.9995C0.989061 14.7132 0.941269 14.4193 0.895705 14.1267C0.857634 13.8862 0.840218 13.6424 0.814298 13.3998C0.796882 13.2378 0.773796 13.076 0.764481 12.9134C0.751723 12.6885 0.74018 12.4631 0.745445 12.2382C0.7499 12.0481 0.780681 11.8588 0.796274 11.6688C0.801135 11.6087 0.787972 11.5473 0.794249 11.4876C0.82179 11.2255 0.848319 10.963 0.884972 10.7021C0.923044 10.4319 0.960305 10.1606 1.02004 9.89481C1.09639 9.55496 1.18063 9.21531 1.28735 8.884C1.41068 8.5008 1.56074 8.12635 1.70168 7.74885C1.74218 7.64018 1.79079 7.53435 1.83574 7.42731C1.88941 7.33207 1.94287 7.23663 1.99653 7.14138C2.05263 7.02396 2.10022 6.90145 2.16623 6.78993C2.35396 6.47307 2.55181 6.16212 2.73973 5.84526C2.78084 5.77627 2.79765 5.69243 2.82559 5.6153Z" fill="#EB3F28"/>
<path d="M17.9155 2.11928C17.8395 2.20435 17.7664 2.29226 17.6869 2.37407C17.1956 2.87877 16.7476 3.4207 16.3254 3.98421C16.2661 4.06337 16.2104 4.08535 16.1124 4.04994C15.3793 3.78559 14.6241 3.61016 13.8522 3.51187C13.565 3.47524 13.2752 3.45591 12.9859 3.44126C12.6965 3.4266 12.4061 3.41907 12.1165 3.42355C11.1619 3.4382 10.2188 3.54321 9.30166 3.82486C9.08235 3.89222 8.86405 3.96406 8.6506 4.0475C8.55016 4.08677 8.49346 4.06296 8.42542 3.98869C7.98699 3.51004 7.54512 3.03486 7.10264 2.55987C6.97588 2.42393 6.84425 2.29267 6.71484 2.15917C6.98033 2.02771 7.24339 1.89136 7.51191 1.76661C7.72555 1.6673 7.94305 1.57511 8.16358 1.4931C8.48192 1.37466 8.80127 1.25622 9.1267 1.16016C9.42944 1.07082 9.73989 1.00591 10.0489 0.939564C10.3027 0.885024 10.5582 0.83659 10.815 0.799348C11.0347 0.767602 11.2567 0.744198 11.4784 0.737076C11.9468 0.722016 12.416 0.704515 12.884 0.717336C13.2603 0.727511 13.6373 0.766787 14.0103 0.818885C14.3803 0.870575 14.7497 0.938546 15.1122 1.0287C15.4907 1.12272 15.8671 1.23343 16.2324 1.36937C16.6818 1.53644 17.1202 1.73425 17.5605 1.92514C17.6838 1.97826 17.7974 2.05376 17.9155 2.11928Z" fill="#EB3F28"/>
<path d="M23.4609 15.8324C23.4692 15.7645 23.4696 15.694 23.4875 15.6287C23.5359 15.4513 23.5916 15.2758 23.6442 15.0996C23.6288 15.1928 23.6201 15.2881 23.5962 15.379C23.5563 15.5314 23.5065 15.6814 23.4609 15.8324Z" fill="#1F1F1F"/>
<path d="M23.7051 14.896C23.7205 14.7712 23.7334 14.6459 23.7535 14.5219C23.7577 14.4949 23.7875 14.4721 23.8053 14.4473C23.7839 14.5702 23.7638 14.6933 23.7401 14.8158C23.7346 14.8437 23.717 14.8691 23.7051 14.896Z" fill="#1F1F1F"/>
<path d="M1.99673 7.14258C1.94306 7.23782 1.8896 7.33326 1.83594 7.4285C1.8894 7.33326 1.94306 7.23782 1.99673 7.14258Z" fill="#1E1E1E"/>
<path d="M6.13919 11.3439C6.13716 11.0795 6.13575 10.8154 6.2447 10.5653C6.27912 10.4859 6.32934 10.4564 6.41541 10.4552C6.68555 10.4517 6.93302 10.5404 7.17825 10.6365C7.68614 10.8351 8.15616 11.1092 8.62253 11.3885C8.89186 11.5496 9.15755 11.7173 9.41777 11.8929C9.63992 12.0427 9.84344 12.2192 9.98742 12.4487C10.0561 12.5582 10.0962 12.6868 10.1434 12.8089C10.1737 12.8875 10.133 12.9445 10.0615 12.9691C9.9858 12.9951 9.90622 13.0177 9.82704 13.0232C9.39165 13.0535 8.96699 12.9746 8.54497 12.8812C7.9498 12.7497 7.37104 12.5661 6.83926 12.2613C6.65032 12.153 6.48021 12.0112 6.30363 11.882C6.19508 11.8026 6.14729 11.6923 6.15013 11.557C6.15134 11.4859 6.14304 11.4149 6.13919 11.3439Z" fill="#010206"/>
<path d="M18.6884 11.1386C18.6761 11.3341 18.6651 11.466 18.6601 11.5979C18.6562 11.697 18.6082 11.769 18.5414 11.836C18.2516 12.1266 17.899 12.3183 17.528 12.4764C16.8432 12.7686 16.1291 12.9526 15.3871 13.0143C15.2215 13.0281 15.05 13.0112 14.8849 12.9842C14.7276 12.9583 14.6834 12.8857 14.7436 12.7389C14.8092 12.5784 14.8924 12.419 14.9975 12.2821C15.1869 12.0352 15.4428 11.86 15.7031 11.6941C16.2986 11.3146 16.8914 10.9281 17.5436 10.652C17.7749 10.5541 18.0205 10.4825 18.2662 10.4296C18.5045 10.3781 18.5594 10.4208 18.6153 10.6583C18.6568 10.8355 18.671 11.0189 18.6884 11.1386Z" fill="#010206"/>
<path d="M12.5049 22.4032C12.6938 22.3859 12.883 22.3688 13.0719 22.3515C13.0721 22.348 13.0723 22.3443 13.0725 22.3409C12.8941 22.3409 12.7159 22.3409 12.5375 22.3409C12.5371 22.3374 12.5367 22.3342 12.5363 22.3307C12.6391 22.322 12.7424 22.3167 12.8447 22.3041C13.1215 22.2697 13.3983 22.2338 13.6748 22.1954C13.8011 22.1777 13.9287 22.1606 14.052 22.1286C14.3677 22.047 14.6847 21.9675 14.9949 21.8679C15.3535 21.753 15.712 21.6321 16.0593 21.4866C16.4289 21.3319 16.7887 21.1526 17.1463 20.9711C17.4436 20.8203 17.7375 20.6603 18.0218 20.4865C18.3201 20.304 18.6086 20.1048 18.8956 19.9041C19.1109 19.7537 19.3243 19.5989 19.5246 19.4291C19.8097 19.1878 20.0819 18.9311 20.3597 18.6812C20.3747 18.6678 20.3907 18.6554 20.4063 18.6426C20.4122 18.6684 20.418 18.6941 20.4239 18.7199C20.0187 19.1446 19.5722 19.5215 19.1007 19.8689C17.6449 20.9418 16.049 21.7206 14.2963 22.1653C13.7789 22.2965 13.2527 22.3828 12.7183 22.4099C12.6849 22.4115 12.6511 22.4091 12.6175 22.4087C12.5802 22.4066 12.5425 22.4048 12.5049 22.4032Z" fill="#EEEEEE"/>
<path d="M12.5045 22.4031C12.5421 22.4047 12.5796 22.4065 12.6173 22.4082C12.4229 22.4082 12.226 22.4281 12.0347 22.4043C11.5958 22.3498 11.1596 22.2736 10.7224 22.2065C10.7026 22.1851 10.6829 22.1639 10.6631 22.1426C10.8322 22.1705 11.0009 22.2016 11.1706 22.2254C11.4636 22.2665 11.757 22.3029 12.0577 22.3422C11.9498 22.3422 11.8467 22.3422 11.7437 22.3422C11.7437 22.3493 11.7437 22.3565 11.7435 22.3636C11.9972 22.3768 12.2509 22.3898 12.5045 22.4031Z" fill="#EAEAEA"/>
<path d="M10.6634 22.1423C10.6832 22.1637 10.7029 22.1849 10.7227 22.2062C10.244 22.0556 9.76041 21.9193 9.28837 21.75C8.93054 21.6216 8.5877 21.4512 8.23858 21.2984C8.2084 21.2852 8.18167 21.2638 8.15332 21.2461C8.32667 21.3196 8.50021 21.3924 8.67316 21.4669C9.31854 21.7455 9.97791 21.9826 10.6634 22.1423Z" fill="#B2B2B2"/>
<path d="M20.4239 18.7182C20.418 18.6923 20.4121 18.6667 20.4062 18.6409C20.6555 18.3639 20.9062 18.0881 21.1535 17.8091C21.2533 17.6966 21.3455 17.5771 21.4411 17.4609C21.2886 17.6754 21.1464 17.8985 20.981 18.1024C20.8066 18.3171 20.6104 18.5137 20.4239 18.7182Z" fill="#D3D3D3"/>
<path d="M15.2641 18.0649C15.1959 18.3296 15.1277 18.5942 15.061 18.8524C15.0469 18.8573 15.0434 18.86 15.0406 18.8594C14.8518 18.8182 14.7872 18.9314 14.7348 19.0871C14.6625 19.3012 14.5704 19.5085 14.4788 19.7385C14.3994 19.607 14.3122 19.5077 14.319 19.3518C14.3312 19.0675 14.3245 18.7824 14.3251 18.4975C14.3251 18.4914 14.3209 18.4851 14.3134 18.4654C13.2129 18.654 12.1073 18.664 11.001 18.4727C11.001 18.6618 11.0002 18.8374 11.0012 19.013C11.002 19.1351 10.9973 19.258 11.0103 19.3789C11.0249 19.5157 10.9734 19.6211 10.8681 19.7442C10.7952 19.591 10.7199 19.454 10.6642 19.3095C10.6075 19.162 10.5702 19.0067 10.5222 18.8469C10.5028 18.8469 10.4799 18.8457 10.457 18.8471C10.3043 18.8563 10.3041 18.8565 10.2703 18.7C10.2638 18.6703 10.2539 18.6402 10.2541 18.6103C10.2549 18.4257 10.1891 18.2788 10.0318 18.1742C10.0036 18.1554 9.99572 18.106 9.96777 18.049C10.232 18.049 10.4674 18.0451 10.7025 18.0512C10.7823 18.0533 10.8926 18.0036 10.9244 18.1408C10.9264 18.1491 10.9603 18.1536 10.9795 18.154C11.3438 18.1615 11.7081 18.1695 12.0724 18.1725C12.1046 18.1727 12.1459 18.1459 12.1678 18.119C12.2101 18.0669 12.2417 18.0059 12.2774 17.9483C12.3288 17.8654 12.3693 17.7665 12.5096 17.8168C12.5096 17.5604 12.5121 17.3207 12.5062 17.0809C12.5056 17.0551 12.4602 17.0209 12.4286 17.0071C12.1121 16.8683 11.8071 16.711 11.5443 16.481C11.2594 16.2317 11.0897 15.9317 11.1148 15.539C11.1229 15.4106 11.1158 15.2813 11.116 15.1525C11.1166 14.7994 11.3396 14.5676 11.6879 14.5662C12.2851 14.5638 12.8825 14.564 13.4796 14.5662C13.7976 14.5674 14.0888 14.8656 14.0837 15.1845C14.0799 15.4181 14.0851 15.6539 14.055 15.8847C14.0088 16.2358 13.8118 16.5095 13.5319 16.712C13.3669 16.8314 13.1753 16.914 12.9967 17.0152C12.9707 17.0298 12.9315 17.0551 12.9311 17.0762C12.9264 17.3194 12.928 17.5628 12.928 17.8209C13.1074 17.7741 13.1518 17.9137 13.2055 18.0187C13.2703 18.1455 13.3567 18.1815 13.4944 18.1752C13.7435 18.1638 13.9936 18.1713 14.2433 18.176C14.3136 18.1774 14.3656 18.1672 14.4002 18.0972C14.412 18.0736 14.4517 18.0508 14.4788 18.0504C14.7285 18.0474 14.9782 18.0494 15.2277 18.0504C15.2368 18.0506 15.2457 18.0573 15.2641 18.0649Z" fill="#010206"/>
</g>
<defs>
<clipPath id="clip0_720_12360">
<rect width="24" height="24" fill="white" transform="translate(0.369141)"/>
</clipPath>
</defs>
</svg>
