<svg width="24" height="24" viewBox="0 0 24 24" fill="none" xmlns="http://www.w3.org/2000/svg">
<path fill-rule="evenodd" clip-rule="evenodd" d="M22.9952 10.1675C23.0019 10.1844 23.0019 10.2032 22.9952 10.2201L22.9571 10.1723C22.9756 10.2711 22.9746 10.3725 22.954 10.4709C22.9333 10.5693 22.8935 10.6628 22.8367 10.7457C22.7799 10.8287 22.7074 10.8995 22.623 10.9545C22.5388 11.0093 22.4445 11.047 22.3457 11.0653C22.2444 11.0839 22.1405 11.0825 22.0398 11.0608C21.9391 11.0392 21.8436 10.9979 21.7589 10.9393C21.6741 10.8807 21.6018 10.8061 21.5459 10.7196C21.4902 10.633 21.452 10.5362 21.4336 10.4349C21.424 10.3941 21.424 10.3516 21.4336 10.3108C20.9982 8.1868 19.8563 6.27292 18.194 4.88101C16.5316 3.4891 14.4469 2.70127 12.2795 2.64583C10.1121 2.59049 7.9898 3.2708 6.25863 4.57598C4.52735 5.88116 3.28926 7.73424 2.74598 9.83324L10.688 15.0197L13.9691 11.6384C14.0383 11.5586 14.1243 11.495 14.2208 11.4522C14.3174 11.4092 14.4221 11.388 14.5278 11.3901C14.6802 11.3856 14.8304 11.4274 14.9586 11.5099C15.0869 11.5926 15.1871 11.7121 15.246 11.8526C15.3049 11.9934 15.3199 12.1485 15.2889 12.2979C15.2579 12.4472 15.1824 12.5836 15.0722 12.6891L15.034 12.7225L10.9316 17.0208L1.76694 11.0271H1.72872C1.68556 11.0064 1.64408 10.9825 1.6045 10.9555C1.51504 10.8996 1.42557 10.8468 1.3356 10.7937C1.23348 10.7335 1.13073 10.6729 1.02667 10.6069C1.38767 7.98247 2.67353 5.57319 4.65282 3.8124C6.63202 2.05172 9.17475 1.05525 11.8232 1.00222C14.4718 0.949301 17.0522 1.84329 19.1003 3.52354C21.1484 5.20368 22.5295 7.55962 22.9952 10.1675ZM22.1378 13.2343L22.4148 13.411L22.4339 13.4444C22.5091 13.4973 22.5904 13.5502 22.6712 13.6027C22.78 13.6734 22.8878 13.7435 22.9783 13.8121C22.6158 16.4326 21.3316 18.8384 19.3559 20.5977C17.3802 22.357 14.8423 23.3549 12.1975 23.4125C9.55259 23.4699 6.97383 22.5833 4.92356 20.9114C2.87328 19.2396 1.48578 16.892 1.0097 14.2896V14.1846C0.977985 13.9842 1.02471 13.7792 1.14032 13.6125C1.25593 13.4456 1.43139 13.3299 1.63026 13.2893C1.82903 13.2487 2.03588 13.2862 2.20767 13.3944C2.37935 13.5024 2.50283 13.6725 2.55229 13.8694V13.9028V13.941C2.95844 16.0824 4.08196 18.0214 5.73764 19.4389C7.39332 20.8562 9.48245 21.6673 11.6608 21.7385C13.8392 21.8097 15.9769 21.1368 17.7215 19.8304C19.4662 18.5242 20.7138 16.6626 21.259 14.5524L13.2978 9.34676L10.055 12.728C9.98572 12.8079 9.89983 12.8714 9.80323 12.9143C9.70673 12.9573 9.60184 12.9784 9.4962 12.9764C9.39446 12.977 9.29355 12.9574 9.19947 12.9187C9.10528 12.8801 9.0197 12.8232 8.94777 12.7511C8.87574 12.6792 8.81883 12.5936 8.78019 12.4995C8.74145 12.4054 8.72192 12.3045 8.72255 12.2027C8.72549 11.9984 8.8077 11.8032 8.95187 11.6583L8.98526 11.6248L13.0876 7.32662L21.8034 13.0098L21.9275 13.0958L22.0853 13.2008C22.0995 13.2343 22.1378 13.2343 22.1378 13.2343Z" fill="url(#paint0_linear_2026_1604)"/>
<defs>
<linearGradient id="paint0_linear_2026_1604" x1="23" y1="13" x2="1" y2="13" gradientUnits="userSpaceOnUse">
<stop stop-color="#82E6EB"/>
<stop offset="1" stop-color="#4586E7"/>
</linearGradient>
</defs>
</svg>
