<svg width="24" height="24" viewBox="0 0 24 24" fill="none" xmlns="http://www.w3.org/2000/svg">
<g clip-path="url(#clip0_2387_2969)">
<path d="M24 0L24 24L2.76562e-06 24L3.8147e-06 -1.04907e-06L24 0Z" fill="#030E27"/>
<path fill-rule="evenodd" clip-rule="evenodd" d="M23.6 23.6L23.6 0.4L0.400003 0.399999L0.400002 23.6L23.6 23.6ZM24 0L3.8147e-06 -1.04907e-06L2.76562e-06 24L24 24L24 0Z" fill="#EDCD90"/>
<path opacity="0.6" fill-rule="evenodd" clip-rule="evenodd" d="M8.52015 4.05427C8.98728 5.59705 8.37959 6.11813 7.2764 6.04035L3.636 2L3.23637 2.3539L6.69883 6.38171C6.60883 7.70326 6.00114 8.22431 4.5626 7.55901C5.25815 8.37206 5.9877 8.42349 6.93893 8.10861C6.68543 6.58089 7.27646 6.04052 8.72749 6.52473C9.35551 5.4412 9.22939 4.66832 8.52015 4.05427ZM10.3345 2.09024C10.4144 3.80585 10.0904 5.67483 8.90955 6.7376L7.61063 6.64603C8.16221 6.68492 8.52361 6.89236 8.66327 7.4661C8.94768 7.09678 9.25036 6.77211 9.53476 6.46706C10.0741 5.88854 10.5477 5.38057 10.7061 4.77237C10.9536 4.02601 10.6442 3.05856 10.3348 2.09106L10.3345 2.09024ZM11.1316 4.03819C11.2756 4.81236 11.2373 5.37355 11.0021 5.93914C10.6039 6.27485 9.83487 6.80281 9.06287 7.11217C9.86073 6.42256 10.6679 5.3334 11.1316 4.03819ZM8.62368 8.04549C8.64957 7.66527 8.87119 7.29895 9.62667 6.97014C10.3863 6.84185 10.9774 6.30135 11.3893 5.7665C11.1596 6.51429 10.9256 7.06171 10.3358 7.58402C9.60077 7.35036 9.02331 7.69159 8.62368 8.04549ZM8.7949 8.42116C8.5597 8.98675 8.52149 9.54794 8.85699 10.1355C8.86258 10.0534 8.86564 10.0085 8.88275 10.002C8.90338 9.99422 8.94443 10.0422 9.03498 10.1481C9.94155 10.9841 10.6997 11.7824 11.3721 12.5575L5.92674 19.0535L5.43145 20.8L7.00156 19.9862L12.2966 13.6695C12.7962 14.2946 13.2582 14.9085 13.7179 15.5196C13.9392 15.8137 14.1599 16.1072 14.3841 16.4008L16.506 18.0603L16.3872 17.9214L16.4744 18.0045L17.3657 18.6955C17.1298 18.6096 16.916 18.487 16.7212 18.3752C16.336 18.1542 16.0249 17.9757 15.7628 18.2078C15.797 17.7056 15.3653 17.3163 14.7797 16.788C14.7109 16.726 14.64 16.662 14.5675 16.5957C14.6834 16.781 14.8 16.9557 14.9126 17.1242C15.2855 17.6826 15.614 18.1745 15.7246 18.7692C15.8744 18.3891 16.2667 18.48 16.7361 18.5889C16.9395 18.636 17.1573 18.6866 17.3762 18.7036L17.4638 18.7715C17.5007 18.814 17.5379 18.8568 17.5753 18.8998C17.5753 18.8998 17.5629 19.0809 17.3672 19.0671C16.4542 18.8208 16.0984 18.7957 15.8767 19.1621C16.4487 18.8677 17.0984 19.3736 17.7637 19.8916C18.2191 20.2462 18.6819 20.6065 19.132 20.7195C19.1746 20.0944 18.8826 19.4456 18.6095 18.8386C18.3053 18.1625 18.0243 17.5381 18.2551 17.0559C17.869 17.2106 17.8431 17.5908 17.9747 18.546L17.7654 18.7314L17.5391 18.4652L16.9976 17.4056L16.9922 17.3978L17.1134 17.5392L15.7729 15.1708C15.0821 14.5658 14.1883 13.6189 13.2542 12.5272L16.9047 8.17233L17.923 7.82422L18.3202 8.1689L18.0612 8.47794L18.4584 8.82262L19.096 8.06202L18.068 7.17001L18.0675 7.16957C18.3134 6.97251 18.4426 6.67396 18.4185 6.36562L20.3314 4.08367C20.5479 4.06616 20.8008 3.95709 20.9602 3.76691C21.3188 3.33912 21.2708 2.72257 20.8502 2.35761C20.4531 2.01304 19.8471 2.06188 19.4884 2.4898C19.329 2.67999 19.2397 2.931 19.2568 3.15124L17.344 5.43318C17.041 5.45755 16.7716 5.63445 16.6191 5.91273L15.5911 5.02073L14.9535 5.78133L15.3507 6.12601L15.6098 5.81696L16.0304 6.18192L15.8299 7.23967L12.3295 11.4154C11.6694 10.5998 11.0156 9.74479 10.4237 8.91804L10.4361 8.73695C9.91039 8.31783 9.53681 8.2915 8.7949 8.42116ZM8.82247 8.44314V8.45501L8.7949 8.42116L8.82247 8.44314ZM15.9551 15.3838C16.4685 15.9839 17.1899 16.4168 17.8949 16.8303C17.5076 17.0031 17.4695 17.5643 17.6134 18.3385C17.2779 17.7509 17.1517 16.978 17.3432 16.7914C16.7917 16.7525 16.2783 16.1525 15.9551 15.3838ZM7.45642 8.90902C7.67387 8.34217 8.05979 8.18754 8.43352 8.21388C8.03389 8.56778 7.62206 9.10263 7.74815 9.87554C7.15835 10.3978 6.59441 10.5401 5.83354 10.6865C6.4289 10.3464 7.01871 9.82399 7.45642 8.90902ZM6.23313 10.3326C5.49121 10.4623 4.92187 10.4221 4.38263 10.2021C5.70745 9.91347 6.68454 9.21837 7.67396 8.3423C7.51385 8.577 7.36661 8.80031 7.22933 9.00849L7.22918 9.00873C6.8387 9.60092 6.52866 10.0709 6.23313 10.3326ZM8.31552 7.05952C8.14985 6.86587 7.77626 6.83954 7.58594 7.00808C7.37664 7.19346 7.35075 7.57356 7.53416 7.76845C7.87644 7.99268 8.07218 8.00648 8.26373 7.81988C8.4718 7.65271 8.48536 7.45356 8.31552 7.05952ZM7.12227 8.30334C5.92357 9.36489 4.06071 9.41552 2.40039 9.11651C3.29982 9.56184 4.21687 10.0086 4.96001 9.86085C5.56821 9.78579 6.12332 9.38548 6.7584 8.9275C7.1024 8.67943 7.46986 8.41444 7.88193 8.17505C7.32491 7.95384 7.17281 7.56117 7.21227 6.98178L7.12227 8.30334ZM16.8909 6.60035C17.0105 6.45771 17.207 6.46399 17.3239 6.56537C17.4641 6.68702 17.4778 6.86322 17.3583 7.00586C17.2586 7.12472 17.0854 7.13871 16.9452 7.01706C16.8284 6.91568 16.7913 6.71921 16.8909 6.60035ZM19.886 2.8348C20.0654 2.62084 20.3251 2.59985 20.5121 2.76205C20.699 2.92426 20.743 3.20883 20.5636 3.42278C20.4042 3.61296 20.1211 3.61366 19.9342 3.45147C19.7472 3.28927 19.7266 3.02498 19.886 2.8348Z" fill="url(#paint0_linear_2387_2969)"/>
<path fill-rule="evenodd" clip-rule="evenodd" d="M6.42774 14.5818H5.72895C5.72415 14.764 5.70414 14.9045 5.66892 15.0034C5.6337 15.1023 5.57927 15.1708 5.50563 15.209C5.43359 15.2472 5.33834 15.2663 5.21987 15.2663C5.11741 15.2663 5.03257 15.2481 4.96533 15.2116C4.89969 15.1752 4.84767 15.1171 4.80924 15.0372C4.77082 14.9574 4.74281 14.8551 4.7252 14.7301C4.70759 14.6035 4.69878 14.4508 4.69878 14.2721V13.624C4.69878 13.4418 4.70839 13.2874 4.7276 13.1608C4.74841 13.0341 4.78043 12.9317 4.82365 12.8537C4.86688 12.7756 4.92211 12.7192 4.98934 12.6845C5.05658 12.648 5.13662 12.6298 5.22948 12.6298C5.35434 12.6298 5.452 12.6515 5.52244 12.6949C5.59288 12.7365 5.6441 12.8094 5.67612 12.9135C5.70974 13.0159 5.72815 13.1573 5.73135 13.3377H6.43494C6.41573 13.0515 6.3589 12.8094 6.26445 12.6116C6.17159 12.4121 6.03952 12.2603 5.86823 12.1562C5.69693 12.0521 5.48402 12 5.22948 12C5.03897 12 4.86768 12.0356 4.71559 12.1067C4.56511 12.1761 4.43624 12.2802 4.32898 12.419C4.22332 12.5561 4.14168 12.7261 4.08405 12.9291C4.02802 13.1321 4 13.3655 4 13.6292V14.2721C4 14.5358 4.02641 14.7692 4.07924 14.9722C4.13367 15.1734 4.21372 15.3426 4.31938 15.4797C4.42503 15.6168 4.5531 15.7209 4.70359 15.792C4.85407 15.8614 5.02616 15.8961 5.21987 15.8961C5.46961 15.8961 5.68253 15.8458 5.85862 15.7452C6.03632 15.6445 6.17319 15.497 6.26925 15.3027C6.3653 15.1066 6.41813 14.8663 6.42774 14.5818ZM7.99099 12.0547H6.86958V15.8441H7.57316V14.4543H7.92931L8.45685 15.8441H9.20846V15.8076L8.59245 14.2522C8.67143 14.2057 8.7423 14.1507 8.80504 14.0873C8.89949 13.9901 8.97233 13.8695 9.02356 13.7255C9.07479 13.5798 9.1004 13.4045 9.1004 13.1998C9.1004 12.95 9.05638 12.74 8.96833 12.57C8.88028 12.3999 8.75381 12.2715 8.58892 12.1848C8.42403 12.098 8.22472 12.0547 7.99099 12.0547ZM7.57316 13.8218H7.97178C8.06784 13.8218 8.14708 13.7993 8.20951 13.7542C8.27355 13.7073 8.32078 13.6422 8.35119 13.559C8.38321 13.4739 8.39922 13.375 8.39922 13.2623C8.39922 13.1425 8.38481 13.0402 8.356 12.9552C8.32878 12.8684 8.28476 12.8025 8.22392 12.7574C8.16469 12.7105 8.08705 12.6871 7.99099 12.6871H7.57316V13.8218ZM9.9937 12.0547L10.5268 13.762L11.0551 12.0547H11.8211L10.8798 14.4673V15.8441H10.1714V14.4673L9.23008 12.0547H9.9937ZM12.8465 14.5089H13.3363C13.5717 14.5089 13.7734 14.4595 13.9415 14.3606C14.1112 14.2617 14.2416 14.122 14.3329 13.9415C14.4241 13.7611 14.4698 13.5494 14.4698 13.3065C14.4698 13.0636 14.4241 12.8484 14.3329 12.6611C14.2432 12.4719 14.1136 12.3236 13.9439 12.216C13.7742 12.1084 13.5717 12.0547 13.3363 12.0547H12.1453V15.8441H12.8465V14.5089ZM12.8465 13.8765V12.6871H13.3363C13.4372 12.6871 13.5188 12.7166 13.5813 12.7756C13.6437 12.8328 13.6893 12.9092 13.7181 13.0046C13.747 13.1 13.7614 13.2024 13.7614 13.3117C13.7614 13.4193 13.747 13.5165 13.7181 13.6032C13.6893 13.6882 13.6437 13.755 13.5813 13.8036C13.5188 13.8522 13.4364 13.8765 13.3339 13.8765H12.8465ZM16.3332 12.6871V15.8441H15.6344V12.6871H14.7819V12.0547H15.6344H16.3332H17.2025V12.6871H16.3332ZM20 14.2877V13.6553C20 13.3811 19.9696 13.1417 19.9087 12.9369C19.8495 12.7305 19.7639 12.5587 19.6518 12.4216C19.5397 12.2828 19.4069 12.1787 19.2532 12.1093C19.0995 12.0382 18.929 12.0026 18.7417 12.0026C18.5544 12.0026 18.3839 12.0382 18.2302 12.1093C18.0765 12.1787 17.9437 12.2828 17.8316 12.4216C17.7195 12.5587 17.6339 12.7305 17.5747 12.9369C17.5154 13.1417 17.4858 13.3811 17.4858 13.6553V14.2877C17.4858 14.5549 17.5162 14.7891 17.5771 14.9904C17.6379 15.1899 17.7235 15.3574 17.834 15.4927C17.9461 15.6263 18.0789 15.7269 18.2326 15.7946C18.3879 15.8623 18.5592 15.8961 18.7465 15.8961C18.9338 15.8961 19.1043 15.8623 19.258 15.7946C19.4133 15.7269 19.5453 15.6263 19.6542 15.4927C19.7647 15.3574 19.8495 15.1899 19.9087 14.9904C19.9696 14.7891 20 14.5549 20 14.2877ZM19.3012 13.6501V14.2877C19.3012 14.4612 19.2892 14.6095 19.2652 14.7327C19.2412 14.8559 19.206 14.9566 19.1595 15.0346C19.1131 15.1127 19.0547 15.1708 18.9842 15.209C18.9154 15.2455 18.8362 15.2637 18.7465 15.2637C18.6553 15.2637 18.5744 15.2455 18.504 15.209C18.4351 15.1708 18.3767 15.1127 18.3287 15.0346C18.2807 14.9566 18.2446 14.8559 18.2206 14.7327C18.1966 14.6095 18.1846 14.4612 18.1846 14.2877V13.6501C18.1846 13.4696 18.1958 13.3161 18.2182 13.1894C18.2422 13.061 18.2775 12.956 18.3239 12.8745C18.3719 12.7929 18.4303 12.7331 18.4992 12.6949C18.5696 12.6567 18.6505 12.6376 18.7417 12.6376C18.833 12.6376 18.913 12.6567 18.9818 12.6949C19.0507 12.7331 19.1091 12.7929 19.1571 12.8745C19.2052 12.956 19.2412 13.061 19.2652 13.1894C19.2892 13.3161 19.3012 13.4696 19.3012 13.6501ZM18.9717 19.857C18.9826 19.9125 18.988 19.9742 18.988 20.0419C18.988 20.1235 18.9764 20.1964 18.9531 20.2606C18.9298 20.3249 18.891 20.3761 18.8366 20.4143C18.7838 20.4525 18.7124 20.4716 18.6223 20.4716C18.5431 20.4716 18.4724 20.4603 18.4103 20.4377C18.3498 20.4134 18.2985 20.3778 18.2566 20.3309C18.2146 20.2823 18.1836 20.2181 18.1634 20.1382C18.1432 20.0566 18.1331 19.9585 18.1331 19.8439H17.4506C17.4506 20.0592 17.4809 20.2459 17.5414 20.4039C17.602 20.5601 17.6851 20.6895 17.7907 20.7919C17.8978 20.8926 18.0213 20.9681 18.1611 21.0185C18.3008 21.0671 18.4491 21.0914 18.606 21.0914C18.7675 21.0914 18.9135 21.0662 19.0439 21.0159C19.1759 20.9655 19.2885 20.8944 19.3817 20.8023C19.4749 20.7086 19.5456 20.5975 19.5937 20.469C19.6434 20.3388 19.6682 20.1947 19.6682 20.0367C19.6682 19.8769 19.6481 19.7345 19.6077 19.6095C19.5673 19.4845 19.5075 19.3725 19.4283 19.2736C19.3491 19.1729 19.2505 19.0826 19.1325 19.0027C19.0144 18.9211 18.8785 18.8465 18.7248 18.7788C18.6456 18.744 18.5726 18.7084 18.5058 18.672C18.4406 18.6355 18.3839 18.5982 18.3358 18.56C18.2876 18.5201 18.2496 18.4758 18.2216 18.4272C18.1952 18.3768 18.182 18.3204 18.182 18.2579C18.182 18.1745 18.1952 18.0999 18.2216 18.0339C18.2496 17.9662 18.2915 17.9132 18.3474 17.875C18.4049 17.8351 18.4771 17.8151 18.5641 17.8151C18.6572 17.8151 18.7333 17.8386 18.7924 17.8855C18.8514 17.9323 18.8941 17.9975 18.9205 18.0808C18.9484 18.1624 18.9624 18.257 18.9624 18.3647H19.6426C19.6426 18.1372 19.5984 17.9358 19.5098 17.7605C19.4229 17.5851 19.2994 17.4471 19.1395 17.3464C18.981 17.2457 18.7931 17.1953 18.5757 17.1953C18.4158 17.1953 18.2705 17.2205 18.1401 17.2708C18.0112 17.3212 17.8986 17.3932 17.8023 17.487C17.706 17.579 17.6315 17.6901 17.5787 17.8204C17.5274 17.9506 17.5018 18.0955 17.5018 18.2553C17.5018 18.4185 17.529 18.5609 17.5833 18.6824C17.6393 18.8022 17.7146 18.9064 17.8093 18.9949C17.904 19.0835 18.0104 19.1616 18.1285 19.2293C18.2465 19.2953 18.3684 19.3578 18.4942 19.4168C18.5998 19.4672 18.6852 19.5158 18.7504 19.5627C18.8172 19.6095 18.8677 19.6564 18.9018 19.7033C18.9376 19.7502 18.9609 19.8014 18.9717 19.857ZM5.33488 19.3856V20.4091H5.77283C5.86446 20.4091 5.93745 20.3874 5.9918 20.344C6.04616 20.3006 6.08576 20.2424 6.11061 20.1695C6.13701 20.0948 6.15021 20.0097 6.15021 19.9142C6.15021 19.8066 6.13856 19.7128 6.11526 19.633C6.09352 19.5531 6.05703 19.4923 6.00578 19.4507C5.95453 19.4073 5.88542 19.3856 5.79845 19.3856H5.33488ZM6.36243 19.0844C6.3869 19.0715 6.41012 19.0573 6.43208 19.0418C6.55166 18.9567 6.6394 18.8482 6.69531 18.7163C6.75121 18.5843 6.77917 18.4402 6.77917 18.2839C6.77917 18.1068 6.75432 17.9532 6.70463 17.823C6.65493 17.6927 6.58349 17.5851 6.49031 17.5C6.39868 17.4149 6.28609 17.3516 6.15254 17.3099C6.01898 17.2682 5.86756 17.2474 5.69828 17.2474H4.65234V21.0393H4.90859H5.33488H5.77283C6.00112 21.0393 6.19369 20.9977 6.35054 20.9143C6.5074 20.8292 6.6262 20.7042 6.70695 20.5393C6.78926 20.3726 6.83042 20.1677 6.83042 19.9247C6.83042 19.7736 6.80635 19.6312 6.7582 19.4976C6.71161 19.3621 6.63396 19.2527 6.52525 19.1694C6.4779 19.1323 6.42363 19.104 6.36243 19.0844ZM5.6913 18.8334C5.78448 18.8334 5.86057 18.8161 5.91959 18.7814C5.98015 18.7449 6.02441 18.6919 6.05237 18.6225C6.08187 18.5513 6.09663 18.4645 6.09663 18.3621C6.09663 18.2475 6.08265 18.1554 6.0547 18.086C6.0283 18.0148 5.98559 17.9627 5.92657 17.9297C5.86911 17.8967 5.79302 17.8803 5.69828 17.8803H5.33488V18.8334H5.6913ZM9.21349 21.0393V20.4091H8.0138V17.2474H7.33126V21.0393H7.80415H8.0138H9.21349ZM11.119 17.2474H10.949H10.6624H10.4994L9.43945 21.0393H10.1593L10.3422 20.258H11.2797L11.4638 21.0393H12.1882L11.119 17.2474ZM11.1306 19.6252H10.4903L10.8094 18.2618L11.1306 19.6252ZM13.1946 21.0393H13.3973C13.5976 21.0393 13.7785 21.0037 13.94 20.9325C14.1015 20.8614 14.239 20.7581 14.3523 20.6226C14.4673 20.4855 14.5558 20.3179 14.6179 20.12C14.68 19.9221 14.7111 19.6946 14.7111 19.4377V18.8517C14.7111 18.5965 14.68 18.369 14.6179 18.1693C14.5558 17.9697 14.4673 17.8021 14.3523 17.6667C14.2374 17.5295 14.1 17.4254 13.94 17.3542C13.7801 17.283 13.6022 17.2474 13.4066 17.2474H13.1946H12.7869H12.512V21.0393H12.7986H13.1946ZM13.1946 20.4091H13.3973C13.5619 20.4091 13.69 20.3761 13.7816 20.3101C13.8732 20.2441 13.9377 20.14 13.975 19.9976C14.0138 19.8552 14.0332 19.6686 14.0332 19.4377V18.8465C14.0332 18.6711 14.0231 18.5227 14.0029 18.4011C13.9827 18.2779 13.9486 18.1789 13.9004 18.1042C13.8523 18.0278 13.7878 17.9714 13.7071 17.9349C13.6263 17.8985 13.5262 17.8803 13.4066 17.8803H13.1946V20.4091ZM17.1547 20.4091V21.0393H15.8921H15.6802H15.2096V17.2474H15.6802H15.8921H17.1501V17.8803H15.8921V18.784H16.9567V19.396H15.8921V20.4091H17.1547Z" fill="#EDCD90"/>
</g>
<defs>
<linearGradient id="paint0_linear_2387_2969" x1="11.8005" y1="2" x2="11.8005" y2="21" gradientUnits="userSpaceOnUse">
<stop stop-color="#B5D6D1"/>
<stop offset="1" stop-color="#616260" stop-opacity="0"/>
</linearGradient>
<clipPath id="clip0_2387_2969">
<rect width="24" height="24" fill="white"/>
</clipPath>
</defs>
</svg>
