<svg width="24" height="24" viewBox="0 0 24 24" fill="none" xmlns="http://www.w3.org/2000/svg">
<rect width="24" height="24" rx="8" fill="#F7F8FA"/>
<path fill-rule="evenodd" clip-rule="evenodd" d="M5.50074 0.163555C3.0307 0.831194 1.24556 2.4408 0.324648 4.83027L0 5.6728V12.0115V18.3501L0.330979 19.2098C1.15744 21.357 2.74487 22.913 4.87906 23.668L5.70832 23.9614L11.6979 23.9906C16.8326 24.0157 17.7882 23.9967 18.3922 23.8574C20.9159 23.2757 23.0865 21.1248 23.7928 18.506C24.0691 17.4814 24.0691 6.54151 23.7928 5.51693C23.0881 2.90394 20.9613 0.790876 18.4157 0.174466C17.4824 -0.0514405 6.33115 -0.0610005 5.50074 0.163555Z" fill="#52DEFF"/>
<mask id="mask0_3525_8794" style="mask-type:alpha" maskUnits="userSpaceOnUse" x="0" y="0" width="24" height="24">
<path fill-rule="evenodd" clip-rule="evenodd" d="M5.50074 0.163555C3.0307 0.831194 1.24556 2.4408 0.324648 4.83027L0 5.6728V12.0115V18.3501L0.330979 19.2098C1.15744 21.357 2.74487 22.913 4.87906 23.668L5.70832 23.9614L11.6979 23.9906C16.8326 24.0157 17.7882 23.9967 18.3922 23.8574C20.9159 23.2757 23.0865 21.1248 23.7928 18.506C24.0691 17.4814 24.0691 6.54151 23.7928 5.51693C23.0881 2.90394 20.9613 0.790876 18.4157 0.174466C17.4824 -0.0514405 6.33115 -0.0610005 5.50074 0.163555Z" fill="#52DEFF"/>
</mask>
<g mask="url(#mask0_3525_8794)">
<path d="M1.9995 19.5C0.999497 18.6667 -0.500503 16.6 1.4995 15C3.4995 13.4 2.49951 11 1.9995 9.5C1.55027 8.15235 0.999512 7.5 2.99951 3.5C4.25525 0.988518 4.78825 -0.603113 4.9698 -1.52242C4.9723 -1.87397 4.98046 -2.20191 4.99951 -2.5C5.06153 -2.37596 5.07739 -2.06727 4.9698 -1.52242C4.95041 1.20147 5.27089 5.34293 3.49951 8C1.91445 10.3776 5.99951 12 4.99951 14C3.99951 16 1.49951 15.5 2.49951 18.5C3.29951 20.9 2.4995 20.1667 1.9995 19.5Z" fill="#9EF0FF"/>
<path fill-rule="evenodd" clip-rule="evenodd" d="M4.88822 -2.72355C5.01172 -2.7853 5.16188 -2.73524 5.22363 -2.61175C5.26436 -2.53029 5.28421 -2.4326 5.29301 -2.33235C5.30212 -2.22861 5.30073 -2.10527 5.28812 -1.96235C5.26289 -1.67645 5.19126 -1.29582 5.0531 -0.806956C4.77663 0.171344 4.22796 1.60321 3.22363 3.61186C2.22658 5.60595 1.88364 6.73194 1.83099 7.51153C1.78813 8.14607 1.93349 8.55641 2.11676 9.0738C2.15567 9.18365 2.19629 9.29833 2.23718 9.421C2.2692 9.51706 2.30373 9.61796 2.33971 9.72308C2.57825 10.42 2.88045 11.303 2.93702 12.1968C3.00332 13.2445 2.73476 14.3324 1.65618 15.1953C1.54837 15.2815 1.39104 15.264 1.30479 15.1562C1.21854 15.0484 1.23602 14.8911 1.34384 14.8048C2.26526 14.0677 2.4967 13.1557 2.43801 12.2283C2.38605 11.4073 2.10854 10.5943 1.86898 9.89245C1.8324 9.78529 1.79671 9.68072 1.76284 9.57911C1.72699 9.47157 1.68949 9.36642 1.65217 9.26175C1.46486 8.73651 1.28179 8.22314 1.33212 7.47784C1.39179 6.59435 1.77346 5.39416 2.77642 3.38825C3.77209 1.3969 4.30676 -0.0045681 4.57195 -0.942935C4.70462 -1.41241 4.7684 -1.76094 4.79005 -2.00629C4.80088 -2.12899 4.80079 -2.2218 4.79493 -2.28863C4.79201 -2.32185 4.78784 -2.34658 4.78371 -2.36405C4.77987 -2.3803 4.77673 -2.38743 4.77642 -2.38813C4.77639 -2.3882 4.77639 -2.38821 4.77642 -2.38814C4.71467 -2.51164 4.76473 -2.6618 4.88822 -2.72355ZM5.11183 13.7764C5.23532 13.8382 5.28538 13.9884 5.22363 14.1119C4.95172 14.6557 4.57842 15.0265 4.20098 15.3219C4.0156 15.467 3.82713 15.5954 3.65188 15.7148L3.64665 15.7184C3.46736 15.8405 3.30364 15.9523 3.1562 16.0703C2.86468 16.3035 2.65954 16.5433 2.56955 16.8775C2.47796 17.2177 2.4952 17.695 2.73719 18.421C2.78086 18.552 2.71007 18.6936 2.57908 18.7372C2.4481 18.7809 2.30652 18.7101 2.26285 18.5791C2.00485 17.8051 1.95959 17.2199 2.08675 16.7476C2.21551 16.2693 2.51037 15.9466 2.84385 15.6798C3.00831 15.5483 3.18764 15.4261 3.36322 15.3065L3.36512 15.3052C3.54387 15.1834 3.72067 15.0629 3.89282 14.9282C4.23413 14.6611 4.54833 14.3444 4.77642 13.8883C4.83816 13.7648 4.98833 13.7147 5.11183 13.7764Z" fill="#48ADC8"/>
<path d="M7 15.5L8 13.5L6 15.5L5.5 18V20L4.5 21L4 19.5L3 19L1.5 19.5L1 20H0L1.5 23.5H4L6 22L6.5 20.5V18L7 15.5Z" fill="#3EA6C8"/>
<path d="M5.49975 9C5.89975 7 8.33308 6.83333 9.49975 7L16.4998 3.5L22.9998 0.5C23.8331 2.33333 24.8998 6.5 24.4998 6.5C24.0998 6.5 19.6664 9.16667 17.4998 10.5C17.4998 11.3 16.4998 12.5 15.9998 13C14.4998 15.5 12.9998 15.5 10.9998 16C8.99976 16.5 7.49976 14 7.49976 14C6.66642 13.5 5.09975 11 5.49975 9Z" fill="url(#paint0_linear_3525_8794)"/>
<path fill-rule="evenodd" clip-rule="evenodd" d="M10.759 6.87231C12.569 5.89351 15.05 4.58461 17.2862 3.4739C18.543 2.84965 19.7197 2.28944 20.6553 1.8858C21.1234 1.68385 21.5277 1.5226 21.8498 1.41229C22.1829 1.29819 22.3968 1.25 22.5 1.25V0.75C22.3032 0.75 22.0161 0.826812 21.6877 0.93927C21.3483 1.05552 20.9308 1.2224 20.4572 1.4267C19.5095 1.83556 18.3236 2.40035 17.0638 3.0261C14.5434 4.27796 11.7154 5.77956 9.88028 6.78053L9.88755 6.79386C9.77159 6.7811 9.65278 6.76715 9.53104 6.75193C7.86483 6.54366 6.77946 7.01994 6.11579 7.74352C5.46368 8.4545 5.25003 9.37032 5.25003 10C5.25003 10.647 5.52456 11.3587 5.90554 12.0572C6.2496 12.688 6.69402 13.3318 7.14374 13.9402C6.90533 14.1138 6.66696 14.3177 6.44369 14.5529C5.78359 15.2482 5.24999 16.224 5.24999 17.5C5.24999 19.0023 5.12204 19.8219 4.90139 20.2632C4.79661 20.4728 4.67617 20.5855 4.54444 20.6514C4.52571 20.6608 4.5063 20.6694 4.48617 20.6773C4.4953 20.6192 4.5 20.56 4.5 20.5C4.5 19.6716 3.60457 19 2.5 19C1.39543 19 0.5 19.6716 0.5 20.5C0.5 21.3284 1.39543 22 2.5 22C3.246 22 3.89659 21.6937 4.24038 21.2396C4.4241 21.2224 4.60243 21.1814 4.76805 21.0986C5.01131 20.977 5.20338 20.7772 5.3486 20.4868C5.62794 19.9281 5.74999 18.9977 5.74999 17.5C5.74999 16.376 6.21639 15.5185 6.8063 14.8971C6.88124 14.8182 6.95808 14.7432 7.03609 14.672C6.50079 15.5195 6.05731 16.7797 6.25152 18.5276C6.44623 20.2799 6.07859 21.4239 5.57075 22.1433C5.05969 22.8673 4.39374 23.1809 3.95889 23.2534L4.04109 23.7466C4.60624 23.6524 5.39029 23.266 5.97923 22.4317C6.57139 21.5928 6.95376 20.3201 6.74846 18.4724C6.55559 16.7366 7.03737 15.546 7.556 14.7916C7.59863 14.7296 7.64156 14.6705 7.68444 14.6142C8.87259 15.9101 10.2923 16.2591 11.6107 16.1364C13.0578 16.0017 14.3768 15.3014 15.1535 14.6973L15.1658 14.6878L15.1768 14.6768C15.8497 14.0039 17.3804 12.1768 18.2044 10.1614C19.404 9.31354 22.4671 7.40432 25.5878 6.23408L25.4122 5.76592C22.5905 6.82408 19.8252 8.47048 18.3878 9.42977C18.4057 9.13196 18.3481 8.85558 18.227 8.60292C18.025 8.18125 17.6593 7.85254 17.2425 7.59893C16.4113 7.0932 15.2958 6.83688 14.5276 6.75153C14.3496 6.73175 14.1357 6.75316 13.8957 6.78071L13.7634 6.79616C13.5416 6.82223 13.2811 6.85287 12.964 6.87654C12.418 6.91731 11.7036 6.9373 10.759 6.87231ZM6.48427 8.08149C5.93639 8.67884 5.75003 9.46302 5.75003 10C5.75003 10.5197 5.97548 11.1413 6.34449 11.8178C6.67667 12.4268 7.11183 13.0568 7.56184 13.6646C7.7406 13.5585 7.91416 13.4697 8.07577 13.3978C7.86515 13.1337 7.6858 12.8418 7.52523 12.5804L7.48742 12.5189C7.37007 12.3282 7.26299 12.1571 7.15597 12.0137C7.04803 11.8689 6.95147 11.7681 6.86132 11.708C6.74644 11.6314 6.7154 11.4762 6.79198 11.3613C6.86857 11.2464 7.02379 11.2154 7.13867 11.292C7.29852 11.3986 7.4354 11.552 7.55677 11.7147C7.67905 11.8787 7.79714 12.0682 7.91323 12.2568L7.9413 12.3024L7.94131 12.3024C8.17005 12.6744 8.39711 13.0436 8.67677 13.3232C9.1581 13.8046 10.0779 14.4905 11.1683 14.598C12.2287 14.7025 13.5223 14.2659 14.792 12.3613C15.3057 11.5907 15.8199 11.0765 16.1962 10.7002L16.1962 10.7002L16.1982 10.6982C16.3898 10.5067 16.5331 10.3627 16.6308 10.2371C16.7297 10.11 16.75 10.0403 16.75 10C16.75 9.86194 16.8619 9.75002 17 9.75002C17.1381 9.75002 17.25 9.86194 17.25 10C17.25 10.2097 17.1453 10.39 17.0255 10.5441C16.9065 10.6971 16.741 10.8625 16.5612 11.0423L16.5518 11.0518C16.1782 11.4253 15.6934 11.9106 15.208 12.6387C13.8612 14.6589 12.4048 15.2223 11.1193 15.0956C9.97557 14.9829 9.02569 14.3285 8.47351 13.8208C8.42314 13.8584 8.36231 13.9062 8.29394 13.9648C8.20952 14.0372 8.11381 14.1257 8.01224 14.2313C9.09337 15.4379 10.3704 15.7497 11.5644 15.6386C12.8848 15.5156 14.1093 14.8726 14.8343 14.3122C15.4929 13.6503 16.9892 11.8538 17.7679 9.90716C17.9446 9.46536 17.9164 9.11161 17.7761 8.81897C17.6313 8.51668 17.3533 8.25163 16.9826 8.02607C16.2387 7.57347 15.2043 7.32979 14.4724 7.24847C14.3606 7.23605 14.2046 7.24853 13.9528 7.27745L13.8241 7.29247C13.6021 7.31859 13.3299 7.35062 13.0013 7.37515C12.2075 7.43442 11.0858 7.45017 9.46902 7.24807C7.93524 7.05635 7.02061 7.49674 6.48427 8.08149ZM15.6597 9.42137C15.6978 9.50143 15.7134 9.63802 15.615 9.83489C15.5532 9.95839 15.6033 10.1086 15.7268 10.1703C15.8503 10.2321 16.0004 10.182 16.0622 10.0585C16.2137 9.75538 16.2293 9.45447 16.1111 9.2064C15.9941 8.96056 15.7635 8.80575 15.5047 8.7626C14.9718 8.67379 14.3773 9.03989 14.1014 9.86764L14.1003 9.87101C14.0012 10.1683 13.9191 10.4144 13.8604 10.6064C13.8039 10.7911 13.7605 10.9517 13.7518 11.065C13.7494 11.0957 13.7487 11.1329 13.7544 11.1718C13.7598 11.2082 13.774 11.268 13.8189 11.3236C13.8712 11.3883 13.9453 11.4228 14.0206 11.4275C14.0851 11.4316 14.1381 11.4135 14.1698 11.3999C14.2328 11.373 14.2916 11.3281 14.3395 11.2878C14.3918 11.2439 14.4506 11.1882 14.5153 11.1235C14.613 11.0258 14.613 10.8676 14.5153 10.7699C14.4709 10.7255 14.4138 10.7013 14.3557 10.6973C14.4109 10.5202 14.485 10.2978 14.5757 10.0258C14.7998 9.3535 15.2053 9.2196 15.4225 9.2558C15.5386 9.27515 15.6205 9.33909 15.6597 9.42137ZM7.22358 9.88819C7.12514 9.69132 7.14069 9.55473 7.17881 9.47467C7.21799 9.39239 7.29995 9.32845 7.41607 9.3091C7.63324 9.2729 8.03872 9.4068 8.2628 10.0791C8.35349 10.3511 8.4276 10.5735 8.48286 10.7506C8.4247 10.7546 8.36767 10.7788 8.32321 10.8232C8.22558 10.9209 8.22558 11.0791 8.32321 11.1768C8.3879 11.2415 8.44676 11.2972 8.49899 11.3411C8.54691 11.3814 8.60577 11.4263 8.66869 11.4532C8.70044 11.4668 8.75346 11.4849 8.8179 11.4808C8.89325 11.4761 8.96732 11.4416 9.01962 11.3769C9.0645 11.3213 9.07874 11.2615 9.08413 11.2251C9.08988 11.1862 9.0891 11.149 9.08674 11.1183C9.07802 11.005 9.03458 10.8444 8.97811 10.6597C8.91939 10.4677 8.83736 10.2216 8.73826 9.92431L8.73714 9.92094C8.46123 9.09319 7.8667 8.72709 7.33387 8.8159C7.075 8.85904 6.84445 9.01386 6.72738 9.2597C6.60925 9.50777 6.6248 9.80868 6.77636 10.1118C6.83811 10.2353 6.98828 10.2854 7.11177 10.2236C7.23527 10.1619 7.28533 10.0117 7.22358 9.88819ZM4 20.5C4 20.7215 3.88143 20.9602 3.61421 21.1607C3.34684 21.3612 2.95456 21.5 2.5 21.5C2.04544 21.5 1.65316 21.3612 1.38579 21.1607C1.11857 20.9602 1 20.7215 1 20.5C1 20.2785 1.11857 20.0398 1.38579 19.8393C1.65316 19.6388 2.04544 19.5 2.5 19.5C2.95456 19.5 3.34684 19.6388 3.61421 19.8393C3.88143 20.0398 4 20.2785 4 20.5ZM3.5 20.5C3.5 20.7761 3.05228 21 2.5 21C1.94772 21 1.5 20.7761 1.5 20.5C1.5 20.2239 1.94772 20 2.5 20C3.05228 20 3.5 20.2239 3.5 20.5Z" fill="black"/>
</g>
<defs>
<linearGradient id="paint0_linear_3525_8794" x1="14.9998" y1="4" x2="15.011" y2="16.0661" gradientUnits="userSpaceOnUse">
<stop stop-color="#B364EE"/>
<stop offset="0.248727" stop-color="#7D37B1"/>
<stop offset="0.678611" stop-color="#1787C7"/>
<stop offset="1" stop-color="#48ADC8"/>
</linearGradient>
</defs>
</svg>
