<svg width="24" height="24" viewBox="0 0 24 24" fill="none" xmlns="http://www.w3.org/2000/svg">
<path d="M13.6933 11.7025C13.6933 11.8247 13.6933 11.947 13.6933 12.0797C13.9612 12.0937 14.2327 12.0797 14.5149 12.0867C14.5149 12.2963 14.5149 12.5059 14.5149 12.712C14.5149 12.8028 14.5149 12.8937 14.5149 12.9915C14.8329 12.9915 15.1365 12.9915 15.4438 12.9915C15.4438 13.2535 15.4438 13.5155 15.4438 13.7775C15.4474 13.7809 15.4509 13.7879 15.4545 13.7914C15.4581 13.7949 15.4652 13.7984 15.4688 13.7984C15.7653 13.7984 16.0618 13.7984 16.3655 13.7984C16.3655 14.0988 16.3655 14.3958 16.3655 14.6997C16.6406 14.6997 16.9121 14.6997 17.1871 14.6997C17.1871 15.0071 17.1871 15.3005 17.1871 15.6079C17.4979 15.6079 17.8052 15.6079 18.116 15.6079C18.116 15.8804 18.116 16.1389 18.116 16.4114C18.4268 16.4114 18.734 16.4114 19.0448 16.4114C19.0448 16.7188 19.0448 17.0122 19.0448 17.3196C19.3199 17.3196 19.5914 17.3196 19.8665 17.3196C19.8665 17.627 19.8665 17.9205 19.8665 18.2279C20.1773 18.2279 20.4845 18.2279 20.7953 18.2279C20.7953 18.5004 20.7953 18.7589 20.7953 19.0313C21.1061 19.0313 21.4134 19.0313 21.7242 19.0313C21.7242 19.3387 21.7242 19.6322 21.7242 19.9361C21.9957 19.9361 22.2636 19.9361 22.5208 19.9361C22.5316 19.9466 22.5387 19.9501 22.5423 19.9536C22.5458 19.957 22.5494 19.964 22.5494 19.9675C22.5494 20.2575 22.5494 20.5474 22.5494 20.8478C22.8638 20.8478 23.171 20.8478 23.4783 20.8478C23.4783 21.557 23.4783 22.2696 23.4783 22.9787C22.753 22.9787 22.0243 22.9787 21.2991 22.9787C21.2991 22.9438 21.2991 22.9089 21.2991 22.8739C21.3491 22.8739 21.3348 22.8355 21.3348 22.811C21.3348 22.6084 21.3348 22.4058 21.3348 22.1997C21.3348 22.1543 21.3312 22.1124 21.3276 22.0635C21.0133 22.0635 20.7132 22.0635 20.4059 22.0635C20.3988 21.7945 20.4095 21.529 20.3988 21.267C20.0808 21.267 19.7772 21.267 19.4735 21.267C19.4735 21.2321 19.4735 21.1972 19.4735 21.1622C19.4735 20.8967 19.4735 20.6312 19.4735 20.3588C19.1806 20.3588 18.8984 20.3588 18.6161 20.3588C18.6161 20.3238 18.6161 20.2889 18.6161 20.254C18.6661 20.254 18.6519 20.2155 18.6519 20.1911C18.6519 19.9885 18.6519 19.7859 18.6519 19.5798C18.6519 19.5344 18.6483 19.4924 18.6447 19.4435C18.3303 19.4435 18.0302 19.4435 17.7266 19.4435C17.7194 19.1746 17.7302 18.9091 17.7194 18.6471C17.4015 18.6471 17.0978 18.6471 16.7942 18.6471C16.7942 18.6121 16.7942 18.5772 16.7942 18.5423C16.7942 18.2768 16.7942 18.0113 16.7942 17.7388C16.5155 17.7388 16.244 17.7388 15.9725 17.7388C15.9725 17.7039 15.9725 17.669 15.9725 17.634C15.9725 17.3685 15.9725 17.103 15.9725 16.8306C15.6581 16.8306 15.3509 16.8306 15.0437 16.8306C15.0437 16.5651 15.0437 16.2996 15.0437 16.0271C14.7293 16.0271 14.4221 16.0271 14.1148 16.0271C14.1148 15.9922 14.1148 15.9573 14.1148 15.9223C14.1148 15.6568 14.1148 15.3913 14.1148 15.1189C13.8362 15.1189 13.5647 15.1189 13.2932 15.1189C13.2932 15.0839 13.2932 15.049 13.2932 15.0141C13.2932 14.7486 13.2932 14.4831 13.2932 14.2106C12.9788 14.2106 12.6715 14.2106 12.3643 14.2106C12.3643 13.9451 12.3643 13.6796 12.3643 13.4072C12.0857 13.4072 11.8142 13.4072 11.5426 13.4072C11.5426 13.1067 11.5426 12.8098 11.5426 12.4989C11.4319 12.4989 11.3247 12.4989 11.2211 12.4989C11.139 12.4989 11.0568 12.4989 10.9746 12.4989C10.8889 12.4954 10.8031 12.5094 10.721 12.4919C10.721 12.45 10.721 12.4221 10.721 12.3941C10.7174 12.1601 10.7281 11.9295 10.7138 11.6955C10.671 11.6955 10.6424 11.6955 10.6138 11.6955C10.3423 11.6955 10.0708 11.6955 9.79213 11.6955C9.78499 11.4195 9.79928 11.154 9.78499 10.885C9.50634 10.885 9.2384 10.885 8.97047 10.885C8.97047 10.5881 8.97047 10.2982 8.97047 10.0082C8.97047 10.0047 8.9669 9.99774 8.96332 9.99424C8.95975 9.99075 8.95618 9.98726 8.94189 9.97678C8.64895 9.97678 8.34529 9.97678 8.03805 9.97678C8.03805 9.71129 8.03805 9.44929 8.03805 9.18031C7.27355 9.18031 6.51261 9.18031 5.75167 9.18031C5.61949 9.18031 5.49088 9.18031 5.3587 9.18031C5.3587 9.07551 5.3587 8.97072 5.3587 8.86592C5.3587 8.67029 5.3587 8.47467 5.3587 8.27206C4.93358 8.27206 4.52274 8.27206 4.10834 8.27206C4.01188 8.27206 3.919 8.27206 3.82254 8.27206C3.44029 8.27206 3.06161 8.27206 2.67935 8.27206C2.67935 8.23713 2.67935 8.2022 2.67935 8.16726C2.67935 7.90177 2.67935 7.63629 2.67935 7.36381C2.49716 7.36381 2.31853 7.36381 2.14348 7.36381C2.04702 7.36381 1.95414 7.36381 1.85768 7.36381C1.75051 7.36381 1.64334 7.36381 1.53616 7.36381C1.0253 7.36381 0.510863 7.36381 0 7.36381C0.0107174 4.91503 0.0107174 2.45577 0.0107174 0C2.51145 0 5.01217 0 7.5129 0C7.5129 0.429672 7.5129 0.862837 7.5129 1.29251C7.5129 1.70122 7.5129 2.10644 7.5129 2.51515C7.5129 2.5431 7.5129 2.57454 7.5129 2.61646C7.81656 2.62694 8.12379 2.61646 8.44174 2.62345C8.44174 2.78763 8.44174 2.94832 8.44174 3.10901C8.44174 3.35354 8.44174 3.59807 8.44174 3.8426C8.44174 3.93691 8.44174 4.02774 8.44174 4.12206C8.44174 4.22686 8.44174 4.33165 8.44174 4.43645C8.44174 4.63557 8.44174 4.83119 8.44174 5.03031C8.44174 5.09668 8.44174 5.16654 8.44174 5.2399C8.72397 5.2399 8.9919 5.2399 9.26341 5.2399C9.29556 5.2399 9.32771 5.2399 9.37058 5.2399C9.37058 5.28182 9.37058 5.31326 9.37058 5.3447C9.37058 5.68355 9.37058 6.0189 9.37058 6.35775C9.37058 6.85729 9.37058 7.35682 9.37058 7.85986C9.64924 7.85986 9.9136 7.85986 10.1923 7.85986C10.1923 8.16377 10.1923 8.46419 10.1923 8.7716C10.5066 8.7716 10.8103 8.7716 11.1247 8.7716C11.1247 9.04058 11.1247 9.30607 11.1247 9.57854C11.4033 9.57854 11.6713 9.57854 11.9428 9.57854C11.9428 9.88246 11.9428 10.1829 11.9428 10.4833C12.1571 10.4833 12.3536 10.4833 12.5501 10.4833C12.6215 10.4833 12.693 10.4833 12.7644 10.4833C12.7644 10.5881 12.7644 10.6929 12.7644 10.7977C12.7644 10.892 12.7644 10.9828 12.7644 11.0772C12.7644 11.147 12.7644 11.2134 12.7644 11.2868C13.0717 11.2868 13.3682 11.2868 13.6647 11.2868C13.6683 11.2868 13.6754 11.2902 13.679 11.2937C13.6826 11.2972 13.6861 11.3007 13.6897 11.3077C13.6933 11.4335 13.6933 11.5697 13.6933 11.7025ZM9.9779 8.9777C9.9779 8.67728 9.9779 8.37686 9.9779 8.06945C9.70997 8.06945 9.45275 8.06945 9.19196 8.06945C9.18124 8.06945 9.16695 8.06945 9.15624 8.06945C9.15624 7.19963 9.15624 6.32631 9.15624 5.44601C8.84186 5.44601 8.53463 5.44601 8.22382 5.44601C8.22382 4.5692 8.22382 3.70287 8.22382 2.82605C7.92373 2.82605 7.63079 2.82605 7.3307 2.82605C7.3307 1.94924 7.3307 1.08291 7.3307 0.209596C6.7341 0.209596 6.14107 0.209596 5.54804 0.209596C3.7761 0.209596 2.00415 0.209596 0.225065 0.209596C0.225065 1.96322 0.225065 3.70636 0.225065 5.4495C0.225065 6.0189 0.225065 6.58481 0.225065 7.1647C1.12533 7.1647 2.01487 7.1647 2.90799 7.1647C2.90799 7.4721 2.90799 7.76554 2.90799 8.07295C3.80111 8.07295 4.69065 8.07295 5.58734 8.07295C5.58734 8.38035 5.58734 8.67379 5.58734 8.9777C6.47331 8.9777 7.34857 8.9777 8.22739 8.9777C8.22739 9.24319 8.22739 9.50868 8.22739 9.78115C8.53463 9.78115 8.83471 9.78115 9.13123 9.78115C9.1348 9.78115 9.14195 9.78465 9.14552 9.78814C9.14909 9.79163 9.15266 9.79513 9.15624 9.80211C9.15624 9.95232 9.16338 10.106 9.15266 10.2562C9.14194 10.4064 9.20982 10.5427 9.19196 10.6964C9.4599 10.6964 9.71354 10.6964 9.98148 10.6964C9.98148 10.9654 9.98148 11.2309 9.98148 11.4998C10.2959 11.4998 10.5959 11.4998 10.9032 11.4998C10.9103 11.7688 10.8996 12.0343 10.9103 12.2998C11.1925 12.2998 11.4605 12.2998 11.7284 12.2998C11.7284 12.6002 11.7284 12.9006 11.7284 13.2081C12.0071 13.2081 12.2786 13.2081 12.5501 13.2081C12.5501 13.4735 12.5501 13.739 12.5501 14.0115C12.8645 14.0115 13.1717 14.0115 13.4789 14.0115C13.4789 14.3119 13.4789 14.6123 13.4789 14.9198C13.7576 14.9198 14.0291 14.9198 14.3006 14.9198C14.3006 15.2202 14.3006 15.5206 14.3006 15.828C14.615 15.828 14.9222 15.828 15.2294 15.828C15.2187 16.0935 15.2401 16.359 15.2759 16.6315C15.5688 16.6315 15.8618 16.6315 16.1583 16.6315C16.1583 16.9319 16.1583 17.2323 16.1583 17.5397C16.4512 17.5397 16.7334 17.5397 17.0157 17.5397C17.0157 17.5502 17.0157 17.5642 17.0157 17.5746C16.9478 17.8611 16.9907 18.151 16.9799 18.448C17.2979 18.448 17.6051 18.448 17.9088 18.448C17.9088 18.7134 17.9088 18.9789 17.9088 19.2514C18.2232 19.2514 18.5304 19.2514 18.8376 19.2514C18.8376 19.5518 18.8376 19.8522 18.8376 20.1597C19.1163 20.1597 19.3878 20.1597 19.6593 20.1597C19.6593 20.4601 19.6593 20.7605 19.6593 21.0679C19.9737 21.0679 20.2809 21.0679 20.5881 21.0679C20.5881 21.3334 20.5881 21.5989 20.5881 21.8714C20.9025 21.8714 21.2097 21.8714 21.517 21.8714C21.517 22.1718 21.517 22.4722 21.517 22.7796C21.7956 22.7796 22.0671 22.7796 22.3386 22.7796C22.6459 22.7796 22.9531 22.7796 23.2675 22.7796C23.2675 22.4722 23.2675 22.1718 23.2675 21.8714C23.2675 21.6059 23.2675 21.3404 23.2675 21.0679C22.9531 21.0679 22.6459 21.0679 22.3386 21.0679C22.3386 20.7675 22.3386 20.4671 22.3386 20.1597C22.06 20.1597 21.7885 20.1597 21.517 20.1597C21.517 19.8592 21.517 19.5588 21.517 19.2514C21.2026 19.2514 20.8954 19.2514 20.5881 19.2514C20.5881 18.9859 20.5881 18.7204 20.5881 18.448C20.2738 18.448 19.9665 18.448 19.6593 18.448C19.6593 18.1475 19.6593 17.8471 19.6593 17.5397C19.3806 17.5397 19.1091 17.5397 18.8376 17.5397C18.8376 17.2393 18.8376 16.9389 18.8376 16.6315C18.5232 16.6315 18.216 16.6315 17.9088 16.6315C17.9088 16.366 17.9088 16.1005 17.9088 15.828C17.6051 15.828 17.3086 15.828 17.0157 15.828C17.0157 15.5276 17.0157 15.2272 17.0157 14.9198C16.7227 14.9198 16.4405 14.9198 16.1583 14.9198C16.1583 14.6298 16.1583 14.3364 16.1583 14.0464C16.1476 14.036 16.1333 14.022 16.1225 14.0115C15.8368 14.0115 15.551 14.0115 15.2652 14.0115C15.2652 13.746 15.2652 13.4805 15.2652 13.2081C14.9508 13.2081 14.6507 13.2081 14.3363 13.2081C14.3363 12.9041 14.3363 12.6037 14.3363 12.2998C14.0577 12.2998 13.7933 12.2998 13.5146 12.2998C13.5146 12.0308 13.5146 11.7653 13.5146 11.4963C13.2003 11.4963 12.9002 11.4963 12.5858 11.4963C12.5858 11.2274 12.5858 10.9619 12.5858 10.6929C12.3072 10.6929 12.0428 10.6929 11.7677 10.6929C11.7677 10.396 11.7677 10.106 11.7677 9.81609C11.7677 9.81259 11.7641 9.80561 11.7606 9.80211C11.757 9.79862 11.7534 9.79163 11.7498 9.79163C11.4819 9.79163 11.214 9.79163 10.946 9.79163C10.946 9.65889 10.9353 9.52614 10.9496 9.3934C10.9603 9.25716 10.8817 9.1314 10.9175 8.98818C10.6067 8.98818 10.3137 8.98818 10.0208 8.98818C10.0029 8.9777 9.98862 8.9777 9.9779 8.9777Z" fill="#C4C4FC"/>
<path d="M22.4344 23.9998C23.2988 23.9998 23.9996 23.7712 23.9996 23.4892C23.9996 23.2071 23.2988 22.9785 22.4344 22.9785C21.5699 22.9785 20.8691 23.2071 20.8691 23.4892C20.8691 23.7712 21.5699 23.9998 22.4344 23.9998Z" fill="#81818F"/>
<path d="M0 7.14844C0.520526 7.14844 1.04469 7.14844 1.56522 7.14844C1.56522 7.22392 1.56522 7.29497 1.56522 7.37045C1.43418 7.37045 1.30313 7.37045 1.16481 7.37045C1.16481 7.55695 1.16481 7.73012 1.16481 7.90329C1.16481 7.9921 1.16481 8.08091 1.16481 8.16971C0.775329 8.16971 0.389484 8.16971 0 8.16971C0 7.82781 0 7.49034 0 7.14844Z" fill="#838391"/>
<path d="M11.1605 12.7656C11.263 12.7656 11.369 12.7656 11.4786 12.7656C11.4786 13.0945 11.4786 13.4085 11.4786 13.7263C11.4786 13.8002 11.4786 13.8741 11.4786 13.948C11.3726 13.9517 11.2736 13.8704 11.1605 13.9258C11.157 14.0293 11.1641 14.1364 11.157 14.2362C11.0545 14.2362 10.9661 14.2362 10.8778 14.2362C10.8778 14.1623 10.8778 14.0958 10.8778 14.0293C10.8743 13.9369 10.853 13.9111 10.7682 13.9111C10.7011 13.9074 10.6304 13.9111 10.5562 13.9111C10.5562 14.0293 10.5562 14.1291 10.5562 14.2436C10.4466 14.2436 10.3441 14.2436 10.2381 14.2399C10.2346 14.1327 10.2346 14.0256 10.2346 13.9111C10.1568 13.9111 10.0826 13.9111 10.0048 13.9111C9.95182 13.9111 9.92001 13.9443 9.92001 13.9997C9.91648 14.0773 9.92001 14.1549 9.92001 14.2399C10.0296 14.2399 10.1356 14.2399 10.2346 14.2436C10.2381 14.3581 10.2381 14.469 10.2381 14.5798C10.1321 14.5798 10.0296 14.5798 9.92001 14.5798C9.92001 14.6574 9.92001 14.7276 9.92001 14.7941C9.92001 14.8606 9.91648 14.9235 9.91648 14.9863C9.67262 14.9863 9.44289 14.9863 9.21317 14.9863C9.12128 14.9863 9.02939 14.9863 8.93396 14.9863C8.92336 15.1045 8.94103 15.2154 8.92336 15.3188C8.70424 15.3188 8.49925 15.3188 8.29427 15.3188C8.19885 15.3188 8.10696 15.3188 8.01153 15.3188C8.01153 15.2117 8.01153 15.1045 8.01153 14.9863C7.86309 14.9863 7.72526 14.9863 7.58743 14.9863C7.58743 14.8533 7.58743 14.7202 7.58743 14.5798C7.48847 14.5798 7.39658 14.5798 7.30469 14.5798C7.30469 14.469 7.30469 14.3618 7.30469 14.2473C7.53795 14.2473 7.7606 14.2473 7.98326 14.2473C7.98679 14.2473 7.99386 14.2436 7.9974 14.2399C8.00093 14.2362 8.00446 14.2325 8.008 14.2251C8.008 14.0219 8.008 13.8187 8.008 13.6155C8.20591 13.6155 8.40383 13.6155 8.61588 13.6155C8.61588 13.7226 8.61588 13.8187 8.61588 13.9037C8.72544 13.9037 8.8244 13.9037 8.93043 13.9037C8.93043 13.8076 8.93043 13.7152 8.93043 13.6118C9.26265 13.6118 9.58779 13.6118 9.92001 13.6118C9.92001 13.5268 9.91648 13.4529 9.92001 13.379C9.92355 13.3162 9.95182 13.2829 10.0154 13.2792C10.0508 13.2755 10.0861 13.2792 10.1215 13.2792C10.2664 13.2792 10.4113 13.2792 10.5632 13.2792C10.5632 13.1721 10.5632 13.0797 10.5632 12.9836C10.6693 12.9836 10.7682 12.9836 10.8672 12.9836C10.9661 12.9836 11.0616 12.9873 11.1605 12.9799C11.1605 12.9023 11.1605 12.8321 11.1605 12.7656Z" fill="#FDEA95"/>
<path d="M4.69531 12.2188C4.69531 11.7212 4.69531 11.2203 4.69531 10.7227C4.80935 10.7227 4.9234 10.7227 5.03744 10.7227C5.14007 10.7227 5.23891 10.7227 5.34155 10.7227C5.34155 10.9536 5.34535 11.1878 5.33775 11.4187C5.33394 11.565 5.37956 11.5781 5.52021 11.5683C5.57343 11.565 5.62665 11.5716 5.68747 11.5748C5.68747 11.6659 5.68747 11.7439 5.68747 11.8285C5.93456 11.8285 6.17405 11.8285 6.41354 11.8285C6.41734 11.8285 6.42494 11.8318 6.42874 11.835C6.43254 11.8383 6.43634 11.8415 6.44775 11.8513C6.44775 11.9684 6.44775 12.0919 6.44775 12.2123C6.56179 12.2286 6.67583 12.2058 6.78227 12.2253C6.78227 12.3261 6.78227 12.4172 6.78227 12.5115C6.67583 12.5115 6.56939 12.5115 6.44775 12.5115C6.44775 12.5928 6.44775 12.6774 6.44775 12.7652C6.32991 12.7652 6.22347 12.7652 6.10562 12.7652C6.10562 12.6871 6.10562 12.6058 6.10562 12.5148C5.84713 12.5148 5.60384 12.5148 5.34915 12.5148C5.32634 12.4172 5.35295 12.3196 5.33014 12.2155C5.23131 12.2155 5.13247 12.2155 5.03363 12.2155C4.92339 12.2188 4.80935 12.2188 4.69531 12.2188Z" fill="#FDAE36"/>
<path d="M10.277 14.3654C10.277 14.2699 10.277 14.1744 10.277 14.0789C10.393 14.0789 10.5129 14.0789 10.6368 14.0789C10.6368 13.9803 10.6368 13.8943 10.6368 13.7925C10.7208 13.7925 10.7967 13.7925 10.8767 13.7925C10.9726 13.7956 10.9966 13.8147 11.0006 13.8943C11.0006 13.9516 11.0006 14.0089 11.0006 14.0726C11.1045 14.0726 11.2005 14.0726 11.3164 14.0726C11.3204 13.9866 11.3164 13.8943 11.3204 13.8052C11.4484 13.7543 11.5603 13.8275 11.6802 13.8243C11.6802 13.907 11.6802 13.9898 11.6802 14.0853C11.7962 14.0853 11.9001 14.0853 12 14.0853C12 14.1872 12 14.2763 12 14.3654C11.8921 14.3654 11.7882 14.3654 11.6802 14.3654C11.5643 14.3654 11.4484 14.3654 11.3204 14.3654C11.3204 14.4864 11.3204 14.601 11.3204 14.7156C11.3204 14.8111 11.3204 14.9066 11.3204 15.002C11.2165 15.002 11.1125 15.002 11.0006 15.002C11.0046 15.1039 10.9966 15.1962 11.0046 15.2885C11.1205 15.2885 11.2205 15.2885 11.3204 15.2885C11.3204 15.3745 11.3204 15.4572 11.3204 15.5432C11.2165 15.5432 11.1125 15.5432 11.0006 15.5432C11.0006 15.645 11.0006 15.7374 11.0006 15.8297C10.8807 15.8297 10.7607 15.8297 10.6408 15.8297C10.6408 15.7342 10.6408 15.6387 10.6448 15.54C10.7448 15.5368 10.8487 15.5368 10.9526 15.5368C10.9526 15.4509 10.9526 15.3713 10.9526 15.2885C10.8487 15.2885 10.7487 15.2885 10.6488 15.2885C10.6488 15.3745 10.6488 15.4572 10.6448 15.5368C10.5169 15.5432 10.3969 15.5432 10.277 15.5432C10.277 15.4604 10.277 15.3777 10.277 15.2917C10.1691 15.2917 10.0691 15.2917 9.99318 15.2917C9.90523 15.228 9.90523 15.1548 9.92122 15.0848C9.92522 15.0593 9.96119 15.0371 9.9572 15.002C10.0611 15.002 10.1651 15.002 10.277 15.002C10.277 14.9002 10.277 14.8079 10.277 14.7156C10.393 14.7156 10.5129 14.7156 10.6368 14.7156C10.6368 14.6487 10.6368 14.5914 10.6368 14.5341C10.6368 14.4768 10.6328 14.4227 10.6328 14.3654C10.5009 14.3654 10.389 14.3654 10.277 14.3654Z" fill="#FDAE36"/>
<path d="M19.3047 21.4473C19.6448 21.4473 19.985 21.4473 20.3411 21.4473C20.3531 21.697 20.3411 21.9501 20.3491 22.2066C20.6892 22.2066 21.0294 22.2066 21.3815 22.2066C21.3855 22.2532 21.3895 22.2965 21.3895 22.3364C21.3895 22.5296 21.3895 22.7228 21.3895 22.9192C21.3895 22.9425 21.4055 22.9792 21.3495 22.9792C21.0054 22.9792 20.6612 22.9792 20.3131 22.9792C20.3131 22.7228 20.3131 22.4763 20.3131 22.2166C19.977 22.2166 19.6488 22.2166 19.3087 22.2166C19.3047 21.9535 19.3047 21.7004 19.3047 21.4473Z" fill="#838391"/>
<path d="M16.6953 18.8945C17.0361 18.8945 17.3769 18.8945 17.7337 18.8945C17.7457 19.1443 17.7337 19.3974 17.7417 19.6538C18.0825 19.6538 18.4233 19.6538 18.7721 19.6538C18.7761 19.7005 18.7801 19.7437 18.7801 19.7837C18.7801 19.9769 18.7801 20.17 18.7801 20.3665C18.7801 20.3898 18.7962 20.4264 18.7401 20.4264C18.4073 20.4264 18.0785 20.4264 17.7297 20.4264C17.7137 20.17 17.7016 19.9236 17.6856 19.6638C17.3649 19.6638 17.0361 19.6638 16.6953 19.6638C16.6953 19.4007 16.6953 19.1476 16.6953 18.8945Z" fill="#838391"/>
<path d="M4.1787 12.2594C4.27104 12.2594 4.36339 12.2594 4.45573 12.2594C4.45573 12.4563 4.45573 12.6532 4.45573 12.8608C4.53576 12.8608 4.61271 12.8608 4.69582 12.8608C4.69582 13.1757 4.69582 13.4764 4.69582 13.7878C4.60964 13.7878 4.52037 13.7878 4.42495 13.7878C4.42495 13.6983 4.42495 13.6124 4.42495 13.5122C4.2495 13.5122 4.07712 13.5122 3.89859 13.5122C3.89859 13.4012 3.89859 13.301 3.89859 13.1865C3.82472 13.1865 3.75392 13.1865 3.68312 13.1865C3.67389 13.1757 3.66158 13.1614 3.65234 13.1507C3.65234 12.8536 3.65234 12.5529 3.65234 12.2559C3.83087 12.2594 4.00325 12.2594 4.1787 12.2594Z" fill="#C49460"/>
<path d="M10.6294 15.5667C10.7274 15.5667 10.8254 15.5667 10.9233 15.5667C11.0115 15.5667 11.0964 15.5667 11.1846 15.5667C11.2826 15.5667 11.3806 15.5667 11.4786 15.5667C11.4786 15.6484 11.4786 15.7329 11.4786 15.8262C11.2434 15.8321 11.005 15.8291 10.7698 15.8291C10.5314 15.8291 10.293 15.8291 10.0448 15.8291C10.0448 15.6629 10.0448 15.5026 10.0448 15.3334C9.85537 15.3334 9.67901 15.3334 9.49938 15.3334C9.40793 15.3334 9.3916 15.316 9.3916 15.2314C9.3916 15.1789 9.3916 15.1235 9.3916 15.071C9.48631 15.071 9.58103 15.071 9.68554 15.071C9.68554 14.9777 9.68554 14.8932 9.68554 14.8086C9.81618 14.8086 9.94682 14.8086 10.0775 14.8086C10.084 14.8378 10.0546 14.8611 10.0481 14.8844C10.035 14.9486 10.035 15.0156 10.1068 15.0739C10.1689 15.0739 10.2506 15.0739 10.3387 15.0739C10.3387 15.1527 10.3387 15.2285 10.3387 15.3043C10.3387 15.3888 10.3387 15.4734 10.3387 15.5667C10.44 15.5667 10.5347 15.5667 10.6294 15.5667Z" fill="#FDD757"/>
<path d="M5.21731 10.7233C5.10811 10.7233 5.00295 10.7233 4.89375 10.7233C4.89375 10.6267 4.89375 10.5302 4.89375 10.4236C4.76432 10.4236 4.64703 10.4236 4.52974 10.4236C4.52974 10.337 4.52974 10.2504 4.52974 10.1572C4.40436 10.1572 4.29112 10.1572 4.17383 10.1572C4.17383 9.92406 4.17383 9.69427 4.17383 9.46116C4.28707 9.46116 4.40032 9.46116 4.5257 9.46116C4.5257 9.37124 4.5257 9.28465 4.5257 9.19141C4.64299 9.19141 4.74815 9.19141 4.8533 9.19141C4.8533 9.27799 4.8533 9.36458 4.8533 9.45783C4.98273 9.45783 5.10002 9.45783 5.21731 9.45783C5.21731 9.88077 5.21731 10.3004 5.21731 10.7233Z" fill="#FDD757"/>
<path d="M2.6084 8.16992C2.95683 8.16992 3.302 8.16992 3.65043 8.16992C3.65043 8.28981 3.65043 8.40526 3.65043 8.52515C3.65043 8.65836 3.65043 8.79157 3.65043 8.92478C3.65043 8.99582 3.65369 9.06687 3.65043 9.13791C3.65043 9.15568 3.63089 9.17344 3.61787 9.1912C3.28572 9.1912 2.95031 9.1912 2.6084 9.1912C2.6084 8.84485 2.6084 8.50739 2.6084 8.16992Z" fill="#838391"/>
<path d="M15.1309 16.8516C15.476 16.8516 15.8212 16.8516 16.1743 16.8516C16.1743 17.1979 16.1743 17.5354 16.1743 17.8728C15.8292 17.8728 15.484 17.8728 15.1309 17.8728C15.1309 17.5265 15.1309 17.189 15.1309 16.8516Z" fill="#838391"/>
<path d="M12.5215 14.2988C12.8666 14.2988 13.2118 14.2988 13.565 14.2988C13.565 14.6452 13.565 14.9826 13.565 15.3201C13.2198 15.3201 12.8747 15.3201 12.5215 15.3201C12.5215 14.9738 12.5215 14.6363 12.5215 14.2988Z" fill="#838391"/>
<path d="M14.0869 15.8301C14.4321 15.8301 14.7772 15.8301 15.1304 15.8301C15.1304 16.1764 15.1304 16.5139 15.1304 16.8514C14.7852 16.8514 14.4401 16.8514 14.0869 16.8514C14.0869 16.505 14.0869 16.1675 14.0869 15.8301Z" fill="#838391"/>
<path d="M18.7822 20.4258C19.1257 20.4258 19.4692 20.4258 19.8257 20.4258C19.8257 20.7721 19.8257 21.1096 19.8257 21.4471C19.4822 21.4471 19.1387 21.4471 18.7822 21.4471C18.7822 21.1007 18.7822 20.7632 18.7822 20.4258Z" fill="#838391"/>
<path d="M11.4785 15.5673C11.4785 15.4885 11.4785 15.4126 11.4785 15.3338C11.5828 15.3338 11.6906 15.3338 11.8021 15.3338C11.7985 15.2404 11.8057 15.1558 11.7985 15.0712C11.6834 15.0712 11.5792 15.0712 11.4785 15.0712C11.4785 14.9837 11.4785 14.8961 11.4785 14.8086C11.5864 14.8086 11.6942 14.8086 11.8021 14.8086C11.892 14.8086 11.9818 14.8086 12.0825 14.8086C12.1041 14.8903 12.0789 14.9778 12.0969 15.0654C12.2335 15.0654 12.3665 15.0654 12.5175 15.0654C12.5247 15.1529 12.5211 15.2375 12.5211 15.328C12.3773 15.328 12.2443 15.328 12.0969 15.328C12.0969 15.4943 12.0969 15.6577 12.0969 15.8299C11.9926 15.8299 11.8955 15.8299 11.8021 15.8299C11.8021 15.7453 11.8021 15.6606 11.8021 15.5673C11.687 15.5673 11.5828 15.5673 11.4785 15.5673Z" fill="#FDD757"/>
<path d="M16.1741 18.3826C16.4622 18.3826 16.6958 18.154 16.6958 17.872C16.6958 17.5899 16.4622 17.3613 16.1741 17.3613C15.8859 17.3613 15.6523 17.5899 15.6523 17.872C15.6523 18.154 15.8859 18.3826 16.1741 18.3826Z" fill="#838391"/>
<path d="M13.5657 15.8299C13.8538 15.8299 14.0874 15.6012 14.0874 15.3192C14.0874 15.0372 13.8538 14.8086 13.5657 14.8086C13.2775 14.8086 13.0439 15.0372 13.0439 15.3192C13.0439 15.6012 13.2775 15.8299 13.5657 15.8299Z" fill="#838391"/>
<path d="M8.34744 13.2773C8.34744 13.4926 8.34744 13.7078 8.34744 13.923C8.34329 13.9269 8.33914 13.9347 8.33499 13.9386C8.33084 13.9425 8.32253 13.9465 8.31838 13.9465C8.05682 13.9465 7.79526 13.9465 7.52124 13.9465C7.52124 14.0678 7.52124 14.1812 7.52124 14.2986C7.39669 14.2986 7.27214 14.2986 7.14758 14.2986C7.14758 14.1851 7.14758 14.0678 7.14758 13.9504C7.02303 13.9504 6.90678 13.9504 6.78223 13.9504C6.78223 13.8447 6.78223 13.7469 6.78223 13.6412C6.90263 13.6256 7.02303 13.6099 7.14758 13.5943C7.27214 13.5943 7.39669 13.5943 7.52124 13.5943C7.62919 13.5943 7.73713 13.5943 7.85338 13.5943C7.85338 13.4847 7.85338 13.383 7.85338 13.2813C8.0153 13.2773 8.18137 13.2773 8.34744 13.2773Z" fill="#FDAE36"/>
<path d="M11.8415 14.2986C11.8415 14.1743 11.8415 14.05 11.8415 13.9079C11.728 13.9079 11.6101 13.9079 11.4785 13.9079C11.4785 13.7791 11.4785 13.6592 11.4785 13.5438C11.4785 13.455 11.4785 13.3662 11.4785 13.2773C11.8233 13.2773 12.1681 13.2773 12.522 13.2773C12.522 13.6237 12.522 13.9612 12.522 14.2986C12.2951 14.2986 12.0683 14.2986 11.8415 14.2986Z" fill="#FDD757"/>
<path d="M4.95618 9.70292C4.87212 9.70292 4.78807 9.70292 4.69531 9.70292C4.69531 9.59293 4.69531 9.49081 4.69531 9.38868C4.69531 9.3494 4.69531 9.31012 4.69531 9.27084C4.73299 9.27084 4.7243 9.23156 4.7243 9.20406C4.7243 9.03123 4.7243 8.8584 4.7243 8.68164C4.79966 8.68164 4.87502 8.68164 4.95039 8.68164C4.96488 8.80734 4.94459 8.92518 4.96198 9.03516C5.05183 9.03516 5.13299 9.03516 5.21705 9.03516C5.21705 9.153 5.21705 9.27084 5.21705 9.38868C5.21705 9.49473 5.21705 9.59686 5.21705 9.70292C5.1301 9.70292 5.04314 9.70292 4.95618 9.70292Z" fill="#FDAE36"/>
<path d="M7.30422 13.7869C7.18382 13.7869 7.06342 13.7869 6.94302 13.7869C6.94302 13.6848 6.94302 13.5826 6.94302 13.4642C6.82663 13.4601 6.71024 13.4642 6.58984 13.4601C6.58984 13.3416 6.58984 13.2272 6.58984 13.1006C6.48148 13.1006 6.37713 13.1006 6.26074 13.1006C6.26074 12.9821 6.26074 12.8718 6.26074 12.7656C6.4895 12.7656 6.71425 12.7656 6.94302 12.7656C6.94302 12.8718 6.94302 12.9781 6.94302 13.0924C7.07144 13.0924 7.18783 13.0924 7.30422 13.0924C7.30422 13.3253 7.30422 13.5541 7.30422 13.7869Z" fill="#FDD757"/>
<path d="M2.08691 7.14844C2.25735 7.14844 2.43126 7.14844 2.60865 7.14844C2.60865 7.49478 2.60865 7.83225 2.60865 8.16971C2.43474 8.16971 2.26083 8.16971 2.08691 8.16971C2.08691 8.08091 2.08691 7.9921 2.08691 7.90329C2.08691 7.72568 2.08691 7.54807 2.08691 7.37045C2.08691 7.29497 2.08691 7.22392 2.08691 7.14844Z" fill="#838391"/>
<path d="M8.34766 15.0639C8.58043 15.0639 8.81321 15.0639 9.06204 15.0639C9.0821 14.9845 9.06204 14.8994 9.07408 14.8086C9.18244 14.8086 9.28679 14.8086 9.39113 14.8086C9.39113 14.8937 9.39113 14.9788 9.39113 15.0639C9.39113 15.149 9.39113 15.2341 9.39113 15.3192C9.05401 15.3192 8.71287 15.3192 8.37575 15.3192C8.37174 15.3192 8.36371 15.3164 8.34766 15.3107C8.34766 15.2313 8.34766 15.1462 8.34766 15.0639Z" fill="#FDD757"/>
<path d="M4.69404 8.68164C4.69404 8.83143 4.69404 8.98122 4.69404 9.13441C4.69404 9.15824 4.7056 9.19228 4.66514 9.19228C4.5004 9.19228 4.33856 9.19228 4.17383 9.19228C4.17383 9.12419 4.17383 9.05611 4.17383 8.98802C4.25764 8.98802 4.34145 8.98802 4.43393 8.98802C4.43393 8.87909 4.43393 8.78036 4.43393 8.68164C4.52064 8.68164 4.60734 8.68164 4.69404 8.68164Z" fill="#838391"/>
<path d="M6.78223 14.2988C6.8743 14.2988 6.96637 14.2988 7.05844 14.2988C7.13824 14.2988 7.21803 14.2988 7.30397 14.2988C7.30397 14.4752 7.30397 14.6423 7.30397 14.8095C7.1321 14.8095 6.96023 14.8095 6.78223 14.8095C6.78223 14.6331 6.78223 14.4659 6.78223 14.2988Z" fill="#FDD755"/>
<path d="M2.08717 9.19141C2.08717 9.25148 2.08717 9.31156 2.08717 9.37163C2.08427 9.43471 2.06398 9.46174 2.00601 9.46174C1.94804 9.46475 1.89297 9.46174 1.8263 9.46174C1.8263 9.54585 1.8263 9.62395 1.8263 9.70204C1.73934 9.70204 1.65239 9.70204 1.56543 9.70204C1.56543 9.61193 1.56543 9.52182 1.56543 9.43171C1.64949 9.43171 1.73355 9.43171 1.8263 9.43171C1.8263 9.3476 1.8263 9.2695 1.8263 9.19141C1.91326 9.19141 2.00021 9.19141 2.08717 9.19141Z" fill="#FCD85E"/>
<path d="M7.82617 14.8086C7.99574 14.8086 8.1653 14.8086 8.34791 14.8086C8.34791 14.9902 8.34791 15.1547 8.34791 15.3192C8.17835 15.3192 8.00878 15.3192 7.82617 15.3192C7.82617 15.1377 7.82617 14.9731 7.82617 14.8086Z" fill="#FDD757"/>
<path d="M1.56543 9.70117C1.73934 9.70117 1.91326 9.70117 2.08717 9.70117C2.08717 9.86287 2.08717 10.0246 2.08717 10.2033C2.00601 10.2076 1.92485 10.2076 1.83789 10.2118C1.75094 10.2118 1.66978 10.2118 1.56543 10.2118C1.56543 10.0373 1.56543 9.86713 1.56543 9.70117Z" fill="#C79967"/>
<path d="M4.17408 12.7665C4.00808 12.7665 3.83614 12.7665 3.65234 12.7665C3.65234 12.5948 3.65234 12.4275 3.65234 12.2559C3.81835 12.2559 3.99029 12.2559 4.17408 12.2559C4.17408 12.4231 4.17408 12.5992 4.17408 12.7665Z" fill="#C79967"/>
<path d="M1.56568 9.70117C1.56568 9.87138 1.56568 10.0416 1.56568 10.2118C1.39493 10.2118 1.22418 10.2118 1.04395 10.2118C1.04395 10.0303 1.04395 9.86571 1.04395 9.70117C1.21944 9.70117 1.39019 9.70117 1.56568 9.70117Z" fill="#C49460"/>
<path d="M1.30481 9.19228C1.44889 9.19228 1.56568 9.07797 1.56568 8.93696C1.56568 8.79595 1.44889 8.68164 1.30481 8.68164C1.16074 8.68164 1.04395 8.79595 1.04395 8.93696C1.04395 9.07797 1.16074 9.19228 1.30481 9.19228Z" fill="#C49460"/>
<path d="M1.04395 8.51035C1.04395 8.39687 1.04395 8.2834 1.04395 8.16992C1.21944 8.16992 1.39019 8.16992 1.56568 8.16992C1.56568 8.34013 1.56568 8.51035 1.56568 8.68056C1.39019 8.68056 1.21944 8.68056 1.04395 8.68056C1.04395 8.62382 1.04395 8.56708 1.04395 8.51035Z" fill="#FDAE36"/>
<path d="M12.0003 14.8095C11.8263 14.8095 11.6524 14.8095 11.4785 14.8095C11.4785 14.6423 11.4785 14.4752 11.4785 14.2988C11.664 14.2988 11.8321 14.2988 12.0003 14.2988C12.0003 14.4706 12.0003 14.6377 12.0003 14.8095Z" fill="#C49460"/>
<path d="M1.30481 9.19228C1.44889 9.19228 1.56568 9.07797 1.56568 8.93696C1.56568 8.79595 1.44889 8.68164 1.30481 8.68164C1.16074 8.68164 1.04395 8.79595 1.04395 8.93696C1.04395 9.07797 1.16074 9.19228 1.30481 9.19228Z" fill="#FDEA95"/>
<path d="M1.30481 9.70204C1.44889 9.70204 1.56568 9.58773 1.56568 9.44672C1.56568 9.30572 1.44889 9.19141 1.30481 9.19141C1.16074 9.19141 1.04395 9.30572 1.04395 9.44672C1.04395 9.58773 1.16074 9.70204 1.30481 9.70204Z" fill="#FDD755"/>
<path d="M1.30481 8.68056C1.44889 8.68056 1.56568 8.56625 1.56568 8.42524C1.56568 8.28423 1.44889 8.16992 1.30481 8.16992C1.16074 8.16992 1.04395 8.28423 1.04395 8.42524C1.04395 8.56625 1.16074 8.68056 1.30481 8.68056Z" fill="#FDD755"/>
<path d="M4.69531 10.7227C4.86343 10.7227 5.03154 10.7227 5.21705 10.7227C5.21705 10.9042 5.21705 11.0688 5.21705 11.2333C5.04314 11.2333 4.86923 11.2333 4.69531 11.2333C4.69531 11.0631 4.69531 10.8929 4.69531 10.7227Z" fill="#FDEA95"/>
<path d="M2.6084 13.2763C2.6084 13.1174 2.6084 12.9585 2.6084 12.777C2.68956 12.7713 2.77072 12.7713 2.85767 12.7656C2.94463 12.7656 3.02579 12.7656 3.13014 12.7656C3.13014 12.9415 3.13014 13.1117 3.13014 13.2763C2.95622 13.2763 2.78231 13.2763 2.6084 13.2763Z" fill="#FCD85E"/>
<path d="M1.56543 9.19228C1.56543 9.02207 1.56543 8.85185 1.56543 8.68164C1.73934 8.68164 1.91326 8.68164 2.08717 8.68164C2.08717 8.69866 2.08717 8.72136 2.08717 8.73838C2.08717 8.89157 2.08717 9.03909 2.08717 9.19228C1.91326 9.19228 1.73934 9.19228 1.56543 9.19228Z" fill="#FDB23B"/>
<path d="M2.6084 13.2773C2.78231 13.2773 2.95622 13.2773 3.13014 13.2773C3.13014 13.4305 3.13014 13.5781 3.13014 13.7312C3.13014 13.7483 3.13014 13.771 3.13014 13.788C2.96202 13.788 2.79391 13.788 2.6084 13.788C2.6084 13.6064 2.6084 13.4419 2.6084 13.2773Z" fill="#C79967"/>
<path d="M4.17408 15.3192C4.00597 15.3192 3.83785 15.3192 3.65234 15.3192C3.65234 15.1377 3.65234 14.9731 3.65234 14.8086C3.82626 14.8086 4.00017 14.8086 4.17408 14.8086C4.17408 14.9788 4.17408 15.149 4.17408 15.3192Z" fill="#C49460"/>
<path d="M4.17408 15.3192C4.00017 15.3192 3.82626 15.3192 3.65234 15.3192C3.65234 15.1547 3.65234 14.9902 3.65234 14.8086C3.83785 14.8086 4.00597 14.8086 4.17408 14.8086C4.17408 14.9788 4.17408 15.149 4.17408 15.3192Z" fill="#FCD85E"/>
<path d="M2.08691 8.67719C2.08691 8.66028 2.08691 8.63774 2.08691 8.62083C2.08691 8.46865 2.08691 8.3221 2.08691 8.16992C2.24099 8.16992 2.38936 8.16992 2.54344 8.16992C2.64045 8.18119 2.60051 8.25447 2.60051 8.29956C2.60621 8.6941 2.63475 8.68847 2.22958 8.67719C2.18393 8.67719 2.13257 8.67719 2.08691 8.67719Z" fill="#FCD85E"/>
<path d="M2.60662 9.19228C2.43338 9.19228 2.26015 9.19228 2.08691 9.19228C2.08691 9.02207 2.08691 8.85185 2.08691 8.68164C2.2255 8.68164 2.36986 8.68164 2.50845 8.68164C2.65281 8.83483 2.59507 9.01639 2.60662 9.19228Z" fill="#C49460"/>
<path d="M3.65234 15.3192C3.65234 15.1499 3.65234 14.9805 3.65234 14.8111C3.7732 14.8111 3.89406 14.8055 4.01492 14.8111C4.11276 14.8167 4.15305 14.8619 4.17031 14.9579C4.18758 15.0878 4.14154 15.2007 4.11276 15.3192C3.95737 15.3192 3.80774 15.3192 3.65234 15.3192Z" fill="#C49460"/>
<path d="M4.17408 8.68164C4.17408 8.79356 4.17408 8.90548 4.17408 9.0174C4.17408 9.06217 4.17408 9.10694 4.17408 9.17409C4.04697 9.20207 3.91408 9.19088 3.78697 9.18529C3.68875 9.17969 3.64253 9.11813 3.65408 9.023C3.67142 9.00062 3.70608 8.97823 3.71186 8.95585C3.71764 8.86631 3.71186 8.77677 3.71186 8.68724C3.86786 8.68164 4.01808 8.68164 4.17408 8.68164Z" fill="#FCD85E"/>
<path d="M2.60865 8.68056C2.43257 8.68056 2.263 8.68056 2.08691 8.68056C2.08691 8.51035 2.08691 8.34013 2.08691 8.16992C2.263 8.16992 2.43257 8.16992 2.60865 8.16992C2.60865 8.2834 2.60865 8.39687 2.60865 8.51035C2.60865 8.56708 2.60865 8.62382 2.60865 8.68056Z" fill="#FDAE36"/>
<path d="M2.6084 13.788C2.6084 13.6156 2.6084 13.4497 2.6084 13.2773C2.77091 13.2773 2.93342 13.2773 3.11915 13.2773C3.13656 13.4369 3.13076 13.6029 3.11915 13.7624C3.11915 13.7688 3.09013 13.7752 3.07272 13.788C2.91601 13.788 2.76511 13.788 2.6084 13.788Z" fill="#FCD85E"/>
<path d="M2.6084 13.7871C2.78449 13.7871 2.95405 13.7871 3.13014 13.7871C3.13014 13.9442 3.13014 14.1013 3.13014 14.2865C2.96709 14.3034 2.79753 14.2921 2.6084 14.2977C2.6084 14.1406 2.6084 13.9947 2.6084 13.8488C2.6084 13.8264 2.6084 13.8039 2.6084 13.7871Z" fill="#C49460"/>
<path d="M3.65234 14.8086C3.82843 14.8086 3.998 14.8086 4.17408 14.8086C4.17408 14.9731 4.17408 15.1377 4.17408 15.3192C3.99147 15.3192 3.82191 15.3192 3.65234 15.3192C3.65234 15.149 3.65234 14.9788 3.65234 14.8086Z" fill="#FDD757"/>
<path d="M3.65234 13.2773C3.66303 13.2878 3.67728 13.3018 3.68797 13.3122C3.67728 13.3018 3.66303 13.2878 3.65234 13.2773Z" fill="#C79967"/>
<path d="M14.8788 6.36917C14.8788 6.46366 14.8788 6.55465 14.8788 6.64914C14.7749 6.64914 14.6674 6.64914 14.5564 6.64914C14.56 6.76112 14.5528 6.86261 14.56 6.9641C14.6746 6.9641 14.7785 6.9641 14.8788 6.9641C14.8788 7.16357 14.8788 7.35955 14.8788 7.55903C14.7713 7.55903 14.6639 7.55903 14.5564 7.55903C14.4274 7.55903 14.2984 7.55903 14.1551 7.55903C14.1551 7.45754 14.1551 7.36655 14.1551 7.27906C14.0405 7.27906 13.9402 7.27906 13.8399 7.27906C13.8399 7.17757 13.8399 7.07258 13.8399 6.9641C13.7252 6.9676 13.6213 6.9606 13.5174 6.9676C13.5174 7.07958 13.5174 7.18107 13.5174 7.27906C13.4207 7.27906 13.3275 7.27906 13.2308 7.27906C13.2308 7.17757 13.2308 7.07608 13.2308 6.9641C13.1162 6.9641 13.0123 6.9641 12.9084 6.9641C12.9084 6.86261 12.9084 6.75762 12.9084 6.64214C12.8045 6.64214 12.7113 6.64214 12.6218 6.64214C12.6218 6.54415 12.6218 6.45666 12.6218 6.36917C12.7149 6.36917 12.8081 6.36917 12.9084 6.36917C12.9084 6.25718 12.9084 6.15569 12.9084 6.05421C12.9084 5.82323 12.9084 5.59576 12.9084 5.35429C12.7973 5.35429 12.6898 5.35429 12.5859 5.35429C12.5967 5.30529 12.6146 5.2598 12.6218 5.21081C12.6289 5.15481 12.6218 5.09882 12.6218 5.02883C12.7257 5.02883 12.8188 5.02883 12.9084 5.02883C12.9084 4.93084 12.9084 4.84335 12.9084 4.75586C13.0159 4.75586 13.1233 4.75586 13.2308 4.75586C13.2308 4.84685 13.2308 4.93784 13.2308 5.03583C13.3311 5.03583 13.4243 5.03583 13.5174 5.03583C13.6213 5.03583 13.7252 5.03583 13.8399 5.03583C13.8399 5.14781 13.8399 5.2493 13.8399 5.35079C13.8399 5.48727 13.8399 5.62376 13.8399 5.77074C13.9545 5.77074 14.0584 5.77074 14.1623 5.77074C14.2411 5.76024 14.3163 5.74274 14.3952 5.73574C14.4704 5.72874 14.5492 5.73574 14.6245 5.73574C14.7069 5.73574 14.7857 5.73574 14.8788 5.73574C14.8788 5.84423 14.8788 5.94922 14.8788 6.05071C14.7749 6.05071 14.6674 6.05071 14.5564 6.05071C14.56 6.16269 14.5528 6.26418 14.56 6.36567C14.6782 6.36917 14.7785 6.36917 14.8788 6.36917Z" fill="#FDEA95"/>
<path d="M13.7326 11.7229C13.7326 11.5899 13.7326 11.4535 13.7326 11.3205C13.729 11.317 13.7254 11.31 13.7218 11.3065C13.7183 11.303 13.7111 11.2995 13.7075 11.2995C13.4102 11.2995 13.1128 11.2995 12.8047 11.2995C12.8047 11.226 12.8047 11.1595 12.8047 11.0895C13.0447 11.0895 13.2812 11.0895 13.5212 11.0895C13.6251 11.0895 13.7326 11.0895 13.8436 11.0895C13.8436 10.883 13.8436 10.6906 13.8436 10.4946C13.9511 10.4946 14.0586 10.4946 14.1661 10.4946C14.1661 10.5996 14.1661 10.7046 14.1661 10.8095C14.1661 10.9005 14.1661 10.9915 14.1661 11.0895C14.2413 11.0895 14.3058 11.0895 14.3703 11.0895C14.4348 11.0895 14.4957 11.086 14.5602 11.086C14.5602 10.9845 14.5602 10.897 14.5602 10.8095C14.6641 10.8095 14.7715 10.8095 14.8826 10.8095C14.879 10.6976 14.8862 10.5961 14.879 10.4946C14.7644 10.4946 14.6605 10.4946 14.5602 10.4946C14.5602 10.4036 14.5602 10.3126 14.5602 10.2216C14.6748 10.2041 14.7823 10.2286 14.8754 10.2076C14.8754 9.95914 14.8754 9.72117 14.8754 9.48669C14.768 9.4692 14.6605 9.49369 14.5602 9.4727C14.5602 9.37471 14.5602 9.28722 14.5602 9.19973C14.6605 9.19973 14.7644 9.19973 14.8754 9.19973C14.8754 9.09824 14.8754 8.99675 14.8754 8.88477C15.0904 8.88477 15.291 8.88477 15.4917 8.88477C15.4917 8.98975 15.4917 9.09474 15.4917 9.19973C15.4917 9.52519 15.4917 9.84715 15.4917 10.1796C15.6027 10.1796 15.703 10.1796 15.8069 10.1796C15.8069 10.2811 15.8069 10.3791 15.8069 10.4876C15.7102 10.5086 15.6063 10.4841 15.4952 10.5016C15.4952 10.6906 15.4952 10.883 15.4952 11.086C15.3985 11.086 15.3054 11.086 15.2086 11.086C15.2086 11.1945 15.2086 11.2925 15.2086 11.401C15.1012 11.401 14.9937 11.401 14.8862 11.401C14.8862 11.5095 14.8862 11.6074 14.8862 11.7124C14.6462 11.7124 14.4097 11.7124 14.1661 11.7124C14.1661 11.6389 14.1697 11.5654 14.1661 11.4885C14.1625 11.436 14.1338 11.4045 14.0801 11.4045C14.0084 11.4045 13.9368 11.4045 13.8472 11.4045C13.8401 11.506 13.8472 11.6074 13.8436 11.7194C13.8007 11.7229 13.7648 11.7229 13.7326 11.7229Z" fill="#FDD757"/>
<path d="M10.042 3.53516C10.6475 3.53516 11.2529 3.53516 11.8691 3.53516C11.8691 3.64364 11.8691 3.74863 11.8691 3.85012C11.776 3.85012 11.6829 3.85012 11.5825 3.85012C11.5861 3.95161 11.579 4.0426 11.5897 4.13009C11.6936 4.13009 11.7832 4.13009 11.8727 4.13009C11.8727 4.23507 11.8727 4.34006 11.8727 4.44505C11.7796 4.44505 11.6864 4.44505 11.5933 4.44505C11.5933 4.55704 11.5933 4.65852 11.5933 4.76351C11.6864 4.76351 11.776 4.76351 11.8727 4.76351C11.8727 4.858 11.8727 4.94899 11.8727 5.03998C11.8727 5.14497 11.8727 5.24995 11.8727 5.35494C11.776 5.35494 11.6829 5.35494 11.5861 5.35494C11.5861 5.25345 11.5861 5.14846 11.5861 5.03648C11.4715 5.03648 11.3676 5.03648 11.2601 5.03648C11.2601 4.94199 11.2601 4.8545 11.2601 4.76001C11.1634 4.76001 11.0702 4.76001 10.9771 4.76001C10.8696 4.76001 10.7621 4.76001 10.6546 4.76001C10.6546 4.65852 10.6546 4.55354 10.6546 4.45205C10.54 4.43455 10.4325 4.45905 10.3322 4.43805C10.3322 4.32956 10.3322 4.23157 10.3322 4.13009C10.3322 4.0391 10.3322 3.94811 10.3322 3.85012C10.2319 3.85012 10.1387 3.85012 10.0456 3.85012C10.0348 3.85012 10.0205 3.85012 10.0098 3.85012C10.0169 3.74513 10.0313 3.64014 10.042 3.53516Z" fill="#FDD755"/>
<path d="M10.6514 2.51268C10.6514 2.42169 10.6514 2.3342 10.6514 2.24321C10.4364 2.24321 10.2322 2.24321 10.0137 2.24321C10.0137 2.13472 10.0137 2.03323 10.0137 1.92824C10.3182 1.92824 10.6191 1.92824 10.9344 1.92824C10.9344 1.81976 10.9344 1.71827 10.9344 1.61328C11.0455 1.61328 11.1458 1.61328 11.2533 1.61328C11.2533 1.71127 11.2533 1.80926 11.2533 1.91775C11.3643 1.91775 11.4682 1.91775 11.5757 1.91775C11.5757 2.01573 11.5757 2.10322 11.5757 2.20471C11.6581 2.20471 11.7333 2.20121 11.8086 2.20471C11.8695 2.20821 11.9017 2.23621 11.9017 2.2992C11.9053 2.36919 11.9017 2.43918 11.9017 2.51268C11.4897 2.51268 11.0813 2.51268 10.6514 2.51268Z" fill="#C49460"/>
<path d="M7.53418 2.51978C7.53418 2.11033 7.53418 1.70437 7.53418 1.29492C7.70973 1.29492 7.88886 1.29492 8.07157 1.29492C8.07157 1.40341 8.07157 1.5014 8.07157 1.60988C8.27578 1.60988 8.47641 1.60988 8.67704 1.60988C8.67704 1.71837 8.67704 1.81636 8.67704 1.92485C8.58389 1.92485 8.49432 1.92485 8.39401 1.92485C8.39401 2.00534 8.39759 2.07533 8.39401 2.14182C8.39043 2.21181 8.36177 2.23981 8.28653 2.23981C8.07874 2.23981 7.87095 2.23981 7.64882 2.23981C7.64882 2.3273 7.64882 2.41829 7.64882 2.51978C7.60225 2.51978 7.56642 2.51978 7.53418 2.51978Z" fill="#FCD85E"/>
<path d="M13.8395 7.2793C13.9398 7.2793 14.0401 7.2793 14.1548 7.2793C14.1548 7.36679 14.1548 7.45778 14.1548 7.55926C14.2981 7.55926 14.4271 7.55926 14.556 7.55926C14.556 7.69925 14.556 7.83923 14.556 7.97921C14.3196 7.97921 14.0867 7.97921 13.8395 7.97921C13.8395 8.0877 13.8395 8.19269 13.8395 8.29418C13.732 8.29418 13.6246 8.29418 13.5171 8.29418C13.4239 8.29418 13.3308 8.29418 13.2305 8.29418C13.2305 8.18219 13.2305 8.0807 13.2305 7.97921C13.3236 7.97921 13.4168 7.97921 13.5171 7.97921C13.5171 7.83223 13.5171 7.69575 13.5171 7.55926C13.5278 7.55926 13.5422 7.55926 13.5529 7.55926C13.6461 7.55926 13.7392 7.55926 13.8395 7.55926C13.8395 7.46128 13.8395 7.37029 13.8395 7.2793Z" fill="#FDD757"/>
<path d="M10.0422 3.53516C10.0314 3.64014 10.0171 3.74513 10.0063 3.85012C9.87379 3.85012 9.74482 3.85012 9.61226 3.85012C9.50836 3.85012 9.40447 3.85012 9.28982 3.85012C9.28982 3.94811 9.28982 4.0391 9.28982 4.13009C9.19309 4.13009 9.09995 4.13009 9.00321 4.13009C8.89574 4.13009 8.78826 4.13009 8.68078 4.13009C8.60913 4.13009 8.53747 4.13009 8.46582 4.13009C8.46582 4.0356 8.46582 3.94461 8.46582 3.85012C8.53747 3.85012 8.60554 3.85012 8.6772 3.85012C8.68794 3.73813 8.67003 3.63314 8.68794 3.53516C8.91007 3.53516 9.11786 3.53516 9.32565 3.53516C9.56569 3.53516 9.80214 3.53516 10.0422 3.53516Z" fill="#FDAE36"/>
<path d="M13.5171 8.29492C13.6246 8.29492 13.732 8.29492 13.8395 8.29492C13.8395 8.38941 13.8395 8.4804 13.8395 8.57489C13.8395 8.67638 13.8395 8.77786 13.8395 8.88985C13.9542 8.88985 14.0581 8.88985 14.162 8.88985C14.162 8.99484 14.162 9.09983 14.162 9.20481C14.0545 9.20481 13.947 9.20481 13.8395 9.20481C13.7428 9.20481 13.6496 9.20481 13.5529 9.20481C13.4454 9.20481 13.3379 9.20481 13.2305 9.20481C13.2305 9.10333 13.2305 8.99834 13.2305 8.88285C13.3451 8.88285 13.449 8.88285 13.5529 8.88285C13.5529 8.77087 13.5565 8.67288 13.5529 8.57489C13.5457 8.4839 13.5278 8.38941 13.5171 8.29492Z" fill="#FDAE36"/>
<path d="M13.2303 4.7595C13.1228 4.7595 13.0154 4.7595 12.9079 4.7595C12.9079 4.65801 12.9079 4.55653 12.9079 4.44454C12.8076 4.44454 12.7144 4.44454 12.6213 4.44454C12.6213 4.34305 12.6213 4.24156 12.6213 4.12958C12.5066 4.12958 12.4027 4.12958 12.2988 4.12958C12.2988 4.03509 12.2988 3.9441 12.2988 3.84961C12.4995 3.84961 12.7001 3.84961 12.9043 3.84961C12.9043 3.9441 12.9043 4.02809 12.9043 4.12608C13.0118 4.12608 13.1157 4.12608 13.2303 4.12608C13.2303 4.34655 13.2303 4.55303 13.2303 4.7595Z" fill="#FDD755"/>
<path d="M9.32565 3.53518C9.11786 3.53518 8.91007 3.53518 8.68794 3.53518C8.67003 3.63317 8.68794 3.73816 8.6772 3.85015C8.60554 3.85015 8.53389 3.85015 8.46582 3.85015C8.46582 3.60518 8.46582 3.36021 8.46582 3.11523C8.70944 3.11523 8.94947 3.11523 9.19309 3.11523C9.31132 3.11523 9.32565 3.12923 9.32565 3.24122C9.32565 3.33921 9.32565 3.4372 9.32565 3.53518Z" fill="#FCD85E"/>
<path d="M15.4871 13.0176C15.179 13.0176 14.8745 13.0176 14.5557 13.0176C14.5557 12.9196 14.5557 12.8286 14.5557 12.7376C14.7348 12.7376 14.9103 12.7376 15.0895 12.7376C15.1755 12.7376 15.2005 12.7132 15.2005 12.6257C15.2005 12.5627 15.2005 12.4997 15.2005 12.4297C15.2937 12.4297 15.3868 12.4297 15.4871 12.4297C15.4871 12.6257 15.4871 12.8216 15.4871 13.0176Z" fill="#FDD757"/>
<path d="M16.5261 8.88918C16.5261 8.99067 16.5261 9.09216 16.5261 9.20414C16.3756 9.20414 16.2359 9.20414 16.0962 9.20414C16.0962 9.10266 16.0962 9.00117 16.0962 8.88918C15.9959 8.88918 15.9027 8.88918 15.8096 8.88918C15.8096 8.78419 15.8096 8.67921 15.8096 8.57422C15.9063 8.57422 15.9994 8.57422 16.0962 8.57422C16.0854 8.67921 16.1033 8.78419 16.1463 8.88918C16.2717 8.88918 16.3971 8.88918 16.5261 8.88918Z" fill="#C49460"/>
<path d="M16.0964 8.57345C15.9996 8.57345 15.9065 8.57345 15.8097 8.57345C15.8097 8.48246 15.8097 8.39147 15.8097 8.29348C15.6951 8.29348 15.5912 8.29348 15.4873 8.29348C15.4873 8.18849 15.4873 8.0835 15.4873 7.97852C15.5948 7.97852 15.7023 7.97852 15.8097 7.97852C15.8097 8.06601 15.8097 8.1535 15.8097 8.25148C15.8635 8.25498 15.9208 8.25498 15.9781 8.25848C16.1286 8.26198 16.1322 8.26198 16.1322 8.41596C16.1322 8.46846 16.1322 8.52095 16.1322 8.57345C16.1214 8.57345 16.1071 8.57345 16.0964 8.57345Z" fill="#FCD85E"/>
<path d="M14.1623 5.77347C14.0584 5.77347 13.9545 5.77347 13.8398 5.77347C13.8398 5.62648 13.8398 5.49 13.8398 5.35352C13.9437 5.35352 14.0476 5.35352 14.1623 5.35352C14.1623 5.5005 14.1623 5.63698 14.1623 5.77347Z" fill="#FDB23B"/>
<path d="M14.7176 8.06563C14.8442 8.06563 14.9469 7.93245 14.9469 7.76817C14.9469 7.60388 14.8442 7.4707 14.7176 7.4707C14.5909 7.4707 14.4883 7.60388 14.4883 7.76817C14.4883 7.93245 14.5909 8.06563 14.7176 8.06563Z" fill="#FDAE36"/>
<path d="M15.8097 7.97854C15.7023 7.97854 15.5948 7.97854 15.4873 7.97854C15.4873 7.84556 15.4873 7.71258 15.4873 7.56209C15.5912 7.55509 15.6951 7.56209 15.8097 7.55859C15.8097 7.70208 15.8097 7.84206 15.8097 7.97854Z" fill="#C79967"/>
<path d="M16.0968 8.57422C16.1075 8.57422 16.1219 8.57422 16.1326 8.57422C16.2616 8.57422 16.3906 8.57422 16.5267 8.57422C16.5267 8.68621 16.5267 8.78769 16.5267 8.88918C16.3977 8.88918 16.2723 8.88918 16.147 8.88918C16.104 8.78419 16.086 8.67921 16.0968 8.57422Z" fill="#FDD757"/>
<path d="M14.1621 9.20364C14.1621 9.09865 14.1621 8.99366 14.1621 8.88867C14.2911 8.88867 14.4201 8.88867 14.5562 8.88867C14.5562 9.00066 14.5562 9.10215 14.5562 9.20364C14.4236 9.20364 14.2947 9.20364 14.1621 9.20364Z" fill="#C49460"/>
<path d="M18.0669 12.0039C18.0669 12.1369 18.0669 12.2699 18.0669 12.4169C17.9773 12.4344 17.8842 12.4169 17.7803 12.4274C17.7803 12.2804 17.7803 12.1404 17.7803 12.0039C17.877 12.0039 17.9702 12.0039 18.0669 12.0039Z" fill="#FDD757"/>
<path d="M12.0838 4.18801C12.252 4.18801 12.3883 4.09871 12.3883 3.98854C12.3883 3.87837 12.252 3.78906 12.0838 3.78906C11.9156 3.78906 11.7793 3.87837 11.7793 3.98854C11.7793 4.09871 11.9156 4.18801 12.0838 4.18801Z" fill="#FDEA95"/>
<path d="M15.4873 3.85012C15.4873 3.75213 15.4873 3.65414 15.4873 3.54216C15.5375 3.53866 15.5876 3.53866 15.6378 3.53516C15.6915 3.53516 15.7417 3.53516 15.8097 3.53516C15.8097 3.63314 15.8097 3.72413 15.8097 3.81512C15.8097 3.82562 15.8097 3.83962 15.8097 3.85012C15.7023 3.85012 15.5948 3.85012 15.4873 3.85012Z" fill="#FCD85E"/>
<path d="M18.0674 11.4087C18.0674 11.3107 18.0674 11.2127 18.0674 11.0972C18.1713 11.0903 18.2752 11.0972 18.3898 11.0938C18.3898 11.2022 18.3898 11.3072 18.3898 11.4087C18.2823 11.4087 18.1749 11.4087 18.0674 11.4087Z" fill="#FCD85E"/>
<path d="M14.8781 6.36965C14.7778 6.36965 14.6775 6.36965 14.5592 6.36965C14.5521 6.26816 14.5592 6.16667 14.5557 6.05469C14.6667 6.05469 14.7742 6.05469 14.8781 6.05469C14.8781 6.15968 14.8781 6.26466 14.8781 6.36965Z" fill="#FDB23B"/>
<path d="M18.2283 11.7897C18.3549 11.7897 18.4576 11.6895 18.4576 11.5658C18.4576 11.4421 18.3549 11.3418 18.2283 11.3418C18.1017 11.3418 17.999 11.4421 17.999 11.5658C17.999 11.6895 18.1017 11.7897 18.2283 11.7897Z" fill="#C49460"/>
<path d="M14.8781 6.9634C14.7778 6.9634 14.6775 6.9634 14.5592 6.9634C14.5521 6.86191 14.5592 6.76042 14.5557 6.64844C14.6667 6.64844 14.7742 6.64844 14.8781 6.64844C14.8781 6.75343 14.8781 6.85841 14.8781 6.9634Z" fill="#FDB23B"/>
<path d="M15.6492 8.95576C15.7758 8.95576 15.8785 8.85548 15.8785 8.73179C15.8785 8.60809 15.7758 8.50781 15.6492 8.50781C15.5226 8.50781 15.4199 8.60809 15.4199 8.73179C15.4199 8.85548 15.5226 8.95576 15.6492 8.95576Z" fill="#FDD757"/>
<path d="M14.0008 8.95576C14.1274 8.95576 14.2301 8.85548 14.2301 8.73179C14.2301 8.60809 14.1274 8.50781 14.0008 8.50781C13.8741 8.50781 13.7715 8.60809 13.7715 8.73179C13.7715 8.85548 13.8741 8.95576 14.0008 8.95576Z" fill="#FCD85E"/>
<path d="M15.6492 9.27021C15.7758 9.27021 15.8785 9.16994 15.8785 9.04624C15.8785 8.92254 15.7758 8.82227 15.6492 8.82227C15.5226 8.82227 15.4199 8.92254 15.4199 9.04624C15.4199 9.16994 15.5226 9.27021 15.6492 9.27021Z" fill="#C49460"/>
<path d="M14.5557 7.97852C14.6631 7.97852 14.7706 7.97852 14.8781 7.97852C14.8781 8.0765 14.8781 8.17449 14.8781 8.28998C14.7742 8.29698 14.6703 8.28998 14.5557 8.29348C14.5557 8.18499 14.5557 8.08 14.5557 7.97852Z" fill="#FCD85E"/>
<path d="M15.8096 3.84945C15.8096 3.83895 15.8096 3.82495 15.8096 3.81445C15.8812 3.81445 15.9529 3.81445 16.0245 3.81445C16.0998 3.81795 16.132 3.84245 16.132 3.91244C16.1356 3.98243 16.132 4.04893 16.132 4.12942C16.0209 4.12942 15.9135 4.12942 15.8096 4.12942C15.8096 4.03493 15.8096 3.94394 15.8096 3.84945Z" fill="#FDD757"/>
<path d="M18.0674 11.7227C18.1749 11.7227 18.2823 11.7227 18.3898 11.7227C18.3898 11.7856 18.3898 11.8486 18.3898 11.9116C18.3862 12.0236 18.3289 12.0796 18.2322 12.0306C18.1749 12.0026 18.1247 12.0131 18.0674 12.0026C18.0674 11.9081 18.0674 11.8171 18.0674 11.7227Z" fill="#FDD757"/>
<path d="M18.0669 11.4082C18.0669 11.5132 18.0669 11.6182 18.0669 11.7232C17.9702 11.7232 17.877 11.7232 17.7803 11.7232C17.7803 11.6217 17.7803 11.5202 17.7803 11.4082C17.8806 11.4082 17.9737 11.4082 18.0669 11.4082Z" fill="#FDD757"/>
<path d="M15.8097 3.84961C15.8097 3.9441 15.8097 4.03509 15.8097 4.12958C15.7058 4.12958 15.6019 4.12958 15.4873 4.12958C15.4873 4.03159 15.4873 3.9406 15.4873 3.84961C15.5948 3.84961 15.7023 3.84961 15.8097 3.84961Z" fill="#C49460"/>
<path d="M15.8097 8.57489C15.7023 8.57489 15.5948 8.57489 15.4873 8.57489C15.4873 8.4804 15.4873 8.38941 15.4873 8.29492C15.5912 8.29492 15.6951 8.29492 15.8097 8.29492C15.8097 8.39291 15.8097 8.4839 15.8097 8.57489Z" fill="#C49460"/>
<path d="M15.8096 9.20364C15.8096 9.09865 15.8096 8.99366 15.8096 8.88867C15.9027 8.88867 15.9959 8.88867 16.0962 8.88867C16.0962 9.00066 16.0962 9.10215 16.0962 9.20364C15.9994 9.20364 15.9063 9.20364 15.8096 9.20364Z" fill="#FCD85E"/>
<path d="M13.5171 5.03973C13.4239 5.03973 13.3308 5.03973 13.2305 5.03973C13.2305 4.94174 13.2305 4.85075 13.2305 4.75977C13.3236 4.75977 13.4132 4.75977 13.492 4.75977C13.5816 4.85425 13.5493 4.94874 13.5171 5.03973Z" fill="#FDD755"/>
<path d="M17.9239 12.063C18.0367 12.063 18.1281 11.9737 18.1281 11.8635C18.1281 11.7534 18.0367 11.6641 17.9239 11.6641C17.8112 11.6641 17.7197 11.7534 17.7197 11.8635C17.7197 11.9737 17.8112 12.063 17.9239 12.063Z" fill="#C49460"/>
<path d="M8.07185 13.3342C7.92855 13.3342 7.78524 13.3342 7.64194 13.3342C7.64194 13.2327 7.64194 13.1312 7.64194 13.0192C7.54163 13.0192 7.44848 13.0192 7.35533 13.0192C7.35533 12.9457 7.35891 12.8722 7.35533 12.7952C7.35175 12.7358 7.32308 12.7043 7.26218 12.7043C7.18694 12.7008 7.11171 12.7043 7.03289 12.7043C7.03289 12.6133 7.03289 12.5223 7.03289 12.4313C6.91825 12.4138 6.81077 12.4383 6.70329 12.4138C6.70329 12.2738 6.70329 12.1408 6.70329 12.0008C6.61014 12.0008 6.52058 12.0008 6.42026 12.0008C6.42026 11.8014 6.42026 11.6054 6.42026 11.4059C6.3092 11.4059 6.20889 11.4059 6.09783 11.4059C6.09783 11.2064 6.09783 11.0105 6.09783 10.811C5.98677 10.811 5.88645 10.811 5.77539 10.811C5.77539 10.468 5.77539 10.1321 5.77539 9.7961C5.87929 9.7961 5.98677 9.7961 6.09783 9.7961C6.09424 9.68411 6.10141 9.58263 6.09424 9.48114C5.9796 9.48114 5.8757 9.48114 5.77539 9.48114C5.77539 9.38665 5.77539 9.29566 5.77539 9.20117C6.53849 9.20117 7.29801 9.20117 8.06827 9.20117C8.06827 9.47064 8.06827 9.73311 8.06827 9.99908C8.37638 9.99908 8.67732 9.99908 8.97467 9.99908C8.98542 10.0096 8.99259 10.0131 8.99617 10.0166C8.99975 10.0201 9.00334 10.0271 9.00334 10.0306C9.00334 10.321 9.00334 10.6115 9.00334 10.909C9.27562 10.909 9.54073 10.909 9.82017 10.909C9.8345 11.1784 9.82017 11.4444 9.82734 11.7209C10.1032 11.7209 10.3755 11.7209 10.6513 11.7209C10.6549 11.9553 10.6442 12.1863 10.6585 12.4208C10.7015 12.4208 10.7302 12.4208 10.7588 12.4208C10.7588 12.4488 10.7588 12.4768 10.7588 12.5188C10.8412 12.5363 10.9272 12.5223 11.0132 12.5258C11.0956 12.5293 11.178 12.5258 11.2604 12.5258C11.2604 12.5888 11.2604 12.6553 11.2604 12.7323C11.1637 12.7358 11.0633 12.7323 10.963 12.7358C10.8627 12.7358 10.7624 12.7358 10.6549 12.7358C10.6549 12.8267 10.6549 12.9142 10.6549 13.0157C10.5009 13.0157 10.354 13.0157 10.2071 13.0157C10.1713 13.0157 10.1354 13.0157 10.0996 13.0157C10.0351 13.0192 10.0065 13.0472 10.0029 13.1102C9.99931 13.1802 10.0029 13.2502 10.0029 13.3307C9.6697 13.3307 9.33652 13.3307 8.99975 13.3307C8.99975 13.4287 8.99975 13.5127 8.99975 13.6071C8.89586 13.6071 8.79554 13.6071 8.6809 13.6071C8.6809 13.5232 8.6809 13.4357 8.6809 13.3342C8.47311 13.3342 8.27248 13.3342 8.07185 13.3342Z" fill="#FEFEFD"/>
<path d="M5.56373 0.208984C6.15845 0.208984 6.75316 0.208984 7.35146 0.208984C7.35146 1.08738 7.35146 1.95178 7.35146 2.83017C7.6524 2.83017 7.94618 2.83017 8.24712 2.83017C8.24712 3.70857 8.24712 4.57647 8.24712 5.45486C8.55881 5.45486 8.86691 5.45486 9.18218 5.45486C9.18218 6.34026 9.18218 7.21166 9.18218 8.08305C8.88482 8.08305 8.58388 8.08305 8.28653 8.08305C8.28653 7.58261 8.28653 7.08217 8.28653 6.58523C8.28653 6.50824 8.29727 6.42775 8.22562 6.36826C7.65957 6.36826 7.09709 6.36826 6.53104 6.36826C6.52029 6.36826 6.50596 6.36826 6.49521 6.36826C6.49521 6.06379 6.49521 5.76283 6.49521 5.45836C6.73883 5.45836 6.98245 5.45836 7.22965 5.45836C7.25831 5.43037 7.28697 5.40237 7.31922 5.36737C7.31922 4.87043 7.31922 4.36999 7.31922 3.86955C7.31922 3.75756 7.30489 3.74357 7.18666 3.74357C7.158 3.74357 7.12576 3.74357 7.0971 3.74357C6.94662 3.74357 6.79974 3.74357 6.64927 3.74357C6.50238 3.74357 6.4988 3.73657 6.49521 3.60008C6.49521 3.57559 6.49521 3.55459 6.49521 3.53009C6.49521 2.99465 6.49521 2.45922 6.49521 1.92378C6.49521 1.65781 6.49521 1.39184 6.49521 1.11888C6.19069 1.11888 5.89333 1.11888 5.59956 1.11888C5.58881 1.06988 5.5709 1.02439 5.56373 0.975394C5.55657 0.9229 5.56373 0.870406 5.56373 0.817912C5.56373 0.614936 5.56373 0.41196 5.56373 0.208984Z" fill="#7875F8"/>
<path d="M6.49486 6.36928C6.50561 6.36928 6.51994 6.36928 6.53068 6.36928C6.53068 6.76474 6.53068 7.16019 6.53068 7.55564C6.53068 7.59064 6.54143 7.62913 6.5271 7.66063C6.46261 7.79711 6.50919 7.9406 6.48769 8.08758C7.08241 8.08758 7.66638 8.08758 8.24676 8.08758C8.24676 8.39204 8.24676 8.69301 8.24676 8.99747C7.36544 8.99747 6.48411 8.99747 5.5992 8.99747C5.5992 8.69301 5.5992 8.39554 5.5992 8.09108C4.70354 8.09108 3.81147 8.09108 2.91223 8.09108C2.91223 7.78312 2.91223 7.48915 2.91223 7.18119C2.01658 7.18119 1.1245 7.18119 0.22168 7.18119C0.22168 6.60026 0.22168 6.02982 0.22168 5.46289C0.533368 5.46289 0.841474 5.46289 1.15316 5.46289C1.15316 5.76385 1.15316 6.06482 1.15316 6.37278C1.43261 6.37278 1.70489 6.37278 1.97717 6.37278C2.59696 6.37278 3.21317 6.37278 3.84371 6.37278C3.84371 6.64575 3.84371 6.91172 3.84371 7.17419C4.43126 7.17419 5.00807 7.17419 5.59562 7.17419C5.59562 6.90472 5.59562 6.63875 5.59562 6.37278C5.89656 6.36928 6.1975 6.36928 6.49486 6.36928Z" fill="#3835C1"/>
<path d="M1.15707 5.45836C0.84538 5.45836 0.537274 5.45836 0.225586 5.45836C0.225586 3.71207 0.225586 1.96578 0.225586 0.208984C2.00973 0.208984 3.78672 0.208984 5.5637 0.208984C5.5637 0.41196 5.5637 0.614936 5.5637 0.817912C5.5637 0.870406 5.56012 0.9229 5.5637 0.975394C5.57086 1.02439 5.58519 1.06988 5.59952 1.11888C4.1199 1.11888 2.64386 1.11888 1.15707 1.11888C1.15707 2.57121 1.15707 4.01303 1.15707 5.45836Z" fill="#7C79F6"/>
<path d="M12.586 10.4996C12.389 10.4996 12.1919 10.4996 11.977 10.4996C11.977 10.1986 11.977 9.90114 11.977 9.59318C11.7047 9.59318 11.436 9.59318 11.1565 9.59318C11.1565 9.32371 11.1565 9.05774 11.1565 8.78477C10.8413 8.78477 10.5367 8.78477 10.2215 8.78477C10.2215 8.48031 10.2215 8.17934 10.2215 7.87138C9.94202 7.87138 9.67332 7.87138 9.39746 7.87138C9.39746 7.36394 9.39746 6.867 9.39746 6.36656C9.46911 6.36656 9.53718 6.36656 9.61242 6.36656C9.61242 6.25807 9.61242 6.16008 9.61242 6.05859C9.74498 6.05859 9.87395 6.05859 10.0065 6.05859C10.0065 6.13558 10.0029 6.20208 10.0065 6.27207C10.0101 6.33506 10.0388 6.36306 10.1032 6.36656C10.2752 6.37006 10.4472 6.36656 10.6227 6.36656C10.7266 6.36656 10.8341 6.36656 10.938 6.36656C10.938 6.43305 10.938 6.48554 10.938 6.53804C10.938 6.67102 10.9452 6.67802 11.092 6.68152C11.1458 6.68152 11.1959 6.68152 11.264 6.68152C11.264 6.77951 11.264 6.867 11.264 6.96499C11.3751 6.96499 11.4754 6.96499 11.5864 6.96499C11.5864 7.07347 11.5864 7.17496 11.5864 7.27995C11.8301 7.27995 12.0594 7.27995 12.303 7.27995C12.303 7.51442 12.303 7.74539 12.303 7.97987C12.4033 7.97987 12.4893 7.97987 12.586 7.97987C12.586 8.05336 12.5824 8.12335 12.586 8.19334C12.5896 8.26333 12.6182 8.29133 12.6935 8.29133C12.7651 8.29133 12.8332 8.29133 12.9013 8.29133C12.9013 8.38932 12.9013 8.47681 12.9013 8.5713C12.8225 8.5713 12.7436 8.5678 12.6684 8.5713C12.6147 8.5748 12.5824 8.60279 12.5824 8.65529C12.5824 8.69728 12.5824 8.73578 12.5824 8.77777C12.5824 9.11373 12.5824 9.44969 12.5824 9.79965C12.4821 9.79965 12.389 9.79965 12.303 9.79965C12.303 9.94313 12.303 10.0761 12.303 10.2196C12.3997 10.2196 12.4928 10.2196 12.5824 10.2196C12.586 10.3246 12.586 10.4121 12.586 10.4996Z" fill="#FEFEFD"/>
<path d="M12.5853 10.4983C12.5853 10.4108 12.5853 10.3233 12.5853 10.2253C12.4958 10.2253 12.4026 10.2253 12.3059 10.2253C12.3059 10.0819 12.3059 9.94888 12.3059 9.8054C12.3919 9.8054 12.485 9.8054 12.5853 9.8054C12.5853 9.45544 12.5853 9.11948 12.5853 8.78352C12.5853 8.74152 12.5853 8.70303 12.5853 8.66103C12.5853 8.60854 12.6176 8.57704 12.6713 8.57704C12.7466 8.57354 12.8254 8.57704 12.9042 8.57704C12.9042 8.48255 12.9042 8.39506 12.9042 8.29707C12.8361 8.29707 12.7645 8.29707 12.6964 8.29707C12.6176 8.29357 12.5889 8.26908 12.5889 8.19909C12.5853 8.12909 12.5889 8.0626 12.5889 7.98561C12.4922 7.98561 12.4062 7.98561 12.3059 7.98561C12.3059 7.75114 12.3059 7.52017 12.3059 7.28569C12.0623 7.28569 11.833 7.28569 11.5894 7.28569C11.5894 7.18071 11.5894 7.07572 11.5894 6.97073C11.4783 6.97073 11.378 6.97073 11.2669 6.97073C11.2669 6.87624 11.2669 6.78525 11.2669 6.68726C11.2025 6.68726 11.1487 6.68726 11.095 6.68726C10.9517 6.68726 10.9445 6.68027 10.9409 6.54378C10.9409 6.49129 10.9409 6.43879 10.9409 6.3723C10.8334 6.3723 10.7295 6.3723 10.6256 6.3723C10.4537 6.3723 10.2817 6.3723 10.1062 6.3723C10.0417 6.3723 10.013 6.34081 10.0094 6.27781C10.0059 6.20782 10.0094 6.13783 10.0094 6.06434C9.87688 6.06434 9.75149 6.06434 9.61535 6.06434C9.61535 6.16583 9.61535 6.26381 9.61535 6.3723C9.54011 6.3723 9.46846 6.3723 9.40039 6.3723C9.40039 6.03284 9.40039 5.69688 9.40039 5.35742C9.7085 5.35742 10.0166 5.35742 10.3319 5.35742C10.3319 5.43791 10.3319 5.5079 10.3319 5.5744C10.3319 5.64089 10.3355 5.71088 10.3355 5.78087C10.8549 5.78087 11.3601 5.78087 11.876 5.78087C11.876 5.87536 11.876 5.96635 11.876 6.05384C12.0265 6.05384 12.1626 6.05384 12.2987 6.05384C12.3955 6.05384 12.4886 6.05384 12.5853 6.05384C12.5853 6.15883 12.5853 6.26381 12.5853 6.3688C12.4922 6.3688 12.399 6.3688 12.2987 6.3688C12.2987 6.48079 12.2987 6.58228 12.2987 6.68376C12.2987 6.77475 12.2987 6.86574 12.2987 6.96373C12.399 6.96373 12.4922 6.96373 12.5853 6.96373C12.6928 6.96373 12.8003 6.96373 12.9078 6.96373C12.9078 7.06522 12.9078 7.16671 12.9078 7.27869C13.0224 7.27869 13.1263 7.27869 13.2302 7.27869C13.2302 7.37318 13.2302 7.46417 13.2302 7.55866C13.1263 7.55866 13.0188 7.55866 12.9078 7.55866C12.9078 7.63915 12.9078 7.70914 12.9078 7.77564C12.9078 7.84213 12.9114 7.91212 12.9114 7.97861C13.026 7.97861 13.1299 7.97861 13.2302 7.97861C13.2302 8.0801 13.2302 8.18159 13.2302 8.29357C13.3305 8.29357 13.4237 8.29357 13.5168 8.29357C13.5276 8.38806 13.5455 8.48255 13.5527 8.57354C13.5598 8.67153 13.5527 8.76952 13.5527 8.88151C13.4488 8.88151 13.3449 8.88151 13.2302 8.88151C13.2302 8.99699 13.2302 9.09848 13.2302 9.20347C13.2302 9.29796 13.2302 9.38895 13.2302 9.48343C13.2302 9.58842 13.2302 9.69341 13.2302 9.7984C13.1263 9.7984 13.0188 9.7984 12.9078 9.7984C12.9078 10.0399 12.9078 10.2673 12.9078 10.4983C12.872 10.4983 12.8361 10.4983 12.8003 10.4983C12.7287 10.4983 12.657 10.4983 12.5853 10.4983Z" fill="#FDEA96"/>
<path d="M10.9733 9.79883C11.242 9.79883 11.5107 9.79883 11.7794 9.79883C11.783 9.80233 11.7866 9.80583 11.7901 9.80933C11.7937 9.81283 11.7973 9.81983 11.7973 9.82333C11.7973 10.1138 11.7973 10.4043 11.7973 10.7017C12.0696 10.7017 12.3383 10.7017 12.6177 10.7017C12.6177 10.9712 12.6177 11.2372 12.6177 11.5066C12.933 11.5066 13.2339 11.5066 13.5492 11.5066C13.5492 11.7761 13.5492 12.0421 13.5492 12.3115C13.8287 12.3115 14.0938 12.3115 14.3732 12.3115C14.3732 12.616 14.3732 12.917 14.3732 13.2214C14.6885 13.2214 14.9894 13.2214 15.3047 13.2214C15.3047 13.4944 15.3047 13.7604 15.3047 14.0263C14.993 14.0263 14.6849 14.0263 14.3732 14.0263C14.3625 14.0263 14.3481 14.0263 14.3374 14.0263C14.3374 13.7604 14.3374 13.4944 14.3374 13.2214C14.0687 13.2214 13.8107 13.2214 13.5492 13.2214C13.5385 13.2214 13.5241 13.2214 13.5134 13.2214C13.5134 12.9205 13.5134 12.6195 13.5134 12.3115C13.2089 12.3115 12.9151 12.3115 12.6177 12.3115C12.607 12.3115 12.5927 12.3115 12.5819 12.3115C12.5819 12.0456 12.5819 11.7796 12.5819 11.5066C12.3132 11.5066 12.0553 11.5066 11.7937 11.5066C11.783 11.5066 11.7687 11.5066 11.7579 11.5066C11.7579 11.2407 11.7579 10.9747 11.7579 10.7017C11.4892 10.7017 11.2313 10.7017 10.9697 10.7017C10.9733 10.4043 10.9733 10.1033 10.9733 9.79883Z" fill="#7875F8"/>
<path d="M11.7619 11.5134C11.7727 11.5134 11.787 11.5134 11.7978 11.5134C11.7978 11.7829 11.7978 12.0489 11.7978 12.3183C11.787 12.3183 11.7727 12.3183 11.7619 12.3183C11.4933 12.3183 11.2246 12.3183 10.9415 12.3183C10.9308 12.0559 10.9415 11.7899 10.9344 11.5169C10.6263 11.5169 10.3253 11.5169 10.01 11.5169C10.01 11.2475 10.01 10.9815 10.01 10.712C9.74135 10.712 9.48698 10.712 9.21829 10.712C9.23262 10.558 9.16813 10.4216 9.17888 10.2711C9.18962 10.1206 9.18246 9.96662 9.18246 9.81614C9.17888 9.81264 9.17529 9.80564 9.17171 9.80214C9.16813 9.79864 9.16096 9.79514 9.15738 9.79514C8.86002 9.79514 8.56267 9.79514 8.25098 9.79514C8.25098 9.52217 8.25098 9.2562 8.25098 8.99023C8.57341 8.99023 8.89585 8.99023 9.21829 8.99023C9.21829 9.2562 9.21829 9.52217 9.21829 9.79514C9.49773 9.79514 9.77001 9.79514 10.0423 9.79514C10.0423 10.0961 10.0423 10.3971 10.0423 10.705C10.3576 10.705 10.6657 10.705 10.9738 10.705C10.9738 10.971 10.9738 11.237 10.9738 11.5099C11.2425 11.5134 11.5004 11.5134 11.7619 11.5134Z" fill="#3835C1"/>
<path d="M12.2994 6.05502C12.1633 6.05502 12.0236 6.05502 11.8767 6.05502C11.8767 5.96753 11.8767 5.87654 11.8767 5.78205C11.3608 5.78205 10.8556 5.78205 10.3362 5.78205C10.3362 5.70856 10.3326 5.64207 10.3326 5.57558C10.3326 5.50558 10.3326 5.43909 10.3326 5.3586C10.0173 5.3586 9.7092 5.3586 9.4011 5.3586C9.4011 5.32711 9.4011 5.29561 9.4011 5.25361C9.3581 5.25361 9.32586 5.25361 9.29362 5.25361C9.29362 5.18712 9.29362 5.11713 9.29362 5.04364C9.08224 5.04364 8.8852 5.04364 8.68457 5.04364C8.68457 4.95265 8.68457 4.86166 8.68457 4.76367C9.35094 4.76367 10.003 4.76367 10.655 4.76367C10.7625 4.76367 10.87 4.76367 10.9775 4.76367C11.0061 4.95965 10.9165 5.15213 10.9488 5.3586C11.1637 5.3586 11.3751 5.3586 11.5865 5.3586C11.6832 5.3586 11.7764 5.3586 11.8731 5.3586C11.8731 5.48459 11.8731 5.61057 11.8731 5.72606C12.0164 5.79605 12.1597 5.77505 12.303 5.77855C12.2994 5.86954 12.2994 5.96053 12.2994 6.05502Z" fill="#FDAE36"/>
<path d="M10.6512 4.75883C9.99918 4.75883 9.34715 4.75883 8.68078 4.75883C8.68078 4.85682 8.68078 4.94781 8.68078 5.0388C8.60913 5.0388 8.53747 5.0388 8.46582 5.0388C8.46582 4.83932 8.46582 4.64335 8.46582 4.44387C8.53389 4.44387 8.60554 4.44387 8.68078 4.44387C8.68078 4.33188 8.68078 4.23039 8.68078 4.12891C8.78826 4.12891 8.89574 4.12891 9.00321 4.12891C9.00321 4.23039 9.00321 4.33188 9.00321 4.44387C9.10353 4.44387 9.19668 4.44387 9.28982 4.44387C9.39372 4.44387 9.49762 4.44387 9.61226 4.44387C9.61226 4.33188 9.61226 4.23039 9.61226 4.12891C9.75557 4.12891 9.89887 4.12891 10.0422 4.12891C10.1389 4.12891 10.2321 4.12891 10.3288 4.12891C10.3288 4.22689 10.3288 4.32488 10.3288 4.43687C10.4291 4.45787 10.5366 4.43337 10.6512 4.45087C10.6512 4.55236 10.6512 4.65734 10.6512 4.75883Z" fill="#FDFBF7"/>
<path d="M9.21829 8.99388C8.89585 8.99388 8.57341 8.99388 8.25098 8.99388C8.25098 8.68941 8.25098 8.38845 8.25098 8.08398C8.26172 8.08398 8.27605 8.08398 8.2868 8.08398C8.58416 8.08398 8.8851 8.08398 9.18246 8.08398C9.19321 8.08398 9.20754 8.08398 9.21829 8.08398C9.21829 8.38845 9.21829 8.68941 9.21829 8.99388Z" fill="#615EE6"/>
<path d="M15.2723 15.8533C14.9642 15.8533 14.6561 15.8533 14.3408 15.8533C14.3408 15.5453 14.3408 15.2443 14.3408 14.9434C14.3516 14.9434 14.3659 14.9434 14.3766 14.9434C14.6883 14.9434 14.9964 14.9434 15.3081 14.9434C15.3081 15.2478 15.3081 15.5488 15.3081 15.8533C15.2974 15.8533 15.2831 15.8533 15.2723 15.8533Z" fill="#3B38C2"/>
<path d="M23.3338 21.9082C23.3338 22.2092 23.3338 22.5101 23.3338 22.8181C23.0186 22.8181 22.7105 22.8181 22.4023 22.8181C22.4023 22.5136 22.4023 22.2127 22.4023 21.9082C22.714 21.9082 23.0221 21.9082 23.3338 21.9082Z" fill="#615EE7"/>
<path d="M17.96 16.6582C18.2681 16.6582 18.5762 16.6582 18.8914 16.6582C18.8914 16.9662 18.8914 17.2671 18.8914 17.5681C18.5798 17.5681 18.2716 17.5681 17.96 17.5681C17.96 17.2636 17.96 16.9627 17.96 16.6582Z" fill="#7774F8"/>
<path d="M20.6465 19.2832C20.9546 19.2832 21.2627 19.2832 21.578 19.2832C21.578 19.5912 21.578 19.8921 21.578 20.1931C21.2663 20.1931 20.9582 20.1931 20.6465 20.1931C20.6465 19.8886 20.6465 19.5877 20.6465 19.2832Z" fill="#7774F8"/>
<path d="M20.6463 21.1032C20.3382 21.1032 20.0301 21.1032 19.7148 21.1032C19.7148 20.7953 19.7148 20.4943 19.7148 20.1934C20.0265 20.1934 20.3346 20.1934 20.6463 20.1934C20.6463 20.4978 20.6463 20.7988 20.6463 21.1032Z" fill="#3835C0"/>
<path d="M17.9598 18.4782C17.6517 18.4782 17.3472 18.4782 17.0283 18.4782C17.0427 18.1808 16.9997 17.8903 17.0642 17.6034C17.0749 17.5929 17.0892 17.5789 17.1 17.5684C17.3758 17.5684 17.6481 17.5684 17.924 17.5684C17.9347 17.5789 17.9491 17.5929 17.9598 17.6034C17.9598 17.8938 17.9598 18.1878 17.9598 18.4782Z" fill="#3835C0"/>
<path d="M15.3086 14.0332C15.5952 14.0332 15.8818 14.0332 16.1684 14.0332C16.1792 14.0437 16.1935 14.0577 16.2043 14.0682C16.2043 14.3587 16.2043 14.6526 16.2043 14.9431C15.9069 14.9431 15.606 14.9431 15.3086 14.9431C15.3086 14.6386 15.3086 14.3377 15.3086 14.0332Z" fill="#7774F8"/>
<path d="M11.7617 12.3184C11.7725 12.3184 11.7868 12.3184 11.7975 12.3184C12.0591 12.3184 12.3242 12.3184 12.5857 12.3184C12.5965 12.3184 12.6108 12.3184 12.6215 12.3184C12.6215 12.6228 12.6215 12.9238 12.6215 13.2283C12.6108 13.2283 12.5965 13.2283 12.5857 13.2283C12.3134 13.2283 12.0412 13.2283 11.7617 13.2283C11.7617 12.9203 11.7617 12.6193 11.7617 12.3184Z" fill="#3835C0"/>
<path d="M16.2041 14.9434C16.4871 14.9434 16.7702 14.9434 17.0639 14.9434C17.0639 15.2513 17.0639 15.5523 17.0639 15.8533C16.7773 15.8533 16.4907 15.8533 16.2041 15.8533C16.2041 15.5488 16.2041 15.2478 16.2041 14.9434Z" fill="#7875F8"/>
<path d="M14.3774 14.9431C14.3667 14.9431 14.3523 14.9431 14.3416 14.9431C14.0693 14.9431 13.797 14.9431 13.5176 14.9431C13.5176 14.6351 13.5176 14.3342 13.5176 14.0332C13.5283 14.0332 13.5427 14.0332 13.5534 14.0332C13.8149 14.0332 14.0801 14.0332 14.3416 14.0332C14.3523 14.0332 14.3667 14.0332 14.3774 14.0332C14.3774 14.3377 14.3774 14.6386 14.3774 14.9431Z" fill="#3F3CC4"/>
<path d="M17.0639 17.5681C16.7809 17.5681 16.4979 17.5681 16.2041 17.5681C16.2041 17.2601 16.2041 16.9592 16.2041 16.6582C16.48 16.6582 16.7522 16.6582 17.0281 16.6582C17.0389 16.6582 17.0532 16.6582 17.0639 16.6582C17.0639 16.9627 17.0639 17.2636 17.0639 17.5681Z" fill="#3B38C2"/>
<path d="M13.5532 14.0334C13.5425 14.0334 13.5282 14.0334 13.5174 14.0334C13.2093 14.0334 12.9012 14.0334 12.5859 14.0334C12.5859 13.7605 12.5859 13.4945 12.5859 13.2285C12.5967 13.2285 12.611 13.2285 12.6218 13.2285C12.9191 13.2285 13.2201 13.2285 13.5174 13.2285C13.5282 13.2285 13.5425 13.2285 13.5532 13.2285C13.5532 13.498 13.5532 13.764 13.5532 14.0334Z" fill="#3B38C2"/>
<path d="M23.3338 21.9065C23.0221 21.9065 22.714 21.9065 22.4023 21.9065C22.4023 21.637 22.4023 21.371 22.4023 21.1016C22.7105 21.1016 23.0186 21.1016 23.3338 21.1016C23.3338 21.3745 23.3338 21.6405 23.3338 21.9065Z" fill="#7774F8"/>
<path d="M22.4021 21.9082C22.4021 22.2127 22.4021 22.5136 22.4021 22.8181C22.1299 22.8181 21.8576 22.8181 21.5781 22.8181C21.5781 22.5101 21.5781 22.2092 21.5781 21.9082C21.854 21.9082 22.1263 21.9082 22.4021 21.9082Z" fill="#3835C0"/>
<path d="M19.7156 20.1931C19.4433 20.1931 19.171 20.1931 18.8916 20.1931C18.8916 19.8851 18.8916 19.5842 18.8916 19.2832C19.1675 19.2832 19.4397 19.2832 19.7156 19.2832C19.7156 19.5877 19.7156 19.8886 19.7156 20.1931Z" fill="#3835C0"/>
<path d="M19.7148 18.4785C20.0229 18.4785 20.3311 18.4785 20.6463 18.4785C20.6463 18.7515 20.6463 19.0175 20.6463 19.2834C20.3346 19.2834 20.0265 19.2834 19.7148 19.2834C19.7148 19.014 19.7148 18.748 19.7148 18.4785Z" fill="#7774F8"/>
<path d="M21.5781 20.1934C21.8504 20.1934 22.1227 20.1934 22.4021 20.1934C22.4021 20.5013 22.4021 20.8023 22.4021 21.1032C22.1263 21.1032 21.854 21.1032 21.5781 21.1032C21.5781 20.7988 21.5781 20.4978 21.5781 20.1934Z" fill="#7774F8"/>
<path d="M18.8914 19.2834C18.5833 19.2834 18.2752 19.2834 17.96 19.2834C17.96 19.0105 17.96 18.7445 17.96 18.4785C18.2716 18.4785 18.5798 18.4785 18.8914 18.4785C18.8914 18.748 18.8914 19.014 18.8914 19.2834Z" fill="#3835C0"/>
<path d="M21.578 21.9065C21.2699 21.9065 20.9618 21.9065 20.6465 21.9065C20.6465 21.6335 20.6465 21.3675 20.6465 21.1016C20.9582 21.1016 21.2663 21.1016 21.578 21.1016C21.578 21.371 21.578 21.637 21.578 21.9065Z" fill="#3835C0"/>
<path d="M18.8916 17.5684C19.1639 17.5684 19.4362 17.5684 19.7156 17.5684C19.7156 17.8763 19.7156 18.1773 19.7156 18.4782C19.4397 18.4782 19.1675 18.4782 18.8916 18.4782C18.8916 18.1738 18.8916 17.8728 18.8916 17.5684Z" fill="#7774F8"/>
<path d="M10.0417 8.99414C10.3354 8.99414 10.6328 8.99414 10.9409 8.99414C10.9087 9.13762 10.9875 9.26361 10.9732 9.40009C10.9624 9.53308 10.9696 9.66606 10.9696 9.79904C10.6579 9.79904 10.3498 9.79904 10.0381 9.79904C10.0417 9.52958 10.0417 9.26361 10.0417 8.99414Z" fill="#7875F8"/>
<path d="M15.2723 15.8535C15.2831 15.8535 15.2974 15.8535 15.3081 15.8535C15.6055 15.8535 15.9064 15.8535 16.2038 15.8535C16.2038 16.123 16.2038 16.389 16.2038 16.6584C15.91 16.6584 15.6127 16.6584 15.3189 16.6584C15.2831 16.3855 15.2616 16.1195 15.2723 15.8535Z" fill="#3835C0"/>
<path d="M17.0641 16.658C17.0534 16.658 17.0391 16.658 17.0283 16.658C17.0391 16.574 17.057 16.4935 17.0641 16.4095C17.0713 16.3186 17.0641 16.2241 17.0641 16.1296C17.0641 16.0351 17.0641 15.9441 17.0641 15.8496C17.3579 15.8496 17.6553 15.8496 17.9598 15.8496C17.9598 16.1226 17.9598 16.3885 17.9598 16.6545C17.6624 16.658 17.3615 16.658 17.0641 16.658Z" fill="#7774F8"/>
<path d="M9.21777 8.99388C9.21777 8.68941 9.21777 8.38845 9.21777 8.08398C9.47931 8.08398 9.73725 8.08398 10.006 8.08398C10.006 8.39195 10.006 8.69291 10.006 8.99388C9.74442 8.99388 9.47931 8.99388 9.21777 8.99388Z" fill="#7875F8"/>
<path d="M9.21777 8.99414C9.4793 8.99414 9.74442 8.99414 10.006 8.99414C10.0167 8.99414 10.031 8.99414 10.0418 8.99414C10.0418 9.26361 10.0418 9.52958 10.0418 9.79904C9.7695 9.79904 9.49722 9.79904 9.21777 9.79904C9.21777 9.52608 9.21777 9.26011 9.21777 8.99414Z" fill="#615EE7"/>
<path d="M12.9083 10.4987C12.9083 10.2678 12.9083 10.0403 12.9083 9.79883C13.0193 9.79883 13.1268 9.79883 13.2307 9.79883C13.2307 9.93881 13.2307 10.0788 13.2307 10.2188C13.2307 10.3098 13.2307 10.4008 13.2307 10.4987C13.3453 10.4987 13.4492 10.4987 13.5531 10.4987C13.5782 10.6982 13.5066 10.8942 13.5173 11.0937C13.2773 11.0937 13.0408 11.0937 12.8008 11.0937C12.8008 10.9992 12.8008 10.9082 12.8008 10.8137C12.833 10.8137 12.8689 10.8137 12.9083 10.8137C12.9083 10.7017 12.9083 10.6002 12.9083 10.4987Z" fill="#FEFEFD"/>
<path d="M4.77573 8.57489C4.66825 8.57489 4.56077 8.57489 4.4533 8.57489C4.34582 8.57489 4.23834 8.57489 4.13086 8.57489C4.13086 8.4804 4.13086 8.38941 4.13086 8.29492C4.54644 8.29492 4.95845 8.29492 5.38478 8.29492C5.38478 8.4979 5.38478 8.69387 5.38478 8.88985C5.28447 8.88985 5.18415 8.88985 5.06951 8.88985C5.04801 8.79186 5.07309 8.68687 5.05518 8.57489C4.96203 8.57489 4.86888 8.57489 4.77573 8.57489Z" fill="#FDEA95"/>
<path d="M8.46582 5.03906C8.53747 5.03906 8.60913 5.03906 8.68078 5.03906C8.8814 5.03906 9.07845 5.03906 9.28982 5.03906C9.28982 5.11255 9.28982 5.18255 9.28982 5.24904C9.01754 5.24904 8.74885 5.24904 8.46582 5.24904C8.46582 5.17555 8.46582 5.10555 8.46582 5.03906Z" fill="#FDEA95"/>
<path d="M5.5812 9.54348C5.73553 9.54348 5.86065 9.45417 5.86065 9.34401C5.86065 9.23384 5.73553 9.14453 5.5812 9.14453C5.42687 9.14453 5.30176 9.23384 5.30176 9.34401C5.30176 9.45417 5.42687 9.54348 5.5812 9.54348Z" fill="#FDEA95"/>
<path d="M3.98741 8.63333C4.10019 8.63333 4.19162 8.54402 4.19162 8.43385C4.19162 8.32368 4.10019 8.23438 3.98741 8.23438C3.87463 8.23438 3.7832 8.32368 3.7832 8.43385C3.7832 8.54402 3.87463 8.63333 3.98741 8.63333Z" fill="#FDD755"/>
<path d="M10.7584 12.4226C10.7298 12.4226 10.7011 12.4226 10.6581 12.4226C10.6438 12.1881 10.6545 11.9571 10.6509 11.7227C10.6796 11.7227 10.7083 11.7227 10.7512 11.7227C10.7656 11.9571 10.7548 12.1881 10.7584 12.4226Z" fill="#FDEA96"/>
<path d="M8.68078 4.12891C8.68078 4.23039 8.68078 4.33188 8.68078 4.44387C8.60554 4.44387 8.53389 4.44387 8.46582 4.44387C8.46582 4.33888 8.46582 4.23389 8.46582 4.12891C8.53747 4.12891 8.60913 4.12891 8.68078 4.12891Z" fill="#FDD755"/>
<path d="M1.71269 7.59458C1.83932 7.59458 1.94197 7.53974 1.94197 7.4721C1.94197 7.40445 1.83932 7.34961 1.71269 7.34961C1.58605 7.34961 1.4834 7.40445 1.4834 7.4721C1.4834 7.53974 1.58605 7.59458 1.71269 7.59458Z" fill="#FDD755"/>
<path d="M2.01671 7.59458C2.12949 7.59458 2.22092 7.53974 2.22092 7.4721C2.22092 7.40445 2.12949 7.34961 2.01671 7.34961C1.90393 7.34961 1.8125 7.40445 1.8125 7.4721C1.8125 7.53974 1.90393 7.59458 2.01671 7.59458Z" fill="#FDAE36"/>
<path d="M12.9083 10.498C12.9083 10.5995 12.9083 10.701 12.9083 10.813C12.8689 10.813 12.833 10.813 12.8008 10.813C12.8008 10.708 12.8008 10.603 12.8008 10.498C12.8366 10.498 12.8724 10.498 12.9083 10.498Z" fill="#FDB23B"/>
<path d="M17.1001 17.5684C17.0894 17.5788 17.0751 17.5928 17.0645 17.6032C17.0645 17.5928 17.0645 17.5788 17.0645 17.5684C17.0751 17.5684 17.0894 17.5684 17.1001 17.5684Z" fill="#3B38C2"/>
<path d="M16.2036 14.0681C16.1929 14.0576 16.1787 14.0437 16.168 14.0332C16.1787 14.0437 16.1929 14.0576 16.2036 14.0681Z" fill="#7875F8"/>
<path d="M1.55132 7.97854C1.41876 7.97854 1.28978 7.97854 1.15723 7.97854C1.15723 7.84206 1.15723 7.70558 1.15723 7.55859C1.29337 7.55859 1.42234 7.55859 1.55132 7.55859C1.55132 7.69858 1.55132 7.83856 1.55132 7.97854Z" fill="#FDD757"/>
<path d="M9.29004 14.9441C9.29004 14.8391 9.29004 14.7341 9.29004 14.6291C9.52291 14.6291 9.75578 14.6291 10.003 14.6291C10.003 14.5696 10.0066 14.5066 10.0066 14.4471C10.0066 14.3841 10.0066 14.3211 10.0066 14.2441C10.1176 14.2441 10.2215 14.2441 10.329 14.2441C10.329 14.3736 10.329 14.4996 10.329 14.6291C10.2359 14.6291 10.1427 14.6291 10.0424 14.6291C10.0424 14.7411 10.0424 14.8426 10.0424 14.9441C9.89909 14.9441 9.75578 14.9441 9.61248 14.9441C9.505 14.9441 9.39752 14.9441 9.29004 14.9441Z" fill="#FDAE36"/>
<path d="M10.3247 13.9243C10.2244 13.9243 10.1205 13.9243 10.0059 13.9243C10.0059 13.8474 10.0059 13.7739 10.0059 13.6969C10.0059 13.6444 10.0381 13.6129 10.0918 13.6129C10.1671 13.6094 10.2423 13.6129 10.3247 13.6129C10.3247 13.7214 10.3247 13.8264 10.3247 13.9243Z" fill="#FDB23B"/>
<path d="M5.77858 9.79779C5.77858 10.1338 5.77858 10.4697 5.77858 10.8127C5.88964 10.8127 5.98995 10.8127 6.10101 10.8127C6.10101 11.0121 6.10101 11.2081 6.10101 11.4076C6.21207 11.4076 6.31239 11.4076 6.42345 11.4076C6.42345 11.6071 6.42345 11.8031 6.42345 12.0025C6.52376 12.0025 6.60974 12.0025 6.70648 12.0025C6.70648 12.139 6.70648 12.272 6.70648 12.4155C6.81395 12.44 6.92143 12.412 7.03608 12.433C7.03608 12.524 7.03608 12.615 7.03608 12.7059C7.03608 12.7164 7.03608 12.7304 7.03608 12.7409C6.83187 12.7409 6.63124 12.7409 6.42703 12.7409C6.42703 12.643 6.42703 12.545 6.42703 12.433C6.32672 12.412 6.21924 12.4365 6.11176 12.419C6.11176 12.286 6.11176 12.1565 6.11176 12.0305C6.10101 12.02 6.09743 12.0165 6.09385 12.013C6.09026 12.0095 6.0831 12.006 6.07952 12.006C5.85381 12.006 5.62811 12.006 5.39524 12.006C5.39524 11.915 5.39524 11.831 5.39524 11.7331C5.33791 11.7296 5.28776 11.7226 5.2376 11.7261C5.10504 11.7331 5.06205 11.7191 5.06563 11.5651C5.0728 11.3166 5.06922 11.0646 5.06922 10.8162C5.06922 10.3717 5.06922 9.93078 5.06922 9.48633C5.1767 9.48633 5.28417 9.48633 5.39165 9.48633C5.39165 9.58782 5.39165 9.6893 5.39165 9.80129C5.52063 9.79779 5.6496 9.79779 5.77858 9.79779Z" fill="#FDEA95"/>
<path d="M10.3291 14.6291C10.3291 14.4996 10.3291 14.3736 10.3291 14.2441C10.4294 14.2441 10.5297 14.2441 10.648 14.2441C10.648 14.3036 10.6515 14.3666 10.6515 14.4296C10.6515 14.4926 10.6515 14.5556 10.6515 14.6291C10.5405 14.6291 10.433 14.6291 10.3291 14.6291Z" fill="#FDEA95"/>
<path d="M10.6515 15.854C10.5476 15.854 10.4437 15.854 10.3291 15.854C10.3291 15.742 10.3291 15.6406 10.3291 15.5391C10.4366 15.5391 10.5441 15.5391 10.6515 15.5391C10.6515 15.6441 10.6515 15.749 10.6515 15.854Z" fill="#FDEA95"/>
<path d="M11.2602 15.2583C11.1707 15.2583 11.0811 15.2583 10.9772 15.2583C10.9701 15.1568 10.9772 15.0553 10.9736 14.9434C11.0739 14.9434 11.1671 14.9434 11.2602 14.9434C11.2602 15.0483 11.2602 15.1533 11.2602 15.2583Z" fill="#FDEA95"/>
<path d="M11.2602 15.854C11.1635 15.854 11.0704 15.854 10.9736 15.854C10.9736 15.7525 10.9736 15.651 10.9736 15.5391C11.0739 15.5391 11.1671 15.5391 11.2602 15.5391C11.2602 15.6441 11.2602 15.749 11.2602 15.854Z" fill="#FDEA95"/>
<path d="M10.042 14.9439C10.042 14.8424 10.042 14.7409 10.042 14.6289C10.1423 14.6289 10.2355 14.6289 10.3286 14.6289C10.3286 14.7304 10.3286 14.8319 10.3286 14.9439C10.2283 14.9439 10.1351 14.9439 10.042 14.9439Z" fill="#FDEA95"/>
<path d="M10.6543 15.5347C10.6543 15.4472 10.6543 15.3562 10.6543 15.2617C10.7474 15.2617 10.8334 15.2617 10.9266 15.2617C10.9266 15.3492 10.9266 15.4402 10.9266 15.5347C10.837 15.5347 10.7439 15.5347 10.6543 15.5347Z" fill="#FDEA95"/>
<path d="M11.2607 15.854C11.2607 15.749 11.2607 15.6441 11.2607 15.5391C11.3646 15.5391 11.4685 15.5391 11.5832 15.5391C11.5832 15.651 11.5832 15.7525 11.5832 15.854C11.4757 15.854 11.3682 15.854 11.2607 15.854Z" fill="#FDAE36"/>
<path d="M9.29004 14.9434C9.39752 14.9434 9.505 14.9434 9.61248 14.9434C9.61248 15.0448 9.61248 15.1463 9.61248 15.2583C9.49783 15.2583 9.39394 15.2583 9.29004 15.2583C9.29004 15.1533 9.29004 15.0483 9.29004 14.9434Z" fill="#FEFEFE"/>
<path d="M3.98741 8.95576C4.10019 8.95576 4.19162 8.85548 4.19162 8.73179C4.19162 8.60809 4.10019 8.50781 3.98741 8.50781C3.87463 8.50781 3.7832 8.60809 3.7832 8.73179C3.7832 8.85548 3.87463 8.95576 3.98741 8.95576Z" fill="#FDAE36"/>
<path d="M11.2607 15.2583C11.2607 15.1533 11.2607 15.0483 11.2607 14.9434C11.3611 14.9434 11.4614 14.9434 11.5796 14.9434C11.5868 15.0448 11.5796 15.1463 11.5832 15.2583C11.4721 15.2583 11.3646 15.2583 11.2607 15.2583Z" fill="#FDAE36"/>
<path d="M7.35449 13.0176C7.44764 13.0176 7.54079 13.0176 7.6411 13.0176C7.6411 13.1296 7.6411 13.2311 7.6411 13.3325C7.6411 13.4235 7.6411 13.5145 7.6411 13.6125C7.54079 13.6125 7.44764 13.6125 7.35449 13.6125C7.35449 13.413 7.35449 13.2171 7.35449 13.0176Z" fill="#FDEA96"/>
<path d="M7.03223 12.7377C7.03223 12.7272 7.03223 12.7132 7.03223 12.7027C7.10746 12.7027 7.1827 12.6992 7.26151 12.7027C7.32242 12.7062 7.35466 12.7342 7.35466 12.7937C7.35824 12.8672 7.35466 12.9407 7.35466 13.0177C7.25077 13.0177 7.14687 13.0177 7.03223 13.0177C7.03223 12.9197 7.03223 12.8287 7.03223 12.7377Z" fill="#FDEA96"/>
<path d="M2.01671 8.06563C2.12949 8.06563 2.22092 7.93245 2.22092 7.76817C2.22092 7.60388 2.12949 7.4707 2.01671 7.4707C1.90393 7.4707 1.8125 7.60388 1.8125 7.76817C1.8125 7.93245 1.90393 8.06563 2.01671 8.06563Z" fill="#FDD755"/>
<path d="M4.13086 8.88918C4.13086 8.78419 4.13086 8.67921 4.13086 8.57422C4.23834 8.57422 4.34582 8.57422 4.4533 8.57422C4.4533 8.67571 4.4533 8.7772 4.4533 8.88918C4.33865 8.88918 4.23476 8.88918 4.13086 8.88918Z" fill="#FDD757"/>
<path d="M1.55078 9.48309C1.55078 9.3886 1.55078 9.29761 1.55078 9.20312C1.65826 9.20312 1.76574 9.20312 1.87322 9.20312C1.87322 9.29411 1.87322 9.3851 1.87322 9.48309C1.75857 9.48309 1.65468 9.48309 1.55078 9.48309Z" fill="#C49460"/>
<path d="M1.71269 9.27021C1.83932 9.27021 1.94197 9.16994 1.94197 9.04624C1.94197 8.92254 1.83932 8.82227 1.71269 8.82227C1.58605 8.82227 1.4834 8.92254 1.4834 9.04624C1.4834 9.16994 1.58605 9.27021 1.71269 9.27021Z" fill="#FDEA95"/>
<path d="M1.71269 8.36006C1.83932 8.36006 1.94197 8.25978 1.94197 8.13608C1.94197 8.01239 1.83932 7.91211 1.71269 7.91211C1.58605 7.91211 1.4834 8.01239 1.4834 8.13608C1.4834 8.25978 1.58605 8.36006 1.71269 8.36006Z" fill="#FDD755"/>
<path d="M1.71269 8.63333C1.83932 8.63333 1.94197 8.54402 1.94197 8.43385C1.94197 8.32368 1.83932 8.23438 1.71269 8.23438C1.58605 8.23438 1.4834 8.32368 1.4834 8.43385C1.4834 8.54402 1.58605 8.63333 1.71269 8.63333Z" fill="#FDEA95"/>
<path d="M12.2988 6.05343C12.2988 5.95894 12.2988 5.86796 12.2988 5.77347C12.2988 5.63348 12.2988 5.4935 12.2988 5.35352C12.3956 5.35352 12.4887 5.35352 12.5854 5.35352C12.6893 5.35352 12.7968 5.35352 12.9079 5.35352C12.9079 5.59499 12.9079 5.82246 12.9079 6.05343C12.8004 6.05343 12.6929 6.05343 12.5854 6.05343C12.4887 6.05343 12.3956 6.05343 12.2988 6.05343Z" fill="#FDD755"/>
<path d="M12.5861 5.35521C12.4894 5.35521 12.3962 5.35521 12.2995 5.35521C12.2995 5.25022 12.2995 5.14523 12.2995 5.04024C12.3926 5.04024 12.4858 5.04024 12.5861 5.04024C12.5825 4.93875 12.5897 4.84777 12.5789 4.76028C12.475 4.76028 12.3855 4.76028 12.2959 4.76028C12.2959 4.65529 12.2959 4.5503 12.2959 4.44531C12.4034 4.44531 12.5109 4.44531 12.6183 4.44531C12.6183 4.5468 12.6183 4.64829 12.6183 4.76028C12.7186 4.76028 12.8118 4.76028 12.9049 4.76028C12.9049 4.84777 12.9049 4.93526 12.9049 5.03324C12.8154 5.03324 12.7222 5.03324 12.6183 5.03324C12.6183 5.09974 12.6219 5.15923 12.6183 5.21522C12.6148 5.26072 12.5968 5.30621 12.5861 5.35521Z" fill="#FDAE36"/>
<path d="M12.9079 6.96407C12.8004 6.96407 12.6929 6.96407 12.5854 6.96407C12.5854 6.87308 12.5854 6.78209 12.5854 6.6841C12.4851 6.6841 12.392 6.6841 12.2988 6.6841C12.2988 6.58262 12.2988 6.48113 12.2988 6.36914C12.3991 6.36914 12.4923 6.36914 12.5854 6.36914C12.5962 6.36914 12.6105 6.36914 12.6213 6.36914C12.6213 6.45663 12.6213 6.54412 12.6213 6.64211C12.7108 6.64211 12.804 6.64211 12.9079 6.64211C12.9079 6.75759 12.9079 6.86258 12.9079 6.96407Z" fill="#FDB23B"/>
<path d="M12.6218 6.36965C12.611 6.36965 12.5967 6.36965 12.5859 6.36965C12.5859 6.26466 12.5859 6.15968 12.5859 6.05469C12.6934 6.05469 12.8009 6.05469 12.9084 6.05469C12.9084 6.15618 12.9084 6.25766 12.9084 6.36965C12.8081 6.36965 12.7149 6.36965 12.6218 6.36965Z" fill="#FDFBF7"/>
<path d="M13.5176 7.27981C13.5176 7.18182 13.5176 7.08383 13.5176 6.96834C13.6215 6.96134 13.7254 6.96834 13.84 6.96484C13.84 7.07333 13.84 7.17832 13.84 7.27981C13.7433 7.27981 13.6501 7.27981 13.5534 7.27981C13.5427 7.27981 13.5283 7.27981 13.5176 7.27981Z" fill="#FDD755"/>
<path d="M13.0691 7.34638C13.1958 7.34638 13.2984 7.24611 13.2984 7.12241C13.2984 6.99871 13.1958 6.89844 13.0691 6.89844C12.9425 6.89844 12.8398 6.99871 12.8398 7.12241C12.8398 7.24611 12.9425 7.34638 13.0691 7.34638Z" fill="#FDB23B"/>
<path d="M13.5171 7.2793C13.5278 7.2793 13.5422 7.2793 13.5529 7.2793C13.5529 7.37379 13.5529 7.46478 13.5529 7.55926C13.5422 7.55926 13.5278 7.55926 13.5171 7.55926C13.4203 7.55926 13.3272 7.55926 13.2305 7.55926C13.2305 7.46478 13.2305 7.37379 13.2305 7.2793C13.3272 7.2793 13.4203 7.2793 13.5171 7.2793Z" fill="#FDAE36"/>
<path d="M13.5167 11.0929C13.506 10.8934 13.5776 10.6974 13.5526 10.498C13.5526 10.4035 13.5526 10.3125 13.5526 10.218C13.5526 10.078 13.5526 9.93804 13.5526 9.79805C13.6493 9.79805 13.7424 9.79805 13.8392 9.79805C13.9466 9.79805 14.0541 9.79805 14.1652 9.80155C14.1688 9.92404 14.1688 10.05 14.1688 10.176C14.3013 10.176 14.4267 10.176 14.5557 10.176C14.5557 10.05 14.5557 9.92754 14.5557 9.80505C14.4231 9.80505 14.2942 9.80505 14.1688 9.80155C14.1616 9.69307 14.1616 9.58808 14.1616 9.48309C14.1616 9.3886 14.1616 9.29761 14.1616 9.20312C14.2942 9.20312 14.4231 9.20312 14.5557 9.20312C14.5557 9.29061 14.5557 9.3781 14.5557 9.47609C14.656 9.49709 14.7635 9.47259 14.871 9.49009C14.871 9.72806 14.871 9.96253 14.871 10.211C14.7742 10.232 14.6703 10.2075 14.5557 10.225C14.5557 10.316 14.5557 10.407 14.5557 10.498C14.4231 10.498 14.2942 10.498 14.1616 10.498C14.0935 10.414 14.1473 10.3125 14.115 10.218C14.0219 10.2215 13.9287 10.2145 13.8392 10.2215C13.8392 10.323 13.8392 10.4105 13.8392 10.498C13.8392 10.6939 13.8392 10.8864 13.8392 11.0929C13.7281 11.0929 13.6206 11.0929 13.5167 11.0929Z" fill="#FDAE36"/>
<path d="M14.3595 10.8796C14.5139 10.8796 14.639 10.7793 14.639 10.6556C14.639 10.5319 14.5139 10.4316 14.3595 10.4316C14.2052 10.4316 14.0801 10.5319 14.0801 10.6556C14.0801 10.7793 14.2052 10.8796 14.3595 10.8796Z" fill="#FDEA95"/>
<path d="M14.1621 10.8145C14.2947 10.8145 14.4236 10.8145 14.5562 10.8145C14.5562 10.9019 14.5562 10.9894 14.5562 11.0909C14.4953 11.0909 14.4308 11.0944 14.3663 11.0944C14.3018 11.0944 14.2373 11.0944 14.1621 11.0944C14.1621 10.9964 14.1621 10.9054 14.1621 10.8145Z" fill="#FDAE36"/>
<path d="M14.5557 10.813C14.5557 10.708 14.5557 10.603 14.5557 10.498C14.656 10.498 14.7563 10.498 14.8745 10.498C14.8817 10.5995 14.8745 10.701 14.8781 10.813C14.767 10.813 14.6596 10.813 14.5557 10.813Z" fill="#FDAE36"/>
<path d="M13.8398 10.4981C13.8398 10.4106 13.8398 10.3231 13.8398 10.2216C13.9294 10.2111 14.0226 10.2216 14.1157 10.2181C14.1515 10.3126 14.0942 10.4176 14.1623 10.4981C14.0548 10.4981 13.9473 10.4981 13.8398 10.4981Z" fill="#FDEA95"/>
<path d="M11.5823 5.3547C11.3709 5.3547 11.1596 5.3547 10.9446 5.3547C10.9124 5.14822 11.0019 4.95574 10.9733 4.75977C11.0664 4.75977 11.1596 4.75977 11.2563 4.75977C11.2563 4.85425 11.2563 4.94174 11.2563 5.03623C11.3638 5.03623 11.4677 5.03623 11.5823 5.03623C11.5823 5.14822 11.5823 5.25321 11.5823 5.3547Z" fill="#FDEA95"/>
<path d="M11.8693 5.04024C11.8693 4.94925 11.8693 4.85826 11.8693 4.76378C11.7726 4.76378 11.6866 4.76378 11.5898 4.76378C11.5898 4.65879 11.5898 4.5573 11.5898 4.44531C11.683 4.44531 11.7761 4.44531 11.8693 4.44531C11.8693 4.5363 11.8693 4.62729 11.8693 4.71128C11.9445 4.72878 12.0054 4.75328 12.0699 4.75678C12.1452 4.76377 12.2204 4.76028 12.2992 4.76028C12.2992 4.85476 12.2992 4.94575 12.2992 5.04024C12.1559 5.04024 12.0126 5.04024 11.8693 5.04024Z" fill="#FDAE36"/>
<path d="M12.0838 5.4206C12.252 5.4206 12.3883 5.32033 12.3883 5.19663C12.3883 5.07293 12.252 4.97266 12.0838 4.97266C11.9156 4.97266 11.7793 5.07293 11.7793 5.19663C11.7793 5.32033 11.9156 5.4206 12.0838 5.4206Z" fill="#FDEA95"/>
<path d="M12.0838 4.51045C12.252 4.51045 12.3883 4.41017 12.3883 4.28647C12.3883 4.16278 12.252 4.0625 12.0838 4.0625C11.9156 4.0625 11.7793 4.16278 11.7793 4.28647C11.7793 4.41017 11.9156 4.51045 12.0838 4.51045Z" fill="#FDB23B"/>
<path d="M10.0422 4.12958C9.89891 4.12958 9.75561 4.12958 9.6123 4.12958C9.6123 4.03509 9.6123 3.9441 9.6123 3.84961C9.74486 3.84961 9.87383 3.84961 10.0064 3.84961C10.0171 3.84961 10.0315 3.84961 10.0422 3.84961C10.0422 3.9441 10.0422 4.03509 10.0422 4.12958Z" fill="#C49460"/>
<path d="M11.8693 3.84961C11.8693 3.9441 11.8693 4.03509 11.8693 4.12958C11.7797 4.12958 11.6902 4.12958 11.5863 4.12958C11.5755 4.04209 11.5827 3.9511 11.5791 3.84961C11.683 3.84961 11.7761 3.84961 11.8693 3.84961Z" fill="#FDAE36"/>
<path d="M10.042 4.12958C10.042 4.03509 10.042 3.9441 10.042 3.84961C10.1351 3.84961 10.2283 3.84961 10.3286 3.84961C10.3286 3.9476 10.3286 4.03859 10.3286 4.12958C10.2319 4.12958 10.1387 4.12958 10.042 4.12958Z" fill="#FDAE36"/>
<path d="M13.2305 7.55859C13.3272 7.55859 13.4203 7.55859 13.5171 7.55859C13.5171 7.69508 13.5171 7.83156 13.5171 7.97854C13.4168 7.97854 13.3236 7.97854 13.2305 7.97854C13.2305 7.83856 13.2305 7.69858 13.2305 7.55859Z" fill="#FDEA95"/>
<path d="M13.5527 7.55926C13.5527 7.46478 13.5527 7.37379 13.5527 7.2793C13.6495 7.2793 13.7426 7.2793 13.8393 7.2793C13.8393 7.37029 13.8393 7.46128 13.8393 7.55926C13.739 7.55926 13.6459 7.55926 13.5527 7.55926Z" fill="#FDEA95"/>
<path d="M9.28954 4.44387C9.19639 4.44387 9.10324 4.44387 9.00293 4.44387C9.00293 4.33188 9.00293 4.23039 9.00293 4.12891C9.09966 4.12891 9.19281 4.12891 9.28954 4.12891C9.28954 4.23389 9.28954 4.33888 9.28954 4.44387Z" fill="#FDD755"/>
<path d="M9.61248 3.84961C9.61248 3.9441 9.61248 4.03509 9.61248 4.12958C9.505 4.12958 9.39752 4.12958 9.29004 4.12958C9.29004 4.03859 9.29004 3.9476 9.29004 3.84961C9.40468 3.84961 9.50858 3.84961 9.61248 3.84961Z" fill="#FDD755"/>
<path d="M14.0008 9.54348C14.1274 9.54348 14.2301 9.45417 14.2301 9.34401C14.2301 9.23384 14.1274 9.14453 14.0008 9.14453C13.8741 9.14453 13.7715 9.23384 13.7715 9.34401C13.7715 9.45417 13.8741 9.54348 14.0008 9.54348Z" fill="#FDD755"/>
<path d="M13.3914 9.54348C13.518 9.54348 13.6207 9.45417 13.6207 9.34401C13.6207 9.23384 13.518 9.14453 13.3914 9.14453C13.2648 9.14453 13.1621 9.23384 13.1621 9.34401C13.1621 9.45417 13.2648 9.54348 13.3914 9.54348Z" fill="#FDFBF7"/>
<path d="M13.6964 9.54348C13.8092 9.54348 13.9006 9.45417 13.9006 9.34401C13.9006 9.23384 13.8092 9.14453 13.6964 9.14453C13.5836 9.14453 13.4922 9.23384 13.4922 9.34401C13.4922 9.45417 13.5836 9.54348 13.6964 9.54348Z" fill="#FDEA95"/>
<path d="M12.2988 4.44387C12.2988 4.33888 12.2988 4.23389 12.2988 4.12891C12.4027 4.12891 12.5066 4.12891 12.6213 4.12891C12.6213 4.24089 12.6213 4.34238 12.6213 4.44387C12.5138 4.44387 12.4063 4.44387 12.2988 4.44387Z" fill="#FDEA95"/>
<path d="M12.9077 4.76027C12.8146 4.76027 12.7214 4.76027 12.6211 4.76027C12.6211 4.64829 12.6211 4.5468 12.6211 4.44531C12.7142 4.44531 12.8074 4.44531 12.9077 4.44531C12.9077 4.5573 12.9077 4.65879 12.9077 4.76027Z" fill="#FDEA95"/>
<path d="M5.77832 9.48438C5.87863 9.48438 5.97895 9.48438 6.09717 9.48438C6.10434 9.58586 6.09717 9.68735 6.10076 9.79934C5.9897 9.79934 5.88222 9.79934 5.77832 9.79934C5.77832 9.69435 5.77832 9.58936 5.77832 9.48438Z" fill="#FDEA96"/>
<path d="M1.15723 5.46058C1.15723 4.01525 1.15723 2.57342 1.15723 1.12109C2.64402 1.12109 4.12006 1.12109 5.59968 1.12109C5.89346 1.12109 6.19082 1.12109 6.49534 1.12109C6.49534 1.39406 6.49534 1.66003 6.49534 1.926C5.30591 1.926 4.11289 1.926 2.91271 1.926C2.91271 2.23396 2.91271 2.53493 2.91271 2.83589C2.60461 2.83589 2.2965 2.83589 1.98123 2.83589C1.98123 4.02225 1.98123 5.19461 1.98123 6.37047C1.70895 6.37047 1.43667 6.37047 1.15723 6.37047C1.15723 6.06251 1.15723 5.76155 1.15723 5.46058Z" fill="#9594F7"/>
<path d="M2.91211 2.83372C2.91211 2.53276 2.91211 2.23179 2.91211 1.92383C4.11229 1.92383 5.3053 1.92383 6.49473 1.92383C6.49473 2.45926 6.49473 2.9947 6.49473 3.53014C6.49473 3.55464 6.49473 3.57563 6.49473 3.60013C6.49473 3.73311 6.5019 3.74011 6.64879 3.74361C6.79926 3.74361 6.94615 3.74361 7.09662 3.74361C7.12528 3.74361 7.15752 3.74361 7.18618 3.74361C7.30441 3.74711 7.31874 3.75761 7.31874 3.8696C7.31874 4.37004 7.31874 4.87048 7.31874 5.36742C7.28649 5.39892 7.25783 5.43041 7.22917 5.45841C6.98197 5.45841 6.73835 5.45841 6.49473 5.45841C6.49473 5.15745 6.49473 4.85648 6.49473 4.54852C6.19021 4.54852 5.89644 4.54852 5.59908 4.54852C5.59908 3.97809 5.59908 3.41115 5.59908 2.83372C4.69626 2.83372 3.80418 2.83372 2.91211 2.83372Z" fill="#7C79F6"/>
<path d="M8.28611 8.08353C8.27536 8.08353 8.26103 8.08353 8.25028 8.08353C7.66989 8.08353 7.08593 8.08353 6.49121 8.08353C6.51271 7.93655 6.46255 7.79657 6.53062 7.65658C6.54495 7.62859 6.5342 7.58659 6.5342 7.55159C6.5342 7.15614 6.5342 6.76069 6.5342 6.36523C7.10026 6.36523 7.66273 6.36523 8.22878 6.36523C8.30044 6.42473 8.28969 6.50522 8.28969 6.58221C8.28611 7.08265 8.28611 7.58309 8.28611 8.08353Z" fill="#615EE7"/>
<path d="M6.49527 6.36888C6.19791 6.36888 5.89697 6.36888 5.59961 6.36888C5.59961 6.06791 5.59961 5.76695 5.59961 5.45898C5.90413 5.45898 6.19791 5.45898 6.49527 5.45898C6.49527 5.76345 6.49527 6.06441 6.49527 6.36888Z" fill="#615EE7"/>
<path d="M1.98145 6.36857C1.98145 5.19271 1.98145 4.02034 1.98145 2.83398C2.29672 2.83398 2.60482 2.83398 2.91293 2.83398C2.91293 3.70538 2.91293 4.57678 2.91293 5.45867C3.50406 5.45867 4.08445 5.45867 4.66841 5.45867C4.66841 5.75964 4.66841 6.0606 4.66841 6.36857C4.98369 6.36857 5.29179 6.36857 5.5999 6.36857C5.5999 6.63453 5.5999 6.9005 5.5999 7.16997C5.01235 7.16997 4.43554 7.16997 3.84799 7.16997C3.84799 6.9075 3.84799 6.64153 3.84799 6.36857C3.21745 6.36857 2.60124 6.36857 1.98145 6.36857Z" fill="#7C79F6"/>
<path d="M13.5529 9.48438C13.6496 9.48438 13.7428 9.48438 13.8395 9.48438C13.8395 9.58936 13.8395 9.69435 13.8395 9.79934C13.7428 9.79934 13.6496 9.79934 13.5529 9.79934C13.4454 9.79934 13.3379 9.79934 13.2305 9.79934C13.2305 9.69435 13.2305 9.58936 13.2305 9.48438C13.3379 9.48438 13.4454 9.48438 13.5529 9.48438Z" fill="#FDD755"/>
<path d="M13.2306 7.55859C13.2306 7.69858 13.2306 7.83856 13.2306 7.97854C13.1303 7.97854 13.0264 7.97854 12.9118 7.97854C12.9118 7.91205 12.9082 7.84556 12.9082 7.77557C12.9082 7.70558 12.9082 7.63908 12.9082 7.55859C13.0193 7.55859 13.1267 7.55859 13.2306 7.55859Z" fill="#FDD755"/>
<path d="M12.4425 7.02395C12.5553 7.02395 12.6467 6.93464 12.6467 6.82448C12.6467 6.71431 12.5553 6.625 12.4425 6.625C12.3297 6.625 12.2383 6.71431 12.2383 6.82448C12.2383 6.93464 12.3297 7.02395 12.4425 7.02395Z" fill="#FEFEFE"/>
<path d="M10.042 9.79883C10.3537 9.79883 10.6618 9.79883 10.9735 9.79883C10.9735 10.1033 10.9735 10.4043 10.9735 10.7087C10.6654 10.7087 10.3573 10.7087 10.042 10.7087C10.042 10.4008 10.042 10.0998 10.042 9.79883Z" fill="#615EE7"/>
<path d="M14.8428 15.1316C15.2069 15.1316 15.502 14.8433 15.502 14.4877C15.502 14.132 15.2069 13.8438 14.8428 13.8438C14.4787 13.8438 14.1836 14.132 14.1836 14.4877C14.1836 14.8433 14.4787 15.1316 14.8428 15.1316Z" fill="#615EE7"/>
<path d="M13.5167 13.2283C13.2194 13.2283 12.9185 13.2283 12.6211 13.2283C12.6211 12.9238 12.6211 12.6228 12.6211 12.3184C12.9185 12.3184 13.2122 12.3184 13.5167 12.3184C13.5167 12.6263 13.5167 12.9273 13.5167 13.2283Z" fill="#615EE7"/>
<path d="M13.5527 14.0334C13.5527 13.764 13.5527 13.498 13.5527 13.2285C13.8143 13.2285 14.0722 13.2285 14.3409 13.2285C14.3409 13.5015 14.3409 13.7675 14.3409 14.0334C14.0794 14.0334 13.8143 14.0334 13.5527 14.0334Z" fill="#615EE7"/>
<path d="M11.7618 11.5139C11.5003 11.5139 11.2423 11.5139 10.9736 11.5139C10.9736 11.2409 10.9736 10.975 10.9736 10.709C11.2352 10.709 11.4931 10.709 11.7618 10.709C11.7618 10.982 11.7618 11.2479 11.7618 11.5139Z" fill="#615EE7"/>
<path d="M12.586 12.3186C12.3245 12.3186 12.0594 12.3186 11.7979 12.3186C11.7979 12.0491 11.7979 11.7831 11.7979 11.5137C12.0594 11.5137 12.3173 11.5137 12.586 11.5137C12.586 11.7866 12.586 12.0526 12.586 12.3186Z" fill="#615EE7"/>
<path d="M11.8691 5.35352C12.0124 5.35352 12.1558 5.35352 12.2991 5.35352C12.2991 5.4935 12.2991 5.63348 12.2991 5.77347C12.1558 5.76997 12.0124 5.79096 11.8691 5.72097C11.8691 5.60549 11.8691 5.4795 11.8691 5.35352Z" fill="#FEFEFD"/>
<path d="M9.29004 4.12891C9.39752 4.12891 9.505 4.12891 9.61248 4.12891C9.61248 4.23039 9.61248 4.33188 9.61248 4.44387C9.49783 4.44387 9.39394 4.44387 9.29004 4.44387C9.29004 4.33888 9.29004 4.23389 9.29004 4.12891Z" fill="#C49460"/>
<path d="M15.7562 16.0418C16.1064 16.0418 16.3903 15.7535 16.3903 15.3978C16.3903 15.0422 16.1064 14.7539 15.7562 14.7539C15.406 14.7539 15.1221 15.0422 15.1221 15.3978C15.1221 15.7535 15.406 16.0418 15.7562 16.0418Z" fill="#615EE7"/>
<path d="M18.8914 17.5684C18.8914 17.8728 18.8914 18.1738 18.8914 18.4782C18.5798 18.4782 18.2716 18.4782 17.96 18.4782C17.96 18.1878 17.96 17.8938 17.96 17.6034C17.96 17.5929 17.96 17.5789 17.96 17.5684C18.2716 17.5684 18.5798 17.5684 18.8914 17.5684Z" fill="#615EE6"/>
<path d="M17.1003 17.5681C17.0895 17.5681 17.0752 17.5681 17.0645 17.5681C17.0645 17.2636 17.0645 16.9627 17.0645 16.6582C17.3618 16.6582 17.6628 16.6582 17.9601 16.6582C17.9601 16.9627 17.9601 17.2636 17.9601 17.5681C17.9494 17.5681 17.935 17.5681 17.9243 17.5681C17.6484 17.5681 17.3761 17.5681 17.1003 17.5681Z" fill="#615EE7"/>
<path d="M21.1123 21.2918C21.4764 21.2918 21.7715 21.0035 21.7715 20.6478C21.7715 20.2922 21.4764 20.0039 21.1123 20.0039C20.7483 20.0039 20.4531 20.2922 20.4531 20.6478C20.4531 21.0035 20.7483 21.2918 21.1123 21.2918Z" fill="#615EE6"/>
<path d="M20.1807 20.3816C20.5448 20.3816 20.8399 20.0933 20.8399 19.7377C20.8399 19.382 20.5448 19.0938 20.1807 19.0938C19.8166 19.0938 19.5215 19.382 19.5215 19.7377C19.5215 20.0933 19.8166 20.3816 20.1807 20.3816Z" fill="#615EE6"/>
<path d="M17.9238 17.5684C17.9345 17.5684 17.9488 17.5684 17.9595 17.5684C17.9595 17.5788 17.9595 17.5928 17.9595 17.6032C17.9488 17.5928 17.9345 17.5788 17.9238 17.5684Z" fill="#3B38C2"/>
<path d="M17.0639 15.8535C17.0639 15.948 17.0639 16.039 17.0639 16.1335C17.0639 16.228 17.0675 16.319 17.0639 16.4134C17.0603 16.4974 17.0424 16.5779 17.0281 16.6619C16.7522 16.6619 16.48 16.6619 16.2041 16.6619C16.2041 16.3925 16.2041 16.1265 16.2041 15.857C16.4907 15.8535 16.7773 15.8535 17.0639 15.8535Z" fill="#615EE6"/>
<path d="M21.9902 22.0745C22.3127 22.0745 22.5742 21.8191 22.5742 21.504C22.5742 21.189 22.3127 20.9336 21.9902 20.9336C21.6677 20.9336 21.4062 21.189 21.4062 21.504C21.4062 21.8191 21.6677 22.0745 21.9902 22.0745Z" fill="#615EE6"/>
<path d="M19.3027 19.4495C19.6252 19.4495 19.8867 19.1941 19.8867 18.879C19.8867 18.564 19.6252 18.3086 19.3027 18.3086C18.9802 18.3086 18.7188 18.564 18.7188 18.879C18.7188 19.1941 18.9802 19.4495 19.3027 19.4495Z" fill="#615EE6"/>
<path d="M13.3914 10.3059C13.518 10.3059 13.6207 10.1727 13.6207 10.0084C13.6207 9.84412 13.518 9.71094 13.3914 9.71094C13.2648 9.71094 13.1621 9.84412 13.1621 10.0084C13.1621 10.1727 13.2648 10.3059 13.3914 10.3059Z" fill="#C49460"/>
<path d="M13.2305 10.2188C13.3379 10.2188 13.4454 10.2188 13.5529 10.2188C13.5529 10.3132 13.5529 10.4042 13.5529 10.4987C13.449 10.4987 13.3451 10.4987 13.2305 10.4987C13.2305 10.4007 13.2305 10.3097 13.2305 10.2188Z" fill="#FDD755"/>
<path d="M5.77885 9.48438C5.77885 9.58936 5.77885 9.69435 5.77885 9.79934C5.64988 9.79934 5.52091 9.79934 5.38477 9.79934C5.38477 9.68735 5.38477 9.58586 5.38477 9.48438C5.51732 9.48438 5.6463 9.48438 5.77885 9.48438Z" fill="#FDFBF7"/>
<path d="M1.71269 8.06563C1.83932 8.06563 1.94197 7.93245 1.94197 7.76817C1.94197 7.60388 1.83932 7.4707 1.71269 7.4707C1.58605 7.4707 1.4834 7.60388 1.4834 7.76817C1.4834 7.93245 1.58605 8.06563 1.71269 8.06563Z" fill="#FDAE36"/>
<path d="M11.8691 4.44531C12.0124 4.44531 12.1558 4.44531 12.2991 4.44531C12.2991 4.5503 12.2991 4.65529 12.2991 4.76028C12.2238 4.76028 12.145 4.76728 12.0698 4.75678C12.0053 4.74978 11.9408 4.72878 11.8691 4.71128C11.8691 4.62729 11.8691 4.5363 11.8691 4.44531Z" fill="#FDEA95"/>
<path d="M12.2988 5.03973C12.2988 4.94524 12.2988 4.85425 12.2988 4.75977C12.3884 4.75977 12.478 4.75977 12.5819 4.75977C12.5926 4.84726 12.5854 4.93824 12.589 5.03973C12.4851 5.03973 12.392 5.03973 12.2988 5.03973Z" fill="#FDEA95"/>
<path d="M14.165 9.80273C14.2904 9.80273 14.4194 9.80273 14.552 9.80273C14.552 9.92872 14.552 10.0477 14.552 10.1737C14.4266 10.1737 14.2976 10.1737 14.165 10.1737C14.165 10.0512 14.165 9.92522 14.165 9.80273Z" fill="#FDEA95"/>
<path d="M14.0008 9.86591C14.1274 9.86591 14.2301 9.76564 14.2301 9.64194C14.2301 9.51824 14.1274 9.41797 14.0008 9.41797C13.8741 9.41797 13.7715 9.51824 13.7715 9.64194C13.7715 9.76564 13.8741 9.86591 14.0008 9.86591Z" fill="#FDEA95"/>
<path d="M4.6676 5.45867C4.08363 5.45867 3.50324 5.45867 2.91211 5.45867C2.91211 4.57678 2.91211 3.70538 2.91211 2.83398C3.80418 2.83398 4.69626 2.83398 5.59908 2.83398C5.59908 3.41142 5.59908 3.97835 5.59908 4.54878C5.28739 4.54878 4.97928 4.54878 4.66401 4.54528C4.66043 4.28281 4.66043 4.01684 4.66043 3.75088C4.38457 3.75088 4.11587 3.75088 3.84359 3.75088C3.84359 4.01684 3.84359 4.27931 3.84359 4.54178C4.11945 4.54178 4.39173 4.54178 4.66043 4.54528C4.6676 4.85325 4.6676 5.15421 4.6676 5.45867Z" fill="#9695F7"/>
<path d="M4.66797 4.54883C4.97966 4.54883 5.28776 4.54883 5.59945 4.54883C5.89681 4.54883 6.19058 4.54883 6.49511 4.54883C6.49511 4.85679 6.49511 5.15776 6.49511 5.45872C6.19775 5.45872 5.90397 5.45872 5.59945 5.45872C5.59945 5.76668 5.59945 6.06765 5.59945 6.36861C5.29135 6.36861 4.98324 6.36861 4.66797 6.36861C4.66797 6.06065 4.66797 5.75969 4.66797 5.45872C4.66797 5.15426 4.66797 4.85329 4.66797 4.54883Z" fill="#C5C5FE"/>
<path d="M4.66449 4.54481C4.3958 4.54481 4.12352 4.54481 3.84766 4.54481C3.84766 4.27884 3.84766 4.01987 3.84766 3.75391C4.11635 3.75391 4.38863 3.75391 4.66449 3.75391C4.66449 4.01638 4.66449 4.28234 4.66449 4.54481Z" fill="#C5C5FE"/>
</svg>
