<svg width="24" height="24" viewBox="0 0 24 24" fill="none" xmlns="http://www.w3.org/2000/svg">
<path d="M11.9999 23.5188C9.72142 23.5189 7.49406 22.8433 5.59953 21.5775C3.705 20.3116 2.22838 18.5124 1.35643 16.4074C0.484473 14.3023 0.256337 11.986 0.700874 9.75126C1.14541 7.51654 2.24265 5.46384 3.85384 3.85273C6.01431 1.69226 8.94454 0.478516 11.9999 0.478516C15.0553 0.478516 17.9855 1.69226 20.146 3.85273C22.3065 6.01321 23.5202 8.94344 23.5202 11.9988C23.5202 15.0542 22.3065 17.9844 20.146 20.1449C19.0786 21.2179 17.8091 22.0685 16.4109 22.6477C15.0126 23.2268 13.5134 23.5229 11.9999 23.5188" fill="black"/>
<mask id="mask0_2281_2168" style="mask-type:alpha" maskUnits="userSpaceOnUse" x="0" y="0" width="24" height="24">
<path d="M12 0.96C14.547 0.961536 17.0152 1.84348 18.9864 3.45644C20.9577 5.06939 22.3107 7.31417 22.8164 9.81049C23.3221 12.3068 22.9493 14.9012 21.7611 17.1541C20.573 19.4071 18.6426 21.18 16.297 22.1726C13.6038 23.2861 10.5796 23.2898 7.88372 22.1829C5.18782 21.076 3.03876 18.9483 1.90498 16.2636C0.77121 13.5789 0.744654 10.5549 1.8311 7.8507C2.91755 5.1465 5.02892 2.98141 7.70496 1.82736C9.06372 1.25228 10.5246 0.957273 12 0.96M12 0C5.37264 0 0 5.37264 0 12C0 18.6274 5.37264 24 12 24C18.6274 24 24 18.6274 24 12C24 5.37264 18.6274 0 12 0Z" fill="#FBB400"/>
</mask>
<g mask="url(#mask0_2281_2168)">
<path d="M12.0001 -12.0001L-12 12L12.0001 36.0001L36.0002 12L12.0001 -12.0001Z" fill="url(#paint0_linear_2281_2168)"/>
</g>
<path d="M10.4675 15.2141L9.02847 17.9525L8.95215 18.0974H12.0006L10.4766 15.1973L10.4675 15.2141Z" fill="white"/>
<path d="M7.48564 13.5839L7.42804 13.4062L7.3546 13.6319L6.25684 17.0111C6.46544 17.3434 6.75508 17.6173 7.09856 17.8071C7.44204 17.9968 7.82811 18.0962 8.22052 18.0959H8.95204L8.91748 17.9888L7.48564 13.5839Z" fill="white"/>
<path d="M13.5331 15.2141L13.524 15.1973L12 18.0974H15.0485L14.9722 17.9525L13.5331 15.2141Z" fill="white"/>
<path d="M16.5728 13.4043L16.5152 13.5819L15.0834 17.9897L15.0488 18.0968H15.7803C16.173 18.0969 16.5592 17.9971 16.9027 17.807C17.2462 17.6168 17.5357 17.3424 17.744 17.0096L16.6463 13.6318L16.5728 13.4043Z" fill="white"/>
<path d="M10.4675 8.78766L10.4766 8.80446L12.0006 5.9043H8.95215L9.02847 6.04926L10.4675 8.78766Z" fill="white"/>
<path d="M13.5331 8.78766L14.9722 6.04926L15.0485 5.9043H12L13.524 8.80446L13.5331 8.78766Z" fill="white"/>
<path d="M7.42804 10.5968L7.48564 10.4192L8.91748 6.01134L8.95204 5.9043H8.22052C7.82788 5.9042 7.44167 6.00393 7.09817 6.19412C6.75467 6.3843 6.46516 6.65868 6.25684 6.9915L7.3546 10.3693L7.42804 10.5968Z" fill="white"/>
<path d="M16.5152 10.4163L16.5728 10.5939L16.6463 10.3678L17.744 6.98862C17.5354 6.65634 17.2457 6.38252 16.9022 6.19286C16.5587 6.00319 16.1727 5.9039 15.7803 5.9043H15.0488L15.0834 6.01134L16.5152 10.4163Z" fill="white"/>
<defs>
<linearGradient id="paint0_linear_2281_2168" x1="3.47512" y1="20.397" x2="20.4457" y2="3.42647" gradientUnits="userSpaceOnUse">
<stop stop-color="#FFCF00"/>
<stop offset="1" stop-color="#FF6A00"/>
</linearGradient>
</defs>
</svg>
