<svg width="24" height="24" viewBox="0 0 24 24" fill="none" xmlns="http://www.w3.org/2000/svg">
<circle cx="12" cy="12" r="12" fill="url(#paint0_linear_2281_2217)"/>
<rect x="18.4014" y="6.66602" width="1.83486" height="1.55303" transform="rotate(15 18.4014 6.66602)" fill="#B7E2F5"/>
<rect x="4.40137" y="14.666" width="1.59305" height="1.55303" transform="rotate(15 4.40137 14.666)" fill="#B7E2F5"/>
<circle cx="12.0003" cy="3.99935" r="1.33333" fill="#FEE4C1"/>
<path d="M6.03277 8.40419L3.78278 8.33295L4.82209 6.50636L6.03277 8.40419Z" fill="#EA9E86"/>
<path d="M17.9397 15.0508L20.1892 15.1362L19.1384 16.9562L17.9397 15.0508Z" fill="#EA9E86"/>
<circle cx="12.0003" cy="19.3333" r="1.33333" fill="#FEE4C1"/>
<path fill-rule="evenodd" clip-rule="evenodd" d="M10.3333 5.0013H13.3333L15 3.66797H15.6667L16.3333 4.33464L17.3333 4.66797V7.0013L18.6667 9.33464L20 10.0013L21 10.668L20.6667 11.668L21 12.668L18.6667 14.0013L17 16.3346L17.6667 18.0013L17 18.668L15.3333 19.668L12.6667 18.3346H10.3333L8.66667 19.668L7.33333 19.0013L6.33333 18.3346L6.66667 16.3346L5.33333 13.668L3 12.668L3.33333 11.668L3 10.3346L5.33333 9.33464L6.66667 7.0013L6.33333 4.66797L7.66667 4.0013L8.66667 3.66797L10.3333 5.0013ZM8.66667 8.33464L8 5.0013L10.3333 7.0013V7.66797L9.66667 8.66797L8.66667 8.33464ZM7.45151 12.69L4 11.3555L6.89738 10.7247L7.53068 11.0903L8.19564 12.1324L7.45151 12.69ZM19.8164 11.5859L16.2463 12.5596L15.5632 11.9286L16.3315 10.9602L16.999 10.6615L19.8164 11.5859ZM8.66667 14.7513L8 18.0846L10.3333 16.0846V15.418L9.66667 14.418L8.66667 14.7513ZM15.8014 5.42839L14.8851 8.70191L13.8628 8.95882L13.2735 7.91137L13.3238 7.2466L15.8014 5.42839ZM15.0046 14.4197L15.6602 17.7552L13.3335 15.7474L13.3358 15.0808L14.0058 14.083L15.0046 14.4197Z" fill="#FEE4C1"/>
<ellipse cx="12" cy="11.5" rx="4" ry="3.5" fill="#F7A126"/>
<path fill-rule="evenodd" clip-rule="evenodd" d="M11.4076 2.7828C10.816 3.03244 10.5054 3.76528 10.7283 4.3857C10.8982 4.85835 10.8078 4.86388 10.2603 4.41416C9.08351 3.44734 8.92499 3.35017 8.52347 3.35017C8.15761 3.35017 7.57338 3.72832 7.57338 3.96506C7.57338 4.00622 7.37876 4.0653 7.14083 4.09623C6.21101 4.21725 6.01363 4.68182 6.30622 6.06119C6.56713 7.29127 6.28817 8.18158 5.86596 7.46605C5.77645 7.3142 5.50233 6.85251 5.25681 6.43996L4.81043 5.68991L3.9753 7.09049C3.51593 7.8607 3.14016 8.50474 3.14016 8.52155C3.14016 8.53835 3.68165 8.58493 4.34336 8.62509L5.54656 8.69799L5.34917 9.02268C5.18356 9.29484 5.00243 9.39458 4.22968 9.63868C2.85411 10.0732 2.37184 10.7096 2.8823 11.4166C3.03102 11.6226 3.03102 11.6658 2.8823 11.8718C2.36994 12.5813 2.77189 13.1653 4.0895 13.6258C5.52291 14.1268 6.05564 14.803 4.73665 14.4473C4.38083 14.3513 4.06364 14.2981 4.03187 14.3289C3.87396 14.4821 3.38315 16.4745 3.49482 16.5092C3.561 16.5298 3.99514 16.6434 4.45957 16.7617C4.92401 16.88 5.38506 17.0005 5.48407 17.0295C5.62794 17.0716 5.69845 16.9625 5.8344 16.4879C6.10483 15.5432 6.0853 15.567 6.3039 15.9156C6.4996 16.2278 6.49926 16.2514 6.28775 17.2695C5.99547 18.6766 6.25629 19.22 7.22506 19.2221C7.44271 19.2226 7.56811 19.3038 7.70098 19.5302C8.12184 20.2477 8.77499 20.1662 9.84276 19.2627C10.6352 18.5924 10.9491 18.4329 10.7436 18.8051C10.0678 20.0302 11.8906 21.3 12.9081 20.3129C13.3331 19.9006 13.4479 19.5191 13.3044 18.9972C13.1584 18.4666 13.259 18.4982 14.1708 19.2697C15.2399 20.1742 15.9925 20.246 16.3531 19.4783C16.4459 19.2805 16.5529 19.2215 16.8181 19.2215C17.717 19.2215 18.003 18.5764 17.7018 17.2278C17.4919 16.2878 17.4907 16.24 17.6707 15.9445C17.9302 15.5182 17.9345 15.5214 18.5564 16.6104C18.8619 17.1454 19.14 17.5825 19.1744 17.5817C19.2296 17.5804 20.7653 15.0475 20.8554 14.8091C20.8748 14.7579 20.5898 14.7157 20.2221 14.7152C19.8545 14.7147 19.3099 14.6859 19.0119 14.6511L18.4703 14.588L18.6425 14.297C18.7787 14.0669 19.0133 13.9385 19.7647 13.6831C21.1574 13.2096 21.6375 12.5733 21.1309 11.8718C20.9822 11.6658 20.9822 11.6226 21.1309 11.4166C21.6342 10.7197 21.2 10.1324 19.8337 9.66183C19.0302 9.38517 18.8079 9.26196 18.6358 8.99841C18.3939 8.62773 18.403 8.62498 19.1842 8.82834C19.5035 8.91145 19.8173 8.98008 19.8817 8.9807C20.0006 8.98193 20.6131 6.95489 20.5208 6.86529C20.4151 6.7628 18.5294 6.30571 18.4044 6.35232C18.3322 6.37912 18.2088 6.66143 18.13 6.97959C17.8334 8.17916 17.3817 7.4972 17.6474 6.25073C17.9767 4.7063 17.6287 3.92051 16.6925 4.09407C16.518 4.12643 16.4263 4.08445 16.3831 3.95256C16.2865 3.65695 15.8093 3.35017 15.4463 3.35017C15.0864 3.35017 14.7734 3.53991 13.8605 4.31187C13.2449 4.83235 13.046 4.86829 13.2561 4.42092C13.7464 3.3769 12.538 2.30584 11.4076 2.7828ZM12.5919 3.39676C13.1155 3.90464 12.7445 4.78371 12.0066 4.78371C11.5727 4.78371 11.1622 4.38549 11.1622 3.96454C11.1622 3.5436 11.5727 3.14538 12.0066 3.14538C12.2122 3.14538 12.4286 3.23825 12.5919 3.39676ZM9.60032 4.5269L10.3705 5.19165L11.9886 5.19247L13.6066 5.19329L14.3932 4.52772C15.2291 3.82047 15.5371 3.72166 15.8524 4.05957C16.0806 4.30419 15.9992 4.59991 15.6253 4.88528C14.7322 5.56672 14.4293 5.91446 14.5455 6.12498C14.6562 6.32566 14.6758 6.32016 15.1277 5.96095C15.3849 5.75647 15.5954 5.62683 15.5955 5.67281C15.5962 6.34106 15.1091 7.98398 14.875 8.10296C14.186 8.45313 13.3173 7.38395 13.9593 6.97579C14.2472 6.79282 14.2906 6.63072 14.101 6.44681C13.9069 6.25851 13.1677 6.87431 13.1677 7.2242V7.4972H11.9538H10.74L10.733 7.19001C10.7271 6.92838 10.5373 6.72329 9.45453 5.80766C8.07805 4.64373 7.90449 4.42338 8.09395 4.07984C8.32176 3.66709 8.75221 3.79488 9.60032 4.5269ZM7.4672 4.681C7.59578 4.74766 7.70583 4.98717 7.78502 5.37218C8.03105 6.56846 8.09545 6.72922 8.32852 6.72922C8.53359 6.72922 8.54289 6.69152 8.47248 6.14516L8.39721 5.56099L8.85608 5.95552C10.5476 7.40984 10.6163 7.54808 9.84996 7.95418C9.24819 8.27303 8.90252 8.15938 8.79578 7.60766C8.72645 7.2494 8.59661 7.16654 8.34614 7.32108C8.12087 7.46 8.38306 8.31931 8.69244 8.45603L8.95613 8.57265L8.68012 8.92366C8.40587 9.27242 8.40546 9.2755 8.62203 9.38792C8.87728 9.5204 8.88975 9.59363 8.69972 9.84562C8.58216 10.0017 8.52134 10.012 8.32449 9.90984C8.10717 9.79699 8.07697 9.81868 7.92278 10.1995C7.7584 10.6056 7.75209 10.6093 7.46582 10.4656C7.1956 10.3302 7.05553 10.3589 5.45188 10.8796C3.63964 11.4681 3.39444 11.4883 3.28319 11.0584C3.17415 10.6369 3.35718 10.4896 4.46348 10.1083L5.50328 9.74987L6.27593 8.4552L7.04847 7.16053L6.83769 6.10522C6.57012 4.7662 6.76813 4.31811 7.4672 4.681ZM17.2196 4.8093C17.3527 5.01195 17.3456 5.16697 17.1607 6.09478L16.9503 7.14984L17.5021 8.09148C18.525 9.83693 18.4392 9.74874 19.4164 10.0587C20.7829 10.4919 21.089 10.8183 20.5626 11.2804C20.3662 11.4528 20.3153 11.4466 19.342 11.132C18.7834 10.9515 18.3116 10.8201 18.2935 10.84C18.1021 11.05 18.1479 11.3195 18.3846 11.3772C19.3318 11.6077 19.3158 11.6425 18.0759 12.0519C16.604 12.538 16.3343 12.4741 16.3343 11.6394C16.3343 11.0135 16.6092 10.8178 17.2288 11.0023C17.5529 11.0988 17.601 11.0883 17.6597 10.9091C17.7805 10.54 17.0135 10.2491 16.5301 10.4807C16.2552 10.6123 16.2472 10.6059 16.0249 10.0798C15.9007 9.78572 15.6371 9.33776 15.4394 9.08432L15.0798 8.62353L15.3349 8.41873C15.5485 8.24724 15.6505 7.93904 15.9615 6.52442C16.3373 4.81484 16.4486 4.57892 16.8798 4.57892C16.9834 4.57892 17.1364 4.68264 17.2196 4.8093ZM5.24119 7.39326C5.68272 8.15221 5.67723 8.16275 4.84664 8.16275C3.92959 8.16275 3.93329 8.16891 4.38864 7.39633C4.82858 6.65006 4.80885 6.65006 5.24119 7.39326ZM19.4631 7.05076C19.9358 7.16625 19.9403 7.17136 19.8724 7.52248C19.701 8.40851 19.6394 8.45172 18.8675 8.22482C18.3569 8.07471 18.3583 8.07891 18.5618 7.318C18.6752 6.8943 18.7416 6.87453 19.4631 7.05076ZM10.5315 9.19029C10.75 9.48795 10.754 9.80108 10.5393 9.80108C10.3713 9.80108 9.97693 9.19079 10.0407 9.02952C10.1316 8.79998 10.2809 8.84891 10.5315 9.19029ZM12.6157 9.59414L13.0124 10.2576L13.7679 10.428C14.9606 10.6968 14.9617 10.6995 14.209 11.5059L13.667 12.0866L13.7341 12.9344C13.8173 13.9843 13.7877 14.0048 12.7983 13.583L12.0178 13.2503L11.2671 13.5759C10.3122 13.9901 10.2731 13.9632 10.3539 12.9465L10.419 12.1279L9.89334 11.5394C9.17598 10.736 9.19417 10.6738 10.2088 10.4611L11.0499 10.2849L11.4838 9.57621C12.0065 8.72277 12.0954 8.72411 12.6157 9.59414ZM13.9929 9.01058C14.1274 9.16787 13.759 9.80108 13.533 9.80108C13.2732 9.80108 13.256 9.59631 13.4855 9.23606C13.7321 8.84913 13.821 8.80958 13.9929 9.01058ZM7.46783 11.0587C8.02399 11.4968 7.47321 12.5617 6.80707 12.3364C6.59745 12.2654 6.46685 12.2671 6.39024 12.3414C6.055 12.6666 6.9654 13.0738 7.46616 12.8226C7.74985 12.6802 7.75123 12.6814 7.99338 13.2481C8.12692 13.5606 8.39109 14.0131 8.58048 14.2538L8.92466 14.6913L8.66373 14.8829C8.43932 15.0477 8.35215 15.309 8.0393 16.7555C7.65424 18.5351 7.58002 18.7095 7.20744 18.7095C6.6555 18.7095 6.5836 18.4272 6.83231 17.2356L7.05788 16.1542L6.27308 14.8505L5.48819 13.5469L4.41946 13.2013C3.52015 12.9105 3.34071 12.8166 3.28688 12.6086C3.10786 11.9166 3.50284 11.793 4.6653 12.1773C5.55289 12.4706 5.61253 12.4779 5.74141 12.307C5.92507 12.0632 5.86638 12.0018 5.30368 11.8489C4.70709 11.6869 4.72778 11.6672 5.91831 11.2683C6.99262 10.9082 7.23517 10.8754 7.46783 11.0587ZM20.7465 12.3814C20.7904 12.7318 20.576 12.8748 19.4614 13.2384L18.4981 13.5526L17.7247 14.8481L16.9512 16.1437L17.1611 17.1962C17.4038 18.4135 17.3176 18.7511 16.7796 18.69C16.4291 18.6503 16.2869 18.3835 16.067 17.3527C15.9094 16.6143 15.879 16.5592 15.6295 16.5592C15.3931 16.5592 15.3696 16.5908 15.4307 16.8272C15.4689 16.9745 15.5299 17.2394 15.5662 17.4159L15.6323 17.7367L14.9727 17.1735C14.6097 16.8638 14.1736 16.4952 14.0033 16.3544C13.567 15.9939 13.6013 15.6978 14.1156 15.383C14.6847 15.0344 15.17 15.1466 15.1748 15.6279C15.1776 15.9135 15.3455 16.073 15.5703 16.0038C15.8662 15.9127 15.7016 15.1574 15.3268 14.8864L15.0667 14.6984L15.3211 14.383L15.5754 14.0677L15.3602 13.8987C15.0598 13.6626 15.2711 13.2166 15.6021 13.3884C15.8744 13.5297 15.9761 13.4587 16.124 13.0242C16.2439 12.6714 16.2497 12.6686 16.5276 12.8231C16.7943 12.9714 16.9017 12.95 18.5509 12.419C20.44 11.8108 20.6744 11.8068 20.7465 12.3814ZM9.79001 12.353C9.79001 12.5631 9.15045 12.8422 8.94769 12.7206C8.75113 12.6028 8.83621 12.4019 9.13029 12.2892C9.58841 12.1137 9.79001 12.1331 9.79001 12.353ZM14.9127 12.3045C15.3044 12.4632 15.3834 12.6357 15.1108 12.7371C14.9283 12.8051 14.2232 12.5211 14.2232 12.3797C14.2232 12.1272 14.4218 12.1056 14.9127 12.3045ZM12.2177 14.3406C12.2177 14.832 12.1632 14.9334 11.9435 14.8516C11.792 14.7952 11.7308 14.0961 11.8659 13.9652C12.0715 13.7657 12.2177 13.9218 12.2177 14.3406ZM5.09574 15.0797L5.65886 15.2385L5.49674 15.7708C5.27793 16.489 5.31634 16.4643 4.69474 16.2865C4.00359 16.0887 4.04865 16.1616 4.20308 15.492C4.35096 14.8509 4.32584 14.8626 5.09574 15.0797ZM9.79422 15.3325C10.316 15.5907 10.3756 16.0232 9.93956 16.387C9.67535 16.6074 9.67293 16.6198 9.86303 16.7866C10.153 17.0412 10.74 16.5927 10.7399 16.1166V15.7912H11.9536H13.1675L13.1676 16.0575C13.1677 16.2684 13.4247 16.5446 14.4059 17.3886C16.2441 18.9696 16.2143 18.9283 15.8065 19.3239C15.4839 19.6368 15.3462 19.5852 14.4416 18.8119L13.6031 18.0951H12.0023H10.4015L9.56433 18.8119C8.66015 19.5861 8.52833 19.6359 8.2067 19.3239C7.82429 18.9529 7.87178 18.8691 9.03214 17.8692C9.52221 17.447 9.57698 17.3615 9.47588 17.1781C9.32662 16.9075 9.33506 16.9054 8.84032 17.339C8.34644 17.7718 8.3548 17.809 8.64085 16.4483C8.92499 15.0969 9.05797 14.9682 9.79422 15.3325ZM19.9076 15.2867C19.9565 15.3271 19.2573 16.5596 19.1862 16.558C19.1089 16.5562 18.4453 15.3689 18.4453 15.2324C18.4453 15.1338 19.782 15.1834 19.9076 15.2867ZM12.5425 18.804C12.9067 19.1574 12.9354 19.4994 12.6322 19.8732C12.1742 20.438 11.1622 20.081 11.1622 19.3545C11.1622 18.5776 11.9749 18.2534 12.5425 18.804Z" fill="#000101"/>
<defs>
<linearGradient id="paint0_linear_2281_2217" x1="12" y1="0" x2="12" y2="24" gradientUnits="userSpaceOnUse">
<stop stop-color="#F34520"/>
<stop offset="1" stop-color="#C80C10"/>
</linearGradient>
</defs>
</svg>
