<svg width="24" height="24" viewBox="0 0 24 24" fill="none" xmlns="http://www.w3.org/2000/svg">
<g clip-path="url(#clip0_2372_2116)">
<path d="M12 24C18.6274 24 24 18.6274 24 12C24 5.37258 18.6274 0 12 0C5.37258 0 0 5.37258 0 12C0 18.6274 5.37258 24 12 24Z" fill="#F2F5FF"/>
<path d="M8.33414 11.3418L8.23014 11.5013C7.05719 13.3006 7.31914 15.6571 8.85994 17.1668C9.76639 18.0549 10.9544 18.4991 12.1424 18.4992C12.1424 18.4992 12.1424 18.4992 8.33414 11.3418Z" fill="#00A3FF"/>
<path opacity="0.6" d="M12.1413 13.5171L8.33301 11.3418C12.1413 18.4992 12.1413 18.4992 12.1413 18.4992C12.1413 16.9403 12.1413 15.1541 12.1413 13.5171Z" fill="#00A3FF"/>
<path opacity="0.6" d="M15.9548 11.3418L16.0588 11.5013C17.2317 13.3006 16.9697 15.6571 15.4289 17.1668C14.5225 18.0549 13.3345 18.4991 12.1465 18.4992C12.1465 18.4992 12.1465 18.4992 15.9548 11.3418Z" fill="#00A3FF"/>
<path opacity="0.2" d="M12.1465 13.5171L15.9548 11.3418C12.1465 18.4992 12.1465 18.4992 12.1465 18.4992C12.1465 16.9403 12.1465 15.1541 12.1465 13.5171Z" fill="#00A3FF"/>
<path opacity="0.2" d="M12.1475 8.6582V12.4101L15.4279 10.5354L12.1475 8.6582Z" fill="#00A3FF"/>
<path opacity="0.6" d="M12.1461 8.6582L8.86328 10.5353L12.1461 12.4101V8.6582Z" fill="#00A3FF"/>
<path d="M12.1461 5.50391L8.86328 10.5375L12.1461 8.65511V5.50391Z" fill="#00A3FF"/>
<path opacity="0.6" d="M12.1475 8.65365L15.4304 10.5361L12.1475 5.5V8.65365Z" fill="#00A3FF"/>
</g>
<defs>
<clipPath id="clip0_2372_2116">
<rect width="24" height="24" fill="white"/>
</clipPath>
</defs>
</svg>
