<svg width="24" height="24" viewBox="0 0 24 24" fill="none" xmlns="http://www.w3.org/2000/svg">
<g clip-path="url(#clip0_1614_808)">
<circle cx="12" cy="12" r="12" fill="white"/>
<mask id="mask0_1614_808" style="mask-type:alpha" maskUnits="userSpaceOnUse" x="0" y="0" width="24" height="24">
<circle cx="12" cy="12" r="12" fill="white"/>
</mask>
<g mask="url(#mask0_1614_808)">
<path d="M14.3814 0.955016L15.0203 2.45092C16.2739 5.38802 18.6134 7.72752 21.5505 8.98118L23.0464 9.62002C23.4382 9.78711 23.7558 10.0262 24.0014 10.3114C23.2567 4.96954 19.0319 0.744711 13.69 0C13.9745 0.244876 14.2143 0.563215 14.3814 0.955016ZM0.955016 9.62002L2.45092 8.98118C5.38817 7.72748 7.72788 5.38803 8.9819 2.45092L9.62002 0.955016C9.77409 0.587805 10.0107 0.261018 10.3114 0C4.96954 0.744711 0.744711 4.96954 0 10.3114C0.244876 10.0262 0.563214 9.78711 0.955016 9.62002ZM23.0471 14.3793L21.5505 15.0181C18.6133 16.2719 16.2738 18.6117 15.0203 21.5491L14.3814 23.0443C14.2275 23.4117 13.9909 23.7388 13.69 24C19.0319 23.2546 23.2567 19.0297 24.0014 13.6878C23.7566 13.9731 23.4382 14.2122 23.0464 14.3793H23.0471ZM9.62002 23.045L8.9819 21.5491C7.72797 18.6117 5.38826 16.272 2.45092 15.0181L0.955016 14.3793C0.587639 14.2255 0.260789 13.9888 0 13.6878C0.744711 19.0297 4.96954 23.2553 10.3114 24C10.0109 23.7388 9.77432 23.4121 9.62002 23.045Z" fill="#999999"/>
<path d="M6.55585 10.8273L7.29264 10.5125C8.74015 9.89478 9.89323 8.74196 10.5113 7.29459L10.8253 6.5578C11.2661 5.525 12.7303 5.525 13.1711 6.5578L13.4851 7.29459C14.1032 8.74196 15.2563 9.89478 16.7038 10.5125L17.4413 10.8273C18.4734 11.2681 18.4734 12.7316 17.4413 13.1723L16.7038 13.4871C15.2561 14.1049 14.1029 15.258 13.4851 16.7057L13.1711 17.4425C12.7303 18.4746 11.2661 18.4746 10.8253 17.4425L10.5113 16.7057C9.89351 15.258 8.74037 14.1049 7.29264 13.4871L6.55585 13.1723C5.52305 12.7316 5.52305 11.2681 6.55585 10.8273Z" fill="black"/>
</g>
</g>
<defs>
<clipPath id="clip0_1614_808">
<rect width="24" height="24" fill="white"/>
</clipPath>
</defs>
</svg>
