<svg width="24" height="24" viewBox="0 0 24 24" fill="none" xmlns="http://www.w3.org/2000/svg">
<path d="M5.91728 3.99174C5.91728 4.02479 5.91177 4.05234 5.90626 4.0854C6.58394 4.02479 7.26163 3.96419 7.9338 3.89807C11.9999 3.47934 16.0715 3.0551 20.1377 2.63085C21.0357 2.53719 21.8016 2.85675 22.2093 3.6281C22.5454 4.26171 22.8264 5.01653 22.8374 5.71625C22.8925 9.90909 22.8649 14.1019 22.8649 18.2948C22.8649 18.6033 22.8704 18.9118 22.8594 19.2149C22.7768 20.9559 21.6528 21.9917 19.9228 21.9587C15.4104 21.876 10.898 21.8099 6.39111 21.7383C6.20378 21.7383 6.01094 21.7383 5.82361 21.7383C10.6335 22.3003 15.4434 22.7961 20.2589 23.2645C21.2341 23.3581 22.0826 22.9835 22.7437 22.2617C23.5757 21.3471 23.9999 20.2617 23.9999 19.022C23.9999 14.5427 23.9999 10.0689 23.9999 5.58953C23.9999 4.427 23.6198 3.39118 22.898 2.4876C22.1487 1.55096 21.1569 1.14325 19.9724 1.35813C15.2837 2.22314 10.6005 3.11019 5.91728 3.99174ZM18.6556 21.2755C18.6556 21.2755 18.6556 21.2424 18.6611 21.2259C17.4104 21.0992 16.1597 20.9725 14.909 20.8402C13.6198 20.708 12.325 20.5758 11.0357 20.4435C8.56191 20.1901 6.08808 19.9697 3.61976 19.6667C2.19276 19.4904 1.16246 18.2672 1.15695 16.8457C1.14042 13.4187 1.13491 9.99724 1.15695 6.57025C1.16797 5.19284 2.18174 4.04683 3.52609 3.79339C5.16797 3.48485 6.80984 3.17631 8.45171 2.86777C11.7906 2.24518 15.1239 1.62259 18.4627 1C17.8456 1 17.2341 1.04959 16.6225 1.11019C12.4407 1.53444 8.26438 1.98072 4.08257 2.3719C1.73546 2.5978 0.0550178 4.23967 0.0329792 6.58127C-0.00558827 10.0248 -0.0110979 13.4738 0.0329792 16.9229C0.0605274 19.1873 1.8181 21.0165 3.93381 21.0551C8.8429 21.1433 13.752 21.2039 18.6556 21.2755ZM17.9338 12.1074C17.5757 11.865 17.3498 11.6942 17.1074 11.5565C16.0605 10.9504 15.0082 10.3609 13.9614 9.75482C12.1542 8.70799 10.3525 7.65014 8.53987 6.60882C7.68036 6.11295 7.51507 6.20661 7.50956 7.1708C7.49854 8.84022 7.50956 10.5096 7.50405 12.1791C7.50405 12.6804 7.50405 13.1873 7.50405 13.6887C7.53711 13.6887 7.56466 13.6887 7.59772 13.6887C7.93931 11.9807 8.2754 10.2727 8.63904 8.44353C10.8704 9.67218 13.0027 10.8512 15.2561 12.0964C13.201 13.2479 11.2726 14.3333 9.21755 15.4848V11.595C9.02471 11.9862 8.92003 12.3829 8.80984 12.7851C8.40763 14.2672 7.99992 15.7438 7.61425 17.2314C7.56466 17.4187 7.63628 17.6391 7.65281 17.843C7.86218 17.8154 8.07155 17.7989 8.2754 17.7603C8.35805 17.7438 8.42967 17.6777 8.50681 17.6336C11.4269 15.9587 14.347 14.2893 17.2616 12.6143C17.46 12.4986 17.6363 12.3388 17.9393 12.1129L17.9338 12.1074Z" fill="#E22829"/>
<path d="M5.91691 3.99245C10.6001 3.11091 15.2833 2.22386 19.972 1.35885C21.1511 1.14397 22.1483 1.55168 22.8976 2.48832C23.6194 3.3919 23.9996 4.42772 23.9996 5.59025C23.9996 10.0696 23.9996 14.5434 23.9996 19.0228C23.9996 20.2569 23.5753 21.3478 22.7434 22.2624C22.0822 22.9842 21.2337 23.3588 20.2585 23.2652C15.4431 22.7969 10.6332 22.301 5.82324 21.739C6.01057 21.739 6.20341 21.739 6.39074 21.739C10.9031 21.8106 15.4155 21.8768 19.9224 21.9594C21.6524 21.9925 22.7819 20.9566 22.8591 19.2156C22.8756 18.9071 22.8646 18.5985 22.8646 18.2955C22.8646 14.1026 22.8921 9.90981 22.837 5.71697C22.826 5.01174 22.545 4.26243 22.2089 3.62882C21.8012 2.85747 21.0354 2.53791 20.1373 2.63157C16.0712 3.05582 11.9996 3.48006 7.93343 3.89879C7.25575 3.97042 6.57806 4.02551 5.90589 4.08612C5.90589 4.05306 5.9114 4.02551 5.91691 3.99245Z" fill="#E22829"/>
<path d="M18.6556 21.281C13.7466 21.2094 8.83747 21.1488 3.93388 21.0606C1.81818 21.022 0.0661157 19.1928 0.0330578 16.9284C-0.0110193 13.4848 -0.0110193 10.0358 0.0330578 6.58678C0.0550964 4.23967 1.73554 2.5978 4.08264 2.37741C8.26446 1.98072 12.4408 1.53444 16.6226 1.11019C17.2342 1.04959 17.8457 1 18.4628 1C15.1295 1.62259 11.7906 2.24518 8.4573 2.87328C6.81543 3.18182 5.17355 3.49036 3.53168 3.7989C2.18182 4.05234 1.16804 5.19835 1.16253 6.57576C1.1405 10.0028 1.1405 13.4242 1.16253 16.8512C1.16804 18.2782 2.19835 19.4959 3.62534 19.6722C6.09366 19.9752 8.56749 20.1956 11.0413 20.449C12.3306 20.5813 13.6253 20.7135 14.9146 20.8457C16.1653 20.9725 17.416 21.0992 18.6667 21.2314C18.6667 21.2479 18.6667 21.2645 18.6612 21.281H18.6556Z" fill="#E22829"/>
<path d="M17.9343 12.1131C17.6313 12.339 17.4549 12.4988 17.2566 12.6145C14.342 14.2894 11.4164 15.9644 8.50178 17.6338C8.42464 17.6779 8.35302 17.744 8.27037 17.7605C8.06652 17.7991 7.85715 17.8156 7.64778 17.8432C7.63126 17.6393 7.55963 17.4189 7.60922 17.2316C7.99489 15.7495 8.4026 14.2674 8.80481 12.7853C8.915 12.3886 9.01968 11.9919 9.21252 11.5952V15.485C11.2676 14.3335 13.196 13.2481 15.2511 12.0966C12.9976 10.8514 10.8599 9.67236 8.63401 8.44371C8.27037 10.2729 7.93429 11.9809 7.59269 13.6889C7.55963 13.6889 7.53208 13.6889 7.49902 13.6889C7.49902 13.1875 7.49902 12.6806 7.49902 12.1792C7.49902 10.5098 7.49902 8.8404 7.50453 7.17098C7.51004 6.20679 7.67533 6.11313 8.53484 6.609C10.3475 7.65032 12.1492 8.70817 13.9563 9.755C15.0032 10.3611 16.0555 10.9506 17.1023 11.5567C17.3448 11.6944 17.5706 11.8652 17.9288 12.1076L17.9343 12.1131Z" fill="#E22829"/>
</svg>
