<svg width="24" height="24" viewBox="0 0 24 24" fill="none" xmlns="http://www.w3.org/2000/svg">
<g clip-path="url(#clip0_720_12506)">
<path d="M13.6804 5.49121L11.0558 11.6538H14.8125L12.2239 18.7426C12.1197 18.7475 12.015 18.75 11.9096 18.75C8.23161 18.75 5.25 15.7279 5.25 12C5.25 8.27208 8.23161 5.25 11.9096 5.25C12.5228 5.25 13.1166 5.33398 13.6804 5.49121Z" fill="#F7BA3B"/>
<path d="M13.1093 4.37766C13.6653 4.45773 14.2023 4.59708 14.7134 4.78909L16.1611 0.739549C15.4723 0.485454 14.7538 0.292619 14.0123 0.16767L13.1093 4.37766Z" fill="#F99C48"/>
<path d="M13.4789 0.0900551C12.9943 0.0306087 12.5007 0 12 0C11.4993 0 11.0057 0.0306087 10.5211 0.0900551L11.4282 4.31938C11.6169 4.30555 11.8078 4.29851 12 4.29851C12.1007 4.29851 12.201 4.30044 12.3006 4.30426C12.3393 4.30574 12.3778 4.3075 12.4163 4.30955C12.4683 4.31231 12.5202 4.31559 12.5718 4.31938L13.4789 0.0900551Z" fill="#F99C48"/>
<path d="M10.8907 4.37766C10.3347 4.45773 9.7977 4.59708 9.28665 4.78909L7.83893 0.739549C8.52768 0.485454 9.2462 0.292619 9.98766 0.16767L10.8907 4.37766Z" fill="#F99C48"/>
<path d="M22.8662 11.7394L20.4895 11.1661L23.8382 9.95668C23.923 10.4501 23.9776 10.9538 24 11.4659L22.8662 11.7394Z" fill="#F99C48"/>
<path d="M21.7208 12.0157L19.6947 11.5269C19.7041 11.6834 19.709 11.8411 19.709 12C19.709 12.1696 19.7036 12.338 19.6927 12.5048L21.7208 12.0157Z" fill="#F99C48"/>
<path d="M20.4895 12.8652L22.8662 12.2919L23.9986 12.5651C23.9748 13.0767 23.9191 13.5799 23.8332 14.0728L20.4895 12.8652Z" fill="#F99C48"/>
<path d="M18.4383 22.1324C17.8732 22.4916 17.276 22.8048 16.6518 23.067L15.4996 19.8443L18.4383 22.1324Z" fill="#F99C48"/>
<path d="M18.9089 21.8175L15.2636 18.9793C15.8438 18.708 16.3848 18.3666 16.8754 17.966L20.4053 20.5725C19.9415 21.0264 19.4412 21.443 18.9089 21.8175Z" fill="#F99C48"/>
<path d="M18.8198 15.5941C18.4218 16.3461 17.9029 17.0244 17.2889 17.6031L20.7845 20.1844C21.0655 19.8835 21.3311 19.5682 21.5802 19.2397L18.8198 15.5941Z" fill="#F99C48"/>
<path d="M21.9094 18.7839C22.3196 18.187 22.6771 17.5512 22.9754 16.8832L19.4837 15.5802L21.9094 18.7839Z" fill="#F99C48"/>
<path d="M19.1509 14.8825C19.3758 14.326 19.5376 13.7372 19.6273 13.1251L23.7278 14.6061C23.5919 15.2187 23.4093 15.8138 23.1836 16.3873L19.1509 14.8825Z" fill="#F99C48"/>
<path d="M14.7035 19.2146L16.1511 23.2641C15.4634 23.5171 14.7461 23.7091 14.0059 23.8334L13.1028 19.6233C13.6576 19.5439 14.1934 19.4055 14.7035 19.2146Z" fill="#F99C48"/>
<path d="M12.5652 19.6811L13.4724 23.9107C12.9899 23.9697 12.4984 24 12 24C11.5016 24 11.0101 23.9697 10.5276 23.9107L11.4348 19.6811C11.6215 19.6946 11.8099 19.7015 12 19.7015C12.1901 19.7015 12.3785 19.6946 12.5652 19.6811Z" fill="#F99C48"/>
<path d="M10.8972 19.6233L9.99413 23.8334C9.25391 23.7091 8.53661 23.5171 7.84891 23.2641L9.29645 19.2146C9.80663 19.4055 10.3424 19.5439 10.8972 19.6233Z" fill="#F99C48"/>
<path d="M5.56169 22.1324C6.12684 22.4916 6.72403 22.8048 7.34819 23.067L8.50037 19.8443L5.56169 22.1324Z" fill="#F99C48"/>
<path d="M2.0906 18.7839C1.6804 18.187 1.32289 17.5512 1.02455 16.8832L4.5163 15.5802L2.0906 18.7839Z" fill="#F99C48"/>
<path d="M2.41975 19.2397C2.66888 19.5682 2.93448 19.8835 3.21548 20.1844L6.71108 17.6031C6.09708 17.0244 5.57815 16.3461 5.1802 15.5941L2.41975 19.2397Z" fill="#F99C48"/>
<path d="M5.09108 21.8175C4.55885 21.443 4.05848 21.0264 3.5947 20.5725L7.12461 17.966C7.61518 18.3666 8.15617 18.708 8.73638 18.9793L5.09108 21.8175Z" fill="#F99C48"/>
<path d="M0.00140062 12.5651C0.0252112 13.0767 0.0808859 13.5799 0.166849 14.0728L3.51048 12.8652L1.1338 12.2919L0.00140062 12.5651Z" fill="#F99C48"/>
<path d="M2.27916 12.0157L4.30534 11.5269C4.29588 11.6834 4.29098 11.8411 4.29098 12C4.29098 12.0561 4.2915 12.1121 4.29273 12.1679C4.29518 12.2808 4.30008 12.3932 4.30726 12.5048L2.27916 12.0157Z" fill="#F99C48"/>
<path d="M1.1338 11.7394L3.51048 11.1661L0.161772 9.95668C0.0770342 10.4501 0.0224099 10.9538 0 11.4659L1.1338 11.7394Z" fill="#F99C48"/>
<path d="M0.816387 16.3873C0.590712 15.8138 0.408106 15.2187 0.272246 14.6061L4.37274 13.1251C4.46238 13.7372 4.62415 14.326 4.84913 14.8825L0.816387 16.3873Z" fill="#F99C48"/>
<path d="M19.6316 10.9047L23.7341 9.42295C23.5998 8.80979 23.4184 8.21418 23.1943 7.64005L19.1619 9.1448C19.3848 9.70227 19.5443 10.2919 19.6316 10.9047Z" fill="#F99C48"/>
<path d="M19.4837 8.45116L22.9875 7.14367C22.6895 6.47191 22.3317 5.83259 21.9208 5.23245L19.4837 8.45116Z" fill="#F99C48"/>
<path d="M18.8296 8.42434C18.4343 7.67255 17.9183 6.99401 17.3075 6.41446L20.8019 3.83416C21.0809 4.13418 21.3448 4.44848 21.5922 4.77584L18.8296 8.42434Z" fill="#F99C48"/>
<path d="M20.4237 3.44532L16.8955 6.0505C16.4067 5.64858 15.8675 5.30561 15.2887 5.03249L18.9301 2.19741C19.4615 2.57297 19.961 2.99056 20.4237 3.44532Z" fill="#F99C48"/>
<path d="M15.4996 4.18706L18.4604 1.88174C17.8915 1.51852 17.2901 1.20185 16.6614 0.937117L15.4996 4.18706Z" fill="#F99C48"/>
<path d="M4.8381 9.1448C4.61522 9.70227 4.45573 10.2919 4.36836 10.9047L0.265943 9.42295C0.400228 8.80979 0.581608 8.21418 0.805708 7.64005L4.8381 9.1448Z" fill="#F99C48"/>
<path d="M5.17039 8.42434C5.56572 7.67255 6.08167 6.99401 6.69252 6.41446L3.19814 3.83416C2.91907 4.13418 2.65523 4.44848 2.40784 4.77584L5.17039 8.42434Z" fill="#F99C48"/>
<path d="M8.71134 5.03249C8.13253 5.30561 7.59329 5.64858 7.10448 6.0505L3.57631 3.44532C4.03904 2.99056 4.53854 2.57297 5.0699 2.19741L8.71134 5.03249Z" fill="#F99C48"/>
<path d="M2.07922 5.23245C1.66832 5.83259 1.31046 6.47191 1.01247 7.14367L4.5163 8.45116L2.07922 5.23245Z" fill="#F99C48"/>
<path d="M5.53963 1.88174L8.50037 4.18706L7.33856 0.937117C6.70985 1.20185 6.10846 1.51852 5.53963 1.88174Z" fill="#F99C48"/>
<path d="M17.1189 9.375H6.87067C6.62197 9.375 6.44217 9.61266 6.5098 9.85198L7.51659 13.4145C7.56224 13.576 7.70963 13.6875 7.87746 13.6875H10.5419C10.6879 13.6875 10.8206 13.6028 10.882 13.4704L11.6311 11.857C11.77 11.5578 12.1997 11.5708 12.3203 11.8778L12.9378 13.4496C12.9942 13.5931 13.1326 13.6875 13.2868 13.6875H16.0346C16.1997 13.6875 16.3453 13.5796 16.3934 13.4217L17.4776 9.85919C17.551 9.61827 17.3707 9.375 17.1189 9.375Z" fill="#00BFB6"/>
</g>
<defs>
<clipPath id="clip0_720_12506">
<rect width="24" height="24" fill="white"/>
</clipPath>
</defs>
</svg>
