<svg width="24" height="24" viewBox="0 0 24 24" fill="none" xmlns="http://www.w3.org/2000/svg">
<g clip-path="url(#clip0_2026_3747)">
<path d="M0 2C0 0.89543 0.895431 0 2 0H22C23.1046 0 24 0.895431 24 2V22C24 23.1046 23.1046 24 22 24H2C0.89543 24 0 23.1046 0 22V2Z" fill="#FF0D75"/>
<path d="M15.9603 5.5H13.1851L10.9744 7.86529L9.6806 5.5H6.79971L3 9.56261V9.63591L8.00034 18.7781H10.8222L13.0028 16.4438L14.28 18.7781H17.2086L21 14.7196L15.9603 5.5ZM9.5511 16.6585L5.88502 9.95494L8.10911 7.58034L11.7742 14.2808L9.5511 16.6585ZM15.8702 16.7308L12.203 10.0293L14.4271 7.65467L18.0932 14.3583L15.8702 16.7308Z" fill="white"/>
</g>
<defs>
<clipPath id="clip0_2026_3747">
<rect width="24" height="24" fill="white"/>
</clipPath>
</defs>
</svg>
