<svg width="24" height="24" viewBox="0 0 24 24" fill="none" xmlns="http://www.w3.org/2000/svg">
<g clip-path="url(#clip0_720_12555)">
<path fill-rule="evenodd" clip-rule="evenodd" d="M16.9384 3.22089C17.4956 4.37323 17.9924 5.6338 18.4029 7.00862C17.1353 5.98467 15.9575 5.30268 15.063 4.93318C14.8674 4.85236 14.6432 4.94545 14.5624 5.14111C14.4816 5.33677 14.5747 5.56091 14.7704 5.64173C16.4845 6.34981 19.4152 8.34852 21.8863 11.9044C21.5836 12.4192 21.2558 12.9365 20.9013 13.455C20.7819 13.6298 20.8267 13.8683 21.0014 13.9878C21.1762 14.1072 21.4147 14.0624 21.5342 13.8877C21.7528 13.5679 21.9616 13.2486 22.1609 12.9298C22.235 13.2676 22.35 13.5986 22.5058 13.9154C23.8695 16.6867 21.9825 19.9549 18.9007 20.1597C18.5459 20.1832 18.1993 20.2499 17.8676 20.356C19.6148 16.4712 19.8831 12.9676 19.635 11.0558C19.6078 10.8459 19.4155 10.6978 19.2056 10.725C18.9956 10.7523 18.8475 10.9445 18.8748 11.1545C19.0185 12.2622 18.9757 13.9857 18.5136 16.0363C18.485 16.0513 18.4566 16.0669 18.4299 16.0818C18.3408 16.1315 18.2304 16.1964 18.1057 16.2719C17.8558 16.423 17.5388 16.622 17.2006 16.8375C16.5239 17.2689 15.7551 17.7718 15.2536 18.1032C15.077 18.2199 15.0284 18.4577 15.1451 18.6343C15.2619 18.8109 15.4997 18.8595 15.6763 18.7428C16.1756 18.4128 16.9407 17.9124 17.6127 17.4839C17.8404 17.3388 18.0565 17.2025 18.2475 17.0841C17.9268 18.2193 17.4785 19.4321 16.8686 20.6803C14.0629 20.4209 9.86902 19.2204 5.81612 15.9407C5.8134 15.9062 5.8059 15.8714 5.79323 15.8373L5.79298 15.8362C5.79116 15.8293 5.78004 15.7865 5.76169 15.6869C5.74352 15.5882 5.72233 15.4574 5.69882 15.3005C5.65188 14.9872 5.59726 14.5801 5.54103 14.1379C5.42863 13.2543 5.3108 12.2392 5.23664 11.5742C5.21318 11.3638 5.02361 11.2123 4.81321 11.2357C4.60282 11.2592 4.45128 11.4488 4.47475 11.6592C4.54917 12.3266 4.66747 13.3458 4.78053 14.2347C4.82332 14.5711 4.86551 14.89 4.9044 15.1647C3.89349 14.2603 2.89873 13.2193 1.9444 12.0234C3.70476 9.22149 8.56145 4.43545 16.9164 3.20748C16.9237 3.21197 16.931 3.21644 16.9384 3.22089ZM17.9966 3.68304C18.5648 4.97088 19.0586 6.37965 19.4483 7.91603C20.3622 8.7662 21.2945 9.78877 22.1783 10.9939C22.2526 10.6826 22.3617 10.3775 22.5058 10.0846C23.8695 7.31329 21.9825 4.04506 18.9007 3.84034C18.5916 3.81981 18.2888 3.76653 17.9966 3.68304ZM16.1029 2.56153C14.6975 2.80592 13.391 3.1486 12.1818 3.56331C12.1573 3.55336 12.1339 3.54461 12.1139 3.53724C12.0457 3.51209 11.9607 3.48342 11.8656 3.4527C11.6746 3.39108 11.4298 3.31727 11.1684 3.24078C10.6448 3.0876 10.0443 2.92081 9.65103 2.81393C9.44674 2.75842 9.23613 2.87903 9.18062 3.08332C9.1251 3.2876 9.24571 3.49822 9.45 3.55373C9.84035 3.6598 10.4358 3.82521 10.9531 3.97656L11.0183 3.99568C8.98001 4.81312 7.24799 5.83124 5.81248 6.90191C6.05699 5.85017 6.54899 4.4839 7.3659 2.9859C7.75455 2.6953 8.09625 2.33816 8.37289 1.92494C10.0911 -0.641647 13.8649 -0.641646 15.5831 1.92494C15.7373 2.15515 15.9116 2.36795 16.1029 2.56153ZM6.18729 3.61111C5.46507 5.13326 5.07086 6.48217 4.92375 7.46322C4.91681 7.50951 4.91846 7.55511 4.9275 7.5984C3.54918 8.74284 2.49758 9.91025 1.76128 10.9274C1.68773 10.6391 1.58403 10.3566 1.45019 10.0846C0.0865681 7.3133 1.97348 4.04506 5.05532 3.84034C5.44549 3.81442 5.82575 3.73632 6.18729 3.61111ZM1.77317 13.0248C1.69907 13.3297 1.59141 13.6284 1.45019 13.9154C0.0865681 16.6867 1.97348 19.9549 5.05532 20.1597C5.31251 20.1767 5.56539 20.2165 5.81144 20.2775C5.90835 20.2839 6.00456 20.2896 6.10006 20.2945C5.94505 20.047 5.79217 19.7943 5.64159 19.5362C5.53491 19.3533 5.59667 19.1186 5.77952 19.0119C5.96238 18.9053 6.19709 18.967 6.30376 19.1499C6.53943 19.5538 6.78082 19.9441 7.0272 20.3212C8.58361 20.3294 9.90998 20.1504 10.9087 19.9038C7.94429 18.6442 4.69059 16.5043 1.77317 13.0248ZM16.1694 21.3727C15.9518 21.5835 15.7549 21.8185 15.5831 22.0751C13.8649 24.6416 10.0911 24.6416 8.37289 22.0751C8.17294 21.7764 7.93899 21.507 7.6779 21.2709C7.63334 21.2088 7.58891 21.1464 7.54463 21.0835C9.43349 21.0443 10.9734 20.7409 11.9916 20.3828C12.014 20.3749 12.0353 20.3651 12.0553 20.3537C13.5574 20.895 14.9584 21.2129 16.1694 21.3727ZM11.8501 6.58215C11.9004 6.48043 12.055 6.48043 12.1052 6.58215L12.859 8.10818C12.902 8.19524 12.834 8.29465 12.7314 8.29465H11.224C11.1214 8.29465 11.0534 8.19524 11.0964 8.10818L11.8501 6.58215ZM14.6609 12C14.6609 13.4819 13.4596 14.6832 11.9777 14.6832C10.4958 14.6832 9.29451 13.4819 9.29451 12C9.29451 10.5181 10.4958 9.31681 11.9777 9.31681C13.4596 9.31681 14.6609 10.5181 14.6609 12ZM11.0964 15.6363L11.8501 17.1623C11.9004 17.264 12.055 17.264 12.1052 17.1623L12.859 15.6363C12.902 15.5492 12.834 15.4498 12.7314 15.4498H11.224C11.1214 15.4498 11.0534 15.5492 11.0964 15.6363ZM17.2678 11.7447C17.3695 11.7949 17.3695 11.9495 17.2678 11.9998L15.7417 12.7535C15.6547 12.7965 15.5553 12.7285 15.5553 12.626V11.1185C15.5553 11.0159 15.6547 10.9479 15.7417 10.9909L17.2678 11.7447ZM6.68762 11.7447C6.58589 11.7949 6.58589 11.9495 6.68762 11.9998L8.21364 12.7535C8.3007 12.7965 8.40011 12.7285 8.40011 12.626V11.1185C8.40011 11.0159 8.3007 10.9479 8.21364 10.9909L6.68762 11.7447ZM15.6281 8.04136C15.7355 8.00496 15.8448 8.11429 15.8084 8.22174L15.2623 9.83377C15.2312 9.92574 15.1128 9.94796 15.0403 9.87544L13.9744 8.8095C13.9018 8.73699 13.9241 8.61861 14.016 8.58746L15.6281 8.04136ZM8.14676 15.5227C8.11036 15.6301 8.21969 15.7394 8.32714 15.703L9.93917 15.1569C10.0311 15.1258 10.0534 15.0074 9.98084 14.9349L8.9149 13.869C8.84239 13.7964 8.72401 13.8187 8.69286 13.9106L8.14676 15.5227ZM15.8085 15.5228C15.845 15.6303 15.7356 15.7396 15.6282 15.7032L14.0161 15.1571C13.9242 15.126 13.902 15.0076 13.9745 14.9351L15.0404 13.8691C15.1129 13.7966 15.2313 13.8188 15.2625 13.9108L15.8085 15.5228ZM8.32726 8.04155C8.2198 8.00515 8.11048 8.11448 8.14688 8.22193L8.69297 9.83396C8.72412 9.92593 8.8425 9.94814 8.91502 9.87563L9.98096 8.80969C10.0535 8.73717 10.0313 8.6188 9.93929 8.58764L8.32726 8.04155Z" fill="url(#paint0_linear_720_12555)"/>
</g>
<defs>
<linearGradient id="paint0_linear_720_12555" x1="0.884852" y1="23.8834" x2="23.156" y2="0.195912" gradientUnits="userSpaceOnUse">
<stop stop-color="#FF4139"/>
<stop offset="1" stop-color="#FF9A14"/>
</linearGradient>
<clipPath id="clip0_720_12555">
<rect width="24" height="24" fill="white"/>
</clipPath>
</defs>
</svg>
