<svg width="24" height="24" viewBox="0 0 24 24" fill="none" xmlns="http://www.w3.org/2000/svg">
<g clip-path="url(#clip0)">
<path fill-rule="evenodd" clip-rule="evenodd" d="M21.7687 9.68451C20.5791 8.55895 18.8992 7.62133 16.7194 7.02601H16.7068C11.52 5.61486 9.67211 8.95268 13.872 11.0568C18.6398 13.4423 19.3024 17.3492 16.6113 19.7925C15.9257 20.4141 13.6977 21.5774 11.6481 21.8567C8.39326 22.3082 4.78139 21.6163 1.8457 20.6839C3.44241 21.9241 5.26711 22.8388 7.21625 23.376C11.793 24.6359 17.3211 23.7078 20.9844 20.5232C24.674 17.3114 25.0267 12.7588 21.7687 9.68451ZM16.7215 7.02706L16.7688 7.04071L16.7215 7.02706Z" fill="#008DD0"/>
<path fill-rule="evenodd" clip-rule="evenodd" d="M6.74893 2.15453C9.27504 1.1249 12.027 0.775884 14.7302 1.14234C17.4334 1.50879 19.9931 2.57789 22.154 4.2429C16.6732 2.49997 12.4208 2.65116 9.63107 3.77357L9.59012 3.79037C6.1452 5.19942 4.9514 8.08366 6.45074 10.6918C7.25816 12.0977 8.68191 13.1487 10.1256 13.87C13.9433 15.782 12.7694 18.7103 8.63571 18.1748C8.17693 18.1137 7.72295 18.0207 7.27706 17.8966C-0.840186 15.6801 -2.02769 8.78713 3.01422 4.40355C4.12722 3.45394 5.38901 2.69411 6.74893 2.15453Z" fill="#008DD0"/>
</g>
<defs>
<clipPath id="clip0">
<rect width="24" height="24" fill="white"/>
</clipPath>
</defs>
</svg>
