<svg width="24" height="24" viewBox="0 0 24 24" fill="none" xmlns="http://www.w3.org/2000/svg">
<g clip-path="url(#clip0_2378_11221)">
<circle cx="12" cy="12" r="12" fill="#15156B"/>
<path d="M20.54 0.88959C19.3344 -0.716387 16.9073 1.28798 15.2706 2.68517L16.5879 6.15838L20.5399 9.8709C21.498 5.55958 20.9893 1.48824 20.54 0.88959Z" fill="white"/>
<path fill-rule="evenodd" clip-rule="evenodd" d="M17.9607 0.445703C16.9672 0.936201 15.9288 1.80742 15.1148 2.50227L14.9866 2.61173L16.3833 6.29431L20.6823 10.3327L20.7735 9.92209C21.2577 7.74337 21.3711 5.62681 21.3068 3.97793C21.2747 3.15347 21.198 2.44238 21.0997 1.89607C21.0506 1.62314 20.9956 1.38797 20.9367 1.19872C20.8799 1.01586 20.8131 0.854085 20.7312 0.74508C20.3859 0.285042 19.9407 0.0748931 19.4471 0.0560866C18.9673 0.0378095 18.4578 0.200276 17.9607 0.445703ZM19.4288 0.534772C19.7804 0.548166 20.0907 0.689712 20.3481 1.03266C20.3787 1.07331 20.4261 1.16973 20.4793 1.34094C20.5305 1.50576 20.5814 1.72057 20.6283 1.98087C20.7218 2.50103 20.7967 3.18947 20.8281 3.99658C20.887 5.50618 20.7935 7.41849 20.3935 9.40421L16.7919 6.02094L15.5541 2.75728C16.3506 2.07991 17.29 1.31108 18.1727 0.875238C18.6377 0.645675 19.0633 0.520849 19.4288 0.534772Z" fill="#15156B"/>
<path d="M16.9449 3.70316C18.5249 1.81836 20.8449 -0.331912 19.3432 7.00232C17.8581 14.2557 16.9637 7.7874 16.9449 3.70316Z" fill="#F66A74"/>
<path fill-rule="evenodd" clip-rule="evenodd" d="M18.0421 2.20787C17.6097 2.57357 17.1578 3.0742 16.7607 3.54791L16.7043 3.61515L16.7047 3.70289C16.7095 4.73147 16.7693 5.90934 16.8798 6.9848C16.9898 8.05511 17.1518 9.04225 17.3666 9.67947C17.4208 9.84013 17.4803 9.98465 17.5463 10.1054C17.6109 10.2234 17.6899 10.3341 17.7898 10.4111C17.8964 10.4934 18.0336 10.5409 18.1857 10.5059C18.3255 10.4737 18.4379 10.3806 18.5276 10.2736C18.7054 10.0613 18.8736 9.69716 19.0416 9.18368C19.2122 8.66232 19.3907 7.96028 19.5773 7.04899C19.9537 5.21065 20.0951 3.94697 20.0629 3.117C20.0469 2.70313 19.9872 2.37763 19.8784 2.138C19.7665 1.89174 19.5934 1.71937 19.3558 1.66151C19.1314 1.60687 18.8996 1.66749 18.6903 1.76739C18.4776 1.86888 18.258 2.02527 18.0421 2.20787ZM19.5843 3.13555C19.6141 3.90625 19.4824 5.12412 19.108 6.9529C18.9233 7.85495 18.749 8.53744 18.5863 9.03473C18.421 9.53989 18.2756 9.82851 18.1604 9.966C18.1237 10.0098 18.0986 10.0278 18.0865 10.0349C18.0853 10.034 18.0839 10.033 18.0824 10.0318C18.057 10.0122 18.0162 9.96624 17.9666 9.87549C17.9184 9.78744 17.8693 9.67101 17.8205 9.52644C17.6238 8.94273 17.4658 8.00035 17.3563 6.93583C17.2506 5.90695 17.1919 4.78101 17.1843 3.78853C17.5617 3.34195 17.9704 2.89586 18.3514 2.57363C18.5518 2.40419 18.7359 2.27641 18.8966 2.19971C19.0607 2.12139 19.1719 2.10978 19.2424 2.12694C19.2997 2.14089 19.3733 2.18437 19.4422 2.3361C19.5142 2.49446 19.5693 2.74907 19.5843 3.13555Z" fill="#15156B"/>
<path d="M3.5997 0.88959C4.8052 -0.716387 7.23236 1.28798 8.86905 2.68517L7.55175 6.15838L3.5997 9.8709C2.64164 5.55958 3.15033 1.48824 3.5997 0.88959Z" fill="white"/>
<path fill-rule="evenodd" clip-rule="evenodd" d="M6.178 0.445703C7.17148 0.936201 8.20989 1.80742 9.02386 2.50227L9.15209 2.61173L7.75537 6.29431L3.45642 10.3327L3.36518 9.92209C2.88102 7.74337 2.7676 5.62681 2.83186 3.97793C2.86399 3.15347 2.94068 2.44238 3.03894 1.89607C3.08803 1.62314 3.14311 1.38797 3.20195 1.19872C3.2588 1.01586 3.3256 0.854085 3.40743 0.74508C3.75275 0.285042 4.19793 0.0748931 4.69162 0.0560866C5.1714 0.0378095 5.6809 0.200276 6.178 0.445703ZM4.70985 0.534772C4.35825 0.548166 4.04796 0.689712 3.79053 1.03266C3.76002 1.07331 3.71262 1.16973 3.65938 1.34094C3.60814 1.50576 3.55723 1.72057 3.51041 1.98087C3.41685 2.50103 3.34198 3.18947 3.31053 3.99658C3.2517 5.50618 3.3452 7.41849 3.74514 9.40421L7.34672 6.02094L8.58456 2.75728C7.78807 2.07991 6.84872 1.31108 5.96594 0.875238C5.50097 0.645675 5.07535 0.520849 4.70985 0.534772Z" fill="#15156B"/>
<path d="M7.19382 3.70316C5.61373 1.81836 3.29375 -0.331912 4.79542 7.00232C6.28054 14.2557 7.17498 7.7874 7.19382 3.70316Z" fill="#F66A74"/>
<path fill-rule="evenodd" clip-rule="evenodd" d="M6.09659 2.20787C6.52897 2.57357 6.98086 3.0742 7.37799 3.54791L7.43436 3.61515L7.43395 3.70289C7.42921 4.73147 7.36938 5.90934 7.25885 6.9848C7.14884 8.05511 6.98688 9.04225 6.77206 9.67947C6.7179 9.84013 6.6584 9.98465 6.59235 10.1054C6.52778 10.2234 6.44874 10.3341 6.34888 10.4111C6.24226 10.4934 6.1051 10.5409 5.95293 10.5059C5.81316 10.4737 5.70073 10.3806 5.61106 10.2736C5.43324 10.0613 5.26506 9.69716 5.09707 9.18368C4.92651 8.66232 4.74798 7.96028 4.5614 7.04899C4.185 5.21065 4.04357 3.94697 4.07574 3.117C4.09177 2.70313 4.15145 2.37763 4.2603 2.138C4.37215 1.89174 4.5453 1.71937 4.78291 1.66151C5.0073 1.60687 5.23911 1.66749 5.44841 1.76739C5.66108 1.86888 5.88069 2.02527 6.09659 2.20787ZM4.55441 3.13555C4.52455 3.90625 4.65625 5.12412 5.03069 6.9529C5.21539 7.85495 5.38967 8.53744 5.55236 9.03473C5.71762 9.53989 5.86312 9.82851 5.97829 9.966C6.01498 10.0098 6.04003 10.0278 6.05216 10.0349C6.05337 10.034 6.05474 10.033 6.05628 10.0318C6.08167 10.0122 6.12245 9.96624 6.17209 9.87549C6.22026 9.78744 6.26939 9.67101 6.31813 9.52644C6.51491 8.94273 6.67291 8.00035 6.78232 6.93583C6.88807 5.90695 6.94681 4.78101 6.95438 3.78853C6.57694 3.34195 6.16823 2.89586 5.78724 2.57363C5.5869 2.40419 5.4028 2.27641 5.24208 2.19971C5.078 2.12139 4.96675 2.10978 4.89624 2.12694C4.83896 2.14089 4.76536 2.18437 4.69644 2.3361C4.62452 2.49446 4.56939 2.74907 4.55441 3.13555Z" fill="#15156B"/>
<path d="M8.56525 2.6829C10.8646 1.43742 14.1938 1.96441 15.3915 2.6829C20.541 6.15601 20.3015 9.51998 20.6608 10.3474C24.6128 19.4492 16.589 20.9261 12.2777 20.7664C4.99641 20.7664 2.61724 17.8123 2.33782 16.3353C2.17814 15.8164 2.0983 13.8923 3.05636 10.3474C4.25395 5.91635 5.69105 4.23976 8.56525 2.6829Z" fill="white"/>
<path fill-rule="evenodd" clip-rule="evenodd" d="M12.4032 1.70844C13.6946 1.77546 14.8694 2.09202 15.514 2.47874L15.5194 2.48201L15.5247 2.48556C18.133 4.2447 19.3912 5.98711 20.0397 7.40912C20.3632 8.11851 20.5324 8.74234 20.6431 9.23819C20.6773 9.39125 20.707 9.53758 20.7333 9.66712C20.7486 9.74254 20.7628 9.81226 20.776 9.87431C20.8142 10.0539 20.8457 10.1747 20.8798 10.2532C21.8795 12.5556 22.1347 14.4046 21.8592 15.8827C21.5826 17.3672 20.7757 18.4508 19.7079 19.2251C17.5921 20.7592 14.4436 21.0869 12.2726 21.0071C4.96692 21.0059 2.4262 18.0422 2.10422 16.3938C2.01297 16.0842 1.95919 15.4404 2.03849 14.458C2.1197 13.4522 2.34223 12.0703 2.82444 10.2861C3.42698 8.05678 4.09553 6.49743 4.98917 5.29564C5.88532 4.09048 6.99525 3.26177 8.45047 2.47353C9.65192 1.82274 11.1074 1.6412 12.4032 1.70844ZM12.3784 2.18683C11.1353 2.12233 9.77653 2.30004 8.67862 2.89474C7.25964 3.66335 6.21392 4.45137 5.37358 5.58148C4.53072 6.71497 3.88193 8.20944 3.28688 10.4111C2.81103 12.1718 2.59445 13.5244 2.51597 14.4966C2.43675 15.478 2.5 16.0515 2.56604 16.2661L2.56997 16.2789L2.57246 16.292C2.81989 17.6 5.04231 20.5281 12.277 20.5281H12.2814L12.2859 20.5283C14.426 20.6075 17.4423 20.2761 19.4267 18.8373C20.4097 18.1245 21.1372 17.1423 21.3883 15.795C21.6405 14.4414 21.4167 12.6925 20.4404 10.444C20.3847 10.3157 20.345 10.1504 20.3075 9.97407C20.2923 9.90269 20.2774 9.82941 20.2618 9.75255C20.2365 9.62774 20.2093 9.49349 20.1756 9.34259C20.0693 8.86645 19.9091 8.27707 19.6039 7.6079C18.9954 6.27374 17.7998 4.59904 15.2622 2.88634C14.7076 2.55579 13.6219 2.25136 12.3784 2.18683Z" fill="#15156B"/>
<path d="M12.181 18.6037C6.84137 18.6037 3.80749 16.2963 2.95801 15.1426C2.95801 19.7256 9.10666 20.5531 12.181 20.3939C18.5885 20.3939 20.5625 18.1365 21.1613 15.1426C19.6044 17.6575 14.4867 18.5241 12.181 18.6037Z" fill="#CCCCE3"/>
<path d="M13.3242 8.74648C12.2629 8.20042 11.2748 8.46905 10.7795 8.74439C10.678 8.80085 10.623 8.91148 10.623 9.02767C10.623 9.22654 10.7843 9.38775 10.9831 9.38775H13.1495C13.3416 9.38775 13.4972 9.32205 13.4972 9.13002C13.4972 9.00754 13.4331 8.80252 13.3242 8.74648Z" fill="#5C5070"/>
<path fill-rule="evenodd" clip-rule="evenodd" d="M13.2028 9.08235C12.2349 8.50766 11.3386 8.79472 10.8952 9.08228C10.8819 9.0909 10.8618 9.11694 10.8618 9.16854C10.8618 9.24622 10.9158 9.30919 10.9824 9.30919H13.1488C13.1838 9.30919 13.2117 9.30562 13.2327 9.30025C13.2438 9.29738 13.2517 9.29433 13.257 9.29187C13.257 9.29066 13.257 9.28936 13.257 9.28794C13.257 9.25681 13.2484 9.19671 13.2287 9.13961C13.2193 9.11259 13.2101 9.09396 13.2035 9.08341C13.2032 9.08304 13.203 9.08268 13.2028 9.08235ZM13.1993 9.07751C13.1993 9.0775 13.1995 9.07766 13.1998 9.07803C13.1995 9.0777 13.1993 9.07752 13.1993 9.07751ZM13.2559 9.30312C13.2559 9.30311 13.2559 9.30298 13.256 9.30271L13.2559 9.30312ZM13.433 8.59205L13.3235 8.84051L13.433 8.59205C13.566 8.67184 13.6371 8.82696 13.673 8.93069C13.7126 9.04525 13.736 9.17617 13.736 9.28794C13.736 9.48987 13.6593 9.65604 13.5242 9.75735C13.4056 9.84621 13.2652 9.86802 13.1488 9.86802H10.9824C10.6513 9.86802 10.3828 9.55485 10.3828 9.16854C10.3828 8.94903 10.4726 8.71695 10.6624 8.59385C11.2079 8.24007 12.2825 7.90147 13.433 8.59205Z" fill="#15156B"/>
<path d="M2.23926 9.26548C2.23926 8.69657 2.49342 8.39745 2.81308 8.25493C3.3115 8.03272 3.67441 8.6267 3.5222 9.15075C3.31873 9.85128 3.08339 10.6283 2.95781 10.9423C2.76619 11.4213 2.23926 11.3015 2.23926 10.9423V9.26548Z" fill="#5C5070"/>
<path fill-rule="evenodd" clip-rule="evenodd" d="M3.08267 8.45679C3.04187 8.4437 2.98649 8.44122 2.91087 8.47494C2.78744 8.52997 2.68356 8.61161 2.609 8.72954C2.53417 8.84792 2.47903 9.01847 2.47903 9.26673V10.9435C2.47903 10.9869 2.50374 11.015 2.54986 11.0195C2.57289 11.0217 2.602 11.0167 2.63277 10.9964C2.66318 10.9763 2.70336 10.9353 2.73568 10.8546C2.85591 10.554 3.0877 9.79013 3.29244 9.08519C3.349 8.89047 3.30644 8.68778 3.21747 8.56414C3.17444 8.50434 3.12667 8.4709 3.08267 8.45679ZM3.6063 8.28434C3.78533 8.53315 3.84812 8.88947 3.75247 9.2188C3.55028 9.91493 3.3114 10.7051 3.18045 11.0325C3.05082 11.3565 2.78006 11.5228 2.50401 11.4963C2.23876 11.4708 2 11.2594 2 10.9435V9.26673C2 8.94608 2.07194 8.68261 2.2041 8.47356C2.33654 8.26408 2.51957 8.12491 2.71581 8.03742C2.88939 7.96003 3.06628 7.94847 3.22895 8.00063C3.38842 8.05177 3.51532 8.15792 3.6063 8.28434Z" fill="#15156B"/>
<path d="M21.6396 9.31236C21.6396 8.74344 21.3855 8.44432 21.0658 8.30181C20.5674 8.0796 20.2045 8.67357 20.3567 9.19763C20.5602 9.89816 20.7955 10.6752 20.9211 10.9891C21.1127 11.4682 21.6396 11.3484 21.6396 10.9891V9.31236Z" fill="#5C5070"/>
<path fill-rule="evenodd" clip-rule="evenodd" d="M20.9173 8.50366C20.9581 8.49058 21.0135 8.4881 21.0891 8.52181C21.2126 8.57684 21.3164 8.65848 21.391 8.77642C21.4658 8.89479 21.521 9.06534 21.521 9.31361V10.9904C21.521 11.0337 21.4963 11.0619 21.4501 11.0663C21.4271 11.0685 21.398 11.0636 21.3672 11.0433C21.3368 11.0231 21.2966 10.9822 21.2643 10.9014C21.1441 10.6009 20.9123 9.837 20.7076 9.13207C20.651 8.93735 20.6936 8.73465 20.7825 8.61101C20.8256 8.55121 20.8733 8.51777 20.9173 8.50366ZM20.3937 8.33122C20.2147 8.58002 20.1519 8.93634 20.2475 9.26568C20.4497 9.96181 20.6886 10.752 20.8195 11.0793C20.9492 11.4034 21.2199 11.5697 21.496 11.5432C21.7612 11.5177 22 11.3063 22 10.9904V9.31361C22 8.99295 21.9281 8.72948 21.7959 8.52044C21.6635 8.31096 21.4804 8.17178 21.2842 8.08429C21.1106 8.0069 20.9337 7.99534 20.771 8.04751C20.6116 8.09865 20.4847 8.20479 20.3937 8.33122Z" fill="#15156B"/>
<path d="M9.84832 8.19141H4.39364C3.86452 8.19141 3.43558 8.62034 3.43557 9.14945L3.43555 10.5865C3.43551 12.4385 4.93682 13.9398 6.78878 13.9398H7.37055C9.15099 13.9398 10.621 12.5484 10.7187 10.7706L10.8049 9.20205C10.8351 8.65309 10.3981 8.19141 9.84832 8.19141Z" fill="#5C4F70"/>
<path fill-rule="evenodd" clip-rule="evenodd" d="M3.19827 9.14873C3.19828 8.48733 3.73445 7.95117 4.39585 7.95117H9.85053C10.5378 7.95117 11.084 8.52828 11.0463 9.21448L10.9601 10.783C10.8554 12.6878 9.28037 14.1786 7.37276 14.1786H6.79099C4.80674 14.1786 3.1982 12.57 3.19824 10.5858L3.19827 9.14873ZM4.39585 8.4302C3.99901 8.4302 3.67731 8.7519 3.6773 9.14874L3.67728 10.5858C3.67724 12.3055 5.07131 13.6996 6.79099 13.6996H7.37276C9.02603 13.6996 10.3911 12.4075 10.4818 10.7567L10.568 9.18819C10.5906 8.77647 10.2629 8.4302 9.85053 8.4302H4.39585Z" fill="#15156B"/>
<path d="M14.2698 8.23633H19.7245C20.2536 8.23633 20.6826 8.66526 20.6826 9.19438L20.6826 10.6314C20.6827 12.4834 19.1813 13.9847 17.3294 13.9847H16.7476C14.9672 13.9847 13.4971 12.5933 13.3994 10.8155L13.3132 9.24697C13.283 8.69801 13.7201 8.23633 14.2698 8.23633Z" fill="#5C4F70"/>
<path fill-rule="evenodd" clip-rule="evenodd" d="M20.9218 9.19365C20.9218 8.53226 20.3857 7.99609 19.7243 7.99609H14.2696C13.5823 7.99609 13.0361 8.5732 13.0738 9.2594L13.16 10.828C13.2647 12.7327 14.8397 14.2235 16.7474 14.2235H17.3291C19.3134 14.2235 20.9219 12.615 20.9219 10.6307L20.9218 9.19365ZM19.7243 8.47513C20.1211 8.47513 20.4428 8.79682 20.4428 9.19366L20.4428 10.6307C20.4429 12.3504 19.0488 13.7445 17.3291 13.7445H16.7474C15.0941 13.7445 13.7291 12.4524 13.6383 10.8017L13.5521 9.23311C13.5295 8.82139 13.8572 8.47513 14.2696 8.47513H19.7243Z" fill="#15156B"/>
<mask id="mask0_2378_11221" style="mask-type:alpha" maskUnits="userSpaceOnUse" x="4" y="9" width="6" height="4">
<path d="M8.93509 9.14648H5.36285C4.83749 9.14648 4.42048 9.58868 4.45125 10.1131L4.47122 10.4535C4.55442 11.8715 5.72857 12.9787 7.14897 12.9787C8.56937 12.9787 9.74353 11.8715 9.82672 10.4535L9.84669 10.1131C9.87747 9.58868 9.46045 9.14648 8.93509 9.14648Z" fill="#5C4F70"/>
</mask>
<g mask="url(#mask0_2378_11221)">
<path fill-rule="evenodd" clip-rule="evenodd" d="M8.25063 7.98379C8.53411 7.70607 8.53879 7.25114 8.26107 6.96766C7.98336 6.68418 7.52842 6.67951 7.24494 6.95722C6.349 7.83495 4.61026 10.329 4.39605 13.6517C4.37051 14.0477 4.67086 14.3895 5.06688 14.415C5.4629 14.4405 5.80464 14.1402 5.83017 13.7442C6.01743 10.8395 7.55741 8.66292 8.25063 7.98379ZM9.51428 8.53746C9.70634 8.35551 9.71453 8.05232 9.53258 7.86026C9.35063 7.6682 9.04743 7.66 8.85537 7.84195C8.02872 8.6251 6.39317 10.8877 6.19193 13.9062C6.17433 14.1702 6.37406 14.3985 6.63804 14.4161C6.90201 14.4337 7.13028 14.2339 7.14788 13.97C7.32987 11.2401 8.824 9.19142 9.51428 8.53746Z" fill="#CCCCE3"/>
</g>
<mask id="mask1_2378_11221" style="mask-type:alpha" maskUnits="userSpaceOnUse" x="14" y="9" width="6" height="5">
<path d="M15.184 9.19141H18.7563C19.2816 9.19141 19.6987 9.63361 19.6679 10.1581L19.6479 10.4984C19.5647 11.9164 18.3906 13.0237 16.9702 13.0237C15.5498 13.0237 14.3756 11.9164 14.2924 10.4984L14.2724 10.1581C14.2417 9.63361 14.6587 9.19141 15.184 9.19141Z" fill="#5C4F70"/>
</mask>
<g mask="url(#mask1_2378_11221)">
<path fill-rule="evenodd" clip-rule="evenodd" d="M18.3122 8.02871C18.5956 7.75099 18.6003 7.29606 18.3226 7.01258C18.0449 6.7291 17.5899 6.72443 17.3065 7.00214C16.4105 7.87987 14.6718 10.3739 14.4576 13.6966C14.432 14.0926 14.7324 14.4344 15.1284 14.4599C15.5244 14.4854 15.8662 14.1851 15.8917 13.7891C16.079 10.8844 17.6189 8.70784 18.3122 8.02871ZM19.5759 8.58215C19.768 8.40019 19.7762 8.097 19.5942 7.90494C19.4122 7.71288 19.1091 7.70468 18.917 7.88664C18.0903 8.66978 16.4548 10.9324 16.2535 13.9509C16.236 14.2149 16.4357 14.4432 16.6997 14.4608C16.9636 14.4784 17.1919 14.2786 17.2095 14.0147C17.3915 11.2848 18.8856 9.2361 19.5759 8.58215Z" fill="#CCCCE3"/>
</g>
<path fill-rule="evenodd" clip-rule="evenodd" d="M4.20187 9.92434C4.16959 9.3741 4.60711 8.91016 5.1583 8.91016H9.14329C9.69447 8.91016 10.132 9.3741 10.0997 9.92434L10.0518 10.7411C9.97007 12.1339 8.81678 13.2215 7.42163 13.2215H6.87996C5.4848 13.2215 4.33151 12.1339 4.2498 10.7411L4.20187 9.92434ZM5.1583 9.38919C4.8827 9.38919 4.66394 9.62116 4.68008 9.89628L4.72801 10.713C4.79487 11.8526 5.73847 12.7424 6.87996 12.7424H7.42163C8.56312 12.7424 9.50671 11.8526 9.57357 10.713L9.6215 9.89628C9.63764 9.62116 9.41888 9.38919 9.14329 9.38919H5.1583Z" fill="#15156B"/>
<path fill-rule="evenodd" clip-rule="evenodd" d="M19.9192 9.96926C19.9515 9.41902 19.514 8.95508 18.9628 8.95508H14.9778C14.4266 8.95508 13.9891 9.41902 14.0214 9.96926L14.0693 10.786C14.151 12.1788 15.3043 13.2664 16.6995 13.2664H17.2411C18.6363 13.2664 19.7896 12.1788 19.8713 10.786L19.9192 9.96926ZM18.9628 9.43411C19.2384 9.43411 19.4572 9.66608 19.441 9.9412L19.3931 10.758C19.3262 11.8975 18.3826 12.7873 17.2411 12.7873H16.6995C15.558 12.7873 14.6144 11.8975 14.5475 10.758L14.4996 9.9412C14.4835 9.66608 14.7022 9.43411 14.9778 9.43411H18.9628Z" fill="#15156B"/>
<path fill-rule="evenodd" clip-rule="evenodd" d="M14.4543 12.7762C13.8308 12.423 12.8217 12.0502 11.8164 12.0956C11.3102 12.1185 10.798 12.2481 10.3388 12.547C9.87827 12.8464 9.48555 13.3072 9.20556 13.9691C9.19668 13.9902 9.19106 14.0117 9.18826 14.0332C9.18545 14.0557 9.18615 14.0786 9.18966 14.1006C9.19925 14.1591 9.23036 14.2138 9.27831 14.2512C9.29468 14.2638 9.31293 14.2746 9.33281 14.283C9.45467 14.3345 9.59525 14.2774 9.6467 14.1558C9.89371 13.572 10.2284 13.1902 10.6001 12.9484C10.9734 12.7056 11.3984 12.5942 11.8381 12.5741C12.7251 12.5339 13.6441 12.8679 14.2181 13.193C14.27 13.2225 14.3283 13.2305 14.3825 13.2197C14.4487 13.2066 14.5088 13.1659 14.5446 13.1027C14.6099 12.9877 14.5694 12.8412 14.4543 12.7762ZM15.2667 14.7723C15.3284 14.6554 15.2833 14.5108 15.1663 14.4491C15.0492 14.3873 14.9044 14.4323 14.8429 14.5497C14.3961 15.3983 13.8343 15.6794 13.3585 15.7187C12.9113 15.7552 12.513 15.5821 12.3003 15.3983V14.639C12.9801 14.5146 13.4979 13.891 13.4979 13.5111C13.4979 13.2618 13.2741 13.0401 12.9274 12.8997C12.6865 12.8024 12.3864 12.7449 12.0608 12.7449C11.2672 12.7449 10.6237 13.0882 10.6237 13.5111C10.6237 13.891 11.1416 14.5146 11.8213 14.639V15.3983C11.3565 15.8394 11.0319 15.9115 10.8324 15.882C10.619 15.8506 10.456 15.6897 10.355 15.5045C10.2916 15.3884 10.1461 15.3454 10.0301 15.409C10.0018 15.4245 9.97791 15.4446 9.95873 15.4684C9.93768 15.4942 9.92248 15.5236 9.91382 15.5555C9.89792 15.613 9.9033 15.6771 9.93441 15.7337C10.0729 15.9877 10.3412 16.2937 10.7624 16.3559C11.1451 16.4125 11.5808 16.2572 12.0662 15.824C12.3841 16.063 12.8708 16.2394 13.3978 16.1959C14.0598 16.1416 14.7554 15.7444 15.2667 14.7723Z" fill="#15156B"/>
<path d="M12.7779 13.343C12.7779 13.4092 12.4562 13.4628 12.0594 13.4628C11.6625 13.4628 11.3408 13.4092 11.3408 13.343C11.3408 13.2769 11.6625 13.1035 12.0594 13.1035C12.4562 13.1035 12.7779 13.2769 12.7779 13.343Z" fill="white"/>
</g>
<defs>
<clipPath id="clip0_2378_11221">
<rect width="24" height="24" fill="white"/>
</clipPath>
</defs>
</svg>
