<svg width="24" height="24" viewBox="0 0 24 24" fill="none" xmlns="http://www.w3.org/2000/svg">
<path d="M14.8629 24H4.25985C2.72937 24 1.74356 22.7591 2.05866 21.2286L5.85935 2.77137C6.17445 1.24089 7.67116 0 9.20164 0H19.8047C21.3352 0 22.321 1.24089 22.0059 2.77137L18.2052 21.2279C17.8901 22.7584 16.3934 23.9993 14.8629 23.9993V24Z" fill="#487BFE"/>
<path d="M13.5303 4.23828C14.9738 4.23828 16.4172 4.23828 17.8607 4.23828C18.4856 4.23828 18.6507 4.41159 18.6402 5.04403C18.6334 5.44841 18.5516 5.83778 18.3948 6.20915C18.2073 6.65329 17.8959 6.89561 17.3858 6.88361C16.5523 6.86485 15.718 6.88661 14.8845 6.8731C14.6369 6.86935 14.5484 6.94963 14.5004 7.19796C13.7854 10.9349 13.0554 14.6695 12.3367 18.4057C12.2437 18.8896 11.9758 19.1935 11.5137 19.3187C10.9653 19.4673 10.4041 19.477 9.85041 19.3593C9.26973 19.2355 9.10618 18.9774 9.21872 18.3892C9.54582 16.6862 9.88192 14.9846 10.2128 13.2824C10.6082 11.25 10.9953 9.21534 11.4026 7.1852C11.4567 6.91587 11.3869 6.87085 11.1431 6.87385C10.3096 6.88436 9.4753 6.88061 8.64179 6.87686C8.11587 6.87461 7.92831 6.68254 7.91931 6.14988C7.91481 5.88655 7.95232 5.62772 8.01159 5.37114C8.22315 4.46335 8.50224 4.23828 9.42353 4.23828C10.7927 4.23828 12.1611 4.23828 13.5303 4.23828Z" fill="#F5F6F9"/>
</svg>
