<svg width="24" height="24" viewBox="0 0 24 24" fill="none" xmlns="http://www.w3.org/2000/svg">
<g clip-path="url(#clip0_3206_2293)">
<path d="M12 24C18.6274 24 24 18.6274 24 12C24 5.37258 18.6274 0 12 0C5.37258 0 0 5.37258 0 12C0 18.6274 5.37258 24 12 24Z" fill="#7B2BF9"/>
<path fill-rule="evenodd" clip-rule="evenodd" d="M21.1681 12.2726C21.1662 12.3346 21.0819 12.351 21.0575 12.2939C21.047 12.2692 21.0363 12.2445 21.0255 12.2198C21.0056 12.1745 21.0112 12.1219 21.0408 12.0823C21.047 12.0742 21.0595 12.0579 21.0744 12.0384C21.1145 11.9859 21.1723 11.9937 21.1723 12.0519C21.1723 12.1283 21.1705 12.1944 21.1681 12.2726ZM20.7242 11.0603C20.6558 11.1834 20.4805 11.1891 20.4046 11.0704C20.3929 11.052 20.381 11.0337 20.369 11.0153C20.0954 10.5952 19.7806 10.1828 19.4289 9.78207C19.3426 9.68368 19.4132 9.52926 19.5441 9.52917H19.5473C20.369 9.52917 20.7998 9.73216 20.9313 9.98002C21.041 10.1873 21.0074 10.5498 20.7242 11.0603ZM20.5405 15.3576C20.4965 15.4697 20.4503 15.5812 20.4019 15.6915C20.3943 15.7067 20.3872 15.7221 20.3794 15.7372C20.0769 16.3193 19.5694 16.7777 18.8912 17.0967C18.739 17.1682 18.5726 17.029 18.6179 16.8671C18.8431 16.0611 19.0135 15.1871 19.124 14.2707C19.1446 14.0998 19.2288 13.943 19.3591 13.8304C19.6379 13.5891 19.8984 13.3482 20.138 13.1089L20.1406 13.1062C20.2585 12.9886 20.4596 13.0392 20.5076 13.1988C20.7443 13.9856 20.7575 14.7185 20.5405 15.3576ZM18.697 18.2675C18.6281 18.3413 18.5577 18.4141 18.4859 18.4859C18.3609 18.6107 18.2329 18.7315 18.1021 18.8481C18.0197 18.9216 17.8949 18.8297 17.9416 18.7295C17.9549 18.7009 17.9681 18.6721 17.9813 18.6431C18.0362 18.5219 18.0893 18.3977 18.1409 18.271C18.1531 18.2412 18.1788 18.2189 18.2101 18.2109C18.3402 18.1779 18.467 18.1414 18.5905 18.1016C18.6906 18.0694 18.769 18.1907 18.697 18.2675ZM17.3433 17.5399C17.0695 17.5796 16.7816 17.6052 16.4804 17.6159C15.7456 17.6416 14.9685 17.5782 14.1704 17.4312C14.073 17.4133 14.0543 17.2817 14.1426 17.2371C14.3167 17.149 14.4909 17.0589 14.665 16.9666C15.8863 16.3193 17.0259 15.6117 18.0234 14.8861C18.0983 14.8317 18.2013 14.896 18.1861 14.9872C18.0478 15.8187 17.8562 16.6014 17.6157 17.3119C17.5747 17.4329 17.4698 17.5216 17.3433 17.5399ZM17.061 18.6477C16.4061 19.9355 15.5997 20.6586 14.818 20.6441C13.9684 20.6289 13.1212 19.7442 12.4938 18.2168L12.4931 18.2151C12.4532 18.1181 12.499 18.0072 12.5951 17.9654C12.6017 17.9625 12.6084 17.9596 12.615 17.9566C12.6562 17.9387 12.7024 17.9355 12.7458 17.9477C13.9193 18.2771 15.0756 18.4489 16.159 18.4489C16.2767 18.4489 16.3936 18.4469 16.5096 18.4429C16.6453 18.438 16.7788 18.4304 16.91 18.42C17.0317 18.4103 17.1164 18.5389 17.061 18.6477ZM13.1833 21.0968C12.794 21.1468 12.3989 21.1724 12 21.1724C10.2171 21.1724 8.51183 20.6672 7.04778 19.7244C6.94705 19.6594 6.98986 19.5031 7.10956 19.4977C7.13439 19.4965 7.15759 19.4952 7.178 19.494C7.55006 19.4698 7.95801 19.4153 8.40004 19.3301C9.34031 19.1492 10.3855 18.839 11.48 18.4211C11.5781 18.3837 11.6876 18.4324 11.7275 18.5295L11.7283 18.5312C12.1524 19.5638 12.6744 20.3441 13.2605 20.8405C13.3573 20.9226 13.3092 21.0806 13.1833 21.0968ZM7.87905 14.67C8.68729 14.0119 9.63431 13.3552 10.6731 12.7335C10.6954 14.0622 10.8411 15.3378 11.099 16.49C10.7137 16.3257 10.3296 16.1448 9.94881 15.947C9.21125 15.5637 8.51731 15.1344 7.87905 14.67ZM5.36546 18.2302C5.17263 17.8664 5.42184 17.0237 6.68786 15.743L6.68849 15.7423C6.82069 15.6088 6.80801 15.3896 6.66043 15.2733C6.6097 15.2335 6.55934 15.1932 6.50934 15.1529C6.38325 15.051 6.20077 15.0604 6.08628 15.175C6.06119 15.2001 6.04249 15.219 6.037 15.2247C5.40413 15.8743 4.9612 16.4756 4.71307 17.0164C4.64274 17.1697 4.43031 17.1862 4.33732 17.0456C3.35514 15.5608 2.82758 13.821 2.82758 12C2.82758 11.3489 2.89521 10.7082 3.02679 10.0859C3.04666 9.99171 3.1795 9.98568 3.20738 10.0778C3.39768 10.7061 3.70741 11.3559 4.13541 12.0131C4.71154 12.8979 5.47131 13.7484 6.37165 14.5286C6.67895 14.7949 7.00353 15.0524 7.34204 15.3009C8.02825 15.8045 8.7739 16.2692 9.56721 16.6813C9.91886 16.8641 10.2613 17.0385 10.6121 17.1964C10.8073 17.2843 11.0296 17.2911 11.2289 17.2129C11.3942 17.1481 11.5608 17.0807 11.7284 17.0107C11.9106 16.9347 12.0094 16.736 11.9611 16.5445C11.9551 16.5206 11.9503 16.5014 11.9476 16.49C11.6714 15.3277 11.5179 14.0193 11.4998 12.6487L11.4993 12.649C11.4991 12.6327 11.4992 12.6162 11.499 12.5997C11.4982 12.5248 11.4987 12.4494 11.4973 12.3746C11.4969 12.3508 11.4976 12.3104 11.4978 12.2865C11.498 12.277 11.4978 12.2675 11.4978 12.2581L11.4982 12.258C11.4987 12.1722 11.4993 12.0865 11.5008 12.0004C11.505 11.7653 11.5135 11.5319 11.5256 11.3004L11.5252 11.3007C11.6104 9.6469 11.8908 8.09291 12.3369 6.78571C12.3782 6.66474 12.3137 6.53344 12.1928 6.49216C12.0749 6.45187 11.9571 6.41338 11.8394 6.3765C11.7204 6.33918 11.5933 6.40339 11.5531 6.52148C11.0695 7.9411 10.7711 9.62531 10.6915 11.4076C10.6813 11.6336 10.5583 11.8394 10.3636 11.9548C9.30802 12.5804 8.33861 13.2436 7.50114 13.9121C7.32667 14.0514 7.07746 14.0461 6.90874 13.8997C6.06938 13.172 5.36294 12.3815 4.8289 11.5614C3.77945 9.94998 3.53006 8.43188 4.12687 7.28754C4.12849 7.28485 4.12993 7.28206 4.13146 7.27945C4.20754 7.15318 4.28669 7.02862 4.36907 6.90577C5.05482 5.99806 6.33118 5.47203 8.02393 5.41258C8.13104 5.4088 8.23888 5.40692 8.3477 5.40692C9.386 5.40692 10.5003 5.57824 11.6336 5.90524L11.6338 5.90497C11.6587 5.91217 11.6835 5.91963 11.7083 5.92692C11.7275 5.93258 11.7466 5.93789 11.7658 5.94365C12.0277 6.02189 12.2903 6.10868 12.5532 6.20329C12.5594 6.20545 12.5656 6.2077 12.5717 6.20985C12.6402 6.23459 12.7086 6.25995 12.7771 6.28576C12.7985 6.29385 12.82 6.30204 12.8414 6.31031C12.862 6.31823 12.8826 6.32587 12.9033 6.33387L12.903 6.33423C13.4565 6.54846 14.0095 6.79758 14.5555 7.08141C15.6126 7.63056 16.5801 8.27431 17.422 8.98057C15.8152 9.34867 13.9474 10.0588 12.0695 11.0162C11.9829 11.0605 11.9258 11.1476 11.9204 11.2447C11.9138 11.3611 11.9052 11.5951 11.899 11.7811C11.8951 11.8978 12.0186 11.9751 12.122 11.9208L12.1231 11.9202C13.9824 10.9438 15.838 10.2141 17.4316 9.82848C17.7294 9.75644 17.9223 9.47035 17.8804 9.16682C17.8511 8.95476 17.8181 8.74602 17.7816 8.54097C17.7357 8.28339 17.5947 8.05307 17.3866 7.89461C16.6402 7.32604 15.8177 6.8045 14.9371 6.34691C14.3437 6.03862 13.7416 5.76845 13.1383 5.53804C13.0092 5.48876 12.9539 5.33623 13.0213 5.21562C13.6429 4.10358 14.3822 3.48078 15.1025 3.48078C15.11 3.48078 15.1175 3.48078 15.1249 3.48096C15.9745 3.49616 16.8217 4.38085 17.4491 5.90821C17.7667 6.68138 18.0127 7.573 18.1809 8.54196C18.18 8.54115 18.1791 8.54043 18.1783 8.53962C18.2501 8.95314 18.3079 9.38051 18.3508 9.81894C18.3471 9.82128 18.3432 9.82335 18.3395 9.82569C18.3445 9.83081 18.3498 9.83594 18.3549 9.84116C18.4261 10.5768 18.4561 11.3429 18.4421 12.1246C18.4333 12.6191 18.4069 13.1067 18.3643 13.5838C17.2276 14.5024 15.8222 15.4166 14.2774 16.2353C13.7697 16.5043 13.2621 16.7548 12.7595 16.9854C12.7516 16.989 12.7439 16.9925 12.7361 16.9961C12.6977 17.0136 12.6592 17.0315 12.6208 17.0488L12.6199 17.0485C12.2034 17.237 11.7909 17.4113 11.3852 17.5704L11.3853 17.5708C11.3624 17.5798 11.3397 17.5884 11.3168 17.5973C11.2883 17.6085 11.2598 17.6194 11.2314 17.6304C11.1633 17.6565 11.0955 17.6822 11.0278 17.7075C11.0092 17.7144 10.9905 17.7217 10.9719 17.7285C10.8898 17.759 10.8081 17.7886 10.7267 17.8178C10.7166 17.8214 10.7064 17.8252 10.6963 17.8288L10.696 17.8286C9.82659 18.1383 8.99838 18.3722 8.24364 18.5174C6.41985 18.8686 5.56106 18.5992 5.36546 18.2302ZM6.67536 4.52942C8.219 3.42403 10.0636 2.82758 12 2.82758C12.5111 2.82758 13.0156 2.8694 13.51 2.95097C13.6423 2.97283 13.6868 3.14181 13.5812 3.22464C13.1021 3.60021 12.657 4.15592 12.2631 4.87657C12.167 5.05239 11.9631 5.13837 11.7703 5.08405C10.4652 4.71666 9.18121 4.54381 7.99488 4.58545C7.55726 4.60083 7.14284 4.64517 6.75351 4.71693C6.64415 4.73708 6.58497 4.59408 6.67536 4.52942ZM19.2661 11.2143C19.2634 11.1091 19.3983 11.0643 19.4592 11.1499C19.5342 11.255 19.6064 11.3607 19.6755 11.4669C19.7675 11.6081 19.853 11.7485 19.9325 11.888C19.982 11.975 19.9702 12.084 19.9027 12.158C19.7956 12.2756 19.6794 12.3972 19.5532 12.5233C19.5072 12.5692 19.4602 12.6153 19.4124 12.6614C19.353 12.7188 19.2535 12.6751 19.2567 12.5925C19.2626 12.4421 19.2669 12.2911 19.2696 12.1394C19.2752 11.8285 19.2738 11.52 19.2661 11.2143ZM18.3148 5.34747C18.3725 5.40215 18.4295 5.45773 18.4859 5.51412C19.3698 6.398 20.0506 7.43081 20.5058 8.55563C20.5518 8.66904 20.4555 8.78775 20.335 8.76607C20.0716 8.71877 19.7752 8.69763 19.447 8.70312C19.2196 8.7069 19.0219 8.54753 18.982 8.3236C18.8036 7.32361 18.5458 6.39989 18.2146 5.59371C18.1958 5.54775 18.1767 5.50234 18.1573 5.45737C18.1153 5.35925 18.2374 5.2739 18.3148 5.34747ZM21.784 9.92012C21.3888 8.04255 20.4596 6.31742 19.071 4.92882C17.1823 3.0401 14.6711 2 12 2C9.32889 2 6.81763 3.0401 4.92891 4.92882C4.46952 5.38821 4.06095 5.88456 3.70472 6.41086C3.59877 6.55188 3.50389 6.70081 3.41953 6.85667C2.49419 8.39428 2 10.1592 2 12C2 14.6711 3.04019 17.1823 4.92891 19.071C6.81763 20.9597 9.32889 22 12 22C14.6711 22 17.1823 20.9597 19.071 19.071C19.9624 18.1797 20.6646 17.1495 21.1578 16.0295C21.218 15.9054 21.2706 15.7783 21.3159 15.6487C21.7648 14.5015 22 13.2688 22 12C22 11.3015 21.9282 10.6143 21.7895 9.94602C21.7876 9.93739 21.7859 9.92875 21.784 9.92012Z" fill="white"/>
</g>
<defs>
<clipPath id="clip0_3206_2293">
<rect width="24" height="24" fill="white"/>
</clipPath>
</defs>
</svg>
