<svg width="24" height="24" viewBox="0 0 24 24" fill="none" xmlns="http://www.w3.org/2000/svg">
<g clip-path="url(#clip0_2216_1971)">
<circle cx="12" cy="12" r="12" fill="white"/>
<path fill-rule="evenodd" clip-rule="evenodd" d="M3.00001 12C3.00001 7.02944 7.02944 3.00001 12 3.00001C16.9706 3.00001 21 7.02944 21 12C21 16.9706 16.9706 21 12 21C7.02944 21 3.00001 16.9706 3.00001 12ZM12 0C5.37258 0 0 5.37258 0 12C0 18.6274 5.37258 24 12 24C18.6274 24 24 18.6274 24 12C24 5.37258 18.6274 0 12 0ZM11.9997 8.99902C11.9997 8.17059 11.3282 7.49902 10.4997 7.49902C9.67129 7.49902 8.99972 8.17059 8.99972 8.99902V13.4991V14.9991H10.4997H14.9997C15.8281 14.9991 16.4997 14.3275 16.4997 13.4991C16.4997 12.6706 15.8281 11.9991 14.9997 11.9991H11.9997V8.99902Z" fill="#6784FF"/>
</g>
<defs>
<clipPath id="clip0_2216_1971">
<rect width="24" height="24" fill="white"/>
</clipPath>
</defs>
</svg>
