<svg width="24" height="24" viewBox="0 0 24 24" fill="none" xmlns="http://www.w3.org/2000/svg">
<g clip-path="url(#clip0_2372_2389)">
<circle cx="12" cy="12" r="12" fill="url(#paint0_linear_2372_2389)"/>
<path fill-rule="evenodd" clip-rule="evenodd" d="M14.361 2.38022C14.4832 2.24053 14.5984 2.07639 14.5984 2.03448C14.5984 1.97511 14.6648 1.99606 14.7032 2.0694C14.7241 2.10782 14.7311 2.13925 14.7207 2.13925C14.7102 2.13925 14.7241 2.18465 14.7556 2.24053C14.7835 2.29989 14.815 2.38022 14.8219 2.42562L14.8278 2.45179C14.8352 2.48497 14.8408 2.51013 14.8464 2.51293C14.8499 2.51991 14.8534 2.53388 14.8569 2.54785C14.8604 2.56531 14.8883 2.63166 14.9197 2.69802C14.9477 2.76437 14.9896 2.88311 15.014 2.95994C15.0385 3.03677 15.0664 3.12408 15.0769 3.15202C15.1083 3.22536 15.1223 3.28472 15.1188 3.29869C15.1188 3.30568 15.1397 3.35457 15.1712 3.41045C15.1991 3.46632 15.2166 3.52569 15.2061 3.54315C15.1956 3.55712 15.2061 3.57109 15.2236 3.57109C15.2445 3.57109 15.262 3.60602 15.262 3.65142C15.262 3.69682 15.2724 3.74571 15.2864 3.75968C15.3004 3.77016 15.3144 3.80857 15.3178 3.84C15.3283 3.89937 15.3423 3.93779 15.4331 4.12986C15.4575 4.17876 15.4785 4.24511 15.4855 4.28003C15.489 4.31146 15.5029 4.34988 15.5169 4.36035C15.5309 4.37432 15.5414 4.42322 15.5414 4.46862C15.5414 4.51052 15.5518 4.54894 15.5693 4.54894C15.5833 4.54894 15.6252 4.64672 15.6601 4.76546C15.6985 4.88769 15.7404 4.99945 15.7544 5.0204C15.7649 5.03786 15.7963 5.11819 15.8172 5.19502C15.8417 5.27185 15.8766 5.36963 15.8976 5.40805L15.8986 5.41037C15.9098 5.43475 15.9176 5.45169 15.9306 5.45873C15.9604 5.47474 16.0178 5.43949 16.2056 5.32402L16.2223 5.31375C16.2992 5.26835 16.3725 5.23343 16.39 5.24042C16.4039 5.24391 16.4144 5.22994 16.4144 5.21248C16.4144 5.19152 16.4319 5.17755 16.4528 5.17755C16.4738 5.17755 16.5401 5.13914 16.5995 5.09374C16.6624 5.04834 16.7811 4.975 16.8684 4.9296C16.9557 4.8842 17.1024 4.7934 17.1932 4.72705C17.2875 4.66419 17.3853 4.60831 17.4167 4.60482C17.4447 4.60132 17.4796 4.58037 17.4901 4.56291C17.504 4.54545 17.5739 4.50005 17.6472 4.46163C17.7171 4.42322 17.7764 4.3848 17.7764 4.37083C17.7764 4.3394 18.0139 4.21717 18.0383 4.23812C18.0488 4.2486 18.0314 4.32543 18.0034 4.40925C17.9755 4.49306 17.958 4.5664 17.9685 4.57688C17.979 4.58736 17.9685 4.61529 17.9475 4.64323C17.9266 4.66768 17.9161 4.68863 17.9301 4.68863C17.9406 4.68863 17.9196 4.76896 17.8812 4.86674C17.8428 4.96452 17.8183 5.05532 17.8288 5.07279C17.8393 5.09025 17.8323 5.1112 17.8113 5.12517C17.7904 5.13914 17.7834 5.16009 17.7904 5.17406C17.8009 5.18803 17.7834 5.27883 17.7555 5.37312C17.7287 5.45349 17.7044 5.54401 17.6914 5.59277L17.6856 5.61409C17.6786 5.65251 17.6507 5.76077 17.6193 5.85855C17.5529 6.08905 17.3539 6.82243 17.3434 6.88879C17.3409 6.90855 17.3227 6.97376 17.3011 7.05103C17.2922 7.08291 17.2827 7.11708 17.2735 7.15071C17.2386 7.26595 17.2037 7.38469 17.2002 7.41263C17.1932 7.44057 17.1862 7.46502 17.1827 7.46502C17.1792 7.46502 17.1723 7.48946 17.1653 7.5174C17.1583 7.54534 17.1443 7.6082 17.1338 7.65709C17.1303 7.6736 17.1264 7.6929 17.1223 7.71284C17.1143 7.7519 17.1058 7.79351 17.0989 7.82123C17.085 7.89457 17.0954 7.90155 17.2281 7.90155C17.3085 7.90155 17.5634 7.88409 17.7939 7.86314C18.0244 7.84219 18.2688 7.82123 18.3352 7.81774C18.4015 7.81075 18.5133 7.79679 18.5797 7.78631C18.646 7.77234 18.7892 7.75488 18.894 7.7444C19.2187 7.70948 19.2921 7.699 19.3829 7.67455C19.4318 7.66408 19.5331 7.64312 19.6099 7.63614C19.6867 7.62566 19.774 7.6082 19.802 7.59772C19.8299 7.58375 19.8683 7.58026 19.8858 7.58375C19.8997 7.58725 19.9312 7.57328 19.9556 7.55582C19.9766 7.53835 20.0569 7.5174 20.1337 7.51042L20.2734 7.49994V8.04125C20.2734 8.67335 20.235 9.01211 20.1372 9.24609C20.1093 9.31245 20.0953 9.36832 20.1023 9.3788C20.1233 9.39976 19.9451 9.79089 19.8788 9.86423C19.8509 9.89915 19.8369 9.92709 19.8509 9.92709C19.8648 9.92709 19.8439 9.969 19.8055 10.0214C19.77 10.0686 19.7221 10.1309 19.687 10.1764L19.6693 10.1995C19.568 10.3357 19.4038 10.5033 19.3165 10.5662C19.2397 10.6186 19.2362 10.6325 19.2746 10.7198C19.2991 10.7722 19.3165 10.8246 19.313 10.8316C19.3095 10.8386 19.32 10.856 19.3375 10.8665C19.3759 10.891 19.4877 11.111 19.4877 11.1564C19.4877 11.1773 19.5226 11.2402 19.5645 11.2996C19.6099 11.3624 19.6413 11.4148 19.6343 11.4218C19.6308 11.4253 19.6518 11.4777 19.6797 11.5336C19.7077 11.5894 19.7321 11.6453 19.7321 11.6558C19.7356 11.6837 19.7705 11.7885 19.8124 11.8828C19.8234 11.9084 19.8334 11.9339 19.8415 11.9545C19.8488 11.9733 19.8545 11.9879 19.8578 11.9945C19.8605 12.0081 19.8654 12.0216 19.869 12.0319L19.8718 12.0399C19.8753 12.0504 19.8823 12.0679 19.8893 12.0818C19.8928 12.0993 19.9137 12.1517 19.9347 12.2006C19.9626 12.2739 20.0429 12.5289 20.0639 12.6162C20.0639 12.6266 20.0848 12.6895 20.1093 12.7559C20.1302 12.8222 20.1582 12.9235 20.1687 12.9829C20.1791 13.0387 20.1966 13.126 20.2071 13.1749C20.2141 13.2238 20.2385 13.3007 20.256 13.3496C20.2769 13.3984 20.2979 13.4823 20.3083 13.5416C20.3153 13.5975 20.3398 13.7337 20.3607 13.8385C20.5004 14.5404 20.5773 15.3891 20.5842 16.2307C20.5877 16.5904 20.5807 16.6498 20.5319 16.6603C20.5004 16.6672 20.4515 16.6498 20.4271 16.6218C20.3991 16.5974 20.3642 16.5695 20.3433 16.566C20.3357 16.563 20.3217 16.558 20.3045 16.5519C20.2819 16.5439 20.2538 16.534 20.228 16.5241C20.1826 16.5066 20.1302 16.4926 20.1128 16.4926C20.0953 16.4926 20.0813 16.4752 20.0813 16.4507C20.0813 16.4298 20.0709 16.4193 20.0604 16.4333C20.0464 16.4437 19.9801 16.4298 19.9102 16.4018C19.7566 16.3355 19.6169 16.304 19.6378 16.3425C19.6483 16.3564 19.6658 16.4333 19.6797 16.5101C19.7042 16.6568 19.7077 16.6777 19.7496 16.9641L19.7511 16.9747C19.7648 17.0671 19.7814 17.1789 19.7915 17.226C19.8299 17.4251 19.8439 18.5077 19.8089 18.5321C19.788 18.5461 19.6867 18.5321 19.5854 18.5042C19.4842 18.4728 19.3445 18.4413 19.2781 18.4309C19.2118 18.4239 19.1245 18.4099 19.086 18.3994C19.0441 18.3924 18.9184 18.375 18.8067 18.361C18.6914 18.347 18.5657 18.3296 18.5273 18.3191C18.3282 18.2772 17.298 18.2667 16.9837 18.3051C16.4668 18.3715 16.3306 18.3924 16.2747 18.4169C16.2643 18.4204 16.2433 18.4274 16.2223 18.4309C16.2049 18.4344 16.163 18.4483 16.135 18.4588C16.1071 18.4728 16.0512 18.4867 16.0128 18.4937C15.943 18.5077 15.8626 18.5391 15.5763 18.6718C15.489 18.7102 15.4086 18.7452 15.3947 18.7452C15.3842 18.7452 15.255 18.8395 15.1118 18.9547C14.8708 19.1468 14.6683 19.3947 14.6683 19.4925C14.6683 19.5135 14.6368 19.5973 14.6019 19.6811C14.4727 19.964 14.4168 20.2504 14.4098 20.6659C14.4064 20.8021 14.3924 20.9104 14.3714 20.9104C14.354 20.9104 14.2806 20.9453 14.2108 20.9907C14.1409 21.0326 14.0676 21.0676 14.0431 21.0676C14.0222 21.0676 14.0047 21.0815 14.0047 21.099C14.0047 21.1164 13.9698 21.1444 13.9314 21.1549C13.8895 21.1688 13.7638 21.2317 13.652 21.298C13.5438 21.3644 13.432 21.4168 13.411 21.4168C13.3866 21.4168 13.3202 21.4517 13.2609 21.4936C13.198 21.539 13.0723 21.6158 12.9745 21.6647C12.9049 21.7034 12.7878 21.7649 12.6806 21.8211L12.5729 21.8778L12.3459 22L11.822 21.9895C11.6575 21.9855 11.365 21.9803 11.0445 21.9747L11.0427 21.9747C10.8061 21.9705 10.5539 21.966 10.3273 21.9616C9.74761 21.9511 9.3425 21.9302 9.31457 21.9057C9.16789 21.7835 8.83612 21.4831 8.72786 21.3784C8.6615 21.3085 8.58118 21.2387 8.54975 21.2212C8.49387 21.1898 8.14464 20.8825 7.87224 20.631L7.72207 20.4913V20.1596C7.71858 19.978 7.7116 19.7789 7.70112 19.723C7.67667 19.5659 7.63826 19.3808 7.62429 19.3319C7.6208 19.3074 7.61032 19.2655 7.60334 19.2446C7.59635 19.2201 7.56841 19.1433 7.53698 19.0769C7.50904 19.0106 7.46364 18.8953 7.4392 18.822C7.41126 18.7522 7.37634 18.6928 7.36237 18.6928C7.3484 18.6928 7.33443 18.6683 7.33443 18.6404C7.33443 18.6125 7.32046 18.588 7.2995 18.588C7.28204 18.588 7.26458 18.5671 7.26109 18.5426C7.26109 18.5217 7.1668 18.4204 7.05155 18.3261C7.01005 18.2909 6.96855 18.2561 6.93129 18.2249C6.86508 18.1695 6.81226 18.1252 6.79661 18.1096C6.74423 18.0642 6.35309 17.9245 6.19943 17.9C6.02481 17.8721 5.54287 17.8686 5.43112 17.8965C5.37524 17.907 5.24952 17.928 5.15523 17.9419L4.9841 17.9629L5.00855 17.5333C5.01903 17.2959 5.03649 17.0479 5.04347 16.9816C5.08538 16.559 5.10983 16.3983 5.13777 16.325C5.15523 16.2796 5.1692 16.2377 5.1692 16.2307C5.1692 16.1993 4.76758 16.2586 4.68027 16.2971C4.63138 16.3215 4.52312 16.3634 4.4393 16.3879C4.352 16.4158 4.24374 16.4752 4.19834 16.5171C4.08309 16.6253 3.98181 16.6253 4.00277 16.5206C4.01674 16.4437 4.11452 15.8256 4.13547 15.6719C4.14246 15.6091 4.19834 15.3122 4.20881 15.2703C4.2123 15.2598 4.22627 15.1586 4.24024 15.0433C4.2577 14.9281 4.27866 14.8163 4.28914 14.7989C4.3031 14.7779 4.31707 14.7255 4.32057 14.6766C4.32755 14.6277 4.35549 14.495 4.38343 14.3798C4.39769 14.3126 4.42027 14.2121 4.44284 14.1116C4.45896 14.0398 4.47511 13.968 4.4882 13.9083C4.50041 13.8582 4.51348 13.8035 4.52621 13.7501C4.54985 13.651 4.57237 13.5566 4.58598 13.5067C4.60694 13.4299 4.62789 13.3356 4.63487 13.2972C4.64186 13.2588 4.65583 13.2029 4.6698 13.1749C4.68027 13.147 4.69424 13.1016 4.70123 13.0737C4.70472 13.0457 4.72218 12.9829 4.73615 12.934L4.74637 12.8981C4.76463 12.8338 4.76799 12.822 4.79203 12.7559C4.8025 12.7279 4.8479 12.5847 4.88981 12.4416C4.97014 12.1726 5.01903 12.0434 5.13777 11.792C5.17269 11.7117 5.20412 11.6313 5.20412 11.6069C5.20412 11.5859 5.22158 11.5685 5.23904 11.5685C5.26 11.5685 5.27397 11.5545 5.27397 11.5336C5.27397 11.5161 5.3473 11.3485 5.43461 11.1634L5.59526 10.8316L5.52192 10.7513C5.48001 10.7094 5.44858 10.6535 5.44858 10.6325C5.44858 10.6081 5.4381 10.5906 5.42064 10.5906C5.40667 10.5906 5.37874 10.5592 5.36127 10.5243C5.09935 10.0039 5.03998 9.8782 5.03649 9.80835C5.03649 9.79089 5.02252 9.76645 5.00506 9.75597C4.98061 9.73851 4.90727 9.56389 4.87584 9.45563C4.87332 9.44807 4.87035 9.43824 4.86709 9.42745C4.8613 9.40833 4.8546 9.38618 4.8479 9.36832C4.78854 9.20768 4.61043 8.62795 4.61043 8.59652C4.61043 8.55811 4.79552 8.57906 4.97712 8.63494C5.10634 8.67335 5.35778 8.70478 5.81178 8.73622C6.35309 8.77114 6.3915 8.76066 6.64295 8.53366C6.76518 8.4254 6.91884 8.29618 6.9852 8.25078C7.05155 8.20538 7.11441 8.15649 7.12489 8.14252C7.15283 8.1076 7.45317 7.95743 7.4846 7.96442C7.49857 7.96791 7.50904 7.95394 7.50904 7.93299C7.50904 7.91552 7.5265 7.90854 7.54397 7.91902C7.56492 7.92949 7.57889 7.92251 7.57889 7.90505C7.57889 7.88409 7.61032 7.86663 7.64874 7.86663C7.68715 7.86663 7.71858 7.85266 7.71858 7.8352C7.71858 7.82123 7.79192 7.78631 7.88621 7.76186C8.10274 7.70249 8.14464 7.66408 8.1202 7.55582C8.11321 7.50692 8.09575 7.40215 8.08178 7.32532C8.0713 7.24849 8.05384 7.1542 8.04337 7.11928C8.03289 7.08086 8.01892 7.00054 8.01194 6.94466C8.00495 6.88529 7.99098 6.79799 7.9805 6.74909C7.94907 6.60591 7.8897 6.31954 7.87574 6.22525C7.87055 6.18894 7.86151 6.14107 7.85434 6.1031L7.8478 6.06809C7.83732 6.02968 7.80938 5.87951 7.78493 5.73632L7.77099 5.65442C7.75291 5.54804 7.73885 5.46535 7.73604 5.45694L7.73304 5.44287C7.72576 5.4094 7.70635 5.32014 7.6627 5.09025C7.62429 4.89119 7.6173 4.84579 7.59635 4.68863C7.58587 4.60132 7.56143 4.49306 7.54397 4.44417C7.53 4.39528 7.51254 4.33242 7.51254 4.30448C7.50982 4.28273 7.50287 4.2081 7.49498 4.1234L7.48809 4.04954C7.47412 3.92382 7.4811 3.85048 7.50555 3.85048C7.52301 3.85048 7.61381 3.92032 7.7081 4.00763C7.7989 4.09145 7.88621 4.16478 7.90018 4.16478C7.91415 4.16478 7.96653 4.20669 8.02241 4.25908C8.0748 4.31495 8.13067 4.35337 8.14464 4.34988C8.15861 4.34289 8.19703 4.37782 8.22846 4.42671C8.25989 4.4756 8.30529 4.51402 8.33323 4.51402C8.35767 4.51402 8.3926 4.53497 8.40657 4.55942C8.42053 4.58386 8.53578 4.68165 8.6615 4.77594C8.9793 5.0204 9.01074 5.04485 9.10852 5.13565C9.20281 5.22645 9.23424 5.20549 9.27615 5.03786C9.29012 4.98897 9.31107 4.93309 9.32854 4.91563C9.3425 4.89468 9.36346 4.8388 9.37044 4.7934C9.38092 4.74451 9.42981 4.58386 9.4787 4.4302C9.5276 4.28003 9.5695 4.13335 9.5695 4.10891C9.5695 4.08097 9.58347 4.06002 9.60093 4.06002C9.62189 4.06002 9.63237 4.03208 9.63237 3.99716C9.62887 3.93779 9.72666 3.613 9.84889 3.27425C9.94318 3.01232 10.1073 2.478 10.1143 2.41863C10.1143 2.3872 10.1353 2.33132 10.1562 2.2964C10.1911 2.22656 10.1981 2.20211 10.1981 2.13925C10.1981 2.11829 10.2191 2.10432 10.2435 2.10432C10.2924 2.10432 10.5473 2.42562 10.5473 2.48848C10.5473 2.50594 10.5613 2.5234 10.5823 2.5234C10.5997 2.5234 10.6382 2.56531 10.6661 2.61769C10.694 2.67357 10.7744 2.77834 10.8442 2.85517C10.9175 2.932 11.0223 3.06471 11.0817 3.15202L11.0915 3.16624C11.2073 3.33357 11.2088 3.33565 11.3855 3.53617C11.4623 3.62348 11.5252 3.7038 11.5252 3.71777C11.5252 3.73872 11.7243 3.99366 11.822 4.09843C11.85 4.12986 11.8744 4.16828 11.8744 4.18574C11.8744 4.2032 11.9128 4.25209 11.9548 4.294C12.0001 4.33591 12.0805 4.43719 12.1398 4.51751C12.1957 4.60132 12.2656 4.69562 12.297 4.72705C12.3494 4.77943 12.3599 4.77943 12.4122 4.72006C12.4437 4.68165 12.4576 4.65371 12.4472 4.65371C12.4367 4.65371 12.4751 4.60831 12.5345 4.55243C12.5938 4.49656 12.6427 4.44068 12.6427 4.4302C12.6427 4.41972 12.6707 4.38131 12.7056 4.34289C12.737 4.30797 12.8174 4.21717 12.8767 4.14383C12.9396 4.067 13.0548 3.92731 13.1351 3.83302C13.2155 3.73523 13.3098 3.63745 13.3482 3.613C13.3831 3.58856 13.411 3.55014 13.411 3.52919C13.411 3.48728 13.439 3.45235 13.6346 3.2498C13.7044 3.17646 13.7603 3.10312 13.7603 3.08566C13.7603 3.06471 13.7812 3.03677 13.8057 3.0228C13.8406 2.99835 13.9384 2.8866 14.2352 2.5234L14.2601 2.49465C14.2881 2.462 14.3274 2.41634 14.361 2.38022Z" fill="#292929"/>
<path d="M14.3267 4.55724L14.2533 5.02172L14.393 5.14046C14.5851 5.3011 14.6829 5.50017 14.6584 5.69224C14.6305 5.9367 14.3895 6.19514 14.1381 6.25101C14.0333 6.27197 14.0368 6.26498 13.953 6.6631C13.9216 6.81677 13.8901 6.96693 13.8797 7.00186C13.8587 7.07869 14.0298 7.15901 14.3127 7.20441C14.4349 7.22537 14.8854 7.34061 15.3115 7.46633C15.7341 7.58857 16.1147 7.69333 16.1497 7.70032C16.2055 7.7108 16.2405 7.63047 16.4046 7.13457C16.5059 6.81677 16.5862 6.54087 16.5827 6.51643C16.5757 6.49198 16.3627 6.60024 16.0728 6.77137C15.7969 6.9355 15.5664 7.06472 15.5595 7.05773C15.549 7.04726 15.0112 5.6189 14.641 4.62709C14.5327 4.33723 14.4349 4.09626 14.4245 4.09626C14.414 4.09626 14.3686 4.3058 14.3267 4.55724Z" fill="#F1BD1B"/>
<path fill-rule="evenodd" clip-rule="evenodd" d="M11.0578 5.50674C11.0746 5.7673 10.9339 5.98848 10.7435 6.00075C10.5531 6.01303 10.3851 5.81175 10.3683 5.55119C10.3515 5.29063 10.4922 5.06945 10.6827 5.05717C10.8731 5.0449 11.041 5.24618 11.0578 5.50674ZM10.9484 7.58812C10.2185 7.68241 9.38387 7.871 9.02765 8.01767L8.89844 8.07355L9.13941 8.33547L9.37688 8.5974L9.45371 9.02346C9.49911 9.25744 9.54451 9.46 9.56198 9.47047C9.57118 9.47738 9.63045 9.52979 9.71177 9.60172L9.71179 9.60173L9.85184 9.72541C9.99851 9.85463 10.1312 9.9594 10.1452 9.9594C10.1627 9.9594 10.456 9.83717 10.7983 9.687L11.4199 9.41809L11.4723 9.24347C11.5037 9.13521 11.6469 8.89424 11.8599 8.5974C12.045 8.33897 12.2161 8.098 12.2371 8.06657C12.272 8.01767 12.4641 7.96878 13.0054 7.8675C13.6445 7.74877 13.8785 7.6894 13.7213 7.6894C13.6934 7.6894 13.5223 7.66495 13.3407 7.63352C12.9495 7.56717 11.3326 7.53573 10.9484 7.58812ZM15.0003 8.90251C15.168 9.22381 15.367 9.58701 15.4369 9.70225C15.5102 9.82099 15.5556 9.93624 15.5451 9.95719C15.5242 9.98513 15.4508 9.98164 15.2623 9.94322C15.1226 9.91528 15.0038 9.89433 15.0003 9.89782C14.9968 9.90481 14.9445 10.0131 14.8851 10.1458C14.7454 10.4496 14.48 10.7185 14.2006 10.8338L13.998 10.9211L14.019 11.4449C14.04 11.9129 14.1063 12.6847 14.1727 13.1981L14.1971 13.3797L14.6476 12.8209L15.0981 12.2621L14.8991 11.651C14.7873 11.3122 14.7035 11.0293 14.714 11.0223C14.7314 11.0014 16.1703 12.2656 16.1703 12.3005C16.1703 12.318 16.048 12.5171 15.8979 12.7441C15.7477 12.9711 15.5137 13.3273 15.3775 13.5403L15.1261 13.9245L15.175 14.3785L15.1842 14.4602L15.1842 14.4604C15.2095 14.6843 15.2351 14.9114 15.2413 14.9861C15.2553 15.0909 15.2204 15.3074 15.1365 15.6601C15.0702 15.95 15.0178 16.1979 15.0248 16.2154C15.0318 16.2364 15.1645 16.0722 15.3181 15.8557C15.398 15.7432 15.5523 15.528 15.7335 15.2751L15.7337 15.2749C15.9013 15.0411 16.0919 14.7752 16.268 14.5286L16.9386 13.5997L16.7989 12.978L16.6592 12.3564L16.764 12.1329C16.8198 12.0107 16.8687 11.8919 16.8687 11.8675C16.8687 11.8465 16.7116 11.5252 16.516 11.1516C16.3239 10.7814 16.1703 10.4741 16.1772 10.4671C16.1842 10.4601 16.5509 10.6871 16.991 10.97L17.262 11.1437L17.2621 11.1437C17.7569 11.4609 17.8754 11.5368 17.8827 11.5273C17.885 11.5243 17.8763 11.5128 17.8649 11.4977C17.8591 11.4901 17.8527 11.4816 17.8466 11.4729C17.8186 11.4344 17.6999 11.2703 17.5846 11.1097C17.0678 10.3937 16.7465 9.78257 16.7046 9.43684L16.6836 9.26222H16.977C17.7174 9.25873 18.5031 9.14348 18.9292 8.96887C19.0933 8.90251 19.1457 8.89553 19.1597 8.93045C19.1911 9.00728 19.1108 9.23428 18.9816 9.45081C18.9152 9.56256 18.8593 9.66034 18.8593 9.67082C18.8593 9.67781 18.9082 9.65685 18.9676 9.62193C19.1213 9.53113 19.3448 9.27968 19.4181 9.11205C19.488 8.95839 19.5753 8.53233 19.5438 8.50439C19.5334 8.49391 19.3343 8.51836 19.0968 8.55677C18.4018 8.67202 17.7558 8.71742 17.1132 8.68599C16.7954 8.67202 16.4671 8.65805 16.3798 8.65805L16.2226 8.65107L16.1982 8.9968C16.1842 9.18539 16.1668 9.34953 16.1563 9.36001C16.1458 9.36699 16.0864 9.33905 16.0236 9.29016C15.9607 9.24127 15.6359 9.00379 15.3007 8.75933L14.693 8.31231L15.0003 8.90251ZM6.86305 9.18905C7.07608 9.00396 7.27165 8.87125 7.76756 8.57441C7.93868 8.47313 8.08885 8.39979 8.09933 8.40678C8.10631 8.41725 7.89677 8.64775 7.62786 8.92364C7.35896 9.19604 7.06211 9.49987 6.97131 9.59765C6.83511 9.74782 6.77923 9.78275 6.65002 9.8037C6.4789 9.82815 6.15062 9.77227 5.99346 9.69195L5.89219 9.63956L5.91663 9.74084C5.9306 9.79322 5.98648 9.91545 6.04585 10.0097C6.10173 10.104 6.14363 10.1844 6.13665 10.1948C6.08426 10.2472 5.6582 9.55924 5.6582 9.41955C5.6582 9.39859 5.77345 9.38811 5.976 9.39859C6.51382 9.41955 6.63605 9.38811 6.86305 9.18905ZM6.99587 10.0225C6.97143 10.04 6.91904 10.246 6.88063 10.487C6.84221 10.7245 6.7584 11.2239 6.68855 11.5975C6.6222 11.9712 6.56981 12.282 6.5768 12.2855C6.58029 12.289 6.73395 12.1214 6.91206 11.9118C7.09366 11.7023 7.24732 11.5312 7.25431 11.5312C7.26129 11.5312 7.41844 11.6255 7.60004 11.7442C7.78514 11.8595 7.94229 11.9503 7.94927 11.9433C7.95626 11.9328 7.90387 11.7512 7.83403 11.5347L7.70481 11.14L7.88991 10.9794L8.075 10.8222L7.88641 10.7629C7.54417 10.6581 7.32764 10.4625 7.20891 10.1447C7.15303 9.99805 7.09017 9.96313 6.99587 10.0225ZM9.57975 10.6587C9.62515 10.6587 11.2176 10.1523 11.3329 10.0999C11.4691 10.0406 11.518 10.0685 11.8218 10.4038C11.9929 10.5923 12.1571 10.7739 12.185 10.8054C12.2234 10.8473 12.3771 10.8927 12.625 10.9381L13.0092 11.0079L13.4632 11.4619C13.7111 11.7099 13.9032 11.9229 13.8893 11.9369C13.8753 11.9508 13.6273 11.86 13.3375 11.7343L12.8101 11.5073L12.2828 11.7169L12.2022 11.7484C11.7196 11.9374 11.5304 12.0115 11.5216 11.994C11.5159 11.9828 11.585 11.9335 11.6988 11.8526L11.7275 11.8321L11.9126 11.6994L11.8288 11.5527C11.8107 11.5196 11.7732 11.4528 11.726 11.3687L11.726 11.3686C11.6637 11.2576 11.5845 11.1166 11.511 10.9835L11.27 10.5609L10.9871 10.6622C10.8335 10.7216 10.4458 10.8647 10.128 10.98C9.81373 11.0987 9.53784 11.193 9.51688 11.193C9.49593 11.193 9.32132 11.1022 9.12575 10.9905L8.76953 10.7879L8.91621 10.6936C9.04193 10.6133 9.22004 10.4177 9.40862 10.1558C9.45402 10.0894 9.45752 10.0894 9.61816 10.1837L9.7823 10.278L9.65658 10.4457C9.52387 10.6308 9.51339 10.6587 9.57975 10.6587ZM6.48237 13.7213C6.44395 13.8086 6.41602 13.8994 6.41602 13.9204C6.41602 13.9413 6.61158 14.4547 6.84906 15.0589C7.13194 15.7783 7.2856 16.1275 7.29258 16.0681C7.29957 16.0193 7.27862 15.7154 7.25417 15.3906L7.20178 14.7969L6.89446 14.1753C6.72334 13.8366 6.57666 13.5572 6.56618 13.5572C6.55571 13.5572 6.51729 13.6305 6.48237 13.7213ZM9.49999 15.9449L9.94352 15.7283C10.1845 15.6096 10.3905 15.5118 10.3975 15.5118C10.415 15.5118 10.7921 15.7528 10.7921 15.7633C10.7921 15.7662 10.7854 15.803 10.7744 15.8627C10.7592 15.9449 10.7361 16.0706 10.7118 16.2103C10.635 16.6084 10.6315 16.6782 10.6699 17.0205C10.6909 17.2265 10.7153 17.4046 10.7293 17.4151C10.7398 17.4256 10.876 17.1392 11.0331 16.7795C11.1903 16.4163 11.3335 16.1125 11.3474 16.095C11.3614 16.0811 11.4103 16.1893 11.4557 16.3325C11.5011 16.4792 11.55 16.6049 11.5605 16.6119C11.5744 16.6189 11.7875 16.3989 12.0319 16.123C12.2799 15.8436 12.4824 15.6201 12.4859 15.6271C12.4887 15.6299 12.5484 15.7419 12.6301 15.8951L12.692 16.0112L12.8875 16.3849L12.8351 16.7341C12.7723 17.1602 12.7024 17.4466 12.5837 17.7469C12.4719 18.0298 12.231 18.4523 12.1926 18.4314C12.1751 18.4209 12.0179 18.1834 11.8363 17.904C11.5779 17.5024 11.5046 17.4081 11.4871 17.4605C11.4731 17.4989 11.4033 17.7748 11.33 18.0752L11.1973 18.6235L10.5128 18.599C10.1391 18.585 9.80382 18.5606 9.77239 18.5466C9.74096 18.5292 9.60476 18.3685 9.47206 18.1939C9.44181 18.1533 9.41401 18.1163 9.38851 18.0823L9.3885 18.0822C9.22119 17.8592 9.15237 17.7674 9.13359 17.6664C9.12047 17.5958 9.13177 17.5206 9.15098 17.393C9.15524 17.3647 9.15988 17.3338 9.16473 17.2999C9.2241 16.9052 9.31141 16.5211 9.43364 16.1544L9.49999 15.9449ZM14.0001 6.14801C14.1904 6.20017 14.4025 6.03137 14.4739 5.77099C14.5453 5.5106 14.4489 5.25724 14.2586 5.20509C14.0683 5.15293 13.8562 5.32173 13.7848 5.58211C13.7135 5.84249 13.8099 6.09586 14.0001 6.14801Z" fill="#F04923"/>
<path fill-rule="evenodd" clip-rule="evenodd" d="M13.4324 4.58685C12.8561 5.25737 12.3742 5.80217 12.3602 5.79868C12.3462 5.79169 11.9307 5.29229 11.4382 4.68812C10.9458 4.08396 10.5198 3.56709 10.4953 3.53916C10.4569 3.50074 10.415 3.60202 10.2509 4.11539C9.70257 5.84408 9.56288 6.25966 9.53843 6.25966C9.52446 6.25966 9.26953 6.08156 8.97268 5.86154C8.64091 5.61359 8.43137 5.48088 8.42439 5.50882C8.41391 5.54723 8.5536 6.45523 8.61297 6.74859L8.63043 6.83939L8.95173 6.75557C9.41271 6.64032 10.174 6.5146 10.7398 6.46571C11.2078 6.42729 12.0808 6.43777 12.3742 6.49015C12.6012 6.53206 12.5139 6.57397 12.1996 6.57397C10.9738 6.57746 9.44763 6.80097 8.79108 7.07337C8.66885 7.12575 8.66536 7.12925 8.70377 7.26195C8.72123 7.33529 8.74219 7.39815 8.74917 7.40514C8.75266 7.40863 8.96919 7.35974 9.22413 7.29339C10.5756 6.94415 12.2135 6.86383 13.6349 7.08385C13.8235 7.11179 13.9876 7.12575 13.9981 7.11528C14.0086 7.1048 13.9911 7.09782 13.9597 7.09782C13.9283 7.09782 13.8968 7.08385 13.8864 7.06988C13.8724 7.04543 13.9178 6.80097 14.0226 6.34348C14.033 6.29808 14.0749 6.25966 14.1343 6.24919C14.3892 6.19331 14.6302 5.93488 14.6582 5.69042C14.6826 5.49834 14.5848 5.29928 14.3927 5.13863L14.253 5.01989L14.3264 4.55542C14.3683 4.30397 14.4137 4.09443 14.4242 4.09443C14.4346 4.09443 14.5324 4.3354 14.6407 4.62526C15.0109 5.61708 15.5487 7.04543 15.5592 7.05591C15.5662 7.06289 15.7966 6.93368 16.0725 6.76954C16.3624 6.59842 16.5754 6.49015 16.5824 6.5146C16.5859 6.53905 16.5056 6.81494 16.4043 7.13274C16.2665 7.55106 16.2258 7.67464 16.27 7.72824C16.2885 7.75071 16.3219 7.76088 16.3694 7.77532C16.3721 7.77622 16.3746 7.77712 16.3771 7.778C16.3877 7.78172 16.3968 7.78491 16.4055 7.78422C16.4581 7.7801 16.4998 7.63639 16.7916 6.63005L16.8129 6.55651C16.8984 6.25746 16.9884 5.95609 17.0339 5.80393L17.0574 5.72534L17.1063 5.5612L16.9107 5.67296C16.8368 5.71221 16.6652 5.81254 16.4685 5.9275C16.3678 5.98639 16.2604 6.04918 16.1564 6.10949C15.8525 6.2876 15.5906 6.43428 15.5766 6.43428C15.5592 6.43428 15.5242 6.36792 15.4963 6.28411C15.3846 5.96631 14.8293 4.36334 14.6651 3.88489L14.5818 3.64899C14.5253 3.48896 14.486 3.37744 14.4835 3.37502C14.48 3.37152 14.0051 3.91632 13.4324 4.58685ZM10.89 5.12466C11.0331 5.24689 11.082 5.38659 11.0646 5.62057C11.0506 5.7882 11.0296 5.8336 10.9354 5.91742C10.8061 6.03266 10.6944 6.04314 10.5687 5.94186C10.3172 5.7428 10.2893 5.31674 10.5198 5.12466C10.649 5.01291 10.7607 5.01291 10.89 5.12466ZM14.4067 5.29579C14.7175 5.61009 14.3613 6.27712 13.9632 6.12346C13.6978 6.02219 13.6978 5.49136 13.9632 5.28182C14.0889 5.18054 14.2984 5.18752 14.4067 5.29579ZM14.1903 9.5664C14.0576 9.6118 14.0402 9.62926 14.0402 9.72355C14.0402 9.96801 13.8551 10.1706 13.6316 10.1706C13.5198 10.1706 13.3277 10.0623 13.2684 9.96452C13.2265 9.90166 13.2195 9.90166 13.0658 9.95404C12.9785 9.98547 12.8982 10.0169 12.8912 10.0204C12.8563 10.0414 13.0903 10.2928 13.23 10.3836C13.5408 10.5792 13.869 10.5512 14.11 10.3103C14.2637 10.1566 14.365 9.87721 14.3475 9.65371L14.337 9.51751L14.1903 9.5664ZM7.70168 10.1019C7.64231 9.98669 7.63183 9.76319 7.68422 9.63397C7.7028 9.5833 7.71239 9.55713 7.72999 9.54955C7.74878 9.54146 7.77669 9.55454 7.83439 9.58159C7.91122 9.61651 7.9182 9.63746 7.90074 9.77017C7.89027 9.88891 7.90074 9.93431 7.96011 9.99368C8.0544 10.088 8.20807 10.088 8.3268 9.99368C8.41062 9.93082 8.43157 9.92383 8.52237 9.96225C8.64111 10.0111 8.6446 10.0251 8.57476 10.1264C8.36522 10.4232 7.85883 10.4093 7.70168 10.1019Z" fill="#FEDF00"/>
<path fill-rule="evenodd" clip-rule="evenodd" d="M13.3759 7.83122C13.2117 7.86614 12.9184 7.92202 12.7193 7.95694C12.5202 7.99187 12.3421 8.03028 12.3212 8.04425C12.2863 8.0652 12.2618 8.27824 12.2094 8.98368L12.1885 9.28053L12.3596 9.4272L12.5307 9.57388L13.3095 9.28402C13.7391 9.12687 14.1512 8.9767 14.221 8.95225L14.3537 8.91034L14.8601 9.31196C15.1395 9.53547 15.3735 9.71707 15.3839 9.71707C15.3944 9.71707 15.3211 9.57039 15.2233 9.39228C15.0941 9.1548 14.7099 8.40396 14.6471 8.25728C14.6436 8.2503 14.2804 8.3411 13.8368 8.45634C13.3933 8.57508 13.0231 8.66937 13.0092 8.66937C12.9812 8.66937 13.1384 8.48428 13.5121 8.07917L13.5363 8.05255C13.6813 7.89357 13.7535 7.81436 13.7372 7.78601C13.721 7.75786 13.6176 7.77984 13.4115 7.82366L13.3759 7.83122ZM8.92005 8.32038C8.94798 8.52991 8.94449 8.53341 8.53938 8.40768L8.26 8.32038L8.05745 8.52293C7.79902 8.77438 6.86657 9.75222 6.88403 9.75222C6.90149 9.75222 7.29612 9.46935 7.55455 9.27028C7.66282 9.18996 7.76409 9.12361 7.77806 9.12361C7.79552 9.12361 8.05745 9.25631 8.36477 9.42045C8.6686 9.58459 8.92005 9.7173 8.92703 9.7173C8.92963 9.7173 8.93417 9.66692 8.94065 9.59503L8.94065 9.59503L8.94065 9.595L8.94065 9.59499L8.94798 9.51475C8.95846 9.34362 8.99338 9.25282 9.16102 8.96995L9.36008 8.6277L9.14355 8.38673C9.02831 8.25402 8.92354 8.14576 8.91306 8.14576C8.90608 8.14576 8.90608 8.22259 8.92005 8.32038ZM17.7235 11.2543C17.2625 10.6327 16.8504 9.92722 16.7806 9.63736C16.7666 9.58497 16.7631 9.54307 16.7701 9.54307C16.7806 9.54307 16.8469 9.63736 16.9168 9.75261C17.1752 10.1717 17.734 10.6676 18.2893 10.9679C18.5232 11.0937 18.5302 11.1041 18.6909 11.4289C19.0611 12.1763 19.4173 13.21 19.5744 13.9923C19.7106 14.6803 19.7875 15.4451 19.7176 15.4451C19.6967 15.4451 19.3928 15.3473 19.0436 15.2285C18.6944 15.1098 18.401 15.019 18.3905 15.026C18.3835 15.0365 18.3975 15.1552 18.422 15.2879C18.5791 16.0842 18.7991 17.4706 18.7747 17.4951C18.7712 17.502 18.6315 17.4462 18.4709 17.3693C17.9191 17.1144 17.3079 16.9433 16.7422 16.8839L16.4907 16.8595L16.6968 16.388C16.812 16.1296 16.8993 15.9061 16.8958 15.8921C16.8679 15.8083 15.2719 16.7861 14.9227 17.1039C14.4128 17.5614 13.8331 18.8291 13.5362 20.1317C13.5188 20.2156 13.0927 20.5019 12.066 21.1236C11.9996 21.162 11.5805 21.141 9.97058 21.0153L9.65627 20.9909L9.13941 20.5997C8.71684 20.2819 8.62604 20.1981 8.64001 20.1422C8.65048 20.1038 8.67144 19.9467 8.68192 19.793C8.69588 19.6393 8.71684 19.4927 8.72732 19.4717C8.74128 19.4438 8.79716 19.5311 8.86002 19.6777C8.86828 19.6972 8.8757 19.7154 8.8826 19.7322L8.88261 19.7322C8.91048 19.8002 8.92987 19.8476 8.96222 19.8831C9.0362 19.9643 9.17798 19.9838 9.64399 20.0479L9.79596 20.0689C10.7389 20.1981 11.0637 20.2295 11.4618 20.2295H11.8215L12.1603 19.8524C12.5723 19.3984 12.9006 18.9828 13.166 18.5881C13.2055 18.5293 13.2405 18.4786 13.2719 18.4331C13.3395 18.3352 13.3902 18.2616 13.4326 18.1835C13.5606 17.9472 13.6114 17.6691 13.816 16.5504L13.816 16.5504C13.8461 16.386 13.8795 16.2035 13.9169 16.0003L14.081 15.1028L13.8296 14.3904C13.6934 13.9993 13.5677 13.6605 13.5537 13.6326C13.5223 13.5837 13.4105 13.5592 12.2126 13.3462C11.7761 13.2694 11.3989 13.21 11.378 13.217C11.357 13.224 11.7272 13.4091 12.2022 13.6291L13.0613 14.0272L12.974 14.1215L12.9681 14.1275C12.9136 14.183 12.8752 14.2221 12.8288 14.2439C12.7186 14.2957 12.5629 14.2505 12.0378 14.0981L12.0101 14.0901C11.7019 13.9993 11.2225 13.8608 10.8263 13.7463L10.5293 13.6605C10.1068 13.5418 9.75405 13.4405 9.75056 13.4335C9.74358 13.43 9.79247 13.1506 9.86232 12.8154C9.93216 12.4801 9.98804 12.1972 9.98804 12.1867C9.98804 12.1623 10.5154 11.9423 10.5293 11.9597C10.5363 11.9667 10.4909 12.1379 10.4281 12.3369C10.3617 12.5395 10.3163 12.7106 10.3233 12.7176C10.3303 12.7246 10.5224 12.6093 10.7459 12.4591C10.9729 12.3055 11.2278 12.1553 11.3151 12.1204C11.4024 12.0855 11.7726 11.9423 12.1428 11.8026L12.8133 11.5442L13.3651 11.7816C13.6689 11.9109 13.9413 12.0331 13.9728 12.0505C14.0147 12.0785 14.0391 12.2391 14.0915 12.7769L14.1579 13.4719L14.6957 14.2821L15.2335 15.0923L15.0868 15.7384C15.0065 16.0911 14.9471 16.4055 14.9541 16.4369C14.9611 16.4718 15.45 16.0737 16.4488 15.2146C17.266 14.5126 17.9645 13.9085 17.9994 13.8735L18.0069 13.8665C18.0156 13.8584 18.0231 13.8513 18.0293 13.8432C18.0711 13.7891 18.0534 13.6891 17.9168 12.9173L17.9168 12.9173L17.9168 12.9173L17.9168 12.9173L17.8981 12.8119L17.8003 12.2566L17.8702 11.9039L17.9435 11.5511L17.7235 11.2543ZM13.5432 12.8922C13.6131 12.8677 13.3546 12.3369 13.2114 12.2112C13.0543 12.075 13.0124 12.0645 13.0368 12.1693C13.0473 12.2147 13.0683 12.3055 13.0787 12.3753L13.1032 12.5011L12.6177 12.543C11.832 12.6093 11.6958 12.6233 11.7132 12.6407C11.7447 12.6757 13.4873 12.9131 13.5432 12.8922ZM7.28517 11.6466C7.20485 11.8946 7.05118 12.4533 7.06166 12.4568C7.06865 12.4638 7.28517 12.5092 7.5436 12.5616C7.80203 12.6175 8.03602 12.6734 8.06395 12.6873C8.12682 12.7223 8.10586 12.7292 7.50868 12.8445C7.41036 12.8644 7.31559 12.8833 7.23454 12.8995L7.23407 12.8996L7.23396 12.8996L7.23358 12.8997L7.2335 12.8997C7.10204 12.926 7.00692 12.9449 6.99182 12.9493C6.96388 12.9597 6.99182 13.0331 7.08262 13.1797L7.21183 13.3928L7.60995 13.3893C7.82997 13.3858 8.02205 13.3753 8.03951 13.3648C8.05348 13.3544 8.06745 13.3613 8.06745 13.3823C8.06745 13.3998 7.92775 13.4975 7.75663 13.5953L7.44232 13.7769L7.53662 13.9306C7.589 14.0144 7.64138 14.0843 7.65885 14.0843C7.6798 14.0843 9.08022 13.3928 9.10815 13.3683C9.12212 13.3544 9.04878 12.2822 9.02434 12.174C9.01386 12.1146 8.94402 12.0657 8.77638 11.9889C8.65066 11.9295 8.53891 11.8911 8.53192 11.8981C8.52145 11.9051 8.55637 12.0552 8.60177 12.2298C8.65066 12.4045 8.67511 12.5476 8.66114 12.5476C8.64717 12.5476 8.50748 12.4394 8.35032 12.3102C8.19666 12.1775 7.93125 11.9854 7.76362 11.8806L7.73431 11.8626L7.73431 11.8626C7.30247 11.5976 7.29884 11.5954 7.28517 11.6466ZM5.11959 15.1589C5.16499 14.8411 5.41294 13.769 5.51771 13.4407C5.57708 13.2521 5.63296 13.1054 5.63994 13.1124C5.64693 13.1194 5.62946 13.3674 5.60502 13.6607C5.55962 14.1601 5.55962 14.202 5.61549 14.2719C5.96473 14.7154 7.28132 16.2834 7.30577 16.2834C7.34419 16.2834 7.3372 16.011 7.28482 15.3754C7.25688 15.0786 7.23942 14.8306 7.24291 14.8272C7.24989 14.8202 7.34419 14.8341 7.45594 14.8586L7.65849 14.897L8.07408 15.5291C8.39188 16.018 8.48268 16.1822 8.4722 16.2485C8.46435 16.2852 8.42704 16.4966 8.37943 16.7664L8.3794 16.7665L8.37938 16.7667L8.32902 17.0518C8.25917 17.4464 8.19282 17.8096 8.17885 17.862C8.15789 17.9493 8.12646 17.9074 7.89597 17.4429L7.64103 16.926L7.13465 16.6187C6.85876 16.4476 6.62477 16.3184 6.61779 16.3254C6.6108 16.3323 6.69811 16.5104 6.81336 16.7165C6.9286 16.926 7.01591 17.1006 7.00892 17.1076C7.00194 17.1181 6.88669 17.1006 6.75399 17.0727C6.62128 17.0448 6.36634 17.0133 6.19173 16.9994C5.94377 16.9819 5.86694 16.961 5.86694 16.9225C5.86694 16.8946 5.91583 16.5943 5.9752 16.2555C6.12886 15.358 6.14982 15.2288 6.13934 15.2148C6.12537 15.2043 5.63296 15.2462 5.26277 15.2881L5.09863 15.3091L5.11959 15.1589ZM8.70675 14.2154C8.29815 14.4215 7.96289 14.6031 7.96289 14.6205C7.96289 14.6415 8.08512 14.8475 8.23529 15.085L8.5042 15.5146L8.52864 15.3679C8.54261 15.2841 8.56706 15.064 8.58452 14.8755C8.60198 14.6904 8.62643 14.5227 8.6404 14.5088C8.65437 14.4948 9.00709 14.4843 9.42268 14.4878C10.0303 14.4913 10.3167 14.5088 10.8755 14.5856C11.2596 14.6345 11.5774 14.6834 11.5844 14.6904C11.5914 14.6974 11.6158 14.9732 11.6403 15.3015C11.6612 15.6298 11.6892 15.8987 11.6997 15.8987C11.7311 15.8952 12.468 14.7637 12.44 14.7567C12.4319 14.7527 12.2085 14.6815 11.8687 14.5734L11.8684 14.5733C11.6229 14.4952 11.3168 14.3977 10.9872 14.2922C10.2015 14.0443 9.53443 13.8382 9.503 13.8382C9.47157 13.8417 9.11186 14.0094 8.70675 14.2154ZM9.15722 19.3646C9.12928 19.3471 9.08039 19.1131 9.03149 18.7813L8.95117 18.2296L9.04197 18.3378C9.39999 18.7613 9.51832 18.9163 9.67497 18.9918C9.78573 19.0451 9.91565 19.0586 10.163 19.0991C10.4773 19.1515 11.2526 19.148 11.3958 19.0922C11.4237 19.0817 11.4901 18.9141 11.546 18.708C11.6018 18.5089 11.6577 18.3448 11.6682 18.3448C11.6822 18.3448 11.7869 18.5578 11.9057 18.8198L12.1222 19.2947L12.0069 19.396C11.6822 19.6824 11.6682 19.6893 11.092 19.6998C10.6694 19.7103 10.4843 19.6998 10.163 19.6405C9.78234 19.5706 9.255 19.4274 9.15722 19.3646Z" fill="white"/>
</g>
<defs>
<linearGradient id="paint0_linear_2372_2389" x1="0" y1="0" x2="24" y2="24" gradientUnits="userSpaceOnUse">
<stop stop-color="#F9E6B3"/>
<stop offset="1" stop-color="#F0C36F"/>
</linearGradient>
<clipPath id="clip0_2372_2389">
<rect width="24" height="24" fill="white"/>
</clipPath>
</defs>
</svg>
