<svg width="24" height="24" viewBox="0 0 24 24" fill="none" xmlns="http://www.w3.org/2000/svg">
<g clip-path="url(#clip0_720_12201)">
<path fill-rule="evenodd" clip-rule="evenodd" d="M12 24C5.4 24 0 18.6001 0 11.9402C0.06 5.34039 5.4 -0.0595034 12.06 0.000495202C18.66 0.0604941 24 5.40039 24 12.1202C23.94 18.6601 18.6 24 12 24Z" fill="white"/>
<path fill-rule="evenodd" clip-rule="evenodd" d="M11.6573 1.03354C11.2531 1.135 11.0466 1.33115 10.8394 1.8103C10.7661 1.97976 10.496 2.54982 10.2393 3.07709L9.77241 4.03577L9.77375 4.25948C9.77595 4.62569 10.017 5.12155 10.3915 5.52998C10.5741 5.72923 10.9839 6.01456 11.2412 6.12162C12.0737 6.46808 13.1485 6.10599 13.7331 5.28207C14.0413 4.84766 14.1816 4.44601 14.1573 4.06741C14.1438 3.85698 14.1159 3.78629 13.7349 2.99625C13.5105 2.531 13.2754 2.02095 13.2124 1.86277C13.1149 1.61763 13.067 1.54423 12.8881 1.36566C12.6998 1.17763 12.6537 1.14903 12.4387 1.08659C12.1111 0.991456 11.8858 0.976181 11.6573 1.03354ZM14.2164 5.70606C13.9552 6.07016 13.7462 6.38247 13.7521 6.40004C13.7616 6.42871 15.6804 7.3445 15.831 7.39234C15.8895 7.41088 15.8904 7.40618 15.8477 7.30545C15.7554 7.0878 14.7256 5.04195 14.7089 5.04297C14.6993 5.04354 14.4777 5.34192 14.2164 5.70606ZM8.75804 6.15243C8.27886 7.16803 8.23035 7.28102 8.27465 7.27799C8.33776 7.27364 10.1825 6.42968 10.1916 6.40099C10.2014 6.36967 9.29388 5.19525 9.2463 5.17777C9.23297 5.17289 9.01328 5.61148 8.75804 6.15243ZM11.1454 7.0114C10.3323 7.13776 9.44131 7.4779 8.57214 7.99376L8.26855 8.17393L11.7757 8.17447C13.7167 8.17476 15.2829 8.16268 15.2829 8.14747C15.2829 8.10539 14.8392 7.77483 14.5468 7.59911C14.0453 7.2977 13.3209 7.07362 12.5918 6.99437C12.1739 6.94896 11.496 6.95692 11.1454 7.0114ZM10.5052 8.87535L7.66111 8.89168L7.52919 8.96224C7.33295 9.06722 7.15237 9.2934 7.02918 9.58861L6.91992 9.85036L9.22385 9.86634C10.491 9.87513 11.5458 9.89395 11.5677 9.90817C11.5994 9.92866 11.6077 10.8823 11.6077 14.5C11.6077 17.4508 11.6188 19.0727 11.639 19.0853C11.6563 19.0959 11.7902 19.1131 11.9366 19.1234C12.2393 19.1448 12.313 19.1198 12.4082 18.9638C12.4689 18.8642 12.4703 18.7614 12.4704 14.3641L12.4705 9.86634L13.581 9.86187C14.1917 9.85941 15.2284 9.84864 15.8848 9.8379L17.0782 9.81841L16.8885 9.52965C16.6812 9.21402 16.5078 9.04648 16.2612 8.92361L16.1009 8.84375L14.7251 8.85139C13.9684 8.85561 12.0694 8.86637 10.5052 8.87535ZM6.86217 10.6325C6.61247 10.6749 6.52402 10.7654 6.30643 11.2012C6.01351 11.7879 5.88741 12.3465 5.8877 13.0565C5.88779 13.3151 5.90943 13.6697 5.93576 13.8444C6.08726 14.8497 6.53817 15.9392 7.12776 16.7248C7.69837 17.4851 8.57083 18.1722 9.43287 18.5402C9.81814 18.7047 10.7656 19.0495 10.9337 19.0864L11.0375 19.1093L11.0177 15.0557C11.0068 12.8263 10.9905 10.9415 10.9814 10.8673C10.9698 10.7728 10.9401 10.7129 10.8825 10.6676C10.8017 10.604 10.7635 10.6028 8.89505 10.6068C7.84728 10.609 6.93248 10.6205 6.86217 10.6325ZM13.5345 10.662C13.2824 10.6773 13.195 10.6948 13.1511 10.7388C13.101 10.7889 13.0921 10.8816 13.0772 11.5057C13.0542 12.4665 13.0574 19.124 13.0809 19.1475C13.1118 19.1785 14.4745 18.6655 14.8517 18.4809C16.2078 17.8173 17.2707 16.6347 17.7831 15.2196C18.0647 14.4417 18.1569 13.9897 18.1805 13.2702C18.2009 12.6503 18.1622 12.3467 17.9961 11.8251C17.8914 11.496 17.6775 11.0344 17.5486 10.8594C17.3909 10.6452 17.4605 10.6526 15.5707 10.6471C14.6304 10.6444 13.7141 10.651 13.5345 10.662ZM18.6752 13.4409C18.5479 14.0346 18.3422 15.1763 18.3594 15.1935C18.3855 15.2196 19.5005 14.9121 19.5011 14.8786C19.5017 14.8423 18.7419 13.2891 18.7236 13.2891C18.7149 13.2891 18.6931 13.3574 18.6752 13.4409ZM5.12362 13.6788C5.091 13.7535 4.93285 14.0938 4.77211 14.435C4.6114 14.7762 4.49118 15.0664 4.50499 15.0797C4.51879 15.0931 4.73858 15.1605 4.99343 15.2296C5.65937 15.4103 5.63255 15.4053 5.63255 15.349C5.63255 15.3222 5.54627 14.9122 5.44082 14.4377C5.33536 13.9633 5.24908 13.5679 5.24908 13.5591C5.24908 13.5502 5.23419 13.543 5.21598 13.543C5.19779 13.543 5.15622 13.6041 5.12362 13.6788ZM19.1353 15.7039C18.2927 15.8906 17.6255 16.5094 17.4262 17.2889C17.3337 17.6507 17.3182 17.904 17.3707 18.1933C17.4382 18.5649 17.5371 18.8002 17.6951 18.9651L17.8318 19.1078L19.2229 19.0979L20.614 19.088L20.7517 18.9912C20.8275 18.9379 20.9323 18.825 20.9847 18.7403C21.0662 18.6085 21.0796 18.5557 21.078 18.3738C21.0755 18.0954 21.0304 17.982 20.4594 16.8192C20.1435 16.1759 19.9553 15.8293 19.8875 15.7656C19.7988 15.6824 19.76 15.6697 19.5717 15.6627C19.4537 15.6584 19.2573 15.6769 19.1353 15.7039ZM4.19397 15.8647C4.09379 15.9163 4.03853 16.0092 3.66407 16.7559C3.0889 17.9029 3.0076 18.1027 3.00095 18.3853C2.99623 18.5862 3.00642 18.6289 3.09264 18.7688C3.15805 18.8749 3.24606 18.9599 3.36286 19.03L3.53606 19.1338L4.70386 19.1319C5.34614 19.1309 5.9426 19.1184 6.0293 19.1042C6.37699 19.0471 6.57442 18.6447 6.57132 17.9994C6.56994 17.708 6.55518 17.6041 6.4851 17.3922C6.23083 16.6233 5.64889 16.0975 4.82785 15.895C4.47489 15.808 4.31876 15.8005 4.19397 15.8647ZM7.24836 17.9769C7.23097 18.0325 7.12488 18.6614 7.08391 18.9516L7.0625 19.1034H7.96801H8.87351L8.2033 18.6048C7.25619 17.9002 7.26957 17.909 7.24836 17.9769ZM15.97 18.4197C15.6009 18.6935 15.2524 18.9487 15.1955 18.9868C15.1386 19.0249 15.0919 19.0632 15.0918 19.072C15.0917 19.0808 15.5049 19.088 16.0101 19.088C16.6033 19.088 16.9276 19.0767 16.9255 19.0561C16.9157 18.9583 16.6705 17.9219 16.6571 17.9219C16.6483 17.9218 16.3391 18.1459 15.97 18.4197Z" fill="black"/>
</g>
<defs>
<clipPath id="clip0_720_12201">
<rect width="24" height="24" fill="white"/>
</clipPath>
</defs>
</svg>
