<svg width="24" height="24" viewBox="0 0 24 24" fill="none" xmlns="http://www.w3.org/2000/svg">
<g clip-path="url(#clip0_935_630)">
<circle cx="12" cy="12" r="12" fill="url(#paint0_linear_935_630)"/>
<path d="M10.115 4.9768C10.9305 4.9768 11.7371 4.95908 12.5526 4.98567C12.8982 4.99453 13.1021 4.8793 13.2351 4.56021C13.3237 4.34748 13.4212 4.09929 13.5896 3.95747C13.7669 3.80678 14.0328 3.70042 14.2633 3.69156C15.2206 3.66496 16.1778 3.67383 17.1351 3.68269C17.7733 3.69156 17.8974 3.91315 17.5961 4.4893C17.2504 5.14521 16.9224 5.80113 16.5413 6.43933C16.364 6.74069 16.3994 6.95343 16.5944 7.2282C17.5606 8.60209 18.5179 9.9937 19.4486 11.3942C19.6081 11.6335 19.6968 11.9792 19.6702 12.254C19.5549 13.1758 19.3688 14.0799 19.227 15.0017C19.1738 15.374 19.0143 15.5779 18.6154 15.6133C18.0127 15.6665 17.4188 15.7729 16.816 15.8527C16.4615 15.897 16.2044 15.9856 16.2222 16.4377C16.231 16.5884 16.0803 16.8011 15.9474 16.8986C14.9369 17.6165 13.9353 18.3522 12.8717 18.9816C12.3841 19.2652 11.7548 19.3273 11.1875 19.4602C9.92888 19.7527 8.66136 20.0364 7.39384 20.32C6.87088 20.4352 6.72019 20.3555 6.53405 19.8414C6.00223 18.37 5.4704 16.9163 4.96516 15.4538C4.8588 15.1524 4.80562 14.8245 4.79675 14.5054C4.77016 13.4417 4.78789 12.3781 4.77016 11.3144C4.77016 10.8889 4.84107 10.4901 5.20449 10.2153C5.41722 10.0557 5.38176 9.87847 5.28426 9.6746C5.00948 9.07187 4.75243 8.46027 4.48652 7.84867C4.3447 7.52957 4.38902 7.27252 4.67266 7.0332C5.31085 6.50137 5.92245 5.95182 6.55178 5.41113C6.8886 5.12749 7.26088 4.95908 7.7218 4.96794C8.51954 4.99453 9.31728 4.9768 10.115 4.9768ZM10.3455 5.74795C9.47683 5.74795 8.59931 5.73909 7.73066 5.75682C7.5268 5.76568 7.29634 5.84545 7.13679 5.96955C6.56951 6.4216 6.03768 6.91797 5.48813 7.37889C5.29312 7.5473 5.23108 7.68912 5.36403 7.9373C5.61222 8.42481 5.82495 8.93005 6.05541 9.42642C6.38337 10.1444 6.36564 10.1621 5.83381 10.7383C5.70972 10.8712 5.61222 11.0928 5.61222 11.2701C5.59449 12.3958 5.60336 13.5126 5.61222 14.6383C5.61222 14.7801 5.63881 14.9308 5.68313 15.0726C6.17064 16.4465 6.66701 17.8204 7.15452 19.1943C7.24316 19.4514 7.36725 19.4957 7.61543 19.4336C8.14726 19.3007 8.67022 19.1588 9.21092 19.0791C11.3825 18.76 13.3503 17.9888 15.0433 16.5706C15.3092 16.349 15.5131 16.1718 15.5042 15.7906C15.4865 15.4361 15.6194 15.1879 16.0626 15.1524C16.6654 15.1081 17.2592 14.984 17.8531 14.9131C18.252 14.8688 18.4913 14.7624 18.5268 14.2926C18.5799 13.681 18.7572 13.0783 18.8193 12.4667C18.8458 12.2008 18.7927 11.8728 18.642 11.6512C17.729 10.2685 16.8072 8.90346 15.841 7.55616C15.5042 7.08638 15.4244 6.69638 15.7613 6.2C16.0272 5.81 16.2222 5.37567 16.4438 4.95908C16.6299 4.59566 16.5856 4.51589 16.1867 4.50702C15.7701 4.49816 15.3535 4.54248 14.9458 4.49816C14.3608 4.42725 13.9974 4.61339 13.8024 5.18067C13.6605 5.615 13.3326 5.77454 12.8717 5.76568C12.0296 5.73022 11.1875 5.74795 10.3455 5.74795Z" fill="white"/>
</g>
<defs>
<linearGradient id="paint0_linear_935_630" x1="45.9184" y1="5.02041" x2="-0.734692" y2="8.93878" gradientUnits="userSpaceOnUse">
<stop offset="0.416666" stop-color="#A46DEF"/>
<stop offset="0.782014" stop-color="#37277A"/>
<stop offset="0.901267" stop-color="#4F389A"/>
<stop offset="1" stop-color="#A86FF3"/>
</linearGradient>
<clipPath id="clip0_935_630">
<rect width="24" height="24" fill="white"/>
</clipPath>
</defs>
</svg>
