<svg width="24" height="24" viewBox="0 0 24 24" fill="none" xmlns="http://www.w3.org/2000/svg">
<path fill-rule="evenodd" clip-rule="evenodd" d="M9.86903 0.155855C5.4118 0.948595 1.69674 4.32892 0.325051 8.83978C0.0748999 9.66248 -0.0136571 10.549 0.00167444 12.0726C0.0267885 14.5302 0.565998 16.5197 1.69138 18.3065L2.37243 19.3876L6.15337 17.1508L9.93455 14.9142L9.98593 19.4571L10.0373 24H11.9507H13.8641V19.5153C13.8641 16.3865 13.9277 15.0306 14.0746 15.0306C14.1901 15.0306 15.8852 15.988 17.8414 17.1584C20.5899 18.8029 21.4673 19.2436 21.7042 19.0985C22.0218 18.9043 23.5802 16.0424 23.4347 15.9207C23.3895 15.8829 20.796 14.3296 17.6715 12.4691L11.9906 9.08652L8.16035 11.3907C6.05372 12.6579 4.22256 13.6947 4.09107 13.6947C3.91108 13.6947 3.87082 13.2338 3.92814 11.8341C3.9937 10.2346 4.08992 9.7919 4.61344 8.68059C7.1651 3.26423 14.2396 2.31386 18.2376 6.85026C19.0058 7.72204 19.7452 9.31382 19.9978 10.6407C20.105 11.2023 20.2133 11.6764 20.2389 11.6943C20.2646 11.7123 21.105 12.2123 22.1065 12.8052L23.9275 13.8835L23.9873 12.3102C24.0692 10.1587 23.7644 8.75196 22.7774 6.7291C21.7515 4.62587 20.6231 3.32397 18.7386 2.0692C16.2419 0.406618 12.7247 -0.35216 9.86903 0.155855Z" fill="url(#paint0_linear_2486_3547)"/>
<defs>
<linearGradient id="paint0_linear_2486_3547" x1="15.0134" y1="2.35483" x2="9.9879" y2="15.5565" gradientUnits="userSpaceOnUse">
<stop stop-color="#7A1DF2"/>
<stop offset="1" stop-color="#FF0083"/>
</linearGradient>
</defs>
</svg>
