<svg width="24" height="24" viewBox="0 0 24 24" fill="none" xmlns="http://www.w3.org/2000/svg">
<g clip-path="url(#clip0_2084_1750)">
<path d="M12 24C18.6274 24 24 18.6274 24 12C24 5.37258 18.6274 0 12 0C5.37258 0 0 5.37258 0 12C0 18.6274 5.37258 24 12 24Z" fill="#0088CC"/>
<path fill-rule="evenodd" clip-rule="evenodd" d="M7.23404 6.00006L16.8404 6C17.1803 6 17.5199 6.04992 17.8748 6.21538C18.3003 6.41369 18.5259 6.72627 18.6839 6.95743C18.6962 6.97542 18.7077 6.99395 18.7184 7.01292C18.9042 7.34372 19 7.7009 19 8.0851C19 8.45017 18.9131 8.8479 18.7184 9.19455C18.7165 9.19791 18.7146 9.20115 18.7127 9.20446L12.6436 19.63C12.5097 19.8599 12.2634 20.0009 11.9974 20C11.7313 19.9991 11.486 19.8562 11.3538 19.6254L5.39606 9.22213C5.39435 9.21932 5.39263 9.21651 5.39092 9.21363C5.25457 8.98895 5.04372 8.64151 5.00683 8.19313C4.97295 7.78078 5.06562 7.36764 5.2728 7.00943C5.47999 6.65116 5.79189 6.36476 6.16705 6.18944C6.5693 6.00147 6.97694 6.00006 7.23404 6.00006ZM11.2553 7.48937H7.23404C6.96985 7.48937 6.86843 7.50564 6.79753 7.53879C6.69947 7.58455 6.61714 7.65985 6.56209 7.75503C6.50703 7.85027 6.48214 7.96062 6.49119 8.0711C6.49639 8.13441 6.5222 8.20683 6.67446 8.45794C6.67764 8.4632 6.68076 8.46852 6.68381 8.47384L11.2553 16.4565V7.48937ZM12.7447 7.48937V16.4959L17.4221 8.46118C17.4748 8.36526 17.5106 8.22665 17.5106 8.0851C17.5106 7.97029 17.4868 7.87058 17.4336 7.76782C17.3778 7.6875 17.3438 7.64499 17.3153 7.61587C17.2909 7.59097 17.2721 7.57764 17.2456 7.56528C17.135 7.51372 17.0218 7.48937 16.8404 7.48937H12.7447Z" fill="white"/>
</g>
<defs>
<clipPath id="clip0_2084_1750">
<rect width="24" height="24" fill="white"/>
</clipPath>
</defs>
</svg>
