<svg width="25" height="24" viewBox="0 0 25 24" fill="none" xmlns="http://www.w3.org/2000/svg">
<g clip-path="url(#clip0_720_12269)">
<path d="M14.7092 8.83772C15.371 7.67509 16.0243 6.50739 16.6972 5.35069C17.1946 4.49567 17.9318 4.01349 18.9428 4.01095C20.6087 4.01095 22.7332 4.01094 24.3992 4.00586C24.3992 4.00586 24.3992 4.09907 24.3941 4.44396C24.3788 5.78539 24.3805 7.5446 24.3941 8.88518C24.3687 8.86061 24.2873 8.87924 23.9763 8.875C22.8747 8.85975 21.7731 8.85976 20.6715 8.88179C20.5817 8.88904 20.4945 8.91551 20.4159 8.95937C20.3372 9.00323 20.2689 9.06346 20.2156 9.13601C18.4953 12.0807 16.7751 15.0263 15.0956 17.9947C14.5304 18.9929 13.7652 19.4963 12.6085 19.4743C11.0137 19.4438 8.90534 19.4522 7.31053 19.4785C7.28303 19.2943 7.27451 19.1077 7.28511 18.9218C7.30714 17.5956 7.29274 16.2686 7.29274 14.8204L4.58106 19.5166L0.397461 17.077C0.931322 16.1448 1.43722 15.2508 1.94651 14.3653C3.20574 12.1621 4.46582 9.96023 5.72675 7.75982C6.21739 6.90394 6.70295 6.04553 7.21393 5.20153C7.68763 4.41853 8.39605 4.01517 9.31971 4.01517C10.9433 4.01517 13.1093 4.02366 14.7329 4.00756C14.7329 4.00756 14.7329 4.11854 14.7329 4.53631C14.71 5.97689 14.7236 7.41746 14.7227 8.85804C13.5101 8.86482 12.2975 8.87924 11.0848 8.87331C10.8086 8.87331 10.651 8.96991 10.5162 9.21227C9.84595 10.3986 9.1604 11.585 8.48248 12.7654C8.14353 13.3586 7.81135 13.9475 7.44019 14.6034C8.72993 14.6034 9.92645 14.6136 11.123 14.5898C11.2721 14.5898 11.4738 14.4348 11.5551 14.2958C12.6119 12.4731 13.6575 10.6537 14.7092 8.83772Z" fill="#1B5AFF"/>
<path d="M19.4942 14.0959C19.484 12.7994 20.5738 11.7003 21.883 11.6876C23.2465 11.6749 24.3659 12.7486 24.3837 14.0858C24.4015 15.423 23.3016 16.5763 21.9788 16.5839C20.5687 16.5924 19.5061 15.5272 19.4942 14.0959Z" fill="#1B5AFF"/>
<path d="M0.87793 8.82372V4.04102H5.61488C5.99367 6.39932 3.37945 9.13895 0.87793 8.82372Z" fill="#1B5AFF"/>
</g>
<defs>
<clipPath id="clip0_720_12269">
<rect width="24" height="24" fill="white" transform="translate(0.397461)"/>
</clipPath>
</defs>
</svg>
