<svg width="24" height="24" viewBox="0 0 24 24" fill="none" xmlns="http://www.w3.org/2000/svg">
<rect width="24" height="24" fill="#121820"/>
<path d="M6.9233 9.66752C8.87352 9.66752 10.4747 10.6946 11.3267 11.3828C11.337 11.393 11.3472 11.393 11.3575 11.393C11.3677 11.393 11.378 11.393 11.3883 11.3828C11.3985 11.3725 11.3985 11.3622 11.3985 11.352C11.3985 11.3417 11.3985 11.3314 11.3883 11.3211C10.6903 10.4789 9.66387 8.88693 9.66387 6.92518C9.66387 3.88498 11.6551 3.97742 11.9528 4.00824C11.9631 4.00824 11.9733 4.01851 11.9836 4.01851C11.9939 4.02878 11.9939 4.03905 11.9939 4.04932V11.9888H4.04929C4.03902 11.9888 4.02876 11.9888 4.01849 11.9785C4.00823 11.9682 4.00823 11.9682 4.00823 11.9579C3.97744 11.6704 3.88506 9.66752 6.9233 9.66752Z" fill="url(#paint0_linear_3470_6687)"/>
<path d="M17.0767 14.3325C15.1265 14.3325 13.5253 13.3054 12.6733 12.6172C12.663 12.607 12.6528 12.607 12.6425 12.607C12.6323 12.607 12.622 12.607 12.6117 12.6172C12.6015 12.6275 12.6015 12.6378 12.6015 12.648C12.6015 12.6583 12.6015 12.6686 12.6117 12.6789C13.3097 13.5211 14.3361 15.1131 14.3361 17.0748C14.3361 20.115 12.3449 20.0226 12.0472 19.9918C12.0369 19.9918 12.0267 19.9815 12.0164 19.9815C12.0061 19.9712 12.0061 19.961 12.0061 19.9507V12.0112H19.9507C19.961 12.0112 19.9712 12.0112 19.9815 12.0215C19.9918 12.0318 19.9918 12.0318 19.9918 12.0421C20.0226 12.3296 20.1149 14.3325 17.0767 14.3325Z" fill="url(#paint1_linear_3470_6687)"/>
<defs>
<linearGradient id="paint0_linear_3470_6687" x1="11.7496" y1="4" x2="3.99484" y2="12.0063" gradientUnits="userSpaceOnUse">
<stop stop-color="#DDDDDD"/>
<stop offset="1" stop-color="#818D8D"/>
</linearGradient>
<linearGradient id="paint1_linear_3470_6687" x1="12.2504" y1="20" x2="20.0052" y2="11.9937" gradientUnits="userSpaceOnUse">
<stop stop-color="#DDDDDD"/>
<stop offset="1" stop-color="#818D8D"/>
</linearGradient>
</defs>
</svg>
