<svg width="25" height="24" viewBox="0 0 25 24" fill="none" xmlns="http://www.w3.org/2000/svg">
<g clip-path="url(#clip0_720_12274)">
<circle cx="12.6406" cy="12" r="12" fill="#FF0000"/>
<path d="M19.4459 8.9493C18.8346 8.524 18.1809 8.07058 17.5414 7.62068C17.5272 7.61014 17.5131 7.59959 17.4954 7.58905C17.4248 7.53633 17.3435 7.48009 17.2446 7.44846L17.2375 7.44494C15.5273 7.0337 13.7888 6.61192 12.1069 6.2042C10.5804 5.83514 9.05752 5.46608 7.53106 5.09702C7.49219 5.08647 7.45332 5.07593 7.41092 5.06538C7.27312 5.02672 7.11411 4.98454 6.9445 5.00563C6.89503 5.01266 6.85263 5.03024 6.81376 5.05484L6.77136 5.08999C6.70423 5.15326 6.66889 5.2341 6.65123 5.27979L6.64062 5.30791V5.46959L6.64769 5.4942C7.61233 8.18306 8.6017 10.9106 9.55574 13.5502C10.2907 15.5818 11.0539 17.6872 11.7995 19.754C11.8454 19.8946 11.9762 19.9859 12.1387 20H12.174C12.326 20 12.4602 19.9262 12.5274 19.8067L15.3259 15.747C16.0079 14.7594 16.6898 13.7682 17.3718 12.7805C17.6509 12.3763 17.9301 11.9686 18.2092 11.5644C18.6686 10.8965 19.142 10.2076 19.612 9.53628L19.6367 9.50113V9.45895C19.6473 9.33593 19.6509 9.08286 19.4459 8.9493ZM16.1669 10.4291C15.5096 10.77 14.8383 11.1215 14.1634 11.4694C14.5556 11.0512 14.9513 10.6294 15.3436 10.2111C15.8347 9.6839 16.3471 9.1391 16.8488 8.60484L16.8594 8.5943C16.9018 8.53806 16.9548 8.48534 17.0114 8.4291C17.0502 8.39044 17.0926 8.35177 17.1315 8.30608C17.393 8.48534 17.658 8.66811 17.9124 8.84737C18.0961 8.97742 18.2834 9.10747 18.4742 9.23752C17.6968 9.63118 16.9195 10.0354 16.1669 10.4291ZM14.4779 10.2603C13.9726 10.8051 13.4496 11.364 12.9302 11.9158C11.9232 10.6997 10.8949 9.46598 9.89848 8.27445C9.4462 7.73316 8.99038 7.18836 8.5381 6.64707L8.53456 6.64355C8.43209 6.52756 8.33316 6.40103 8.23422 6.28152C8.17062 6.20068 8.10348 6.12336 8.03635 6.04251C8.44623 6.14796 8.85964 6.24638 9.26599 6.34128C9.62287 6.42563 9.99389 6.5135 10.3578 6.60489C12.4072 7.10048 14.4602 7.59608 16.5096 8.09167C15.8276 8.81573 15.1422 9.55034 14.4779 10.2603ZM12.7005 17.1108C12.7394 16.7417 12.7818 16.3621 12.8171 15.9896C12.8489 15.6908 12.8807 15.385 12.9125 15.0933C12.962 14.6258 13.015 14.1407 13.0574 13.6662L13.068 13.5819C13.1033 13.2796 13.1387 12.9668 13.1599 12.654C13.1987 12.6329 13.2411 12.6118 13.2871 12.5942C13.3401 12.5696 13.3931 12.5485 13.4461 12.5169C14.2623 12.0916 15.0785 11.6663 15.8983 11.2445C16.7145 10.8227 17.552 10.3869 18.3823 9.95455C17.6262 11.0442 16.8665 12.1443 16.1315 13.2163C15.499 14.1337 14.8489 15.0792 14.2022 16.0106C13.9478 16.3832 13.6828 16.7628 13.432 17.1284C13.1493 17.5361 12.8595 17.9544 12.5769 18.3726C12.6122 17.9508 12.6546 17.5255 12.7005 17.1108ZM7.77487 6.87202C7.72893 6.74548 7.67946 6.61544 7.63706 6.49242C8.5911 7.63826 9.5522 8.79113 10.4886 9.90885C10.9727 10.4888 11.4567 11.0652 11.9408 11.6487C12.0362 11.7577 12.1316 11.8737 12.2235 11.9861C12.3436 12.1302 12.4638 12.2814 12.5945 12.4255C12.5521 12.7875 12.5168 13.1531 12.4779 13.5045C12.4532 13.7506 12.4284 13.9966 12.4002 14.2462V14.2497C12.3896 14.4079 12.3684 14.566 12.3507 14.7207C12.326 14.9351 12.2694 15.4201 12.2694 15.4201L12.2659 15.4447C12.2023 16.1547 12.1246 16.8718 12.0504 17.5677C12.0186 17.8559 11.9903 18.1512 11.9585 18.4464C11.9408 18.3937 11.9196 18.341 11.902 18.2918C11.849 18.1512 11.796 18.0036 11.7465 17.8595L11.3684 16.8155C10.1706 13.501 8.97271 10.19 7.77487 6.87202Z" fill="white"/>
</g>
<defs>
<clipPath id="clip0_720_12274">
<rect width="24" height="24" fill="white" transform="translate(0.640625)"/>
</clipPath>
</defs>
</svg>
