<svg width="24" height="24" viewBox="0 0 24 24" fill="none" xmlns="http://www.w3.org/2000/svg">
<g clip-path="url(#clip0_2378_11278)">
<path d="M24 12C24 18.6274 18.6274 24 12 24C5.37258 24 0 18.6274 0 12C0 5.37258 5.37258 0 12 0C18.6274 0 24 5.37258 24 12Z" fill="url(#paint0_linear_2378_11278)"/>
<path fill-rule="evenodd" clip-rule="evenodd" d="M22.3711 11.9994C22.3711 17.6801 17.766 22.2852 12.0854 22.2852C6.40474 22.2852 1.79967 17.6801 1.79967 11.9994C1.79967 6.3188 6.40474 1.71373 12.0854 1.71373C17.766 1.71373 22.3711 6.3188 22.3711 11.9994ZM22.7997 11.9994C22.7997 17.9168 18.0027 22.7137 12.0854 22.7137C6.16804 22.7137 1.37109 17.9168 1.37109 11.9994C1.37109 6.0821 6.16804 1.28516 12.0854 1.28516C18.0027 1.28516 22.7997 6.0821 22.7997 11.9994ZM17.0432 7.73516C16.9789 7.37087 16.8113 7.14509 15.9717 6.44944C15.2218 5.82801 15.036 4.73516 15.1146 4.28516C14.9646 4.42801 14.7289 4.9623 14.986 5.95658C14.2861 5.71373 12.8175 4.74801 12.5432 2.82801C12.2646 3.06373 11.9432 3.93801 12.8861 5.54944C12.0289 5.47801 10.2461 4.88516 9.97178 3.08516C9.78606 3.51373 9.70606 4.6623 10.8718 5.82801C10.1932 5.87087 8.62605 5.67801 7.78605 4.56373C7.76462 4.56373 8.15033 6.23516 10.5503 6.68516C11.0289 6.74944 12.0418 7.10087 12.2646 7.9923C12.1003 7.82087 11.5918 7.52944 10.8718 7.73516C10.1518 7.94087 9.77892 8.03516 9.67178 8.03516C9.72892 8.09944 9.99749 8.2023 10.7004 8.27087C11.5789 8.35658 11.6861 8.39944 12.0932 8.61373C12.1982 8.66896 12.3045 8.73701 12.42 8.8109C12.7526 9.02366 13.1609 9.28487 13.8289 9.42801C14.5659 9.58593 14.8932 9.90658 14.986 10.0709C14.3932 9.86373 13.0318 9.72373 12.3289 10.8209C12.7718 10.4852 13.9746 9.98087 15.2432 10.6494C15.3361 10.7066 15.5475 10.868 15.6504 11.0566C15.7532 11.2452 15.9789 11.5066 16.0789 11.6137C16.0718 11.7852 15.9504 12.1366 15.5218 12.1709C15.7575 12.2566 16.2846 12.3209 16.5075 11.8923C16.8504 12.0566 17.5189 12.0937 17.4504 10.928C17.3504 11.078 17.0904 11.3609 16.8504 11.2923C16.9146 11.2494 17.0389 11.1166 17.0218 10.928C16.8361 11.0923 16.4261 11.2494 16.2718 10.5637C16.2646 10.428 16.1304 10.0837 15.6504 9.7923C15.0504 9.42801 15.0075 8.91373 15.0289 8.46373C15.0646 8.56373 15.2775 8.73373 15.8432 8.61373C16.0146 8.57736 16.2804 8.62658 16.5718 8.93515L16.5894 8.95385C16.9418 9.3271 17.1176 9.51338 17.7289 9.4923C18.2261 9.47516 18.4789 9.55658 18.5432 9.59944C18.5718 9.6423 18.5904 9.77087 18.4361 9.9423C18.5075 9.95658 18.6846 9.94658 18.8218 9.7923C18.8218 9.92087 18.7789 10.208 18.6075 10.328C18.7575 10.3137 19.0832 10.2252 19.1861 9.98516C19.3289 10.0066 19.6318 9.96801 19.7004 9.6423C19.7689 9.31658 19.5575 9.0923 19.4432 9.02087C19.3932 8.97087 19.0789 8.85373 18.2218 8.78516C17.3646 8.71658 17.0999 8.05658 17.0432 7.73516ZM15.7575 7.30656C15.8861 7.26371 16.22 7.24899 16.3789 7.60656C16.5504 7.9923 16.7432 8.06373 16.8075 8.07803C16.5075 8.14943 15.8775 8.0951 15.7575 7.30656ZM16.0789 9.40658C16.097 9.40373 16.1181 9.40239 16.1416 9.40323C16.1211 9.40346 16.1002 9.40455 16.0789 9.40658ZM16.6789 9.87801C16.5452 9.50647 16.2944 9.40871 16.1416 9.40323C16.4676 9.3996 16.6907 9.61376 16.7646 9.72801C16.8718 9.87801 17.0775 10.1394 17.7289 10.1566C18.3423 10.1727 18.6273 10.4928 18.8406 10.7322C18.9105 10.8106 18.9726 10.8804 19.0361 10.928C19.2418 11.0823 19.5361 11.078 19.6575 11.0566C19.5546 11.2452 19.3146 11.2352 19.2075 11.2066C20.1504 11.8296 19.4646 12.5566 19.4646 12.5352C19.6146 12.1494 19.5504 11.7637 19.1004 11.5709C18.7593 11.4247 18.6644 11.2417 18.5359 10.9937L18.5359 10.9937C18.4948 10.9144 18.4503 10.8286 18.3932 10.7352C18.2046 10.4266 17.8718 10.4209 17.7289 10.4566C18.1404 10.5252 18.2004 10.8423 18.1789 10.9923C18.1718 10.8852 18.0804 10.6709 17.7718 10.6709C17.4632 10.6709 17.2718 10.5994 17.2146 10.5637C17.1004 10.5137 16.8332 10.3066 16.6789 9.87801ZM13.3126 18.0105C13.8855 18.0587 14.4428 18.0172 14.9675 17.8988C14.2336 18.2077 13.3977 18.3499 12.5245 18.2764C9.90296 18.0557 7.93784 15.9754 8.13526 13.63C8.24647 12.3087 9.02023 11.1851 10.1434 10.4952C9.3719 11.1966 8.86409 12.1391 8.77427 13.2062C8.57014 15.6314 10.602 17.7823 13.3126 18.0105ZM13.3789 9.83515C13.4132 9.78372 13.9504 9.72801 14.2146 9.70658C13.7504 9.61372 12.6846 9.3423 12.1361 8.99944C11.5875 8.65658 11.1361 8.57087 10.9789 8.57087C8.39034 9.03373 7.22892 11.3923 6.97178 12.5137C6.35464 15.8909 8.47179 17.7923 9.6075 18.3209C6.95036 16.2637 7.41464 13.3352 7.97893 12.128C9.43607 9.48801 12.1861 9.49943 13.3789 9.83515ZM11.9004 7.56373C11.7361 7.3923 11.1804 7.02801 10.2718 6.9423C9.36322 6.85658 8.96464 6.57801 8.87893 6.44944C7.81464 6.54944 5.48893 7.25516 4.70036 9.27801C4.70226 9.27801 4.71276 9.26621 4.73196 9.24463C4.92924 9.02287 6.04515 7.76851 8.19321 7.67087C6.56464 8.44944 3.58607 11.0394 4.70036 15.1709C4.59321 14.5709 4.67463 13.1394 5.85749 12.2137C5.22178 13.5637 4.71749 16.8637 7.78606 19.2637C7.76464 19.2423 6.67178 18.0423 6.75749 16.928C7.28606 18.1137 9.10178 20.4252 12.1361 20.1852L12.1386 20.1852C12.256 20.1865 15.9446 20.2267 17.4504 15.9852C16.8103 17.078 14.8513 19.2637 12.1361 19.2637C10.6004 19.3066 7.32321 18.3209 6.50035 14.0352C6.33606 12.7637 6.77035 9.86087 9.82178 8.42087C9.63606 8.36373 9.23035 8.1423 9.09321 7.71373C9.34321 7.78516 9.96749 7.86801 10.4646 7.62801C10.9618 7.38801 11.6289 7.48516 11.9004 7.56373ZM12.7789 15.9637C14.0097 15.9637 15.0075 14.966 15.0075 13.7352C15.0075 12.5043 14.0097 11.5066 12.7789 11.5066C11.5481 11.5066 10.5504 12.5043 10.5504 13.7352C10.5504 14.966 11.5481 15.9637 12.7789 15.9637ZM13.0361 14.1209V12.9423H12.1575V12.5137H13.0361V12.0852H13.4646V12.5137H14.3004V12.9423H13.4646V14.1181C13.468 14.2372 13.5035 14.4154 13.5915 14.5569C13.6737 14.6892 13.7963 14.7852 14.0004 14.7852V15.2137C13.6215 15.2137 13.3727 15.0168 13.2275 14.7831C13.0885 14.5595 13.0404 14.2998 13.0361 14.1261L13.0361 14.1235V14.1209ZM11.4075 13.2852H11.2789V13.4137V14.1637H11.5361V13.5423H12.3504V13.9066C12.3504 14.0356 12.2957 14.2175 12.1526 14.3667C12.0125 14.5125 11.7797 14.6352 11.4075 14.6352H11.2789V14.8923H11.4075C11.841 14.8923 12.1439 14.7471 12.3381 14.5447C12.5292 14.3456 12.6075 14.099 12.6075 13.9066V13.4137V13.2852H12.4789H11.4075Z" fill="#835E00"/>
</g>
<defs>
<linearGradient id="paint0_linear_2378_11278" x1="12" y1="0" x2="12" y2="24" gradientUnits="userSpaceOnUse">
<stop stop-color="#CEAF64"/>
<stop offset="1" stop-color="#F0E0A3"/>
</linearGradient>
<clipPath id="clip0_2378_11278">
<rect width="24" height="24" fill="white"/>
</clipPath>
</defs>
</svg>
