<svg width="25" height="24" viewBox="0 0 25 24" fill="none" xmlns="http://www.w3.org/2000/svg">
<g clip-path="url(#clip0_2758_5357)">
<path d="M12.9343 23.9996C19.5616 23.9996 24.9341 18.6271 24.9341 11.9998C24.9341 5.37248 19.5616 0 12.9343 0C6.30705 0 0.93457 5.37248 0.93457 11.9998C0.93457 18.6271 6.30705 23.9996 12.9343 23.9996Z" fill="white"/>
<path d="M10.1723 18.5357C10.1723 18.5357 12.0185 19.2995 13.0413 19.4245C14.064 19.5496 17.8536 19.0782 17.8536 19.0782C17.8536 19.0782 18.488 19.0565 18.8066 18.7261C19.1251 18.3956 19.8889 17.2943 19.9614 16.9894C20.0339 16.6846 20.1394 16.3104 20.0392 16.0961C19.9389 15.8819 19.0301 15.8947 19.0301 15.8947L11.4442 17.7316L10.1719 18.5357H10.1723Z" fill="#F5E8E2"/>
<path d="M11.5049 5.20853L13.9122 8.40882L18.4056 7.95732L19.8851 8.15966C19.8851 8.15966 18.8301 7.03752 18.6053 6.86258C18.3804 6.68763 15.7217 4.99736 15.6727 4.97571C15.6237 4.95406 12.7141 4.55469 12.7141 4.55469L11.5049 5.20809V5.20853Z" fill="#EDDBC7"/>
<path d="M17.7695 14.7643C17.7819 14.6972 18.1512 12.4781 18.1512 12.4781L18.2184 11.2168L20.4136 11.3997L21.0467 12.9711C21.0467 12.9711 20.8254 14.3336 20.6398 14.6724C20.4543 15.0113 19.4081 15.4955 19.4081 15.4955C19.4081 15.4955 18.0938 15.4955 18.0439 15.4208C17.994 15.3462 17.7695 14.7648 17.7695 14.7648V14.7643Z" fill="#FFF5D2"/>
<path d="M18.9152 14.0599C19.2289 13.9632 19.5381 13.8461 19.8575 13.7758C20.5697 13.6844 19.4197 14.8617 20.4897 14.7045C19.1754 17.421 16.2309 17.8977 13.5206 17.7744C12.8522 17.7766 12.4899 17.2182 11.9005 17.1498C11.8891 16.9912 12.1197 16.9068 12.2124 16.7941C11.4044 16.3625 10.2399 16.753 9.80737 15.7352C9.65363 15.3941 9.05059 14.6749 10.049 14.5317C10.9887 14.3948 11.9624 14.1505 12.4413 13.2638C11.5025 13.6331 10.5898 14.245 9.53434 14.0838C10.3251 13.9543 11.0594 13.5956 11.7755 13.247C12.6308 12.7765 13.0024 12.0931 12.6617 11.164C12.6374 11.0363 12.5473 10.8614 12.5999 10.7885C12.8371 10.458 12.8446 10.7814 12.8941 10.9193C12.9692 11.1287 13.0258 11.3447 13.0903 11.5581C13.301 11.2683 13.7203 11.0182 13.4813 10.5994C13.1941 10.0962 13.3527 9.88945 13.8577 9.83423C14.6272 9.74985 15.339 8.97893 16.1823 9.65398C16.3215 9.76531 16.5172 9.65486 16.5662 9.42911C16.5826 9.35312 16.6528 9.22103 16.6762 9.22545C16.8344 9.25726 17.0412 9.08584 17.1547 9.34782C17.1887 9.42646 17.3349 9.49582 17.4295 9.49582C17.4913 9.49582 17.5921 9.3708 17.608 9.28862C17.6795 8.92283 17.9402 9.18171 18.101 9.14195C18.2905 9.09512 18.2017 9.25947 18.1969 9.36108C18.1677 9.98576 17.6619 10.6674 18.4076 11.2033C18.6099 11.6221 19.031 11.7772 19.3848 12.0127C19.4021 12.0608 19.4189 12.1094 19.4361 12.1576C19.0296 12.1563 18.712 11.9177 18.4253 11.6539C18.4474 12.2004 18.6479 12.7147 18.75 13.2475C18.8149 13.5713 18.6373 13.7546 18.3382 13.8403C17.1017 13.293 16.4054 14.4381 15.4472 14.7632C15.0712 14.8626 14.6957 14.962 14.3198 15.061C13.6235 15.0115 12.9953 15.1926 12.4638 15.6481C12.3666 15.7316 12.3397 15.8986 12.288 16.0298C12.2849 16.0382 12.3481 16.0727 12.3803 16.0948C12.436 16.0091 12.4917 15.9234 12.5473 15.8377C14.3772 15.1873 16.2614 14.837 18.124 14.2892C18.522 14.5216 18.9581 14.4549 19.3963 14.4403C19.3146 14.3917 19.2324 14.3431 19.1507 14.2945C19.3309 14.3007 19.5107 14.3069 19.691 14.3131C19.7321 14.3435 19.7727 14.3736 19.8138 14.4041C19.8818 14.2318 19.9729 14.1103 19.7745 13.9844C19.4944 14.078 19.2183 14.2203 18.9161 14.059L18.9152 14.0599ZM14.3153 10.7447C14.2698 10.8609 14.2243 10.9767 14.1788 11.0929C14.4386 11.1335 14.6803 11.2312 14.8309 10.9418C14.6763 10.876 14.5217 10.8101 14.367 10.7443C14.3781 10.6688 14.3887 10.5937 14.3997 10.5181C14.322 10.5323 14.2438 10.5464 14.166 10.5605C14.2159 10.6219 14.2654 10.6833 14.3153 10.7447ZM15.9517 12.0904C16.151 12.1085 16.3507 12.1262 16.5499 12.1443C16.7637 12.2906 16.9736 12.4037 17.1247 12.0692C17.3009 11.9862 17.4768 11.9031 17.653 11.8205C17.6354 11.7525 17.638 11.6433 17.5969 11.6226C17.0955 11.3734 16.7359 12.2945 16.1965 11.7966C16.1147 11.8947 16.033 11.9928 15.9517 12.0909V12.0904ZM14.8654 10.1943C15.2899 10.1832 15.4446 9.93761 15.1278 9.66282C15.1194 9.73306 15.1366 9.83158 15.0973 9.8678C14.9687 9.97516 14.8075 10.0335 14.6798 9.87841C14.6617 9.92745 14.6153 10.007 14.6299 10.0198C14.7147 10.0966 14.8137 10.1581 14.8658 10.1947L14.8654 10.1943ZM16.8379 11.0743C17.0999 10.7443 17.2665 10.618 17.2457 10.5464C17.1565 10.2389 16.7836 10.8433 16.6966 10.3984C16.5389 10.6162 16.7456 10.7611 16.8379 11.0748V11.0743Z" fill="#F7C160"/>
<path d="M11.7744 13.246C11.3843 13.4161 11.0225 13.6666 10.6028 13.7554C10.6324 13.6132 10.5807 13.5774 10.4336 13.5809C9.85223 13.5964 9.2947 13.512 8.73584 13.311C8.4425 13.2054 8.27859 12.3748 7.75243 13.121C7.23554 13.8539 7.39944 15.045 6.26184 15.3622C6.25345 15.3644 6.25257 15.5022 6.28393 15.523C9.60307 18.5196 18.0792 20.1432 20.27 15.1382C20.2846 15.1771 20.2987 15.2155 20.3133 15.2544C20.2068 15.5601 19.8958 15.8141 20.0774 16.1923C19.7208 16.7759 19.3524 17.3484 18.7622 17.7297C18.1896 17.9935 17.5808 18.1887 17.0494 18.5311L17.1435 18.8682C16.9566 19.2428 16.7693 19.6175 16.5824 19.9921C16.5307 20.0168 16.479 20.0411 16.4273 20.0659C17.8499 17.1854 16.475 19.477 11.7837 18.6159C11.0839 18.4591 10.3864 18.2749 9.70865 18.0416C9.05835 17.7536 8.44559 17.2928 7.76568 17.1655C7.36454 17.0887 7.50635 16.9857 7.53109 16.7989C7.75331 16.111 7.10168 16.1972 6.79994 15.9736C5.77765 15.2756 5.81741 16.0743 5.74805 16.7198C5.52008 16.5135 5.29168 16.3072 5.06372 16.1008C5.06902 16.0712 5.07388 16.0416 5.07918 16.012C5.23955 16.1106 5.39948 16.2091 5.55985 16.3076C5.60402 16.0509 5.6482 15.7938 5.69238 15.5371C5.30626 15.5124 4.92942 15.4386 4.55434 15.3454C4.08826 14.9602 3.67563 14.5131 3.23164 14.1022C3.25814 14.0867 3.28465 14.0713 3.31116 14.0558C3.50112 14.3045 3.74234 14.563 4.02066 14.244C4.37233 13.8411 4.20975 13.3578 4.0401 12.9182C3.95484 12.6964 3.75869 12.5604 3.50819 12.6346C3.03592 12.7751 3.10175 13.1815 3.09071 13.5442C3.05183 13.4576 3.01251 13.3711 2.97363 13.2845C3.10794 12.2661 2.838 10.8622 4.42401 10.935C5.91239 11.5111 6.20706 14.3518 4.85431 15.1227C5.42068 15.0026 6.0891 15.4744 6.56535 14.8285C6.89757 14.7468 7.41225 13.284 7.20947 12.9823C6.67535 13.1842 6.71246 14.2564 6.54238 14.7287C6.59539 13.5955 6.32104 12.499 6.18321 11.3817C5.82713 10.1544 6.3798 8.86838 5.82536 7.66893C5.82845 7.61989 5.83154 7.57085 5.83464 7.52181C5.86026 7.50856 5.88544 7.49531 5.91106 7.48205C6.04007 7.7913 6.00031 8.18228 6.1863 8.45752C6.67447 7.16043 6.6568 7.01553 7.67202 6.02593C6.96561 6.95721 6.16863 7.97774 6.24947 9.21385C6.21811 9.25052 6.25168 9.30133 6.25477 9.34329C6.66829 9.45286 6.49334 9.10694 6.56049 8.94834C6.7213 8.50611 6.95412 8.06963 6.66784 7.59206L6.80436 7.57836C6.85781 7.64595 6.90111 7.72548 6.96075 7.78688C7.04159 7.63182 7.12288 7.47719 7.20417 7.32257C7.07031 7.40872 6.93645 7.49486 6.80215 7.58101C6.86576 7.39281 6.92894 7.20505 6.99256 7.01685C7.43832 6.63648 7.89822 6.27289 8.34575 5.89648C8.40583 5.89914 8.46635 5.90179 8.52644 5.90444L8.52423 5.90223C7.22361 6.98769 6.44209 8.62893 6.66254 10.3426C6.69258 10.5617 6.52691 11.0406 7.05308 11.0256C7.12598 11.0234 7.1971 10.9607 7.26911 10.9258C7.11891 11.2094 6.77873 11.4992 7.09019 11.7616C7.28944 11.9207 7.2859 11.5756 7.41623 11.5054C10.4296 8.47563 15.0927 7.44583 19.2446 7.74624C19.6709 7.84078 20.0827 8.063 20.5262 8.02324C20.5342 8.00999 20.5417 7.99717 20.5496 7.98392C21.7853 8.91962 22.1003 11.3084 21.2251 12.9315C21.0294 13.3039 20.968 13.7479 20.812 14.1437C20.7935 13.4523 21.0665 12.852 20.5364 12.2388C20.4586 12.1071 20.41 11.9688 20.3906 11.8169C20.0597 12.1014 19.7725 12.0788 19.3851 12.0099C19.0308 11.7744 18.6102 11.6194 18.4079 11.2006C18.2426 10.5547 18.1127 9.88095 18.3889 9.26201C19.507 7.29076 12.4194 9.38217 11.7046 9.63046C11.6503 9.64768 11.596 9.90834 11.6326 9.93617C12.0682 10.2702 12.4283 10.6607 12.662 11.1608C13.0039 12.089 12.6302 12.7742 11.7758 13.2438L11.7744 13.246ZM3.69595 11.3437C4.06043 11.1776 4.43771 11.2187 4.75933 11.4692C4.79246 11.4952 4.85431 11.4846 4.90247 11.4908C4.90424 11.4656 4.91749 11.4268 4.906 11.417C4.55743 11.121 4.20401 10.8436 3.73439 11.1997C3.17641 11.3344 3.2175 11.9481 3.17465 12.4027C3.28244 12.0227 3.40835 11.6269 3.69595 11.3433V11.3437ZM8.36297 12.787C8.52334 12.931 8.70889 13.0472 8.87854 13.1811C8.68592 12.8299 8.54764 12.4561 8.41422 12.0793C8.40274 11.8805 8.5282 11.6379 8.38551 11.474C8.08774 11.9043 8.06963 12.3452 8.36342 12.7866L8.36297 12.787ZM3.36064 12.4367C4.04099 12.2286 4.57245 12.3002 4.79114 13.1117C4.84813 13.3229 4.67716 13.7355 4.95416 13.7165C5.35176 13.6891 5.28815 13.2496 5.23646 12.9673C5.11276 12.2891 5.05223 11.4705 4.1479 11.4139C3.55546 11.3764 3.42779 11.9512 3.35224 12.4513C3.35489 12.4464 3.35799 12.442 3.36064 12.4371V12.4367ZM17.0304 8.13501C19.0705 7.86508 21.0405 9.21341 20.5518 11.4409C20.4303 12.0461 21.0122 12.4181 21.0466 12.9699C24.1842 5.86247 14.3991 7.54434 10.8016 9.33004C10.746 9.35743 10.7309 9.48953 10.7217 9.57567C10.7195 9.59644 10.8295 9.66271 10.8657 9.64901C11.8473 9.2841 12.8263 8.91123 13.8058 8.54013C14.8678 8.33956 15.9484 8.18935 17.0299 8.13545L17.0304 8.13501ZM11.4886 11.1957C11.7903 11.205 11.9856 11.102 11.9843 10.8701C11.9812 10.3528 11.436 10.3917 11.1595 10.2755C10.9421 10.1845 11.3251 10.545 11.1551 10.7694C11.049 10.9094 11.2872 11.1688 11.4886 11.1953V11.1957ZM12.3642 11.778C12.4499 11.9618 11.9154 12.95 12.2427 12.6911C12.9059 12.2105 12.6023 11.3592 12.2502 10.7809C12.3161 11.1701 12.3859 11.334 12.3642 11.778ZM19.5795 9.8054C19.8057 9.98433 20.0155 10.2688 20.1905 9.80894C20.2112 9.4396 19.5773 9.29956 19.5795 9.8054ZM19.1668 10.9925C19.2888 10.8423 19.3144 10.8162 19.211 10.6832C19.0418 10.7672 19.0878 10.8113 19.1668 10.9925ZM18.6058 9.77536C18.4852 9.91938 18.4724 9.94368 18.5969 10.0479C18.7383 9.9534 18.7286 9.92866 18.6058 9.77536ZM10.4902 12.1243C10.6002 11.9034 10.4902 11.797 10.298 11.9582C10.3333 11.9887 10.3687 12.0196 10.4902 12.1243Z" fill="#593C3D"/>
<path d="M4.42423 10.9352C4.19804 10.9578 3.97229 10.9807 3.74609 11.0033C3.89542 10.8743 4.11764 10.7713 4.18965 10.5805C4.29082 10.0397 4.38227 9.49766 4.47637 8.95559C4.74055 8.27126 4.83112 7.96952 5.34801 7.31921C5.37761 7.2821 5.37805 7.4089 5.39351 7.45352C5.35508 7.56882 5.3162 7.68413 5.27776 7.79943C5.46022 7.75614 5.64312 7.71284 5.82558 7.66911C6.37958 8.86856 5.82735 10.155 6.18342 11.3819C5.71557 10.9202 5.12756 10.3945 4.41275 10.6697C4.70565 10.6251 4.961 10.7205 5.22077 10.846C4.95526 10.8756 4.69019 10.9056 4.42468 10.9352H4.42423ZM5.85032 8.68566C5.7708 8.80582 5.70718 8.89462 5.86711 8.92157C5.98418 8.85884 5.95811 8.79124 5.85032 8.68566ZM5.45359 9.81088C5.37717 9.8882 5.31267 9.96242 5.4399 10.0022C5.55388 9.95623 5.56051 9.91294 5.45359 9.81088Z" fill="#B19E98"/>
<path d="M14.9205 15.0793C14.1288 15.3325 13.3376 15.5856 12.5459 15.8388C12.8971 15.1871 13.7206 15.2596 14.3183 15.0621C14.6943 14.9627 15.0698 14.8633 15.4458 14.7643C16.5644 14.4135 17.5372 13.3453 18.874 14.0676C19.1948 14.1812 19.4749 14.1105 19.7726 13.9855C19.7448 14.095 19.717 14.2046 19.6891 14.3141C18.0483 14.0999 16.4332 14.4356 14.9196 15.0793H14.9205Z" fill="#593C3D"/>
<path d="M16.583 19.9942C16.7699 19.6196 16.9572 19.2449 17.1441 18.8703C17.695 18.6344 18.2463 18.398 18.7972 18.1621C18.8065 18.1732 18.8158 18.1838 18.8255 18.1948C18.6263 18.4775 18.0983 18.6048 18.2512 19.0072C18.2993 19.1345 18.6165 18.6604 18.8662 18.5359C18.8935 18.4859 18.9351 18.432 18.9819 18.3918L18.974 18.3887L19.1268 18.3958C18.4226 19.1575 17.6495 19.8095 16.583 19.9946V19.9942Z" fill="#B19E98"/>
<path d="M8.26905 5.43384C9.6863 4.58384 11.2639 3.92161 12.9246 4.0696C11.1968 4.21451 9.33861 4.6077 8.03711 5.90522C7.97526 5.88755 7.91341 5.86988 7.85156 5.85221C7.99072 5.71305 8.13033 5.57388 8.26905 5.43384Z" fill="#593C3D"/>
<path d="M20.5832 13.2619C20.5597 13.4139 20.63 13.6661 20.4047 13.6158C20.0764 13.5424 19.8317 13.3021 19.7782 12.9456C19.7164 12.404 20.6892 12.6297 20.5832 13.2619Z" fill="#F7C160"/>
<path d="M14.2231 4.14844C16.1789 4.28009 17.7287 5.27013 19.1698 6.48902C19.1543 6.50448 19.1393 6.5195 19.1238 6.53496C17.688 5.3364 16.1237 4.40556 14.2227 4.17362C14.2271 4.16523 14.2275 4.15683 14.2235 4.14844H14.2231Z" fill="#593C3D"/>
<path d="M18.8745 14.0675C17.5377 13.3447 16.5649 14.4134 15.4463 14.7642C16.4045 14.439 17.1003 13.2939 18.3373 13.8413C18.526 13.8881 18.7022 13.9778 18.875 14.0679L18.8745 14.0675Z" fill="#B37E4B"/>
<path d="M4.90431 7.91319C4.88929 7.86857 4.92331 7.77624 4.90829 7.73117C5.47554 7.0897 6.55306 6.12838 7.34297 5.77539C7.34474 5.80146 7.34606 5.82752 7.34783 5.85359C6.82829 6.19376 6.22128 6.4257 5.90408 7.01725C5.6823 7.14758 5.18838 7.58583 4.90387 7.91363L4.90431 7.91319Z" fill="#593C3D"/>
<path d="M20.4328 12.0395C20.4669 12.1067 20.5009 12.1742 20.5353 12.2414C20.0321 12.5462 19.529 12.578 19.0479 12.1818C19.0708 12.1601 19.0934 12.1385 19.1159 12.1164C19.5793 12.1849 20.0207 12.3624 20.4328 12.0391V12.0395Z" fill="#B37E4B"/>
<path d="M4.47659 8.95669C4.3794 9.51776 4.2906 10.0408 4.18987 10.5816C4.17795 10.6448 4.11344 10.6978 4.07324 10.7552C4.17529 9.98252 4.49957 8.12481 4.90954 7.73206C4.99922 7.64371 4.88966 7.92468 4.90557 7.91408C4.7695 8.22907 4.47968 8.94432 4.47748 8.95669H4.47659Z" fill="#593C3D"/>
<path d="M20.0813 16.3238C20.0287 17.0152 19.7848 17.6236 19.2993 18.1277C19.2944 18.0848 19.29 18.0415 19.2852 17.9987C19.6134 17.4769 19.9823 16.9728 20.0039 16.3203C20.0296 16.3216 20.0552 16.323 20.0813 16.3243V16.3238Z" fill="#593C3D"/>
<path d="M19.124 6.53618C19.139 6.52072 19.1545 6.50526 19.17 6.49023C19.6051 6.95367 20.0398 7.41666 20.4746 7.88009C20.4392 7.88142 20.4039 7.8823 20.3685 7.88363C19.9537 7.43433 19.5389 6.98548 19.124 6.53618Z" fill="#B37E4B"/>
<path d="M14.2231 4.14846C14.2271 4.15686 14.2267 4.16525 14.2222 4.17364C13.7915 4.14228 13.3608 4.11135 12.9296 4.07999L12.9238 4.0685L12.934 4.06055C13.3634 4.0897 13.7933 4.1193 14.2227 4.14846H14.2231Z" fill="#B19E98"/>
<path d="M20.3128 15.2559C20.2982 15.217 20.2841 15.1781 20.2695 15.1397C20.3424 14.9948 20.4158 14.8499 20.4887 14.7054C20.8341 14.4916 20.5205 14.792 20.5695 14.8092C20.4838 14.9581 20.3981 15.107 20.3124 15.2559H20.3128Z" fill="#B37E4B"/>
<path d="M3.31072 14.057C3.28421 14.0724 3.2577 14.0879 3.23119 14.1033C3.14549 13.8303 3.05934 13.5577 2.97363 13.2852C3.09071 13.5405 3.19983 13.799 3.31072 14.057Z" fill="#B37E4B"/>
<path d="M5.07865 16.0137C5.07379 16.0433 5.06848 16.0729 5.06318 16.1025C4.88117 15.8794 4.69959 15.6567 4.51758 15.4336C4.52906 15.404 4.54099 15.3749 4.55292 15.3457C4.72831 15.5679 4.90326 15.791 5.07865 16.0137Z" fill="#B37E4B"/>
<path d="M19.2855 17.998C19.2904 18.0409 19.2953 18.0842 19.2997 18.127C19.2418 18.2163 19.1839 18.3055 19.1265 18.3948C19.0757 18.3926 19.0244 18.3899 18.9736 18.3877C19.0775 18.2578 19.1817 18.1279 19.2855 17.998Z" fill="#B37E4B"/>
<path d="M7.34861 5.85396C7.34684 5.8279 7.34508 5.80183 7.34375 5.77577C7.49837 5.70287 7.653 5.62998 7.80762 5.55664C7.80762 5.58403 7.80762 5.61098 7.80807 5.63837C7.65477 5.71038 7.50147 5.78195 7.34861 5.85396Z" fill="#B37E4B"/>
<path d="M7.80806 5.63858C7.80806 5.61119 7.80806 5.58424 7.80762 5.55685C7.96136 5.51577 8.1151 5.47468 8.26884 5.43359C8.22952 5.47291 8.1902 5.51267 8.15088 5.55199C8.03646 5.58071 7.92204 5.60942 7.80806 5.63858Z" fill="#B19E98"/>
<path d="M19.1158 12.1176C19.0933 12.1392 19.0703 12.1609 19.0478 12.1829C18.9669 12.1127 18.8865 12.0429 18.8057 11.9727C18.909 12.0213 19.0124 12.0694 19.1158 12.1176Z" fill="#B19E98"/>
<path d="M7.11133 16.4941V16.4972C7.11133 16.4972 7.11398 16.4972 7.1153 16.4972L7.11133 16.4941Z" fill="#B19E98"/>
<path d="M10.8568 19.2754C12.6809 19.7684 14.5081 20.2407 16.4272 20.0679C16.588 19.7013 16.7489 19.3346 16.9097 18.9679C14.8642 19.3986 12.7927 19.3699 10.8077 18.6635C10.9014 18.6445 10.9955 18.626 11.0891 18.607C10.6036 18.4042 10.1252 18.182 9.62816 18.0097C9.0101 17.7137 8.41634 17.2922 7.76515 17.1676C7.36401 17.0907 7.50582 16.9878 7.53056 16.8009C7.44397 16.7086 7.35782 16.6167 7.27123 16.5244C7.24163 16.5279 7.21159 16.5314 7.18199 16.535L7.1113 16.8783C7.1113 16.751 7.1113 16.6238 7.1113 16.4965C7.06536 16.4979 7.01941 16.4992 6.97303 16.5005C6.97303 16.7051 6.87716 16.9043 6.83872 17.1062C6.63285 16.9701 6.3395 16.8756 6.24805 16.6847C6.17472 16.531 6.13849 16.1873 6.44818 16.0565C6.58337 15.8511 6.65273 16.1369 6.76539 16.0989C6.77687 16.0579 6.78792 16.0168 6.79896 15.9757C5.77667 15.2777 5.81643 16.0764 5.74707 16.7219L5.76209 16.7197C5.78462 16.7342 5.80715 16.7493 5.82968 16.7638H5.82792C5.85575 16.778 5.89374 16.7974 5.91583 16.8084C5.99491 16.8442 6.0656 16.8937 6.13717 16.9419L6.13584 16.9401C6.15086 16.9551 6.16632 16.9697 6.18135 16.9847C6.20962 16.9989 6.24452 17.0174 6.26926 17.0293C6.8131 17.7079 7.59418 17.1499 8.10135 17.7786C8.89568 18.4735 9.83889 18.9869 10.8563 19.2749M7.03355 17.07C7.04327 17.0572 7.05343 17.0448 7.06315 17.032C7.06094 17.0488 7.05873 17.0656 7.05652 17.0819C7.04901 17.0779 7.04106 17.074 7.03355 17.0695V17.07Z" fill="#B19E98"/>
<path d="M4.55299 15.3466C4.54106 15.3757 4.52958 15.4053 4.51765 15.4345C4.47303 15.3603 4.42841 15.2856 4.38379 15.2109C4.44034 15.256 4.49644 15.3011 4.55299 15.3461V15.3466Z" fill="#B19E98"/>
<path d="M20.0812 16.3237C20.0406 16.3184 20.0017 16.3237 19.9619 16.325C20.0003 16.2813 20.0388 16.2375 20.0768 16.1934C20.0781 16.2367 20.0794 16.2799 20.0808 16.3237H20.0812Z" fill="#B19E98"/>
<path d="M8.21094 17.8242C8.256 17.8543 8.30106 17.8839 8.34568 17.9139C8.30062 17.8839 8.25556 17.8543 8.21094 17.8242Z" fill="#B37E4B"/>
<path d="M20.3686 7.88244C20.4039 7.88112 20.4393 7.88023 20.4746 7.87891C20.4897 7.90497 20.5042 7.93059 20.5193 7.95666C20.5069 7.96196 20.4954 7.96903 20.4848 7.97742C20.4636 7.97742 20.4424 7.97742 20.4212 7.97787C20.4035 7.94606 20.3858 7.91425 20.3682 7.88244H20.3686Z" fill="#593C3D"/>
<path d="M6.26953 17.0293C6.29957 17.0443 6.32917 17.0593 6.35921 17.0739C6.32917 17.0589 6.29957 17.0439 6.26953 17.0293Z" fill="#B37E4B"/>
<path d="M20.5194 7.95703C20.5331 7.96277 20.5423 7.97249 20.5485 7.98619C20.5406 7.99944 20.5331 8.01225 20.5251 8.02551C20.5119 8.0096 20.4986 7.9937 20.4854 7.9778C20.496 7.9694 20.5074 7.96233 20.5198 7.95703H20.5194Z" fill="#593C3D"/>
<path d="M6.40234 17.1152C6.41516 17.1329 6.42753 17.151 6.44034 17.1687C6.42753 17.1506 6.41516 17.1329 6.40234 17.1152Z" fill="#B37E4B"/>
<path d="M6.35742 17.0723C6.37244 17.0873 6.38791 17.1023 6.40293 17.1169C6.38791 17.1019 6.37244 17.0868 6.35742 17.0723Z" fill="#B37E4B"/>
<path d="M20.1251 15.4317C17.8057 20.0727 9.4798 18.4517 6.28392 15.5245C6.25255 15.5037 6.25344 15.3659 6.26183 15.3637C7.39943 15.0465 7.23508 13.8558 7.75241 13.1225C8.27858 12.3763 8.44248 13.2069 8.73583 13.3125C9.29469 13.5135 9.85266 13.5978 10.4336 13.5824C10.5807 13.5784 10.6324 13.6146 10.6028 13.7569C10.2534 13.8943 9.91319 14.0555 9.53325 14.0847C10.5887 14.2459 11.5014 13.6345 12.4402 13.2647C11.9609 14.1518 10.9876 14.3957 10.0479 14.5327C9.0495 14.6758 9.65298 15.395 9.80627 15.7361C10.2392 16.754 11.4029 16.3634 12.2114 16.795C12.1177 16.9077 11.8884 16.9925 11.8995 17.1507C12.4888 17.2192 12.8515 17.7776 13.5199 17.7754C16.0628 17.8894 18.4003 17.5328 20.1251 15.4317ZM8.72699 14.5932C8.34441 14.5954 8.08994 14.8605 8.16769 15.2179C8.29669 14.9245 8.31481 14.7363 8.69253 14.7372C9.04994 14.739 9.06142 15.0977 9.21163 15.3288C9.38525 14.9904 9.04419 14.6272 8.72699 14.5927V14.5932ZM10.3028 17.2536C10.4093 17.2448 10.5158 17.2359 10.6223 17.2271C10.0351 17.1957 9.46168 17.0469 8.91608 16.8317C9.35742 17.0637 9.7886 17.2815 10.3028 17.2536ZM8.81093 16.7575C8.77515 16.7279 8.75394 16.7487 8.78708 16.7827C8.79547 16.7752 8.80386 16.7677 8.81093 16.7575ZM12.2365 17.228C12.2215 17.2161 12.2096 17.2006 12.1901 17.213C12.1946 17.2496 12.2109 17.239 12.2365 17.228Z" fill="#B37E4B"/>
<path d="M12.6605 11.1646C12.4263 10.6641 12.0667 10.2735 11.6311 9.93999C11.3793 9.21414 17.0903 8.35044 17.8055 8.4631C19.3646 8.47105 17.7211 9.32635 18.4064 11.2044C17.4667 10.6707 18.5685 9.04361 18.0993 9.14301C17.9389 9.18277 17.6783 8.92388 17.6063 9.28968C17.5904 9.37185 17.4896 9.49688 17.4278 9.49688C16.9352 9.41603 17.3558 9.12401 16.6746 9.2265C16.5257 9.36478 16.5261 9.84898 16.1806 9.65459C15.3373 8.97955 14.6256 9.7509 13.856 9.83484C13.3514 9.89007 13.1924 10.0968 13.4796 10.6C13.7186 11.0188 13.2993 11.2684 13.0886 11.5587C13.0241 11.3453 12.9675 11.1297 12.8924 10.9199C12.8429 10.782 12.8354 10.4586 12.5982 10.7891C12.5461 10.862 12.6357 11.0365 12.66 11.1646H12.6605ZM16.4554 9.33607C16.2694 9.23092 16.2204 9.15714 16.0852 9.31575C16.2345 9.46551 16.2434 9.51057 16.4554 9.33607ZM17.5944 9.24373C17.4128 9.12666 17.381 9.1006 17.2339 9.21458C17.3562 9.37053 17.3911 9.34623 17.5944 9.24373Z" fill="#B37E4B"/>
<path d="M14.9199 15.0789C15.9643 14.6764 17.018 14.3106 18.1507 14.2559C18.141 14.2673 18.1317 14.2788 18.1224 14.2899C17.0537 14.5249 16.0067 14.9914 14.9199 15.0789Z" fill="#B37E4B"/>
<path d="M17.1241 12.0704C16.973 12.4048 16.7632 12.2917 16.5493 12.1455C16.575 12.1097 16.628 12.0478 16.6218 12.0416C16.3797 11.781 16.1659 11.9458 15.9512 12.092C16.0329 11.9939 16.1146 11.8958 16.1959 11.7978C16.7353 12.2961 17.095 11.3745 17.5964 11.6237C17.6375 11.644 17.6348 11.7536 17.6525 11.8216C17.5261 11.773 17.3998 11.724 17.2739 11.6754C17.224 11.807 17.174 11.9387 17.1241 12.0704Z" fill="#B37E4B"/>
<path d="M14.3185 15.0614C13.578 15.2474 12.7245 15.2628 12.3786 16.0952C12.3463 16.0731 12.2831 16.0386 12.2862 16.0302C12.5385 15.216 13.5612 15.0327 14.3185 15.0614Z" fill="#B37E4B"/>
<path d="M14.3669 10.7441C14.5215 10.81 14.6762 10.8758 14.8308 10.9416C14.6801 11.231 14.438 11.1334 14.1787 11.0927C14.2242 10.9765 14.2697 10.8608 14.3152 10.7446C14.3325 10.7446 14.3497 10.7446 14.3674 10.7441H14.3669ZM14.4036 10.9619C14.3501 10.9893 14.3033 11.0136 14.2569 11.0375C14.3607 11.1015 14.4416 11.1254 14.5326 11.0247C14.4933 11.0057 14.4535 10.9862 14.404 10.9619H14.4036Z" fill="#B37E4B"/>
<path d="M14.8646 10.196C14.8129 10.1593 14.7139 10.0979 14.6286 10.021C14.6145 10.0082 14.6604 9.92825 14.6786 9.87965C14.8062 10.0347 14.9675 9.97685 15.096 9.86905C15.1354 9.83282 15.1181 9.73475 15.1265 9.66406C15.4433 9.93929 15.2882 10.1845 14.8641 10.1955L14.8646 10.196Z" fill="#B37E4B"/>
<path d="M16.8376 11.0748C16.7452 10.7616 16.5385 10.6167 16.6962 10.3984C16.7828 10.8433 17.1561 10.239 17.2453 10.5464C17.2661 10.618 17.0995 10.7444 16.8376 11.0744V11.0748Z" fill="#B37E4B"/>
<path d="M17.124 12.0688C17.1739 11.9371 17.2239 11.8055 17.2738 11.6738C17.4001 11.7224 17.5265 11.7715 17.6524 11.8201C17.4761 11.9031 17.3003 11.9862 17.124 12.0688Z" fill="#593C3D"/>
<path d="M15.9512 12.0899C16.1659 11.9437 16.3797 11.7789 16.6218 12.0396C16.628 12.0462 16.575 12.1076 16.5493 12.1434C16.3501 12.1257 16.1504 12.1076 15.9512 12.0899Z" fill="#593C3D"/>
<path d="M19.6895 14.3131C19.7173 14.2035 19.7451 14.0939 19.773 13.9844C19.9718 14.1103 19.8803 14.2318 19.8123 14.4041C19.7712 14.3736 19.7305 14.3435 19.6895 14.3131Z" fill="#B37E4B"/>
<path d="M11.7744 13.247C11.91 13.1512 12.0452 13.0553 12.1809 12.959C12.0452 13.0549 11.91 13.1507 11.7744 13.247Z" fill="#B37E4B"/>
<path d="M12.6937 11.2558C12.6871 11.2368 12.6805 11.2178 12.6738 11.1992C12.6805 11.2182 12.6871 11.2372 12.6937 11.2558Z" fill="#B37E4B"/>
<path d="M7.4143 11.5076C7.28442 11.5778 7.28751 11.9233 7.08827 11.7638C6.77769 11.5005 7.11522 11.2129 7.26719 10.9279C7.19518 10.9628 7.12405 11.0256 7.05116 11.0278C6.52499 11.0428 6.69066 10.5639 6.66062 10.3448C6.48214 9.0371 6.92657 7.87344 7.62238 6.78885C8.84304 6.6117 9.67978 5.43257 11.0073 5.55362C11.0122 6.2618 10.3076 5.68704 10.2917 6.29759C10.2073 6.34221 10.0522 6.13104 10.0217 6.37181C9.69922 6.58519 9.9581 6.82641 10.2479 6.79283C8.97469 7.54298 8.58592 8.241 8.50198 9.71038C8.98176 9.48463 9.46551 9.26771 9.92188 8.99646C10.02 9.01236 10.1185 9.02827 10.2165 9.04417C10.1052 9.10867 9.9771 9.15506 9.88565 9.24076C9.25743 9.82746 8.0328 9.73822 7.95019 10.943C7.81854 11.0733 7.68689 11.2036 7.55479 11.3339C7.64624 10.2865 7.11477 11.2182 7.41386 11.508L7.4143 11.5076ZM7.60206 8.6554C7.59102 8.60062 7.55744 8.43627 7.52387 8.27193C7.45981 8.44202 7.35422 8.60857 7.33876 8.78308C7.31799 9.43824 7.17883 10.1164 7.28751 10.7632C7.36217 10.6615 7.4925 10.5648 7.50178 10.4579C7.55037 9.89682 7.56804 9.3331 7.60206 8.6554ZM8.15827 8.06606C8.02883 8.20213 8.01646 8.22554 8.16313 8.31964C8.26828 8.21847 8.28816 8.1902 8.15827 8.06606Z" fill="#B37E4B"/>
<path d="M14.1182 8.21265C17.9317 7.30654 23.5115 7.32157 21.0472 12.9707C21.0127 12.4189 20.4309 12.0469 20.5524 11.4417C21.14 7.31229 16.4363 8.01429 13.8068 8.54089C13.7485 8.47551 13.6902 8.41057 13.6318 8.34518C13.7953 8.30277 13.9521 8.24534 14.1182 8.21265ZM20.9407 11.1404C20.8365 11.2698 20.8232 11.2937 20.9204 11.3992C21.0326 11.3109 21.0176 11.2848 20.9407 11.1404ZM20.9946 10.8311C21.0821 10.7127 21.1311 10.688 21.0189 10.5974C20.9284 10.68 20.9301 10.699 20.9946 10.8311Z" fill="#B19E98"/>
<path d="M19.2432 7.74893C18.7392 6.71957 16.528 7.23293 15.5693 7.24265C15.3591 7.26076 15.6316 7.71138 15.2323 7.69989C15.0321 7.69415 14.9106 7.7264 14.8501 7.48828C14.7838 7.22807 14.9738 7.2369 15.1077 7.21437C15.424 7.1618 15.7487 7.1565 16.061 7.08935C16.2735 7.04384 16.6393 7.26253 16.6327 6.73857C16.6301 6.53049 17.0047 6.54993 17.0794 6.7209C17.2176 7.03677 17.4332 7.03015 17.6917 7.00452C17.4611 6.56936 17.477 5.80552 16.7299 5.96058C16.4074 5.79359 16.0862 5.62394 15.7606 5.46269L15.7624 5.46358C15.7324 5.449 15.7028 5.43442 15.6727 5.41984C13.823 4.59502 11.6441 4.27252 9.7254 5.10573C9.66311 5.09203 9.60082 5.0779 9.53809 5.0642C13.5499 3.21577 17.4527 5.17774 20.4215 7.97822C20.4427 7.97822 20.4639 7.97822 20.4851 7.97778C20.4983 7.99368 20.5116 8.00959 20.5249 8.02549C20.0813 8.06481 19.6696 7.84303 19.2432 7.74849V7.74893Z" fill="#B19E98"/>
<path d="M14.6778 7.58052C14.6508 7.91539 14.3593 7.73382 14.2033 7.81864C14.0805 7.88535 13.9356 7.91186 13.8004 7.95648C13.925 7.99712 14.0496 8.03777 14.1737 8.07841C11.9069 8.61518 9.76691 9.4263 7.95117 10.9425C8.03379 9.73776 9.25842 9.82744 9.88663 9.24031C9.97808 9.1546 10.1062 9.10821 10.2175 9.04371C10.1195 9.02781 10.0209 9.01191 9.92286 8.996C10.7176 8.68233 11.512 8.36911 12.3067 8.05544C12.4128 8.08371 12.5192 8.11199 12.6253 8.14026C12.6549 8.02142 12.6845 7.90258 12.7145 7.78374C13.401 8.02451 14.0204 7.61807 14.6778 7.58008V7.58052Z" fill="#B19E98"/>
<path d="M12.5141 5.2079C13.0398 5.14958 12.5529 5.75262 12.9055 5.80696C9.99941 4.94901 9.89913 6.11179 7.62305 6.7886C8.10194 6.35654 8.50971 5.82109 9.05752 5.47783C9.05222 5.47341 9.04736 5.46899 9.04206 5.46457C8.87374 5.6055 8.68377 5.74246 8.52562 5.90592C8.46553 5.90327 8.40501 5.90061 8.34492 5.89796C8.34978 5.7937 8.58437 5.72258 8.3891 5.59004C8.7359 5.39079 9.12423 5.27107 9.48827 5.10584C9.37738 5.19862 9.26649 5.29139 9.1556 5.38373C9.50373 5.20834 9.87218 5.09436 10.249 4.99805C10.2857 5.33513 10.5508 5.14737 10.7116 5.19862C10.7014 5.3824 10.7986 5.46148 10.9722 5.46855C11.2386 5.48004 11.2161 5.27726 11.2408 5.10894C11.6384 5.4902 12.0891 5.18978 12.5149 5.20701L12.5141 5.2079Z" fill="#B19E98"/>
<path d="M3.3584 12.4352C3.42157 11.9347 3.5678 11.3776 4.14743 11.4138C5.05176 11.4703 5.11229 12.289 5.23599 12.9671C5.28768 13.2494 5.35129 13.689 4.95369 13.7164C4.67713 13.7354 4.84766 13.3227 4.79067 13.1116C4.57198 12.3005 4.04052 12.2289 3.36017 12.4365L3.3584 12.4348V12.4352Z" fill="#B37E4B"/>
<path d="M5.70891 13.5336C5.97044 13.7532 6.24877 13.618 6.52312 13.5725C6.54521 13.99 6.505 14.4168 6.56553 14.8294C6.08928 15.4753 5.4213 15.0035 4.85449 15.1236C5.49199 14.772 5.62497 14.184 5.70891 13.5332V13.5336Z" fill="#B19E98"/>
<path d="M3.31059 14.0569C3.08484 13.6115 2.85865 12.8645 3.50807 12.6356C3.75857 12.5614 3.95428 12.6975 4.03998 12.9193C4.20919 13.3593 4.37221 13.8421 4.02054 14.2451C3.74222 14.564 3.501 14.3056 3.31104 14.0569H3.31059Z" fill="#B19E98"/>
<path d="M13.6317 8.3457C13.69 8.41109 13.7483 8.47603 13.8066 8.54141C12.8272 8.91296 11.8482 9.28538 10.8661 9.6503C9.98561 9.30835 13.3538 8.37 13.6317 8.3457Z" fill="#B37E4B"/>
<path d="M16.917 18.6056C15.0019 19.047 13.0859 19.0616 11.1689 18.6149C11.3766 18.5796 11.5798 18.5478 11.7839 18.618C13.4941 19.0006 15.2621 18.6909 16.917 18.6061V18.6056Z" fill="#B19E98"/>
<path d="M6.56543 14.8286C6.58178 14.45 6.77174 13.0558 7.20955 12.9824C7.41233 13.2842 6.89809 14.7469 6.56543 14.8286Z" fill="#B37E4B"/>
<path d="M5.07855 16.0143C4.90361 15.7921 4.72866 15.5699 4.55371 15.3477C4.92879 15.4409 5.30563 15.5151 5.69175 15.5394C5.64757 15.7961 5.60339 16.0532 5.55921 16.3099C5.39885 16.2113 5.23892 16.1128 5.07855 16.0143Z" fill="#B19E98"/>
<path d="M6.24869 9.21538C6.21511 8.61721 6.3693 8.06409 6.64895 7.54102C6.94141 8.03626 6.74172 8.48909 6.55926 8.95031C6.22837 8.77227 6.5036 9.30462 6.24825 9.21538H6.24869Z" fill="#B37E4B"/>
<path d="M12.3637 11.7784C12.3853 11.3352 12.316 11.1696 12.2497 10.7812C12.6018 11.3591 12.9053 12.2109 12.2422 12.6915C11.9144 12.9513 12.4494 11.9621 12.3637 11.7784Z" fill="#B19E98"/>
<path d="M5.95943 7.63257C6.22406 7.42316 6.48869 7.21375 6.75331 7.00391C6.56423 7.48855 6.37515 7.97363 6.18562 8.45826C6.02525 8.2303 6.03762 7.90073 5.95898 7.63257H5.95943Z" fill="#B19E98"/>
<path d="M7.85095 5.852C7.9128 5.86968 7.97465 5.88735 8.0365 5.90502C8.03738 5.98542 8.03782 6.06539 8.03871 6.14579C7.6897 6.43693 7.34069 6.72807 6.99124 7.01876C6.98063 7.00816 6.96959 6.99711 6.95898 6.98651C7.21787 6.66003 7.44848 6.28098 7.72416 5.98719C7.73476 5.97615 7.75376 5.95759 7.76834 5.94301C7.79087 5.91916 7.8293 5.88381 7.85758 5.85554L7.85095 5.85156V5.852ZM7.61901 6.4493L7.61194 6.46079L7.62299 6.46255L7.61945 6.4493H7.61901Z" fill="#B19E98"/>
<path d="M6.22741 11.7618C5.86072 11.1388 5.15873 10.6206 4.41211 10.6697C5.12736 10.3949 5.71449 10.9202 6.18279 11.3818C6.19781 11.5086 6.21239 11.635 6.22741 11.7618Z" fill="#B37E4B"/>
<path d="M8.414 12.0801C8.54786 12.4569 8.68614 12.8302 8.87832 13.1819C8.70779 13.0418 8.50368 12.9296 8.35348 12.7715C8.33536 12.5378 8.17985 12.2917 8.414 12.0801Z" fill="#B19E98"/>
<path d="M18.7626 17.7305C18.3098 18.25 17.6811 18.3936 17.0498 18.5319C17.5817 18.1895 18.1901 17.9942 18.7626 17.7305Z" fill="#B19E98"/>
<path d="M3.73461 11.2009C4.20423 10.8448 4.5581 11.1223 4.90622 11.4183C4.91771 11.428 4.90446 11.4668 4.90269 11.492C4.85409 11.4858 4.79268 11.496 4.75955 11.4704C4.44191 11.2212 4.09687 11.1921 3.72754 11.325C3.72975 11.2839 3.7324 11.2424 3.73505 11.2013L3.73461 11.2009Z" fill="#B37E4B"/>
<path d="M8.41407 12.0794C8.17992 12.291 8.33543 12.5371 8.35354 12.7708C8.06594 12.3312 8.09289 11.8996 8.38535 11.4746C8.52805 11.6381 8.40258 11.8806 8.41407 12.0799V12.0794Z" fill="#B37E4B"/>
<path d="M7.53133 16.8003C7.3047 16.5357 7.03256 16.321 6.7666 16.0979C6.77765 16.0568 6.78913 16.0157 6.80018 15.9746C7.10192 16.1982 7.75355 16.112 7.53133 16.7999V16.8003Z" fill="#B37E4B"/>
<path d="M3.73455 11.2016C3.7319 11.2427 3.72969 11.2842 3.72704 11.3253C3.40939 11.5922 3.28923 12.0194 3.1748 12.4042C3.21766 11.95 3.17657 11.3359 3.73455 11.2012V11.2016Z" fill="#B19E98"/>
<path d="M11.5219 18.5648C10.9997 18.7172 10.5517 18.3342 10.0732 18.1738C10.5561 18.3042 11.039 18.4345 11.5219 18.5648Z" fill="#B37E4B"/>
<path d="M7.41457 11.5086C7.11548 11.2193 7.64695 10.2871 7.5555 11.3346C7.50867 11.3925 7.4614 11.4503 7.41457 11.5086Z" fill="#B19E98"/>
<path d="M6.94887 7.78058C6.90072 7.71387 6.85212 7.64672 6.80397 7.58001L6.80176 7.58266C6.93562 7.49651 7.06948 7.41037 7.20378 7.32422C7.1247 7.47487 7.04606 7.62552 6.96699 7.77572L6.95638 7.77219L6.94887 7.78058Z" fill="#B19E98"/>
<path d="M6.24929 9.21583C6.5042 9.30507 6.22896 8.77272 6.5603 8.95076C6.49315 9.10936 6.6681 9.45484 6.25503 9.34572C6.25238 9.30375 6.21792 9.2525 6.24973 9.21583H6.24929Z" fill="#B19E98"/>
<path d="M6.66709 7.59422C6.66134 7.57655 6.65516 7.55888 6.64941 7.54077C6.75279 7.3561 6.85617 7.17144 6.95911 6.98633C6.96971 6.99693 6.98031 7.00798 6.99136 7.01858C6.92818 7.20678 6.86456 7.39454 6.80139 7.58274L6.8036 7.58009C6.75809 7.58451 6.71259 7.58937 6.66709 7.59378V7.59422Z" fill="#B19E98"/>
<path d="M5.83398 7.52298C5.83487 7.36394 5.83619 7.20534 5.83708 7.04629C5.85961 7.03657 5.8817 7.02686 5.90423 7.01758C5.90644 7.17309 5.9082 7.32815 5.91041 7.48322C5.88479 7.49647 5.85961 7.50929 5.83398 7.52254V7.52298Z" fill="#B37E4B"/>
<path d="M15.2715 7.88584C15.3612 7.87391 15.4508 7.86198 15.541 7.84961C15.4513 7.86154 15.3616 7.87347 15.2715 7.88584Z" fill="#B19E98"/>
<path d="M16.6152 8.14953C16.7535 8.14511 16.8922 8.14114 17.0305 8.13672C16.8918 8.14114 16.7535 8.14511 16.6152 8.14953Z" fill="#B37E4B"/>
<path d="M13.9121 8.52714C14.0075 8.50637 14.103 8.48561 14.1979 8.46484C14.1025 8.48561 14.0071 8.50637 13.9121 8.52714Z" fill="#B37E4B"/>
<path d="M8.0791 6.11898C8.12019 6.08894 8.16127 6.05934 8.20192 6.0293C8.16083 6.05934 8.11975 6.08894 8.0791 6.11898Z" fill="#B19E98"/>
<path d="M6.23438 9.25195C6.241 9.28288 6.24763 9.31424 6.25381 9.34517C6.24719 9.31424 6.24056 9.28288 6.23438 9.25195Z" fill="#B37E4B"/>
<path d="M9.70931 18.0433C9.68236 18.0319 9.65586 18.0208 9.62891 18.0098C9.65586 18.0213 9.68236 18.0323 9.70931 18.0433Z" fill="#B37E4B"/>
<path d="M3.63184 11.3985C3.65348 11.3804 3.67469 11.3619 3.69589 11.3438C3.67425 11.3619 3.65304 11.3804 3.63184 11.3985Z" fill="#B37E4B"/>
<path d="M13.9 8.26367C13.877 8.27295 13.854 8.28223 13.8311 8.29195C13.854 8.28267 13.877 8.27339 13.9 8.26367Z" fill="#B37E4B"/>
<path d="M14.4303 8.13672C14.4078 8.14423 14.3848 8.15218 14.3623 8.15969C14.3853 8.15218 14.4078 8.14423 14.4303 8.13672Z" fill="#B37E4B"/>
<path d="M14.5781 8.40037C14.6139 8.39242 14.6497 8.38491 14.685 8.37695C14.6493 8.38491 14.6135 8.39242 14.5781 8.40037Z" fill="#B37E4B"/>
<path d="M3.36093 12.4373C3.35828 12.4422 3.35519 12.4466 3.35254 12.4515C3.35475 12.4462 3.35696 12.4408 3.35917 12.4355L3.36093 12.4373Z" fill="#B37E4B"/>
<path d="M8.3623 12.7871C8.37467 12.7946 8.38395 12.8052 8.39058 12.818C8.3813 12.8079 8.37158 12.7977 8.3623 12.7871Z" fill="#B37E4B"/>
<path d="M6.94824 7.78183L6.95575 7.77344C6.97033 7.77565 6.96459 7.78051 6.95973 7.78978L6.94824 7.78183Z" fill="#B37E4B"/>
<path d="M6.97379 16.4997C6.9548 16.8902 6.5943 16.9273 6.38489 16.698C6.30758 16.6264 6.3279 16.2832 6.3924 16.2531C6.63583 16.1392 6.79399 16.3724 6.97379 16.4997Z" fill="#B37E4B"/>
<path d="M6.9738 16.4991C6.79443 16.3719 6.63627 16.1386 6.39241 16.2526C6.32791 16.2826 6.30758 16.6259 6.3849 16.6975C6.59916 16.8954 6.85275 16.929 6.9791 16.5649C6.93271 16.7448 6.88588 16.9246 6.83949 17.1044C6.63362 16.9683 6.34028 16.8738 6.24883 16.6829C6.17549 16.5292 6.13926 16.1855 6.44895 16.0547C6.67117 16.2014 6.89339 16.348 7.11605 16.4951L6.9738 16.4991Z" fill="#593C3D"/>
<path d="M7.11203 16.4941C7.13544 16.5078 7.1593 16.522 7.18271 16.5357C7.15841 16.6545 7.13367 16.7733 7.10938 16.8922L7.11203 16.8944C7.11203 16.761 7.11203 16.6276 7.11203 16.4941Z" fill="#593C3D"/>
<path d="M7.10917 16.8911C7.09459 16.9352 7.08001 16.9794 7.06543 17.0236L7.06896 17.0263C7.08354 16.9821 7.09768 16.9375 7.11226 16.8928L7.10961 16.8906L7.10917 16.8911Z" fill="#593C3D"/>
<path d="M7.0651 17.0234L7.05715 17.0822C7.04964 17.0782 7.04169 17.0742 7.03418 17.0698C7.04567 17.0552 7.05715 17.0407 7.0682 17.0261L7.06466 17.0234H7.0651Z" fill="#593C3D"/>
<path d="M19.0306 14.2915C18.9011 14.2942 18.777 14.2937 18.6621 14.2266C18.7849 14.2482 18.9077 14.2699 19.0306 14.2915Z" fill="#B37E4B"/>
<path d="M18.6628 14.2285C18.7109 14.2488 18.7591 14.2692 18.8073 14.2895C18.6451 14.2753 18.4834 14.2612 18.3213 14.2471C18.4353 14.2409 18.5488 14.2347 18.6628 14.2285Z" fill="#B19E98"/>
<path d="M8.72717 14.5918C9.04393 14.6258 9.38543 14.9894 9.21181 15.3278C9.0616 15.0963 9.05011 14.738 8.69271 14.7363C8.31542 14.7354 8.29731 14.9236 8.16831 15.2169C8.09055 14.8591 8.34458 14.5944 8.72761 14.5922L8.72717 14.5918Z" fill="#F7C160"/>
<path d="M10.301 17.2561C9.78854 17.2796 9.35648 17.0644 8.91602 16.832C9.46162 17.0472 10.0351 17.1961 10.6222 17.2274C10.5157 17.2363 10.4093 17.2451 10.301 17.2561Z" fill="#593C3D"/>
<path d="M8.81116 16.759C8.80277 16.7665 8.79438 16.774 8.78598 16.7815C8.75196 16.747 8.77582 16.7254 8.81116 16.759Z" fill="#593C3D"/>
<path d="M12.2354 17.2288C12.2102 17.2368 12.1939 17.2483 12.1895 17.2116C12.2093 17.1992 12.2217 17.2143 12.2354 17.2288Z" fill="#F7C160"/>
<path d="M16.4552 9.33669C16.2431 9.51076 16.2343 9.46614 16.085 9.31637C16.2201 9.15777 16.2687 9.23155 16.4552 9.33669Z" fill="#F7C160"/>
<path d="M17.5939 9.24308C17.3911 9.34601 17.3562 9.36987 17.2334 9.21392C17.3805 9.09994 17.4123 9.126 17.5939 9.24308Z" fill="#F7C160"/>
<path d="M14.403 10.9629C14.4529 10.9872 14.4922 11.0062 14.5315 11.0256C14.4405 11.1268 14.3601 11.1025 14.2559 11.0384C14.3027 11.0146 14.3491 10.9903 14.4025 10.9629H14.403Z" fill="#F7C160"/>
<path d="M12.2647 5.63174C13.3683 5.83496 14.2563 6.53961 14.6778 7.58046C14.0199 7.61845 13.4006 8.0249 12.7145 7.78456C12.3933 7.72139 12.3253 7.67368 12.3067 8.05582C11.0065 8.54134 9.73772 9.079 8.50293 9.70987C8.58643 8.24005 8.97697 7.54158 10.2489 6.79231L10.2475 6.78834C10.5241 6.64917 10.4799 6.4813 10.2917 6.30016C10.2696 5.8005 10.8152 6.09562 10.9557 5.82259C11.113 6.06867 11.2924 6.02051 11.4801 5.86191C11.7421 5.78504 12.0036 5.70773 12.2656 5.63086L12.2647 5.63174ZM10.726 8.19984C10.4645 7.91842 10.4645 7.98779 10.2387 8.19012C10.4296 8.46801 10.4609 8.43045 10.726 8.19984ZM10.4322 7.31318C10.278 7.5703 10.1685 7.63701 10.3774 7.7448C10.5837 7.61889 10.5714 7.55749 10.4322 7.31318Z" fill="#F7C160"/>
<path d="M7.60241 8.65495C7.56839 9.33265 7.55072 9.89637 7.50212 10.4574C7.49284 10.5648 7.36207 10.6611 7.28785 10.7627C7.17962 10.1159 7.31878 9.4378 7.3391 8.78263C7.35456 8.60812 7.46015 8.44157 7.52421 8.27148C7.55779 8.43583 7.59092 8.60017 7.60241 8.65495Z" fill="#B19E98"/>
<path d="M10.0217 6.37093C10.0495 6.13413 10.2156 6.33603 10.2907 6.30025C10.2775 6.46415 10.258 6.62849 10.2479 6.79195C9.97972 6.82023 9.70317 6.61524 10.0005 6.38286C10.0204 6.4562 10.0407 6.52909 10.061 6.60243C10.1105 6.56974 10.16 6.53748 10.2099 6.50479C10.1472 6.46017 10.0849 6.41555 10.0221 6.37049L10.0217 6.37093Z" fill="#B19E98"/>
<path d="M8.15892 8.06641C8.28924 8.19011 8.26892 8.21882 8.16378 8.31999C8.01666 8.22589 8.02947 8.20248 8.15892 8.06641Z" fill="#F7C160"/>
<path d="M10.7106 5.1984C10.5498 5.14715 10.2847 5.33491 10.248 4.99783C11.117 4.69123 12.0178 4.74999 12.9284 4.80035C12.7905 4.93598 12.6522 5.07161 12.514 5.20724C12.0876 5.19001 11.6375 5.49042 11.2394 5.10916C11.0481 5.05128 10.8308 4.83967 10.7102 5.19884L10.7106 5.1984Z" fill="#F7C160"/>
<path d="M12.9285 4.80094C12.3493 4.78283 11.7706 4.74262 11.191 4.76118C10.7183 4.89106 10.2279 4.99091 9.75298 5.13758C9.74502 5.12609 9.73575 5.11549 9.72559 5.10621C11.6443 4.273 13.8231 4.59551 15.6729 5.42032C15.7029 5.4349 15.7325 5.44948 15.7626 5.46406L15.7608 5.46317C16.0864 5.62443 16.4072 5.79451 16.7301 5.96107C16.6753 5.98537 16.6201 6.00966 16.5653 6.0344C15.437 5.42165 14.2349 4.86942 12.929 4.80094H12.9285Z" fill="#B37E4B"/>
<path d="M14.4036 6.3322C14.2476 6.10115 14.2167 6.06271 14.4151 5.90234C14.6254 6.07111 14.5856 6.10424 14.4036 6.3322Z" fill="#B19E98"/>
<path d="M13.1699 4.81641C13.2508 4.82833 13.3316 4.84026 13.4125 4.85219C13.3095 4.9887 13.2353 4.93215 13.1699 4.81641Z" fill="#F7C160"/>
<path d="M16.3623 5.91211C16.4299 5.95275 16.4975 5.9934 16.5646 6.03448C16.497 5.99384 16.4295 5.9532 16.3623 5.91211Z" fill="#B19E98"/>
<path d="M15.9717 5.73438C16.0212 5.75911 16.0706 5.78341 16.1206 5.80815C16.0711 5.78341 16.0216 5.75911 15.9717 5.73438Z" fill="#B19E98"/>
<path d="M9.72562 5.10642C9.73578 5.11614 9.74462 5.12675 9.75301 5.13779C9.54449 5.19522 9.35364 5.29992 9.15527 5.38431C9.28295 5.27784 9.41018 5.17048 9.53874 5.06445C9.60103 5.07815 9.66333 5.09229 9.72606 5.10598L9.72562 5.10642Z" fill="#593C3D"/>
<path d="M12.3066 8.05645C12.3256 7.67386 12.3932 7.72202 12.7144 7.78519C12.6848 7.90403 12.6548 8.02243 12.6252 8.14127C12.5191 8.113 12.4127 8.08472 12.3066 8.05645ZM12.5103 8.05203C12.6207 7.96323 12.7219 7.90492 12.577 7.82186C12.452 7.86162 12.4259 7.91994 12.5103 8.05203Z" fill="#B37E4B"/>
<path d="M11.4789 5.86319C11.5509 5.70062 11.4895 5.58885 11.3438 5.50977C11.6508 5.55041 11.9578 5.5915 12.2644 5.63214C12.0025 5.70901 11.7405 5.78588 11.4789 5.86319Z" fill="#B37E4B"/>
<path d="M8.56906 5.8618C8.68613 5.75842 8.80365 5.65504 8.92072 5.55166L8.91983 5.55078C8.80188 5.65372 8.68436 5.75621 8.56641 5.85915L8.56862 5.8618H8.56906Z" fill="#593C3D"/>
<path d="M8.92134 5.55332C8.95094 5.53918 8.98098 5.5246 9.01058 5.51046L9.00793 5.50781C8.97877 5.52283 8.94961 5.53785 8.9209 5.55287L8.92178 5.55376L8.92134 5.55332Z" fill="#593C3D"/>
<path d="M9.01074 5.50858C9.02135 5.494 9.03195 5.47942 9.04211 5.46484C9.04741 5.46926 9.05227 5.47368 9.05757 5.4781C9.0452 5.4887 9.01118 5.49709 9.01074 5.50902V5.50858Z" fill="#593C3D"/>
<path d="M8.52565 5.90665C8.54023 5.89162 8.5548 5.87705 8.56983 5.86203L8.56762 5.85938C8.55304 5.8744 8.53802 5.88942 8.52344 5.90444L8.52565 5.90665Z" fill="#593C3D"/>
<path d="M18.8945 18.1289C18.8711 18.151 18.8481 18.1726 18.8247 18.1947C18.8154 18.1841 18.8062 18.1731 18.7969 18.162C18.8305 18.1519 18.864 18.1417 18.8976 18.1316L18.8945 18.1289Z" fill="#B19E98"/>
<path d="M18.8969 18.1317C18.9023 18.1238 18.9076 18.1154 18.9129 18.1074C18.9212 18.1269 18.8925 18.1238 18.8969 18.1317Z" fill="#B19E98"/>
<path d="M7.7687 5.94287C7.75367 5.95789 7.73865 5.97291 7.72363 5.98793C7.72584 5.96982 7.72805 5.95171 7.72982 5.93359C7.74263 5.93669 7.75588 5.93978 7.7687 5.94287Z" fill="#593C3D"/>
<path d="M7.72426 5.98633C7.70924 6.00135 7.69422 6.01637 7.6792 6.03139C7.67611 6.01858 7.67301 6.00532 7.66992 5.99251C7.68804 5.9903 7.70615 5.98854 7.7247 5.98633H7.72426Z" fill="#593C3D"/>
<path d="M7.61937 6.44922L7.62335 6.46247L7.6123 6.46071L7.61937 6.44922Z" fill="#593C3D"/>
<path d="M10.7256 8.20078C10.4605 8.43183 10.4291 8.4685 10.2383 8.19106C10.4645 7.98828 10.464 7.91936 10.7256 8.20078ZM10.5904 8.16809C10.4671 8.05366 10.407 8.04218 10.3531 8.18311C10.404 8.33199 10.4888 8.26042 10.5904 8.16809Z" fill="#B37E4B"/>
<path d="M10.2471 6.78895C10.2616 6.62638 10.2767 6.4638 10.2912 6.30078C10.4794 6.48191 10.5236 6.64979 10.2471 6.78895Z" fill="#B37E4B"/>
<path d="M10.668 4.88712C10.7987 4.85884 10.9299 4.83101 11.0612 4.80273C10.9304 4.83101 10.7992 4.85884 10.668 4.88712Z" fill="#B19E98"/>
<path d="M11.1074 4.80236C11.1353 4.78867 11.1631 4.77541 11.1914 4.76172C11.1635 4.77541 11.1357 4.78911 11.1074 4.80236Z" fill="#B19E98"/>
<path d="M10.5908 8.16833C10.4891 8.26066 10.4039 8.33223 10.3535 8.18335C10.4079 8.04242 10.4675 8.05391 10.5908 8.16833Z" fill="#B19E98"/>
</g>
<defs>
<clipPath id="clip0_2758_5357">
<rect width="24" height="24" fill="white" transform="translate(0.93457)"/>
</clipPath>
</defs>
</svg>
