<svg width="24" height="24" viewBox="0 0 24 24" fill="none" xmlns="http://www.w3.org/2000/svg">
<g clip-path="url(#clip0_720_12277)">
<path d="M12.0006 24.0012C18.6283 24.0012 24.0012 18.6283 24.0012 12.0006C24.0012 5.37285 18.6283 0 12.0006 0C5.37285 0 0 5.37285 0 12.0006C0 18.6283 5.37285 24.0012 12.0006 24.0012Z" fill="#1B5AFF"/>
<path d="M13.9984 18.7389C13.9984 18.4619 13.9984 18.2291 13.9984 17.9975L14.0307 11.3112C14.0307 10.5316 14.0366 10.5304 14.8306 10.534L18.0543 10.5495L18.0746 6.49C16.6084 6.48284 15.1816 6.47091 13.756 6.4721C13.4798 6.46392 13.2037 6.49161 12.9346 6.55448C11.0469 7.07386 9.87564 8.60808 9.85893 10.5877C9.83743 13.095 9.83147 15.6024 9.82191 18.1038C9.82191 18.296 9.84221 18.4882 9.85534 18.7115L13.9984 18.7389ZM5.95703 10.4456C8.08588 10.8253 10.4225 8.27141 9.92221 6.49478L5.97613 6.47688L5.95703 10.4456Z" fill="black"/>
<path d="M13.9982 18.7396L9.85867 18.7193C9.84554 18.496 9.82405 18.3038 9.82524 18.1116C9.83479 15.6042 9.84076 13.0969 9.86226 10.5955C9.87897 8.6159 11.0503 7.08167 12.9379 6.56229C13.207 6.49942 13.4831 6.47174 13.7594 6.47992C15.185 6.47992 16.6118 6.49065 18.078 6.49781L18.0577 10.5573L14.834 10.5418C14.04 10.5418 14.0388 10.5418 14.034 11.3191L14.0018 18.0053C14.0006 18.2298 13.9994 18.4626 13.9982 18.7396Z" fill="white"/>
<path d="M5.95703 10.4453L5.97613 6.47656L9.92221 6.49446C10.4225 8.27586 8.08588 10.825 5.95703 10.4453Z" fill="white"/>
</g>
<defs>
<clipPath id="clip0_720_12277">
<rect width="24" height="24" fill="white"/>
</clipPath>
</defs>
</svg>
