<svg width="24" height="24" viewBox="0 0 24 24" fill="none" xmlns="http://www.w3.org/2000/svg">
<path d="M11.9998 23.9997C18.6272 23.9997 23.9997 18.6272 23.9997 11.9998C23.9997 5.37252 18.6272 0 11.9998 0C5.37252 0 0 5.37252 0 11.9998C0 18.6272 5.37252 23.9997 11.9998 23.9997Z" fill="url(#paint0_linear_1422_877)"/>
<path fill-rule="evenodd" clip-rule="evenodd" d="M6.23438 17.2529H17.1849L17.3528 15.7793L6.7281 15.2969L6.23438 17.2529Z" fill="black"/>
<mask id="mask0_1422_877" style="mask-type:alpha" maskUnits="userSpaceOnUse" x="2" y="8" width="20" height="10">
<path d="M2 8H21.9089V17.9175H2V8Z" fill="white"/>
</mask>
<g mask="url(#mask0_1422_877)">
<path fill-rule="evenodd" clip-rule="evenodd" d="M9.46275 15.4797C9.43879 15.4189 9.41482 15.3581 9.39096 15.2978L9.29501 15.0549C9.26655 14.9826 9.23868 14.9122 9.21276 14.8466C9.21207 14.8447 9.2109 14.8433 9.21012 14.8415C9.19427 14.8022 9.1752 14.7662 9.15417 14.732C9.1486 14.7229 9.14292 14.714 9.13706 14.7052C9.11358 14.6708 9.08835 14.6381 9.0594 14.6089C9.0592 14.6087 9.05901 14.6084 9.05881 14.6081C9.05774 14.607 9.05637 14.6062 9.05529 14.6052C9.03485 14.5849 9.01343 14.5656 8.99045 14.5478C8.98174 14.541 8.97167 14.5353 8.96257 14.5289C8.95396 14.5228 8.94516 14.5168 8.93616 14.5111C8.90047 14.4881 8.86301 14.4666 8.82202 14.4483C8.82183 14.4482 8.82163 14.448 8.82144 14.4479C8.82026 14.4474 8.81899 14.4471 8.81782 14.4466C8.77772 14.429 8.73439 14.4141 8.6894 14.4006C8.67776 14.397 8.66603 14.3937 8.65409 14.3905C8.64265 14.3874 8.63199 14.3837 8.62015 14.3808C8.58328 14.3719 8.54484 14.3642 8.50514 14.3577C8.50504 14.3577 8.50484 14.3576 8.50474 14.3576C8.50416 14.3575 8.50338 14.3575 8.50279 14.3574C8.45066 14.349 8.3954 14.3431 8.33848 14.3386C8.324 14.3373 8.30943 14.3363 8.29456 14.3354C8.23598 14.3318 8.17583 14.3292 8.11245 14.3292C8.02599 14.3292 7.93562 14.3335 7.8427 14.3418C7.8027 14.3454 7.76201 14.35 7.72123 14.355C8.0166 14.2609 8.26649 14.1329 8.47227 13.9702C8.71454 13.7785 8.89567 13.5398 9.01998 13.2544C9.08854 13.0969 9.13803 12.9241 9.17256 12.7389L9.16063 13.0196L9.58755 14.3597H9.50373L9.46275 15.4797ZM7.18115 15.05L7.26428 15.1675C7.2145 15.1819 7.16618 15.1981 7.12119 15.2176C7.11356 15.2209 7.10662 15.2249 7.09918 15.2283C6.92959 14.9991 6.7599 14.7699 6.5903 14.5407C6.74503 14.5331 6.89193 14.52 7.03229 14.5021C7.01341 14.5078 6.99395 14.512 6.97517 14.518L7.18115 15.05ZM10.3835 14.5515C10.3571 14.5714 10.3323 14.5917 10.3088 14.612L10.2793 14.4837H10.4852C10.449 14.5054 10.4147 14.5279 10.3835 14.5515ZM21.884 11.3682C21.8869 11.3482 21.8899 11.3282 21.8922 11.3077C21.8949 11.2842 21.8967 11.2602 21.8987 11.2364C21.9005 11.2156 21.9025 11.1951 21.9038 11.174C21.9052 11.1495 21.9058 11.1245 21.9066 11.0995C21.9073 11.0783 21.9083 11.0572 21.9085 11.0357C21.9086 11.0321 21.9089 11.0287 21.9089 11.0252C21.9089 11.0026 21.9081 10.9793 21.9076 10.9563C21.9073 10.9353 21.9073 10.9145 21.9065 10.8932C21.9055 10.8648 21.9035 10.8358 21.9016 10.8071C21.9004 10.7868 21.8996 10.7668 21.898 10.7463C21.8954 10.7135 21.8916 10.6801 21.8881 10.6466C21.8863 10.6293 21.885 10.6123 21.8828 10.5947C21.8767 10.5434 21.8695 10.4914 21.8612 10.4386C21.7945 10.0141 21.6751 9.64905 21.4987 9.34054C21.324 9.03508 21.0928 8.78404 20.8004 8.58529C20.51 8.38786 20.1581 8.24141 19.7397 8.14452C19.3227 8.04784 18.8382 8 18.2804 8C18.1817 8 18.0866 8.00203 17.9932 8.00497C17.9725 8.00568 17.9519 8.00628 17.9314 8.00709C17.8409 8.01054 17.7525 8.0153 17.6669 8.02169C17.6538 8.0227 17.6413 8.02392 17.6283 8.02503C17.5512 8.03122 17.4763 8.03872 17.4033 8.04723C17.3877 8.04905 17.3718 8.05067 17.3563 8.0526C17.2773 8.06253 17.2008 8.07398 17.1265 8.08675C17.1202 8.08787 17.1134 8.08858 17.1072 8.08969C17.0976 8.09132 17.089 8.09365 17.0795 8.09537C17.01 8.10804 16.9421 8.12192 16.8768 8.13713C16.8699 8.13875 16.8628 8.14017 16.856 8.14179C16.8534 8.1424 16.8506 8.1429 16.8479 8.14351C16.7812 8.15973 16.7175 8.17777 16.6551 8.19662C16.6404 8.20108 16.6258 8.20564 16.6114 8.2102C16.5476 8.23057 16.4854 8.25205 16.4262 8.27547C16.4208 8.27759 16.4158 8.27993 16.4104 8.28205C16.3554 8.30425 16.3027 8.32797 16.2516 8.35269C16.2446 8.35614 16.2367 8.35898 16.2298 8.36242C16.2251 8.36475 16.2211 8.36749 16.2165 8.36982C16.1634 8.39678 16.1124 8.42506 16.0637 8.45496C16.0546 8.46053 16.0459 8.46651 16.0369 8.47218C15.993 8.50016 15.9509 8.52935 15.9107 8.55975C15.9038 8.56492 15.8967 8.56989 15.8899 8.57505C15.8866 8.57769 15.8829 8.58012 15.8795 8.58276C15.8398 8.61428 15.8025 8.64762 15.7664 8.68167C15.7575 8.69009 15.7489 8.6987 15.7402 8.70721C15.7022 8.74471 15.6657 8.78333 15.6318 8.82397C15.631 8.82488 15.6301 8.82569 15.6293 8.8267C15.6291 8.82691 15.6289 8.82721 15.6287 8.82741C15.5941 8.86927 15.5625 8.91326 15.5322 8.95836C15.5254 8.96859 15.5186 8.97873 15.512 8.98896C15.4832 9.03416 15.456 9.08058 15.4313 9.12903C15.4276 9.13622 15.4244 9.14372 15.4208 9.15102C15.3987 9.19571 15.3786 9.24183 15.3599 9.28926C15.356 9.29919 15.3519 9.30902 15.3481 9.31916C15.3457 9.32534 15.343 9.33132 15.3407 9.3376C15.324 9.38412 15.3093 9.43226 15.2957 9.48132C15.2944 9.48588 15.2926 9.49003 15.2914 9.49459C15.2728 9.56321 15.2479 9.65472 15.2293 9.72334C15.2203 9.75678 15.2081 9.80127 15.1991 9.83462C15.1814 9.89948 15.158 9.98614 15.1403 10.051C15.1233 10.1136 15.1007 10.1971 15.0837 10.2598C15.0754 10.2902 15.0644 10.3308 15.0561 10.3613C15.04 10.4207 15.0186 10.4999 15.0024 10.5593C14.9215 10.8576 14.8405 11.1559 14.7596 11.4543C14.7558 11.4683 14.7534 11.4835 14.75 11.4977C14.7438 11.5224 14.7385 11.5478 14.7332 11.5733C14.7287 11.5951 14.7227 11.6157 14.7188 11.6381C14.7147 11.6615 14.7126 11.6868 14.7091 11.7109C14.7053 11.7374 14.7015 11.7641 14.6985 11.7915C14.6968 11.8063 14.694 11.8201 14.6926 11.8352C14.6892 11.8721 14.6883 11.9113 14.6862 11.9494C14.685 11.9742 14.6828 11.9982 14.6821 12.0236C14.6819 12.0313 14.6811 12.0384 14.6809 12.0462C14.6793 12.1188 14.6802 12.1937 14.6835 12.2709C14.6943 12.5261 14.7287 12.7605 14.7886 12.9736C14.849 13.1883 14.935 13.3811 15.0482 13.5522C15.1621 13.7243 15.3032 13.874 15.4733 14.0016C15.6439 14.1297 15.8436 14.2352 16.0733 14.3183L16.896 12.8256L17.0312 12.5505C17.0408 12.5483 17.0494 12.5455 17.0599 12.5439C17.0876 12.5397 17.1176 12.5372 17.1501 12.5372C17.1707 12.5372 17.192 12.5381 17.2141 12.5397C17.2362 12.5414 17.259 12.5441 17.2824 12.5475C17.3058 12.551 17.3296 12.5552 17.354 12.5605C17.3783 12.5658 17.4031 12.5719 17.4281 12.5789C17.4951 12.5976 17.5577 12.6211 17.6135 12.6477C17.6694 12.6742 17.7186 12.7038 17.7586 12.7346C17.7987 12.7654 17.8296 12.7976 17.849 12.829C17.8684 12.8605 17.8763 12.8914 17.8702 12.92C17.8685 12.9337 17.8592 13.0091 17.8454 13.1226C17.8317 13.2365 17.8134 13.3889 17.7937 13.5561C17.7739 13.724 17.7528 13.907 17.7337 14.0803C17.7147 14.2521 17.6976 14.414 17.6856 14.5424C17.6851 14.5428 17.6846 14.5432 17.6842 14.5436C17.6824 14.5451 17.6809 14.547 17.6793 14.5486C17.6722 14.5549 17.6661 14.5622 17.6593 14.5689C17.6448 14.5834 17.6308 14.5982 17.6178 14.6141C17.6152 14.6172 17.6122 14.6197 17.6096 14.6228L17.2563 15.0709C17.2383 14.9318 17.2022 14.8163 17.1505 14.7235C17.0907 14.6162 17.0118 14.5366 16.9213 14.4782C16.831 14.4199 16.7292 14.3827 16.6239 14.3601C16.5185 14.3374 16.4094 14.3292 16.3044 14.3292C16.2064 14.3292 16.1156 14.3369 16.031 14.351C15.9464 14.365 15.8679 14.3853 15.7951 14.4104C15.7221 14.4356 15.6546 14.4656 15.5919 14.499C15.529 14.5324 15.4709 14.5693 15.4167 14.6082L15.4039 14.3597H14.6568L14.4592 14.9031L14.4391 14.3597H14.3943L14.4345 14.2371L14.4164 13.7476H13.677L13.4481 14.8166C13.4365 14.7788 13.4237 14.7428 13.4082 14.7105C13.359 14.6074 13.2914 14.5308 13.2142 14.4744C13.1371 14.418 13.0501 14.3817 12.9621 14.3595C12.8742 14.3373 12.785 14.3292 12.7033 14.3292C12.5898 14.3292 12.4868 14.3389 12.3931 14.3562C12.2994 14.3736 12.2149 14.3987 12.1385 14.4296C12.062 14.4606 11.9936 14.4974 11.9319 14.5381C11.8702 14.579 11.8153 14.6238 11.766 14.6705C11.7294 14.6021 11.6836 14.5464 11.6317 14.5016C11.5799 14.4569 11.522 14.4228 11.4615 14.3972C11.4195 14.3796 11.3762 14.3672 11.3327 14.357L11.3425 13.2985H14.0479L14.4583 11.6331L14.4405 11.1758L14.8237 9.54L14.7555 8.06547H9.37169L9.28543 10.0908L8.8233 8.06547H6.93184L6.73525 10.4386C6.72439 10.5694 6.70102 10.6977 6.65368 10.8167C6.60615 10.9362 6.53465 11.0462 6.42775 11.14C6.32056 11.234 6.17796 11.3116 5.98861 11.3656C5.824 11.4126 5.62184 11.4405 5.37996 11.4474L5.50701 10.2104L4.31271 8.06547H2.42125L2.04822 10.4386C2.03981 10.4917 2.03267 10.5441 2.02641 10.5956C2.02426 10.6135 2.02299 10.6307 2.02103 10.6483C2.01751 10.6817 2.0138 10.7152 2.01116 10.748C2.00949 10.7688 2.00861 10.7888 2.00734 10.8093C2.00548 10.8383 2.00343 10.8674 2.00245 10.8957C2.00157 10.9171 2.00157 10.9379 2.00128 10.9589C2.00089 10.9818 2 11.0051 2 11.0276C2 11.0314 2.0003 11.0351 2.0003 11.0388C2.0005 11.0605 2.00147 11.0816 2.00206 11.1029C2.00284 11.128 2.00343 11.1533 2.0049 11.1779C2.00607 11.1989 2.00812 11.2195 2.00979 11.2401C2.01184 11.2642 2.0137 11.2885 2.01634 11.3121C2.01859 11.3326 2.02162 11.3524 2.02436 11.3725C2.02759 11.3957 2.03072 11.4189 2.03463 11.4416C2.03805 11.4614 2.04206 11.4806 2.04588 11.5C2.04911 11.5158 2.05165 11.532 2.05507 11.5476C2.05654 11.554 2.0584 11.5601 2.05996 11.5664C2.06133 11.5723 2.06231 11.5787 2.06378 11.5847C2.067 11.5977 2.07101 11.6099 2.07444 11.6227C2.08021 11.6444 2.08608 11.6661 2.09253 11.6873C2.0982 11.7057 2.10427 11.7238 2.11043 11.7419C2.11747 11.7624 2.12461 11.783 2.13224 11.803C2.13909 11.821 2.14642 11.8385 2.15376 11.856C2.16197 11.8755 2.17029 11.8948 2.17919 11.9139C2.18721 11.9311 2.19572 11.9481 2.20432 11.965C2.20951 11.9752 2.214 11.9858 2.21938 11.9958C2.22379 12.004 2.22897 12.0118 2.23347 12.0199C2.24276 12.0365 2.25244 12.0529 2.26222 12.0692C2.27298 12.0867 2.28394 12.1041 2.29528 12.1213C2.30575 12.1371 2.3165 12.1527 2.32756 12.1682C2.33959 12.1849 2.35201 12.2014 2.36472 12.2177C2.37626 12.2327 2.3881 12.2474 2.40032 12.262C2.41372 12.278 2.42761 12.2939 2.44179 12.3095C2.45451 12.3234 2.46732 12.3373 2.48062 12.351C2.48659 12.3571 2.49197 12.3637 2.49803 12.3697C2.5706 12.4419 2.64767 12.5187 2.7265 12.5973L2.98178 12.8517C3.08036 12.9499 3.18022 13.0493 3.28077 13.1494L3.57966 13.4472C3.6668 13.534 3.75219 13.6191 3.83493 13.7016L4.0635 13.9292C4.07045 13.9362 4.07827 13.9426 4.08551 13.9495C4.09343 13.9572 4.10086 13.9652 4.10898 13.9726C4.11505 13.9782 4.1217 13.9831 4.12776 13.9886C4.14077 14.0001 4.15407 14.0112 4.16747 14.0224C4.18243 14.0346 4.19759 14.0468 4.21315 14.0586C4.22723 14.0693 4.24151 14.0798 4.25608 14.0902C4.27232 14.1017 4.28875 14.1131 4.30557 14.1241C4.32063 14.134 4.33589 14.1438 4.35134 14.1533C4.36885 14.164 4.38675 14.1746 4.40494 14.1849C4.41374 14.1899 4.42196 14.1953 4.43096 14.2002C4.43575 14.2029 4.44103 14.2052 4.44592 14.2078C4.39663 14.2338 4.34929 14.2615 4.30596 14.2931C4.18028 14.3848 4.07945 14.5002 4.00443 14.6403C3.92902 14.781 3.87943 14.9466 3.85655 15.138C3.85039 15.1896 3.84696 15.2392 3.8454 15.2873C3.84491 15.3031 3.84579 15.318 3.84579 15.3335C3.84579 15.365 3.84608 15.3964 3.84814 15.4264C3.84843 15.4312 3.84804 15.4365 3.84843 15.4412C3.84941 15.4537 3.85215 15.465 3.85342 15.4772C3.85645 15.5039 3.85968 15.5303 3.86437 15.5557C3.8675 15.5727 3.87141 15.589 3.87523 15.6054C3.87836 15.6187 3.88041 15.6328 3.88403 15.6458C3.88687 15.6559 3.89097 15.6649 3.8942 15.6749C3.89665 15.6828 3.89811 15.6915 3.90085 15.6992C3.90349 15.707 3.9075 15.7138 3.91044 15.7214C3.91865 15.7432 3.92785 15.764 3.93763 15.7845C3.94438 15.7987 3.95112 15.8128 3.95866 15.8264C3.96981 15.8466 3.98232 15.8658 3.99504 15.8847C4.00091 15.8934 4.0055 15.903 4.01176 15.9114C4.01411 15.9146 4.01714 15.9173 4.01959 15.9205C4.03485 15.9405 4.05167 15.959 4.06878 15.9774C4.077 15.9862 4.08443 15.9957 4.09314 16.0042C4.0948 16.0059 4.09607 16.0077 4.09773 16.0093C4.12307 16.0335 4.15016 16.0562 4.17901 16.0774C4.31799 16.1796 4.47341 16.2938 4.63332 16.4113L5.00234 16.6824C5.02591 16.6997 5.04919 16.7168 5.07256 16.7339L5.52687 17.0678C5.54965 17.0845 5.57391 17.0999 5.59924 17.1144C5.60756 17.1192 5.61655 17.1232 5.62516 17.1278C5.63895 17.135 5.65235 17.1427 5.66683 17.1493C5.67074 17.1511 5.67524 17.1525 5.67925 17.1542C5.69001 17.159 5.70125 17.1633 5.7124 17.1676C5.73011 17.1746 5.7482 17.1813 5.76678 17.1875C5.77216 17.1892 5.77695 17.1914 5.78233 17.1932C5.78928 17.1953 5.797 17.1968 5.80405 17.1988C5.81353 17.2016 5.82243 17.2048 5.83212 17.2073C5.8419 17.2099 5.85236 17.2117 5.86224 17.214C5.87535 17.2171 5.88865 17.2201 5.90205 17.2228C5.92288 17.227 5.9444 17.2306 5.96601 17.2338C5.97951 17.2359 5.99271 17.2382 6.0065 17.2398C6.01169 17.2405 6.01658 17.2415 6.02176 17.2421C6.04103 17.2442 6.06127 17.2455 6.08113 17.2471C6.09326 17.248 6.10499 17.2493 6.11732 17.2501C6.15546 17.2522 6.19439 17.2536 6.23459 17.2536C6.33171 17.2536 6.42042 17.2464 6.5014 17.2327C6.58228 17.2189 6.65554 17.1986 6.72195 17.1725C6.78826 17.1463 6.84773 17.1144 6.90113 17.0772C6.90406 17.0752 6.90651 17.0728 6.90944 17.0707L7.07522 17.2258H7.47133L7.49784 16.8136C7.57422 16.8989 7.65071 16.9844 7.72709 17.0697C7.72788 17.0705 7.72876 17.0711 7.72954 17.0719C7.74294 17.0866 7.75732 17.1003 7.77297 17.113C7.77649 17.1159 7.7805 17.1185 7.78421 17.1213C7.7935 17.1284 7.8026 17.1356 7.81258 17.1421C7.81473 17.1435 7.81737 17.1443 7.81962 17.1456C7.82343 17.1481 7.82656 17.1509 7.83047 17.1531C7.85375 17.1669 7.87899 17.1787 7.9052 17.1894C7.91136 17.1919 7.91781 17.194 7.92417 17.1964C7.93669 17.2011 7.94882 17.2062 7.96193 17.2103C7.97875 17.2156 7.99645 17.2197 8.01406 17.2239C8.01767 17.2248 8.02071 17.2262 8.02432 17.2271C8.02589 17.2274 8.02755 17.2275 8.02912 17.2278C8.0568 17.234 8.08536 17.2393 8.1147 17.2431C8.11978 17.2438 8.12526 17.2435 8.13025 17.2441C8.17944 17.2499 8.22991 17.2537 8.28214 17.2537C8.3508 17.2537 8.41965 17.251 8.48831 17.2442C8.55697 17.2375 8.62524 17.2265 8.69302 17.2097C8.7607 17.193 8.8277 17.1704 8.89372 17.1404C8.92717 17.1252 8.96042 17.1079 8.99338 17.0888L9.07964 17.2258H9.71381L9.72418 16.902L9.87196 17.2258H10.5068L10.525 16.3501C10.559 16.3168 10.593 16.2875 10.6271 16.2623C10.6614 16.2371 10.6958 16.216 10.731 16.199C10.7662 16.182 10.8021 16.1692 10.8392 16.1606C10.8761 16.1521 10.9143 16.1477 10.954 16.1477C10.9802 16.1477 11.0038 16.1497 11.0259 16.1528C11.0328 16.1538 11.039 16.1554 11.0456 16.1568C11.0602 16.1596 11.0741 16.1632 11.0869 16.1676C11.0892 16.1684 11.0914 16.1694 11.0937 16.1703L11.0925 16.2659L11.2423 17.2258H11.8772L11.8781 16.3501C11.9113 16.3168 11.9446 16.2875 11.9782 16.2623C12.0117 16.2371 12.0457 16.216 12.0806 16.199C12.1153 16.182 12.151 16.1692 12.1878 16.1606C12.2247 16.1521 12.2627 16.1477 12.3024 16.1477C12.3596 16.1477 12.4071 16.155 12.4461 16.1703C12.485 16.1855 12.5156 16.2088 12.5391 16.2406C12.5626 16.2724 12.579 16.3128 12.5898 16.3625C12.6005 16.4123 12.6055 16.4714 12.6062 16.5405L12.6127 17.2258H13.2467L13.4189 16.6176L13.4318 17.2258H14.0659L14.2387 16.8523L14.2509 17.2258H14.8859L15.5021 16.2659L15.4969 16.1651C15.505 16.167 15.5145 16.1679 15.522 16.1703C15.5715 16.1855 15.6112 16.2088 15.6426 16.2406C15.674 16.2724 15.6971 16.3128 15.7133 16.3625C15.7295 16.4123 15.7388 16.4714 15.7426 16.5405L15.7802 17.2258H16.415L16.7323 16.9011C16.7511 16.9203 16.7707 16.9386 16.7913 16.9555C16.8385 16.9939 16.8914 17.0255 16.948 17.052L16.7413 17.2481L16.7782 17.7865C16.8169 17.797 16.8707 17.8104 16.9369 17.8247C17.0031 17.839 17.0817 17.854 17.1697 17.8677C17.2577 17.8815 17.3553 17.894 17.4593 17.9029C17.5634 17.9119 17.674 17.9175 17.7881 17.9175C17.841 17.9175 17.8925 17.9146 17.9431 17.9099C17.9484 17.9094 17.9542 17.9096 17.9596 17.9091C17.9627 17.9088 17.9655 17.9079 17.9687 17.9076C18.0167 17.9023 18.0633 17.8947 18.1082 17.8848C18.1123 17.884 18.1167 17.8837 18.1206 17.8827C18.1253 17.8817 18.1294 17.8798 18.1341 17.8786C18.1474 17.8754 18.1611 17.8728 18.174 17.8692C18.2053 17.8602 18.2355 17.8499 18.2648 17.8385C18.266 17.8379 18.2673 17.8377 18.2683 17.8373C18.2711 17.8362 18.2733 17.8345 18.2762 17.8334C18.3158 17.8173 18.3532 17.7984 18.3885 17.7772C18.3921 17.7751 18.3963 17.7738 18.3998 17.7716C18.4823 17.7202 18.5711 17.6647 18.6623 17.6079L18.7885 17.5292C18.9086 17.4543 19.0317 17.3775 19.1547 17.3009L19.3792 17.1608C19.422 17.1342 19.4638 17.1081 19.5054 17.0822L19.7679 16.9185C19.7703 16.917 19.7724 16.9151 19.7748 16.9134C19.8001 16.8973 19.8239 16.8797 19.8469 16.8612C19.852 16.8572 19.8577 16.8537 19.8627 16.8495C19.8633 16.849 19.864 16.8486 19.8645 16.8481C19.8912 16.8254 19.916 16.8007 19.9393 16.7745C19.9404 16.7733 19.9418 16.7723 19.9429 16.771C19.9486 16.7646 19.953 16.7569 19.9584 16.7502C19.9746 16.7303 19.9903 16.7099 20.0045 16.6881C20.0118 16.6768 20.0183 16.6645 20.025 16.6527C20.0366 16.6324 20.0477 16.6118 20.0576 16.59C20.0602 16.5843 20.0638 16.5792 20.0663 16.5732C20.0697 16.5652 20.0718 16.5559 20.0749 16.5476C20.0794 16.536 20.0849 16.5254 20.0889 16.5134C20.0925 16.5027 20.0946 16.4906 20.0978 16.4795C20.1022 16.4641 20.1065 16.4486 20.1101 16.4324C20.1159 16.4075 20.1203 16.3816 20.1241 16.355C20.1258 16.3439 20.1288 16.3338 20.1301 16.3223C20.1307 16.317 20.1304 16.3109 20.1309 16.3055C20.1338 16.2758 20.1348 16.2444 20.1354 16.2127C20.1357 16.1973 20.1367 16.1827 20.1364 16.1668C20.1357 16.1185 20.1326 16.0683 20.1264 16.0155L19.9291 14.3597H19.182L19.0448 14.5007C18.9966 14.4697 18.944 14.443 18.8876 14.4199C18.8944 14.4182 18.901 14.4164 18.9077 14.4147C18.9258 14.41 18.9446 14.4058 18.9623 14.4009C18.9684 14.3992 18.9743 14.3971 18.9805 14.3954C18.9864 14.3937 18.9927 14.3923 18.9986 14.3906C19.0133 14.3863 19.0271 14.3814 19.0416 14.377C19.0646 14.3699 19.0877 14.3628 19.1101 14.3553C19.1297 14.3487 19.1489 14.3417 19.168 14.3348C19.1899 14.3268 19.2117 14.3189 19.2328 14.3106C19.2514 14.3032 19.2694 14.2956 19.2875 14.2879C19.308 14.2792 19.3286 14.2704 19.3485 14.2611C19.3659 14.2531 19.3829 14.2448 19.3999 14.2364C19.4193 14.2268 19.4386 14.217 19.4573 14.207C19.4642 14.2034 19.4717 14.2 19.4785 14.1963C19.4878 14.1911 19.4964 14.1854 19.5056 14.1802C19.5237 14.1697 19.5415 14.1593 19.5589 14.1484C19.5743 14.1389 19.5894 14.1292 19.6043 14.1192C19.6211 14.1081 19.6375 14.0968 19.6537 14.0853C19.6681 14.075 19.6822 14.0644 19.6962 14.0538C19.7117 14.0418 19.7268 14.0298 19.7417 14.0175C19.7551 14.0063 19.7683 13.9951 19.7812 13.9836C19.7878 13.9778 19.795 13.9723 19.8015 13.9663C19.809 13.9594 19.8157 13.9519 19.8231 13.9448C19.8299 13.9383 19.8372 13.9323 19.8438 13.9257L20.153 13.6176C20.3015 13.4694 20.4566 13.3148 20.6128 13.1591L21.0996 12.6737C21.2072 12.5666 21.3118 12.4622 21.4088 12.3656C21.4153 12.359 21.4213 12.3519 21.4278 12.3452C21.4412 12.3315 21.4541 12.3175 21.4669 12.3033C21.4809 12.2878 21.4947 12.2721 21.508 12.2561C21.5201 12.2416 21.532 12.2268 21.5438 12.2117C21.5563 12.1954 21.5686 12.1789 21.5805 12.1622C21.5916 12.1467 21.6024 12.1311 21.613 12.1152C21.6243 12.098 21.6352 12.0807 21.6459 12.0632C21.6557 12.047 21.6654 12.0305 21.6747 12.0139C21.6789 12.0063 21.6837 11.9991 21.6878 11.9915C21.6935 11.981 21.6984 11.9698 21.7038 11.9591C21.7124 11.9423 21.721 11.9252 21.729 11.908C21.7378 11.8891 21.7462 11.8697 21.7543 11.8502C21.7618 11.8327 21.7691 11.8153 21.7759 11.7973C21.7836 11.7773 21.7907 11.7568 21.7977 11.7363C21.8038 11.7182 21.8101 11.7001 21.8158 11.6818C21.8222 11.6606 21.828 11.639 21.8337 11.6174C21.8373 11.6044 21.8415 11.5917 21.8447 11.5783C21.8462 11.5728 21.847 11.5669 21.8484 11.5612C21.8498 11.5553 21.8516 11.5497 21.8529 11.5438C21.8565 11.5279 21.8592 11.5112 21.8624 11.495C21.8663 11.4758 21.8703 11.4565 21.8738 11.4368C21.8777 11.4142 21.8808 11.3912 21.884 11.3682Z" fill="black"/>
</g>
<path fill-rule="evenodd" clip-rule="evenodd" d="M5.35216 14.0215C5.569 14.0215 5.75815 14.0402 5.91973 14.0775C6.0814 14.1148 6.21568 14.1709 6.32249 14.2453C6.42949 14.3199 6.5091 14.4131 6.56104 14.5248C6.61326 14.637 6.63771 14.7678 6.63429 14.9175H5.79991C5.79473 14.8892 5.78143 14.8616 5.75903 14.836C5.73663 14.8104 5.70514 14.7869 5.66357 14.7669C5.62201 14.7469 5.57027 14.7305 5.50748 14.7191C5.44469 14.7076 5.37084 14.7012 5.28477 14.7012C5.16428 14.7012 5.06755 14.7139 4.9897 14.737C4.91184 14.7602 4.85296 14.7939 4.80827 14.8357C4.76347 14.8777 4.73286 14.9281 4.71163 14.9844C4.69041 15.0409 4.67858 15.1035 4.67144 15.1701C4.6642 15.2374 4.66244 15.303 4.67153 15.3636C4.68053 15.4244 4.70039 15.48 4.73628 15.5272C4.77227 15.5746 4.8244 15.6135 4.89776 15.6405C4.97131 15.6676 5.06608 15.6828 5.18746 15.6828C5.26697 15.6828 5.33896 15.68 5.40283 15.6734C5.46679 15.6669 5.52273 15.6565 5.57007 15.6415C5.61751 15.6265 5.65634 15.6068 5.68617 15.5814C5.7159 15.556 5.73673 15.5251 5.74788 15.4875H5.15264L5.19704 15.0435H6.62441L6.52807 16.2659H6.04863L6.01567 15.9383C5.96393 15.994 5.90584 16.0444 5.8407 16.0886C5.77537 16.1329 5.70279 16.1711 5.6221 16.2022C5.54122 16.2334 5.45222 16.2576 5.35402 16.2741C5.25573 16.2905 5.14824 16.2991 5.03068 16.2991C4.82401 16.2991 4.64122 16.2752 4.48463 16.2268C4.32824 16.1787 4.19835 16.1062 4.09722 16.0091C3.99638 15.9124 3.9244 15.7913 3.88352 15.6456C3.84273 15.5006 3.83285 15.3314 3.85603 15.1379C3.87892 14.9464 3.92851 14.7808 4.00392 14.6402C4.07893 14.5002 4.17967 14.3847 4.30545 14.293C4.43084 14.2016 4.58116 14.1337 4.75584 14.0887C4.93033 14.0437 5.12926 14.0215 5.35216 14.0215Z" fill="white"/>
<path fill-rule="evenodd" clip-rule="evenodd" d="M8.50738 15.6324L8.51139 15.5524C8.48175 15.5445 8.44918 15.5375 8.41358 15.5316C8.37808 15.5256 8.33954 15.5205 8.29798 15.5165C8.25641 15.5124 8.21171 15.5094 8.16379 15.5072C8.11586 15.5052 8.06481 15.5042 8.01033 15.5042C7.92231 15.5042 7.8468 15.5062 7.78274 15.5111C7.71877 15.5161 7.66625 15.524 7.62459 15.5356C7.58292 15.5473 7.55192 15.5628 7.53089 15.583C7.50986 15.6031 7.49871 15.628 7.49675 15.6585C7.49499 15.6848 7.4992 15.7057 7.50947 15.722C7.51974 15.7384 7.53607 15.7505 7.55876 15.7592C7.58145 15.7679 7.6104 15.7733 7.64581 15.7765C7.68131 15.7798 7.72327 15.7808 7.77198 15.7808C7.83633 15.7808 7.90226 15.7767 7.96808 15.7694C8.0339 15.762 8.09953 15.7513 8.1632 15.738C8.22687 15.7247 8.28859 15.7088 8.34649 15.691C8.40449 15.6732 8.45867 15.6534 8.50738 15.6324ZM8.11264 14.3301C8.30384 14.3301 8.47363 14.3462 8.62034 14.3816C8.76725 14.4169 8.89126 14.4716 8.99063 14.5486C9.0903 14.6257 9.16541 14.7253 9.21431 14.8507C9.26331 14.9766 9.28601 15.1285 9.28043 15.3099L9.24278 16.2668H8.4753L8.48733 16.0295C8.41016 16.0846 8.33133 16.1291 8.25122 16.1648C8.17102 16.2006 8.08965 16.2275 8.00759 16.2475C7.92544 16.2676 7.8425 16.2806 7.75936 16.2887C7.67623 16.2969 7.5929 16.3 7.50966 16.3C7.39993 16.3 7.2943 16.29 7.19806 16.2683C7.10182 16.2466 7.01506 16.2133 6.94298 16.1668C6.87109 16.1204 6.81388 16.0608 6.77671 15.9865C6.73964 15.9124 6.72243 15.8239 6.73045 15.7192C6.74003 15.594 6.78346 15.4923 6.85163 15.4102C6.9197 15.3282 7.01252 15.2655 7.12138 15.2184C7.23004 15.1714 7.35474 15.1398 7.48668 15.1199C7.61852 15.1001 7.7577 15.092 7.89541 15.092C7.96133 15.092 8.02334 15.0941 8.08183 15.0983C8.14041 15.1025 8.19548 15.1087 8.24761 15.117C8.29974 15.1251 8.34893 15.1353 8.39578 15.1474C8.44263 15.1594 8.48713 15.1735 8.52977 15.1893C8.53261 15.1324 8.5199 15.0892 8.49515 15.0563C8.4705 15.0236 8.43393 15.0012 8.38913 14.9859C8.34434 14.9706 8.29133 14.9624 8.23382 14.958C8.17631 14.9536 8.1143 14.9531 8.05141 14.9531C7.99097 14.9531 7.92837 14.9544 7.86294 14.9576C7.79751 14.9609 7.72914 14.9659 7.65745 14.9734C7.58576 14.9809 7.51064 14.9908 7.43152 15.0035C7.35239 15.0162 7.26916 15.0318 7.18133 15.0509L6.97535 14.5187C7.07101 14.4886 7.16842 14.4616 7.26593 14.4383C7.36354 14.415 7.46125 14.3951 7.55788 14.3791C7.65451 14.3631 7.74997 14.3509 7.84289 14.3425C7.9358 14.3343 8.02618 14.3301 8.11264 14.3301Z" fill="white"/>
<path fill-rule="evenodd" clip-rule="evenodd" d="M12.7029 14.3301C12.7847 14.3301 12.8738 14.3382 12.9618 14.3604C13.0498 14.3826 13.1367 14.4189 13.2138 14.4752C13.291 14.5317 13.3586 14.6083 13.4078 14.7114C13.4571 14.8146 13.488 14.9447 13.4917 15.1076L13.518 16.2668H12.7506L12.7412 15.4505C12.7402 15.3684 12.734 15.2982 12.7209 15.2391C12.7079 15.18 12.688 15.1321 12.6595 15.0942C12.6311 15.0565 12.5942 15.029 12.5471 15.0109C12.5001 14.9928 12.4429 14.9841 12.3738 14.9841C12.3259 14.9841 12.28 14.9893 12.2355 14.9994C12.1911 15.0096 12.1482 15.0248 12.1062 15.0449C12.0642 15.0651 12.0232 15.0901 11.9826 15.1201C11.942 15.15 11.902 15.1848 11.8619 15.2243L11.8605 16.2668H11.0921L11.1023 15.4505C11.1033 15.3684 11.0989 15.2982 11.0874 15.2391C11.0758 15.18 11.0572 15.1321 11.0298 15.0942C11.0024 15.0565 10.9662 15.029 10.9196 15.0109C10.8731 14.9928 10.8162 14.9841 10.7471 14.9841C10.6992 14.9841 10.6532 14.9893 10.6085 14.9994C10.5638 15.0096 10.5204 15.0248 10.478 15.0449C10.4354 15.0651 10.3937 15.0901 10.3523 15.1201C10.3109 15.15 10.2697 15.1848 10.2286 15.2243L10.202 16.2668H9.43359L9.50343 14.3606H10.2506L10.2426 14.6713C10.2851 14.6324 10.3311 14.5917 10.3832 14.5523C10.4352 14.513 10.4934 14.4752 10.5605 14.4423C10.6275 14.4093 10.7034 14.3813 10.7909 14.3615C10.8784 14.3416 10.9775 14.3301 11.0911 14.3301C11.1495 14.3301 11.2118 14.3343 11.2746 14.345C11.3374 14.3556 11.4007 14.3726 11.4611 14.3981C11.5217 14.4236 11.5795 14.4578 11.6314 14.5025C11.6832 14.5473 11.7291 14.6029 11.7656 14.6713C11.8149 14.6245 11.8698 14.5798 11.9315 14.539C11.9933 14.4982 12.0616 14.4614 12.1381 14.4304C12.2146 14.3995 12.299 14.3745 12.3927 14.357C12.4864 14.3397 12.5894 14.3301 12.7029 14.3301Z" fill="white"/>
<path fill-rule="evenodd" clip-rule="evenodd" d="M16.3049 14.3301C16.4098 14.3301 16.5189 14.3382 16.6243 14.3609C16.7296 14.3835 16.8314 14.4208 16.9217 14.4791C17.0121 14.5373 17.0911 14.6169 17.1509 14.7243C17.2108 14.8321 17.2515 14.9679 17.2649 15.1388L17.3534 16.2668H16.585L16.5301 15.4505C16.5246 15.3684 16.5125 15.2982 16.4922 15.2391C16.472 15.18 16.4435 15.1321 16.4052 15.0942C16.367 15.0565 16.3187 15.029 16.2589 15.0109C16.199 14.9928 16.1276 14.9841 16.0428 14.9841C15.9872 14.9841 15.9311 14.9903 15.876 15.0016C15.8209 15.013 15.7668 15.0297 15.7153 15.0508C15.6637 15.0719 15.6147 15.0974 15.5698 15.1266C15.5249 15.1559 15.4841 15.1887 15.4489 15.2243L15.5026 16.2668H14.7342L14.6572 14.3606H15.4044L15.4172 14.609C15.4714 14.5702 15.5295 14.5333 15.5922 14.4998C15.655 14.4664 15.7225 14.4364 15.7955 14.4113C15.8683 14.3861 15.9468 14.3659 16.0314 14.3518C16.116 14.3378 16.2069 14.3301 16.3049 14.3301Z" fill="white"/>
<path fill-rule="evenodd" clip-rule="evenodd" d="M18.7752 15.5237C18.8759 15.5237 18.959 15.5193 19.0267 15.5093C19.0945 15.4992 19.1467 15.4836 19.1856 15.4613C19.2246 15.4389 19.2502 15.4098 19.2647 15.3729C19.279 15.3359 19.2823 15.2911 19.2765 15.2372C19.2706 15.1833 19.2578 15.1387 19.2355 15.102C19.2132 15.0654 19.1816 15.0366 19.1382 15.0145C19.0948 14.9924 19.0397 14.9771 18.9705 14.9673C18.9012 14.9574 18.8179 14.9531 18.7181 14.9531C18.6186 14.9531 18.5362 14.9574 18.469 14.9673C18.4018 14.9771 18.3497 14.9924 18.3107 15.0145C18.2716 15.0366 18.2456 15.0654 18.2307 15.102C18.2157 15.1387 18.2117 15.1833 18.2167 15.2372C18.2216 15.2911 18.2339 15.3359 18.2558 15.3729C18.2777 15.4098 18.3092 15.4389 18.3527 15.4613C18.3961 15.4836 18.4516 15.4992 18.5212 15.5093C18.591 15.5193 18.6748 15.5237 18.7752 15.5237ZM19.1818 14.3605H19.929L20.1262 16.0163C20.1494 16.2115 20.1346 16.3765 20.0888 16.5142C20.0427 16.6525 19.9655 16.763 19.8644 16.8489C19.7631 16.935 19.6378 16.9964 19.4962 17.0361C19.3543 17.0759 19.1963 17.0942 19.0293 17.0942C18.8909 17.0942 18.7567 17.0875 18.6303 17.0766C18.5039 17.0659 18.3855 17.051 18.2784 17.0345C18.1714 17.018 18.0758 16.9999 17.9953 16.9829C17.9148 16.9659 17.8493 16.9497 17.8023 16.9372L17.7481 16.2933C17.804 16.3039 17.873 16.3179 17.9514 16.3328C18.03 16.3478 18.118 16.3636 18.2121 16.3782C18.3062 16.3928 18.4063 16.4061 18.5091 16.4156C18.6118 16.4253 18.7171 16.4312 18.8214 16.4312C18.9153 16.4312 18.9976 16.4255 19.0678 16.409C19.1379 16.3925 19.1957 16.3655 19.2402 16.3229C19.2848 16.2803 19.3161 16.2224 19.3333 16.1441C19.3505 16.0662 19.3538 15.9681 19.3421 15.8453C19.3062 15.8962 19.2632 15.9419 19.2127 15.9818C19.1622 16.0217 19.1043 16.0558 19.0386 16.0836C18.973 16.1114 18.8998 16.1328 18.8189 16.1473C18.7378 16.1617 18.649 16.1692 18.5522 16.1692C18.4046 16.1692 18.2655 16.1513 18.1392 16.1142C18.0131 16.0771 17.8999 16.0209 17.8034 15.9444C17.7073 15.8679 17.628 15.7715 17.5695 15.6536C17.5112 15.5361 17.4736 15.3977 17.4606 15.2372C17.4476 15.0774 17.4627 14.9408 17.5014 14.8258C17.54 14.7111 17.6023 14.6178 17.6839 14.5444C17.7656 14.4712 17.8666 14.4175 17.9833 14.3823C18.0998 14.347 18.2319 14.3301 18.3758 14.3301C18.4699 14.3301 18.5577 14.3372 18.6394 14.3509C18.7212 14.3646 18.7967 14.3849 18.8661 14.4114C18.9356 14.4378 18.9992 14.4703 19.0567 14.5086C19.1144 14.5468 19.1661 14.5906 19.2119 14.6397L19.1818 14.3605Z" fill="white"/>
<path fill-rule="evenodd" clip-rule="evenodd" d="M8.82333 8.06445L8.70078 10.4376C8.67848 10.8697 8.59515 11.2511 8.44492 11.5807C8.29312 11.9136 8.07365 12.1925 7.78092 12.4167C7.48623 12.6425 7.11848 12.812 6.67288 12.9253C6.22572 13.0389 5.70177 13.0954 5.09704 13.0954C4.49036 13.0954 3.97707 13.0394 3.55318 12.9264C3.13076 12.8137 2.79852 12.6449 2.55146 12.4195C2.30607 12.1958 2.14547 11.9171 2.0639 11.5838C1.98312 11.2538 1.98008 10.8715 2.04825 10.4376L2.42128 8.06445H4.31274L4.01375 10.4376C3.99703 10.5702 3.9935 10.6994 4.016 10.8188C4.03849 10.9386 4.08701 11.0485 4.17444 11.1417C4.26198 11.2354 4.38854 11.3122 4.56674 11.3657C4.74514 11.4193 4.97508 11.4494 5.26889 11.4494C5.56269 11.4494 5.79899 11.4188 5.98864 11.3647C6.17799 11.3106 6.32059 11.233 6.42788 11.139C6.53468 11.0452 6.60628 10.9352 6.65371 10.8157C6.70105 10.6967 6.72442 10.5684 6.73528 10.4376L6.93187 8.06445H8.82333Z" fill="white"/>
<path fill-rule="evenodd" clip-rule="evenodd" d="M14.756 8.06445L14.8241 9.53908H11.2467L11.2409 10.0584H14.3975L14.4589 11.632H11.2229L11.2071 13.0187H9.16113L9.3721 8.06445H14.756Z" fill="white"/>
<mask id="mask1_1422_877" style="mask-type:alpha" maskUnits="userSpaceOnUse" x="15" y="8" width="7" height="6">
<path d="M15.2031 8H21.9089V13.0955H15.2031V8Z" fill="white"/>
</mask>
<g mask="url(#mask1_1422_877)">
<path fill-rule="evenodd" clip-rule="evenodd" d="M18.0981 9.52926C18.0928 9.5327 18.0895 9.53736 18.088 9.54243C18.0865 9.5474 18.0869 9.55287 18.0888 9.55794C18.0906 9.56301 18.094 9.56767 18.0987 9.57132C18.1034 9.57486 18.1093 9.5774 18.1163 9.5779C18.1671 9.58317 18.218 9.58936 18.2689 9.59645C18.3197 9.60365 18.3705 9.61175 18.4212 9.62088C18.4719 9.63 18.5227 9.64003 18.5732 9.65108C18.6238 9.66212 18.6743 9.67418 18.7246 9.68716C18.7743 9.69972 18.8239 9.71331 18.8733 9.7277C18.9227 9.74219 18.9719 9.7576 19.0208 9.77391C19.0698 9.79033 19.1186 9.80756 19.167 9.8258C19.2155 9.84405 19.2637 9.8632 19.3117 9.88327C19.3127 9.88377 19.3139 9.88418 19.3151 9.88448C19.3162 9.88489 19.3173 9.88509 19.3184 9.8854C19.3196 9.8856 19.3206 9.8858 19.3218 9.8859C19.3229 9.886 19.324 9.886 19.3251 9.886C19.33 9.886 19.3347 9.88479 19.3386 9.88276C19.3426 9.88063 19.3458 9.87759 19.348 9.87394C19.3503 9.8703 19.3516 9.86614 19.3515 9.86158C19.3514 9.85702 19.35 9.85215 19.347 9.84739C19.319 9.8031 19.2863 9.75901 19.2488 9.71665C19.2113 9.67429 19.169 9.63375 19.1214 9.59645C19.074 9.55926 19.0215 9.5254 18.9637 9.49642C18.9059 9.46753 18.8428 9.44351 18.774 9.42598C18.7546 9.42091 18.7353 9.41666 18.7162 9.41301C18.6971 9.40936 18.6783 9.40632 18.6597 9.40399C18.641 9.40166 18.6226 9.39993 18.6044 9.39872C18.5862 9.3976 18.5683 9.3971 18.5505 9.3971C18.5058 9.3971 18.4627 9.40054 18.4212 9.40703C18.3797 9.41352 18.34 9.42294 18.302 9.4347C18.2641 9.44656 18.228 9.46074 18.1939 9.47666C18.1599 9.49257 18.1279 9.5103 18.0981 9.52926ZM20.2583 10.9805C20.2747 10.8834 20.2421 10.7788 20.1692 10.673C20.0966 10.5674 19.9841 10.4606 19.8402 10.3584C19.6969 10.2565 19.5224 10.1592 19.3254 10.0726C19.129 9.98624 18.91 9.91023 18.6767 9.85053C18.5929 9.82905 18.5102 9.8105 18.4289 9.79459C18.3476 9.77878 18.2678 9.7656 18.1898 9.75516C18.1119 9.74472 18.0358 9.73702 17.9619 9.73185C17.8881 9.72668 17.8166 9.72415 17.7477 9.72415C17.6248 9.72415 17.5106 9.73226 17.4074 9.74817C17.3041 9.76408 17.212 9.7878 17.1333 9.81911C17.0548 9.85033 16.9898 9.88915 16.9409 9.93516C16.892 9.98117 16.8593 10.0345 16.8455 10.0948C16.8298 10.1635 16.8398 10.2364 16.8723 10.3113C16.9048 10.3863 16.9598 10.4633 17.0344 10.5399C17.1092 10.6167 17.2035 10.6931 17.3142 10.7669C17.4251 10.8408 17.5525 10.9121 17.6933 10.978C17.6943 10.9785 17.6954 10.9791 17.6964 10.9795C17.6975 10.9799 17.6985 10.9802 17.6996 10.9804C17.7007 10.9807 17.7018 10.9809 17.7028 10.981C17.7038 10.9811 17.7049 10.9812 17.7059 10.9812C17.7099 10.9812 17.7137 10.9803 17.7171 10.9786C17.7205 10.977 17.7234 10.9747 17.7257 10.9719C17.728 10.969 17.7296 10.9658 17.7302 10.9621C17.7309 10.9585 17.7307 10.9545 17.7294 10.9506C17.7218 10.9288 17.7156 10.9075 17.7106 10.8871C17.7056 10.8669 17.7019 10.8473 17.6994 10.8291C17.6971 10.8107 17.6959 10.7936 17.6961 10.778C17.6963 10.7623 17.6977 10.7481 17.7004 10.7356C17.7062 10.7088 17.7204 10.6849 17.7419 10.6643C17.7634 10.6437 17.7921 10.6263 17.8272 10.6123C17.8621 10.5983 17.9032 10.5875 17.9493 10.5804C17.9954 10.5733 18.0465 10.5696 18.1016 10.5696C18.1327 10.5696 18.165 10.5707 18.1984 10.5732C18.2318 10.5755 18.2662 10.579 18.3014 10.5839C18.3367 10.5887 18.3728 10.5946 18.4095 10.6019C18.4463 10.6092 18.4836 10.6177 18.5215 10.6276C18.626 10.6549 18.7242 10.6895 18.8121 10.7286C18.9 10.7678 18.9777 10.8115 19.0413 10.8572C19.1051 10.9029 19.1548 10.9506 19.1866 10.9975C19.2183 11.0445 19.2321 11.0908 19.2241 11.1336C19.2219 11.146 19.218 11.1594 19.2123 11.1733C19.2066 11.1873 19.1994 11.202 19.1905 11.2171C19.1816 11.2322 19.1711 11.2478 19.1591 11.2635C19.147 11.2794 19.1335 11.2953 19.1185 11.3112C19.1147 11.3153 19.1127 11.3202 19.1123 11.3253C19.112 11.3303 19.1132 11.3356 19.1157 11.3405C19.1182 11.3452 19.1219 11.3496 19.1265 11.3528C19.1312 11.3561 19.1367 11.3582 19.1427 11.3586C19.1607 11.3598 19.1785 11.3609 19.1962 11.3618C19.2138 11.3628 19.2314 11.3635 19.2488 11.3641C19.2662 11.3647 19.2834 11.3652 19.3005 11.3655C19.3175 11.3658 19.3344 11.3659 19.3513 11.3659C19.4775 11.3659 19.5948 11.3574 19.7003 11.3406C19.8058 11.3238 19.8995 11.2989 19.9786 11.2662C20.0577 11.2334 20.1224 11.193 20.1698 11.1453C20.2173 11.0974 20.2476 11.0424 20.2583 10.9805ZM18.2804 8C18.8382 8 19.3227 8.04784 19.7398 8.14452C20.1583 8.24151 20.5101 8.38796 20.8005 8.58539C21.0929 8.78404 21.324 9.03508 21.4987 9.34054C21.6751 9.64905 21.7945 10.0141 21.8612 10.4386C21.929 10.8693 21.9255 11.2496 21.8448 11.5783C21.7632 11.9106 21.6031 12.1891 21.3591 12.4131C21.1133 12.6388 20.7833 12.8086 20.3642 12.9225C19.9438 13.0367 19.4352 13.0942 18.8346 13.0955C18.8463 12.9438 18.8637 12.7508 18.8833 12.5467C18.9026 12.3437 18.9241 12.1298 18.9443 11.9336C18.9643 11.7385 18.983 11.5607 18.9972 11.428C19.0113 11.2959 19.0208 11.2081 19.0225 11.1922C19.0292 11.159 19.0191 11.1231 18.9953 11.0864C18.9714 11.0498 18.9338 11.0126 18.8853 10.9767C18.8369 10.9409 18.7776 10.9066 18.7103 10.8757C18.6432 10.8449 18.5679 10.8176 18.4876 10.7959C18.4576 10.7877 18.428 10.7806 18.3988 10.7745C18.3697 10.7685 18.341 10.7634 18.3131 10.7594C18.2852 10.7554 18.2579 10.7524 18.2315 10.7504C18.2051 10.7485 18.1796 10.7475 18.1551 10.7475C18.1141 10.7475 18.076 10.7502 18.0416 10.7556C18.0071 10.7611 17.9765 10.7691 17.9504 10.7797C17.9243 10.7902 17.9027 10.8034 17.8865 10.819C17.8704 10.8346 17.8595 10.8527 17.855 10.8731L16.8962 12.8256C16.6193 12.7282 16.3786 12.6045 16.1722 12.4545C15.9669 12.3052 15.7959 12.13 15.6577 11.9291C15.5204 11.7293 15.4156 11.5044 15.3412 11.2546C15.2675 11.0067 15.2241 10.7346 15.2087 10.4386C15.1867 10.0124 15.2295 9.64642 15.3408 9.3376C15.4511 9.03194 15.6292 8.7811 15.8796 8.58286C16.1284 8.38584 16.4495 8.23999 16.8479 8.14361C17.2452 8.04743 17.7207 8 18.2804 8Z" fill="white"/>
</g>
<path fill-rule="evenodd" clip-rule="evenodd" d="M13.6758 13.748H14.4161L14.4343 14.2376H13.6885L13.6758 13.748Z" fill="white"/>
<path fill-rule="evenodd" clip-rule="evenodd" d="M13.7419 16.2656L13.6924 14.3594H14.4395L14.5102 16.2656H13.7419Z" fill="white"/>
<path fill-rule="evenodd" clip-rule="evenodd" d="M14.417 13.748H13.6768L13.6895 14.2376H14.4352L14.417 13.748ZM13.692 14.3607L13.7415 16.267H14.51L14.51 16.267H14.51L14.4393 14.3607H13.6922L13.6922 14.3607H13.692Z" fill="white"/>
<defs>
<linearGradient id="paint0_linear_1422_877" x1="0" y1="0" x2="24" y2="24" gradientUnits="userSpaceOnUse">
<stop stop-color="#6BDBEF"/>
<stop offset="1" stop-color="#4B28A8"/>
</linearGradient>
</defs>
</svg>
