<svg width="24" height="24" viewBox="0 0 24 24" fill="none" xmlns="http://www.w3.org/2000/svg">
<path fill-rule="evenodd" clip-rule="evenodd" d="M18.2385 8.11914L18.2384 8.11987L19.5112 8.12673C19.656 8.11597 19.8021 8.11661 19.948 8.12896L23.0569 8.14563C23.5298 8.17293 23.9046 8.56815 23.9046 9.05184C23.9046 9.28044 23.8209 9.48928 23.6827 9.64871L22.1699 12.291C22.158 12.3133 22.1457 12.3355 22.1331 12.3575L18.3897 18.9131C17.8827 19.8011 16.9708 20.3054 16.0259 20.3255L16.026 20.3262L15.982 20.3261C15.9577 20.3263 15.9333 20.3261 15.909 20.3255L4.83205 20.2684H3.59766L3.59772 20.2463C4.53548 20.1149 5.32448 19.5129 5.724 18.6837L5.73291 18.6839L11.1597 9.14128C11.4643 8.53477 12.0872 8.11914 12.806 8.11914L12.756 8.12021L12.7576 8.11914H18.2385Z" fill="#2BBDF7"/>
<path fill-rule="evenodd" clip-rule="evenodd" d="M9.56735 3.4362L19.3446 3.43635C19.8173 3.4637 20.1921 3.85889 20.1921 4.34258C20.1921 4.53646 20.1318 4.71613 20.0293 4.86349L17.3906 9.49518L14.5856 14.4177L14.5872 14.4172H14.61L13.713 15.9894C12.9567 17.3137 13.3814 18.9997 14.6566 19.8009L14.7357 19.8488C15.095 20.0585 15.4811 20.1784 15.8687 20.2154L15.8688 20.2815L11.2463 20.2814L11.2444 20.2855H3.22824C2.77308 20.2772 2.3109 20.1606 1.8833 19.921C0.508071 19.1502 0.0111985 17.3982 0.773498 16.0077L6.85689 4.91128C7.41442 3.89431 8.49112 3.3524 9.56735 3.4362Z" fill="#2B6DEF"/>
<path fill-rule="evenodd" clip-rule="evenodd" d="M12.7741 8.1186L18.1581 8.12417L17.3793 9.49162L14.5743 14.4141L14.5759 14.4136H14.5987L13.7017 15.9858C12.9455 17.3101 13.3701 18.9961 14.6453 19.7973L14.7245 19.8452C15.0836 20.0549 15.4698 20.1748 15.8574 20.2118L15.8575 20.2779L11.235 20.2778L11.2331 20.2819L3.57715 20.2821C4.42593 20.1931 5.22273 19.7207 5.70291 18.9395L5.75691 18.848L11.4194 8.84019C11.7406 8.42049 12.2348 8.14303 12.7939 8.11719L12.7741 8.1186Z" fill="white"/>
<path fill-rule="evenodd" clip-rule="evenodd" d="M12.7741 8.1186L18.1581 8.12417L17.3793 9.49162L14.5743 14.4141L14.5759 14.4136H14.5987L13.7017 15.9858C12.9455 17.3101 13.3701 18.9961 14.6453 19.7973L14.7245 19.8452C15.0836 20.0549 15.4698 20.1748 15.8574 20.2118L15.8575 20.2779L11.235 20.2778L11.2331 20.2819L3.57715 20.2821C4.42593 20.1931 5.22273 19.7207 5.70291 18.9395L5.75691 18.848L11.4194 8.84019C11.7406 8.42049 12.2348 8.14303 12.7939 8.11719L12.7741 8.1186Z" fill="#0CC19B" fill-opacity="0.5"/>
<path fill-rule="evenodd" clip-rule="evenodd" d="M12.7741 8.1186L18.1581 8.12417L17.3793 9.49162L14.5743 14.4141L14.5759 14.4136H14.5987L13.7017 15.9858C12.9455 17.3101 13.3701 18.9961 14.6453 19.7973L14.7245 19.8452C15.0836 20.0549 15.4698 20.1748 15.8574 20.2118L15.8575 20.2779L11.235 20.2778L11.2331 20.2819L3.57715 20.2821C4.42593 20.1931 5.22273 19.7207 5.70291 18.9395L5.75691 18.848L11.4194 8.84019C11.7406 8.42049 12.2348 8.14303 12.7939 8.11719L12.7741 8.1186Z" fill="#003CB2"/>
</svg>
