<svg width="24" height="24" viewBox="0 0 24 24" fill="none" xmlns="http://www.w3.org/2000/svg">
<g clip-path="url(#clip0_2628_3015)">
<path d="M7.84279 1.74878C7.53002 1.70057 7.51683 1.69491 7.66401 1.67243C7.94607 1.62932 8.6121 1.68808 9.07106 1.79653C10.1425 2.04967 11.1175 2.69814 12.1582 3.84982L12.4347 4.15579L12.8302 4.09258C14.4965 3.82644 16.1917 4.03796 17.6095 4.68894C17.9995 4.86803 18.6146 5.22454 18.6914 5.31615C18.7158 5.34534 18.7608 5.53328 18.7912 5.73383C18.8965 6.42765 18.8438 6.95948 18.6304 7.3567C18.5141 7.57285 18.5076 7.64136 18.5858 7.82634C18.6482 7.97396 18.822 8.08322 18.9941 8.08299C19.3464 8.0825 19.7256 7.51642 19.9014 6.72874L19.9712 6.41588L20.1094 6.57154C20.8679 7.42559 21.4636 8.59031 21.5659 9.41937L21.5925 9.63554L21.4651 9.43903C21.2457 9.10088 21.0252 8.8707 20.743 8.68503C20.234 8.35038 19.696 8.2365 18.2711 8.16186C16.9841 8.09446 16.2557 7.98521 15.5335 7.75113C14.3047 7.35292 13.6852 6.8226 12.2255 4.91916C11.5772 4.07372 11.1765 3.60596 10.7778 3.22927C9.87208 2.37332 8.98206 1.92442 7.84279 1.74878Z" fill="#FF005C"/>
<path d="M18.9819 3.63644C19.0143 3.06992 19.0915 2.69625 19.247 2.355C19.3085 2.21993 19.3661 2.10938 19.375 2.10938C19.3839 2.10938 19.3571 2.20907 19.3155 2.33091C19.2026 2.66209 19.1839 3.11508 19.2618 3.64212C19.3606 4.31082 19.4168 4.4073 20.128 5.12965C20.4614 5.46848 20.8495 5.89579 20.99 6.07925L21.2458 6.41284L20.99 6.17444C20.6773 5.8829 19.9582 5.31433 19.7993 5.23305C19.6927 5.17855 19.6769 5.1795 19.6112 5.24449C19.5507 5.30439 19.5379 5.39438 19.5295 5.81986C19.5164 6.483 19.4254 6.90863 19.2061 7.33421C19.0873 7.56439 19.0685 7.51526 19.176 7.25545C19.2561 7.06146 19.2643 6.97619 19.2638 6.33424C19.2624 5.04441 19.1084 4.73432 18.205 4.20313C17.9761 4.06856 17.5989 3.8745 17.3669 3.77185C17.1348 3.66919 16.9505 3.57978 16.9572 3.57309C16.9828 3.54779 17.8639 3.8034 18.2186 3.939C18.7462 4.14068 18.8332 4.16682 18.8972 4.14249C18.9403 4.12617 18.9611 4.00187 18.9819 3.63644Z" fill="#FF005C"/>
<path d="M8.45135 5.84279C7.8164 4.97397 7.42354 3.64186 7.5086 2.64605L7.53489 2.33789L7.67942 2.3641C7.95084 2.4133 8.41882 2.58642 8.63794 2.71871C9.23929 3.08169 9.49963 3.5596 9.76448 4.78677C9.84207 5.14622 9.94385 5.55299 9.99069 5.69071C10.0661 5.91236 10.351 6.43011 10.5827 6.76636C10.7495 7.00854 10.6387 7.1233 10.2698 7.09021C9.70657 7.03968 8.94357 6.5163 8.45135 5.84279Z" fill="#FF005C"/>
<path d="M18.2115 12.3093C15.2443 11.1219 14.1992 10.0912 14.1992 8.35205C14.1992 8.09612 14.2081 7.88672 14.2189 7.88672C14.2297 7.88672 14.3445 7.97118 14.474 8.07443C15.0757 8.5541 15.7495 8.75897 17.6148 9.02944C18.7125 9.18861 19.3302 9.31717 19.9 9.50498C21.7111 10.102 22.8316 11.3135 23.0989 12.9636C23.1765 13.4431 23.131 14.3422 23.0051 14.8161C22.9058 15.1904 22.6024 15.8651 22.5219 15.8911C22.4996 15.8982 22.4778 15.8132 22.472 15.6976C22.4416 15.078 22.1266 14.4748 21.5975 14.0229C20.9959 13.5091 20.1878 13.1001 18.2115 12.3093Z" fill="#FF005C"/>
<path d="M16.1294 12.8033C16.0922 12.5834 16.0277 12.3026 15.9861 12.1793L15.9104 11.9551L16.051 12.112C16.2456 12.3291 16.3994 12.6069 16.5297 12.9769C16.6292 13.2593 16.6404 13.3433 16.6397 13.8022C16.6389 14.2528 16.6265 14.3472 16.5346 14.6014C16.3898 15.0022 16.21 15.2865 15.9084 15.5916C15.3663 16.1399 14.6695 16.4434 13.6638 16.5693C13.489 16.5911 12.9795 16.628 12.5316 16.6512C11.4028 16.7095 10.6599 16.8301 9.9923 17.0631C9.89633 17.0966 9.81063 17.117 9.80193 17.1084C9.77492 17.0816 10.2294 16.8123 10.6049 16.6325C11.1342 16.3791 11.6612 16.2408 12.8418 16.0454C13.425 15.9488 14.0273 15.8317 14.1803 15.7851C15.6246 15.345 16.367 14.2092 16.1294 12.8033Z" fill="#FF005C"/>
<path d="M17.4895 15.2041C17.0953 14.3617 17.0047 13.5484 17.2207 12.79C17.2438 12.7089 17.281 12.6426 17.3033 12.6426C17.3257 12.6426 17.4187 12.6926 17.51 12.7536C17.6918 12.8752 18.0562 13.0799 19.0268 13.606C20.2381 14.2624 20.9289 14.7706 21.3985 15.3514C21.8099 15.8599 22.0643 16.4392 22.1869 17.1455C22.2563 17.5455 22.2155 18.5082 22.1122 18.911C21.7866 20.1814 21.0296 21.1791 19.9501 21.7614C19.7919 21.8467 19.6499 21.9168 19.6345 21.9171C19.6191 21.9174 19.6768 21.7717 19.7626 21.5934C20.1257 20.8388 20.1671 20.1049 19.8925 19.2879C19.7244 18.7876 19.3816 18.1772 18.6895 17.1455C17.8847 15.9462 17.6874 15.627 17.4895 15.2041Z" fill="#FF005C"/>
<path d="M6.34346 19.7481C7.4446 18.8241 8.81469 18.1676 10.0627 17.966C10.6006 17.8792 11.4966 17.9136 11.9946 18.0404C12.793 18.2434 13.5072 18.6983 13.8786 19.2402C14.2415 19.7698 14.3973 20.2313 14.5594 21.2582C14.6234 21.6633 14.6929 22.07 14.714 22.1621C14.8357 22.6943 15.0727 23.1196 15.3663 23.3333C15.8326 23.6726 16.6357 23.6936 17.4256 23.3874C17.5597 23.3353 17.6761 23.2994 17.6842 23.3076C17.713 23.3358 17.3152 23.6004 17.0345 23.7398C16.6569 23.9273 16.3567 23.9998 15.9577 23.9998C15.2342 23.9998 14.6335 23.634 14.1323 22.8881C14.0337 22.7412 13.812 22.3016 13.6396 21.911C13.1104 20.7113 12.8491 20.3459 12.2347 19.9459C11.6999 19.5979 11.0103 19.5356 10.4915 19.7884C9.81005 20.1205 9.61992 20.9861 10.108 21.5346C10.302 21.7526 10.6637 21.9406 10.9595 21.9772C11.5129 22.0457 11.9885 21.6272 11.9885 21.0719C11.9885 20.7113 11.8491 20.5056 11.4981 20.3481C11.0186 20.133 10.5033 20.3845 10.5058 20.832C10.5068 21.023 10.5904 21.1427 10.783 21.2294C10.9065 21.2849 10.9093 21.2893 10.8086 21.2685C10.3687 21.1778 10.2657 20.6508 10.6194 20.3008C11.044 19.8809 11.9221 20.0661 12.2236 20.6396C12.3503 20.8804 12.365 21.3601 12.2546 21.6497C12.0074 22.298 11.2867 22.6388 10.5555 22.4533C10.0578 22.3269 9.85506 22.1902 9.25491 21.5758C8.21205 20.5081 7.80719 20.3012 6.30372 20.068L6.01562 20.0232L6.34346 19.7481Z" fill="#FF005C"/>
<path fill-rule="evenodd" clip-rule="evenodd" d="M1.4504 0.638643C4.93309 4.83985 7.33179 6.57319 7.59836 6.93939C7.81845 7.24178 7.73562 7.51363 7.35857 7.72669C7.14889 7.84514 6.71781 7.96516 6.50197 7.96516C6.25787 7.96516 6.17404 7.87157 6.17404 7.87157C6.0325 7.73813 5.95278 7.76146 5.2259 6.47908C4.21677 4.92276 3.37224 3.63172 3.34921 3.6101C3.29594 3.56012 3.29685 3.5618 5.12301 6.80936C5.41807 7.48624 5.18169 7.7347 5.18169 7.8311C5.18169 8.02721 5.12787 8.1303 4.88446 8.40015C4.47869 8.85006 4.2973 9.35559 4.16636 10.4018C4.01958 11.5747 3.60681 12.4031 2.46292 13.821C1.79332 14.651 1.68376 14.8032 1.5148 15.1377C1.30198 15.559 1.24346 15.7949 1.21975 16.3268C1.19468 16.8893 1.2435 17.2527 1.41639 17.7904C1.56775 18.2613 1.72574 18.5721 2.12965 19.1938C2.47821 19.7304 2.67891 20.1292 2.67891 20.2852C2.67891 20.4093 2.70276 20.4095 3.24288 20.2882C4.53547 19.9982 5.58505 19.4879 6.17534 18.8625C6.54068 18.4755 6.62645 18.2618 6.62923 17.7316C6.63105 17.3846 6.61878 17.3119 6.52443 17.1124C6.37085 16.7875 6.09125 16.5174 5.475 16.0988C4.66756 15.5502 4.32268 15.1085 4.22743 14.5011C4.14928 14.0027 4.23994 13.6511 4.68662 12.7206C5.14896 11.7574 5.26354 11.347 5.34104 10.3762C5.3911 9.74899 5.46043 9.50164 5.64173 9.30309C5.83084 9.09605 6.00107 9.02593 6.46904 8.96238C7.232 8.85879 7.71782 8.6626 8.11716 8.29687C8.46357 7.97958 8.60853 7.67386 8.63077 7.21364L8.64767 6.86482L8.45407 6.64048C7.75302 5.82804 0.98091 0 0.937767 0C0.92855 0 1.15925 0.287408 1.4504 0.638643ZM3.07245 16.9633C3.23096 16.6842 3.14673 16.3257 2.8816 16.1504C2.63109 15.9849 2.24192 16.0629 2.24192 16.2786C2.24192 16.3444 2.27854 16.3923 2.3611 16.4346C2.5001 16.5056 2.51019 16.5856 2.40082 16.7489C2.29007 16.9144 2.299 17.06 2.42605 17.1588C2.63081 17.3181 2.92065 17.2304 3.07245 16.9633Z" fill="#FF005C"/>
<path fill-rule="evenodd" clip-rule="evenodd" d="M9.12932 9.14459C8.77115 9.25393 8.42297 9.63122 8.3152 10.0268C8.24945 10.2682 8.28676 10.6915 8.38524 10.8223C8.54434 11.0335 8.6982 11.0891 9.11482 11.0862C9.93048 11.0805 10.6396 10.7328 10.722 10.2982C10.7896 9.94186 10.4782 9.44807 10.0492 9.23129C9.82783 9.11947 9.35708 9.07511 9.12932 9.14459ZM10.0828 9.88566C10.2086 9.70801 10.1536 9.51603 9.93966 9.38618C9.53226 9.13893 8.91618 9.34354 8.91618 9.72606C8.91618 9.91646 9.23746 10.1242 9.53195 10.1242C9.72795 10.1242 9.9962 10.008 10.0828 9.88566Z" fill="#FF005C"/>
</g>
<defs>
<clipPath id="clip0_2628_3015">
<rect width="24" height="24" fill="white"/>
</clipPath>
</defs>
</svg>
