<svg width="25" height="24" viewBox="0 0 25 24" fill="none" xmlns="http://www.w3.org/2000/svg">
<g clip-path="url(#clip0_3032_2725)">
<path d="M10.2652 0L10.6645 0.828095L9.91016 1.58328L10.2652 0Z" fill="#5E167E"/>
<path d="M10.3832 3.49122L10.6645 0.828125L9.91016 1.58331L10.3832 3.49122Z" fill="#801988"/>
<path d="M10.0343 3.63165L9.91016 1.58398L10.3832 3.4919L10.0343 3.63165Z" fill="#751F98"/>
<path d="M11.0729 2.12582L10.6641 0.828125L10.3828 3.49122L10.6641 3.44088L11.0729 2.12582Z" fill="#7A249E"/>
<path d="M12.1805 3.02948L11.0729 2.125L10.6641 3.44006L12.1805 3.02948Z" fill="#8734A8"/>
<path d="M12.7989 2.88386L12.2199 1.97852L11.0732 2.12521L12.1808 3.02969L12.7989 2.88386Z" fill="#A35FB9"/>
<path d="M13.0183 2.85738L12.2536 1.58398L12.2197 1.9798L12.7987 2.88515L13.0183 2.85738Z" fill="#C587D7"/>
<path d="M10.2656 0L12.2543 1.58328L12.2204 1.9791L11.0738 2.12579L10.2656 0Z" fill="#9753AD"/>
<path d="M6.06641 4.58656L8.68437 3.9043L8.0646 4.97197L6.06641 4.58656Z" fill="#5F0C5F"/>
<path d="M13.1962 2.7832L13.5148 3.29707L8.06445 4.97236L8.68422 3.90469L13.1962 2.7832Z" fill="#691366"/>
<path d="M19.124 1.36719L13.1963 2.78294L13.5149 3.29681L19.2212 1.58333L19.124 1.36719Z" fill="#721B6F"/>
<path d="M23.9138 0.173828L19.2212 1.5835L19.124 1.36736L23.9138 0.173828Z" fill="#5C1A52"/>
<path d="M1.31934 16.7092L8.06475 4.97266L7.25055 14.9827L1.31934 16.7092Z" fill="#9C24A5"/>
<path d="M6.06656 4.58594L1.31934 16.7079L8.06475 4.97134L6.06656 4.58594Z" fill="#9531BC"/>
<path d="M1.76984 11.1387L6.06656 4.58594L1.31934 16.7079L1.76984 11.1387Z" fill="#A827B1"/>
<path d="M9.44043 9.54415L23.9139 0.585272V0.173828L9.44043 9.54415Z" fill="#A35FB9"/>
<path d="M9.44043 9.54415L23.9139 0.173828L10.7277 6.34461L9.44043 9.54415Z" fill="#733687"/>
<path d="M7.25098 14.9823L8.06518 4.97227L23.9144 0.173828L10.7283 6.34461L7.25098 14.9823Z" fill="#8A36AC"/>
<path d="M9.44039 9.54297V12.9248L8.4248 12.0646L9.44039 9.54297Z" fill="#914DA7"/>
<path d="M18.1607 10.8058L14.9967 6.10547L14.5723 6.36761L17.2944 10.1791L18.1607 10.8058Z" fill="#C68AD9"/>
<path d="M14.2178 6.5868L14.7412 7.62495L15.2724 7.34719L14.5728 6.36719L14.2178 6.5868Z" fill="#682582"/>
<path d="M11.1992 8.45393L12.2903 9.08324L14.7408 7.62409L14.2173 6.58594L11.1992 8.45393Z" fill="#901E92"/>
<path d="M9.44043 9.54445L11.199 8.45508L12.2902 9.0844L10.6487 10.0765L9.44043 9.54445Z" fill="#7A249E"/>
<path d="M10.4656 11.7616L10.7286 11.0551L10.6487 10.0751L9.44043 9.54297V10.9301L10.4656 11.7616Z" fill="#9531BC"/>
<path d="M15.6413 12.162L10.6484 10.0762L10.7283 11.0562L15.6413 12.162Z" fill="#640D65"/>
<path d="M13.8181 12.9489L10.4658 11.7632L10.7288 11.0566L15.6418 12.1625L13.8181 12.9489Z" fill="#50126E"/>
<path d="M17.169 11.9337L12.2899 9.08398L10.6484 10.0761L15.6413 12.162L17.169 11.9337Z" fill="#8130A1"/>
<path d="M14.7405 7.625L17.1692 11.9339L12.29 9.08415L14.7405 7.625Z" fill="#A12C9F"/>
<path d="M18.2524 12.4586L17.2949 10.1792L15.2724 7.34766L14.7412 7.62542L17.1699 11.9343L18.2524 12.4586Z" fill="#A662BC"/>
<path d="M18.9711 13.1525L18.1612 10.8044L17.2949 10.1777L18.2524 12.4572L18.3096 14.5092L18.9711 13.1525Z" fill="#9C59B3"/>
<path d="M15.6421 13.5082L13.8184 12.9492L16.2115 14.7165L15.6421 13.5082Z" fill="#491065"/>
<path d="M15.6421 12.1621V13.5075L13.8184 12.9485L15.6421 12.1621Z" fill="#751F98"/>
<path d="M17.3516 13.61L15.6416 12.1621V13.5075L17.3516 13.61Z" fill="#371343"/>
<path d="M16.211 14.7161L17.3516 13.6102L15.6416 13.5078L16.211 14.7161Z" fill="#5C1A52"/>
<path d="M17.1693 11.9336L17.3516 13.6097L15.6416 12.1619L17.1693 11.9336Z" fill="#461A55"/>
<path d="M18.2523 12.4579L17.3522 13.6097L17.1699 11.9336L18.2523 12.4579Z" fill="#7D3D91"/>
<path d="M18.309 14.5095L16.2109 14.7152L17.3515 13.6094L18.309 14.5095Z" fill="#6E2363"/>
<path d="M18.2517 12.457L18.309 14.509L17.3516 13.6089L18.2517 12.457Z" fill="#914DA7"/>
<path d="M8.4248 12.0664L13.6356 19.08L15.014 21.9202L13.909 18.0323L9.44039 12.9266L8.4248 12.0664Z" fill="#9A57B1"/>
<path d="M14.167 23.8186L13.6357 19.0801L15.0142 21.9203L14.167 23.8186Z" fill="#733687"/>
<path d="M13.0439 23.8181L13.9345 21.7383L14.1672 23.8181H13.0439Z" fill="#360D2F"/>
<path d="M10.2344 24.0009L13.6362 19.0801L13.9348 21.7388L13.0442 23.8186L10.2344 24.0009Z" fill="#290A23"/>
<path d="M7.25098 14.983L13.6362 19.08L8.42541 12.0664L7.25098 14.983Z" fill="#792C99"/>
<path d="M1.31934 16.7089L8.42498 22.6505L9.75132 22.3511L11.7981 21.7383L13.6357 19.0795L7.25055 14.9824L1.31934 16.7089Z" fill="#46115F"/>
<path d="M3.51631 19.2914L1.31934 16.709L8.42498 22.6506L3.51631 19.2914Z" fill="#541472"/>
<path d="M10.2338 24.0004L8.4248 22.6506L11.7979 21.7383L10.2338 24.0004Z" fill="#18081E"/>
<path d="M5.22371 15.5723L9.24527 22.4661L8.42498 22.6501L1.31934 16.7085L5.22371 15.5723Z" fill="#3B0A53"/>
</g>
<defs>
<clipPath id="clip0_3032_2725">
<rect width="24" height="24" fill="white" transform="translate(0.319336)"/>
</clipPath>
</defs>
</svg>
