<svg width="24" height="24" viewBox="0 0 24 24" fill="none" xmlns="http://www.w3.org/2000/svg">
<path d="M8.28993 1.02344C8.29861 1.02646 8.30603 1.03249 8.31091 1.04051C8.31579 1.04854 8.31785 1.05807 8.31673 1.06748V14.952C8.31906 14.997 8.31906 15.042 8.31673 15.087C8.33429 15.1263 8.36757 15.1081 8.39159 15.1081H15.5549C15.6298 15.1081 15.6649 15.0899 15.6529 15.0123C15.6513 14.9865 15.6513 14.9606 15.6529 14.9348V1.17952C15.6529 1.13068 15.6261 1.07227 15.6843 1.03589C15.6893 1.03181 15.6951 1.02888 15.7013 1.02729C15.7075 1.02569 15.714 1.02548 15.7203 1.02666C15.7266 1.02783 15.7325 1.03037 15.7378 1.03411C15.7431 1.03784 15.7475 1.04269 15.7508 1.04833C15.7708 1.07505 15.7878 1.10395 15.8017 1.13451C16.0743 1.69468 16.3506 2.25198 16.6177 2.81215C16.8414 3.28007 17.065 3.74672 17.2887 4.21209C17.5351 4.72853 17.785 5.24433 18.0382 5.75949C18.2643 6.22423 18.488 6.69023 18.7092 7.15752C18.9069 7.57788 19.1176 7.99251 19.3117 8.41383C19.3465 8.47056 19.3774 8.52976 19.4041 8.59098C19.4139 8.66971 19.4167 8.74919 19.4125 8.82845V22.3606C19.4125 22.509 19.4125 22.509 19.5511 22.5339C19.5692 22.5366 19.5859 22.5458 19.5982 22.5598C19.5044 22.6001 19.4064 22.629 19.3062 22.6459C18.8628 22.7538 18.412 22.8256 17.9578 22.8604C17.7471 22.8767 17.5354 22.8805 17.3247 22.8844C16.2351 22.9016 15.1455 22.8978 14.055 22.8968C12.1592 22.8949 10.2655 22.8939 8.37404 22.8939C8.38052 22.9074 8.38279 22.9227 8.38054 22.9376C8.37829 22.9525 8.37162 22.9663 8.36146 22.9771C8.3513 22.9879 8.33815 22.9952 8.32383 22.9979C8.30951 23.0007 8.29473 22.9987 8.28153 22.9923C8.26833 22.986 8.25735 22.9755 8.25014 22.9624C8.24292 22.9493 8.23982 22.9342 8.24125 22.9192C8.24268 22.9042 8.24858 22.89 8.25813 22.8786C8.26768 22.8672 8.2804 22.8592 8.29455 22.8556C8.36214 22.84 8.43164 22.8351 8.50064 22.8413H15.4228C15.4845 22.8435 15.5462 22.8413 15.6076 22.8346C15.6631 22.8087 15.6427 22.757 15.6436 22.7149V15.4442C15.6402 15.3932 15.6402 15.342 15.6436 15.291C15.5775 15.4735 15.4994 15.651 15.4098 15.8224C15.1049 16.4822 14.8054 17.1458 14.5014 17.8065C14.335 18.1675 14.1677 18.5285 14.006 18.8914C13.99 18.9459 13.9551 18.9923 13.908 19.0216C13.855 19.0362 13.8 19.0414 13.7454 19.0369H10.1947C10.1473 19.0398 10.0998 19.0366 10.0533 19.0273C9.98118 19.0044 9.96086 18.9316 9.93128 18.876L9.30561 17.5048L8.62818 16.0225C8.52098 15.7889 8.41747 15.5505 8.29733 15.3044V22.6613C8.31239 22.736 8.3009 22.8139 8.26498 22.8805C8.22709 22.8805 8.1929 22.8863 8.15685 22.8863H6.54046C6.40183 22.8863 6.2632 22.8796 6.12642 22.8748C6.11389 22.8776 6.10093 22.8777 6.08836 22.8751C6.07579 22.8724 6.06389 22.8671 6.05342 22.8595C6.07837 22.8365 6.10886 22.8461 6.13659 22.8461H8.11249C8.13095 22.8446 8.14949 22.8446 8.16795 22.8461H6.16801C6.13012 22.8461 6.08761 22.8317 6.05249 22.8604C5.88525 22.8623 5.71811 22.8511 5.55251 22.8269C5.23089 22.7934 4.91205 22.7312 4.59505 22.6708C4.58474 22.667 4.57507 22.6615 4.56641 22.6546C4.5959 22.569 4.60694 22.4778 4.59875 22.3874V8.8859C4.59569 8.8067 4.59755 8.72738 4.6043 8.64843C4.62496 8.56755 4.65605 8.48993 4.69671 8.41766C4.92222 7.95229 5.14864 7.48788 5.37137 7.02059C6.19297 5.27784 7.04044 3.5485 7.87313 1.8115C7.97664 1.5951 8.08569 1.38252 8.18643 1.1642C8.20306 1.12877 8.21415 1.05504 8.27884 1.11919V1.22835C8.27792 1.1575 8.25389 1.08759 8.28993 1.02344Z" fill="#E85C50"/>
<path d="M4.63348 8.59609V22.5859C4.63348 22.6386 4.60483 22.6482 4.56509 22.651C4.02699 22.5318 3.50541 22.3433 3.01247 22.0899C2.74008 21.9534 2.48235 21.7874 2.24355 21.5949C1.9178 21.3445 1.6437 21.0291 1.43736 20.6674C1.23103 20.3056 1.09664 19.9047 1.04211 19.4883C1.0406 19.4583 1.0406 19.4282 1.04211 19.3982C1.0314 19.3581 1.02858 19.3161 1.03379 19.2747V1.26315C1.02882 1.22149 1.03164 1.17923 1.04211 1.13867C1.09571 1.14442 1.10495 1.18942 1.12159 1.22389C1.32398 1.64043 1.52361 2.06079 1.72878 2.47829C1.97523 2.98004 2.21859 3.48276 2.45888 3.98643C2.68438 4.45468 2.91543 4.92292 3.13631 5.39499C3.27493 5.68992 3.42095 5.98293 3.56235 6.27594C3.69266 6.54597 3.82574 6.81409 3.95236 7.08699C4.10269 7.41319 4.26011 7.73685 4.42462 8.05795C4.49485 8.19488 4.54845 8.33947 4.61684 8.47735C4.62813 8.49454 4.6355 8.51416 4.63838 8.53473C4.64126 8.55531 4.63959 8.57629 4.63348 8.59609Z" fill="#CF3339"/>
<path d="M19.5998 22.5585C19.5488 22.5552 19.4978 22.5617 19.4491 22.5777C19.4066 22.5863 19.377 22.5777 19.378 22.5192V8.54951C19.3429 8.48631 19.389 8.4413 19.4122 8.39343C19.7738 7.66249 20.1321 6.92837 20.487 6.19106C20.4953 6.17382 20.5055 6.15754 20.5156 6.14031C20.5195 6.1324 20.5239 6.12473 20.5286 6.11732C20.535 6.10583 20.5406 6.09434 20.5461 6.08189L20.5572 6.05796C20.5702 6.03306 20.5794 6.00721 20.5914 5.98231C20.596 5.97327 20.6012 5.96462 20.6071 5.95645C20.792 5.58875 20.9685 5.21531 21.1487 4.84186C21.2411 4.65035 21.3391 4.45214 21.4324 4.25393C21.5174 4.07965 21.6025 3.90633 21.6847 3.7311C21.6909 3.71955 21.6977 3.70836 21.7051 3.69759C21.9823 3.13646 22.2466 2.56672 22.5257 2.00751L22.8704 1.31233C22.8908 1.27019 22.9046 1.21657 22.9629 1.20508C22.9788 1.25008 22.9829 1.29864 22.9749 1.34584V19.1429C22.98 19.188 22.9775 19.2337 22.9675 19.2779C22.9677 19.4362 22.9402 19.5933 22.8862 19.7414C22.7564 20.2112 22.5186 20.6413 22.193 20.9948C21.9552 21.281 21.6803 21.5317 21.376 21.7398C20.9906 22.0001 20.5779 22.2143 20.146 22.3785C19.968 22.4511 19.7855 22.5112 19.5998 22.5585Z" fill="#CF3339"/>
<path d="M4.63481 8.5988C4.6278 8.56164 4.614 8.52621 4.59414 8.49443C4.49433 8.27227 4.38066 8.05778 4.27992 7.83563C4.17918 7.61348 4.06274 7.41718 3.97124 7.19981C3.88807 6.99873 3.77162 6.81679 3.68937 6.61475C3.58494 6.361 3.43707 6.13597 3.33818 5.8736C3.29367 5.77529 3.24432 5.67941 3.19031 5.58634C3.11915 5.43792 3.06093 5.28184 2.98145 5.1382C2.82618 4.85094 2.70419 4.56367 2.55817 4.27066C2.46575 4.07915 2.36502 3.89817 2.28092 3.7057C2.1885 3.49408 2.0702 3.30066 1.98333 3.09C1.87797 2.83337 1.7301 2.59877 1.62752 2.34023C1.57854 2.2148 1.49906 2.10276 1.44268 1.97924C1.32531 1.70346 1.17282 1.44588 1.03789 1.16915V19.3942C1.00976 19.2688 1.0004 19.1396 1.01017 19.0112C1.01017 17.4102 1.01017 15.8095 1.01017 14.2091V1.3664C1.013 1.2533 1.00961 1.14013 1 1.02743C1.03415 1.01391 1.07121 1.01026 1.1072 1.0169H8.21324C8.29179 1.0169 8.26222 1.05807 8.23911 1.09446L6.82234 4.03989L5.93328 5.88318C5.82515 6.10916 5.72349 6.33802 5.61444 6.564L4.71059 8.43601L4.63481 8.5988Z" fill="#E33936"/>
<path d="M20.5174 6.1719C20.5139 6.2021 20.5034 6.23099 20.4869 6.25617C20.2475 6.75218 20.0137 7.25107 19.767 7.74229C19.6496 7.97593 19.5359 8.21053 19.4195 8.44705C19.399 8.47841 19.3854 8.51404 19.3797 8.55142C19.3372 8.55142 19.3289 8.51216 19.315 8.48439C19.267 8.38864 19.2226 8.28522 19.1792 8.18755C19.1219 8.07073 19.0591 7.95391 19.0027 7.83613C18.8992 7.61972 18.7892 7.40715 18.6922 7.18787C18.5951 6.96859 18.462 6.74165 18.365 6.51088C18.2606 6.26191 18.1219 6.0321 18.0175 5.78122C17.9602 5.64429 17.8826 5.51406 17.8179 5.37905C17.7153 5.16647 17.6062 4.95773 17.512 4.74132C17.4038 4.49427 17.2689 4.26254 17.1645 4.01167C17.1072 3.87474 17.024 3.74642 16.9648 3.60949C16.8521 3.34808 16.7088 3.10199 16.5952 2.84345C16.537 2.70652 16.4603 2.57629 16.3946 2.44128L15.769 1.14571C15.746 1.11135 15.7309 1.07207 15.7246 1.0308L15.7422 1.02123H22.8658C22.9054 1.01396 22.9462 1.01759 22.984 1.03176C22.984 1.0624 23.0219 1.09113 22.984 1.12752C22.8914 1.26223 22.815 1.40823 22.7567 1.56225C22.3944 2.28903 22.0432 3.02347 21.6911 3.75504C21.5987 3.92644 21.5155 4.10072 21.4351 4.27786C21.3372 4.46938 21.2423 4.66599 21.1505 4.86772C20.9656 5.24212 20.7891 5.6261 20.596 5.99859C20.5761 6.02593 20.561 6.05673 20.5516 6.08955C20.5377 6.102 20.5424 6.12307 20.5294 6.13552C20.5294 6.13552 20.5304 6.1585 20.5174 6.1719Z" fill="#E33936"/>
<path d="M21.6982 3.74481C21.7645 3.54581 21.8512 3.3548 21.957 3.17507C21.9893 3.11187 22.0115 3.04484 22.0429 2.98355C22.1733 2.71927 22.2999 2.45307 22.4274 2.18783C22.5272 1.97908 22.6243 1.76938 22.7287 1.5635C22.7989 1.42753 22.8627 1.2906 22.9265 1.1508C22.9403 1.12112 22.9523 1.0943 22.9893 1.1192V18.9728C22.9968 19.0744 22.9903 19.1766 22.9699 19.2763V1.23028C22.9366 1.23028 22.932 1.26283 22.9228 1.28294C22.8849 1.35667 22.8516 1.43232 22.8147 1.50605C22.4561 2.21847 22.1123 2.94238 21.7648 3.65767C21.7463 3.68927 21.7361 3.72949 21.6982 3.74481Z" fill="#E34C37"/>
<path d="M15.7271 1.02788C15.706 1.03141 15.687 1.04345 15.6744 1.06138C15.6617 1.07931 15.6565 1.10168 15.6596 1.12363C15.6614 1.15393 15.6614 1.1843 15.6596 1.2146V14.9603C15.6596 15.1412 15.6772 15.125 15.5025 15.125H8.4501C8.40297 15.125 8.34659 15.1518 8.31055 15.0934C8.34811 15.1087 8.38888 15.1136 8.42885 15.1077H15.5746C15.6254 15.1077 15.6495 15.0905 15.6458 15.0359V1.1763C15.6458 1.15076 15.6458 1.12491 15.6458 1.09874C15.6393 1.03362 15.6707 1.00873 15.7299 1.01447V1.02979L15.7271 1.02788Z" fill="#E9654C"/>
<path d="M8.24384 1.09693C8.24384 1.06724 8.26972 1.02511 8.20595 1.02894H1.00195C1.03245 0.987766 1.07681 1.00979 1.11285 1.00979H8.1468C8.19301 1.00979 8.23922 0.994469 8.2845 1.02703V15.0762C8.25031 15.059 8.2651 15.0322 8.26325 15.0121C8.26198 14.9862 8.26198 14.9604 8.26325 14.9345V1.24726C8.2651 1.19651 8.2845 1.14002 8.24384 1.09693Z" fill="#E7563D"/>
<path d="M15.7268 1.02705C15.7265 1.02195 15.7265 1.01683 15.7268 1.01173C15.7666 1.01173 15.8063 1.00503 15.847 1.00503H22.8707C22.9114 1.00503 22.9576 0.984919 22.9927 1.02514L15.7268 1.02705Z" fill="#E85C50"/>
<path d="M15.6608 22.8734H8.29136C8.28473 22.8284 8.29253 22.7823 8.31355 22.7422C8.49838 22.3324 8.68321 21.9235 8.87359 21.5137C9.24326 20.7074 9.61294 19.8954 9.98262 19.0892C9.99224 19.0566 10.0109 19.0276 10.0362 19.0059H13.9298C14.0222 19.1763 14.0989 19.3573 14.1793 19.5325C14.33 19.8715 14.4862 20.2086 14.6414 20.5466C14.9723 21.2705 15.3025 21.9941 15.6321 22.7173C15.6601 22.7639 15.6703 22.8195 15.6608 22.8734Z" fill="#CF3339"/>
<path d="M10.0371 19.0007C10.0221 19.0674 9.99885 19.1318 9.96781 19.1922C9.78298 19.5819 9.59813 19.9726 9.42531 20.3642C9.30209 20.6304 9.18101 20.8963 9.0621 21.1619C8.92163 21.4683 8.78485 21.7757 8.63975 22.0802C8.53347 22.3071 8.43274 22.5369 8.33016 22.7658C8.31537 22.7993 8.30335 22.8357 8.28949 22.8702L8.2627 22.8788V15.1992C8.29709 15.2209 8.32245 15.255 8.33385 15.295C8.40686 15.4587 8.47709 15.6244 8.55195 15.7881C8.66748 16.0399 8.78855 16.2889 8.90315 16.5417C9.104 16.9885 9.3064 17.4313 9.51033 17.8698C9.63232 18.1312 9.74601 18.3965 9.86985 18.6569C9.91553 18.7765 9.97151 18.8916 10.0371 19.0007Z" fill="#E33937"/>
<path d="M15.6589 22.8722C15.6198 22.7432 15.5694 22.6181 15.5083 22.4987C15.4454 22.3388 15.3678 22.1846 15.2948 22.0286C15.1257 21.6618 14.9529 21.296 14.7865 20.9274C14.6522 20.6305 14.5167 20.3343 14.3799 20.0388C14.2348 19.7266 14.0971 19.4106 13.9566 19.0965C13.9403 19.0674 13.9317 19.0344 13.9316 19.0008C14.1507 18.522 14.3715 18.048 14.5878 17.5702C14.7144 17.2896 14.8429 17.011 14.9704 16.7314C15.1118 16.4211 15.2477 16.1099 15.3974 15.8016C15.4723 15.6388 15.5425 15.4722 15.6155 15.3084C15.6283 15.2678 15.6513 15.2315 15.6821 15.2031V22.7429C15.6811 22.7869 15.6987 22.8358 15.6589 22.8722Z" fill="#E33937"/>
<path d="M6.05176 22.8563C6.07579 22.8247 6.11091 22.8305 6.14418 22.8305H8.18939C8.20438 22.8321 8.21922 22.835 8.23376 22.8391C8.19404 22.8534 8.15164 22.858 8.10992 22.8525H6.05454L6.05176 22.8563Z" fill="#E75840"/>
<path d="M20.6035 5.99101C20.6056 5.96477 20.6138 5.93945 20.6275 5.91728L21.1127 4.91185C21.1199 4.8902 21.1331 4.87122 21.1506 4.85727C21.158 4.84706 21.1654 4.84706 21.1728 4.85727L20.6728 5.89334C20.6544 5.92877 20.6451 5.97282 20.6035 5.99101Z" fill="#E04437"/>
<path d="M21.1726 4.85656H21.1504C21.2037 4.71795 21.2654 4.58299 21.3352 4.45247C21.3587 4.38595 21.3921 4.3236 21.4341 4.26767C21.4415 4.25713 21.448 4.25713 21.4563 4.26767L21.1726 4.85656Z" fill="#E24837"/>
<path d="M21.4577 4.26796H21.4355C21.502 4.08328 21.5904 3.90796 21.6989 3.74609C21.7008 3.76853 21.6966 3.79108 21.6869 3.81121C21.5982 3.95676 21.5353 4.11666 21.4577 4.26796Z" fill="#E34C37"/>
<path d="M20.5611 6.0813C20.5554 6.06264 20.5567 6.04244 20.5649 6.02479C20.5731 6.00714 20.5875 5.99339 20.6051 5.98633C20.6048 6.00451 20.6007 6.0224 20.5931 6.03879C20.5855 6.05518 20.5746 6.06968 20.5611 6.0813Z" fill="#E04437"/>
<path d="M20.5384 6.12567C20.5374 6.11668 20.5389 6.10757 20.543 6.09947C20.547 6.09137 20.5534 6.08464 20.5612 6.08008C20.5622 6.08907 20.5606 6.09817 20.5565 6.10627C20.5525 6.11436 20.5462 6.12111 20.5384 6.12567Z" fill="#E04437"/>
<path d="M20.516 6.17255C20.5148 6.16354 20.5164 6.15439 20.5204 6.14627C20.5245 6.13815 20.5309 6.13142 20.5388 6.12695C20.5397 6.13593 20.5381 6.14499 20.534 6.15307C20.53 6.16114 20.5237 6.1679 20.516 6.17255Z" fill="#E04437"/>
</svg>
