<svg width="24" height="24" viewBox="0 0 24 24" fill="none" xmlns="http://www.w3.org/2000/svg">
<circle cx="12" cy="12" r="12" fill="#252C44"/>
<path opacity="0.5" d="M13.0145 9.94326C12.691 9.89257 12.3463 9.83398 12.0016 9.83398C11.6569 9.83398 11.3122 9.89257 10.9887 9.94326L9.59375 10.1616L12.0016 12.8918L14.4094 10.1616L13.0145 9.94326Z" fill="white"/>
<path opacity="0.5" d="M21.9691 8.05244C22.0072 8.09864 22.0154 8.16985 21.9617 8.22394L19.9771 10.2218C19.7199 10.4808 19.3859 10.6482 19.0257 10.6985L17.2735 10.9437C17.0003 10.982 16.742 11.0926 16.5255 11.2648L15.6876 11.9308L14.8848 11.485V10.7224L16.2533 10.0499L18.9169 9.83667L21.9093 8.04297L21.9691 8.05244Z" fill="white"/>
<path opacity="0.5" d="M2.03073 8.05244C1.99267 8.09864 1.98439 8.16985 2.03812 8.22394L4.02271 10.2218C4.27994 10.4808 4.61395 10.6482 4.97415 10.6985L6.72639 10.9437C6.99948 10.982 7.25761 11.0929 7.47432 11.2648L8.31224 11.9308L9.11504 11.485V10.7224L7.74657 10.0499L5.08296 9.83667L2.09051 8.04297L2.03073 8.05244Z" fill="white"/>
<path opacity="0.5" d="M16.616 12.6572C16.815 12.321 16.6736 11.8858 16.3151 11.7321L16.0652 11.625L13.8053 13.0528C13.6526 13.1739 13.5457 13.3438 13.5029 13.5344L12.6719 18.7454L12.8951 18.6903C13.0068 18.6628 13.1025 18.5912 13.1612 18.4922L16.616 12.6572Z" fill="white"/>
<path opacity="0.5" d="M7.38362 12.6572C7.18454 12.321 7.326 11.8858 7.68442 11.7321L7.93438 11.625L10.1943 13.0528C10.3469 13.1739 10.4539 13.3438 10.4967 13.5344L11.3277 18.7454L11.1045 18.6903C10.9928 18.6628 10.8971 18.5912 10.8383 18.4922L7.38362 12.6572Z" fill="white"/>
<path d="M21.799 8.01689L19.8637 9.08463C19.4043 9.33816 18.8887 9.47089 18.3645 9.47089H16.6374C16.1256 9.47089 15.618 9.56735 15.1414 9.75507L12.213 10.9091C12.0761 10.963 11.924 10.963 11.7869 10.9091L8.85826 9.75507C8.38163 9.56735 7.87408 9.47089 7.36224 9.47089H5.63484C5.11071 9.47089 4.59532 9.33793 4.1357 9.08463L2.20043 8.01689C2.13906 7.98286 2.07814 8.00405 2.04297 8.04664L4.4 9.79158C4.61548 9.95113 4.87149 10.046 5.13849 10.0656L7.20074 10.2155C7.50516 10.2378 7.7997 10.3324 8.06042 10.4922L8.47638 10.7469C8.73663 10.9064 8.70888 11.2952 8.42867 11.4155L8.2835 11.4777L7.94708 11.6222L10.0033 13.2551C10.1558 13.3763 10.2627 13.5467 10.3054 13.7374L11.3376 18.7527C11.7726 18.8604 12.2268 18.8604 12.6618 18.7527L13.6939 13.7374C13.7367 13.5465 13.8434 13.3761 13.9961 13.2551L16.0521 11.6222L15.7157 11.4777L15.5706 11.4155C15.2903 11.2952 15.2625 10.9062 15.5228 10.7469L15.9388 10.492C16.1993 10.3324 16.494 10.2376 16.7984 10.2155L18.8607 10.0656C19.1277 10.0462 19.3837 9.95135 19.5992 9.79158L21.9565 8.04664C21.9213 8.00405 21.8606 7.98286 21.799 8.01689Z" fill="white"/>
</svg>
