<svg width="24" height="24" viewBox="0 0 24 24" fill="none" xmlns="http://www.w3.org/2000/svg">
<g clip-path="url(#clip0_720_12096)">
<mask id="mask0_720_12096" style="mask-type:alpha" maskUnits="userSpaceOnUse" x="0" y="0" width="24" height="24">
<path d="M0 0H24V24H0V0Z" fill="white"/>
</mask>
<g mask="url(#mask0_720_12096)">
<path fill-rule="evenodd" clip-rule="evenodd" d="M12 0C18.6275 0 24 5.37245 24 12C24 18.627 18.6275 24 12 24C5.37245 24 0 18.627 0 12C0 5.37245 5.37245 0 12 0Z" fill="#2775CA"/>
</g>
<path fill-rule="evenodd" clip-rule="evenodd" d="M9.75091 20.3442C9.75091 20.6265 9.52987 20.7869 9.25687 20.7017C5.62864 19.5442 2.99805 16.1421 2.99805 12.1278C2.99805 8.11365 5.62864 4.71138 9.25687 3.55393C9.52987 3.46924 9.75091 3.62906 9.75091 3.91133V4.60815C9.75091 4.79606 9.60528 5.01724 9.42623 5.07847C6.55564 6.13256 4.49927 8.89024 4.49927 12.123C4.49927 15.3558 6.55564 18.114 9.42623 19.1676C9.60528 19.2336 9.75091 19.4498 9.75091 19.6384V20.3442Z" fill="white"/>
<path fill-rule="evenodd" clip-rule="evenodd" d="M12.7483 17.7502C12.7483 17.9575 12.579 18.1269 12.372 18.1269H11.6236C11.4166 18.1269 11.2472 17.9575 11.2472 17.7502V16.5646C9.6095 16.3435 8.80973 15.4256 8.59318 14.1787C8.55541 13.9667 8.72478 13.7739 8.94132 13.7739H9.79782C9.97659 13.7739 10.1273 13.9011 10.1649 14.0796C10.325 14.8232 10.7532 15.3926 12.066 15.3926C13.0354 15.3926 13.7226 14.8514 13.7226 14.0424C13.7226 13.2326 13.3178 12.9269 11.8966 12.6914C9.79782 12.4091 8.80496 11.7737 8.80496 10.1267C8.80496 8.85619 9.76509 7.8681 11.252 7.65619V6.49382C11.252 6.28669 11.4215 6.11719 11.6284 6.11719H12.3767C12.5837 6.11719 12.7531 6.28669 12.7531 6.49382V7.68919C13.9625 7.90601 14.7295 8.5926 14.9791 9.73137C15.026 9.94819 14.8566 10.1501 14.6356 10.1501H13.8448C13.6755 10.1501 13.5343 10.0371 13.4826 9.87251C13.2709 9.14814 12.7531 8.83764 11.8542 8.83764C10.8613 8.83764 10.3483 9.31751 10.3483 9.99032C10.3483 10.7009 10.6403 11.0583 12.1651 11.2799C14.226 11.5622 15.2897 12.1503 15.2897 13.906C15.2897 15.2376 14.3014 16.3153 12.7531 16.5646V17.7502H12.7483Z" fill="white"/>
<path fill-rule="evenodd" clip-rule="evenodd" d="M14.744 20.702C14.4713 20.7872 14.25 20.6268 14.25 20.3446V19.6483C14.25 19.4411 14.3771 19.2483 14.5747 19.1774C17.4453 18.1233 19.5016 15.3656 19.5016 12.1329C19.5016 8.9001 17.4453 6.14242 14.5747 5.08833C14.3959 5.02233 14.25 4.80606 14.25 4.61747V3.92119C14.25 3.63892 14.4713 3.47433 14.744 3.56324C18.3723 4.72138 21.0029 8.12351 21.0029 12.1376C20.9984 16.1422 18.3723 19.5397 14.744 20.702Z" fill="white"/>
</g>
<defs>
<clipPath id="clip0_720_12096">
<rect width="24" height="24" fill="white"/>
</clipPath>
</defs>
</svg>
