<svg width="24" height="24" viewBox="0 0 24 24" fill="none" xmlns="http://www.w3.org/2000/svg">
<g clip-path="url(#clip0_2068_1896)">
<path d="M12 24C18.6274 24 24 18.6274 24 12C24 5.37258 18.6274 0 12 0C5.37258 0 0 5.37258 0 12C0 18.6274 5.37258 24 12 24Z" fill="#216C58"/>
<path d="M11.9997 22.7598C9.28321 22.7598 6.69023 21.7451 4.69724 19.9023C2.71549 18.07 1.50145 15.5851 1.2783 12.9058C1.26567 12.7514 1.38005 12.6159 1.53444 12.6026C1.68882 12.5907 1.82426 12.7044 1.8376 12.8588C2.04882 15.3977 3.1997 17.7528 5.0783 19.4896C6.96742 21.2363 9.42566 22.1984 11.9997 22.1984C14.5737 22.1984 17.032 21.2363 18.9204 19.4896C20.799 17.7528 21.9499 15.3977 22.1618 12.8588C22.1744 12.7044 22.3099 12.5893 22.465 12.6026C22.6194 12.6152 22.7344 12.7514 22.7211 12.9058C22.4979 15.5851 21.2832 18.07 19.3015 19.9023C17.3085 21.7451 14.7155 22.7598 11.999 22.7598H11.9997Z" fill="white"/>
<path d="M22.4422 11.3981C22.2976 11.3981 22.1748 11.2873 22.1629 11.1406C21.951 8.60094 20.8001 6.24655 18.9215 4.50971C17.0324 2.76374 14.5748 1.80164 12.0008 1.80164C9.42674 1.80164 6.96849 2.76304 5.07937 4.50971C3.20148 6.24655 2.0499 8.60094 1.83867 11.1406C1.82604 11.295 1.6899 11.4108 1.53551 11.3967C1.38113 11.3841 1.26604 11.248 1.27937 11.0936C1.50253 8.41357 2.71727 5.92936 4.69832 4.09708C6.6913 2.25497 9.28428 1.24023 12.0008 1.24023C14.7173 1.24023 17.3102 2.25497 19.3032 4.09708C21.285 5.92936 22.499 8.41357 22.7229 11.0936C22.7355 11.248 22.6211 11.3834 22.4667 11.3967C22.459 11.3967 22.4506 11.3974 22.4429 11.3974L22.4422 11.3981Z" fill="white"/>
<path d="M16.3084 4.05078H8.55051C8.25402 4.05078 8.01367 4.29113 8.01367 4.58762V4.58832C8.01367 4.88481 8.25402 5.12517 8.55051 5.12517H16.3084C16.6049 5.12517 16.8453 4.88481 16.8453 4.58832V4.58762C16.8453 4.29113 16.6049 4.05078 16.3084 4.05078Z" fill="white"/>
<path d="M13.7005 5.51758V19.8067C13.7005 20.1028 13.4598 20.3435 13.1636 20.3435C12.8675 20.3435 12.6268 20.1028 12.6268 19.8067V5.51758H13.7012H13.7005Z" fill="white"/>
<path d="M12.0003 5.51758V19.8067C12.0003 20.1028 11.7596 20.3435 11.4634 20.3435C11.1673 20.3435 10.9266 20.1028 10.9266 19.8067V5.51758H12.001H12.0003Z" fill="white"/>
<path d="M9.22725 18.1481C8.42936 17.7958 7.83848 17.3818 7.45532 16.9039C7.07146 16.4267 6.87988 16.0161 6.87988 15.6716C6.87988 15.5151 6.93462 15.3902 7.04409 15.2961C7.15357 15.2021 7.27918 15.1551 7.41953 15.1551H9.27427C9.41532 15.1551 9.53251 15.2098 9.62655 15.3193C9.68901 15.3663 9.85322 15.5074 10.1192 15.7418C10.3851 15.9923 10.6981 16.1881 11.0581 16.3284C11.4181 16.4695 11.8167 16.5396 12.2553 16.5396C12.8813 16.5396 13.3978 16.4147 13.8048 16.1642C14.2118 15.9144 14.4153 15.5698 14.4153 15.1312C14.4153 14.8028 14.3248 14.5368 14.1451 14.3333C13.9648 14.1298 13.6406 13.946 13.1711 13.7818C12.7016 13.6175 12.0055 13.4414 11.082 13.2533C9.75146 12.9719 8.76971 12.5411 8.13602 11.9621C7.50234 11.3832 7.18515 10.6161 7.18515 9.66175C7.18515 9.03579 7.37322 8.44491 7.74865 7.88982C8.12409 7.33474 8.68339 6.8807 9.42725 6.52842C10.1704 6.17614 11.0588 6 12.0918 6C13.1248 6 14.0476 6.16842 14.8146 6.50456C15.5809 6.8414 16.1641 7.24 16.5634 7.70175C16.9627 8.16351 17.162 8.57404 17.162 8.93404C17.162 9.07509 17.1108 9.19649 17.0097 9.29754C16.908 9.3993 16.7865 9.44982 16.6455 9.44982H14.9087C14.783 9.44982 14.6504 9.39509 14.5094 9.28561C14.3999 9.20772 14.228 9.05895 13.9929 8.8393C13.7585 8.62035 13.4841 8.44842 13.1711 8.32281C12.8581 8.19789 12.4904 8.13474 12.068 8.13474C11.489 8.13474 11.0385 8.26035 10.7185 8.51018C10.3978 8.7607 10.2371 9.08912 10.2371 9.49614C10.2371 9.79368 10.315 10.0358 10.4715 10.2239C10.628 10.4119 10.9332 10.5916 11.3873 10.7635C11.8413 10.9361 12.522 11.1081 13.4294 11.28C14.9318 11.5775 16.0076 12.0393 16.6567 12.6653C17.3058 13.2912 17.6308 14.0582 17.6308 14.9656C17.6308 16.0611 17.1529 16.953 16.1992 17.6414C15.2448 18.3305 13.9065 18.6744 12.1851 18.6744C11.0111 18.6744 10.0258 18.4982 9.22725 18.146V18.1481Z" fill="#216C58"/>
<path d="M9.22725 18.6227C8.42936 18.2704 7.83848 17.8564 7.45532 17.3785C7.07146 16.9013 6.87988 16.4908 6.87988 16.1462C6.87988 15.9897 6.93462 15.8648 7.04409 15.7708C7.15357 15.6767 7.27918 15.6297 7.41953 15.6297H9.27427C9.41532 15.6297 9.53251 15.6844 9.62655 15.7939C9.68901 15.8409 9.85322 15.982 10.1192 16.2164C10.3851 16.4669 10.6981 16.6627 11.0581 16.803C11.4181 16.9441 11.8167 17.0143 12.2553 17.0143C12.8813 17.0143 13.3978 16.8893 13.8048 16.6388C14.2118 16.389 14.4153 16.0444 14.4153 15.6058C14.4153 15.2774 14.3248 15.0115 14.1451 14.8079C13.9648 14.6044 13.6406 14.4206 13.1711 14.2564C12.7016 14.0922 12.0055 13.916 11.082 13.7279C9.75146 13.4465 8.76971 13.0157 8.13602 12.4367C7.50234 11.8578 7.18515 11.0907 7.18515 10.1364C7.18515 9.5104 7.37322 8.91952 7.74865 8.36443C8.12409 7.80935 8.68339 7.35531 9.42725 7.00303C10.1704 6.65075 11.0588 6.47461 12.0918 6.47461C13.1248 6.47461 14.0476 6.64303 14.8146 6.97917C15.5809 7.31601 16.1641 7.71461 16.5634 8.17636C16.9627 8.63812 17.162 9.04864 17.162 9.40864C17.162 9.5497 17.1108 9.6711 17.0097 9.77215C16.908 9.87391 16.7865 9.92443 16.6455 9.92443H14.9087C14.783 9.92443 14.6504 9.8697 14.5094 9.76022C14.3999 9.68233 14.228 9.53356 13.9929 9.31391C13.7585 9.09496 13.4841 8.92303 13.1711 8.79742C12.8581 8.6725 12.4904 8.60935 12.068 8.60935C11.489 8.60935 11.0385 8.73496 10.7185 8.98478C10.3978 9.23531 10.2371 9.56373 10.2371 9.97075C10.2371 10.2683 10.315 10.5104 10.4715 10.6985C10.628 10.8865 10.9332 11.0662 11.3873 11.2381C11.8413 11.4107 12.522 11.5827 13.4294 11.7546C14.9318 12.0522 16.0076 12.5139 16.6567 13.1399C17.3058 13.7658 17.6308 14.5329 17.6308 15.4402C17.6308 16.5357 17.1529 17.4276 16.1992 18.116C15.2448 18.8051 13.9065 19.149 12.1851 19.149C11.0111 19.149 10.0258 18.9729 9.22725 18.6206V18.6227Z" fill="white"/>
</g>
<defs>
<clipPath id="clip0_2068_1896">
<rect width="24" height="24" fill="white"/>
</clipPath>
</defs>
</svg>
