<svg width="24" height="24" viewBox="0 0 24 24" fill="none" xmlns="http://www.w3.org/2000/svg">
<path fill-rule="evenodd" clip-rule="evenodd" d="M4.39403 2.09823L0.0179909 10.9037C0.00133879 10.9365 -0.00393815 10.9735 0.00293176 11.0093C0.00980167 11.0451 0.028458 11.0779 0.0561725 11.1029L11.8748 21.9519C11.9084 21.9828 11.9531 22 11.9996 22C12.0461 22 12.0908 21.9828 12.1244 21.9519L23.943 11.1036C23.9708 11.0786 23.9894 11.0458 23.9963 11.01C24.0032 10.9742 23.9979 10.9372 23.9812 10.9044L19.6052 2.09891C19.5911 2.06933 19.5683 2.04428 19.5398 2.02674C19.5112 2.00921 19.4779 1.99993 19.444 2.00001H4.55666C4.52255 1.99961 4.48905 2.00866 4.46019 2.02609C4.43133 2.04352 4.40836 2.06857 4.39403 2.09823Z" fill="#50AF95"/>
<path fill-rule="evenodd" clip-rule="evenodd" d="M13.4243 11.5257C13.3447 11.5322 12.9337 11.5588 12.0169 11.5588C11.2877 11.5588 10.77 11.5351 10.5883 11.5257C7.7703 11.3911 5.66689 10.8586 5.66689 10.2209C5.66689 9.5833 7.7703 9.05146 10.5883 8.91472V10.9953C10.7726 11.0097 11.3003 11.0435 12.0295 11.0435C12.9045 11.0435 13.3427 11.004 13.4216 10.996V8.91616C16.2337 9.05218 18.3325 9.58474 18.3325 10.2209C18.3325 10.8571 16.2343 11.3897 13.4216 11.525L13.4243 11.5257ZM13.4243 8.70097V6.83915H17.3487V4H6.6639V6.83915H10.5877V8.70025C7.39841 8.8593 5 9.54516 5 10.367C5 11.1889 7.39841 11.8741 10.5877 12.0338V18H13.4236V12.0317C16.6056 11.8726 19 11.1875 19 10.3663C19 9.54516 16.6076 8.86002 13.4236 8.70025L13.4243 8.70097Z" fill="white"/>
</svg>
