<svg width="25" height="24" viewBox="0 0 25 24" fill="none" xmlns="http://www.w3.org/2000/svg">
<g clip-path="url(#clip0_720_16774)">
<path fill-rule="evenodd" clip-rule="evenodd" d="M5.32984 1.9706L1.06733 10.8905C1.05111 10.9236 1.04597 10.9611 1.05266 10.9974C1.05935 11.0337 1.07752 11.0669 1.10452 11.0922L12.6166 22.0821C12.6493 22.1134 12.6928 22.1308 12.7381 22.1308C12.7834 22.1308 12.827 22.1134 12.8597 22.0821L24.3717 11.0929C24.3987 11.0676 24.4169 11.0344 24.4236 10.9981C24.4303 10.9618 24.4251 10.9243 24.4089 10.8912L20.1464 1.97128C20.1326 1.94133 20.1105 1.91595 20.0827 1.89819C20.0548 1.88042 20.0224 1.87102 19.9894 1.87111H5.48825C5.45504 1.8707 5.42239 1.87987 5.39429 1.89752C5.36619 1.91518 5.3438 1.94055 5.32984 1.9706Z" fill="#50AF95"/>
<path fill-rule="evenodd" clip-rule="evenodd" d="M14.2291 11.8804C14.1458 11.8866 13.7157 11.9121 12.7564 11.9121C11.9934 11.9121 11.4517 11.8893 11.2616 11.8804C8.31286 11.7515 6.11188 11.2417 6.11188 10.6313C6.11188 10.0208 8.31286 9.5117 11.2616 9.38078V11.3726C11.4544 11.3864 12.0066 11.4188 12.7696 11.4188C13.6852 11.4188 14.1437 11.3809 14.2263 11.3733V9.38216C17.1688 9.51238 19.3649 10.0222 19.3649 10.6313C19.3649 11.2403 17.1695 11.7502 14.2263 11.8797L14.2291 11.8804ZM14.2291 9.17616V7.39379H18.3355V4.67578H7.15513V7.39379H11.2609V9.17548C7.92371 9.32772 5.41406 9.98431 5.41406 10.7711C5.41406 11.5579 7.92371 12.2138 11.2609 12.3668V18.0784H14.2284V12.3647C17.5579 12.2124 20.0634 11.5565 20.0634 10.7704C20.0634 9.98431 17.56 9.32841 14.2284 9.17548L14.2291 9.17616Z" fill="white"/>
</g>
<defs>
<clipPath id="clip0_720_16774">
<rect width="24" height="24" fill="white" transform="translate(0.738281)"/>
</clipPath>
</defs>
</svg>
