<svg width="24" height="24" viewBox="0 0 24 24" fill="none" xmlns="http://www.w3.org/2000/svg">
<circle cx="12" cy="12" r="12" fill="#040404"/>
<path fill-rule="evenodd" clip-rule="evenodd" d="M12.0001 23.142C18.1542 23.142 23.143 18.1532 23.143 11.9992C23.143 5.84513 18.1542 0.856306 12.0001 0.856306C5.84611 0.856306 0.857282 5.84513 0.857282 11.9992C0.857282 18.1532 5.84611 23.142 12.0001 23.142ZM12.0001 23.5706C18.3909 23.5706 23.5716 18.3899 23.5716 11.9992C23.5716 5.60844 18.3909 0.427734 12.0001 0.427734C5.60942 0.427734 0.428711 5.60844 0.428711 11.9992C0.428711 18.3899 5.60942 23.5706 12.0001 23.5706Z" fill="white"/>
<path fill-rule="evenodd" clip-rule="evenodd" d="M11.954 1.28525L12.0004 1.28516L12.0469 1.28525C12.2836 1.28626 12.4746 1.47895 12.4736 1.71564C12.4726 1.95233 12.2799 2.1434 12.0432 2.14239L12.0004 2.1423L11.9576 2.14239C11.7209 2.1434 11.5282 1.95233 11.5272 1.71564C11.5262 1.47895 11.7173 1.28626 11.954 1.28525ZM11.2297 1.73325C11.2569 1.96837 11.0884 2.18106 10.8533 2.20829C10.8251 2.21156 10.7969 2.21495 10.7687 2.21846C10.5338 2.24773 10.3197 2.08105 10.2904 1.84617C10.2612 1.61129 10.4279 1.39716 10.6627 1.3679C10.6933 1.36408 10.724 1.3604 10.7547 1.35684C10.9898 1.32961 11.2025 1.49813 11.2297 1.73325ZM12.7711 1.73325C12.7984 1.49813 13.0111 1.32961 13.2462 1.35684C13.2769 1.3604 13.3075 1.36408 13.3381 1.3679C13.573 1.39716 13.7397 1.61129 13.7104 1.84617C13.6811 2.08105 13.467 2.24773 13.2321 2.21846C13.204 2.21495 13.1758 2.21156 13.1475 2.20829C12.9124 2.18106 12.7439 1.96837 12.7711 1.73325ZM14.0032 1.89945C14.0587 1.66935 14.2902 1.52778 14.5203 1.58326C14.5502 1.59048 14.5801 1.59782 14.61 1.60529C14.8396 1.66276 14.9791 1.89548 14.9217 2.12509C14.8642 2.3547 14.6315 2.49425 14.4018 2.43678C14.3744 2.42991 14.3469 2.42316 14.3194 2.41653C14.0893 2.36105 13.9477 2.12955 14.0032 1.89945ZM9.99762 1.89945C10.0531 2.12955 9.91153 2.36105 9.68143 2.41653C9.6539 2.42316 9.62642 2.42991 9.59899 2.43678C9.36938 2.49425 9.13665 2.3547 9.07918 2.12509C9.02171 1.89548 9.16126 1.66276 9.39087 1.60529C9.42071 1.59782 9.4506 1.59048 9.48054 1.58326C9.71064 1.52778 9.94214 1.66935 9.99762 1.89945ZM8.79487 2.2136C8.87788 2.43526 8.76548 2.68224 8.54382 2.76526C8.51723 2.77522 8.49069 2.78529 8.4642 2.79547C8.24328 2.88041 7.99532 2.77017 7.91038 2.54924C7.82545 2.32831 7.93569 2.08036 8.15661 1.99542C8.18542 1.98434 8.21429 1.97339 8.24321 1.96256C8.46487 1.87954 8.71185 1.99194 8.79487 2.2136ZM15.206 2.2136C15.289 1.99194 15.536 1.87954 15.7576 1.96256C15.7866 1.97339 15.8154 1.98434 15.8442 1.99542C16.0651 2.08036 16.1754 2.32831 16.0905 2.54924C16.0055 2.77017 15.7576 2.88041 15.5366 2.79547C15.5101 2.78529 15.4836 2.77522 15.457 2.76526C15.2354 2.68224 15.123 2.43526 15.206 2.2136ZM16.3619 2.67163C16.4712 2.46166 16.7299 2.38003 16.9399 2.4893C16.9672 2.50353 16.9945 2.51787 17.0217 2.53232C17.2307 2.6434 17.3101 2.90288 17.199 3.11189C17.088 3.3209 16.8285 3.40029 16.6195 3.28921C16.5944 3.27592 16.5694 3.26273 16.5442 3.24964C16.3343 3.14038 16.2526 2.88159 16.3619 2.67163ZM7.63894 2.67163C7.74821 2.88159 7.66658 3.14038 7.45662 3.24964C7.43147 3.26273 7.40639 3.27592 7.38137 3.28921C7.17236 3.40029 6.91288 3.3209 6.8018 3.11189C6.69072 2.90288 6.77011 2.6434 6.97912 2.53232C7.00632 2.51787 7.03359 2.50353 7.06093 2.4893C7.27089 2.38003 7.52968 2.46166 7.63894 2.67163ZM17.4537 3.26619C17.5875 3.07094 17.8542 3.02111 18.0495 3.1549C18.0749 3.17233 18.1003 3.18987 18.1256 3.20752C18.3196 3.34298 18.3672 3.61014 18.2317 3.80424C18.0962 3.99834 17.8291 4.04587 17.635 3.9104C17.6117 3.89416 17.5884 3.87802 17.565 3.86198C17.3697 3.72819 17.3199 3.46145 17.4537 3.26619ZM6.54716 3.2662C6.68095 3.46145 6.63112 3.72819 6.43586 3.86198C6.41245 3.87802 6.38911 3.89416 6.36584 3.9104C6.17175 4.04587 5.90459 3.99834 5.76912 3.80424C5.63366 3.61015 5.68119 3.34298 5.87528 3.20752C5.90057 3.18987 5.92593 3.17233 5.95138 3.1549C6.14663 3.02111 6.41337 3.07094 6.54716 3.2662ZM18.466 3.98805C18.6222 3.81026 18.893 3.79281 19.0708 3.94907C19.094 3.96942 19.117 3.98986 19.14 4.0104C19.3164 4.16818 19.3315 4.43912 19.1738 4.61555C19.016 4.79199 18.745 4.80711 18.5686 4.64933C18.5475 4.63043 18.5262 4.61161 18.5049 4.59288C18.3272 4.43662 18.3097 4.16583 18.466 3.98805ZM5.53487 3.98805C5.69113 4.16583 5.67368 4.43662 5.4959 4.59288C5.47459 4.61161 5.45337 4.63043 5.43223 4.64933C5.25579 4.80711 4.98486 4.79199 4.82708 4.61555C4.6693 4.43912 4.68442 4.16818 4.86086 4.0104C4.88383 3.98986 4.90689 3.96942 4.93003 3.94907C5.10782 3.79282 5.37861 3.81026 5.53487 3.98805ZM19.3843 4.8261C19.5607 4.66832 19.8317 4.68345 19.9895 4.85988C20.01 4.88285 20.0304 4.90591 20.0508 4.92906C20.207 5.10684 20.1896 5.37763 20.0118 5.53389C19.834 5.69015 19.5632 5.67271 19.407 5.49492C19.3883 5.47362 19.3694 5.45239 19.3505 5.43125C19.1927 5.25482 19.2079 4.98388 19.3843 4.8261ZM4.61653 4.8261C4.79297 4.98388 4.80809 5.25482 4.65031 5.43125C4.6314 5.45239 4.61259 5.47362 4.59386 5.49492C4.4376 5.67271 4.1668 5.69015 3.98902 5.53389C3.81124 5.37764 3.79379 5.10684 3.95005 4.92906C3.9704 4.90591 3.99084 4.88285 4.01138 4.85988C4.16916 4.68345 4.44009 4.66832 4.61653 4.8261ZM20.1956 5.76815C20.3897 5.63268 20.6569 5.68021 20.7923 5.87431C20.81 5.89959 20.8275 5.92496 20.845 5.9504C20.9788 6.14565 20.9289 6.4124 20.7337 6.54618C20.5384 6.67997 20.2717 6.63014 20.1379 6.43489C20.1218 6.41147 20.1057 6.38813 20.0895 6.36487C19.954 6.17077 20.0015 5.90361 20.1956 5.76815ZM3.80522 5.76815C3.99931 5.90361 4.04684 6.17077 3.91138 6.36487C3.89514 6.38814 3.879 6.41148 3.86296 6.43489C3.72917 6.63014 3.46243 6.67997 3.26717 6.54618C3.07192 6.4124 3.02209 6.14566 3.15587 5.9504C3.17331 5.92496 3.19085 5.89959 3.20849 5.87431C3.34396 5.68021 3.61112 5.63268 3.80522 5.76815ZM20.888 6.80082C21.097 6.68975 21.3565 6.76913 21.4675 6.97814C21.482 7.00534 21.4963 7.03261 21.5106 7.05995C21.6198 7.26991 21.5382 7.5287 21.3282 7.63797C21.1183 7.74723 20.8595 7.6656 20.7502 7.45564C20.7371 7.4305 20.7239 7.40542 20.7106 7.3804C20.5996 7.17139 20.679 6.9119 20.888 6.80082ZM3.11287 6.80083C3.32188 6.9119 3.40127 7.17139 3.29019 7.3804C3.2769 7.40542 3.2637 7.4305 3.25062 7.45564C3.14135 7.66561 2.88256 7.74724 2.6726 7.63797C2.46264 7.5287 2.38101 7.26991 2.49028 7.05995C2.5045 7.03261 2.51884 7.00534 2.5333 6.97814C2.64438 6.76913 2.90386 6.68975 3.11287 6.80083ZM21.4506 7.90941C21.6716 7.82447 21.9195 7.93471 22.0044 8.15564C22.0155 8.18444 22.0265 8.21331 22.0373 8.24223C22.1203 8.46389 22.0079 8.71088 21.7863 8.79389C21.5646 8.8769 21.3176 8.76451 21.2346 8.54285C21.2246 8.51625 21.2146 8.48971 21.2044 8.46323C21.1195 8.2423 21.2297 7.99435 21.4506 7.90941ZM2.55021 7.90941C2.77114 7.99435 2.88138 8.2423 2.79645 8.46323C2.78626 8.48971 2.77619 8.51625 2.76623 8.54285C2.68322 8.76451 2.43624 8.8769 2.21458 8.79389C1.99292 8.71088 1.88052 8.46389 1.96353 8.24223C1.97437 8.21331 1.98532 8.18444 1.99639 8.15564C2.08133 7.93471 2.32929 7.82447 2.55021 7.90941ZM21.8748 9.07821C22.1044 9.02074 22.3371 9.16029 22.3946 9.3899C22.402 9.41974 22.4094 9.44962 22.4166 9.47956C22.4721 9.70966 22.3305 9.94117 22.1004 9.99664C21.8703 10.0521 21.6388 9.91055 21.5833 9.68045C21.5767 9.65293 21.5699 9.62545 21.5631 9.59801C21.5056 9.3684 21.6452 9.13568 21.8748 9.07821ZM2.12607 9.07821C2.35568 9.13568 2.49523 9.3684 2.43776 9.59801C2.43089 9.62545 2.42414 9.65293 2.4175 9.68045C2.36203 9.91055 2.13052 10.0521 1.90042 9.99664C1.67032 9.94117 1.52876 9.70966 1.58424 9.47956C1.59145 9.44963 1.5988 9.41974 1.60626 9.3899C1.66373 9.16029 1.89646 9.02074 2.12607 9.07821ZM1.84714 10.2895C2.08202 10.3187 2.2487 10.5329 2.21944 10.7677C2.21593 10.7959 2.21254 10.8241 2.20927 10.8523C2.18203 11.0874 1.96935 11.256 1.73423 11.2287C1.49911 11.2015 1.33058 10.9888 1.35782 10.7537C1.36138 10.723 1.36506 10.6924 1.36887 10.6618C1.39814 10.4269 1.61227 10.2602 1.84714 10.2895ZM22.1537 10.2895C22.3886 10.2602 22.6027 10.4269 22.632 10.6618C22.6358 10.6924 22.6395 10.723 22.643 10.7537C22.6703 10.9888 22.5017 11.2015 22.2666 11.2287C22.0315 11.256 21.8188 11.0874 21.7916 10.8523C21.7883 10.8241 21.7849 10.7959 21.7814 10.7677C21.7521 10.5329 21.9188 10.3187 22.1537 10.2895ZM1.71662 11.5262C1.95331 11.5273 2.14437 11.7199 2.14337 11.9566L2.14328 11.9994L2.14337 12.0422C2.14437 12.2789 1.95331 12.4716 1.71662 12.4726C1.47993 12.4736 1.28724 12.2826 1.28623 12.0459L1.28613 11.9994L1.28623 11.953C1.28724 11.7163 1.47993 11.5252 1.71662 11.5262ZM22.2842 11.5262C22.5209 11.5252 22.7136 11.7163 22.7146 11.953L22.7147 11.9994L22.7146 12.0459C22.7136 12.2826 22.5209 12.4736 22.2842 12.4726C22.0475 12.4716 21.8565 12.2789 21.8575 12.0422L21.8576 11.9994L21.8575 11.9566C21.8565 11.7199 22.0475 11.5273 22.2842 11.5262ZM1.73423 12.7702C1.96935 12.7429 2.18203 12.9115 2.20927 13.1466C2.21254 13.1748 2.21593 13.203 2.21944 13.2312C2.2487 13.466 2.08202 13.6802 1.84714 13.7094C1.61227 13.7387 1.39814 13.572 1.36887 13.3371C1.36506 13.3065 1.36138 13.2759 1.35782 13.2452C1.33058 13.0101 1.49911 12.7974 1.73423 12.7702ZM22.2666 12.7702C22.5017 12.7974 22.6703 13.0101 22.643 13.2452C22.6395 13.2759 22.6358 13.3065 22.632 13.3371C22.6027 13.572 22.3886 13.7387 22.1537 13.7094C21.9188 13.6802 21.7521 13.466 21.7814 13.2312C21.7849 13.203 21.7883 13.1748 21.7916 13.1466C21.8188 12.9115 22.0315 12.7429 22.2666 12.7702ZM1.90042 14.0022C2.13052 13.9468 2.36203 14.0883 2.4175 14.3184C2.42414 14.346 2.43089 14.3734 2.43776 14.4009C2.49523 14.6305 2.35568 14.8632 2.12607 14.9207C1.89646 14.9781 1.66373 14.8386 1.60626 14.609C1.5988 14.5791 1.59145 14.5493 1.58424 14.5193C1.52876 14.2892 1.67032 14.0577 1.90042 14.0022ZM22.1004 14.0022C22.3305 14.0577 22.4721 14.2892 22.4166 14.5193C22.4094 14.5493 22.402 14.5791 22.3946 14.609C22.3371 14.8386 22.1044 14.9781 21.8748 14.9207C21.6452 14.8632 21.5056 14.6305 21.5631 14.4009C21.5672 14.3845 21.5712 14.3682 21.5752 14.3518C21.5779 14.3407 21.5806 14.3296 21.5833 14.3184C21.6388 14.0883 21.8703 13.9468 22.1004 14.0022ZM2.21458 15.205C2.43624 15.122 2.68322 15.2344 2.76623 15.456C2.77619 15.4826 2.78626 15.5092 2.79645 15.5357C2.88138 15.7566 2.77114 16.0045 2.55021 16.0895C2.32929 16.1744 2.08133 16.0642 1.99639 15.8432C1.98532 15.8144 1.97437 15.7856 1.96353 15.7566C1.88052 15.535 1.99292 15.288 2.21458 15.205ZM21.7863 15.205C22.0079 15.288 22.1203 15.535 22.0373 15.7566C22.0303 15.7753 22.0233 15.7939 22.0162 15.8125C22.0123 15.8228 22.0084 15.833 22.0044 15.8432C21.9195 16.0642 21.6716 16.1744 21.4506 16.0895C21.2297 16.0045 21.1195 15.7566 21.2044 15.5357C21.2146 15.5092 21.2246 15.4826 21.2346 15.456C21.3176 15.2344 21.5646 15.122 21.7863 15.205ZM21.3282 16.3609C21.5382 16.4702 21.6198 16.729 21.5106 16.9389C21.4963 16.9663 21.482 16.9935 21.4675 17.0207C21.3565 17.2297 21.097 17.3091 20.888 17.1981C20.679 17.087 20.5996 16.8275 20.7106 16.6185C20.7239 16.5935 20.7371 16.5684 20.7502 16.5432C20.8595 16.3333 21.1183 16.2516 21.3282 16.3609ZM2.6726 16.3609C2.88257 16.2516 3.14135 16.3333 3.25062 16.5432C3.2637 16.5684 3.2769 16.5935 3.29019 16.6185C3.40127 16.8275 3.32188 17.087 3.11287 17.1981C2.90386 17.3091 2.64438 17.2297 2.5333 17.0207C2.51884 16.9935 2.5045 16.9663 2.49028 16.9389C2.38101 16.729 2.46264 16.4702 2.6726 16.3609ZM3.26717 17.4527C3.46243 17.3189 3.72917 17.3687 3.86296 17.564C3.879 17.5874 3.89514 17.6108 3.91138 17.634C4.04684 17.8281 3.99931 18.0953 3.80522 18.2307C3.61112 18.3662 3.34396 18.3187 3.2085 18.1246C3.19085 18.0993 3.17331 18.0739 3.15587 18.0485C3.02209 17.8532 3.07192 17.5865 3.26717 17.4527ZM20.7337 17.4527C20.9289 17.5865 20.9788 17.8532 20.845 18.0485C20.8275 18.0739 20.81 18.0993 20.7923 18.1246C20.6569 18.3187 20.3897 18.3662 20.1956 18.2307C20.0015 18.0953 19.954 17.8281 20.0895 17.634C20.1057 17.6107 20.1218 17.5874 20.1379 17.564C20.2717 17.3687 20.5384 17.3189 20.7337 17.4527ZM3.98902 18.465C4.16681 18.3087 4.4376 18.3262 4.59386 18.504C4.61259 18.5253 4.6314 18.5465 4.65031 18.5676C4.80809 18.7441 4.79297 19.015 4.61653 19.1728C4.44009 19.3306 4.16916 19.3154 4.01138 19.139C3.99084 19.116 3.9704 19.093 3.95005 19.0698C3.79379 18.892 3.81124 18.6213 3.98902 18.465ZM20.0118 18.465C20.1896 18.6212 20.207 18.892 20.0508 19.0698C20.0304 19.093 20.01 19.116 19.9895 19.139C19.8317 19.3154 19.5607 19.3306 19.3843 19.1728C19.2079 19.015 19.1927 18.7441 19.3505 18.5676C19.3694 18.5465 19.3883 18.5253 19.407 18.504C19.5632 18.3262 19.834 18.3087 20.0118 18.465ZM19.1738 19.3833C19.3315 19.5598 19.3164 19.8307 19.14 19.9885C19.117 20.009 19.094 20.0295 19.0708 20.0498C18.893 20.2061 18.6222 20.1886 18.466 20.0108C18.3097 19.8331 18.3272 19.5623 18.5049 19.406C18.5262 19.3873 18.5475 19.3685 18.5686 19.3496C18.745 19.1918 19.016 19.2069 19.1738 19.3833ZM4.82708 19.3833C4.98486 19.2069 5.25579 19.1918 5.43223 19.3496C5.45337 19.3685 5.47459 19.3873 5.4959 19.406C5.67368 19.5623 5.69113 19.8331 5.53487 20.0108C5.37861 20.1886 5.10782 20.2061 4.93003 20.0498C4.90689 20.0295 4.88383 20.009 4.86086 19.9885C4.68442 19.8307 4.6693 19.5598 4.82708 19.3833ZM18.2317 20.1946C18.3672 20.3887 18.3197 20.6559 18.1256 20.7914C18.1003 20.809 18.0749 20.8266 18.0495 20.844C17.8542 20.9778 17.5875 20.9279 17.4537 20.7327C17.3199 20.5374 17.3697 20.2707 17.565 20.1369C17.5884 20.1209 17.6117 20.1047 17.635 20.0885C17.8291 19.953 18.0963 20.0005 18.2317 20.1946ZM5.76912 20.1946C5.90459 20.0005 6.17175 19.953 6.36585 20.0885C6.38911 20.1047 6.41245 20.1209 6.43586 20.1369C6.63112 20.2707 6.68095 20.5374 6.54716 20.7327C6.41337 20.9279 6.14663 20.9778 5.95138 20.844C5.92593 20.8266 5.90057 20.809 5.87528 20.7914C5.68119 20.6559 5.63366 20.3887 5.76912 20.1946ZM6.8018 20.887C6.91288 20.678 7.17236 20.5986 7.38137 20.7097C7.40639 20.723 7.43147 20.7362 7.45662 20.7492C7.66658 20.8585 7.74821 21.1173 7.63894 21.3273C7.52968 21.5372 7.27089 21.6189 7.06093 21.5096C7.03359 21.4954 7.00632 21.481 6.97912 21.4666C6.77011 21.3555 6.69072 21.096 6.8018 20.887ZM17.199 20.887C17.3101 21.096 17.2307 21.3555 17.0217 21.4666C16.9945 21.481 16.9672 21.4954 16.9399 21.5096C16.7299 21.6189 16.4712 21.5372 16.3619 21.3273C16.2526 21.1173 16.3343 20.8585 16.5442 20.7492C16.5694 20.7362 16.5944 20.723 16.6195 20.7097C16.8285 20.5986 17.088 20.678 17.199 20.887ZM7.91038 21.4496C7.99532 21.2287 8.24328 21.1185 8.4642 21.2034C8.49069 21.2136 8.51723 21.2237 8.54382 21.2336C8.76548 21.3166 8.87788 21.5636 8.79487 21.7853C8.71185 22.0069 8.46487 22.1193 8.24321 22.0363C8.21429 22.0255 8.18542 22.0145 8.15662 22.0035C7.93569 21.9185 7.82545 21.6706 7.91038 21.4496ZM16.0905 21.4496C16.1754 21.6706 16.0652 21.9185 15.8442 22.0035C15.8267 22.0102 15.8092 22.0169 15.7917 22.0235C15.7803 22.0278 15.769 22.0321 15.7576 22.0363C15.536 22.1193 15.289 22.0069 15.206 21.7853C15.123 21.5636 15.2354 21.3166 15.457 21.2336C15.4836 21.2237 15.5101 21.2136 15.5366 21.2034C15.7576 21.1185 16.0055 21.2287 16.0905 21.4496ZM9.07919 21.8738C9.13665 21.6442 9.36938 21.5046 9.59899 21.5621C9.62642 21.569 9.6539 21.5757 9.68143 21.5824C9.91153 21.6378 10.0531 21.8693 9.99762 22.0994C9.94214 22.3295 9.71064 22.4711 9.48054 22.4156C9.4506 22.4084 9.42071 22.4011 9.39087 22.3936C9.16126 22.3361 9.02172 22.1034 9.07919 21.8738ZM14.9217 21.8738C14.9791 22.1034 14.8396 22.3361 14.61 22.3936C14.5801 22.4011 14.5502 22.4084 14.5203 22.4156C14.2902 22.4711 14.0587 22.3295 14.0032 22.0994C13.9477 21.8693 14.0893 21.6378 14.3194 21.5824C14.3469 21.5757 14.3744 21.569 14.4018 21.5621C14.6315 21.5046 14.8642 21.6442 14.9217 21.8738ZM10.2904 22.1527C10.3197 21.9178 10.5338 21.7512 10.7687 21.7804C10.7969 21.7839 10.8251 21.7873 10.8533 21.7906C11.0884 21.8178 11.2569 22.0305 11.2297 22.2656C11.2025 22.5008 10.9898 22.6693 10.7547 22.642C10.724 22.6385 10.6933 22.6348 10.6627 22.631C10.4279 22.6017 10.2612 22.3876 10.2904 22.1527ZM13.7104 22.1527C13.7397 22.3876 13.573 22.6017 13.3381 22.631C13.3075 22.6348 13.2769 22.6385 13.2462 22.642C13.0111 22.6693 12.7984 22.5008 12.7711 22.2656C12.7439 22.0305 12.9124 21.8178 13.1475 21.7906C13.1758 21.7873 13.204 21.7839 13.2321 21.7804C13.467 21.7512 13.6811 21.9178 13.7104 22.1527ZM11.5272 22.2832C11.5282 22.0466 11.7209 21.8555 11.9576 21.8565L12.0004 21.8566L12.0432 21.8565C12.2799 21.8555 12.4726 22.0466 12.4736 22.2832C12.4746 22.5199 12.2836 22.7126 12.0469 22.7136L12.0004 22.7137L11.954 22.7136C11.7173 22.7126 11.5262 22.5199 11.5272 22.2832Z" fill="white"/>
<path fill-rule="evenodd" clip-rule="evenodd" d="M6.25038 6.97389C6.24123 6.93722 6.24064 6.89605 6.24908 6.88239C6.25881 6.86664 8.52311 6.85742 12.3674 6.85742H18.4701V6.94892V7.04042H12.3686H6.26711L6.25038 6.97389ZM16.7839 7.40008C16.9996 7.36322 17.2055 7.32093 17.2414 7.3061C17.2774 7.2912 17.3333 7.27826 17.3656 7.27734L17.4244 7.27571V8.02078C17.4244 8.7484 17.4232 8.76585 17.3721 8.76585C17.3259 8.76585 17.3199 8.7484 17.3199 8.61376C17.3199 8.36436 17.2572 8.20313 17.0989 8.04477C17.0516 7.99752 17.0152 7.96033 16.9732 7.93115C16.8159 7.8219 16.5808 7.82469 15.4104 7.83098L14.1435 7.83778L14.1368 9.7266L14.1301 11.6154L15.2217 11.6148C16.6294 11.6141 16.7455 11.5698 16.795 11.0141C16.8062 10.8872 16.82 10.8442 16.8493 10.8442C16.8833 10.8442 16.8894 10.97 16.8954 11.7919C16.9022 12.7264 16.9015 12.7396 16.8496 12.7396C16.8033 12.7396 16.797 12.7224 16.797 12.5979C16.797 12.3168 16.6297 12.0787 16.3761 11.999C16.2515 11.9598 16.1124 11.9554 15.1892 11.9615L14.1435 11.9684L14.1368 13.7933L14.1301 15.6182L15.3001 15.6095C16.2438 15.6024 16.4941 15.6013 16.719 15.5251C16.8034 15.4965 16.8841 15.4573 16.9966 15.4033C17.3274 15.2444 17.6896 14.8214 17.9466 14.2939C18.0199 14.1436 18.0892 14.0206 18.1007 14.0206C18.1456 14.0206 18.1491 14.0538 18.1149 14.1592C18.0451 14.3749 17.9711 14.5835 17.9463 14.6349C17.9324 14.6637 17.9045 14.7401 17.8842 14.8049C17.8638 14.8696 17.7979 15.0578 17.7376 15.2231C17.6773 15.3885 17.5918 15.6267 17.5477 15.7525L17.4673 15.9813H14.9492C12.7284 15.9813 12.4311 15.9766 12.4311 15.9421C12.4311 15.9205 12.44 15.9026 12.4507 15.9023C12.8268 15.8924 13.1244 15.7232 13.2858 15.4273C13.3628 15.2863 13.3588 8.1777 13.2816 8.02078C13.1555 7.76419 12.8315 7.56328 12.5437 7.56328C12.4638 7.56328 12.4311 7.55249 12.4311 7.52609C12.4311 7.49433 12.7212 7.48727 14.4115 7.47792L16.3918 7.46701L16.7839 7.40008ZM6.07189 11.8252C6.03235 11.8248 6 11.8128 6 11.7984C6 11.7816 6.25274 11.7723 6.70586 11.7723C7.15898 11.7723 7.41171 11.7816 7.41171 11.7984C7.41171 11.8128 7.38113 11.8246 7.34374 11.8246C7.11754 11.8246 7.0431 12.0957 7.17872 12.4259C7.51903 13.2541 7.69033 13.6709 7.76438 13.8506C7.81183 13.9657 7.91555 14.2186 7.99503 14.4127L8.246 15.0256C8.32042 15.2072 8.35377 15.3026 8.38881 15.3032C8.4267 15.3039 8.46656 15.1937 8.56246 14.9617C8.60703 14.8539 8.65396 14.7421 8.66677 14.7134C8.67958 14.6846 8.77448 14.4611 8.87767 14.2166C9.07067 13.7594 9.13309 13.6125 9.50576 12.7396C9.78921 12.0754 9.7883 11.8802 9.50138 11.8343C9.25113 11.7943 9.44667 11.7723 10.0521 11.7723C10.4704 11.7723 10.7057 11.7817 10.7057 11.7984C10.7057 11.8128 10.6759 11.8246 10.6395 11.8246C10.4408 11.8246 10.1968 12.0438 10.0577 12.3474C10.0148 12.4409 9.93862 12.6056 9.88829 12.7134C9.83797 12.8213 9.7613 12.986 9.71797 13.0794C9.48791 13.5756 8.89918 14.8424 8.73997 15.1839C8.51324 15.6704 8.44468 15.8329 8.40671 15.9747C8.39037 16.0359 8.36697 16.0859 8.35475 16.0859C8.32815 16.0859 8.32371 16.0766 7.86889 15.0651C7.67197 14.6272 7.46962 14.1807 7.41923 14.0729C7.36884 13.965 7.16865 13.5239 6.97441 13.0925C6.7801 12.6611 6.59893 12.2644 6.57181 12.2109C6.46044 11.991 6.24725 11.8265 6.07189 11.8252ZM6.23604 16.4025C6.23359 16.3879 6.24778 16.3705 6.25319 16.3498L6.26751 16.295H12.3689H18.4701V16.3865V16.478H12.3686C6.7892 16.478 6.24979 16.4844 6.23604 16.4025Z" fill="white"/>
</svg>
