<svg width="25" height="24" viewBox="0 0 25 24" fill="none" xmlns="http://www.w3.org/2000/svg">
<g clip-path="url(#clip0_720_12110)">
<path d="M3.18164 12.0514C3.18164 8.64144 3.18164 5.23616 3.18164 1.82622C3.18164 1.35572 3.27947 0.917834 3.62419 0.563797C4.15524 0.018766 4.83071 -0.139619 5.4922 0.125909C6.11176 0.377462 6.52636 1.011 6.52636 1.73305C6.52636 5.23616 6.52636 8.7346 6.52636 12.2377C6.52636 14.4039 6.52636 16.57 6.52636 18.7362C6.52636 18.8153 6.5217 18.8899 6.52636 18.9691C6.54499 19.2439 6.69406 19.3324 6.93164 19.1973C7.39282 18.9365 7.84468 18.6709 8.30586 18.4054C8.80431 18.1166 9.29344 17.8231 9.80121 17.5483C10.0714 17.4039 10.1785 17.2175 10.1785 16.9008C10.1692 13.2113 10.1739 9.52653 10.1739 5.83709C10.1739 5.32933 10.295 4.8728 10.6723 4.50479C11.222 3.96908 11.9813 3.83864 12.6615 4.21597C13.5186 4.69113 14.3571 5.18957 15.2049 5.6787C17.2965 6.88523 19.3882 8.08709 21.4751 9.29827C22.1925 9.71286 22.9099 10.1368 23.6273 10.5514C24.5264 11.0685 24.7127 12.3402 23.9906 13.0809C23.7205 13.3557 23.3571 13.5467 23.017 13.7424C20.9254 14.9582 18.8245 16.1694 16.7282 17.3806C14.5854 18.6197 12.4379 19.8542 10.295 21.0886C8.86487 21.9132 7.43009 22.7377 5.99996 23.5669C5.92077 23.6135 5.84158 23.6647 5.76239 23.716C5.19872 24.07 4.61642 24.098 4.03878 23.7719C3.47978 23.4551 3.1863 22.952 3.18164 22.2998C3.18164 18.8852 3.18164 15.4706 3.18164 12.0514ZM13.5139 11.9815C13.5139 12.9365 13.5139 13.8914 13.5139 14.8417C13.5139 15.2284 13.6537 15.3122 13.9844 15.1213C15.6521 14.1616 17.3152 13.202 18.9782 12.2377C19.2997 12.0514 19.2997 11.8883 18.9829 11.7067C17.3198 10.7424 15.6521 9.78274 13.9891 8.81845C13.663 8.63212 13.5139 8.71597 13.5139 9.0933C13.5139 10.0576 13.5139 11.0219 13.5139 11.9815Z" fill="#00C3D1"/>
</g>
<defs>
<clipPath id="clip0_720_12110">
<rect width="24" height="24" fill="white" transform="translate(0.369141)"/>
</clipPath>
</defs>
</svg>
