<svg width="24" height="24" viewBox="0 0 24 24" fill="none" xmlns="http://www.w3.org/2000/svg">
<g clip-path="url(#clip0_2572_2992)">
<path d="M21.3208 11.2875C21.2209 11.1272 21.1391 10.9564 21.0768 10.7782C20.8797 10.2172 20.1055 8.25795 18.4367 6.6456C16.3728 4.65063 13.73 3.89295 10.5834 4.3938C7.43691 4.89465 5.15627 6.43404 3.8132 8.97115C2.72697 11.0214 2.59875 13.123 2.58433 13.7184C2.58002 13.9075 2.55517 14.0956 2.5102 14.2793C1.95967 16.4898 2.35394 18.4063 3.65093 19.8203C5.09337 21.3926 7.56593 22.2588 10.6143 22.2584C11.061 22.2584 11.517 22.2396 11.9798 22.2015C12.4426 22.1635 12.9122 22.107 13.3858 22.0316C17.5969 21.3621 20.7983 19.4473 21.9543 16.9098C22.7492 15.162 22.5301 13.2183 21.3208 11.2875Z" fill="#00004F"/>
<path d="M22.2112 10.7323C22.1528 10.6379 22.1048 10.5374 22.0682 10.4326C21.7901 9.64203 20.9511 7.617 19.1665 5.89248C18.1332 4.8936 16.9475 4.16157 15.6453 3.71601C14.2121 3.22758 12.631 3.08454 10.9366 3.28488V3.27406L10.4217 3.3542H10.4177L9.89678 3.43754V3.44755C8.22318 3.78052 6.76471 4.40918 5.55585 5.31632C4.45358 6.14452 3.55246 7.20834 2.88092 8.47806C1.72095 10.675 1.55107 12.8611 1.53223 13.6977C1.53015 13.8089 1.51564 13.9195 1.48897 14.0275C0.847878 16.5966 1.32869 18.8464 2.87531 20.5333C4.51809 22.3263 7.26757 23.3136 10.614 23.3128C11.5977 23.3099 12.5796 23.2295 13.5506 23.0724C18.1115 22.3483 21.6114 20.2079 22.9121 17.3487C23.8592 15.2652 23.6188 12.9765 22.2112 10.7323ZM21.954 16.9124C20.8001 19.4498 17.5966 21.3647 13.3855 22.0342C12.9119 22.1095 12.4433 22.1662 11.9795 22.2041C11.5168 22.2442 11.0608 22.261 10.614 22.261C7.56564 22.261 5.09267 21.3951 3.65062 19.8229C2.35363 18.4085 1.95936 16.4924 2.50989 14.2819C2.55486 14.0982 2.57972 13.9101 2.58402 13.721C2.59764 13.1255 2.72586 11.024 3.8121 8.97328C5.15517 6.4374 7.43142 4.89721 10.5812 4.39716C13.7309 3.89712 16.3718 4.654 18.4344 6.64896C20.1033 8.26131 20.8786 10.2194 21.0745 10.7816C21.1368 10.9598 21.2187 11.1306 21.3185 11.2908C22.529 13.2217 22.7481 15.1654 21.954 16.9124Z" fill="#00004F"/>
<path d="M3.16037 3.80273C3.14596 3.80273 3.13113 3.80273 3.1163 3.80273C2.8228 3.80419 2.53818 3.90349 2.30747 4.08492C2.07676 4.26635 1.91316 4.51955 1.84255 4.80443C1.14297 7.47573 1.85177 10.0934 2.32617 11.396C2.95363 8.96827 4.14244 7.37038 5.08083 6.4276C5.61328 5.88808 6.21248 5.41884 6.86386 5.03122C5.34848 4.07079 4.02945 3.82958 3.16037 3.80273Z" fill="#00004F"/>
<path d="M7.8724 4.4381C5.97721 3.10464 4.28152 2.7849 3.19328 2.75125C2.65418 2.73373 2.12529 2.90109 1.69441 3.22556C1.26353 3.55003 0.956568 4.0121 0.824474 4.53506C-0.240531 8.60555 1.65027 12.5402 1.73121 12.7041C1.80144 12.8475 1.91516 12.9651 2.05617 13.0401C2.19717 13.115 2.35826 13.1436 2.51644 13.1216C2.67462 13.0996 2.82181 13.0282 2.93702 12.9176C3.05223 12.807 3.12958 12.6629 3.15802 12.5058C3.64685 9.8184 4.88094 8.11914 5.82614 7.16714C6.82381 6.16544 7.72856 5.75714 7.73416 5.75434C7.8582 5.70128 7.96584 5.6161 8.04593 5.50754C8.12607 5.39896 8.17572 5.27098 8.18982 5.13681C8.20387 5.00263 8.18188 4.86713 8.12612 4.7443C8.07032 4.62146 7.98274 4.51576 7.8724 4.4381ZM3.11595 3.80142C3.13078 3.80142 3.14561 3.80142 3.16002 3.80142C4.0291 3.82827 5.34973 4.06948 6.86348 5.0275C6.21214 5.41513 5.61295 5.88438 5.08048 6.42385C4.14209 7.36663 2.95328 8.96457 2.32582 11.3923C1.85141 10.0909 1.14101 7.47325 1.84219 4.80192C1.91304 4.51726 2.07674 4.26434 2.30743 4.08314C2.53811 3.90194 2.82262 3.80281 3.11595 3.80142Z" fill="#00004F"/>
<path d="M19.0154 2.07107C18.8553 1.81664 18.6133 1.62437 18.3292 1.52597C18.0452 1.42756 17.736 1.4289 17.4528 1.52976C16.635 1.82506 15.4554 2.46374 14.3135 3.84487C15.0527 4.01135 15.7676 4.27177 16.4407 4.61978C17.6251 5.22601 19.2503 6.37556 20.6001 8.48873C20.647 7.10118 20.5084 4.393 19.0154 2.07107Z" fill="#00004F"/>
<path d="M19.8998 1.50285C19.6118 1.047 19.1767 0.703181 18.6667 0.528304C18.1567 0.353428 17.6022 0.357985 17.095 0.541221C16.0701 0.911048 14.5568 1.74085 13.1684 3.59639C13.0874 3.7043 13.0367 3.83185 13.0215 3.96589C13.0062 4.09994 13.027 4.23562 13.0817 4.35896C13.1363 4.48229 13.2229 4.58881 13.3325 4.66754C13.442 4.74627 13.5706 4.79435 13.7049 4.80684C13.7145 4.80684 14.7018 4.91422 15.9611 5.55772C17.1576 6.16954 18.856 7.40281 20.1538 9.80488C20.2187 9.9253 20.315 10.0259 20.4325 10.0961C20.5499 10.1662 20.6841 10.2032 20.821 10.2032C20.8658 10.2033 20.9106 10.1992 20.9548 10.1911C21.1122 10.1632 21.2567 10.0862 21.3676 9.97098C21.4785 9.8558 21.5499 9.70845 21.5718 9.55004C21.5974 9.36694 22.174 5.03963 19.8998 1.50285ZM20.5998 8.48786C19.2515 6.37469 17.6247 5.22515 16.4403 4.61892C15.7672 4.27132 15.0523 4.0113 14.3131 3.84521C15.4551 2.46528 16.6347 1.8266 17.4525 1.5313C17.7357 1.43044 18.0448 1.42911 18.3289 1.52751C18.6129 1.62591 18.8549 1.81818 19.0151 2.07261C20.508 4.39334 20.6467 7.10153 20.5998 8.48786Z" fill="#00004F"/>
<path d="M20.8209 9.44316C20.8209 9.44316 21.4111 5.25407 19.2622 1.91041C19.0652 1.60113 18.7691 1.36777 18.4224 1.24843C18.0756 1.12908 17.6986 1.1308 17.353 1.2533C16.4074 1.59467 15.0451 2.35516 13.7773 4.04923C13.7773 4.04923 18.1179 4.43909 20.8209 9.44316Z" fill="#007AFF"/>
<g opacity="0.7">
<path opacity="0.7" d="M18.9563 2.22429C18.7835 1.90063 18.506 1.64514 18.1692 1.49959C17.8324 1.35403 17.4561 1.32701 17.102 1.42294C16.9329 1.46982 16.7502 1.52872 16.5566 1.60205C16.8136 1.46723 17.0793 1.34996 17.352 1.25105C17.6978 1.1287 18.0749 1.12723 18.4217 1.24687C18.7685 1.36651 19.0644 1.6002 19.2612 1.90976C21.4101 5.25182 20.8199 9.4425 20.8199 9.4425C20.611 9.05334 20.3816 8.67549 20.1327 8.31061C20.2249 6.78961 20.1251 4.38515 18.9563 2.22429Z" fill="white"/>
</g>
<path d="M20.821 9.67752C20.7793 9.67758 20.7384 9.66647 20.7024 9.64534C20.6665 9.62421 20.6369 9.59381 20.6167 9.55731C19.2544 7.03303 17.4633 5.73607 16.2008 5.09057C14.8301 4.39018 13.7671 4.28521 13.7567 4.28401C13.7156 4.28023 13.6763 4.26558 13.6428 4.24157C13.6093 4.21755 13.5827 4.18503 13.566 4.14735C13.5492 4.10968 13.5428 4.06822 13.5473 4.02723C13.5519 3.98625 13.5673 3.94722 13.592 3.91418C14.901 2.16322 16.3166 1.3839 17.2746 1.03851C17.6698 0.896365 18.1015 0.893388 18.4986 1.03008C18.8956 1.16677 19.2341 1.43494 19.4579 1.79019C21.6288 5.1659 21.0759 9.3045 21.0514 9.4792C21.0446 9.52757 21.0227 9.57253 20.9888 9.60772C20.9549 9.6429 20.9108 9.66648 20.8627 9.67513C20.8489 9.67732 20.835 9.67813 20.821 9.67752ZM14.2014 3.88413C14.6546 3.97468 15.4491 4.18664 16.3908 4.66465C17.6044 5.28129 19.2808 6.4677 20.648 8.68224C20.7052 7.35198 20.6175 4.45109 19.0673 2.03941C18.8998 1.77303 18.6463 1.57178 18.349 1.46891C18.0516 1.36603 17.728 1.36771 17.4317 1.47365C16.5911 1.77696 15.3714 2.43969 14.2014 3.88413Z" fill="#00004F"/>
<path d="M19.6919 8.28446C19.6919 8.28446 20.1018 5.37395 18.6101 3.05162C18.4733 2.8364 18.2676 2.67394 18.0266 2.59082C17.7855 2.5077 17.5234 2.50883 17.283 2.59404C16.6255 2.83125 15.6803 3.35974 14.7988 4.53693C14.7973 4.53693 17.8131 4.80699 19.6919 8.28446Z" fill="#FF699F"/>
<g opacity="0.3">
<path opacity="0.3" d="M18.2868 3.9745C18.1501 3.7593 17.9444 3.59686 17.7035 3.51374C17.4625 3.43061 17.2004 3.43174 16.9601 3.51692C16.4873 3.68721 15.8647 4.00855 15.2248 4.61357C15.0847 4.5781 14.9424 4.552 14.7988 4.53544C15.6804 3.35825 16.6255 2.82976 17.283 2.59256C17.5236 2.50694 17.7861 2.50559 18.0275 2.58873C18.2689 2.67187 18.4749 2.83456 18.6117 3.05013C20.1046 5.37406 19.6936 8.28299 19.6936 8.28299C19.6016 8.11308 19.5074 7.95096 19.4107 7.79658C19.3594 6.74279 19.1181 5.26748 18.2868 3.9745Z" fill="#000072"/>
</g>
<path d="M19.6921 8.44975C19.6622 8.4497 19.6329 8.44165 19.6072 8.42632C19.5816 8.41105 19.5605 8.38905 19.5463 8.36278C17.7356 5.01151 14.8118 4.70379 14.7826 4.70138C14.7532 4.6987 14.7251 4.68823 14.7011 4.67105C14.6772 4.65388 14.6582 4.63063 14.6462 4.60369C14.6342 4.57675 14.6296 4.5471 14.6329 4.51778C14.6361 4.48848 14.6472 4.46057 14.6648 4.43694C15.5755 3.21928 16.56 2.67756 17.2259 2.43715C17.5015 2.33809 17.8026 2.33604 18.0794 2.43134C18.3563 2.52663 18.5923 2.71357 18.7485 2.96124C20.2575 5.30841 19.8732 8.18569 19.8564 8.30708C19.8515 8.3417 19.8358 8.37388 19.8115 8.39903C19.7873 8.42419 19.7557 8.44109 19.7214 8.4473C19.7117 8.44888 19.7019 8.4497 19.6921 8.44975ZM15.1011 4.4157C15.872 4.56796 18.0025 5.20464 19.5675 7.73813C19.6076 6.80736 19.5399 4.80596 18.4692 3.14074C18.3534 2.95654 18.1781 2.81737 17.9725 2.7462C17.7669 2.67503 17.5431 2.67611 17.3381 2.74928C16.756 2.95924 15.9117 3.41761 15.1011 4.4157Z" fill="#00004F"/>
<path d="M2.41127 12.3697C2.41127 12.3697 0.550925 8.57048 1.55743 4.72637C1.64851 4.37107 1.8574 4.05715 2.14996 3.83591C2.44253 3.61467 2.80147 3.49918 3.16815 3.50832C4.17385 3.53917 5.70526 3.83968 7.43456 5.05734C7.43456 5.05734 3.42899 6.77386 2.41127 12.3697Z" fill="#007AFF"/>
<path d="M2.41302 12.6022C2.36957 12.6022 2.327 12.59 2.29015 12.567C2.25331 12.544 2.22369 12.5111 2.20467 12.472C2.12694 12.3137 0.318279 8.55092 1.3344 4.66796C1.55597 3.82213 2.31245 3.24795 3.17751 3.2764C4.19484 3.30766 5.78193 3.60937 7.57055 4.8679C7.60421 4.89176 7.63094 4.92416 7.64795 4.96176C7.66496 4.99937 7.67163 5.04083 7.6673 5.08187C7.66297 5.12292 7.6478 5.16207 7.62336 5.19531C7.59886 5.22855 7.56597 5.25466 7.52809 5.27098C7.51887 5.27499 6.5404 5.70449 5.45497 6.79356C4.45327 7.79887 3.15468 9.58907 2.64181 12.4095C2.63304 12.4575 2.60935 12.5016 2.57412 12.5355C2.53888 12.5694 2.49387 12.5913 2.44548 12.5982C2.43474 12.6001 2.42391 12.6014 2.41302 12.6022ZM3.11981 3.73959C2.81227 3.74034 2.51376 3.84363 2.27152 4.03311C2.02928 4.22259 1.85714 4.48744 1.78236 4.78576C1.05753 7.55925 1.87411 10.3444 2.3409 11.5909C2.95434 9.06258 4.17961 7.41383 5.14244 6.45139C5.68881 5.89731 6.30725 5.41926 6.98114 5.03017C5.42091 4.01966 4.0562 3.76803 3.16269 3.74039L3.11981 3.73959Z" fill="#00004F"/>
<path d="M3.12602 10.9169C3.12602 10.9169 1.83344 8.27727 2.53262 5.60676C2.59598 5.35982 2.74117 5.14167 2.9445 4.9879C3.14782 4.83413 3.39727 4.75383 3.65211 4.76011C4.3505 4.78174 5.41509 4.9905 6.61713 5.83635C6.61713 5.83635 3.83322 7.02873 3.12602 10.9169Z" fill="#FF699F"/>
<g opacity="0.3">
<path opacity="0.3" d="M3.12447 6.3833C3.18783 6.13635 3.33302 5.91822 3.53635 5.76445C3.73967 5.61068 3.98912 5.53038 4.24397 5.53665C4.74642 5.55228 5.43799 5.6645 6.23376 6.04113C6.35616 5.96405 6.48346 5.895 6.61477 5.83436C5.41275 4.98853 4.34854 4.77978 3.64976 4.75814C3.39493 4.75198 3.14553 4.83238 2.94228 4.98622C2.73903 5.14006 2.59393 5.35825 2.53067 5.60518C1.83148 8.27569 3.12407 10.9153 3.12407 10.9153C3.15906 10.726 3.19913 10.5426 3.24427 10.3652C2.9634 9.3475 2.73541 7.87018 3.12447 6.3833Z" fill="#000072"/>
</g>
<path d="M3.12588 11.0871C3.09488 11.0872 3.06449 11.0785 3.0382 11.062C3.01191 11.0456 2.99078 11.0221 2.97723 10.9942C2.92314 10.8844 1.66541 8.26959 2.37221 5.56863C2.44422 5.28491 2.61073 5.0342 2.84431 4.85779C3.07789 4.68139 3.3646 4.58982 3.65718 4.59818C4.36438 4.62022 5.46905 4.82977 6.71194 5.70484C6.73608 5.7219 6.75522 5.74501 6.76739 5.7719C6.77961 5.79883 6.7844 5.82847 6.78129 5.85784C6.77819 5.88722 6.76729 5.91518 6.74977 5.93896C6.73221 5.96268 6.70863 5.98132 6.68149 5.99293C6.65507 6.00454 3.97091 7.20338 3.28896 10.9509C3.28278 10.9853 3.26588 11.0168 3.24069 11.041C3.21551 11.0652 3.18331 11.0808 3.14872 11.0856C3.14116 11.0867 3.13353 11.0873 3.12588 11.0871ZM3.61712 4.92994C3.40487 4.93061 3.19887 5.00182 3.03153 5.13239C2.86419 5.26295 2.74501 5.44545 2.69275 5.65117C2.1915 7.56642 2.74965 9.48967 3.0746 10.3623C3.77658 7.46866 5.60449 6.2021 6.29004 5.81864C5.21021 5.12146 4.26541 4.94717 3.64556 4.92834L3.61712 4.92994Z" fill="#00004F"/>
<path d="M13.4311 22.3233C20.5483 21.1913 24.6576 16.6312 21.8 11.5238C21.7271 11.3939 21.6502 11.2641 21.5684 11.1331C21.48 10.9913 21.4076 10.8401 21.3525 10.6824C20.8837 9.3493 18.1971 2.88676 10.5342 4.10522C2.87121 5.32368 2.32028 12.3011 2.28982 13.7135C2.28602 13.8806 2.26398 14.0468 2.22411 14.2091C0.722771 20.2361 6.13272 23.4836 13.4311 22.3233Z" fill="#007AFF"/>
<path d="M2.12506 14.6519C2.12506 14.6519 3.21651 14.3783 4.35763 15.8507C5.25435 17.0063 7.34067 16.6826 8.34078 15.7266C9.34085 14.7705 10.6647 14.1238 12.0883 13.8979C13.5119 13.6719 14.9776 13.875 16.2241 14.4728C17.4706 15.0706 19.5554 14.7324 20.049 13.3557C20.6772 11.602 21.7999 11.5234 21.7999 11.5234C24.6576 16.6309 20.5483 21.191 13.431 22.3229C6.31377 23.4548 0.992342 20.3921 2.12506 14.6519Z" fill="white"/>
<g opacity="0.3">
<path opacity="0.3" d="M2.10186 14.7909C1.99247 19.5188 6.8659 21.9457 13.2126 20.9365C19.5594 19.9271 23.436 16.1103 21.8725 11.6543C24.5887 16.7085 20.4902 21.2013 13.4334 22.3236C6.37669 23.4459 1.08093 20.4436 2.10186 14.7909Z" fill="#000072"/>
</g>
<g opacity="0.3">
<path opacity="0.3" d="M8.37923 16.0132C8.37923 16.0132 8.91854 16.8754 10.054 16.6186C10.4948 16.5192 10.7965 16.3565 11.0048 16.1811C11.023 16.1656 11.037 16.146 11.0458 16.1239C11.0547 16.1018 11.058 16.0779 11.0555 16.0542C11.053 16.0306 11.0448 16.0079 11.0316 15.9881C11.0184 15.9683 11.0005 15.952 10.9796 15.9407C10.4551 15.667 10.1005 15.2275 10.1674 14.7787C10.2877 13.9673 12.0639 13.7297 12.0639 13.7297C12.0639 13.7297 13.8248 13.4052 14.1918 14.1388C14.395 14.5447 14.1918 15.074 13.7775 15.4967C13.7605 15.5141 13.748 15.5354 13.7413 15.5588C13.7344 15.5822 13.7336 15.6069 13.7386 15.6307C13.7437 15.6545 13.7546 15.6766 13.7703 15.6952C13.7861 15.7138 13.8062 15.7282 13.8288 15.7371C14.0808 15.8377 14.4182 15.8974 14.8646 15.8573C16.0237 15.7492 16.267 14.7623 16.267 14.7623C16.267 14.7623 16.9181 15.6217 16.2726 16.5273C16.2171 16.6037 16.1794 16.6916 16.1624 16.7845C16.047 17.4492 15.4332 20.2027 13.1453 20.5665C10.8574 20.9303 9.41896 18.503 9.10363 17.9068C9.05867 17.8238 8.99568 17.7519 8.91931 17.6964C8.02662 17.0325 8.37923 16.0132 8.37923 16.0132Z" fill="#000072"/>
</g>
<g opacity="0.7">
<path opacity="0.7" d="M2.22538 14.2052C2.26525 14.0429 2.28728 13.8767 2.29109 13.7096C2.32274 12.2972 2.87247 5.31978 10.5354 4.10131C18.1984 2.88285 20.8849 9.34539 21.3537 10.6785C21.4089 10.8362 21.4813 10.9874 21.5697 11.1292C21.6499 11.2602 21.73 11.39 21.8013 11.5199C22.313 12.4342 22.5999 13.3309 22.6876 14.1936C22.529 13.4853 22.2654 12.8048 21.9055 12.1746C21.8325 12.0448 21.7554 11.9145 21.6739 11.7839C21.5855 11.6421 21.513 11.4909 21.4579 11.3332C21.066 10.2189 19.1232 5.52054 14.0193 4.72196C14.0193 4.72196 14.0193 4.72477 14.0193 4.72597C14.0157 4.96637 13.48 5.15229 12.8233 5.14227C12.1666 5.13226 11.6373 4.92911 11.6413 4.68911C11.6417 4.67174 11.645 4.65455 11.6509 4.63822C11.3236 4.66307 10.9866 4.70193 10.6392 4.75842C2.97665 5.97487 2.42692 12.9519 2.39486 14.3643C2.39133 14.5311 2.36942 14.6971 2.32956 14.8591C2.09636 15.7947 2.03025 16.6622 2.11158 17.4591C1.90283 16.4939 1.92647 15.4049 2.22538 14.2052Z" fill="white"/>
</g>
<path d="M14.5241 12.4704L14.559 12.4076C14.5694 12.3895 14.5798 12.3711 14.5906 12.3543C14.6127 12.3198 14.6339 12.2861 14.6568 12.2537C14.7024 12.1892 14.7489 12.1259 14.7994 12.0662C15.0996 11.7033 15.4766 11.4117 15.9033 11.2123C16.1858 11.0783 16.4885 10.9919 16.7992 10.9567C17.1013 10.9234 17.4069 10.9446 17.7015 11.0192C17.7317 11.0269 17.7582 11.0449 17.7766 11.07C17.795 11.0952 17.804 11.126 17.8021 11.157C17.8002 11.1881 17.7875 11.2176 17.7662 11.2403C17.745 11.2631 17.7164 11.2777 17.6855 11.2816H17.6811C17.4196 11.311 17.1628 11.3728 16.9166 11.4655C16.7989 11.5115 16.6843 11.565 16.5736 11.6258C16.465 11.6863 16.3601 11.7532 16.2594 11.8261C16.0611 11.9751 15.8776 12.1428 15.7113 12.327C15.6272 12.4184 15.5475 12.5133 15.4709 12.6095C15.4333 12.658 15.3944 12.706 15.3591 12.7549L15.2606 12.8884L15.2334 12.9252C15.1694 13.0108 15.0755 13.069 14.9704 13.088C14.8653 13.1071 14.7569 13.0857 14.667 13.028C14.5771 12.9704 14.5124 12.8808 14.4859 12.7773C14.4594 12.6739 14.473 12.5642 14.5241 12.4704Z" fill="#00004F"/>
<path d="M8.77017 13.9215L8.63513 13.8254C8.58625 13.7897 8.53498 13.756 8.48371 13.7216C8.38035 13.6543 8.27535 13.5886 8.16715 13.5281C7.95203 13.4045 7.72555 13.3019 7.49082 13.2216C7.37254 13.1833 7.25212 13.1518 7.13022 13.1274C7.00604 13.1042 6.88047 13.089 6.75435 13.0821C6.49157 13.0702 6.22828 13.091 5.97063 13.1442H5.96666C5.93576 13.1506 5.90368 13.1459 5.87593 13.1309C5.84818 13.116 5.82664 13.0917 5.81503 13.0624C5.80347 13.0331 5.80256 13.0006 5.81259 12.9708C5.82257 12.9409 5.84278 12.9155 5.86967 12.899C6.12659 12.7368 6.41046 12.622 6.70792 12.5601C7.01423 12.4969 7.3289 12.4852 7.63909 12.5252C8.10641 12.5827 8.5552 12.7429 8.95332 12.9944C9.01982 13.0344 9.08351 13.0809 9.14721 13.1286C9.17888 13.1522 9.20974 13.1775 9.241 13.2035C9.25658 13.216 9.27221 13.2304 9.28784 13.2436L9.34075 13.2925C9.41967 13.3654 9.46778 13.4657 9.47537 13.5728C9.48291 13.68 9.44935 13.7861 9.38148 13.8694C9.31361 13.9526 9.21656 14.007 9.11004 14.0212C9.00352 14.0354 8.89563 14.0085 8.80825 13.946L8.77017 13.9215Z" fill="#00004F"/>
<path d="M12.4155 15.9295C11.3272 16.1023 10.1316 15.3582 10.247 14.5893C10.3624 13.8204 12.044 13.5952 12.044 13.5952C12.044 13.5952 13.7132 13.2875 14.0611 13.9827C14.4088 14.6778 13.5033 15.7565 12.4155 15.9295Z" fill="#00004F"/>
<path d="M12.6206 15.654C12.6278 15.664 12.645 15.6884 12.6607 15.706C12.6763 15.7237 12.6911 15.7461 12.7072 15.7641C12.7392 15.8042 12.7741 15.8403 12.8085 15.8775C12.8785 15.9515 12.9532 16.0208 13.0321 16.0851C13.1871 16.2129 13.36 16.3173 13.5454 16.3948C13.6368 16.433 13.7315 16.463 13.8282 16.4846C13.9251 16.5078 14.0238 16.5228 14.1232 16.5294C14.3268 16.5409 14.531 16.5245 14.7302 16.4805C14.9344 16.436 15.1325 16.3673 15.3204 16.2758C15.5038 16.1904 15.6689 16.0701 15.8064 15.9216C15.9395 15.7701 16.0427 15.5947 16.1105 15.4048C16.1863 15.1968 16.2367 14.9805 16.2608 14.7605C16.2609 14.7592 16.2613 14.758 16.2619 14.7568C16.2626 14.7557 16.2634 14.7548 16.2644 14.754C16.2654 14.7532 16.2666 14.7526 16.2678 14.7523C16.269 14.752 16.2703 14.7519 16.2716 14.7521C16.2731 14.7522 16.2745 14.7527 16.2758 14.7535C16.2771 14.7544 16.2781 14.7555 16.2788 14.7568C16.4058 14.9684 16.4439 15.2241 16.4174 15.476C16.3863 15.7342 16.2837 15.9786 16.1213 16.1817C15.9627 16.385 15.7663 16.5556 15.5427 16.6841C15.3257 16.8084 15.0941 16.9051 14.8532 16.9722C14.3723 17.1092 13.8231 17.1068 13.339 16.9093C13.0989 16.8142 12.8759 16.6806 12.6787 16.5138C12.5813 16.4316 12.4898 16.3426 12.4051 16.2474C12.3625 16.1997 12.3221 16.1504 12.2848 16.0987C12.2656 16.0731 12.2468 16.047 12.2279 16.0186C12.2091 15.9902 12.1931 15.9673 12.1698 15.9284C12.1375 15.8701 12.1285 15.8017 12.1444 15.737C12.1603 15.6722 12.2001 15.6159 12.2557 15.5792C12.3113 15.5424 12.3788 15.528 12.4446 15.5389C12.5104 15.5497 12.5696 15.5849 12.6106 15.6376L12.6206 15.654Z" fill="#00004F"/>
<path d="M12.6529 15.852C12.6425 15.8961 12.6353 15.9221 12.6253 15.9554C12.6152 15.9887 12.6064 16.0179 12.5961 16.0484C12.5752 16.1093 12.5524 16.1686 12.5267 16.2271C12.4758 16.3439 12.4165 16.457 12.3492 16.5652C12.2135 16.7853 12.0429 16.9819 11.8444 17.1474C11.4437 17.4852 10.9228 17.6583 10.424 17.6767C10.1742 17.6878 9.92397 17.6678 9.6791 17.617C9.42686 17.564 9.18724 17.4626 8.97349 17.3185C8.75654 17.1753 8.58377 16.9743 8.47466 16.7383C8.3717 16.5071 8.32842 16.2523 8.38331 16.0115C8.38362 16.0103 8.38413 16.0091 8.38484 16.008C8.3856 16.007 8.38652 16.0061 8.38764 16.0055C8.38871 16.0048 8.38988 16.0044 8.39115 16.0042C8.39243 16.004 8.3937 16.004 8.39492 16.0043C8.3964 16.0046 8.39772 16.0053 8.39889 16.0061C8.40006 16.0071 8.40103 16.0082 8.40174 16.0095C8.49299 16.2113 8.60801 16.4015 8.74432 16.5761C8.86815 16.7352 9.02064 16.8699 9.19386 16.9731C9.3707 17.0714 9.56485 17.1346 9.76566 17.1591C9.97269 17.1876 10.1824 17.1914 10.3903 17.1703C10.5933 17.1504 10.7926 17.1026 10.9825 17.0284C11.0748 16.9913 11.1638 16.9466 11.2486 16.8946C11.3337 16.8441 11.4141 16.7862 11.489 16.7215C11.6408 16.5905 11.7727 16.4379 11.8804 16.2687C11.9356 16.1831 11.9851 16.094 12.0287 16.0019C12.0499 15.9558 12.0716 15.9097 12.0896 15.8629C12.0992 15.8396 12.108 15.816 12.116 15.7931C12.124 15.7703 12.1329 15.7435 12.1365 15.7318L12.1421 15.7134C12.1633 15.649 12.2085 15.5951 12.2682 15.5629C12.328 15.5307 12.3979 15.5227 12.4634 15.5405C12.5289 15.5583 12.5851 15.6004 12.6204 15.6584C12.6558 15.7164 12.6671 15.7857 12.6529 15.852Z" fill="#00004F"/>
<path d="M9.6084 17.3641C9.6084 17.3641 10.7988 20.713 13.1183 20.344C14.126 20.1837 14.7135 19.4224 15.0556 18.6142C15.502 17.5597 15.5312 16.4221 15.5312 16.4221C15.5312 16.4221 13.8508 17.5015 12.4167 15.9297C11.5405 17.8682 9.6084 17.3641 9.6084 17.3641Z" fill="#00004F"/>
<path d="M12.708 17.7728C14.4534 17.4951 15.0536 18.6142 15.0536 18.6142C14.7114 19.4236 14.124 20.1837 13.1163 20.344C12.1086 20.5042 11.3133 19.9637 10.7383 19.3022C10.7383 19.299 10.9623 18.0505 12.708 17.7728Z" fill="#FF4893"/>
<g opacity="0.3">
<path opacity="0.3" d="M12.9516 19.3015C13.7225 19.1789 14.2834 18.7486 14.6842 18.1992C14.8312 18.3139 14.9563 18.4541 15.0536 18.6131C14.7114 19.4225 14.124 20.1826 13.1163 20.3429C12.1086 20.5031 11.3132 19.9626 10.7383 19.3011C10.7815 19.1196 10.857 18.9474 10.961 18.7927C11.5156 19.1893 12.1795 19.4241 12.9516 19.3015Z" fill="#000072"/>
</g>
<path d="M12.7542 20.6052C10.5385 20.6052 9.43585 17.5777 9.38854 17.4419C9.37434 17.4021 9.37123 17.3592 9.37958 17.3178C9.38793 17.2765 9.40743 17.2382 9.436 17.207C9.46451 17.1759 9.50097 17.1531 9.5415 17.1412C9.58198 17.1293 9.62495 17.1287 9.66584 17.1394C9.73672 17.1574 11.422 17.5653 12.2045 15.834C12.2203 15.7989 12.2446 15.7683 12.2751 15.7449C12.3057 15.7216 12.3416 15.7062 12.3796 15.7002C12.4176 15.6941 12.4565 15.6976 12.4928 15.7103C12.5291 15.7231 12.5617 15.7446 12.5876 15.7731C13.8697 17.1754 15.3438 16.2659 15.4059 16.2262C15.4414 16.2037 15.4822 16.1912 15.5242 16.19C15.5662 16.1889 15.6077 16.1991 15.6443 16.2197C15.6809 16.2402 15.7113 16.2703 15.7322 16.3067C15.753 16.3432 15.7637 16.3846 15.7629 16.4265C15.7589 16.5792 15.6367 20.1769 13.1541 20.5716C13.0219 20.5933 12.8882 20.6046 12.7542 20.6052ZM9.97552 17.6458C10.3498 18.4652 11.4128 20.3788 13.08 20.1148C14.7472 19.8508 15.1635 17.6999 15.2657 16.8048C14.6823 17.0324 13.5364 17.2772 12.4766 16.3188C11.7666 17.5585 10.601 17.6815 9.97552 17.6458Z" fill="#00004F"/>
<path d="M12.1389 14.3538C12.5307 14.2915 12.837 14.1689 12.8228 14.08C12.8087 13.991 12.4796 13.9694 12.0877 14.0317C11.6959 14.0939 11.3897 14.2165 11.4038 14.3055C11.4179 14.3944 11.7471 14.4161 12.1389 14.3538Z" fill="white"/>
<path d="M14.9532 10.6743C15.3369 10.2978 15.4685 9.80974 15.2471 9.58397C15.0256 9.35826 14.535 9.48041 14.1513 9.85679C13.7676 10.2332 13.6361 10.7214 13.8575 10.9471C14.079 11.1728 14.5696 11.0507 14.9532 10.6743Z" fill="white"/>
<path d="M9.49936 11.6408C9.35873 11.9241 8.85429 11.9614 8.37307 11.721C7.89185 11.4806 7.61496 11.0586 7.75519 10.7754C7.89546 10.4921 8.33458 10.4665 8.8162 10.7057C9.29783 10.9448 9.63958 11.3576 9.49936 11.6408Z" fill="white"/>
<path d="M10.6149 22.7858C7.46033 22.7858 4.81743 21.8711 3.26361 20.1766C1.8416 18.626 1.40446 16.5432 1.99987 14.1532C2.0359 14.0076 2.05565 13.8584 2.05877 13.7084C2.09122 12.2856 2.65057 5.12391 10.4991 3.8762C18.3471 2.62809 21.1006 9.26293 21.5726 10.6076C21.6221 10.7492 21.6871 10.8849 21.7661 11.0123C23.0735 13.0994 23.3043 15.2154 22.4336 17.1302C21.2064 19.8292 17.8547 21.8582 13.4685 22.5546C12.5248 22.7063 11.5706 22.7836 10.6149 22.7858ZM12.3798 4.18632C11.7742 4.18806 11.1698 4.23763 10.572 4.33457C3.08731 5.52459 2.55361 12.3605 2.52275 13.7189C2.51886 13.9031 2.49467 14.0864 2.45063 14.2654C1.89449 16.4967 2.29396 18.4324 3.60538 19.8628C5.50379 21.9328 9.16397 22.767 13.3955 22.0938C17.6271 21.4207 20.8482 19.493 22.0101 16.9363C22.8115 15.1697 22.5927 13.2056 21.3718 11.2567C21.2746 11.1002 21.1951 10.9334 21.1346 10.7594C20.7223 9.58707 18.4874 4.18632 12.3798 4.18632Z" fill="#00004F"/>
</g>
<defs>
<clipPath id="clip0_2572_2992">
<rect width="24" height="24" fill="white"/>
</clipPath>
</defs>
</svg>
