<svg width="24" height="24" viewBox="0 0 24 24" fill="none" xmlns="http://www.w3.org/2000/svg">
<circle cx="12" cy="12" r="12" fill="url(#paint0_linear_1302_2783)"/>
<mask id="mask0_1302_2783" style="mask-type:alpha" maskUnits="userSpaceOnUse" x="0" y="0" width="24" height="24">
<circle cx="12" cy="12" r="12" fill="url(#paint1_linear_1302_2783)"/>
</mask>
<g mask="url(#mask0_1302_2783)">
<path d="M15.2532 23.9068C15.0524 23.9695 14.8454 24.0259 14.6447 24.095C14.5882 24.1138 14.5505 24.1765 14.5004 24.2204C13.0763 24.2204 11.6585 24.2204 10.2344 24.2204C10.2657 23.9381 10.2908 23.6558 10.3222 23.3484C10.7049 23.4739 10.7676 23.2857 10.7363 22.9971C10.73 22.9657 10.7363 22.9344 10.7363 22.903C10.7363 22.8779 10.7363 22.8591 10.7363 22.834C12.0976 22.834 13.459 22.8403 14.8203 22.8403C15.3096 22.9783 15.3096 22.9783 15.3096 23.4802C15.3096 23.6056 15.3159 23.7248 15.3159 23.8503H15.3096C15.2971 23.8691 15.272 23.8879 15.2532 23.9068Z" fill="#954A47"/>
<path d="M4.40039 1.14805C4.50704 1.09159 4.60742 1.03513 4.71407 0.972394C4.73289 0.978667 4.74543 0.972394 4.75798 0.9473C4.76425 0.934753 4.7768 0.928479 4.79562 0.928479C6.98508 0.934753 9.1808 0.941026 11.3703 0.928479C11.5271 0.928479 11.7529 0.834377 11.8157 0.71518C11.9411 0.48306 12.1168 0.439146 12.3301 0.439146C13.2084 0.432872 14.0867 0.426599 14.9587 0.445419C15.0779 0.445419 15.2347 0.570889 15.3038 0.677539C15.4543 0.934753 16.1758 1.05395 16.3702 0.82183C16.4267 0.759094 16.4393 0.652445 16.4455 0.564616C16.4581 0.37641 16.4518 0.188205 16.4518 0C16.5961 0 16.7467 0 16.8909 0C16.8909 0.420325 16.8972 0.834377 16.8972 1.2547C16.7968 1.29862 16.6965 1.38645 16.5961 1.38645C16.0628 1.39899 15.5359 1.39272 15.0026 1.39272C14.9336 1.23588 14.8583 1.07904 14.7893 0.922206L14.7642 0.909659C14.7391 0.903385 14.714 0.897112 14.6889 0.890838C13.9612 0.890838 13.2272 0.890838 12.4995 0.890838C12.4117 0.928479 12.3301 0.96612 12.2423 1.00376C12.2423 1.0414 12.2423 1.08532 12.2423 1.12296C12.2423 1.1606 12.2423 1.20451 12.2423 1.24215C12.1984 1.28607 12.1607 1.32998 12.1168 1.3739C11.0001 1.38017 9.88971 1.38645 8.77303 1.38645C7.50578 1.38645 6.23226 1.38017 4.96501 1.3739C4.92737 1.3739 4.88345 1.3739 4.84581 1.3739C4.69525 1.3739 4.55095 1.3739 4.40039 1.3739C4.40039 1.30489 4.40039 1.22961 4.40039 1.14805Z" fill="#F1CE20"/>
<path d="M8.91766 24.2215C8.84238 24.1588 8.77964 24.0521 8.69809 24.0333C7.5124 23.7259 6.38944 23.2805 5.34176 22.6531C5.26648 22.6092 5.21002 22.5339 5.14728 22.4712C5.14728 22.3395 5.12846 22.1952 5.1661 22.0697C5.1912 21.9819 5.29785 21.8564 5.37313 21.8501C5.58643 21.8438 5.66171 21.7686 5.66798 21.5553C5.66798 21.48 5.81228 21.342 5.88128 21.3482C6.1385 21.3796 6.43963 21.1914 6.65293 21.4674C6.67175 21.4925 6.6592 21.549 6.6592 21.5866C6.6592 21.6682 6.6592 21.7497 6.6592 21.8376C6.57764 21.8376 6.49609 21.8438 6.40826 21.8376C6.22005 21.825 6.15104 21.9003 6.15104 22.0885C6.15104 22.2767 6.22633 22.352 6.40826 22.3395C6.48981 22.3332 6.57137 22.3395 6.6592 22.3395C6.82858 22.3583 6.99797 22.3771 7.16108 22.3959C7.16108 22.879 7.24263 22.948 7.72569 22.8978C7.86999 22.879 8.01428 22.8664 8.15857 22.8476C8.15857 22.8664 8.16484 22.8853 8.16484 22.9041C8.15857 23.3683 8.15857 23.3683 8.56007 23.2303C8.56635 23.224 8.57889 23.2303 8.59144 23.2303C8.61653 23.2679 8.64163 23.3118 8.66045 23.3495C8.66672 23.9141 8.66672 23.9141 9.1686 23.9078C9.1686 23.9706 9.1686 24.0396 9.1686 24.1023C9.14351 24.1462 9.12469 24.1839 9.09959 24.2278C9.04313 24.2215 8.9804 24.2215 8.91766 24.2215Z" fill="#605C5F"/>
<path d="M5.18373 0.677125C5.30293 0.708492 5.41585 0.764954 5.53505 0.764954C7.40455 0.771227 9.27406 0.771227 11.1436 0.764954C11.2628 0.764954 11.4259 0.714766 11.4886 0.626937C11.7207 0.306988 11.9905 0.212885 12.3983 0.244253C13.2326 0.300714 14.067 0.269347 14.9014 0.2568C15.1712 0.250526 15.3782 0.288167 15.5037 0.576749C15.6103 0.815142 15.8424 0.75868 16.0557 0.714766C16.2753 0.664578 16.2565 0.50774 16.2565 0.350902C16.2565 0.237979 16.2565 0.118783 16.2502 0.00585938C16.3129 0.00585938 16.3757 0.00585938 16.4384 0.00585938C16.4384 0.194065 16.4447 0.38227 16.4321 0.570475C16.4259 0.658304 16.4133 0.764954 16.3568 0.827689C16.1624 1.05981 15.4472 0.934339 15.2904 0.683398C15.2213 0.570475 15.0645 0.451278 14.9453 0.451278C14.067 0.432458 13.1887 0.438731 12.3167 0.445005C12.1034 0.445005 11.9278 0.495193 11.8023 0.721039C11.7395 0.840236 11.5074 0.934339 11.3569 0.934339C9.16741 0.946886 6.97168 0.934339 4.78223 0.934339C4.92024 0.846509 5.05199 0.764954 5.18373 0.677125Z" fill="#C1D39A"/>
<path d="M14.9954 1.39858C15.5287 1.39858 16.0556 1.40485 16.5889 1.3923C16.6893 1.3923 16.7896 1.30448 16.89 1.26056C16.9088 0.840236 16.9276 0.426184 16.9465 0.00585938C17.028 0.00585938 17.1159 0.00585938 17.1974 0.00585938C17.3668 0.125056 17.5362 0.250526 17.7056 0.369723C17.4672 0.363449 17.3793 0.476373 17.3856 0.714766C17.3982 1.03471 17.3856 1.36094 17.3919 1.68089C17.3982 1.86282 17.3354 1.95692 17.1409 1.9381C17.0594 1.93183 16.9716 1.9381 16.89 1.9381C16.363 1.9381 15.8423 1.93183 15.3154 1.93183C15.1711 1.91301 15.0268 1.90046 14.8762 1.88164C14.8574 1.73735 14.8323 1.58678 14.8135 1.44249C14.8699 1.42995 14.9327 1.4174 14.9954 1.39858Z" fill="#6C2911"/>
<path d="M10.7365 22.9044C10.7365 22.9358 10.7365 22.9672 10.7365 22.9985C10.7679 23.2871 10.6989 23.4753 10.3224 23.3499C10.2911 23.6573 10.2597 23.9396 10.2346 24.2219C10.0652 24.2219 9.90212 24.2219 9.73273 24.2219C9.69509 23.4377 9.69509 23.4377 9.18066 23.3373C9.18694 23.0236 9.18694 22.71 9.19321 22.3963C9.46297 22.3775 9.73273 22.3461 10.0025 22.3524C10.0778 22.3524 10.2283 22.4465 10.2221 22.4904C10.1844 22.8919 10.4354 22.9233 10.7365 22.9044Z" fill="#794733"/>
<path d="M9.17466 23.3379C9.68908 23.4383 9.68908 23.4383 9.72672 24.2225C9.58243 24.2225 9.43187 24.2225 9.28758 24.2225C9.24994 24.1785 9.20602 24.1409 9.16838 24.097C9.16838 24.0342 9.16838 23.9652 9.16838 23.9025C9.16838 23.8837 9.16838 23.8649 9.16838 23.846C9.19348 23.821 9.22484 23.8021 9.24994 23.777C9.21857 23.7582 9.19348 23.7331 9.16211 23.7143C9.16211 23.5888 9.16211 23.4634 9.16211 23.3379C9.16838 23.3442 9.17466 23.3379 9.17466 23.3379Z" fill="#3D2B2D"/>
<path d="M16.9475 0.00585938C16.9287 0.426185 16.9099 0.840236 16.891 1.26056C16.891 0.840236 16.8848 0.426185 16.8848 0.00585938C16.9036 0.00585938 16.9224 0.00585938 16.9475 0.00585938Z" fill="#9B6D1A"/>
<path d="M6.65882 21.838C6.65882 21.7565 6.65882 21.6749 6.65882 21.5871C6.65882 21.5432 6.67136 21.493 6.65254 21.4679C6.43924 21.1919 6.13812 21.3864 5.8809 21.3487C5.81817 21.3424 5.67388 21.4805 5.6676 21.5557C5.66133 21.769 5.58605 21.8443 5.37275 21.8506C5.29747 21.8506 5.19082 21.9761 5.16572 22.0702C5.12808 22.1956 5.15318 22.3337 5.1469 22.4717C4.85205 22.3023 4.55092 22.1392 4.26861 21.9447C4.19333 21.8945 4.18706 21.7502 4.14941 21.6498C4.19333 21.5495 4.24352 21.355 4.28743 21.3613C4.63247 21.3738 4.6262 21.1229 4.65757 20.897C4.65757 20.8782 4.65757 20.8594 4.66384 20.8406C4.85205 20.8406 5.03398 20.8406 5.22218 20.8406C5.62996 20.8406 5.64878 20.8217 5.66133 20.4014C6.10047 20.3826 6.54589 20.345 6.98504 20.3387C7.68767 20.3261 7.78805 20.4579 7.65631 21.1605C7.64376 21.2232 7.62494 21.2797 7.60612 21.3424C7.36145 21.3299 7.11678 21.3111 7.15442 21.6875C7.1607 21.7314 7.04777 21.8192 6.97249 21.838C6.86584 21.8569 6.75919 21.838 6.65882 21.838Z" fill="#494245"/>
<path d="M2.95039 20.8405C3.0445 20.7777 3.14487 20.7213 3.2327 20.6523C3.4711 20.4578 3.42718 20.2507 3.20761 20.0563C2.98176 19.8555 2.82492 19.5858 2.63672 19.3474C2.66809 19.3411 2.69945 19.3285 2.72455 19.3223C2.76219 19.3223 2.79356 19.3223 2.8312 19.3223C2.89393 19.4038 3.00058 19.4791 3.00686 19.5669C3.03195 19.8681 3.20761 19.9245 3.45855 19.8994L3.46482 19.9057C3.49619 19.9496 3.52756 19.9935 3.55892 20.0374C3.5652 20.0814 3.57147 20.119 3.57775 20.1629C3.5652 20.3323 3.54638 20.4954 3.53383 20.6648C3.48992 20.7087 3.45227 20.7464 3.40836 20.7903C3.30171 20.853 3.19506 20.9157 3.08841 20.9785C3.03822 20.922 2.99431 20.8844 2.95039 20.8405Z" fill="#D4C9C2"/>
<path d="M4.65146 20.8971C4.62009 21.123 4.62636 21.3676 4.28132 21.3614C4.23741 21.3614 4.18722 21.5496 4.1433 21.65C3.86727 21.788 3.72925 21.5935 3.58496 21.4178C3.76062 21.3676 3.93 21.3237 4.10566 21.2735C4.18722 21.1293 4.2625 20.985 4.34406 20.8469C4.40679 20.8407 4.46325 20.8344 4.52599 20.8281C4.56363 20.8469 4.60754 20.872 4.65146 20.8971Z" fill="#3D2B2D"/>
<path d="M3.40257 20.7782C3.44649 20.7343 3.48413 20.6967 3.52804 20.6528C3.56568 20.6528 3.6096 20.6465 3.64724 20.6465C3.61587 20.7469 3.59078 20.8535 3.55314 20.9476C3.50922 21.0543 3.45276 21.1546 3.3963 21.255C3.37748 21.255 3.35866 21.2613 3.33984 21.2676L3.33356 21.2613C3.3022 21.2362 3.27083 21.2111 3.23946 21.1797L3.22692 21.1672C3.20182 21.1358 3.17045 21.1044 3.14536 21.0731C3.13909 21.0543 3.13909 21.0417 3.13281 21.0229C3.22692 20.9476 3.31474 20.8598 3.40257 20.7782Z" fill="#DDC640"/>
<path d="M4.09948 21.274C3.92382 21.3241 3.75443 21.3681 3.57877 21.4183C3.55995 21.412 3.53486 21.4057 3.51604 21.3994C3.51604 21.3806 3.51604 21.3618 3.50977 21.343C3.6917 21.2363 3.8799 21.1359 4.06184 21.0293C4.08066 21.1109 4.08693 21.1924 4.09948 21.274Z" fill="#DDC640"/>
<path d="M3.40296 20.7773C3.31513 20.8589 3.2273 20.9467 3.13947 21.0283C3.12065 21.0095 3.10183 20.9844 3.08301 20.9655C3.18966 20.9028 3.29631 20.8401 3.40296 20.7773Z" fill="#C1D39A"/>
<path d="M3.24609 21.1855C3.27746 21.2106 3.30883 21.2357 3.3402 21.2671C3.30256 21.2357 3.27119 21.2106 3.24609 21.1855Z" fill="#794733"/>
<path d="M3.50982 21.3435C3.50982 21.3623 3.5161 21.3811 3.5161 21.3999C3.47218 21.3811 3.42827 21.3623 3.39062 21.3435C3.3969 21.3372 3.40945 21.3246 3.41572 21.3184C3.44709 21.3246 3.47845 21.3309 3.50982 21.3435Z" fill="#794733"/>
<path d="M3.15137 21.0801C3.17646 21.1114 3.20783 21.1428 3.23292 21.1742C3.20156 21.1428 3.17646 21.1114 3.15137 21.0801Z" fill="#794733"/>
<path d="M3.33984 21.2684C3.35866 21.2621 3.37748 21.2621 3.39631 21.2559C3.40258 21.2747 3.40885 21.2935 3.41513 21.3123C3.40885 21.3186 3.39631 21.3311 3.39003 21.3374C3.37121 21.3186 3.35866 21.2935 3.33984 21.2684Z" fill="#794733"/>
<path d="M2.82532 19.3153C2.78768 19.3153 2.75631 19.3153 2.71867 19.3153C2.65594 19.2525 2.58693 19.1835 2.52419 19.1208C2.52419 19.0706 2.52419 19.0204 2.52419 18.9702C2.6873 18.8322 2.68103 18.6942 2.53047 18.5562C2.54301 18.299 2.57438 18.0355 2.56811 17.7783C2.56183 16.8121 2.54929 15.846 2.53674 14.8799C2.54929 14.0455 2.56811 13.2174 2.56811 12.383C2.56811 12.3078 2.48655 12.1886 2.41754 12.176C2.06623 12.0756 2.06623 11.8184 2.06623 11.5361C2.0725 8.92634 2.0725 6.32283 2.06623 3.71305C2.06623 3.60013 2.02859 3.49348 2.00977 3.38056C2.0725 3.30528 2.13524 3.22372 2.19797 3.14844L2.21052 3.16098C2.20424 3.24254 2.18542 3.3241 2.18542 3.41192C2.17915 6.13463 2.1666 8.8636 2.1666 11.5863C2.1666 11.7871 2.1917 11.9878 2.44891 12.0443C2.6873 12.0945 2.70613 12.3015 2.72495 12.4834C2.73749 12.5963 2.69358 12.7093 2.69358 12.8222C2.69358 14.5662 2.66848 16.3103 2.7124 18.0543C2.72495 18.4809 2.58693 19.0079 3.08254 19.3153L3.06372 19.3341C2.98843 19.3278 2.90688 19.3215 2.82532 19.3153Z" fill="#DDC640"/>
<path d="M2.02268 3.38086C2.0415 3.49378 2.07914 3.60043 2.07914 3.71336C2.07914 6.32313 2.07914 8.92664 2.07914 11.5364C2.07914 11.8187 2.07914 12.0822 2.43045 12.1763C2.49946 12.1951 2.58102 12.3143 2.58102 12.3833C2.58102 13.2177 2.5622 14.0458 2.54965 14.8802C2.52456 14.8802 2.49319 14.8802 2.4681 14.8739C2.4681 14.2403 2.46182 13.6067 2.4681 12.9668C2.4681 12.6907 2.40536 12.4461 2.17324 12.283C1.90348 12.0948 1.90348 11.825 1.90975 11.5364C1.92857 10.8526 1.93485 10.1625 1.94112 9.47871C1.94739 9.39715 1.95994 9.30932 1.95994 9.22777C1.95994 7.30808 1.95994 5.38211 1.95994 3.46241C1.97249 3.43732 1.99758 3.40595 2.02268 3.38086Z" fill="#C1D39A"/>
<path d="M1.94677 3.46289C1.94677 5.38258 1.94677 7.30855 1.94677 9.22824C1.94677 9.3098 1.93423 9.39763 1.92795 9.47919C1.89031 9.47919 1.85894 9.47918 1.8213 9.47291C1.80248 8.7891 1.77739 8.09901 1.76484 7.4152C1.76484 7.28346 1.78994 7.14544 1.79621 7.0137C1.80248 6.75648 1.84012 6.493 1.80876 6.23578C1.7272 5.57706 1.62055 4.91834 1.52018 4.24081C1.45744 4.27217 1.35079 4.33491 1.24414 4.39137C1.48253 4.08397 1.71465 3.77029 1.94677 3.46289Z" fill="#9CF5E3"/>
<path d="M2.29297 3.04166C2.40589 2.94756 2.51882 2.85345 2.63174 2.76562C2.69447 2.79699 2.75721 2.84718 2.81994 2.84718C3.19635 2.84091 3.57904 2.82836 3.95545 2.81581C3.98054 2.82836 3.99936 2.84718 4.02446 2.85973C4.00564 2.8911 3.98682 2.91619 3.96172 2.94756C3.85507 2.94756 3.74842 2.94756 3.64177 2.94756C3.61668 2.96638 3.59158 2.97892 3.56649 2.99774C3.37201 2.97892 3.17753 2.95383 2.97678 2.94756C2.569 2.94128 2.569 2.94756 2.569 3.36161C2.569 5.95257 2.569 8.5498 2.569 11.1408C2.569 11.2788 2.55646 11.4105 2.55018 11.5485C2.51882 11.4293 2.46235 11.3039 2.46235 11.1847C2.45608 8.61253 2.46235 6.03412 2.44981 3.46198C2.44981 3.33651 2.36825 3.21104 2.33061 3.08557C2.31806 3.06675 2.30552 3.05421 2.29297 3.04166Z" fill="#DDC640"/>
<path d="M3.95457 2.81722C3.57816 2.82977 3.19548 2.84232 2.81906 2.84859C2.75633 2.84859 2.69359 2.79213 2.63086 2.76704C2.70614 2.67293 2.78142 2.57883 2.85671 2.491C3.12019 2.45963 3.37741 2.42827 3.64089 2.39062C3.93575 2.39062 3.97339 2.5851 3.95457 2.81722Z" fill="#F6D51D"/>
<path d="M3.64161 2.38937C3.37812 2.42073 3.12091 2.4521 2.85742 2.48974C3.11464 2.25762 3.37812 2.0255 3.63534 1.78711C3.64161 1.79966 3.65416 1.8122 3.66043 1.82475C3.66043 1.9314 3.66043 2.03178 3.66043 2.13843C3.64788 2.21998 3.64161 2.30781 3.64161 2.38937Z" fill="#C1D39A"/>
<path d="M3.65302 1.82522C3.64675 1.81267 3.6342 1.80012 3.62793 1.78757C3.77849 1.67465 3.92906 1.568 4.07962 1.45508C4.0859 1.49899 4.09217 1.53663 4.10472 1.58055C4.10472 1.97578 4.10472 2.37101 4.10472 2.76624C4.07962 2.79761 4.04825 2.82898 4.02316 2.86034C3.99807 2.8478 3.97925 2.82898 3.95415 2.81643C3.97297 2.57804 3.92906 2.38983 3.6342 2.38983C3.64048 2.30828 3.64675 2.22672 3.64675 2.13889C3.97925 2.1138 3.99179 2.0887 3.89769 1.73111C3.82241 1.76248 3.74085 1.79385 3.65302 1.82522Z" fill="#F1CE20"/>
<path d="M4.39956 1.14844C4.39956 1.22372 4.39328 1.30528 4.39328 1.38056C4.33682 1.3931 4.28036 1.40565 4.21762 1.41192C4.21135 1.38056 4.20508 1.34919 4.20508 1.31782C4.27409 1.26136 4.33682 1.2049 4.39956 1.14844Z" fill="#DDC640"/>
<path d="M4.20596 1.31641C4.21224 1.34777 4.21851 1.37914 4.21851 1.41678C4.18087 1.47324 4.14323 1.52343 4.09931 1.57362C4.09304 1.52971 4.08677 1.49206 4.07422 1.44815C4.12441 1.41051 4.16832 1.36659 4.20596 1.31641Z" fill="#9B6D1A"/>
<path d="M2.21094 3.1492C2.24231 3.11784 2.2674 3.0802 2.29877 3.04883C2.31131 3.06138 2.32386 3.07392 2.33641 3.08647C2.29877 3.11156 2.2674 3.14293 2.22976 3.16802L2.21094 3.1492Z" fill="#DDC640"/>
<path d="M4.75778 0.955078C4.75151 0.973899 4.73896 0.980172 4.71387 0.980172C4.72014 0.961352 4.73896 0.955078 4.75778 0.955078Z" fill="#C1D39A"/>
<path d="M1.13166 4.56836C1.11284 4.59345 1.09402 4.61855 1.0752 4.64364C1.09402 4.61855 1.11284 4.59345 1.13166 4.56836Z" fill="#9CF5E3"/>
<path d="M1.06901 4.66797C1.04391 4.69934 1.02509 4.73698 1 4.76834C1.02509 4.73698 1.04391 4.70561 1.06901 4.66797Z" fill="#9CF5E3"/>
<path d="M19.8263 21.337C19.7824 21.5942 19.6946 21.8075 19.3872 21.8389C19.1676 21.8389 18.9104 21.9016 18.9229 21.5252C18.9229 21.4625 18.7724 21.3496 18.6908 21.3433C18.327 21.3245 17.9631 21.3245 17.6055 21.3433C17.5302 21.3496 17.4361 21.4688 17.3922 21.5566C17.3546 21.6319 17.3859 21.7385 17.3797 21.8326C17.1538 21.8326 16.9217 21.8264 16.6959 21.8326C16.4888 21.8452 16.3634 21.8013 16.3634 21.5503C16.3634 21.475 16.2379 21.3809 16.1501 21.337C16.0748 21.2994 15.9681 21.3308 15.874 21.3308C15.874 20.9983 15.874 20.6658 15.874 20.3333C16.539 20.327 17.204 20.3207 17.869 20.3145C18.0572 20.3207 18.2517 20.327 18.4399 20.3333C18.4399 20.8352 18.4399 20.8352 18.9418 20.8352C19.0861 20.8352 19.2304 20.8352 19.3746 20.8352C19.5315 21.0045 19.682 21.1739 19.8263 21.337Z" fill="#494245"/>
<path d="M17.3866 21.8379C17.3866 21.7438 17.3615 21.6372 17.3991 21.5619C17.443 21.4741 17.5371 21.3486 17.6124 21.3486C17.9763 21.3235 18.3401 21.3298 18.6977 21.3486C18.7856 21.3549 18.9361 21.4678 18.9299 21.5305C18.9173 21.9069 19.1682 21.8442 19.3941 21.8442C19.0491 22.0951 18.7291 22.3774 18.359 22.5845C17.7881 22.9044 17.1858 23.1742 16.5961 23.4565C16.5334 23.4878 16.4518 23.4753 16.3828 23.4816C16.3828 23.2934 16.3828 23.1052 16.3891 22.917C16.7279 22.8856 16.9913 22.7915 16.9035 22.3649C17.0478 22.3649 17.1921 22.3586 17.3301 22.3586C17.7253 22.459 17.9637 22.321 17.8885 22.0324C17.8069 21.725 17.556 21.8818 17.3866 21.8379Z" fill="#605C5F"/>
<path d="M15.3225 23.8526C15.3225 23.7271 15.3162 23.6079 15.3162 23.4825C15.3162 22.9806 15.3162 22.9806 14.8269 22.8426C14.8206 22.3783 14.8457 22.3532 15.3538 22.3281C15.404 22.5602 15.2723 22.9304 15.7428 22.8551C15.7867 22.899 15.8306 22.9429 15.8745 22.9806C15.8745 23.037 15.8745 23.0935 15.8745 23.15C15.8557 23.219 15.8244 23.288 15.8244 23.357C15.7867 23.771 15.7428 23.8212 15.3225 23.8526Z" fill="#794733"/>
<path d="M15.8682 23.1492C15.8682 23.0927 15.8682 23.0363 15.8682 22.9798C15.8682 22.9359 15.8744 22.8857 15.8744 22.8418C16.0438 22.8606 16.2069 22.8857 16.3763 22.9045C16.3763 23.0927 16.3763 23.2809 16.37 23.4691C16.2571 23.5256 16.1505 23.5883 16.0375 23.6448C15.9999 23.5444 15.9685 23.4441 15.9309 23.35C15.9184 23.2809 15.8933 23.2182 15.8682 23.1492Z" fill="#3D2B2D"/>
<path d="M20.4041 20.3332C20.4041 20.4398 20.4041 20.5465 20.3978 20.6468C20.3978 20.7723 20.4041 20.8978 20.4041 21.0232C20.379 21.0483 20.3602 21.0672 20.3351 21.0922C20.2472 21.0295 20.1594 20.9668 20.0779 20.904C20.0339 20.8601 19.9963 20.8099 19.9524 20.766C19.9336 20.7284 19.9147 20.6845 19.8959 20.6468C19.8959 20.5778 19.8959 20.5151 19.8896 20.4461C19.8896 20.4022 19.8896 20.3645 19.8896 20.3206C19.921 20.2767 19.9587 20.239 19.99 20.1951C20.1029 20.1763 20.2159 20.1575 20.3288 20.1387C20.3539 20.2077 20.379 20.2704 20.4041 20.3332Z" fill="#F6D51D"/>
<path d="M19.8268 21.3372C19.6825 21.1678 19.532 20.9985 19.3877 20.8353L19.4065 20.8291C19.4442 20.8165 19.4818 20.7977 19.5194 20.7852C19.6386 20.804 19.7641 20.8228 19.8833 20.8416C19.9084 20.8667 19.9335 20.8855 19.9586 20.9106C19.9649 21.0549 19.9649 21.1929 19.9711 21.3372C19.9209 21.3372 19.8708 21.3372 19.8268 21.3372Z" fill="#58382C"/>
<path d="M19.9647 21.3289C19.9584 21.1847 19.9584 21.0466 19.9521 20.9023C19.9898 20.9023 20.0337 20.9023 20.0713 20.9023C20.1592 20.9651 20.247 21.0278 20.3286 21.0905C20.2156 21.1721 20.0902 21.2474 19.9647 21.3289Z" fill="#DDC640"/>
<path d="M20.4037 21.0229C20.4037 20.8974 20.3975 20.772 20.3975 20.6465C20.4476 20.728 20.4978 20.8096 20.548 20.8974C20.4978 20.9413 20.4539 20.9853 20.4037 21.0229Z" fill="#DDC640"/>
<path d="M15.2539 23.908C15.2727 23.8892 15.2978 23.8704 15.3166 23.8516C15.2978 23.8704 15.2727 23.8892 15.2539 23.908Z" fill="#794733"/>
<path d="M15.3098 1.93983C15.8368 1.93983 16.3575 1.9461 16.8845 1.9461C16.9158 2.14685 16.759 2.44798 17.1542 2.44798C17.6624 2.44798 18.1768 2.44798 18.685 2.44798C18.8669 2.44798 18.9422 2.36643 18.9484 2.1845C18.9547 1.97747 18.8481 1.93356 18.6787 1.9461C18.5407 1.95238 18.4089 1.9461 18.2709 1.9461C18.0388 1.95238 17.9321 1.852 17.9384 1.60733C17.951 1.23092 17.9384 0.854512 17.9321 0.484375C18.4403 0.804324 18.9422 1.13055 19.4503 1.4505C19.4566 1.61361 19.4566 1.77672 19.4629 1.93983C19.4378 2.39152 19.4378 2.39152 19.8957 2.39152C19.9146 2.39152 19.9334 2.39152 19.9585 2.39152C20.1655 2.40407 20.3788 2.42289 20.5858 2.43544C20.887 2.77421 21.1944 3.11297 21.4955 3.45802C21.4829 3.6274 21.4704 3.79679 21.4641 3.9599C21.2132 3.9599 20.9622 3.9599 20.7113 3.9599C19.9898 3.9599 19.9898 3.9599 19.9585 3.23217C19.9585 3.21962 19.9585 3.21335 19.9585 3.2008C19.971 3.03142 19.8957 2.95614 19.7201 2.95614C19.5382 2.95614 19.444 3.00633 19.4503 3.20708C19.4566 3.5333 19.4503 3.85325 19.4503 4.17947C19.4503 4.34886 19.4064 4.46805 19.2057 4.46805C18.7728 4.46805 18.3336 4.46805 17.8819 4.46805C17.8819 3.9599 17.8819 3.47056 17.8819 2.96241C17.6436 2.96241 17.424 2.97496 17.2044 2.96241C17.0225 2.94986 16.9221 3.02515 16.9158 3.2008C16.897 3.50193 16.8656 3.80306 16.8845 4.10419C16.9033 4.39904 16.7966 4.47433 16.508 4.47433C14.902 4.46178 13.2897 4.46805 11.6837 4.46805C11.2069 4.46805 11.1818 4.50569 11.2948 4.97621C11.2759 4.99503 11.2571 5.01385 11.2383 5.03267C11.0125 5.01385 10.7866 4.96993 10.5608 4.97621C10.1655 4.98875 10.1279 5.27106 10.3537 5.48436C10.3098 5.49691 10.2659 5.51573 10.2157 5.52828C9.85813 5.42163 9.65738 5.52828 9.72638 5.81058C9.79539 6.09289 10.0338 5.91723 10.1906 5.96115C10.0275 6.0427 9.8644 6.13053 9.70756 6.21209C9.66992 6.13681 9.62601 6.05525 9.557 5.91723C9.41271 6.02388 9.21823 6.09289 9.18686 6.20581C9.1304 6.43166 9.16804 6.67633 9.16177 6.91472C9.18059 7.12175 9.19314 7.32877 9.21196 7.5358C9.0363 7.48561 8.7289 7.69891 8.71635 7.30995C8.69126 6.44421 8.67871 5.57846 8.65361 4.71272C8.64734 4.51197 8.74144 4.46178 8.92338 4.46805C9.18059 4.47433 9.4378 4.46805 9.72011 4.46805C9.72011 4.21084 9.72638 3.97245 9.72011 3.73405C9.71384 3.55839 9.76403 3.46429 9.96478 3.46429C10.2032 3.46429 10.5231 3.52075 10.6486 3.39528C10.7741 3.26981 10.7176 2.94986 10.7176 2.71147C10.7239 2.54209 10.7678 2.46053 10.9497 2.46053C11.3136 2.4668 11.6837 2.44798 12.0476 2.47308C12.1291 2.47935 12.2672 2.59855 12.2734 2.67383C12.286 2.9185 12.4052 2.98123 12.6185 2.96868C12.7439 2.96241 12.8694 2.96241 12.9949 2.96868C13.2082 2.98123 13.296 2.88086 13.2897 2.66756C13.2835 2.24723 13.2897 1.83318 13.296 1.41285C13.7791 1.41285 14.2559 1.41913 14.7389 1.41913C14.7577 1.43167 14.7766 1.44422 14.7891 1.45677C14.8079 1.60106 14.833 1.75162 14.8518 1.89591C14.8518 2.00884 14.8393 2.12803 14.8644 2.24096C14.8769 2.29742 14.9397 2.37897 14.9899 2.38525C15.0714 2.3978 15.2283 2.38525 15.2408 2.34133C15.3098 2.21586 15.2973 2.07157 15.3098 1.93983Z" fill="#AD6243"/>
<path d="M17.9387 0.48385C17.9387 0.860261 17.9576 1.23667 17.945 1.60681C17.9387 1.85148 18.0454 1.95185 18.2775 1.94558C18.4155 1.94558 18.5473 1.95185 18.6853 1.94558C18.8609 1.9393 18.9613 1.98322 18.9551 2.18397C18.9488 2.3659 18.8735 2.44746 18.6916 2.44746C18.1834 2.44118 17.669 2.44746 17.1608 2.44746C16.7656 2.44746 16.9224 2.14633 16.8911 1.94558C16.9726 1.94558 17.0605 1.9393 17.142 1.94558C17.3365 1.9644 17.3992 1.8703 17.3929 1.68836C17.3867 1.36841 17.4055 1.04219 17.3867 0.722244C17.3741 0.48385 17.4682 0.370927 17.7066 0.377201C17.7819 0.408568 17.8635 0.446209 17.9387 0.48385Z" fill="#A44633"/>
<path d="M21.4636 3.95891C21.4761 3.78953 21.4887 3.62014 21.4949 3.45703C21.6957 3.65778 21.8902 3.85854 22.0909 4.06556C22.0658 4.15339 22.047 4.24122 22.0219 4.32905C21.9655 4.96895 21.9655 4.98777 21.2942 4.96895C21.0182 4.96267 20.9554 5.06305 20.968 5.31399C20.9805 5.55238 20.9554 5.79078 20.9491 6.02917C20.7798 6.01662 20.6167 6.00408 20.4473 5.99153V5.98526C20.4535 5.5712 20.4661 5.15715 20.4598 4.73683C20.4598 4.53607 20.5225 4.44197 20.7296 4.46079C20.8111 4.46707 20.8927 4.46079 20.9805 4.46079C21.4698 4.46079 21.4698 4.46079 21.4636 3.95891Z" fill="#6C2911"/>
<path d="M20.5863 2.43447C20.3793 2.42192 20.166 2.4031 19.959 2.39055C19.9904 2.22117 20.0217 2.05806 20.0531 1.88867C20.2287 2.0706 20.4044 2.25254 20.5863 2.43447Z" fill="#6C2911"/>
<path d="M20.0526 1.88778C20.0212 2.05717 19.9898 2.22028 19.9585 2.38966C19.9397 2.38966 19.9208 2.38966 19.8957 2.38966C19.4441 2.38966 19.4441 2.38966 19.4629 1.93797C19.626 1.89406 19.7891 1.85014 19.9522 1.8125C19.9898 1.83759 20.0212 1.86269 20.0526 1.88778Z" fill="#A44633"/>
<path d="M19.9579 1.81308C19.7948 1.857 19.6317 1.90091 19.4686 1.93855C19.4623 1.77544 19.4623 1.61233 19.4561 1.44922C19.6192 1.56842 19.7886 1.68761 19.9579 1.81308Z" fill="#6C2911"/>
<path d="M22.0225 4.32989C22.0476 4.24206 22.0664 4.15424 22.0915 4.06641C22.1417 4.14796 22.1918 4.22952 22.242 4.31735C22.2295 4.32989 22.2232 4.33617 22.2107 4.34871C22.1479 4.33617 22.0852 4.32989 22.0225 4.32989Z" fill="#DDC640"/>
<path d="M23.0707 5.66382C23.0393 5.61363 23.0079 5.56345 22.9766 5.51953C23.0079 5.56345 23.0393 5.61363 23.0707 5.66382Z" fill="#9CF5E3"/>
<path d="M22.2423 4.31055C22.2611 4.33564 22.2737 4.36074 22.2925 4.38583L22.2674 4.40465C22.2486 4.38583 22.2298 4.36073 22.2109 4.34191C22.2235 4.32937 22.2298 4.31682 22.2423 4.31055Z" fill="#DDC640"/>
<path d="M10.7364 22.9052C10.4353 22.9303 10.1844 22.8926 10.2157 22.4848C10.222 22.4409 10.0714 22.3468 9.99616 22.3468C9.7264 22.3468 9.45663 22.3782 9.18687 22.3907C8.86692 22.3719 8.54698 22.3531 8.22703 22.3343C8.21448 22.328 8.20193 22.328 8.18939 22.328C8.18311 22.1649 8.17056 21.9955 8.16429 21.8324C8.16429 21.4685 8.18311 21.0984 8.16429 20.7345C8.14547 20.4271 8.24585 20.3079 8.5658 20.3142C9.19315 20.333 9.8205 20.3142 10.4416 20.3205C10.6549 20.3267 10.7553 20.2577 10.7364 20.0382C10.7302 19.9629 10.7364 19.8939 10.7302 19.8186C10.7302 19.7998 10.7302 19.7747 10.7302 19.7559C10.887 19.7747 11.0376 19.806 11.1944 19.806C12.2107 19.8123 13.227 19.806 14.2496 19.806C14.2684 19.8751 14.3123 19.9441 14.3061 20.0131C14.2747 20.2954 14.4315 20.3393 14.6636 20.3267C14.902 20.3142 15.1404 20.3205 15.3726 20.3205C15.3663 20.4899 15.3537 20.6592 15.3475 20.8286C13.9108 20.8286 12.4679 20.8286 11.0313 20.8161C10.7866 20.8161 10.7302 20.9102 10.7364 21.1298C10.749 21.6944 10.7427 22.259 10.7427 22.8173C10.7364 22.8612 10.7364 22.8801 10.7364 22.9052Z" fill="#92614B"/>
<path d="M10.7362 22.8355C10.7362 22.2709 10.7425 21.7063 10.7299 21.1479C10.7237 20.9284 10.7801 20.828 11.0248 20.8343C12.4614 20.8468 13.9043 20.8405 15.341 20.8468C15.3473 21.1981 15.3535 21.5557 15.3661 21.907C15.3598 22.0513 15.3535 22.1893 15.3473 22.3336C14.8391 22.365 14.814 22.3838 14.8203 22.8481C13.4589 22.8418 12.0976 22.8355 10.7362 22.8355Z" fill="#B57E62"/>
<path d="M4.10547 1.57492C4.14311 1.52474 4.18075 1.46827 4.22467 1.41809C4.28113 1.40554 4.33759 1.39299 4.40032 1.38672C4.55089 1.38672 4.69518 1.38672 4.84574 1.38672C4.88338 1.38672 4.9273 1.38672 4.96494 1.38672C6.23219 1.39299 7.50571 1.39927 8.77296 1.39927C9.88964 1.39927 11.0001 1.39299 12.1167 1.38672C12.1607 1.39299 12.2046 1.39299 12.2422 1.39927C12.2673 1.43691 12.2861 1.47455 12.3112 1.51219C12.3551 1.80077 12.2171 1.92624 11.9411 1.93879C11.847 1.93879 11.7529 1.95133 11.665 1.95133C10.9185 1.95133 10.172 1.95133 9.4254 1.95133C9.19956 1.95133 8.97998 1.95761 8.75414 1.95761C7.60609 1.95761 6.45176 1.95761 5.30371 1.95761C4.67008 1.95761 4.66381 1.95761 4.61362 2.56614C4.60735 2.62887 4.65126 2.69788 4.62617 2.74807C4.58853 2.82963 4.53207 2.91745 4.45679 2.94882C4.36268 2.98646 4.24976 2.96137 4.14938 2.96764C4.13684 2.90491 4.12429 2.8359 4.11174 2.77316C4.10547 2.37166 4.10547 1.97643 4.10547 1.57492Z" fill="#6C2911"/>
<path d="M14.7574 1.40618C14.2743 1.40618 13.7975 1.3999 13.3145 1.3999C13.0008 1.40618 12.6809 1.40618 12.3672 1.41245C12.4111 1.24307 12.455 1.07368 12.4989 0.904297C13.2267 0.904297 13.9607 0.904297 14.6884 0.904297C14.7135 0.91057 14.7386 0.916844 14.7637 0.923117L14.7888 0.935664C14.7762 1.0925 14.7637 1.24934 14.7574 1.40618Z" fill="#6C2911"/>
<path d="M14.7578 1.40647C14.7641 1.24964 14.7766 1.08653 14.7829 0.929688C14.8519 1.08653 14.9272 1.24336 14.9962 1.4002C14.9335 1.41275 14.8707 1.43157 14.808 1.44412C14.7892 1.43784 14.7704 1.42529 14.7578 1.40647Z" fill="#9B6D1A"/>
<path d="M12.4935 0.904297C12.4496 1.07368 12.4057 1.24307 12.3618 1.41245C12.343 1.44382 12.3242 1.47519 12.3053 1.51283C12.2802 1.47519 12.2614 1.43755 12.2363 1.3999C12.2363 1.34972 12.2363 1.3058 12.2363 1.25561C12.2363 1.21797 12.2363 1.17406 12.2363 1.13642C12.2363 1.09878 12.2363 1.05486 12.2363 1.01722C12.3242 0.979579 12.412 0.941938 12.4935 0.904297Z" fill="#9B6D1A"/>
<path d="M12.2358 1.25391C12.2358 1.30409 12.2358 1.34801 12.2358 1.3982C12.1919 1.39192 12.148 1.39192 12.1104 1.38565C12.1543 1.34174 12.1982 1.29782 12.2358 1.25391Z" fill="#DDC640"/>
<path d="M12.242 1.01758C12.242 1.05522 12.242 1.09913 12.242 1.13677C12.2357 1.09913 12.2357 1.05522 12.242 1.01758Z" fill="#DDC640"/>
<path d="M14.7579 0.917258C14.7328 0.910985 14.7077 0.904711 14.6826 0.898438C14.7077 0.910985 14.7328 0.917258 14.7579 0.917258Z" fill="#9B6D1A"/>
<path d="M8.16482 21.8386C8.1711 22.0017 8.18364 22.1711 8.18992 22.3342C7.84487 22.3593 7.5061 22.3781 7.16106 22.4032C6.99168 22.3844 6.82229 22.3656 6.65918 22.3467C6.65918 22.1773 6.65918 22.008 6.65918 21.8449C6.75956 21.8449 6.87248 21.8637 6.96658 21.8386C7.03559 21.8198 7.15479 21.7319 7.14851 21.688C7.11087 21.3116 7.34927 21.3304 7.60021 21.343C7.61903 21.412 7.66922 21.4747 7.65667 21.5374C7.63157 21.7821 7.73822 21.8762 7.97662 21.8449C8.03935 21.8386 8.10209 21.8386 8.16482 21.8386Z" fill="#3D2B2D"/>
<path d="M8.22721 22.3398C8.54716 22.3587 8.86711 22.3775 9.18706 22.3963C9.18078 22.71 9.18079 23.0237 9.17451 23.3373L9.16196 23.3436C8.99258 23.3436 8.82947 23.3436 8.66008 23.3436C8.63499 23.306 8.6099 23.262 8.59107 23.2244C8.704 23.0174 8.6789 22.8919 8.40914 22.9045C8.32759 22.9107 8.24603 22.9045 8.16448 22.9045C8.1582 22.8856 8.1582 22.8668 8.1582 22.848C8.1833 22.6786 8.20212 22.5092 8.22721 22.3398Z" fill="#3D2B2D"/>
<path d="M8.22665 22.3407C8.20156 22.5101 8.18274 22.6794 8.15764 22.8488C8.01335 22.8676 7.86906 22.8802 7.72477 22.899C7.24171 22.9555 7.16016 22.8802 7.16016 22.3971C7.5052 22.372 7.84397 22.3532 8.18901 22.3281C8.20156 22.3344 8.21411 22.3344 8.22665 22.3407Z" fill="#494245"/>
<path d="M8.66602 23.3438C8.8354 23.3438 8.99851 23.3438 9.1679 23.3438C9.1679 23.4692 9.1679 23.5947 9.1679 23.7202C9.1679 23.7641 9.1679 23.808 9.17417 23.8519C9.17417 23.8707 9.17417 23.8895 9.17417 23.9084C8.67229 23.9084 8.67229 23.9084 8.66602 23.3438Z" fill="#494245"/>
<path d="M6.65855 21.8392C6.65855 22.0086 6.65855 22.178 6.65855 22.3411C6.57699 22.3411 6.49543 22.3348 6.4076 22.3411C6.22567 22.3537 6.15039 22.2784 6.15039 22.0902C6.15039 21.902 6.2194 21.8267 6.4076 21.8392C6.48916 21.8455 6.57072 21.8392 6.65855 21.8392Z" fill="#494245"/>
<path d="M8.1644 22.9052C8.24596 22.9052 8.32751 22.9114 8.40907 22.9052C8.67883 22.8926 8.70392 23.0181 8.591 23.2251C8.57845 23.2251 8.57218 23.2251 8.55963 23.2251C8.15813 23.3694 8.15813 23.3694 8.1644 22.9052Z" fill="#494245"/>
<path d="M15.3102 1.93886C15.2977 2.0706 15.3102 2.21489 15.2601 2.33409C15.2412 2.37801 15.0907 2.39055 15.0091 2.37801C14.9589 2.37173 14.8962 2.29018 14.8836 2.23371C14.8648 2.12079 14.8774 2.00787 14.8711 1.88867C15.0217 1.90749 15.1659 1.92631 15.3102 1.93886Z" fill="#8E3D24"/>
<path d="M9.17424 23.8446C9.17424 23.8007 9.17424 23.7568 9.16797 23.7129C9.19934 23.7317 9.22443 23.7568 9.2558 23.7756C9.22443 23.8007 9.19934 23.8258 9.17424 23.8446Z" fill="#483533"/>
<path d="M2.45513 14.873C2.48023 14.873 2.5116 14.873 2.53669 14.8793C2.54924 15.8454 2.56178 16.8116 2.56806 17.7777C2.56806 18.0349 2.54296 18.2984 2.53042 18.5556C2.53042 18.6936 2.53042 18.8316 2.52414 18.9696C2.52414 19.0198 2.52414 19.07 2.52414 19.1202C2.51787 19.1704 2.5116 19.2206 2.50532 19.2645C2.44886 19.1516 2.33594 19.0324 2.33594 18.9195C2.33594 18.1541 2.36103 17.3887 2.37985 16.6296C2.37985 16.1528 2.37985 15.6761 2.38613 15.2055C2.39867 15.0926 2.43631 14.986 2.45513 14.873Z" fill="#D4C9C2"/>
<path d="M2.20434 15.2507C2.18552 15.188 2.16042 15.1252 2.1416 15.0625C2.16042 15.1252 2.17924 15.188 2.20434 15.2507Z" fill="#9FBEF6"/>
<path d="M2.51172 19.2654C2.51799 19.2152 2.52427 19.165 2.53054 19.1211C2.59327 19.1838 2.65601 19.2528 2.72502 19.3156C2.69365 19.3218 2.66228 19.3344 2.63719 19.3407C2.59327 19.3156 2.54936 19.2905 2.51172 19.2654Z" fill="#C1D39A"/>
<path d="M7.97636 21.8392C7.73797 21.8705 7.63132 21.7827 7.65641 21.5318C7.66269 21.469 7.61877 21.4 7.59995 21.3373C7.61877 21.2746 7.63759 21.2181 7.65014 21.1554C7.78188 20.459 7.68151 20.3273 6.97887 20.3335C6.53973 20.3398 6.09431 20.3712 5.65516 20.3963C5.40422 20.3712 5.15328 20.3524 4.90234 20.3273C4.9839 20.2583 5.05918 20.1391 5.15328 20.1202C5.40422 20.0763 5.66771 20.0512 5.92493 20.0638C6.55228 20.0889 7.17963 20.1328 7.80698 20.183C7.96382 20.1955 8.00773 20.2896 7.99518 20.4653C7.96382 20.9232 7.97636 21.3812 7.97636 21.8392Z" fill="#483533"/>
<path d="M4.90189 20.3262C5.15283 20.3513 5.40377 20.3701 5.65471 20.3952C5.64217 20.8155 5.62962 20.8343 5.21557 20.8343C5.02736 20.8343 4.84543 20.8343 4.65723 20.8343C4.65723 20.6649 4.65723 20.5018 4.65723 20.3324C4.73878 20.3324 4.82034 20.3324 4.90189 20.3262Z" fill="#3D2B2D"/>
<path d="M4.65807 20.338C4.65807 20.5074 4.65807 20.6705 4.65807 20.8399C4.6518 20.8587 4.6518 20.8775 4.6518 20.8963C4.60788 20.8712 4.56397 20.8461 4.52005 20.821C4.50751 20.7834 4.47614 20.7332 4.48868 20.7081C4.63298 20.3631 4.4385 20.3192 4.16874 20.3317L4.14364 20.3192C4.13737 20.3003 4.12482 20.2878 4.106 20.2815C4.106 20.2815 4.09345 20.2564 4.09345 20.2627C4.08718 19.9427 4.07463 19.6165 4.06836 19.2966C4.09973 19.2903 4.12482 19.2778 4.15619 19.2715C4.19383 19.3029 4.26284 19.3342 4.25656 19.3656C4.25029 19.742 4.27539 20.0933 4.6518 20.3066C4.6518 20.3129 4.6518 20.3254 4.65807 20.338Z" fill="#794733"/>
<path d="M3.57219 20.1508C3.56592 20.1069 3.55965 20.0692 3.55337 20.0253C3.52201 19.9814 3.49064 19.9375 3.45927 19.8936L3.453 19.8873C3.27107 19.743 3.07659 19.5987 3.07031 19.3352L3.08913 19.3164C3.26479 19.4607 3.46554 19.5862 3.60356 19.7556C3.67257 19.8371 3.63493 20.0065 3.64748 20.1382C3.62238 20.1445 3.59729 20.1445 3.57219 20.1508Z" fill="#DDC640"/>
<path d="M3.06986 19.3415C3.08241 19.605 3.27061 19.743 3.45255 19.8936C3.20161 19.9187 3.02595 19.8622 3.00085 19.5611C2.99458 19.4732 2.88793 19.398 2.8252 19.3164C2.90675 19.3227 2.98831 19.329 3.06986 19.3415Z" fill="#C1D39A"/>
<path d="M3.57182 20.1508C3.59691 20.1508 3.62201 20.1445 3.65338 20.1445C3.65338 20.3139 3.65338 20.4833 3.65338 20.6527C3.61574 20.6527 3.57182 20.659 3.53418 20.659C3.54045 20.4833 3.553 20.3202 3.57182 20.1508Z" fill="#C1D39A"/>
<path d="M3.45996 19.8945C3.49133 19.9384 3.5227 19.9824 3.55406 20.0263C3.5227 19.9824 3.49133 19.9384 3.45996 19.8945Z" fill="#C1D39A"/>
<path d="M4.16196 20.3318C4.43172 20.3192 4.6262 20.3694 4.48191 20.7082C4.46936 20.7333 4.50073 20.7835 4.51328 20.8211C4.45054 20.8274 4.39408 20.8337 4.33135 20.8399C4.26861 20.8274 4.21215 20.8211 4.14941 20.8086C4.16196 20.6517 4.16196 20.4886 4.16196 20.3318Z" fill="#DDC640"/>
<path d="M4.15563 20.8105C4.21836 20.8231 4.27482 20.8294 4.33756 20.8419C4.256 20.9862 4.18072 21.1305 4.09916 21.2685C4.08662 21.187 4.07407 21.1054 4.06152 21.0238C4.09916 20.9548 4.12426 20.8858 4.15563 20.8105Z" fill="#794733"/>
<path d="M4.15528 20.8086C4.12391 20.8839 4.09254 20.9529 4.06118 21.0282C3.87925 21.1348 3.69104 21.2352 3.50911 21.3419C3.47774 21.3356 3.44637 21.323 3.41501 21.3168C3.40873 21.2979 3.40246 21.2791 3.39619 21.2603C3.44637 21.1599 3.50911 21.0595 3.55302 20.9529C3.59066 20.8525 3.61576 20.7521 3.64713 20.6518C3.64713 20.4824 3.64713 20.313 3.64713 20.1436C3.63458 20.0119 3.67222 19.8425 3.60321 19.7609C3.45892 19.5915 3.26444 19.4661 3.08878 19.3218C2.59318 19.0144 2.73119 18.4874 2.71865 18.0608C2.68101 16.3168 2.69983 14.5727 2.69983 12.8287C2.69983 12.7158 2.74374 12.5966 2.73119 12.4899C2.71237 12.3017 2.69355 12.101 2.45516 12.0508C2.20422 11.9943 2.17285 11.7936 2.17285 11.5928C2.17913 8.87011 2.1854 6.14114 2.19167 3.41843C2.19167 3.33688 2.20422 3.25532 2.21677 3.16749C2.25441 3.1424 2.28577 3.11103 2.32342 3.08594C2.36733 3.21141 2.44261 3.33688 2.44261 3.46235C2.44889 6.03449 2.44889 8.6129 2.45516 11.185C2.45516 11.3042 2.51162 11.4297 2.54299 11.5489C2.55554 11.574 2.56808 11.5991 2.58063 11.6242C2.59945 11.6681 2.612 11.7497 2.64336 11.7559C2.96331 11.8438 2.95704 12.0947 2.95704 12.3519C2.95704 12.4586 3.01978 12.5715 3.05114 12.6781C3.05114 12.766 3.05114 12.8475 3.05114 12.9353C3.01978 13.0357 2.95077 13.1361 2.95077 13.2302C2.94449 14.9303 2.94449 16.6304 2.95077 18.3306C2.95077 18.4309 3.0135 18.5313 3.04487 18.6317C3.05742 18.6756 3.06996 18.7258 3.08251 18.7697C3.24562 18.914 3.40246 19.052 3.56557 19.1963C3.57812 19.1963 3.59694 19.2026 3.60949 19.2026C3.64713 19.2402 3.68477 19.2841 3.72241 19.3218C3.71613 19.3281 3.70986 19.3406 3.70986 19.3469C3.70986 19.3531 3.71613 19.372 3.72241 19.372C4.01726 19.3845 3.93571 19.5853 3.94825 19.7672C3.9608 19.9303 4.03608 20.0934 4.08 20.2503C4.08 20.2503 4.09254 20.2754 4.09254 20.2691C4.09882 20.2942 4.11137 20.3067 4.13019 20.3067L4.15528 20.3193C4.16155 20.4887 4.16155 20.6518 4.15528 20.8086Z" fill="#F6D51D"/>
<path d="M2.52441 18.9707C2.52441 18.8327 2.52441 18.6947 2.53069 18.5566C2.68125 18.6947 2.68753 18.8327 2.52441 18.9707Z" fill="#C1D39A"/>
<path d="M2.58745 11.6188C2.5749 11.5937 2.56235 11.5686 2.5498 11.5435C2.55608 11.4055 2.56863 11.2737 2.56863 11.1357C2.56863 8.54476 2.56863 5.94753 2.56863 3.35657C2.56863 2.94252 2.56863 2.93624 2.9764 2.94252C3.17088 2.94879 3.36536 2.97388 3.56611 2.99271C3.59121 2.97388 3.6163 2.96134 3.6414 2.94252C3.74804 2.94252 3.85469 2.94252 3.96134 2.94252C4.00526 2.96134 4.04917 2.98016 4.09309 2.99898C4.09936 3.45067 4.09936 3.4444 3.66022 3.45067C3.00777 3.45694 3.08305 3.36284 3.08305 4.03411C3.07678 6.5686 3.07678 9.09683 3.07051 11.6313C2.91367 11.6313 2.75056 11.6251 2.58745 11.6188Z" fill="#6C2911"/>
<path d="M4.09952 3.00402C4.0556 2.9852 4.01169 2.96638 3.96777 2.94756C3.98659 2.91619 4.00541 2.8911 4.03051 2.85973C4.0556 2.82836 4.08697 2.79699 4.11206 2.76562C4.12461 2.82836 4.13716 2.89737 4.1497 2.9601C4.12461 2.97265 4.11206 2.99147 4.09952 3.00402Z" fill="#9B6D1A"/>
<path d="M3.64071 2.94922C3.61562 2.96804 3.59052 2.98059 3.56543 2.99941C3.59052 2.98059 3.61562 2.96177 3.64071 2.94922Z" fill="#9B6D1A"/>
<path d="M3.65332 1.82499C3.73488 1.79362 3.81643 1.76225 3.90426 1.72461C3.99836 2.08847 3.98582 2.11357 3.65332 2.13239C3.65332 2.03201 3.65332 1.93164 3.65332 1.82499Z" fill="#F6D51D"/>
<path d="M15.373 20.3329C15.1346 20.3329 14.8962 20.3266 14.6641 20.3392C14.4319 20.3517 14.2814 20.3078 14.3065 20.0255C14.3127 19.9565 14.2688 19.8875 14.25 19.8185C14.9024 19.8185 15.5549 19.831 16.2011 19.8248C16.6277 19.8185 17.0543 19.7934 17.4809 19.7871C17.6377 19.7871 17.7883 19.8122 17.9451 19.8248C17.92 19.9879 17.9012 20.151 17.8761 20.3141C17.2111 20.3204 16.5461 20.3266 15.8811 20.3329C15.7117 20.3329 15.5423 20.3329 15.373 20.3329Z" fill="#B57E62"/>
<path d="M15.3535 22.3269C15.3598 22.1826 15.3661 22.0446 15.3723 21.9003C15.6986 21.8501 15.9683 21.756 15.8805 21.3357C15.9746 21.3357 16.0812 21.3106 16.1565 21.3419C16.2444 21.3859 16.3698 21.48 16.3698 21.5552C16.3698 21.8062 16.489 21.8501 16.7023 21.8376C16.9282 21.825 17.1603 21.8376 17.3861 21.8376C17.3673 22.0069 17.3422 22.1763 17.3234 22.3394C17.1791 22.3394 17.0348 22.3457 16.8968 22.3457C16.6333 22.3457 16.3698 22.3206 16.1126 22.3457C16.0311 22.352 15.9307 22.4649 15.893 22.5527C15.8554 22.628 15.8868 22.7347 15.8868 22.8288C15.8428 22.835 15.7927 22.835 15.7487 22.8413C15.2657 22.9291 15.4037 22.559 15.3535 22.3269Z" fill="#3D2B2D"/>
<path d="M17.876 20.3136C17.9011 20.1504 17.9199 19.9873 17.945 19.8242C18.3841 19.8242 18.8233 19.8242 19.2687 19.8242C19.3753 20.094 19.5761 19.8117 19.7141 19.8932C19.5949 20.0563 19.4694 20.2194 19.3503 20.3826C19.0491 20.3637 18.7543 20.3449 18.4531 20.3261C18.2587 20.3261 18.0705 20.3198 17.876 20.3136Z" fill="#92614B"/>
<path d="M15.8809 21.3358C15.9687 21.7561 15.699 21.8502 15.3727 21.9004C15.3665 21.5491 15.3602 21.1915 15.3477 20.8402C15.3539 20.6708 15.3665 20.5014 15.3727 20.332C15.5421 20.332 15.7115 20.3383 15.8809 20.3383C15.8809 20.6708 15.8809 21.0033 15.8809 21.3358Z" fill="#58382C"/>
<path d="M18.4463 20.332C18.7474 20.3509 19.0423 20.3697 19.3434 20.3885C19.3622 20.5391 19.381 20.6833 19.4061 20.8339L19.3873 20.8402C19.243 20.8402 19.0987 20.8402 18.9544 20.8402C18.4526 20.8339 18.4526 20.8339 18.4463 20.332Z" fill="#3D2B2D"/>
<path d="M15.8814 22.8414C15.8814 22.7473 15.85 22.6407 15.8877 22.5654C15.9316 22.4776 16.0257 22.3647 16.1072 22.3584C16.3645 22.3333 16.6279 22.3521 16.8914 22.3584C16.9793 22.785 16.7158 22.8791 16.377 22.9105C16.2139 22.8854 16.0445 22.8603 15.8814 22.8414Z" fill="#494245"/>
<path d="M17.3242 22.3471C17.343 22.1777 17.3681 22.0083 17.387 21.8452C17.5563 21.8891 17.8073 21.7323 17.8826 22.0271C17.9578 22.3094 17.7195 22.4474 17.3242 22.3471Z" fill="#494245"/>
<path d="M22.2106 4.34067C22.2295 4.35949 22.2483 4.38459 22.2671 4.40341C22.2922 4.51633 22.3236 4.62925 22.3361 4.74218C22.3926 5.24406 22.3236 5.32561 21.8154 5.34443C21.4515 5.35698 21.3386 5.47618 21.3386 5.84631C21.3386 10.0684 21.3386 14.2842 21.3386 18.5063C21.3386 18.6129 21.3825 18.7258 21.4076 18.8325C21.4014 18.914 21.3951 18.9956 21.3951 19.0834C21.2508 19.1712 21.1065 19.2528 20.9685 19.3406C20.9497 19.3783 20.9308 19.4222 20.9058 19.4598C20.8995 19.5037 20.8932 19.5414 20.8932 19.5853C20.6234 19.6919 20.2721 19.717 20.3349 20.1499C20.2219 20.1687 20.109 20.1876 19.9961 20.2064C19.9961 20.1938 20.0024 20.1813 20.0149 20.175C20.04 19.9115 20.0714 19.648 20.0965 19.3845C20.2847 19.3532 20.4666 19.3218 20.4792 19.0771C20.6172 19.0081 20.8618 19.0709 20.8367 18.7948C20.8807 18.6568 20.9685 18.5188 20.9685 18.3871C20.9685 14.7233 20.9685 11.0659 20.9685 7.40842C20.9685 7.07592 20.9622 6.73715 20.9559 6.40466C20.9497 6.27919 20.9497 6.15372 20.9434 6.02825C20.9497 5.78985 20.9748 5.55146 20.9622 5.31307C20.9497 5.0684 21.0124 4.96175 21.2884 4.96802C21.9597 4.98684 21.9597 4.96802 22.0162 4.32812C22.0852 4.32813 22.1479 4.3344 22.2106 4.34067Z" fill="#F1CE20"/>
<path d="M20.3284 20.1447C20.2719 19.7118 20.617 19.6867 20.8867 19.5801C20.8679 19.624 20.8616 19.7118 20.8366 19.7181C20.5041 19.7997 20.4476 20.0569 20.3974 20.3329C20.3786 20.2702 20.3535 20.2074 20.3284 20.1447Z" fill="#DDC640"/>
<path d="M20.9688 19.3353C21.113 19.2475 21.2573 19.166 21.3953 19.0781C21.2511 19.166 21.1068 19.2475 20.9688 19.3353Z" fill="#DDC640"/>
<path d="M20.9062 19.4551C20.9251 19.4175 20.9439 19.3736 20.969 19.3359C20.9439 19.3736 20.9251 19.4175 20.9062 19.4551Z" fill="#DDC640"/>
<path d="M15.7432 22.8543C15.7871 22.8481 15.8373 22.8481 15.8812 22.8418C15.8812 22.8857 15.8749 22.9359 15.8749 22.9798C15.8247 22.9359 15.7871 22.892 15.7432 22.8543Z" fill="#483533"/>
<path d="M20.4734 19.0773C20.4609 19.322 20.2726 19.3534 20.0907 19.3847C20.0468 19.4036 19.9652 19.4287 19.9652 19.4475C19.9715 19.6859 19.9903 19.9305 20.0092 20.1689C19.9966 20.1752 19.9903 20.1878 19.9903 20.2003C19.9527 20.2442 19.9213 20.2819 19.8837 20.3258C19.4445 20.3195 19.3818 20.3948 19.5135 20.7837C19.4759 20.7963 19.4383 20.8151 19.4006 20.8277C19.3818 20.6771 19.363 20.5328 19.3379 20.3822C19.4571 20.2191 19.5826 20.056 19.7018 19.8866C19.7206 19.7863 19.7645 19.6859 19.7582 19.5918C19.7457 19.3471 19.7959 19.1714 20.0782 19.1087C20.1597 19.0899 20.2099 18.9017 20.2726 18.795C20.3354 18.7825 20.3918 18.7762 20.4546 18.7637H20.4483C20.4609 18.8703 20.4671 18.9707 20.4734 19.0773Z" fill="#9B6D1A"/>
<path d="M19.5133 20.7841C19.3816 20.3952 19.4443 20.3262 19.8834 20.3262C19.8834 20.3638 19.8834 20.4077 19.8834 20.4516C19.8333 20.4767 19.7831 20.5018 19.7329 20.5332C19.7831 20.5708 19.8333 20.6148 19.8897 20.6524C19.9085 20.69 19.9274 20.7339 19.9462 20.7716C19.9211 20.7967 19.9023 20.8155 19.8772 20.8406C19.758 20.8218 19.6388 20.803 19.5133 20.7841Z" fill="#DDC640"/>
<path d="M19.8902 20.6519C19.84 20.6143 19.7899 20.5704 19.7334 20.5327C19.7836 20.5076 19.8338 20.4825 19.884 20.4512C19.8902 20.5139 19.8902 20.5829 19.8902 20.6519Z" fill="#F1CE20"/>
<path d="M19.8838 20.8405C19.9089 20.8154 19.9277 20.7966 19.9528 20.7715C19.9967 20.8154 20.0344 20.8656 20.0783 20.9095C20.0406 20.9095 19.9967 20.9095 19.9591 20.9095C19.934 20.8844 19.9089 20.8593 19.8838 20.8405Z" fill="#F1CE20"/>
<path d="M20.4608 18.7643C20.398 18.7768 20.3416 18.7831 20.2788 18.7956C20.2412 18.7893 20.1973 18.7768 20.1596 18.7768C19.2437 18.7705 19.4382 18.7078 19.4068 19.4669C19.4005 19.5861 19.319 19.7053 19.2688 19.8245C18.8297 19.8245 18.3905 19.8245 17.9451 19.8245C17.7883 19.8119 17.6377 19.7806 17.4809 19.7868C17.0543 19.7931 16.6277 19.8245 16.2011 19.8245C15.5486 19.8308 14.8962 19.8245 14.25 19.8182C13.2337 19.8182 12.2174 19.8245 11.1948 19.8182C11.038 19.8182 10.8874 19.7868 10.7306 19.768C10.7306 19.5171 10.7494 19.2661 10.718 19.0152C10.7055 18.9211 10.5737 18.7893 10.4796 18.7768C10.2475 18.7454 10.0091 18.7643 9.74562 18.7643C9.73934 18.689 9.7268 18.5949 9.7268 18.507C9.7268 17.9362 9.7268 17.3653 9.7268 16.7944C9.7268 14.0905 9.7268 11.3803 9.7268 8.67645C9.7268 8.50079 9.68288 8.32514 9.66406 8.14948C9.67034 8.11184 9.67034 8.07419 9.67661 8.04283C9.68288 7.51585 9.68916 6.99515 9.69543 6.46818C9.7017 6.38035 9.71425 6.29252 9.72052 6.20469C9.88363 6.12313 10.0467 6.0353 10.2036 5.95375C10.2099 5.80946 10.2224 5.66517 10.2287 5.52088C10.2726 5.50833 10.3165 5.48951 10.3667 5.47696C10.511 5.47696 10.6553 5.47696 10.7996 5.47696C11.2513 5.47696 11.2513 5.47696 11.2513 5.02527C11.2701 5.00645 11.2889 4.98763 11.3077 4.96881C11.4144 4.96881 11.5147 4.96881 11.6214 4.96881C14.0994 4.96881 16.5712 4.96881 19.0492 4.96881C19.2876 4.96881 19.4947 4.95626 19.4696 5.3013C19.4633 5.35149 19.6327 5.4205 19.7268 5.47696C19.8021 5.52715 19.9526 5.57734 19.9463 5.61498C19.9087 6.04158 20.1847 5.99766 20.4545 5.97884V5.98512C20.4608 6.12941 20.467 6.27997 20.467 6.42426C20.4608 10.5397 20.4608 14.6488 20.4608 18.7643ZM17.8322 10.1194C17.393 10.0629 17.3742 10.088 17.4056 10.5899C17.4809 11.0918 17.4809 11.0918 17.9137 11.1168C17.92 11.6125 17.9263 12.1081 17.9325 12.6037C17.9765 12.7919 17.7945 13.0805 18.1647 13.1244C18.1898 13.1244 18.2149 13.1181 18.2462 13.1181C18.2964 13.1244 18.3403 13.1306 18.3905 13.1306C18.5787 13.1244 18.7606 13.1181 18.9489 13.1181C19.3692 13.2561 19.4507 13.1871 19.4758 12.6664C19.9652 12.6664 19.9652 12.6664 19.9652 12.1645C19.9652 11.9763 19.9589 11.7881 19.9589 11.5999C19.9526 11.2486 19.9526 10.891 19.9463 10.5397C19.915 10.3766 20.1095 10.1005 19.7581 10.0943C19.1559 10.0817 18.5599 10.1005 17.9576 10.1068C17.9137 10.1194 17.8698 10.1194 17.8322 10.1194ZM13.8673 10.1131C13.8297 10.1131 13.7858 10.1068 13.7481 10.1068C13.0769 10.1068 12.4119 10.1068 11.7406 10.1131C11.2199 10.0692 11.2199 10.0692 11.245 10.5773C11.245 10.5899 11.245 10.5961 11.2513 10.6087C11.2513 10.9412 11.2513 11.2737 11.2575 11.6062C11.2575 11.7756 11.2575 11.9387 11.2513 12.1081C11.2262 12.6789 11.2262 12.6789 11.7406 12.6789C11.7469 13.1808 11.7469 13.1808 12.255 13.1808C12.4432 13.162 12.6314 13.1432 12.8134 13.1306C12.9765 13.1306 13.1459 13.1306 13.309 13.1306C13.4784 13.1244 13.7042 13.1808 13.792 13.093C13.8736 13.0114 13.8171 12.7793 13.8234 12.6162C13.8171 12.3025 13.8109 11.9889 13.8046 11.6752C13.8109 11.5058 13.8234 11.3427 13.8297 11.1733C14.1371 11.1168 14.4257 11.0353 14.3127 10.615C14.3566 10.0943 14.3441 10.0817 13.8673 10.1131ZM15.4357 16.7505C15.4169 16.7567 15.3918 16.763 15.373 16.763C15.0154 16.7567 14.664 16.7567 14.3065 16.7505C14.1684 16.4431 13.9677 16.2109 13.5976 16.1984C13.4093 16.1921 13.3027 16.2486 13.3027 16.4619C13.3027 16.6375 13.3215 16.763 13.5474 16.763C13.6352 16.763 13.7293 16.8383 13.8171 16.8822C13.8109 17.2712 13.861 17.3025 14.3253 17.2335C14.6766 17.221 15.0279 17.2147 15.3792 17.2022C15.7117 17.2147 16.0442 17.2272 16.3767 17.2398C16.4708 17.2461 16.5775 17.2837 16.6528 17.2523C16.7406 17.2147 16.8723 17.1143 16.8723 17.0516C16.8661 16.9387 16.7719 16.7316 16.7029 16.7316C16.2826 16.7065 15.856 16.7379 15.4357 16.7505ZM11.7908 8.53216L11.7971 8.52589C11.7155 8.54471 11.6339 8.55726 11.5587 8.57608C11.4646 8.60744 11.3767 8.63881 11.2826 8.67018C11.2764 8.90857 11.2513 9.14696 11.2764 9.37908C11.2826 9.45437 11.4206 9.57356 11.5022 9.57984C11.7594 9.59238 12.0166 9.56102 12.2738 9.54847C12.3868 9.56729 12.4934 9.59866 12.6063 9.59866C13.1898 9.60493 13.7732 9.59866 14.3566 9.59866C14.7895 9.59866 14.9087 9.46691 14.8711 9.04031C14.846 8.78937 14.8397 8.54471 14.8146 8.29377C14.8083 8.21221 14.7644 8.06792 14.7268 8.06165C14.5072 8.03655 14.2876 8.04283 14.0681 8.03655C13.8171 8.04283 13.5599 8.0491 13.309 8.05537C12.9953 8.05537 12.6816 8.06165 12.3679 8.06165C11.7782 7.98637 11.772 7.99264 11.7908 8.53216ZM19.9526 9.53592C19.9526 9.37281 19.9526 9.2097 19.9526 9.04031C19.9526 8.55098 19.9526 8.55098 19.457 8.56353L19.4633 8.54471L19.4507 8.53216C19.4382 7.99891 19.4382 7.99891 18.8924 8.05537C18.5787 8.05537 18.265 8.0491 17.9514 8.0491C17.7632 8.0491 17.5812 8.04283 17.393 8.04283C16.8786 8.01146 16.8786 8.01146 16.8786 8.52589C16.8786 8.79565 16.8849 9.06541 16.8786 9.33517C16.8723 9.5171 16.9413 9.59866 17.1295 9.59238C17.7443 9.57984 18.3591 9.57984 18.9677 9.57356C19.25 9.57356 19.5386 9.57984 19.8209 9.57984C19.8711 9.57356 19.9087 9.55474 19.9526 9.53592Z" fill="#DEB68E"/>
<path d="M12.3046 1.5055C12.3234 1.47413 12.3423 1.44277 12.3611 1.40513C12.6748 1.40513 12.9947 1.39885 13.3084 1.39258C13.3084 1.8129 13.2958 2.22695 13.3021 2.64728C13.3021 2.86058 13.2206 2.96096 13.0073 2.94841C12.8818 2.94213 12.7563 2.94213 12.6308 2.94841C12.4175 2.96096 12.2984 2.89822 12.2858 2.65355C12.2795 2.57827 12.1415 2.45907 12.06 2.4528C11.6961 2.42771 11.326 2.44653 10.9621 2.44025C10.7802 2.44025 10.73 2.52181 10.73 2.69119C10.7237 2.92959 10.7864 3.24954 10.661 3.37501C10.5355 3.50048 10.2093 3.44402 9.97715 3.44402C9.7764 3.44402 9.72621 3.53812 9.73249 3.71378C9.73876 3.95217 9.73249 4.19056 9.73249 4.44778C9.45018 4.44778 9.19296 4.45405 8.93575 4.44778C8.75382 4.4415 8.65972 4.49796 8.66599 4.69244C8.69108 5.55819 8.70363 6.42393 8.72872 7.28968C8.74127 7.67863 9.04867 7.46533 9.22433 7.51552C9.22433 7.69118 9.23061 7.87311 9.23061 8.04877C9.21178 8.06132 9.19296 8.07386 9.17414 8.08641C9.01103 8.00486 8.79773 7.9233 8.74755 8.15542C8.67854 8.49419 8.69108 8.85178 8.68481 9.2031C8.67854 9.73007 8.71618 10.257 8.67226 10.7777C8.62208 11.3549 8.63462 11.4427 9.16787 11.6498C9.17414 11.7815 9.18042 11.907 9.19296 12.0387C8.89811 12.0638 8.59698 12.0889 8.30213 12.1077C8.17666 12.1015 8.04491 12.0952 7.91944 12.0889C7.83789 12.0074 7.75633 11.9258 7.67478 11.838C7.63086 11.7564 7.58695 11.6686 7.54303 11.587C7.43638 11.5055 7.33601 11.4176 7.22936 11.3361C7.01606 11.0977 5.99347 10.966 5.76135 11.1542C5.71117 11.1981 5.69235 11.2734 5.66098 11.3361C5.49787 11.3988 5.32848 11.4616 5.16537 11.5243C5.15282 11.2796 5.11518 11.035 5.14028 10.7903C5.14655 10.7087 5.31594 10.5958 5.42259 10.5895C6.16913 10.5394 6.16913 10.5456 6.16913 9.78026C6.16913 9.03998 6.16913 9.03999 5.43513 9.01489C5.25947 9.00862 5.1591 8.97098 5.1591 8.77022C5.16537 8.43145 5.16537 8.08641 5.1591 7.74764C5.1591 7.57826 5.21556 7.48415 5.39749 7.50297C5.63588 7.52807 5.67353 7.39633 5.66725 7.19557C5.66098 6.71251 5.6547 6.23573 5.67353 5.75267C5.6798 5.66484 5.78645 5.508 5.84918 5.508C6.1064 5.49545 6.16913 5.35744 6.16286 5.13786C6.16286 4.99357 6.16913 4.84301 6.16286 4.69872C6.15659 4.52933 6.2005 4.40386 6.40125 4.42896C6.60828 4.44778 6.68356 4.3474 6.66474 4.15292C6.65847 4.04 6.67101 3.9208 6.66474 3.80788C6.65219 3.61967 6.69611 3.50048 6.90941 3.44402C7.01606 3.41892 7.13525 3.26836 7.15407 3.15543C7.18544 2.99232 7.22936 2.90449 7.40501 2.91704C7.58695 2.92959 7.68732 2.83548 7.6685 2.65355C7.63713 2.37752 7.7877 2.3336 8.00727 2.3587C8.12019 2.37125 8.23312 2.40261 8.34604 2.40261C8.69736 2.39007 9.11141 2.52808 9.29334 2.04502C9.31216 1.99483 9.38117 1.95719 9.42508 1.91328C10.1716 1.91328 10.9182 1.91328 11.6647 1.91328C11.7588 1.91328 11.8529 1.90073 11.9408 1.90073C12.2105 1.92583 12.3485 1.79408 12.3046 1.5055Z" fill="#A44633"/>
<path d="M20.4418 5.97932C20.1783 5.99814 19.896 6.04206 19.9336 5.61546C19.9399 5.57782 19.7893 5.52136 19.7141 5.47744C19.6262 5.42098 19.4568 5.35197 19.4568 5.30178C19.4819 4.95674 19.2686 4.96929 19.0365 4.96929C16.5585 4.97556 14.0867 4.96929 11.6087 4.96929C11.502 4.96929 11.4017 4.96929 11.295 4.96929C11.1758 4.49878 11.2072 4.46113 11.684 4.46113C13.29 4.46113 14.9023 4.45486 16.5083 4.46741C16.7906 4.46741 16.8973 4.39213 16.8847 4.09727C16.8659 3.79614 16.8973 3.49501 16.9161 3.19389C16.9286 3.01823 17.0227 2.94295 17.2047 2.95549C17.4242 2.96804 17.6375 2.95549 17.8822 2.95549C17.8822 3.46365 17.8822 3.95298 17.8822 4.46113C18.3402 4.46113 18.773 4.46113 19.2059 4.46113C19.4004 4.46113 19.4506 4.34194 19.4506 4.17255C19.4443 3.84633 19.4568 3.52638 19.4506 3.20016C19.4443 2.99941 19.5384 2.94922 19.7203 2.94922C19.896 2.94922 19.9713 3.0245 19.9587 3.19389C19.9587 3.20643 19.9587 3.21271 19.9587 3.22525C19.9901 3.95298 19.9901 3.95298 20.7115 3.95298C20.9625 3.95298 21.2134 3.95298 21.4644 3.95298C21.4706 4.45486 21.4706 4.45486 20.975 4.45486C20.8935 4.45486 20.8056 4.46113 20.7241 4.45486C20.5171 4.43604 20.4543 4.53014 20.4543 4.7309C20.4606 5.15122 20.4481 5.56527 20.4418 5.97932Z" fill="#A44633"/>
<path d="M9.23127 8.06855C9.23127 7.89289 9.22499 7.71096 9.22499 7.5353C9.20617 7.32827 9.19363 7.12125 9.1748 6.91422C9.21245 6.87031 9.28145 6.82639 9.28145 6.78248C9.28145 6.48762 9.46966 6.45625 9.69551 6.47507C9.68923 7.00205 9.68296 7.52275 9.67669 8.04973C9.57004 8.056 9.46339 8.056 9.35674 8.06227C9.32537 8.06855 9.294 8.07482 9.26891 8.07482C9.25636 8.06855 9.24381 8.06855 9.23127 8.06855Z" fill="#8E3D24"/>
<path d="M11.2448 5.03133C11.2448 5.47675 11.2448 5.48302 10.7931 5.48302C10.6488 5.48302 10.5045 5.48302 10.3602 5.48302C10.1344 5.26972 10.172 4.98114 10.5672 4.97486C10.7931 4.96232 11.0189 5.00623 11.2448 5.03133Z" fill="#A44633"/>
<path d="M9.69541 6.47436C9.46956 6.45554 9.28135 6.48691 9.28135 6.78176C9.28135 6.82567 9.21235 6.86959 9.1747 6.9135C9.1747 6.67511 9.14334 6.43044 9.1998 6.2046C9.22489 6.09167 9.42565 6.02267 9.56994 5.91602C9.63894 6.05403 9.68286 6.13559 9.7205 6.21087C9.70795 6.2987 9.70168 6.38653 9.69541 6.47436Z" fill="#A44633"/>
<path d="M10.2284 5.52569C10.2221 5.66999 10.2096 5.81428 10.2033 5.95857C10.0465 5.90838 9.80808 6.08404 9.73907 5.808C9.67006 5.52569 9.87082 5.41277 10.2284 5.52569Z" fill="#A44633"/>
<path d="M20.4598 18.7635C20.4598 14.6481 20.4598 10.5389 20.4598 6.42352C20.4598 6.27923 20.4535 6.12867 20.4473 5.98438C20.6167 5.99692 20.7798 6.00947 20.9491 6.02202C20.9554 6.14749 20.9554 6.27296 20.9617 6.39843C20.9241 6.5239 20.8425 6.64937 20.8425 6.78111C20.8362 10.3382 20.8362 13.9015 20.8362 17.4586C20.8362 17.8852 20.9303 18.3369 20.5665 18.6882C20.5602 18.6945 20.579 18.7259 20.5853 18.7447C20.5414 18.7572 20.4975 18.7572 20.4598 18.7635Z" fill="#976544"/>
<path d="M9.26891 8.07309C9.30028 8.06682 9.33165 8.06055 9.35674 8.06055C9.45712 8.09191 9.55749 8.12328 9.66414 8.15465C9.68924 8.33031 9.72688 8.50597 9.72688 8.68162C9.73315 11.3855 9.72688 14.0957 9.72688 16.7995C9.72688 17.3704 9.72688 17.9413 9.72688 18.5122C9.72688 18.6063 9.73943 18.6941 9.7457 18.7694C10.0092 18.7694 10.2476 18.7443 10.4797 18.782C10.5738 18.7945 10.7055 18.9263 10.7181 19.0204C10.7495 19.265 10.7306 19.5222 10.7306 19.7732C10.7306 19.792 10.7306 19.8171 10.7306 19.8359C10.1158 19.8296 9.50103 19.8234 8.88623 19.8171C7.97657 19.8108 7.07319 19.8046 6.16353 19.7983C6.15725 19.5285 6.15098 19.2588 6.15098 18.9827C6.15098 18.2801 6.15098 18.2738 5.44835 18.2738C5.21623 18.2738 5.13467 18.1985 5.14094 17.9664C5.15349 17.2136 5.14722 16.4608 5.14722 15.7142C5.29151 15.7142 5.4358 15.7142 5.58636 15.7142C5.61146 16.2726 5.62401 16.2851 6.17607 16.2412C6.42074 16.2412 6.66541 16.2412 6.9038 16.2475C7.08573 16.2537 7.26139 16.2537 7.44332 16.26C7.66289 16.2726 7.65662 16.122 7.66289 15.9652C7.66289 15.8146 7.64407 15.6891 7.4496 15.7017C7.34295 15.708 7.24257 15.7142 7.13592 15.7205C6.82852 15.7142 6.52112 15.7142 6.21999 15.708C6.18235 15.5574 6.14471 15.4068 6.10079 15.2563H6.09452C5.92513 15.2186 5.76202 15.1747 5.59264 15.1371C5.58636 15.0053 5.58009 14.8736 5.56754 14.723C5.41071 14.7167 5.27896 14.7105 5.14722 14.6979C5.14095 14.6728 5.13467 14.6477 5.1284 14.6226C5.1284 13.92 5.14095 13.2111 5.12212 12.5085C5.10958 12.2011 5.20995 12.0881 5.51108 12.1509C5.555 12.3265 5.59891 12.5085 5.6491 12.6841C5.6491 12.7908 5.6491 12.8911 5.64283 12.9978C5.47971 13.5812 5.56754 13.713 6.09452 13.6691C6.11334 13.6753 6.12589 13.6816 6.14471 13.6879C6.18862 13.851 6.22626 14.1459 6.28272 14.1521C6.55876 14.1772 6.67168 14.2776 6.66541 14.5599C6.66541 14.6101 6.81597 14.7167 6.88498 14.7042C6.98536 14.6854 7.1171 14.5975 7.13592 14.516C7.16101 14.4282 7.06691 14.2086 7.04182 14.2149C6.61522 14.2462 6.64031 13.9576 6.63404 13.6816C6.63404 13.5185 6.64031 13.3491 6.64031 13.186C6.64031 13.1421 6.64031 13.1044 6.64031 13.0605C6.65286 12.6339 6.65286 12.6339 6.23254 12.6277C6.20117 12.6277 6.1698 12.6277 6.13843 12.6277C6.16353 12.3265 6.16353 12.0442 5.72438 12.107C5.69301 12.1132 5.65537 12.0693 5.62401 12.0505C5.64283 11.6239 5.64283 11.6302 6.08197 11.6302C6.43329 11.6302 6.79088 11.6302 7.14219 11.6302C7.16729 12.107 7.16729 12.107 7.65035 12.1571C7.65035 12.5837 7.65662 13.0103 7.65035 13.4432C7.64407 13.6377 7.72563 13.6942 7.90756 13.7004C8.15223 13.7004 8.20242 13.5624 8.20869 13.3617C8.22751 12.9602 8.25888 12.5524 8.28397 12.1509C8.57883 12.1258 8.87996 12.1007 9.17481 12.0819C9.20618 12.0129 9.26891 11.9438 9.26891 11.8686C9.28146 10.5888 9.27519 9.33407 9.26891 8.07309Z" fill="#D09F80"/>
<path d="M6.16921 19.7924C7.07887 19.7987 7.98226 19.805 8.89191 19.8112C9.50672 19.8175 10.1215 19.8238 10.7363 19.8301C10.7363 19.9053 10.7301 19.9743 10.7363 20.0496C10.7614 20.2755 10.6548 20.3382 10.4415 20.3319C9.81412 20.3194 9.18677 20.3445 8.56569 20.3257C8.23947 20.3131 8.14537 20.4323 8.16419 20.746C8.18301 21.1098 8.16419 21.4737 8.16419 21.8438C8.10145 21.8438 8.03872 21.8438 7.97598 21.8438C7.98226 21.3859 7.96344 20.9342 7.9948 20.4762C8.00735 20.2943 7.96971 20.2065 7.8066 20.1939C7.17925 20.1437 6.5519 20.0998 5.92455 20.0747C5.66733 20.0622 5.40384 20.0873 5.1529 20.1312C5.0588 20.15 4.98352 20.2629 4.90196 20.3382C4.82041 20.3382 4.73885 20.3445 4.6573 20.3445C4.6573 20.3319 4.6573 20.3194 4.65102 20.3131C4.27461 20.0998 4.24952 19.7422 4.25579 19.3721C4.25579 19.3407 4.18678 19.3094 4.15542 19.278C4.09268 19.1525 4.02995 19.0208 3.96094 18.8953C3.98603 18.8639 4.00485 18.8263 4.02995 18.7949C4.19933 18.8075 4.36244 18.8137 4.53183 18.8263C4.53183 18.9392 4.51928 19.0584 4.53183 19.1713C4.55692 19.3595 4.59456 19.5415 4.62593 19.7297C4.69494 19.7673 4.76395 19.8363 4.83296 19.8363C5.2721 19.8175 5.71752 19.7987 6.16921 19.7924Z" fill="#58382C"/>
<path d="M9.41947 1.94531C9.37555 1.98923 9.30654 2.02059 9.28772 2.07706C9.10579 2.56012 8.69801 2.42837 8.34042 2.43465C8.2275 2.44092 8.11458 2.40328 8.00165 2.39073C7.78208 2.36564 7.63152 2.41583 7.66288 2.68559C7.6817 2.86752 7.5876 2.96162 7.3994 2.94907C7.22374 2.93653 7.17982 3.02436 7.14846 3.18747C7.12963 3.30039 7.00416 3.44468 6.90379 3.47605C6.69049 3.53251 6.6403 3.64543 6.65912 3.83991C6.6654 3.95284 6.65285 4.07203 6.65912 4.18495C6.67167 4.37943 6.60266 4.48608 6.39563 4.46099C6.18861 4.44217 6.15097 4.56137 6.15724 4.73075C6.16351 4.87504 6.15724 5.0256 6.15724 5.1699C6.15724 5.38319 6.10078 5.52749 5.84357 5.54003C5.78083 5.54003 5.66791 5.69687 5.66791 5.7847C5.64909 6.26149 5.65536 6.74455 5.66163 7.22761C5.66791 7.42208 5.63027 7.5601 5.39187 7.53501C5.21621 7.51619 5.15348 7.61029 5.15348 7.77968C5.15975 8.11844 5.15975 8.46349 5.15348 8.80226C5.14721 9.00301 5.25386 9.04065 5.42951 9.04692C6.16351 9.07202 6.16351 9.07202 6.16351 9.81229C6.16351 10.5777 6.16351 10.5714 5.41697 10.6216C5.31659 10.6278 5.14721 10.7408 5.13466 10.8223C5.10957 11.0607 5.14721 11.3117 5.15975 11.5563C5.17857 11.6002 5.20367 11.6379 5.22249 11.6818C5.12211 11.8386 5.04056 12.0143 4.90881 12.1398C4.69551 12.3468 4.63905 12.5789 4.6516 12.8675C4.67042 13.4697 4.65787 14.0783 4.65787 14.6805C4.48849 14.6931 4.31283 14.7056 4.14345 14.7119C4.12462 14.9189 4.1058 15.1009 4.09953 15.2828C4.08071 15.7094 4.08071 15.7094 3.64784 15.7345C3.62902 15.6968 3.6102 15.6655 3.59138 15.6278C3.59138 14.4108 3.59138 13.1874 3.59138 11.9704C3.59138 11.5877 3.51609 11.5438 3.14596 11.6818C3.12714 11.6818 3.10832 11.6818 3.0895 11.6818C3.07695 11.6693 3.07695 11.6567 3.08322 11.6442C3.0895 9.10966 3.0895 6.58144 3.09577 4.04694C3.09577 3.37567 3.02676 3.46977 3.67293 3.4635C4.11208 3.45723 4.11208 3.4635 4.1058 3.01181C4.11835 2.99926 4.13717 2.98044 4.14972 2.96789C4.25637 2.96789 4.36929 2.98671 4.45712 2.94907C4.5324 2.91771 4.58886 2.8236 4.62651 2.74832C4.6516 2.69813 4.60768 2.62912 4.61396 2.56639C4.66415 1.95786 4.66415 1.95786 5.30404 1.95786C6.4521 1.95786 7.60642 1.95786 8.75447 1.95786C8.96777 1.95159 9.19362 1.94531 9.41947 1.94531Z" fill="#8E3D24"/>
<path d="M3.96081 18.884C4.02354 19.0095 4.08628 19.1412 4.15529 19.2667C4.12392 19.2729 4.09883 19.2855 4.06746 19.2918C4.011 19.2855 3.94826 19.2792 3.8918 19.2667C3.80397 19.2479 3.70987 19.2228 3.62204 19.2039C3.60949 19.2039 3.59067 19.1977 3.57812 19.1977C3.59067 19.0722 3.60322 18.9467 3.60949 18.8213C3.62831 18.815 3.64086 18.7962 3.64713 18.7773C3.72869 18.7773 3.80397 18.7773 3.88553 18.7836C3.91062 18.815 3.93571 18.8526 3.96081 18.884Z" fill="#6C2911"/>
<path d="M3.88618 19.2656C3.94264 19.2719 4.00538 19.2782 4.06184 19.2907C4.06811 19.6107 4.08066 19.9369 4.08693 20.2568C4.04302 20.0937 3.96774 19.9369 3.95519 19.7738C3.94264 19.5918 4.0242 19.3911 3.72934 19.3785C3.72307 19.3785 3.7168 19.3597 3.7168 19.3535C3.7168 19.3472 3.72934 19.3346 3.72934 19.3284C3.78581 19.3033 3.83599 19.2844 3.88618 19.2656Z" fill="#DDC640"/>
<path d="M4.13627 20.313C4.11118 20.3068 4.09863 20.2942 4.09863 20.2754C4.11745 20.2817 4.13 20.2942 4.13627 20.313Z" fill="#DDC640"/>
<path d="M3.13234 11.6818C3.50875 11.5375 3.57776 11.5877 3.57776 11.9704C3.57776 13.1874 3.57776 14.4108 3.57776 15.6278C3.55894 15.6529 3.53384 15.6717 3.51502 15.6968C3.40837 15.678 3.30172 15.6655 3.1888 15.6466C3.15116 15.6466 3.11979 15.6404 3.08215 15.6404C3.07588 15.5149 3.0696 15.3894 3.0696 15.2702C3.06333 14.4923 3.05705 13.7144 3.05078 12.9428C3.05078 12.8549 3.05078 12.7734 3.05078 12.6855C3.06333 12.4911 3.0696 12.2966 3.08215 12.1021C3.10724 11.9578 3.11979 11.8198 3.13234 11.6818Z" fill="#6C2911"/>
<path d="M3.06448 12.9355C3.07075 13.7135 3.07703 14.4914 3.0833 15.263C3.0833 15.3885 3.08957 15.514 3.09585 15.6332C3.08957 15.7586 3.0833 15.8841 3.07703 16.0096C3.07075 16.8816 3.06448 17.7599 3.05193 18.6319C3.02057 18.5315 2.95783 18.4311 2.95783 18.3308C2.95156 16.6306 2.95156 14.9305 2.95783 13.2304C2.9641 13.13 3.02684 13.0296 3.06448 12.9355Z" fill="#DDC640"/>
<path d="M3.05078 18.6315C3.05705 17.7595 3.06333 16.8812 3.07588 16.0092C3.07588 15.8838 3.08842 15.7583 3.0947 15.6328C3.13234 15.6328 3.1637 15.6391 3.20135 15.6391C3.1888 16.4735 3.16998 17.3016 3.1637 18.1359C3.1637 18.3994 3.2829 18.5751 3.57776 18.5688C3.60285 18.6378 3.62794 18.7068 3.64676 18.7758C3.64049 18.7947 3.62794 18.8135 3.60912 18.8198C3.43974 18.8009 3.26408 18.7821 3.0947 18.7696C3.07588 18.7257 3.06333 18.6817 3.05078 18.6315Z" fill="#794733"/>
<path d="M3.09563 12.0955C3.08308 12.29 3.07681 12.4845 3.06426 12.6789C3.0329 12.5723 2.97016 12.4594 2.97016 12.3527C2.97016 12.0955 2.97643 11.8446 2.65649 11.7567C2.62512 11.7505 2.61257 11.6689 2.59375 11.625C2.75686 11.6313 2.9137 11.6375 3.07681 11.6501C3.07054 11.6626 3.07054 11.6815 3.08308 11.6877C3.08308 11.8195 3.08936 11.9575 3.09563 12.0955Z" fill="#DDC640"/>
<path d="M3.08887 18.7695C3.25825 18.7884 3.43391 18.8072 3.60329 18.8197C3.59075 18.9452 3.5782 19.0707 3.57193 19.1961C3.41509 19.0581 3.25198 18.9138 3.08887 18.7695Z" fill="#DDC640"/>
<path d="M3.885 19.2659C3.83481 19.2847 3.78462 19.3035 3.72816 19.3223C3.69052 19.2847 3.65288 19.2408 3.61523 19.2031C3.70934 19.2282 3.79717 19.247 3.885 19.2659Z" fill="#794733"/>
<path d="M19.2686 19.8229C19.3187 19.7037 19.4003 19.5845 19.4066 19.4654C19.4379 18.7063 19.2435 18.769 20.1594 18.7753C20.197 18.7753 20.241 18.7878 20.2786 18.7941C20.2159 18.9007 20.1719 19.0889 20.0841 19.1078C19.8018 19.1768 19.7516 19.3462 19.7642 19.5908C19.7704 19.6912 19.7265 19.7916 19.7077 19.8857C19.5697 19.8104 19.3752 20.0927 19.2686 19.8229Z" fill="#976544"/>
<path d="M20.5797 18.7525C20.5734 18.7337 20.5546 18.7023 20.5608 18.6961C20.9247 18.3447 20.8306 17.893 20.8306 17.4664C20.8306 13.9094 20.8306 10.346 20.8369 6.78893C20.8369 6.66346 20.9121 6.53799 20.9561 6.40625C20.9623 6.73875 20.9686 7.07752 20.9686 7.41001C20.9686 11.0675 20.9686 14.7249 20.9623 18.3824C20.9623 18.5204 20.8745 18.6584 20.8306 18.7902C20.749 18.7776 20.6675 18.7651 20.5797 18.7525Z" fill="#9B6D1A"/>
<path d="M20.5792 18.752C20.6607 18.7645 20.7423 18.777 20.8301 18.7959C20.8552 19.0782 20.6105 19.0092 20.4725 19.0782C20.4662 18.9715 20.46 18.8712 20.46 18.7645C20.4976 18.7582 20.5415 18.7582 20.5792 18.752Z" fill="#DDC640"/>
<path d="M20.0088 20.1709C19.9899 19.9325 19.9711 19.6878 19.9648 19.4495C19.9648 19.4306 20.0464 19.4055 20.0903 19.3867C20.0589 19.6502 20.0339 19.9074 20.0088 20.1709Z" fill="#DDC640"/>
<path d="M14.0607 8.04297C14.2802 8.04924 14.4998 8.03669 14.7194 8.06806C14.757 8.07434 14.801 8.21863 14.8072 8.30018C14.8323 8.54485 14.8449 8.79579 14.8637 9.04673C14.9013 9.47333 14.7821 9.60507 14.3493 9.60507C13.7658 9.60507 13.1824 9.61134 12.5989 9.60507C12.486 9.60507 12.3794 9.56743 12.2665 9.55488C12.2602 9.41059 12.2539 9.2663 12.2539 9.12201C12.4358 9.09692 12.6178 9.07182 12.7997 9.04673C13.0632 9.053 13.3329 9.04046 13.5902 9.0781C14.2301 9.1722 14.2991 9.10946 14.3116 8.46329C14.3179 8.24999 14.2865 8.09316 14.0607 8.04297Z" fill="#C8946F"/>
<path d="M18.9733 9.58685C18.3585 9.59312 17.7437 9.59312 17.1352 9.60567C16.9407 9.61194 16.8779 9.53039 16.8842 9.34846C16.8905 9.0787 16.8842 8.80894 16.8842 8.53918C16.8842 8.02475 16.8842 8.02475 17.3986 8.05612C17.3924 8.3196 17.3798 8.57682 17.3986 8.8403C17.4049 8.92813 17.499 9.08497 17.5618 9.08497C17.8566 9.09752 18.1577 9.06615 18.4589 9.0536C18.622 9.0787 18.7851 9.10379 18.9482 9.12261C18.9482 9.27318 18.9607 9.43001 18.9733 9.58685Z" fill="#C8946F"/>
<path d="M13.8233 11.1682C13.817 11.3376 13.8045 11.5007 13.7982 11.6701C13.2963 11.6889 13.3026 11.5823 13.3026 12.1845C13.3026 12.2786 13.334 12.3915 13.29 12.4605C13.2399 12.5358 13.1269 12.5986 13.0391 12.5986C12.9638 12.5986 12.8572 12.5233 12.8195 12.4543C12.7819 12.379 12.807 12.2723 12.807 12.1782C12.807 11.6701 12.807 11.6701 12.3114 11.6701C12.3051 11.4819 12.3051 11.2937 12.2988 11.1055C12.807 11.1306 13.3151 11.1494 13.8233 11.1682Z" fill="#494245"/>
<path d="M13.823 11.1685C13.3149 11.1497 12.8067 11.1309 12.2986 11.1121C12.1229 11.1372 11.9473 11.1623 11.7653 11.1874C11.7591 11.018 11.7465 10.8486 11.7402 10.6729C11.7465 10.6541 11.7465 10.6353 11.7402 10.6165C12.424 10.6102 13.1141 10.6039 13.7979 10.5977C13.9673 10.6039 14.1367 10.6102 14.2998 10.6165C14.419 11.0368 14.1304 11.1121 13.823 11.1685Z" fill="#A89887"/>
<path d="M14.0613 8.04297C14.2872 8.09316 14.3186 8.24999 14.3186 8.45702C14.306 9.10319 14.237 9.15965 13.5971 9.07182C13.3399 9.03418 13.0701 9.053 12.8066 9.04046C12.8631 8.87735 12.9133 8.56994 12.9698 8.56994C13.3838 8.56994 13.3085 8.30018 13.3022 8.06179C13.5532 8.05552 13.8104 8.04924 14.0613 8.04297Z" fill="#AD6243"/>
<path d="M12.3108 11.6758C12.8064 11.6758 12.8064 11.6758 12.8064 12.1839C12.8064 12.278 12.7813 12.3847 12.819 12.46C12.8566 12.529 12.9633 12.6043 13.0385 12.6043C13.1264 12.598 13.2456 12.5353 13.2895 12.4662C13.3334 12.4035 13.302 12.2843 13.302 12.1902C13.302 11.588 13.2895 11.6883 13.7976 11.6758C13.8039 11.9895 13.8102 12.3031 13.8165 12.6168C13.5467 12.6921 13.1766 12.667 13.3083 13.1375C13.1452 13.1375 12.9758 13.1375 12.8127 13.1375C12.8378 12.8615 12.7939 12.6544 12.4426 12.6733C12.3924 12.6733 12.3422 12.6105 12.292 12.5792C12.292 12.2718 12.3045 11.9706 12.3108 11.6758Z" fill="#605C5F"/>
<path d="M12.3111 11.6759C12.3049 11.9708 12.2986 12.2719 12.2923 12.5668C12.2798 12.7738 12.2672 12.9746 12.2547 13.1816C11.7528 13.1753 11.7528 13.1753 11.7402 12.6797C11.7402 12.4915 11.7465 12.3096 11.7465 12.1214C11.7465 11.952 11.7465 11.7826 11.7402 11.6132C11.7465 11.4689 11.7591 11.3246 11.7653 11.1866C11.941 11.1615 12.1166 11.1364 12.2986 11.1113C12.2986 11.2995 12.3049 11.4877 12.3111 11.6759Z" fill="#D4C9C2"/>
<path d="M19.4621 12.6722C19.4433 13.1929 19.3617 13.2619 18.9351 13.1239C18.9288 12.9545 18.9226 12.7851 18.9163 12.6095C18.91 12.277 18.9037 11.9507 18.8975 11.6182C18.91 11.4739 18.9163 11.3297 18.9288 11.1916C19.0919 11.1728 19.255 11.154 19.4182 11.1289C19.4433 11.3046 19.4621 11.4802 19.4872 11.6559C19.4809 11.9947 19.4683 12.3334 19.4621 12.6722Z" fill="#D4C9C2"/>
<path d="M18.9357 9.11686C18.7725 9.09177 18.6094 9.06668 18.4463 9.04786C18.4275 8.93493 18.415 8.81573 18.3773 8.70909C18.3522 8.64635 18.2895 8.5648 18.233 8.54597C17.8378 8.43305 17.8378 8.43932 17.9507 8.05664C18.2644 8.05664 18.5781 8.06291 18.8917 8.06291C18.9921 8.60871 19.0298 8.64008 19.4501 8.5397L19.4626 8.55225L19.4564 8.57107C19.4877 8.88474 19.4187 9.09804 19.036 9.0604C19.0109 9.05413 18.9733 9.09804 18.9357 9.11686Z" fill="#A44633"/>
<path d="M13.3024 8.06055C13.3086 8.30521 13.3776 8.57497 12.9699 8.5687C12.9134 8.5687 12.8632 8.8761 12.8067 9.03921C12.6248 9.06431 12.4429 9.0894 12.261 9.1145C11.9285 9.05803 11.7152 8.90747 11.7967 8.52479L11.7904 8.53106C12.2923 8.54988 12.3174 8.53106 12.3676 8.07309C12.675 8.06682 12.9887 8.06682 13.3024 8.06055Z" fill="#A44633"/>
<path d="M13.7979 10.5948C13.1141 10.6011 12.424 10.6073 11.7402 10.6136C11.7402 10.4442 11.7402 10.2811 11.7402 10.1117C12.4115 10.1117 13.0765 10.1117 13.7478 10.1055C13.7666 10.2498 13.7854 10.394 13.8042 10.5383C13.7979 10.5572 13.7979 10.576 13.7979 10.5948Z" fill="#58382C"/>
<path d="M17.951 10.1125C18.5533 10.1062 19.1555 10.0874 19.7515 10.0999C20.1028 10.1062 19.9021 10.3822 19.9397 10.5453C19.7578 10.5642 19.5759 10.583 19.3939 10.6018C19.35 10.6018 19.3061 10.6081 19.2622 10.6081C19.2434 10.6081 19.2245 10.6081 19.2057 10.6081C18.7854 10.6144 18.3651 10.6144 17.9385 10.6206C17.9448 10.6081 17.9447 10.6018 17.951 10.5893C17.951 10.4324 17.951 10.2756 17.951 10.1125Z" fill="#58382C"/>
<path d="M17.9509 8.0551C17.838 8.43779 17.838 8.43779 18.2332 8.54444C18.296 8.56326 18.3587 8.63854 18.3775 8.70755C18.4152 8.8142 18.4277 8.93339 18.4465 9.04632C18.1454 9.05886 17.8505 9.09023 17.5494 9.07768C17.4929 9.07768 17.3926 8.92085 17.3863 8.83302C17.3675 8.5758 17.3863 8.31232 17.3863 8.04883C17.5808 8.0551 17.769 8.0551 17.9509 8.0551Z" fill="#AD6243"/>
<path d="M18.9047 11.6193C18.9109 11.9518 18.9172 12.278 18.9235 12.6105C18.7604 12.6293 18.5973 12.6419 18.4341 12.667C18.0326 12.736 18.0326 12.7423 18.1581 13.1312C17.788 13.0873 17.9699 12.7987 17.926 12.6105C17.995 12.4788 18.0828 12.3533 18.1267 12.2153C18.2585 11.795 18.4781 11.613 18.9047 11.6193Z" fill="#605C5F"/>
<path d="M18.9355 9.11543C18.9732 9.09661 19.0046 9.05269 19.0359 9.05896C19.4123 9.09661 19.4876 8.87703 19.4562 8.56963C19.9456 8.55708 19.9456 8.55708 19.9519 9.04642C19.9519 9.20953 19.9519 9.37264 19.9519 9.54202C19.9142 9.56084 19.8703 9.57967 19.8327 9.60476C19.5503 9.60476 19.2618 9.59849 18.9795 9.59849C18.9606 9.4291 18.9481 9.27226 18.9355 9.11543Z" fill="#8E3D24"/>
<path d="M18.9043 11.6187C18.4777 11.6124 18.2581 11.7943 18.1327 12.2146C18.0887 12.3527 18.0009 12.4781 17.9319 12.6099C17.9256 12.1143 17.9194 11.6187 17.9131 11.123L17.9319 11.1356L17.9507 11.1293C18.2769 11.1481 18.6094 11.1732 18.9357 11.1921C18.9231 11.3301 18.9106 11.4744 18.9043 11.6187Z" fill="#494245"/>
<path d="M11.7973 8.52539C11.7094 8.90807 11.929 9.05864 12.2615 9.1151C12.2678 9.25939 12.274 9.40368 12.274 9.54797C12.0168 9.56052 11.7596 9.59189 11.5024 9.57934C11.4208 9.57307 11.2891 9.45387 11.2766 9.37859C11.2515 9.14647 11.2766 8.90807 11.2828 8.66968C11.3769 8.63831 11.4648 8.60695 11.5589 8.57558C11.6341 8.55676 11.7157 8.54421 11.7973 8.52539Z" fill="#8E3D24"/>
<path d="M19.3936 10.6033C19.5755 10.5845 19.7574 10.5657 19.9394 10.5469C19.9456 10.8982 19.9456 11.2558 19.9519 11.6071C19.8013 11.6259 19.6445 11.6385 19.4939 11.6573C19.4688 11.4816 19.45 11.306 19.4249 11.1303C19.4124 10.9547 19.4061 10.779 19.3936 10.6033Z" fill="#794733"/>
<path d="M19.488 11.6557C19.6385 11.6368 19.7954 11.6243 19.946 11.6055C19.946 11.7937 19.9522 11.9819 19.9522 12.1701C19.9522 12.672 19.9522 12.672 19.4629 12.672C19.4692 12.3332 19.4817 11.9944 19.488 11.6557Z" fill="#B57E62"/>
<path d="M14.3057 16.75C14.6633 16.7563 15.0146 16.7563 15.3722 16.7625C15.3722 16.9068 15.3784 17.0511 15.3784 17.1954C15.0271 17.208 14.6758 17.2142 14.3245 17.2268C14.3245 17.0762 14.3182 16.9194 14.3182 16.7688L14.3057 16.75Z" fill="#794733"/>
<path d="M11.7648 11.1865C11.7586 11.3308 11.746 11.4751 11.7397 11.6131C11.5766 11.6131 11.4135 11.6069 11.2504 11.6069C11.2504 11.2744 11.2504 10.9419 11.2441 10.6094C11.4073 10.6345 11.5704 10.6533 11.7335 10.6784C11.746 10.8415 11.7523 11.0172 11.7648 11.1865Z" fill="#92614B"/>
<path d="M13.8172 16.8757C13.7293 16.8318 13.6352 16.7565 13.5474 16.7565C13.3153 16.7628 13.3027 16.631 13.3027 16.4554C13.3027 16.2421 13.4094 16.1856 13.5976 16.1919C13.9677 16.2044 14.1685 16.4303 14.3065 16.7439L14.319 16.7628C14.1559 16.8067 13.9865 16.838 13.8172 16.8757Z" fill="#B57E62"/>
<path d="M15.3783 17.1954C15.3783 17.0511 15.3721 16.9068 15.3721 16.7625C15.3909 16.7563 15.416 16.75 15.4348 16.75C15.6167 16.7751 15.7987 16.8127 15.9743 16.819C16.3821 16.8316 16.3821 16.8253 16.3696 17.2393C16.0433 17.2205 15.7108 17.208 15.3783 17.1954Z" fill="#A57158"/>
<path d="M18.1578 13.1301C18.0324 12.7411 18.0324 12.7411 18.4339 12.6658C18.597 12.6345 18.7601 12.6282 18.9232 12.6094C18.9295 12.7788 18.9357 12.9481 18.942 13.1238C18.7538 13.1301 18.5719 13.1364 18.3837 13.1364C18.3335 13.1301 18.2896 13.1238 18.2394 13.1238C18.208 13.1238 18.1829 13.1238 18.1578 13.1301Z" fill="#A89887"/>
<path d="M16.3762 17.239C16.3887 16.825 16.3887 16.8313 15.9809 16.8187C15.799 16.8124 15.6171 16.7748 15.4414 16.7497C15.8617 16.7372 16.2821 16.7058 16.7024 16.7246C16.7651 16.7246 16.8592 16.9316 16.8718 17.0446C16.878 17.1073 16.7463 17.2077 16.6522 17.2453C16.5706 17.2767 16.4703 17.2453 16.3762 17.239Z" fill="#B57E62"/>
<path d="M12.249 13.1812C12.2616 12.9742 12.2741 12.7734 12.2867 12.5664C12.3369 12.5978 12.387 12.6605 12.4372 12.6605C12.7885 12.6417 12.8325 12.855 12.8074 13.1247C12.6254 13.1436 12.4372 13.1624 12.249 13.1812Z" fill="#A89887"/>
<path d="M11.7402 12.12C11.7402 12.3082 11.7339 12.4901 11.7339 12.6783C11.2195 12.6783 11.2195 12.6783 11.2446 12.1074C11.414 12.1074 11.5771 12.1137 11.7402 12.12Z" fill="#D09F80"/>
<path d="M13.3019 13.1301C13.1702 12.6596 13.5403 12.6847 13.8101 12.6094C13.8038 12.7725 13.8665 13.0046 13.7787 13.0862C13.6971 13.174 13.4713 13.1238 13.3019 13.1301Z" fill="#A89887"/>
<path d="M19.4509 8.53822C19.0243 8.63859 18.993 8.60722 18.8926 8.06143C19.4384 8.00497 19.4384 8.00497 19.4509 8.53822Z" fill="#8E3D24"/>
<path d="M11.7343 10.6721C11.5712 10.6471 11.4081 10.6282 11.245 10.6031C11.245 10.5906 11.2387 10.5843 11.2387 10.5718C11.2136 10.0636 11.2136 10.0636 11.7343 10.1075C11.7343 10.2769 11.7343 10.44 11.7343 10.6094C11.7468 10.6345 11.7406 10.6533 11.7343 10.6721Z" fill="#794733"/>
<path d="M12.3612 8.07521C12.311 8.53317 12.2859 8.55199 11.784 8.53317C11.7714 7.99365 11.7777 7.98738 12.3612 8.07521Z" fill="#8E3D24"/>
<path d="M17.9442 11.1235L17.9254 11.1298L17.9066 11.1172C17.4737 11.0984 17.4737 11.0984 17.3984 10.5965C17.5427 10.5903 17.687 10.5903 17.8313 10.584C17.8689 10.584 17.9129 10.5903 17.9505 10.5903C17.9505 10.6028 17.9442 10.6091 17.938 10.6216C17.9442 10.791 17.9442 10.9604 17.9442 11.1235Z" fill="#C8946F"/>
<path d="M11.7397 12.1199C11.5766 12.1136 11.4073 12.1136 11.2441 12.1073C11.2441 11.938 11.2441 11.7749 11.2504 11.6055C11.4135 11.6055 11.5766 11.6117 11.7397 11.6117C11.7397 11.7811 11.7397 11.9505 11.7397 12.1199Z" fill="#B57E62"/>
<path d="M13.8169 16.8762C13.9863 16.8385 14.1494 16.8009 14.3188 16.7695C14.3188 16.9201 14.325 17.0769 14.325 17.2275C13.8608 17.2965 13.8106 17.2651 13.8169 16.8762Z" fill="#A57158"/>
<path d="M13.7988 10.5965C13.7988 10.5777 13.7988 10.5652 13.8051 10.5463C13.8302 10.4021 13.849 10.264 13.8741 10.1198C14.3446 10.0821 14.3572 10.1009 14.307 10.6154C14.1313 10.6028 13.9682 10.5965 13.7988 10.5965Z" fill="#92614B"/>
<path d="M17.8319 10.5827C17.6876 10.589 17.5433 10.589 17.3991 10.5953C17.3677 10.0934 17.3928 10.0683 17.8256 10.1247C17.8319 10.2753 17.8319 10.4259 17.8319 10.5827Z" fill="#92614B"/>
<path d="M17.8315 10.5834C17.8315 10.4328 17.8252 10.276 17.8252 10.1254C17.8691 10.1254 17.9068 10.1191 17.9507 10.1191C17.9507 10.276 17.9507 10.4328 17.9569 10.5959C17.913 10.5897 17.8754 10.5834 17.8315 10.5834Z" fill="#794733"/>
<path d="M13.8667 10.1117C13.8416 10.256 13.8228 10.394 13.7977 10.5383C13.7789 10.394 13.76 10.2498 13.7412 10.1055C13.7851 10.1117 13.829 10.1117 13.8667 10.1117Z" fill="#794733"/>
<path d="M11.5514 8.57617C11.4573 8.60754 11.3695 8.63891 11.2754 8.67027C11.3695 8.63891 11.4636 8.60754 11.5514 8.57617Z" fill="#A44633"/>
<path d="M9.66385 8.15548C9.56347 8.12411 9.46309 8.09274 9.35645 8.06137C9.46309 8.0551 9.56974 8.0551 9.67639 8.04883C9.67012 8.0802 9.66385 8.11784 9.66385 8.15548Z" fill="#B57E62"/>
<path d="M19.8271 9.59203C19.8711 9.57321 19.9087 9.55439 19.9463 9.5293C19.9087 9.55439 19.8711 9.57321 19.8271 9.59203Z" fill="#C8946F"/>
<path d="M18.2393 13.1172C18.2894 13.1235 18.3334 13.1297 18.3835 13.1297C18.3334 13.1297 18.2832 13.1235 18.2393 13.1172Z" fill="#605C5F"/>
<path d="M4.64448 14.6736C4.64448 14.0714 4.65702 13.4629 4.6382 12.8606C4.63193 12.5783 4.68212 12.3399 4.89542 12.1329C5.02716 12.0074 5.10244 11.8317 5.20909 11.6749C5.40357 11.6373 5.62314 11.6373 5.64196 11.3612C5.67333 11.2985 5.69215 11.2232 5.74234 11.1793C5.97446 10.9911 7.00331 11.1228 7.21034 11.3612C7.19152 11.4428 7.16642 11.5306 7.1476 11.6122L7.14133 11.6185C6.79001 11.6185 6.43242 11.6185 6.08111 11.6185C5.64196 11.6185 5.64196 11.6185 5.62314 12.0388C5.5855 12.0701 5.54159 12.1078 5.50395 12.1392C5.20909 12.0764 5.10871 12.1831 5.11499 12.4967C5.14008 13.1994 5.12126 13.9083 5.12126 14.6109C5.08362 14.636 5.04598 14.6611 5.01461 14.6862C4.90169 14.6862 4.77622 14.6799 4.64448 14.6736Z" fill="#794733"/>
<path d="M9.16123 11.6758C8.62798 11.4688 8.61544 11.381 8.66562 10.8038C8.70954 10.2831 8.6719 9.74985 8.67817 9.22915C8.68444 8.87784 8.6719 8.52025 8.74091 8.18148C8.79109 7.94936 9.00439 8.03091 9.1675 8.11247C9.1675 9.29816 9.1675 10.4839 9.16123 11.6758Z" fill="#8E3D24"/>
<path d="M8.29657 12.1329C8.27148 12.5344 8.24011 12.9422 8.22129 13.3437C8.20874 13.5445 8.16483 13.6825 7.92016 13.6825C7.73195 13.6825 7.65667 13.6198 7.66294 13.4253C7.66922 12.9987 7.66294 12.5721 7.66294 12.1392C7.66294 12.1267 7.65667 12.1141 7.66294 12.1016C7.7445 12.1016 7.83233 12.1016 7.91389 12.1016C8.03936 12.1204 8.1711 12.1267 8.29657 12.1329Z" fill="#B57E62"/>
<path d="M9.16211 11.6756C9.16211 10.4837 9.16838 9.29797 9.16838 8.106C9.1872 8.09345 9.20602 8.08091 9.22484 8.06836C9.23739 8.06836 9.24994 8.06836 9.26249 8.07463C9.26876 9.33561 9.27503 10.5903 9.28131 11.8513C9.28131 11.9203 9.21857 11.9893 9.1872 12.0646C9.18093 11.9328 9.17466 11.8011 9.16211 11.6756Z" fill="#B57E62"/>
<path d="M7.66343 12.1446C7.17409 12.0944 7.17409 12.0944 7.15527 11.6176L7.16155 11.6113C7.28702 11.6113 7.41249 11.6113 7.53796 11.6113C7.58187 11.6929 7.62579 11.7807 7.6697 11.8623C7.6697 11.9438 7.66343 12.0254 7.66343 12.1069C7.65715 12.1195 7.65715 12.132 7.66343 12.1446Z" fill="#794733"/>
<path d="M5.64893 11.3613C5.62383 11.6374 5.40426 11.6374 5.21606 11.675C5.19723 11.6311 5.17214 11.5934 5.15332 11.5495C5.31643 11.4868 5.48582 11.4241 5.64893 11.3613Z" fill="#954A47"/>
<path d="M7.53168 11.6123C7.40621 11.6123 7.28074 11.6123 7.15527 11.6123C7.17409 11.5307 7.19919 11.4429 7.21801 11.3613C7.32466 11.4429 7.43131 11.5307 7.53168 11.6123Z" fill="#954A47"/>
<path d="M7.65625 12.1079C7.65625 12.0264 7.66252 11.9448 7.66252 11.8633C7.74408 11.9448 7.82563 12.0264 7.90719 12.1142C7.82563 12.1142 7.74408 12.1142 7.65625 12.1079Z" fill="#954A47"/>
<path d="M4.64504 14.6738C4.77051 14.6801 4.89598 14.6864 5.02145 14.6926C5.02145 14.8244 5.0089 14.9561 5.02772 15.0879C5.04654 15.251 5.09673 15.4078 5.1281 15.5709C5.13437 15.6149 5.14064 15.665 5.14692 15.709C5.14692 16.4618 5.15319 17.2146 5.14064 17.9611C5.13437 18.1933 5.2222 18.2685 5.44804 18.2685C6.15068 18.2685 6.15068 18.2811 6.15068 18.9775C6.15068 19.2472 6.15695 19.517 6.16322 19.793C5.71781 19.7993 5.27239 19.8118 4.82697 19.8118C4.75796 19.8118 4.68895 19.7428 4.61994 19.7052C4.62622 19.4542 4.63876 19.2096 4.63249 18.9586C4.63249 18.9084 4.55721 18.8583 4.51957 18.8081C4.35018 18.7955 4.18707 18.7893 4.01769 18.7767C3.97377 18.7767 3.92358 18.7767 3.87967 18.783C3.79811 18.783 3.72283 18.783 3.64127 18.7767C3.61618 18.7077 3.59109 18.6387 3.57227 18.5697C3.57227 17.6475 3.57227 16.7315 3.57854 15.8093C3.59736 15.7842 3.61618 15.7529 3.635 15.7278C4.06787 15.7027 4.06787 15.7027 4.08669 15.2761C4.09297 15.0942 4.11806 14.9122 4.13061 14.7052C4.30627 14.6926 4.47565 14.6864 4.64504 14.6738Z" fill="#B57E62"/>
<path d="M6.6522 13.1794C6.6522 13.3425 6.64593 13.5119 6.64593 13.675C6.48281 13.675 6.3197 13.6813 6.15032 13.6813C6.1315 13.675 6.11895 13.6688 6.10013 13.6625C6.14404 13.4304 6.28206 13.1543 5.83664 13.1669C5.77391 13.1669 5.71117 13.054 5.64844 12.9912C5.64844 12.8846 5.64844 12.7842 5.65471 12.6776C5.8241 12.6587 5.98721 12.6399 6.15659 12.6211C6.18796 12.6211 6.21933 12.6211 6.25069 12.6211C6.67102 12.6211 6.67102 12.6211 6.65847 13.054C6.6522 13.0979 6.6522 13.1355 6.6522 13.1794Z" fill="#92614B"/>
<path d="M5.15261 15.7077C5.14634 15.6638 5.14006 15.6136 5.13379 15.5697C5.14006 15.2748 5.14634 14.9863 5.15261 14.6914C5.28435 14.6977 5.4161 14.704 5.57293 14.7165C5.57921 14.8671 5.59176 14.9988 5.59803 15.1306C5.76741 15.1682 5.93052 15.2121 6.09991 15.2497H6.10618C6.09364 15.394 6.08109 15.5321 6.06854 15.6826C5.89288 15.6952 5.74232 15.7077 5.59176 15.714C5.44119 15.7077 5.2969 15.7077 5.15261 15.7077Z" fill="#794733"/>
<path d="M6.21872 15.7031C6.52612 15.7094 6.83352 15.7094 7.13465 15.7157C7.17229 15.9415 7.2413 16.1799 6.90253 16.2426C6.65787 16.2426 6.4132 16.2426 6.1748 16.2364C6.18735 16.0544 6.1999 15.8788 6.21872 15.7031Z" fill="#794733"/>
<path d="M6.15039 13.6821C6.3135 13.6821 6.47661 13.6758 6.646 13.6758C6.646 13.9518 6.62718 14.2404 7.05378 14.209C7.07887 14.209 7.17297 14.4223 7.14788 14.5102C7.12278 14.5917 6.99104 14.6795 6.89694 14.6984C6.8342 14.7109 6.67737 14.6043 6.67737 14.5541C6.68991 14.2718 6.57699 14.1714 6.29468 14.1463C6.23195 14.1463 6.20058 13.8452 6.15039 13.6821Z" fill="#A57158"/>
<path d="M6.21956 15.7021C6.20701 15.8778 6.19447 16.0597 6.17565 16.2354C5.62358 16.2793 5.61103 16.273 5.58594 15.7084C5.7365 15.6958 5.88707 15.6896 6.06272 15.677C6.07527 15.5264 6.08782 15.3884 6.10036 15.2441C6.13801 15.3947 6.17565 15.5515 6.21956 15.7021Z" fill="#B57E62"/>
<path d="M6.15064 12.6221C5.98126 12.6409 5.81814 12.6597 5.64876 12.6785C5.60485 12.5029 5.56093 12.321 5.51074 12.1453C5.54838 12.1139 5.5923 12.0763 5.62994 12.0449C5.66131 12.0637 5.69895 12.1077 5.73031 12.1014C6.18201 12.0386 6.17573 12.321 6.15064 12.6221Z" fill="#A57158"/>
<path d="M6.90918 16.242C7.24168 16.1792 7.17267 15.9408 7.1413 15.715C7.24795 15.7087 7.34833 15.7025 7.45497 15.6962C7.64945 15.6836 7.67455 15.8091 7.66827 15.9597C7.66827 16.1165 7.67455 16.2608 7.4487 16.2545C7.26677 16.242 7.08484 16.242 6.90918 16.242Z" fill="#B57E62"/>
<path d="M5.64921 12.9922C5.71194 13.0549 5.77468 13.1678 5.83741 13.1678C6.27656 13.1553 6.14481 13.4313 6.1009 13.6635C5.57392 13.7074 5.4861 13.5756 5.64921 12.9922Z" fill="#A57158"/>
<path d="M5.153 14.6866C5.14673 14.9815 5.14046 15.27 5.13418 15.5649C5.09654 15.4018 5.05263 15.245 5.03381 15.0818C5.01499 14.9501 5.02753 14.8184 5.02753 14.6866C5.06518 14.6615 5.10282 14.6364 5.13418 14.6113C5.14046 14.6364 5.14673 14.6615 5.153 14.6866Z" fill="#A57158"/>
<path d="M6.09465 15.2442C5.92527 15.2066 5.76216 15.1626 5.59277 15.125C5.76216 15.1626 5.93154 15.2003 6.09465 15.2442Z" fill="#B57E62"/>
<path d="M4.52558 18.8086C4.56322 18.8588 4.6385 18.909 4.6385 18.9592C4.64478 19.2101 4.63223 19.4548 4.62596 19.7057C4.59459 19.5238 4.55695 19.3356 4.53185 19.1474C4.51303 19.0407 4.52558 18.9215 4.52558 18.8086Z" fill="#794733"/>
<path d="M3.88574 18.7836C3.92966 18.7836 3.97984 18.7836 4.02376 18.7773C3.99867 18.8087 3.97984 18.8464 3.95475 18.8777C3.93593 18.8526 3.91084 18.815 3.88574 18.7836Z" fill="#794733"/>
<path d="M3.09499 12.0957C3.08872 11.9577 3.08245 11.8197 3.07617 11.6816C3.09499 11.6816 3.11381 11.6816 3.13263 11.6816C3.12009 11.8197 3.10754 11.9577 3.09499 12.0957Z" fill="#794733"/>
<path d="M3.64124 15.734C3.62242 15.7591 3.6036 15.7905 3.58478 15.8156C3.56596 15.7717 3.54714 15.734 3.52832 15.6901C3.54714 15.665 3.57223 15.6462 3.59106 15.6211C3.6036 15.6587 3.62242 15.6964 3.64124 15.734Z" fill="#794733"/>
<path d="M3.52229 15.6904C3.54111 15.7343 3.55993 15.772 3.57875 15.8159C3.57875 16.7381 3.57875 17.654 3.57248 18.5762C3.27762 18.5825 3.15215 18.4068 3.15843 18.1433C3.1647 17.309 3.18352 16.4746 3.19607 15.6465C3.30899 15.659 3.41564 15.6779 3.52229 15.6904Z" fill="#58382C"/>
<path d="M17.9443 11.1223C17.9443 10.9529 17.9443 10.7835 17.9443 10.6204C18.3647 10.6141 18.785 10.6141 19.2116 10.6078C19.2304 10.6078 19.2492 10.6078 19.268 10.6078C19.312 10.6078 19.3559 10.6016 19.3998 10.6016C19.4123 10.7772 19.4186 10.9529 19.4312 11.1285C19.268 11.1474 19.1049 11.1662 18.9418 11.1913C18.6031 11.1662 18.2706 11.1474 17.9443 11.1223Z" fill="#A89887"/>
</g>
<defs>
<linearGradient id="paint0_linear_1302_2783" x1="12" y1="0" x2="12" y2="24" gradientUnits="userSpaceOnUse">
<stop stop-color="#97FAF4"/>
<stop offset="1" stop-color="#AFB3FA"/>
</linearGradient>
<linearGradient id="paint1_linear_1302_2783" x1="12" y1="0" x2="12" y2="24" gradientUnits="userSpaceOnUse">
<stop stop-color="#97FAF4"/>
<stop offset="1" stop-color="#AFB3FA"/>
</linearGradient>
</defs>
</svg>
