<svg width="24" height="24" viewBox="0 0 24 24" fill="none" xmlns="http://www.w3.org/2000/svg">
<rect width="24" height="24" fill="white"/>
<path fill-rule="evenodd" clip-rule="evenodd" d="M0 12V24H12H24V12V0H12H0V12Z" fill="#FCFCFC"/>
<path fill-rule="evenodd" clip-rule="evenodd" d="M0 12V24H12H24V12V0H12H0V12ZM10.98 5.53938V5.79882L10.605 5.8677C10.2906 5.92542 10.1945 5.97432 10.0103 6.17022C9.73746 6.4605 9.68952 6.76086 9.73662 7.88478C9.78696 9.08544 9.97086 9.49626 11.1694 11.0851C11.5273 11.5595 11.82 11.9746 11.82 12.0076C11.82 12.0406 11.5616 12.4033 11.2459 12.8138C10.5042 13.7779 10.0624 14.4858 9.8889 14.9879C9.76422 15.3488 9.75 15.4979 9.75 16.4443C9.75 17.4701 9.75408 17.5046 9.9 17.719C10.0723 17.9722 10.3531 18.1249 10.7226 18.1666L10.98 18.1956V18.4578V18.72H7.53H4.08V18.45V18.18L4.395 18.1791C4.79184 18.178 4.98054 18.0843 5.12004 17.8192C5.223 17.6234 5.2281 17.4569 5.19894 15.2273C5.172 13.1654 5.15424 12.8161 5.06724 12.6326C4.94484 12.3747 4.599 12.06 4.4379 12.06C4.37304 12.06 4.32 12.033 4.32 12C4.32 11.967 4.37304 11.94 4.4379 11.94C4.6011 11.94 4.94544 11.624 5.07126 11.3589C5.16558 11.1602 5.17554 10.8982 5.17272 8.69424C5.17044 6.96012 5.14932 6.21216 5.09994 6.11988C5.00796 5.94804 4.68864 5.82 4.35192 5.82H4.08V5.55V5.28H7.53H10.98V5.53938ZM19.92 5.55V5.82H19.6481C19.3175 5.82 18.9925 5.94726 18.9048 6.111C18.8614 6.19212 18.84 7.04748 18.84 8.70198C18.84 10.8488 18.8527 11.1985 18.9367 11.3756C19.0557 11.6265 19.4032 11.94 19.5621 11.94C19.627 11.94 19.68 11.967 19.68 12C19.68 12.033 19.6253 12.06 19.5584 12.06C19.3736 12.06 18.9236 12.5421 18.8818 12.7849C18.8243 13.1189 18.7603 17.1133 18.8066 17.4835C18.8696 17.9877 19.0114 18.1235 19.5169 18.1641L19.92 18.1964V18.4582V18.72H16.47H13.02V18.4583V18.1967L13.3212 18.161C13.6941 18.1169 13.9121 17.992 14.1028 17.7134C14.2459 17.5044 14.2499 17.4678 14.2487 16.4141C14.2475 15.4448 14.2334 15.2924 14.1149 14.9755C13.9195 14.4526 13.5587 13.8742 12.826 12.9085C12.4576 12.423 12.1861 12.0108 12.2039 11.9642C12.2213 11.9188 12.5153 11.5099 12.8571 11.0558C14.0325 9.49392 14.2223 9.06624 14.2661 7.88076C14.308 6.74748 14.2614 6.4593 13.9897 6.17022C13.8055 5.97432 13.7094 5.92542 13.395 5.8677L13.02 5.79882V5.53938V5.28H16.47H19.92V5.55ZM6.1254 5.87682C6.0459 5.89662 5.9244 5.98842 5.8554 6.08076C5.73432 6.24288 5.72934 6.3258 5.71038 8.4927C5.68728 11.1405 5.70642 11.3018 6.0894 11.685C6.22986 11.8255 6.40164 11.94 6.47208 11.94C6.54246 11.94 6.6 11.967 6.6 12C6.6 12.033 6.54528 12.06 6.47844 12.06C6.28788 12.06 5.83554 12.5511 5.77872 12.8197C5.7519 12.9464 5.73 14.1226 5.73 15.4335V17.8171L5.89338 17.9805C6.11154 18.1988 6.4233 18.2039 6.63456 17.9927L6.78588 17.8414L6.783 16.1314C6.77988 14.2837 6.81984 13.9005 7.0698 13.38C7.2879 12.9259 7.86126 12.3626 8.29398 12.1773C8.48316 12.0963 8.63796 12.0165 8.63796 12C8.63796 11.9835 8.48316 11.9037 8.29398 11.8227C7.86126 11.6374 7.2879 11.0741 7.0698 10.62C6.82146 10.1029 6.78 9.71274 6.78 7.89234C6.78 6.05484 6.7722 6.00966 6.43596 5.89656C6.3447 5.8659 6.20496 5.85696 6.1254 5.87682ZM17.5397 5.90796C17.4351 5.9532 17.3203 6.04464 17.2847 6.11118C17.2427 6.1896 17.22 6.83394 17.22 7.9431C17.22 9.77232 17.1866 10.0789 16.9289 10.62C16.713 11.0732 16.1399 11.6369 15.706 11.8227C15.5168 11.9037 15.362 11.9835 15.362 12C15.362 12.0165 15.5168 12.0963 15.706 12.1773C16.1387 12.3626 16.7121 12.9259 16.9302 13.38C17.1788 13.8977 17.22 14.2868 17.22 16.1177V17.8133L17.3622 17.9786C17.5585 18.2068 17.8796 18.2077 18.1066 17.9807L18.27 17.8174L18.2871 15.5283C18.3071 12.8417 18.2899 12.6946 17.9106 12.315C17.7701 12.1745 17.5984 12.06 17.5279 12.06C17.4575 12.06 17.4 12.033 17.4 12C17.4 11.967 17.4575 11.94 17.5279 11.94C17.5984 11.94 17.7701 11.8255 17.9106 11.685C18.291 11.3044 18.3086 11.1546 18.2877 8.46864L18.27 6.18258L18.12 6.03744C17.9191 5.8431 17.7679 5.80932 17.5397 5.90796Z" fill="black"/>
</svg>
