<svg width="24" height="24" viewBox="0 0 24 24" fill="none" xmlns="http://www.w3.org/2000/svg">
<path d="M12 24C18.6274 24 24 18.6274 24 12C24 5.37258 18.6274 0 12 0C5.37258 0 0 5.37258 0 12C0 18.6274 5.37258 24 12 24Z" fill="#090E20"/>
<path d="M16.974 6V6.00005C16.9275 6.00014 16.8818 6.01251 16.8415 6.03584L16.8414 6.03565C16.8414 6.03565 16.117 6.45109 15.8095 6.62098C15.5574 6.76016 15.5391 6.92769 15.5406 6.98431C15.5391 7.04094 15.5574 7.20846 15.8095 7.3477C16.117 7.51753 16.8414 7.93302 16.8414 7.93302L16.8415 7.93273C16.8818 7.95612 16.9275 7.96843 16.974 7.96853C17.0443 7.96853 17.1117 7.94062 17.1614 7.89092C17.2111 7.84118 17.239 7.77377 17.239 7.70348C17.239 7.65696 17.2267 7.61125 17.2034 7.57103C17.1801 7.53076 17.1466 7.49733 17.1063 7.47409L17.1065 7.4737L16.214 6.98426L17.1065 6.49487L17.1063 6.49444C17.1466 6.47125 17.1801 6.43781 17.2034 6.39754C17.2267 6.35728 17.239 6.31157 17.2391 6.26505C17.2391 6.19475 17.2111 6.12735 17.1614 6.07765C17.1117 6.02795 17.0443 6 16.974 6H16.974ZM10.9049 6.14188C10.7852 6.14188 10.6667 6.16546 10.5562 6.21126C10.4456 6.25706 10.3452 6.32418 10.2605 6.4088C10.1759 6.49343 10.1087 6.59389 10.0629 6.70445C10.0171 6.81501 9.99355 6.93351 9.99355 7.05321C9.99355 7.17286 10.0171 7.29141 10.0629 7.40197C10.1087 7.51253 10.1758 7.61298 10.2605 7.69761C10.3451 7.78224 10.4456 7.84936 10.5562 7.89516C10.6667 7.94096 10.7852 7.96454 10.9049 7.96454C11.0246 7.96454 11.1431 7.94096 11.2537 7.89516C11.3642 7.84936 11.4647 7.78224 11.5493 7.69761C11.634 7.61298 11.7011 7.51253 11.7469 7.40197C11.7926 7.29136 11.8162 7.17286 11.8162 7.05321C11.8162 6.8115 11.7202 6.5797 11.5493 6.4088C11.3784 6.23791 11.1466 6.14188 10.9049 6.14188ZM20.2699 9.17978C20.156 9.17998 20.0438 9.20673 19.9421 9.25801C19.8404 9.30925 19.7521 9.38358 19.6843 9.475L19.683 9.47408L18.2354 11.5095L18.238 11.5103C18.1451 11.635 18.0943 11.786 18.0931 11.9415C18.0943 12.097 18.1451 12.248 18.238 12.3727L18.2354 12.3735L19.683 14.4089L19.6843 14.408C19.7521 14.4994 19.8404 14.5738 19.9421 14.625C20.0438 14.6762 20.156 14.703 20.2699 14.7032C20.3659 14.7032 20.4609 14.6843 20.5495 14.6476C20.6382 14.6108 20.7187 14.5571 20.7865 14.4892C20.8544 14.4213 20.9082 14.3408 20.945 14.2522C20.9817 14.1635 21.0006 14.0685 21.0006 13.9726C21.0003 13.822 20.9534 13.6752 20.8665 13.5522L20.8674 13.5517L19.7213 11.9415L20.8674 10.3314L20.8665 10.3307C20.9534 10.2078 21.0003 10.061 21.0006 9.91045C21.0006 9.81452 20.9817 9.7195 20.945 9.63083C20.9083 9.54221 20.8544 9.46162 20.7866 9.39378C20.7187 9.32595 20.6382 9.27211 20.5495 9.2354C20.4609 9.19869 20.3659 9.17978 20.2699 9.17978ZM9.95386 15.8106C9.75121 15.8106 9.58691 15.9829 9.58691 16.1954C9.58701 16.3421 9.66659 16.476 9.79216 16.5406C11.9177 17.8738 13.7859 17.7528 13.7859 17.7528C13.7859 17.7528 15.6541 17.8738 17.7796 16.5406C17.9052 16.476 17.9848 16.3421 17.9849 16.1954C17.9849 15.9829 17.8206 15.8106 17.6179 15.8106C17.5406 15.8108 17.4652 15.8365 17.4026 15.8843L17.3706 15.9056C17.3706 15.9056 15.7766 17.0264 13.7859 16.9922C11.7952 17.0264 10.2012 15.9056 10.2012 15.9056L10.1692 15.8843C10.1066 15.8365 10.0312 15.8107 9.95386 15.8106Z" fill="white"/>
<path d="M14.9387 9.14844C14.8711 9.14892 14.8034 9.15238 14.7359 9.15868C14.6992 9.16229 14.6626 9.16672 14.6262 9.17201C14.584 9.17726 14.5419 9.18365 14.5001 9.19116C14.4663 9.19799 14.4327 9.20555 14.3992 9.21382C14.3553 9.22368 14.3118 9.23485 14.2686 9.24721C14.2378 9.25674 14.2073 9.26689 14.1769 9.27771C14.1323 9.29253 14.0881 9.30865 14.0445 9.32611C14.0164 9.33804 13.9885 9.35051 13.9608 9.36354C13.9164 9.38337 13.8726 9.40453 13.8296 9.42705C13.8043 9.44091 13.7794 9.45524 13.7546 9.47001C13.7107 9.49508 13.6677 9.52149 13.6255 9.5493C13.6036 9.56446 13.5819 9.58 13.5604 9.59587C13.5175 9.62633 13.4756 9.65823 13.4348 9.69147C13.4161 9.7074 13.3976 9.72366 13.3794 9.74021C13.3381 9.7761 13.2981 9.81339 13.2594 9.85207C13.2436 9.86857 13.228 9.88531 13.2126 9.90225C13.1742 9.94305 13.1372 9.98519 13.1018 10.0286C13.0882 10.046 13.0749 10.0635 13.0618 10.0812C13.0269 10.1264 12.9937 10.173 12.9622 10.2207C12.9513 10.238 12.9405 10.2555 12.93 10.2731C12.8992 10.3227 12.87 10.3735 12.8429 10.4252C12.8341 10.4428 12.8255 10.4605 12.8172 10.4783C12.791 10.5316 12.7668 10.5859 12.7446 10.641C12.738 10.6583 12.7316 10.6757 12.7255 10.6932C12.7044 10.7497 12.6854 10.8069 12.6686 10.8647C12.6639 10.8824 12.6594 10.9002 12.655 10.918C12.6395 10.9764 12.6264 11.0355 12.6154 11.0949C12.6125 11.1126 12.6099 11.1304 12.6074 11.1482C12.5977 11.2084 12.5904 11.269 12.5854 11.3299C12.5822 11.3686 12.5799 11.4074 12.5786 11.4462H12.5781V11.4616C12.5773 11.478 12.5768 11.4944 12.5763 11.5109C12.5766 11.5173 12.5768 11.5237 12.577 11.5301H12.5773H12.5781V14.0001H12.5784C12.5806 14.1873 12.6565 14.3662 12.7897 14.4979C12.9228 14.6295 13.1025 14.7034 13.2897 14.7034C13.477 14.7033 13.6566 14.6294 13.7897 14.4978C13.9229 14.3662 13.9987 14.1873 14.001 14.0001H14.0013V13.9918V11.4509C14.0144 11.247 14.0936 11.0528 14.2269 10.8979C14.3602 10.7429 14.5403 10.6357 14.74 10.5923C14.7424 10.5916 14.7447 10.5911 14.747 10.5905C14.7705 10.5858 14.7941 10.5821 14.8178 10.5793C14.8255 10.578 14.8332 10.5769 14.841 10.5758C14.8601 10.5741 14.8792 10.573 14.8984 10.5725C14.9119 10.5715 14.9253 10.5709 14.9387 10.5705C14.9387 10.5705 14.9387 10.5705 14.9388 10.5705C14.9541 10.5709 14.9694 10.5716 14.9847 10.5728C15.0019 10.5733 15.019 10.5743 15.0361 10.5757C15.0452 10.577 15.0543 10.5783 15.0634 10.5798C15.0858 10.5826 15.1081 10.5861 15.1304 10.5905C15.1334 10.5912 15.1364 10.592 15.1394 10.5927C15.1672 10.5987 15.1947 10.6059 15.2219 10.6144C15.4025 10.6717 15.5616 10.7822 15.6784 10.9314C15.7951 11.0807 15.8641 11.2618 15.8761 11.4509V13.9918V14.0001H15.8765C15.8787 14.1873 15.9546 14.3662 16.0877 14.4978C16.2209 14.6294 16.4005 14.7033 16.5878 14.7034C16.775 14.7034 16.9547 14.6295 17.0878 14.4979C17.221 14.3662 17.2969 14.1873 17.2991 14.0001H17.2994V11.5301H17.3002H17.3005C17.3008 11.5237 17.301 11.5173 17.3012 11.5109C17.3008 11.4944 17.3002 11.478 17.2995 11.4616V11.4462H17.2989C17.2976 11.4074 17.2953 11.3686 17.2921 11.3299C17.2871 11.2685 17.2797 11.2073 17.2699 11.1465C17.2676 11.1295 17.265 11.1127 17.2623 11.0958C17.2513 11.0358 17.238 10.9763 17.2224 10.9174C17.2181 10.8998 17.2136 10.8823 17.209 10.8648C17.1922 10.8069 17.1732 10.7497 17.1521 10.6932C17.1459 10.6758 17.1396 10.6583 17.133 10.641C17.1107 10.5856 17.0863 10.531 17.0599 10.4774C17.0518 10.4601 17.0434 10.4428 17.0349 10.4256C17.0076 10.3736 16.9784 10.3227 16.9474 10.2729C16.937 10.2553 16.9263 10.238 16.9154 10.2207C16.8839 10.173 16.8506 10.1264 16.8158 10.0812C16.8027 10.0635 16.7894 10.0459 16.7758 10.0286C16.7404 9.98519 16.7034 9.94305 16.6649 9.90225C16.6496 9.88531 16.634 9.86857 16.6181 9.85207C16.5795 9.81339 16.5395 9.7761 16.4982 9.74021C16.4799 9.72366 16.4615 9.7074 16.4427 9.69147C16.4019 9.65813 16.3599 9.62614 16.3168 9.59563C16.2955 9.5799 16.274 9.56446 16.2522 9.54945C16.2098 9.52149 16.1665 9.49489 16.1223 9.46968C16.0979 9.45505 16.0732 9.44091 16.0482 9.42715C16.005 9.40453 15.961 9.38327 15.9164 9.3634C15.8889 9.35046 15.8611 9.338 15.8331 9.32611C15.7895 9.30865 15.7452 9.29248 15.7006 9.27766C15.6703 9.26689 15.6397 9.25674 15.609 9.24721C15.5658 9.23485 15.5222 9.22368 15.4784 9.21382C15.4449 9.20555 15.4113 9.19799 15.3775 9.19116C15.3356 9.18365 15.2936 9.17726 15.2514 9.17201C15.2149 9.16672 15.1783 9.16229 15.1416 9.15868C15.0742 9.15238 15.0065 9.14892 14.9388 9.14844C14.9388 9.14844 14.9388 9.14844 14.9387 9.14844ZM3.71165 9.19559C3.5229 9.19559 3.34191 9.27054 3.20845 9.404C3.07499 9.53747 3 9.71846 3 9.9072C3.0002 9.95998 3.00627 10.0126 3.01812 10.064L3.01658 10.0643L4.02586 14.1786L4.02774 14.1781C4.06863 14.3288 4.15793 14.4618 4.28186 14.5568C4.4058 14.6517 4.55754 14.7032 4.71366 14.7034C4.86468 14.7032 5.01171 14.655 5.13348 14.5658C5.2553 14.4765 5.34551 14.3508 5.39117 14.2069L5.39208 14.2113L6.14431 12.0644L6.89662 14.2113L6.89749 14.2069C6.94315 14.3508 7.03341 14.4765 7.15518 14.5658C7.27699 14.655 7.42397 14.7032 7.575 14.7034C7.73112 14.7032 7.88286 14.6517 8.0068 14.5568C8.13078 14.4618 8.22007 14.3288 8.26092 14.1781L8.26285 14.1786L9.27213 10.0643L9.27059 10.064C9.28242 10.0126 9.28849 9.95998 9.28868 9.9072C9.28868 9.71846 9.21372 9.53747 9.08026 9.404C8.9468 9.27054 8.7658 9.19559 8.57706 9.19559C8.408 9.19578 8.24456 9.25621 8.11596 9.36595C7.98736 9.47569 7.90206 9.62763 7.87531 9.79453L7.87367 9.79424L7.45563 11.4934L6.81623 9.66698L6.81387 9.66785C6.81344 9.66679 6.81301 9.66573 6.81257 9.66467C6.80589 9.64658 6.79853 9.62878 6.79039 9.61127C6.78857 9.60708 6.78674 9.60295 6.78486 9.59876C6.77649 9.58168 6.76749 9.56489 6.75782 9.54853C6.75551 9.54439 6.75316 9.54031 6.75075 9.53622C6.74089 9.52029 6.7304 9.50475 6.71933 9.48964C6.71645 9.48551 6.71351 9.48137 6.71053 9.47733C6.69951 9.46289 6.68792 9.44894 6.67579 9.43542C6.67199 9.431 6.66814 9.42662 6.66425 9.42234C6.65212 9.40944 6.63947 9.39698 6.62638 9.38505C6.62205 9.38091 6.61767 9.37687 6.61325 9.37283C6.60016 9.36147 6.58664 9.3506 6.57279 9.34026C6.56759 9.33617 6.5623 9.33217 6.55701 9.32823C6.54349 9.31875 6.52968 9.30975 6.51558 9.30119C6.50928 9.29725 6.50293 9.29335 6.49653 9.28955C6.48272 9.2818 6.46863 9.27454 6.45434 9.26771C6.44717 9.2641 6.43995 9.26063 6.43269 9.25727C6.41893 9.2513 6.40497 9.24577 6.39088 9.24067C6.38251 9.2374 6.37404 9.23432 6.36557 9.23138C6.35181 9.22705 6.33795 9.22311 6.324 9.21959C6.31496 9.21709 6.30591 9.21478 6.29682 9.21267C6.2832 9.20978 6.26954 9.20733 6.25578 9.20526C6.24587 9.20352 6.23596 9.20203 6.226 9.20073C6.21315 9.19939 6.20021 9.19838 6.18732 9.19775C6.17308 9.1966 6.15879 9.19588 6.1445 9.19559C6.1444 9.19559 6.14426 9.19559 6.14416 9.19559C6.12958 9.19588 6.11496 9.19664 6.10043 9.19785C6.08802 9.19847 6.07565 9.19944 6.06329 9.20069C6.05256 9.20208 6.04188 9.20367 6.03124 9.20555C6.01825 9.20752 6.00531 9.20983 5.99242 9.21252C5.98284 9.21473 5.97337 9.21719 5.96389 9.21979C5.95018 9.22325 5.93656 9.2271 5.92309 9.23138C5.91462 9.23432 5.90615 9.2374 5.89778 9.24067C5.88369 9.24572 5.86973 9.25125 5.85597 9.25727C5.84871 9.26063 5.84149 9.2641 5.83432 9.26771C5.82008 9.27449 5.80603 9.2818 5.79223 9.2895C5.78559 9.29345 5.77904 9.29744 5.77255 9.30158C5.75874 9.3099 5.74517 9.31875 5.73194 9.32804C5.72636 9.33213 5.72083 9.33631 5.71539 9.34059C5.70168 9.35084 5.68835 9.36162 5.67541 9.37283C5.67098 9.37687 5.66661 9.38091 5.66228 9.38505C5.64919 9.39698 5.63659 9.40939 5.62446 9.42229C5.62047 9.42671 5.61652 9.43119 5.61263 9.43576C5.60065 9.44909 5.5892 9.46289 5.57827 9.47709C5.57515 9.48137 5.57207 9.4857 5.56904 9.49003C5.55807 9.50499 5.54772 9.52039 5.53796 9.53617C5.5355 9.54035 5.53305 9.54459 5.53069 9.54882C5.52112 9.56503 5.51217 9.58168 5.50394 9.59862C5.50197 9.6029 5.5 9.60723 5.49807 9.61161C5.49009 9.62897 5.48272 9.64668 5.47613 9.66462C5.4757 9.66568 5.47522 9.66679 5.47479 9.66785L5.47238 9.66698L4.83303 11.4934L4.41499 9.79424L4.41335 9.79453C4.3866 9.62763 4.3013 9.47569 4.1727 9.36595C4.0441 9.25616 3.88066 9.19578 3.7116 9.19559H3.71165ZM10.9334 9.19563C10.7468 9.19578 10.5677 9.26915 10.4347 9.40006C10.3018 9.53092 10.2255 9.70879 10.2224 9.89537H10.2218V9.90725V13.9918V14.0408H10.2235C10.2359 14.2206 10.3161 14.389 10.4478 14.512C10.5796 14.635 10.7531 14.7034 10.9334 14.7034C11.1135 14.7032 11.2868 14.6347 11.4184 14.5118C11.5501 14.3888 11.6301 14.2205 11.6425 14.0408H11.645V13.9918V9.90725V9.89537H11.6446C11.6415 9.70874 11.5652 9.53087 11.4321 9.39996C11.2991 9.2691 11.12 9.19573 10.9334 9.19563Z" fill="#FBC509"/>
</svg>
