<svg width="25" height="24" viewBox="0 0 25 24" fill="none" xmlns="http://www.w3.org/2000/svg">
<g clip-path="url(#clip0_1657_1081)">
<g clip-path="url(#clip1_1657_1081)">
<path d="M12.707 24C19.3344 24 24.707 18.6274 24.707 12C24.707 5.37258 19.3344 0 12.707 0C6.07961 0 0.707031 5.37258 0.707031 12C0.707031 18.6274 6.07961 24 12.707 24Z" fill="#090E20"/>
<path d="M17.681 6V6.00005C17.6345 6.00014 17.5888 6.01251 17.5486 6.03584L17.5484 6.03565C17.5484 6.03565 16.824 6.45109 16.5165 6.62098C16.2644 6.76016 16.2462 6.92769 16.2476 6.98431C16.2462 7.04094 16.2644 7.20846 16.5165 7.3477C16.824 7.51753 17.5484 7.93302 17.5484 7.93302L17.5486 7.93273C17.5888 7.95612 17.6345 7.96843 17.681 7.96853C17.7513 7.96853 17.8188 7.94062 17.8685 7.89092C17.9182 7.84118 17.9461 7.77377 17.9461 7.70348C17.946 7.65696 17.9337 7.61125 17.9104 7.57103C17.8871 7.53076 17.8536 7.49733 17.8133 7.47409L17.8135 7.4737L16.921 6.98426L17.8136 6.49487L17.8133 6.49444C17.8537 6.47125 17.8871 6.43781 17.9105 6.39754C17.9338 6.35728 17.9461 6.31157 17.9461 6.26505C17.9461 6.19475 17.9182 6.12735 17.8685 6.07765C17.8188 6.02795 17.7514 6 17.6811 6H17.681ZM11.612 6.14188C11.4923 6.14188 11.3738 6.16546 11.2632 6.21126C11.1526 6.25706 11.0522 6.32418 10.9676 6.4088C10.8829 6.49343 10.8158 6.59389 10.77 6.70445C10.7242 6.81501 10.7006 6.93351 10.7006 7.05321C10.7006 7.17286 10.7242 7.29141 10.77 7.40197C10.8158 7.51253 10.8829 7.61298 10.9675 7.69761C11.0521 7.78224 11.1526 7.84936 11.2632 7.89516C11.3738 7.94096 11.4923 7.96454 11.612 7.96454C11.7316 7.96454 11.8501 7.94096 11.9607 7.89516C12.0713 7.84936 12.1717 7.78224 12.2564 7.69761C12.341 7.61298 12.4081 7.51253 12.4539 7.40197C12.4997 7.29136 12.5232 7.17286 12.5232 7.05321C12.5232 6.8115 12.4273 6.5797 12.2563 6.4088C12.0854 6.23791 11.8536 6.14188 11.612 6.14188ZM20.977 9.17978C20.8631 9.17998 20.7508 9.20673 20.6491 9.25801C20.5475 9.30925 20.4592 9.38358 20.3913 9.475L20.39 9.47408L18.9424 11.5095L18.9451 11.5103C18.8521 11.635 18.8014 11.786 18.8001 11.9415C18.8014 12.097 18.8521 12.248 18.9451 12.3727L18.9424 12.3735L20.39 14.4089L20.3913 14.408C20.4592 14.4994 20.5475 14.5738 20.6491 14.625C20.7508 14.6762 20.8631 14.703 20.977 14.7032C21.0729 14.7032 21.1679 14.6843 21.2565 14.6476C21.3452 14.6108 21.4257 14.5571 21.4936 14.4892C21.5615 14.4213 21.6152 14.3408 21.652 14.2522C21.6887 14.1635 21.7076 14.0685 21.7076 13.9726C21.7073 13.822 21.6605 13.6752 21.5735 13.5522L21.5744 13.5517L20.4283 11.9415L21.5744 10.3314L21.5735 10.3307C21.6605 10.2078 21.7073 10.061 21.7076 9.91045C21.7076 9.81452 21.6887 9.7195 21.652 9.63083C21.6153 9.54221 21.5615 9.46162 21.4936 9.39378C21.4257 9.32595 21.3452 9.27211 21.2566 9.2354C21.1679 9.19869 21.0729 9.17978 20.977 9.17978ZM10.6609 15.8106C10.4582 15.8106 10.2939 15.9829 10.2939 16.1954C10.294 16.3421 10.3736 16.476 10.4992 16.5406C12.6248 17.8738 14.4929 17.7528 14.4929 17.7528C14.4929 17.7528 16.3611 17.8738 18.4867 16.5406C18.6122 16.476 18.6918 16.3421 18.6919 16.1954C18.6919 15.9829 18.5276 15.8106 18.325 15.8106C18.2476 15.8108 18.1722 15.8365 18.1097 15.8843L18.0777 15.9056C18.0777 15.9056 16.4836 17.0264 14.4929 16.9922C12.5023 17.0264 10.9082 15.9056 10.9082 15.9056L10.8762 15.8843C10.8136 15.8365 10.7383 15.8107 10.6609 15.8106Z" fill="white"/>
<path d="M15.6458 9.14844C15.5781 9.14892 15.5104 9.15238 15.4429 9.15868C15.4063 9.16229 15.3697 9.16672 15.3332 9.17201C15.291 9.17726 15.249 9.18365 15.2071 9.19116C15.1733 9.19799 15.1397 9.20555 15.1062 9.21382C15.0624 9.22368 15.0188 9.23485 14.9756 9.24721C14.9448 9.25674 14.9143 9.26689 14.884 9.27771C14.8393 9.29253 14.7952 9.30865 14.7515 9.32611C14.7234 9.33804 14.6955 9.35051 14.6679 9.36354C14.6235 9.38337 14.5797 9.40453 14.5366 9.42705C14.5114 9.44091 14.4864 9.45524 14.4617 9.47001C14.4178 9.49508 14.3748 9.52149 14.3326 9.5493C14.3106 9.56446 14.2889 9.58 14.2674 9.59587C14.2245 9.62633 14.1827 9.65823 14.1419 9.69147C14.1231 9.7074 14.1046 9.72366 14.0864 9.74021C14.0451 9.7761 14.0051 9.81339 13.9664 9.85207C13.9506 9.86857 13.935 9.88531 13.9196 9.90225C13.8812 9.94305 13.8442 9.98519 13.8088 10.0286C13.7952 10.046 13.7819 10.0635 13.7689 10.0812C13.734 10.1264 13.7007 10.173 13.6692 10.2207C13.6583 10.238 13.6476 10.2555 13.6371 10.2731C13.6062 10.3227 13.5771 10.3735 13.5499 10.4252C13.5411 10.4428 13.5326 10.4605 13.5243 10.4783C13.498 10.5316 13.4738 10.5859 13.4516 10.641C13.4451 10.6583 13.4387 10.6757 13.4325 10.6932C13.4114 10.7497 13.3924 10.8069 13.3756 10.8647C13.3709 10.8824 13.3664 10.9002 13.3621 10.918C13.3466 10.9764 13.3334 11.0355 13.3224 11.0949C13.3195 11.1126 13.3169 11.1304 13.3144 11.1482C13.3047 11.2084 13.2974 11.269 13.2925 11.3299C13.2892 11.3686 13.287 11.4074 13.2857 11.4462H13.2851V11.4616C13.2844 11.478 13.2838 11.4944 13.2834 11.5109C13.2836 11.5173 13.2838 11.5237 13.2841 11.5301H13.2843H13.2851V14.0001H13.2854C13.2876 14.1873 13.3635 14.3662 13.4967 14.4979C13.6298 14.6295 13.8095 14.7034 13.9968 14.7034C14.184 14.7033 14.3637 14.6294 14.4968 14.4978C14.6299 14.3662 14.7058 14.1873 14.708 14.0001H14.7084V13.9918V11.4509C14.7215 11.247 14.8006 11.0528 14.9339 10.8979C15.0672 10.7429 15.2473 10.6357 15.447 10.5923C15.4494 10.5916 15.4517 10.5911 15.4541 10.5905C15.4775 10.5858 15.5011 10.5821 15.5249 10.5793C15.5326 10.578 15.5403 10.5769 15.548 10.5758C15.5671 10.5741 15.5863 10.573 15.6055 10.5725C15.6189 10.5715 15.6323 10.5709 15.6457 10.5705C15.6458 10.5705 15.6458 10.5705 15.6458 10.5705C15.6612 10.5709 15.6765 10.5716 15.6918 10.5728C15.7089 10.5733 15.726 10.5743 15.7432 10.5757C15.7522 10.577 15.7613 10.5783 15.7704 10.5798C15.7929 10.5826 15.8152 10.5861 15.8374 10.5905C15.8404 10.5912 15.8434 10.592 15.8464 10.5927C15.8742 10.5987 15.9018 10.6059 15.9289 10.6144C16.1096 10.6717 16.2687 10.7822 16.3854 10.9314C16.5022 11.0807 16.5711 11.2618 16.5832 11.4509V13.9918V14.0001H16.5836C16.5857 14.1873 16.6616 14.3662 16.7948 14.4978C16.9279 14.6294 17.1075 14.7033 17.2948 14.7034C17.482 14.7034 17.6617 14.6295 17.7949 14.4979C17.928 14.3662 18.0039 14.1873 18.0061 14.0001H18.0064V11.5301H18.0072H18.0075C18.0078 11.5237 18.008 11.5173 18.0082 11.5109C18.0078 11.4944 18.0072 11.478 18.0065 11.4616V11.4462H18.0059C18.0046 11.4074 18.0024 11.3686 17.9991 11.3299C17.9941 11.2685 17.9867 11.2073 17.977 11.1465C17.9746 11.1295 17.9721 11.1127 17.9693 11.0958C17.9584 11.0358 17.945 10.9763 17.9294 10.9174C17.9252 10.8998 17.9207 10.8823 17.916 10.8648C17.8992 10.8069 17.8803 10.7497 17.8591 10.6932C17.8529 10.6758 17.8466 10.6583 17.84 10.641C17.8177 10.5856 17.7933 10.531 17.7669 10.4774C17.7588 10.4601 17.7505 10.4428 17.7419 10.4256C17.7147 10.3736 17.6855 10.3227 17.6544 10.2729C17.644 10.2553 17.6333 10.238 17.6224 10.2207C17.5909 10.173 17.5577 10.1264 17.5228 10.0812C17.5097 10.0635 17.4964 10.0459 17.4829 10.0286C17.4474 9.98519 17.4104 9.94305 17.372 9.90225C17.3566 9.88531 17.341 9.86857 17.3252 9.85207C17.2865 9.81339 17.2465 9.7761 17.2053 9.74021C17.187 9.72366 17.1685 9.7074 17.1497 9.69147C17.1089 9.65813 17.0669 9.62614 17.0239 9.59563C17.0026 9.5799 16.9811 9.56446 16.9593 9.54945C16.9168 9.52149 16.8735 9.49489 16.8294 9.46968C16.8049 9.45505 16.7802 9.44091 16.7553 9.42715C16.712 9.40453 16.668 9.38327 16.6234 9.3634C16.5959 9.35046 16.5681 9.338 16.5401 9.32611C16.4965 9.30865 16.4523 9.29248 16.4077 9.27766C16.3773 9.26689 16.3468 9.25674 16.316 9.24721C16.2728 9.23485 16.2293 9.22368 16.1854 9.21382C16.152 9.20555 16.1183 9.19799 16.0845 9.19116C16.0426 9.18365 16.0006 9.17726 15.9584 9.17201C15.9219 9.16672 15.8854 9.16229 15.8487 9.15868C15.7813 9.15238 15.7136 9.14892 15.6458 9.14844C15.6458 9.14844 15.6458 9.14844 15.6458 9.14844ZM4.41868 9.19559C4.22994 9.19559 4.04894 9.27054 3.91548 9.404C3.78202 9.53747 3.70703 9.71846 3.70703 9.9072C3.70723 9.95998 3.7133 10.0126 3.72515 10.064L3.72361 10.0643L4.73289 14.1786L4.73477 14.1781C4.77566 14.3288 4.86496 14.4618 4.98889 14.5568C5.11283 14.6517 5.26457 14.7032 5.42069 14.7034C5.57172 14.7032 5.71874 14.655 5.84051 14.5658C5.96233 14.4765 6.05254 14.3508 6.0982 14.2069L6.09911 14.2113L6.85134 12.0644L7.60366 14.2113L7.60452 14.2069C7.65018 14.3508 7.74044 14.4765 7.86221 14.5658C7.98403 14.655 8.13101 14.7032 8.28203 14.7034C8.43815 14.7032 8.58989 14.6517 8.71383 14.5568C8.83781 14.4618 8.92711 14.3288 8.96795 14.1781L8.96988 14.1786L9.97916 10.0643L9.97762 10.064C9.98946 10.0126 9.99552 9.95998 9.99571 9.9072C9.99571 9.71846 9.92075 9.53747 9.78729 9.404C9.65383 9.27054 9.47283 9.19559 9.28409 9.19559C9.11503 9.19578 8.95159 9.25621 8.82299 9.36595C8.69439 9.47569 8.60909 9.62763 8.58234 9.79453L8.5807 9.79424L8.16266 11.4934L7.52326 9.66698L7.5209 9.66785C7.52047 9.66679 7.52004 9.66573 7.5196 9.66467C7.51292 9.64658 7.50556 9.62878 7.49743 9.61127C7.4956 9.60708 7.49377 9.60295 7.49189 9.59876C7.48352 9.58168 7.47452 9.56489 7.46485 9.54853C7.46254 9.54439 7.46019 9.54031 7.45778 9.53622C7.44792 9.52029 7.43743 9.50475 7.42636 9.48964C7.42348 9.48551 7.42054 9.48137 7.41756 9.47733C7.40654 9.46289 7.39495 9.44894 7.38282 9.43542C7.37902 9.431 7.37517 9.42662 7.37128 9.42234C7.35915 9.40944 7.3465 9.39698 7.33341 9.38505C7.32908 9.38091 7.32471 9.37687 7.32028 9.37283C7.30719 9.36147 7.29367 9.3506 7.27982 9.34026C7.27462 9.33617 7.26933 9.33217 7.26404 9.32823C7.25052 9.31875 7.23671 9.30975 7.22261 9.30119C7.21631 9.29725 7.20996 9.29335 7.20356 9.28955C7.18975 9.2818 7.17566 9.27454 7.16137 9.26771C7.1542 9.2641 7.14698 9.26063 7.13972 9.25727C7.12596 9.2513 7.112 9.24577 7.09791 9.24067C7.08954 9.2374 7.08107 9.23432 7.0726 9.23138C7.05884 9.22705 7.04499 9.22311 7.03103 9.21959C7.02199 9.21709 7.01294 9.21478 7.00385 9.21267C6.99024 9.20978 6.97657 9.20733 6.96281 9.20526C6.9529 9.20352 6.94299 9.20203 6.93303 9.20073C6.92018 9.19939 6.90724 9.19838 6.89435 9.19775C6.88011 9.1966 6.86582 9.19588 6.85153 9.19559C6.85143 9.19559 6.85129 9.19559 6.85119 9.19559C6.83661 9.19588 6.82199 9.19664 6.80746 9.19785C6.79505 9.19847 6.78268 9.19944 6.77032 9.20069C6.75959 9.20208 6.74891 9.20367 6.73828 9.20555C6.72529 9.20752 6.71234 9.20983 6.69945 9.21252C6.68988 9.21473 6.6804 9.21719 6.67092 9.21979C6.65721 9.22325 6.64359 9.2271 6.63012 9.23138C6.62165 9.23432 6.61318 9.2374 6.60481 9.24067C6.59072 9.24572 6.57676 9.25125 6.563 9.25727C6.55574 9.26063 6.54852 9.2641 6.54135 9.26771C6.52711 9.27449 6.51307 9.2818 6.49926 9.2895C6.49262 9.29345 6.48607 9.29744 6.47958 9.30158C6.46577 9.3099 6.4522 9.31875 6.43897 9.32804C6.43339 9.33213 6.42786 9.33631 6.42242 9.34059C6.40871 9.35084 6.39538 9.36162 6.38244 9.37283C6.37802 9.37687 6.37364 9.38091 6.36931 9.38505C6.35622 9.39698 6.34362 9.40939 6.33149 9.42229C6.3275 9.42671 6.32355 9.43119 6.31966 9.43576C6.30768 9.44909 6.29623 9.46289 6.28531 9.47709C6.28218 9.48137 6.2791 9.4857 6.27607 9.49003C6.2651 9.50499 6.25475 9.52039 6.24499 9.53617C6.24253 9.54035 6.24008 9.54459 6.23772 9.54882C6.22815 9.56503 6.2192 9.58168 6.21097 9.59862C6.209 9.6029 6.20703 9.60723 6.2051 9.61161C6.19712 9.62897 6.18976 9.64668 6.18316 9.66462C6.18273 9.66568 6.18225 9.66679 6.18182 9.66785L6.17941 9.66698L5.54006 11.4934L5.12202 9.79424L5.12038 9.79453C5.09363 9.62763 5.00833 9.47569 4.87973 9.36595C4.75113 9.25616 4.58769 9.19578 4.41863 9.19559H4.41868ZM11.6404 9.19563C11.4538 9.19578 11.2748 9.26915 11.1418 9.40006C11.0088 9.53092 10.9325 9.70879 10.9294 9.89537H10.9288V9.90725V13.9918V14.0408H10.9305C10.9429 14.2206 11.0231 14.389 11.1549 14.512C11.2866 14.635 11.4602 14.7034 11.6404 14.7034C11.8205 14.7032 11.9939 14.6347 12.1255 14.5118C12.2571 14.3888 12.3372 14.2205 12.3496 14.0408H12.352V13.9918V9.90725V9.89537H12.3516C12.3485 9.70874 12.2722 9.53087 12.1392 9.39996C12.0061 9.2691 11.827 9.19573 11.6404 9.19563Z" fill="#FBC509"/>
</g>
</g>
<defs>
<clipPath id="clip0_1657_1081">
<rect width="24" height="24" fill="white" transform="translate(0.707031)"/>
</clipPath>
<clipPath id="clip1_1657_1081">
<rect width="24" height="24" fill="white" transform="translate(0.707031)"/>
</clipPath>
</defs>
</svg>
