<svg width="24" height="24" viewBox="0 0 24 24" fill="none" xmlns="http://www.w3.org/2000/svg">
<g clip-path="url(#clip0_2372_2629)">
<circle cx="12" cy="12" r="12" fill="black"/>
<mask id="mask0_2372_2629" style="mask-type:luminance" maskUnits="userSpaceOnUse" x="1" y="4" width="22" height="17">
<path d="M22.2863 4.45703H1.71484V20.9911H22.2863V4.45703Z" fill="white"/>
</mask>
<g mask="url(#mask0_2372_2629)">
<path fill-rule="evenodd" clip-rule="evenodd" d="M4.99473 4.46659H5.70962L5.63765 7.2877C8.59699 7.47348 9.56217 7.94694 11.9359 9.72246C13.8433 8.30862 15.8653 7.30414 18.2995 7.28935L18.2962 4.45508L19.0242 4.46494L18.9768 7.10851C18.962 7.90093 18.8704 7.84996 18.0999 7.95353C15.3336 8.32673 14.2703 8.68182 11.9784 10.6382C9.71429 8.92679 8.48412 8.14587 5.82742 7.96669C4.98328 7.90913 4.88676 7.8664 4.94566 7.16769L4.9931 4.46494L4.99473 4.46659Z" fill="white"/>
<path fill-rule="evenodd" clip-rule="evenodd" d="M3.37695 6.05078H4.09184L4.11801 7.54025C4.19163 9.0067 5.43655 8.72066 6.36412 8.86202C9.11894 9.28291 10.0907 10.1411 12.0587 11.984C13.9416 9.58048 16.209 8.93601 19.1127 8.73708C19.5249 8.70914 19.8619 8.13211 19.8684 7.74904L19.9012 6.07051L20.6291 6.08037L20.5539 7.71945C20.513 8.59407 19.8881 9.43579 18.9785 9.49003C15.6118 9.69554 13.9825 10.6491 12.0374 13.1118C10.143 10.9286 8.7885 9.75801 5.77029 9.5262C4.55317 9.52455 3.47511 9.15304 3.43094 7.74904L3.37695 6.05078Z" fill="white"/>
<path fill-rule="evenodd" clip-rule="evenodd" d="M1.71387 7.61594L2.54981 7.60607C2.6496 8.93114 3.43647 10.2513 5.01184 10.3466C7.94828 10.5242 10.461 11.5994 11.7158 14.46L11.9611 15.0173H12.1084C12.2229 14.6325 12.3112 14.4468 12.4944 14.09C14.0027 11.6372 15.8873 10.4814 18.7877 10.3993C20.4237 10.2118 21.2923 9.32735 21.4641 7.5847L22.2853 7.57812C22.0939 9.33393 20.9439 11.0404 19.0806 11.2196C18.3133 11.292 17.7457 11.2739 16.9605 11.4777C15.2215 11.9315 13.8359 13.0247 12.9656 14.8282C12.5501 15.7636 12.3832 16.413 12.3701 17.4389L11.6323 17.4274C11.5603 16.3604 11.4376 15.3428 10.8275 14.4271C9.06723 11.7884 7.89102 11.4432 4.92841 11.1374C2.81319 10.9188 1.99688 9.44409 1.71714 7.61429L1.71387 7.61594Z" fill="#29ABB5"/>
<path fill-rule="evenodd" clip-rule="evenodd" d="M12.0129 6.73047C12.9273 6.73047 13.8025 6.90473 14.6041 7.22203L13.4377 7.74318L13.4328 7.76126C12.9764 7.6544 12.5004 7.59686 12.0112 7.59686C11.5499 7.59686 11.1 7.64782 10.6681 7.74318L9.46413 7.20394C10.2543 6.89816 11.1131 6.73047 12.0112 6.73047H12.0129ZM18.8689 12.0209C19.0243 12.6078 19.1077 13.2243 19.1077 13.8622C19.1077 17.7996 15.9308 20.9922 12.0129 20.9922C8.09489 20.9922 4.91797 17.7996 4.91797 13.8622C4.91797 13.2243 5.0014 12.6062 5.15846 12.0176L6.04509 12.0538C5.87335 12.6259 5.78174 13.2325 5.78174 13.8605C5.78174 17.3195 8.57256 20.1242 12.0145 20.1242C15.4564 20.1242 18.2473 17.3195 18.2473 13.8605C18.2473 13.2325 18.1557 12.6275 17.9839 12.057L18.8706 12.0209H18.8689Z" fill="white"/>
<path fill-rule="evenodd" clip-rule="evenodd" d="M16.017 12.7051C16.3442 12.9846 16.552 13.4021 16.552 13.8674C16.552 14.7091 15.8731 15.393 15.0339 15.393C14.5725 15.393 14.1586 15.1859 13.8789 14.8571L14.3648 14.2258C14.4923 14.4642 14.7443 14.6269 15.0322 14.6269C15.451 14.6269 15.7896 14.2866 15.7896 13.8658C15.7896 13.5748 15.6277 13.3232 15.3888 13.195L16.0154 12.7051H16.017Z" fill="white"/>
<path fill-rule="evenodd" clip-rule="evenodd" d="M8.01246 12.7051C7.68528 12.9846 7.47754 13.4021 7.47754 13.8674C7.47754 14.7091 8.15643 15.393 8.99564 15.393C9.4586 15.393 9.87085 15.1859 10.1506 14.8571L9.66473 14.2258C9.53712 14.4642 9.28518 14.6269 8.99729 14.6269C8.57849 14.6269 8.23985 14.2866 8.23985 13.8658C8.23985 13.5748 8.40181 13.3232 8.64065 13.195L8.01411 12.7051H8.01246Z" fill="white"/>
</g>
</g>
<defs>
<clipPath id="clip0_2372_2629">
<rect width="24" height="24" fill="white"/>
</clipPath>
</defs>
</svg>
