<svg width="24" height="24" viewBox="0 0 24 24" fill="none" xmlns="http://www.w3.org/2000/svg">
<rect width="24" height="24" rx="12" fill="#F7F8FA"/>
<path d="M20.2797 8.50218C19.8242 7.43319 19.1801 6.47424 18.3475 5.64105C17.515 4.80786 16.5724 4.16332 15.5043 3.70742C14.3889 3.23581 13.2108 3 12.0012 3C10.7759 3 9.59773 3.23581 8.4981 3.70742C7.4299 4.16332 6.47166 4.80786 5.63909 5.64105C4.80652 6.47424 4.16246 7.43319 3.7069 8.50218C3.23563 9.60263 3 10.7817 3 12.0079C3 13.2183 3.23563 14.3974 3.7069 15.5135C4.16246 16.5825 4.80652 17.5415 5.63909 18.3747C6.47166 19.2079 7.4299 19.8524 8.4981 20.2926C9.61342 20.7642 10.7916 21 12.0012 21C13.2108 21 14.3889 20.7642 15.5043 20.2926C16.5724 19.8367 17.5307 19.1921 18.3633 18.359C19.1958 17.5258 19.8399 16.5668 20.2955 15.4978C20.7667 14.3817 21.0024 13.2026 21.0024 11.9921C21.0024 10.7817 20.751 9.60263 20.2797 8.50218ZM9.0165 11.1589C9.37779 9.71265 10.6974 8.65937 12.2525 8.65937H18.5046C18.9131 9.42971 19.1644 10.2786 19.2587 11.1589H9.0165ZM19.2587 12.8567C19.1644 13.7371 18.8974 14.586 18.5046 15.3563H12.2525C10.6974 15.3563 9.39349 14.2873 9.0165 12.8567H19.2587ZM6.83296 6.83581C8.21534 5.4524 10.0533 4.69782 12.0012 4.69782C13.9491 4.69782 15.787 5.4524 17.1694 6.83581C17.2165 6.88297 17.248 6.91441 17.295 6.96157H12.2525C10.9016 6.96157 9.64487 7.48035 8.68659 8.4393C7.93258 9.19391 7.44561 10.1371 7.28852 11.1589H4.74368C4.93219 9.52404 5.6548 8.01485 6.83296 6.83581ZM12.0012 19.3179C10.0533 19.3179 8.21534 18.5633 6.83296 17.1799C5.6548 16.0009 4.93219 14.476 4.74368 12.8567H7.28852C7.46132 13.8786 7.94829 14.8218 8.68659 15.5764C9.64487 16.5354 10.9016 17.0542 12.2525 17.0542H17.295C17.248 17.1013 17.2165 17.1328 17.1694 17.1799C15.787 18.5633 13.9491 19.3179 12.0012 19.3179Z" fill="black"/>
</svg>
