<svg width="24" height="24" viewBox="0 0 24 24" fill="none" xmlns="http://www.w3.org/2000/svg">
<circle cx="12" cy="12" r="12" fill="url(#paint0_linear_2743_3862)"/>
<mask id="mask0_2743_3862" style="mask-type:alpha" maskUnits="userSpaceOnUse" x="0" y="0" width="24" height="24">
<circle cx="12" cy="12" r="12" fill="url(#paint1_linear_2743_3862)"/>
</mask>
<g mask="url(#mask0_2743_3862)">
<path d="M18.1096 18.8614C18.065 18.9064 18.0196 18.9517 17.9745 18.9966C17.7438 19.2268 17.5205 19.4496 17.4396 19.5964C17.3428 19.772 16.7256 20.1393 16.4612 20.2315C16.3338 20.2759 16.1776 20.2897 16.0396 20.3018C15.8914 20.3148 15.7641 20.326 15.7162 20.3715C15.6235 20.4592 15.7097 20.9732 15.8287 21.0671C15.9106 21.1317 16.0833 21.1655 16.3058 21.2091C16.4066 21.2289 16.5178 21.2506 16.6353 21.2782C16.8044 21.3178 17.108 21.3033 17.4343 21.2877C17.6338 21.2782 17.8418 21.2683 18.0328 21.2701C18.2246 21.2718 18.3992 21.2855 18.5307 21.3232C18.5314 21.3233 18.532 21.3235 18.5326 21.3237L18.5328 21.3232H18.533L18.533 21.3232C18.5336 21.3234 18.5342 21.3236 18.5349 21.3238C18.6819 21.3663 18.8587 21.4147 19.0328 21.4613L18.1096 18.8614ZM18.1096 18.8614C18.3058 18.6635 18.3157 18.4438 18.3255 18.2274C18.3293 18.1425 18.3332 18.0582 18.3482 17.9758L18.1096 18.8614ZM13.8345 6.38635C13.8825 6.39779 13.9444 6.40908 14.0188 6.42263C14.4894 6.50844 15.4605 6.68549 16.6025 7.57305C16.8604 7.77351 17.076 7.93836 17.2576 8.07715C18.0069 8.65002 18.1755 8.77891 18.3388 9.13536C18.5416 9.57817 18.8148 10.2832 18.7972 10.6393L13.8345 6.38635ZM13.8345 6.38635C13.4816 6.30301 11.2517 6.23354 10.5108 6.57859L13.8345 6.38635ZM19.2966 10.664C19.3104 10.3836 19.2169 10.0391 19.1253 9.76267C19.0266 9.46466 18.9001 9.1602 18.7934 8.92717L18.7934 8.92711C18.6554 8.62587 18.5009 8.43607 18.2142 8.19251C18.0566 8.05873 17.8394 7.89256 17.5438 7.66655C17.363 7.52828 17.1529 7.36762 16.9093 7.17827L16.9093 7.17826C15.6628 6.20948 14.5728 6.01394 14.1107 5.93103C14.0434 5.91896 13.9895 5.90928 13.9503 5.89994L13.9494 5.89974C13.8093 5.86664 13.5584 5.84582 13.2942 5.83327C13.0125 5.81988 12.6659 5.81401 12.3071 5.82195C11.9492 5.82986 11.5714 5.85166 11.2297 5.89529C10.9004 5.93735 10.5581 6.00497 10.2997 6.12533L10.2807 6.13417L10.2625 6.14457C9.4501 6.60923 8.82547 6.81974 8.48079 6.93589C8.44848 6.94678 8.41863 6.95684 8.39132 6.9662L8.39106 6.96629C8.06524 7.07817 7.87276 7.3352 7.76434 7.51257C7.70649 7.6072 7.65956 7.7013 7.62353 7.77574C7.61207 7.79942 7.60224 7.81992 7.59358 7.838C7.58516 7.85555 7.57785 7.87081 7.57122 7.88444C7.56769 7.88576 7.56421 7.88708 7.56089 7.88838C7.53342 7.89913 7.47374 7.92372 7.41164 7.97014C7.3419 8.02228 7.26751 8.10311 7.22389 8.21925C7.18768 8.3157 7.18431 8.40574 7.19104 8.47548C7.19051 8.48227 7.18925 8.49539 7.18616 8.51581C7.17911 8.56246 7.16556 8.62659 7.14393 8.6999C7.0992 8.85152 7.03072 9.00606 6.94616 9.11812L6.94585 9.11853C6.73004 9.40515 6.67894 9.71612 6.65344 9.94056C6.64543 10.011 6.63962 10.0709 6.63452 10.1235C6.62086 10.2643 6.61235 10.3521 6.58061 10.4467C6.46236 10.7975 6.45043 10.976 6.42786 11.3137C6.42038 11.4258 6.41171 11.5554 6.39761 11.7147L6.39757 11.7152C6.33287 12.4532 6.36751 12.998 6.45936 13.4301C6.50849 13.6615 6.55552 13.7743 6.61979 13.9182C6.62241 13.924 6.62508 13.93 6.6278 13.9361C6.67922 14.0509 6.74903 14.2069 6.86421 14.5381L6.86422 14.5382C6.99993 14.9284 7.11561 15.1711 7.23423 15.3628C7.29245 15.4569 7.34752 15.5324 7.39478 15.5962C7.4007 15.6042 7.40645 15.612 7.41205 15.6195C7.45234 15.6738 7.48478 15.7175 7.51964 15.77L19.2966 10.664ZM19.2966 10.664C19.2949 10.6979 19.2991 10.7113 19.2999 10.7137L19.2999 10.7138C19.3009 10.717 19.3038 10.7255 19.3185 10.7474C19.3266 10.7595 19.3367 10.7734 19.3521 10.7939C19.3649 10.8109 19.3877 10.8406 19.4073 10.8676C19.4496 10.9257 19.507 11.0105 19.5514 11.1201L19.2966 10.664ZM4.71289 21.4472C4.93157 21.3363 5.31362 21.1854 5.65275 21.0612C5.91725 20.9643 6.19827 20.8679 6.38274 20.8158C6.46708 20.7536 6.52801 20.7144 6.57875 20.6817C6.68915 20.6107 6.75132 20.5706 6.90147 20.3925L4.71289 21.4472ZM4.71289 21.4472C4.64951 21.4794 4.5957 21.4819 4.55248 21.4764C4.50826 21.4707 4.47758 21.4565 4.47479 21.4552C4.47453 21.4551 4.47451 21.4551 4.47474 21.4552L4.00829 22.3397C10.6086 25.9084 14.6655 25.9197 17.1187 24.8925C18.3403 24.381 19.1253 23.6264 19.6053 22.9944C19.8448 22.6791 20.0084 22.3942 20.1134 22.1847C20.166 22.0799 20.2041 21.9935 20.2297 21.9311C20.2426 21.8999 20.2523 21.8747 20.2593 21.8561L20.2676 21.8333L20.2703 21.8257L20.2712 21.823L20.2716 21.8218C20.2718 21.8213 20.2719 21.8209 19.7984 21.6604L20.2719 21.8209L20.4457 21.3082L19.9208 21.1756L19.9208 21.1756L19.9207 21.1756L19.9204 21.1755L19.9187 21.1751L19.9122 21.1734L19.8867 21.167L19.7916 21.1427C19.7107 21.122 19.5979 21.093 19.4704 21.0597C19.2141 20.9928 18.9031 20.9098 18.6718 20.8429L18.0328 20.6579V20.77C17.8634 20.7686 17.6869 20.7755 17.524 20.783C17.4835 20.7848 17.4441 20.7867 17.4057 20.7885C17.2625 20.7954 17.1333 20.8015 17.0164 20.8033C16.8586 20.8056 16.7778 20.798 16.7494 20.7914C16.6707 20.7729 16.5854 20.7551 16.5055 20.739C16.5461 20.729 16.5865 20.7173 16.6259 20.7036C16.8104 20.6392 17.0677 20.5014 17.2792 20.3686C17.3891 20.2996 17.5005 20.2232 17.5956 20.147C17.6722 20.0857 17.801 19.9766 17.8775 19.8377C17.8773 19.8381 17.8782 19.8364 17.8806 19.8326C17.883 19.8289 17.8865 19.8237 17.8913 19.8171C17.901 19.8035 17.9143 19.7863 17.9319 19.765C17.9675 19.722 18.0138 19.6707 18.0705 19.6112C18.1478 19.53 18.2316 19.4465 18.3215 19.3568C18.3676 19.3108 18.4153 19.2632 18.4647 19.2135L18.4647 19.2134C18.7027 18.9733 18.7797 18.7081 18.8074 18.487C18.8183 18.3999 18.8222 18.3122 18.8251 18.2481C18.8255 18.2389 18.8259 18.2303 18.8263 18.2222C18.8294 18.1559 18.8325 18.113 18.8379 18.0783C18.8548 18.0666 18.8725 18.0535 18.8907 18.0388C18.9943 17.9552 19.0641 17.8428 19.0977 17.7869C19.1406 17.7157 19.1816 17.6363 19.2156 17.5692C19.2273 17.5461 19.2381 17.5245 19.2484 17.5041C19.2707 17.4595 19.2902 17.4207 19.31 17.3834C19.3333 17.3394 19.346 17.3189 19.3497 17.3129C19.3509 17.3109 19.3512 17.3105 19.3505 17.3114C19.4409 17.1954 19.548 16.9898 19.6287 16.8237C19.7162 16.6433 19.8069 16.4372 19.8599 16.2863C19.8732 16.2482 19.8877 16.2143 19.9102 16.1614C19.9134 16.1538 19.9169 16.1458 19.9205 16.1373C19.9475 16.0737 19.9807 15.9938 20.0125 15.8953C20.0776 15.694 20.1274 15.445 20.1514 15.0753C20.1771 14.6795 20.1304 14.3827 20.0234 14.1304C19.9485 13.9536 19.8329 13.7913 19.7653 13.6964C19.7587 13.6872 19.7526 13.6786 19.7471 13.6707C19.7463 13.6625 19.7457 13.6512 19.7456 13.6364C19.745 13.5716 19.7547 13.4836 19.7742 13.3802C19.8105 13.1883 19.8682 13.0051 19.895 12.9197C19.897 12.9135 19.8988 12.9078 19.9004 12.9027L19.9009 12.901C19.9893 12.6153 19.8614 12.3924 19.8196 12.3195L19.8176 12.3159C19.7975 12.2808 19.7875 12.2626 19.7831 12.2548C19.7819 12.2468 19.7807 12.2382 19.7793 12.2289C19.7643 12.1252 19.7375 11.9404 19.7048 11.7526C19.6705 11.5554 19.619 11.2873 19.5514 11.1202L4.71289 21.4472ZM7.86874 17.9564L7.86874 17.9563C7.86207 17.8134 7.86559 17.6056 7.86902 17.4028C7.87053 17.3138 7.87201 17.2259 7.87262 17.1448C7.87369 17.0013 7.8725 16.869 7.86646 16.7581C7.85995 16.6382 7.84928 16.5782 7.8444 16.5613C7.75551 16.2595 7.66725 15.9923 7.51967 15.77L7.86874 17.9564ZM7.86874 17.9564C7.87428 18.0747 7.85964 18.1496 7.82929 18.2421C7.81157 18.2962 7.78953 18.353 7.75783 18.4347L7.75593 18.4395C7.72454 18.5204 7.68693 18.6178 7.64784 18.7333L7.64778 18.7335M7.86874 17.9564L7.64778 18.7335M7.64778 18.7335C7.564 18.9812 7.52438 19.2 7.50563 19.3595C7.50001 19.4073 7.49624 19.4501 7.49371 19.4871M7.64778 18.7335L7.49371 19.4871M7.49371 19.4871C7.49132 19.4912 7.48887 19.4954 7.48635 19.4997C7.44368 19.573 7.384 19.6739 7.31599 19.7847C7.17457 20.015 7.01558 20.2572 6.90148 20.3925L7.49371 19.4871ZM19.7495 13.6887C19.7495 13.6887 19.7495 13.6885 19.7494 13.6881L19.7495 13.6887ZM18.8401 18.0656C18.845 18.0383 18.8492 18.0203 18.8521 18.0091C18.8551 17.9977 18.8561 17.9965 18.8538 18.0021C18.8514 18.0081 18.8448 18.0231 18.8318 18.0429C18.8277 18.0491 18.8233 18.0554 18.8185 18.0616L18.8401 18.0656ZM16.0961 20.6477C16.0961 20.6477 16.0969 20.648 16.0983 20.6486C16.0967 20.648 16.096 20.6477 16.0961 20.6477ZM8.36531 17.9332L8.36528 17.9332L8.36531 17.9332Z" fill="#90FF4A" stroke="#90FF4A" stroke-miterlimit="10"/>
<path d="M10.9111 16.9999C11.0679 16.9999 11.0685 16.7559 10.9111 16.7559C10.7536 16.7559 10.7536 16.9999 10.9111 16.9999Z" fill="black"/>
<path d="M2.42439 11.7344L1.05859 14.0858C1.05859 14.0858 1.99356 13.8901 2.04699 14.2189C2.10041 14.5476 2.04699 17.2602 2.04699 17.2602H3.55831C3.55831 17.2602 3.4287 14.4828 3.4287 14.1586C3.4287 13.8344 4.51938 13.9948 4.51938 13.9948L2.42439 11.7344Z" fill="url(#paint2_linear_2743_3862)"/>
<path d="M20.8515 5.7793L19.6562 7.80189C19.6562 7.80189 20.4884 7.91679 20.5276 8.1574C20.5668 8.398 20.6811 9.69201 20.6811 9.69201H21.2852C21.2852 9.69201 21.1562 8.56352 21.1562 8.32634C21.1562 8.08915 22.0275 8.19661 22.0275 8.19661L20.8515 5.7793Z" fill="url(#paint3_linear_2743_3862)"/>
<path d="M3.95964 8.41797L3.29297 9.75632C3.29297 9.75632 3.82949 10.0253 3.87212 10.2967C3.91476 10.568 3.88353 12.077 3.88353 12.077L4.58485 12.66C4.73891 12.788 4.97249 12.6793 4.97304 12.4791C4.97646 11.7431 4.98158 10.4377 4.98158 10.2472C4.98158 9.97985 5.65454 9.73125 5.65454 9.73125L3.95909 8.41797H3.95964Z" fill="url(#paint4_linear_2743_3862)"/>
<path d="M4.74297 22.3503L4.73145 22.3438C4.73145 22.3438 4.73586 22.3465 4.74297 22.3503Z" fill="#FFD7B6"/>
<path d="M18.5964 21.7605C18.1349 21.6195 17.1221 21.8043 16.7566 21.7139C16.3912 21.6234 16.0899 21.5938 15.9745 21.4977C15.8592 21.4016 15.7756 20.8754 15.8654 20.7856C15.9552 20.6957 16.3315 20.7367 16.5878 20.6423C16.8441 20.5479 17.4426 20.1719 17.5364 19.9921C17.6302 19.8124 17.9212 19.5217 18.1861 19.2397C18.4509 18.9575 18.3657 18.6322 18.4174 18.333C18.4691 18.0338 18.5282 18.0935 18.6391 17.9991C18.7499 17.9047 18.9039 17.4775 19.0068 17.3382C19.1096 17.1988 19.3404 16.6903 19.4257 16.4338C19.511 16.1772 19.6394 16.0231 19.682 15.3304C19.7247 14.6376 19.5194 14.4493 19.3484 14.1757C19.1773 13.9021 19.4166 13.132 19.4598 12.9863C19.5024 12.8408 19.3574 12.7554 19.3313 12.5672C19.3052 12.3789 19.2199 11.7287 19.1347 11.5064C19.0494 11.284 18.8357 11.1867 18.8528 10.8221C18.8698 10.4575 18.605 9.73573 18.4083 9.2824C18.2116 8.82906 18.007 8.73526 16.7248 7.68295C15.4425 6.6307 14.3825 6.55392 14.0409 6.46804C13.6988 6.38272 11.5367 6.3116 10.8183 6.66486C9.91232 7.21199 9.22857 7.43442 8.92051 7.54591C8.613 7.6574 8.47602 8.09304 8.36466 8.30693C8.25323 8.52082 8.06514 8.4355 8.08276 8.56345C8.10033 8.69141 8.00598 9.2136 7.74909 9.57307C7.49275 9.93255 7.59509 10.3859 7.4672 10.788C7.33875 11.1901 7.37339 11.2499 7.31314 11.9682C7.25349 12.6866 7.28758 13.1917 7.36431 13.5728C7.44103 13.9544 7.49275 13.893 7.74055 14.6455C7.98841 15.3981 8.13387 15.4925 8.32202 15.7916C8.51018 16.0908 8.61246 16.4332 8.69827 16.7409C8.78353 17.0487 8.72388 17.9041 8.7409 18.2892C8.75797 18.6743 8.63862 18.8455 8.50164 19.2726C8.36466 19.7004 8.37319 20.0251 8.37319 20.0251C8.37319 20.0251 7.9628 20.7947 7.68944 21.1371C7.41603 21.4795 7.2705 21.5136 7.03124 21.7105C6.80052 21.7616 5.7831 22.1467 5.41594 22.3435C5.08971 22.5181 4.80379 22.3827 4.74414 22.3504C17.4222 29.5882 19.8235 22.1052 19.8235 22.1052C19.8235 22.1052 19.0579 21.901 18.5964 21.7599V21.7605Z" fill="url(#paint5_linear_2743_3862)"/>
<path d="M8.63528 17.6778V16.9054C8.63528 16.8861 8.63979 16.865 8.63467 16.8468C8.55398 16.5852 8.52611 16.3053 8.37833 16.0658C8.19475 15.7678 7.99642 15.4777 7.8276 15.1712C7.74465 15.0204 7.71336 14.8413 7.65994 14.6741C7.64744 14.6342 7.64402 14.5904 7.62755 14.5529C7.56845 14.4164 7.51332 14.2839 7.49453 14.1297C7.47978 14.008 7.38317 13.8982 7.33767 13.7771C7.29845 13.673 7.27345 13.5615 7.25356 13.4517C7.22856 13.3152 7.20014 13.1759 7.19959 13.0382C7.19959 12.6912 7.21093 12.3437 7.22399 11.9968C7.23478 11.7186 7.25241 11.4411 7.27345 11.1635C7.27912 11.0884 7.2973 11.0105 7.32688 10.9411C7.41269 10.7374 7.47581 10.5339 7.49679 10.3086C7.52863 9.96788 7.57864 9.62493 7.81229 9.34389C7.88334 9.25863 7.91286 9.15568 7.92085 9.03846C7.93219 8.86787 7.96513 8.69722 8.00892 8.5317C8.026 8.46687 8.08961 8.40655 8.1459 8.3605C8.29654 8.2359 8.43517 8.11191 8.51531 7.92083C8.58295 7.75872 8.68413 7.60173 8.83648 7.49988C8.91772 7.44584 9.02006 7.4237 9.111 7.38443C9.33154 7.28886 9.54408 7.16828 9.77255 7.10064C10.034 7.02325 10.2585 6.88334 10.4847 6.74739C10.7064 6.6137 10.94 6.52557 11.1849 6.44592C11.4385 6.36346 11.6897 6.34358 11.95 6.34126C12.3433 6.3373 12.7366 6.31967 13.13 6.31455C13.4874 6.30998 13.8427 6.30375 14.1939 6.40951C14.5383 6.51362 14.8993 6.56595 15.2431 6.67231C15.4659 6.74117 15.6967 6.80881 15.8854 6.96579C15.9712 7.03691 16.0854 7.07332 16.1775 7.13815C16.2889 7.21664 16.389 7.31051 16.4969 7.39412C16.5918 7.46749 16.6919 7.53403 16.7868 7.6074C17.0244 7.7894 17.2614 7.972 17.4973 8.15631C17.6178 8.25011 17.7485 8.33604 17.8519 8.44637C18.0225 8.62898 18.185 8.82121 18.3305 9.02425C18.426 9.15739 18.4925 9.31267 18.5607 9.46337C18.646 9.65165 18.7346 9.84102 18.7932 10.0384C18.8727 10.3069 18.9756 10.5725 18.9477 10.8648C18.9352 10.994 18.9626 11.1288 19.0557 11.2301C19.2479 11.4382 19.2939 11.7055 19.3746 11.962C19.4326 12.1457 19.4178 12.3278 19.4269 12.512C19.4297 12.5718 19.4411 12.6361 19.4672 12.689C19.5377 12.8318 19.5474 12.9785 19.5013 13.1252C19.4167 13.3977 19.3803 13.6775 19.3842 13.9602C19.3854 14.0478 19.4303 14.1394 19.4718 14.2207C19.5173 14.31 19.5832 14.3885 19.6383 14.4727C19.6503 14.4909 19.6577 14.5142 19.6622 14.5358C19.7526 14.9693 19.7418 15.4084 19.731 15.8463C19.727 16.009 19.6986 16.1671 19.5804 16.3088C19.5099 16.3929 19.5065 16.5317 19.4701 16.6449C19.4564 16.687 19.4417 16.7319 19.415 16.7655C19.3047 16.9065 19.1859 17.0414 19.1763 17.2353C19.1746 17.266 19.141 17.2956 19.1205 17.3241C19.0813 17.3792 19.033 17.4298 19.0023 17.489C18.9438 17.6033 18.8989 17.7244 18.8398 17.8388C18.8045 17.907 18.7636 17.9776 18.7085 18.0282C18.5561 18.1675 18.4783 18.3342 18.4635 18.5401C18.4499 18.7301 18.4288 18.9217 18.3879 19.1072C18.3708 19.1845 18.3021 19.2562 18.2436 19.3182C18.0753 19.4973 17.8934 19.664 17.732 19.8489C17.6439 19.9501 17.5968 20.0866 17.5132 20.193C17.4626 20.2578 17.3813 20.3022 17.3069 20.3438C17.1432 20.4359 16.9744 20.5184 16.8101 20.6094C16.5856 20.7334 16.3548 20.8312 16.0906 20.8136C16.0485 20.8107 16.0036 20.8079 15.9644 20.8192C15.9349 20.8278 15.8911 20.8596 15.8905 20.8813C15.8894 20.9802 15.8882 21.0831 15.9132 21.1776C15.9366 21.2629 15.9957 21.3386 16.0354 21.4199C16.0661 21.4824 16.111 21.5188 16.181 21.5132C16.3844 21.4973 16.5737 21.5547 16.763 21.6173C16.8079 21.632 16.859 21.6343 16.9073 21.6343C17.2756 21.6355 17.6439 21.6286 18.0117 21.6372C18.2515 21.6428 18.4931 21.6582 18.7301 21.6924C18.8727 21.7128 19.0069 21.7839 19.1478 21.8215C19.3564 21.8778 19.5684 21.9221 19.777 21.9778C19.8174 21.9886 19.8509 22.0257 19.8878 22.0507C19.852 22.0774 19.8202 22.1167 19.7799 22.128C19.7349 22.1406 19.681 22.1383 19.6349 22.1252C19.3331 22.0416 19.0336 21.9477 18.7301 21.8704C18.6028 21.8379 18.4675 21.8289 18.3356 21.8249C17.8997 21.8129 17.4637 21.8032 17.0278 21.8027C16.8562 21.8027 16.693 21.7765 16.5288 21.7304C16.4145 21.6986 16.2935 21.6821 16.1747 21.6758C16.0303 21.6684 15.9269 21.6156 15.8683 21.4785C15.8365 21.4039 15.7813 21.338 15.7592 21.2618C15.733 21.1702 15.724 21.0718 15.72 20.9757C15.7137 20.8266 15.7046 20.8124 15.5575 20.8119C15.3455 20.8113 15.1335 20.8039 14.922 20.8141C14.7231 20.8238 14.5429 20.7754 14.369 20.6862C14.3371 20.67 14.3033 20.658 14.2684 20.6503C13.9893 20.59 13.7563 20.4393 13.5153 20.2954C13.2595 20.1424 13.0879 19.9081 12.8747 19.7152C12.711 19.5668 12.5496 19.4149 12.3814 19.2721C12.3012 19.2039 12.2041 19.1572 12.1205 19.0924C11.9688 18.9752 11.813 18.8609 11.6743 18.7289C11.4004 18.4685 11.1344 18.2 10.8712 17.9286C10.7888 17.8439 10.7251 17.7404 10.657 17.642C10.5717 17.5197 10.4978 17.3894 10.4069 17.2717C10.3159 17.1546 10.2534 17.0362 10.2608 16.881C10.2659 16.7723 10.2483 16.6614 10.2335 16.5528C10.2284 16.5164 10.2085 16.4754 10.1818 16.4498C10.0283 16.3008 10.0011 16.1114 10.0005 15.9117C10.0005 15.7849 9.99425 15.6569 10.0028 15.5307C10.0085 15.4453 10.0346 15.3617 10.0499 15.2769C10.0568 15.2388 10.0613 15.2002 10.0658 15.162C10.071 15.1206 10.067 15.0751 10.0829 15.0375C10.0943 15.0102 10.1318 14.9766 10.1562 14.9778C10.1801 14.9789 10.221 15.0199 10.2216 15.0449C10.2261 15.1632 10.2545 15.2861 10.1858 15.3981C10.1727 15.4197 10.1619 15.447 10.1625 15.4715C10.1676 15.7075 10.1284 15.9481 10.2136 16.1779C10.2324 16.2286 10.258 16.2809 10.2949 16.319C10.3893 16.4174 10.4251 16.534 10.4268 16.6648C10.4279 16.7302 10.4302 16.795 10.4268 16.8605C10.4194 16.9867 10.4762 17.084 10.553 17.1779C10.6291 17.2706 10.7115 17.3633 10.7621 17.4696C10.8479 17.6499 10.9667 17.7973 11.1105 17.9332C11.3094 18.1209 11.4959 18.3223 11.6937 18.5111C11.7965 18.6095 11.9199 18.6863 12.021 18.7858C12.208 18.9701 12.4524 19.0759 12.6326 19.275C12.8729 19.5403 13.1334 19.7866 13.4118 20.0116C13.6761 20.2248 13.9654 20.4103 14.3076 20.4905C14.4076 20.5138 14.4997 20.5695 14.5997 20.594C14.7151 20.6224 14.8345 20.6469 14.9527 20.6492C15.3369 20.656 15.7217 20.6515 16.1059 20.652C16.2514 20.652 16.3822 20.6122 16.518 20.5553C16.7096 20.475 16.8912 20.3727 17.0591 20.2504C17.0824 20.234 17.112 20.2198 17.1398 20.2169C17.3205 20.1993 17.4177 20.0753 17.4802 19.9291C17.5655 19.7311 17.7223 19.6043 17.8752 19.4672C17.9878 19.3665 18.0889 19.2511 18.185 19.1345C18.2168 19.0958 18.2242 19.0332 18.2322 18.9803C18.2686 18.7341 18.2884 18.4844 18.3424 18.2421C18.3641 18.1465 18.451 18.0584 18.5249 17.9827C18.6141 17.8911 18.6641 17.7865 18.713 17.6704C18.7732 17.5259 18.8716 17.3968 18.9506 17.2598C18.9773 17.2137 18.9949 17.163 19.0188 17.1158C19.0756 17.0009 19.1188 16.8752 19.195 16.7746C19.2689 16.6768 19.3178 16.5789 19.3308 16.4595C19.3433 16.3503 19.382 16.2541 19.4604 16.1717C19.5628 16.0636 19.5628 15.918 19.565 15.7843C19.569 15.4948 19.569 15.2042 19.5428 14.9164C19.5218 14.682 19.4684 14.4516 19.2899 14.2685C19.2422 14.2196 19.2217 14.1263 19.22 14.0529C19.216 13.8578 19.22 13.6616 19.2399 13.4682C19.2524 13.3476 19.2967 13.2299 19.3314 13.1127C19.3751 12.966 19.3496 12.8323 19.2768 12.7003C19.2552 12.6611 19.2552 12.6054 19.2575 12.5576C19.2683 12.3278 19.2194 12.1105 19.17 11.8864C19.12 11.66 19.0126 11.4797 18.8926 11.2932C18.8341 11.2016 18.7812 11.0815 18.7875 10.978C18.8074 10.6464 18.6982 10.345 18.6079 10.0378C18.5016 9.67665 18.318 9.35133 18.1276 9.03163C17.936 8.70973 17.6542 8.47254 17.354 8.25584C17.2358 8.17052 17.1142 8.08861 17 7.99761C16.7596 7.80647 16.531 7.59886 16.2827 7.41858C16.0025 7.21549 15.7115 7.03465 15.3806 6.90779C15.0317 6.77471 14.6702 6.70415 14.3155 6.60236C13.758 6.44196 13.1873 6.47611 12.619 6.47892C12.3098 6.48062 12.0006 6.4863 11.6925 6.5085C11.547 6.51874 11.4044 6.56821 11.2617 6.60632C11.1463 6.63706 11.027 6.66268 10.9201 6.71385C10.7246 6.80771 10.5376 6.9192 10.3466 7.0227C10.1937 7.10631 10.0494 7.20073 9.87263 7.24336C9.71119 7.28263 9.56171 7.37137 9.40594 7.43621C9.28659 7.48567 9.16839 7.5397 9.04507 7.57837C8.91662 7.6182 8.83362 7.70242 8.77452 7.81501C8.6404 8.07037 8.52105 8.33488 8.25843 8.49413C8.17603 8.5442 8.14249 8.62666 8.14303 8.7279C8.14303 8.79731 8.11693 8.86726 8.10498 8.93722C8.09247 9.01059 8.09192 9.08682 8.07143 9.15794C8.04698 9.24381 8.01916 9.332 7.97312 9.40708C7.86059 9.59023 7.73953 9.7671 7.7094 9.98782C7.69177 10.1186 7.65707 10.2489 7.65427 10.3797C7.64969 10.6208 7.55992 10.8336 7.47069 11.0497C7.44794 11.1055 7.43086 11.1663 7.4269 11.226C7.41952 11.3267 7.43147 11.4285 7.42348 11.5287C7.40817 11.7283 7.38542 11.9268 7.36609 12.1259C7.36278 12.1614 7.36032 12.1971 7.35871 12.2328C7.35133 12.3921 7.33651 12.5513 7.33938 12.71C7.34163 12.8426 7.36383 12.9745 7.37914 13.1065C7.38597 13.1645 7.41214 13.2231 7.40701 13.2788C7.38488 13.5069 7.48093 13.6952 7.58376 13.8863C7.627 13.9659 7.63951 14.0626 7.66335 14.1525C7.67244 14.1866 7.66903 14.2247 7.68043 14.2577C7.76453 14.5023 7.8498 14.7468 7.93841 14.9897C7.96177 15.0529 7.99355 15.1143 8.0288 15.1717C8.21299 15.4692 8.39998 15.7644 8.58411 16.0619C8.6057 16.0971 8.61711 16.1393 8.62961 16.1796C8.67505 16.3286 8.72109 16.4777 8.76202 16.6279C8.77793 16.687 8.79044 16.749 8.79099 16.8099C8.79324 17.39 8.80178 17.9702 8.78647 18.5498C8.7819 18.7164 8.72561 18.8893 8.65913 19.0446C8.55282 19.2932 8.4761 19.5406 8.4761 19.8147C8.4761 19.92 8.43633 20.0332 8.38803 20.1293C8.25275 20.3989 8.11406 20.6685 7.95549 20.9244C7.86456 21.0706 7.73892 21.198 7.6145 21.3198C7.53033 21.4017 7.42068 21.4574 7.32462 21.5274C7.30071 21.545 7.28595 21.5746 7.26723 21.599C7.29449 21.6104 7.32065 21.6275 7.34907 21.632C7.38713 21.6383 7.43031 21.6252 7.46502 21.6377C7.50021 21.6502 7.52808 21.6838 7.55937 21.7083C7.52924 21.7372 7.50307 21.7839 7.46843 21.7913C7.37689 21.8106 7.27912 21.8306 7.18818 21.8186C6.85567 21.7737 6.56414 21.9125 6.2623 22.0063C6.18503 22.0302 6.10318 22.045 6.03042 22.0797C5.93491 22.1252 5.8463 22.1844 5.75591 22.2395C5.58483 22.3448 5.42114 22.4642 5.20176 22.4483C5.06588 22.4386 4.92834 22.4466 4.79136 22.4466C4.76526 22.4466 4.73513 22.4534 4.71409 22.4431C4.67371 22.4233 4.63846 22.3925 4.60156 22.3669C4.63962 22.339 4.67658 22.2896 4.71634 22.2873C4.88516 22.2776 5.05508 22.2788 5.22451 22.2827C5.38589 22.2867 5.52171 22.2162 5.62686 22.1127C5.76042 21.9807 5.92583 21.9352 6.09184 21.88C6.23675 21.8323 6.38056 21.781 6.52663 21.7379C6.62836 21.7077 6.7318 21.677 6.8364 21.6673C6.92617 21.6588 6.98985 21.6366 7.05407 21.5655C7.13421 21.4762 7.24387 21.4142 7.33767 21.3369C7.5207 21.1861 7.71507 21.0405 7.81284 20.8164C7.92377 20.5604 8.05651 20.3143 8.20957 20.081C8.2738 19.9831 8.31356 19.8511 8.31527 19.734C8.31984 19.4638 8.39712 19.2198 8.49714 18.973C8.56648 18.8018 8.61027 18.6135 8.62619 18.4292C8.64778 18.18 8.63126 17.9275 8.63126 17.6767L8.63528 17.6778Z" fill="black"/>
<path d="M11.558 11.0664C11.8496 11.1107 12.0928 11.0226 12.3406 10.9549C12.7379 10.8468 13.1375 10.7467 13.5359 10.642C13.6422 10.6141 13.7473 10.58 13.8542 10.5533C14.0787 10.497 14.2969 10.5476 14.5197 10.5806C14.792 10.621 15.0216 10.774 15.2836 10.8349C15.3433 10.8491 15.4047 10.8622 15.4649 10.8639C15.6377 10.8679 15.8105 10.8605 15.9828 10.8661C16.372 10.8792 16.762 10.8929 17.1508 10.919C17.2235 10.9241 17.2945 10.985 17.3621 11.0265C17.3746 11.0339 17.3695 11.0703 17.3729 11.0931C17.3525 11.0931 17.3241 11.1022 17.3121 11.0919C17.1877 10.9862 17.0393 11.0055 16.8933 11.0015C16.3828 10.9879 15.8719 10.9816 15.3626 10.9481C15.1995 10.9373 15.029 10.8741 14.8846 10.7939C14.7181 10.7018 14.5385 10.6881 14.364 10.6471C14.1236 10.5908 13.8911 10.629 13.6564 10.7086C13.4512 10.778 13.233 10.8064 13.021 10.8571C12.9426 10.8758 12.8675 10.9088 12.7896 10.9304C12.5053 11.0094 12.2207 11.0875 11.9359 11.1648C11.9115 11.1716 11.8842 11.1693 11.8581 11.1699C11.6244 11.1779 11.3903 11.1863 11.1567 11.1915C11.1254 11.1921 11.0942 11.1704 11.0629 11.1591C11.0885 11.1415 11.1129 11.1124 11.1403 11.109C11.288 11.0908 11.4369 11.0789 11.5585 11.0675L11.558 11.0664ZM16.4954 17.025C16.5619 17.0557 16.6284 17.0864 16.6949 17.1166C16.7773 17.1547 16.8381 17.1342 16.833 17.05C16.8177 16.8146 17.0063 16.6746 17.0785 16.4812C17.0922 16.4454 17.1206 16.4153 17.1365 16.38C17.2042 16.2287 17.1945 16.2008 17.0774 16.0825C16.8967 15.8999 16.7 15.7276 16.5489 15.5223C16.4335 15.3653 16.3595 15.1696 16.3448 14.9648C16.3397 14.8938 16.3351 14.8203 16.347 14.7504C16.3539 14.7106 16.3942 14.6759 16.4193 14.6395C16.4465 14.6736 16.4909 14.7043 16.4982 14.7424C16.5187 14.8437 16.5073 14.9529 16.5374 15.0501C16.6023 15.2595 16.6767 15.4631 16.8552 15.615C17.0132 15.7492 17.1484 15.9096 17.2996 16.0524C17.4087 16.1553 17.3559 16.2747 17.3207 16.3698C17.2616 16.529 17.1734 16.6803 17.0803 16.823C17.033 16.8948 17.0046 16.9596 16.9996 17.0443C16.9955 17.108 16.9757 17.1803 16.9387 17.2309C16.8443 17.3606 16.7824 17.364 16.6403 17.2844C16.5789 17.2497 16.5113 17.2258 16.4448 17.2019C16.3971 17.1848 16.3237 17.1859 16.3419 17.116C16.3505 17.083 16.4175 17.0648 16.459 17.0415C16.4664 17.0375 16.4784 17.0409 16.488 17.0409L16.496 17.0239L16.4954 17.025ZM14.1162 18.2058C14.3373 18.2638 14.5311 18.3065 14.7198 18.3662C14.9562 18.4413 15.1921 18.4976 15.4445 18.4822C15.6616 18.4691 15.881 18.4885 16.0981 18.4771C16.334 18.4652 16.5693 18.439 16.8035 18.41C16.9416 18.3929 17.1376 18.5641 17.1195 18.7041C17.1155 18.7337 17.0876 18.7712 17.0609 18.7837C17.0433 18.7922 17.0035 18.7683 16.9808 18.7501C16.9592 18.7325 16.9461 18.7035 16.9319 18.6779C16.8933 18.6097 16.8404 18.588 16.7609 18.6011C16.6523 18.6188 16.5414 18.6313 16.4318 18.6318C15.9662 18.6352 15.5008 18.6455 15.0358 18.6273C14.8687 18.6205 14.705 18.5403 14.5391 18.4936C14.4669 18.4737 14.3947 18.4555 14.3231 18.4344C14.2168 18.4026 14.1134 18.3924 14.0139 18.4584C13.9906 18.4737 13.957 18.4862 13.9315 18.4811C13.9008 18.4748 13.8627 18.4549 13.8485 18.4293C13.8371 18.4094 13.8485 18.356 13.8661 18.3446C13.9519 18.29 14.044 18.2445 14.1162 18.2052V18.2058ZM13.1108 9.89861C13.5899 9.88556 14.0315 9.87245 14.4731 9.86336C14.5334 9.8622 14.5965 9.87415 14.6539 9.89239C14.8767 9.96234 15.0978 10.038 15.32 10.1102C15.3382 10.1165 15.3586 10.1199 15.3774 10.1199C15.7486 10.1165 16.1191 10.1113 16.4903 10.1079C16.6955 10.1062 16.9006 10.0977 17.1053 10.1091C17.1814 10.113 17.261 10.1557 17.3281 10.1978C17.4679 10.2854 17.6015 10.3838 17.7356 10.48C17.7503 10.4901 17.7538 10.5163 17.7628 10.5351C17.7339 10.5397 17.6964 10.5578 17.677 10.5459C17.577 10.4856 17.4804 10.4196 17.3854 10.3514C17.2371 10.245 17.0825 10.1768 16.891 10.1847C16.4886 10.2012 16.0845 10.1933 15.6821 10.2137C15.3478 10.2308 15.0341 10.1563 14.7357 10.0266C14.5072 9.92764 14.2782 9.95094 14.0457 9.95667C13.981 9.95838 13.9167 9.96917 13.8519 9.97198C13.5404 9.98796 13.2284 9.99302 12.9181 10.0209C12.7055 10.0397 12.4964 10.0932 12.2849 10.1238C12.1826 10.1387 12.078 10.1398 11.974 10.1392C11.9501 10.1392 11.9268 10.1074 11.903 10.0903C11.9263 10.0772 11.9484 10.055 11.9729 10.0522C12.2076 10.0243 12.4435 10.0039 12.6777 9.97314C12.8345 9.95265 12.9891 9.9191 13.1108 9.89751V9.89861ZM9.12821 21.8273C9.08954 21.8233 9.04691 21.8278 9.01337 21.8131C8.98269 21.7994 8.9611 21.7636 8.93555 21.738C8.96336 21.7146 8.98781 21.684 9.0202 21.6703C9.04807 21.6583 9.08558 21.6708 9.11626 21.6635C9.15602 21.6538 9.20719 21.6453 9.22994 21.6168C9.3368 21.4877 9.45615 21.362 9.53233 21.2153C9.62948 21.027 9.73353 20.8387 9.90686 20.7267C10.0632 20.626 10.257 20.5822 10.4372 20.5213C10.4588 20.5139 10.5054 20.5515 10.5247 20.5788C10.5332 20.5907 10.5088 20.6408 10.4866 20.6556C10.4474 20.6817 10.4002 20.7005 10.3542 20.7125C10.0541 20.7875 9.8341 20.9565 9.71816 21.2483C9.63802 21.4507 9.48061 21.5958 9.3385 21.75C9.29191 21.8006 9.20548 21.8148 9.13675 21.8455L9.12705 21.8278L9.12821 21.8273ZM14.4197 22.6543C14.3862 22.6645 14.3532 22.6816 14.3191 22.6839C14.2509 22.6884 14.1822 22.6907 14.1139 22.6844C13.8576 22.6611 13.7002 22.7937 13.6104 23.0155C13.5706 23.1133 13.5171 23.152 13.4137 23.1469C13.2773 23.14 13.1403 23.1458 13.0034 23.1451C12.8777 23.1451 12.805 23.094 12.7834 22.9705C12.7657 22.8699 12.7089 22.8187 12.6214 22.7829C12.5587 22.7574 12.4987 22.7258 12.4424 22.6884C12.2775 22.577 12.1013 22.5377 11.9064 22.5837C11.8825 22.5895 11.8547 22.5758 11.8285 22.5712C11.8479 22.5451 11.8621 22.5036 11.8876 22.4951C12.0326 22.4467 12.1804 22.4677 12.3184 22.5178C12.4071 22.5502 12.4838 22.6167 12.5669 22.6656C12.602 22.6867 12.639 22.7106 12.6782 22.718C12.7834 22.7385 12.8448 22.7948 12.8635 22.9017C12.8828 23.0104 12.9238 23.0434 13.0363 23.0451C13.1534 23.0468 13.271 23.0439 13.3881 23.0462C13.4507 23.0473 13.491 23.024 13.5205 22.9671C13.5518 22.9069 13.587 22.8477 13.6286 22.7937C13.7036 22.6952 13.7951 22.6156 13.9252 22.6076C14.0645 22.5997 14.2048 22.5986 14.3447 22.598C14.3697 22.598 14.3947 22.6156 14.4197 22.6253L14.4209 22.6555L14.4197 22.6543ZM14.7704 17.203C14.4504 17.2252 14.2509 16.901 14.2134 16.6632C14.2043 16.6063 14.2094 16.5461 14.2123 16.488C14.218 16.3698 14.306 16.2855 14.4226 16.2708C14.5237 16.2583 14.6238 16.2332 14.7244 16.215C14.7528 16.2099 14.7863 16.2014 14.8102 16.2116C14.8392 16.2241 14.8721 16.2515 14.8795 16.2793C14.8846 16.2981 14.854 16.3424 14.8312 16.3504C14.7306 16.3834 14.6288 16.4187 14.5249 16.4312C14.3953 16.4471 14.3407 16.4943 14.3765 16.6206C14.4481 16.8702 14.5413 17.0517 14.8511 17.0421C14.8704 17.0415 14.8949 17.0398 14.9079 17.05C14.9352 17.0716 14.9568 17.1012 14.9807 17.1279C14.9562 17.1501 14.9346 17.1825 14.9057 17.1917C14.863 17.2047 14.8158 17.2002 14.7704 17.2036V17.203ZM13.6229 11.6107C13.7791 11.6107 13.9355 11.6061 14.0912 11.613C14.1537 11.6158 14.2163 11.6408 14.2754 11.6641C14.2907 11.6699 14.2941 11.7062 14.3026 11.7284C14.2799 11.7352 14.2538 11.7529 14.235 11.7472C13.8741 11.638 13.5052 11.7091 13.1409 11.7045C13.0096 11.7028 12.8783 11.7688 12.7464 11.7995C12.6294 11.8269 12.5077 11.8376 12.3941 11.8741C12.2315 11.9264 12.0746 11.9952 11.9155 12.0572C11.9007 12.0629 11.8871 12.0776 11.8723 12.0788C11.8427 12.0805 11.8131 12.0754 11.783 12.0725C11.7978 12.0475 11.8069 12.0128 11.8291 11.9991C12.0417 11.8689 12.2713 11.7876 12.5196 11.7518C12.6635 11.7313 12.8039 11.6875 12.9465 11.6585C13.0443 11.6386 13.1431 11.6186 13.2421 11.6124C13.3683 11.6044 13.4955 11.6107 13.6223 11.6107H13.6229ZM17.2184 11.6414C17.3729 11.6568 17.527 11.6721 17.6816 11.6863C17.826 11.6994 17.9339 11.7813 18.0402 11.8689C18.1505 11.9594 18.2619 12.0487 18.3704 12.1414C18.3892 12.1573 18.396 12.188 18.4079 12.2119C18.3784 12.2142 18.3397 12.2301 18.321 12.217C18.2301 12.155 18.134 12.0953 18.0596 12.0162C17.8822 11.8286 17.6685 11.7455 17.415 11.7489C17.3434 11.7501 17.2712 11.7546 17.2008 11.7477C16.9905 11.7284 16.7938 11.7592 16.621 11.8911C16.6131 11.8968 16.604 11.9053 16.596 11.9047C16.567 11.9036 16.538 11.8991 16.5085 11.8962C16.521 11.87 16.5261 11.8331 16.5465 11.82C16.6977 11.7256 16.8472 11.6238 17.0416 11.6533C17.099 11.6619 17.1587 11.6545 17.2172 11.6545L17.2184 11.6403V11.6414ZM10.573 18.4191C10.5622 18.6301 10.5565 18.8411 10.5377 19.051C10.5258 19.183 10.4707 19.3024 10.3689 19.3928C10.3514 19.4088 10.3184 19.4077 10.2928 19.4145C10.2928 19.3878 10.2871 19.3593 10.2951 19.3348C10.3024 19.3115 10.3274 19.2939 10.3389 19.2712C10.3729 19.2052 10.4292 19.1392 10.4326 19.0709C10.4491 18.7541 10.4565 18.4362 10.4542 18.1188C10.4536 18.0386 10.4008 17.9595 10.3826 17.8776C10.3757 17.8475 10.3985 17.8111 10.4081 17.7775C10.4309 17.8003 10.4639 17.819 10.4752 17.8469C10.5519 18.0295 10.5906 18.2195 10.573 18.4185V18.4191ZM14.6971 21.7141C14.5016 21.6788 14.3839 21.5588 14.2987 21.4092C14.2464 21.3177 14.2214 21.2101 14.1878 21.1089C14.1822 21.0918 14.1947 21.0691 14.1986 21.0486C14.2191 21.0526 14.2503 21.0503 14.2589 21.0628C14.285 21.1027 14.3106 21.1459 14.3225 21.1913C14.3771 21.395 14.4811 21.5514 14.6937 21.618C14.7175 21.6253 14.7329 21.6606 14.7516 21.6833L14.6971 21.7146V21.7141ZM15.623 16.8748C15.665 16.8771 15.7099 16.8709 15.748 16.8845C15.7753 16.8942 15.8066 16.9277 15.8117 16.9556C15.8151 16.9744 15.7809 17.017 15.7576 17.0222C15.6509 17.0456 15.5429 17.063 15.4343 17.0745C15.411 17.0768 15.3711 17.0477 15.3626 17.0244C15.3541 17.0022 15.3683 16.9516 15.3871 16.9431C15.4598 16.9078 15.5377 16.8839 15.6139 16.8555L15.6224 16.8754L15.623 16.8748ZM16.7279 12.3803C16.7341 12.4508 16.7466 12.5213 16.7449 12.5913C16.7421 12.7079 16.7324 12.8245 16.7193 12.9405C16.7159 12.9701 16.6898 12.9968 16.6744 13.0253C16.6597 12.9968 16.6318 12.9684 16.6323 12.9405C16.6369 12.7721 16.6472 12.6038 16.6585 12.4354C16.6597 12.4161 16.6767 12.3979 16.6864 12.3797H16.7284L16.7279 12.3803ZM14.7033 12.7466C14.6937 12.7312 14.6783 12.717 14.6749 12.7005C14.6425 12.5373 14.5305 12.4314 14.4118 12.3296C14.3925 12.3131 14.3822 12.2859 14.368 12.2637C14.397 12.2574 14.4283 12.2392 14.4538 12.246C14.5447 12.2705 14.755 12.5481 14.7556 12.6419C14.7556 12.6766 14.742 12.7113 14.7341 12.746H14.7033V12.7466ZM10.9032 17.0005C11.0601 17.0005 11.0607 16.7565 10.9032 16.7565C10.7458 16.7565 10.7458 17.0005 10.9032 17.0005ZM10.8265 16.1536C10.9833 16.1536 10.9839 15.9096 10.8265 15.9096C10.669 15.9096 10.669 16.1536 10.8265 16.1536ZM11.4676 17.2832C11.6244 17.2832 11.6251 17.0392 11.4676 17.0392C11.3102 17.0392 11.3102 17.2832 11.4676 17.2832ZM10.6213 17.1803C10.7782 17.1803 10.7788 16.9362 10.6213 16.9362C10.4639 16.9362 10.4639 17.1803 10.6213 17.1803ZM11.134 17.7451C11.2908 17.7451 11.2914 17.5011 11.134 17.5011C10.9766 17.5011 10.9766 17.7451 11.134 17.7451ZM11.6211 18.0528C11.778 18.0528 11.7785 17.8088 11.6211 17.8088C11.4636 17.8088 11.4636 18.0528 11.6211 18.0528ZM11.8524 18.5914C12.0093 18.5914 12.0098 18.3474 11.8524 18.3474C11.695 18.3474 11.695 18.5914 11.8524 18.5914ZM10.6469 16.5386C10.8038 16.5386 10.8043 16.2947 10.6469 16.2947C10.4894 16.2947 10.4894 16.5386 10.6469 16.5386ZM10.2365 15.9227C10.3934 15.9227 10.394 15.6786 10.2365 15.6786C10.0791 15.6786 10.0791 15.9227 10.2365 15.9227ZM16.0833 20.5674C16.2402 20.5674 16.2408 20.3234 16.0833 20.3234C15.9259 20.3234 15.9259 20.5674 16.0833 20.5674ZM15.2882 20.5418C15.4451 20.5418 15.4456 20.2978 15.2882 20.2978C15.1307 20.2978 15.1307 20.5418 15.2882 20.5418ZM15.6985 20.4906C15.8554 20.4906 15.856 20.2466 15.6985 20.2466C15.5411 20.2466 15.5411 20.4906 15.6985 20.4906ZM15.0062 20.465C15.1631 20.465 15.1637 20.221 15.0062 20.221C14.8488 20.221 14.8488 20.465 15.0062 20.465ZM15.4166 20.2341C15.5735 20.2341 15.5741 19.9901 15.4166 19.9901C15.2592 19.9901 15.2592 20.2341 15.4166 20.2341Z" fill="black"/>
<path d="M15.6478 20.1305C15.8046 20.1305 15.8052 19.8865 15.6478 19.8865C15.4903 19.8865 15.4903 20.1305 15.6478 20.1305ZM16.0064 20.259C16.1633 20.259 16.1638 20.015 16.0064 20.015C15.849 20.015 15.849 20.259 16.0064 20.259ZM16.776 20.5411C16.9329 20.5411 16.9334 20.2971 16.776 20.2971C16.6185 20.2971 16.6185 20.5411 16.776 20.5411ZM15.1345 17.9753C15.2914 17.9753 15.292 17.7313 15.1345 17.7313C14.9771 17.7313 14.9771 17.9753 15.1345 17.9753ZM15.9553 18.0777C16.1121 18.0777 16.1127 17.8337 15.9553 17.8337C15.7979 17.8337 15.7979 18.0777 15.9553 18.0777ZM16.9812 17.9498C17.138 17.9498 17.1386 17.7057 16.9812 17.7057C16.8238 17.7057 16.8238 17.9498 16.9812 17.9498ZM16.4941 18.2063C16.651 18.2063 16.6515 17.9623 16.4941 17.9623C16.3366 17.9623 16.3366 18.2063 16.4941 18.2063ZM16.0837 17.6926C16.2406 17.6926 16.2412 17.4486 16.0837 17.4486C15.9263 17.4486 15.9263 17.6926 16.0837 17.6926ZM15.4682 18.2831C15.6251 18.2831 15.6256 18.039 15.4682 18.039C15.3107 18.039 15.3107 18.2831 15.4682 18.2831ZM14.2115 18.0521C14.3684 18.0521 14.3689 17.8081 14.2115 17.8081C14.054 17.8081 14.054 18.0521 14.2115 18.0521ZM17.4683 18.5396C17.6252 18.5396 17.6257 18.2956 17.4683 18.2956C17.3108 18.2956 17.3108 18.5396 17.4683 18.5396ZM5.99344 13.6563C6.02418 14.5704 6.21398 15.4782 6.55783 16.3262C6.65659 16.5702 6.76718 16.8092 6.88919 17.0424C6.9625 17.1817 7.17285 17.0583 7.10009 16.9189C6.68883 16.1351 6.41779 15.2854 6.29924 14.4083C6.26599 14.159 6.24551 13.9082 6.23788 13.6569C6.23276 13.4999 5.98771 13.4988 5.99344 13.6563ZM5.29889 15.8951C5.3131 16.4349 5.53992 16.9576 5.92751 17.3341C6.0401 17.4439 6.21288 17.271 6.10029 17.1612C5.75875 16.8291 5.55584 16.3718 5.54334 15.8951C5.53931 15.7381 5.29432 15.7376 5.29889 15.8951ZM15.5801 4.83295C16.2509 5.10223 16.8737 5.47811 17.4245 5.94607C17.5439 6.04731 17.7172 5.87556 17.5973 5.77316C17.0146 5.27822 16.3554 4.88115 15.6455 4.59747C15.5841 4.57301 15.5114 4.62424 15.4955 4.68279C15.4761 4.7522 15.5187 4.80849 15.5801 4.83295ZM16.2929 4.2397C16.5297 4.30898 16.7627 4.39063 16.9909 4.48433C17.05 4.50879 17.1278 4.45817 17.1409 4.39901C17.1568 4.3279 17.1193 4.27502 17.0556 4.24885C16.8275 4.15506 16.5945 4.0734 16.3577 4.00422C16.2963 3.9866 16.2219 4.02588 16.2076 4.08955C16.1934 4.15328 16.2275 4.22037 16.2929 4.2397ZM14.781 4.38535H14.1888C14.1251 4.38535 14.0637 4.44164 14.0666 4.50763C14.0694 4.57362 14.12 4.62991 14.1888 4.62991H14.781C14.8446 4.62991 14.9061 4.57362 14.9032 4.50763C14.9004 4.44164 14.8498 4.38535 14.781 4.38535Z" fill="black"/>
<path d="M12.2602 13.9974C12.2409 14.2681 12.5831 14.2835 12.7706 14.3028C13.0361 14.3295 13.3027 14.3409 13.5692 14.3358C13.8062 14.3319 14.0779 14.3409 14.2984 14.242C14.4882 14.1566 14.6275 13.9582 14.5758 13.7454C14.5496 13.6391 14.3854 13.684 14.4115 13.7909C14.4547 13.9661 14.2757 14.0839 14.1308 14.1202C13.9426 14.1675 13.7351 14.1629 13.5419 14.1658C13.3486 14.1686 13.1373 14.1624 12.9361 14.147C12.8352 14.1395 12.7346 14.1294 12.6342 14.1168C12.5621 14.1077 12.4245 14.0981 12.4313 13.9974C12.4393 13.8876 12.2682 13.8882 12.2602 13.9974ZM16.8799 13.9615C16.7828 14.0913 16.8913 14.2528 17.0215 14.3006C17.0965 14.3278 17.1806 14.3295 17.259 14.337L17.5648 14.3648C17.7626 14.3825 17.9604 14.4063 18.1588 14.4183C18.3134 14.4274 18.4993 14.3751 18.5327 14.2004C18.5532 14.093 18.389 14.0475 18.3685 14.1549C18.3447 14.2801 18.1702 14.2488 18.0786 14.2409C17.9354 14.2277 17.7916 14.2147 17.6484 14.2021L17.2318 14.1646C17.1857 14.1607 16.9561 14.1441 17.0277 14.0486C17.0936 13.961 16.9459 13.8757 16.8805 13.9627L16.8799 13.9615ZM1.83183 16.8242L1.82555 15.3085L1.82213 14.5576C1.82213 14.4513 1.8375 14.3261 1.78804 14.2277C1.74596 14.143 1.66131 14.1015 1.57263 14.0805C1.30775 14.0162 1.03494 13.9769 0.764944 13.9405L0.838863 14.0691L2.13416 12.117L2.29047 11.8821C2.31035 11.8519 2.33195 11.7968 2.36268 11.778C2.39958 11.7546 2.43313 11.7956 2.46155 11.8212C2.59597 11.9437 2.72862 12.0681 2.85944 12.1944C3.12145 12.4463 3.37727 12.7046 3.62669 12.969C3.9124 13.2725 4.18969 13.5837 4.45822 13.9024L4.49573 13.7597L3.91261 13.8626C3.7677 13.8882 3.57271 13.8933 3.48294 14.0309C3.3931 14.1686 3.43518 14.3739 3.44201 14.5281L3.46873 15.1242L3.52045 16.2879L3.53295 16.5718L3.53917 16.7139C3.54033 16.7423 3.55905 16.8311 3.54088 16.859C3.52557 16.8812 3.48464 16.8766 3.46135 16.8772C3.41414 16.8783 3.367 16.8772 3.31979 16.8777L3.00832 16.8794C2.56444 16.8817 2.12056 16.8834 1.67661 16.8857C1.56695 16.8857 1.56695 17.0569 1.67661 17.0563L2.86682 17.0506C3.06516 17.0495 3.2635 17.0523 3.4619 17.0478C3.53295 17.0461 3.60681 17.0381 3.65968 16.9846C3.71708 16.9266 3.71598 16.847 3.71256 16.7708C3.67902 15.9711 3.6409 15.1719 3.60571 14.3722C3.60229 14.2989 3.57954 14.1811 3.6301 14.118C3.68073 14.0548 3.8035 14.0543 3.8751 14.0417L4.54122 13.924C4.61002 13.9121 4.61624 13.8256 4.57873 13.7812C4.07597 13.1844 3.54229 12.6142 2.9799 12.0732C2.84066 11.9395 2.70252 11.8007 2.55535 11.6761C2.49338 11.6233 2.41611 11.5783 2.3314 11.6017C2.24674 11.625 2.20295 11.7052 2.15861 11.7723L1.47205 12.8069L0.692244 13.982C0.652418 14.0423 0.707553 14.1026 0.766103 14.1106C0.912172 14.1305 1.05769 14.1532 1.20321 14.1794C1.32428 14.2016 1.46291 14.213 1.57775 14.2585C1.64081 14.2835 1.64935 14.3295 1.65161 14.3927C1.65393 14.4661 1.65222 14.54 1.65277 14.6139L1.65447 15.0531L1.66185 16.8242C1.66185 16.934 1.83238 16.934 1.83183 16.8242ZM20.6175 9.80656C20.5241 9.45601 20.4735 9.0954 20.4669 8.73266C20.4641 8.55463 20.4783 8.37947 20.4886 8.20199C20.4976 8.04159 20.4306 7.93126 20.2845 7.86527C20.1384 7.79928 19.9764 7.75378 19.8139 7.73219C19.7346 7.7213 19.6546 7.71577 19.5746 7.71566C19.5336 7.71566 19.4927 7.72079 19.4518 7.72079C19.4109 7.72079 19.4103 7.72652 19.4291 7.68724C19.466 7.611 19.5353 7.54337 19.5871 7.47622L19.7599 7.25385L20.1054 6.80905L20.8824 5.80852C20.9489 5.72265 20.829 5.60146 20.7619 5.68795C20.2839 6.30278 19.8025 6.91542 19.3285 7.53312C19.2489 7.63662 19.1892 7.82203 19.3574 7.87893C19.4268 7.90223 19.5035 7.88631 19.5752 7.88631C19.6689 7.88631 19.7633 7.89314 19.8559 7.91022C19.9395 7.92559 20.0213 7.94718 20.1015 7.97505C20.1663 7.9978 20.2794 8.02567 20.3106 8.09447C20.3385 8.15534 20.3146 8.24975 20.3095 8.31348C20.3022 8.40793 20.298 8.5026 20.297 8.59733C20.2913 9.01992 20.3458 9.44307 20.4538 9.85206C20.4817 9.95788 20.646 9.91293 20.6175 9.80656Z" fill="black"/>
<path d="M20.7782 5.82281L21.2312 6.79199C21.2506 6.83353 21.3108 6.84432 21.3477 6.82273C21.3903 6.79766 21.3977 6.74765 21.3784 6.70612L20.9254 5.73688C20.9061 5.6954 20.8458 5.68455 20.8089 5.7062C20.7663 5.7312 20.7589 5.78128 20.7782 5.82281ZM21.5756 7.41768C21.6342 7.72708 21.7706 8.01209 21.9678 8.2572L22.0281 8.11162L21.6041 8.12864L21.4063 8.13663C21.3403 8.13949 21.267 8.13492 21.2039 8.15767C21.1067 8.19237 21.0619 8.28282 21.0476 8.37949C21.0294 8.50519 21.0323 8.63717 21.0386 8.76402C21.0448 8.89082 21.0602 9.02963 21.0834 9.16046C21.105 9.28158 21.1477 9.39764 21.1698 9.51822C21.1812 9.57848 21.1545 9.59385 21.0977 9.60239C21.0436 9.61037 20.9874 9.60635 20.9328 9.60696C20.7981 9.60806 20.6634 9.60751 20.5287 9.60525C20.419 9.60354 20.419 9.77419 20.5287 9.7759C20.6634 9.77816 20.7981 9.77871 20.9328 9.77761C21.0362 9.77645 21.1545 9.78554 21.2465 9.72979C21.3386 9.67405 21.3563 9.57055 21.3341 9.47272C21.3057 9.34361 21.2653 9.21962 21.2431 9.08879C21.2208 8.95491 21.2084 8.81954 21.2062 8.68382C21.2051 8.62125 21.2062 8.55867 21.2085 8.49555C21.2107 8.4506 21.2079 8.39144 21.2289 8.34991C21.2579 8.29361 21.3528 8.31008 21.4063 8.30782L21.6041 8.2999L22.0281 8.28282C22.1071 8.2794 22.1338 8.19408 22.0883 8.13718C21.9099 7.91536 21.7933 7.652 21.7405 7.37273C21.72 7.26521 21.5558 7.31077 21.5762 7.41823L21.5756 7.41768ZM3.54528 12.009L4.40864 12.712C4.44444 12.741 4.49445 12.7466 4.5291 12.712C4.55923 12.6818 4.5649 12.6204 4.5291 12.5914L3.66573 11.8883C3.62993 11.8594 3.57992 11.8537 3.54528 11.8883C3.51515 11.9185 3.50948 11.9799 3.54528 12.009Z" fill="black"/>
<path d="M3.78313 11.762L3.78654 10.4061C3.78654 10.3127 3.79849 10.2064 3.74964 10.1222C3.70073 10.038 3.60638 10.0062 3.52172 9.97492C3.32107 9.90155 3.10681 9.86965 2.89366 9.87538L2.95391 10.021C3.30598 9.65784 3.58414 9.22977 3.77294 8.76056C3.81954 8.64565 3.85479 8.52733 3.89571 8.41017C3.9048 8.38401 3.89913 8.38456 3.9173 8.40615C3.94005 8.43231 3.97982 8.45342 4.00769 8.47446L4.18895 8.61095L4.91423 9.15754L5.72985 9.77243L5.75028 9.61654L5.34336 9.72748C5.21997 9.76103 5.09098 9.78719 4.97163 9.83153C4.8716 9.86855 4.79488 9.93393 4.7653 10.0397C4.73401 10.1512 4.7545 10.2752 4.76243 10.3884L4.87215 12.0413C4.88179 12.1841 4.90624 12.3348 4.89258 12.4776C4.88465 12.5623 4.81135 12.7255 4.69937 12.6556C4.60618 12.597 4.5203 12.7449 4.61356 12.8029C4.81531 12.9286 5.02505 12.7335 5.05628 12.5356C5.07677 12.4053 5.05799 12.2706 5.04951 12.1403L5.02109 11.7165L4.96309 10.8406L4.93467 10.4168C4.92784 10.3127 4.89258 10.166 4.93582 10.0665C4.96193 10.005 5.03243 9.99023 5.09043 9.97376C5.16716 9.95217 5.24388 9.93168 5.32116 9.91064L5.79578 9.78091C5.87305 9.75987 5.87189 9.66717 5.81621 9.62508L4.28672 8.47214L4.10539 8.33565C4.05142 8.29472 3.99232 8.23324 3.92243 8.22129C3.78941 8.19854 3.74055 8.33339 3.70872 8.43463C3.62715 8.69368 3.51736 8.94297 3.38133 9.17803C3.22896 9.44052 3.04494 9.6833 2.8334 9.90094C2.78339 9.95272 2.81809 10.0488 2.89366 10.0466C3.07949 10.0415 3.26252 10.067 3.43927 10.1268C3.48251 10.1415 3.5291 10.1558 3.56832 10.1797C3.61095 10.2053 3.61492 10.2394 3.61608 10.286C3.61888 10.3821 3.61608 10.4783 3.61608 10.5744L3.61321 11.7626C3.61321 11.8724 3.78313 11.8718 3.78313 11.762ZM1.5 10.1797L1.53068 11.315C1.53348 11.4247 1.70401 11.4247 1.7012 11.315L1.67047 10.1797C1.66766 10.0699 1.49713 10.0699 1.5 10.1797Z" fill="black"/>
<path d="M3.24274 10.5883C3.21091 10.7584 3.20121 10.9307 3.21829 11.1031C3.22286 11.1475 3.25409 11.1907 3.30355 11.1884C3.34618 11.1867 3.39333 11.1509 3.38881 11.1031C3.38065 11.0228 3.37818 10.942 3.38143 10.8614C3.38314 10.8216 3.38595 10.7823 3.39052 10.7431C3.39278 10.7209 3.39333 10.7186 3.39619 10.6998C3.39961 10.6776 3.40302 10.656 3.40754 10.6344C3.41553 10.5906 3.39564 10.5406 3.34789 10.5292C3.30581 10.5195 3.25183 10.5417 3.24274 10.5889V10.5883ZM19.7641 8.61861L19.7987 9.01736C19.8027 9.0617 19.8352 9.10494 19.884 9.10269C19.9266 9.10098 19.9732 9.06512 19.9693 9.01736L19.9346 8.61861C19.9306 8.57427 19.8982 8.53103 19.8494 8.53329C19.8067 8.535 19.7601 8.57086 19.7641 8.61861ZM20.038 9.68507C20.1477 9.68507 20.1477 9.51449 20.038 9.51449C19.9283 9.51449 19.9283 9.68507 20.038 9.68507ZM10.8345 16.1528C10.9913 16.1528 10.9919 15.9088 10.8345 15.9088C10.677 15.9088 10.677 16.1528 10.8345 16.1528ZM11.4756 17.2824C11.6324 17.2824 11.633 17.0384 11.4756 17.0384C11.3181 17.0384 11.3181 17.2824 11.4756 17.2824ZM10.6292 17.1795C10.7861 17.1795 10.7867 16.9354 10.6292 16.9354C10.4718 16.9354 10.4718 17.1795 10.6292 17.1795ZM11.1419 17.7443C11.2988 17.7443 11.2994 17.5003 11.1419 17.5003C10.9845 17.5003 10.9845 17.7443 11.1419 17.7443ZM11.6296 18.052C11.7864 18.052 11.787 17.8079 11.6296 17.8079C11.4722 17.8079 11.4722 18.052 11.6296 18.052ZM11.8604 18.5906C12.0172 18.5906 12.0178 18.3466 11.8604 18.3466C11.7029 18.3466 11.7029 18.5906 11.8604 18.5906ZM10.6548 16.5378C10.8117 16.5378 10.8123 16.2939 10.6548 16.2939C10.4974 16.2939 10.4974 16.5378 10.6548 16.5378ZM10.2444 15.9219C10.4013 15.9219 10.4019 15.6778 10.2444 15.6778C10.087 15.6778 10.087 15.9219 10.2444 15.9219ZM16.0913 20.5666C16.2481 20.5666 16.2487 20.3226 16.0913 20.3226C15.9338 20.3226 15.9338 20.5666 16.0913 20.5666ZM15.7065 20.4898C15.8633 20.4898 15.864 20.2458 15.7065 20.2458C15.5491 20.2458 15.5491 20.4898 15.7065 20.4898ZM15.4246 20.2333C15.5815 20.2333 15.582 19.9893 15.4246 19.9893C15.2672 19.9893 15.2672 20.2333 15.4246 20.2333Z" fill="black"/>
</g>
<defs>
<linearGradient id="paint0_linear_2743_3862" x1="12" y1="0" x2="12" y2="24" gradientUnits="userSpaceOnUse">
<stop stop-color="#ADFF8B"/>
<stop offset="1" stop-color="#D6FFC6"/>
</linearGradient>
<linearGradient id="paint1_linear_2743_3862" x1="12" y1="0" x2="12" y2="24" gradientUnits="userSpaceOnUse">
<stop stop-color="#ADFF8B"/>
<stop offset="1" stop-color="#D6FFC6"/>
</linearGradient>
<linearGradient id="paint2_linear_2743_3862" x1="2.78874" y1="11.8095" x2="2.78874" y2="17.6993" gradientUnits="userSpaceOnUse">
<stop stop-color="#90FF4A"/>
<stop offset="1" stop-color="#02CC04"/>
</linearGradient>
<linearGradient id="paint3_linear_2743_3862" x1="20.8419" y1="5.83272" x2="20.8419" y2="10.0037" gradientUnits="userSpaceOnUse">
<stop stop-color="#90FF4A"/>
<stop offset="1" stop-color="#02CC04"/>
</linearGradient>
<linearGradient id="paint4_linear_2743_3862" x1="4.47464" y1="8.47652" x2="4.47464" y2="13.057" gradientUnits="userSpaceOnUse">
<stop stop-color="#90FF4A"/>
<stop offset="1" stop-color="#02CC04"/>
</linearGradient>
<linearGradient id="paint5_linear_2743_3862" x1="12.2841" y1="1.13391" x2="12.2841" y2="26.6857" gradientUnits="userSpaceOnUse">
<stop stop-color="#90FF4A"/>
<stop offset="1" stop-color="#02CC04"/>
</linearGradient>
</defs>
</svg>
