<svg width="24" height="24" viewBox="0 0 24 24" fill="none" xmlns="http://www.w3.org/2000/svg">
<circle cx="12" cy="12" r="12" fill="#FAFBFB"/>
<path d="M13.8796 10.8821L15.2025 14.0507L15.6881 12.4367H18.3171L16.8184 17.3297C16.7012 17.7119 16.3495 17.9753 15.9477 17.9753H14.4574C14.0889 17.9753 13.754 17.7459 13.6117 17.3976L11.9623 13.3371L10.3464 17.3891C10.2124 17.7459 9.87754 17.9753 9.50078 17.9753H7.99372C7.59184 17.9753 7.24019 17.7119 7.12297 17.3212L4 7H6.62899L8.72212 14.0507L10.0869 10.8651C10.3967 10.0751 11.1418 9.55693 11.9791 9.55693C12.8247 9.55693 13.5782 10.0836 13.8796 10.8821Z" fill="black"/>
<path d="M20.0003 7H17.3294L16.0986 11.086H18.736L20.0003 7Z" fill="black"/>
</svg>
