<svg width="24" height="24" viewBox="0 0 24 24" fill="none" xmlns="http://www.w3.org/2000/svg">
<path fill-rule="evenodd" clip-rule="evenodd" d="M11.3924 0L11.4165 0.0138003L16.5886 2.99969L21.785 5.99987V18.0001L16.5886 21.0003L11.3941 23.999L11.3924 24L6.19619 21.0003L1.001 18.0006L1 18.0004V5.99987L1.01255 5.9926L6.19619 2.99969L11.3924 0Z" fill="white"/>
<path fill-rule="evenodd" clip-rule="evenodd" d="M14.8565 9.99994L18.3206 7.99992L14.8563 5.99987L11.413 4.01188L11.3924 4.00008L7.92826 5.99987L4.47442 7.99389L4.46388 7.99992V16.0001L4.46664 16.0021L7.92826 18.0001L11.3924 20.0002L11.3982 19.9967L14.8563 18.0001L18.3206 16.0001L14.8565 14L13.1245 15.0002L11.4019 15.9946L11.3924 16.0001L9.66007 15.0002L7.93303 14.0028L7.92826 14L11.3921 12.0002L7.92836 9.99998L7.93689 9.99522L9.66042 9.00009L11.3922 7.99994L11.4093 8.00973L13.1246 9.00009L14.8565 9.99994ZM11.3924 0L11.4165 0.0138003L16.5886 2.99969L21.785 5.99987V18.0001L16.5886 21.0003L11.3941 23.999L11.3924 24L6.19619 21.0003L1.001 18.0006L1 18.0004V5.99987L1.01255 5.9926L6.19619 2.99969L11.3924 0Z" fill="black"/>
</svg>
