<svg width="24" height="24" viewBox="0 0 24 24" fill="none" xmlns="http://www.w3.org/2000/svg">
<circle cx="12" cy="12" r="12" fill="#21252C"/>
<path d="M17.2413 9.17383L15.7545 10.0411L17.7616 11.1933V15.2447L14.2554 17.2766L10.7491 15.2447V11.1933L12.7686 10.0287L12.4837 9.86764L11.2695 9.17383L9.25 10.3384V16.112L14.2554 18.9987L19.2608 16.112V10.3384L17.2413 9.17383Z" fill="white"/>
<path d="M10.0054 5L5 7.88677V13.6603L7.0195 14.8249L8.23368 14.1311L8.50625 13.97L6.48675 12.8054V8.74165L10.0054 6.72215L13.5116 8.74165V12.8054L11.5045 13.9577L12.9913 14.8249L14.9984 13.6603V7.88677L10.0054 5Z" fill="white"/>
</svg>
