<svg width="24" height="24" viewBox="0 0 24 24" fill="none" xmlns="http://www.w3.org/2000/svg">
<circle cx="12" cy="12" r="12" fill="url(#paint0_linear_1679_1054)"/>
<path d="M13.6971 13.0503C12.1517 13.9393 10.3785 14.3533 8.5992 14.2406C7.9181 14.2437 7.24356 14.1075 6.61709 13.8402C5.99062 13.5729 5.42548 13.1802 4.95645 12.6864C4.60883 12.2471 4.36001 11.738 4.22692 11.1938C4.09384 10.6496 4.07963 10.0832 4.18526 9.53299C4.24638 9.11817 4.37143 8.71533 4.55595 8.33881L4.58126 8.28706C5.23148 7.05178 6.19252 6.00737 7.36957 5.25687C8.55276 4.50299 9.91011 4.06641 11.3109 3.98917C12.7117 3.91194 14.1089 4.19664 15.3678 4.81587C16.6219 5.4322 17.6942 6.36399 18.4795 7.51981C19.2611 8.66892 19.7262 10.0036 19.8282 11.3896C19.9302 12.7755 19.6655 14.1639 19.0606 15.4151C18.4528 16.6708 17.528 17.7462 16.3774 18.5352C15.2207 19.3278 13.879 19.8085 12.4821 19.9308L12.5676 20.9028C14.1359 20.7653 15.6421 20.2254 16.9405 19.3351C18.2326 18.4497 19.2713 17.2423 19.9538 15.8324C20.6325 14.4281 20.9294 12.8697 20.8146 11.3142C20.6997 9.75867 20.1772 8.26082 19.2996 6.97137C18.4173 5.67416 17.2128 4.62875 15.8043 3.93781C14.3902 3.24384 12.8213 2.92587 11.2486 3.01454C9.67598 3.10321 8.1527 3.59554 6.82564 4.44406C5.50589 5.28769 4.42891 6.46084 3.70095 7.84774L3.66664 7.91749C3.43773 8.38473 3.28306 8.8848 3.2082 9.39968C3.08305 10.0849 3.10626 10.7889 3.27627 11.4643C3.44627 12.1398 3.75911 12.7709 4.1937 13.3152C4.74681 13.9169 5.41895 14.397 6.16748 14.7251C6.916 15.0532 7.72456 15.222 8.54182 15.221C10.6935 15.3552 12.8307 14.789 14.6337 13.6072L13.6971 13.0503Z" fill="white"/>
<path d="M15.5848 14.1562C13.7539 15.6312 11.4873 16.4605 9.13688 16.5154C5.26069 16.7269 3.64463 15.4821 3.63 15.4691L3.31725 15.8505L3.63225 15.4759L3 16.2251C3.06863 16.2814 4.61775 17.5189 8.25656 17.5189C8.55469 17.5189 8.86744 17.5189 9.19313 17.4936C13.3781 17.2629 15.6776 15.4584 16.4786 14.6878L15.5848 14.1562Z" fill="white"/>
<path d="M17.2654 15.1641C16.733 15.8551 16.0795 16.4435 15.3366 16.9006C12.7136 18.5734 9.37745 18.7894 7.04139 18.673L6.99414 19.6501C7.38789 19.6692 7.76364 19.6776 8.12983 19.6776C14.7167 19.6776 17.3785 16.7127 18.1221 15.6541L17.2648 15.1562" fill="white"/>
<path d="M17.0145 11.4688C17.1686 11.4669 17.3187 11.4195 17.4459 11.3325C17.5732 11.2455 17.6718 11.1229 17.7295 10.9799C17.7872 10.837 17.8013 10.6802 17.7701 10.5293C17.7388 10.3784 17.6637 10.2401 17.554 10.1317C17.4444 10.0234 17.3052 9.94996 17.1539 9.92058C17.0026 9.8912 16.846 9.90722 16.7038 9.96663C16.5616 10.026 16.4401 10.1262 16.3547 10.2544C16.2692 10.3827 16.2236 10.5334 16.2236 10.6875C16.2253 10.8959 16.3094 11.0951 16.4577 11.2415C16.6059 11.388 16.8061 11.4697 17.0145 11.4688Z" fill="white"/>
<defs>
<linearGradient id="paint0_linear_1679_1054" x1="24" y1="-1.43051e-06" x2="1.43051e-06" y2="24" gradientUnits="userSpaceOnUse">
<stop stop-color="#668AF9"/>
<stop offset="1" stop-color="#2C45DA"/>
</linearGradient>
</defs>
</svg>
