<svg width="24" height="24" viewBox="0 0 24 24" fill="none" xmlns="http://www.w3.org/2000/svg">
<g clip-path="url(#clip0_2068_1893)">
<path fill-rule="evenodd" clip-rule="evenodd" d="M12 24C5.4 24 0 18.6001 0 11.9402C0.06 5.34039 5.4 -0.0595034 12.06 0.000495202C18.66 0.0604941 24 5.40039 24 12.1202C23.94 18.6601 18.6 24 12 24Z" fill="white"/>
<path d="M17.9232 5H20.3463L15.3043 9.9897C13.4791 11.7962 10.5204 11.7962 8.6952 9.9897L3.65388 5H6.07701L9.90709 8.79054C11.0627 9.93474 12.9368 9.93474 14.0931 8.79054L17.9232 5ZM6.04618 18.8752H3.62305L8.69587 13.8546C10.5211 12.0482 13.4798 12.0482 15.305 13.8546L20.3778 18.8752H17.9547L14.0931 15.0538C12.9375 13.9096 11.0634 13.9096 9.90709 15.0538L6.04618 18.8752Z" fill="#23292F"/>
</g>
<defs>
<clipPath id="clip0_2068_1893">
<rect width="24" height="24" fill="white"/>
</clipPath>
</defs>
</svg>
