<svg width="24" height="24" viewBox="0 0 24 24" fill="none" xmlns="http://www.w3.org/2000/svg">
<g clip-path="url(#clip0_2068_1890)">
<path d="M11.9984 24C18.6206 24 23.9969 18.6238 23.9969 12.0016C23.9969 5.37936 18.6238 0 11.9984 0C5.37309 0 0 5.37623 0 11.9984C0 18.6206 5.37623 24 11.9984 24Z" fill="#005AE0"/>
<path d="M13.762 20.8355C12.5003 20.8355 11.5808 20.5405 11.0033 19.9317C10.4258 19.3228 10.1465 18.6857 10.1465 17.9827C10.1465 17.7347 10.1935 17.515 10.3034 17.3424C10.3975 17.1698 10.5356 17.0317 10.7082 16.9375C10.8809 16.8434 11.0974 16.7806 11.3485 16.7806C11.5996 16.7806 11.8161 16.8277 11.9888 16.9375C12.1614 17.0317 12.2995 17.1698 12.3936 17.3424C12.4878 17.515 12.5506 17.7316 12.5506 17.9827C12.5506 18.2934 12.4721 18.5444 12.3309 18.7296C12.1896 18.9179 12.0045 19.056 11.8004 19.1188C11.9731 19.351 12.2524 19.5237 12.6259 19.6335C12.9994 19.7433 13.3728 19.7904 13.7495 19.7904C14.2799 19.7904 14.7475 19.6492 15.1681 19.3699C15.5886 19.0905 15.8993 18.67 16.1034 18.1239C16.3074 17.5778 16.3984 16.9564 16.3984 16.2534C16.3984 15.4907 16.2885 14.8505 16.072 14.3201C15.8523 13.774 15.5416 13.3691 15.121 13.1212C14.7004 12.8575 14.2485 12.732 13.7495 12.732C13.4231 12.732 13.0339 12.8732 12.5506 13.1368L11.6718 13.5574V13.1212L15.6451 7.8234H10.1465V13.3252C10.1465 13.7771 10.2406 14.1506 10.4415 14.4487C10.6455 14.7437 10.9562 14.885 11.3611 14.885C11.6875 14.885 11.9856 14.7751 12.2806 14.5586C12.5757 14.3389 12.8267 14.0753 13.0433 13.7802C13.0747 13.7175 13.1061 13.6704 13.1375 13.6547C13.1845 13.6233 13.2159 13.6076 13.263 13.6076C13.3415 13.6076 13.4199 13.639 13.5266 13.7175C13.6208 13.8273 13.6679 13.9497 13.6679 14.0909C13.6679 14.1537 13.6365 14.2479 13.6208 14.3703C13.4011 14.885 13.0904 15.2742 12.6855 15.5378C12.2806 15.8014 11.8444 15.9426 11.3611 15.9426C10.1621 15.9426 9.34927 15.7104 8.88163 15.2428C8.42968 14.7751 8.19743 14.1349 8.19743 13.3408V7.8234H5.3916V6.79398H8.21313V4.45581L7.57287 3.81556V3.28516H9.44342L10.1433 3.64294V6.77829L17.4215 6.76259L18.1371 7.47817L13.6836 11.9536C13.9472 11.8438 14.2297 11.781 14.5247 11.7496C15.008 11.7496 15.5541 11.9066 16.1442 12.2173C16.753 12.5123 17.2207 12.9328 17.5471 13.4632C17.8735 13.9937 18.0932 14.4927 18.1873 14.976C18.2815 15.4593 18.3443 15.8799 18.3443 16.269C18.3443 17.1259 18.1559 17.9199 17.7982 18.6543C17.4404 19.3856 16.8943 19.9473 16.1473 20.3051C15.4129 20.6629 14.6188 20.8355 13.762 20.8355Z" fill="white"/>
</g>
<defs>
<clipPath id="clip0_2068_1890">
<rect width="24" height="24" fill="white"/>
</clipPath>
</defs>
</svg>
