<svg width="24" height="24" viewBox="0 0 24 24" fill="none" xmlns="http://www.w3.org/2000/svg">
<g clip-path="url(#clip0_1477_1452)">
<path fill-rule="evenodd" clip-rule="evenodd" d="M12 0C18.6264 0 24 5.3736 24 12C24 18.6264 18.6264 24 12 24C5.3736 24 0 18.6264 0 12C0 5.3736 5.3736 0 12 0Z" fill="#006AE3"/>
<path d="M11.5059 17.0582V7.07422H12.5931V17.0582H11.5059Z" fill="white"/>
<path d="M17.0395 10.4013L13.6819 11.2917L12.9331 7.80693L13.9315 7.58133L14.3251 9.23253C14.3251 9.23253 15.2323 7.74453 14.0227 6.20373C13.3099 5.41173 12.9715 5.37813 12.1723 5.25333C11.4691 5.15253 9.8347 5.39013 9.3475 7.29813C9.1411 8.52693 9.3739 9.43653 10.9579 10.6269L10.8691 11.9517C10.8691 11.9517 9.1003 10.7061 8.6443 9.83253C8.2915 9.14133 7.6867 7.77573 8.7787 5.87493C9.3667 4.92453 10.5259 4.01253 12.5683 4.10853C13.5955 4.15173 16.1035 5.40693 15.7147 8.33973C15.6475 8.88933 15.3619 9.62133 15.3619 9.62133L16.7395 9.31413L17.0395 10.4013Z" fill="white"/>
<path d="M15.1218 18.214C14.5074 19.1476 13.3242 20.0284 11.2866 19.8796C10.2594 19.81 7.7874 18.4876 8.253 15.5668C8.3346 15.0196 8.6394 14.2972 8.6394 14.2972L7.2546 14.566L6.9834 13.474L10.365 12.6724L11.0226 16.1764L10.017 16.3756L9.6666 14.7124C9.6666 14.7124 8.721 16.174 9.8874 17.7484C10.5786 18.5596 10.9146 18.6004 11.7138 18.7468C12.4122 18.8668 14.0538 18.67 14.5914 16.7764C14.829 15.5548 14.6202 14.638 13.0698 13.4044L13.1946 12.082C13.1946 12.082 14.9298 13.3732 15.3618 14.2588C15.693 14.962 16.2618 16.3444 15.1218 18.214Z" fill="white"/>
</g>
<defs>
<clipPath id="clip0_1477_1452">
<rect width="24" height="24" fill="white"/>
</clipPath>
</defs>
</svg>
