<svg width="24" height="24" viewBox="0 0 24 24" fill="none" xmlns="http://www.w3.org/2000/svg">
<g clip-path="url(#clip0_720_17786)">
<path d="M11.4965 1.13307H11.4993H11.502C12.2284 1.51681 13.645 2.25061 15.2961 3.03052C17.0481 3.85855 19.0555 4.82612 19.9887 5.27602C20.0572 6.9826 20.113 12.1184 18.5407 15.4786C17.6318 17.421 16.4562 19.1544 15.1376 20.4909C13.9577 21.6898 12.7027 22.5359 11.4993 22.9473C10.2962 22.5395 9.04204 21.6918 7.861 20.4945C6.5435 19.1568 5.36679 17.4234 4.45791 15.4822C2.8887 12.1288 2.94258 6.98701 3.01062 5.27963C3.94388 4.82853 5.95042 3.86136 7.70251 3.03413C9.35431 2.25422 10.7701 1.52042 11.4965 1.13668V1.13307ZM11.4993 0.00390625L11.4293 0.0415987C10.9518 0.297826 9.30121 1.17397 7.28917 2.1247C4.89288 3.25708 2.05847 4.63084 2.05847 4.63084C2.05847 4.63084 1.53501 11.5678 3.56947 15.9149C5.5536 20.1545 8.56931 23.1017 11.3907 23.9698C11.3907 23.9698 11.4623 24.0123 11.4981 24.0023C11.5339 24.0123 11.6055 23.9698 11.6055 23.9698C14.4269 23.1017 17.443 20.1545 19.4267 15.9149C21.4612 11.567 20.9377 4.63084 20.9377 4.63084C20.9377 4.63084 18.1061 3.25708 15.707 2.1247C13.6974 1.17036 12.0467 0.294217 11.5685 0.0379897L11.4993 0.00390625Z" fill="url(#paint0_linear_720_17786)"/>
<path d="M19.1336 5.83541C19.1336 5.83541 16.8424 4.69141 14.9046 3.7503C13.2776 2.95876 11.9428 2.22938 11.5566 2.01565L11.5 1.98438L11.4433 2.01565C11.0575 2.22938 9.72272 2.95876 8.0953 3.7503C6.15758 4.69301 3.86631 5.83541 3.86631 5.83541C3.86631 5.83541 3.44274 11.6096 5.08824 15.2316C6.69245 18.7619 9.13082 21.2163 11.4119 21.938C11.4119 21.938 11.4697 21.9733 11.4988 21.9649C11.5279 21.9733 11.5857 21.938 11.5857 21.938C13.8668 21.2163 16.3051 18.7611 17.9109 15.2308C19.5572 11.6112 19.1336 5.83541 19.1336 5.83541ZM17.0197 14.8102C16.7775 15.3434 16.508 15.8632 16.2123 16.3676C15.935 16.3676 15.4171 16.3869 15.4171 16.3869L14.0256 18.6965L14.2447 18.994C13.3484 19.9163 12.4049 20.5771 11.5 20.9111C10.5868 20.5743 9.63462 19.9087 8.73124 18.9696L8.93221 18.6965L7.54038 16.3869C7.54038 16.3869 7.07237 16.3712 6.78802 16.368C6.49223 15.8635 6.22259 15.3435 5.98021 14.8102C4.7512 12.1052 4.76732 7.97344 4.81963 6.47618C5.60856 6.08402 7.1585 5.31333 8.51887 4.65371C9.29718 4.27478 10.0114 3.90909 10.5883 3.60635L11.5 4.91636L12.4116 3.60635C12.9889 3.90909 13.7028 4.27478 14.4815 4.65371C15.8414 5.31533 17.3918 6.08442 18.1807 6.47658C18.2338 7.97264 18.2519 12.0987 17.0197 14.8102Z" fill="url(#paint1_linear_720_17786)"/>
<path d="M6.2334 6.15896L9.43159 5.50977L10.4675 6.15896L12.5256 10.5818L14.138 7.62294C14.138 7.62294 14.1825 6.71752 13.9607 6.47573C13.7389 6.23394 13.5902 6.15896 13.5902 6.15896L15.7666 5.50977L16.8033 6.15896L13.4274 12.9356L13.4868 17.1928L14.2419 18.5513L9.3258 18.6267L8.28949 17.9775L10.3771 17.4189V12.8313L7.37157 7.51748C7.37157 7.51748 7.03295 6.52104 6.2334 6.15896Z" fill="#DDDDDD"/>
<path d="M5.19824 5.50977H9.43274L11.4908 9.9326L13.1033 6.97415C13.1033 6.97415 13.1477 6.06833 12.9255 5.82694C12.7033 5.58555 12.5554 5.50977 12.5554 5.50977H15.7682L12.3926 12.2864L12.452 16.5436L13.2071 17.9021L8.29104 17.9775L9.34229 16.7702V12.1821L6.33877 6.8683C6.33877 6.8683 5.997 5.87185 5.19824 5.50977Z" fill="white"/>
</g>
<defs>
<linearGradient id="paint0_linear_720_17786" x1="2.5894" y1="0.76217" x2="19.6018" y2="21.733" gradientUnits="userSpaceOnUse">
<stop stop-color="#3563C3"/>
<stop offset="1" stop-color="#CC321E"/>
</linearGradient>
<linearGradient id="paint1_linear_720_17786" x1="3.357" y1="3.1881" x2="19.5131" y2="20.0576" gradientUnits="userSpaceOnUse">
<stop stop-color="#3563C3"/>
<stop offset="1" stop-color="#CC321E"/>
</linearGradient>
<clipPath id="clip0_720_17786">
<rect width="19" height="24" fill="white" transform="translate(2)"/>
</clipPath>
</defs>
</svg>
