<svg width="24" height="24" viewBox="0 0 24 24" fill="none" xmlns="http://www.w3.org/2000/svg">
<path d="M20.9536 9.91769L17.4979 11.4584L8.33057 16.1247L17.4979 20.5323V13.2468L20.9536 11.6895V22.4527L17.4979 23.9934L4 17.5333V14.0997L13.3435 9.516L4 5.02585V1.54269L7.51068 0.00195312L20.9536 6.47305V9.91769Z" fill="black"/>
<path d="M4 1.5427L17.4979 8.01384L20.9536 6.4731L7.51068 0.00195312L4 1.5427Z" fill="#087A8E"/>
<path d="M17.498 7.99972L20.9538 6.45898V9.90363L17.498 11.4444V7.99972Z" fill="#2A8E97"/>
<path d="M4 1.54492V5.02809L13.3435 9.51824L4 14.1019V17.5356L17.4979 23.9957V20.54L8.33057 16.1269L17.4979 11.4607V8.01602L4 1.54492Z" fill="#49C1BF"/>
<path d="M17.498 23.9699L20.9538 22.4292V11.666L17.498 13.2233V23.9699Z" fill="#2A8E97"/>
</svg>
