<svg width="24" height="24" viewBox="0 0 24 24" fill="none" xmlns="http://www.w3.org/2000/svg">
<g clip-path="url(#clip0_2374_4045)">
<circle cx="12" cy="12" r="12" fill="url(#paint0_linear_2374_4045)"/>
<path d="M17.8048 15.2887C17.1845 17.1877 15.076 18.2026 13.0953 17.5557C11.1147 16.9087 10.0119 14.8447 10.6322 12.9457C11.2525 11.0467 14.1189 7.21056 16.0996 7.85755C18.0802 8.50454 18.4251 13.3897 17.8048 15.2887Z" fill="white"/>
<ellipse cx="11.7101" cy="12.5136" rx="0.301887" ry="0.490566" transform="rotate(38.2169 11.7101 12.5136)" fill="#C1966B"/>
<ellipse cx="15.7755" cy="11.7324" rx="0.372097" ry="0.486811" transform="rotate(10.5737 15.7755 11.7324)" fill="#C1966B"/>
<ellipse cx="13.4721" cy="14.2827" rx="0.487847" ry="0.792752" transform="rotate(18.7935 13.4721 14.2827)" fill="#C1966B"/>
<ellipse cx="16.4425" cy="14.1149" rx="0.683283" ry="0.910087" transform="rotate(18.7935 16.4425 14.1149)" fill="#C1966B"/>
<path d="M18.4935 13.1221C19.6709 14.2995 20.8441 13.2102 21.0956 12.5184L21.3976 12.0655C21.6391 11.7031 21.4982 10.7069 21.3976 10.2541C21.3598 10.1032 21.2466 10.0277 21.2466 9.80131C21.3976 9.08433 20.6051 7.82757 19.6617 7.14817C18.907 6.60465 18.5758 6.16694 18.4935 6.0161C18.3426 5.73935 18.018 4.92574 17.6256 4.29182C17.135 3.49942 16.3032 3.03514 15.8881 3.33702C15.473 3.63891 16.2754 4.73286 17.135 5.2731C17.4353 5.46178 16.3032 5.18592 16.154 5.46178L16.3409 5.67681C16.0391 5.72711 15.0354 5.63154 14.3411 4.9976C13.6468 4.36366 13.2074 4.54467 13.0957 4.507C12.7561 3.82773 11.9621 4.05411 11.9637 4.01649C10.8317 3.1863 10.3426 3.94185 9.73886 4.16826C9.13508 4.39468 8.79384 3.7531 7.92592 3.63989C7.05799 3.52669 6.94644 3.72595 6.83317 4.29199C6.7199 4.85803 7.96527 5.38631 9.24829 5.2731C10.5313 5.15989 10.6445 5.23536 11.2105 5.46178C11.6633 5.64291 11.7372 6.02772 11.3992 5.91462C11.0722 5.75109 10.1825 5.36065 9.85044 5.7531C9.51834 6.14556 9.31116 5.9775 9.24829 5.91462C8.89609 5.63789 8.04072 5.71537 8.04072 6.13046C8.04072 6.86063 9.39924 6.79066 9.73886 6.89578C10.2672 7.05931 10.5838 7.66452 9.55018 8.25429C8.6429 8.77197 7.07217 8.54358 6.83317 8.02786C6.58161 7.21025 5.3598 5.77574 4.60508 6.47008C3.66169 7.33801 5.09735 7.42408 5.77657 8.02786C6.31994 8.51088 5.7514 8.531 5.39921 8.48069C5.21054 8.26686 4.8332 7.92221 4.8332 8.25429C4.8332 8.58636 4.58161 8.39265 4.45581 8.25429C3.66336 7.6002 1.64662 6.47763 1.58624 7.71537C1.52587 8.9531 3.61304 9.43667 4.45581 9.46182C4.83317 9.43667 5.95338 9.31801 6.83317 9.99012C7.51082 10.5078 7.92594 11.3001 7.51082 11.7531C7.30955 11.9292 7.04447 12.0731 6.38034 11.6505C5.55018 11.1222 5.13508 11.4888 5.13508 11.7531C5.13508 12.4324 6.15392 12.4052 6.83317 12.5184C7.51241 12.6316 7.43535 12.8474 7.28441 13.6399C7.13346 14.4323 6.3426 14.6694 5.77657 14.5562C5.32374 14.4656 5.24667 14.1787 4.68222 13.9146C4.06587 13.6505 2.65044 13.5599 2.98252 14.5562C3.39761 15.8015 5.47468 15.6505 6.38034 15.6882C7.286 15.726 7.54856 16.5833 7.92592 17.2625C8.2278 17.8059 8.41489 17.6775 8.6429 17.6399C8.9322 17.5518 9.54856 17.3456 9.85044 18.2814C10.2278 19.4512 7.77657 19.2354 7.05958 19.1977C6.3426 19.1599 6.76854 19.441 6.83317 19.5373C7.8143 20.9984 9.09576 20.4323 10.1146 19.904C10.9186 19.4872 10.9565 19.8682 10.9815 20.1201L10.9825 20.1305C10.9432 20.5454 11.1712 20.7327 11.2105 20.772C11.452 21.0135 12.6177 20.4198 13.0957 20.1305C13.6995 20.2688 15.5426 20.3222 17.6256 19.5373C20.2294 18.5562 19.8143 16.3675 19.7765 15.6882C19.7388 15.009 18.9463 14.9335 18.4935 15.009C18.1313 15.0694 17.764 15.487 17.6256 15.6882C17.5375 15.5373 17.3162 15.2279 17.135 15.1977C16.9086 15.1599 16.6822 15.3109 15.9652 15.0845C15.2482 14.858 15.2089 15.6882 14.8331 15.8769C13.6633 16.5562 14.1162 14.858 14.0784 14.4807L14.0777 14.4733C14.0406 14.1024 14.0335 14.0313 12.9463 14.5562C12.0709 14.9788 11.1224 15.0845 10.7577 15.0845C10.3924 14.5652 10.1674 12.9682 12.1901 10.7342C12.1901 10.704 12.5297 10.5833 13.286 11.1599C14.8836 12.3778 15.0973 11.1599 15.0596 11.1599C15.6332 11.4014 16.2294 11.2605 16.4558 11.1599C16.6445 11.3234 17.3162 11.9448 18.4935 13.1221Z" fill="#2C0218"/>
<path d="M18.6806 13.3377C19.858 14.5151 20.6555 13.4258 20.907 12.7339L21.209 12.281C21.4505 11.9187 21.3096 10.9225 21.209 10.4697C21.1712 10.3188 21.058 10.2433 21.058 10.0169C21.209 9.2999 20.2656 8.05477 19.3222 7.37537C18.5675 6.83185 18.3479 6.28103 18.2656 6.13019C18.1146 5.85345 17.7146 5.14148 17.3221 4.50756C16.8315 3.71517 16.341 3.75279 15.9259 4.05468C15.5109 4.35657 16.6429 4.73398 17.3221 5.48867C18.0013 6.24337 16.4542 5.67735 16.341 5.67735C16.2278 5.67735 15.7373 5.67735 16.1523 5.82826C16.4843 5.94899 16.2906 6.07985 16.1523 6.13019C15.8504 6.18049 15.0731 6.12261 14.3788 5.48867C13.6845 4.85474 13.2451 5.03575 13.1334 4.99808C12.7938 4.3188 11.9998 4.54518 12.0014 4.50756C10.8694 3.67738 10.341 4.43209 9.73727 4.65851C9.13349 4.88492 9.09573 4.31888 8.22781 4.20568C7.35988 4.09247 7.28444 4.16794 7.17117 4.73398C7.05791 5.30002 8.15236 5.60188 9.43538 5.48867C10.7184 5.37547 10.8316 5.45094 11.3976 5.67735C11.8504 5.85848 11.9243 6.24329 11.5863 6.13019C11.2593 5.96667 10.5222 5.73774 10.1901 6.13019C9.85797 6.52264 9.6492 6.49499 9.58632 6.43211C9.23412 6.15538 8.50708 5.78306 8.41651 6.50759C8.32595 7.23211 9.58632 7.00624 9.92595 7.11136C10.4542 7.27488 11.1335 7.82079 9.62406 8.69626C8.11463 9.57173 7.25926 8.75915 7.02026 8.24343C6.7687 7.42582 6.07689 5.96419 5.32217 6.65853C4.37878 7.52645 5.28444 7.63966 5.96365 8.24343C6.50703 8.72645 5.93849 8.74658 5.5863 8.69626C5.39763 8.48243 5.02029 8.13779 5.02029 8.46986C5.02029 8.80194 4.7687 8.60823 4.6429 8.46986C3.85045 7.81577 2.25045 6.81703 2.19007 8.05477C2.12969 9.2925 3.80013 9.65224 4.6429 9.6774C5.02026 9.65224 6.02403 9.72268 7.02026 10.2057C8.01649 10.6887 8.41651 11.4131 8.00139 11.8661C7.80012 12.0422 7.23155 12.2887 6.56743 11.8661C5.73727 11.3378 5.5863 11.4886 5.5863 11.7529C5.5863 12.4322 6.22781 12.4698 6.90705 12.5831C7.5863 12.6963 7.6995 13.0736 7.54856 13.8661C7.39762 14.6585 6.52969 14.8849 5.96365 14.7717C5.51082 14.6812 5.43376 14.3942 4.86931 14.1302C4.25296 13.8661 3.10328 13.5868 3.43535 14.5831C3.85045 15.8284 5.85045 15.6774 6.75611 15.7151C7.66177 15.7529 7.85045 16.4321 8.22781 17.1114C8.52969 17.6548 8.71678 17.5263 8.94479 17.4887C9.23409 17.4007 9.88818 17.4585 10.1901 18.3944C10.5674 19.5642 8.11457 19.2623 7.39759 19.2246C6.68061 19.1868 7.0833 19.4886 7.17117 19.5642C8.79381 20.9604 9.09573 20.2812 10.1146 19.7529C10.9296 19.3302 11.1837 19.7277 11.2089 19.9793C11.1696 20.3942 11.3583 20.506 11.3976 20.5453C11.6391 20.7868 12.6554 20.2686 13.1334 19.9793C13.7372 20.1176 15.4655 20.1982 17.5485 19.4132C20.1523 18.4321 20.0014 16.5831 19.9636 15.9038C19.9259 15.2246 19.1334 15.1491 18.6806 15.2246C18.3183 15.2849 17.951 15.7026 17.8127 15.9038C17.7246 15.7529 17.5032 15.4434 17.3221 15.4132C17.0957 15.3755 16.8693 15.5265 16.1523 15.3C15.4353 15.0736 15.396 15.9038 15.0202 16.0925C13.8504 16.7717 14.3032 15.0736 14.2655 14.6963L14.2648 14.6889C14.2277 14.3179 14.2206 14.2469 13.1334 14.7717C12.258 15.1944 11.3095 15.3 10.9448 15.3C10.5045 15.2749 9.51837 14.8774 9.09573 13.4887C8.67309 12.1 9.64919 11.3 10.1901 11.0736C10.6932 10.8597 12.0542 10.6207 13.4731 11.3755C15.2467 12.3189 15.2844 11.3755 15.2467 11.3755C15.8203 11.617 16.4165 11.4761 16.6429 11.3755C16.8316 11.539 17.5033 12.1604 18.6806 13.3377Z" fill="url(#paint1_linear_2374_4045)"/>
<path d="M17.9271 9.71374C17.9271 10.6933 17.133 11.4873 16.1535 11.4873C15.1739 11.4873 14.3799 10.6933 14.3799 9.71374C14.3799 8.73421 14.9475 8.01562 15.9271 8.01562C16.3044 8.84581 17.8138 9.18544 17.9271 9.71374Z" fill="#ECEC96"/>
<circle cx="16.1917" cy="9.75221" r="0.603774" fill="#6B1515"/>
<circle cx="16.1911" cy="9.75166" r="0.45283" fill="#EC9615"/>
<circle cx="16.1915" cy="9.75306" r="0.301887" fill="#6B1515"/>
<ellipse cx="16.1082" cy="9.37804" rx="0.198615" ry="0.148961" transform="rotate(-30.7478 16.1082 9.37804)" fill="white"/>
<ellipse cx="15.8133" cy="9.6664" rx="0.120954" ry="0.0907156" transform="rotate(31.9781 15.8133 9.6664)" fill="white"/>
<path d="M17.5473 10.7706C17.019 11.2234 16.6039 11.4886 16.1536 11.4886C15.1741 11.4886 14.38 10.6946 14.38 9.71506C14.3801 9.71447 14.3798 9.41254 14.3799 9.41211C14.7572 10.2423 16.6039 10.9593 17.5473 10.7706Z" fill="#FF6001"/>
<path fill-rule="evenodd" clip-rule="evenodd" d="M14.9069 6.59757C14.9817 6.56077 15.0722 6.59157 15.109 6.66637C15.2277 6.90769 15.631 7.51273 15.9311 7.8833C16.4522 8.52678 17.3102 9.01028 17.9887 9.34983C18.0294 9.36604 18.0747 9.38449 18.1225 9.40399C18.3048 9.47829 18.5244 9.56779 18.6716 9.6057C18.7523 9.6265 18.8009 9.7088 18.7801 9.78953C18.7593 9.87026 18.677 9.91884 18.5963 9.89805C18.4608 9.86314 18.2741 9.79103 18.1112 9.72538C18.1101 9.94505 18.041 10.1743 17.9298 10.3881C17.7682 10.6989 17.5085 10.9965 17.1919 11.2196C16.8751 11.4429 16.4945 11.5964 16.0907 11.6074C15.6839 11.6184 15.2636 11.4844 14.875 11.1492C14.4797 10.8083 14.273 10.4312 14.2098 10.0511C14.1469 9.67285 14.2285 9.30606 14.3848 8.98706C14.5408 8.66856 14.7737 8.39227 15.0237 8.18987C15.1908 8.05458 15.3721 7.94715 15.5496 7.88476C15.268 7.51125 14.9503 7.02771 14.8381 6.79965C14.8013 6.72485 14.8321 6.63438 14.9069 6.59757ZM15.7522 8.14026C15.5949 8.17411 15.4039 8.27053 15.2136 8.42451C14.9948 8.6017 14.791 8.84413 14.6559 9.11987C14.5211 9.39511 14.4571 9.69808 14.5076 10.0016C14.5577 10.3031 14.7231 10.6195 15.0721 10.9206C15.4055 11.2081 15.7531 11.3146 16.0825 11.3056C16.415 11.2965 16.7391 11.1694 17.018 10.9728C17.297 10.7762 17.5237 10.5148 17.662 10.2489C17.7878 10.0068 17.8331 9.77627 17.7975 9.5916C17.1478 9.26361 16.3051 8.7862 15.7522 8.14026Z" fill="#2C0218"/>
</g>
<defs>
<linearGradient id="paint0_linear_2374_4045" x1="12" y1="0" x2="12" y2="24" gradientUnits="userSpaceOnUse">
<stop stop-color="#5C2002"/>
<stop offset="1" stop-color="#CF4603"/>
</linearGradient>
<linearGradient id="paint1_linear_2374_4045" x1="2.18848" y1="7.52631" x2="19.6602" y2="18.0169" gradientUnits="userSpaceOnUse">
<stop stop-color="#FFFF01"/>
<stop offset="1" stop-color="#FF0000"/>
</linearGradient>
<clipPath id="clip0_2374_4045">
<rect width="24" height="24" fill="white"/>
</clipPath>
</defs>
</svg>
